<svg enable-background="new 0 0 175.094 175.012" height="175.012" viewBox="0 0 175.094 175.012" width="175.094" xmlns="http://www.w3.org/2000/svg"><g clip-rule="evenodd" fill="#fff" fill-rule="evenodd"><path d="m87.48 175.009c-47.898.387-88.336-39.49-87.466-89.121.825-47.139 39.868-86.49 88.742-85.881 47.781.594 87.299 40.279 86.32 89.379-.943 47.373-40.119 86.018-87.596 85.623zm.071-27.158c32.774 0 60.196-27.264 60.344-59.765.152-33.624-27.288-59.912-59.23-60.477-33.237-.588-61.288 26.2-61.431 59.564-.151 34.957 28.893 60.866 60.317 60.678z"/><path d="m87.625 43.771c24.478.041 44.181 20.091 43.689 44.69-.468 23.435-19.477 42.821-43.722 42.856-24.674.035-44.308-20.16-43.811-44.689.477-23.537 19.632-42.87 43.844-42.857z"/></g></svg>