<svg enable-background="new 0 0 175.095 175.014" height="175.014" viewBox="0 0 175.095 175.014" width="175.095" xmlns="http://www.w3.org/2000/svg"><path clip-rule="evenodd" d="m87.462 175.011c-47.885.377-88.327-39.496-87.448-89.14.835-47.133 39.879-86.481 88.761-85.864 47.771.604 87.289 40.286 86.302 89.398-.953 47.369-40.132 86.008-87.615 85.606zm8.341-87.56c13.434-13.206 26.623-26.17 39.729-39.053-3.026-3.026-5.816-5.815-8.679-8.677-13.04 12.969-26.15 26.008-39.305 39.089-13.195-13.122-26.305-26.16-39.244-39.028-2.915 2.915-5.704 5.702-8.754 8.751 13.07 12.853 26.24 25.804 39.742 39.081-13.433 13.213-26.621 26.188-39.646 39.001 3.035 3.05 5.834 5.862 8.896 8.94 12.867-13.085 25.819-26.255 39.077-39.736 13.2 13.423 26.172 26.614 38.968 39.626 3.046-3.045 5.853-5.852 8.919-8.917-13.039-12.833-26.204-25.79-39.703-39.077z" fill="#fff" fill-rule="evenodd"/></svg>