<svg enable-background="new -374 6.558 88.55 65.017" height="65.017" viewBox="-374 6.558 88.55 65.017" width="88.55" xmlns="http://www.w3.org/2000/svg"><g fill="#fff"><path d="m-293.965 40.338c0 2.592-3.778 6.366-6.367 6.366h-63.837c-2.594 0-6.367-3.777-6.367-6.366v-27.409c0-2.594 3.776-6.371 6.367-6.371h63.833c2.592 0 6.366 3.777 6.366 6.371v27.409z"/><path d="m-364.937 60.245c-.08-.782-.363-1.37-.854-1.755-.491-.384-1.229-.574-2.213-.574-1.815 0-2.721.626-2.721 1.867 0 .449.186.821.562 1.115.376.302.977.553 1.809.747.983.233 1.837.45 2.559.648.726.199 1.385.428 1.988.691.335.135.655.308.955.52.301.207.554.462.761.773.207.303.372.674.497 1.106.123.432.186.95.186 1.564 0 .739-.151 1.392-.46 1.962-.307.57-.727 1.051-1.245 1.443-.522.394-1.136.688-1.845.899-.709.208-1.457.312-2.234.312-2.23 0-3.91-.433-5.029-1.293-1.128-.855-1.716-2.131-1.779-3.82h3.09c.013.782.335 1.4.955 1.854.625.453 1.403.679 2.341.679 1.014 0 1.785-.187 2.306-.554.523-.367.785-.864.785-1.5 0-.242-.033-.471-.093-.679-.062-.207-.182-.397-.358-.566-.173-.168-.417-.315-.722-.449-.31-.134-.709-.25-1.2-.358-1.173-.242-2.183-.497-3.036-.748-.854-.251-1.558-.566-2.112-.942-.553-.376-.959-.834-1.221-1.374s-.394-1.219-.394-2.053c0-.632.115-1.22.344-1.772.231-.553.586-1.033 1.063-1.443.478-.411 1.067-.73 1.766-.969.7-.242 1.523-.358 2.479-.358.921 0 1.753.112 2.492.358.739.238 1.373.575 1.904 1.012.529.437.942.968 1.234 1.595.291.622.456 1.31.481 2.062z"/><path d="m-357.969 71.038v-15.313h11.255v2.675h-8.143v3.276h7.492v2.697h-7.488v3.946h8.511v2.719z"/><path d="m-343.044 71.038v-15.313h3.202v12.525h7.592v2.788z"/><path d="m-328.837 71.038v-15.313h11.257v2.675h-8.143v3.276h7.49v2.697h-7.49v3.946h8.506v2.719z"/><path d="m-300.421 65.782c-.164.877-.437 1.668-.804 2.377-.368.709-.83 1.314-1.393 1.824-.562.506-1.21.898-1.949 1.176-.738.28-1.552.415-2.45.415-.994 0-1.928-.173-2.801-.506-.864-.342-1.616-.848-2.248-1.526-.631-.674-1.123-1.513-1.486-2.502-.363-.994-.545-2.148-.545-3.471 0-1.293.164-2.455.497-3.497.329-1.037.8-1.914 1.414-2.628.617-.713 1.365-1.266 2.251-1.65.887-.385 1.872-.575 2.966-.575.95 0 1.819.139 2.593.424.773.28 1.448.679 2.006 1.176.562.501 1.007 1.089 1.335 1.768.333.679.536 1.396.614 2.17h-3.207c-.216-.878-.631-1.561-1.245-2.04-.618-.484-1.305-.727-2.079-.727-1.335 0-2.321.479-2.952 1.439-.631.964-.941 2.282-.941 3.959 0 1.707.311 3.034.934 3.977.622.951 1.556 1.422 2.801 1.422.95 0 1.72-.255 2.299-.77s.973-1.258 1.188-2.226h3.203v-.009z"/><path d="m-293.294 71.038v-12.638h-4.611v-2.675h12.456v2.675h-4.633v12.639h-3.212z"/></g></svg>