<svg enable-background="new -36 -3 58.296 54.682" height="54.682" viewBox="-36 -3 58.296 54.682" width="58.296" xmlns="http://www.w3.org/2000/svg"><g fill="#fff"><path d="m-28.894 42.807c-.061-.619-.286-1.077-.667-1.376-.387-.304-.968-.455-1.737-.455-1.422 0-2.134.488-2.134 1.463 0 .354.149.646.444.876.297.237.766.435 1.419.59.772.182 1.439.353 2.008.507.563.157 1.085.338 1.555.544.265.106.516.244.748.406.237.165.435.365.598.606.163.239.295.533.388.868.099.34.146.749.146 1.23 0 .578-.123 1.089-.362 1.534-.242.448-.568.824-.976 1.136-.411.307-.892.543-1.446.701-.554.166-1.141.244-1.755.244-1.747 0-3.062-.337-3.943-1.012-.878-.678-1.345-1.676-1.391-3.002h2.422c.012.614.262 1.098.75 1.456.486.354 1.102.533 1.836.533.797 0 1.396-.148 1.81-.433.412-.29.614-.684.614-1.177 0-.189-.025-.369-.072-.53-.047-.162-.14-.312-.277-.445-.141-.13-.33-.25-.572-.354-.242-.098-.554-.193-.941-.281-.915-.188-1.708-.387-2.378-.586-.667-.198-1.223-.446-1.656-.744-.432-.292-.751-.65-.958-1.075-.206-.418-.311-.959-.311-1.607 0-.492.095-.961.275-1.394.181-.434.457-.809.832-1.133.373-.317.835-.571 1.384-.759.547-.183 1.197-.279 1.944-.279.725 0 1.376.095 1.954.279.579.188 1.078.456 1.492.796.417.342.737.761.967 1.251.232.485.359 1.024.381 1.616h-2.389v.006z"/><path d="m-20.285 51.269v-9.911h-3.618v-2.098h9.765v2.098h-3.635v9.911z"/><path d="m-5.893 51.269-.759-2.477h-4.434l-.848 2.477h-2.657l4.283-12.009h2.913l4.232 12.009zm-2.985-9.312h-.017l-1.536 4.773h3.051z"/><path d="m6.908 51.269v-3.094c0-.578-.134-.991-.396-1.237-.267-.249-.76-.372-1.483-.372h-2.675v4.703h-2.443v-12.009h6.092c.552 0 1.059.091 1.508.262.453.176.843.418 1.17.726.321.305.572.674.748 1.101.177.428.262.893.262 1.385 0 .65-.153 1.229-.461 1.728-.304.497-.751.851-1.327 1.056.529.167.908.428 1.13.777.22.351.333.876.333 1.574v3.401h-2.458zm-4.554-9.93v3.202h3.142c.678 0 1.156-.152 1.43-.451.278-.303.417-.68.417-1.141 0-.469-.136-.854-.407-1.157-.273-.301-.723-.453-1.349-.453z"/><path d="m16.147 51.269v-9.911h-3.615v-2.098h9.764v2.098h-3.634v9.911z"/><path d="m-26.991 32.698c-1.697 0-2.877-1.298-2.877-3.156v-28.426c0-1.864 1.183-3.156 2.877-3.156.467 0 .948.097 1.438.292l37.483 15.075c1.577.631 1.816 1.527 1.816 2.001 0 .475-.239 1.363-1.816 1.998l-37.482 15.076c-.491.197-.972.296-1.439.296z"/><path d="m-27.628 33.745c-1.77 0-3.006-1.369-3.006-3.336v-30.073c0-1.964 1.236-3.336 3.006-3.336.486 0 .99.106 1.494.308l39.145 15.948c1.651.673 1.899 1.613 1.899 2.119 0 .497-.248 1.442-1.899 2.116l-39.145 15.944c-.504.211-1.008.31-1.494.31zm0-35.199c-.901 0-1.461.683-1.461 1.791v30.073c0 1.104.56 1.794 1.461 1.794.286 0 .592-.069.912-.199l39.141-15.949c.774-.312.939-.62.939-.684 0-.061-.168-.37-.939-.687l-39.139-15.943c-.322-.131-.628-.196-.914-.196z"/></g></svg>