<svg enable-background="new 0 0 175.095 175.014" height="175.014" viewBox="0 0 175.095 175.014" width="175.095" xmlns="http://www.w3.org/2000/svg"><g clip-rule="evenodd" fill="#fff" fill-rule="evenodd"><path d="m87.469 175.011c-47.89.379-88.33-39.494-87.455-89.134.832-47.134 39.875-86.484 88.755-85.87 47.774.6 87.292 40.284 86.308 89.392-.95 47.37-40.127 86.01-87.608 85.612zm.079-142.053c-18.253 31.097-36.379 61.98-54.574 92.977h109.153c-18.216-31.032-36.346-61.917-54.579-92.977z"/><path d="m120.397 115.078c-21.983 0-43.718 0-65.691 0 10.966-20.173 21.855-40.205 32.842-60.416 10.974 20.184 21.867 40.218 32.849 60.416z"/></g></svg>