<?xml version="1.0" encoding="utf-8"?>
<!-- Generator: Adobe Illustrator 16.0.0, SVG Export Plug-In . SVG Version: 6.00 Build 0)  -->
<!DOCTYPE svg PUBLIC "-//W3C//DTD SVG 1.1//EN" "http://www.w3.org/Graphics/SVG/1.1/DTD/svg11.dtd">
<svg version="1.1" id="Livello_1" xmlns="http://www.w3.org/2000/svg" xmlns:xlink="http://www.w3.org/1999/xlink" x="0px" y="0px"
	 width="64px" height="64px" viewBox="0 0 64 64" enable-background="new 0 0 64 64" xml:space="preserve">
<g>
	<path fill="#D24D57" d="M62,32c0,16.564-13.436,30-30,30C15.433,62,2,48.564,2,32C2,15.433,15.433,2,32,2C48.564,2,62,15.433,62,32
		z"/>
	<path opacity="0.2" d="M61.867,34.598c-0.012-0.012-0.021-0.023-0.031-0.035c-0.039-0.035-0.072-0.072-0.108-0.108
		c-0.036-0.034-0.069-0.071-0.108-0.104c-0.033-0.035-0.067-0.071-0.104-0.105c-0.035-0.038-0.072-0.073-0.107-0.107
		c-0.036-0.037-0.07-0.068-0.102-0.105c-0.039-0.036-0.076-0.071-0.111-0.111c-0.035-0.029-0.064-0.063-0.1-0.094
		c-0.035-0.039-0.073-0.078-0.113-0.113c-0.035-0.039-0.069-0.073-0.107-0.107c-0.033-0.038-0.07-0.072-0.105-0.109
		c-0.034-0.033-0.07-0.066-0.104-0.104c-0.037-0.035-0.072-0.073-0.106-0.107c-0.036-0.032-0.067-0.068-0.104-0.1
		c-0.035-0.04-0.071-0.075-0.111-0.111c-0.033-0.037-0.07-0.07-0.104-0.106c-0.032-0.033-0.066-0.067-0.099-0.101
		c-0.042-0.039-0.081-0.08-0.122-0.12c-0.033-0.03-0.063-0.063-0.098-0.095c-0.031-0.034-0.065-0.069-0.102-0.104
		c-0.037-0.037-0.076-0.076-0.115-0.115c-0.033-0.036-0.07-0.069-0.105-0.105c-0.032-0.033-0.066-0.066-0.099-0.1
		c-0.038-0.037-0.071-0.072-0.108-0.109c-0.037-0.036-0.071-0.071-0.109-0.105c-0.035-0.038-0.071-0.075-0.109-0.112
		c-0.031-0.032-0.066-0.063-0.098-0.097c-0.035-0.036-0.07-0.073-0.106-0.108c-0.038-0.036-0.075-0.074-0.111-0.111
		c-0.036-0.034-0.067-0.068-0.103-0.101c-0.035-0.037-0.071-0.075-0.111-0.112c-0.033-0.032-0.07-0.067-0.102-0.103
		c-0.036-0.036-0.072-0.072-0.107-0.106c-0.039-0.036-0.072-0.071-0.106-0.106c-0.036-0.036-0.069-0.07-0.108-0.105
		c-0.035-0.037-0.071-0.074-0.109-0.108c-0.031-0.034-0.066-0.067-0.1-0.102c-0.034-0.037-0.072-0.074-0.107-0.108
		c-0.035-0.037-0.07-0.072-0.105-0.107c-0.039-0.035-0.072-0.07-0.108-0.106c-0.034-0.036-0.067-0.07-0.106-0.104
		c-0.035-0.038-0.071-0.075-0.109-0.112c-0.031-0.033-0.066-0.064-0.098-0.098c-0.035-0.036-0.07-0.071-0.104-0.106
		c-0.04-0.038-0.077-0.078-0.117-0.116c-0.036-0.036-0.069-0.068-0.106-0.104c-0.031-0.033-0.063-0.066-0.098-0.1
		c-0.035-0.037-0.072-0.072-0.107-0.108c-0.036-0.037-0.072-0.073-0.107-0.107c-0.039-0.037-0.074-0.073-0.109-0.109
		c-0.035-0.034-0.066-0.066-0.104-0.102c-0.035-0.036-0.069-0.072-0.107-0.108c-0.033-0.035-0.07-0.07-0.105-0.106
		c-0.035-0.037-0.074-0.071-0.109-0.107c-0.031-0.034-0.066-0.067-0.099-0.101c-0.038-0.037-0.073-0.072-0.109-0.109
		s-0.071-0.073-0.11-0.108c-0.033-0.036-0.069-0.071-0.107-0.107c-0.031-0.034-0.066-0.066-0.1-0.101
		c-0.034-0.036-0.072-0.073-0.105-0.109c-0.039-0.035-0.072-0.071-0.108-0.107c-0.038-0.037-0.071-0.07-0.11-0.106
		c-0.031-0.035-0.065-0.069-0.104-0.105c-0.031-0.034-0.066-0.067-0.1-0.102c-0.038-0.041-0.08-0.079-0.119-0.118
		c-0.032-0.034-0.066-0.068-0.102-0.102c-0.033-0.033-0.066-0.066-0.102-0.099c-0.037-0.039-0.073-0.076-0.111-0.112
		c-0.033-0.035-0.068-0.069-0.102-0.104c-0.037-0.038-0.076-0.074-0.111-0.111c-0.034-0.034-0.066-0.067-0.101-0.102
		c-0.04-0.036-0.075-0.073-0.111-0.111c-0.032-0.032-0.063-0.064-0.097-0.096c-0.037-0.038-0.077-0.078-0.117-0.117
		c-0.031-0.033-0.066-0.064-0.098-0.098c-0.038-0.039-0.078-0.077-0.113-0.113c-0.035-0.034-0.066-0.067-0.101-0.101
		c-0.04-0.039-0.075-0.075-0.114-0.112c-0.031-0.033-0.063-0.066-0.098-0.099c-0.035-0.037-0.076-0.075-0.113-0.112
		c-0.033-0.036-0.068-0.07-0.102-0.103c-0.039-0.037-0.074-0.073-0.107-0.108c-0.037-0.035-0.068-0.068-0.107-0.103
		c-0.033-0.037-0.067-0.072-0.105-0.108c-0.033-0.035-0.07-0.071-0.107-0.107c-0.033-0.036-0.07-0.069-0.104-0.104
		c-0.035-0.036-0.07-0.071-0.105-0.107c-0.039-0.034-0.072-0.071-0.108-0.107s-0.069-0.071-0.106-0.104
		c-0.035-0.037-0.069-0.071-0.105-0.107c-0.033-0.035-0.07-0.067-0.102-0.102c-0.038-0.039-0.078-0.077-0.113-0.113
		c-0.035-0.034-0.066-0.067-0.101-0.102c-0.038-0.038-0.073-0.072-0.114-0.109c-0.031-0.035-0.065-0.07-0.102-0.105
		c-0.035-0.034-0.072-0.07-0.105-0.105c-0.036-0.037-0.074-0.073-0.109-0.108s-0.068-0.069-0.101-0.104
		c-0.038-0.036-0.071-0.071-0.11-0.107c-0.035-0.037-0.068-0.072-0.105-0.107c-0.035-0.036-0.073-0.073-0.111-0.11
		c-0.029-0.033-0.066-0.066-0.096-0.098c-0.039-0.037-0.074-0.075-0.111-0.113c-0.037-0.033-0.07-0.069-0.104-0.104
		c-0.038-0.038-0.075-0.074-0.114-0.111c-0.029-0.032-0.062-0.065-0.096-0.098c-0.035-0.036-0.072-0.071-0.105-0.105
		c-0.038-0.04-0.078-0.078-0.113-0.115c-0.039-0.036-0.072-0.069-0.105-0.105c-0.035-0.035-0.068-0.068-0.104-0.102
		c-0.035-0.037-0.069-0.073-0.107-0.108c-0.035-0.034-0.072-0.071-0.105-0.106c-0.035-0.037-0.076-0.074-0.111-0.109
		c-0.033-0.033-0.066-0.066-0.097-0.1c-0.038-0.038-0.073-0.073-0.112-0.111c-0.035-0.034-0.066-0.068-0.102-0.101
		c-0.037-0.038-0.075-0.076-0.113-0.115c-0.033-0.034-0.068-0.066-0.102-0.1c-0.036-0.037-0.074-0.075-0.111-0.112
		c-0.033-0.032-0.066-0.065-0.1-0.1c-0.037-0.037-0.072-0.074-0.113-0.11c-0.031-0.034-0.063-0.067-0.098-0.101
		c-0.037-0.039-0.078-0.076-0.115-0.114c-0.032-0.034-0.066-0.067-0.098-0.101c-0.041-0.037-0.076-0.074-0.113-0.111
		c-0.033-0.033-0.066-0.066-0.1-0.098c-0.035-0.036-0.069-0.072-0.107-0.108c-0.035-0.036-0.072-0.072-0.107-0.109
		s-0.074-0.073-0.109-0.109c-0.035-0.034-0.068-0.067-0.101-0.101c-0.04-0.038-0.075-0.074-0.113-0.112
		c-0.032-0.033-0.065-0.066-0.099-0.098c-0.035-0.038-0.074-0.075-0.113-0.112c-0.031-0.034-0.068-0.068-0.1-0.101
		c-0.037-0.038-0.076-0.076-0.111-0.113c-0.035-0.034-0.07-0.067-0.103-0.102c-0.038-0.037-0.071-0.072-0.11-0.107
		c-0.033-0.035-0.067-0.069-0.102-0.104c-0.035-0.036-0.072-0.071-0.107-0.107c-0.036-0.037-0.072-0.072-0.107-0.107
		c-0.039-0.038-0.076-0.075-0.111-0.111c-0.033-0.033-0.066-0.064-0.1-0.098c-0.035-0.038-0.071-0.075-0.111-0.111
		c-0.033-0.035-0.07-0.07-0.105-0.105c-0.031-0.035-0.066-0.068-0.1-0.102c-0.039-0.036-0.074-0.074-0.111-0.111
		c-0.037-0.035-0.068-0.069-0.105-0.104c-0.035-0.036-0.07-0.071-0.107-0.106c-0.033-0.035-0.068-0.069-0.104-0.105
		c-0.035-0.037-0.074-0.073-0.111-0.111c-0.032-0.032-0.064-0.065-0.096-0.097c-0.041-0.039-0.078-0.076-0.114-0.115
		c-0.036-0.035-0.067-0.068-0.104-0.102c-3.494-3.523-8.334-5.707-13.69-5.707c-10.651,0-19.29,8.636-19.29,19.288
		c0,5.352,2.182,10.189,5.702,13.683c0.039,0.041,0.076,0.077,0.114,0.116c0.036,0.035,0.071,0.068,0.105,0.105
		c0.034,0.032,0.068,0.067,0.102,0.1c0.035,0.035,0.071,0.074,0.107,0.108c0.036,0.037,0.071,0.072,0.106,0.105
		c0.035,0.038,0.069,0.071,0.105,0.107c0.035,0.036,0.07,0.069,0.106,0.106c0.037,0.036,0.074,0.071,0.112,0.111
		c0.031,0.031,0.065,0.066,0.097,0.098c0.039,0.037,0.079,0.078,0.116,0.115c0.035,0.036,0.069,0.069,0.104,0.102
		c0.034,0.036,0.067,0.068,0.101,0.104c0.035,0.033,0.07,0.067,0.106,0.106c0.034,0.032,0.069,0.07,0.104,0.104
		c0.037,0.036,0.074,0.075,0.109,0.11c0.037,0.037,0.072,0.072,0.109,0.106c0.033,0.035,0.065,0.067,0.099,0.103
		c0.039,0.037,0.076,0.073,0.113,0.113c0.034,0.032,0.068,0.066,0.102,0.1c0.037,0.035,0.073,0.074,0.109,0.109
		c0.034,0.036,0.069,0.07,0.104,0.103c0.036,0.039,0.072,0.074,0.109,0.109c0.033,0.035,0.066,0.067,0.099,0.104
		c0.039,0.037,0.077,0.072,0.115,0.113c0.033,0.032,0.067,0.068,0.1,0.101c0.037,0.034,0.073,0.073,0.109,0.108
		c0.034,0.035,0.067,0.067,0.101,0.102c0.039,0.039,0.076,0.075,0.114,0.115c0.034,0.032,0.066,0.064,0.101,0.1
		c0.036,0.036,0.073,0.074,0.112,0.111c0.032,0.031,0.066,0.066,0.097,0.098c0.039,0.04,0.077,0.076,0.115,0.113
		c0.031,0.035,0.065,0.066,0.097,0.101c0.037,0.037,0.076,0.073,0.112,0.112c0.036,0.034,0.071,0.07,0.108,0.105
		c0.034,0.033,0.067,0.069,0.101,0.102c0.035,0.036,0.07,0.071,0.106,0.105c0.036,0.039,0.073,0.075,0.11,0.11
		c0.036,0.038,0.07,0.069,0.104,0.107c0.035,0.033,0.071,0.067,0.106,0.104c0.035,0.034,0.067,0.07,0.104,0.104
		c0.037,0.035,0.074,0.074,0.11,0.109c0.034,0.035,0.068,0.069,0.103,0.102c0.037,0.039,0.073,0.074,0.11,0.112
		c0.037,0.036,0.073,0.071,0.109,0.109c0.032,0.031,0.064,0.064,0.098,0.096c0.035,0.035,0.072,0.074,0.107,0.108
		c0.037,0.038,0.073,0.074,0.11,0.109c0.036,0.039,0.073,0.075,0.112,0.111c0.031,0.033,0.062,0.061,0.093,0.094
		c0.034,0.035,0.069,0.072,0.106,0.107c0.04,0.039,0.076,0.08,0.117,0.117c0.033,0.033,0.069,0.07,0.103,0.103
		c0.034,0.036,0.068,0.068,0.102,0.104c0.035,0.034,0.069,0.067,0.103,0.104c0.039,0.037,0.077,0.073,0.115,0.114
		c0.033,0.032,0.067,0.067,0.102,0.101c0.035,0.034,0.071,0.072,0.105,0.105c0.037,0.038,0.074,0.074,0.113,0.109
		c0.032,0.035,0.064,0.067,0.097,0.102c0.037,0.036,0.074,0.07,0.111,0.109c0.034,0.034,0.07,0.071,0.107,0.106
		c0.035,0.034,0.07,0.071,0.106,0.105c0.033,0.036,0.069,0.071,0.104,0.104c0.035,0.037,0.069,0.07,0.104,0.106
		c0.036,0.036,0.073,0.071,0.107,0.109c0.039,0.036,0.076,0.071,0.113,0.11c0.033,0.031,0.064,0.066,0.099,0.097
		c0.037,0.039,0.074,0.075,0.111,0.111c0.034,0.036,0.068,0.068,0.102,0.103c0.035,0.035,0.07,0.068,0.104,0.106
		c0.037,0.036,0.075,0.071,0.112,0.111c0.035,0.034,0.071,0.072,0.108,0.106c0.032,0.032,0.066,0.066,0.098,0.098
		c0.036,0.039,0.073,0.074,0.11,0.109c0.035,0.038,0.069,0.072,0.104,0.108c0.037,0.035,0.074,0.07,0.11,0.108
		c0.034,0.033,0.068,0.069,0.102,0.102c0.037,0.035,0.073,0.074,0.11,0.109c0.032,0.035,0.066,0.068,0.101,0.101
		c0.038,0.04,0.075,0.077,0.114,0.114c0.032,0.034,0.066,0.065,0.098,0.101c0.038,0.036,0.076,0.075,0.115,0.113
		c0.032,0.031,0.064,0.066,0.097,0.098c0.039,0.039,0.076,0.075,0.112,0.111c0.034,0.036,0.068,0.069,0.104,0.104
		c0.037,0.037,0.072,0.072,0.111,0.11c0.032,0.033,0.066,0.065,0.099,0.1c0.038,0.036,0.074,0.074,0.111,0.11
		c0.035,0.033,0.069,0.07,0.103,0.103c0.036,0.037,0.073,0.073,0.11,0.108c0.035,0.039,0.07,0.073,0.107,0.111
		c0.034,0.033,0.068,0.064,0.102,0.1c0.034,0.035,0.069,0.071,0.105,0.105c0.037,0.035,0.073,0.074,0.109,0.109
		c0.037,0.038,0.074,0.073,0.109,0.107c0.033,0.036,0.067,0.068,0.1,0.103c0.034,0.034,0.07,0.067,0.105,0.105
		c0.038,0.036,0.076,0.075,0.115,0.114c0.033,0.033,0.069,0.069,0.104,0.104c0.034,0.033,0.068,0.068,0.102,0.1
		c0.032,0.037,0.068,0.07,0.104,0.107c0.039,0.037,0.075,0.074,0.114,0.114c0.034,0.032,0.067,0.064,0.102,0.101
		c0.035,0.035,0.071,0.072,0.108,0.107s0.072,0.073,0.107,0.106c0.034,0.036,0.068,0.069,0.102,0.101
		c0.037,0.04,0.072,0.075,0.111,0.113c0.034,0.034,0.068,0.066,0.102,0.102c0.037,0.038,0.076,0.077,0.116,0.115
		c0.03,0.029,0.061,0.062,0.091,0.092c0.038,0.039,0.075,0.077,0.115,0.113c0.032,0.037,0.068,0.07,0.104,0.106
		c0.035,0.035,0.072,0.069,0.107,0.108c0.034,0.033,0.07,0.069,0.105,0.104s0.07,0.072,0.107,0.107
		c0.034,0.035,0.07,0.07,0.105,0.104c0.033,0.037,0.067,0.069,0.102,0.105c0.039,0.037,0.075,0.074,0.114,0.114
		c0.035,0.033,0.069,0.066,0.104,0.103c0.032,0.033,0.068,0.069,0.104,0.104c0.034,0.032,0.066,0.067,0.101,0.099
		c0.038,0.042,0.078,0.082,0.12,0.12c0.033,0.035,0.067,0.067,0.1,0.102c0.034,0.034,0.07,0.067,0.105,0.105
		c0.034,0.032,0.067,0.067,0.102,0.102c0.039,0.036,0.075,0.077,0.114,0.114c0.035,0.035,0.071,0.07,0.106,0.104
		c0.033,0.036,0.067,0.068,0.1,0.103c0.037,0.036,0.074,0.071,0.109,0.109c0.036,0.034,0.07,0.07,0.105,0.104
		c0.037,0.035,0.072,0.072,0.109,0.108c0.034,0.034,0.068,0.069,0.102,0.102c0.035,0.037,0.071,0.073,0.106,0.108
		c0.037,0.037,0.072,0.071,0.108,0.108c0.035,0.035,0.07,0.068,0.106,0.106c0.033,0.033,0.069,0.07,0.106,0.105
		c0.036,0.033,0.069,0.071,0.106,0.105c0.033,0.036,0.068,0.071,0.107,0.105c0.033,0.037,0.07,0.071,0.104,0.108
		c0.033,0.034,0.072,0.067,0.104,0.104c0.039,0.036,0.076,0.074,0.111,0.11c0.037,0.034,0.07,0.07,0.107,0.104
		c0.035,0.037,0.068,0.071,0.105,0.104c0.031,0.036,0.07,0.069,0.102,0.104c0.035,0.036,0.072,0.07,0.105,0.108
		c0.041,0.037,0.08,0.073,0.117,0.114c0.031,0.029,0.061,0.062,0.094,0.091c0.037,0.039,0.072,0.077,0.111,0.112
		c0.035,0.037,0.072,0.072,0.107,0.106c0.033,0.039,0.072,0.074,0.107,0.112c0.033,0.032,0.068,0.063,0.1,0.1
		c0.016,0.013,0.027,0.023,0.041,0.037C49.086,60.623,60.623,49.086,61.867,34.598z"/>
	<path id="CERCHIO_1_" fill="#FFFFFF" d="M32,17.213c8.155,0,14.791,6.632,14.791,14.787c0,8.154-6.636,14.789-14.791,14.789
		c-8.155,0-14.789-6.635-14.789-14.789C17.21,23.845,23.844,17.213,32,17.213 M32,12.712c-10.651,0-19.29,8.636-19.29,19.288
		c0,10.65,8.638,19.288,19.29,19.288c10.651,0,19.29-8.638,19.29-19.288C51.289,21.349,42.65,12.712,32,12.712L32,12.712z"/>
</g>
</svg>
