<svg enable-background="new 0 0 64 64" height="64" viewBox="0 0 64 64" width="64" xmlns="http://www.w3.org/2000/svg"><path d="m62 32c0 16.564-13.434 30-30 30-16.567 0-30-13.436-30-30 0-16.567 13.433-30 30-30 16.566 0 30 13.433 30 30z" fill="#67809f"/><path d="m62 32c0-1.582-.159-3.122-.395-4.64-.006-.002-.011-.004-.016-.009-.02-.02-.025-.045-.042-.063-.019-.02-.045-.023-.064-.043-.018-.019-.023-.044-.042-.064-.02-.02-.047-.025-.066-.044-.018-.019-.023-.044-.042-.062-.019-.019-.043-.023-.063-.042-.017-.021-.021-.045-.041-.063-.019-.019-.044-.024-.062-.042-.019-.02-.024-.046-.044-.066-.02-.019-.044-.025-.064-.042-.019-.02-.024-.046-.042-.065-.02-.019-.046-.024-.064-.042-.019-.019-.024-.044-.043-.062-.018-.021-.045-.026-.064-.043-.017-.019-.023-.043-.042-.063-.018-.018-.043-.023-.063-.042-.019-.02-.022-.045-.042-.063-.019-.02-.044-.025-.065-.043-.017-.019-.022-.044-.041-.064-.021-.019-.046-.025-.064-.042-.02-.018-.023-.045-.043-.064s-.044-.023-.064-.042c-.018-.021-.022-.045-.041-.063-.019-.02-.045-.024-.063-.043-.02-.018-.023-.043-.044-.063-.016-.019-.043-.023-.062-.042-.02-.02-.025-.046-.043-.065-.021-.018-.045-.024-.065-.042-.017-.019-.021-.045-.043-.063-.019-.021-.044-.024-.063-.043-.018-.019-.022-.043-.042-.063-.018-.018-.044-.024-.063-.042-.02-.02-.025-.045-.042-.063s-.045-.023-.061-.042c-.02-.02-.026-.046-.044-.065-.02-.019-.045-.025-.065-.042-.018-.018-.022-.045-.043-.064-.019-.019-.045-.025-.065-.042-.016-.021-.021-.045-.041-.063-.019-.02-.044-.024-.063-.043-.017-.018-.022-.043-.042-.063-.018-.019-.044-.023-.061-.042-.021-.02-.027-.046-.044-.065-.02-.018-.044-.024-.065-.042-.018-.019-.023-.045-.042-.063-.02-.021-.045-.024-.063-.043-.017-.019-.023-.043-.043-.063-.019-.018-.043-.023-.063-.042-.016-.02-.022-.045-.042-.063-.018-.02-.044-.025-.066-.044-.017-.019-.022-.043-.039-.062-.021-.019-.044-.025-.065-.042-.019-.02-.022-.046-.042-.065s-.044-.025-.063-.042c-.018-.02-.024-.044-.042-.063-.019-.018-.044-.024-.063-.042-.018-.02-.024-.046-.045-.066-.017-.019-.044-.025-.064-.043-.018-.02-.022-.044-.041-.062-.018-.018-.043-.023-.063-.042-.019-.019-.023-.045-.042-.063-.021-.021-.045-.026-.064-.043-.019-.019-.023-.044-.042-.063-.02-.018-.044-.024-.063-.041-.019-.02-.025-.045-.044-.063-.018-.02-.046-.024-.063-.043-.018-.018-.024-.044-.042-.064-.019-.019-.045-.024-.063-.041-.02-.021-.024-.047-.044-.066-.018-.019-.043-.025-.064-.042-.016-.02-.022-.044-.04-.063-.021-.02-.044-.025-.064-.043-.017-.019-.023-.043-.041-.063-.021-.019-.046-.025-.063-.042-.021-.02-.025-.046-.044-.065-.019-.018-.044-.023-.063-.042s-.025-.045-.044-.063c-.019-.021-.045-.026-.063-.043-.019-.019-.023-.044-.044-.063-.019-.018-.046-.024-.065-.043-.017-.02-.021-.045-.041-.062-.018-.02-.043-.023-.063-.043-.018-.018-.023-.044-.043-.064-.02-.019-.044-.025-.065-.042-.019-.02-.022-.044-.041-.063s-.044-.023-.064-.042c-.018-.019-.022-.044-.041-.062-.018-.02-.045-.024-.063-.043s-.024-.044-.043-.064c-.018-.019-.043-.023-.063-.042-.019-.02-.024-.046-.044-.065-.019-.018-.044-.024-.066-.044-.017-.019-.021-.044-.04-.062s-.044-.023-.062-.041c-.021-.02-.024-.047-.044-.066-.021-.018-.047-.024-.065-.043-.019-.018-.023-.043-.04-.06-.019-.019-.045-.024-.063-.043-.019-.018-.024-.044-.044-.063-.019-.02-.044-.024-.063-.042-.018-.02-.022-.045-.045-.065-.017-.019-.043-.023-.063-.042-.018-.019-.022-.044-.042-.062-.019-.02-.044-.026-.064-.043-.017-.019-.023-.043-.04-.063-.021-.019-.045-.025-.064-.042-.02-.02-.025-.046-.043-.064-.02-.018-.044-.023-.062-.042-.02-.021-.025-.046-.044-.066-.02-.019-.047-.024-.066-.044-.017-.019-.023-.044-.042-.062-.019-.019-.043-.023-.064-.042-.016-.02-.021-.045-.04-.063-.019-.019-.043-.024-.063-.043-.019-.019-.024-.045-.041-.064-.021-.02-.044-.024-.065-.042-.019-.02-.024-.045-.042-.065-.02-.019-.046-.024-.064-.042-.019-.019-.024-.044-.043-.062-.017-.02-.045-.024-.063-.043s-.023-.043-.044-.063c-.016-.019-.043-.023-.062-.04-.018-.021-.023-.048-.043-.066-.019-.02-.043-.025-.065-.043-.017-.019-.021-.045-.041-.064-.021-.019-.046-.024-.064-.042-.02-.018-.023-.044-.043-.063-.018-.019-.044-.023-.063-.042-.019-.02-.023-.045-.043-.063-.017-.019-.045-.024-.063-.043s-.024-.043-.043-.063c-.016-.019-.043-.023-.062-.042-.02-.02-.024-.046-.043-.065-.021-.018-.045-.024-.065-.042-.017-.019-.021-.044-.041-.062-.021-.019-.043-.024-.062-.042-.021-.02-.025-.046-.044-.066-.02-.019-.046-.025-.065-.043-.02-.019-.025-.044-.041-.062-.02-.02-.046-.025-.065-.043-.018-.019-.023-.045-.042-.064-.02-.018-.043-.023-.062-.041-.019-.02-.024-.047-.045-.066-.019-.019-.043-.023-.063-.042-.016-.02-.022-.045-.041-.063-.021-.019-.045-.024-.066-.044-.018-.019-.023-.043-.04-.062-.021-.019-.046-.025-.065-.042-.019-.02-.024-.044-.04-.063-.02-.018-.044-.023-.063-.041-.019-.021-.025-.047-.044-.065-.018-.02-.045-.024-.064-.043-.017-.019-.023-.044-.043-.064-.018-.019-.043-.023-.063-.042-.016-.019-.021-.044-.042-.063-.018-.02-.044-.025-.066-.044-.017-.02-.021-.044-.039-.062-.02-.019-.044-.023-.063-.042-.021-.02-.024-.046-.043-.065-.021-.019-.044-.025-.063-.042-.019-.019-.025-.044-.042-.063-.02-.019-.046-.025-.063-.042-.018-.019-.024-.045-.046-.064-.016-.02-.043-.025-.063-.042-.017-.02-.022-.044-.041-.063-.019-.018-.043-.023-.063-.042-.019-.02-.022-.044-.042-.063-.019-.019-.044-.023-.063-.042-.021-.018-.025-.045-.042-.064-.021-.019-.046-.025-.064-.042-.019-.02-.025-.046-.044-.065-.018-.02-.046-.025-.065-.043-.018-.019-.023-.043-.04-.063-.019-.018-.045-.023-.063-.041-.018-.021-.024-.047-.045-.066-.018-.019-.043-.025-.064-.043-.016-.019-.021-.044-.04-.063-.021-.019-.046-.025-.067-.044-.018-.019-.021-.043-.04-.062s-.043-.023-.062-.041c-.02-.021-.025-.047-.044-.066-.019-.018-.044-.023-.063-.042-.018-.02-.024-.044-.043-.063-.017-.019-.045-.023-.062-.042-.019-.018-.024-.045-.045-.064-.019-.019-.046-.025-.065-.043-.017-.019-.021-.044-.041-.062-.018-.018-.041-.023-.062-.042-.019-.02-.024-.046-.043-.066-.021-.019-.045-.025-.064-.042-.019-.02-.024-.044-.043-.063-.018-.019-.044-.023-.061-.042-.021-.019-.026-.045-.045-.064-.02-.019-.048-.025-.065-.044-.018-.019-.022-.043-.043-.062-.017-.019-.043-.024-.061-.042-.019-.019-.023-.044-.044-.063-.019-.018-.041-.023-.062-.042-.019-.021-.023-.046-.043-.066-.021-.021-.046-.026-.068-.043-.017-.019-.021-.044-.038-.062-.021-.018-.045-.024-.062-.042-.021-.021-.026-.046-.044-.065-.02-.02-.046-.023-.064-.043-.019-.019-.024-.045-.044-.064-.019-.019-.044-.023-.063-.042-.017-.02-.022-.044-.043-.063-.019-.019-.045-.025-.066-.044-.016-.019-.021-.043-.04-.061-.019-.02-.043-.024-.063-.043-.018-.019-.024-.045-.041-.064-.021-.02-.044-.025-.064-.042-.02-.019-.025-.044-.041-.063-.02-.02-.046-.023-.064-.042-.019-.02-.024-.044-.041-.063-.021-.019-.049-.024-.066-.044-.019-.018-.023-.044-.044-.063-.018-.019-.043-.024-.063-.042-.017-.02-.021-.044-.041-.063-.019-.019-.043-.024-.063-.043-.019-.019-.023-.045-.041-.064-.021-.018-.044-.024-.062-.041-.022-.021-.027-.047-.044-.066-.021-.019-.046-.025-.064-.043-.019-.019-.024-.044-.043-.062-.019-.02-.047-.026-.065-.044-.018-.019-.024-.043-.043-.062-.018-.019-.043-.023-.063-.042-.018-.019-.021-.044-.042-.063-.019-.02-.043-.025-.065-.042-.017-.02-.021-.045-.041-.065-.021-.019-.042-.023-.062-.041-.021-.02-.024-.047-.043-.066-.021-.019-.047-.025-.065-.042-.019-.02-.024-.044-.042-.063-.879-.879-2.303-.879-3.182 0l-13.963 13.926-13.311-13.313c-.002 0-.003-.001-.003-.001l-.104-.104c-.001 0-.001-.002-.001-.002l-.531-.529c-.879-.879-2.302-.879-3.181 0s-.879 2.303 0 3.182l.317.316c.002.001.002.002.002.002l.317.318.425.425.53.53.638.637.105.105 1.167 1.168.107.106.53.531.636.635v.001l9.108 9.106.066.068-13.948 13.948c-.879.879-.879 2.303 0 3.182.019.018.043.022.064.043.018.019.023.044.042.064.019.019.044.022.063.042.018.019.023.043.042.063.02.02.046.025.065.042.019.021.022.046.042.064.019.021.046.025.064.042.018.02.023.046.041.062.02.021.044.026.065.044.017.02.022.046.042.064.019.017.042.022.061.041.02.021.025.047.044.065.02.018.046.024.065.043.017.02.022.043.042.063.018.019.044.024.064.041.018.021.024.045.042.064.019.021.043.024.064.042.018.021.023.046.041.063.019.02.044.024.065.043.018.019.023.047.042.064.02.019.046.025.065.043.018.018.023.044.042.063.017.017.044.023.063.042.017.02.022.043.042.063.018.019.044.024.065.041.017.021.022.045.041.065.021.019.045.025.064.041.018.021.023.045.042.063.02.021.044.024.063.043.017.019.023.045.042.063.02.019.044.023.063.042.018.018.024.046.044.065.017.018.043.021.062.042.019.019.025.045.043.065.019.018.046.022.065.041.018.02.023.043.041.063.021.02.045.024.064.041.018.021.023.045.042.063.019.021.044.025.063.043.017.019.023.046.043.063.018.021.044.024.062.044.019.018.025.046.044.064s.043.022.064.043c.018.019.022.043.041.063.019.018.044.023.064.042.017.02.023.045.042.065.02.019.046.024.065.041.018.021.023.045.042.063.017.021.043.025.063.041.017.021.023.046.042.063.018.021.044.026.065.044.018.018.023.046.041.064.019.019.044.022.064.042.018.02.023.044.041.063.02.018.047.023.064.042.019.02.023.043.042.063.019.019.045.024.064.042.019.02.023.044.042.064s.043.025.063.041c.02.021.024.046.043.063.018.021.044.025.063.044.019.018.025.045.043.064.02.019.044.023.064.042.018.018.024.046.043.065.018.018.044.023.065.042.016.019.021.043.04.062s.045.023.064.042c.018.021.024.044.043.064.018.02.044.024.063.042.02.02.025.046.043.064.019.021.044.025.064.043.017.019.023.044.041.062.021.021.046.026.064.045.019.017.024.045.044.063.018.019.043.024.063.043.018.019.024.043.043.063.018.02.044.022.062.043.019.019.024.044.044.064s.047.024.066.043c.018.021.022.045.042.062.018.021.043.024.063.042.018.02.023.046.042.063.019.021.044.025.063.045.018.018.023.045.044.063.018.019.044.024.064.043.018.019.023.044.041.063.018.017.044.022.062.041.019.021.023.046.044.066.02.019.046.024.064.042.018.02.023.043.042.063.021.02.045.026.064.042.018.021.023.046.044.064.018.021.044.026.063.044.018.018.023.044.043.063.018.019.044.023.061.043.02.018.025.045.044.064.02.018.046.023.066.044.017.019.021.043.041.062s.044.023.063.042c.018.02.023.043.043.063.019.018.041.023.061.039.02.022.025.049.044.066.019.021.046.026.065.044.017.019.022.045.042.063.02.021.046.026.064.045.019.017.024.044.042.062.021.019.045.025.064.044.018.019.023.043.042.063.02.018.043.021.062.04.019.021.024.047.044.066s.046.025.065.042c.018.021.023.045.042.063.017.02.043.025.064.043.018.019.023.046.041.063.021.021.047.027.065.044.019.019.023.045.043.063.019.018.043.022.063.042.018.02.023.044.042.063.019.018.046.023.065.042.017.02.022.045.042.065.018.017.044.022.062.039.02.022.024.047.044.066.019.02.045.026.064.042.018.021.023.045.04.063.021.02.047.026.065.043.017.019.022.044.042.063s.044.022.063.042c.018.02.024.046.044.065.017.017.043.021.062.042.019.019.024.045.043.064.02.019.046.023.065.042.018.02.023.043.041.063.019.019.043.023.064.041.018.021.023.045.041.063.02.021.045.025.064.043.017.019.023.044.042.063.02.019.046.024.064.042s.023.046.043.064c.017.019.043.022.062.042s.025.046.043.065c.02.019.045.021.063.042.019.02.023.043.043.063.021.02.047.024.066.043.018.021.022.045.041.062.019.021.044.024.063.043.017.019.023.046.043.063.018.021.044.026.063.044.018.018.024.044.043.063.018.019.043.023.062.042.019.02.025.046.044.065.02.018.047.023.066.044.017.02.021.043.04.062.02.019.046.024.064.041.019.021.023.047.043.065.019.02.043.025.063.041.019.021.023.046.041.063.02.021.045.026.063.043.019.019.023.044.043.063.019.019.044.024.064.043.018.019.024.045.042.064.019.018.044.022.063.042.017.02.023.045.043.065.019.019.045.024.063.041.018.02.022.043.043.063.018.02.043.025.064.041.018.021.023.045.041.063.018.021.044.024.063.044.019.018.025.045.043.064.02.019.044.023.063.042.019.018.024.046.044.064.018.019.044.024.064.043.017.019.023.043.041.063.019.02.045.023.063.042.017.02.023.043.043.063.018.02.044.023.062.042.02.02.025.046.044.064.02.02.046.025.066.045.017.019.021.044.04.06.02.019.043.025.062.043.02.019.025.047.045.065.019.019.043.023.063.042.018.02.023.044.042.063.02.02.046.023.066.044.017.02.023.043.041.062.02.02.044.025.063.042.019.021.024.046.044.064.018.02.043.024.063.042.018.02.023.046.042.063.02.02.043.025.062.042.02.021.024.047.045.066.019.019.045.024.063.043.019.019.025.045.043.064.019.018.044.022.063.042.018.019.022.043.042.063.021.019.047.024.066.043.018.02.022.043.042.062.019.02.043.024.063.042.018.021.023.045.042.063.019.02.046.025.064.043.018.019.023.046.042.064.018.019.044.023.063.043.02.018.025.045.043.063.019.019.043.023.064.044.018.018.023.043.04.062.021.02.048.024.065.043.018.02.022.043.043.063.019.019.043.022.062.039.018.022.024.049.044.066.017.02.043.024.062.044.019.019.024.045.043.063.021.021.047.026.064.044.019.018.023.045.042.063.021.019.045.025.064.043.018.02.023.044.042.063.019.018.043.021.062.04.019.021.024.047.044.066s.046.025.064.042c.019.02.023.046.043.064.019.02.043.024.063.042.019.02.022.045.041.063.021.021.045.025.063.044.019.019.023.044.043.063.021.018.047.024.065.044.019.019.023.044.042.062s.045.023.065.042c.017.02.022.045.041.064.019.018.045.023.062.04.021.021.024.047.045.066.019.02.043.024.063.042.019.021.023.045.041.063.021.02.048.025.066.045.018.018.021.044.041.062.02.019.044.022.063.042s.024.046.045.064c.017.018.043.024.064.043.003.004.005.01.008.016 1.531.258 3.071.417 4.652.417 16.566 0 30-13.436 30-30z" opacity=".2"/><path d="m35.183 32 13.947-13.948c.879-.879.879-2.303 0-3.182s-2.303-.879-3.182 0l-13.948 13.949-13.949-13.948c-.879-.879-2.302-.879-3.181 0s-.879 2.303 0 3.182l13.948 13.947-13.948 13.948c-.879.879-.879 2.303 0 3.182.439.438 1.017.657 1.591.657.577 0 1.151-.219 1.59-.657l13.949-13.947 13.948 13.947c.438.438 1.016.657 1.591.657.577 0 1.15-.219 1.591-.657.879-.879.879-2.303 0-3.182z" fill="#fff"/></svg>