<?xml version="1.0" encoding="UTF-8"?>
<!-- Generator: Adobe Illustrator 16.0.0, SVG Export Plug-In . SVG Version: 6.00 Build 0)  -->
<!DOCTYPE svg PUBLIC "-//W3C//DTD SVG 1.1//EN" "http://www.w3.org/Graphics/SVG/1.1/DTD/svg11.dtd">
<svg version="1.1" id="Capa_1" xmlns="http://www.w3.org/2000/svg" xmlns:xlink="http://www.w3.org/1999/xlink" x="0px" y="0px" viewBox="0 0 20.007 15.854" enable-background="new 0 0 20.007 15.854" xml:space="preserve" width="200.007px" height="150.854px">
<g>
	<linearGradient id="SVGID_1_" gradientUnits="userSpaceOnUse" x1="10.0034" y1="10.2437" x2="10.0034" y2="0.2607">
		<stop offset="0" style="stop-color:#141414"/>
		<stop offset="0.2088" style="stop-color:#1C1C1D"/>
		<stop offset="0.5493" style="stop-color:#333335"/>
		<stop offset="0.9769" style="stop-color:#59595D"/>
		<stop offset="1" style="stop-color:#5B5B5F"/>
	</linearGradient>
	<path fill="url(#SVGID_1_)" d="M19.523,8.66c0,0.645-0.939,1.583-1.583,1.583H2.067c-0.645,0-1.583-0.939-1.583-1.583V1.845   c0-0.645,0.939-1.584,1.583-1.584h15.872c0.645,0,1.583,0.939,1.583,1.584V8.66z"/>
	<linearGradient id="SVGID_2_" gradientUnits="userSpaceOnUse" x1="10.0034" y1="10.5044" x2="10.0034" y2="0">
		<stop offset="0" style="stop-color:#141414"/>
		<stop offset="0.2261" style="stop-color:#181818"/>
		<stop offset="0.4603" style="stop-color:#242425"/>
		<stop offset="0.6982" style="stop-color:#373739"/>
		<stop offset="0.9374" style="stop-color:#535356"/>
		<stop offset="1" style="stop-color:#5B5B5F"/>
	</linearGradient>
	<path fill="url(#SVGID_2_)" d="M17.939,10.504H2.067c-0.793,0-1.844-1.051-1.844-1.844V1.845C0.223,1.051,1.274,0,2.067,0h15.872   c0.793,0,1.844,1.051,1.844,1.845V8.66C19.784,9.453,18.732,10.504,17.939,10.504z M2.067,0.521c-0.495,0-1.323,0.828-1.323,1.323   V8.66c0,0.495,0.829,1.323,1.323,1.323h15.872c0.495,0,1.323-0.829,1.323-1.323V1.845c0-0.495-0.829-1.323-1.323-1.323H2.067z"/>
</g>
<g style="color: white;background: white;fill: white;">
	<path d="M2.048,13.295c-0.018-0.177-0.082-0.309-0.193-0.396c-0.111-0.087-0.278-0.13-0.5-0.13c-0.41,0-0.615,0.141-0.615,0.422   c0,0.101,0.042,0.185,0.127,0.252c0.085,0.068,0.221,0.125,0.409,0.169c0.222,0.052,0.415,0.101,0.578,0.146   c0.164,0.045,0.313,0.097,0.449,0.156c0.076,0.031,0.148,0.07,0.216,0.117c0.068,0.047,0.125,0.105,0.172,0.175   c0.047,0.069,0.084,0.153,0.112,0.25c0.028,0.098,0.042,0.215,0.042,0.354c0,0.167-0.034,0.314-0.104,0.443   c-0.069,0.129-0.164,0.237-0.281,0.326c-0.118,0.089-0.257,0.156-0.417,0.203c-0.16,0.047-0.329,0.071-0.505,0.071   c-0.504,0-0.883-0.098-1.136-0.292C0.147,15.367,0.014,15.079,0,14.697h0.698c0.003,0.177,0.076,0.317,0.216,0.419   c0.141,0.103,0.317,0.154,0.529,0.154c0.229,0,0.403-0.042,0.521-0.125s0.177-0.196,0.177-0.339c0-0.055-0.007-0.107-0.021-0.153   c-0.014-0.047-0.041-0.09-0.081-0.128C2,14.487,1.945,14.453,1.876,14.423c-0.07-0.03-0.16-0.057-0.271-0.081   c-0.265-0.055-0.493-0.112-0.686-0.169c-0.193-0.057-0.352-0.128-0.477-0.213s-0.217-0.188-0.276-0.31s-0.089-0.276-0.089-0.464   c0-0.143,0.026-0.276,0.078-0.401s0.132-0.233,0.24-0.326s0.241-0.165,0.399-0.219c0.158-0.054,0.344-0.081,0.56-0.081   c0.208,0,0.396,0.026,0.563,0.081c0.167,0.054,0.31,0.13,0.43,0.229c0.12,0.099,0.213,0.219,0.279,0.36   c0.066,0.141,0.103,0.296,0.109,0.466H2.048z"/>
	<path d="M3.622,15.734v-3.46h2.543v0.604h-1.84v0.74h1.693v0.61H4.326v0.891h1.923v0.615H3.622z"/>
	<path d="M6.994,15.734v-3.46h0.724v2.83h1.715v0.63H6.994z"/>
	<path d="M10.204,15.734v-3.46h2.543v0.604h-1.84v0.74h1.693v0.61h-1.693v0.891h1.923v0.615H10.204z"/>
	<path d="M16.625,14.546c-0.038,0.198-0.099,0.377-0.182,0.537s-0.188,0.297-0.315,0.412s-0.273,0.203-0.44,0.266   c-0.167,0.063-0.351,0.094-0.553,0.094c-0.226,0-0.437-0.039-0.633-0.115c-0.196-0.077-0.366-0.191-0.508-0.344   c-0.143-0.153-0.254-0.342-0.336-0.566s-0.123-0.485-0.123-0.784c0-0.292,0.037-0.555,0.112-0.79   c0.074-0.234,0.181-0.433,0.32-0.594c0.139-0.161,0.308-0.286,0.508-0.373c0.2-0.087,0.423-0.13,0.67-0.13   c0.215,0,0.411,0.032,0.586,0.096s0.327,0.153,0.453,0.266c0.127,0.113,0.228,0.246,0.302,0.399   c0.075,0.153,0.121,0.316,0.138,0.49H15.9c-0.049-0.198-0.143-0.352-0.282-0.461s-0.295-0.164-0.469-0.164   c-0.302,0-0.525,0.109-0.667,0.326c-0.142,0.217-0.213,0.515-0.213,0.894c0,0.386,0.07,0.686,0.211,0.899   c0.141,0.214,0.352,0.321,0.633,0.321c0.215,0,0.388-0.058,0.519-0.174s0.22-0.284,0.269-0.503H16.625z"/>
	<path d="M18.235,15.734v-2.856h-1.042v-0.604h2.814v0.604h-1.047v2.856H18.235z"/>
</g>
</svg>