<?xml version="1.0" encoding="UTF-8"?>
<!-- Generator: Adobe Illustrator 16.0.0, SVG Export Plug-In . SVG Version: 6.00 Build 0)  -->
<!DOCTYPE svg PUBLIC "-//W3C//DTD SVG 1.1//EN" "http://www.w3.org/Graphics/SVG/1.1/DTD/svg11.dtd">
<svg version="1.1" id="Capa_1" xmlns="http://www.w3.org/2000/svg" xmlns:xlink="http://www.w3.org/1999/xlink" x="0px" y="0px" viewBox="0 0 20 17.731" enable-background="new 0 0 20 17.731" xml:space="preserve" width="200px" height="170.731px">
<g>
	<g style="fill: white;/*! margin-top: 5px; *//*! padding-top: 5px; */">
		<path d="M2.438,14.686c-0.021-0.212-0.098-0.369-0.229-0.472c-0.133-0.104-0.332-0.156-0.596-0.156    c-0.488,0-0.732,0.168-0.732,0.502c0,0.121,0.051,0.221,0.152,0.301c0.102,0.081,0.263,0.148,0.487,0.202    c0.265,0.062,0.494,0.121,0.689,0.174c0.193,0.053,0.372,0.116,0.533,0.186c0.091,0.037,0.177,0.084,0.257,0.14    c0.081,0.056,0.149,0.125,0.205,0.208c0.056,0.082,0.101,0.182,0.133,0.298c0.034,0.116,0.05,0.256,0.05,0.421    c0,0.199-0.042,0.374-0.124,0.527C3.18,17.171,3.068,17.3,2.928,17.406c-0.141,0.106-0.306,0.187-0.496,0.242    c-0.19,0.056-0.391,0.083-0.602,0.083c-0.599,0-1.05-0.116-1.353-0.347C0.176,17.152,0.016,16.809,0,16.354h0.831    c0.004,0.211,0.09,0.377,0.257,0.5c0.167,0.121,0.378,0.182,0.63,0.182c0.273,0,0.479-0.05,0.621-0.148    c0.141-0.1,0.211-0.234,0.211-0.403c0-0.066-0.009-0.127-0.025-0.183c-0.016-0.056-0.048-0.106-0.095-0.152    c-0.048-0.045-0.113-0.086-0.196-0.121c-0.083-0.035-0.19-0.067-0.323-0.097c-0.314-0.065-0.586-0.133-0.816-0.201    c-0.229-0.069-0.419-0.154-0.568-0.255c-0.148-0.101-0.258-0.224-0.329-0.369c-0.07-0.144-0.106-0.329-0.106-0.552    c0-0.169,0.032-0.329,0.094-0.478c0.062-0.149,0.157-0.277,0.285-0.388c0.128-0.11,0.287-0.197,0.475-0.261    c0.188-0.063,0.411-0.096,0.667-0.096c0.249,0,0.472,0.032,0.67,0.096c0.199,0.064,0.37,0.156,0.512,0.273    c0.143,0.118,0.253,0.261,0.332,0.429c0.079,0.167,0.123,0.352,0.131,0.555H2.438z"/>
		<path d="M5.391,17.589v-3.4H4.15v-0.72H7.5v0.72H6.253v3.4H5.391z"/>
		<path d="M10.329,17.589l-0.26-0.85H8.548l-0.291,0.85H7.345l1.47-4.12h0.999l1.451,4.12H10.329z M9.305,14.395H9.299l-0.527,1.637    h1.047L9.305,14.395z"/>
		<path d="M14.721,17.589v-1.061c0-0.199-0.046-0.34-0.136-0.425c-0.092-0.085-0.261-0.127-0.509-0.127h-0.918v1.613H12.32v-4.12    h2.09c0.19,0,0.363,0.031,0.518,0.09c0.155,0.06,0.289,0.143,0.401,0.249c0.111,0.104,0.197,0.231,0.257,0.378    c0.06,0.146,0.09,0.305,0.09,0.474c0,0.224-0.053,0.422-0.158,0.593c-0.105,0.171-0.258,0.292-0.456,0.362    c0.182,0.058,0.312,0.147,0.388,0.267c0.076,0.12,0.115,0.301,0.115,0.54v1.167H14.721z M13.158,14.183v1.098h1.079    c0.232,0,0.396-0.052,0.49-0.155c0.095-0.103,0.143-0.233,0.143-0.391c0-0.161-0.047-0.293-0.14-0.397    c-0.093-0.103-0.248-0.155-0.462-0.155H13.158z"/>
		<path d="M17.891,17.589v-3.4h-1.24v-0.72H20v0.72h-1.247v3.4H17.891z"/>
	</g>
	<g>
		<linearGradient id="SVGID_1_" gradientUnits="userSpaceOnUse" x1="9.5854" y1="12.2471" x2="9.5854" y2="0.3286">
			<stop offset="0" style="stop-color:#141414"/>
			<stop offset="0.2088" style="stop-color:#1C1C1D"/>
			<stop offset="0.5493" style="stop-color:#333335"/>
			<stop offset="0.9769" style="stop-color:#59595D"/>
			<stop offset="1" style="stop-color:#5B5B5F"/>
		</linearGradient>
		<path fill="url(#SVGID_1_)" d="M3.091,12.247c-0.582,0-0.987-0.445-0.987-1.083V1.412c0-0.639,0.406-1.083,0.987-1.083    c0.16,0,0.325,0.034,0.493,0.101l12.859,5.172c0.542,0.217,0.623,0.523,0.623,0.686c0,0.163-0.081,0.468-0.623,0.686L3.584,12.146    C3.416,12.213,3.251,12.247,3.091,12.247z" style=""/>
		
			<linearGradient id="SVGID_2_" gradientUnits="userSpaceOnUse" x1="138.0332" y1="82.2939" x2="150.6406" y2="82.2939" gradientTransform="matrix(0 -1 1 0 -72.6401 150.6406)">
			<stop offset="0" style="stop-color:#141414"/>
			<stop offset="0.2261" style="stop-color:#181818"/>
			<stop offset="0.4603" style="stop-color:#242425"/>
			<stop offset="0.6982" style="stop-color:#373739"/>
			<stop offset="0.9374" style="stop-color:#535356"/>
			<stop offset="1" style="stop-color:#5B5B5F"/>
		</linearGradient>
		<path fill="url(#SVGID_2_)" d="M2.872,12.607c-0.607,0-1.031-0.47-1.031-1.145V1.145C1.841,0.471,2.265,0,2.872,0    c0.167,0,0.34,0.036,0.513,0.106l13.43,5.471c0.566,0.231,0.651,0.554,0.651,0.727c0,0.171-0.085,0.495-0.651,0.726L3.385,12.5    C3.212,12.572,3.039,12.607,2.872,12.607z M2.872,0.53c-0.309,0-0.501,0.235-0.501,0.615v10.317c0,0.379,0.192,0.615,0.501,0.615    c0.098,0,0.203-0.023,0.313-0.068l13.429-5.472c0.265-0.107,0.321-0.213,0.321-0.234c0-0.021-0.057-0.127-0.321-0.235L3.186,0.598    C3.075,0.553,2.97,0.53,2.872,0.53z"/>
	</g>
</g>
</svg>