<svg enable-background="new 0 0 64 64" height="64" viewBox="0 0 64 64" width="64" xmlns="http://www.w3.org/2000/svg"><path d="m62 32c0 16.564-13.436 30-30 30-16.567 0-30-13.436-30-30 0-16.567 13.433-30 30-30 16.564 0 30 13.433 30 30z" fill="#d2527f"/><path d="m62 32c0-.996-.054-1.978-.147-2.948-.013-.012-.026-.025-.041-.039-.035-.04-.074-.075-.11-.112-.032-.036-.07-.071-.105-.105-.035-.035-.069-.071-.104-.106-.037-.036-.071-.071-.106-.104-.035-.037-.069-.073-.108-.107-.032-.036-.067-.069-.102-.103-.035-.037-.072-.074-.107-.11-.034-.037-.073-.072-.109-.108-.034-.035-.066-.068-.101-.1-.037-.039-.072-.076-.113-.111-.03-.033-.063-.066-.097-.099-.036-.04-.075-.077-.114-.114-.031-.035-.067-.069-.102-.104-.037-.037-.07-.07-.107-.106-.036-.037-.069-.071-.107-.107-.033-.033-.066-.069-.104-.104-.033-.037-.071-.071-.106-.104-.033-.039-.072-.076-.109-.111-.034-.033-.066-.066-.098-.099-.038-.039-.073-.074-.112-.11-.033-.037-.067-.072-.107-.108-.032-.035-.068-.068-.102-.102-.034-.037-.071-.074-.106-.109-.037-.034-.069-.069-.104-.105-.038-.037-.071-.073-.108-.104-.035-.037-.069-.073-.108-.108-.032-.036-.067-.067-.102-.102-.035-.04-.074-.077-.112-.112-.03-.034-.064-.066-.097-.101-.039-.037-.073-.074-.109-.108-.038-.037-.069-.072-.108-.108-.034-.035-.067-.069-.105-.105-.031-.035-.069-.071-.103-.105-.035-.037-.076-.074-.112-.111-.035-.036-.068-.067-.101-.1-.037-.037-.069-.073-.108-.106-.033-.037-.067-.072-.106-.108-.033-.037-.071-.071-.106-.104-.031-.037-.069-.073-.104-.108-.037-.036-.069-.069-.104-.104-.036-.036-.069-.071-.107-.105-.035-.037-.07-.074-.109-.109-.033-.037-.069-.069-.104-.103-.032-.036-.067-.071-.102-.105-.039-.036-.072-.072-.107-.108-.036-.036-.069-.071-.107-.104-.035-.038-.068-.073-.109-.11-.032-.036-.067-.069-.103-.103-.034-.037-.071-.073-.108-.108-.032-.034-.067-.067-.102-.102-.037-.037-.071-.074-.106-.108-.037-.037-.07-.071-.108-.106-.033-.036-.067-.071-.106-.104-.031-.037-.067-.071-.102-.105-.035-.037-.074-.075-.11-.111-.038-.037-.069-.069-.104-.103-.036-.037-.068-.071-.107-.105-.033-.035-.067-.071-.106-.106-.033-.037-.069-.073-.104-.106-.033-.036-.071-.071-.104-.107-.038-.037-.071-.069-.106-.104-.036-.037-.069-.073-.107-.107-.035-.037-.07-.074-.11-.111-.032-.034-.066-.067-.101-.098-.033-.037-.07-.074-.105-.11-.038-.035-.071-.069-.106-.105-.036-.037-.069-.072-.108-.106-.034-.036-.066-.071-.105-.107-.033-.037-.07-.07-.105-.104-.034-.037-.07-.073-.105-.108-.035-.033-.07-.069-.104-.104-.037-.036-.071-.071-.106-.104-.035-.037-.069-.073-.109-.108-.032-.036-.066-.069-.104-.104-.033-.037-.071-.073-.107-.107-.032-.036-.07-.07-.104-.105-.037-.037-.071-.07-.106-.105-.036-.037-.069-.071-.106-.106-.034-.035-.067-.071-.106-.106-.032-.036-.068-.069-.102-.104-.035-.037-.076-.075-.112-.112-.038-.035-.071-.069-.105-.105-.035-.034-.067-.068-.105-.102-.033-.035-.066-.072-.105-.108-.034-.037-.073-.072-.108-.106-.032-.036-.067-.069-.102-.104-.037-.037-.071-.072-.106-.108-.037-.035-.07-.071-.108-.105-.033-.036-.067-.07-.106-.105-.031-.037-.069-.071-.104-.106-.032-.036-.069-.071-.104-.105-.037-.037-.072-.074-.107-.109-.036-.036-.07-.071-.105-.103-.035-.037-.069-.071-.108-.107-.032-.037-.067-.071-.104-.106-.033-.036-.069-.071-.104-.107-.034-.035-.071-.071-.106-.104-.037-.037-.069-.072-.104-.106-.038-.036-.069-.071-.108-.106-.034-.035-.067-.071-.106-.105-.032-.037-.069-.072-.104-.105-.034-.036-.071-.072-.106-.107-.038-.037-.069-.07-.104-.106-.038-.036-.071-.071-.109-.107-.033-.035-.066-.069-.105-.104-.032-.037-.07-.073-.105-.106-.033-.037-.07-.071-.105-.106-.036-.036-.068-.069-.104-.104-.037-.037-.071-.073-.11-.107-.033-.036-.067-.072-.106-.105-.033-.037-.069-.071-.104-.105-.033-.037-.069-.073-.104-.108-.037-.035-.072-.071-.107-.106-.036-.036-.068-.069-.105-.103-.034-.038-.067-.073-.106-.109-.034-.037-.069-.071-.106-.106-.032-.036-.069-.07-.104-.104-.035-.035-.07-.072-.105-.108-.038-.037-.071-.072-.106-.105-.038-.037-.069-.072-.108-.108-.034-.035-.066-.069-.105-.105-.031-.035-.067-.069-.102-.104-.035-.037-.074-.075-.112-.112-.036-.036-.067-.067-.102-.1-.037-.039-.071-.074-.11-.11-.033-.033-.065-.069-.104-.104-.525-.552-1.259-.902-2.076-.902h-28.786c-1.579 0-2.875 1.295-2.875 2.874v28.751c0 .817.351 1.551.902 2.076.035.039.071.071.106.104.034.039.069.073.106.11.035.035.07.069.107.106.034.033.066.069.103.102.033.035.069.072.107.106.036.039.069.072.104.106.036.039.071.07.108.108.033.035.067.068.104.106.036.035.071.07.106.104.034.035.069.072.106.104.034.037.068.072.105.106.035.037.069.071.106.106.033.037.069.07.106.108.035.035.07.067.104.104.035.035.072.072.109.106.033.033.066.069.102.102.036.039.071.072.107.106.034.04.07.074.108.111.034.035.068.067.104.104.035.035.071.073.108.104.032.035.067.073.104.106.035.038.071.071.104.104.036.038.071.071.106.109.036.035.069.066.106.104.036.035.071.072.107.106.033.035.068.072.105.104.034.039.069.072.104.106.036.037.07.07.107.106.034.035.068.069.105.106.034.035.07.072.105.106.035.035.07.071.106.104.035.037.069.071.104.104.035.039.072.073.109.108.032.035.064.067.101.104s.074.072.11.111c.034.033.07.069.105.103.035.035.069.073.106.106.035.037.069.071.105.104.034.039.068.072.105.109.034.034.069.067.104.104.037.037.074.076.111.109.033.035.069.071.104.104.034.038.068.069.104.102.035.041.07.074.107.112.036.035.069.068.106.104.034.035.069.072.106.106.034.035.069.07.105.104.035.039.07.072.105.106.036.037.07.07.107.106.034.035.067.069.104.106.035.033.071.071.105.104.034.035.07.071.107.104.035.039.069.074.106.108.033.036.066.067.102.104.036.038.074.073.112.112.034.034.068.066.102.102.036.035.071.071.108.105.034.035.067.072.104.105.036.039.071.071.106.105.034.039.069.072.106.108.036.035.069.068.104.106.037.036.074.074.111.107.031.032.063.066.096.096.037.042.076.078.112.113.036.039.069.071.106.107.036.035.068.068.105.106.035.033.07.071.106.104.033.033.069.071.104.104.035.039.071.073.106.106.035.039.071.072.108.108.033.035.065.067.102.104.037.036.074.075.109.109.033.033.069.071.106.103.034.039.068.073.104.106.035.038.069.071.106.108.033.034.067.067.104.104s.072.072.109.109c.034.033.069.071.104.104.036.035.071.072.108.105.034.038.067.07.102.105s.071.07.108.108c.035.035.07.068.105.106.036.035.071.07.107.104.034.035.068.071.105.104.034.039.07.072.105.104.035.039.069.073.106.11.035.035.069.067.104.104.035.035.071.073.108.104.033.035.069.074.107.108.034.037.069.071.104.103.034.038.066.07.102.104.037.038.071.073.111.112.034.035.071.072.106.104.033.035.069.071.104.104.036.038.07.071.104.105.034.037.07.07.105.106.037.038.074.073.114.114.03.03.063.063.096.092.035.039.072.078.11.113.036.035.069.072.106.104.034.039.069.072.106.106.032.037.068.07.105.108.035.035.07.067.104.104.035.035.071.072.108.106.034.033.067.071.104.103.035.039.069.073.105.106.034.038.07.071.105.108.036.035.07.067.106.105.035.035.071.072.108.105.033.035.067.073.104.106.035.038.071.071.104.104.036.038.071.071.106.109.036.035.069.066.106.104.036.036.071.074.108.107.033.034.067.069.104.102.033.039.069.073.105.106.034.039.07.072.107.108.033.035.067.069.103.104.037.037.073.074.109.109.036.034.069.071.106.104.034.037.068.071.105.104.033.039.069.073.106.108.033.035.069.069.104.106.035.035.071.069.106.104.034.035.069.073.106.105.035.036.07.074.107.109.015.014.026.027.041.042 1.011.118 1.994.172 2.99.172 16.564 0 30-13.436 30-30z" opacity=".2"/><path d="m44.937 19.063v25.873h-25.874v-25.873zm1.439-4.313h-28.751c-1.579 0-2.875 1.295-2.875 2.874v28.751c0 1.58 1.296 2.876 2.875 2.876h28.751c1.58 0 2.876-1.296 2.876-2.876v-28.75c0-1.579-1.296-2.875-2.876-2.875z" fill="#fff"/></svg>