<?xml version="1.0" encoding="utf-8"?>
<!-- Generator: Adobe Illustrator 16.0.0, SVG Export Plug-In . SVG Version: 6.00 Build 0)  -->
<!DOCTYPE svg PUBLIC "-//W3C//DTD SVG 1.1//EN" "http://www.w3.org/Graphics/SVG/1.1/DTD/svg11.dtd">
<svg version="1.1" id="Livello_1" xmlns="http://www.w3.org/2000/svg" xmlns:xlink="http://www.w3.org/1999/xlink" x="0px" y="0px"
	 width="64px" height="64px" viewBox="0 0 64 64" enable-background="new 0 0 64 64" xml:space="preserve">
<g>
	<path fill="#D2527F" d="M62,32c0,16.564-13.436,30-30,30C15.433,62,2,48.564,2,32C2,15.433,15.433,2,32,2C48.564,2,62,15.433,62,32
		z"/>
	<path opacity="0.2" d="M62,32c0-0.996-0.054-1.978-0.147-2.948c-0.013-0.012-0.026-0.025-0.041-0.039
		c-0.035-0.04-0.074-0.075-0.11-0.112c-0.032-0.036-0.07-0.071-0.105-0.105c-0.035-0.035-0.069-0.071-0.104-0.106
		c-0.037-0.036-0.071-0.071-0.106-0.104c-0.035-0.037-0.069-0.073-0.108-0.107c-0.032-0.036-0.067-0.069-0.102-0.103
		c-0.035-0.037-0.072-0.074-0.107-0.11c-0.034-0.037-0.073-0.072-0.109-0.108c-0.034-0.035-0.066-0.068-0.101-0.1
		c-0.037-0.039-0.072-0.076-0.113-0.111c-0.03-0.033-0.063-0.066-0.097-0.099c-0.036-0.04-0.075-0.077-0.114-0.114
		c-0.031-0.035-0.067-0.069-0.102-0.104c-0.037-0.037-0.07-0.07-0.107-0.106c-0.036-0.037-0.069-0.071-0.107-0.107
		c-0.033-0.033-0.066-0.069-0.104-0.104c-0.033-0.037-0.071-0.071-0.106-0.104c-0.033-0.039-0.072-0.076-0.109-0.111
		c-0.034-0.033-0.066-0.066-0.098-0.099c-0.038-0.039-0.073-0.074-0.112-0.11c-0.033-0.037-0.067-0.072-0.107-0.108
		c-0.032-0.035-0.068-0.068-0.102-0.102c-0.034-0.037-0.071-0.074-0.106-0.109c-0.037-0.034-0.069-0.069-0.104-0.105
		c-0.038-0.037-0.071-0.073-0.108-0.104c-0.035-0.037-0.069-0.073-0.108-0.108c-0.032-0.036-0.067-0.067-0.102-0.102
		c-0.035-0.04-0.074-0.077-0.112-0.112c-0.03-0.034-0.064-0.066-0.097-0.101c-0.039-0.037-0.073-0.074-0.109-0.108
		c-0.038-0.037-0.069-0.072-0.108-0.108c-0.034-0.035-0.067-0.069-0.105-0.105c-0.031-0.035-0.069-0.071-0.103-0.105
		c-0.035-0.037-0.076-0.074-0.112-0.111c-0.035-0.036-0.068-0.067-0.101-0.1c-0.037-0.037-0.069-0.073-0.108-0.106
		c-0.033-0.037-0.067-0.072-0.106-0.108c-0.033-0.037-0.071-0.071-0.106-0.104c-0.031-0.037-0.069-0.073-0.104-0.108
		c-0.037-0.036-0.069-0.069-0.104-0.104c-0.036-0.036-0.069-0.071-0.107-0.105c-0.035-0.037-0.07-0.074-0.109-0.109
		c-0.033-0.037-0.069-0.069-0.104-0.103c-0.032-0.036-0.067-0.071-0.102-0.105c-0.039-0.036-0.072-0.072-0.107-0.108
		c-0.036-0.036-0.069-0.071-0.107-0.104c-0.035-0.038-0.068-0.073-0.109-0.11c-0.032-0.036-0.067-0.069-0.103-0.103
		c-0.034-0.037-0.071-0.073-0.108-0.108c-0.032-0.034-0.067-0.067-0.102-0.102c-0.037-0.037-0.071-0.074-0.106-0.108
		c-0.037-0.037-0.07-0.071-0.108-0.106c-0.033-0.036-0.067-0.071-0.106-0.104c-0.031-0.037-0.067-0.071-0.102-0.105
		c-0.035-0.037-0.074-0.075-0.11-0.111c-0.038-0.037-0.069-0.069-0.104-0.103c-0.036-0.037-0.068-0.071-0.107-0.105
		c-0.033-0.035-0.067-0.071-0.106-0.106c-0.033-0.037-0.069-0.073-0.104-0.106c-0.033-0.036-0.071-0.071-0.104-0.107
		c-0.038-0.037-0.071-0.069-0.106-0.104c-0.036-0.037-0.069-0.073-0.107-0.107c-0.035-0.037-0.07-0.074-0.11-0.111
		c-0.032-0.034-0.066-0.067-0.101-0.098c-0.033-0.037-0.07-0.074-0.105-0.11c-0.038-0.035-0.071-0.069-0.106-0.105
		c-0.036-0.037-0.069-0.072-0.108-0.106c-0.034-0.036-0.066-0.071-0.105-0.107c-0.033-0.037-0.07-0.07-0.105-0.104
		c-0.034-0.037-0.07-0.073-0.105-0.108c-0.035-0.033-0.07-0.069-0.104-0.104c-0.037-0.036-0.071-0.071-0.106-0.104
		c-0.035-0.037-0.069-0.073-0.109-0.108c-0.032-0.036-0.066-0.069-0.104-0.104c-0.033-0.037-0.071-0.073-0.107-0.107
		c-0.032-0.036-0.07-0.07-0.104-0.105c-0.037-0.037-0.071-0.07-0.106-0.105c-0.036-0.037-0.069-0.071-0.106-0.106
		c-0.034-0.035-0.067-0.071-0.106-0.106c-0.032-0.036-0.068-0.069-0.102-0.104c-0.035-0.037-0.076-0.075-0.112-0.112
		c-0.038-0.035-0.071-0.069-0.105-0.105c-0.035-0.034-0.067-0.068-0.105-0.102c-0.033-0.035-0.066-0.072-0.105-0.108
		c-0.034-0.037-0.073-0.072-0.108-0.106c-0.032-0.036-0.067-0.069-0.102-0.104c-0.037-0.037-0.071-0.072-0.106-0.108
		c-0.037-0.035-0.07-0.071-0.108-0.105c-0.033-0.036-0.067-0.07-0.106-0.105c-0.031-0.037-0.069-0.071-0.104-0.106
		c-0.032-0.036-0.069-0.071-0.104-0.105c-0.037-0.037-0.072-0.074-0.107-0.109c-0.036-0.036-0.07-0.071-0.105-0.103
		c-0.035-0.037-0.069-0.071-0.108-0.107c-0.032-0.037-0.067-0.071-0.104-0.106c-0.033-0.036-0.069-0.071-0.104-0.107
		c-0.034-0.035-0.071-0.071-0.106-0.104c-0.037-0.037-0.069-0.072-0.104-0.106c-0.038-0.036-0.069-0.071-0.108-0.106
		c-0.034-0.035-0.067-0.071-0.106-0.105c-0.032-0.037-0.069-0.072-0.104-0.105c-0.034-0.036-0.071-0.072-0.106-0.107
		c-0.038-0.037-0.069-0.07-0.104-0.106c-0.038-0.036-0.071-0.071-0.109-0.107c-0.033-0.035-0.066-0.069-0.105-0.104
		c-0.032-0.037-0.07-0.073-0.105-0.106c-0.033-0.037-0.07-0.071-0.105-0.106c-0.036-0.036-0.068-0.069-0.104-0.104
		c-0.037-0.037-0.071-0.073-0.11-0.107c-0.033-0.036-0.067-0.072-0.106-0.105c-0.033-0.037-0.069-0.071-0.104-0.105
		c-0.033-0.037-0.069-0.073-0.104-0.108c-0.037-0.035-0.072-0.071-0.107-0.106c-0.036-0.036-0.068-0.069-0.105-0.103
		c-0.034-0.038-0.067-0.073-0.106-0.109c-0.034-0.037-0.069-0.071-0.106-0.106c-0.032-0.036-0.069-0.07-0.104-0.104
		c-0.035-0.035-0.07-0.072-0.105-0.108c-0.038-0.037-0.071-0.072-0.106-0.105c-0.038-0.037-0.069-0.072-0.108-0.108
		c-0.034-0.035-0.066-0.069-0.105-0.105c-0.031-0.035-0.067-0.069-0.102-0.104c-0.035-0.037-0.074-0.075-0.112-0.112
		c-0.036-0.036-0.067-0.067-0.102-0.1c-0.037-0.039-0.071-0.074-0.11-0.11c-0.033-0.033-0.065-0.069-0.104-0.104
		c-0.525-0.552-1.259-0.902-2.076-0.902H17.625c-1.579,0-2.875,1.295-2.875,2.874v28.751c0,0.817,0.351,1.551,0.902,2.076
		c0.035,0.039,0.071,0.071,0.106,0.104c0.034,0.039,0.069,0.073,0.106,0.11c0.035,0.035,0.07,0.069,0.107,0.106
		c0.034,0.033,0.066,0.069,0.103,0.102c0.033,0.035,0.069,0.072,0.107,0.106c0.036,0.039,0.069,0.072,0.104,0.106
		c0.036,0.039,0.071,0.07,0.108,0.108c0.033,0.035,0.067,0.068,0.104,0.106c0.036,0.035,0.071,0.07,0.106,0.104
		c0.034,0.035,0.069,0.072,0.106,0.104c0.034,0.037,0.068,0.072,0.105,0.106c0.035,0.037,0.069,0.071,0.106,0.106
		c0.033,0.037,0.069,0.07,0.106,0.108c0.035,0.035,0.07,0.067,0.104,0.104c0.035,0.035,0.072,0.072,0.109,0.106
		c0.033,0.033,0.066,0.069,0.102,0.102c0.036,0.039,0.071,0.072,0.107,0.106c0.034,0.04,0.07,0.074,0.108,0.111
		c0.034,0.035,0.068,0.067,0.104,0.104c0.035,0.035,0.071,0.073,0.108,0.104c0.032,0.035,0.067,0.073,0.104,0.106
		c0.035,0.038,0.071,0.071,0.104,0.104c0.036,0.038,0.071,0.071,0.106,0.109c0.036,0.035,0.069,0.066,0.106,0.104
		c0.036,0.035,0.071,0.072,0.107,0.106c0.033,0.035,0.068,0.072,0.105,0.104c0.034,0.039,0.069,0.072,0.104,0.106
		c0.036,0.037,0.07,0.07,0.107,0.106c0.034,0.035,0.068,0.069,0.105,0.106c0.034,0.035,0.07,0.072,0.105,0.106
		c0.035,0.035,0.07,0.071,0.106,0.104c0.035,0.037,0.069,0.071,0.104,0.104c0.035,0.039,0.072,0.073,0.109,0.108
		c0.032,0.035,0.064,0.067,0.101,0.104c0.037,0.037,0.074,0.072,0.11,0.111c0.034,0.033,0.07,0.069,0.105,0.103
		c0.035,0.035,0.069,0.073,0.106,0.106c0.035,0.037,0.069,0.071,0.105,0.104c0.034,0.039,0.068,0.072,0.105,0.109
		c0.034,0.034,0.069,0.067,0.104,0.104c0.037,0.037,0.074,0.076,0.111,0.109c0.033,0.035,0.069,0.071,0.104,0.104
		c0.034,0.038,0.068,0.069,0.104,0.102c0.035,0.041,0.07,0.074,0.107,0.112c0.036,0.035,0.069,0.068,0.106,0.104
		c0.034,0.035,0.069,0.072,0.106,0.106c0.034,0.035,0.069,0.07,0.105,0.104c0.035,0.039,0.07,0.072,0.105,0.106
		c0.036,0.037,0.07,0.07,0.107,0.106c0.034,0.035,0.067,0.069,0.104,0.106c0.035,0.033,0.071,0.071,0.105,0.104
		c0.034,0.035,0.07,0.071,0.107,0.104c0.035,0.039,0.069,0.074,0.106,0.108c0.033,0.036,0.066,0.067,0.102,0.104
		c0.036,0.038,0.074,0.073,0.112,0.112c0.034,0.034,0.068,0.066,0.102,0.102c0.036,0.035,0.071,0.071,0.108,0.105
		c0.034,0.035,0.067,0.072,0.104,0.105c0.036,0.039,0.071,0.071,0.106,0.105c0.034,0.039,0.069,0.072,0.106,0.108
		c0.036,0.035,0.069,0.068,0.104,0.106c0.037,0.036,0.074,0.074,0.111,0.107c0.031,0.032,0.063,0.066,0.096,0.096
		c0.037,0.042,0.076,0.078,0.112,0.113c0.036,0.039,0.069,0.071,0.106,0.107c0.036,0.035,0.068,0.068,0.105,0.106
		c0.035,0.033,0.07,0.071,0.106,0.104c0.033,0.033,0.069,0.071,0.104,0.104c0.035,0.039,0.071,0.073,0.106,0.106
		c0.035,0.039,0.071,0.072,0.108,0.108c0.033,0.035,0.065,0.067,0.102,0.104c0.037,0.036,0.074,0.075,0.109,0.109
		c0.033,0.033,0.069,0.071,0.106,0.103c0.034,0.039,0.068,0.073,0.104,0.106c0.035,0.038,0.069,0.071,0.106,0.108
		c0.033,0.034,0.067,0.067,0.104,0.104c0.037,0.037,0.072,0.072,0.109,0.109c0.034,0.033,0.069,0.071,0.104,0.104
		c0.036,0.035,0.071,0.072,0.108,0.105c0.034,0.038,0.067,0.07,0.102,0.105c0.035,0.035,0.071,0.07,0.108,0.108
		c0.035,0.035,0.07,0.068,0.105,0.106c0.036,0.035,0.071,0.07,0.107,0.104c0.034,0.035,0.068,0.071,0.105,0.104
		c0.034,0.039,0.07,0.072,0.105,0.104c0.035,0.039,0.069,0.073,0.106,0.11c0.035,0.035,0.069,0.067,0.104,0.104
		c0.035,0.035,0.071,0.073,0.108,0.104c0.033,0.035,0.069,0.074,0.107,0.108c0.034,0.037,0.069,0.071,0.104,0.103
		c0.034,0.038,0.066,0.07,0.102,0.104c0.037,0.038,0.071,0.073,0.111,0.112c0.034,0.035,0.071,0.072,0.106,0.104
		c0.033,0.035,0.069,0.071,0.104,0.104c0.036,0.038,0.07,0.071,0.104,0.105c0.034,0.037,0.07,0.07,0.105,0.106
		c0.037,0.038,0.074,0.073,0.114,0.114c0.03,0.03,0.063,0.063,0.096,0.092c0.035,0.039,0.072,0.078,0.11,0.113
		c0.036,0.035,0.069,0.072,0.106,0.104c0.034,0.039,0.069,0.072,0.106,0.106c0.032,0.037,0.068,0.07,0.105,0.108
		c0.035,0.035,0.07,0.067,0.104,0.104c0.035,0.035,0.071,0.072,0.108,0.106c0.034,0.033,0.067,0.071,0.104,0.103
		c0.035,0.039,0.069,0.073,0.105,0.106c0.034,0.038,0.07,0.071,0.105,0.108c0.036,0.035,0.07,0.067,0.106,0.105
		c0.035,0.035,0.071,0.072,0.108,0.105c0.033,0.035,0.067,0.073,0.104,0.106c0.035,0.038,0.071,0.071,0.104,0.104
		c0.036,0.038,0.071,0.071,0.106,0.109c0.036,0.035,0.069,0.066,0.106,0.104c0.036,0.036,0.071,0.074,0.108,0.107
		c0.033,0.034,0.067,0.069,0.104,0.102c0.033,0.039,0.069,0.073,0.105,0.106c0.034,0.039,0.07,0.072,0.107,0.108
		c0.033,0.035,0.067,0.069,0.103,0.104c0.037,0.037,0.073,0.074,0.109,0.109c0.036,0.034,0.069,0.071,0.106,0.104
		c0.034,0.037,0.068,0.071,0.105,0.104c0.033,0.039,0.069,0.073,0.106,0.108c0.033,0.035,0.069,0.069,0.104,0.106
		c0.035,0.035,0.071,0.069,0.106,0.104c0.034,0.035,0.069,0.073,0.106,0.105c0.035,0.036,0.07,0.074,0.107,0.109
		c0.015,0.014,0.026,0.027,0.041,0.042C30.021,61.946,31.004,62,32,62C48.564,62,62,48.564,62,32z"/>
	<path fill="#FFFFFF" d="M44.937,19.063v25.873H19.063V19.063H44.937 M46.376,14.75H17.625c-1.579,0-2.875,1.295-2.875,2.874v28.751
		c0,1.58,1.296,2.876,2.875,2.876h28.751c1.58,0,2.876-1.296,2.876-2.876V17.625C49.252,16.046,47.956,14.75,46.376,14.75
		L46.376,14.75z"/>
</g>
</svg>
