<svg enable-background="new 0 0 588.219 439.891" height="439.891" viewBox="0 0 588.219 439.891" width="588.219" xmlns="http://www.w3.org/2000/svg"><path clip-rule="evenodd" d="m294.216 439.886c-34.501 0-69 .001-103.5-.001-3.533-.001-7.062.146-10.511-.988-6.277-2.062-10.436-7.724-10.115-13.968.343-6.684 5.363-12.155 12.218-13.084 2.324-.314 4.707-.255 7.063-.255 69.885-.013 139.77-.013 209.654-.003 2.355.001 4.736-.045 7.063.254 6.616.85 11.411 5.802 12.022 12.19.677 7.067-3.087 12.655-9.881 14.852-3.449 1.115-6.978 1.002-10.513 1.002-34.5.002-69 .001-103.5.001z" fill="#fff" fill-rule="evenodd"/><path clip-rule="evenodd" d="m294.788 42.179c80.514 0 161.028-.015 241.542.017 11.109.004 10.098-1.421 10.099 9.717.013 98.503.013 197.008.001 295.511-.001 10.643.988 9.603-9.338 9.604-161.913.011-323.825.012-485.738-.004-9.947 0-9.106 1.133-9.108-8.837-.008-99.094-.007-198.188-.001-297.282 0-9.898-.787-8.71 9.232-8.713 81.104-.024 162.208-.013 243.311-.013z" fill="#010101" fill-rule="evenodd" opacity=".6"/><g fill="#fff"><path clip-rule="evenodd" d="m99.148 55.547c9.729 0 19.456-.013 29.184.008 2.648.006 5.316-.038 7.851.95 3.91 1.522 6.35 4.272 6.698 8.521.326 3.974-2.536 7.761-6.792 9.336-2.836 1.048-5.799.924-8.741.926-15.034.014-30.069.041-45.104-.004-8.407-.025-8.06-.061-8.043 8.407.025 13.266.009 26.531 0 39.797-.002 2.946.047 5.896-.981 8.738-1.609 4.447-4.986 6.997-9.209 6.895-4.149-.102-7.73-2.902-8.846-7.349-.566-2.257-.727-4.665-.734-7.006-.058-17.982-.033-35.964-.03-53.946 0-.885.005-1.771.068-2.652.6-8.386 4.372-12.33 12.845-12.535 10.606-.256 21.224-.062 31.836-.062-.002-.008-.002-.015-.002-.024z" fill-rule="evenodd"/><path d="m147.986 150.918v95.353h-26.349v-62.481c-4.263 3.24-8.388 5.862-12.374 7.866-3.987 2.003-8.986 3.923-14.997 5.755v-21.359c8.867-2.856 15.752-6.289 20.656-10.296 4.903-4.007 8.739-8.954 11.512-14.837h21.552z"/><path d="m251.714 173.622-25.9 3.197c-.683-3.624-1.823-6.182-3.422-7.674-1.598-1.491-3.571-2.238-5.915-2.238-4.221 0-7.504 2.131-9.849 6.396-1.705 3.067-2.963 9.635-3.772 19.695 3.111-3.153 6.309-5.488 9.592-7 3.284-1.513 7.078-2.272 11.383-2.272 8.356 0 15.423 2.985 21.2 8.954 5.777 5.97 8.665 13.537 8.665 22.703 0 6.183-1.46 11.829-4.38 16.946-2.921 5.115-6.97 8.983-12.15 11.608-5.181 2.62-11.671 3.932-19.474 3.932-9.379 0-16.905-1.598-22.575-4.796s-10.2-8.304-13.59-15.318c-3.389-7.012-5.084-16.295-5.084-27.849 0-16.927 3.56-29.323 10.68-37.188s16.99-11.799 29.61-11.799c7.461 0 13.355.863 17.682 2.59 4.327 1.726 7.919 4.253 10.776 7.579 2.857 3.324 5.032 7.502 6.523 12.534zm-47.963 41.76c0 5.072 1.279 9.047 3.837 11.928 2.559 2.875 5.692 4.314 9.401 4.314 3.41 0 6.266-1.299 8.569-3.9 2.301-2.6 3.453-6.479 3.453-11.64 0-5.285-1.194-9.315-3.581-12.086-2.388-2.771-5.351-4.157-8.889-4.157-3.624 0-6.662 1.343-9.113 4.03-2.452 2.685-3.677 6.524-3.677 11.511z"/><path d="m277.386 166.428h27.819v26.092h-27.819zm0 41.824h27.819v26.093h-27.819z"/><path d="m388.623 150.918v95.353h-26.348v-62.481c-4.264 3.24-8.389 5.862-12.375 7.866-3.987 2.003-8.985 3.923-14.997 5.755v-21.359c8.868-2.856 15.753-6.289 20.656-10.296s8.74-8.954 11.511-14.837h21.553z"/><path d="m416.953 199.009c0-17.819 3.208-30.29 9.625-37.41s16.19-10.681 29.322-10.681c6.309 0 11.489.777 15.54 2.335 4.05 1.558 7.354 3.582 9.912 6.073 2.558 2.496 4.573 5.115 6.043 7.868 1.471 2.748 2.654 5.957 3.549 9.624 1.749 6.993 2.623 14.283 2.623 21.871 0 17.011-2.878 29.462-8.633 37.348-5.756 7.888-15.668 11.831-29.737 11.831-7.888 0-14.262-1.258-19.122-3.772-4.86-2.515-8.847-6.204-11.959-11.064-2.26-3.452-4.019-8.173-5.276-14.164-1.259-5.99-1.887-12.61-1.887-19.859zm25.837.065c0 11.938 1.055 20.091 3.166 24.46 2.11 4.373 5.168 6.556 9.177 6.556 2.643 0 4.935-.928 6.874-2.779 1.94-1.857 3.369-4.785 4.285-8.795.917-4.007 1.376-10.252 1.376-18.737 0-12.45-1.056-20.815-3.167-25.104-2.11-4.28-5.275-6.425-9.496-6.425-4.307 0-7.419 2.185-9.338 6.554-1.918 4.371-2.877 12.461-2.877 24.27z"/><path clip-rule="evenodd" d="m490.15 346.077c-9.729 0-19.456.013-29.184-.009-2.648-.006-5.316.038-7.851-.949-3.91-1.522-6.35-4.271-6.698-8.521-.326-3.974 2.536-7.761 6.792-9.336 2.836-1.048 5.799-.924 8.741-.927 15.034-.014 30.069-.04 45.104.005 8.407.024 8.06.061 8.043-8.407-.025-13.266-.009-26.531 0-39.797.002-2.946-.047-5.896.981-8.738 1.609-4.447 4.986-6.997 9.209-6.895 4.149.102 7.73 2.902 8.846 7.349.566 2.257.727 4.665.734 7.006.058 17.982.033 35.964.03 53.946 0 .885-.005 1.771-.068 2.652-.6 8.386-4.372 12.33-12.845 12.535-10.606.256-21.224.061-31.836.061.002.008.002.016.002.025z" fill-rule="evenodd"/><path clip-rule="evenodd" d="m294.691 399.173c-82.289 0-164.577.001-246.866-.001-4.125-.003-8.207-.162-12.324-.825-20.042-3.219-34.618-20.285-35.444-40.548-.072-1.766-.018-3.538-.019-5.308 0-102.05.017-204.1-.039-306.15-.003-6.559.495-12.972 3.034-19.062 7.218-17.311 20.607-25.865 38.982-27.202 2.055-.149 4.128-.035 6.193-.035 164.282 0 328.565.011 492.848-.03 8.671-.003 17.074.919 24.778 5.225 13.646 7.625 21.226 19.18 22.295 34.853.16 2.349.059 4.717.059 7.076.002 101.754-.005 203.51.02 305.265.002 6.815-.066 13.597-2.876 19.973-7.373 16.729-20.437 25.34-38.465 26.733-2.346.181-4.717.036-7.077.036-81.7 0-163.399 0-245.099 0zm-245.558-357.692c-10.019.003-9.231-1.185-9.232 8.713-.006 99.094-.007 198.188.001 297.282.001 9.97-.839 8.837 9.108 8.837 161.913.016 323.825.015 485.738.004 10.326-.001 9.337 1.039 9.338-9.604.012-98.503.012-197.008-.001-295.511-.001-11.138 1.011-9.713-10.099-9.717-80.514-.032-161.028-.017-241.542-.017-81.103 0-162.207-.01-243.311.013z" fill-rule="evenodd"/></g></svg>