<?xml version="1.0" encoding="utf-8"?>
<!-- Generator: Adobe Illustrator 16.0.0, SVG Export Plug-In . SVG Version: 6.00 Build 0) 
created by pajarorrojo for playstation-x theme https://github.com/pajarorrojo/es-theme-PlayStation-X  -->
<!DOCTYPE svg PUBLIC "-//W3C//DTD SVG 1.1//EN" "http://www.w3.org/Graphics/SVG/1.1/DTD/svg11.dtd">
<svg version="1.1" id="Layer_1" xmlns="http://www.w3.org/2000/svg" xmlns:xlink="http://www.w3.org/1999/xlink" x="0px" y="0px"
	 width="588.219px" height="439.891px" viewBox="0 0 588.219 439.891" enable-background="new 0 0 588.219 439.891"
	 xml:space="preserve">
<path fill-rule="evenodd" clip-rule="evenodd" fill="#FFFFFF" d="M294.216,439.886c-34.501,0-69,0.001-103.5-0.001
	c-3.533-0.001-7.062,0.146-10.511-0.988c-6.277-2.062-10.436-7.724-10.115-13.968c0.343-6.684,5.363-12.155,12.218-13.084
	c2.324-0.314,4.707-0.255,7.063-0.255c69.885-0.013,139.77-0.013,209.654-0.003c2.355,0.001,4.736-0.045,7.063,0.254
	c6.616,0.85,11.411,5.802,12.022,12.19c0.677,7.067-3.087,12.655-9.881,14.852c-3.449,1.115-6.978,1.002-10.513,1.002
	C363.216,439.887,328.716,439.886,294.216,439.886z"/>
<path opacity="0.6" fill-rule="evenodd" clip-rule="evenodd" fill="#010101" d="M294.788,42.179
	c80.514,0,161.028-0.015,241.542,0.017c11.109,0.004,10.098-1.421,10.099,9.717c0.013,98.503,0.013,197.008,0.001,295.511
	c-0.001,10.643,0.988,9.603-9.338,9.604c-161.913,0.011-323.825,0.012-485.738-0.004c-9.947,0-9.106,1.133-9.108-8.837
	c-0.008-99.094-0.007-198.188-0.001-297.282c0-9.898-0.787-8.71,9.232-8.713C132.581,42.168,213.685,42.179,294.788,42.179z"/>
<path fill-rule="evenodd" clip-rule="evenodd" fill="#FFFFFF" d="M99.148,55.547c9.729,0,19.456-0.013,29.184,0.008
	c2.648,0.006,5.316-0.038,7.851,0.95c3.91,1.522,6.35,4.272,6.698,8.521c0.326,3.974-2.536,7.761-6.792,9.336
	c-2.836,1.048-5.799,0.924-8.741,0.926c-15.034,0.014-30.069,0.041-45.104-0.004c-8.407-0.025-8.06-0.061-8.043,8.407
	c0.025,13.266,0.009,26.531,0,39.797c-0.002,2.946,0.047,5.896-0.981,8.738c-1.609,4.447-4.986,6.997-9.209,6.895
	c-4.149-0.102-7.73-2.902-8.846-7.349c-0.566-2.257-0.727-4.665-0.734-7.006c-0.058-17.982-0.033-35.964-0.03-53.946
	c0-0.885,0.005-1.771,0.068-2.652c0.6-8.386,4.372-12.33,12.845-12.535c10.606-0.256,21.224-0.062,31.836-0.062
	C99.148,55.563,99.148,55.556,99.148,55.547z"/>
<g>
	<path fill="#FFFFFF" d="M147.986,150.918v95.353h-26.349V183.79c-4.263,3.24-8.388,5.862-12.374,7.866
		c-3.987,2.003-8.986,3.923-14.997,5.755v-21.359c8.867-2.856,15.752-6.289,20.656-10.296c4.903-4.007,8.739-8.954,11.512-14.837
		H147.986z"/>
	<path fill="#FFFFFF" d="M251.714,173.622l-25.9,3.197c-0.683-3.624-1.823-6.182-3.422-7.674c-1.598-1.491-3.571-2.238-5.915-2.238
		c-4.221,0-7.504,2.131-9.849,6.396c-1.705,3.067-2.963,9.635-3.772,19.695c3.111-3.153,6.309-5.488,9.592-7
		c3.284-1.513,7.078-2.272,11.383-2.272c8.356,0,15.423,2.985,21.2,8.954c5.777,5.97,8.665,13.537,8.665,22.703
		c0,6.183-1.46,11.829-4.38,16.946c-2.921,5.115-6.97,8.983-12.15,11.608c-5.181,2.62-11.671,3.932-19.474,3.932
		c-9.379,0-16.905-1.598-22.575-4.796c-5.67-3.198-10.2-8.304-13.59-15.318c-3.389-7.012-5.084-16.295-5.084-27.849
		c0-16.927,3.56-29.323,10.68-37.188s16.99-11.799,29.61-11.799c7.461,0,13.355,0.863,17.682,2.59
		c4.327,1.726,7.919,4.253,10.776,7.579C248.048,164.412,250.223,168.59,251.714,173.622z M203.751,215.382
		c0,5.072,1.279,9.047,3.837,11.928c2.559,2.875,5.692,4.314,9.401,4.314c3.41,0,6.266-1.299,8.569-3.9
		c2.301-2.6,3.453-6.479,3.453-11.64c0-5.285-1.194-9.315-3.581-12.086c-2.388-2.771-5.351-4.157-8.889-4.157
		c-3.624,0-6.662,1.343-9.113,4.03C204.976,206.556,203.751,210.395,203.751,215.382z"/>
	<path fill="#FFFFFF" d="M277.386,166.428h27.819v26.092h-27.819V166.428z M277.386,208.252h27.819v26.093h-27.819V208.252z"/>
	<path fill="#FFFFFF" d="M388.623,150.918v95.353h-26.348V183.79c-4.264,3.24-8.389,5.862-12.375,7.866
		c-3.987,2.003-8.985,3.923-14.997,5.755v-21.359c8.868-2.856,15.753-6.289,20.656-10.296s8.74-8.954,11.511-14.837H388.623z"/>
	<path fill="#FFFFFF" d="M416.953,199.009c0-17.819,3.208-30.29,9.625-37.41s16.19-10.681,29.322-10.681
		c6.309,0,11.489,0.777,15.54,2.335c4.05,1.558,7.354,3.582,9.912,6.073c2.558,2.496,4.573,5.115,6.043,7.868
		c1.471,2.748,2.654,5.957,3.549,9.624c1.749,6.993,2.623,14.283,2.623,21.871c0,17.011-2.878,29.462-8.633,37.348
		c-5.756,7.888-15.668,11.831-29.737,11.831c-7.888,0-14.262-1.258-19.122-3.772c-4.86-2.515-8.847-6.204-11.959-11.064
		c-2.26-3.452-4.019-8.173-5.276-14.164C417.581,212.878,416.953,206.258,416.953,199.009z M442.79,199.074
		c0,11.938,1.055,20.091,3.166,24.46c2.11,4.373,5.168,6.556,9.177,6.556c2.643,0,4.935-0.928,6.874-2.779
		c1.94-1.857,3.369-4.785,4.285-8.795c0.917-4.007,1.376-10.252,1.376-18.737c0-12.45-1.056-20.815-3.167-25.104
		c-2.11-4.28-5.275-6.425-9.496-6.425c-4.307,0-7.419,2.185-9.338,6.554C443.749,179.175,442.79,187.265,442.79,199.074z"/>
</g>
<path fill-rule="evenodd" clip-rule="evenodd" fill="#FFFFFF" d="M490.15,346.077c-9.729,0-19.456,0.013-29.184-0.009
	c-2.648-0.006-5.316,0.038-7.851-0.949c-3.91-1.522-6.35-4.271-6.698-8.521c-0.326-3.974,2.536-7.761,6.792-9.336
	c2.836-1.048,5.799-0.924,8.741-0.927c15.034-0.014,30.069-0.04,45.104,0.005c8.407,0.024,8.06,0.061,8.043-8.407
	c-0.025-13.266-0.009-26.531,0-39.797c0.002-2.946-0.047-5.896,0.981-8.738c1.609-4.447,4.986-6.997,9.209-6.895
	c4.149,0.102,7.73,2.902,8.846,7.349c0.566,2.257,0.727,4.665,0.734,7.006c0.058,17.982,0.033,35.964,0.03,53.946
	c0,0.885-0.005,1.771-0.068,2.652c-0.6,8.386-4.372,12.33-12.845,12.535c-10.606,0.256-21.224,0.061-31.836,0.061
	C490.15,346.06,490.15,346.068,490.15,346.077z"/>
<path fill-rule="evenodd" clip-rule="evenodd" fill="#FFFFFF" d="M294.691,399.173c-82.289,0-164.577,0.001-246.866-0.001
	c-4.125-0.003-8.207-0.162-12.324-0.825c-20.042-3.219-34.618-20.285-35.444-40.548c-0.072-1.766-0.018-3.538-0.019-5.308
	c0-102.05,0.017-204.1-0.039-306.15c-0.003-6.559,0.495-12.972,3.034-19.062C10.251,9.968,23.64,1.414,42.015,0.077
	c2.055-0.149,4.128-0.035,6.193-0.035c164.282,0,328.565,0.011,492.848-0.03c8.671-0.003,17.074,0.919,24.778,5.225
	c13.646,7.625,21.226,19.18,22.295,34.853c0.16,2.349,0.059,4.717,0.059,7.076c0.002,101.754-0.005,203.51,0.02,305.265
	c0.002,6.815-0.066,13.597-2.876,19.973c-7.373,16.729-20.437,25.34-38.465,26.733c-2.346,0.181-4.717,0.036-7.077,0.036
	C458.09,399.173,376.391,399.173,294.691,399.173z M49.133,41.481c-10.019,0.003-9.231-1.185-9.232,8.713
	c-0.006,99.094-0.007,198.188,0.001,297.282c0.001,9.97-0.839,8.837,9.108,8.837c161.913,0.016,323.825,0.015,485.738,0.004
	c10.326-0.001,9.337,1.039,9.338-9.604c0.012-98.503,0.012-197.008-0.001-295.511c-0.001-11.138,1.011-9.713-10.099-9.717
	c-80.514-0.032-161.028-0.017-241.542-0.017C211.341,41.468,130.237,41.458,49.133,41.481z"/>
<g>
</g>
<g>
</g>
<g>
</g>
<g>
</g>
<g>
</g>
<g>
</g>
</svg>
