<?xml version="1.0" encoding="utf-8"?>
<!-- Generator: Adobe Illustrator 16.0.0, SVG Export Plug-In . SVG Version: 6.00 Build 0)  
created by pajarorrojo for playstation-x theme https://github.com/pajarorrojo/es-theme-PlayStation-X  -->
<!DOCTYPE svg PUBLIC "-//W3C//DTD SVG 1.1//EN" "http://www.w3.org/Graphics/SVG/1.1/DTD/svg11.dtd">
<svg version="1.1" id="Layer_1" xmlns="http://www.w3.org/2000/svg" xmlns:xlink="http://www.w3.org/1999/xlink" x="0px" y="0px"
	 width="689.945px" height="470.463px" viewBox="0 0 689.945 470.463" enable-background="new 0 0 689.945 470.463"
	 xml:space="preserve">
<path fill-rule="evenodd" clip-rule="evenodd" fill="#FFFFFF" d="M345.549,440.34c36.353,0,72.705-0.007,109.058,0.011
	c3.131,0.001,6.292-0.095,9.385,0.283c7.016,0.859,12.111,6.19,12.747,12.975c0.703,7.496-3.286,13.543-10.555,15.7
	c-2.077,0.616-4.289,0.857-6.458,1.06c-1.864,0.175-3.757,0.055-5.637,0.055c-72.705,0.001-145.41,0.007-218.116-0.013
	c-3.744-0.001-7.496,0.268-11.204-0.794c-7.258-2.08-11.998-8.139-11.621-15.123c0.4-7.446,6.057-13.2,13.951-13.972
	c2.797-0.273,5.634-0.175,8.453-0.175C272.218,440.336,308.883,440.34,345.549,440.34z"/>
<path opacity="0.5" fill-rule="evenodd" clip-rule="evenodd" fill="#010101" d="M344.883,47.03
	c95.616,0,191.232-0.008,286.847,0.009c12.621,0.002,11.074-1.223,11.078,10.944c0.029,104.081,0.016,208.162,0.016,312.243
	c0,1.881,0.037,3.762-0.01,5.643c-0.121,4.858-0.459,5.197-5.41,5.328c-2.193,0.058-4.389,0.014-6.584,0.014
	c-190.604,0-381.21,0-571.815,0c-0.627,0-1.254,0.002-1.881,0c-11.461-0.049-10.027,0.933-10.03-10.015
	c-0.026-104.708-0.016-209.415-0.016-314.122c0-0.627,0-1.254,0-1.881c0-8.259-0.742-8.175,8.135-8.173
	C151.77,47.036,248.326,47.03,344.883,47.03z"/>
<path fill-rule="evenodd" clip-rule="evenodd" fill="#FDFEFF" d="M109.317,63.183c9.711,0,19.423-0.074,29.133,0.042
	c3.108,0.037,6.297,0.226,9.298,0.962c4.828,1.185,7.656,4.955,7.727,9.423c0.07,4.444-2.758,8.208-7.424,9.716
	c-3.328,1.075-6.791,1.024-10.242,1.022c-15.35-0.008-30.7,0.033-46.049-0.014c-9.599-0.029-9.35-0.208-9.323,9.179
	c0.039,13.783,0.053,27.567-0.025,41.351c-0.018,3.116-0.107,6.306-0.779,9.325c-1.045,4.69-4.97,7.785-9.3,7.989
	c-4.277,0.201-8.325-2.629-9.791-7.313c-0.735-2.348-1.084-4.91-1.094-7.377c-0.086-19.735-0.059-39.47-0.032-59.206
	c0.002-1.558,0.104-3.146,0.418-4.667c1.125-5.454,4.355-8.966,9.931-9.909c2.453-0.415,4.984-0.49,7.48-0.503
	C89.268,63.152,99.292,63.183,109.317,63.183z"/>
<g>
	<path fill="#FFFFFF" d="M198.9,147.76v126.243h-34.884V191.28c-5.645,4.291-11.106,7.762-16.384,10.415
		c-5.279,2.653-11.896,5.193-19.855,7.62v-28.28c11.74-3.781,20.857-8.325,27.348-13.632c6.491-5.305,11.57-11.854,15.241-19.644
		H198.9z"/>
	<path fill="#FFFFFF" d="M336.235,177.817l-34.291,4.233c-0.904-4.797-2.413-8.185-4.53-10.16c-2.117-1.975-4.729-2.964-7.833-2.964
		c-5.587,0-9.936,2.823-13.039,8.467c-2.258,4.064-3.925,12.758-4.996,26.079c4.119-4.176,8.353-7.267,12.7-9.272
		c4.347-2.003,9.369-3.005,15.071-3.005c11.062,0,20.418,3.952,28.068,11.854c7.648,7.903,11.473,17.923,11.473,30.057
		c0,8.188-1.935,15.666-5.8,22.438c-3.867,6.773-9.229,11.896-16.087,15.368c-6.859,3.471-15.453,5.207-25.782,5.207
		c-12.419,0-22.382-2.117-29.889-6.351s-13.505-10.992-17.993-20.276c-4.487-9.288-6.731-21.579-6.731-36.875
		c0-22.409,4.712-38.821,14.14-49.236c9.427-10.415,22.492-15.622,39.202-15.622c9.877,0,17.682,1.143,23.412,3.429
		c5.728,2.286,10.484,5.631,14.267,10.033C331.38,165.625,334.259,171.158,336.235,177.817z M272.733,233.106
		c0,6.72,1.693,11.983,5.081,15.793c3.387,3.81,7.535,5.715,12.446,5.715c4.515,0,8.297-1.723,11.346-5.166
		c3.048-3.442,4.572-8.579,4.572-15.41c0-6.998-1.581-12.333-4.742-16.002c-3.163-3.667-7.083-5.503-11.769-5.503
		c-4.798,0-8.82,1.779-12.065,5.334C274.354,221.422,272.733,226.502,272.733,233.106z"/>
	<path fill="#FFFFFF" d="M382.218,165.443h36.832v34.547h-36.832V165.443z M382.218,220.816h36.832v34.545h-36.832V220.816z"/>
	<path fill="#FFFFFF" d="M464.863,246.146l34.291-4.319c0.903,4.8,2.427,8.187,4.573,10.162c2.145,1.977,4.769,2.963,7.874,2.963
		c5.532,0,9.85-2.795,12.954-8.382c2.258-4.119,3.95-12.84,5.081-26.163c-4.121,4.232-8.354,7.338-12.7,9.313
		c-4.348,1.977-9.371,2.964-15.071,2.964c-11.121,0-20.505-3.95-28.153-11.854c-7.649-7.902-11.473-17.894-11.473-29.974
		c0-8.24,1.947-15.748,5.843-22.521c3.895-6.774,9.257-11.897,16.087-15.368c6.829-3.471,15.41-5.207,25.74-5.207
		c12.417,0,22.38,2.132,29.888,6.393c7.506,4.262,13.505,11.036,17.993,20.321c4.487,9.286,6.731,21.549,6.731,36.79
		c0,22.409-4.713,38.822-14.139,49.236c-9.429,10.414-22.495,15.621-39.203,15.621c-9.878,0-17.668-1.143-23.37-3.428
		c-5.702-2.287-10.443-5.633-14.225-10.035C469.802,258.252,466.896,252.75,464.863,246.146z M528.366,190.773
		c0-6.717-1.694-11.982-5.08-15.792c-3.388-3.81-7.509-5.716-12.362-5.716c-4.572,0-8.37,1.722-11.388,5.165
		c-3.021,3.444-4.531,8.609-4.531,15.495c0,6.943,1.567,12.25,4.7,15.918c3.133,3.669,7.041,5.503,11.727,5.503
		c4.854,0,8.89-1.778,12.107-5.334C526.757,202.457,528.366,197.377,528.366,190.773z"/>
</g>
<path fill-rule="evenodd" clip-rule="evenodd" fill="#FDFEFF" d="M579.635,367.196c-9.711,0-19.423,0.074-29.133-0.042
	c-3.108-0.036-6.297-0.226-9.298-0.962c-4.828-1.186-7.656-4.955-7.727-9.424c-0.07-4.443,2.758-8.207,7.424-9.716
	c3.328-1.075,6.791-1.024,10.242-1.022c15.35,0.008,30.7-0.033,46.049,0.014c9.599,0.029,9.35,0.207,9.323-9.179
	c-0.039-13.783-0.053-27.568,0.025-41.351c0.018-3.116,0.107-6.307,0.779-9.326c1.045-4.689,4.97-7.785,9.3-7.988
	c4.277-0.201,8.325,2.629,9.791,7.312c0.735,2.348,1.084,4.91,1.094,7.377c0.086,19.735,0.059,39.471,0.032,59.206
	c-0.002,1.558-0.104,3.146-0.418,4.667c-1.125,5.453-4.355,8.965-9.931,9.908c-2.453,0.416-4.984,0.49-7.48,0.504
	C599.685,367.227,589.66,367.196,579.635,367.196z"/>
<path fill-rule="evenodd" clip-rule="evenodd" fill="#FFFFFF" d="M345.19,428.207c-97.817,0-195.635,0-293.453-0.004
	c-5.64,0-11.241-0.044-16.781-1.562c-17.525-4.8-33.417-20.073-34.903-44.116c-0.077-1.249-0.021-2.508-0.021-3.762
	C0.031,269.033,0.048,159.301,0,49.57c-0.004-9.633,1.914-18.681,7.028-26.893C15.773,8.635,28.482,1.127,44.981,0.086
	c2.499-0.158,5.015-0.051,7.523-0.051c194.694-0.001,389.389-0.002,584.083,0.003c3.135,0,6.278-0.075,9.402,0.134
	c20.856,1.396,38.639,17.118,42.635,37.619c0.9,4.624,1.316,9.272,1.314,14.003c-0.045,108.164-0.049,216.327,0.006,324.491
	c0.003,5.052-0.443,10.018-1.455,14.931c-4.047,19.656-21.377,35.044-41.395,36.729c-3.428,0.287-6.889,0.249-10.334,0.25
	C539.57,428.208,442.38,428.207,345.19,428.207z M55.212,47.02c-8.877-0.001-8.134-0.086-8.135,8.173c0,0.627,0,1.254,0,1.881
	c0,104.708-0.011,209.414,0.016,314.122c0.003,10.947-1.431,9.966,10.03,10.015c0.627,0.002,1.254,0,1.881,0
	c190.605,0,381.211,0,571.815,0c2.195,0,4.391,0.044,6.584-0.014c4.951-0.131,5.289-0.47,5.41-5.328
	c0.047-1.881,0.01-3.762,0.01-5.643c0-104.081,0.014-208.162-0.016-312.243c-0.004-12.167,1.543-10.942-11.078-10.944
	c-95.615-0.018-191.231-0.01-286.847-0.009C248.326,47.03,151.77,47.036,55.212,47.02z"/>
<g>
</g>
<g>
</g>
<g>
</g>
<g>
</g>
<g>
</g>
<g>
</g>
</svg>
