<svg enable-background="new 0 0 689.945 470.463" height="470.463" viewBox="0 0 689.945 470.463" width="689.945" xmlns="http://www.w3.org/2000/svg"><g clip-rule="evenodd" fill-rule="evenodd"><path d="m345.549 440.34c36.353 0 72.705-.007 109.058.011 3.131.001 6.292-.095 9.385.283 7.016.859 12.111 6.19 12.747 12.975.703 7.496-3.286 13.543-10.555 15.7-2.077.616-4.289.857-6.458 1.06-1.864.175-3.757.055-5.637.055-72.705.001-145.41.007-218.116-.013-3.744-.001-7.496.268-11.204-.794-7.258-2.08-11.998-8.139-11.621-15.123.4-7.446 6.057-13.2 13.951-13.972 2.797-.273 5.634-.175 8.453-.175 36.666-.011 73.331-.007 109.997-.007z" fill="#fff"/><path d="m344.883 47.03c95.616 0 191.232-.008 286.847.009 12.621.002 11.074-1.223 11.078 10.944.029 104.081.016 208.162.016 312.243 0 1.881.037 3.762-.01 5.643-.121 4.858-.459 5.197-5.41 5.328-2.193.058-4.389.014-6.584.014-190.604 0-381.21 0-571.815 0-.627 0-1.254.002-1.881 0-11.461-.049-10.027.933-10.03-10.015-.026-104.708-.016-209.415-.016-314.122 0-.627 0-1.254 0-1.881 0-8.259-.742-8.175 8.135-8.173 96.557.016 193.113.01 289.67.01z" fill="#010101" opacity=".5"/><path d="m109.317 63.183c9.711 0 19.423-.074 29.133.042 3.108.037 6.297.226 9.298.962 4.828 1.185 7.656 4.955 7.727 9.423.07 4.444-2.758 8.208-7.424 9.716-3.328 1.075-6.791 1.024-10.242 1.022-15.35-.008-30.7.033-46.049-.014-9.599-.029-9.35-.208-9.323 9.179.039 13.783.053 27.567-.025 41.351-.018 3.116-.107 6.306-.779 9.325-1.045 4.69-4.97 7.785-9.3 7.989-4.277.201-8.325-2.629-9.791-7.313-.735-2.348-1.084-4.91-1.094-7.377-.086-19.735-.059-39.47-.032-59.206.002-1.558.104-3.146.418-4.667 1.125-5.454 4.355-8.966 9.931-9.909 2.453-.415 4.984-.49 7.48-.503 10.023-.051 20.047-.02 30.072-.02z" fill="#fdfeff"/></g><g fill="#fff"><path d="m198.9 147.76v126.243h-34.884v-82.723c-5.645 4.291-11.106 7.762-16.384 10.415-5.279 2.653-11.896 5.193-19.855 7.62v-28.28c11.74-3.781 20.857-8.325 27.348-13.632 6.491-5.305 11.57-11.854 15.241-19.644h28.534z"/><path d="m336.235 177.817-34.291 4.233c-.904-4.797-2.413-8.185-4.53-10.16s-4.729-2.964-7.833-2.964c-5.587 0-9.936 2.823-13.039 8.467-2.258 4.064-3.925 12.758-4.996 26.079 4.119-4.176 8.353-7.267 12.7-9.272 4.347-2.003 9.369-3.005 15.071-3.005 11.062 0 20.418 3.952 28.068 11.854 7.648 7.903 11.473 17.923 11.473 30.057 0 8.188-1.935 15.666-5.8 22.438-3.867 6.773-9.229 11.896-16.087 15.368-6.859 3.471-15.453 5.207-25.782 5.207-12.419 0-22.382-2.117-29.889-6.351s-13.505-10.992-17.993-20.276c-4.487-9.288-6.731-21.579-6.731-36.875 0-22.409 4.712-38.821 14.14-49.236 9.427-10.415 22.492-15.622 39.202-15.622 9.877 0 17.682 1.143 23.412 3.429 5.728 2.286 10.484 5.631 14.267 10.033 3.783 4.404 6.662 9.937 8.638 16.596zm-63.502 55.289c0 6.72 1.693 11.983 5.081 15.793 3.387 3.81 7.535 5.715 12.446 5.715 4.515 0 8.297-1.723 11.346-5.166 3.048-3.442 4.572-8.579 4.572-15.41 0-6.998-1.581-12.333-4.742-16.002-3.163-3.667-7.083-5.503-11.769-5.503-4.798 0-8.82 1.779-12.065 5.334-3.248 3.555-4.869 8.635-4.869 15.239z"/><path d="m382.218 165.443h36.832v34.547h-36.832zm0 55.373h36.832v34.545h-36.832z"/><path d="m464.863 246.146 34.291-4.319c.903 4.8 2.427 8.187 4.573 10.162 2.145 1.977 4.769 2.963 7.874 2.963 5.532 0 9.85-2.795 12.954-8.382 2.258-4.119 3.95-12.84 5.081-26.163-4.121 4.232-8.354 7.338-12.7 9.313-4.348 1.977-9.371 2.964-15.071 2.964-11.121 0-20.505-3.95-28.153-11.854-7.649-7.902-11.473-17.894-11.473-29.974 0-8.24 1.947-15.748 5.843-22.521 3.895-6.774 9.257-11.897 16.087-15.368 6.829-3.471 15.41-5.207 25.74-5.207 12.417 0 22.38 2.132 29.888 6.393 7.506 4.262 13.505 11.036 17.993 20.321 4.487 9.286 6.731 21.549 6.731 36.79 0 22.409-4.713 38.822-14.139 49.236-9.429 10.414-22.495 15.621-39.203 15.621-9.878 0-17.668-1.143-23.37-3.428-5.702-2.287-10.443-5.633-14.225-10.035-3.782-4.406-6.688-9.908-8.721-16.512zm63.503-55.373c0-6.717-1.694-11.982-5.08-15.792-3.388-3.81-7.509-5.716-12.362-5.716-4.572 0-8.37 1.722-11.388 5.165-3.021 3.444-4.531 8.609-4.531 15.495 0 6.943 1.567 12.25 4.7 15.918 3.133 3.669 7.041 5.503 11.727 5.503 4.854 0 8.89-1.778 12.107-5.334 3.218-3.555 4.827-8.635 4.827-15.239z"/></g><path clip-rule="evenodd" d="m579.635 367.196c-9.711 0-19.423.074-29.133-.042-3.108-.036-6.297-.226-9.298-.962-4.828-1.186-7.656-4.955-7.727-9.424-.07-4.443 2.758-8.207 7.424-9.716 3.328-1.075 6.791-1.024 10.242-1.022 15.35.008 30.7-.033 46.049.014 9.599.029 9.35.207 9.323-9.179-.039-13.783-.053-27.568.025-41.351.018-3.116.107-6.307.779-9.326 1.045-4.689 4.97-7.785 9.3-7.988 4.277-.201 8.325 2.629 9.791 7.312.735 2.348 1.084 4.91 1.094 7.377.086 19.735.059 39.471.032 59.206-.002 1.558-.104 3.146-.418 4.667-1.125 5.453-4.355 8.965-9.931 9.908-2.453.416-4.984.49-7.48.504-10.022.053-20.047.022-30.072.022z" fill="#fdfeff" fill-rule="evenodd"/><path clip-rule="evenodd" d="m345.19 428.207c-97.817 0-195.635 0-293.453-.004-5.64 0-11.241-.044-16.781-1.562-17.525-4.8-33.417-20.073-34.903-44.116-.077-1.249-.021-2.508-.021-3.762-.001-109.73.016-219.462-.032-329.193-.004-9.633 1.914-18.681 7.028-26.893 8.745-14.042 21.454-21.55 37.953-22.591 2.499-.158 5.015-.051 7.523-.051 194.694-.001 389.389-.002 584.083.003 3.135 0 6.278-.075 9.402.134 20.856 1.396 38.639 17.118 42.635 37.619.9 4.624 1.316 9.272 1.314 14.003-.045 108.164-.049 216.327.006 324.491.003 5.052-.443 10.018-1.455 14.931-4.047 19.656-21.377 35.044-41.395 36.729-3.428.287-6.889.249-10.334.25-97.19.013-194.38.012-291.57.012zm-289.978-381.187c-8.877-.001-8.134-.086-8.135 8.173v1.881c0 104.708-.011 209.414.016 314.122.003 10.947-1.431 9.966 10.03 10.015.627.002 1.254 0 1.881 0h571.815c2.195 0 4.391.044 6.584-.014 4.951-.131 5.289-.47 5.41-5.328.047-1.881.01-3.762.01-5.643 0-104.081.014-208.162-.016-312.243-.004-12.167 1.543-10.942-11.078-10.944-95.615-.018-191.231-.01-286.847-.009-96.556 0-193.112.006-289.67-.01z" fill="#fff" fill-rule="evenodd"/></svg>