<?xml version="1.0" encoding="utf-8"?>
<!-- Generator: Adobe Illustrator 16.0.0, SVG Export Plug-In . SVG Version: 6.00 Build 0)  
created by pajarorrojo for playstation-x theme https://github.com/pajarorrojo/es-theme-PlayStation-X  -->

<!DOCTYPE svg PUBLIC "-//W3C//DTD SVG 1.1//EN" "http://www.w3.org/Graphics/SVG/1.1/DTD/svg11.dtd">
<svg version="1.1" id="Layer_1" xmlns="http://www.w3.org/2000/svg" xmlns:xlink="http://www.w3.org/1999/xlink" x="0px" y="0px"
	 width="551.992px" height="437.656px" viewBox="0 0 551.992 437.656" enable-background="new 0 0 551.992 437.656"
	 xml:space="preserve">
<path fill-rule="evenodd" clip-rule="evenodd" fill="#FFFFFF" d="M276.351,409.395c34.089,0,68.179-0.008,102.269,0.012
	c2.934,0.002,5.904-0.07,8.795,0.336c6.087,0.854,10.704,5.7,11.509,11.678c0.855,6.361-2.647,12.537-8.675,14.767
	c-2.167,0.802-4.559,1.097-6.877,1.35c-2.034,0.222-4.109,0.069-6.167,0.069c-68.179,0.002-136.358,0-204.537,0.002
	c-3.817,0-7.656,0.217-11.334-1.145c-5.438-2.012-8.804-5.814-9.426-11.623c-0.621-5.794,1.797-10.256,6.667-13.431
	c1.779-1.161,3.746-1.718,5.817-1.829c2.639-0.143,5.285-0.179,7.928-0.18C206.996,409.391,241.674,409.395,276.351,409.395z"/>
<path opacity="0.6" fill-rule="evenodd" clip-rule="evenodd" fill="#010101" d="M275.622,40.56
	c75.252,0,150.505-0.004,225.758,0.004c11.26,0.001,9.94-0.92,9.943,9.833c0.021,97.887,0.021,195.774,0,293.663
	c-0.002,10.802,1.339,9.879-9.896,9.879c-150.506,0.006-301.012,0.004-451.518,0.004c-1.47,0-2.94,0.025-4.41-0.008
	c-4.794-0.109-4.802-0.118-4.899-4.979c-0.03-1.47-0.006-2.941-0.006-4.41c0-98.182-0.013-196.363,0.017-294.544
	c0.003-10.692-1.398-9.423,9.251-9.427C125.116,40.546,200.368,40.56,275.622,40.56z"/>
<path fill-rule="evenodd" clip-rule="evenodd" fill="#FFFFFF" d="M492.664,291.074c0.001,9.113-0.012,18.229,0.006,27.342
	c0.009,4.43-0.401,8.797-1.501,13.104c-1.236,4.839-4.438,7.52-9.207,8.309c-2.302,0.381-4.682,0.398-7.027,0.402
	c-18.816,0.028-37.632,0.027-56.448,0c-2.346-0.004-4.734,0.027-7.031-0.372c-5.853-1.019-9.508-5.157-9.186-10.063
	c0.308-4.674,3.86-8.192,9.373-8.932c2.608-0.351,5.278-0.311,7.92-0.316c14.112-0.026,28.224-0.012,42.335-0.013
	c1.764,0,3.529,0.036,5.292-0.009c5.268-0.133,5.582-0.428,5.715-5.373c0.047-1.762,0.012-3.527,0.012-5.291
	c0.001-15.288-0.007-30.576,0.009-45.863c0.003-3.227-0.155-6.473,0.992-9.594c1.593-4.334,5.203-7.061,9.218-6.887
	c4.074,0.176,7.734,3.075,8.765,7.463c0.598,2.542,0.706,5.239,0.729,7.87C492.713,272.258,492.664,281.666,492.664,291.074z"/>
<path fill-rule="evenodd" clip-rule="evenodd" fill="#FFFFFF" d="M100.213,55.525c9.4,0.002,18.801,0.005,28.201,0
	c2.947-0.001,5.892,0.08,8.708,1.05c3.921,1.351,6.546,4.68,6.754,8.427c0.224,4.042-2.482,7.826-6.752,9.307
	c-3.104,1.076-6.349,1.067-9.587,1.065c-14.688-0.006-29.376,0.026-44.064-0.013c-8.465-0.022-8.082-0.032-8.069,8.299
	c0.021,13.219,0.009,26.438,0,39.658c-0.001,2.935,0.051,5.875-0.98,8.706c-1.592,4.367-5.127,7.083-9.159,6.965
	c-4.034-0.117-7.719-3.045-8.85-7.368c-0.515-1.964-0.696-4.065-0.702-6.104c-0.056-18.507-0.05-37.014-0.022-55.521
	c0.002-1.753,0.115-3.541,0.469-5.252c0.913-4.418,3.593-7.412,8-8.424c2.544-0.584,5.229-0.739,7.854-0.763
	C81.412,55.471,90.813,55.524,100.213,55.525z"/>
<g>
	<path fill="#FFFFFF" d="M148.018,172.076l-32.447-5.815c2.697-10.337,7.879-18.26,15.55-23.767
		c7.669-5.506,18.526-8.259,32.573-8.259c16.126,0,27.784,3.006,34.977,9.017c7.192,6.013,10.788,13.57,10.788,22.673
		c0,5.337-1.463,10.169-4.383,14.496c-2.922,4.328-7.332,8.12-13.232,11.378c4.774,1.181,8.427,2.557,10.957,4.13
		c4.1,2.528,7.29,5.856,9.565,9.987c2.276,4.129,3.414,9.061,3.414,14.792c0,7.194-1.884,14.088-5.647,20.691
		c-3.765,6.601-9.186,11.686-16.266,15.255c-7.08,3.566-16.379,5.35-27.897,5.35c-11.238,0-20.1-1.32-26.59-3.959
		c-6.49-2.641-11.828-6.504-16.013-11.591c-4.186-5.084-7.404-11.473-9.65-19.172l34.301-4.552c1.349,6.91,3.442,11.701,6.28,14.369
		c2.835,2.669,6.447,4.005,10.83,4.005c4.605,0,8.44-1.687,11.503-5.059c3.062-3.368,4.593-7.866,4.593-13.485
		c0-5.729-1.475-10.167-4.424-13.315c-2.95-3.146-6.955-4.72-12.011-4.72c-2.696,0-6.405,0.674-11.124,2.022l1.77-24.526
		c1.909,0.283,3.4,0.422,4.467,0.422c4.495,0,8.245-1.432,11.252-4.299c3.003-2.865,4.507-6.264,4.507-10.197
		c0-3.764-1.123-6.771-3.37-9.018c-2.248-2.247-5.339-3.372-9.271-3.372c-4.046,0-7.332,1.222-9.862,3.666
		C150.631,161.667,148.917,165.954,148.018,172.076z"/>
	<path fill="#FFFFFF" d="M257.48,154.845h36.662v34.388H257.48V154.845z M257.48,209.965h36.662v34.386H257.48V209.965z"/>
	<path fill="#FFFFFF" d="M436.305,259.895H333.313c1.18-10.167,4.762-19.734,10.747-28.695c5.983-8.963,17.205-19.54,33.669-31.732
		c10.057-7.471,16.49-13.147,19.3-17.024c2.81-3.876,4.213-7.556,4.213-11.04c0-3.764-1.39-6.981-4.171-9.651
		c-2.782-2.668-6.279-4.003-10.493-4.003c-4.382,0-7.964,1.378-10.746,4.131c-2.782,2.752-4.65,7.614-5.604,14.58l-34.386-2.78
		c1.348-9.665,3.821-17.207,7.417-22.63c3.595-5.422,8.667-9.579,15.212-12.474c6.545-2.894,15.604-4.34,27.18-4.34
		c12.081,0,21.478,1.377,28.192,4.13c6.713,2.753,11.996,6.982,15.845,12.684c3.847,5.704,5.772,12.095,5.772,19.173
		c0,7.531-2.205,14.723-6.616,21.577c-4.411,6.855-12.431,14.383-24.062,22.586c-6.911,4.778-11.533,8.12-13.863,10.029
		c-2.333,1.913-5.072,4.412-8.217,7.502h53.603V259.895z"/>
</g>
<path fill-rule="evenodd" clip-rule="evenodd" fill="#FFFFFF" d="M276.093,0.018c77.031,0,154.063-0.001,231.094,0.003
	c4.994,0,9.972-0.051,14.858,1.401c17.414,5.176,28.897,19.849,29.88,38.387c0.109,2.053,0.029,4.116,0.029,6.174
	c0.001,100.847-0.015,201.693,0.038,302.539c0.003,6.825-0.428,13.535-3.029,19.895c-6.369,15.57-18,24.217-34.725,25.956
	c-2.038,0.212-4.112,0.11-6.169,0.11c-154.651,0.004-309.301,0.002-463.953,0.006c-4.413,0-8.84,0.094-13.149-1.037
	C9.883,387.92-0.107,369.746,0.018,354.254c0.011-1.469-0.003-2.939-0.003-4.41C0.015,248.115,0.021,146.387,0,44.658
	c-0.001-5.603,0.182-11.109,1.953-16.542C7.112,12.288,21.369,1.053,37.945,0.106c2.932-0.168,5.878-0.085,8.818-0.085
	C123.206,0.017,199.649,0.018,276.093,0.018z M49.862,40.899c-10.65,0.004-9.248-1.265-9.251,9.427
	c-0.03,98.181-0.017,196.362-0.017,294.544c0,1.469-0.024,2.94,0.006,4.41c0.098,4.86,0.105,4.869,4.899,4.979
	c1.469,0.033,2.94,0.008,4.41,0.008c150.506,0,301.012,0.002,451.518-0.004c11.235,0,9.893,0.923,9.896-9.879
	c0.021-97.889,0.021-195.776,0-293.663c-0.002-10.753,1.317-9.832-9.943-9.833c-75.253-0.008-150.506-0.004-225.758-0.004
	C200.368,40.883,125.116,40.869,49.862,40.899z"/>
<g>
</g>
<g>
</g>
<g>
</g>
<g>
</g>
<g>
</g>
<g>
</g>
</svg>
