<svg enable-background="new 0 0 551.992 437.656" height="437.656" viewBox="0 0 551.992 437.656" width="551.992" xmlns="http://www.w3.org/2000/svg"><path clip-rule="evenodd" d="m276.351 409.395c34.089 0 68.179-.008 102.269.012 2.934.002 5.904-.07 8.795.336 6.087.854 10.704 5.7 11.509 11.678.855 6.361-2.647 12.537-8.675 14.767-2.167.802-4.559 1.097-6.877 1.35-2.034.222-4.109.069-6.167.069-68.179.002-136.358 0-204.537.002-3.817 0-7.656.217-11.334-1.145-5.438-2.012-8.804-5.814-9.426-11.623-.621-5.794 1.797-10.256 6.667-13.431 1.779-1.161 3.746-1.718 5.817-1.829 2.639-.143 5.285-.179 7.928-.18 34.676-.01 69.354-.006 104.031-.006z" fill="#fff" fill-rule="evenodd"/><path clip-rule="evenodd" d="m275.622 40.56c75.252 0 150.505-.004 225.758.004 11.26.001 9.94-.92 9.943 9.833.021 97.887.021 195.774 0 293.663-.002 10.802 1.339 9.879-9.896 9.879-150.506.006-301.012.004-451.518.004-1.47 0-2.94.025-4.41-.008-4.794-.109-4.802-.118-4.899-4.979-.03-1.47-.006-2.941-.006-4.41 0-98.182-.013-196.363.017-294.544.003-10.692-1.398-9.423 9.251-9.427 75.254-.029 150.506-.015 225.76-.015z" fill="#010101" fill-rule="evenodd" opacity=".6"/><g fill="#fff"><path clip-rule="evenodd" d="m492.664 291.074c.001 9.113-.012 18.229.006 27.342.009 4.43-.401 8.797-1.501 13.104-1.236 4.839-4.438 7.52-9.207 8.309-2.302.381-4.682.398-7.027.402-18.816.028-37.632.027-56.448 0-2.346-.004-4.734.027-7.031-.372-5.853-1.019-9.508-5.157-9.186-10.063.308-4.674 3.86-8.192 9.373-8.932 2.608-.351 5.278-.311 7.92-.316 14.112-.026 28.224-.012 42.335-.013 1.764 0 3.529.036 5.292-.009 5.268-.133 5.582-.428 5.715-5.373.047-1.762.012-3.527.012-5.291.001-15.288-.007-30.576.009-45.863.003-3.227-.155-6.473.992-9.594 1.593-4.334 5.203-7.061 9.218-6.887 4.074.176 7.734 3.075 8.765 7.463.598 2.542.706 5.239.729 7.87.083 9.407.034 18.815.034 28.223z" fill-rule="evenodd"/><path clip-rule="evenodd" d="m100.213 55.525c9.4.002 18.801.005 28.201 0 2.947-.001 5.892.08 8.708 1.05 3.921 1.351 6.546 4.68 6.754 8.427.224 4.042-2.482 7.826-6.752 9.307-3.104 1.076-6.349 1.067-9.587 1.065-14.688-.006-29.376.026-44.064-.013-8.465-.022-8.082-.032-8.069 8.299.021 13.219.009 26.438 0 39.658-.001 2.935.051 5.875-.98 8.706-1.592 4.367-5.127 7.083-9.159 6.965-4.034-.117-7.719-3.045-8.85-7.368-.515-1.964-.696-4.065-.702-6.104-.056-18.507-.05-37.014-.022-55.521.002-1.753.115-3.541.469-5.252.913-4.418 3.593-7.412 8-8.424 2.544-.584 5.229-.739 7.854-.763 9.398-.086 18.799-.033 28.199-.032z" fill-rule="evenodd"/><path d="m148.018 172.076-32.447-5.815c2.697-10.337 7.879-18.26 15.55-23.767 7.669-5.506 18.526-8.259 32.573-8.259 16.126 0 27.784 3.006 34.977 9.017 7.192 6.013 10.788 13.57 10.788 22.673 0 5.337-1.463 10.169-4.383 14.496-2.922 4.328-7.332 8.12-13.232 11.378 4.774 1.181 8.427 2.557 10.957 4.13 4.1 2.528 7.29 5.856 9.565 9.987 2.276 4.129 3.414 9.061 3.414 14.792 0 7.194-1.884 14.088-5.647 20.691-3.765 6.601-9.186 11.686-16.266 15.255-7.08 3.566-16.379 5.35-27.897 5.35-11.238 0-20.1-1.32-26.59-3.959-6.49-2.641-11.828-6.504-16.013-11.591-4.186-5.084-7.404-11.473-9.65-19.172l34.301-4.552c1.349 6.91 3.442 11.701 6.28 14.369 2.835 2.669 6.447 4.005 10.83 4.005 4.605 0 8.44-1.687 11.503-5.059 3.062-3.368 4.593-7.866 4.593-13.485 0-5.729-1.475-10.167-4.424-13.315-2.95-3.146-6.955-4.72-12.011-4.72-2.696 0-6.405.674-11.124 2.022l1.77-24.526c1.909.283 3.4.422 4.467.422 4.495 0 8.245-1.432 11.252-4.299 3.003-2.865 4.507-6.264 4.507-10.197 0-3.764-1.123-6.771-3.37-9.018-2.248-2.247-5.339-3.372-9.271-3.372-4.046 0-7.332 1.222-9.862 3.666-2.527 2.444-4.241 6.731-5.14 12.853z"/><path d="m257.48 154.845h36.662v34.388h-36.662zm0 55.12h36.662v34.386h-36.662z"/><path d="m436.305 259.895h-102.992c1.18-10.167 4.762-19.734 10.747-28.695 5.983-8.963 17.205-19.54 33.669-31.732 10.057-7.471 16.49-13.147 19.3-17.024 2.81-3.876 4.213-7.556 4.213-11.04 0-3.764-1.39-6.981-4.171-9.651-2.782-2.668-6.279-4.003-10.493-4.003-4.382 0-7.964 1.378-10.746 4.131-2.782 2.752-4.65 7.614-5.604 14.58l-34.386-2.78c1.348-9.665 3.821-17.207 7.417-22.63 3.595-5.422 8.667-9.579 15.212-12.474 6.545-2.894 15.604-4.34 27.18-4.34 12.081 0 21.478 1.377 28.192 4.13 6.713 2.753 11.996 6.982 15.845 12.684 3.847 5.704 5.772 12.095 5.772 19.173 0 7.531-2.205 14.723-6.616 21.577-4.411 6.855-12.431 14.383-24.062 22.586-6.911 4.778-11.533 8.12-13.863 10.029-2.333 1.913-5.072 4.412-8.217 7.502h53.603z"/><path clip-rule="evenodd" d="m276.093.018c77.031 0 154.063-.001 231.094.003 4.994 0 9.972-.051 14.858 1.401 17.414 5.176 28.897 19.849 29.88 38.387.109 2.053.029 4.116.029 6.174.001 100.847-.015 201.693.038 302.539.003 6.825-.428 13.535-3.029 19.895-6.369 15.57-18 24.217-34.725 25.956-2.038.212-4.112.11-6.169.11-154.651.004-309.301.002-463.953.006-4.413 0-8.84.094-13.149-1.037-21.084-5.532-31.074-23.706-30.949-39.198.011-1.469-.003-2.939-.003-4.41 0-101.729.006-203.457-.015-305.186-.001-5.603.182-11.109 1.953-16.542 5.159-15.828 19.416-27.063 35.992-28.01 2.932-.168 5.878-.085 8.818-.085 76.443-.004 152.886-.003 229.33-.003zm-226.231 40.881c-10.65.004-9.248-1.265-9.251 9.427-.03 98.181-.017 196.362-.017 294.544 0 1.469-.024 2.94.006 4.41.098 4.86.105 4.869 4.899 4.979 1.469.033 2.94.008 4.41.008 150.506 0 301.012.002 451.518-.004 11.235 0 9.893.923 9.896-9.879.021-97.889.021-195.776 0-293.663-.002-10.753 1.317-9.832-9.943-9.833-75.253-.008-150.506-.004-225.758-.004-75.254-.001-150.506-.015-225.76.015z" fill-rule="evenodd"/></g></svg>