<?xml version="1.0" encoding="utf-8"?>
<!-- Generator: Adobe Illustrator 16.0.0, SVG Export Plug-In . SVG Version: 6.00 Build 0)  
created by pajarorrojo for playstation-x theme https://github.com/pajarorrojo/es-theme-PlayStation-X  -->
<!DOCTYPE svg PUBLIC "-//W3C//DTD SVG 1.1//EN" "http://www.w3.org/Graphics/SVG/1.1/DTD/svg11.dtd">
<svg version="1.1" id="Layer_1" xmlns="http://www.w3.org/2000/svg" xmlns:xlink="http://www.w3.org/1999/xlink" x="0px" y="0px"
	 width="563.029px" height="490.751px" viewBox="0 0 563.029 490.751" enable-background="new 0 0 563.029 490.751"
	 xml:space="preserve">
<path fill-rule="evenodd" clip-rule="evenodd" fill="#FFFFFF" d="M283.845,490.75c-38.336,0-76.672,0.008-115.008-0.015
	c-3.299-0.002-6.642,0.1-9.89-0.37c-7.203-1.04-12.471-6.847-13.201-14.088c-0.686-6.811,3.918-13.7,10.875-15.944
	c2.172-0.701,4.504-1.023,6.789-1.232c2.295-0.209,4.623-0.068,6.936-0.068c76.671-0.001,153.343,0,230.014,0
	c4.291,0,8.585-0.201,12.752,1.248c10.315,3.584,14.079,15.543,7.555,24.215c-2.494,3.314-5.793,5.465-9.937,5.891
	c-3.276,0.338-6.595,0.348-9.895,0.35C361.838,490.758,322.841,490.75,283.845,490.75z"/>
<path opacity="0.6" fill-rule="evenodd" clip-rule="evenodd" fill="#010101" d="M280.875,49.642c73.356,0,146.712,0,220.068,0.001
	c2.643,0,5.289-0.063,7.93,0.029c3.851,0.134,4.35,0.683,4.477,4.774c0.071,2.311,0.021,4.625,0.021,6.938
	c0.001,105.738,0.001,211.477,0,317.216c0,1.981-0.021,3.965,0.001,5.948c0.043,3.911,0.007,5.646-5.884,5.496
	c-2.312-0.059-4.626-0.006-6.938-0.006c-146.052,0-292.104,0.016-438.155-0.025c-14.956-0.004-12.749,1.8-12.757-12.33
	c-0.061-105.739-0.048-211.478-0.012-317.216c0.004-12.5-1.621-10.793,11.182-10.802C134.163,49.616,207.519,49.642,280.875,49.642z
	"/>
<path fill-rule="evenodd" clip-rule="evenodd" fill="#FFFFFF" d="M445.563,375.836c-11.884,0.001-23.769,0.056-35.653-0.034
	c-3.284-0.025-6.646-0.111-9.826-0.819c-4.93-1.099-8.198-5.253-8.408-9.813c-0.208-4.512,2.832-8.568,7.692-10.386
	c3.502-1.31,7.145-1.116,10.767-1.12c18.486-0.018,36.973-0.008,55.459-0.01c2.311,0,4.625,0.061,6.932-0.037
	c3.722-0.158,4.489-0.844,4.507-4.832c0.076-17.496,0.038-34.992,0.058-52.488c0.003-2.971-0.094-5.957,0.18-8.906
	c0.21-2.271,0.601-4.638,1.491-6.713c1.682-3.918,4.798-6.248,9.185-6.461c4.24-0.205,8.235,2.528,9.986,6.799
	c1.406,3.432,1.482,7.076,1.482,10.719c0,11.555,0.008,23.109,0.008,34.662c0,9.244,0.067,18.488-0.049,27.73
	c-0.045,3.617-0.201,7.287-0.854,10.83c-1.173,6.364-4.883,9.691-11.379,10.543c-2.605,0.342-5.269,0.314-7.906,0.322
	C468.011,375.854,456.787,375.835,445.563,375.836z"/>
<path fill-rule="evenodd" clip-rule="evenodd" fill="#FFFFFF" d="M114.082,67.818c10.896,0.001,21.792-0.002,32.688,0.003
	c3.307,0.002,6.605,0.057,9.739,1.357c4.438,1.84,7.012,5.438,6.991,9.836c-0.021,4.333-2.713,8.145-7.081,9.811
	c-3.47,1.323-7.141,1.16-10.769,1.163c-15.518,0.016-31.036,0.006-46.553,0.007c-1.981,0-3.963-0.038-5.943,0.011
	c-5.832,0.144-6.35,0.588-6.469,6.054c-0.092,4.29-0.024,8.584-0.024,12.876c-0.002,12.876,0.061,25.754-0.049,38.63
	c-0.028,3.276-0.235,6.64-1.017,9.802c-1.257,5.081-5.242,8.055-9.956,8.127c-4.732,0.072-8.79-2.817-10.172-7.83
	c-0.778-2.822-1.084-5.854-1.096-8.794c-0.09-21.131,0.085-42.263-0.108-63.393c-0.1-10.974,3.81-18.15,18.125-17.722
	C92.944,68.071,103.517,67.816,114.082,67.818z"/>
<g>
	<path fill="#FFFFFF" d="M181.073,259.851h-61.974v-27.979l61.974-73.667h29.65v75.254h15.369v26.392h-15.369v22.886h-29.65V259.851
		z M181.073,233.459v-38.535l-32.747,38.535H181.073z"/>
	<path fill="#FFFFFF" d="M264.849,194.036h36.333v34.077h-36.333V194.036z M264.849,248.66h36.333v34.076h-36.333V248.66z"/>
	<path fill="#FFFFFF" d="M376.271,195.706l-32.155-5.763c2.673-10.244,7.809-18.095,15.41-23.553
		c7.6-5.456,18.361-8.185,32.281-8.185c15.98,0,27.534,2.979,34.662,8.937c7.127,5.959,10.691,13.447,10.691,22.468
		c0,5.29-1.449,10.079-4.343,14.366c-2.896,4.289-7.267,8.047-13.113,11.276c4.731,1.169,8.353,2.534,10.858,4.092
		c4.063,2.506,7.225,5.805,9.479,9.897c2.255,4.093,3.383,8.979,3.383,14.659c0,7.128-1.866,13.962-5.596,20.505
		c-3.731,6.543-9.104,11.581-16.12,15.117c-7.016,3.535-16.232,5.304-27.646,5.304c-11.137,0-19.92-1.31-26.352-3.926
		c-6.431-2.617-11.722-6.444-15.869-11.483c-4.148-5.041-7.337-11.373-9.563-19.003l33.993-4.51
		c1.337,6.849,3.411,11.597,6.224,14.242c2.81,2.643,6.389,3.965,10.732,3.965c4.565,0,8.365-1.67,11.401-5.011
		c3.035-3.341,4.552-7.796,4.552-13.362c0-5.68-1.461-10.078-4.385-13.197c-2.923-3.118-6.89-4.677-11.902-4.677
		c-2.673,0-6.348,0.667-11.025,2.004l1.754-24.306c1.893,0.28,3.369,0.418,4.427,0.418c4.454,0,8.17-1.42,11.15-4.26
		c2.978-2.84,4.468-6.208,4.468-10.106c0-3.729-1.115-6.709-3.341-8.937c-2.228-2.226-5.292-3.341-9.188-3.341
		c-4.009,0-7.267,1.211-9.772,3.633C378.861,185.391,377.162,189.638,376.271,195.706z"/>
</g>
<path fill-rule="evenodd" clip-rule="evenodd" fill="#FFFFFF" d="M281.812,0.062c76.011,0,152.023,0.05,228.035-0.062
	c9.454-0.014,18.432,1.415,26.717,6.02c17.099,9.504,25.25,24.503,26.423,43.676c0.081,1.317,0.021,2.644,0.021,3.965
	c0,110.713-0.009,221.425,0.017,332.137c0.002,9.045-1.277,17.814-5.438,25.92c-9.519,18.549-25.36,27.057-45.641,28.29
	c-2.635,0.16-5.286,0.038-7.931,0.038c-148.718,0.001-297.436-0.004-446.153,0.02c-5.628,0.001-11.202-0.232-16.763-1.252
	c-23.354-4.281-40.415-24.129-41.068-47.941c-0.045-1.651-0.014-3.305-0.014-4.957C0.016,275.202,0.022,164.491,0,53.778
	c-0.001-5.965,0.244-11.837,1.915-17.653C7.865,15.411,26.284,0.85,47.831,0.09c2.971-0.104,5.949-0.027,8.923-0.027
	C131.773,0.062,206.792,0.062,281.812,0.062z M60.994,49.979c-12.802,0.008-11.177-1.698-11.182,10.801
	c-0.036,105.739-0.048,211.478,0.012,317.217c0.008,14.13-2.198,12.326,12.757,12.33c146.052,0.041,292.103,0.025,438.155,0.025
	c2.312,0,4.627-0.053,6.938,0.006c5.891,0.15,5.927-1.585,5.884-5.496c-0.022-1.983-0.001-3.967-0.001-5.948
	c0.001-105.739,0.001-211.478,0-317.216c0-2.313,0.05-4.629-0.021-6.939c-0.127-4.092-0.626-4.64-4.477-4.773
	c-2.641-0.093-5.287-0.029-7.93-0.029c-73.356-0.002-146.712-0.002-220.068-0.002C207.706,49.953,134.35,49.928,60.994,49.979z"/>
<g>
</g>
<g>
</g>
<g>
</g>
<g>
</g>
<g>
</g>
<g>
</g>
</svg>
