<svg enable-background="new 0 0 563.029 490.751" height="490.751" viewBox="0 0 563.029 490.751" width="563.029" xmlns="http://www.w3.org/2000/svg"><path clip-rule="evenodd" d="m283.845 490.75c-38.336 0-76.672.008-115.008-.015-3.299-.002-6.642.1-9.89-.37-7.203-1.04-12.471-6.847-13.201-14.088-.686-6.811 3.918-13.7 10.875-15.944 2.172-.701 4.504-1.023 6.789-1.232 2.295-.209 4.623-.068 6.936-.068 76.671-.001 153.343 0 230.014 0 4.291 0 8.585-.201 12.752 1.248 10.315 3.584 14.079 15.543 7.555 24.215-2.494 3.314-5.793 5.465-9.937 5.891-3.276.338-6.595.348-9.895.35-38.997.021-77.994.013-116.99.013z" fill="#fff" fill-rule="evenodd"/><path clip-rule="evenodd" d="m280.875 49.642c73.356 0 146.712 0 220.068.001 2.643 0 5.289-.063 7.93.029 3.851.134 4.35.683 4.477 4.774.071 2.311.021 4.625.021 6.938.001 105.738.001 211.477 0 317.216 0 1.981-.021 3.965.001 5.948.043 3.911.007 5.646-5.884 5.496-2.312-.059-4.626-.006-6.938-.006-146.052 0-292.104.016-438.155-.025-14.956-.004-12.749 1.8-12.757-12.33-.061-105.739-.048-211.478-.012-317.216.004-12.5-1.621-10.793 11.182-10.802 73.355-.049 146.711-.023 220.067-.023z" fill="#010101" fill-rule="evenodd" opacity=".6"/><g fill="#fff"><path clip-rule="evenodd" d="m445.563 375.836c-11.884.001-23.769.056-35.653-.034-3.284-.025-6.646-.111-9.826-.819-4.93-1.099-8.198-5.253-8.408-9.813-.208-4.512 2.832-8.568 7.692-10.386 3.502-1.31 7.145-1.116 10.767-1.12 18.486-.018 36.973-.008 55.459-.01 2.311 0 4.625.061 6.932-.037 3.722-.158 4.489-.844 4.507-4.832.076-17.496.038-34.992.058-52.488.003-2.971-.094-5.957.18-8.906.21-2.271.601-4.638 1.491-6.713 1.682-3.918 4.798-6.248 9.185-6.461 4.24-.205 8.235 2.528 9.986 6.799 1.406 3.432 1.482 7.076 1.482 10.719 0 11.555.008 23.109.008 34.662 0 9.244.067 18.488-.049 27.73-.045 3.617-.201 7.287-.854 10.83-1.173 6.364-4.883 9.691-11.379 10.543-2.605.342-5.269.314-7.906.322-11.224.032-22.448.013-33.672.014z" fill-rule="evenodd"/><path clip-rule="evenodd" d="m114.082 67.818c10.896.001 21.792-.002 32.688.003 3.307.002 6.605.057 9.739 1.357 4.438 1.84 7.012 5.438 6.991 9.836-.021 4.333-2.713 8.145-7.081 9.811-3.47 1.323-7.141 1.16-10.769 1.163-15.518.016-31.036.006-46.553.007-1.981 0-3.963-.038-5.943.011-5.832.144-6.35.588-6.469 6.054-.092 4.29-.024 8.584-.024 12.876-.002 12.876.061 25.754-.049 38.63-.028 3.276-.235 6.64-1.017 9.802-1.257 5.081-5.242 8.055-9.956 8.127-4.732.072-8.79-2.817-10.172-7.83-.778-2.822-1.084-5.854-1.096-8.794-.09-21.131.085-42.263-.108-63.393-.1-10.974 3.81-18.15 18.125-17.722 10.556.315 21.129.06 31.694.062z" fill-rule="evenodd"/><path d="m181.073 259.851h-61.974v-27.979l61.974-73.667h29.65v75.254h15.369v26.392h-15.369v22.886h-29.65zm0-26.392v-38.535l-32.747 38.535z"/><path d="m264.849 194.036h36.333v34.077h-36.333zm0 54.624h36.333v34.076h-36.333z"/><path d="m376.271 195.706-32.155-5.763c2.673-10.244 7.809-18.095 15.41-23.553 7.6-5.456 18.361-8.185 32.281-8.185 15.98 0 27.534 2.979 34.662 8.937 7.127 5.959 10.691 13.447 10.691 22.468 0 5.29-1.449 10.079-4.343 14.366-2.896 4.289-7.267 8.047-13.113 11.276 4.731 1.169 8.353 2.534 10.858 4.092 4.063 2.506 7.225 5.805 9.479 9.897 2.255 4.093 3.383 8.979 3.383 14.659 0 7.128-1.866 13.962-5.596 20.505-3.731 6.543-9.104 11.581-16.12 15.117-7.016 3.535-16.232 5.304-27.646 5.304-11.137 0-19.92-1.31-26.352-3.926-6.431-2.617-11.722-6.444-15.869-11.483-4.148-5.041-7.337-11.373-9.563-19.003l33.993-4.51c1.337 6.849 3.411 11.597 6.224 14.242 2.81 2.643 6.389 3.965 10.732 3.965 4.565 0 8.365-1.67 11.401-5.011 3.035-3.341 4.552-7.796 4.552-13.362 0-5.68-1.461-10.078-4.385-13.197-2.923-3.118-6.89-4.677-11.902-4.677-2.673 0-6.348.667-11.025 2.004l1.754-24.306c1.893.28 3.369.418 4.427.418 4.454 0 8.17-1.42 11.15-4.26 2.978-2.84 4.468-6.208 4.468-10.106 0-3.729-1.115-6.709-3.341-8.937-2.228-2.226-5.292-3.341-9.188-3.341-4.009 0-7.267 1.211-9.772 3.633s-4.204 6.669-5.095 12.737z"/><path clip-rule="evenodd" d="m281.812.062c76.011 0 152.023.05 228.035-.062 9.454-.014 18.432 1.415 26.717 6.02 17.099 9.504 25.25 24.503 26.423 43.676.081 1.317.021 2.644.021 3.965 0 110.713-.009 221.425.017 332.137.002 9.045-1.277 17.814-5.438 25.92-9.519 18.549-25.36 27.057-45.641 28.29-2.635.16-5.286.038-7.931.038-148.718.001-297.436-.004-446.153.02-5.628.001-11.202-.232-16.763-1.252-23.354-4.281-40.415-24.129-41.068-47.941-.045-1.651-.014-3.305-.014-4.957-.001-110.714.005-221.425-.017-332.138-.001-5.965.244-11.837 1.915-17.653 5.95-20.714 24.369-35.275 45.916-36.035 2.971-.104 5.949-.027 8.923-.027 75.019-.001 150.038-.001 225.058-.001zm-220.818 49.917c-12.802.008-11.177-1.698-11.182 10.801-.036 105.739-.048 211.478.012 317.217.008 14.13-2.198 12.326 12.757 12.33 146.052.041 292.103.025 438.155.025 2.312 0 4.627-.053 6.938.006 5.891.15 5.927-1.585 5.884-5.496-.022-1.983-.001-3.967-.001-5.948.001-105.739.001-211.478 0-317.216 0-2.313.05-4.629-.021-6.939-.127-4.092-.626-4.64-4.477-4.773-2.641-.093-5.287-.029-7.93-.029-73.356-.002-146.712-.002-220.068-.002-73.355-.002-146.711-.027-220.067.024z" fill-rule="evenodd"/></g></svg>