<svg enable-background="new 0 0 645.448 468.2" height="468.2" viewBox="0 0 645.448 468.2" width="645.448" xmlns="http://www.w3.org/2000/svg"><path clip-rule="evenodd" d="m320.688 438.225c36.522 0 73.044-.004 109.566.008 2.807.001 5.639-.09 8.417.232 7.366.854 12.724 6.396 13.307 13.495.569 6.922-4.079 13.173-11.205 15.33-3.679 1.115-7.415.891-11.146.892-54.939.015-109.879.01-164.817.01-18.105 0-36.21 0-54.315-.002-3.43 0-6.847.064-10.207-.955-7.332-2.223-11.402-7.922-10.867-15.431.511-7.165 5.784-12.57 13.283-13.367 2.782-.297 5.611-.205 8.418-.206 36.523-.01 73.045-.006 109.566-.006z" fill="#fff" fill-rule="evenodd"/><path clip-rule="evenodd" d="m322.525 378.61c-88.674 0-177.349.02-266.023-.023-12.502-.006-10.947 1.695-10.952-10.864-.034-103.662-.035-207.324.001-310.986.004-12.972-1.627-11.23 11.554-11.232 177.037-.035 354.074-.023 531.111-.023.625 0 1.249-.004 1.874 0 11.1.075 10.051-1.162 10.052 9.99.012 104.598.01 209.197.004 313.795 0 10.388.862 9.333-9.725 9.334-89.297.016-178.596.009-267.896.009z" fill="#010101" fill-rule="evenodd" opacity=".6"/><g fill="#fff"><path clip-rule="evenodd" d="m536.444 363.107c-9.99 0-19.979.032-29.968-.022-2.802-.015-5.649-.026-8.394-.502-5.264-.909-8.739-4.671-9.055-9.315-.336-4.932 3.116-9.285 8.827-10.452 3.02-.617 6.197-.623 9.304-.633 16.233-.057 32.467-.055 48.701-.018 8.419.021 8.234.12 8.217-8.205-.033-17.17-.031-34.34.014-51.51.007-2.799.006-5.653.523-8.386 1.11-5.874 5.066-9.322 10.096-9.252 5.059.07 8.924 3.672 9.898 9.467.359 2.141.412 4.351.415 6.53.03 19.98.017 39.959.02 59.939.001 4.389-.454 8.718-1.537 12.984-1.4 5.51-4.979 8.505-10.545 9.089-2.477.26-4.986.267-7.48.273-9.681.031-19.358.014-29.036.013z" fill-rule="evenodd"/><path clip-rule="evenodd" d="m105.552 61.617c9.674 0 19.35-.021 29.023.016 2.492.009 5.021-.03 7.469.361 5.727.912 9.556 4.895 9.733 9.773.186 5.158-3.89 9.532-10.065 10.422-2.76.398-5.601.321-8.405.326-15.291.028-30.583.044-45.875.002-8.267-.023-8.446-.196-8.412 8.075.061 14.355.018 28.711.01 43.066-.001 3.121.032 6.243-1.076 9.244-1.725 4.673-5.359 7.35-9.826 7.187-4.374-.159-8.14-3.173-9.286-7.881-.583-2.396-.737-4.943-.746-7.423-.057-19.036-.032-38.073-.028-57.109 0-.936.006-1.875.076-2.807.657-8.832 4.671-12.951 13.707-13.161 11.228-.261 22.467-.062 33.701-.062 0-.01 0-.019 0-.029z" fill-rule="evenodd"/><path d="m140.545 138.162h99.076v33.299h-67.11l-3.586 22.54c4.645-2.185 9.238-3.824 13.781-4.918 4.541-1.092 9.032-1.639 13.473-1.639 15.026 0 27.218 4.543 36.577 13.627 9.357 9.085 14.037 20.526 14.037 34.323 0 9.7-2.408 19.023-7.224 27.97-4.815 8.949-11.646 15.779-20.492 20.492s-20.167 7.07-33.964 7.07c-9.905 0-18.391-.939-25.461-2.817-7.069-1.878-13.08-4.678-18.032-8.402-4.954-3.722-8.965-7.941-12.039-12.653-3.073-4.713-5.635-10.587-7.684-17.623l42.212-4.61c1.024 6.762 3.415 11.902 7.172 15.419 3.756 3.519 8.23 5.276 13.422 5.276 5.804 0 10.604-2.202 14.395-6.608 3.792-4.406 5.687-10.979 5.687-19.723 0-8.947-1.913-15.504-5.737-19.671-3.826-4.166-8.914-6.25-15.266-6.25-4.031 0-7.924.991-11.68 2.971-2.802 1.435-5.875 4.031-9.221 7.787l-35.553-5.123z"/><path d="m303.059 158.788h44.569v41.803h-44.569zm0 67.006h44.569v41.803h-44.569z"/><path d="m444.672 181.604-39.445-7.07c3.278-12.566 9.579-22.198 18.903-28.893 9.323-6.693 22.522-10.041 39.6-10.041 19.603 0 33.775 3.655 42.52 10.963 8.742 7.31 13.114 16.496 13.114 27.561 0 6.49-1.777 12.364-5.328 17.623-3.552 5.26-8.914 9.871-16.085 13.832 5.805 1.434 10.246 3.109 13.319 5.021 4.985 3.073 8.862 7.121 11.629 12.141 2.766 5.021 4.15 11.015 4.15 17.982 0 8.744-2.29 17.127-6.865 25.152-4.577 8.028-11.167 14.208-19.774 18.545-8.606 4.337-19.912 6.506-33.914 6.506-13.662 0-24.436-1.606-32.325-4.815-7.889-3.21-14.379-7.905-19.466-14.088-5.09-6.181-9-13.95-11.732-23.309l41.7-5.533c1.64 8.401 4.184 14.226 7.633 17.469 3.448 3.245 7.838 4.866 13.166 4.866 5.6 0 10.262-2.048 13.986-6.146 3.722-4.099 5.584-9.562 5.584-16.394 0-6.967-1.793-12.362-5.379-16.188-3.586-3.824-8.452-5.737-14.6-5.737-3.279 0-7.787.82-13.524 2.459l2.151-29.815c2.321.342 4.132.512 5.431.512 5.464 0 10.022-1.742 13.678-5.225 3.653-3.484 5.481-7.615 5.481-12.397 0-4.575-1.367-8.23-4.098-10.963-2.733-2.731-6.49-4.099-11.271-4.099-4.918 0-8.914 1.486-11.987 4.457-3.075 2.971-5.159 8.181-6.252 15.624z"/><path clip-rule="evenodd" d="m323.294 423.891c-91.178 0-182.357-.003-273.536.004-5.624 0-11.178-.096-16.686-1.721-19.181-5.658-32.171-22.008-33.008-41.934-.104-2.494-.042-4.995-.042-7.493-.001-107.102-.001-214.206.002-321.31 0-2.81-.083-5.626.061-8.43 1.213-23.512 20.235-42.169 43.775-42.971 1.56-.053 3.123-.019 4.684-.019 182.67 0 365.339.003 548.009-.018 5.643-.001 11.184.261 16.65 1.98 18.906 5.945 31.717 22.779 32.227 42.623.033 1.249.01 2.498.01 3.747 0 108.977-.002 217.954.007 326.931 0 5.319-.225 10.547-1.802 15.735-5.915 19.462-22.749 32.415-43.069 32.861-2.497.055-4.996.013-7.494.013-89.929.002-179.858.002-269.788.002zm267.81-45.381c10.587-.001 9.725 1.054 9.725-9.334.006-104.598.008-209.197-.004-313.795-.001-11.152 1.048-9.916-10.052-9.99-.625-.004-1.25 0-1.874 0-177.037 0-354.074-.012-531.111.023-13.181.002-11.55-1.74-11.554 11.232-.036 103.662-.035 207.324-.001 310.986.004 12.559-1.55 10.858 10.951 10.864 88.674.043 177.35.023 266.023.023 89.3 0 178.599.007 267.897-.009z" fill-rule="evenodd"/></g></svg>