<?xml version="1.0" encoding="utf-8"?>
<!-- Generator: Adobe Illustrator 16.0.0, SVG Export Plug-In . SVG Version: 6.00 Build 0) 
created by pajarorrojo for playstation-x theme https://github.com/pajarorrojo/es-theme-PlayStation-X  -->
<!DOCTYPE svg PUBLIC "-//W3C//DTD SVG 1.1//EN" "http://www.w3.org/Graphics/SVG/1.1/DTD/svg11.dtd">
<svg version="1.1" id="Layer_1" xmlns="http://www.w3.org/2000/svg" xmlns:xlink="http://www.w3.org/1999/xlink" x="0px" y="0px"
	 width="645.448px" height="468.2px" viewBox="0 0 645.448 468.2" enable-background="new 0 0 645.448 468.2" xml:space="preserve">
<path fill-rule="evenodd" clip-rule="evenodd" fill="#FFFFFF" d="M320.688,438.225c36.522,0,73.044-0.004,109.566,0.008
	c2.807,0.001,5.639-0.09,8.417,0.232c7.366,0.854,12.724,6.396,13.307,13.495c0.569,6.922-4.079,13.173-11.205,15.33
	c-3.679,1.115-7.415,0.891-11.146,0.892c-54.939,0.015-109.879,0.01-164.817,0.01c-18.105,0-36.21,0-54.315-0.002
	c-3.43,0-6.847,0.064-10.207-0.955c-7.332-2.223-11.402-7.922-10.867-15.431c0.511-7.165,5.784-12.57,13.283-13.367
	c2.782-0.297,5.611-0.205,8.418-0.206C247.645,438.221,284.167,438.225,320.688,438.225z"/>
<path opacity="0.6" fill-rule="evenodd" clip-rule="evenodd" fill="#010101" d="M322.525,378.61
	c-88.674,0-177.349,0.02-266.023-0.023C44,378.581,45.555,380.282,45.55,367.723c-0.034-103.662-0.035-207.324,0.001-310.986
	c0.004-12.972-1.627-11.23,11.554-11.232c177.037-0.035,354.074-0.023,531.111-0.023c0.625,0,1.249-0.004,1.874,0
	c11.1,0.075,10.051-1.162,10.052,9.99c0.012,104.598,0.01,209.197,0.004,313.795c0,10.388,0.862,9.333-9.725,9.334
	C501.124,378.617,411.825,378.61,322.525,378.61z"/>
<path fill-rule="evenodd" clip-rule="evenodd" fill="#FFFFFF" d="M536.444,363.107c-9.99,0-19.979,0.032-29.968-0.022
	c-2.802-0.015-5.649-0.026-8.394-0.502c-5.264-0.909-8.739-4.671-9.055-9.315c-0.336-4.932,3.116-9.285,8.827-10.452
	c3.02-0.617,6.197-0.623,9.304-0.633c16.233-0.057,32.467-0.055,48.701-0.018c8.419,0.021,8.234,0.12,8.217-8.205
	c-0.033-17.17-0.031-34.34,0.014-51.51c0.007-2.799,0.006-5.653,0.523-8.386c1.11-5.874,5.066-9.322,10.096-9.252
	c5.059,0.07,8.924,3.672,9.898,9.467c0.359,2.141,0.412,4.351,0.415,6.53c0.03,19.98,0.017,39.959,0.02,59.939
	c0.001,4.389-0.454,8.718-1.537,12.984c-1.4,5.51-4.979,8.505-10.545,9.089c-2.477,0.26-4.986,0.267-7.48,0.273
	C555.799,363.125,546.122,363.108,536.444,363.107z"/>
<path fill-rule="evenodd" clip-rule="evenodd" fill="#FFFFFF" d="M105.552,61.617c9.674,0,19.35-0.021,29.023,0.016
	c2.492,0.009,5.021-0.03,7.469,0.361c5.727,0.912,9.556,4.895,9.733,9.773c0.186,5.158-3.89,9.532-10.065,10.422
	c-2.76,0.398-5.601,0.321-8.405,0.326c-15.291,0.028-30.583,0.044-45.875,0.002c-8.267-0.023-8.446-0.196-8.412,8.075
	c0.061,14.355,0.018,28.711,0.01,43.066c-0.001,3.121,0.032,6.243-1.076,9.244c-1.725,4.673-5.359,7.35-9.826,7.187
	c-4.374-0.159-8.14-3.173-9.286-7.881c-0.583-2.396-0.737-4.943-0.746-7.423c-0.057-19.036-0.032-38.073-0.028-57.109
	c0-0.936,0.006-1.875,0.076-2.807c0.657-8.832,4.671-12.951,13.707-13.161c11.228-0.261,22.467-0.062,33.701-0.062
	C105.552,61.636,105.552,61.627,105.552,61.617z"/>
<g>
	<path fill="#FFFFFF" d="M140.545,138.162h99.076v33.299h-67.11l-3.586,22.54c4.645-2.185,9.238-3.824,13.781-4.918
		c4.541-1.092,9.032-1.639,13.473-1.639c15.026,0,27.218,4.543,36.577,13.627c9.357,9.085,14.037,20.526,14.037,34.323
		c0,9.7-2.408,19.023-7.224,27.97c-4.815,8.949-11.646,15.779-20.492,20.492c-8.846,4.713-20.167,7.07-33.964,7.07
		c-9.905,0-18.391-0.939-25.461-2.817c-7.069-1.878-13.08-4.678-18.032-8.402c-4.954-3.722-8.965-7.941-12.039-12.653
		c-3.073-4.713-5.635-10.587-7.684-17.623l42.212-4.61c1.024,6.762,3.415,11.902,7.172,15.419c3.756,3.519,8.23,5.276,13.422,5.276
		c5.804,0,10.604-2.202,14.395-6.608c3.792-4.406,5.687-10.979,5.687-19.723c0-8.947-1.913-15.504-5.737-19.671
		c-3.826-4.166-8.914-6.25-15.266-6.25c-4.031,0-7.924,0.991-11.68,2.971c-2.802,1.435-5.875,4.031-9.221,7.787l-35.553-5.123
		L140.545,138.162z"/>
	<path fill="#FFFFFF" d="M303.059,158.788h44.569v41.803h-44.569V158.788z M303.059,225.794h44.569v41.803h-44.569V225.794z"/>
	<path fill="#FFFFFF" d="M444.672,181.604l-39.445-7.07c3.278-12.566,9.579-22.198,18.903-28.893
		c9.323-6.693,22.522-10.041,39.6-10.041c19.603,0,33.775,3.655,42.52,10.963c8.742,7.31,13.114,16.496,13.114,27.561
		c0,6.49-1.777,12.364-5.328,17.623c-3.552,5.26-8.914,9.871-16.085,13.832c5.805,1.434,10.246,3.109,13.319,5.021
		c4.985,3.073,8.862,7.121,11.629,12.141c2.766,5.021,4.15,11.015,4.15,17.982c0,8.744-2.29,17.127-6.865,25.152
		c-4.577,8.028-11.167,14.208-19.774,18.545c-8.606,4.337-19.912,6.506-33.914,6.506c-13.662,0-24.436-1.606-32.325-4.815
		c-7.889-3.21-14.379-7.905-19.466-14.088c-5.09-6.181-9-13.95-11.732-23.309l41.7-5.533c1.64,8.401,4.184,14.226,7.633,17.469
		c3.448,3.245,7.838,4.866,13.166,4.866c5.6,0,10.262-2.048,13.986-6.146c3.722-4.099,5.584-9.562,5.584-16.394
		c0-6.967-1.793-12.362-5.379-16.188c-3.586-3.824-8.452-5.737-14.6-5.737c-3.279,0-7.787,0.82-13.524,2.459l2.151-29.815
		c2.321,0.342,4.132,0.512,5.431,0.512c5.464,0,10.022-1.742,13.678-5.225c3.653-3.484,5.481-7.615,5.481-12.397
		c0-4.575-1.367-8.23-4.098-10.963c-2.733-2.731-6.49-4.099-11.271-4.099c-4.918,0-8.914,1.486-11.987,4.457
		C447.849,168.951,445.765,174.161,444.672,181.604z"/>
</g>
<path fill-rule="evenodd" clip-rule="evenodd" fill="#FFFFFF" d="M323.294,423.891c-91.178,0-182.357-0.003-273.536,0.004
	c-5.624,0-11.178-0.096-16.686-1.721c-19.181-5.658-32.171-22.008-33.008-41.934c-0.104-2.494-0.042-4.995-0.042-7.493
	C0.021,265.645,0.021,158.541,0.024,51.437c0-2.81-0.083-5.626,0.061-8.43C1.298,19.495,20.32,0.838,43.86,0.036
	c1.56-0.053,3.123-0.019,4.684-0.019c182.67,0,365.339,0.003,548.009-0.018c5.643-0.001,11.184,0.261,16.65,1.98
	c18.906,5.945,31.717,22.779,32.227,42.623c0.033,1.249,0.01,2.498,0.01,3.747c0,108.977-0.002,217.954,0.007,326.931
	c0,5.319-0.225,10.547-1.802,15.735c-5.915,19.462-22.749,32.415-43.069,32.861c-2.497,0.055-4.996,0.013-7.494,0.013
	C503.153,423.891,413.224,423.891,323.294,423.891z M591.104,378.51c10.587-0.001,9.725,1.054,9.725-9.334
	c0.006-104.598,0.008-209.197-0.004-313.795c-0.001-11.152,1.048-9.916-10.052-9.99c-0.625-0.004-1.25,0-1.874,0
	c-177.037,0-354.074-0.012-531.111,0.023c-13.181,0.002-11.55-1.74-11.554,11.232c-0.036,103.662-0.035,207.324-0.001,310.986
	c0.004,12.559-1.55,10.858,10.951,10.864c88.674,0.043,177.35,0.023,266.023,0.023C412.507,378.519,501.806,378.526,591.104,378.51z
	"/>
<g>
</g>
<g>
</g>
<g>
</g>
<g>
</g>
<g>
</g>
<g>
</g>
</svg>
