<?xml version="1.0" encoding="utf-8"?>
<!-- Generator: Adobe Illustrator 16.0.0, SVG Export Plug-In . SVG Version: 6.00 Build 0)  -->
<!DOCTYPE svg PUBLIC "-//W3C//DTD SVG 1.1//EN" "http://www.w3.org/Graphics/SVG/1.1/DTD/svg11.dtd">
<svg version="1.1" id="Layer_1" xmlns="http://www.w3.org/2000/svg" xmlns:xlink="http://www.w3.org/1999/xlink" x="0px" y="0px"
	 width="531.015px" height="490.751px" viewBox="0 0 531.015 490.751" enable-background="new 0 0 531.015 490.751"
	 xml:space="preserve">
<path fill="#FFFFFF" d="M267.705,490.75c-36.156,0-72.312,0.008-108.468-0.016c-3.111-0.002-6.265,0.1-9.328-0.369
	c-6.793-1.041-11.761-6.848-12.45-14.088c-0.647-6.812,3.695-13.701,10.256-15.945c2.048-0.701,4.248-1.023,6.403-1.232
	c2.164-0.209,4.36-0.066,6.542-0.066c72.311-0.002,144.624,0,216.936,0c4.047,0,8.097-0.201,12.026,1.248
	c9.729,3.584,13.278,15.543,7.125,24.215c-2.353,3.312-5.463,5.465-9.371,5.891c-3.09,0.338-6.221,0.348-9.333,0.35
	C341.264,490.758,304.483,490.75,267.705,490.75z"/>
<path opacity="0.6" fill="#010101" enable-background="new    " d="M264.904,49.642c69.185,0,138.369,0,207.555,0.001
	c2.492,0,4.988-0.063,7.479,0.029c3.632,0.134,4.103,0.683,4.223,4.774c0.067,2.311,0.02,4.625,0.02,6.938
	c0.001,105.738,0.001,211.477,0,317.216c0,1.98-0.02,3.965,0.001,5.947c0.041,3.912,0.007,5.646-5.549,5.496
	c-2.181-0.059-4.363-0.006-6.544-0.006c-137.747,0-275.495,0.017-413.241-0.024c-14.105-0.005-12.024,1.8-12.031-12.33
	c-0.058-105.739-0.046-211.478-0.012-317.216c0.003-12.5-1.529-10.793,10.546-10.802C126.534,49.616,195.719,49.642,264.904,49.642z
	"/>
<path fill="#FFFFFF" d="M420.228,375.836c-11.208,0-22.417,0.056-33.625-0.035c-3.098-0.024-6.269-0.11-9.268-0.818
	c-4.649-1.1-7.732-5.253-7.931-9.812c-0.196-4.512,2.671-8.568,7.255-10.387c3.303-1.31,6.738-1.115,10.154-1.119
	c17.436-0.019,34.872-0.008,52.306-0.011c2.181,0,4.362,0.062,6.539-0.036c3.51-0.158,4.232-0.845,4.25-4.832
	c0.072-17.496,0.036-34.992,0.055-52.488c0.003-2.971-0.089-5.957,0.17-8.906c0.198-2.271,0.566-4.639,1.406-6.713
	c1.587-3.918,4.524-6.248,8.663-6.461c3.998-0.205,7.766,2.527,9.417,6.799c1.326,3.432,1.398,7.076,1.398,10.719
	c0,11.555,0.008,23.109,0.008,34.662c0,9.244,0.063,18.488-0.047,27.73c-0.042,3.617-0.189,7.287-0.806,10.83
	c-1.106,6.363-4.605,9.69-10.731,10.543c-2.457,0.342-4.97,0.313-7.456,0.321C441.399,375.854,430.813,375.834,420.228,375.836z"/>
<path fill="#FFFFFF" d="M107.595,67.818c10.276,0.001,20.553-0.002,30.829,0.003c3.119,0.002,6.229,0.057,9.185,1.357
	c4.186,1.84,6.614,5.438,6.594,9.836c-0.02,4.333-2.559,8.145-6.678,9.811c-3.272,1.323-6.735,1.16-10.157,1.163
	c-14.636,0.016-29.271,0.006-43.906,0.007c-1.868,0-3.738-0.038-5.605,0.011c-5.5,0.144-5.989,0.588-6.101,6.054
	c-0.087,4.29-0.022,8.584-0.022,12.876c-0.002,12.876,0.058,25.754-0.046,38.63c-0.026,3.276-0.222,6.64-0.959,9.802
	c-1.186,5.081-4.944,8.055-9.39,8.127c-4.463,0.072-8.291-2.817-9.594-7.83c-0.733-2.822-1.022-5.854-1.033-8.794
	c-0.085-21.131,0.08-42.263-0.102-63.393c-0.094-10.974,3.594-18.15,17.095-17.722C87.659,68.071,97.631,67.816,107.595,67.818z"/>
<g>
	<path fill="#FFFFFF" d="M250.012,188.947h34.691v32.537h-34.691V188.947z M250.012,241.102h34.691v32.536h-34.691V241.102z"/>
	
		<image display="none" overflow="visible" width="454" height="793" xlink:href="C3FC0C74BFC928C6.png"  transform="matrix(0.24 0 0 0.24 117.7314 150.2158)">
	</image>
	<path fill="#FFFFFF" d="M379.192,268.749h-59.174v-26.715l59.174-70.337h28.311v71.854h14.674v25.198h-14.674V290.6h-28.311
		V268.749z M379.192,243.55v-36.794l-31.268,36.794H379.192z"/>
</g>
<path fill="#FFFFFF" d="M265.788,0.062c71.689,0,143.379,0.05,215.069-0.062c8.916-0.014,17.384,1.415,25.198,6.02
	c16.126,9.504,23.814,24.503,24.92,43.676c0.077,1.317,0.02,2.644,0.02,3.965c0,110.713-0.008,221.425,0.017,332.136
	c0.002,9.045-1.204,17.814-5.129,25.92c-8.978,18.549-23.918,27.059-43.046,28.291c-2.485,0.16-4.985,0.037-7.48,0.037
	c-140.262,0.002-280.523-0.004-420.784,0.021c-5.308,0-10.565-0.232-15.81-1.252c-22.026-4.281-38.117-24.131-38.733-47.941
	c-0.042-1.651-0.013-3.306-0.013-4.957C0.015,275.202,0.021,164.491,0,53.778c-0.001-5.965,0.23-11.837,1.806-17.653
	C7.418,15.411,24.79,0.85,45.111,0.09c2.802-0.104,5.61-0.027,8.416-0.027C124.28,0.062,195.034,0.062,265.788,0.062z
	 M57.526,49.979c-12.074,0.008-10.542-1.698-10.546,10.801c-0.034,105.739-0.045,211.478,0.012,317.216
	c0.007,14.131-2.073,12.326,12.031,12.33c137.747,0.041,275.493,0.025,413.241,0.025c2.181,0,4.364-0.053,6.543,0.006
	c5.557,0.15,5.59-1.585,5.55-5.496c-0.021-1.982-0.001-3.967-0.001-5.947c0.001-105.74,0.001-211.479,0-317.216
	c0-2.313,0.048-4.629-0.02-6.939c-0.12-4.092-0.591-4.64-4.224-4.773c-2.49-0.093-4.985-0.029-7.479-0.029
	c-69.185-0.002-138.369-0.002-207.554-0.002C195.896,49.953,126.711,49.928,57.526,49.979z"/>
<path fill="#FFFFFF" d="M133.805,168.195h80.741v27.136h-54.69l-2.922,18.369c3.785-1.781,7.528-3.117,11.23-4.008
	c3.701-0.89,7.36-1.336,10.979-1.336c12.245,0,22.182,3.703,29.809,11.105c7.625,7.404,11.438,16.728,11.438,27.971
	c0,7.905-1.962,15.504-5.887,22.795c-3.924,7.293-9.491,12.858-16.699,16.699c-7.209,3.841-16.436,5.762-27.679,5.762
	c-8.072,0-14.987-0.766-20.749-2.297c-5.761-1.53-10.66-3.812-14.695-6.847c-4.036-3.033-7.306-6.471-9.811-10.312
	s-4.592-8.627-6.262-14.361l34.4-3.758c0.835,5.512,2.783,9.7,5.845,12.566c3.061,2.867,6.707,4.301,10.938,4.301
	c4.73,0,8.642-1.796,11.731-5.386c3.089-3.591,4.634-8.947,4.634-16.073c0-7.292-1.559-12.635-4.676-16.031
	c-3.118-3.395-7.264-5.093-12.441-5.093c-3.285,0-6.458,0.808-9.519,2.421c-2.283,1.169-4.788,3.285-7.515,6.346l-28.973-4.175
	L133.805,168.195z"/>
</svg>
