<svg enable-background="new 0 0 531.015 490.751" height="490.751" viewBox="0 0 531.015 490.751" width="531.015" xmlns="http://www.w3.org/2000/svg"><path d="m267.705 490.75c-36.156 0-72.312.008-108.468-.016-3.111-.002-6.265.1-9.328-.369-6.793-1.041-11.761-6.848-12.45-14.088-.647-6.812 3.695-13.701 10.256-15.945 2.048-.701 4.248-1.023 6.403-1.232 2.164-.209 4.36-.066 6.542-.066 72.311-.002 144.624 0 216.936 0 4.047 0 8.097-.201 12.026 1.248 9.729 3.584 13.278 15.543 7.125 24.215-2.353 3.312-5.463 5.465-9.371 5.891-3.09.338-6.221.348-9.333.35-36.779.02-73.56.012-110.338.012z" fill="#fff"/><path d="m264.904 49.642c69.185 0 138.369 0 207.555.001 2.492 0 4.988-.063 7.479.029 3.632.134 4.103.683 4.223 4.774.067 2.311.02 4.625.02 6.938.001 105.738.001 211.477 0 317.216 0 1.98-.02 3.965.001 5.947.041 3.912.007 5.646-5.549 5.496-2.181-.059-4.363-.006-6.544-.006-137.747 0-275.495.017-413.241-.024-14.105-.005-12.024 1.8-12.031-12.33-.058-105.739-.046-211.478-.012-317.216.003-12.5-1.529-10.793 10.546-10.802 69.183-.049 138.368-.023 207.553-.023z" fill="#010101" opacity=".6"/><g fill="#fff"><path d="m420.228 375.836c-11.208 0-22.417.056-33.625-.035-3.098-.024-6.269-.11-9.268-.818-4.649-1.1-7.732-5.253-7.931-9.812-.196-4.512 2.671-8.568 7.255-10.387 3.303-1.31 6.738-1.115 10.154-1.119 17.436-.019 34.872-.008 52.306-.011 2.181 0 4.362.062 6.539-.036 3.51-.158 4.232-.845 4.25-4.832.072-17.496.036-34.992.055-52.488.003-2.971-.089-5.957.17-8.906.198-2.271.566-4.639 1.406-6.713 1.587-3.918 4.524-6.248 8.663-6.461 3.998-.205 7.766 2.527 9.417 6.799 1.326 3.432 1.398 7.076 1.398 10.719 0 11.555.008 23.109.008 34.662 0 9.244.063 18.488-.047 27.73-.042 3.617-.189 7.287-.806 10.83-1.106 6.363-4.605 9.69-10.731 10.543-2.457.342-4.97.313-7.456.321-10.586.032-21.172.012-31.757.014z"/><path d="m107.595 67.818c10.276.001 20.553-.002 30.829.003 3.119.002 6.229.057 9.185 1.357 4.186 1.84 6.614 5.438 6.594 9.836-.02 4.333-2.559 8.145-6.678 9.811-3.272 1.323-6.735 1.16-10.157 1.163-14.636.016-29.271.006-43.906.007-1.868 0-3.738-.038-5.605.011-5.5.144-5.989.588-6.101 6.054-.087 4.29-.022 8.584-.022 12.876-.002 12.876.058 25.754-.046 38.63-.026 3.276-.222 6.64-.959 9.802-1.186 5.081-4.944 8.055-9.39 8.127-4.463.072-8.291-2.817-9.594-7.83-.733-2.822-1.022-5.854-1.033-8.794-.085-21.131.08-42.263-.102-63.393-.094-10.974 3.594-18.15 17.095-17.722 9.954.315 19.926.06 29.89.062z"/><path d="m250.012 188.947h34.691v32.537h-34.691zm0 52.155h34.691v32.536h-34.691z"/><path d="m379.192 268.749h-59.174v-26.715l59.174-70.337h28.311v71.854h14.674v25.198h-14.674v21.851h-28.311zm0-25.199v-36.794l-31.268 36.794z"/><path d="m265.788.062c71.689 0 143.379.05 215.069-.062 8.916-.014 17.384 1.415 25.198 6.02 16.126 9.504 23.814 24.503 24.92 43.676.077 1.317.02 2.644.02 3.965 0 110.713-.008 221.425.017 332.136.002 9.045-1.204 17.814-5.129 25.92-8.978 18.549-23.918 27.059-43.046 28.291-2.485.16-4.985.037-7.48.037-140.262.002-280.523-.004-420.784.021-5.308 0-10.565-.232-15.81-1.252-22.026-4.281-38.117-24.131-38.733-47.941-.042-1.651-.013-3.306-.013-4.957-.002-110.714.004-221.425-.017-332.138-.001-5.965.23-11.837 1.806-17.653 5.612-20.714 22.984-35.275 43.305-36.035 2.802-.104 5.61-.027 8.416-.027 70.753-.001 141.507-.001 212.261-.001zm-208.262 49.917c-12.074.008-10.542-1.698-10.546 10.801-.034 105.739-.045 211.478.012 317.216.007 14.131-2.073 12.326 12.031 12.33 137.747.041 275.493.025 413.241.025 2.181 0 4.364-.053 6.543.006 5.557.15 5.59-1.585 5.55-5.496-.021-1.982-.001-3.967-.001-5.947.001-105.74.001-211.479 0-317.216 0-2.313.048-4.629-.02-6.939-.12-4.092-.591-4.64-4.224-4.773-2.49-.093-4.985-.029-7.479-.029-69.185-.002-138.369-.002-207.554-.002-69.183-.002-138.368-.027-207.553.024z"/><path d="m133.805 168.195h80.741v27.136h-54.69l-2.922 18.369c3.785-1.781 7.528-3.117 11.23-4.008 3.701-.89 7.36-1.336 10.979-1.336 12.245 0 22.182 3.703 29.809 11.105 7.625 7.404 11.438 16.728 11.438 27.971 0 7.905-1.962 15.504-5.887 22.795-3.924 7.293-9.491 12.858-16.699 16.699-7.209 3.841-16.436 5.762-27.679 5.762-8.072 0-14.987-.766-20.749-2.297-5.761-1.53-10.66-3.812-14.695-6.847-4.036-3.033-7.306-6.471-9.811-10.312s-4.592-8.627-6.262-14.361l34.4-3.758c.835 5.512 2.783 9.7 5.845 12.566 3.061 2.867 6.707 4.301 10.938 4.301 4.73 0 8.642-1.796 11.731-5.386 3.089-3.591 4.634-8.947 4.634-16.073 0-7.292-1.559-12.635-4.676-16.031-3.118-3.395-7.264-5.093-12.441-5.093-3.285 0-6.458.808-9.519 2.421-2.283 1.169-4.788 3.285-7.515 6.346l-28.973-4.175z"/></g></svg>