<svg enable-background="new -1070.763 -97.47 548.843 495.129" height="495.129" viewBox="-1070.763 -97.47 548.843 495.129" width="548.843" xmlns="http://www.w3.org/2000/svg"><path d="m-1070.763 225.349c1.178-.462.851-1.619 1.066-2.473 5.084-20.153 17.598-33.506 37.095-40.361 4.723-1.661 9.763-1.66 14.718-1.795 9.388-.255 18.776-.342 28.153-1.035 14.331-1.062 23.942-8.213 28.856-21.702 1.635-4.487 3.256-8.978 4.888-13.465 6.636-18.254 20.468-27.376 38.944-30.295 13.124-2.073 26.159-.417 39.092 1.959 2.627.482 3.911.087 5.158-2.517 8.181-17.08 16.496-34.096 24.947-51.044 7.647-15.336 23.506-24.331 40.551-22.724 7.114.67 14.131 2.381 21.187 3.658 5.919 1.072 11.829 2.201 17.738 3.303.292.972-.603.997-1.041 1.252-7.035 4.107-11.841 10.044-14.427 17.73-7.734 22.977-15.466 45.954-23.09 68.966-3.727 11.25 2.256 21.874 13.805 24.355 39.459 8.475 78.932 16.889 118.426 25.193 13.256 2.788 24.054-5.426 25.586-19.077 2.922-26.054 5.83-52.108 8.772-78.16.648-5.747-.624-11.069-3.37-16.165 1.024-.326 1.767.225 2.537.529 16.717 6.624 27.268 23.303 25.769 41.216-2.201 26.307-4.6 52.597-6.917 78.893-.715 8.12-1.469 16.233-2.141 24.355-2.285 27.624-25.863 45.218-52.976 39.585-58.927-12.242-117.847-24.522-176.811-36.591-13.096-2.681-24.414-8.02-32.3-19.09-10.486-14.723-12.263-30.595-5.167-47.285 1.759-4.137 3.99-8.074 6.003-12.104.163 1.17.325 2.34.487 3.509-1.602 9.55 1.85 17.854 9.859 23.478 11.198 7.859 23.525 8.555 36.156 4.474 10.092-3.259 19.891-14.446 17.762-26.395.036-.529.056-1.06.109-1.587.718-7.194-.718-13.662-5.932-19.067-11.755-12.184-35.036-13.924-48.298-3.446-2.067 1.632-3.874 3.593-5.801 5.402-11.637-2.141-23.336-3.599-35.114-1.471-14.316 2.586-24.669 10.089-29.471 24.381-2.476 7.371-4.694 14.892-8.882 21.558-7.059 11.238-17.34 17.346-30.433 18.997-11.112 1.401-22.305 1.573-33.441 1.38-19.109-.332-38.889 17.001-40.68 38.668-.495 5.986 1.414 11.167 5.567 15.506 5.709 5.964 12.978 9.174 20.74 11.277 7.085 1.92 14.313 3.309 21.416 5.172 2.207.578 2.678-.178 3.06-2.037 3.174-15.432 6.429-30.848 9.625-46.276 1.641-7.924 6.864-11.339 14.761-9.582 3.283.731 6.588 1.371 9.858 2.154 16.512 3.949 22.527 21.739 11.805 34.848-.166.204-.281.449-.488.786 5.252 3.585 8.853 8.32 9.983 14.713 2.475 14-10.179 26.728-24.131 24.092-20.359-3.845-40.513-8.652-60.574-13.786-9.252-2.367-17.658-6.826-24.374-13.935-3.652-3.865-6.297-8.298-7.66-13.472-.162-.615.001-1.499-.962-1.69.002-4.254.002-8.508.002-12.762zm419.81-45.367c-6.474 9.087-14.835 11.735-25.333 9.33-12.163-2.788-24.441-5.069-36.668-7.576-26.883-5.514-53.787-10.929-80.635-16.602-9.215-1.947-14.751-7.946-16.654-17.221-.11-.54.041-1.258-.768-1.45-3.552 12.482 3.455 24.165 16.067 26.782 4.767.989 9.544 1.93 14.314 2.901 35.043 7.137 70.077 14.315 105.133 21.391 11 2.22 21.228-3.849 24.472-14.221.307-.986.742-1.958.072-3.334zm-144.249 37.132c.514.263 1 .633 1.544.773 10.792 2.77 21.576 5.572 32.391 8.248 26.798 6.629 53.647 13.093 80.82 17.972 12.205 2.192 23.961.077 34.333-7.52 10.311-7.551 15.394-22.204 14.287-32.442-.428 1.39-.779 2.556-1.146 3.718-.373 1.182-.722 2.373-1.146 3.535-5.463 14.963-15.652 24.055-31.857 25.826-7.9.864-15.498-.72-23.144-2.278-30.007-6.114-60.106-11.722-90.374-16.408-5.17-.802-10.352-1.506-15.708-1.424zm-168.641 43.233c.012-4.522-2.842-8.544-7.287-9.584-7.138-1.672-14.344-3.057-21.516-4.589-1.127-.241-1.782-.122-2.042 1.232-1.069 5.553-2.19 11.097-3.422 16.616-.286 1.281.189 1.513 1.208 1.719 7.187 1.454 14.342 3.088 21.559 4.374 6.175 1.097 11.483-3.573 11.5-9.768zm-15.594-22.679c5.733.146 9.973-3.3 10.837-8.255.938-5.376-1.774-10.148-6.874-11.614-3.564-1.023-7.235-1.672-10.851-2.52-1.133-.266-1.762-.122-2.029 1.239-1.125 5.729-2.368 11.435-3.572 17.148-.176.836-.299 1.56.897 1.755 4.102.669 8.091 1.939 11.592 2.247z" fill="#fff"/><path d="m-697.954-97.469c1.862 1.075 4.017.966 6.022 1.452 23.685 5.733 41.105 26.625 42.35 50.891 1.309 25.54-13.587 48.385-36.978 56.52-2 .696-2.878 1.631-3.247 3.738-2.397 13.69-4.917 27.359-7.486 41.019-.388 2.059.054 3.229 1.833 4.556 7.699 5.742 12.079 13.184 10.227 23.135-1.165 6.258-5.015 10.856-10.162 14.38-13.156 9.005-32.76 7.247-44.179-3.913-10.287-10.053-9.661-23.196 1.545-32.214.826-.665 1.631-1.525 2.592-1.823 4.836-1.497 5.167-5.004 5.123-9.39-.131-13.113.121-26.232.387-39.345.053-2.573-.695-3.945-2.94-5.423-18.896-12.438-27.958-30.239-25.944-52.646 2.033-22.628 14.215-38.579 35.344-47.403 2.863-1.196 5.871-1.944 8.911-2.573.773-.16 1.852.171 2.243-.961z" fill="#fff"/><path d="m-521.92 338.627c-1.119.375-.854 1.44-1.024 2.221-1.644 7.518-3.185 15.059-4.856 22.571-1.229 5.522-5.971 9.115-11.341 8.857-1.407-.067-1.999-.253-1.611-1.973 1.516-6.73 2.785-13.517 4.269-20.255.37-1.677.046-2.286-1.7-2.637-11.446-2.307-22.878-4.695-34.292-7.158-1.875-.405-2.245.457-2.537 1.924-1.295 6.507-2.75 12.985-3.915 19.514-.45 2.524-1.502 2.383-3.287 1.487-4.39-2.205-7.021-7.018-6.054-11.925 1.83-9.288 3.605-18.598 5.892-27.777 2.394-9.612 7.364-17.784 15.431-23.823 14.098-10.554 32.12-6.547 40.464 8.974 1.814 3.374 3.09 6.94 3.923 10.671.083.372.227.652.638.714zm-10.939-9.419c.045-6.016-1.341-11.476-4.067-16.016-5.207-8.668-13.922-10.613-22.232-4.861-6.495 4.493-10.129 10.936-12.316 18.374-.54 1.833-.044 2.402 1.716 2.752 9.809 1.957 19.588 4.064 29.402 5.994 2.21.436 4.959 2.331 6.565.701 1.487-1.509.83-4.556.932-6.944z" fill="#fff"/><path d="m-624.562 397.659c-.468-.818-1.388-.673-2.096-.921-8.002-2.814-12.644-10.688-11.202-19.089 1.365-7.957 8.511-13.938 16.675-13.957 8.31-.019 15.582 6.227 16.806 14.437 1.228 8.234-3.57 16.011-11.481 18.704-.602.207-1.493-.078-1.787.826-2.306 0-4.611 0-6.915 0zm15.479-16.788c.085-6.749-5.232-12.238-11.948-12.335-6.636-.097-12.156 5.378-12.2 12.099-.043 6.613 5.211 12.031 11.818 12.186 6.666.157 12.245-5.251 12.33-11.95z" fill="#fff"/><path d="m-671.537 91.644c-.14 1.921-.281 3.842-.421 5.76-.353.183-.438.385-.039.618-.386 6.273-.495 12.578-1.224 18.81-1.092 9.333-6.005 16.499-13.68 21.784-18.664 12.851-48.389 11.301-65.565-3.491-8.415-7.247-12.846-16.186-11.641-27.641.794-7.547 1.008-15.156 1.481-22.75.292.045.554.042.565.094 2.583 11.926 10.082 20.063 20.717 25.044 19.535 9.149 38.868 8.982 57.312-3.189 5.538-3.654 9.334-8.858 11.738-15.049.252.005.505.008.757.01z" fill="#fff"/><path d="m-835.713 281.223c.006-21.422 17.3-38.832 38.589-38.843 21.554-.011 39.062 17.374 39.025 38.75-.037 21.285-17.515 38.737-38.819 38.763-21.385.026-38.8-17.333-38.795-38.67zm38.756-27.784c-15.377.019-27.598 12.316-27.586 27.758.012 15.322 12.402 27.648 27.757 27.617 15.281-.033 27.605-12.449 27.601-27.808-.003-15.341-12.339-27.585-27.772-27.567z" fill="#fff"/><path d="m-879.771 251.773c.016 10.787-2.528 18.514-4.01 26.415-.701 3.739-1.499 7.466-2.442 11.15-1.208 4.717-5.51 8.032-10.22 8.305-2.232.129-2.979-.441-2.432-2.818 1.487-6.468 2.723-12.993 4.144-19.477.349-1.59.1-2.313-1.667-2.667-11.455-2.292-22.893-4.665-34.317-7.101-1.568-.334-2.117-.126-2.439 1.566-1.271 6.694-2.809 13.339-4.081 20.034-.372 1.96-1.01 2.288-2.771 1.5-4.327-1.936-7.47-6.881-6.588-11.383 1.939-9.9 3.771-19.843 6.308-29.597 2.644-10.164 8.28-18.581 17.323-24.308 13.241-8.387 29.522-4.364 37.49 9.179 3.958 6.729 5.713 14.054 5.702 19.202zm-11.352 1.816c-.125-5.566-1.446-11.455-5.126-16.622-4.901-6.878-12.241-8.56-19.581-4.351-7.612 4.364-11.605 11.389-14.013 19.551-.517 1.751-.042 2.189 1.679 2.531 9.806 1.951 19.58 4.064 29.369 6.103 7.672 1.596 7.674 1.583 7.672-7.212z" fill="#fff"/><path d="m-614.077 330.532c-.103 1.164.621 1.771 1.074 2.48 4.709 7.389 9.377 14.807 14.199 22.122 1.156 1.754.716 2.304-1.018 2.933-5.101 1.849-10.204.054-13.523-4.99-5.255-7.987-10.459-16.006-15.689-24.008-.524-.801-1.081-1.58-1.966-2.868-1.122 5.335-2.101 10.147-3.153 14.943-1.093 4.98-4.473 8.175-9.333 8.929-3.351.521-3.75.097-3.072-3.139 3.265-15.591 6.429-31.205 9.804-46.771 2.692-12.414 15.257-21.179 27.319-19.306 13.632 2.116 23.161 13.706 22.021 26.786-1.158 13.287-12.024 23.082-25.399 22.89-.412-.006-.826-.001-1.264-.001zm15.592-24.778c.01-7.715-6.271-13.923-14.096-13.935-7.73-.011-13.982 6.301-13.95 14.085.032 7.591 6.27 13.728 13.994 13.766 7.875.039 14.042-6.068 14.052-13.916z" fill="#fff"/><path d="m-885.223 143.969c-.163-1.169-.324-2.338-.487-3.509 0 0-.002.026-.002.021.192-.223.499-.412.191-.757-.107-4.779 1.838-8.899 4.153-12.899 1.928-1.807 3.734-3.768 5.802-5.4 13.262-10.478 36.543-8.738 48.298 3.446 5.214 5.404 6.65 11.872 5.932 19.068-.053.527-.073 1.058-.109 1.588-.745.075-1.019.655-1.243 1.232-2.234 5.751-6.635 9.437-11.836 12.306-7.018 3.872-14.597 5.083-22.531 4.617-8.061-.474-15.01-3.5-21.133-8.706-3.502-2.978-5.218-7.002-7.035-11.007zm33.875 8.72c1.459-.144 2.455-.128 3.39-.356 3.339-.814 6.173-2.391 7.24-5.917 1.015-3.357-.184-6.142-2.871-8.21-1.385-1.066-.333-1.497.25-2.177 3.863-4.505 2.589-10.542-2.822-12.611-2.374-.908-4.932-1.447-7.456-1.82-2.794-.413-5.049.739-6.373 3.323-3.148 6.143-6.286 12.29-9.361 18.47-1.203 2.415-.561 4.53 1.993 5.38 5.364 1.785 10.867 3.107 16.01 3.918z" fill="#be1718"/><g fill="#fff"><path d="m-649.206 285.568c-4.176-.866-9.454-1.961-14.731-3.057-2.166-.449-4.34-.862-6.493-1.363-1.102-.257-1.606.073-1.829 1.188-.936 4.686-1.894 9.366-2.926 14.03-.274 1.241.014 1.708 1.289 1.942 3.218.589 6.424 1.262 9.603 2.033 5.164 1.254 8.566 5.79 8.404 10.847-.053 1.639-.466 2.148-2.206 1.755-5.867-1.327-11.787-2.417-17.648-3.766-1.578-.364-2.168-.179-2.488 1.484-1.186 6.167-2.425 12.326-3.839 18.443-.451 1.951.187 2.364 1.917 2.704 6.597 1.294 13.184 2.657 19.732 4.183 5.237 1.22 8.637 6.054 8.277 11.188-.09 1.275-.375 1.643-1.735 1.348-10.289-2.229-20.617-4.278-30.889-6.583-6.539-1.466-9.702-6.869-8.27-13.77 3.217-15.504 6.519-30.99 9.739-46.494.744-3.581 1.354-7.162 4.574-9.551 2.537-1.882 5.335-2.883 8.466-2.25 10.575 2.144 21.129 4.392 31.699 6.558 1.288.264 1.229.808.886 1.857-1.377 4.214-5.72 7.31-11.532 7.274z"/><path d="m-711.561 261.718c8.302.796 17.013 3.259 25.867 4.962 1.878.361 1.128 1.428.794 2.337-1.721 4.684-7.08 7.562-12.302 6.601-4.697-.863-9.312-2.164-14.08-2.652-12.275-1.256-24.577 6.275-28.202 17.258-4.355 13.196 3.281 27.438 17.464 32.462 4.517 1.602 9.286 2.21 13.933 3.298 5.582 1.307 9.355 6.026 9.049 11.193-.081 1.375-.418 1.859-1.906 1.525-7.507-1.684-15.205-2.731-22.52-5.014-15.052-4.698-24.995-14.734-27.575-30.591-2.718-16.697 6.649-32.113 22.419-38.351 5.249-2.077 10.69-3.105 17.059-3.028z"/><path d="m-833.428 247.043c-2.957-.61-6.626-1.236-10.219-2.161-1.885-.485-2.375.052-2.741 1.838-3.289 16.037-6.651 32.06-10.053 48.074-1.151 5.416-5.554 8.918-10.736 8.896-1.735-.008-2.273-.453-1.875-2.299 2.741-12.715 5.38-25.455 8.055-38.186 1.31-6.235 2.577-12.479 3.97-18.696.4-1.786.011-2.496-1.881-2.781-3.058-.459-6.094-1.135-9.089-1.914-5.204-1.353-8.51-5.932-8.21-10.965.09-1.513.473-1.927 2.084-1.584 16.708 3.543 33.43 7.023 50.163 10.445 1.894.388 1.945 1.155 1.302 2.672-1.633 3.851-5.878 6.72-10.77 6.661z"/><path d="m-764.296 333.792c9.443.018 17.009 7.676 16.927 17.13-.082 9.262-7.846 16.915-17.035 16.791-9.359-.126-16.974-7.72-16.959-16.91.015-9.464 7.605-17.03 17.067-17.011zm-.023 4.824c-6.696-.01-12.158 5.455-12.155 12.16.003 6.625 5.614 12.164 12.246 12.089 6.562-.075 11.947-5.487 11.998-12.06.05-6.699-5.385-12.181-12.089-12.189z"/><path d="m-869.212 325.138c-.523 4.864-1.811 10.008-3.044 15.162-.214.895-.803 1.561-1.505 2.129-1.007.817-2.268 1.502-3.404.923-1.249-.634-.178-1.88-.034-2.815.323-2.095.719-4.19 1.27-6.234.314-1.165-.027-1.55-1.097-1.769-4.589-.939-9.17-1.913-13.75-2.898-1.143-.245-1.771-.051-1.984 1.295-.388 2.442-1.044 4.839-1.47 7.276-.299 1.722-1.029 1.813-2.292.887-1.684-1.234-2.317-2.926-1.918-4.893.896-4.416 1.777-8.842 2.923-13.195.795-3.023 2.472-5.649 4.75-7.856 7.007-6.791 16.543-4.757 20.148 4.296.929 2.335 1.25 4.773 1.407 7.692zm-5.083-.425c-.07-2.036-.301-4.021-1.172-5.917-2.342-5.098-6.863-6.204-11.155-2.659-2.026 1.673-3.289 3.866-4.23 6.281-.543 1.393-.498 2.19 1.338 2.507 3.989.69 7.929 1.655 11.894 2.481 3.307.691 3.309.674 3.325-2.693z"/><path d="m-651.301 379.622c2.146 3.298 4.174 6.383 6.16 9.493.364.568 1.155 1.187.763 1.844-.403.674-1.362.78-2.163.757-1.911-.054-3.313-.956-4.356-2.574-2.385-3.703-4.837-7.363-7.45-11.326-1.031 2.058-1.09 4.065-1.544 5.947-.53 2.197-1.781 3.603-3.999 4.108-1.286.292-1.839-.121-1.541-1.508 1.481-6.909 2.784-13.862 4.452-20.726 1.34-5.513 6.492-8.703 12.118-7.95 5.248.702 9.274 5.242 9.374 10.568.103 5.535-3.866 10.157-9.477 11.03-.674.104-1.348.194-2.337.337zm.887-17.239c-3.432-.013-6.055 2.542-6.12 5.962-.066 3.464 2.691 6.239 6.175 6.216 3.276-.021 6.08-2.86 6.05-6.124-.03-3.303-2.79-6.04-6.105-6.054z"/><path d="m-721.928 364.765c2.137 3.296 4.171 6.376 6.129 9.504.375.599 1.329 1.202.704 2.034-.496.662-1.422.635-2.228.613-1.961-.055-3.262-1.129-4.286-2.709-2.388-3.686-4.816-7.345-7.535-11.481-.515 2.438-.898 4.303-1.306 6.163-.501 2.289-1.809 3.814-4.189 4.226-1.054.184-1.687-.008-1.382-1.398 1.514-6.913 2.807-13.876 4.461-20.754 1.359-5.654 6.617-8.927 12.312-8.07 5.19.782 9.138 5.46 9.129 10.819-.01 5.572-4.053 10.114-9.684 10.868-.593.078-1.194.104-2.125.185zm.789-17.15c-3.491.051-6.163 2.868-6.032 6.362.122 3.252 3.041 5.927 6.35 5.817 3.328-.11 5.971-2.924 5.881-6.26-.091-3.345-2.837-5.968-6.199-5.919z"/><path d="m-932.252 320.678c2.318 3.567 4.324 6.78 6.468 9.897 1.1 1.601.613 2.133-1.094 2.29-2.183.199-3.729-.733-4.887-2.52-2.396-3.692-4.82-7.365-7.576-11.569-.594 2.581-1.042 4.588-1.521 6.589-.506 2.112-1.846 3.357-3.99 3.723-1.104.188-1.697-.087-1.415-1.387 1.532-7.081 2.833-14.219 4.614-21.237 1.351-5.319 6.898-8.528 12.13-7.58 5.526 1.001 9.479 5.859 9.199 11.304-.285 5.555-4.591 9.958-10.172 10.395-.429.035-.86.048-1.756.095zm-5.111-11.014c-.05 3.374 2.555 6.025 5.989 6.099 3.328.072 6.16-2.616 6.231-5.91.071-3.27-2.645-6.146-5.921-6.273-3.457-.133-6.247 2.56-6.299 6.084z"/><path d="m-858.459 347.4c-1.253-.224-3.28-.476-5.246-.968-2.966-.742-4.354-2.962-3.732-6.029 1.457-7.187 2.977-14.361 4.536-21.528.615-2.824 2.419-4.388 4.964-4.175 9.283.775 15.364 6.359 16.543 14.416 1.41 9.625-6.561 18.629-17.065 18.284zm1.018-4.855c5.917.021 10.653-4.252 11.27-10.167.621-5.955-3.155-10.952-9.268-12.315-1.628-.363-2.847-.722-3.246 1.759-.838 5.226-2.082 10.386-3.174 15.57-1.007 4.779-.816 5.026 4.152 5.152.089.002.178 0 .266.001z"/><path d="m-689.876 354.768c-2.766-.58-5.549-1.085-8.289-1.769-1.539-.383-2.387-.098-2.447 1.598-.003.089-.021.176-.04.262-1.077 4.887-1.077 4.885 3.591 6.218 1.035.296 1.998.73 2.687 1.606.853 1.082 1.67 2.437 1.01 3.638-.611 1.112-1.895-.066-2.886-.112-2.165-.101-4.72-1.99-6.27-.716-1.302 1.073-1.048 3.937-1.68 5.946-.749 2.38-.43 3.745 2.449 3.945 2.009.139 3.986.768 5.972 1.197 1.333.289 2.525.851 3.315 2.018.656.972 1.332 2.173.75 3.206-.605 1.074-1.76.143-2.636-.026-3.645-.699-7.281-1.443-10.908-2.231-3.473-.756-4.897-2.949-4.183-6.43 1.384-6.753 2.78-13.503 4.224-20.242.959-4.476 2.827-5.642 7.423-4.723 3.467.693 6.923 1.434 10.384 2.153.768.159 1.927.089 2.101.823.224.948-.61 1.784-1.366 2.42-.906.765-1.958 1.19-3.201 1.219z"/><path d="m-919.874 330.219c.92-4.491 1.928-9.43 2.946-14.368.536-2.599 1.036-5.207 1.651-7.788.801-3.362 2.851-4.724 6.262-4.087 3.999.748 7.962 1.686 11.96 2.431 1.993.372 1.774 1.265.798 2.465-1.231 1.514-2.846 2.045-4.741 1.67-2.516-.499-5.034-.998-7.533-1.572-1.359-.313-2.254-.15-2.283 1.498-.006.343-.192.679-.266 1.025-.946 4.378-.95 4.401 3.38 5.481 2.276.567 3.792 1.812 4.198 4.219.2 1.184-.179 1.686-1.427 1.402-2.157-.49-4.33-.907-6.479-1.424-1.208-.292-1.759.021-1.967 1.316-.35 2.181-.794 4.356-1.372 6.486-.378 1.396.079 1.9 1.392 2.142 2.522.465 5.019 1.063 7.536 1.555 1.187.233 2.18.759 2.918 1.692.792.998 1.565 2.322.972 3.401-.591 1.073-1.933.177-2.913-.016-3.732-.735-7.462-1.486-11.169-2.329-2.451-.556-3.76-2.172-3.863-5.199z"/><path d="m-824.99 337.912c3.49-.022 5.798-1.863 6.607-5.318.322-1.376.536-2.779.859-4.154.308-1.318.853-2.512 2.049-3.294.997-.651 2.192-1.306 3.219-.728 1.09.613.067 1.77-.069 2.64-.355 2.268-.908 4.504-1.394 6.75-1.106 5.116-4.394 8.03-9.447 8.695-2.011.265-2.691 1.09-2.903 2.868-.146 1.225-.432 2.437-.72 3.639-.367 1.526-1.149 2.774-2.623 3.478-.889.426-1.919.903-2.75.284-.762-.568.062-1.463.134-2.214.084-.875.284-1.75.528-2.597 1.017-3.517 1.699-6.506-2.52-9.008-3.139-1.86-4.032-5.684-3.318-9.482.54-2.867 1.174-5.714 1.716-8.582.259-1.369.853-1.575 1.961-.792 1.676 1.185 2.454 2.778 2.157 4.801-.205 1.397-.585 2.768-.866 4.155-1.032 5.084 2.143 8.891 7.38 8.859z"/><path d="m-665.194 359.912c.101.011-.166-.004-.426-.05-1.474-.258-3.713-1.227-4.253-.638-.998 1.094-1.061 3.082-1.408 4.72-1.137 5.367-2.22 10.745-3.339 16.115-.217 1.039-.44 2.099-1.164 2.934-1.105 1.273-2.622 2.351-4.154 1.66-1.218-.549-.104-2.086.099-3.112 1.407-7.119 2.815-14.241 4.474-21.305.491-2.091-.156-2.644-1.965-2.878-2.509-.324-4.962-.807-5.911-3.685-.698-2.117-.305-2.594 1.889-2.134 6.41 1.342 12.813 2.71 19.219 4.069.766.162 1.913.03 2.108.817.239.964-.616 1.77-1.357 2.415-.984.856-2.147 1.21-3.812 1.072z"/><path d="m-780.085 335.845c-.266-.04-.527-.085-.789-.122-4.962-.71-4.937-.705-5.929 4.119-1.124 5.46-2.325 10.906-3.436 16.369-.402 1.975-1.339 3.474-3.275 4.161-2.015.714-2.604.185-2.169-1.897 1.448-6.929 2.915-13.855 4.376-20.782.073-.346.119-.706.246-1.032.88-2.265.242-3.354-2.307-3.557-2.348-.189-4.575-.968-5.419-3.562-.523-1.61-.536-2.73 1.848-2.189 6.556 1.488 13.135 2.886 19.736 4.156 2.247.432 1.889 1.327.855 2.591-.956 1.167-2.265 1.648-3.737 1.745z"/></g><path d="m-671.537 91.644c-.252-.002-.505-.004-.757-.01.198-.916.394-1.828.67-3.114.286 1.304.333 2.21.087 3.124z" fill="#811308"/><path d="m-671.997 98.022c-.399-.233-.314-.436.039-.618.04.15.097.298.111.448.005.051-.096.112-.15.17z" fill="#811308"/><path d="m-671.029 87.147-.048-.245-.1.225z" fill="#811308"/><path d="m-885.521 139.725c.308.345 0 .534-.191.757.064-.25.128-.503.191-.757z" fill="#811308"/><path d="m-885.223 143.969c1.817 4.004 3.533 8.029 7.035 11.005 6.123 5.206 13.071 8.232 21.132 8.706 7.934.466 15.513-.745 22.531-4.617 5.202-2.869 9.603-6.554 11.836-12.306.225-.577.497-1.157 1.243-1.232 2.129 11.949-7.671 23.134-17.762 26.394-12.63 4.082-24.958 3.386-36.155-4.473-8.011-5.622-11.462-13.927-9.86-23.477z" fill="#811308"/><path d="m-851.348 152.689c-5.143-.811-10.646-2.133-16.009-3.919-2.553-.85-3.195-2.965-1.993-5.38 3.075-6.179 6.213-12.328 9.361-18.47 1.323-2.584 3.578-3.736 6.373-3.323 2.523.373 5.082.912 7.456 1.82 5.411 2.069 6.685 8.106 2.822 12.611-.583.68-1.636 1.111-.25 2.177 2.688 2.069 3.886 4.854 2.871 8.21-1.066 3.526-3.901 5.103-7.24 5.917-.936.229-1.931.212-3.391.357zm-.431-4.502c3.246.043 5.68-1.608 5.745-3.687.082-2.578-1.653-3.718-3.906-4.271-1.544-.379-3.092-.742-4.639-1.11-6.282-1.495-6.281-1.495-8.839 4.344-.071.162-.163.313-.246.469-.422.787-.314 1.318.655 1.548 3.95.94 7.894 1.9 11.23 2.707zm-.561-13.233c3.385.042 5.591-1.557 5.9-3.817.275-2.014-1.185-3.549-4.095-4.307-4.434-1.154-4.435-1.155-6.451 3.088-.377.793-.729 1.601-1.128 2.382-.432.847-.18 1.301.725 1.501 1.885.417 3.763.858 5.049 1.153z" fill="#fcf6f6"/><path d="m-851.779 148.187c-3.336-.806-7.28-1.767-11.229-2.705-.969-.231-1.076-.762-.655-1.548.083-.156.175-.308.246-.469 2.559-5.839 2.558-5.839 8.839-4.344 1.547.368 3.094.73 4.639 1.11 2.252.553 3.988 1.693 3.906 4.271-.067 2.076-2.5 3.727-5.746 3.685z" fill="#be1718"/><path d="m-852.34 134.954c-1.286-.294-3.164-.736-5.049-1.152-.905-.2-1.158-.654-.725-1.501.4-.782.751-1.588 1.128-2.383 2.016-4.243 2.017-4.242 6.451-3.088 2.911.758 4.371 2.293 4.095 4.307-.31 2.26-2.515 3.859-5.9 3.817z" fill="#be1718"/></svg>