<?xml version="1.0" encoding="utf-8"?>
<!-- Generator: Adobe Illustrator 16.0.0, SVG Export Plug-In . SVG Version: 6.00 Build 0)  -->
<!DOCTYPE svg PUBLIC "-//W3C//DTD SVG 1.1//EN" "http://www.w3.org/Graphics/SVG/1.1/DTD/svg11.dtd">
<svg version="1.1" id="Layer_1" xmlns="http://www.w3.org/2000/svg" xmlns:xlink="http://www.w3.org/1999/xlink" x="0px" y="0px"
	 width="548.843px" height="495.129px" viewBox="-1070.763 -97.47 548.843 495.129"
	 enable-background="new -1070.763 -97.47 548.843 495.129" xml:space="preserve">
<path fill="#FFFFFF" d="M-1070.763,225.349c1.178-0.462,0.851-1.619,1.066-2.473c5.084-20.153,17.598-33.506,37.095-40.361
	c4.723-1.661,9.763-1.66,14.718-1.795c9.388-0.255,18.776-0.342,28.153-1.035c14.331-1.062,23.942-8.213,28.856-21.702
	c1.635-4.487,3.256-8.978,4.888-13.465c6.636-18.254,20.468-27.376,38.944-30.295c13.124-2.073,26.159-0.417,39.092,1.959
	c2.627,0.482,3.911,0.087,5.158-2.517c8.181-17.08,16.496-34.096,24.947-51.044c7.647-15.336,23.506-24.331,40.551-22.724
	c7.114,0.67,14.131,2.381,21.187,3.658c5.919,1.072,11.829,2.201,17.738,3.303c0.292,0.972-0.603,0.997-1.041,1.252
	c-7.035,4.107-11.841,10.044-14.427,17.73c-7.734,22.977-15.466,45.954-23.09,68.966c-3.727,11.25,2.256,21.874,13.805,24.355
	c39.459,8.475,78.932,16.889,118.426,25.193c13.256,2.788,24.054-5.426,25.586-19.077c2.922-26.054,5.83-52.108,8.772-78.16
	c0.648-5.747-0.624-11.069-3.37-16.165c1.024-0.326,1.767,0.225,2.537,0.529c16.717,6.624,27.268,23.303,25.769,41.216
	c-2.201,26.307-4.6,52.597-6.917,78.893c-0.715,8.12-1.469,16.233-2.141,24.355c-2.285,27.624-25.863,45.218-52.976,39.585
	c-58.927-12.242-117.847-24.522-176.811-36.591c-13.096-2.681-24.414-8.02-32.3-19.09c-10.486-14.723-12.263-30.595-5.167-47.285
	c1.759-4.137,3.99-8.074,6.003-12.104c0.163,1.17,0.325,2.34,0.487,3.509c-1.602,9.55,1.85,17.854,9.859,23.478
	c11.198,7.859,23.525,8.555,36.156,4.474c10.092-3.259,19.891-14.446,17.762-26.395c0.036-0.529,0.056-1.06,0.109-1.587
	c0.718-7.194-0.718-13.662-5.932-19.067c-11.755-12.184-35.036-13.924-48.298-3.446c-2.067,1.632-3.874,3.593-5.801,5.402
	c-11.637-2.141-23.336-3.599-35.114-1.471c-14.316,2.586-24.669,10.089-29.471,24.381c-2.476,7.371-4.694,14.892-8.882,21.558
	c-7.059,11.238-17.34,17.346-30.433,18.997c-11.112,1.401-22.305,1.573-33.441,1.38c-19.109-0.332-38.889,17.001-40.68,38.668
	c-0.495,5.986,1.414,11.167,5.567,15.506c5.709,5.964,12.978,9.174,20.74,11.277c7.085,1.92,14.313,3.309,21.416,5.172
	c2.207,0.578,2.678-0.178,3.06-2.037c3.174-15.432,6.429-30.848,9.625-46.276c1.641-7.924,6.864-11.339,14.761-9.582
	c3.283,0.731,6.588,1.371,9.858,2.154c16.512,3.949,22.527,21.739,11.805,34.848c-0.166,0.204-0.281,0.449-0.488,0.786
	c5.252,3.585,8.853,8.32,9.983,14.713c2.475,14-10.179,26.728-24.131,24.092c-20.359-3.845-40.513-8.652-60.574-13.786
	c-9.252-2.367-17.658-6.826-24.374-13.935c-3.652-3.865-6.297-8.298-7.66-13.472c-0.162-0.615,0.001-1.499-0.962-1.69
	C-1070.763,233.857-1070.763,229.603-1070.763,225.349z M-650.953,179.982c-6.474,9.087-14.835,11.735-25.333,9.33
	c-12.163-2.788-24.441-5.069-36.668-7.576c-26.883-5.514-53.787-10.929-80.635-16.602c-9.215-1.947-14.751-7.946-16.654-17.221
	c-0.11-0.54,0.041-1.258-0.768-1.45c-3.552,12.482,3.455,24.165,16.067,26.782c4.767,0.989,9.544,1.93,14.314,2.901
	c35.043,7.137,70.077,14.315,105.133,21.391c11,2.22,21.228-3.849,24.472-14.221C-650.718,182.33-650.283,181.358-650.953,179.982z
	 M-795.202,217.114c0.514,0.263,1,0.633,1.544,0.773c10.792,2.77,21.576,5.572,32.391,8.248
	c26.798,6.629,53.647,13.093,80.82,17.972c12.205,2.192,23.961,0.077,34.333-7.52c10.311-7.551,15.394-22.204,14.287-32.442
	c-0.428,1.39-0.779,2.556-1.146,3.718c-0.373,1.182-0.722,2.373-1.146,3.535c-5.463,14.963-15.652,24.055-31.857,25.826
	c-7.9,0.864-15.498-0.72-23.144-2.278c-30.007-6.114-60.106-11.722-90.374-16.408C-784.664,217.736-789.846,217.032-795.202,217.114
	z M-963.843,260.347c0.012-4.522-2.842-8.544-7.287-9.584c-7.138-1.672-14.344-3.057-21.516-4.589
	c-1.127-0.241-1.782-0.122-2.042,1.232c-1.069,5.553-2.19,11.097-3.422,16.616c-0.286,1.281,0.189,1.513,1.208,1.719
	c7.187,1.454,14.342,3.088,21.559,4.374C-969.168,271.212-963.86,266.542-963.843,260.347z M-979.437,237.668
	c5.733,0.146,9.973-3.3,10.837-8.255c0.938-5.376-1.774-10.148-6.874-11.614c-3.564-1.023-7.235-1.672-10.851-2.52
	c-1.133-0.266-1.762-0.122-2.029,1.239c-1.125,5.729-2.368,11.435-3.572,17.148c-0.176,0.836-0.299,1.56,0.897,1.755
	C-986.927,236.09-982.938,237.36-979.437,237.668z"/>
<path fill="#FFFFFF" d="M-697.954-97.469c1.862,1.075,4.017,0.966,6.022,1.452c23.685,5.733,41.105,26.625,42.35,50.891
	c1.309,25.54-13.587,48.385-36.978,56.52c-2,0.696-2.878,1.631-3.247,3.738c-2.397,13.69-4.917,27.359-7.486,41.019
	c-0.388,2.059,0.054,3.229,1.833,4.556c7.699,5.742,12.079,13.184,10.227,23.135c-1.165,6.258-5.015,10.856-10.162,14.38
	c-13.156,9.005-32.76,7.247-44.179-3.913c-10.287-10.053-9.661-23.196,1.545-32.214c0.826-0.665,1.631-1.525,2.592-1.823
	c4.836-1.497,5.167-5.004,5.123-9.39c-0.131-13.113,0.121-26.232,0.387-39.345c0.053-2.573-0.695-3.945-2.94-5.423
	c-18.896-12.438-27.958-30.239-25.944-52.646c2.033-22.628,14.215-38.579,35.344-47.403c2.863-1.196,5.871-1.944,8.911-2.573
	c0.773-0.16,1.852,0.171,2.243-0.961C-707.526-97.469-702.74-97.469-697.954-97.469z"/>
<path fill="#FFFFFF" d="M-521.92,338.627c-1.119,0.375-0.854,1.44-1.024,2.221c-1.644,7.518-3.185,15.059-4.856,22.571
	c-1.229,5.522-5.971,9.115-11.341,8.857c-1.407-0.067-1.999-0.253-1.611-1.973c1.516-6.73,2.785-13.517,4.269-20.255
	c0.37-1.677,0.046-2.286-1.7-2.637c-11.446-2.307-22.878-4.695-34.292-7.158c-1.875-0.405-2.245,0.457-2.537,1.924
	c-1.295,6.507-2.75,12.985-3.915,19.514c-0.45,2.524-1.502,2.383-3.287,1.487c-4.39-2.205-7.021-7.018-6.054-11.925
	c1.83-9.288,3.605-18.598,5.892-27.777c2.394-9.612,7.364-17.784,15.431-23.823c14.098-10.554,32.12-6.547,40.464,8.974
	c1.814,3.374,3.09,6.94,3.923,10.671c0.083,0.372,0.227,0.652,0.638,0.714C-521.92,326.217-521.92,332.421-521.92,338.627z
	 M-532.859,329.208c0.045-6.016-1.341-11.476-4.067-16.016c-5.207-8.668-13.922-10.613-22.232-4.861
	c-6.495,4.493-10.129,10.936-12.316,18.374c-0.54,1.833-0.044,2.402,1.716,2.752c9.809,1.957,19.588,4.064,29.402,5.994
	c2.21,0.436,4.959,2.331,6.565,0.701C-532.304,334.643-532.961,331.596-532.859,329.208z"/>
<path fill="#FFFFFF" d="M-624.562,397.659c-0.468-0.818-1.388-0.673-2.096-0.921c-8.002-2.814-12.644-10.688-11.202-19.089
	c1.365-7.957,8.511-13.938,16.675-13.957c8.31-0.019,15.582,6.227,16.806,14.437c1.228,8.234-3.57,16.011-11.481,18.704
	c-0.602,0.207-1.493-0.078-1.787,0.826C-619.953,397.659-622.258,397.659-624.562,397.659z M-609.083,380.871
	c0.085-6.749-5.232-12.238-11.948-12.335c-6.636-0.097-12.156,5.378-12.2,12.099c-0.043,6.613,5.211,12.031,11.818,12.186
	C-614.747,392.978-609.168,387.57-609.083,380.871z"/>
<path fill="#FFFFFF" d="M-671.537,91.644c-0.14,1.921-0.281,3.842-0.421,5.76c-0.353,0.183-0.438,0.385-0.039,0.618
	c-0.386,6.273-0.495,12.578-1.224,18.81c-1.092,9.333-6.005,16.499-13.68,21.784c-18.664,12.851-48.389,11.301-65.565-3.491
	c-8.415-7.247-12.846-16.186-11.641-27.641c0.794-7.547,1.008-15.156,1.481-22.75c0.292,0.045,0.554,0.042,0.565,0.094
	c2.583,11.926,10.082,20.063,20.717,25.044c19.535,9.149,38.868,8.982,57.312-3.189c5.538-3.654,9.334-8.858,11.738-15.049
	C-672.042,91.639-671.789,91.642-671.537,91.644z"/>
<path fill="#FFFFFF" d="M-835.713,281.223c0.006-21.422,17.3-38.832,38.589-38.843c21.554-0.011,39.062,17.374,39.025,38.75
	c-0.037,21.285-17.515,38.737-38.819,38.763C-818.303,319.919-835.718,302.56-835.713,281.223z M-796.957,253.439
	c-15.377,0.019-27.598,12.316-27.586,27.758c0.012,15.322,12.402,27.648,27.757,27.617c15.281-0.033,27.605-12.449,27.601-27.808
	C-769.188,265.665-781.524,253.421-796.957,253.439z"/>
<path fill="#FFFFFF" d="M-879.771,251.773c0.016,10.787-2.528,18.514-4.01,26.415c-0.701,3.739-1.499,7.466-2.442,11.15
	c-1.208,4.717-5.51,8.032-10.22,8.305c-2.232,0.129-2.979-0.441-2.432-2.818c1.487-6.468,2.723-12.993,4.144-19.477
	c0.349-1.59,0.1-2.313-1.667-2.667c-11.455-2.292-22.893-4.665-34.317-7.101c-1.568-0.334-2.117-0.126-2.439,1.566
	c-1.271,6.694-2.809,13.339-4.081,20.034c-0.372,1.96-1.01,2.288-2.771,1.5c-4.327-1.936-7.47-6.881-6.588-11.383
	c1.939-9.9,3.771-19.843,6.308-29.597c2.644-10.164,8.28-18.581,17.323-24.308c13.241-8.387,29.522-4.364,37.49,9.179
	C-881.515,239.3-879.76,246.625-879.771,251.773z M-891.123,253.589c-0.125-5.566-1.446-11.455-5.126-16.622
	c-4.901-6.878-12.241-8.56-19.581-4.351c-7.612,4.364-11.605,11.389-14.013,19.551c-0.517,1.751-0.042,2.189,1.679,2.531
	c9.806,1.951,19.58,4.064,29.369,6.103C-891.123,262.397-891.121,262.384-891.123,253.589z"/>
<path fill="#FFFFFF" d="M-614.077,330.532c-0.103,1.164,0.621,1.771,1.074,2.48c4.709,7.389,9.377,14.807,14.199,22.122
	c1.156,1.754,0.716,2.304-1.018,2.933c-5.101,1.849-10.204,0.054-13.523-4.99c-5.255-7.987-10.459-16.006-15.689-24.008
	c-0.524-0.801-1.081-1.58-1.966-2.868c-1.122,5.335-2.101,10.147-3.153,14.943c-1.093,4.98-4.473,8.175-9.333,8.929
	c-3.351,0.521-3.75,0.097-3.072-3.139c3.265-15.591,6.429-31.205,9.804-46.771c2.692-12.414,15.257-21.179,27.319-19.306
	c13.632,2.116,23.161,13.706,22.021,26.786c-1.158,13.287-12.024,23.082-25.399,22.89
	C-613.225,330.527-613.639,330.532-614.077,330.532z M-598.485,305.754c0.01-7.715-6.271-13.923-14.096-13.935
	c-7.73-0.011-13.982,6.301-13.95,14.085c0.032,7.591,6.27,13.728,13.994,13.766C-604.662,319.709-598.495,313.602-598.485,305.754z"
	/>
<path fill="#BE1718" d="M-885.223,143.969c-0.163-1.169-0.324-2.338-0.487-3.509c0,0-0.002,0.026-0.002,0.021
	c0.192-0.223,0.499-0.412,0.191-0.757c-0.107-4.779,1.838-8.899,4.153-12.899c1.928-1.807,3.734-3.768,5.802-5.4
	c13.262-10.478,36.543-8.738,48.298,3.446c5.214,5.404,6.65,11.872,5.932,19.068c-0.053,0.527-0.073,1.058-0.109,1.588
	c-0.745,0.075-1.019,0.655-1.243,1.232c-2.234,5.751-6.635,9.437-11.836,12.306c-7.018,3.872-14.597,5.083-22.531,4.617
	c-8.061-0.474-15.01-3.5-21.133-8.706C-881.69,151.998-883.406,147.974-885.223,143.969z M-851.348,152.689
	c1.459-0.144,2.455-0.128,3.39-0.356c3.339-0.814,6.173-2.391,7.24-5.917c1.015-3.357-0.184-6.142-2.871-8.21
	c-1.385-1.066-0.333-1.497,0.25-2.177c3.863-4.505,2.589-10.542-2.822-12.611c-2.374-0.908-4.932-1.447-7.456-1.82
	c-2.794-0.413-5.049,0.739-6.373,3.323c-3.148,6.143-6.286,12.29-9.361,18.47c-1.203,2.415-0.561,4.53,1.993,5.38
	C-861.994,150.556-856.491,151.878-851.348,152.689z"/>
<path fill="#FFFFFF" d="M-649.206,285.568c-4.176-0.866-9.454-1.961-14.731-3.057c-2.166-0.449-4.34-0.862-6.493-1.363
	c-1.102-0.257-1.606,0.073-1.829,1.188c-0.936,4.686-1.894,9.366-2.926,14.03c-0.274,1.241,0.014,1.708,1.289,1.942
	c3.218,0.589,6.424,1.262,9.603,2.033c5.164,1.254,8.566,5.79,8.404,10.847c-0.053,1.639-0.466,2.148-2.206,1.755
	c-5.867-1.327-11.787-2.417-17.648-3.766c-1.578-0.364-2.168-0.179-2.488,1.484c-1.186,6.167-2.425,12.326-3.839,18.443
	c-0.451,1.951,0.187,2.364,1.917,2.704c6.597,1.294,13.184,2.657,19.732,4.183c5.237,1.22,8.637,6.054,8.277,11.188
	c-0.09,1.275-0.375,1.643-1.735,1.348c-10.289-2.229-20.617-4.278-30.889-6.583c-6.539-1.466-9.702-6.869-8.27-13.77
	c3.217-15.504,6.519-30.99,9.739-46.494c0.744-3.581,1.354-7.162,4.574-9.551c2.537-1.882,5.335-2.883,8.466-2.25
	c10.575,2.144,21.129,4.392,31.699,6.558c1.288,0.264,1.229,0.808,0.886,1.857C-639.051,282.508-643.394,285.604-649.206,285.568z"
	/>
<path fill="#FFFFFF" d="M-711.561,261.718c8.302,0.796,17.013,3.259,25.867,4.962c1.878,0.361,1.128,1.428,0.794,2.337
	c-1.721,4.684-7.08,7.562-12.302,6.601c-4.697-0.863-9.312-2.164-14.08-2.652c-12.275-1.256-24.577,6.275-28.202,17.258
	c-4.355,13.196,3.281,27.438,17.464,32.462c4.517,1.602,9.286,2.21,13.933,3.298c5.582,1.307,9.355,6.026,9.049,11.193
	c-0.081,1.375-0.418,1.859-1.906,1.525c-7.507-1.684-15.205-2.731-22.52-5.014c-15.052-4.698-24.995-14.734-27.575-30.591
	c-2.718-16.697,6.649-32.113,22.419-38.351C-723.371,262.669-717.93,261.641-711.561,261.718z"/>
<path fill="#FFFFFF" d="M-833.428,247.043c-2.957-0.61-6.626-1.236-10.219-2.161c-1.885-0.485-2.375,0.052-2.741,1.838
	c-3.289,16.037-6.651,32.06-10.053,48.074c-1.151,5.416-5.554,8.918-10.736,8.896c-1.735-0.008-2.273-0.453-1.875-2.299
	c2.741-12.715,5.38-25.455,8.055-38.186c1.31-6.235,2.577-12.479,3.97-18.696c0.4-1.786,0.011-2.496-1.881-2.781
	c-3.058-0.459-6.094-1.135-9.089-1.914c-5.204-1.353-8.51-5.932-8.21-10.965c0.09-1.513,0.473-1.927,2.084-1.584
	c16.708,3.543,33.43,7.023,50.163,10.445c1.894,0.388,1.945,1.155,1.302,2.672C-824.291,244.233-828.536,247.102-833.428,247.043z"
	/>
<path fill="#FFFFFF" d="M-764.296,333.792c9.443,0.018,17.009,7.676,16.927,17.13c-0.082,9.262-7.846,16.915-17.035,16.791
	c-9.359-0.126-16.974-7.72-16.959-16.91C-781.348,341.339-773.758,333.773-764.296,333.792z M-764.319,338.616
	c-6.696-0.01-12.158,5.455-12.155,12.16c0.003,6.625,5.614,12.164,12.246,12.089c6.562-0.075,11.947-5.487,11.998-12.06
	C-752.18,344.106-757.615,338.624-764.319,338.616z"/>
<path fill="#FFFFFF" d="M-869.212,325.138c-0.523,4.864-1.811,10.008-3.044,15.162c-0.214,0.895-0.803,1.561-1.505,2.129
	c-1.007,0.817-2.268,1.502-3.404,0.923c-1.249-0.634-0.178-1.88-0.034-2.815c0.323-2.095,0.719-4.19,1.27-6.234
	c0.314-1.165-0.027-1.55-1.097-1.769c-4.589-0.939-9.17-1.913-13.75-2.898c-1.143-0.245-1.771-0.051-1.984,1.295
	c-0.388,2.442-1.044,4.839-1.47,7.276c-0.299,1.722-1.029,1.813-2.292,0.887c-1.684-1.234-2.317-2.926-1.918-4.893
	c0.896-4.416,1.777-8.842,2.923-13.195c0.795-3.023,2.472-5.649,4.75-7.856c7.007-6.791,16.543-4.757,20.148,4.296
	C-869.69,319.781-869.369,322.219-869.212,325.138z M-874.295,324.713c-0.07-2.036-0.301-4.021-1.172-5.917
	c-2.342-5.098-6.863-6.204-11.155-2.659c-2.026,1.673-3.289,3.866-4.23,6.281c-0.543,1.393-0.498,2.19,1.338,2.507
	c3.989,0.69,7.929,1.655,11.894,2.481C-874.313,328.097-874.311,328.08-874.295,324.713z"/>
<path fill="#FFFFFF" d="M-651.301,379.622c2.146,3.298,4.174,6.383,6.16,9.493c0.364,0.568,1.155,1.187,0.763,1.844
	c-0.403,0.674-1.362,0.78-2.163,0.757c-1.911-0.054-3.313-0.956-4.356-2.574c-2.385-3.703-4.837-7.363-7.45-11.326
	c-1.031,2.058-1.09,4.065-1.544,5.947c-0.53,2.197-1.781,3.603-3.999,4.108c-1.286,0.292-1.839-0.121-1.541-1.508
	c1.481-6.909,2.784-13.862,4.452-20.726c1.34-5.513,6.492-8.703,12.118-7.95c5.248,0.702,9.274,5.242,9.374,10.568
	c0.103,5.535-3.866,10.157-9.477,11.03C-649.638,379.389-650.312,379.479-651.301,379.622z M-650.414,362.383
	c-3.432-0.013-6.055,2.542-6.12,5.962c-0.066,3.464,2.691,6.239,6.175,6.216c3.276-0.021,6.08-2.86,6.05-6.124
	C-644.339,365.134-647.099,362.397-650.414,362.383z"/>
<path fill="#FFFFFF" d="M-721.928,364.765c2.137,3.296,4.171,6.376,6.129,9.504c0.375,0.599,1.329,1.202,0.704,2.034
	c-0.496,0.662-1.422,0.635-2.228,0.613c-1.961-0.055-3.262-1.129-4.286-2.709c-2.388-3.686-4.816-7.345-7.535-11.481
	c-0.515,2.438-0.898,4.303-1.306,6.163c-0.501,2.289-1.809,3.814-4.189,4.226c-1.054,0.184-1.687-0.008-1.382-1.398
	c1.514-6.913,2.807-13.876,4.461-20.754c1.359-5.654,6.617-8.927,12.312-8.07c5.19,0.782,9.138,5.46,9.129,10.819
	c-0.01,5.572-4.053,10.114-9.684,10.868C-720.396,364.658-720.997,364.684-721.928,364.765z M-721.139,347.615
	c-3.491,0.051-6.163,2.868-6.032,6.362c0.122,3.252,3.041,5.927,6.35,5.817c3.328-0.11,5.971-2.924,5.881-6.26
	C-715.031,350.189-717.777,347.566-721.139,347.615z"/>
<path fill="#FFFFFF" d="M-932.252,320.678c2.318,3.567,4.324,6.78,6.468,9.897c1.1,1.601,0.613,2.133-1.094,2.29
	c-2.183,0.199-3.729-0.733-4.887-2.52c-2.396-3.692-4.82-7.365-7.576-11.569c-0.594,2.581-1.042,4.588-1.521,6.589
	c-0.506,2.112-1.846,3.357-3.99,3.723c-1.104,0.188-1.697-0.087-1.415-1.387c1.532-7.081,2.833-14.219,4.614-21.237
	c1.351-5.319,6.898-8.528,12.13-7.58c5.526,1.001,9.479,5.859,9.199,11.304c-0.285,5.555-4.591,9.958-10.172,10.395
	C-930.925,320.618-931.356,320.631-932.252,320.678z M-937.363,309.664c-0.05,3.374,2.555,6.025,5.989,6.099
	c3.328,0.072,6.16-2.616,6.231-5.91c0.071-3.27-2.645-6.146-5.921-6.273C-934.521,303.447-937.311,306.14-937.363,309.664z"/>
<path fill="#FFFFFF" d="M-858.459,347.4c-1.253-0.224-3.28-0.476-5.246-0.968c-2.966-0.742-4.354-2.962-3.732-6.029
	c1.457-7.187,2.977-14.361,4.536-21.528c0.615-2.824,2.419-4.388,4.964-4.175c9.283,0.775,15.364,6.359,16.543,14.416
	C-839.984,338.741-847.955,347.745-858.459,347.4z M-857.441,342.545c5.917,0.021,10.653-4.252,11.27-10.167
	c0.621-5.955-3.155-10.952-9.268-12.315c-1.628-0.363-2.847-0.722-3.246,1.759c-0.838,5.226-2.082,10.386-3.174,15.57
	c-1.007,4.779-0.816,5.026,4.152,5.152C-857.618,342.546-857.529,342.544-857.441,342.545z"/>
<path fill="#FFFFFF" d="M-689.876,354.768c-2.766-0.58-5.549-1.085-8.289-1.769c-1.539-0.383-2.387-0.098-2.447,1.598
	c-0.003,0.089-0.021,0.176-0.04,0.262c-1.077,4.887-1.077,4.885,3.591,6.218c1.035,0.296,1.998,0.73,2.687,1.606
	c0.853,1.082,1.67,2.437,1.01,3.638c-0.611,1.112-1.895-0.066-2.886-0.112c-2.165-0.101-4.72-1.99-6.27-0.716
	c-1.302,1.073-1.048,3.937-1.68,5.946c-0.749,2.38-0.43,3.745,2.449,3.945c2.009,0.139,3.986,0.768,5.972,1.197
	c1.333,0.289,2.525,0.851,3.315,2.018c0.656,0.972,1.332,2.173,0.75,3.206c-0.605,1.074-1.76,0.143-2.636-0.026
	c-3.645-0.699-7.281-1.443-10.908-2.231c-3.473-0.756-4.897-2.949-4.183-6.43c1.384-6.753,2.78-13.503,4.224-20.242
	c0.959-4.476,2.827-5.642,7.423-4.723c3.467,0.693,6.923,1.434,10.384,2.153c0.768,0.159,1.927,0.089,2.101,0.823
	c0.224,0.948-0.61,1.784-1.366,2.42C-687.581,354.314-688.633,354.739-689.876,354.768z"/>
<path fill="#FFFFFF" d="M-919.874,330.219c0.92-4.491,1.928-9.43,2.946-14.368c0.536-2.599,1.036-5.207,1.651-7.788
	c0.801-3.362,2.851-4.724,6.262-4.087c3.999,0.748,7.962,1.686,11.96,2.431c1.993,0.372,1.774,1.265,0.798,2.465
	c-1.231,1.514-2.846,2.045-4.741,1.67c-2.516-0.499-5.034-0.998-7.533-1.572c-1.359-0.313-2.254-0.15-2.283,1.498
	c-0.006,0.343-0.192,0.679-0.266,1.025c-0.946,4.378-0.95,4.401,3.38,5.481c2.276,0.567,3.792,1.812,4.198,4.219
	c0.2,1.184-0.179,1.686-1.427,1.402c-2.157-0.49-4.33-0.907-6.479-1.424c-1.208-0.292-1.759,0.021-1.967,1.316
	c-0.35,2.181-0.794,4.356-1.372,6.486c-0.378,1.396,0.079,1.9,1.392,2.142c2.522,0.465,5.019,1.063,7.536,1.555
	c1.187,0.233,2.18,0.759,2.918,1.692c0.792,0.998,1.565,2.322,0.972,3.401c-0.591,1.073-1.933,0.177-2.913-0.016
	c-3.732-0.735-7.462-1.486-11.169-2.329C-918.462,334.862-919.771,333.246-919.874,330.219z"/>
<path fill="#FFFFFF" d="M-824.99,337.912c3.49-0.022,5.798-1.863,6.607-5.318c0.322-1.376,0.536-2.779,0.859-4.154
	c0.308-1.318,0.853-2.512,2.049-3.294c0.997-0.651,2.192-1.306,3.219-0.728c1.09,0.613,0.067,1.77-0.069,2.64
	c-0.355,2.268-0.908,4.504-1.394,6.75c-1.106,5.116-4.394,8.03-9.447,8.695c-2.011,0.265-2.691,1.09-2.903,2.868
	c-0.146,1.225-0.432,2.437-0.72,3.639c-0.367,1.526-1.149,2.774-2.623,3.478c-0.889,0.426-1.919,0.903-2.75,0.284
	c-0.762-0.568,0.062-1.463,0.134-2.214c0.084-0.875,0.284-1.75,0.528-2.597c1.017-3.517,1.699-6.506-2.52-9.008
	c-3.139-1.86-4.032-5.684-3.318-9.482c0.54-2.867,1.174-5.714,1.716-8.582c0.259-1.369,0.853-1.575,1.961-0.792
	c1.676,1.185,2.454,2.778,2.157,4.801c-0.205,1.397-0.585,2.768-0.866,4.155C-833.402,334.137-830.227,337.944-824.99,337.912z"/>
<path fill="#FFFFFF" d="M-665.194,359.912c0.101,0.011-0.166-0.004-0.426-0.05c-1.474-0.258-3.713-1.227-4.253-0.638
	c-0.998,1.094-1.061,3.082-1.408,4.72c-1.137,5.367-2.22,10.745-3.339,16.115c-0.217,1.039-0.44,2.099-1.164,2.934
	c-1.105,1.273-2.622,2.351-4.154,1.66c-1.218-0.549-0.104-2.086,0.099-3.112c1.407-7.119,2.815-14.241,4.474-21.305
	c0.491-2.091-0.156-2.644-1.965-2.878c-2.509-0.324-4.962-0.807-5.911-3.685c-0.698-2.117-0.305-2.594,1.889-2.134
	c6.41,1.342,12.813,2.71,19.219,4.069c0.766,0.162,1.913,0.03,2.108,0.817c0.239,0.964-0.616,1.77-1.357,2.415
	C-662.366,359.696-663.529,360.05-665.194,359.912z"/>
<path fill="#FFFFFF" d="M-780.085,335.845c-0.266-0.04-0.527-0.085-0.789-0.122c-4.962-0.71-4.937-0.705-5.929,4.119
	c-1.124,5.46-2.325,10.906-3.436,16.369c-0.402,1.975-1.339,3.474-3.275,4.161c-2.015,0.714-2.604,0.185-2.169-1.897
	c1.448-6.929,2.915-13.855,4.376-20.782c0.073-0.346,0.119-0.706,0.246-1.032c0.88-2.265,0.242-3.354-2.307-3.557
	c-2.348-0.189-4.575-0.968-5.419-3.562c-0.523-1.61-0.536-2.73,1.848-2.189c6.556,1.488,13.135,2.886,19.736,4.156
	c2.247,0.432,1.889,1.327,0.855,2.591C-777.304,335.267-778.613,335.748-780.085,335.845z"/>
<path fill="#811308" d="M-671.537,91.644c-0.252-0.002-0.505-0.004-0.757-0.01c0.198-0.916,0.394-1.828,0.67-3.114
	C-671.338,89.824-671.291,90.73-671.537,91.644z"/>
<path fill="#811308" d="M-671.997,98.022c-0.399-0.233-0.314-0.436,0.039-0.618c0.04,0.15,0.097,0.298,0.111,0.448
	C-671.842,97.903-671.943,97.964-671.997,98.022z"/>
<polygon fill="#811308" points="-671.029,87.147 -671.077,86.902 -671.177,87.127 "/>
<path fill="#811308" d="M-885.521,139.725c0.308,0.345,0,0.534-0.191,0.757C-885.648,140.232-885.584,139.979-885.521,139.725z"/>
<path fill="#811308" d="M-885.223,143.969c1.817,4.004,3.533,8.029,7.035,11.005c6.123,5.206,13.071,8.232,21.132,8.706
	c7.934,0.466,15.513-0.745,22.531-4.617c5.202-2.869,9.603-6.554,11.836-12.306c0.225-0.577,0.497-1.157,1.243-1.232
	c2.129,11.949-7.671,23.134-17.762,26.394c-12.63,4.082-24.958,3.386-36.155-4.473
	C-883.374,161.824-886.825,153.519-885.223,143.969z"/>
<path fill="#FCF6F6" d="M-851.348,152.689c-5.143-0.811-10.646-2.133-16.009-3.919c-2.553-0.85-3.195-2.965-1.993-5.38
	c3.075-6.179,6.213-12.328,9.361-18.47c1.323-2.584,3.578-3.736,6.373-3.323c2.523,0.373,5.082,0.912,7.456,1.82
	c5.411,2.069,6.685,8.106,2.822,12.611c-0.583,0.68-1.636,1.111-0.25,2.177c2.688,2.069,3.886,4.854,2.871,8.21
	c-1.066,3.526-3.901,5.103-7.24,5.917C-848.893,152.561-849.888,152.544-851.348,152.689z M-851.779,148.187
	c3.246,0.043,5.68-1.608,5.745-3.687c0.082-2.578-1.653-3.718-3.906-4.271c-1.544-0.379-3.092-0.742-4.639-1.11
	c-6.282-1.495-6.281-1.495-8.839,4.344c-0.071,0.162-0.163,0.313-0.246,0.469c-0.422,0.787-0.314,1.318,0.655,1.548
	C-859.059,146.42-855.115,147.38-851.779,148.187z M-852.34,134.954c3.385,0.042,5.591-1.557,5.9-3.817
	c0.275-2.014-1.185-3.549-4.095-4.307c-4.434-1.154-4.435-1.155-6.451,3.088c-0.377,0.793-0.729,1.601-1.128,2.382
	c-0.432,0.847-0.18,1.301,0.725,1.501C-855.504,134.218-853.626,134.659-852.34,134.954z"/>
<path fill="#BE1718" d="M-851.779,148.187c-3.336-0.806-7.28-1.767-11.229-2.705c-0.969-0.231-1.076-0.762-0.655-1.548
	c0.083-0.156,0.175-0.308,0.246-0.469c2.559-5.839,2.558-5.839,8.839-4.344c1.547,0.368,3.094,0.73,4.639,1.11
	c2.252,0.553,3.988,1.693,3.906,4.271C-846.1,146.578-848.533,148.229-851.779,148.187z"/>
<path fill="#BE1718" d="M-852.34,134.954c-1.286-0.294-3.164-0.736-5.049-1.152c-0.905-0.2-1.158-0.654-0.725-1.501
	c0.4-0.782,0.751-1.588,1.128-2.383c2.016-4.243,2.017-4.242,6.451-3.088c2.911,0.758,4.371,2.293,4.095,4.307
	C-846.75,133.397-848.955,134.996-852.34,134.954z"/>
</svg>
