<?xml version="1.0" encoding="utf-8"?>
<!-- Generator: Adobe Illustrator 16.0.0, SVG Export Plug-In . SVG Version: 6.00 Build 0)  -->
<!DOCTYPE svg PUBLIC "-//W3C//DTD SVG 1.1//EN" "http://www.w3.org/Graphics/SVG/1.1/DTD/svg11.dtd">
<svg version="1.1" id="Layer_1" xmlns="http://www.w3.org/2000/svg" xmlns:xlink="http://www.w3.org/1999/xlink" x="0px" y="0px"
	 width="396.906px" height="409.636px" viewBox="0 0 396.906 409.636" enable-background="new 0 0 396.906 409.636"
	 xml:space="preserve">
<g>
	<path fill="#F8AB30" d="M139.223,0C200.561,0,261.9,0,323.239,0c1.445,1.659,1.21,3.697,1.235,5.657
		c0.085,6.595-0.149,13.193,0.248,19.784c-0.568,8.118-0.005,16.253-0.335,24.372c-1.178,18.555-1.977,37.139-5.504,55.479
		c-4.567,23.743-11.119,46.828-21.69,68.653c-5.439,10.188-10.611,20.545-17.725,29.736c-0.687,0.887-1.004,1.783-1.035,2.854
		c-5.741,5.376-10.231,11.864-15.988,17.278c-7.03,6.61-14.576,12.401-22.599,17.693c-15.197,10.024-22.546,24.346-22.709,42.448
		c-0.054,5.859-0.041,11.721,0.003,17.582c0.031,4.236,0.342,4.564,4.555,4.578c11.588,0.037,23.176-0.01,34.765,0.019
		c16.882,0.041,27.805,10.933,27.87,27.763c0.012,2.797,0.074,5.596-0.043,8.391c-0.066,1.581-0.031,3.271-1.847,4.105
		c-1.677,0.605-3.421,0.529-5.15,0.53c-34.661,0.014-69.323,0.013-103.985,0c-1.859-0.001-3.744,0.118-5.519-0.628
		c-1.387-0.73-1.604-2.089-1.624-3.417c-0.075-5.054-0.466-10.119,0.48-15.145c1.891-10.048,7.625-16.892,17.303-20.111
		c3.349-1.114,4.713-2.811,4.556-6.32c-0.517-11.561,0.916-23.18-0.974-34.7c-1.616-9.852-4.777-19.057-10.865-27.174
		c-10.822-14.429-16.651-31.159-21.622-48.223c-7.251-24.897-10.884-50.456-13.864-76.151c-4.263-36.762-2.913-73.66-3.106-110.523
		C138.062,2.932,138.049,1.309,139.223,0z"/>
	<path fill-rule="evenodd" clip-rule="evenodd" fill="#DC8C19" d="M113.621,345.523c0.002-4.533-0.039-9.067,0.016-13.599
		c0.166-13.909,10.665-24.558,24.506-24.682c13.064-0.115,26.132-0.119,39.196,0.027c2.824,0.031,3.637-0.753,3.527-3.557
		c-0.423-10.758,0.917-21.596-1.556-32.26c-2.819-12.165-8.989-22.291-19.482-29.107c-14.66-9.523-27.945-20.43-38.378-34.562
		c-1.292-1.75-3.14-1.777-4.911-2.203c-29.192-7.023-56.61-18.011-80.039-37.251C10.952,147.348-1.611,120.217,0.166,87.008
		c1.442-26.965,20.955-50.702,46.92-58.056c8.657-2.452,17.456-3.553,26.417-3.637c1.15,4.937,0.25,9.942,0.478,14.912
		c0.139,3.029,0.016,6.07,0.032,9.098c-0.349,2.587-2.47,1.974-4.044,2.112c-6.125,0.54-12.168,1.395-17.945,3.647
		c-18.207,7.098-28.221,25.013-25.754,44.425c2.995,23.576,15.005,41.068,34.252,54.262c10.955,7.51,22.754,13.283,35.099,18.039
		c0.824,0.318,1.636,0.954,2.893,0.333c-16.151-36.3-24.592-74.338-25.22-114.094c1.367-18.703,0.495-37.426,0.737-56.136
		C74.038,1.248,74.014,0.583,74.417,0c21.602,0,43.204,0,64.806,0c0.006,25.467-0.426,50.944,0.205,76.396
		c0.305,12.27,1.624,24.568,2.802,36.837c1.661,17.292,4.186,34.444,7.524,51.451c3.608,18.382,8.611,36.409,16.159,53.665
		c3.814,8.72,9.064,16.465,14.403,24.267c4.86,7.101,7.174,15.415,8.44,23.891c1.899,12.712,0.489,25.531,0.907,38.294
		c0.068,2.078-1.133,2.822-2.851,3.169c-12.653,2.545-19.864,13.636-19.592,26.001c0.085,3.864,0.021,7.733,0.025,11.6
		c-1.468,1.549-3.419,1.325-5.251,1.327c-14.662,0.021-29.323,0.083-43.985-0.008C116.501,346.583,114.774,346.964,113.621,345.523z
		"/>
	<path fill-rule="evenodd" clip-rule="evenodd" fill="#4F5B5E" d="M117.559,345.806c16.562-0.078,33.124-0.157,49.686-0.236
		c14.131,0.05,28.261,0.145,42.392,0.138c24.531-0.012,49.062-0.086,73.592-0.134c3.183,0.063,6.37,0.031,9.547,0.209
		c7.828,0.438,13.634,5.775,13.709,13.276c0.168,16.857-0.01,33.718-0.047,50.577c-66.405,0-132.811,0-199.217,0
		c-1.269-1.429-1.204-3.196-1.206-4.925c-0.018-14.797-0.095-29.595,0.028-44.391C106.11,352.188,109.681,347.849,117.559,345.806z"
		/>
	<path fill-rule="evenodd" clip-rule="evenodd" fill="#3B4547" d="M117.559,345.806c-4.085,2.422-8.459,4.487-9.808,9.752
		c-0.405,1.583-0.535,3.118-0.535,4.701c-0.004,16.46,0.001,32.918,0.005,49.377c-5.868,0-11.734,0-17.602,0
		c0.773-3.42,0.321-6.887,0.34-10.328c0.065-12.257-0.015-24.515,0.037-36.771c0.049-11.535,5.417-16.861,16.839-16.884
		c2.262-0.004,4.523-0.084,6.786-0.129C114.934,345.617,116.246,345.712,117.559,345.806z"/>
	<path fill-rule="evenodd" clip-rule="evenodd" fill="#E2931E" d="M73.607,50.432c-0.035-8.372-0.07-16.745-0.104-25.117
		C73.541,16.877,73.579,8.438,73.617,0c0.267,0,0.533,0,0.8,0c-0.037,19.81-0.074,39.619-0.111,59.429
		C71.939,56.928,71.74,54.363,73.607,50.432z"/>
	<path fill-rule="evenodd" clip-rule="evenodd" fill="#DC8C19" d="M324.14,25.487c17.669-0.122,34.068,4.005,48.112,15.161
		c17.275,13.723,25.095,32.145,24.634,53.845c-0.719,33.904-16.413,59.971-43.635,79.392
		c-21.964,15.669-46.575,25.453-72.705,31.647c-0.642,0.152-1.322,0.136-1.985,0.199c-0.524-0.224-1.657-0.269-0.951-1.144
		c7.474-9.261,12.552-19.975,18.44-30.196c5.66-3.289,11.979-5.076,17.861-7.886c16.994-8.122,32.758-17.818,44.054-33.404
		c6.778-9.354,10.486-19.895,12.315-31.268c1.396-8.677,0.689-17.054-2.688-25.058C361.36,62.01,349.44,54.788,334.11,52.207
		c-3.623-0.61-7.457-0.016-10.876-1.821c-0.003-6.93-0.029-13.861,0.013-20.792C323.255,28.189,322.758,26.617,324.14,25.487z"/>
</g>
</svg>
