<svg enable-background="new 0 0 396.906 409.636" height="409.636" viewBox="0 0 396.906 409.636" width="396.906" xmlns="http://www.w3.org/2000/svg"><path d="m139.223 0h184.016c1.445 1.659 1.21 3.697 1.235 5.657.085 6.595-.149 13.193.248 19.784-.568 8.118-.005 16.253-.335 24.372-1.178 18.555-1.977 37.139-5.504 55.479-4.567 23.743-11.119 46.828-21.69 68.653-5.439 10.188-10.611 20.545-17.725 29.736-.687.887-1.004 1.783-1.035 2.854-5.741 5.376-10.231 11.864-15.988 17.278-7.03 6.61-14.576 12.401-22.599 17.693-15.197 10.024-22.546 24.346-22.709 42.448-.054 5.859-.041 11.721.003 17.582.031 4.236.342 4.564 4.555 4.578 11.588.037 23.176-.01 34.765.019 16.882.041 27.805 10.933 27.87 27.763.012 2.797.074 5.596-.043 8.391-.066 1.581-.031 3.271-1.847 4.105-1.677.605-3.421.529-5.15.53-34.661.014-69.323.013-103.985 0-1.859-.001-3.744.118-5.519-.628-1.387-.73-1.604-2.089-1.624-3.417-.075-5.054-.466-10.119.48-15.145 1.891-10.048 7.625-16.892 17.303-20.111 3.349-1.114 4.713-2.811 4.556-6.32-.517-11.561.916-23.18-.974-34.7-1.616-9.852-4.777-19.057-10.865-27.174-10.822-14.429-16.651-31.159-21.622-48.223-7.251-24.897-10.884-50.456-13.864-76.151-4.263-36.762-2.913-73.66-3.106-110.523-.008-1.598-.021-3.221 1.153-4.53z" fill="#f8ab30"/><g clip-rule="evenodd" fill-rule="evenodd"><path d="m113.621 345.523c.002-4.533-.039-9.067.016-13.599.166-13.909 10.665-24.558 24.506-24.682 13.064-.115 26.132-.119 39.196.027 2.824.031 3.637-.753 3.527-3.557-.423-10.758.917-21.596-1.556-32.26-2.819-12.165-8.989-22.291-19.482-29.107-14.66-9.523-27.945-20.43-38.378-34.562-1.292-1.75-3.14-1.777-4.911-2.203-29.192-7.023-56.61-18.011-80.039-37.251-25.548-20.981-38.111-48.112-36.334-81.321 1.442-26.965 20.955-50.702 46.92-58.056 8.657-2.452 17.456-3.553 26.417-3.637 1.15 4.937.25 9.942.478 14.912.139 3.029.016 6.07.032 9.098-.349 2.587-2.47 1.974-4.044 2.112-6.125.54-12.168 1.395-17.945 3.647-18.207 7.098-28.221 25.013-25.754 44.425 2.995 23.576 15.005 41.068 34.252 54.262 10.955 7.51 22.754 13.283 35.099 18.039.824.318 1.636.954 2.893.333-16.151-36.3-24.592-74.338-25.22-114.094 1.367-18.703.495-37.426.737-56.136.007-.665-.017-1.33.386-1.913h64.806c.006 25.467-.426 50.944.205 76.396.305 12.27 1.624 24.568 2.802 36.837 1.661 17.292 4.186 34.444 7.524 51.451 3.608 18.382 8.611 36.409 16.159 53.665 3.814 8.72 9.064 16.465 14.403 24.267 4.86 7.101 7.174 15.415 8.44 23.891 1.899 12.712.489 25.531.907 38.294.068 2.078-1.133 2.822-2.851 3.169-12.653 2.545-19.864 13.636-19.592 26.001.085 3.864.021 7.733.025 11.6-1.468 1.549-3.419 1.325-5.251 1.327-14.662.021-29.323.083-43.985-.008-1.508-.307-3.235.074-4.388-1.367z" fill="#dc8c19"/><path d="m117.559 345.806c16.562-.078 33.124-.157 49.686-.236 14.131.05 28.261.145 42.392.138 24.531-.012 49.062-.086 73.592-.134 3.183.063 6.37.031 9.547.209 7.828.438 13.634 5.775 13.709 13.276.168 16.857-.01 33.718-.047 50.577-66.405 0-132.811 0-199.217 0-1.269-1.429-1.204-3.196-1.206-4.925-.018-14.797-.095-29.595.028-44.391.067-8.132 3.638-12.471 11.516-14.514z" fill="#4f5b5e"/><path d="m117.559 345.806c-4.085 2.422-8.459 4.487-9.808 9.752-.405 1.583-.535 3.118-.535 4.701-.004 16.46.001 32.918.005 49.377-5.868 0-11.734 0-17.602 0 .773-3.42.321-6.887.34-10.328.065-12.257-.015-24.515.037-36.771.049-11.535 5.417-16.861 16.839-16.884 2.262-.004 4.523-.084 6.786-.129 1.313.093 2.625.188 3.938.282z" fill="#3b4547"/><path d="m73.607 50.432c-.035-8.372-.07-16.745-.104-25.117.038-8.438.076-16.877.114-25.315h.8c-.037 19.81-.074 39.619-.111 59.429-2.367-2.501-2.566-5.066-.699-8.997z" fill="#e2931e"/><path d="m324.14 25.487c17.669-.122 34.068 4.005 48.112 15.161 17.275 13.723 25.095 32.145 24.634 53.845-.719 33.904-16.413 59.971-43.635 79.392-21.964 15.669-46.575 25.453-72.705 31.647-.642.152-1.322.136-1.985.199-.524-.224-1.657-.269-.951-1.144 7.474-9.261 12.552-19.975 18.44-30.196 5.66-3.289 11.979-5.076 17.861-7.886 16.994-8.122 32.758-17.818 44.054-33.404 6.778-9.354 10.486-19.895 12.315-31.268 1.396-8.677.689-17.054-2.688-25.058-6.232-14.765-18.152-21.987-33.482-24.568-3.623-.61-7.457-.016-10.876-1.821-.003-6.93-.029-13.861.013-20.792.008-1.405-.489-2.977.893-4.107z" fill="#dc8c19"/></g></svg>