<?xml version="1.0" encoding="utf-8"?>
<!-- Generator: Adobe Illustrator 16.0.0, SVG Export Plug-In . SVG Version: 6.00 Build 0)  -->
<!DOCTYPE svg PUBLIC "-//W3C//DTD SVG 1.1//EN" "http://www.w3.org/Graphics/SVG/1.1/DTD/svg11.dtd">
<svg version="1.1" id="Layer_1" xmlns="http://www.w3.org/2000/svg" xmlns:xlink="http://www.w3.org/1999/xlink" x="0px" y="0px"
	 width="196.832px" height="188.833px" viewBox="0 0 196.832 188.833" enable-background="new 0 0 196.832 188.833"
	 xml:space="preserve">
<g>
	<path fill="#FFFFFF" d="M196.229,185.544c-1.332-4.625-3.837-8.749-5.393-13.323c-4.098-12.057-8.752-23.925-13.298-35.826
		c-0.975-2.55-0.75-4.764,0.386-7.166c5.907-12.493,9.307-25.634,9.624-40.547c-0.934-7.699-1.576-16.462-4.444-25.084
		c-6.035-18.136-15.688-33.603-31.218-44.737C132.631,5.058,111.234-1.434,87.128,0.265C75.291,1.099,64.451,3.882,53.667,8.395
		c-18.802,7.867-32.943,20.943-42.822,38.394C1.913,62.565-1.293,79.769,0.462,97.992c1.365,14.17,5.681,27.277,13.38,39.025
		c13.632,20.8,33.671,33.367,57.2,39.437c22.222,5.732,44.281,2.863,65.212-6.952c1.959-0.918,4.055-0.958,5.781-0.392
		c5.271,1.729,9.57,3.456,14.304,5.304c12.402,4.841,24.969,9.261,37.471,13.847c0.902,0.332,1.911,1.063,2.716,0.072
		C197.25,187.439,196.498,186.479,196.229,185.544z M93.32,21.973c9.664,0,17.5,7.835,17.5,17.5s-7.836,17.5-17.5,17.5
		c-9.666,0-17.5-7.835-17.5-17.5S83.654,21.973,93.32,21.973z M122.299,146.856c-0.022,3.256-1.959,4.092-4.885,4.118
		c-9.356,0.085-18.323-0.306-27.69-0.344c-7.365-0.03-15.015,0.06-22.473-0.191c-2.049-0.068-2.903-1.354-2.901-3.31
		c0.004-4.5-0.29-9.023,0.095-13.488c0.321-3.722,2.028-5.011,6.674-5.038c4.363-0.025,6.592-1.033,6.369-6.222
		c-0.45-10.479-0.44-21.001-0.001-31.479c0.206-4.918-1.746-6.303-6.066-6.448c-7.095-0.239-7.176-0.332-7.061-7.296
		c0.071-4.297-0.691-11.686,1.322-13.195c2.25-1.688,7.624-0.737,12.042-0.845c8.326-0.202,16.931,0.148,25.25-0.171
		c4.688-0.181,6.622,1.572,6.419,6.568c-0.365,8.982-0.104,17.99-0.102,26.987c0.001,9.164,0.124,18.33-0.062,27.49
		c-0.069,3.357,0.757,4.695,4.415,4.648c8.386-0.107,8.667,0.371,8.664,8.716C122.307,140.524,122.32,143.69,122.299,146.856z"/>
</g>
</svg>
