<svg enable-background="new 0 0 196.832 188.833" height="188.833" viewBox="0 0 196.832 188.833" width="196.832" xmlns="http://www.w3.org/2000/svg"><path d="m196.229 185.544c-1.332-4.625-3.837-8.749-5.393-13.323-4.098-12.057-8.752-23.925-13.298-35.826-.975-2.55-.75-4.764.386-7.166 5.907-12.493 9.307-25.634 9.624-40.547-.934-7.699-1.576-16.462-4.444-25.084-6.035-18.136-15.688-33.603-31.218-44.737-19.255-13.803-40.652-20.295-64.758-18.596-11.837.834-22.677 3.617-33.461 8.13-18.802 7.867-32.943 20.943-42.822 38.394-8.932 15.776-12.138 32.98-10.383 51.203 1.365 14.17 5.681 27.277 13.38 39.025 13.632 20.8 33.671 33.367 57.2 39.437 22.222 5.732 44.281 2.863 65.212-6.952 1.959-.918 4.055-.958 5.781-.392 5.271 1.729 9.57 3.456 14.304 5.304 12.402 4.841 24.969 9.261 37.471 13.847.902.332 1.911 1.063 2.716.072.724-.894-.028-1.854-.297-2.789zm-102.909-163.571c9.664 0 17.5 7.835 17.5 17.5s-7.836 17.5-17.5 17.5c-9.666 0-17.5-7.835-17.5-17.5s7.834-17.5 17.5-17.5zm28.979 124.883c-.022 3.256-1.959 4.092-4.885 4.118-9.356.085-18.323-.306-27.69-.344-7.365-.03-15.015.06-22.473-.191-2.049-.068-2.903-1.354-2.901-3.31.004-4.5-.29-9.023.095-13.488.321-3.722 2.028-5.011 6.674-5.038 4.363-.025 6.592-1.033 6.369-6.222-.45-10.479-.44-21.001-.001-31.479.206-4.918-1.746-6.303-6.066-6.448-7.095-.239-7.176-.332-7.061-7.296.071-4.297-.691-11.686 1.322-13.195 2.25-1.688 7.624-.737 12.042-.845 8.326-.202 16.931.148 25.25-.171 4.688-.181 6.622 1.572 6.419 6.568-.365 8.982-.104 17.99-.102 26.987.001 9.164.124 18.33-.062 27.49-.069 3.357.757 4.695 4.415 4.648 8.386-.107 8.667.371 8.664 8.716-.001 3.168.012 6.334-.009 9.5z" fill="#fff"/></svg>