<?xml version="1.0" encoding="utf-8"?>
<!-- Generator: Adobe Illustrator 16.0.0, SVG Export Plug-In . SVG Version: 6.00 Build 0)  -->
<!DOCTYPE svg PUBLIC "-//W3C//DTD SVG 1.1//EN" "http://www.w3.org/Graphics/SVG/1.1/DTD/svg11.dtd">
<svg version="1.1" id="Layer_1" xmlns="http://www.w3.org/2000/svg" xmlns:xlink="http://www.w3.org/1999/xlink" x="0px" y="0px"
	 width="229.983px" height="196.845px" viewBox="-1640.763 175.444 229.983 196.845"
	 enable-background="new -1640.763 175.444 229.983 196.845" xml:space="preserve">
<path fill="#FFFFFF" d="M-1640.763,310.716c0.493-0.194,0.356-0.678,0.447-1.036c2.13-8.445,7.374-14.04,15.544-16.913
	c1.979-0.696,4.091-0.696,6.167-0.752c3.934-0.107,7.868-0.143,11.797-0.434c6.005-0.445,10.033-3.442,12.092-9.094
	c0.685-1.88,1.364-3.762,2.048-5.643c2.781-7.649,8.577-11.471,16.319-12.695c5.5-0.869,10.961-0.175,16.381,0.821
	c1.101,0.202,1.639,0.037,2.162-1.055c3.428-7.157,6.912-14.288,10.453-21.39c3.205-6.426,9.85-10.195,16.992-9.521
	c2.981,0.28,5.922,0.998,8.878,1.533c2.48,0.449,4.957,0.922,7.433,1.384c0.123,0.407-0.252,0.417-0.436,0.524
	c-2.948,1.721-4.961,4.209-6.045,7.43c-3.241,9.628-6.481,19.256-9.675,28.899c-1.562,4.714,0.945,9.166,5.785,10.206
	c16.535,3.551,33.075,7.077,49.625,10.557c5.555,1.168,10.08-2.274,10.721-7.994c1.225-10.917,2.443-21.835,3.676-32.751
	c0.272-2.408-0.261-4.638-1.412-6.773c0.429-0.137,0.74,0.094,1.063,0.222c7.005,2.775,11.426,9.765,10.798,17.271
	c-0.922,11.023-1.927,22.04-2.898,33.059c-0.299,3.402-0.616,6.802-0.897,10.206c-0.958,11.575-10.838,18.948-22.199,16.587
	c-24.693-5.13-49.382-10.276-74.089-15.333c-5.488-1.124-10.23-3.361-13.535-8c-4.394-6.169-5.138-12.82-2.165-19.814
	c0.737-1.733,1.672-3.383,2.516-5.072c0.068,0.491,0.136,0.98,0.204,1.471c-0.671,4.001,0.775,7.481,4.131,9.838
	c4.692,3.293,9.858,3.585,15.15,1.875c4.229-1.366,8.335-6.054,7.443-11.061c0.015-0.222,0.023-0.444,0.046-0.665
	c0.301-3.015-0.301-5.725-2.485-7.99c-4.926-5.105-14.682-5.834-20.239-1.444c-0.866,0.684-1.623,1.506-2.431,2.264
	c-4.876-0.897-9.779-1.508-14.714-0.616c-5.999,1.083-10.337,4.228-12.349,10.216c-1.038,3.089-1.967,6.24-3.722,9.034
	c-2.958,4.709-7.267,7.268-12.753,7.96c-4.656,0.587-9.346,0.659-14.013,0.578c-8.007-0.139-16.296,7.125-17.046,16.203
	c-0.208,2.509,0.592,4.68,2.333,6.498c2.393,2.499,5.438,3.844,8.691,4.726c2.969,0.805,5.998,1.386,8.974,2.167
	c0.925,0.242,1.122-0.074,1.282-0.854c1.33-6.467,2.694-12.926,4.033-19.391c0.688-3.321,2.876-4.751,6.186-4.015
	c1.375,0.306,2.76,0.574,4.131,0.902c6.919,1.655,9.439,9.11,4.947,14.603c-0.07,0.086-0.118,0.188-0.205,0.33
	c2.201,1.502,3.71,3.486,4.183,6.165c1.037,5.867-4.265,11.2-10.112,10.096c-8.531-1.611-16.977-3.625-25.383-5.777
	c-3.876-0.992-7.399-2.86-10.213-5.839c-1.53-1.62-2.639-3.478-3.21-5.646c-0.067-0.257,0-0.628-0.403-0.708
	C-1640.763,314.282-1640.763,312.499-1640.763,310.716z M-1464.849,291.706c-2.712,3.808-6.216,4.918-10.615,3.91
	c-5.096-1.168-10.241-2.124-15.365-3.174c-11.265-2.311-22.539-4.58-33.789-6.957c-3.861-0.816-6.181-3.33-6.979-7.216
	c-0.046-0.226,0.017-0.527-0.322-0.607c-1.489,5.23,1.448,10.125,6.732,11.223c1.998,0.414,3.999,0.809,5.998,1.215
	c14.685,2.991,29.365,5.999,44.054,8.963c4.609,0.93,8.895-1.612,10.254-5.959C-1464.75,292.69-1464.567,292.283-1464.849,291.706z
	 M-1525.293,307.266c0.215,0.11,0.418,0.265,0.647,0.324c4.522,1.16,9.041,2.334,13.573,3.456
	c11.229,2.777,22.479,5.486,33.866,7.53c5.114,0.919,10.04,0.032,14.387-3.151c4.32-3.164,6.45-9.304,5.986-13.594
	c-0.179,0.582-0.327,1.071-0.48,1.558c-0.156,0.495-0.302,0.995-0.48,1.481c-2.29,6.27-6.559,10.08-13.349,10.822
	c-3.311,0.362-6.494-0.302-9.698-0.954c-12.574-2.562-25.187-4.912-37.869-6.876
	C-1520.877,307.526-1523.049,307.231-1525.293,307.266z M-1595.96,325.382c0.005-1.896-1.191-3.581-3.054-4.017
	c-2.991-0.7-6.011-1.281-9.016-1.923c-0.473-0.101-0.747-0.051-0.856,0.516c-0.448,2.327-0.918,4.65-1.434,6.963
	c-0.12,0.537,0.079,0.634,0.506,0.72c3.012,0.609,6.01,1.294,9.034,1.833C-1598.191,329.935-1595.967,327.978-1595.96,325.382z
	 M-1602.494,315.879c2.402,0.061,4.179-1.383,4.541-3.459c0.394-2.253-0.743-4.252-2.88-4.867c-1.494-0.429-3.032-0.701-4.546-1.056
	c-0.475-0.111-0.739-0.051-0.851,0.519c-0.472,2.401-0.992,4.792-1.497,7.186c-0.074,0.35-0.125,0.653,0.375,0.735
	C-1605.633,315.217-1603.961,315.75-1602.494,315.879z"/>
<path fill="#FFFFFF" d="M-1484.543,175.445c0.78,0.45,1.683,0.405,2.524,0.608c9.925,2.402,17.225,11.156,17.746,21.325
	c0.548,10.702-5.694,20.275-15.495,23.684c-0.838,0.292-1.206,0.684-1.36,1.566c-1.005,5.737-2.061,11.464-3.137,17.188
	c-0.163,0.862,0.023,1.353,0.769,1.909c3.226,2.406,5.062,5.524,4.285,9.694c-0.488,2.622-2.101,4.549-4.258,6.025
	c-5.513,3.773-13.728,3.037-18.512-1.64c-4.311-4.212-4.048-9.72,0.647-13.499c0.346-0.279,0.683-0.639,1.086-0.764
	c2.026-0.627,2.165-2.097,2.146-3.935c-0.055-5.495,0.051-10.992,0.162-16.487c0.022-1.078-0.291-1.653-1.232-2.272
	c-7.918-5.211-11.715-12.671-10.871-22.06c0.852-9.482,5.957-16.166,14.811-19.863c1.2-0.501,2.46-0.814,3.734-1.078
	c0.324-0.067,0.776,0.072,0.94-0.403C-1488.555,175.445-1486.549,175.445-1484.543,175.445z"/>
<path fill="#FFFFFF" d="M-1410.779,358.184c-0.469,0.157-0.357,0.604-0.429,0.93c-0.689,3.15-1.334,6.311-2.035,9.458
	c-0.515,2.314-2.502,3.819-4.752,3.711c-0.59-0.028-0.837-0.106-0.675-0.827c0.635-2.82,1.167-5.664,1.789-8.487
	c0.155-0.703,0.02-0.958-0.712-1.105c-4.796-0.967-9.586-1.967-14.369-3c-0.786-0.169-0.941,0.191-1.063,0.806
	c-0.543,2.727-1.152,5.441-1.641,8.177c-0.189,1.058-0.629,0.999-1.377,0.623c-1.839-0.924-2.942-2.941-2.537-4.997
	c0.767-3.892,1.511-7.793,2.469-11.64c1.003-4.028,3.086-7.452,6.466-9.982c5.907-4.423,13.459-2.744,16.956,3.76
	c0.76,1.414,1.295,2.908,1.644,4.472c0.035,0.156,0.095,0.273,0.267,0.299C-1410.779,352.983-1410.779,355.583-1410.779,358.184z
	 M-1415.363,354.237c0.019-2.521-0.562-4.809-1.704-6.711c-2.182-3.632-5.834-4.447-9.316-2.037c-2.722,1.883-4.244,4.583-5.161,7.7
	c-0.226,0.768-0.019,1.006,0.719,1.153c4.11,0.82,8.208,1.703,12.32,2.511c0.926,0.183,2.078,0.977,2.751,0.294
	C-1415.13,356.514-1415.406,355.237-1415.363,354.237z"/>
<path fill="#FFFFFF" d="M-1473.474,254.689c-0.059,0.805-0.118,1.61-0.176,2.414c-0.148,0.077-0.184,0.161-0.016,0.259
	c-0.162,2.628-0.208,5.271-0.513,7.882c-0.458,3.911-2.516,6.914-5.732,9.128c-7.821,5.385-20.277,4.735-27.474-1.463
	c-3.526-3.037-5.383-6.783-4.878-11.583c0.333-3.163,0.422-6.351,0.621-9.533c0.123,0.02,0.232,0.018,0.237,0.04
	c1.082,4.998,4.225,8.408,8.681,10.495c8.186,3.834,16.287,3.764,24.015-1.336c2.321-1.531,3.912-3.712,4.919-6.306
	C-1473.685,254.688-1473.579,254.688-1473.474,254.689z"/>
<path fill="#FFFFFF" d="M-1542.269,334.129c0.002-8.977,7.25-16.271,16.17-16.276c9.032-0.004,16.368,7.28,16.353,16.238
	c-0.016,8.919-7.339,16.232-16.267,16.243C-1534.974,350.344-1542.271,343.07-1542.269,334.129z M-1526.029,322.487
	c-6.444,0.008-11.564,5.161-11.56,11.631c0.005,6.42,5.197,11.585,11.631,11.572c6.403-0.014,11.567-5.216,11.565-11.652
	C-1514.393,327.61-1519.562,322.479-1526.029,322.487z"/>
<path fill="#FFFFFF" d="M-1560.731,321.789c0.007,4.521-1.059,7.758-1.68,11.069c-0.294,1.566-0.628,3.128-1.023,4.672
	c-0.506,1.977-2.309,3.366-4.282,3.48c-0.936,0.054-1.249-0.185-1.02-1.181c0.624-2.71,1.142-5.445,1.737-8.162
	c0.146-0.667,0.042-0.969-0.699-1.118c-4.8-0.96-9.593-1.955-14.38-2.976c-0.657-0.14-0.888-0.053-1.022,0.657
	c-0.532,2.805-1.177,5.589-1.71,8.395c-0.156,0.821-0.423,0.958-1.161,0.628c-1.813-0.811-3.13-2.883-2.761-4.77
	c0.813-4.148,1.58-8.315,2.644-12.402c1.107-4.259,3.469-7.786,7.259-10.186c5.548-3.515,12.371-1.829,15.709,3.847
	C-1561.462,316.562-1560.726,319.632-1560.731,321.789z M-1565.488,322.55c-0.052-2.333-0.606-4.8-2.148-6.965
	c-2.054-2.882-5.129-3.587-8.205-1.823c-3.189,1.829-4.863,4.772-5.872,8.192c-0.217,0.734-0.018,0.917,0.704,1.061
	c4.109,0.818,8.205,1.703,12.306,2.557C-1565.488,326.241-1565.487,326.235-1565.488,322.55z"/>
<path fill="#FFFFFF" d="M-1449.396,354.792c-0.043,0.488,0.26,0.742,0.45,1.04c1.973,3.096,3.929,6.205,5.95,9.27
	c0.485,0.735,0.3,0.966-0.426,1.229c-2.137,0.774-4.276,0.022-5.667-2.091c-2.202-3.347-4.383-6.707-6.574-10.06
	c-0.22-0.336-0.453-0.662-0.824-1.202c-0.47,2.236-0.88,4.252-1.321,6.262c-0.458,2.087-1.875,3.426-3.911,3.741
	c-1.404,0.219-1.572,0.041-1.288-1.315c1.369-6.533,2.694-13.076,4.108-19.599c1.128-5.202,6.393-8.875,11.448-8.09
	c5.712,0.887,9.705,5.743,9.228,11.225c-0.485,5.567-5.038,9.672-10.643,9.591C-1449.039,354.79-1449.212,354.792-1449.396,354.792z
	 M-1442.862,344.409c0.004-3.233-2.628-5.834-5.907-5.839c-3.239-0.005-5.859,2.64-5.845,5.902c0.013,3.181,2.627,5.752,5.864,5.769
	C-1445.451,350.256-1442.867,347.697-1442.862,344.409z"/>
<path fill="#BE1718" d="M-1563.016,276.616c-0.068-0.49-0.136-0.98-0.204-1.471c0,0-0.001,0.011-0.001,0.009
	c0.081-0.094,0.209-0.173,0.08-0.317c-0.045-2.003,0.771-3.729,1.74-5.405c0.808-0.757,1.565-1.579,2.431-2.263
	c5.557-4.39,15.313-3.662,20.239,1.444c2.185,2.264,2.787,4.975,2.485,7.99c-0.022,0.221-0.031,0.443-0.046,0.666
	c-0.312,0.032-0.427,0.274-0.521,0.516c-0.936,2.41-2.78,3.955-4.96,5.157c-2.94,1.622-6.117,2.13-9.441,1.935
	c-3.378-0.199-6.29-1.467-8.855-3.648C-1561.535,279.98-1562.254,278.293-1563.016,276.616z M-1548.82,280.27
	c0.611-0.06,1.028-0.054,1.42-0.149c1.399-0.341,2.587-1.002,3.034-2.479c0.425-1.407-0.077-2.573-1.203-3.44
	c-0.58-0.446-0.139-0.627,0.105-0.912c1.619-1.888,1.084-4.417-1.183-5.285c-0.995-0.38-2.067-0.606-3.125-0.762
	c-1.171-0.173-2.116,0.31-2.67,1.392c-1.319,2.574-2.634,5.15-3.922,7.74c-0.504,1.012-0.235,1.898,0.835,2.254
	C-1553.282,279.376-1550.976,279.93-1548.82,280.27z"/>
<path fill="#FFFFFF" d="M-1464.116,335.95c-1.75-0.363-3.961-0.822-6.173-1.281c-0.908-0.188-1.819-0.361-2.721-0.571
	c-0.461-0.108-0.673,0.03-0.766,0.498c-0.393,1.963-0.794,3.924-1.227,5.879c-0.115,0.52,0.006,0.716,0.541,0.813
	c1.348,0.247,2.692,0.529,4.024,0.852c2.164,0.525,3.589,2.426,3.521,4.545c-0.022,0.687-0.195,0.9-0.925,0.735
	c-2.458-0.556-4.938-1.013-7.395-1.578c-0.661-0.152-0.909-0.075-1.042,0.622c-0.497,2.584-1.017,5.165-1.609,7.729
	c-0.189,0.817,0.079,0.991,0.803,1.133c2.764,0.542,5.524,1.113,8.268,1.752c2.195,0.511,3.619,2.537,3.468,4.688
	c-0.038,0.534-0.157,0.688-0.727,0.564c-4.312-0.934-8.639-1.792-12.943-2.758c-2.74-0.615-4.065-2.878-3.465-5.77
	c1.348-6.497,2.731-12.986,4.081-19.483c0.312-1.5,0.567-3.001,1.917-4.002c1.062-0.789,2.235-1.208,3.547-0.943
	c4.431,0.898,8.854,1.84,13.283,2.748c0.54,0.11,0.516,0.338,0.372,0.778C-1459.861,334.668-1461.681,335.965-1464.116,335.95z"/>
<path fill="#FFFFFF" d="M-1490.245,325.956c3.479,0.333,7.129,1.366,10.839,2.08c0.787,0.151,0.473,0.598,0.333,0.979
	c-0.721,1.963-2.967,3.169-5.155,2.766c-1.968-0.362-3.902-0.907-5.9-1.111c-5.144-0.526-10.298,2.629-11.817,7.231
	c-1.825,5.53,1.375,11.498,7.317,13.603c1.893,0.671,3.892,0.926,5.839,1.382c2.339,0.548,3.92,2.525,3.792,4.69
	c-0.034,0.576-0.175,0.779-0.799,0.639c-3.146-0.705-6.372-1.144-9.437-2.101c-6.307-1.969-10.474-6.174-11.555-12.819
	c-1.139-6.997,2.786-13.457,9.394-16.07C-1495.194,326.354-1492.914,325.924-1490.245,325.956z"/>
<path fill="#FFFFFF" d="M-1541.312,319.807c-1.239-0.255-2.776-0.518-4.282-0.906c-0.79-0.203-0.996,0.022-1.149,0.771
	c-1.378,6.72-2.787,13.434-4.212,20.145c-0.482,2.27-2.327,3.737-4.499,3.728c-0.727-0.003-0.953-0.189-0.786-0.963
	c1.149-5.328,2.255-10.667,3.375-16.001c0.549-2.613,1.08-5.229,1.664-7.834c0.167-0.749,0.004-1.046-0.788-1.165
	c-1.281-0.192-2.554-0.476-3.809-0.802c-2.18-0.567-3.566-2.485-3.44-4.595c0.038-0.634,0.198-0.808,0.874-0.664
	c7.001,1.484,14.008,2.943,21.02,4.377c0.794,0.163,0.815,0.484,0.546,1.12C-1537.483,318.63-1539.262,319.832-1541.312,319.807z"/>
<path fill="#811308" d="M-1473.474,254.689c-0.105-0.001-0.211-0.002-0.317-0.004c0.083-0.384,0.166-0.767,0.281-1.305
	C-1473.391,253.927-1473.371,254.307-1473.474,254.689z"/>
<path fill="#811308" d="M-1473.666,257.362c-0.167-0.098-0.132-0.183,0.016-0.259c0.017,0.063,0.041,0.125,0.046,0.188
	C-1473.602,257.312-1473.644,257.338-1473.666,257.362z"/>
<polygon fill="#811308" points="-1473.261,252.805 -1473.281,252.703 -1473.323,252.797 "/>
<path fill="#811308" d="M-1563.14,274.837c0.129,0.145,0,0.224-0.081,0.317C-1563.193,275.05-1563.167,274.943-1563.14,274.837z"/>
<path fill="#811308" d="M-1563.016,276.616c0.762,1.678,1.48,3.364,2.948,4.611c2.565,2.182,5.477,3.45,8.855,3.648
	c3.325,0.195,6.5-0.312,9.441-1.935c2.18-1.202,4.024-2.747,4.96-5.157c0.094-0.242,0.208-0.484,0.521-0.516
	c0.892,5.007-3.214,9.694-7.443,11.06c-5.293,1.71-10.458,1.419-15.15-1.874C-1562.24,284.097-1563.687,280.617-1563.016,276.616z"
	/>
<path fill="#FCF6F6" d="M-1548.82,280.27c-2.155-0.339-4.461-0.894-6.708-1.642c-1.07-0.356-1.339-1.242-0.835-2.254
	c1.289-2.589,2.603-5.166,3.922-7.74c0.555-1.083,1.5-1.565,2.67-1.392c1.058,0.156,2.129,0.382,3.125,0.762
	c2.267,0.867,2.801,3.397,1.183,5.285c-0.245,0.285-0.686,0.466-0.105,0.912c1.126,0.867,1.628,2.034,1.203,3.44
	c-0.447,1.478-1.635,2.138-3.034,2.479C-1547.792,280.216-1548.209,280.209-1548.82,280.27z M-1549.001,278.383
	c1.36,0.018,2.38-0.674,2.408-1.545c0.034-1.08-0.693-1.558-1.637-1.79c-0.647-0.159-1.296-0.311-1.944-0.465
	c-2.632-0.626-2.632-0.626-3.704,1.82c-0.03,0.068-0.068,0.131-0.103,0.197c-0.177,0.33-0.132,0.552,0.274,0.648
	C-1552.052,277.643-1550.399,278.045-1549.001,278.383z M-1549.236,272.838c1.418,0.018,2.343-0.652,2.472-1.6
	c0.116-0.844-0.497-1.487-1.716-1.805c-1.857-0.484-1.858-0.484-2.703,1.294c-0.158,0.333-0.305,0.671-0.473,0.999
	c-0.181,0.355-0.075,0.545,0.304,0.629C-1550.562,272.529-1549.775,272.714-1549.236,272.838z"/>
<path fill="#BE1718" d="M-1549.001,278.383c-1.398-0.338-3.05-0.74-4.706-1.134c-0.406-0.097-0.451-0.319-0.274-0.648
	c0.035-0.065,0.074-0.129,0.104-0.197c1.072-2.447,1.071-2.447,3.704-1.82c0.648,0.154,1.296,0.306,1.944,0.465
	c0.944,0.232,1.671,0.709,1.637,1.79C-1546.621,277.708-1547.641,278.401-1549.001,278.383z"/>
<path fill="#BE1718" d="M-1549.236,272.838c-0.539-0.124-1.326-0.309-2.116-0.483c-0.379-0.083-0.485-0.274-0.304-0.629
	c0.168-0.328,0.315-0.666,0.473-0.999c0.845-1.778,0.845-1.777,2.703-1.294c1.22,0.318,1.832,0.961,1.716,1.805
	C-1546.894,272.186-1547.817,272.855-1549.236,272.838z"/>
</svg>
