<svg enable-background="new -1640.763 175.444 229.983 196.845" height="196.845" viewBox="-1640.763 175.444 229.983 196.845" width="229.983" xmlns="http://www.w3.org/2000/svg"><g fill="#fff"><path d="m-1640.763 310.716c.493-.194.356-.678.447-1.036 2.13-8.445 7.374-14.04 15.544-16.913 1.979-.696 4.091-.696 6.167-.752 3.934-.107 7.868-.143 11.797-.434 6.005-.445 10.033-3.442 12.092-9.094.685-1.88 1.364-3.762 2.048-5.643 2.781-7.649 8.577-11.471 16.319-12.695 5.5-.869 10.961-.175 16.381.821 1.101.202 1.639.037 2.162-1.055 3.428-7.157 6.912-14.288 10.453-21.39 3.205-6.426 9.85-10.195 16.992-9.521 2.981.28 5.922.998 8.878 1.533 2.48.449 4.957.922 7.433 1.384.123.407-.252.417-.436.524-2.948 1.721-4.961 4.209-6.045 7.43-3.241 9.628-6.481 19.256-9.675 28.899-1.562 4.714.945 9.166 5.785 10.206 16.535 3.551 33.075 7.077 49.625 10.557 5.555 1.168 10.08-2.274 10.721-7.994 1.225-10.917 2.443-21.835 3.676-32.751.272-2.408-.261-4.638-1.412-6.773.429-.137.74.094 1.063.222 7.005 2.775 11.426 9.765 10.798 17.271-.922 11.023-1.927 22.04-2.898 33.059-.299 3.402-.616 6.802-.897 10.206-.958 11.575-10.838 18.948-22.199 16.587-24.693-5.13-49.382-10.276-74.089-15.333-5.488-1.124-10.23-3.361-13.535-8-4.394-6.169-5.138-12.82-2.165-19.814.737-1.733 1.672-3.383 2.516-5.072.068.491.136.98.204 1.471-.671 4.001.775 7.481 4.131 9.838 4.692 3.293 9.858 3.585 15.15 1.875 4.229-1.366 8.335-6.054 7.443-11.061.015-.222.023-.444.046-.665.301-3.015-.301-5.725-2.485-7.99-4.926-5.105-14.682-5.834-20.239-1.444-.866.684-1.623 1.506-2.431 2.264-4.876-.897-9.779-1.508-14.714-.616-5.999 1.083-10.337 4.228-12.349 10.216-1.038 3.089-1.967 6.24-3.722 9.034-2.958 4.709-7.267 7.268-12.753 7.96-4.656.587-9.346.659-14.013.578-8.007-.139-16.296 7.125-17.046 16.203-.208 2.509.592 4.68 2.333 6.498 2.393 2.499 5.438 3.844 8.691 4.726 2.969.805 5.998 1.386 8.974 2.167.925.242 1.122-.074 1.282-.854 1.33-6.467 2.694-12.926 4.033-19.391.688-3.321 2.876-4.751 6.186-4.015 1.375.306 2.76.574 4.131.902 6.919 1.655 9.439 9.11 4.947 14.603-.07.086-.118.188-.205.33 2.201 1.502 3.71 3.486 4.183 6.165 1.037 5.867-4.265 11.2-10.112 10.096-8.531-1.611-16.977-3.625-25.383-5.777-3.876-.992-7.399-2.86-10.213-5.839-1.53-1.62-2.639-3.478-3.21-5.646-.067-.257 0-.628-.403-.708-.002-1.783-.002-3.566-.002-5.349zm175.914-19.01c-2.712 3.808-6.216 4.918-10.615 3.91-5.096-1.168-10.241-2.124-15.365-3.174-11.265-2.311-22.539-4.58-33.789-6.957-3.861-.816-6.181-3.33-6.979-7.216-.046-.226.017-.527-.322-.607-1.489 5.23 1.448 10.125 6.732 11.223 1.998.414 3.999.809 5.998 1.215 14.685 2.991 29.365 5.999 44.054 8.963 4.609.93 8.895-1.612 10.254-5.959.131-.414.314-.821.032-1.398zm-60.444 15.56c.215.11.418.265.647.324 4.522 1.16 9.041 2.334 13.573 3.456 11.229 2.777 22.479 5.486 33.866 7.53 5.114.919 10.04.032 14.387-3.151 4.32-3.164 6.45-9.304 5.986-13.594-.179.582-.327 1.071-.48 1.558-.156.495-.302.995-.48 1.481-2.29 6.27-6.559 10.08-13.349 10.822-3.311.362-6.494-.302-9.698-.954-12.574-2.562-25.187-4.912-37.869-6.876-2.167-.336-4.339-.631-6.583-.596zm-70.667 18.116c.005-1.896-1.191-3.581-3.054-4.017-2.991-.7-6.011-1.281-9.016-1.923-.473-.101-.747-.051-.856.516-.448 2.327-.918 4.65-1.434 6.963-.12.537.079.634.506.72 3.012.609 6.01 1.294 9.034 1.833 2.589.461 4.813-1.496 4.82-4.092zm-6.534-9.503c2.402.061 4.179-1.383 4.541-3.459.394-2.253-.743-4.252-2.88-4.867-1.494-.429-3.032-.701-4.546-1.056-.475-.111-.739-.051-.851.519-.472 2.401-.992 4.792-1.497 7.186-.074.35-.125.653.375.735 1.719.28 3.391.813 4.858.942z"/><path d="m-1484.543 175.445c.78.45 1.683.405 2.524.608 9.925 2.402 17.225 11.156 17.746 21.325.548 10.702-5.694 20.275-15.495 23.684-.838.292-1.206.684-1.36 1.566-1.005 5.737-2.061 11.464-3.137 17.188-.163.862.023 1.353.769 1.909 3.226 2.406 5.062 5.524 4.285 9.694-.488 2.622-2.101 4.549-4.258 6.025-5.513 3.773-13.728 3.037-18.512-1.64-4.311-4.212-4.048-9.72.647-13.499.346-.279.683-.639 1.086-.764 2.026-.627 2.165-2.097 2.146-3.935-.055-5.495.051-10.992.162-16.487.022-1.078-.291-1.653-1.232-2.272-7.918-5.211-11.715-12.671-10.871-22.06.852-9.482 5.957-16.166 14.811-19.863 1.2-.501 2.46-.814 3.734-1.078.324-.067.776.072.94-.403 2.003.002 4.009.002 6.015.002z"/><path d="m-1410.779 358.184c-.469.157-.357.604-.429.93-.689 3.15-1.334 6.311-2.035 9.458-.515 2.314-2.502 3.819-4.752 3.711-.59-.028-.837-.106-.675-.827.635-2.82 1.167-5.664 1.789-8.487.155-.703.02-.958-.712-1.105-4.796-.967-9.586-1.967-14.369-3-.786-.169-.941.191-1.063.806-.543 2.727-1.152 5.441-1.641 8.177-.189 1.058-.629.999-1.377.623-1.839-.924-2.942-2.941-2.537-4.997.767-3.892 1.511-7.793 2.469-11.64 1.003-4.028 3.086-7.452 6.466-9.982 5.907-4.423 13.459-2.744 16.956 3.76.76 1.414 1.295 2.908 1.644 4.472.035.156.095.273.267.299-.001 2.601-.001 5.201-.001 7.802zm-4.584-3.947c.019-2.521-.562-4.809-1.704-6.711-2.182-3.632-5.834-4.447-9.316-2.037-2.722 1.883-4.244 4.583-5.161 7.7-.226.768-.019 1.006.719 1.153 4.11.82 8.208 1.703 12.32 2.511.926.183 2.078.977 2.751.294.624-.633.348-1.91.391-2.91z"/><path d="m-1473.474 254.689c-.059.805-.118 1.61-.176 2.414-.148.077-.184.161-.016.259-.162 2.628-.208 5.271-.513 7.882-.458 3.911-2.516 6.914-5.732 9.128-7.821 5.385-20.277 4.735-27.474-1.463-3.526-3.037-5.383-6.783-4.878-11.583.333-3.163.422-6.351.621-9.533.123.02.232.018.237.04 1.082 4.998 4.225 8.408 8.681 10.495 8.186 3.834 16.287 3.764 24.015-1.336 2.321-1.531 3.912-3.712 4.919-6.306.105.002.211.002.316.003z"/><path d="m-1542.269 334.129c.002-8.977 7.25-16.271 16.17-16.276 9.032-.004 16.368 7.28 16.353 16.238-.016 8.919-7.339 16.232-16.267 16.243-8.961.01-16.258-7.264-16.256-16.205zm16.24-11.642c-6.444.008-11.564 5.161-11.56 11.631.005 6.42 5.197 11.585 11.631 11.572 6.403-.014 11.567-5.216 11.565-11.652 0-6.428-5.169-11.559-11.636-11.551z"/><path d="m-1560.731 321.789c.007 4.521-1.059 7.758-1.68 11.069-.294 1.566-.628 3.128-1.023 4.672-.506 1.977-2.309 3.366-4.282 3.48-.936.054-1.249-.185-1.02-1.181.624-2.71 1.142-5.445 1.737-8.162.146-.667.042-.969-.699-1.118-4.8-.96-9.593-1.955-14.38-2.976-.657-.14-.888-.053-1.022.657-.532 2.805-1.177 5.589-1.71 8.395-.156.821-.423.958-1.161.628-1.813-.811-3.13-2.883-2.761-4.77.813-4.148 1.58-8.315 2.644-12.402 1.107-4.259 3.469-7.786 7.259-10.186 5.548-3.515 12.371-1.829 15.709 3.847 1.658 2.82 2.394 5.89 2.389 8.047zm-4.757.761c-.052-2.333-.606-4.8-2.148-6.965-2.054-2.882-5.129-3.587-8.205-1.823-3.189 1.829-4.863 4.772-5.872 8.192-.217.734-.018.917.704 1.061 4.109.818 8.205 1.703 12.306 2.557 3.215.669 3.216.663 3.215-3.022z"/><path d="m-1449.396 354.792c-.043.488.26.742.45 1.04 1.973 3.096 3.929 6.205 5.95 9.27.485.735.3.966-.426 1.229-2.137.774-4.276.022-5.667-2.091-2.202-3.347-4.383-6.707-6.574-10.06-.22-.336-.453-.662-.824-1.202-.47 2.236-.88 4.252-1.321 6.262-.458 2.087-1.875 3.426-3.911 3.741-1.404.219-1.572.041-1.288-1.315 1.369-6.533 2.694-13.076 4.108-19.599 1.128-5.202 6.393-8.875 11.448-8.09 5.712.887 9.705 5.743 9.228 11.225-.485 5.567-5.038 9.672-10.643 9.591-.173-.003-.346-.001-.53-.001zm6.534-10.383c.004-3.233-2.628-5.834-5.907-5.839-3.239-.005-5.859 2.64-5.845 5.902.013 3.181 2.627 5.752 5.864 5.769 3.299.015 5.883-2.544 5.888-5.832z"/></g><path d="m-1563.016 276.616c-.068-.49-.136-.98-.204-1.471 0 0-.001.011-.001.009.081-.094.209-.173.08-.317-.045-2.003.771-3.729 1.74-5.405.808-.757 1.565-1.579 2.431-2.263 5.557-4.39 15.313-3.662 20.239 1.444 2.185 2.264 2.787 4.975 2.485 7.99-.022.221-.031.443-.046.666-.312.032-.427.274-.521.516-.936 2.41-2.78 3.955-4.96 5.157-2.94 1.622-6.117 2.13-9.441 1.935-3.378-.199-6.29-1.467-8.855-3.648-1.466-1.249-2.185-2.936-2.947-4.613zm14.196 3.654c.611-.06 1.028-.054 1.42-.149 1.399-.341 2.587-1.002 3.034-2.479.425-1.407-.077-2.573-1.203-3.44-.58-.446-.139-.627.105-.912 1.619-1.888 1.084-4.417-1.183-5.285-.995-.38-2.067-.606-3.125-.762-1.171-.173-2.116.31-2.67 1.392-1.319 2.574-2.634 5.15-3.922 7.74-.504 1.012-.235 1.898.835 2.254 2.247.747 4.553 1.301 6.709 1.641z" fill="#be1718"/><path d="m-1464.116 335.95c-1.75-.363-3.961-.822-6.173-1.281-.908-.188-1.819-.361-2.721-.571-.461-.108-.673.03-.766.498-.393 1.963-.794 3.924-1.227 5.879-.115.52.006.716.541.813 1.348.247 2.692.529 4.024.852 2.164.525 3.589 2.426 3.521 4.545-.022.687-.195.9-.925.735-2.458-.556-4.938-1.013-7.395-1.578-.661-.152-.909-.075-1.042.622-.497 2.584-1.017 5.165-1.609 7.729-.189.817.079.991.803 1.133 2.764.542 5.524 1.113 8.268 1.752 2.195.511 3.619 2.537 3.468 4.688-.038.534-.157.688-.727.564-4.312-.934-8.639-1.792-12.943-2.758-2.74-.615-4.065-2.878-3.465-5.77 1.348-6.497 2.731-12.986 4.081-19.483.312-1.5.567-3.001 1.917-4.002 1.062-.789 2.235-1.208 3.547-.943 4.431.898 8.854 1.84 13.283 2.748.54.11.516.338.372.778-.577 1.768-2.397 3.065-4.832 3.05z" fill="#fff"/><path d="m-1490.245 325.956c3.479.333 7.129 1.366 10.839 2.08.787.151.473.598.333.979-.721 1.963-2.967 3.169-5.155 2.766-1.968-.362-3.902-.907-5.9-1.111-5.144-.526-10.298 2.629-11.817 7.231-1.825 5.53 1.375 11.498 7.317 13.603 1.893.671 3.892.926 5.839 1.382 2.339.548 3.92 2.525 3.792 4.69-.034.576-.175.779-.799.639-3.146-.705-6.372-1.144-9.437-2.101-6.307-1.969-10.474-6.174-11.555-12.819-1.139-6.997 2.786-13.457 9.394-16.07 2.2-.871 4.48-1.301 7.149-1.269z" fill="#fff"/><path d="m-1541.312 319.807c-1.239-.255-2.776-.518-4.282-.906-.79-.203-.996.022-1.149.771-1.378 6.72-2.787 13.434-4.212 20.145-.482 2.27-2.327 3.737-4.499 3.728-.727-.003-.953-.189-.786-.963 1.149-5.328 2.255-10.667 3.375-16.001.549-2.613 1.08-5.229 1.664-7.834.167-.749.004-1.046-.788-1.165-1.281-.192-2.554-.476-3.809-.802-2.18-.567-3.566-2.485-3.44-4.595.038-.634.198-.808.874-.664 7.001 1.484 14.008 2.943 21.02 4.377.794.163.815.484.546 1.12-.685 1.612-2.464 2.814-4.514 2.789z" fill="#fff"/><path d="m-1473.474 254.689c-.105-.001-.211-.002-.317-.004.083-.384.166-.767.281-1.305.119.547.139.927.036 1.309z" fill="#811308"/><path d="m-1473.666 257.362c-.167-.098-.132-.183.016-.259.017.063.041.125.046.188.002.021-.04.047-.062.071z" fill="#811308"/><path d="m-1473.261 252.805-.02-.102-.042.094z" fill="#811308"/><path d="m-1563.14 274.837c.129.145 0 .224-.081.317.028-.104.054-.211.081-.317z" fill="#811308"/><path d="m-1563.016 276.616c.762 1.678 1.48 3.364 2.948 4.611 2.565 2.182 5.477 3.45 8.855 3.648 3.325.195 6.5-.312 9.441-1.935 2.18-1.202 4.024-2.747 4.96-5.157.094-.242.208-.484.521-.516.892 5.007-3.214 9.694-7.443 11.06-5.293 1.71-10.458 1.419-15.15-1.874-3.356-2.356-4.803-5.836-4.132-9.837z" fill="#811308"/><path d="m-1548.82 280.27c-2.155-.339-4.461-.894-6.708-1.642-1.07-.356-1.339-1.242-.835-2.254 1.289-2.589 2.603-5.166 3.922-7.74.555-1.083 1.5-1.565 2.67-1.392 1.058.156 2.129.382 3.125.762 2.267.867 2.801 3.397 1.183 5.285-.245.285-.686.466-.105.912 1.126.867 1.628 2.034 1.203 3.44-.447 1.478-1.635 2.138-3.034 2.479-.393.096-.81.089-1.421.15zm-.181-1.887c1.36.018 2.38-.674 2.408-1.545.034-1.08-.693-1.558-1.637-1.79-.647-.159-1.296-.311-1.944-.465-2.632-.626-2.632-.626-3.704 1.82-.03.068-.068.131-.103.197-.177.33-.132.552.274.648 1.655.395 3.308.797 4.706 1.135zm-.235-5.545c1.418.018 2.343-.652 2.472-1.6.116-.844-.497-1.487-1.716-1.805-1.857-.484-1.858-.484-2.703 1.294-.158.333-.305.671-.473.999-.181.355-.075.545.304.629.79.174 1.577.359 2.116.483z" fill="#fcf6f6"/><path d="m-1549.001 278.383c-1.398-.338-3.05-.74-4.706-1.134-.406-.097-.451-.319-.274-.648.035-.065.074-.129.104-.197 1.072-2.447 1.071-2.447 3.704-1.82.648.154 1.296.306 1.944.465.944.232 1.671.709 1.637 1.79-.029.869-1.049 1.562-2.409 1.544z" fill="#be1718"/><path d="m-1549.236 272.838c-.539-.124-1.326-.309-2.116-.483-.379-.083-.485-.274-.304-.629.168-.328.315-.666.473-.999.845-1.778.845-1.777 2.703-1.294 1.22.318 1.832.961 1.716 1.805-.13.948-1.053 1.617-2.472 1.6z" fill="#be1718"/></svg>