<svg enable-background="new 0 0 300 300" height="300" viewBox="0 0 300 300" width="300" xmlns="http://www.w3.org/2000/svg" xmlns:xlink="http://www.w3.org/1999/xlink"><linearGradient id="a"><stop offset="0" stop-color="#d39d04"/><stop offset=".4727" stop-color="#c06c11"/></linearGradient><linearGradient id="b" gradientUnits="userSpaceOnUse" x1="198.9521" x2="282.0507" xlink:href="#a" y1="171.8359" y2="202.0813"/><linearGradient id="c" gradientUnits="userSpaceOnUse" x1="68.2754" x2="124.4055" xlink:href="#a" y1="55.8208" y2="76.2505"/><linearGradient id="d" gradientUnits="userSpaceOnUse" x1="99.0605" x2="236.1823" xlink:href="#a" y1="226.4541" y2="276.3623"/><linearGradient id="e" gradientUnits="userSpaceOnUse" x1="3.1294" x2="137.4798" xlink:href="#a" y1="144.8462" y2="193.7457"/><linearGradient id="f" gradientUnits="userSpaceOnUse" x1="106.0171" x2="234.7924" y1="230.1719" y2="46.2617"><stop offset=".1636" stop-color="#fbf6c8"/><stop offset=".4848" stop-color="#facc00"/></linearGradient><path d="m292.724 171.094c-.26.12-.53.226-.809.314-.277.09-.564.163-.858.223-.296.06-.599.104-.911.131l-62.892 5.426-39.725 26.032 60.571-5.873c.301-.03.595-.074.879-.134.285-.06.562-.135.833-.225.269-.087.53-.19.78-.308.253-.115.496-.246.73-.388 14.051-8.531 28.1-17.064 42.15-25.596-.24.146-.49.279-.748.398z" fill="url(#b)"/><path d="m103.494 18.606c-.192-.855-.284-1.686-.287-2.487-.002-.799.087-1.565.262-2.291.172-.724.429-1.405.762-2.034.331-.629.739-1.205 1.214-1.718-10.909 11.79-21.818 23.576-32.725 35.364-.461.498-.856 1.053-1.182 1.659-.324.606-.576 1.26-.751 1.955-.174.694-.268 1.429-.275 2.192s.074 1.557.248 2.37l14.521 67.667 34.198-31.5z" fill="url(#c)"/><path d="m240.118 263.988c-.234.097-.473.184-.719.262-.245.076-.498.143-.753.2-.257.055-.519.101-.787.135l-65.557 8.456c-1.559.201-3.124.041-4.62-.425-1.499-.464-2.929-1.232-4.214-2.242-1.283-1.013-2.421-2.268-3.337-3.705-.914-1.437-1.606-3.057-1.997-4.797l-17.344-77.223-36.2 26.61 15.681 73.068c.354 1.646.994 3.172 1.852 4.526.856 1.352 1.928 2.531 3.145 3.477 1.214.948 2.573 1.662 3.998 2.089s2.919.564 4.412.363l62.878-8.598c.255-.035.508-.081.755-.136.246-.056.487-.122.726-.195.236-.075.466-.16.693-.255.225-.094.445-.197.658-.31 13.806-7.207 27.609-14.414 41.414-21.62-.223.116-.449.225-.684.32z" fill="url(#d)"/><path d="m68.064 190.925c-1.66.142-3.317-.071-4.892-.586-1.577-.512-3.068-1.324-4.397-2.371-1.33-1.046-2.495-2.329-3.417-3.784-.92-1.453-1.597-3.08-1.952-4.817l-15.094-73.99c-.192-.943-.273-1.866-.25-2.755.022-.889.147-1.745.365-2.556.218-.81.529-1.575.923-2.284.395-.707.874-1.356 1.427-1.937-10.234 10.745-20.468 21.49-30.704 32.233-.533.56-.995 1.183-1.377 1.86-.383.678-.688 1.408-.903 2.182-.214.773-.342 1.588-.372 2.433-.03.847.039 1.721.213 2.617l13.657 70.032c.32 1.642.949 3.175 1.812 4.543.863 1.37 1.959 2.572 3.214 3.55 1.254.979 2.667 1.729 4.162 2.199 1.494.468 3.071.656 4.654.503l69.457-6.736 36.2-26.61z" fill="url(#e)"/><path d="m297.305 162.015v-.007l-.002-.01c-.062-.734-.193-1.489-.396-2.256l-17.338-65.808c-.197-.744-.455-1.468-.768-2.163l-.001-.004-.004-.006c-.312-.694-.677-1.36-1.089-1.992-.824-1.268-1.831-2.397-2.956-3.333-.557-.464-1.143-.879-1.749-1.242l-.016-.012-.016-.007c-.607-.361-1.236-.669-1.878-.916-.647-.248-1.309-.434-1.974-.551-.665-.117-1.334-.164-1.999-.137l-62.227 2.618-16.804-68.382c-.364-1.487-.996-2.898-1.826-4.179-.415-.639-.879-1.248-1.385-1.814l-.002-.003-.003-.003c-.505-.567-1.051-1.095-1.629-1.576-1.159-.966-2.451-1.744-3.803-2.281-.678-.268-1.369-.475-2.068-.615l-.005-.001h-.003c-.7-.14-1.407-.211-2.112-.209l-63.342.276c-.747.004-1.461.084-2.133.233l-.008.001-.006.001c-.674.151-1.307.372-1.895.654-1.18.568-2.174 1.386-2.938 2.397-.764 1.013-1.297 2.219-1.552 3.557-.128.67-.187 1.374-.169 2.103.017.729.11 1.484.284 2.257l15.986 71.176-71.721 3.016c-1.637.069-3.128.47-4.425 1.137-.647.333-1.245.731-1.789 1.188l-.008.006-.006.007c-.544.458-1.032.972-1.458 1.538-.858 1.138-1.469 2.476-1.78 3.948-.155.736-.237 1.505-.234 2.299l-.001.003v.002c.001.795.083 1.614.254 2.45l15.094 73.99c.177.865.434 1.7.76 2.504l.003.012.006.009c.328.804.725 1.57 1.183 2.293.46.728.981 1.409 1.553 2.043l.003.004.006.005c.57.631 1.192 1.212 1.855 1.732 1.329 1.047 2.821 1.859 4.397 2.371 1.575.515 3.232.728 4.892.586l72.726-6.275 17.344 77.223c.192.861.461 1.691.793 2.486l.008.027.014.025c.334.792.73 1.547 1.183 2.258.456.717.969 1.389 1.527 2.006l.003.008.006.004c.558.617 1.161 1.183 1.801 1.688.638.5 1.312.943 2.012 1.317l.015.009.016.007c.701.374 1.427.68 2.172.909.747.231 1.511.388 2.281.461l.007.003h.01c.77.07 1.547.062 2.322-.039l65.557-8.456c.729-.094 1.418-.271 2.063-.519l.01-.002.01-.007c.644-.25 1.244-.571 1.796-.957s1.055-.836 1.506-1.338l.012-.012.011-.017c.448-.502.844-1.06 1.183-1.661.682-1.217 1.129-2.619 1.306-4.132.175-1.51.078-3.135-.33-4.799l-18.171-73.955 62.892-5.426c1.345-.117 2.543-.541 3.558-1.212 1.013-.668 1.843-1.579 2.454-2.667.303-.541.552-1.127.742-1.748l.003-.01.003-.009c.189-.622.32-1.278.388-1.965.065-.684.07-1.4.009-2.134z" fill="url(#f)"/><g fill="#d07500"><path d="m69.719 168.917-11.759-56.045 22.829-1.706c4.649-.347 8.497-.059 11.543.865 3.047.924 5.613 2.506 7.699 4.745 2.085 2.238 3.398 4.645 3.938 7.219.503 2.396.271 4.704-.697 6.925-.967 2.222-2.74 4.088-5.317 5.601 3.888.719 7.073 2.203 9.555 4.451 2.48 2.248 4.064 5.003 4.749 8.265.551 2.626.461 5.11-.27 7.456s-1.854 4.196-3.367 5.553c-1.515 1.355-3.542 2.445-6.081 3.269-2.539.825-5.746 1.381-9.62 1.671zm1.235-33.097 13.157-.983c3.57-.267 6.083-.675 7.543-1.224 1.93-.712 3.277-1.76 4.042-3.137s.941-3.046.53-5.01c-.39-1.859-1.218-3.461-2.483-4.803-1.266-1.343-2.852-2.207-4.76-2.595s-5.049-.419-9.42-.093l-12.163.908zm5.43 25.882 15.15-1.132c2.601-.194 4.409-.42 5.423-.678 1.79-.445 3.232-1.069 4.328-1.876 1.095-.806 1.901-1.922 2.418-3.347.516-1.423.587-3.025.213-4.811-.438-2.089-1.4-3.862-2.887-5.317-1.486-1.455-3.325-2.418-5.518-2.889-2.193-.47-5.226-.561-9.1-.271l-14.071 1.051z"/><path d="m130.368 75.892 11.61-57.792 8.675-.648 36.663 54.185-9.174.685-10.658-16.443-25.444 1.901-3.121 17.473zm12.73-24.327 20.629-1.542-9.607-15.047c-2.926-4.57-5.178-8.336-6.755-11.3-.021 3.652-.366 7.303-1.034 10.95z"/><path d="m196.533 253.235-10.371-49.432-20.048 1.497-1.388-6.613 48.231-3.604 1.388 6.613-20.131 1.504 10.371 49.433z"/><path d="m220.977 132.069c-1.83-8.722-.721-15.74 3.329-21.053s10.095-8.272 18.138-8.873c5.266-.394 10.256.411 14.972 2.413 4.714 2.001 8.616 4.992 11.704 8.972 3.088 3.979 5.184 8.598 6.286 13.854 1.118 5.328.95 10.182-.503 14.562-1.452 4.381-4.092 7.812-7.919 10.293-3.825 2.483-8.218 3.909-13.173 4.279-5.369.401-10.42-.435-15.148-2.508-4.73-2.074-8.619-5.096-11.665-9.067-3.048-3.97-5.055-8.261-6.021-12.872zm7.804-.474c1.328 6.332 4.224 11.182 8.685 14.549s9.479 4.842 15.058 4.425c5.682-.424 9.972-2.612 12.871-6.566 2.898-3.954 3.639-9.313 2.22-16.075-.897-4.277-2.466-7.951-4.704-11.024-2.239-3.072-5.054-5.375-8.444-6.904-3.391-1.531-6.968-2.156-10.729-1.875-5.345.399-9.587 2.433-12.729 6.103-3.145 3.669-3.887 9.459-2.228 17.367z"/></g></svg>