<svg height="20.762" viewBox="0 0 21.775 20.762" width="21.775" xmlns="http://www.w3.org/2000/svg"><path d="m17.161 9c.397-.388.308-.758-.148-.9-.008-.003-.012-.011-.02-.014-.068-.03-.174-.07-.328-.092l-4.053-.589c-.279-.04-.589-.184-.86-.379-.142-.104-.272-.221-.386-.345-.105-.117-.194-.241-.255-.365l-1.813-3.676c-.02-.04-.044-.07-.066-.107l-.019-.038c-.009-.018-.021-.023-.03-.04-.012-.015-.023-.032-.035-.046-.129-.208-.28-.333-.438-.333-.15 0-.294.119-.419.309-.01.011-.018.025-.027.036-.017.029-.039.041-.055.074l-.026.052c-.02.033-.041.053-.06.093l-1.814 3.674c-.062.126-.152.252-.259.371-.112.121-.239.236-.376.336-.274.199-.586.344-.867.385l-4.054.588c-.055.008-.119.033-.18.051s0 0-.001 0c-.05.015-.095.025-.142.048-.475.138-.572.513-.168.907l3.007 2.931c.431.422.699 1.233.622 1.842l-.687 4.005c-.004.025 0 .045-.002.068l-.022.133c-.077.446.094.708.404.708.118 0 .255-.038.407-.117l3.717-1.955c.276-.145.641-.216 1.003-.216.364 0 .729.072 1.004.216l3.718 1.955c.149.079.289.117.406.117.312 0 .481-.262.405-.708l-.03-.174c-.001-.012.002-.019 0-.03l-.682-3.962c-.093-.612.181-1.452.62-1.882zm-4.448 5.051.602 3.508-3.145-1.656c-.404-.213-.922-.331-1.46-.331-.535 0-1.052.118-1.458.331l-3.148 1.645.599-3.497c.16-.925-.228-2.119-.901-2.775l-2.54-2.483 3.513-.509c.929-.135 1.944-.872 2.36-1.716l1.565-3.214 1.584 3.212c.416.844 1.431 1.581 2.361 1.714l3.514.519-2.546 2.479c-.67.657-1.057 1.848-.9 2.773z" fill="#bba358"/></svg>