<?xml version="1.0" encoding="utf-8"?>
<!-- Generator: Adobe Illustrator 16.0.0, SVG Export Plug-In . SVG Version: 6.00 Build 0)  -->
<!DOCTYPE svg PUBLIC "-//W3C//DTD SVG 1.1//EN" "http://www.w3.org/Graphics/SVG/1.1/DTD/svg11.dtd">
<svg version="1.1" id="Layer_1" xmlns="http://www.w3.org/2000/svg" xmlns:xlink="http://www.w3.org/1999/xlink" x="0px" y="0px"
	 width="115.527px" height="115.488px" viewBox="0 0 115.527 115.488" enable-background="new 0 0 115.527 115.488"
	 xml:space="preserve">
<path fill-rule="evenodd" clip-rule="evenodd" fill="#FFFFFF" d="M77.032,76.973c0,0.713,0,1.293,0,1.873
	c0,6.31,0.043,12.619-0.014,18.929c-0.078,8.558-5.662,15.446-13.983,17.271c-1.335,0.293-2.733,0.415-4.103,0.418
	c-13.604,0.03-27.209,0.032-40.814,0.015c-10.365-0.014-18.068-7.659-18.093-17.995c-0.033-13.654-0.032-27.309,0-40.963
	c0.024-10.281,7.656-17.915,17.95-17.982c6.211-0.041,12.422-0.008,18.633-0.009c2.036,0,2.041-0.002,2.042-1.978
	c0.005-6.408-0.062-12.817,0.026-19.225C38.79,9.015,44.256,2.311,52.349,0.457c1.236-0.283,2.533-0.424,3.802-0.427
	C70.101,0,84.05-0.015,98,0.02c9.795,0.024,17.508,7.797,17.517,17.596c0.013,13.901,0.014,27.802,0,41.702
	c-0.009,9.668-7.405,17.316-17.08,17.516c-6.455,0.133-12.914,0.031-19.371,0.043C78.439,76.877,77.813,76.935,77.032,76.973z
	 M38.612,99.956c0.947-0.076,2.179-0.131,3.398-0.283c4.724-0.589,9.135-1.994,12.805-5.174c2.085-1.806,2.316-4.703,0.619-6.75
	c-1.655-1.997-4.442-2.283-6.625-0.681c-6.109,4.484-14.496,4.461-20.598-0.043c-1.613-1.19-3.364-1.373-5.134-0.417
	c-1.699,0.917-2.55,2.383-2.529,4.349c0.024,2.328,1.577,3.637,3.242,4.814C28.142,98.849,33.132,99.767,38.612,99.956z
	 M77.105,61.574c1.454-0.126,2.724-0.182,3.979-0.354c4.459-0.61,8.628-1.979,12.133-4.929c2.316-1.948,2.626-4.777,0.831-6.926
	c-1.725-2.065-4.491-2.152-6.896-0.554c-1.606,1.067-3.433,1.881-5.265,2.502c-1.499,0.509-3.151,0.562-4.782,0.826
	C77.105,55.217,77.105,58.253,77.105,61.574z M49.562,68.849c0.016,3.215,2.768,5.926,5.966,5.875
	c3.188-0.05,5.797-2.675,5.823-5.861c0.027-3.224-2.674-5.957-5.883-5.953C52.251,62.913,49.546,65.634,49.562,68.849z
	 M27.324,68.813c-0.004-3.24-2.708-5.937-5.921-5.904c-3.157,0.031-5.818,2.686-5.854,5.84c-0.037,3.221,2.637,5.946,5.864,5.977
	C24.633,74.756,27.329,72.06,27.324,68.813z M88.231,30.146c-0.011,3.281,2.603,5.931,5.853,5.933
	c3.238,0.002,5.89-2.672,5.881-5.928c-0.009-3.197-2.591-5.791-5.805-5.832C90.863,24.275,88.242,26.852,88.231,30.146z
	 M54.22,30.226c0.019,3.27,2.681,5.898,5.927,5.853c3.233-0.046,5.845-2.749,5.801-6.008c-0.042-3.178-2.674-5.75-5.885-5.752
	C56.771,24.316,54.201,26.914,54.22,30.226z"/>
</svg>
