<svg enable-background="new 0 0 115.527 115.488" height="115.488" viewBox="0 0 115.527 115.488" width="115.527" xmlns="http://www.w3.org/2000/svg"><path clip-rule="evenodd" d="m77.032 76.973v1.873c0 6.31.043 12.619-.014 18.929-.078 8.558-5.662 15.446-13.983 17.271-1.335.293-2.733.415-4.103.418-13.604.03-27.209.032-40.814.015-10.365-.014-18.068-7.659-18.093-17.995-.033-13.654-.032-27.309 0-40.963.024-10.281 7.656-17.915 17.95-17.982 6.211-.041 12.422-.008 18.633-.009 2.036 0 2.041-.002 2.042-1.978.005-6.408-.062-12.817.026-19.225.114-8.312 5.58-15.016 13.673-16.87 1.236-.283 2.533-.424 3.802-.427 13.95-.03 27.899-.045 41.849-.01 9.795.024 17.508 7.797 17.517 17.596.013 13.901.014 27.802 0 41.702-.009 9.668-7.405 17.316-17.08 17.516-6.455.133-12.914.031-19.371.043-.627 0-1.253.058-2.034.096zm-38.42 22.983c.947-.076 2.179-.131 3.398-.283 4.724-.589 9.135-1.994 12.805-5.174 2.085-1.806 2.316-4.703.619-6.75-1.655-1.997-4.442-2.283-6.625-.681-6.109 4.484-14.496 4.461-20.598-.043-1.613-1.19-3.364-1.373-5.134-.417-1.699.917-2.55 2.383-2.529 4.349.024 2.328 1.577 3.637 3.242 4.814 4.352 3.078 9.342 3.996 14.822 4.185zm38.493-38.382c1.454-.126 2.724-.182 3.979-.354 4.459-.61 8.628-1.979 12.133-4.929 2.316-1.948 2.626-4.777.831-6.926-1.725-2.065-4.491-2.152-6.896-.554-1.606 1.067-3.433 1.881-5.265 2.502-1.499.509-3.151.562-4.782.826zm-27.543 7.275c.016 3.215 2.768 5.926 5.966 5.875 3.188-.05 5.797-2.675 5.823-5.861.027-3.224-2.674-5.957-5.883-5.953-3.217.003-5.922 2.724-5.906 5.939zm-22.238-.036c-.004-3.24-2.708-5.937-5.921-5.904-3.157.031-5.818 2.686-5.854 5.84-.037 3.221 2.637 5.946 5.864 5.977 3.22.03 5.916-2.666 5.911-5.913zm60.907-38.667c-.011 3.281 2.603 5.931 5.853 5.933 3.238.002 5.89-2.672 5.881-5.928-.009-3.197-2.591-5.791-5.805-5.832-3.297-.044-5.918 2.533-5.929 5.827zm-34.011.08c.019 3.27 2.681 5.898 5.927 5.853 3.233-.046 5.845-2.749 5.801-6.008-.042-3.178-2.674-5.75-5.885-5.752-3.292-.003-5.862 2.595-5.843 5.907z" fill="#fff" fill-rule="evenodd"/></svg>