<svg height="183.74667" viewBox="0 0 884.91998 183.74667" width="884.91998" xmlns="http://www.w3.org/2000/svg"><g fill="#c7282a" transform="matrix(.13333333 0 0 -.13333333 0 183.74667)"><path d="m5690.52 595.32-259.71 782.77h-733.93c-16.5 0-29.04-10.23-36.63-26.41l-134.3-292.7c-7.27-16.5-3.97-29.37 12.53-29.37h117.15c55.79 0 87.78-32.34 87.78-87.79l.66-917.3981c0-13.5313 10.9-24.4219 24.44-24.4219h347.14c13.53 0 24.42 10.8906 24.42 24.4219v964.9181c0 9.25 10.56 16.5 19.47 16.5l-.32-.32c9.23 0 17.48-6.93 20.46-16.18l320.43-971.5197c3.3-10.23046 14.18-17.8203 25.08-17.8203h338.58c10.89 0 21.77 7.58984 25.08 17.8203l312.51 971.5197c2.96 9.25 11.21 16.18 20.46 16.18l-.34.32c8.91 0 19.47-7.25 19.47-16.5v-964.9181c0-13.5313 10.9-24.4219 24.43-24.4219h347.15c13.53 0 24.41 10.8906 24.41 24.4219v1353.6681h-686.73z"/><path d="m3872.88 997.27c2.96 9.23 11.21 16.16 20.46 16.16l3.29.34 3.3-.34c9.25 0 17.5-6.93 20.46-16.16l180.18-420.434c5.94-13.859 1.32-22.422-12.53-22.422h-382.81c-13.85 0-18.47 8.563-12.53 22.422zm-807.18-997.27h379.5l95.03 221.77h712.81l95.03-221.77h379.5c13.53 0 24.43 10.8906 24.43 24.4219l-590.06 1353.6681h-740.17c-16.51 0-29.06-10.23-36.64-26.41l-134.31-292.7c-7.25-16.5-3.96-29.37 12.54-29.37h93.4c55.76 0 87.78-32.34 87.78-87.79l-403.27-917.3981c0-13.5313 10.89-24.4219 24.43-24.4219"/><path d="m2139.05 364.332c-13.53 0-24.43 10.879-24.43 24.418v616.43c0 13.53 10.9 24.43 24.43 24.43h505.56c55.44 0 87.78-32.34 87.78-87.79v-489.711c0-55.449-32.34-87.777-87.78-87.777zm707.86-364.332c154.77 0 265.64 110.891 265.64 265.66v846.77c0 154.77-110.87 265.66-265.64 265.66h-1174.8c-16.5 0-29.04-10.23-36.65-26.41l-134.3-292.7c-7.25-16.5-3.96-29.37 12.54-29.37h117.16c55.43 0 87.77-32.34 87.77-87.79v-917.3981c0-13.5313 10.89-24.4219 24.42-24.4219z"/><path d="m831.586 997.27c2.984 9.23 11.234 16.16 20.465 16.16l3.304.34 3.305-.34c9.235 0 17.485-6.93 20.449-16.16l180.181-420.434c5.94-13.859 1.32-22.422-12.54-22.422h-382.801c-13.859 0-18.484 8.563-12.539 22.422zm-807.1758-997.27h379.4998l95.039 221.77h712.801l95.04-221.77h379.5c13.53 0 24.42 10.8906 24.42 24.4219l-590.03 1353.6681h-740.196c-16.5 0-29.035-10.23-36.629-26.41l-134.32-292.7c-7.25-16.5-3.949-29.37 12.555-29.37h93.375c55.785 0 87.789-32.34 87.789-87.79l-403.254-917.3981c0-13.5313 10.875-24.4219 24.4102-24.4219"/></g></svg>