<svg height="154.10434pt" preserveAspectRatio="xMidYMid meet" viewBox="0 0 1181.1 138.6939" width="1312.3334pt" xmlns="http://www.w3.org/2000/svg"><g transform="matrix(.1 0 0 -.1 -35.799999 178.87443)"><path d="m8887.9997 1785c-4.0001-4-166.0001-7-361.0001-6l-352.9999 2-33-98c-55.0001-162-63-183-76-183-6 0-36 62-66 138l-53.9999 137-659.0001 3c-481.9999 1-661.9999-1-666.9999-9-5.0001-9-23.0001-9-71.0001 0-45 8-381.9999 11-1110.9999 11h-1046.9999v-95c0-52-3-95-7.0001-95-4.9999 1-37 43-72 95l-64 95h-492.9999-494.0001l-72-107-72.9999-108-3 108-3 107h-284-284.9999v-34-34l-52.0001 20c-108 41-183 47-577.9999 47h-375l-113.0001-159-112.9999-160h-208.0001-208.99993l-266.99999-373-266.99999-372 205.99999-3c113-1 205.99999-5 205.99999-7 0-3-40-62-89.99999-131-49-69-90-127-90-130 0-2 154.99999-4 343.99999-4h343.99993l73.0001 102c40.9999 56 79.9999 103 87 106 9 3 12-22 12-102v-106h374.9999c410 0 532.0001 9 643.0001 46 39.9999 13 75 24 76.9999 24 3 0 5-16 5-35v-35h248l247 1 73.9999 117c80.0001 126 99 152 113.0001 152 3.9999 0 8-61 8-135v-135h544.9999 545.0001v113c.9999 130-5.0001 131 93-22l57.9999-91h434 434l3 59 3 60 57-39c92-61 158-82 279-88 81-3 119 0 164 12 41 12 61 14 68 7 8-8 255.9999-11 804-11h792.9999v125 125h54c29.0001 0 81 3 114 6l61 7 15-34c8-19 33-83 54-144l40.0001-110 497.9998-4c631.0001-5 708-5 1049.0001 0l279.9999 4 3 28c4 30 16 30 72 2 61-31 181-48 294.0004-42 106 5 157 16 238 51 48 20 45.999 21 49.999-12l3.001-27 273-3 271.999-2v122c0 143-4.999 144 95-14l67.001-108h228.999 229.001v155 155h48 47l81 108c44.999 59 172 226 282 372l201 265-329 3-330 2v155 155l-272.001-2-272.999-3-5.001-105-5-105-74.999 105-75.001 105h-229.999-230l-3.001-28c-2.999-23-6.999-27-19.999-21-114 50-156.001 58-307 58-153.0004 0-179.0004-5-307.0003-59-13.0001-5-17.0001 0-20.0001 22l-3 28-279.9999 3c-154.0001 2-332.0001 6-395.0001 9s-117.9999 2-121.9999-2z" fill="#fff"/><path d="m8887.9997 1785c-4.0001-4-166.0001-7-361.0001-6l-352.9999 2-33-98c-55.0001-162-63-183-76-183-6 0-36 62-66 138l-53.9999 137-659.0001 3c-481.9999 1-661.9999-1-666.9999-9-5.0001-9-23.0001-9-71.0001 0-45 8-381.9999 11-1110.9999 11h-1046.9999v-95c0-52-3-95-7.0001-95-4.9999 1-37 43-72 95l-64 95h-492.9999-494.0001l-72-107-72.9999-108-3 108-3 107h-284-284.9999v-34-34l-52.0001 20c-108 41-183 47-577.9999 47h-375l-113.0001-159-112.9999-160h-208.0001-208.99993l-266.99999-373-266.99999-372 205.99999-3c113-1 205.99999-5 205.99999-7 0-3-40-62-89.99999-131-49-69-90-127-90-130 0-2 154.99999-4 343.99999-4h343.99993l73.0001 102c40.9999 56 79.9999 103 87 106 9 3 12-22 12-102v-106h374.9999c410 0 532.0001 9 643.0001 46 39.9999 13 75 24 76.9999 24 3 0 5-16 5-35v-35h248l247 1 73.9999 117c80.0001 126 99 152 113.0001 152 3.9999 0 8-61 8-135v-135h544.9999 545.0001v113c.9999 130-5.0001 131 93-22l57.9999-91h434 434l3 59 3 60 57-39c92-61 158-82 279-88 81-3 119 0 164 12 41 12 61 14 68 7 8-8 255.9999-11 804-11h792.9999v125 125h54c29.0001 0 81 3 114 6l61 7 15-34c8-19 33-83 54-144l40.0001-110 497.9998-4c631.0001-5 708-5 1049.0001 0l279.9999 4 3 28c4 30 16 30 72 2 61-31 181-48 294.0004-42 106 5 157 16 238 51 48 20 45.999 21 49.999-12l3.001-27 273-3 271.999-2v122c0 143-4.999 144 95-14l67.001-108h228.999 229.001v155 155h48 47l81 108c44.999 59 172 226 282 372l201 265-329 3-330 2v155 155l-272.001-2-272.999-3-5.001-105-5-105-74.999 105-75.001 105h-229.999-230l-3.001-28c-2.999-23-6.999-27-19.999-21-114 50-156.001 58-307 58-153.0004 0-179.0004-5-307.0003-59-13.0001-5-17.0001 0-20.0001 22l-3 28-279.9999 3c-154.0001 2-332.0001 6-395.0001 9s-117.9999 2-121.9999-2zm252-70c28.9999-10 46-12 47.9999-5 2 6 80 10 223.0001 10h219v-50c0-27 3-50 6-50s18.9999 9 33.9999 20c49 35 135 68 221.0001 86 142.0003 29 296.0003 6 431.0003-62 24.999-13 49-28 53-34 13.999-23 25-7 25 40v50h189 189l103.999-147c57.001-82 110.001-148 118.001-148 13 0 14.999 25 18 148l3 147h219 219.999v-150-150h300c165.001 0 300-2 300-5s-94.999-130-210.999-283c-116-152-225.001-296-243.001-319-30-41-33-42-87.999-43h-58.001v-150-150l-192 2-191.999 3-93 145c-74 116-98 146-118.001 148l-25 3v-150-151h-220-219.999v50c0 28-2.001 50-5 50-3 0-26-13-52-29-27.001-16-84-42-128-57-70.001-25-95.001-28-200-28-105.0004 0-130.0003 3-200.0004 28-43.9999 15-100.9999 41-127.9999 57-26.0001 16-49.0001 29-52.0001 29s-4.9999-22-4.9999-50v-50h-219c-143.0001 0-221.0001 4-223.0001 10-1.9999 7-19.9999 5-47.9999-6-70.0001-27-239-24-310.0001 4-64.9999 26-60 25-60 7 0-13-30.9999-15-219.9999-15h-220l-1.0001 93-.9999 92-29.0001-93-30-92h-186.9999-187l-50 140-49.9999 140h-162-163.0001v-125-125h-488.9999-489l-38 56-39 57-3-57-3-56h-214-215v26c0 17-4 24-12 21-98-43-147-58-210-63-173-15-339 60-427 193l-31 46v-111-112h-397l-398 1-81 127c-72.9999 115-83 127-111.9999 130l-32.0001 3v-130-131h-495-495v130 130h-52.9999-53l-83.0001-130-82.9999-130h-209-208.9999v54 53l-78-38c-129-65-165-69-619.0001-69h-403v130 130h-28.9999c-26 0-40.0001-14-123-130l-93-130h-277.00004c-152.99999 0-277.99998 2-277.99998 5s39.99999 61 89.99999 130l90 125-209.99999 2-208.99999 3 214.99999 300c118.99999 165 220.99999 307 227.99999 317 14 20 81 26 291.00003 28l150 1 109.9999 157 111 157 324 3c425.0001 4 528-10 659.0001-88l51-29v59 60l227.9999-2 227-3 3-152c2-113 6-153 15-153 6 0 57.9999 70 114 155l102.9999 155h463 463.0001l103.9999-150c57-83 108-149 114-147 7.0001 2 12 55 13.0001 148l.9999 144 621 3 621 2v-143c0-142 0-144 23-143 21 1 22 4 27 141l5 140h385c389 0 426.9999-3 522-40 12-5 17 0 20 17l3 23 304.9999 2c168 2 446.0001-1 619-5l314-7 50-132 50-133h52 53l44 133 45 132 280.9999 3c278.0001 2 282 2 282-18s1.0001-20 30-5c89.0001 46 243 55 340.0001 20z" fill="#293789" stroke-width=".999997"/><path d="m7470 1542v-82h35 35l-27 73c-14 39-30 76-35 82-4 5-8-27-8-73zm-1200-268v-177l98 5c156 8 228 54 239 153 7 58-11 108-52 144-45 39-91 51-197 51h-88zm-4220-163v-341h78c222 1 327 51 388 185 79 175 4 393-161 466-41 19-73 24-177 27l-128 4zm-501 89-95-145 94-3c52-1 96-1 99 1 2 2 2 69 1 148l-3 144zm8354 241c-102-35-161-91-211-199-22-48-26-72-26-147-1-81 2-97 31-157 38-81 97-142 172-177 48-22 70-26 146-26 82 0 97 3 157 33 78 38 120 82 161 170 95 203-8 445-217 507-66 20-149 18-213-4zm-990 229c-58-12-122-46-165-88l-38-36v57 57h-228-228l-45-137-45-138-95-3-95-3-54 141-53 140h-163c-93 0-164-4-164-9s18-60 40-121 40-116 40-121-47-9-105-9h-105v130 130h-335-335v-50c0-27-3-50-6-50s-21 12-39 26c-19 14-58 35-87 47-51 21-70 22-430 25l-378 3v-140-141h-85-85v140 140h-560-559l-3-142-3-143h-59-59l-100 143-100 142h-433-434l-100-150-100-150h-66-65l3 150 3 150h-167-168v-96-96l-60 55c-32 30-84 67-114 81-108 51-152 56-536 56h-355l-110-155c-60-85-116-156-124-156-9-1-106-4-215-8l-200-6-183-255-182-255 204-3c113-1 205-5 205-8s-38-59-85-125-85-122-85-125c0-2 91-3 202-2l202 3 90 127 91 127 78 1h77v-131-130l393 3c344 4 399 6 447 22 88 29 149 64 207 118l53 51v-97-96h160 160l85 130 85 130h100 100v-130-130h430 430v130 130h83 82l84-130 83-130h139 139v130 130h55 55v-130-130h150 150v130 130h49 48l32-64c113-230 441-285 635-106l46 43v-67-66h155 154l3 121 3 120 85-120 85-120 443-1h442v125 125h214 214l16-42c9-24 32-86 50-138l34-95h143 143l45 138 45 137h43 43v-140-140h155 155v45 45l50-34c73-50 141-70 235-70 88 1 165 25 226 69l34 26 3-41 3-40h155 154v91 91l40-36c115-104 250-158 395-160 50 0 115 5 145 13 83 20 190 76 254 132l56 51v-91-91h155 155v150 150h78l77-1 94-149 95-150h138 137l3 153 3 152 77 3 78 3 191 252 191 252-103 6c-57 4-179 7-271 8l-168 1v150 150h-155-155v-150-150h-63-62l-105 150-105 150h-142-143v-92-92l-42 41c-106 103-244 157-403 157-159-1-279-46-393-149l-52-47v91 91h-155-155v-40c0-22-3-40-6-40s-21 12-39 26c-72 55-208 84-302 64zm169-90c88-25 172-128 180-220l3-35-71-3-71-3-6 39c-20 121-195 138-241 22-20-50-20-54 0-96 17-35 76-69 185-108 84-30 151-78 184-130 27-44 30-60 33-140 4-87 2-94-30-156-56-108-149-156-283-148-79 5-135 29-186 80-37 38-74 114-84 176l-7 42h75 74l6-42c11-82 76-132 160-125 89 8 141 71 134 165-5 74-33 100-165 151-195 77-247 135-247 276 0 90 19 136 77 192 68 66 180 90 280 63zm1069-6c141-42 254-138 317-271 37-77 37-79 37-208v-130l-39-80c-87-179-256-285-451-285-169 0-321 81-414 221-186 278-41 667 280 753 73 20 203 20 270 0zm-8341-464v-470h-80-79l-3 133-3 132-137 3-138 3-75-103c-136-186-113-168-214-168-48 0-90 3-93 6s67 107 156 232 237 334 330 465l169 237h84 83zm543 450c139-35 221-103 283-233 110-233 29-522-174-626-80-41-149-52-354-58l-198-6v472 471h183c150 0 198-4 260-20zm559-322 3-342 225 340 225 339h275 275l3-62 3-63h-176-175v-135-135h175 176l-3-62-3-63-173-3-173-2 3-138 3-137 173-3 173-2-3-63-3-62h-235-235l-5 389-5 388-250-388-250-389-91-3-91-3-8 460c-4 253-4 464 0 470 3 6 39 11 85 11h80zm1452 21 221-316 3 318 2 319h70 70v-470-470h-69-68l-229 356-229 357-5-354-5-354h-65-65l-3 468-2 468 76-3 77-3zm966 256v-65h-90-90l-2-402-3-403h-65-65l-3 403-2 402h-90-90v65 65h250 250zm212-282c3-316 5-351 22-386 28-56 69-81 142-85 75-5 113 12 152 70l27 41 3 354 3 353h70 70l-3-362c-3-355-4-364-26-413-50-108-139-166-267-173-66-3-91 0-139 18-75 28-137 85-167 153-24 51-24 58-27 415l-3 362h70 70zm1020 328c62-20 120-71 153-136 27-52 30-68 30-149 0-82-3-96-30-145-36-66-79-99-161-126l-63-20 124-165c69-91 125-168 125-172 0-14-158-9-172 5-7 8-76 102-153 211l-140 197-5-208-5-208h-70-70l-3 455c-1 250 0 461 3 468 4 11 44 13 203 9 112-2 213-9 234-16zm768-46v-65h-185-185v-135-135h185 185v-65-65h-185-186l3-137 3-138 183-3 183-2-3-63-3-62h-250-250l-3 468-2 467h255 255zm3598-266 232-331 2 329 3 328h70 70v-479-478h-73c-41 0-75 2-76 4-2 1-106 164-232 362l-229 359-5-363-5-362h-70-70l-3 468c-1 258 0 475 3 482 3 8 28 12 78 12h74zm-2984-31c72-191 134-344 137-340 4 4 58 161 120 350l114 342h77c43 0 78-3 78-7 0-5-69-217-153-473l-153-465h-84-85l-27 75c-14 41-88 246-163 455s-139 388-142 398c-5 16 1 18 72 15l77-3zm676-123v-475h-70-70v475 475h70 70zm870 0v-475h-75-75v475 475h75 75z" fill="#e4150e"/></g></svg>