<svg height="48.77552mm" viewBox="0 0 161.12752 48.774904" width="161.12955mm" xmlns="http://www.w3.org/2000/svg" xmlns:xlink="http://www.w3.org/1999/xlink"><linearGradient id="a" gradientUnits="userSpaceOnUse" x1="291.869766" x2="291.869766" y1="11.23434" y2="188.620676"><stop offset="0" stop-color="#d4bf03"/><stop offset=".22002029" stop-color="#fff9c0"/><stop offset=".29239172" stop-color="#fff9c0"/><stop offset=".64222145" stop-color="#c5b105"/><stop offset=".79888725" stop-color="#9f8401"/><stop offset="1" stop-color="#fff9c0"/></linearGradient><linearGradient id="b" gradientUnits="userSpaceOnUse" x1="337.068175" x2="337.068175" y1="21.960575" y2="156.374509"><stop offset="0" stop-color="#0a1b22"/><stop offset=".31572422" stop-color="#5bf1f5"/><stop offset=".42411202" stop-color="#59ecf2"/><stop offset=".82930082" stop-color="#0a1b21"/><stop offset="1" stop-color="#0a1b21"/></linearGradient><linearGradient id="c" gradientTransform="matrix(1.0000126 0 0 .99255338 4.968811 5.425779)" gradientUnits="userSpaceOnUse" x1="332.09518" x2="332.09518" y1="16.639029" y2="151.05127"><stop offset="0" stop-color="#0a1b22"/><stop offset=".31572422" stop-color="#5bf1f5"/><stop offset=".52571917" stop-color="#47bec3"/><stop offset=".85440695" stop-color="#0a1b21"/><stop offset="1" stop-color="#0a1b21"/></linearGradient><g transform="translate(-23.413086 -80.207528)"><text fill="#ef00eb" font-family="TrasksHand" font-size=".52916" stroke="#0105ff" stroke-width=".66145" x="110.63311" y="113.80994"><tspan fill="#fafafa" fill-opacity=".4" font-size=".52916" stroke="none" stroke-width=".66145" x="110.63311" y="113.80994">John Loreth 2022</tspan></text><g transform="matrix(.26457999 0 0 .26457999 23.413086 80.207528)"><path d="m368.39453 0a18.961711 19.421493 0 0 0 -12.57422 5.8027344c-10.36526-3.9683767-21.76091-6.32625382-34.06836-4.91406252-11.92138 1.18406942-23.39138 6.33213892-33.01757 14.49804712a18.961711 19.421493 0 0 0 -17.08008-12.2441409h-44.04297a18.961711 19.421493 0 0 0 -18.03711 13.4335939l-9.68945 30.634766-9.91797-30.195313a18.961711 19.421493 0 0 0 -17.97071-13.2246094h-44.17968a18.961711 19.421493 0 0 0 -18.95899 19.4179684v6.65625a18.961711 19.421493 0 0 0 14.53125 18.203125v49.855469l-26.962889-80.703125a18.961711 19.421493 0 0 0 -.173828-.501953c-.911029-2.500718-1.793437-5.12487-4.935547-8.8007812-3.142109-3.6759112-12.475135-8.84017588-20.640625-6.5878907-8.157728 2.2501357-10.767272 6.906451-12.474609 9.6308599-1.707338 2.724408-2.525626 4.853249-3.296875 7.007812a18.961711 19.421493 0 0 0 -.06055.171875l-41.462888 119.287105a18.961711 19.421493 0 0 0 -13.380859 18.48047v5a18.961711 19.421493 0 0 0 18.958984 19.41992h36.875a18.961711 19.421493 0 0 0 12.048828-5.22851 18.961711 19.421493 0 0 0 11.757813 4.93555h51.320315l34.63867.14648a18.961711 19.421493 0 0 0 11.11328-4.20703 18.961711 19.421493 0 0 0 12.05469 5.02148h3.83398a18.961711 19.421493 0 0 0 11.77149-4.59375 18.961711 19.421493 0 0 0 10.89453 4.05274h56.53906a18.961711 19.421493 0 0 0 16.27734-9.56641c8.31445 5.69046 18.11584 9.97935 29.22657 12.20313a18.961711 19.421493 0 0 0 .60937.11328c21.57029 3.57393 47.04403-3.45633 65.04883-25.22461 12.18389 14.8114 31.51908 27.57859 55.33594 26.27734 15.77296-.86177 28.79939-6.48534 39.16406-14.04492a18.961711 19.421493 0 0 0 16.72656 10.88672h91.73633a18.961711 19.421493 0 0 0 18.87695-17.61523l4.10352-45.09961a18.961711 19.421493 0 0 0 -18.87695-21.222661h-3.94141a18.961711 19.421493 0 0 0 -6.24219 2.027344l-.11133-14.054687 1.55665.107422a18.961711 19.421493 0 0 0 20.21679-19.376954v-42.386718a18.961711 19.421493 0 0 0 -18.95898-19.4199222h-88.5918a18.961711 19.421493 0 0 0 -16.67773 10.7070312c-11.07788-8.1500563-24.64459-13.7334952-40.06446-13.6542969-16.8724.0866588-32.36661 6.1092493-44.81054 16.0058599a18.961711 19.421493 0 0 0 -18.35743-17.117188zm68.76953 45.787109a11.788762 46.633987 0 0 1 11.8086 46.527344l-11.78907.105469h11.78907a11.788762 46.633987 0 0 1 -11.78125 46.634768 11.788762 46.633987 0 0 1 -11.79688-46.582034 11.788762 46.633987 0 0 1 11.76953-46.685547zm-99.99218 5.310547c2.517.07219 2.86758.907522 4.76757 3.238282 2.53333 3.107679 5.85596 10.577834 8.60157 20.300781a18.961711 19.421493 0 0 0 12.66601 12.808593v20.955078c0 .78098.0881 1.55794.11719 2.33789-4.04476 1.70352-7.84211 4.82059-9.8457 7.92188-2.31306 3.58027-5.93245 8.21832-9.625 11.15625-3.58469 2.85209-6.37989 4.00751-9.87305 3.82421-1.63607-.22381-3.83752-1.39414-7.11524-8.58984-3.39099-7.44439-5.7877-19.58226-5.79882-31.76953-.0111-12.187272 2.3406-24.490149 5.81836-32.330078 3.29964-7.43841 6.04219-9.311695 7.94921-9.746094.85718-.05583 1.75705-.124082 2.3379-.107422z" fill="#968a40" opacity=".98"/><path d="m368.39453.36328125a18.961711 18.961711 0 0 0 -12.57422 5.66796875c-10.36526-3.8744299-21.76091-6.17954053-34.06836-4.8007812-11.92138 1.1560379-23.39138 6.1836605-33.01757 14.1562502a18.961711 18.961711 0 0 0 -17.08008-11.9531252h-44.04297a18.961711 18.961711 0 0 0 -18.03711 13.1152342l-9.68945 29.908203-9.91797-29.478515a18.961711 18.961711 0 0 0 -17.97071-12.9121098h-44.17968a18.961711 18.961711 0 0 0 -18.95899 18.9589848v6.498047a18.961711 18.961711 0 0 0 14.53125 17.771484v48.673828l-26.962889-78.791016a18.961711 18.961711 0 0 0 -.173828-.490234c-.911029-2.441516-1.793437-5.002909-4.935547-8.5917969-3.142109-3.5888882-12.475135-8.63060552-20.640625-6.4316406-8.157728 2.1968663-10.767272 6.7424326-12.474609 9.4023435-1.707338 2.659911-2.525626 4.738241-3.296875 6.841797a18.961711 18.961711 0 0 0 -.06055.167969l-41.462888 116.460938a18.961711 18.961711 0 0 0 -13.380859 18.04297v4.88476a18.961711 18.961711 0 0 0 18.958984 18.95899h36.875a18.961711 18.961711 0 0 0 12.048828-5.10352 18.961711 18.961711 0 0 0 11.757813 4.81836h51.320315l34.63867.14258a18.961711 18.961711 0 0 0 11.11328-4.10742 18.961711 18.961711 0 0 0 12.05469 4.90234h3.83398a18.961711 18.961711 0 0 0 11.77149-4.48437 18.961711 18.961711 0 0 0 10.89453 3.95703h56.53906a18.961711 18.961711 0 0 0 16.27734-9.33985c8.31445 5.55574 18.11584 9.74294 29.22657 11.91407a18.961711 18.961711 0 0 0 .60937.10937c21.57029 3.48933 47.04403-3.37597 65.04883-24.6289 12.18389 14.46076 31.51908 26.92669 55.33594 25.65625 15.77296-.84137 28.79939-6.33033 39.16406-13.71094a18.961711 18.961711 0 0 0 16.72656 10.6289h91.73633a18.961711 18.961711 0 0 0 18.87695-17.19921l4.10352-44.03321a18.961711 18.961711 0 0 0 -18.87695-20.718748h-3.94141a18.961711 18.961711 0 0 0 -6.24219 1.978516l-.11133-13.720703 1.55665.103516a18.961711 18.961711 0 0 0 20.21679-18.917969v-41.382813a18.961711 18.961711 0 0 0 -18.95898-18.958984h-88.5918a18.961711 18.961711 0 0 0 -16.67773 10.453125c-11.07788-7.957113-24.64459-13.4093546-40.06446-13.3320312-16.8724.0846072-32.36661 5.964634-44.81054 15.6269532a18.961711 18.961711 0 0 0 -18.35743-16.71289075zm68.76953 44.70312475a11.788762 45.52998 0 0 1 11.8086 45.427735l-11.78907.101562h11.78907a11.788762 45.52998 0 0 1 -11.78125 45.531247 11.788762 45.52998 0 0 1 -11.79688-45.478512 11.788762 45.52998 0 0 1 11.76953-45.582032zm-99.99218 5.185547c2.517.07048 2.86758.886528 4.76757 3.162109 2.53333 3.034109 5.85596 10.327546 8.60157 19.820313a18.961711 18.961711 0 0 0 12.66601 12.505859v20.457036c0 .76249.0881 1.52171.11719 2.2832-4.04476 1.66319-7.84211 4.70651-9.8457 7.73437-2.31306 3.49552-5.93245 8.02421-9.625 10.89258-3.58469 2.78458-6.37989 3.91138-9.87305 3.73242-1.63607-.21851-3.83752-1.36137-7.11524-8.38672-3.39099-7.26815-5.7877-19.11687-5.79882-31.01562-.0111-11.898752 2.3406-23.910126 5.81836-31.564453 3.29964-7.262314 6.04219-9.09151 7.94921-9.515625.85718-.05451 1.75705-.121735 2.3379-.105469z" fill="url(#a)" opacity=".98"/><path d="m437.31641 20.408203c-30.54045.153145-55.15039 25.312662-55.15039 55.853516v29.935551c0 19.07513 20.52564 56.97473 55.1289 55.1289 45.47419-2.42569 55.12696-49.29906 55.12696-55.1289v-29.935551c0-22.587804-22.98963-56.014564-55.10547-55.853516zm-.48829 8.992188c19.64507 0 25.69532 27.319616 25.69532 61.021484 0 46.974565-11.50418 61.023395-25.69532 61.023435-14.19117 0-25.69531-15.116-25.69531-61.023435 0-33.701875 6.92991-61.021484 25.69531-61.021484z" fill="url(#b)"/><path d="m368.39453 19.322266c.31257 6.954598-2.01678 10.398549-7.49414 9.658203-11.71547-6.449066-23.91516-10.425917-37.19141-8.90625-23.71872 2.199822-48.53966 31.093416-50.45703 67.861328.55993 34.663903 9.21664 64.062423 47.69532 71.525393 18.528 2.97481 36.12068-1.35917 50.75781-21.80469l.42773-11.64063s-1.81498-1.67973-2.84375-.13671c-5.92327 8.88455-18.55776 24.24402-36.99804 22.90429-40.14004-3.95223-40.35154-111.233183 0-117.371091 21.95275-1.73462 30.43393 15.502128 36.46289 36.191407l5.29882-.148438v-48.132812zm-292.42578.607422c-1.083087-.0775-2.170718 1.513323-3.261719 4.466796l-42.060547 117.253906c-2.109759 5.6399-6.435062 8.39399-11.6875 9.9375v4.8457h36.876954l.103515-5.11718-6.724609-.23243c-2.371684-.66121-8.691141-3.58044-6.402344-11.42968l5.611328-19.81055 34.142578-.53906 7.857422 24.48242c1.401822 5.37292-2.749445 8.16641-3.861328 8.11914h-6.923828v4.24414h51.361328l34.67773.14063v-4.9375c-7.73355-.5073-13.90599-2.28136-14.97656-10.25391v-96.496094l38.06836 112.478514h3.83203l37.27149-113.658202v97.384762l-6.91407 10.47852h-7.68945v5.27148h56.53711v-5.00586h-6.00976c-6.05753-1.31857-8.57952-5.80907-8.76563-8.69921v-104.730473c.21328-5.134304 1.10254-10.006435 14.62305-9.955078v-5.798828h-44.04102l-27.38867 83.904299-28.22852-83.277346h-44.17968v6.451172h7.48828c5.07233.03688 5.71333 3.155137 7.04101 6.988281v104.136723c-.74028 5.20737-2.21216 10.07379-11.3457 11.37695-6.80638-.055-9.51236-5.42185-11.97852-11.09766l-40.535152-117.566404c-.836746-2.225714-1.675177-3.295192-2.517578-3.355468zm417.99414 3.328124v5.611329c8.03232-.275243 13.91734.88844 14.29492 8.080078v101.933591c1.21306 11.76494-6.49292 12.87953-14.0625 12.71485v5.58398h91.73633l4.10352-43.70312h-3.94141c-4.93665 13.70991-7.50054 28.76395-28.63672 33.86328l-14.52734.2832c-4.19306-.66422-7.08615-2.65906-6.8711-7.83203v-45.710939c17.90945-.792292 18.9237 25.233679 19.67383 31.281249l5.38867-.1582-.57421-70.896486h-5.44336c-.96697 26.17497-9.91925 29.653264-19.24414 29.912109v-50.876953h12.29101c26.74771.440487 27.62445 19.845469 30.05664 30.701172l4.34766.287109v-41.074219zm-428.128906 48.015626c.231118-.02099.4614.346004.736328 1.142578l12.337891 36.363284c.570361 1.17715.585885 1.45684-.542969 1.34179h-25.091796c-1.381375.0189-.894733-.6701-.666016-1.39453l12.486328-36.269529c.277891-.754705.509117-1.1626.740234-1.183593z" fill="url(#c)"/></g></g></svg>