<svg height="248.00421" viewBox="0 0 308.79507 49.600842" width="1543.9753" xmlns="http://www.w3.org/2000/svg" xmlns:xlink="http://www.w3.org/1999/xlink"><filter id="a" color-interpolation-filters="sRGB" height="1.12781" width="1.013141" x="-.006571" y="-.063905"><feGaussianBlur stdDeviation=".80466761"/></filter><g transform="translate(-5.279559 2.7839)"><text fill="#ef00eb" font-family="TrasksHand" font-size=".6" stroke="#0105ff" stroke-width=".75" x="82.18261" y="4.382431"><tspan fill="#fafafa" fill-opacity=".4" font-size=".6" stroke="none" stroke-width=".75" x="82.18261" y="4.382431">John Loreth 2022</tspan></text><path d="m22.76366 6.8379883-4.181835 11.5283197 19.337109.01758 2.67129-7.38457 12.072654.01055-3.571287 9.665625-31.330079.0873-5.801953 16.150781 50.494335.0012 10.905471-30.0615264zm25.321875 16.9658197-3.39375 9.353322-12.213867-.05273 3.379689-9.251955zm32.283984-17.0068354-10.729686 30.1300774 19.494141.0668 4.708008-13.101563 30.202738-.05625 6.01171-16.9763672zm18.072072 3.8771484 10.778899.103711-3.42128 9.584766-10.705667-.157032zm25.818989 26.291833 10.80037-30.1498543 51.54162.04249-1.5323 3.9338143-31.81731.01101-3.37633 9.0569 32.1399.08151-1.58375 3.978188-31.93188.0214-4.73584 13.075525zm83.9699-.568509-6.17623-15.014214h-.10341v15.014214h-5.82301v-21.018433h8.18329l5.90058 14.442382 5.89196-14.442382h8.18328v21.018433h-5.82305v-15.014214h-.10341l-6.17623 15.014214zm23.72054-14.42899v-2.321572h.63791q1.24614 0 2.47003-.437001 1.23129-.44383 2.09172-1.235896.86043-.798894 1.05329-1.823116h3.76808v19.576312h-5.00681v-13.758727zm64.63912 13.949722q-2.29118 0-4.05547-.716322-1.7563-.716322-2.91388-2.041854-1.15756-1.332225-1.74033-3.200019-.57479-1.867794-.57479-4.190823 0-2.316333.57479-4.184127.58277-1.867795 1.74033-3.20002 1.15758-1.338922 2.9059-2.048549 1.74833-.709629 4.06345-.709629 2.86598 0 4.75002 1.01758 1.89201 1.01758 2.85 2.577423.96597 1.553148 1.32522 3.253577.35925 1.693735.35925 3.293745 0 1.600011-.35925 3.300438-.35925 1.693737-1.3332 3.260274-.96597 1.559841-2.85 2.577423-1.87606 1.010883-4.74204 1.010883zm0-3.347301q2.62648 0 3.36892-1.968213.75044-1.974909.75044-4.833504 0-2.858595-.75044-4.826809-.74244-1.968213-3.36892-1.968213-2.55462 0-3.33698 2.028464-.78235 2.028465-.78235 4.766558 0 2.738094.78235 4.773252.78236 2.028465 3.33698 2.028465zm-19.56707 3.332169q-2.29118 0-4.05548-.716322-1.7563-.716322-2.91387-2.041854-1.15756-1.332228-1.74034-3.200022-.57479-1.867794-.57479-4.19082 0-2.316333.57479-4.184128.58278-1.867794 1.74034-3.200021 1.15757-1.33892 2.90589-2.048548 1.74833-.709628 4.06346-.709628 2.86597 0 4.75001 1.01758 1.89202 1.01758 2.85 2.577422.96597 1.553148 1.32522 3.253577.35925 1.693735.35925 3.293746 0 1.600011-.35925 3.300438-.35925 1.693734-1.3332 3.260274-.96596 1.559841-2.85 2.57742-1.87606 1.010886-4.74203 1.010886zm0-3.347301q2.62648 0 3.36891-1.968213.75043-1.974909.75043-4.833504 0-2.858597-.75043-4.826809-.74243-1.968214-3.36891-1.968214-2.55463 0-3.33699 2.028465-.78235 2.028465-.78235 4.766558 0 2.738091.78235 4.773252.78236 2.028465 3.33699 2.028465zm-19.62671 3.365547q-2.29119 0-4.05548-.716322-1.75631-.716322-2.91387-2.041854-1.15757-1.332228-1.74034-3.200022-.5748-1.867794-.5748-4.19082 0-2.316333.5748-4.184128.58277-1.867795 1.74034-3.20002 1.15756-1.338922 2.90589-2.048549 1.74832-.709628 4.06346-.709628 2.86596 0 4.75001 1.017579 1.89201 1.01758 2.85 2.577423.96597 1.553148 1.32522 3.253577.35924 1.693735.35924 3.293746 0 1.600011-.35924 3.300438-.35925 1.693737-1.3332 3.260274-.96597 1.559841-2.85001 2.57742-1.87606 1.010886-4.74202 1.010886zm0-3.347301q2.62647 0 3.36891-1.968213.75042-1.974909.75042-4.833504 0-2.858596-.75042-4.82681-.74244-1.968213-3.36891-1.968213-2.55463 0-3.33699 2.028465-.78236 2.028464-.78236 4.766558 0 2.738091.78236 4.773252.78236 2.028465 3.33699 2.028465z" filter="url(#a)" opacity=".582985"/><g fill="#fff"><path d="m233.87739 36.60557q-2.09814 0-3.71377-.782231-1.60833-.782231-2.66836-2.229724-1.06003-1.454804-1.5937-3.494453-.52637-2.039649-.52637-4.576418 0-2.529457.52637-4.569106.53367-2.03965 1.5937-3.494453 1.06003-1.462115 2.66105-2.237035 1.60101-.774921 3.72108-.774921 2.62449 0 4.34979 1.111207 1.7326 1.111207 2.60987 2.81457.88458 1.696052 1.21356 3.552937.32897 1.849575.32897 3.596801 0 1.747227-.32897 3.604112-.32898 1.849575-1.22087 3.560248-.88458 1.703363-2.60987 2.81457-1.71799 1.103896-4.34248 1.103896zm0-3.655285q2.40518 0 3.08506-2.149308.68719-2.156619.68719-5.278233 0-3.121613-.68719-5.270921-.67988-2.149308-3.08506-2.149308-2.33938 0-3.05582 2.215103-.71644 2.215103-.71644 5.205126 0 2.990024.71644 5.212438.71644 2.215103 3.05582 2.215103z" transform="scale(1.0920096 .91574291)"/><path d="m251.85041 36.585646q-2.09813 0-3.71377-.782231-1.60832-.782231-2.66836-2.229724-1.06003-1.454804-1.5937-3.494453-.52636-2.039649-.52636-4.576418 0-2.529457.52636-4.569107.53367-2.039649 1.5937-3.494453 1.06004-1.462114 2.66105-2.237034 1.60102-.774921 3.72108-.774921 2.6245 0 4.34979 1.111207 1.73261 1.111207 2.60987 2.81457.88458 1.696052 1.21356 3.552937.32898 1.849575.32898 3.596801 0 1.747227-.32898 3.604112-.32898 1.849574-1.22087 3.560248-.88457 1.703363-2.60987 2.81457-1.71798 1.103896-4.34248 1.103896zm0-3.655285q2.40518 0 3.08506-2.149308.6872-2.156619.6872-5.278233 0-3.121614-.6872-5.270921-.67988-2.149308-3.08506-2.149308-2.33938 0-3.05582 2.215103-.71643 2.215103-.71643 5.205126 0 2.990024.71643 5.212438.71644 2.215103 3.05582 2.215103z" transform="scale(1.0920096 .91574289)"/><path d="m269.76882 36.602171q-2.09813 0-3.71377-.782231-1.60832-.782231-2.66836-2.229724-1.06003-1.454804-1.5937-3.494453-.52636-2.039649-.52636-4.576417 0-2.529458.52636-4.569107.53367-2.03965 1.5937-3.494453 1.06004-1.462115 2.66105-2.237035 1.60102-.774921 3.72108-.774921 2.6245 0 4.34979 1.111207 1.73261 1.111207 2.60988 2.81457.88458 1.696053 1.21355 3.552938.32898 1.849574.32898 3.596801 0 1.747226-.32898 3.604111-.32897 1.849575-1.22086 3.560248-.88458 1.703363-2.60988 2.81457-1.71798 1.103896-4.34248 1.103896zm0-3.655285q2.40518 0 3.08506-2.149308.6872-2.156619.6872-5.278232 0-3.121614-.6872-5.270922-.67988-2.149308-3.08506-2.149308-2.33938 0-3.05582 2.215103-.71643 2.215103-.71643 5.205127 0 2.990023.71643 5.212437.71644 2.215103 3.05582 2.215103z" transform="scale(1.0920096 .91574288)"/><path d="m220.62689 20.395458v-2.419686h.61204q1.19561 0 2.36987-.45547 1.18137-.462587 2.00691-1.288127.82554-.832657 1.01058-1.900165h3.61529v20.403647h-4.80379v-14.340199z" stroke-width=".999996" transform="scale(1.042262 .95945161)"/><path d="m190.25545 36.852081-5.6978-16.2749h-.0954v16.2749h-5.37195v-22.783271h7.54939l5.44351 15.655056 5.43556-15.655056h7.54939v22.783271h-5.37199v-16.2749h-.0954l-5.6978 16.2749z" transform="scale(1.0839662 .92253798)"/><path d="m122.26058 34.565953 10.80037-30.1498532 51.54162.04249-1.5323 3.9338142-31.81731.011014-3.37633 9.0569 32.1399.08151-1.58375 3.978188-31.93188.0214-4.73584 13.075526z" opacity=".98"/><g transform="matrix(.3 0 0 .3 -2.040441 -7.603027)"><path d="m268.0332 40-35.76562 100.43359 64.98047.22266 15.69336-43.671875 100.67578-.1875 20.03906-56.587891zm60.24024 12.923828 35.92968.345703-11.40429 31.949219-35.68555-.523438z" opacity=".98"/><path d="m76.013672 40.136719-13.939453 38.427734 64.457031.05859 8.9043-24.615235 40.24218.03516-11.90429 32.21875-104.433596.291016-19.339844 53.835936 168.31445.004 36.35157-100.20508zm84.406248 56.552734-11.3125 31.177737-40.71289-.17578 11.26563-30.839848z" opacity=".98"/></g></g></g></svg>