<svg height="342.85715" width="946.612" xmlns="http://www.w3.org/2000/svg"><path d="m.000006-.00003h946.61066v342.85715h-946.61066z" fill="#ca0d07"/><g fill="#fff" transform="translate(1071.546986 507.549684)"><path d="m-913.61214-401.09392s8.9404-18.72996 24.88398-18.72996 24.43693 18.72996 24.43693 18.72996l61.39026 155.60658h-35.61232l-16.83767-41.24478h-67.49954l-16.53958 41.24478h-35.61232zm2.38413 86.24446h43.65861l-17.43361-50.61718s-.596-4.45531-4.47017-4.45531c-3.87416 0-4.32121 4.45531-4.32121 4.45531z"/><path d="m-771.46073-245.48734v-146.26395h-54.53609v-18.67042s1.04305-3.17377 4.17213-6.30291c3.12915-3.11424 9.08941-3.09926 9.08941-3.09926h116.9694s5.96026.20855 9.2383 2.53302c3.27823 2.33945 4.7682 6.86915 4.7682 6.86915v18.67042h-55.57914v146.26395z"/><path d="m-714.83867-245.48734v-26.79117s36.65542-7.42047 54.9832-34.24159c6.40718-9.20854 13.70846-19.26636 16.53958-29.93517 10.57938-40.05271 6.70522-83.36861 6.70522-83.36861h14.00656v61.18165s-1.93708 52.18185-26.07598 79.13688c-32.78126 36.67034-66.15858 34.01801-66.15858 34.01801"/><path d="m-492.82028-245.48734v-26.79117s-36.65529-7.42047-54.98307-34.24159c-6.25817-9.20854-13.55939-19.26636-16.3905-29.93517-10.57945-40.05271-6.70528-83.36861-6.70528-83.36861h-14.00657v61.18165s1.93708 52.18185 26.07598 79.13688c32.78126 36.67034 66.00944 34.01801 66.00944 34.01801"/><path d="m-616.34594-245.48734h25.03305v-174.35152h-25.03305z"/><path d="m-469.27738-245.48734v-152.70096s2.23512-7.49498 7.74833-13.03796c5.51322-5.55796 19.3707-8.59762 19.3707-8.59762h46.78776s55.87717 6.67545 55.87717 51.06423c0 39.06919-43.36064 49.20159-43.36064 49.20159s-3.72515 2.13084-3.72515 6.24338c0 4.11248 3.72515 6.58603 3.72515 6.58603l49.17189 61.24131h-38.89054l-49.17177-61.24131s-3.72515-5.9602-3.72515-11.11579c0-16.30133 29.50304-24.43693 29.50304-24.43693s23.39388-7.16718 23.39388-23.90045c0-20.32446-26.07598-26.32934-26.07598-26.32934h-29.80107s-4.02318.40225-6.25836 2.71187c-2.384 2.30956-2.384 8.68698-2.384 8.68698v135.62497z"/><path d="m-307.75528-245.48734h35.01638v-174.35152h-35.01638z"/><path d="m-238.61669-426.7973c2.83112 0 5.66223.73004 8.34433 2.22014 2.83112 1.47505 4.91722 3.59098 6.40719 6.3625 1.49016 2.74163 2.38419 5.61749 2.38419 8.6126 0 2.96515-.74502 5.81112-2.38419 8.5379-1.48997 2.74176-3.57607 4.85768-6.25817 6.36263-2.6821 1.5198-5.66223 2.26488-8.49335 2.26488-2.98013 0-5.96014-.74508-8.64236-2.26488-2.68204-1.50495-4.76814-3.62087-6.25817-6.36263-1.63905-2.72678-2.38401-5.57275-2.38401-8.5379 0-2.99511.74496-5.87097 2.38401-8.6126 1.49003-2.77152 3.57613-4.88745 6.40725-6.3625 2.68203-1.4901 5.51315-2.22014 8.49328-2.22014zm0 2.86088c-2.53302 0-4.7682.62577-7.1522 1.86258-2.23512 1.22183-4.02318 3.00989-5.3642 5.28962-1.19207 2.29471-1.78813 4.69369-1.78813 7.18216 0 2.47349.59606 4.84258 1.78813 7.10746 1.34102 2.26494 3.12908 4.03816 5.3642 5.28982 2.23499 1.28136 4.61918 1.90713 7.1522 1.90713 2.38419 0 4.7682-.62577 7.00331-1.90713 2.23505-1.25166 4.02312-3.02488 5.3642-5.28982 1.19207-2.26488 1.78807-4.63397 1.78807-7.10746 0-2.48847-.596-4.88745-1.78807-7.18216-1.34108-2.27973-3.12915-4.06779-5.3642-5.28962-2.38413-1.23681-4.61912-1.86258-7.00331-1.86258zm-7.59925 23.8408v-18.55117h6.40718c2.0861 0 3.72515.17884 4.61919.52162 1.04305.34265 1.78819.93865 2.38413 1.78806.596.84929.89403 1.74333.89403 2.71187 0 1.34095-.44705 2.50325-1.48997 3.51654-.89403.9983-2.23518 1.56448-3.87417 1.68373.74496.28312 1.19194.61091 1.63899.98339.74502.73017 1.63905 1.952 2.6821 3.68053l2.23512 3.66543h-3.57607l-1.63918-2.95024c-1.34096-2.29464-2.384-3.74006-3.12902-4.32121-.59613-.43214-1.34115-.64068-2.3842-.62577h-1.788v7.89722zm2.98013-10.44522h3.72509c1.63905 0 2.98013-.25335 3.57613-.7749.59613-.5215.89403-1.20692.89403-2.07119 0-.55119-.14901-1.04305-.44692-1.4602-.29809-.44705-.74502-.77479-1.19213-.98346-.59594-.22346-1.63898-.32773-3.12915-.32773h-3.42705z"/></g></svg>