<svg height="154.83871" viewBox="0 0 1492 480.00002" width="481.29031" xmlns="http://www.w3.org/2000/svg"><g fill="#fff"><g stroke-width="3.1"><text fill-opacity=".5" font-family="TrasksHand" font-size="6.2" font-weight="bold" x="1173.6771" y="242.37212"><tspan style="font-weight:bold;font-size:6.2;font-family:TrasksHand;fill:#fff;fill-opacity:.5;stroke-width:3.1" x="1173.6771" y="242.37212">John Loreth 2022</tspan></text><g fill-opacity=".993702" transform="scale(1.040252 .96130553)"><path d="m273.75531 171.87767h18.43623v-81.411503c0-5.293573-.36507-12.77759-1.27776-22.452051.36508 1.642833 1.27776 7.849091 3.10313 18.2537l15.51565 85.609854h9.857l16.24579-85.609854c.73015-3.468203 1.64283-9.491924 3.10313-18.2537-1.09522 11.317294-1.4603 18.801311-1.4603 22.452051v81.411503h18.61878v-128.871124h-26.83294l-12.41252 71.554504c-1.09522 6.20626-1.82537 12.59505-1.82537 19.16639 0-6.93641-.54761-13.50774-1.64283-19.34893l-12.96013-71.371964h-26.46786z"/><path d="m375.97618 171.87767h19.89653v-52.38812h13.69028c15.88072 0 26.6504-14.05535 26.6504-39.245455 0-26.285328-9.49192-37.237549-31.03129-37.237549h-29.20592zm19.89653-70.82436v-39.427989h7.11895c10.03953 0 12.96012 4.563425 12.96012 18.983848 0 14.968034-2.37298 20.444141-12.22997 20.444141z"/><path d="m448.62603 43.006546v95.831924c0 23.54728 10.95222 35.77726 30.66622 35.77726 19.34892 0 30.48368-12.41252 30.48368-35.22965v-96.379534h-20.26161v99.847744c0 7.84909-4.01581 12.22998-10.03953 12.22998s-10.58715-4.38089-10.58715-12.22998v-99.847744z"/><path d="m517.62487 61.625321h20.62668v110.252349h19.89654v-110.252349h20.80921v-18.618775h-61.33243z"/><path d="m587.90161 171.87767h51.84051v-19.34892h-31.94398v-38.51531h22.99966v-18.618774h-22.99966v-33.769345h31.94398v-18.618775h-51.84051z"/><path d="m674.78925 117.66418h9.49192l12.22998 54.21349h20.62668l-14.60296-59.87214c9.30939-6.57133 12.59506-16.428327 12.59506-31.761435 0-26.467865-9.49193-37.237549-31.03129-37.237549h-29.20592v128.871124h19.89653zm0-56.038859h7.11894c9.67446 0 12.96013 4.198351 12.96013 17.888626 0 14.237886-2.55552 19.531459-12.22998 19.531459h-7.84909z"/><path d="m725.16942 139.20355c.91269 22.63459 13.50774 35.59471 32.85666 35.59471 17.70609 0 30.84875-13.14266 30.84875-32.12651 0-17.88863-8.57923-27.56309-22.26951-40.88829-11.31729-10.952219-19.89653-18.80131-19.89653-30.483678 0-7.30148 4.38088-11.864905 10.58714-11.864905 7.30148 0 10.22207 4.928499 10.95222 16.063256l19.34893-2.738055c-1.4603-20.07907-13.32521-31.943976-29.75354-31.943976-16.7934 0-30.84875 13.690276-30.84875 32.30905 0 16.975941 10.22207 27.563088 24.6425 41.983508 10.58714 10.58715 17.88862 17.15848 17.88862 27.92816 0 7.48402-4.9285 12.41252-12.22998 12.41252-8.3967 0-12.41251-6.20626-13.14266-19.16639z"/><path d="m79.095528 138.83847c0 23.54728 10.404609 35.77726 30.483682 35.77726 19.34892 0 30.66621-12.41252 30.66621-35.22965v-13.50773h-20.44414v17.52355c0 8.94431-3.4682 13.50774-10.22207 13.50774s-10.222075-4.56343-10.222075-13.50774v-71.919581c0-8.944313 3.468205-13.325201 10.222075-13.325201s10.22207 4.380888 10.22207 13.325201v14.237886h20.44414v-12.412516c0-20.809218-11.8649-33.039198-29.93606-33.039198-19.714001 0-31.213832 12.412517-31.213832 32.491587z"/></g></g><path d="m616.42479 464.01419v-36.06612h31.74457l52.49468-73.51348-52.49468-67.83501h-29.57664v-36.0661h110.71886v34.07097h-20.59526l32.05427 39.74946 29.11209-39.74946h-19.5113v-34.07097h95.54341v36.0661h-29.88634l-51.10102 70.1371 56.36596 71.21139h30.97032v36.06612h-114.28045v-34.68486h21.52437l-33.75764-43.73976-32.05427 43.73976h22.14377v34.68486zm-219.93439 0v-36.06612h28.80239v-141.34849h-28.80239v-36.0661h90.27846l79.43885 133.21441v-97.14831h-28.02813v-36.0661h96.62736v36.0661h-30.19605v178.94935h-48.00398l-92.91093-158.23051v120.62965h27.09902v36.06612zm-153.35503 0v-36.06612h30.19605v-57.70578l-58.37903-83.64271h-26.32477v-36.0661h107.77668v36.0661h-21.21466l31.58971 52.18078 32.05427-52.18078h-22.14377v-36.0661h94.924v36.0661h-26.47961l-55.74656 83.64271v57.70578h30.0412v36.06612zm-204.028549 0v-36.06612h30.815459v-141.34849h-30.815459v-36.0661h118.306589v36.0661h-31.43487v141.34849h63.64399v-65.99331h41.96477v102.05943z" fill-opacity=".993702"/></g><path d="m259.99367 164.37902c-25.51296-54.72726-46.68593-99.688715-47.05104-99.914366-.36511-.225648-14.88814 30.065075-32.2734 67.312716l-31.60956 67.72299-74.529836.25637-74.529834.25636v-4.99967-4.99965l70.529128-.25671 70.529132-.25671 35.83981-76.7816 35.83981-76.781582 46.76093 100.281622c25.71852 55.15491 46.83076 100.3724 46.91609 100.48334.0853.11093 5.55076-11.36409 12.14537-25.50005l11.99021-25.70174 294.22476-.25169 294.22476-.25167v4.99998 4.99999l-290.19552.2517-290.19552.25171-7.05448 15.01771c-13.63917 29.03533-17.33594 37.09645-20.52316 44.75251-1.76905 4.24945-3.5391 7.92569-3.93344 8.16941-.39435.24372-21.59124-44.33372-47.10421-99.06097zm815.00633 25.62132v-5.00001h123 123v5.00001 5.00001h-123-123zm402 0v-5.00001h7.5 7.5v5.00001 5.00001h-7.5-7.5z" fill="#fefefe"/><g opacity=".98"><path d="m1042.0858 33.378709h102.1728v102.717781h-102.1728z" fill="#fef100" stroke-width="9.3"/><path d="m336.15039 7.8105469v3.0000001h32.99609v33h-33v-32.988281h-3v32.996093h3.00391v2.992188h32.99219v-2.992188h3.0039v-32.996093h-2.99414v-3.0117191zm-.004 3.0117191h.004v-.01172h-.004z" fill="#fff" stroke-width=".322581" transform="scale(3.1)"/></g><g transform="scale(3.1)"><g opacity=".98"><path d="m305.35156 58.710938v33h33v-33z" fill="#ec1b23" stroke-width="3"/><path d="m305.35547 55.710938v3h32.99609v33h-33v-32.988282h-3v32.996094h3.00391v2.992188h32.99219v-2.992188h3.0039v-32.996094h-2.99414v-3.011718zm-.004 3.011718h.004v-.01172h-.004z" fill="#fff" stroke-width=".322581"/></g><g opacity=".98"><path d="m388.38281 4.1816406v33.0000004h33v-33.0000004z" fill="#fe7e26" stroke-width="3"/><path d="m388.38672 1.1816406v3h32.99609v33.0000004h-33v-32.9882816h-3v32.9960936h3.00391v2.992188h32.99219v-2.992188h3.0039v-32.9960936h-2.99219v-3.0117188zm-.004 3.0117188h.004v-.011719h-.004z" fill="#fff" stroke-width=".322581"/></g><g opacity=".98"><path d="m434.42383 37.638672v32.998047h33v-32.998047z" fill="#21b04b" stroke-width="3"/><path d="m434.42773 34.636719v3.001953h32.9961v32.998047h-33v-32.986328h-3v32.99414h3.0039v2.994141h32.99219v-2.994141h3.00391v-32.99414h-2.99414v-3.013672zm-.004 3.013672h.004v-.01172h-.004z" fill="#fff" stroke-width=".322581"/></g></g><g opacity=".98" transform="matrix(3.09999997 0 0 3.09999996 0 .000001)"><path d="m351.60938 81.40625v71.42969h71.17773v-71.42969z" fill="#3e47ca" stroke-width="3"/><path d="m351.62695 78.400391v3.005859h71.14258v-3.005859zm74.1543 3.021484h-2.99414v71.402345h2.99414zm-3.01172 74.419925v-3.00586h-71.14258v3.00586zm-74.15625-3.01758h2.9961v-71.402345h-2.9961zm2.9961-71.402345h.0176v-.01563h-.0176zm0 71.402345v.0117h.0176v-.0117zm71.16015.0117h.0176v-.0117h-.0176zm.0176-71.414065v-.01563h-.0176v.01563z" fill="#fff" stroke-width=".665806"/></g></svg>