<svg height="162.07266" viewBox="0 0 601.38502 226.90173" width="429.56073" xmlns="http://www.w3.org/2000/svg"><g transform="translate(-.826959 -36.252083)"><text fill="#fff" fill-opacity=".5" font-family="TrasksHand" font-size="2.8" stroke-width="1.4" x="424.86157" y="188.18108"><tspan fill="#fff" fill-opacity=".5" stroke-width="1.4" x="424.86157" y="188.18108">John Loreth 2022</tspan></text><path d="m148.06151 152.36588h-72.793675m74.669935-.21546a67.642654 58.065201 0 0 1 -67.64265 58.0652 67.642654 58.065201 0 0 1 -67.642654-58.0652 67.642654 58.065201 0 0 1 67.642654-58.0652 67.642654 58.065201 0 0 1 67.64265 58.0652z" fill="none" opacity=".98" stroke="#14a83b" stroke-linecap="round" stroke-width="22"/><g fill-opacity=".996078"><g fill="#14a83b"><circle cx="207.70052" cy="153.05939" fill="#14a83b" fill-opacity=".996078" opacity=".98" r="17.5"/><path d="m175.14844 44.199224v-.000005c-2.55674 4.354198-4.8076 9.208192-6.67578 14.636719 6.74517 5.87782 11.00586 14.523371 11.00586 24.242187 0 17.845055-14.29753 32.142575-32.14258 32.142575-17.84506 0-32.14258-14.29752-32.14258-32.142575 0-17.845057 14.29752-32.142578 32.14258-32.142578.49532 0 .97717.05046 1.46679.07227 2.5577-5.136117 5.68825-10.037303 9.47071-14.505859-3.51653-.829334-7.17572-1.28125-10.9375-1.28125-26.33768 0-47.857424 21.519744-47.857424 47.857422 0 26.33768 21.519744 47.85742 47.857424 47.85742s47.85742-21.51975 47.85742-47.85742c0-15.98053-7.93075-30.176745-20.04492-38.878906" fill="#14a53a" fill-opacity="1" opacity=".98" stroke-linecap="round" stroke-width=".714286" transform="matrix(1.4 0 0 1.4 .826959 36.252083)"/></g><g fill="none" stroke="#14a53a"><path d="m263.68866 205.12019v-53.37889c0-29.25695 24.57426-52.810377 55.09923-52.810377 30.52498 0 55.09923 23.553427 55.09923 52.810377v55.08793m0 0-14.2995-.11531h-106.6604" opacity=".98" stroke-width="22"/><g stroke-linecap="round" stroke-width="12"><path d="m302.95701 159.27964v46.70204" opacity=".98"/><path d="m335.69178 159.27964v46.70204" opacity=".98"/></g></g><g fill="#14a83b"><path d="m407.34791 168.08093v-17.22012c5.1985-25.37597 39.99802-25.53291 45.30222 0v17.22012h-45.36859" fill="#14a83b" fill-opacity=".996078" opacity=".98"/><path d="m306.78906 37.392578c-26.5677 0-48.17578 21.696886-48.17578 48.3125v44.128902l45.32617-.14843v-2.31055c-.00062-1.47945 1.19829-2.67923 2.67774-2.67969 1.48021-.00062 2.68031 1.19948 2.67969 2.67969v2.29297l32.39257-.10742 13.27539.23633v-7.99805-36.093752c0-26.615614-21.60808-48.312499-48.17578-48.3125zm0 15.714844c18.10477 0 32.46094 14.386992 32.46094 32.597656v28.150392l-16.56055.0527-.0176-5.1289-32.52344.11523.0176 5.12109-15.8379.0508v-28.361312c0-18.210664 14.35617-32.597656 32.46094-32.597656z" fill="#14a53a" fill-opacity="1" opacity=".98" transform="matrix(1.4 0 0 1.4 .826959 36.252083)"/><path d="m475.4668 94.158205.17382 113.157965c1.96323 8.09805 6.89756 10.55469 13.91602 10.55469h52.81641c31.76166 0 57.67578-25.84714 57.67578-57.52673v-8.66115c0-31.67958-25.91411-57.524775-57.67578-57.524775zm22.03515 21.943145h44.8711c19.95422 0 35.67578 15.67897 35.67578 35.58163v8.66115c0 19.90266-15.72156 35.58359-35.67578 35.58359h-44.75z" fill="#14a239" fill-opacity="1" opacity=".98" stroke-linecap="round"/><path d="m519.21502 176.31625v-39.89486h23.17729c23.92765 7.83871 16.38648 35.46291 0 39.89486z" fill="#14a83b" fill-opacity=".996078" opacity=".98"/></g></g><path d="m205.3427 116.12848c12.71693-31.531037 39.06159-59.252004 88.4314-60.644095-24.31142 11.988029-47.8346 31.18269-58.87936 68.730015z" fill="none" opacity=".98" stroke="#149f38" stroke-linecap="round" stroke-width="7"/><g fill="#14a239"><path d="m224.66797 0a11.428571 11.428571 0 0 0 -11.42774 11.427734 11.428571 11.428571 0 0 0 11.42774 11.429688 11.428571 11.428571 0 0 0 11.42969-11.429688 11.428571 11.428571 0 0 0 -11.42969-11.427734zm-.14649 3.8828125c1.40866.030443 2.59454.6133544 3.38086 1.5507813.42749 1.2168264.64396 2.518214-1.76367 2.7480468l-1.89844-.3398437c-.6585-.17874-1.41333-.2156776-2.39453.080078-.88063.1028029-2.35108 1.9842095-3.73242.5957031-1.43857-2.8611514 3.15962-4.6207527 5.79102-4.6132812.20976-.018735.41595-.025833.61718-.021484z" opacity=".98" transform="matrix(1.4 0 0 1.4 .826959 36.252083)"/><g transform="scale(.97774 1.0227668)"><path d="m15.217116 246.60338q5.396829 0 7.498965-5.41704l5.1947 1.96065q-1.677666 4.12342-4.931933 6.1447-3.234055 2.00107-7.761732 2.00107-6.8723659 0-10.6319545-3.88086-3.7393758-3.90108-3.7393758-10.89473 0-7.01385 3.6180987-10.77344 3.6180988-3.75959 10.4904656-3.75959 5.012784 0 8.165988 2.02128 3.153203 2.00108 4.426612 5.90215l-5.255339 1.43512q-.667024-2.14257-2.627669-3.39576-1.940433-1.27341-4.588315-1.27341-4.042569 0-6.1447044 2.50639-2.0819228 2.50639-2.0819228 7.33726 0 4.91172 2.1425613 7.49897 2.1627739 2.58724 6.2255549 2.58724z"/><path d="m59.101784 236.51717q0 4.44683-1.758517 7.82237-1.758517 3.37555-5.032998 5.17449-3.27448 1.77873-7.640454 1.77873-6.710664 0-10.530891-3.9415-3.800014-3.96172-3.800014-10.83409 0-6.85215 3.800014-10.69259 3.800014-3.84044 10.571316-3.84044 6.771303 0 10.571317 3.88087 3.820227 3.88086 3.820227 10.65216zm-6.084065 0q0-4.60852-2.182987-7.21598-2.182987-2.62767-6.124492-2.62767-4.002142 0-6.185129 2.60746-2.182987 2.58724-2.182987 7.23619 0 4.68938 2.223412 7.3979 2.243626 2.68831 6.104279 2.68831 4.002143 0 6.164917-2.62767 2.182987-2.62767 2.182987-7.45854z"/><path d="m86.856604 250.8885v-17.26176q0-.58618 0-1.17235.02021-.58617.202128-5.033-1.435112 5.43726-2.122348 7.57982l-5.134062 15.88729h-4.244697l-5.134062-15.88729-2.162774-7.57982q.242554 4.68938.242554 6.20535v17.26176h-5.295765v-28.47989h7.984073l5.093636 15.92772.444683 1.53618.970216 3.82022 1.273409-4.5681 5.235126-16.71602h7.943647v28.47989z"/><path d="m117.42101 250.8885-2.52661-7.27662h-10.8543l-2.5266 7.27662h-5.96279l10.3894-28.47989h7.03407l10.34898 28.47989zm-7.96386-24.0937-.12128.44468q-.20213.72766-.48511 1.65745-.28298.92979-3.47661 10.2277h8.1862l-2.80958-8.1862-.86915-2.74895z"/><path d="m152.16947 236.43632q0 4.4064-1.7383 7.70109-1.7181 3.27449-4.89151 5.01279-3.15321 1.7383-7.2362 1.7383h-11.52132v-28.47989h10.30855q7.19577 0 11.13728 3.63831 3.9415 3.6181 3.9415 10.3894zm-6.00321 0q0-4.58831-2.38512-6.99364-2.38511-2.42554-6.81173-2.42554h-4.22448v19.26284h5.05321q3.84044 0 6.10428-2.64789 2.26384-2.64788 2.26384-7.19577z"/></g><g transform="scale(1.0184864 .98184911)"><path d="m166.79095 261.34409v-29.66675h6.21127v29.66675z"/><path d="m196.41827 261.34409-12.92788-22.84487q.379 3.32672.379 5.34802v17.49685h-5.51646v-29.66675h7.09559l13.11738 23.03437q-.379-3.17934-.379-5.79018v-17.24419h5.51646v29.66675z"/><path d="m235.52042 246.28964q0 4.59002-1.81074 8.02202-1.78969 3.41094-5.09536 5.22168-3.2846 1.81075-7.53775 1.81075h-12.00145v-29.66675h10.73814q7.49564 0 11.6014 3.78994 4.10576 3.76887 4.10576 10.82236zm-6.25339 0q0-4.77953-2.48451-7.28509-2.48451-2.52663-7.09559-2.52663h-4.40053v20.06559h5.26379q4.00049 0 6.35867-2.75823 2.35817-2.75823 2.35817-7.49564z"/><path d="m252.13565 261.76519q-6.12706 0-9.39061-2.98984-3.2425-2.98983-3.2425-8.5484v-18.54961h6.21128v18.06534q0 3.51622 1.66336 5.34802 1.68441 1.81074 4.92691 1.81074 3.32672 0 5.11641-1.89496 1.78969-1.91602 1.78969-5.47435v-17.85479h6.21127v18.23379q0 5.64278-3.49515 8.75895-3.47411 3.09511-9.79066 3.09511z"/><path d="m294.7119 252.79568q0 4.35843-3.24249 6.6745-3.22144 2.29501-9.47483 2.29501-5.70595 0-8.94845-2.0213-3.2425-2.02129-4.16893-6.12705l6.00073-.9896q.6106 2.35818 2.37923 3.432 1.76864 1.05276 4.90586 1.05276 6.50605 0 6.50605-3.95838 0-1.26331-.75799-2.08446-.73693-.82115-2.10552-1.36859-1.34753-.54743-5.20062-1.32647-3.32672-.77904-4.63214-1.24226-1.30542-.48427-2.35818-1.11592-1.05276-.65271-1.78969-1.55808-.73693-.90538-1.15804-2.12658-.40004-1.2212-.40004-2.80034 0-4.02153 3.01089-6.14811 3.03194-2.14762 8.80106-2.14762 5.51645 0 8.27468 1.72652 2.77929 1.72652 3.57938 5.70595l-6.02178.82115q-.46321-1.91602-1.89496-2.88455-1.4107-.96854-4.06365-.96854-5.64279 0-5.64279 3.53727 0 1.15803.58955 1.89496.6106.73693 1.78969 1.26331 1.17909.50533 4.77952 1.28437 4.2742.90537 6.106 1.68441 1.85286.75799 2.92667 1.78969 1.07381 1.01065 1.6423 2.4424.56849 1.4107.56849 3.26355z"/><path d="m312.25356 236.47792v24.86617h-6.21128v-24.86617h-9.58011v-4.80058h25.39255v4.80058z"/><path d="m345.16549 261.34409-6.88504-11.26452h-7.28509v11.26452h-6.21128v-29.66675h14.82284q5.30591 0 8.19047 2.29502 2.88456 2.27396 2.88456 6.54816 0 3.11616-1.76864 5.39012-1.76863 2.25291-4.77952 2.96878l8.02202 12.46467zm-.73693-20.57091q0-4.2742-5.47435-4.2742h-7.95885v8.75895h8.12729q2.61085 0 3.95838-1.17909 1.34753-1.17909 1.34753-3.30566z"/><path d="m368.51837 249.17419v12.1699h-6.19023v-12.1699l-10.56969-17.49685h6.50605l7.11664 12.54889 7.20087-12.54889h6.50605z"/></g><g transform="scale(1.0184864 .98184911)"><path d="m414.01041 256.88039q5.62173 0 7.81147-5.64279l5.41118 2.04235q-1.74758 4.29526-5.13746 6.40078-3.36883 2.08446-8.08519 2.08446-7.15876 0-11.07502-4.04259-3.89521-4.06365-3.89521-11.34874 0-7.30615 3.76888-11.22241 3.76887-3.91626 10.92763-3.91626 5.22169 0 8.50629 2.10551 3.28461 2.08447 4.61109 6.14811l-5.47435 1.49492q-.69482-2.23185-2.73717-3.53727-2.0213-1.32647-4.77953-1.32647-4.21103 0-6.40077 2.61084-2.16868 2.61084-2.16868 7.64303 0 5.1164 2.23185 7.81147 2.2529 2.69506 6.48499 2.69506z"/><path d="m459.72389 246.37386q0 4.63213-1.8318 8.14835-1.8318 3.51621-5.24274 5.39012-3.41094 1.85286-7.95886 1.85286-6.99032 0-10.96974-4.10576-3.95838-4.12681-3.95838-11.28557 0-7.13771 3.95838-11.13819 3.95837-4.00048 11.01185-4.00048 7.05349 0 11.01186 4.04259 3.97943 4.04259 3.97943 11.09608zm-6.33761 0q0-4.80058-2.27396-7.5167-2.27396-2.73717-6.37972-2.73717-4.16892 0-6.44288 2.71611-2.27396 2.69507-2.27396 7.53776 0 4.8848 2.31607 7.70619 2.33712 2.80034 6.35866 2.80034 4.16893 0 6.42183-2.73717 2.27396-2.73718 2.27396-7.76936z"/><path d="m464.04289 261.34409v-6.42183h6.08495v6.42183z"/><path d="m481.77404 259.95444q0 2.52663-.54743 4.4637-.52638 1.93708-1.72653 3.60044h-3.8952q1.24225-1.49492 2.02129-3.28461.77904-1.78969.77904-3.38988h-2.71611v-6.42183h6.08494z"/></g><g transform="scale(1.0619211 .94168957)"><path d="m477.95842 272.48941v-30.93202h6.47619v25.9267h16.5966v5.00532z"/><path d="m515.61092 246.56271v25.9267h-6.47618v-25.9267h-9.9887v-5.00532h26.47553v5.00532z"/><path d="m556.24906 256.79289q0 4.78579-1.88798 8.36416-1.86602 3.55641-5.31267 5.44439-3.42469 1.88797-7.85923 1.88797h-12.51331v-30.93202h11.19612q7.81533 0 12.0962 3.95157 4.28087 3.92962 4.28087 11.28393zm-6.5201 0q0-4.98337-2.59047-7.5958-2.59048-2.63438-7.39822-2.63438h-4.58821v20.92138h5.48829q4.1711 0 6.62986-2.87587 2.45875-2.87586 2.45875-7.81533z"/><path d="m560.75227 272.48941v-6.69572h6.34446v6.69572z"/></g></g></g></svg>