<svg enable-background="new 0.25 0 567.927 113.032" height="156.00879" viewBox=".25 0 253.14756 109.20615" width="361.63937" xmlns="http://www.w3.org/2000/svg" xmlns:xlink="http://www.w3.org/1999/xlink"><linearGradient id="a" gradientUnits="userSpaceOnUse" x1="1.74707" x2="1.74707" y1="459.04291" y2="786.83984"><stop offset="0" stop-color="#009ee0"/><stop offset=".51050597" stop-color="#0078bd"/><stop offset="1" stop-color="#003f86"/></linearGradient><g fill-rule="evenodd"><g transform="matrix(.33317575 0 0 .33317575 126.685125 -153.30976)"><path d="m-97.531229 462.27982v17.33254h.44938c1.42382 0 65.29578 1.19519 65.29578 28.3863v234.20521c0 15.72617-29.12165 28.3863-65.29578 28.3863h-.44938v17.33003h86.3991 23.09667 86.39909v-17.33003h-.44937c-36.17413 0-65.29578-12.66013-65.29578-28.3863v-234.20521c0-27.19111 63.87198-28.3863 65.29578-28.3863h.44937v-17.33254h-86.39909-23.09667z" fill="#999"/><path d="m-97.531229 460.14682v17.33254h.44938c1.42382 0 65.29578 1.19519 65.29578 28.3863v234.20521c0 15.72617-29.12165 28.3863-65.29578 28.3863h-.44938v17.33003h86.3991 23.09667 86.39909v-17.33003h-.44937c-36.17413 0-65.29578-12.66013-65.29578-28.3863v-234.20521c0-27.19111 63.87198-28.3863 65.29578-28.3863h.44937v-17.33254h-86.39909-23.09667z" fill="url(#a)"/></g><g transform="matrix(.33317575 0 0 .33317575 191.952545 -153.30976)"><path d="m-97.531229 462.27982v17.33254h.44938c1.42382 0 65.29578 1.19519 65.29578 28.3863v234.20521c0 15.72617-29.12165 28.3863-65.29578 28.3863h-.44938v17.33003h86.3991 23.09667 86.39909v-17.33003h-.44937c-36.17413 0-65.29578-12.66013-65.29578-28.3863v-234.20521c0-27.19111 63.87198-28.3863 65.29578-28.3863h.44937v-17.33254h-86.39909-23.09667z" fill="#999"/><path d="m-97.531229 460.14682v17.33254h.44938c1.42382 0 65.29578 1.19519 65.29578 28.3863v234.20521c0 15.72617-29.12165 28.3863-65.29578 28.3863h-.44938v17.33003h86.3991 23.09667 86.39909v-17.33003h-.44937c-36.17413 0-65.29578-12.66013-65.29578-28.3863v-234.20521c0-27.19111 63.87198-28.3863 65.29578-28.3863h.44937v-17.33254h-86.39909-23.09667z" fill="url(#a)"/></g><g transform="matrix(.33317575 0 0 .33317575 61.417706 -153.30975)"><path d="m-97.531229 462.27982v17.33254h.44938c1.42382 0 65.29578 1.19519 65.29578 28.3863v234.20521c0 15.72617-29.12165 28.3863-65.29578 28.3863h-.44938v17.33003h86.3991 23.09667 86.39909v-17.33003h-.44937c-36.17413 0-65.29578-12.66013-65.29578-28.3863v-234.20521c0-27.19111 63.87198-28.3863 65.29578-28.3863h.44937v-17.33254h-86.39909-23.09667z" fill="#999"/><path d="m-97.531229 460.14682v17.33254h.44938c1.42382 0 65.29578 1.19519 65.29578 28.3863v234.20521c0 15.72617-29.12165 28.3863-65.29578 28.3863h-.44938v17.33003h86.3991 23.09667 86.39909v-17.33003h-.44937c-36.17413 0-65.29578-12.66013-65.29578-28.3863v-234.20521c0-27.19111 63.87198-28.3863 65.29578-28.3863h.44937v-17.33254h-86.39909-23.09667z" fill="url(#a)"/></g><g transform="matrix(.33317575 0 0 .33317575 126.685135 -153.30975)"><path d="m-97.531229 462.27982v17.33254h.44938c1.42382 0 65.29578 1.19519 65.29578 28.3863v234.20521c0 15.72617-29.12165 28.3863-65.29578 28.3863h-.44938v17.33003h86.3991 23.09667 86.39909v-17.33003h-.44937c-36.17413 0-65.29578-12.66013-65.29578-28.3863v-234.20521c0-27.19111 63.87198-28.3863 65.29578-28.3863h.44937v-17.33254h-86.39909-23.09667z" fill="#999"/><path d="m-97.531229 460.14682v17.33254h.44938c1.42382 0 65.29578 1.19519 65.29578 28.3863v234.20521c0 15.72617-29.12165 28.3863-65.29578 28.3863h-.44938v17.33003h86.3991 23.09667 86.39909v-17.33003h-.44937c-36.17413 0-65.29578-12.66013-65.29578-28.3863v-234.20521c0-27.19111 63.87198-28.3863 65.29578-28.3863h.44937v-17.33254h-86.39909-23.09667z" fill="url(#a)"/></g><rect fill="#0c4da1" height="20.550158" rx="9.5348" width="214.32571" x="19.66094" y="69.304047"/></g><g fill="#fff" transform="matrix(.33317575 0 0 .33317575 -24.02104 -157.04281)"><path d="m298.40912 705.64587q0 1.84067-.64424 3.60772-.64424 1.74864-1.84067 2.94508-1.6382 1.61979-3.66295 2.44809-2.00633.82831-5.00663.82831h-4.39921v8.92727h-7.06819v-27.40764h11.63306q2.61376 0 4.39921.46016 1.80386.44177 3.18437 1.3437 1.65661 1.08599 2.52172 2.77942.88353 1.69342.88353 4.06789zm-7.30748.16566q0-1.15963-.62583-1.98793-.62583-.84671-1.45413-1.17803-1.10441-.44177-2.15359-.47858-1.04919-.0552-2.79783-.0552h-1.21484v8.20941h2.02474q1.80386 0 2.96349-.22088 1.17803-.22088 1.96952-.88353.68105-.58901.97555-1.39891.31292-.8283.31292-2.00633z"/><path d="m330.19721 724.40234h-19.76884v-27.40764h7.06819v22.10649h12.70065z"/><path d="m367.74962 724.40234h-7.30748l-2.34027-5.54043h-13.90292l-2.47358 5.54043h-7.12341l12.50594-27.40764h8.13578zm-11.75952-10.56547-4.90634-9.8292-4.86191 9.8292z"/><path d="m402.35357 696.9947-10.54968 16.80535v10.60229h-7.06819v-10.27097l-10.80422-17.13667h8.02534l6.46022 10.60228 6.16888-10.60228z"/><path d="m452.57694 715.291c0 2.69965-1.14735 4.89619-3.44206 6.58961-2.28243 1.68115-5.38704 2.52173-9.31381 2.52173-2.27017 0-4.25196-.19634-5.94538-.58902-1.68115-.40495-3.25799-.9142-4.73053-1.52776l2.27038-5.29517c.88841.50772 2.4065 1.06705 3.3989 1.41135 1.81613.62583 3.55863.93874 5.22751.93874.42949 0 .99397-.0368 1.69342-.11044.69946-.0736 1.27007-.19634 1.71183-.36813.53993-.22089.98169-.49699 1.32528-.82831.35587-.33132.5338-.82217.5338-1.47254 0-.60129-.25769-1.11667-.77308-1.54616-.50312-.44177-1.24553-.77922-2.22722-1.01237-1.03078-.24543-2.12291-.47244-3.2764-.68105-1.14122-.22089-2.21495-.49699-3.22118-.82831-2.30698-.74854-3.96972-1.76091-4.98823-3.03711-1.00623-1.28847-1.50935-2.88372-1.50935-4.78575 0-2.55241 1.14122-4.63237 3.42365-6.23989 2.29471-1.61979 5.23979-2.42969 8.83524-2.42969 1.80386 0 3.58318.17793 5.33796.5338 1.76705.34359 3.29481.77921 4.58328 1.30687l-2.97936 4.89983c-.57247-.28959-1.18687-.55463-1.84321-.79512-1.59525-.60129-3.22732-.90193-4.89619-.90193-.58902 0-1.17804.043-1.76705.12885-.57675.0736-1.13509.22088-1.67502.44176-.47857.18407-.88966.4663-1.23325.84671-.34359.36813-.51539.79149-.51539 1.27006 0 .724.2761 1.28234.82831 1.67502.5522.38041 1.59525.73013 3.12914 1.04918 1.00624.20861 1.96953.41109 2.88986.60742.93261.19634 1.93271.46631 3.0003.8099 2.09837.68719 3.64453 1.62593 4.6385 2.81623 1.00623 1.17803 1.50935 2.71193 1.50935 4.60169z"/><path d="m552.5198 702.29584h-8.55913v22.1065h-7.06819v-22.1065h-8.55914v-5.30114h24.18646z"/><path d="m582.56926 724.40234h-21.08096v-27.40764h21.08096v5.30114h-14.04958v4.73054h13.12924v5.30114h-13.12924v6.77368h14.04958z"/><path d="m629.70979 724.40234h-7.40845l-.62845-13.21-7.65102 13.20424h-4.87779l-7.65102-13.20424-.62845 13.21h-7.04031l1.00552-27.40764h6.88967l10.05676 18.94033 10.03835-18.94033h6.88967z"/><path d="m489.07899 696.9947-10.54968 16.80535v10.60229h-7.06819v-10.27097l-10.80422-17.13667h8.02534l6.46022 10.60228 6.16888-10.60228z"/><path d="m519.19212 715.291c0 2.69965-1.14735 4.89619-3.44206 6.58961-2.28243 1.68115-5.38704 2.52173-9.31381 2.52173-2.27017 0-4.25196-.19634-5.94538-.58902-1.68115-.40495-3.25799-.9142-4.73053-1.52776l2.27038-5.29517c.88841.50772 2.4065 1.06705 3.3989 1.41135 1.81613.62583 3.55863.93874 5.22751.93874.42949 0 .99397-.0368 1.69342-.11044.69946-.0736 1.27007-.19634 1.71183-.36813.53993-.22089.98169-.49699 1.32528-.82831.35587-.33132.5338-.82217.5338-1.47254 0-.60129-.25769-1.11667-.77308-1.54616-.50312-.44177-1.24553-.77922-2.22722-1.01237-1.03078-.24543-2.12291-.47244-3.2764-.68105-1.14122-.22089-2.21495-.49699-3.22118-.82831-2.30698-.74854-3.96972-1.76091-4.98823-3.03711-1.00623-1.28847-1.50935-2.88372-1.50935-4.78575 0-2.55241 1.14122-4.63237 3.42365-6.23989 2.29471-1.61979 5.23979-2.42969 8.83524-2.42969 1.80386 0 3.58318.17793 5.33796.5338 1.76705.34359 3.29481.77921 4.58328 1.30687l-2.97936 4.89983c-.57247-.28959-1.18687-.55463-1.84321-.79512-1.59525-.60129-3.22732-.90193-4.89619-.90193-.58902 0-1.17804.043-1.76705.12885-.57675.0736-1.13509.22088-1.67502.44176-.47857.18407-.88966.4663-1.23325.84671-.34359.36813-.51539.79149-.51539 1.27006 0 .724.2761 1.28234.82831 1.67502.5522.38041 1.59525.73013 3.12914 1.04918 1.00624.20861 1.96953.41109 2.88986.60742.93261.19634 1.93271.46631 3.0003.8099 2.09837.68719 3.64453 1.62593 4.6385 2.81623 1.00623 1.17803 1.50935 2.71193 1.50935 4.60169z"/></g><g clip-rule="evenodd" fill-rule="evenodd" transform="matrix(.33317575 0 0 .33317575 -23.668217 -157.33671)"><path d="m206.1153 564.37436-35.92269 37.94312-23.72592-16.26587s7.80621-7.44946.68525-12.87495c-5.55265-4.23161-21.12975 4.74376-20.45509 22.36602.79122 20.32793 13.35179 31.84297 27.22636 31.84297 12.88554 0 16.2694-10.38825 16.2694-10.38825h28.86885v23.95199l40.58521-107.0722h46.42398l37.27552 96.23533s2.70922 5.07228 5.41842 6.42864c0 0 .15554-63.12784.15554-64.90101 0-1.76611-.23303-3.71944-1.33872-4.98751-1.81909-2.0946-4.91685-2.96352-4.91685-2.96352v-29.81193h65.05291c33.74331 0 42.39725 9.14844 52.18149 26.77069 13.50721-18.1874 32.10437-30.16164 58.62074-30.16164 27.27935 0 46.58294 10.05624 57.607 26.76718 15.39695-18.40642 40.179-26.93673 62.85586-26.93673 27.86921 0 51.14302 13.5072 63.18789 34.39323v-30.83273h62.67925l6.60525 16.76391 4.9204-16.76391h64.71734v29.13375s-3.73354 1.02434-4.76495 2.70568c-1.00316 1.66015-.82654 6.95848-.82654 6.95848l9.02835 57.5893c.37793 1.8721 1.04553 3.82895 2.65976 5.26302 1.87208 1.67427 4.40114 1.3599 4.40114 1.3599v33.19582h-65.05289v-25.07523h-37.26849v25.14234h-61.16038v-16.34358s-22.35189 19.66033-51.16069 19.66033c-36.86931 0-61.50303-27.10274-61.50303-27.10274v23.71534s-2.70567 0-43.36154 0c-38.59657 0-71.72879-21.11914-80.98323-59.63448-4.38701 4.19628-23.73297 18.00725-46.93262 23.21023-1.80496.40621-2.70568 1.08084-2.70568 3.03772 0 3.56753 7.62254 4.83914 7.62254 4.83914v28.54387s-200.58775 0-237.85267 0c-44.05386.008-79.443181-30.14752-79.443181-68.43326 0-38.28926 27.590176-70.82102 73.328901-70.82102 43.71476 0 60.99792 33.55256 60.99792 33.55256z" fill="#0c4da1"/><g fill="#ffca08"><path d="m188.99816 564.96779-19.13757 20.06654s-1.01728.51217-1.86148.51217c-.85127 0-2.04163-.85127-2.04163-.85127l-2.36658-2.02396s-.68172-.16598-.68172-.85127c0-.66757 1.86501-2.37364 1.86501-5.59149 0-3.2214-.67466-16.60497-21.34168-16.60497s-29.81547 19.31416-29.81547 35.24096c0 15.92679 9.81957 45.06406 42.01929 45.06406 18.72431 0 22.69099-10.51189 22.69099-10.51189h6.43571v27.45242h-35.2339c-42.01224 0-65.395539-32.87436-65.395539-56.58969 0-36.36423 31.620439-56.5438 60.312669-56.5438 27.78445.003 44.5519 21.23219 44.5519 21.23219z"/><path d="m248.30061 546.75565h28.96773l35.24099 92.16269c1.01022 2.53261 2.70568 4.9204 4.39759 6.94084 1.68843 2.03454 5.75753 3.39798 5.75753 3.39798v7.95103h-42.51027v-8.13116s2.70213.34968 4.06206-2.0275c1.35284-2.37367 1.35284-4.23513.34262-6.60525-1.01728-2.37719-8.14883-21.17566-8.14883-21.17566h-34.72173s-7.11036 18.97154-7.79562 20.66349c-.67818 1.69194-.67818 4.4082 0 6.09659 1.12678 2.81874 5.0864 3.23201 5.0864 3.23201v7.95103h-34.05767v-7.95103s3.09776-1.06675 5.42196-3.39801c2.53966-2.53967 3.38387-5.25593 3.38387-5.25593zm-.85479 55.22627h22.36954l-11.51857-32.1856z"/><path d="m336.21757 546.75565h54.21608c19.99235 0 39.97766 7.10682 39.97766 30.14749 0 23.0407-14.57041 31.17893-27.10274 36.93997-14.47151 6.64765-33.54195 11.86121-33.54195 11.86121v17.61164s.16955 1.19035 1.86149 3.21079c1.69898 2.03456 3.56047 2.54674 3.56047 2.54674v8.13116h-39.30657v-7.951s2.37013-.51572 4.07267-2.20766c1.6884-1.69546 2.03454-3.73003 2.03454-3.73003v-79.6233s.15554-3.39094-1.19035-4.74024c-1.35284-1.36699-4.57775-3.22139-4.57775-3.22139v-8.97538h-.003zm33.88461 16.59791v47.09508s31.84649-13.21048 31.84649-31.84649c0-23.04068-31.84649-15.24859-31.84649-15.24859z"/><path d="m547.82233 565.16205-19.14464 20.06654s-1.01729.50865-1.86502.50865c-.84066 0-2.0275-.84773-2.0275-.84773l-2.37718-2.03811s-.67463-.15883-.67463-.8336c0-.6817 1.85795-2.38776 1.85795-5.59149 0-3.22491-.6676-16.60852-21.3417-16.60852-20.67407 0-29.81899 19.30714-29.81899 35.23745 0 15.91618 9.82662 45.06406 42.02282 45.06406 18.72431 0 22.69451-10.50835 22.69451-10.50835h6.44279v27.44536h-35.24805c-42.0087 0-65.39554-32.86378-65.39554-56.58265 0-36.36066 31.61693-56.54732 60.31268-56.54732 27.78798 0 44.5625 21.23571 44.5625 21.23571z"/><path d="m616.43924 660.38719c-36.60086 0-62.90531-26.72478-62.90531-59.24594 0-32.54234 26.98617-57.74475 62.90531-57.74475 35.90504 0 62.8912 25.20241 62.8912 57.74475 0 32.51762-26.30798 59.24594-62.8912 59.24594zm-32.5388-58.74437c0 32.52822 16.60497 40.65941 32.5388 40.65941 15.91267 0 32.8638-10.16573 32.8638-40.65941 0-30.49011-18.97509-40.65938-32.8638-40.65938-13.89575 0-32.5388 8.1241-32.5388 40.65938z"/><path d="m695.71288 546.8263h40.32737l14.57041 44.99342 15.58062-45.06407h42.17826v6.60171s-2.80461 1.18683-4.05146 2.71277c-1.52593 1.86501-1.52593 3.21785-1.19038 5.93765.33911 2.70214 11.17949 76.23238 11.52211 78.94512.34262 2.71275.67466 4.23514 1.35284 6.10015.67112 1.84737 3.89958 3.38034 3.89958 3.38034v6.83485h-40.49692v-7.33996s3.55695-.50511 4.75085-2.20763c1.18683-1.69546 1.68839-2.71274 1.35284-5.41842-.33911-2.70923-9.98911-64.37826-9.98911-64.37826l-17.62226 54.55161h-21.34521l-17.45624-51.17127-8.80583 60.31619s-.34262 3.62052 1.01728 5.59504c1.86147 2.71274 5.25948 2.71274 5.25948 2.71274v7.27991h-35.08202v-7.78148s2.794-.43094 4.82502-2.80812c2.03102-2.36306 2.37364-5.42197 2.37364-5.42197l12.79724-79.53852s.76649-2.97061-.0846-4.31991c-.89365-1.42703-5.67981-2.62445-5.67981-2.62445v-7.88744h-.003z"/></g></g></svg>