<svg height="151.44" viewBox="0 0 68.77 8.178" width="1273.51" xmlns="http://www.w3.org/2000/svg" xmlns:xlink="http://www.w3.org/1999/xlink"><linearGradient id="a"><stop offset="0" stop-color="#ffcf64"/><stop offset="1" stop-color="#d09236"/></linearGradient><radialGradient id="b" cx="35.006" cy="-22.613" gradientTransform="matrix(1 0 0 .3083 0 11.781)" gradientUnits="userSpaceOnUse" r="33.902" xlink:href="#a"/><radialGradient id="c" cx="35.006" cy="-22.613" gradientTransform="matrix(1 0 0 .3083 .108 11.781)" gradientUnits="userSpaceOnUse" r="33.902" xlink:href="#a"/><g stroke-width=".661"><path d="m1.129 0-1.129 1.129v5.904l1.129 1.13h6.094v-2.529h-4.696v-3.107h3.635l1.26-2.527zm7.435 0-1.128 1.129v5.904l1.128 1.13h4.965l1.13-1.13v-5.903l-1.131-1.13zm6.307 0v8.162h6.16l1.254-2.512v2.512h6.16l1.262-2.527h-4.896v-5.635h-2.526v5.635h-4.887v-5.635zm14.9 0v8.178h6.473v-2.532h-3.871v-.292h3.871v-2.532h-3.871v-.289h3.67l.002-.002h.2v-2.531zm7.885 0-1.129 1.129v5.904l1.13 1.13h6.095v-2.529h-4.697v-3.107h3.634l1.215-2.433v2.436h2.442v5.647h2.601v-5.647h2.254l.194-.193v-2.337h-7.491zm13.99 0v8.162h2.528v-8.162zm2.739 0v8.178h6.472v-2.532h-3.87v-.292h3.87v-2.532h-3.87v-.289h3.67l.001-.002h.2v-2.531zm7.832 0-1.17 1.127v3.1l1.17 1.127h3.713v.292h-4.883v2.532h5.338l2.148-2.069v-3.287h-4.885v-.29h3.809l1.313-2.532zm-52.254 2.527h2.17v3.108h-2.17z"/><g fill="url(#b)" transform="translate(-.78 -4.146)"><path d="m2.043 11.985-.94-.94v-5.635l.94-.94h5.636l-.94 1.879h-3.757v3.757h4.698v1.879zm11.192-1.879v-3.757h-2.817v3.757zm-3.757 1.879-.939-.94v-5.635l.94-.94h4.696l.939.94v5.635l-.94.94zm6.496 0v-7.515h1.879v5.636h4.696l-.94 1.879zm7.414 0v-7.515h1.879v5.636h4.696l-.94 1.879zm15.183 0-.94-.94v-5.635l.94-.94h5.636l-.94 1.879h-3.757v3.757h4.697v1.879z"/><path d="m52.75 11.985v-7.515h1.878v7.515zm8.562-7.515h-5.822v7.53h5.823v-1.883h-3.87v-.941h3.87v-1.882h-3.87v-.939h3.859l.002-.002h.01zm.838 7.53v-1.883h4.884v-.941h-3.907l-.976-.941v-2.825l.976-.94h5.89l-.977 1.882h-3.936v.94h4.884v2.824l-1.954 1.882z" fill="url(#c)"/><path d="m36.699 4.47h-5.824v7.53h5.825v-1.883h-3.87v-.941h3.87v-1.882h-3.87v-.939h3.858l.002-.002h.01z"/><path d="m51.85 4.47h-6.842v1.883h2.441v5.646h1.954v-5.646h2.444l.003-.004z" fill="url(#c)"/></g></g></svg>