<svg height="153.0011" viewBox="0 0 599.1561 260.10187" width="352.44476" xmlns="http://www.w3.org/2000/svg"><g transform="translate(-.404532 -20.574273)"><rect height="66.039314" rx="33.019661" ry="33.019657" width="588.48773" x="6.327325" y="214.63683"/><g fill="#fff" fill-opacity=".986699"><path d="m76.216813 281.47504c0-3.66351-.249786-8.4927-4.496138-11.90643-3.830042-3.16395-8.992274-3.91331-14.071244-3.91331-4.16309 0-11.573391.33305-15.986266 5.74507-2.497854 3.08068-2.914163 6.57768-2.914163 10.74077v28.97511c0 9.24206 2.914163 15.15364 18.567382 15.15364 16.65236 0 19.233476-6.7442 19.233476-17.90128v-5.2455h-14.32103v7.32704c0 2.91417 0 5.82833-4.579399 5.82833-4.246352 0-4.745923-2.08155-4.745923-5.82833v-29.22489c0-2.8309.416309-5.32876 4.412876-5.32876 4.412875 0 4.912446 1.99829 4.912446 5.2455v7.32704h13.987983z" transform="scale(1.194135 .83742625)"/><path d="m404.0825 282.28488c0-3.67406-.25051-8.51714-4.50908-11.9407-3.84106-3.17305-9.01815-3.92457-14.11174-3.92457-4.17507 0-11.60669.33401-16.03227 5.7616-2.50504 3.08955-2.92254 6.59661-2.92254 10.77168v29.05849c0 9.26866 2.92254 15.19726 18.62081 15.19726 16.70028 0 19.28882-6.76362 19.28882-17.95281v-5.26058h-14.36224v7.34812c0 2.92255 0 5.8451-4.59258 5.8451-4.25857 0-4.75958-2.08754-4.75958-5.8451v-29.30899c0-2.83905.41751-5.34409 4.42558-5.34409 4.42557 0 4.92658 2.00403 4.92658 5.26058v7.34813h14.02824z" transform="scale(1.1975707 .83502376)"/><path d="m101.07837 322.74832h34.11926v-8.2716h-20.57302v-47.40974h-13.54624z" transform="scale(1.1919388 .83896926)"/><path d="m147.0615 335.03467h13.65316l2.04388-13.16262h10.70996l1.96213 13.16262h13.65315l-11.69102-57.71932h-18.64023zm25.01716-22.89151h-7.76677l3.92426-25.6712z" transform="scale(1.2373134 .80820267)"/><path d="m221.9827 317.56495c5.32931 3.80665 5.4139 4.22961 5.4139 8.79759 0 1.43806-.0846 4.22961-4.56798 4.22961-4.22961 0-4.22961-3.38369-4.22961-4.82176v-4.65257h-14.29608c-.16918 7.19034-.25378 12.60424 4.06043 16.2417 3.12991 2.53777 8.03626 3.72206 14.71904 3.72206 8.713 0 12.51964-2.03021 14.97282-4.56798 2.53776-2.62236 3.80665-5.75227 3.80665-12.26587 0-9.13596-2.1994-10.91239-7.69789-14.71904l-12.35046-8.54381c-2.53777-1.69185-2.70695-2.87614-2.70695-6.09064 0-2.45318 0-5.24472 3.63746-5.24472 3.72206 0 3.97583 1.94562 3.97583 4.99094v4.14502h13.70394c.33837-13.11179-1.0997-19.37162-16.74926-19.37162-14.88822 0-18.69487 4.99094-18.69487 17.25681 0 8.54382 2.1994 10.23566 8.29003 14.63445z" transform="scale(1.2514727 .79905861)"/><path d="m277.19489 317.56495c5.32931 3.80665 5.4139 4.22961 5.4139 8.79759 0 1.43806-.0846 4.22961-4.56798 4.22961-4.22961 0-4.22961-3.38369-4.22961-4.82176v-4.65257h-14.29608c-.16919 7.19034-.25378 12.60424 4.06042 16.2417 3.12992 2.53777 8.03626 3.72206 14.71905 3.72206 8.71299 0 12.51964-2.03021 14.97282-4.56798 2.53776-2.62236 3.80665-5.75227 3.80665-12.26587 0-9.13596-2.1994-10.91239-7.69789-14.71904l-12.35047-8.54381c-2.53776-1.69185-2.70695-2.87614-2.70695-6.09064 0-2.45318 0-5.24472 3.63747-5.24472 3.72206 0 3.97583 1.94562 3.97583 4.99094v4.14502h13.70394c.33837-13.11179-1.0997-19.37162-16.74926-19.37162-14.88822 0-18.69487 4.99094-18.69487 17.25681 0 8.54382 2.19939 10.23566 8.29003 14.63445z" transform="scale(1.2514726 .79905863)"/><path d="m341.36898 260.357v54.18966h13.12526v-54.18966z" transform="scale(1.1616494 .86084493)"/><path d="m426.08585 317.56495c5.32931 3.80665 5.4139 4.22961 5.4139 8.79759 0 1.43806-.0846 4.22961-4.56798 4.22961-4.22961 0-4.22961-3.38369-4.22961-4.82176v-4.65257h-14.29608c-.16918 7.19034-.25378 12.60424 4.06043 16.2417 3.12991 2.53777 8.03625 3.72206 14.71904 3.72206 8.713 0 12.51964-2.03021 14.97282-4.56798 2.53776-2.62236 3.80665-5.75227 3.80665-12.26587 0-9.13596-2.1994-10.91239-7.69789-14.71904l-12.35046-8.54381c-2.53777-1.69185-2.70695-2.87614-2.70695-6.09064 0-2.45318 0-5.24472 3.63746-5.24472 3.72206 0 3.97583 1.94562 3.97583 4.99094v4.14502h13.70394c.33837-13.11179-1.0997-19.37162-16.74926-19.37162-14.88822 0-18.69487 4.99094-18.69487 17.25681 0 8.54382 2.19939 10.23566 8.29003 14.63445z" transform="scale(1.2514726 .79905862)"/></g><g fill="#f91b20" stroke-width=".581861" transform="matrix(3.4354729 0 0 -3.4390054 -726.88405 1566.4072)"><path d="m363.4922 420.26232h22.6103v-5.5547h-7.58v-16.9101h-7.4493v16.9101h-7.581z"/><path d="m339.5391 405.22912 7.0996.4111c.1533-1.0673.4687-1.8818.9424-2.4404.7695-.9062 1.8701-1.3584 3.3027-1.3584 1.0674 0 1.8896.2324 2.4668.6973.5781.4638.8682 1.0029.8682 1.6152 0 .582-.2764 1.1025-.8301 1.5625-.5528.46-1.8291.8936-3.8252 1.3018-3.2705.6816-5.6035 1.5908-6.9961 2.7216-1.4053 1.1329-2.1084 2.5752-2.1084 4.3291 0 1.1514.3594 2.2383 1.0791 3.2647.7187 1.0244 1.8008 1.8311 3.2441 2.418 1.4424.5839 3.4199.8779 5.9346.8779 3.084 0 5.4365-.5332 7.0547-1.5977 1.6181-1.0673 2.582-2.7597 2.8896-5.0859l-7.0107-.3828c-.1895 1.0117-.584 1.749-1.1856 2.2109-.6015.46-1.4316.6895-2.4921.6895-.8721 0-1.5293-.1709-1.9698-.5137-.4424-.3418-.6631-.7578-.6631-1.248 0-.3575.1836-.6788.5528-.9649.3564-.2959 1.1933-.5713 2.5097-.8271 3.2598-.6534 5.5948-1.3116 7.0049-1.9805 1.4102-.6689 2.4366-1.499 3.0782-2.4893.6435-.9902.9638-2.0986.9638-3.3232 0-1.4404-.4287-2.7646-1.2842-3.9795-.8574-1.2158-2.0537-2.1367-3.5918-2.7646-1.538-.628-3.4765-.9424-5.8164-.9424-4.1074 0-6.9502.7353-8.5332 2.2002-1.58 1.4707-2.4756 3.334-2.6845 5.5986z"/><path d="m329.5127 401.51432h-8.4297l-1.2148-3.7168h-7.6006l9.0293 22.4648h8.1699l9.0478-22.4648h-7.7939zm-1.5772 4.8603-2.6308 8.0693-2.6358-8.0693z"/><path d="m290.375 420.26232h19.9814v-4.7793h-12.5322v-3.5937h11.6123v-4.5752h-11.6123v-4.4112h12.8828v-5.1054h-20.332z"/><path d="m375.8193 428.8467h-8.4306l-1.2158-3.7168h-7.5987l9.0293 22.4639h8.169l9.0488-22.4639h-7.794zm-1.5791 4.8603-2.6308 8.0694-2.6348-8.0694z"/><path d="m337.2998 447.5938h22.6104v-5.5547h-7.5801v-16.9092h-7.4492v16.9092h-7.5811z"/><path d="m329.9404 428.8467h-8.4306l-1.2149-3.7168h-7.5996l9.0293 22.4639h8.1699l9.0479-22.4639h-7.794zm-1.5781 4.8603-2.6318 8.0694-2.6338-8.0694z"/><path d="m290.5063 447.5938h11.0396c2.1758 0 3.9346-.2754 5.2744-.8272 1.3399-.5518 2.4473-1.3447 3.3203-2.376.876-1.0322 1.5098-2.2314 1.9033-3.6025.3936-1.3682.5909-2.8184.5909-4.3496 0-2.3994-.293-4.2627-.878-5.585-.5849-1.3232-1.3974-2.4336-2.4355-3.3262-1.0391-.8935-2.1563-1.4882-3.3467-1.7851-1.6299-.4082-3.1055-.6123-4.4287-.6123h-11.0396zm7.4493-5.1055v-12.2529h1.809c1.543 0 2.6397.1611 3.292.4824.6514.3193 1.1631.8808 1.5313 1.6826.3691.7988.5537 2.0976.5537 3.8926 0 2.3769-.4131 4.0029-1.2373 4.8779-.8272.8779-2.1973 1.3174-4.1084 1.3174z"/><path d="m216.375 449.5c-.0845 0-.166-.01-.2505-.0103h-4.4248v-7.9554l3.4321.007c11.5518 0 20.917-9.3652 20.917-20.917 0-11.522-9.3178-20.8657-20.8286-20.9136l-3.5205-.004v-7.9592h4.7969v.005c15.8906.0664 28.7534 12.9659 28.7534 28.8721 0 15.9468-12.9282 28.875-28.875 28.875z"/><path d="m232.5947 420.6245c0 9.9263-8.0473 17.9736-17.9736 17.9736-.0532 0-2.9107-.006-2.9107-.006v-35.9414l2.9864.003c9.8916.042 17.8979 8.0703 17.8979 17.9712z"/><path d="m257.418 419.3828c.6386-9.3193 8.3628-16.6894 17.8354-16.7295l2.9863-.003v16.7324h-20.8217z"/><path d="m278.2397 421.8828v16.709s-2.8574.006-2.9106.006c-9.5015 0-17.2617-7.3784-17.9102-16.7153h20.8208z"/><path d="m273.5752 449.5c.0845 0 .166-.01.2505-.0103h4.4248v-7.9554l-3.4321.007c-11.5518 0-20.917-9.3652-20.917-20.917 0-11.522 9.3178-20.8657 20.8286-20.9136l3.5205-.004v-7.9592h-4.7969v.005c-15.8906.0664-28.7534 12.9659-28.7534 28.8721 0 15.9468 12.9282 28.875 28.875 28.875z"/></g></g></svg>