<svg height="157.52763" viewBox="0 0 448.08149 63.011053" width="1120.2037" xmlns="http://www.w3.org/2000/svg" xmlns:xlink="http://www.w3.org/1999/xlink"><linearGradient id="a" gradientUnits="userSpaceOnUse" x1="479.86337" x2="815.13306" y1="623.96881" y2="823.9043"><stop offset="0" stop-color="#01d701"/><stop offset=".04897174" stop-color="#004300"/><stop offset=".23114556" stop-color="#004300"/><stop offset=".28704202" stop-color="#02d404"/><stop offset=".34080464" stop-color="#004300"/><stop offset=".56719917" stop-color="#004300"/><stop offset=".62816507" stop-color="#02d404"/><stop offset=".68365902" stop-color="#004300"/><stop offset=".92416573" stop-color="#004300"/><stop offset=".97764051" stop-color="#02d404"/><stop offset="1" stop-color="#06cf09"/></linearGradient><g transform="translate(-404.05441 -734.42749)"><text fill="#ef00eb" font-family="TrasksHand" font-size=".8" stroke="#0105ff" x="414.34277" y="788.95526"><tspan fill="#fafafa" fill-opacity=".4" font-size=".8" stroke="none" x="414.34277" y="788.95526">John Loreth 2022</tspan></text><rect height="53.88483" rx="3.216986" width="430.41968" x="421.71622" y="743.55371"/><rect fill="url(#a)" height="53" rx="3.216986" width="430" x="404.05441" y="734.42749"/><g fill="#fff"><path d="m379.49691 730.15308v-.97174q2.69927.12957 3.54144-.77739.62622-.69101.62622-2.85042v-21.48612q0-2.28897-.73419-2.80723-.64783-.45348-3.43347-.38869v-.97174h17.34006q6.13272 0 10.32198 3.82216 4.64273 4.21085 4.64273 11.40168 0 6.47823-3.86535 10.55951-4.18925 4.46998-11.66081 4.46998zm13.15081-28.43942v24.05582q0 1.33883.30231 1.8139.3887.58304 1.59797.58304 3.69259 0 5.42011-2.9152 1.74913-2.9368 1.74913-9.19909 0-14.33847-7.57953-14.33847z" stroke-width="2.5" transform="matrix(1.1829604 0 0 .84533684 0 156)"/><g stroke-width="2.49999"><path d="m414.83868 756.06852v9.1952q0 1.88911.8649 2.59469.95594.79661 3.5051.70557v1.02422h-18.32212v-1.02422q.50073.0228.91041.0228 2.0712 0 2.82229-.70557.7511-.72834.7511-2.57193v-7.94338l-7.55646-14.7715q-1.16078-2.25328-1.95739-2.91333-.77385-.66005-2.61745-.95594v-1.02422h16.27369v1.02422q-2.84505 0-2.84505 1.2063 0 .43245.61453 1.63875l6.37291 12.72307 5.50802-11.12984q.79661-1.61599.79661-2.57192 0-1.86636-3.59614-1.86636v-1.02422h9.24072v1.02422q-1.57046.25037-2.36708 1.04698-.79661.79662-2.0712 3.3913z" transform="matrix(1.2468514 0 0 .80202022 0 156)"/><path d="m491.38926 713.04951-19.76913-24.1529h-.10538v19.11577q0 2.02328.86411 2.80309.88519.75873 3.28783.86411v.94841h-9.92671v-.94841q3.7515-.0843 3.7515-3.45644v-21.79241l-.82196-1.03271q-.65335-.84303-1.2224-1.07487-.54797-.23183-1.9179-.27398v-.94842h11.90784l15.15352 18.52566h.0843v-14.58448q0-3.18245-4.00441-2.99276v-.94842h9.61058v.94842q-1.93898.0632-2.76094.7798-.82195.6955-.82195 2.33942v25.88112z" transform="matrix(1.1545671 0 0 .86612551 0 156)"/><path d="m468.78776 817.99469h-16.74089v-1.08864q1.98375-.0242 2.58855-.14515 1.62086-.33869 1.62086-1.54829 0-.9193-.55641-2.17729l-2.46759-5.68513h-9.67682l-1.8144 5.10452q-.50803 1.37895-.50803 2.03213 0 1.37895.91929 1.91118.94349.50803 3.24174.50803v1.08864h-10.30581v-1.08864q1.71763-.0726 2.61274-1.08864.9193-1.01607 2.05632-4.06427l10.20904-27.6515h2.97562l13.01532 30.16748q.72576 1.71763 1.18541 2.15309.48384.41126 1.64506.48384zm-16.4022-12.67663-4.2578-10.11227-3.77396 10.11227z" transform="matrix(1.3252773 0 0 .75455909 0 156)"/><path d="m535.92053 736.73467v1.02288q-3.47778.0682-6.00088 3.90966l-5.40988 8.20576 7.97844 13.77475q2.04576 3.5687 4.54612 3.90966v1.02288h-16.47969v-1.02288q2.7504-.13638 2.7504-1.3411 0-.63646-.59099-1.68207l-4.70524-8.11483-5.09166 7.50111q-.72738 1.1138-.72738 1.72752 0 1.63661 3.95513 1.90937v1.02288h-11.31985v-1.02288q3.50052-.13638 6.09181-4.04605l5.97815-8.97859-7.00103-12.16088q-1.50022-2.61402-2.5231-3.47778-1.00015-.86377-2.95498-1.13653v-1.02288h17.11615v1.02288q-2.93224-.0455-2.93224 1.31837 0 .47735.61372 1.52295l4.2279 7.41018 3.90966-5.95542q.97742-1.50022.97742-2.25033 0-1.97756-3.29594-2.04575v-1.02288z" transform="matrix(1.2452184 0 0 .80307198 0 156)"/><path d="m686.74037 640.12515v.85306h-14.99482v-.85306q2.25586.0758 2.93831-.5687.68244-.64453.68244-2.61604v-18.48286q0-2.02838-.68244-2.635-.66349-.60661-2.93831-.54974v-.85306h14.99482v.85306q-2.16107-.0758-2.84351.53079-.66349.60661-.66349 2.65395v18.48286q0 2.00942.66349 2.635.68244.62557 2.84351.54974z" transform="matrix(1.0384834 0 0 .96294273 0 156)"/><path d="m658.11214 736.97706v3.06563q-4.67564 6.13126-11.95375 6.13126-5.99893 0-10.23346-3.85961-4.67564-4.27864-4.67564-11.40237 0-7.21195 4.32276-11.84347 4.32276-4.63153 11.20388-4.63153 2.84508 0 5.27112.97042 2.42603.97041 2.99946.97041 1.23507 0 2.16138-2.07316h.90425v9.96881h-.90425q-1.27919-3.57289-3.50673-5.624-2.22754-2.0511-4.85207-2.0511-3.28618 0-5.22701 3.81549-1.94083 3.79344-1.94083 10.18936 0 13.23293 6.77085 13.23293 5.29317 0 9.66004-6.85907z" transform="matrix(1.2082021 0 0 .82767609 0 156)"/><path d="m649.02305 713.04951-19.76913-24.1529h-.10538v19.11577q0 2.02328.86411 2.80309.88519.75873 3.28783.86411v.94841h-9.92671v-.94841q3.75149-.0843 3.75149-3.45644v-21.79241l-.82195-1.03271q-.65335-.84303-1.2224-1.07487-.54797-.23183-1.9179-.27398v-.94842h11.90784l15.15352 18.52566h.0843v-14.58448q0-3.18245-4.00441-2.99276v-.94842h9.61058v.94842q-1.93898.0632-2.76094.7798-.82195.6955-.82195 2.33942v25.88112z" transform="matrix(1.1545671 0 0 .8661255 0 156)"/></g><path d="m667.61889 738.36652q1.69822 0 2.86713 1.19096 1.19096 1.19097 1.19096 2.86714 0 1.69822-1.19096 2.88919-1.16891 1.19096-2.86713 1.19096-1.69823 0-2.88919-1.19096-1.16891-1.19097-1.16891-2.88919 0-1.67617 1.16891-2.86714 1.19096-1.19096 2.88919-1.19096z" transform="matrix(.79270141 0 0 .54303828 277.2701 369.27207)"/></g></g></svg>