<svg height="158.76642" viewBox="0 0 716.85768 301.6562" width="377.29352" xmlns="http://www.w3.org/2000/svg"><g stroke-width="1.23457" transform="matrix(3.4975086 0 0 -3.4975086 -1239.114275 2466.991744)"><g stroke="#000" stroke-width="1.15432"><path d="m373.535 633.098h2.18v19.163l8.439 21.913-10.29 7.551v6.802h-2.74v-18.203l-7.699-8.588-1.333-12.806 8.736-7.033 2.74-7.254z"/><g fill="#fdb813"><path d="m375.911 650.257c-.607-.157-1.245-.24-1.9-.24-4.163 0-7.537 3.375-7.537 7.538 0 3.769 2.77 6.893 6.384 7.449l.675.113.446.031c3.764.475 6.676 3.689 6.676 7.582 0 3.957-2.934 6.175-6.786 6.567l.008 9.23c8.036 0 14.55-5.477 14.55-13.513 0-3.821-1.472-7.297-3.881-9.893l-.022-.051c4.779-2.913 7.97-8.174 7.97-14.177 0-9.165-7.43-16.596-16.594-16.596z"/><path d="m376.861 671.429c0 3.081-2.645 5.578-5.726 5.578l-.028 10.628c-7.099 0-12.851-5.753-12.851-12.851 0-3.614 1.491-6.881 3.894-9.215l.027.018.23-.212c-4.563-3.215-7.545-8.524-7.545-14.531 0-9.811 7.952-17.761 17.761-17.761.305 0 .607.005.91.021l-.002 13.56c-.157-.008-.314-.012-.471-.012-5.33 0-9.651 4.323-9.651 9.653 0 5.038 3.861 9.175 8.787 9.614l-.253-.03c2.77.326 4.918 2.681 4.918 5.54z"/></g></g><path d="m396.443 662.847h15.694v-26.502h-15.694z"/><path d="m428.903 650.712c2.561 0 4.633-1.037 4.633-3.596l-.006-10.772h13.475l-.008 13.122c0 7.387-5.986 13.375-13.373 13.375l-18.231.006v-26.503h13.473z"/><path d="m477.911 662.858h-15.844c-7.338 0-13.285-5.931-13.285-13.248 0-7.316 5.947-13.248 13.285-13.248h3.114s-.186-3.237-2.741-3.237c-2.554 0-13.066 0-13.066 0v-12.103h14.139s14.363-1.037 14.363 14.064z"/><path d="m366.376 625.831v-1.321h-2.389v-.613h2.163v-1.592h-2.163v-.623h2.523v-1.279h-4.27v5.428z"/><path d="m377.145 625.831h1.622v-1.885h1.927v1.885h1.583v-5.428h-1.583v2.262h-1.927v-2.262h-1.622z"/><path d="m387.833 625.831v-1.879h-1.382v-3.549h-1.706v3.549h-1.488v1.879z"/><path d="m394.37 625.831 1.78-2.762v2.762h1.625v-5.428h-1.609l-1.782 2.734v-2.734h-1.705v5.428z"/><path d="m422.664 621.489h1.176v-1.086h-1.176z"/><path d="m425.327 621.489h1.174v-1.057c.016-.223 0-.803-.47-1.072-.22-.162-.518-.223-.704-.252v.416c.282.016.5.268.579.426.078.156.125.305.069.453h-.648z"/><path d="m430.544 625.831v-4.227h2.121v-1.201h-3.91v5.428z"/><path d="m438.536 625.831h2.658c.586 0 1.323-.27 1.826-1.268.116-.223.25-.646.25-1.205 0-.945-.259-1.615-.525-2.004-.393-.58-1.035-.951-1.631-.951h-2.578zm1.451-4.022h.678c.389 0 .699.139.885.525.095.188.152.508.146.833 0 .326-.062.652-.209.851-.215.299-.433.357-.738.357h-.762z"/><path d="m389.18 625.831h2.035v-5.428h-2.035z"/><path d="m412.863 624.047c-.314.381-.823.586-1.348.586-.939 0-1.574-.65-1.574-1.476 0-.844.642-1.451 1.598-1.451.501 0 1.002.22 1.324.566v-1.662c-.509-.141-.877-.248-1.355-.248-.823 0-1.606.283-2.217.785-.651.531-.949 1.225-.949 2.016 0 .728.306 1.427.87 1.953.579.535 1.418.861 2.248.861.494 0 .949-.097 1.403-.269z"/><path d="m420.263 623.264c0-1.724-1.37-2.939-3.267-2.939-1.896 0-3.267 1.215-3.267 2.939 0 1.613 1.566 2.744 3.267 2.744 1.7 0 3.267-1.131 3.267-2.744m-4.806-.08c0-.92.715-1.592 1.586-1.592s1.586.672 1.586 1.592c0 .736-.715 1.406-1.586 1.406s-1.586-.67-1.586-1.406"/><path d="m374.205 620.52v-.186h1.486v3.299h-1.776v-1.365h.307s.028-.324-.339-.396c-.366-.075-1.632-.075-.978 1.877 0 0 .815 1.289 2.774.404l-.019 1.558s-2.804 1.008-4.307-1.115c-1.51-2.137.73-4.775 2.852-4.076"/><path d="m437.388 625.831v-1.436h-1.385v-3.992h-1.705v3.992h-1.487v1.436z"/><path d="m402.233 620.52v-.186h1.487v3.299h-1.775v-1.365h.306s.03-.324-.338-.396c-.368-.075-1.632-.075-.98 1.877 0 0 .816 1.289 2.775.404l-.019 1.558s-2.805 1.008-4.306-1.115c-1.511-2.137.73-4.775 2.85-4.076"/><path d="m444.782 621.489h1.174v-1.086h-1.174z"/><path d="m368.006 625.831h2.036v-5.428h-2.036z"/></g><g stroke="#000" stroke-width="2" transform="translate(10.551425 3.664544)"><path d="m524.09918 8.6055999-21.03837 30.6789071.0127 108.101713 20.47135-32.38595-.25475 86.6131 20.51439-33.59469-.37662-125.939403-19.13531 29.617029zm132.9668 31.1034831c-9.17768.432378-16.92219 6.601399-19.44691 14.872094 0 0-.16566 60.868683.1242 93.259103-.64496 6.00357 7.36874 17.29352 15.66298 17.46209l26.88877-.11756 4.61322-2.67246.0209 4.40488 20.2204-.28847-.62817-70.10499-38.04178-.07249-.33305 19.2777 19.0483-.0649-.23702 29.87231-27.07778.23703v-86.197841l27.31101.14269c.13038 9.136009.19535 28.301979.19535 28.301979l19.89777-.03078-.76505-34.996609c-3.34262-8.129298-11.82609-13.803164-20.66564-13.342459l-26.7875.05868zm-100.54467.123426.0313 126.960041 20.77489-.0266.1682-67.437499 27.7251 67.310699 20.59129-.1854.0296-126.942411-21.26031.28958.26531 67.606321-27.86844-67.712463zm-129.91362.000948s.31165 19.658077.3214 19.689077l41.54878.159613c-14.42765 29.257383-43.94652 88.450103-43.94652 88.450103l.47868 18.62686 64.2338.24226.24208-20.40522-41.1711-.30407c14.40493-29.22307 43.54881-87.860662 43.54881-87.860662l-.2306-18.728671zm-32.50851-31.2278571-21.03837 30.6789071.0127 108.101713 20.47135-32.38595-.25475 86.6131 20.51439-33.59469-.37662-125.939403-19.13531 29.617029zm-78.67079 31.2005081c-11.66231.844249-19.43912 9.113925-18.88259 19.803486-.88013 35.405174-.10305 107.088186-.10305 107.088186l18.41411-.069.548-48.42997 17.0323-.4493.3189-19.734831-17.58823-.08675.0244-38.300955h24.88388l-.0244 107.036216 20.44391-.0344.17933-113.39603c.16347-5.111674-9.45517-12.452562-16.70593-13.459951zm-96.94244-.110125.20876 126.923957 18.98763.009.30244-106.421548 20.10449-.09363c8.8306 6.520428 5.51222 25.275904 4.51012 32.265562-2.88631 7.443887-5.16467 6.922387-17.92101 6.458757l-.17256 20.365699c6.35967 15.74459 19.08624 47.23062 19.08624 47.23062l18.10205-.5879-17.11508-46.60954c7.48419-3.81089 14.78511-9.55199 17.53324-17.78828 2.25953-9.438129 1.20297-19.290362 1.41515-28.905558.12014-7.299934-.62445-15.163573-5.6105-20.936139-5.7541-7.169962-15.2155-12.132552-24.57222-11.630154-12.16613-.258415-34.85875-.280846-34.85875-.280846z"/><path d="m210.77323 30.637902.20876 126.923958 18.98763.009.30244-106.421549 20.10449-.09363c8.8306 6.520428 5.51222 25.275904 4.51012 32.265562-2.88631 7.443889-5.16467 6.922388-17.92101 6.458757l-.17256 20.3657c6.35967 15.74459 19.08624 47.23062 19.08624 47.23062l18.10205-.5879-17.11508-46.60954c7.48419-3.81089 14.78511-9.55199 17.53324-17.788282 2.25953-9.438128 1.20297-19.290361 1.41515-28.905557.12014-7.299934-.62445-15.163573-5.6105-20.936139-5.7541-7.169962-15.2155-12.132552-24.57222-11.630154-12.16613-.258415-34.85875-.280846-34.85875-.280846z" fill="#fff"/><path d="m307.71567 30.748027c-11.66231.844249-19.43912 9.113925-18.88259 19.803486-.88013 35.405174-.10305 107.088187-.10305 107.088187l18.41411-.069.548-48.42997 17.0323-.4493.3189-19.734832-17.58823-.08675.0244-38.300955h24.88388l-.0244 107.036217 20.44391-.0344.17933-113.396031c.16347-5.111674-9.45517-12.452562-16.70593-13.459951z" fill="#fff"/><path d="m386.38646-.45248152-21.03837 30.67890752.0127 108.101714 20.47135-32.38595-.25475 86.6131 20.51439-33.59469-.37662-125.939404-19.13531 29.617029z" fill="#f8cd15"/><g fill="#fff"><path d="m418.89497 30.775376s.31165 19.658077.3214 19.689077l41.54878.159613c-14.42765 29.257383-43.94652 88.450104-43.94652 88.450104l.47868 18.62686 64.2338.24226.24208-20.40522-41.1711-.30407c14.40493-29.22307 43.54881-87.860663 43.54881-87.860663l-.2306-18.728671z"/><path d="m548.80859 30.774428.0313 126.960042 20.77489-.0266.1682-67.437504 27.7251 67.310704 20.59129-.1854.0296-126.942412-21.26031.28958.26531 67.606326-27.86844-67.712468z"/><path d="m649.35326 30.651002c-9.17768.432378-16.92219 6.601399-19.44691 14.872094 0 0-.16566 60.868684.1242 93.259104-.64496 6.00357 7.36874 17.29352 15.66298 17.46209l26.88877-.11756 4.61322-2.67246.0209 4.40488 20.2204-.28847-.62817-70.104991-38.04178-.07249-.33305 19.277701 19.0483-.0649-.23702 29.87231-27.07778.23703v-86.197842l27.31101.14269c.13038 9.136009.19535 28.301979.19535 28.301979l19.89777-.03078-.76505-34.996609c-3.34262-8.129298-11.82609-13.803164-20.66564-13.342459l-26.7875.05868z"/></g><path d="m516.38646-.45248152-21.03837 30.67890752.0127 108.101714 20.47135-32.38595-.25475 86.6131 20.51439-33.59469-.37662-125.939404-19.13531 29.617029z" fill="#f8cd15"/></g></svg>