<svg height="44.536255mm" viewBox="0 0 135.96182 26.721753" width="226.60303mm" xmlns="http://www.w3.org/2000/svg"><g transform="translate(-46.478114 -92.920949)"><g fill="#fff" fill-opacity=".5" stroke-width=".238125"><path d="m118.19922 105.71816q0 .0572-.0138.0962-.0205.0581-.0657.0581-.03 0-.0629-.0138-.0395-.0167-.0433-.041.0133 0 .0314.005.0419.0109.0524.0109.0405 0 .061-.0405.0162-.0324.0162-.0776 0-.0319-.0209-.091-.0205-.0595-.0205-.0829 0-.007.004-.0114.004-.005.0114-.005.0186 0 .0362.0857.0148.0724.0148.10716z"/><path d="m118.38258 105.76673q0 .0486-.0281.0762-.0281.0276-.0776.0276-.0271 0-.0419-.0129-.0148-.0129-.0148-.0395 0-.0376.0491-.0757.0467-.0362.0862-.0362.0181 0 .0238.0224.003.0129.003.0381zm-.0291.0133q0-.006-.001-.0109-.00096-.006-.004-.0129-.008.005-.0252.0257-.009.0105-.0157.0152 0-.009.002-.0148.004-.008.006-.0138-.0209 0-.0438.0176-.0224.0176-.0224.0381 0 .0138.0152.0138.029 0 .0562-.0143.0329-.0171.0329-.0438z"/><path d="m118.57879 105.78626q0 .0233-.0176.0524-.02.0329-.0414.0329-.006 0-.0105-.007-.004-.007-.004-.0138 0-.009.0181-.0267.0186-.0186.0186-.0252 0-.004-.001-.009-.001-.004-.002-.006-.0357.008-.0729.041-.0367.0329-.0557.0371-.004-.0105-.004-.0214 0-.0133.006-.0281.004-.0105.0143-.0252.0167-.0252.0352-.0571.01-.0167.0329-.0576.0238-.041.0348-.0581.006-.009.01-.0129.006-.006.0148-.008.006.002.008.007.003.005.003.0124 0 .0162-.021.0438-.0381.0495-.0391.0514-.0214.0324-.0214.0586l.00095.005q.0262-.0129.031-.0148.0195-.008.0333-.008.0152 0 .0224.0105.007.01.007.0257z"/><path d="m118.79977 105.75816q0 .0324-.0157.0691-.0171.0405-.0424.0557-.005-.006-.009-.0138-.003-.008-.003-.0152 0-.008.0238-.0481.0105-.0176.01-.031l-.00047-.006q-.0176.005-.061.0319-.0429.0262-.0867.0533-.007 0-.0124-.005-.005-.005-.005-.0114 0-.01.0319-.0672.01-.0171.0343-.0595.008.01.01.0224.002.0119.002.0286 0 .007 0 .011.0438-.0262.0686-.0395.0271-.0148.0371-.0148.007 0 .0124.0152.006.0152.006.0243z"/><path d="m119.21363 105.85055q0 .009-.008.0133-.007.004-.0162.004-.008 0-.0205-.002-.0281-.004-.0362-.004-.0143 0-.0562.003-.0238.002-.0343.002-.029 0-.029-.029 0-.0276.0181-.0791.01-.0291.0376-.0953.0248-.0595.0314-.0838.002-.008.004-.01.004-.006.01-.006.009 0 .0152.0133.006.0129.006.0233 0 .0167-.0195.0562-.0195.0391-.0381.0767-.0205.0448-.0205.0681 0 .0119.01.0167.007.003.021.003.0105 0 .0362-.002.0257-.003.0343-.003.0214 0 .0352.006.0195.009.0195.0276z"/><path d="m119.3908 105.76673q0 .0486-.0281.0762-.0281.0276-.0776.0276-.0272 0-.0419-.0129-.0148-.0129-.0148-.0395 0-.0376.0491-.0757.0467-.0362.0862-.0362.0181 0 .0238.0224.003.0129.003.0381zm-.029.0133q0-.006-.001-.0109-.00096-.006-.004-.0129-.008.005-.0252.0257-.009.0105-.0157.0152 0-.009.002-.0148.004-.008.006-.0138-.021 0-.0438.0176-.0224.0176-.0224.0381 0 .0138.0152.0138.029 0 .0562-.0143.0329-.0171.0329-.0438z"/><path d="m119.5913 105.75673q0 .0152-.008.0324-.008.0171-.0195.0286l-.00048-.007q0-.006.001-.0176.001-.0119.001-.0176 0-.008-.002-.0119-.002-.004-.01-.004-.0224 0-.0557.0348-.0362.0381-.0719.0757-.003 0-.006-.00048-.007-.002-.01-.002.001-.0171.0119-.0381.0281-.0567.029-.0605.004-.0152.006-.0224.002-.007.005-.0148.004-.008.009-.0143.005-.007.0133-.01l.005.0571q.0205-.0167.0314-.0257.021-.0167.0362-.0167.0152 0 .0248.01.01.01.01.0248z"/><path d="m119.82514 105.70149q0 .02-.0533.0529-.0514.0314-.0748.0314-.011 0-.0148-.008-.003-.008-.003-.0214 0-.009 0-.0129.0319 0 .0581-.01.0262-.01.0457-.0314-.0143-.005-.029-.005-.0348 0-.0738.0267-.0429.029-.0429.0619 0 .0314.0429.0438.007.002.0805.0133.0433.007.0433.0233 0 .007-.0157.0114-.0157.005-.04.005-.061 0-.0962-.0186-.0467-.0248-.0467-.0795 0-.0571.0572-.091.0486-.0286.11049-.0286.0186 0 .0338.009.0186.0105.0186.0276z"/><path d="m120.01468 105.61624q0 .0105-.0252.0438-.0252.0333-.0252.051 0 .009.0105.0181.0238.021.0238.0257 0 .006-.004.0119-.004.006-.01.006-.005 0-.0148-.006-.007-.004-.0257-.0186-.007.0138-.0109.021-.0133.0252-.0181.0367-.007.0219-.0143.0438-.0124.0295-.031.0295l-.00048-.011q0-.0338.0219-.08.004-.009.0238-.0443-.0376-.0205-.0829-.0205 0-.0176.007-.0257.008-.009.0252-.009.0162 0 .0405.006.0119.003.0238.006.009-.003.0248-.031.0386-.0676.0524-.0776.004.006.006.0124.003.006.003.0119z"/><path d="m120.19042 105.78626q0 .0233-.0176.0524-.02.0329-.0414.0329-.006 0-.0105-.007-.004-.007-.004-.0138 0-.009.0181-.0267.0186-.0186.0186-.0252 0-.004-.001-.009-.001-.004-.002-.006-.0357.008-.0729.041-.0367.0329-.0557.0371-.004-.0105-.004-.0214 0-.0133.006-.0281.004-.0105.0143-.0252.0167-.0252.0352-.0571.01-.0167.0329-.0576.0238-.041.0348-.0581.006-.009.01-.0129.006-.006.0148-.008.006.002.008.007.003.005.003.0124 0 .0162-.021.0438-.0381.0495-.0391.0514-.0214.0324-.0214.0586l.00095.005q.0262-.0129.031-.0148.0195-.008.0333-.008.0152 0 .0224.0105.007.01.007.0257z"/><path d="m120.58142 105.631q0 .0224-.0238.06-.0152.0238-.05.0686-.0348.0443-.0433.0581.001.00048.0357.0114.0348.0105.0348.0381-.0143.002-.0281.004l-.005-.00048v-.004q-.008-.002-.0124-.002-.009 0-.0286.003-.0195.003-.0295.003-.0129 0-.021-.005-.008-.005-.008-.0171 0-.01.0367-.0567.0686-.0872.069-.0881.0371-.0505.0371-.0676 0-.007-.005-.01-.004-.003-.0176-.003-.009 0-.0376.0176-.0138.009-.0224.009l-.008-.001q-.003-.002-.006-.007-.003-.006-.003-.009 0-.02.0386-.0367.0329-.0143.0571-.0143.0205 0 .0314.0152.01.0133.01.0348z"/><path d="m120.86765 105.71673q0 .0576-.0624.10192-.0572.0405-.11763.0405-.03 0-.0476-.0152-.0176-.0152-.0176-.0443 0-.0648.0567-.1124.0538-.0452.1205-.0452.0338 0 .051.02.0172.02.0172.0548zm-.029.011q0-.0219-.0248-.0329-.0186-.008-.0443-.008-.0376 0-.0786.0367-.041.0367-.041.0738 0 .0152.008.0219.008.006.0243.006.0467 0 .0972-.0257.0595-.0305.0595-.0719z"/><path d="m121.08577 105.631q0 .0224-.0238.06-.0152.0238-.05.0686-.0348.0443-.0433.0581.001.00048.0357.0114.0348.0105.0348.0381-.0143.002-.0281.004l-.005-.00048v-.004q-.008-.002-.0124-.002-.009 0-.0286.003-.0195.003-.0295.003-.0129 0-.021-.005-.008-.005-.008-.0171 0-.01.0367-.0567.0686-.0872.0691-.0881.0371-.0505.0371-.0676 0-.007-.005-.01-.004-.003-.0176-.003-.009 0-.0376.0176-.0138.009-.0224.009l-.008-.001q-.003-.002-.006-.007-.003-.006-.003-.009 0-.02.0386-.0367.0329-.0143.0571-.0143.0205 0 .0314.0152.01.0133.01.0348z"/><path d="m121.30485 105.631q0 .0224-.0238.06-.0152.0238-.05.0686-.0348.0443-.0433.0581.001.00048.0357.0114.0348.0105.0348.0381-.0143.002-.0281.004l-.005-.00048v-.004q-.008-.002-.0124-.002-.009 0-.0286.003-.0195.003-.0295.003-.0129 0-.0209-.005-.008-.005-.008-.0171 0-.01.0367-.0567.0686-.0872.0691-.0881.0371-.0505.0371-.0676 0-.007-.005-.01-.004-.003-.0176-.003-.009 0-.0376.0176-.0138.009-.0224.009l-.008-.001q-.003-.002-.006-.007-.003-.006-.003-.009 0-.02.0386-.0367.0329-.0143.0572-.0143.0205 0 .0314.0152.01.0133.01.0348z"/></g><path d="m111.27167 119.47294c-.28457-.0936-1.62363-.61704-2.97568-1.1632-1.35205-.54615-3.17238-1.22488-4.04518-1.50827-1.5136-.49146-2.29889-.72118-6.384691-1.86774-1.643777-.46128-1.750582-.50393-1.32912-.53073.615397-.0391 4.902281.87984 6.761901 1.44954.14977.0459.16463-.0417.16463-.96993v-1.02035l-.87019-.11845c-1.08886-.14821-2.21779-.53274-3.096247-1.05462-.849942-.50494-2.086692-1.68405-2.655296-2.53154-.413366-.61611-1.103328-1.97524-1.23272-2.42828l-.06045-.21167h8.229013 8.22901l-.0534.21167c-.0294.11641-.1908.53967-.3587.94057-.74922 1.78886-2.25012 3.45746-3.81569 4.24204-.95129.47673-2.00236.78194-3.01788.87632l-.63892.0594v1.10782 1.10782l.44686.14155c.24577.0779 1.09734.33976 1.89239.582 3.602 1.0975 6.09182 2.23909 5.91103 2.71023-.0774.20179-.43777.19388-1.10065-.0242zm-14.769626-14.14604c0-.0666.06242-.62434.138709-1.23933.765629-6.171879 3.008739-10.197364 6.130797-11.002322 2.21525-.571156 4.44336.369113 5.86137 2.473509 1.35279 2.00761 2.33685 5.418943 2.60173 9.019123l.064.87019h-7.39831c-5.972371 0-7.398316-.0234-7.398316-.12117z" fill="#32cb32" stroke-width=".094074"/><g fill="#fff" stroke-width=".264583"><g transform="scale(.99327419 1.0067714)"><path d="m52.780762 108.11712v-.67665q-.778616-.46346-1.316232-.64885-.537616-.18538-1.056693-.18538-.806424 0-1.297694.38003-.491269.37077-.491269.98254 0 .55616.426385.92693.426385.3615 1.09377.3615.556154 0 1.195732-.27808.648846-.27808 1.446001-.86204zm0 2.58612v-.87131q-.723001.58396-1.436732.86204-.713731.27808-1.510886.27808-1.362578 0-2.206079-.8157-.834231-.81569-.834231-2.13192 0-1.36258.899116-2.19681.908385-.83423 2.391464-.83423.509808 0 1.158654.16684.658116.15758 1.473809.49127v-.54688q0-1.26062-.472731-1.84458-.472731-.58396-1.483078-.58396-.713731 0-1.251347.28735-.537616.28734-.98254.90838l-1.612847-.41712q.444923-1.07523 1.473809-1.65919 1.038155-.58396 2.511963-.58396 1.853848 0 2.669541.88985.824962.88984.824962 2.96615v4.00431h1.399655v1.63139z"/><path d="m63.811156 104.89143q-.259539-1.01035-.889847-1.5387-.630308-.52834-1.57577-.52834-1.334771 0-2.104117.87131-.769347.86203-.769347 2.37292 0 1.48308.760077 2.33585.769347.85277 2.085579.85277.936193 0 1.696271-.482.769346-.482 1.232808-1.37185l1.46454.71373q-.537616 1.3255-1.714809 2.09485-1.177193.76008-2.67881.76008-2.104117 0-3.41108-1.34404-1.306962-1.34404-1.306962-3.54085 0-2.13193 1.260616-3.50377 1.269886-1.37185 3.216426-1.37185.797154 0 1.45527.25954.667385.25027 1.279155.78788v-.81569h1.483078v3.44816z"/><path d="m71.384123 109.25724q1.306963 0 2.048502-.8435.741539-.8435.741539-2.34512 0-1.50162-.741539-2.34512-.73227-.8435-2.048502-.8435-1.297693 0-2.048502.85277-.741539.8435-.741539 2.33585 0 1.48308.750808 2.33585.750809.85277 2.039233.85277zm4.653158-3.17008q0 2.18754-1.288425 3.54085-1.288424 1.34404-3.364733 1.34404-2.06704 0-3.346195-1.34404-1.279155-1.34404-1.279155-3.54085 0-2.19681 1.279155-3.53158 1.279155-1.34404 3.346195-1.34404 2.076309 0 3.364733 1.35331 1.288425 1.34404 1.288425 3.52231z"/><path d="m78.317515 109.07185v-6.09916h-1.306963v-1.52942h2.901272v1.81677q.482-1.05669 1.167924-1.52015.685923-.47274 1.779693-.47274.157577 0 .333693.009.176116 0 .3615.009v1.78897q-.0093 0-.05561-.009-.426385-.0278-.639578-.0278-1.492347 0-2.18754.85277-.685923.85277-.685923 2.73442v2.44708h1.659193v1.63139h-4.634619v-1.63139z"/><path d="m85.148943 109.07185v-6.09916h-1.306963v-1.52942h2.901272v1.41819q.926924-.7508 1.687002-1.09377.769346-.34296 1.520155-.34296 1.21427 0 1.714809.68593.509808.67665.509808 2.63246v4.32873h1.362578v1.63139h-3.031041v-5.2742q0-1.64992-.259539-2.07631-.250269-.43565-.917654-.43565-.602501 0-1.214271.34296-.6025.34296-1.297693 1.0845v4.72731h1.371847v1.63139h-4.347273v-1.63139z"/></g><g transform="scale(.99311891 1.0069288)"><path d="m117.7082 106.55252q.0371 1.21407.82483 1.9555.79703.73215 2.08525.73215.89898 0 1.67747-.42632.77849-.42631 1.26042-1.20481l1.4643.75996q-.71361 1.26969-1.83501 1.9277-1.12141.65801-2.58571.65801-2.16866 0-3.45688-1.32529-1.28822-1.33456-1.28822-3.55883 0-2.19646 1.27895-3.53102 1.27895-1.34383 3.34567-1.34383 2.14085 0 3.31786 1.40871 1.18627 1.39943 1.18627 3.94807zm.15755-1.37163h5.25483q-.13902-1.18628-.81556-1.81649-.67655-.63021-1.82575-.63021-1.13994 0-1.83502.64875-.68582.63947-.7785 1.79795z"/><path d="m127.25401 99.054888h-1.32529v-1.538451h2.99349v11.538383h1.35309v1.63112h-4.34658v-1.63112h1.32529z"/><path d="m133.0649 106.55252q.0371 1.21407.82483 1.9555.79703.73215 2.08525.73215.89898 0 1.67747-.42632.77849-.42631 1.26042-1.20481l1.46431.75996q-.71362 1.26969-1.83502 1.9277-1.1214.65801-2.58571.65801-2.16866 0-3.45688-1.32529-1.28822-1.33456-1.28822-3.55883 0-2.19646 1.27895-3.53102 1.27895-1.34383 3.34567-1.34383 2.14085 0 3.31786 1.40871 1.18627 1.39943 1.18627 3.94807zm.15755-1.37163h5.25483q-.13901-1.18628-.81556-1.81649-.67655-.63021-1.82575-.63021-1.13994 0-1.83502.64875-.68582.63947-.7785 1.79795z"/><path d="m148.80158 104.87505q-.2595-1.01019-.88971-1.53845-.6302-.52826-1.57552-.52826-1.33456 0-2.10378.87117-.76923.8619-.76923 2.37255 0 1.48284.75996 2.33548.76923.85263 2.08525.85263.93604 0 1.696-.48192.76923-.48193 1.23262-1.37163l1.4643.71361q-.53753 1.3253-1.71453 2.09452-1.17701.75996-2.67839.75996-2.10378 0-3.41054-1.34383-1.30676-1.34383-1.30676-3.54029 0-2.13159 1.26042-3.50322 1.26969-1.37163 3.21592-1.37163.79703 0 1.45504.2595.66728.25023 1.27895.78776v-.81556h1.48284v3.44761z"/><path d="m154.28811 108.12804q0 .67655.15755.92678.16682.24096.58387.24096.21316 0 .43558-.0556.2317-.0649.5468-.20389v1.61259q-.35217.14829-.72289.22243-.36144.0834-.73215.0834-1.07506 0-1.51065-.50973-.42631-.50973-.42631-2.03891v-5.44945h-1.21408v-1.52918h1.21408v-1.24188l1.6682-1.380902v2.622782h1.7238v1.52918h-1.7238z"/><path d="m157.98594 109.05482v-6.0982h-1.30675v-1.52918h2.90081v1.81648q.48193-1.05652 1.16774-1.51991.68582-.47266 1.77941-.47266.15756 0 .33364.009.17609 0 .36145.009v1.78868q-.009 0-.0556-.009-.42632-.0278-.63948-.0278-1.49211 0-2.18719.85264-.68582.85264-.68582 2.73399v2.4467h1.65894v1.63112h-4.63389v-1.63112z"/><path d="m168.38439 109.24017q1.30675 0 2.04817-.84337.74143-.84336.74143-2.34474 0-1.50138-.74143-2.34475-.73215-.84337-2.04817-.84337-1.29749 0-2.04818.85264-.74142.84337-.74142 2.33548 0 1.48284.75069 2.33548.75069.85263 2.03891.85263zm4.65242-3.16958q0 2.1872-1.28822 3.54029-1.28822 1.34383-3.3642 1.34383-2.06672 0-3.34567-1.34383-1.27895-1.34383-1.27895-3.54029 0-2.19646 1.27895-3.53102 1.27895-1.34383 3.34567-1.34383 2.07598 0 3.3642 1.3531 1.28822 1.34383 1.28822 3.52175z"/><path d="m175.31668 109.05482v-6.0982h-1.30675v-1.52918h2.90081v1.41797q.92678-.75069 1.68673-1.0936.76923-.34291 1.51992-.34291 1.21408 0 1.71454.68582.50972.67655.50972 2.63205v4.32805h1.36237v1.63112h-3.03056v-5.27336q0-1.64966-.2595-2.07598-.25023-.43559-.91751-.43559-.60241 0-1.21408.34291-.60241.34291-1.29749 1.08433v4.72657h1.37163v1.63112h-4.34658v-1.63112z"/></g></g></g></svg>