<svg height="148.01109" viewBox="0 0 980.44751 148.01109" width="980.44751" xmlns="http://www.w3.org/2000/svg" xmlns:xlink="http://www.w3.org/1999/xlink"><linearGradient id="a" gradientUnits="userSpaceOnUse" x1="611.29907" x2="636.07648" y1="75.178474" y2="84.749962"><stop offset="0" stop-color="#687378"/><stop offset=".49839056" stop-color="#646f74"/><stop offset="1" stop-color="#333638"/></linearGradient><linearGradient id="b" gradientUnits="userSpaceOnUse" x1="560.29388" x2="567.75397" y1="166.79585" y2="25.89254"><stop offset="0" stop-color="#784421"/><stop offset="1" stop-color="#7e4a2d"/></linearGradient><linearGradient id="c" gradientUnits="userSpaceOnUse" x1="576.55652" x2="581.2088" y1="165.30116" y2="26.97649"><stop offset="0" stop-color="#a56a27"/><stop offset=".72368944" stop-color="#a56a27"/><stop offset="1" stop-color="#9b6b44"/></linearGradient><g transform="translate(-3.727437 -21.675305)"><text fill="#ef00eb" font-family="TrasksHand" font-size="2" stroke="#0105ff" stroke-width="2.5" x="471.58044" y="148.38998"><tspan fill="#fafafa" fill-opacity=".4" font-size="2" stroke="none" stroke-width="2.5" x="471.58044" y="148.38998">John Loreth 2022</tspan></text><path d="m557.3418 21.677734c-16.87168.169678-33.72329 4.212086-48.72106 11.973574-12.046 6.171129-22.95311 14.838146-30.91582 25.848538-4.42151 6.008792-8.15577 12.832818-9.09009 20.335964-.78875 6.343539.621 13.074955 4.52236 18.217998 4.24629 5.662772 11.01348 8.993572 17.90187 10.096582 2.93237.47427 5.9165.58957 8.88086.43359-1.06508 3.56611.63942 7.70419 3.91074 9.47894 2.93731 1.69814 6.53779 1.40313 9.66153.42536 2.03518-.60467 4.09426-1.12547 6.16211-1.60547-5.07044 9.29198-10.9277 18.4076-19.05007 25.33974-5.23254 4.50175-11.59928 7.92373-18.51923 8.77506-4.46132.62574-9.06171.0984-13.26717-1.51762-.90194-.32429-1.79467-.67871-2.65377-1.10499 2.91239-.8034 5.87883-1.46577 8.71096-2.52376 5.42244-2.44088 9.31004-8.08271 9.37088-14.06874.18942-5.6332-2.43563-11.33956-7.04038-14.64898-4.60188-3.4932-10.66002-4.4568-16.29545-3.8265-6.42796.62417-12.63661 3.6384-16.9092 8.51416-4.77933 5.22054-7.08147 12.48177-6.54128 19.50704.43141 6.54553 3.51345 12.82619 8.32617 17.268 5.58168 5.26266 12.94248 8.22588 20.36718 9.76503 9.04303 1.84658 18.3858 1.56011 27.4955.37898 13.72931-1.90501 27.01095-7.0396 38.37148-14.99461 10.63149-7.32935 19.74025-16.85483 26.53123-27.84187 3.04388-4.87535 5.66155-10.01263 7.87854-15.31391 9.92519-1.15541 19.75353-3.40551 29.06445-7.0625-2.40223 5.02388-4.7176 10.09391-7.2121 15.07155-3.1344 5.05281-6.45214 9.99501-9.43456 15.13974-2.7316 4.97957-4.54108 10.66266-4.01582 16.39552.27468 4.65606 2.02098 9.51533 5.84192 12.41631 4.09282 3.14584 9.6904 3.63662 14.57214 2.36476 3.58855-.88186 6.94134-2.53914 10.04139-4.5246.62969 2.76093 3.25899 4.8893 6.09799 4.90168 2.93244-.0742 5.86304-.33695 8.79517-.47762 4.92623-.31106 9.86179-.53174 14.78067-.92406 2.39546-.39865 4.29026-2.29375 5.13143-4.51127 4.56593-9.29627 7.85908-19.14599 12.23575-28.52583 2.31189-4.80674 4.9191-9.57069 8.66125-13.42888 1.36128-1.46647 2.79571-2.86296 4.25868-4.22737-1.35095 4.49896-3.4785 8.8578-5.67188 12.90234-2.54345 4.62567-5.13539 9.23386-7.26283 14.07108-1.27642 2.66987-2.14971 5.6235-1.82587 8.60973.30253 4.66695 2.49241 9.36226 6.45784 12.00083 4.13039 2.85173 9.33673 3.4062 14.22782 3.18535 6.84901-.19981 13.87039-1.80969 19.5007-5.8748 1.66174-1.1792 3.23259-2.48161 4.73633-3.85547 2.01811 4.27253 5.73095 7.66395 10.13013 9.36976 5.83194 2.37058 12.29229 2.39657 18.46872 1.82439 10.07424-1.01921 19.82188-5.07576 27.59796-11.57098 1.61842-1.30981 3.19197-2.82443 4.62741-4.24427 1.34467 5.30812 5.10184 9.95713 9.98092 12.42968 3.26805 1.66596 7.03598 2.17318 10.65465 1.69252 4.33019-.48438 8.50551-2.20263 11.95817-4.85462 2.4406 3.16104 6.46624 4.60346 10.33585 4.91621 3.90869.40365 7.89637-.36702 11.40885-2.11701 5.88393-2.78356 10.84041-7.11855 15.59515-11.4867.89324-.84246 1.77681-1.69584 2.64258-2.5664-.16572 3.18806.34341 6.45135 1.86578 9.28625 1.88533 3.733 5.29354 6.62915 9.27478 7.9057 4.21471 1.44123 9.00707 1.13677 12.94635-.97511 4.97912-2.48627 9.19884-6.2098 13.2327-9.987 2.72303-2.58992 5.35076-5.28036 7.8757-8.06383-.28862 3.36588-.19106 6.87371 1.22413 10.00205 1.7324 4.14189 5.25242 7.4927 9.51969 8.92139 4.28261 1.55816 9.20852 1.28814 13.23762-.87651 4.95772-2.47214 9.15623-6.18031 13.17619-9.93457 4.62735-4.43225 9.04912-9.09727 13.05862-14.09817 1.77829-2.30673 3.67025-4.89478 3.68414-7.93411.0246-3.18408-2.21078-6.32327-5.37967-7.01102-3.06632-.80279-6.34333.40251-8.62315 2.49204-3.11031 2.48788-5.80212 5.43762-8.56749 8.29046 1.12843-3.73192 2.40738-7.47898 4.47265-10.80859.66196-.94021 1.77124-1.44849 2.62738-2.2012 7.72496-5.88166 15.5674-11.62224 22.92723-17.96437 15.98826-13.594369 30.70603-28.910393 42.19119-46.543562 2.7059-4.110907 5.19399-8.502611 6.14853-13.385936.6141-3.214307.85759-6.74856-.71759-9.739211-1.50201-3.022647-4.39906-5.214464-7.64631-6.054333-4.05699-1.1486-8.37397-1.042825-12.50504-.382872-8.22101 1.462649-15.61785 5.765454-22.19562 10.748893-.51786.389449-1.02514.792488-1.53484 1.192513.12214-3.624782-1.53891-7.274516-4.47988-9.431027-2.95923-2.263823-6.80857-2.87666-10.44115-2.989284-6.49641-.183772-12.88361 1.762376-18.59138 4.764241-8.03873 4.224155-15.01207 10.184012-21.46642 16.510073-8.086 8.087689-15.44051 16.883728-22.29407 26.031654-10.3197 13.853549-19.23022 28.816581-25.85601 44.790121-.88644-.41698-1.86632-.63025-2.8457-.625 3.8489-5.60406 7.39369-11.4657 10.01139-17.75359.77041-1.992169 1.57123-4.009241 1.93794-6.11801.33627-3.272613-2.36753-6.49325-5.65941-6.696925-4.31991-.57361-8.70819-.645904-13.04969-.304518-2.42368.275726-4.89196.931938-6.85156 2.445312-2.79338-1.486172-5.88749-2.800595-9.12417-2.446114-7.19961.364082-13.89286 3.663929-19.68903 7.762014-5.74892 4.062731-10.89182 8.917321-15.6868 14.055191.3831-3.93104.59577-8.06191-.9415-11.792212-1.82652-4.706856-5.78374-8.762846-10.79461-9.925583-1.92703-.476357-3.93574-.606332-5.91038-.416967 1.45542-2.834515 2.64147-5.797999 4.20012-8.580568 4.82853-9.279253 9.70704-18.534021 14.48892-27.835881 1.49734-3.234096-.50444-7.508095-3.96547-8.395782-1.96649-.505704-4.01523-.222034-6.02044-.340113-3.66081-.04583-7.41765-.416529-10.96956.704455-2.78984.824325-5.46417 2.077673-7.882 3.690076-1.61083 1.341822-2.38914 3.355222-3.57292 5.035773-12.66262 20.296055-24.88445 40.867891-36.71321 61.660952-2.886 5.11723-5.71815 10.26519-8.41114 15.48687-1.59801 1.00321-2.95254 2.22339-4.44165 3.29197-3.03113 2.32711-6.03264 4.85667-9.70288 6.11233 4.14835-7.91424 8.805-15.72779 11.00591-24.46832 1.27078-5.22173 1.19333-11.03705-1.49331-15.818501-2.17116-3.831059-6.13178-6.458114-10.41494-7.324511-4.75568-1.102987-9.80906-.607999-14.33211 1.191366-3.62318 1.335206-7.00582 3.225146-10.34368 5.146524-.99639-3.612276-3.30739-6.954333-6.69352-8.685762-3.68438-2.024196-8.44202-2.345519-12.13805-.173075-.92754.503051-1.7989 1.102197-2.6528 1.720165 1.8542-3.347217 2.10622-7.292834 1.95048-11.039327-.18362-3.971792-1.8599-8.095798-5.26649-10.353453-1.16662-.794354-2.47224-1.376195-3.83243-1.747845.88211-8.022813-1.266-16.398984-6.21296-22.816832-.55168-.743533-1.14987-1.461035-1.75774-2.151918 2.48057-.76656 5.10386-1.563004 7.04101-3.375 2.03201-1.975674 2.73635-5.126527 1.75775-7.784255-.98663-3.185364-3.95294-5.60962-7.27288-5.941852-3.08918-.389953-6.21.101953-9.25756.60503-4.20787.780287-8.32138 1.99633-12.37184 3.365218-8.29463-3.813081-17.15294-6.652541-26.30676-7.262866-6.13268-.535214-12.29425-.623813-18.44714-.604322zm-435.64258 4.566407c-16.04947.186538-31.95948 4.33497-46.27688 11.533169-11.985727 5.933402-23.015369 14.104278-31.338082 24.644596-4.572279 5.724494-8.625662 12.145775-10.193633 19.392547-1.405987 6.432534-.694328 13.497331 2.835734 19.152037 2.809111 4.60613 7.275958 8.03742 12.250848 10.03107 4.741377 1.92689 9.905487 2.65091 15.003262 2.53955-3.057905 1.89914-6.249702 4.08342-7.765283 7.48334-1.122906 2.36225-1.217373 5.2423.0602 7.56549.981946 2.27622 3.251774 3.70187 5.607595 4.20927 2.165492.67922 4.453563-.0174 6.347483-1.11748 5.718459-3.01157 11.426189-6.0413 17.166439-9.01024.927076-.59633.391767.13428.06742.65957-4.42278 7.39561-9.954147 14.34497-17.186981 19.16317-5.313916 3.53451-11.503086 5.6889-17.851147 6.30201-2.292363.23593-4.601566.31388-6.904713.22924-.34719-.0176-1.136691-.0554-1.652842-.10366-3.619109-.33111-7.229822-.99458-10.653798-2.23618-.789459-.15242-.131651-.32168.498047-.41406 1.706764-.40752 3.283884-.80368 4.977381-1.12336 5.46625-.99084 10.41018-5.12206 11.837072-10.5661 1.236348-5.32277-.385357-11.3288-4.378906-15.11523-3.805031-3.5452-9.132724-4.84625-14.209253-4.97796-6.286986-.31573-12.74312 1.50317-17.679419 5.4721-4.1556349 3.28907-7.0958147 8.08124-8.0280052 13.30783-1.1741656 6.17672.2388056 12.79016 3.8510003 17.94001 3.9590579 5.72282 10.2079599 9.44412 16.7119789 11.6101 10.429726 3.47225 21.593834 3.93805 32.48685 3.28113 14.813373-.86153 29.676886-4.55819 42.482082-12.22305 8.84608-5.22117 16.51494-12.38592 22.44141-20.76758-1.39778 2.81348-2.96016 5.61085-3.51826 8.74177-.88033 4.07758-.32192 8.46376 1.73506 12.11174 3.05363 5.70059 9.03098 9.96977 15.59014 10.21325 5.65687.29361 11.37111-1.51653 15.89814-4.90465 2.62327 3.23282 6.85404 4.61599 10.88692 4.87922 3.84802.32032 7.74901-.46333 11.20851-2.1674 5.72294-2.67247 10.58937-6.8113 15.23695-11.01764 2.12353-1.96153 4.24828-4.02053 6.18519-6.1141-.29424 3.52638-.41668 7.22284 1.02716 10.53847 1.66139 4.20983 5.19338 7.63132 9.49014 9.0805 4.2671 1.56172 9.17804 1.29922 13.19879-.85082 5.13536-2.5445 9.47024-6.39074 13.63287-10.26779.62868-.59613 1.2566-1.1929 1.86784-1.807 1.99221 5.34408 6.39858 9.7972 11.79239 11.69687 5.05253 1.70292 10.66522 1.0435 15.5296-.95983 1.86218-.79237 3.63632-1.79735 5.25418-3.01439 2.5776 3.17397 6.71231 4.57556 10.67755 4.8656 3.91634.36407 7.89889-.41449 11.42327-2.14895 3.69501-1.70942 7.0383-4.08115 10.18825-6.64048-1.43559 2.26213-1.3337 5.3788.33958 7.48896 1.38058 1.88451 3.78815 2.73359 6.0677 2.59008 5.95635.0858 11.91432.26861 17.87006.26862 2.48084-.20093 4.6666-1.96297 5.55431-4.2647 3.22987-6.45177 6.24678-13.00874 9.43708-19.47893 3.12545-5.80847 6.41873-11.5636 10.43439-16.81106 2.2394-2.28456 4.6816-4.35798 7.16602-6.36914.42341 1.86102 1.35698 3.59859 2.5625 5.06641 1.30614 1.37464 3.02598 2.27974 4.72339 3.08089.30542.28768 1.39913.17325 1.07579.69304-3.20595 6.84153-5.05365 14.50919-4.21411 22.08278.63909 5.02521 3.35821 9.91429 7.78216 12.5381 4.83873 2.98562 10.74401 3.50199 16.29777 3.11169 8.53572-.6856 16.54186-4.54388 23.21876-9.77209 6.61657-5.13728 11.98023-11.63402 17.34649-18.00985 1.69235-2.13219 3.41519-4.28643 4.65646-6.7187 1.29033-3.07762.27629-7.10182-2.67187-8.83789 3.51583-4.70602 5.51716-10.59932 5.18327-16.49654-.17309-4.57426-1.76551-9.332417-5.33328-12.373609-3.64609-3.183163-8.70092-4.133969-13.41452-3.856458-9.08434.346496-17.74022 4.171386-24.93833 9.575647-1.05256.775278-2.07299 1.59312-3.07527 2.43221-1.4464-3.647146-4.23913-6.728377-7.63084-8.672428-3.3543-1.853204-7.42696-2.121906-11.08029-1.069366-5.07725 1.280645-9.56301 4.088737-14.04863 6.683197-1.00726-3.64161-3.36526-6.989738-6.78023-8.723406-3.67438-1.980339-8.41154-2.369511-12.10106-.214374-2.67715 1.540151-5.05378 3.546705-7.40191 5.539343-.22806-2.921098-2.61167-5.525656-5.54883-5.859375-1.93553-.211297-3.86718.20941-5.80214.266262-5.42855.439328-10.87282.733228-16.28966 1.286472-2.3076.455904-4.07405 2.315722-4.93083 4.437328-5.18064 10.131707-11.45045 19.656327-17.84705 29.050757-2.35757 3.41583-4.814 6.76915-7.4936 9.9416 1.09437-3.6077 2.62915-7.06683 4.36523-10.4082.37286-.69663.86808-1.65281 1.31077-2.4427 4.28838-7.74221 9.20345-15.14839 14.82638-21.987072 2.20488-2.933728 1.1537-7.646889-2.09881-9.356453-2.10879-1.328262-4.65745-.729328-6.98211-.618256-6.12331.460876-12.26407.798131-18.38755 1.362464-2.3675.416592-4.19805 2.323387-5.05489 4.497295-4.98585 9.951102-9.97169 19.902212-14.95754 29.853312-2.55076.11582-4.79991 1.53154-6.66037 3.17887-3.40363 2.74911-6.22446 6.11896-9.39627 9.11605.86723-3.38803 3.01846-6.21075 4.68064-9.22881 8.52116-14.53636 17.04233-29.072717 25.5635-43.609076 4.28222-.02902 8.57073.07585 12.84885-.06582 2.54936-.252649 4.64839-2.314241 5.24685-4.76035.51465-2.39283 1.84325-4.775038 1.20313-7.27539-.70733-2.930032-3.76707-4.922547-6.72695-4.59375-.66849 0-1.33698 0-2.00547 0 3.10282-5.391133 6.2656-10.750212 9.30338-16.175762 1.51207-3.157866-.39838-7.373162-3.7819-8.296894-2.05592-.583676-4.19585-.07795-6.29009-.105431-5.31334.253029-10.63687.381719-15.94277.735277-1.88568.257782-3.47514 1.528439-4.41709 3.143611-10.93068 18.145688-21.92293 36.258291-32.78242 54.447795-3.45881 5.83053-6.95188 11.66688-9.65594 17.8976-.33337.73685-.6541 1.4795-.97223 2.22294-1.22437-1.40844-3.04688-2.24541-4.91211-2.26758 4.2998-6.62165 8.65081-13.19051 12.93973-19.829904 1.20713-1.569998 1.68301-3.671559 1.14816-5.591965-.6376-2.692168-3.1384-4.790969-5.91618-4.878138-1.92164-.03986-3.8304.277812-5.74967.358168-5.26255.424505-10.54039.709348-15.79119 1.248486-2.28107.453623-4.05225 2.278313-4.89986 4.382994-3.59366 7.061749-7.75299 13.798069-12.05291 20.412729-4.21264 6.36434-8.3892 12.78545-13.31676 18.63006 2.20978-7.20712 6.05616-13.76275 9.9767-20.15086 3.19645-5.14862 6.75376-10.06942 10.5808-14.765326 2.13344-2.938776 1.06372-7.580444-2.15588-9.274337-2.0134-1.272597-4.45554-.77253-6.68287-.639557-6.22386.469015-12.46314.811516-18.68678 1.383765-2.35535.414588-4.1815 2.305139-5.04108 4.466117-.34372.439142-.40413 1.311752-.93086 1.470868-.94806.04865-1.89591.09494-2.84323.149953.83699-3.651736 1.83384-7.433935 2.97266-10.898437.341-.997571.68616-2.072489 1.0014-2.950908 2.63457-7.498374 6.06608-14.65423 9.21149-21.924092.32231-.992452.38309-2.063044.20508-3.089844 5.1221 1.331037 10.38256 2.599119 15.71357 2.303646 6.8344-.499876 13.08952-3.753768 18.66858-7.535844 4.05566-2.74894 7.8533-6.429679 9.24762-11.263218.81703-2.577987.7211-5.499816-.66786-7.868066-1.19369-2.38329-3.84672-3.542238-6.36124-3.909754-2.63486-.44873-5.03024 1.014102-7.5088 1.626269-2.65459.781917-5.32678 1.681897-8.1007 1.871586-.82479-.02069-1.85416-.08476-2.64547-.138681-1.00616-.07493-1.86639-.177228-2.92106-.284458-3.57516-.401746-7.28199-1.059899-10.72347-1.651089-11.16357-2.058385-22.44519-4.804282-33.91797-4.625zm438.26172 14.666015c5.79836.01768 11.60635.254376 17.35937 1.009766-15.50305 10.011855-28.07129 24.018378-38.09924 39.398416-3.11494 4.776346-6.00676 9.697079-8.69763 14.724631-.77287.110519-1.55616.235311-2.31836.359375 6.12631-6.119957 10.65556-13.948943 12.34425-22.481316.96298-4.681454 1.086-9.505177.70928-14.258541-.45997-5.117522-2.32453-10.375601-6.28907-13.822625-1.077-.943622-2.28657-1.732471-3.56915-2.367206 1.35741-.29864 2.74539-.572711 4.0211-.782572 8.10177-1.353546 16.33564-1.752013 24.53945-1.779928zm-452.83008 6.398438c5.91456.05936 11.73431 1.322918 17.46015 2.700587 2.72887.687737 5.32966 1.405336 8.04249 2.232704.56313.171528 1.14505.345412 1.70439.533506-5.33978 2.829935-9.6727 7.177006-13.66925 11.635617-4.79962 5.470858-9.00685 11.427161-13.14667 17.40307-1.12423 1.651498-2.27715 3.421979-3.31689 5.041391 2.8075-6.336391 3.78041-13.360558 3.43352-20.250009-.11743-5.312363-1.55463-10.863674-5.25371-14.835631-1.36519-1.476106-3.015461-2.682665-4.816531-3.572563 3.147751-.614629 6.355821-.905517 9.562501-.888672zm810.5332 2.298828c-5.30041 8.771423-12.15343 16.468137-19.1455 23.912096-4.29082 4.514156-8.68683 8.928589-13.19239 13.228529 5.03819-7.248171 10.29856-14.347589 15.90235-21.169922.94736-1.135595 2.04394-2.435898 3.07749-3.613928 4.11911-4.620554 8.40273-9.185466 13.47606-12.776053.45357-.427793-.0824.302512-.11801.419278zm45.06641.02539c-.64988 1.118663-1.49186 2.405339-2.26186 3.559184-1.17994 1.745498-2.42548 3.471792-3.65533 5.080046-1.70372 2.226796-3.67828 4.640124-5.53789 6.786552-6.57727 7.585596-13.62746 14.749906-20.875 21.693359 2.03371-2.947224 4.07819-5.7884 6.18799-8.638588 5.81615-7.816575 11.78829-15.572394 18.70862-22.455432 2.42643-2.372301 4.93914-4.682433 7.75769-6.585667-.10808.186849-.21615.373698-.32422.560546zm-364.83985 2.539063c.51594 2.664796.29773 5.40676-.0352 8.080078-.0654.394477-.12648.897757-.23724 1.428386-1.54492 8.088102-6.36967 15.236501-12.4112 20.690755-2.86957 2.549883-6.09199 4.711173-9.57226 6.335937 3.41565-8.387048 6.89229-16.822504 11.81792-24.460246 2.92433-4.527842 6.21596-8.904201 10.36762-12.383504.0234.102865.0469.205729.0703.308594zm14.61133 42.986328c-1.10903.272989-.55654-.547051 0 0zm-513.847653 1.304688c-.827756 1.611343-1.628774 3.237092-2.369141 4.890629-.983128.22035-1.961416.46308-2.935547.7207 2.086411-1.94789 4.00371-4.078682 5.705079-6.371095-.133464.253255-.266928.50651-.400391.759766zm-35.119141-.261719c-1.330609.05321.381069-.995677 0 0zm566.699224.546875c-.58465.558914-1.1761 1.111362-1.75196 1.679687-.29509-.509207-.74601-1.003729-1.10351-1.40039 1.18468-.179625 2.36282-.439386 3.48632-.861328-.21028.19401-.42057.38802-.63085.582031zm256.29101 11.476563c-2.79991 5.60888-5.34902 11.34668-7.53711 17.22266-2.86374-1.46617-6.43788-.89737-8.97098.98703-3.39781 2.50226-6.30212 5.5876-9.196 8.64016-.66603.84068-.56463.3834-.28576-.37404 1.10701-3.45928 2.31973-6.94688 4.29814-10.01645.73992-.86985 1.80641-1.4248 2.67799-2.1677 6.4873-4.95255 13.07679-9.77667 19.36528-14.98307-.11718.23047-.23437.46094-.35156.69141zm-141.50977 2.08008c-1.45765 5.89412-4.45518 11.28027-7.83733 16.27378-1.3218 1.9029-2.77666 3.71322-4.34821 5.41567 2.8939-6.00124 6.05482-11.80986 9.34175-17.57292.99101-1.68652 1.98134-3.37426 3.04106-5.01888-.0657.30079-.13151.60157-.19727.90235zm-335.74804 2.87109c-.34697.44221-.70732.87378-1.08399 1.29102.46417-.58555.93346-1.16716 1.41993-1.73438-.11198.14779-.22396.29557-.33594.44336zm-10.28906 26.73438c-2.13243 1.45933-4.5315 2.69223-7.0254 3.27343.23222-.56043.30897-1.31378.68539-1.74098 2.27932-.52163 4.5395-1.12946 6.76774-1.83909-.14258.10221-.28516.20442-.42773.30664zm245.02929 4.11328c.69341.32842 1.10359 1.16481.91797 1.91211-.53126.29707-1.04374.71832-1.66823.39884-.52237.0225-1.51826-.4112-.75846-.89951.45668-.48481.91337-.96961 1.37005-1.45441l.0955.0296z" stroke-width="3.00094"/><g fill="url(#c)" stroke-width="3.00094"><path d="m117.17383 31.789062c-14.99794 0-29.555339 3.889213-43.513674 11.578126-13.971147 7.580973-24.871237 17.804225-32.505859 30.568359a2.989077 2.989077 0 0 0 -.002.0039c-3.766294 6.317654-5.767578 12.541511-5.767578 18.601563 0 6.750465 2.38475 12.59854 7.041015 16.72265a2.989077 2.989077 0 0 0 .03711.0312c4.600078 3.94293 10.531712 5.89258 17.292968 5.89258 11.19328 0 20.775939-4.29682 27.949219-12.58203 7.20997-8.309785 10.904297-18.204131 10.904297-29.203122v-1.72461c0-5.714981-1.011304-10.369998-3.5625-13.808593-2.551196-3.438596-6.686796-5.216797-11.324219-5.216797-3.986658 0-7.647984.989156-11.085937 2.513672 9.541783-6.441901 19.182958-9.640625 29.019528-9.640625 6.74996 0 16.53109 2.130553 29.00391 6.552734 12.74172 4.51752 20.9563 6.896484 26.17382 6.896484 4.8945 0 9.9558-2.105472 15.30469-5.867187 5.89557-3.936879 9.58203-8.439236 9.58203-13.673828a2.989077 2.989077 0 0 0 -.15429-.947266l-.34571-1.035156a2.989077 2.989077 0 0 0 -1.88672-1.886719l-1.03515-.345703a2.989077 2.989077 0 0 0 -2.02344.04492c-6.4377 2.484728-11.00393 3.595703-12.37305 3.595703-4.09973 0-11.57604-1.101473-21.94726-3.380859l.0312.0078c-10.57528-2.440452-18.7528-3.697265-24.8125-3.697266zm18.50586 25.521485c-4.1373.162247-8.01619 2.606925-12.12891 6.566406-4.10791 3.954846-8.50715 9.604813-13.3457 17.005859-.002.0035-.004.0063-.006.0098-.003.0052-.006.0085-.01.01367-7.46423 11.199007-12.7257 20.899038-15.917966 29.322268-5.243312 1.1375-11.660767 3.30919-19.822265 6.80664-5.518343 2.34823-9.72108 4.52466-12.738281 6.70703-3.017202 2.18236-5.289063 4.48576-5.289063 7.76758a2.989077 2.989077 0 0 0 .314453 1.33593c.02668.0534.100908.2246.183594.47266a2.989077 2.989077 0 0 0 1.728516 1.83008l.861328.34375a2.989077 2.989077 0 0 0 2.605468-.18946c5.461743-3.16206 9.571594-5.5475 12.335938-7.16015 1.382172-.80633 2.427951-1.41881 3.142578-1.8418.357314-.21149.629718-.37506.832031-.49805.08769-.0533.157876-.0961.228516-.14062 3.982091-2.12842 7.666077-3.58433 11.205078-4.73242-4.970132 11.33117-10.251344 20.10045-15.732422 25.95312a2.989077 2.989077 0 0 0 -.03125.0332c-8.600339 9.47126-18.722112 14.02343-31.066406 14.02343-4.274092 0-8.551314-.69177-12.871094-2.0957a2.989077 2.989077 0 0 0 -.01172-.004c-2.786566-.8938-4.689484-1.95985-5.736328-2.92773-1.046843-.96788-1.326172-1.66153-1.326172-2.67578 0-.51682.06788-.72633.546875-1.20508.474828-.47458 1.48525-1.10002 3.074219-1.63477 2.793819-.78045 5.640156-1.5089 8.546875-2.17968a2.989077 2.989077 0 0 0 .4375-.13672c4.245905-1.69836 7.052735-5.57218 7.052735-10.01758 0-4.10227-1.368364-7.80017-4.21875-10.18164-2.850387-2.38147-6.745457-3.32422-11.357422-3.32422-5.515743 0-10.483191 2.04112-14.220704 5.91211a2.989077 2.989077 0 0 0 -.002.002c-3.6219499 3.75611-5.4921871 8.67578-5.4921871 14.14453 0 9.38798 5.1611121 16.94476 14.2832031 21.31836a2.989077 2.989077 0 0 0 .03516.0156c6.942899 3.22349 15.310835 4.75976 25.052735 4.75976 19.344395 0 35.801619-4.81707 49.017578-14.54882 12.73657-9.37875 21.78086-23.06399 27.28907-40.51172 3.80727-.5054 7.72467-.80664 11.80664-.80664a2.989077 2.989077 0 0 0 2.5625-1.45118l2.06836-3.44921a2.989077 2.989077 0 0 0 -2.72266-4.52149c-4.74581.25424-7.75275.44388-10.82422.63672 1.28365-7.086408 2.85361-13.873061 4.86524-20.19531a2.989077 2.989077 0 0 0 .008-.02344c1.43331-4.630725 4.34823-12.308968 8.70117-22.847657a2.989077 2.989077 0 0 0 .11133-1.96289l-.3457-1.207032a2.989077 2.989077 0 0 0 -1.53321-1.849609l-.68923-.345652a2.989077 2.989077 0 0 0 -1.45703-.314453zm-75.261721 7.992187c-.28381.392663-.628898.677949-.902344 1.087891-5.274768 7.736503-7.921875 16.727592-7.921875 26.667969a2.989077 2.989077 0 0 0 .08789.724609c.236945.947778.476487 1.840556.716797 2.681641a2.989077 2.989077 0 0 0 4.986328 1.292968c-.280225.280224-.166605.150612-.08984.0918.07676-.05881.210729-.158581.386719-.287109.351978-.257055.875286-.631447 1.558593-1.115234 1.364293-.965931 3.372028-2.370866 6.00586-4.203125 3.235047-2.231068 6.036822-3.870786 8.332031-4.914063a2.989077 2.989077 0 0 0 1.697266-2.152344c.626276-3.235759 1.914602-6.977293 3.90039-11.171875v-.002c1.302066-2.712303 2.556289-4.646714 3.556641-5.734375 1.000598-1.087928 1.547923-1.191406 1.679687-1.191406.488645 0 .230889.000901.154297-.0918-.07659-.0927.134766.16029.134766 1.070313 0 8.880802-2.868072 16.73254-8.806641 23.966797a2.989077 2.989077 0 0 0 -.01758.02148c-6.241056 7.747517-13.213242 11.302739-21.638672 11.302739-2.931122 0-4.774103-.88746-6.451172-3.00586-1.770188-2.236032-2.630859-4.752395-2.630859-7.97266 0-7.286163 4.119988-15.653439 13.130859-24.998047a2.989077 2.989077 0 0 0 .002-.002c.708828-.736735 1.419418-1.367969 2.128907-2.066407z" transform="scale(1.0514905 .9510309)"/><path d="m168.30273 92.886719-20.85156 1.476562a2.5080056 2.5080056 0 0 0 -2.06445 1.378907l-21.03125 41.980472c-1.34441 2.67634-2.07813 5.36296-2.07813 8.00976 0 3.6357 1.56671 7.06936 4.32422 9.9375 2.80824 2.92095 6.42258 4.54103 10.33008 4.54102 6.39484 0 11.88891-2.66925 16.14063-7.41602.1327.32085.33929.86305.45703 1.13867.26698.62498.49446 1.13209.69922 1.55079.20475.41869.27863.66649.71875 1.19726 2.14947 2.59213 5.66062 3.5293 9.90625 3.5293 6.26487 0 13.17949-4.37582 21.82031-12.30274a2.5080056 2.5080056 0 0 0 .0137-.0117c8.63479-8.03296 13.49023-14.30508 13.49023-20.36523 0-1.2705-.53866-2.54555-1.35351-3.4668a2.5080056 2.5080056 0 0 0 -1.87891-.8457h-.72461a2.5080056 2.5080056 0 0 0 -1.0332.22266c-.9198.41597-1.13402.75906-1.58984 1.2207-.45583.46163-.96425 1.03195-1.56446 1.74609-1.20041 1.42829-2.75807 3.42073-4.70703 6.00977a2.5080056 2.5080056 0 0 0 -.008.01c-2.62836 3.52754-5.4366 5.99478-8.46289 7.53321 1.30762-2.65845 2.81317-5.37867 4.75195-8.22852l.002-.004c3.50233-5.13389 6.15804-9.01228 7.96484-11.62696a2.5080056 2.5080056 0 0 0 .0371-.0527l15.2306-23.287301a2.5080056 2.5080056 0 0 0 -2.28711-3.873047l-19.76367 1.476562a2.5080056 2.5080056 0 0 0 -2.06055 1.386719c-3.54975 7.170337-8.87475 16.059647-15.9668 26.605467a2.5080056 2.5080056 0 0 0 -.004.006c-4.67684 6.99578-8.58104 12.21521-11.61133 15.58203-1.51515 1.68341-2.81779 2.90181-3.80078 3.62305-.95655.70183-1.54865.80613-1.50196.8125-.10116-.0942-.36071-.4153-.625-1.05274a2.5080056 2.5080056 0 0 0 -.0391-.0879c-.47134-1.02313-.67578-1.95956-.67578-2.88671 0-4.23283 2.54273-11.49133 8.00586-21.05274l.004-.006c4.53306-7.87554 9.16953-14.64103 13.89063-20.298826a2.5080056 2.5080056 0 0 0 -2.10352-4.109375z"/><path d="m269.99609 46.847656-19.40039.820313a2.1342473 2.1342473 0 0 0 -1.73828 1.03125l-21.75781 36.076172c-10.51403 17.379519-16.40704 27.348859-18.0293 30.648439-.00028.00056.00028.001 0 .002-6.49616 12.97086-9.83593 24.17429-9.83593 33.75 0 3.23719 1.22258 6.2531 3.4746 8.67188a2.1342473 2.1342473 0 0 0 .0859.0859c2.43198 2.329 5.60507 3.54493 9.08985 3.54493 3.25386 0 6.65411-1.71161 10.69335-4.67969 4.03925-2.96808 8.70071-7.30894 14.07422-13.05274 2.68717-2.87233 4.71592-5.20145 6.12305-7.05273.70357-.92564 1.25227-1.72766 1.66406-2.47266.4118-.745.76563-1.37713.76563-2.42578 0-.66617-.25403-1.58543-.92969-2.19726s-1.48701-.75782-2.11133-.75782c-1.98504 0-3.09909 1.02385-4.79492 2.41016s-3.73356 3.36085-6.1875 5.96875c-2.35354 2.5012-4.40167 4.33906-6.05664 5.49219-1.38242.96322-2.37386 1.31579-3.01758 1.43164l-1.14648-2.26367c.0651-4.07541 1.00588-7.70204 2.91992-10.97266v-.002l29.66016-50.599612h14.36914a2.1342473 2.1342473 0 0 0 2.05078-1.546876l1.26953-4.427734a2.1342473 2.1342473 0 0 0 -2.05078-2.722656h-9.7168l12.4707-21.558594a2.1342473 2.1342473 0 0 0 -1.9375-3.201172z"/><path d="m339.30273 91.824219c-2.37337 0-4.00505 1.200915-6.36328 2.941406-2.35822 1.740491-5.20974 4.239701-8.64062 7.541015-3.36792 3.24466-5.93144 5.94247-7.73633 8.17188-1.80489 2.2294-3.04742 3.71739-3.19141 6.04492a2.5482716 2.5482716 0 0 0 .1543 1.04687l.18164.48828a2.5482716 2.5482716 0 0 0 1.43555 1.34375 2.5482716 2.5482716 0 0 0 1.67773.64258c1.00183 0 1.54319-.31449 2.08594-.61523.54275-.30075 1.05552-.66543 1.62305-1.11328 1.13505-.89571 2.46633-2.12765 4.07812-3.74219l-.0332.0332c1.01397-.97809 1.62344-1.50554 2.3457-2.1582-.40445 1.00172-1.03426 2.35415-1.95312 3.90234-.001.002-.002.003-.004.006-1.9244 3.13277-3.37501 5.52289-4.34961 7.16406a2.5482716 2.5482716 0 0 0 -.0664.1211l-17.76954 34.03125a2.5482716 2.5482716 0 0 0 2.21289 3.72656l18.13086.32617a2.5482716 2.5482716 0 0 0 2.33203-1.42383c3.13662-6.39232 6.21215-12.78555 9.22852-19.17773 3.81871-7.28558 7.50452-13.30391 11.01953-18.03906.99266-1.33725 5.01333-5.03445 11.48828-10.09571a2.5482716 2.5482716 0 0 0 .004-.002c3.28274-2.57295 5.93701-4.4863 7.89062-5.70703 1.29859-.81143 1.55448-.84718 2.0254-1.04102-.70714.43957-1.40371.92404-2.07032 1.49415-3.01074 2.46937-4.89648 5.55866-4.89648 8.94726 0 1.67774.61191 2.57404 1.41015 4.00781a2.5482716 2.5482716 0 0 0 .77735.85547c.84835.58607 1.59219 1.05058 2.30469 1.40625s1.34235.6758 2.4082.67578c4.21697 0 8.01682-2.47303 11.08203-6.5332 2.77644-3.56646 4.33984-7.3314 4.33984-11.16016 0-2.72842-1.3158-5.28865-3.42382-7.447262-2.05614-2.226967-4.76455-3.568359-7.64649-3.568359-4.05967 0-8.76614 2.115407-15.08789 5.900391l-6.50976 3.7832c-.22004-3.33771-.79826-6.265923-2.24024-8.482419-1.78307-2.740793-4.8815-4.294922-8.25391-4.294922z"/><path d="m415.19141 93.234375c-12.11002 0-23.80758 6.450035-34.93164 18.771485a2.1162349 2.1162349 0 0 0 -.002.002c-10.49118 11.63891-15.95312 23.09082-15.95312 34.3086 0 4.75435 1.4793 8.75315 4.54687 11.37695 3.06758 2.6238 7.41867 3.76367 12.79688 3.76367 11.51204 0 22.60838-6.18441 33.12695-17.96484 3.70353-4.14398 6.4885-7.40867 8.38477-9.83789.94813-1.21461 1.67287-2.21452 2.20117-3.0625.52829-.84799 1.00976-1.28879 1.00976-2.67578 0-.58473-.12849-1.35812-.71484-2.01758s-1.48691-.91211-2.125-.91211c-1.6761 0-2.85878.79095-4.33594 1.87695-1.47715 1.086-3.16422 2.61248-5.14453 4.61328a2.1162349 2.1162349 0 0 0 -.006.006c-5.41216 5.50865-9.29731 9.13328-11.37304 10.70313-4.93112 3.70619-9.60136 5.43554-14.13282 5.43554-.66545 0-.72508-.10003-.82422-.21875-.0991-.11871-.32421-.56613-.32422-1.57422 0-1.56346.75367-4.3362 2.19141-7.80859 9.37837-1.92111 17.61268-5.09787 24.58399-9.63086 9.1797-5.8759 14.19921-13.22647 14.19921-21.64062 0-4.14147-1.02739-7.615664-3.36132-10.021488-2.33394-2.405823-5.76241-3.492187-9.8125-3.492187zm.88281 9.935545c.2154.54161.44726 1.08116.44726 2.11328 0 4.93815-2.85804 10.13516-9.24218 15.66016a2.1162349 2.1162349 0 0 0 -.0137.0117c-4.36032 3.83763-8.86124 6.60567-13.52734 8.35742 2.39936-4.43292 5.16467-9.00169 8.66211-13.83398a2.1162349 2.1162349 0 0 0 .006-.01c3.08108-4.31024 5.85945-7.49327 8.22266-9.51563 2.35127-2.01213 4.22778-2.77548 5.44531-2.7832z"/><path d="m558.88086 25.667969c-16.2799 0-31.59595 3.419942-45.83008 10.251953-14.96742 7.167067-26.59109 17.066009-34.65234 29.630859a2.7583043 2.7583043 0 0 0 0 .002c-3.90033 6.0864-5.99414 11.990418-5.99414 17.6875 0 6.446884 2.51854 12.024177 7.29882 15.888672a2.7583043 2.7583043 0 0 0 .0352.02734c4.72524 3.696767 10.73461 5.494137 17.6543 5.494137 11.49189 0 21.28204-3.99127 28.70898-11.820309 7.46981-7.858001 11.33594-17.274289 11.33594-27.751953v-1.636719c0-5.445987-1.07982-9.917864-3.70898-13.152344-2.62917-3.234479-6.72934-4.822265-11.41797-4.822265-4.61288 0-8.85479 1.050939-12.74414 2.871094 4.89941-3.107748 9.84496-5.495162 14.83984-7.140625l.006-.002c8.786-2.810996 20.66931-4.285156 35.54492-4.285156 11.90762 0 21.43593 1.122406 28.58203 3.173828-21.96955 11.079622-40.45856 31.029608-55.44336 59.636719-6.01058.75935-13.4095 2.28594-22.61132 4.74414a2.7583043 2.7583043 0 0 0 -.01.002c-1.82318.49306-3.33621 1.096-4.60156 2.08008-1.26536.98407-2.27539 2.62128-2.27539 4.3457 0 1.30121.85051 2.88677 1.99609 3.58398 1.14558.69722 2.27488.81055 3.45117.81055.76394 0 1.19373-.11929 1.86914-.27344.67542-.15415 1.48745-.36938 2.47266-.65039a2.7583043 2.7583043 0 0 0 .008-.002c4.79418-1.38184 9.27476-2.27096 13.60547-2.92969-5.83066 11.7668-11.5903 20.96947-17.15234 27.24609a2.7583043 2.7583043 0 0 0 -.006.008c-9.91719 11.2621-20.3725 16.57226-31.81055 16.57226-3.77374 0-7.77233-.83353-12.03711-2.57422-.002-.00082-.004-.001-.006-.002-2.52255-1.05325-4.27401-2.18579-5.26562-3.18945-.99427-1.00635-1.26563-1.73941-1.26563-2.60352 0-.14289-.0953-.0911.33594-.44531.43047-.3535 1.44369-.8799 3.00586-1.30859.003-.00081.003-.001.006-.002 3.09754-.81563 5.4913-1.45756 7.17969-1.92578.8472-.23494 1.51758-.4253 2.02734-.57812.50976-.15283.69527-.17741 1.24805-.42969a2.7583043 2.7583043 0 0 0 .0625-.0293c4.29639-2.09145 6.92968-6.14254 6.92968-10.82422 0-4.14102-1.6661-7.89296-4.74609-10.44922-2.95387-2.54818-6.86344-3.76366-11.27734-3.76367-6.55893 0-12.27029 2.21503-16.49024 6.5586-4.16963 4.18441-6.3457 9.60315-6.3457 15.67187 0 8.77691 4.75063 16.03754 13.25195 20.74024a2.7583043 2.7583043 0 0 0 .043.0215c7.0502 3.744 15.47045 5.55859 25.13672 5.55859 19.88768 0 37.6451-5.82531 52.92187-17.40234l.004-.004c13.85077-10.35475 24.11802-24.26824 30.87305-41.39453 14.56929-1.45663 27.68028-5.09146 39.1914-11.048829a2.7583043 2.7583043 0 0 0 .004-.002c15.21965-7.905757 23.53711-18.709531 23.53711-31.736328 0-9.439514-4.30392-17.416368-12.19531-23.423828 1.05397-.274337 2.73147-.699781 3.48632-.902344 2.62286-.668087 4.6086-1.250559 6.08399-1.814453.73769-.281947 1.33922-.540182 1.94141-.923828.30109-.191823.61267-.407532.95898-.804688.34631-.397155.79883-1.090613.79883-2.074218-.00001-1.32521-.73066-2.936513-1.91602-3.748047-1.18536-.811535-2.43851-.972656-3.70898-.972656-5.22028 0-11.84048 1.578212-19.9336 4.416015-7.18004-3.395241-13.9544-5.740773-20.29101-6.832031a2.7583043 2.7583043 0 0 0 -.008 0c-5.42104-.920553-12.92812-1.347656-22.69141-1.347656zm40.49805 20.240234c1.83948 2.404707 2.81641 5.429723 2.8164 9.515625.00001 9.775612-3.59546 18.559308-11.10156 26.763672-6.32335 6.819483-13.75513 11.059854-22.36523 13.132812 4.37843-11.383602 8.27376-20.579244 11.40429-26.480468l.002-.0039c.002-.0031.004-.0086.006-.01172 6.43961-11.947053 12.9957-19.363611 19.23829-22.916016zm-98.95313 9.238281c-.98871 1.052077-2.03315 2.005753-2.92383 3.22461-5.47357 7.327797-8.24609 15.894245-8.24609 25.359375a2.7583043 2.7583043 0 0 0 .0977.728515c.24651.90003.49359 1.750418.74414 2.550782a2.7583043 2.7583043 0 0 0 4.13086 1.492187l8.59765-5.560547.008-.0039c3.11454-1.999906 6.02468-3.556738 8.70899-4.679688a2.7583043 2.7583043 0 0 0 1.63281-1.972656c.64762-3.054062 1.98345-6.60175 4.04688-10.580078 1.35331-2.573376 2.65081-4.407499 3.71289-5.460937 1.06184-1.053445 1.72994-1.244147 2.09156-1.244147.62815 0 .55638.08466.50977.0332-.0466-.05146.13867.132336.13867.970703 0 8.386536-2.95797 15.813776-9.15234 22.701172a2.7583043 2.7583043 0 0 0 -.0176.01953c-6.51025 7.376466-13.91505 10.847657-22.84961 10.847657-3.1947 0-5.28983-.937305-7.05859-2.976563-1.86089-2.145489-2.73243-4.499793-2.73243-7.519531 0-6.845728 4.26752-14.796859 13.65821-23.685547 1.62641-1.539471 3.26488-2.877025 4.90234-4.244141z"/><path d="m603.71875 99.158203c-1.05714.000558-2.01923.610516-2.4707 1.566407-5.2232 11.05173-8.29553 17.51829-9.24805 19.47656l-7.98047 12.62891c-.001.001-.003.003-.004.004-3.39414 5.39276-5.26171 10.36062-5.26171 15.03711 0 4.01199.75549 7.38677 2.73632 9.91016 1.98084 2.52339 5.15475 3.78711 8.60352 3.78711 6.76303 0 14.09908-4.324 22.80273-12.15625 8.70181-7.8306 13.63477-14.36354 13.63477-20.84766-.00002-1.15714-.40316-2.55525-1.42969-3.49218-.50386-.45998-1.1615-.71496-1.84375-.71485h-.71679c-.41203.00035-.81864.0938-1.18946.27344-3.14449 1.51944-5.70799 4.77954-9.15039 9.94141l.0293-.043c-2.03543 2.92964-4.32038 5.01178-6.89844 6.42187 4.56847-11.27071 11.05931-23.77208 19.70703-37.60937 1.13879-1.82106-.17054-4.183826-2.31836-4.183597z"/><path d="m645.4375 91.5625c-2.31041.000001-4.01809 1.173931-6.35547 2.898438-2.33738 1.724506-5.12811 4.197749-8.46289 7.462892a2.4763311 2.4763311 0 0 0 -.0156.0156c-3.26842 3.25944-5.77257 5.98233-7.54883 8.24024-1.77627 2.2579-2.95307 3.84093-3.20117 5.99219a2.4763311 2.4763311 0 0 0 .13281 1.13281l.17969.49219a2.4763311 2.4763311 0 0 0 1.38281 1.30859 2.4763311 2.4763311 0 0 0 1.66015.64453c.98891 0 1.52041-.31449 2.05469-.61523.53429-.30075 1.04184-.66644 1.60156-1.11524 1.11945-.89759 2.43271-2.13442 4.02539-3.75586l-.0332.0332c1.06015-1.03932 1.71762-1.61934 2.45508-2.29297-.39051 1.0414-.9942 2.41883-2.02539 4.18359-1.9032 3.14878-3.3374 5.5505-4.30078 7.19922a2.4763311 2.4763311 0 0 0 -.0644.11914l-17.56836 34.19726a2.4763311 2.4763311 0 0 0 2.3496 3.60352l22.22852-1.30859a2.4763311 2.4763311 0 0 0 2.04297-1.31446c1.80258-3.40809 4.69937-10.19564 8.89258-20.69336v.004c3.54164-8.83574 6.90362-15.34665 9.91015-19.41211a2.4763311 2.4763311 0 0 0 .01-.0117c1.52376-2.08619 4.00715-4.79258 7.4082-8.0039a2.4763311 2.4763311 0 0 0 .0195-.0195c2.03199-1.96065 3.75031-3.41216 5.07032-4.32813 1.16134-.80587 1.82642-.99132 2.04492-1.05664a2.4763311 2.4763311 0 0 0 .48828.18945c.28446 0 .10733-.0102.0586-.0605-.0487-.0504.0998.0919.17578.68164a2.4763311 2.4763311 0 0 0 .15625.19531v1.45117c0 4.78342-2.41398 12.00821-7.57031 21.20703-2.64824 4.72442-4.64376 8.54172-6.00586 11.50781-1.36209 2.9661-2.19922 4.79913-2.19922 6.88282 0 3.92428 1.27235 7.37948 3.92579 9.62304 2.65343 2.24357 6.32978 3.16211 10.74218 3.16211 6.34113 0 11.67393-1.00797 15.9668-3.20117 3.26531-1.56077 6.92005-4.59358 11.42578-9.15039 4.67083-4.712 7.4908-8.1668 8.04102-11.84961a2.4763311 2.4763311 0 0 0 -.7793-2.19336l-.17969-.16406a2.4763311 2.4763311 0 0 0 -3.16211-.14844c-3.44238 2.60028-5.98032 4.54152-7.67578 5.86719-4.77839 3.48913-9.7644 5.1978-15.15234 5.35351-.0674-.0551-.14948-.11521-.20313-.1621.0128-.0308.0137-.0381.0274-.0703.27995-.66311.73468-1.64005 1.34961-2.88281 1.22986-2.48553 3.10344-6.05403 5.60546-10.67578a2.4763311 2.4763311 0 0 0 .006-.0117c5.10049-9.53249 7.82227-16.70156 7.82227-22.27539 0-4.09971-1.17626-7.6526-3.75195-10.039062-2.5757-2.386464-6.23036-3.400391-10.55664-3.400391-4.4144 0-9.54634 2.031235-15.93946 5.734373-2.76925 1.58599-4.69612 2.70799-6.17578 3.58399-.21734-3.33517-.78474-6.256419-2.19726-8.462894-1.74849-2.731282-4.80115-4.291016-8.13477-4.291016z"/><path d="m760.44531 47.117188c-3.22126 0-6.65745 1.220213-10.44922 3.412109a2.2521452 2.2521452 0 0 0 -.78125.751953c-9.93247 15.837716-19.5074 31.676548-28.72265 47.515625-7.65569 13.047435-13.4038 23.239745-17.25781 30.605465-1.92755 3.68388-3.38069 6.6571-4.375 8.96875-.99432 2.31165-1.61719 3.71195-1.61719 5.41016 0 5.6772 1.76632 10.39826 5.4082 13.49609 3.64188 3.09784 8.83449 4.46289 15.30859 4.46289 11.31741 0 21.43704-3.39864 30.06055-10.12695 6.64328-5.14831 12.16839-12.20261 16.5918-21.0625 4.41952-8.85208 6.68945-17.26694 6.68945-25.22266 0-3.38524-1.09479-6.492672-3.21289-8.958979-2.08474-2.670644-5.29502-4.091797-8.89844-4.091797-1.68912 0-3.78826.369852-6.61523 1.042968l.0645-.01367c-1.26124.261632-1.78071.254232-2.69336.380859 2.82999-4.972715 4.95667-9.081618 6.22071-12.189453l16.13471-30.923829a2.2521452 2.2521452 0 0 0 -1.95508-3.292969c-6.09606-.1091-9.24968-.164062-9.90039-.164062zm-12.1914 54.736332c.73301 0 .99442.15426 1.08007.2246.0857.0704.19902.16093.26954.74024a2.2521452 2.2521452 0 0 0 .16406.20703v1.32227c0 5.92018-2.0423 12.51766-6.32227 19.80273a2.2521452 2.2521452 0 0 0 -.0117.0215c-3.93053 6.85852-8.68408 12.33101-14.27148 16.49414-2.21126 1.63223-3.88035 2.23556-4.76172 2.28906.0796-.96814.63807-3.21527 1.95899-6.41406 1.42023-3.43932 3.58977-7.94699 6.49804-13.47266a2.2521452 2.2521452 0 0 0 .002-.002c5.34629-10.18385 9.43834-16.94122 12.06445-20.21875 1.2446-.66736 2.35225-.99414 3.33008-.99414z"/><path d="m830.63867 92.484375c-3.90003 0-6.73974.335015-8.85156 1.912109a2.2094587 2.2094587 0 0 0 -.83008 1.466797c-.83515-.211894-1.71785-.418157-3.34375-1.199219l.0742.03906c-2.3986-1.267483-4.15508-2.054688-6.05078-2.054687-9.91553 0-20.78063 6.930589-33.1543 19.996095a2.2094587 2.2094587 0 0 0 -.002.002c-12.2348 12.93621-18.71094 23.73488-18.71094 33.09766 0 3.54317 1.50732 6.88362 4.19531 9.70508 2.73269 2.86836 6.22586 4.44922 10.02539 4.44922 6.404 0 11.84693-2.75819 16.03516-7.65235.1875.46221.45994 1.18239.61914 1.5586.26268.62073.48489 1.12303.68359 1.5332.19871.41017.27829.65339.67383 1.13477 2.04566 2.48952 5.43479 3.42578 9.59571 3.42578 6.06391 0 12.87481-4.31411 21.39843-12.20508a2.2094587 2.2094587 0 0 0 .0117-.01c8.51846-7.99724 13.2461-14.25164 13.2461-20.10156 0-1.19171-.49577-2.38173-1.26368-3.25781a2.2094587 2.2094587 0 0 0 -1.66211-.75195h-.71679a2.2094587 2.2094587 0 0 0 -.91797.19921c-.83306.38018-1.04834.70841-1.49024 1.16016-.44189.45175-.94084 1.0175-1.53124 1.72656-1.18081 1.41812-2.7193 3.40343-4.64454 5.98438a2.2094587 2.2094587 0 0 0 -.006.008c-2.74011 3.71116-5.69977 6.23094-8.89453 7.76953 2.34979-4.73081 6.21358-11.10693 12.47071-19.90039l.002-.002c7.01026-9.81875 11.49487-17.97289 13.41016-24.732427a2.2094587 2.2094587 0 0 0 -1.75196-2.779297c-2.13893-.366051-4.96682-.521484-8.61914-.521484zm-15.41601 10.634765c.39955 0 .47413.0621.61718.11133-1.97917 4.33574-6.43319 11.60362-13.71679 21.93359-4.32979 6.11728-7.9104 10.68274-10.65821 13.63477-1.37409 1.47622-2.54485 2.54664-3.42187 3.18359-.87703.63695-1.46242.73438-1.32422.73438-.60091 0-.61186-.0914-.63477-.11719-.0229-.0258-.20507-.29097-.20507-1.10938 0-4.86374 2.81391-11.58071 8.88281-19.78515l.004-.004c.00093-.001.001-.003.002-.004 5.20677-6.96894 10.61689-12.56545 16.19531-16.86524a2.2094587 2.2094587 0 0 0 .19727-.0176c1.66501-1.23477 3.01502-1.69531 4.0625-1.69531z"/><path d="m923.20508 32.080078c-14.41237 0-30.59157 11.946335-49.5293 34.736328-15.19124 18.267393-26.68287 36.911624-34.4375 55.933594-4.25203 10.42362-6.45312 19.17236-6.45312 26.42969 0 3.28803 1.23858 6.36675 3.50586 8.82422a2.3980688 2.3980688 0 0 0 .0957.0996c2.45405 2.37164 5.6822 3.61914 9.19531 3.61914 3.33841 0 6.73386-1.74835 10.75-4.72657 4.01615-2.97821 8.63302-7.31789 13.95313-13.05664 2.66051-2.86986 4.67272-5.20002 6.07422-7.06054.70074-.93026 1.24901-1.7389 1.66601-2.5.417-.76111.78906-1.41274.78906-2.54297 0-.71077-.26877-1.71188-1.00586-2.38477-.73708-.67288-1.6252-.83203-2.28906-.83203-2.14631 0-3.23827 1.07546-4.93164 2.47266-1.69337 1.39719-3.71355 3.37527-6.14453 5.98242-2.31882 2.48686-4.33458 4.30887-5.94531 5.4414-1.21195.85214-2.05824 1.17491-2.65235 1.32618l-.97265-1.93946c.17673-2.31551.99953-5.981 2.65625-10.92382 1.98023-5.62897 4.07145-8.98231 4.76562-9.5254 7.63086-5.76795 13.36824-10.1293 17.19727-13.07812a2.3980688 2.3980688 0 0 0 .0293-.0234c22.38621-17.796234 39.4314-36.030056 51.08985-54.759763l.002-.0039c2.91528-4.628785 4.49024-9.152864 4.49024-13.544922 0-2.536677-1.37578-4.96228-3.56055-6.242188s-4.93667-1.720703-8.33789-1.720703zm.63086 10.269531c.18439.199384.53783.754499.83594 1.185547-1.63571 7.045704-10.15285 19.372942-26.12891 35.738282a2.3980688 2.3980688 0 0 0 -.004.0039c-11.54783 11.878569-21.52744 20.851852-29.9082 27.031242 4.78179-9.305996 12.15867-20.663118 22.25-34.060539h-.002c7.70874-10.229339 14.46355-17.857143 20.14648-22.833985 5.43373-4.758605 9.83134-6.882052 12.81055-7.064453z"/><path d="m168.30273 92.886719-20.85156 1.476562a2.5080056 2.5080056 0 0 0 -2.06445 1.378907l-21.03125 41.980472c-1.34441 2.67634-2.07813 5.36296-2.07813 8.00976 0 3.6357 1.56671 7.06936 4.32422 9.9375 2.80824 2.92095 6.42258 4.54103 10.33008 4.54102 6.39484 0 11.88891-2.66925 16.14063-7.41602.1327.32085.33929.86305.45703 1.13867.26698.62498.49446 1.13209.69922 1.55079.20475.41869.27863.66649.71875 1.19726 2.14947 2.59213 5.66062 3.5293 9.90625 3.5293 6.26487 0 13.17949-4.37582 21.82031-12.30274a2.5080056 2.5080056 0 0 0 .0137-.0117c8.63479-8.03296 13.49023-14.30508 13.49023-20.36523 0-1.2705-.53866-2.54555-1.35351-3.4668a2.5080056 2.5080056 0 0 0 -1.87891-.8457h-.72461a2.5080056 2.5080056 0 0 0 -1.0332.22266c-.9198.41597-1.13402.75906-1.58984 1.2207-.45583.46163-.96425 1.03195-1.56446 1.74609-1.20041 1.42829-2.75807 3.42073-4.70703 6.00977a2.5080056 2.5080056 0 0 0 -.008.01c-2.62836 3.52754-5.4366 5.99478-8.46289 7.53321 1.30762-2.65845 2.81317-5.37867 4.75195-8.22852l.002-.004c3.50233-5.13389 6.15804-9.01228 7.96484-11.62696a2.5080056 2.5080056 0 0 0 .0371-.0527l15.2306-23.287301a2.5080056 2.5080056 0 0 0 -2.28711-3.873047l-19.76367 1.476562a2.5080056 2.5080056 0 0 0 -2.06055 1.386719c-3.54975 7.170337-8.87475 16.059647-15.9668 26.605467a2.5080056 2.5080056 0 0 0 -.004.006c-4.67684 6.99578-8.58104 12.21521-11.61133 15.58203-1.51515 1.68341-2.81779 2.90181-3.80078 3.62305-.95655.70183-1.54865.80613-1.50196.8125-.10116-.0942-.36071-.4153-.625-1.05274a2.5080056 2.5080056 0 0 0 -.0391-.0879c-.47134-1.02313-.67578-1.95956-.67578-2.88671 0-4.23283 2.54273-11.49133 8.00586-21.05274l.004-.006c4.53306-7.87554 9.16953-14.64103 13.89063-20.298826a2.5080056 2.5080056 0 0 0 -2.10352-4.109375z" transform="translate(115.31626)"/><path d="m923.20508 32.080078c-14.41237 0-30.59157 11.946335-49.5293 34.736328-15.19124 18.267393-26.68287 36.911624-34.4375 55.933594-4.25203 10.42362-6.45312 19.17236-6.45312 26.42969 0 3.28803 1.23858 6.36675 3.50586 8.82422a2.3980688 2.3980688 0 0 0 .0957.0996c2.45405 2.37164 5.6822 3.61914 9.19531 3.61914 3.33841 0 6.73386-1.74835 10.75-4.72657 4.01615-2.97821 8.63302-7.31789 13.95313-13.05664 2.66051-2.86986 4.67272-5.20002 6.07422-7.06054.70074-.93026 1.24901-1.7389 1.66601-2.5.417-.76111.78906-1.41274.78906-2.54297 0-.71077-.26877-1.71188-1.00586-2.38477-.73708-.67288-1.6252-.83203-2.28906-.83203-2.14631 0-3.23827 1.07546-4.93164 2.47266-1.69337 1.39719-3.71355 3.37527-6.14453 5.98242-2.31882 2.48686-4.33458 4.30887-5.94531 5.4414-1.21195.85214-2.05824 1.17491-2.65235 1.32618l-.97265-1.93946c.17673-2.31551.99953-5.981 2.65625-10.92382 1.98023-5.62897 4.07145-8.98231 4.76562-9.5254 7.63086-5.76795 13.36824-10.1293 17.19727-13.07812a2.3980688 2.3980688 0 0 0 .0293-.0234c22.38621-17.796234 39.4314-36.030056 51.08985-54.759763l.002-.0039c2.91528-4.628785 4.49024-9.152864 4.49024-13.544922 0-2.536677-1.37578-4.96228-3.56055-6.242188s-4.93667-1.720703-8.33789-1.720703zm.63086 10.269531c.18439.199384.53783.754499.83594 1.185547-1.63571 7.045704-10.15285 19.372942-26.12891 35.738282a2.3980688 2.3980688 0 0 0 -.004.0039c-11.54783 11.878569-21.52744 20.851852-29.9082 27.031242 4.78179-9.305996 12.15867-20.663118 22.25-34.060539h-.002c7.70874-10.229339 14.46355-17.857143 20.14648-22.833985 5.43373-4.758605 9.83134-6.882052 12.81055-7.064453z" transform="translate(45.083441)"/></g><path d="m123.20661 30.231918c-.40153 0-.79439.0655-1.19532.0703-3.0535 5.38495-5.03285 4.48592-6.51171.38477-4.63618.35993-9.23595.97886-13.78125 1.98633-.3206 3.6854-.54512 7.37597-.8125 11.06445 1.99003-.22888 3.97963-.44141 5.98437-.44141 4.25542 0 9.7898.82468 16.25977 2.31446 1.33805-5.3899 2.82274-11.25531 5.17382-14.97461-1.68031-.1225-3.67006-.4043-5.11718-.4043zm13.5625 1.29688c.54707 6.07321.95337 12.15292 1.4082 18.23046 1.42444.45415 2.30113.65242 3.61719 1.0586-.31397-6.19121-.59777-12.38306-.97461-18.57227-1.32531-.22833-2.81567-.53139-4.05078-.71679zm9.73047 1.72461c-.0151 6.28827-.0275 12.51844-.0293 18.92968 4.13457 1.20092 8.29066 2.39542 11.27539 2.98438-.24981-6.66616-.46603-13.33339-.36523-20.02344-2.63522-.44164-4.95717-.77457-8.11524-1.40234l.0332.008c-1.04956-.21907-1.79394-.29714-2.79882-.49609zm40.98046.24218c-.6927-.210372-1.44479-.195874-2.12695.041-2.97798 1.03958-5.38483 1.73001-7.48242 2.28515-.41272 5.72546-.83206 11.44442-1.26172 17.16602 1.44602-.71739 2.90865-1.53533 4.39453-2.48047 3.42141-2.06643 6.03419-4.3156 7.7793-6.73633.65995-2.21046 1.41922-4.43475 2.22266-6.66406-.0132-.170068-.0433-.338718-.0899-.50391l-.36328-.98437c-.313-.847018-1.0479-1.511758-1.98437-1.79492zm-92.18359.9043c-3.66931 1.07081-7.30541 2.35025-10.90625 3.84766.24144 3.2777.45541 6.47852.69531 9.76367 3.39499-1.46257 6.80928-2.51108 10.23828-3.28125.0121-3.53642.0525-7.07295-.0273-10.33008zm-13.74414 5.07226c-.44615.20045-.89677.37305-1.3418.58008-6.579966 38.385462-11.60537 47.675758-14.41601 7.9961-3.92222 2.63613-7.46666 5.55507-10.76953 8.65234.70207 3.9275 1.36899 7.85952 2.0957 11.76758 1.31341-1.45107 2.56358-2.89163 4.16797-4.39649l.002-.002c.74533-.70066 1.49226-1.3006 2.23828-1.96484-.29843.37343-.66169.64528-.94922 1.03515-2.04095 2.70748-3.57746 5.62645-4.86914 8.64258.44527 2.37999.83107 4.80637 1.27735 7.17774-.73111 6.049958-.14881 10.746298 1.18164 14.050778.05705-.01223.113714-.0259.16992-.041-.29466.2665-.17444.14383-.0937.0879.0807-.0559.2212-.15121.40625-.27344.3701-.24446.92018-.60045 1.63867-1.06054 1.43454-.91863 6.204398-3.551224 7.98493-8.110965 1.159152 4.06874 4.67785.433235 7.09124-.558955.197478-.173622.368869-.369967.50977-.58399.0996-.58162.23034-1.10269.3125-1.716788.047.406388.0726.814268.11914 1.220698.355989-.262622.643999-.592633.84375-.966798.65852-3.07731 2.01352-6.63583 4.10156-10.625v-.002c.70341-1.32526 1.38964-2.43941 2.03711-3.36524-.26237-5.55444-.76932-11.04889-1.55078-16.47851-2.55479.39582-5.03251.99293-7.36328 1.92773 2.35702-1.43925 4.72193-2.67408 7.0918-3.77343-.49524-3.10645-1.14503-6.1765-1.91602-9.21876zm188.77539 7.48243c.0202 1.92636.0295 3.85295.0527 5.77929l1.55273-2.68554c.67607-1.308963-.14596-2.893025-1.60547-3.09375zm-9.58008.2832-4.57422.19336c.24753 10.95687.47751 21.91274.85547 32.87305h3.96289c-.0348-2.89886-.0404-5.79828-.0645-8.69727h-1.46484l1.44726-2.50195c-.053-7.28891-.1719-14.57759-.16211-21.86719zm-172.71289 2.83594c-.96437 0-1.85178.20646-2.78125.30078.37571 5.16367.73142 10.19045 1.0918 15.34375.2108-.24516.45248-.60023.64648-.79102 1.05212-1.03465 1.62903-1.13281 1.76758-1.13281.5138 0 .24265.00026.16211-.0879-.0805-.0882.14063.15212.14063 1.01758 0 3.87269-.71333 7.51868-2.00196 11.01758.57024 8.505858.98775 16.672158 1.45117 24.988282 1.05577-.856034 2.14118-1.664674 3.11719-2.644534.53868-12.04233 1.53905-24.205448 3.38867-36.576178.179-3.62283.10858-6.60463.18164-9.96484-2.13089-.94902-4.55793-1.4707-7.16406-1.4707zm53.95899 4.53906c-1.14113.10001-2.26822.35065-3.38477.73437.47924 6.79511.94571 13.59097 1.32813 20.39063.78794-1.95692 1.7042-4.14337 2.78515-6.63672-.20221-4.83079-.49292-9.65856-.72851-14.48828zm-41.93164.61133c-.644 11.07509-1.07504 22.1603-1.30469 33.253898 3.15407-5.73001 4.92969-11.952588 4.92969-18.669918v-1.64062c0-5.33949-1.04546-9.69075-3.625-12.94336zm46.40039 1.58789c.00029 1.3017-.007 2.52243-.006 3.82812.12715-.27938.19464-.45063.32422-.73437.27078-.592629.31208-1.250654.11718-1.86719l-.36328-1.14844c-.0236-.02642-.0477-.05246-.0723-.0781zm90.71484 11.25195-8.37695 13.890628c.23778 12.92143.58134 25.840054 1.05664 38.753904l8.05078-13.73437c-.55146-10.085034-.73878-23.298314-.73047-38.910162zm33.5 4.28906c.0203 1.20191.0646 2.40358.0859 3.60547l.46679-1.6289c.16544-.710016-.043-1.45536-.55273-1.97657zm-185.00195 6.46094c-1.48382 3.004058-3.34486 5.917568-5.87305 8.703128-.0059.0071-.01177.01431-.0176.0215-.27511.30889-.57369.50782-.85156.80274.62652 5.78321 1.17303 11.57174 1.70508 17.361324 1.99884-.9217 3.95437-1.92077 5.75976-3.17773-.46303-7.865894-.56956-15.797784-.72265-23.710942zm138.41601 11.076168c-2.53867 4.2192-3.28012 5.59053-5.09765 8.66211-.62459 20.327324-1.0593 40.652764-.86133 60.966804 1.42326-.7515 2.85378-1.55123 4.44531-2.7207.60378-.44367 1.32319-1.13357 1.95508-1.63868-.18422-3.99674-.26857-8.00178-.33984-12.00781-.79171.42993-1.64091.91015-2.08594.99024l-1.14649-2.26367c.0651-4.07542 1.00589-7.70204 2.91993-10.97266v-.002l.008-.0137c-.66573-13.63226-.291-27.31553.20312-41.000004zm115.21094 1.9336c-2.37337 0-4.00505 1.2009-6.36328 2.9414-.83057.61301-2.08626 1.85313-3.04297 2.65625.54877.41025.8952.38256.80859-.63281 3.09569 12.417544 5.33662 25.232664 7.50391 38.082034 2.56177-4.45498 5.07915-8.53449 7.49219-11.78515.52341-.70512 1.99216-2.13056 4.11523-4.00196-3.40025-8.82458-6.19682-17.85084-8.48437-27.023434-.66232-.12868-1.33464-.23633-2.0293-.23633zm-264.40234.32031c-3.50266 2.75421-7.24577 4.54727-11.32422 5.44141 3.49241 2.40241 8.10508.76511 11.32422-5.44141zm242.30273.94336-17.0957 1.27734c-.49838.14576-.93924.442621-1.26172.84961.4902 10.371024.77867 22.119934.61914 35.728524 3.15895-4.6287 5.74108-8.40381 7.42578-10.8418.0126-.0168.0249-.0337.0371-.0508l8.69141-13.29102c.30915-2.27949.60315-4.56471.91406-6.843754.0291-3.04497.2955-5.15872.66992-6.82812zm97.98828.14648c-4.09104 0-8.1304.79815-12.12109 2.24805.15324 4.47767.23687 8.956444.46875 13.433594.24254 1.41871.42741 2.84032.65625 4.25977 2.34988-3.06274 4.5529-5.61322 6.43359-7.22266 2.35127-2.01213 4.22778-2.77548 5.44531-2.7832.2154.54161.44727 1.08116.44727 2.11328 0 4.93815-2.85805 10.13516-9.24219 15.66016-.005.004-.009.008-.0137.0117-.55089.48485-1.12426.80309-1.67969 1.2539.4772 3.37829.88711 6.76052 1.29297 10.14258 2.5452-1.19564 5.00779-2.47884 7.28711-3.96094 9.1797-5.8759 14.19922-13.22647 14.19922-21.64062 0-4.14147-1.0274-7.615664-3.36133-10.021494-2.33394-2.40582-5.76241-3.49218-9.8125-3.49218zm-138.48828.14258-5.51953.39063c.17006 7.897384.35725 15.794274.56055 23.691404.0319-.0561.0518-.10194.084-.1582l.004-.006c1.7702-3.07547 3.56852-5.83912 5.36914-8.57617-.11847-5.11869-.32984-10.228004-.49805-15.341804zm-79.52148.0625-6.73243.50391c-.4442 9.926664-.86457 19.849714-1.47851 29.958984.77196-1.12449 2.01289-2.94607 2.60351-3.80078.0126-.0168.0249-.0337.0371-.0508l4.77735-7.30664c.27815-6.38999.51973-12.888014.79297-19.304694zm-38.55078.13281-11.17969.79102c-.37596.137682-.71349.363372-.98438.6582.0904 20.893024.33769 41.697204.56641 62.521494 2.201-1.21721 4.25176-2.75264 6.03906-4.74805.1327.32085.33929.86305.45703 1.13867.26698.62498.49446 1.13208.69922 1.55078.20475.41869.27863.6665.71875 1.19727.43707.52708.96733.94358 1.51172 1.33984-.0735-7.21493-.0647-14.43086-.043-21.64648-.39594.46628-.89752 1.15915-1.26758 1.57031-1.51515 1.68341-2.81779 2.90181-3.80078 3.62305-.95655.70183-1.54864.80613-1.50195.8125-.10116-.0942-.36071-.4153-.625-1.05274-.0125-.0296-.0255-.0589-.0391-.0879-.47134-1.02313-.67578-1.95957-.67578-2.88672 0-4.23283 2.54272-11.49132 8.00585-21.05273 1.33047-7.92957 1.92915-15.83424 2.11915-23.728524zm209.64843 1.72852c-2.08982.47574-4.62517 1.71696-7.20898 3.03711-.33273 4.221884-.68635 8.440364-1.11914 12.656254 1.84401-1.37124 3.86194-2.91878 5.13281-3.71289 1.29859-.81143 1.55447-.84718 2.02539-1.04102-.70714.43957-1.4037.92403-2.07031 1.49414-3.01074 2.46937-4.89649 5.55867-4.89649 8.94727 0 1.67774.61192 2.57404 1.41016 4.00781.19017.34093.45612.63362.77734.85547.84835.58607 1.59219 1.05058 2.30469 1.40625.62637.31268 1.26619.52938 2.11719.59375.66253-9.40181 1.22208-18.81085 1.52734-28.244144zm-107.13867.15039c-.15562.08142-.30226.178962-.4375.29102l-2.86133 5.710934c.75363 19.04432 1.54246 38.09132 2.36719 57.13868 1.09623-.44949 2.13201-1.02188 3.14258-1.65625-1.03092-20.48997-1.82625-40.98367-2.21094-61.484384zm-78.77539.96094c-2.11981 4.222384-4.995 9.172584-8.3125 14.542974-.26288 15.75994-.52235 31.71033-.77344 46.80859 2.38113-1.20802 4.86048-2.75376 7.53907-4.85937.33978-5.09449.64348-10.11887.82031-14.86133-.91859.68039-1.82183 1.4312-2.78321 1.91992.79825-1.62287 1.9011-3.33909 2.9004-5.02344.44806-14.06648.41727-26.73817.60937-38.527344zm-38.60937 2.58398-.65235 1.302744c-.80479.0396-1.21325.0669-1.92969.10351.82264 19.60396 1.36978 39.22015 1.78321 58.84375.67767-.20118 1.35293-.40707 2.00195-.67578-.29965-19.86139-.61032-39.7225-1.20312-59.574224zm-41.9629.1543c-.99118 1.951794-1.90195 3.858184-2.66601 5.681644-.15615.0306-.36725.10254-.52539.13477-.0642 14.82194.15136 29.64869.63672 44.47656.50581-.31912 1.04-.59861 1.53711-.92969.32134-.21402.6128-.459.92968-.67773-.54717-16.26469-.85988-32.55004.0879-48.685554zm115.00977 3.128914c-1.195 2.04532-3.26958 5.48935-4.02734 6.8457-.49582 17.43901-.82916 34.88123-1.03711 52.32617.0516.00054.0948.0273.14648.0273 1.25687 0 2.55191-.32601 3.88086-.81054.18731-19.44126.52717-38.92518 1.03711-58.38867zm173.83203.15234c-.77532.58684-1.54983 1.18023-2.32031 1.82227-.0865 12.54236-.0641 25.08464-.0977 37.62695.35678-1.16921.76464-2.40883 1.36524-3.85938.43652-.0894.83797-.21763 1.26953-.3125-.0646-11.7594-.14392-23.51783-.2168-35.27734zm-8.95703.13477c-.6845 19.57769-1.56141 39.15934-2.62109 58.74218.84862.0667 1.68332.14844 2.59179.14844 1.27359 0 2.5415-.10332 3.80469-.25391.39273-18.39064.7803-36.78153 1.01367-55.17187-1.62986 1.45948-3.25446 2.97449-4.86133 4.67969.52576-1.57581.85938-3.16904.85938-4.77735 0-1.1672-.3465-2.27982-.78711-3.36718zm-290.38086 4.2871c-.7974.2348-1.57106.44805-2.41211.71485.15603 3.02825.36149 6.15155.4961 9.13672.63063-.23066 1.23398-.40664 1.85351-.61524.002-3.07377-.007-6.14402.0625-9.23633zm-4.47266 1.44141c-1.81099.60286-3.7163 1.27024-5.73437 2.01953.28067 3.20182.61213 6.39999.86523 9.60352.17683-.0956.38595-.20731.50977-.27539.0922-.0507.16595-.0905.24023-.13282 1.72835-.83553 3.37497-1.50645 5.00782-2.14843-.0196-.38967-.0211-.78029-.041-1.16992-.3729-2.61379-.61413-5.2544-.84766-7.89649zm227.98243 4.54883c-.77031 1.14159-1.34858 2.2739-1.43555 3.67969-.0224.35591.0302.71255.1543 1.04687l.18164.48828c.10868.12331.22903.23581.35937.33594.24865-1.84935.49064-3.70169.74024-5.55078zm-284.59571 5.79297c.92 7.7308 1.80106 15.49661 2.76758 23.26562 1.36524-.31248 2.6991-.65308 4.08985-.94336.156466-.0329.309909-.0767.45898-.13086 2.52464-.91337 4.47857-2.5295 5.77539-4.49023-.90014-4.91721-1.82325-9.83353-2.83984-14.74609-2.62237-1.96394-6.19002-2.7559-10.25196-2.95508zm60.98828 2.66797c-.48315.87998-.96902 1.73331-1.45703 2.57226.41406 10.54116.62036 20.64343.6543 30.36914.74911-.34178 1.46766-.72626 2.20117-1.08984-.75541-10.52796-1.27883-21.13126-1.39844-31.85156zm-75.41601 1.11328c-.20144.14266-.39154.30092-.58789.45117.041.59597.0887 1.19125.13086 1.78711.15433-.74849.30555-1.48929.45703-2.23828zm-.45703 2.23828c-1.66195 8.06007-3.36837 16.05421-4.349612 23.57812 1.677312 2.62379 4.107322 4.86244 7.039062 6.79688-1.09285-10.10528-1.9724-20.23157-2.68945-30.375zm296.21093-1.4375c-.35631-.00001-.70853.0759-1.0332.22266-.9198.41597-1.13402.75906-1.58984 1.2207-.45583.46163-.96425 1.03195-1.56446 1.74609-1.2004 1.42829-2.75807 3.42073-4.70703 6.00977-.003.004-.005.008-.008.0117-1.03642 1.39098-2.12405 2.48927-3.21875 3.55859-.12051 5.15218-.4356 9.92665-.7793 14.78125 1.11243-.94342 2.18012-1.78488 3.35352-2.86133.005-.004.009-.008.0137-.0117 4.07117-3.78741 7.22385-7.16123 9.50196-10.32812.61439-4.61878 1.2309-9.23991 1.8496-13.85742-.31941-.25011-.69473-.419-1.09375-.49219zm-115.58398.0586c-.26222.0143-.52058.0696-.76562.16407-.9198.41597-1.13403.75906-1.58985 1.2207-.45583.46163-.96424 1.03195-1.56445 1.74609-.89524 1.06519-2.20302 2.77624-3.50977 4.48242-.33806 5.38009-.68365 10.79308-1.03906 16.21289 3.22249-3.04588 5.7961-5.82676 7.82617-8.45507.2213-5.13179.41821-10.22512.64258-15.3711zm227.57813 1.70899c-1.6761 0-2.85878.79095-4.33594 1.87695-1.47715 1.086-3.16422 2.61248-5.14453 4.61328-.002.003-.004.005-.006.008-3.10469 3.16005-4.47706 4.25279-6.52344 6.14063.43533 3.97811.65667 7.96657 1.00195 11.94922 2.09946-1.871 4.19546-3.77883 6.25196-6.08203 3.70353-4.14398 6.48849-7.40867 8.38476-9.83789.94813-1.21461 1.67287-2.21452 2.20117-3.0625.52829-.84799 1.00977-1.2888 1.00977-2.67579 0-.58473-.12849-1.35811-.71484-2.01757s-1.48691-.91211-2.125-.91211zm-335.49219 1.66992c-1.69624 2.7194-3.41155 5.24237-5.1582 7.45703.50256 7.53939 1.04399 15.07638 1.40624 22.62305 1.61448-.58073 3.19406-1.21122 4.74415-1.88282-.21447-9.40316-.57206-18.80175-.99219-28.19726zm189.66406 1.9375c-2.04684 2.8571-3.88555 5.26213-5.52539 7.22851.21572 7.60545.36505 15.21116.59961 22.81641 1.76942.95885 3.9978 1.34974 6.46289 1.44336-.82265-10.47191-1.23809-20.97561-1.53711-31.48828zm-37.66016.82617c-.86979.43153-1.6957 1.03048-2.67382 1.83008-1.69583 1.38631-3.73356 3.36085-6.1875 5.96875-.21134.22459-.33663.28026-.54297.49414.17145 3.84734.33808 7.69494.52929 11.54102 1.77094-1.71987 3.52924-3.41795 5.48438-5.50782.62658-.66975.87228-1.03301 1.42773-1.64453-.29188 1.21536-.48632 2.42726-.48632 3.63086 0 3.6357 1.5667 7.06936 4.32421 9.9375 1.22397 1.2731 2.62357 2.24953 4.11133 3.00195-2.60567-10.36917-4.55758-19.18796-5.98633-29.25195zm125.86719 6.78125c-.96242 3.39004-1.60547 6.76569-1.60547 10.11524 0 1.14713.0958 2.24641.26953 3.29687.48711-4.46539.93858-8.93571 1.33594-13.41211zm-357.9257786 3.25391c.05274.57732.09363 1.15811.193359 1.71875-.06243-.57309-.131953-1.14558-.193359-1.71875zm302.9140586 2.66601-8.12109 15.55274c-.87573 1.67854.31995 3.6921 2.21289 3.72656l3.32617.0606c.85193-6.44813 1.72608-12.89323 2.58203-19.33985zm80.01172 5.27539c-.79256.10472-1.58746.22657-2.37109.22657-.2695 0-.22035-.0605-.33399-.0879-.008 4.39386-.0283 8.78782-.0273 13.18165.93933-.1933 1.87743-.39961 2.81055-.67579-.0221-4.21466-.0555-8.42968-.0781-12.64453zm-356.74219 4.21094c.40297 3.21632.78161 6.45598 1.18555 9.67773 3.77694.62163 7.85676.92757 12.16797 1-.44464-3.10245-.87919-6.20333-1.36719-9.30664-.31384.005-.59159.0801-.9082.0801-3.68051 0-7.37043-.55804-11.07813-1.45117zm524.71338-125.939c-4.42595 0-8.76578.30321-13.04688.8086 1.45093 3.19839 3.7985 6.9518 6.11133 10.64257 2.59786-.10446 5.19922-.20898 8.01172-.20898 2.65899 0 4.75801.25545 7.17969.36523.22768-3.79347.36606-7.59088.61718-11.38281-2.81799-.10256-5.53409-.22461-8.87304-.22461zm13.43554.37696c-.13347 4.0049-.17304 7.75265-.2207 11.48242 1.39882.11344 3.0556.11057 4.36328.26367.0635-3.76083.24904-7.51723.33399-11.27734-1.4871-.15705-2.76167-.36151-4.47657-.46875zm8.89258.93164c.10256 3.85796.24946 7.722.51953 11.59765 2.44786.43158 4.75633.92007 6.81055 1.50977-2.18426 1.10156-4.30839 2.35805-6.42383 3.63476.50915 6.46483 1.05537 12.93225 1.4336 19.39258 3.27186-5.24833 6.5461-9.3874 9.7832-12.46289-.063-6.83736-.10726-13.62612-.0762-20.32422-4.0243-1.46853-7.94797-2.66661-11.67578-3.30859-.003-.000004-.005-.000004-.008 0-.10134-.0172-.26047-.0222-.36328-.0391zm-41.28515.47656c-7.45528 1.31146-14.67256 3.41754-21.64649 6.31055-.21773 3.40354-.42493 6.76294-.63086 10.17187 2.24387-1.04859 4.49593-1.99251 6.75977-2.73828l.006-.002c5.11156-1.6354 11.39638-2.75951 18.58398-3.46289-1.18108-3.41046-2.19708-6.83751-3.07226-10.2793zm81.88086 1.97851c-2.0739 0-4.43472.31478-6.95508.79297-5.25304 20.5236-6.79077 41.33618-6.21485 62.19727 2.89551-1.88951 5.43536-3.91626 7.64453-6.06445.90318-12.62823 2.81234-25.20865 5.25391-37.70899-1.94355-2.91068-4.29653-5.63451-7.37305-7.97656 1.05397-.27434 2.73148-.69978 3.48633-.90235 2.60269-.66295 4.56527-1.24094 6.03711-1.80078.55093-2.55104 1.18336-5.05368 1.75977-7.5957-1.16496-.7713-2.39281-.94141-3.63867-.94141zm-11.625 1.95508c-1.2576.3317-2.61926.75677-3.97071 1.17578-.43659 2.5511-.77453 4.99462-.8789 7.05274 2.40344-2.22283 3.86468-5.14057 4.84961-8.22852zm358.10546.69336c-.22378.00002-.457.0645-.68164.0703-.0169 3.49976-.0956 6.99854-.13867 10.49805.49308-.11139 1.01902-.26997 1.45313-.29687.18457.19994.53816.75301.83593 1.18359-.38608 1.66304-1.22431 3.67106-2.38476 5.90625-.0907 5.51165-.19609 11.02216-.33008 16.5332 3.11604-4.10687 6.06797-8.22777 8.6543-12.38281v-.004c2.9153-4.62879 4.49023-9.15287 4.49023-13.54492 0-2.53668-1.37575-4.96227-3.56054-6.24218-2.18425-1.27965-4.93563-1.72052-8.33594-1.72071zm-47.74218.27149c-2.03067.20044-4.09746.62212-6.20118 1.27734.62664 3.97824 1.15753 7.97335 1.74024 11.96094 2.26859-1.48277 4.2633-2.42953 5.94531-2.86914-.21405-1.76085-.37983-3.53614-.59961-5.29492-.34631-1.67641-.5915-3.38221-.88476-5.07422zm31.32617 4.43164c-1.26521.68064-2.56061 1.51797-3.85352 2.3457.58025 5.56144 1.07972 11.21205 1.50586 16.97266.68551-.73034 1.3244-1.34527 1.98633-2.01563.31555-5.76427.34967-11.5331.36133-17.30273zm-6.63672 4.11132c-1.79109 1.27196-3.62257 2.7378-5.46875 4.2793.71018 6.67244 1.36149 13.34563 1.91211 20.01953 1.56424-1.92436 3.239-4.14146 4.70898-5.81836-.32248-6.16176-.75744-12.32059-1.15234-18.48047zm-49.26563 3.27344c-1.80133 1.45287-3.63382 3.04868-5.49023 4.75977-.80123 8.15816-1.7034 17.59552-2.69727 27.71484 1.11859-1.52858 1.91103-2.80876 3.10547-4.39453h-.002c1.41028-1.87141 2.61719-3.20147 3.96289-4.89844.0127-7.81828.20612-15.59091 1.12109-23.18164zm-373.65624 1.29883c-1.6637 0-3.22492.28278-4.79297.54297-.42248 7.1127-.73476 14.22894-1.04493 21.35156.27184-.56561.4469-1.07185.75-1.65625 1.35331-2.57337 2.65082-4.4075 3.7129-5.46094 1.06184-1.05345 1.73017-1.24414 2.09179-1.24414.62815 0 .55638.0847.50977.0332-.0466-.0515.13867.13234.13867.9707 0 7.6248-2.58428 14.43103-7.68359 20.78516-.18548 6.52957-.29909 13.05588-.29297 19.57226 3.80586-1.91064 7.34924-4.31285 10.40234-7.53125 7.46981-7.858 11.33594-17.27429 11.33594-27.75195v-1.63672c0-5.44599-1.07983-9.91786-3.70899-13.15234-2.62917-3.23448-6.72933-4.82227-11.41796-4.82227zm-26.27735 1.09766c-.80543.62962-1.70553 1.18434-2.48047 1.83789-.3925 4.83088-.78271 9.66196-1.3125 14.48242 1.03494-1.11314 1.94125-2.201 3.14453-3.3457.19773-4.32568.43054-8.64978.64844-12.97461zm264.41211.55273c-1.41917 0-2.90138.32687-4.41602.7793-.12269 10.57734.50341 21.32629.94727 32.04883l6.4043-12.27344c.0627-6.81595.12139-13.63276.125-20.50391-.69252-.0105-2.85939-.0508-3.06055-.0508zm-184.06641.38477c-1.46361 1.02528-2.93667 2.02662-4.36523 3.14062.0916 10.90011.39109 22.82359.72656 34.73047 1.20629-2.94323 2.36298-5.66688 3.45899-8.125.005-9.91676.0575-19.83167.17968-29.74609zm346.30079.96484c-1.17881 2.44883-2.80184 5.20801-5.00977 8.36523 1.60041 11.87372 3.03886 23.77134 4.16797 35.70118 1.39193-2.17769 3.09572-4.59143 4.6914-6.92578-1.12083-12.41841-2.39635-24.7997-3.8496-37.14063zm-430.86524 1.54492c-1.68671 1.51024-3.26754 3.10389-4.79883 4.73438-.21364 5.15669-.41905 10.31304-.60351 15.4707 1.49246-2.32591 3.42836-4.74234 5.73437-7.23242-.19995-4.32317-.2442-8.64813-.33203-12.97266zm258.18164.51758c-.31777.183283-.58596.441414-.78125.75195-1.58247 2.52331-3.01186 5.04696-4.57617 7.57032-.39639 15.81296-1.09527 31.62577-2.00781 47.43359.75102-1.11232 1.69263-2.68825 2.29297-3.4375 1.2446-.66736 2.35224-.99414 3.33007-.99414.73301 0 .99443.15427 1.08008.22461.0857.0704.19901.16092.26953.74023.0506.0722.10538.14129.16407.20703v1.32227c0 5.92018-2.0423 12.51766-6.32227 19.80273-.004.007-.008.0143-.0117.0215-.6576 1.14748-1.37244 2.19929-2.07617 3.26953-.65968 9.84516-1.4372 19.66673-2.16992 29.50195 3.07417-1.47308 6.05764-3.16542 8.83203-5.33007 1.59622-1.23702 3.1186-2.59704 4.58594-4.05274.3819-1.11562.70916-2.22406 1.1289-3.3457.0162.69198.002 1.40414.0156 2.09765 2.98146-3.15107 5.68639-6.7694 8.11328-10.8457.44548-14.11244.90393-28.20972 1.17187-42.52539-1.21009-.39678-2.48373-.66406-3.8457-.66406-.48626 0-1.34249.24106-1.9043.30078.0937 15.84408-1.27252 31.43018-7.88476 46.0039.36346-29.34887.80124-58.70028.5957-88.05273zm-125.27344 4.55664c-2.60245 9.38094-4.65131 18.85058-5.75781 28.33789 4.79201-5.70548 7.39063-12.16689 7.39063-19.32812 0-3.20204-.6703-6.16412-1.63282-9.00977zm-58.57812.47852c-1.17431 1.05324-2.31401 2.19328-3.46289 3.31054.15801.78346.35892 1.57723.41601 2.33594-.87294 16.75408-1.35863 33.52928-1.64453 50.30859.70302-1.56445 1.53001-3.0143 2.16993-4.63671.28388-.0284.5473-.0872.83007-.11719.27413-17.07094.84736-34.13721 1.69141-51.20117zm-70.87891 6.36523c-3.91208 6.50702-6.00976 13.80695-6.00976 21.80078-.00008.246111.0328.491126.0977.72852.24651.90003.49359 1.75041.74414 2.55078.5469 1.727656 2.5828 2.467542 4.11132 1.49414.27699-8.86102.66054-17.71804 1.05664-26.57422zm-15.26757 1.49414c-.50574.72994-1.11915 1.37806-1.59961 2.12696v.002c-.92635 1.44555-1.73444 2.88004-2.45313 4.30469-.0907 8.21772-.17356 16.44264-.24805 24.66796 1.09669 1.693 2.36746 3.27899 4.00586 4.60352.0117.0092.0234.0183.0352.0273.0116.009.0255.0144.0371.0234-.002-11.88672.0356-23.78664.22265-35.75586zm73.51953 5.34961c-7.39408 8.85437-14.22478 19.11655-20.42188 30.94727-4.76739.60229-10.71836 1.85033-17.43945 3.5.0209 3.51512.0977 7.02328.18945 10.53125 3.86538-1.00309 7.58432-1.7773 11.1543-2.32032-3.52591 7.11561-7.02082 13.16593-10.4668 18.32618.55861 9.01188 1.43402 17.98324 2.6582 26.90429 4.70358-2.35076 9.23913-5.11044 13.55469-8.38086l.004-.004c2.39498-1.79047 4.67795-3.69186 6.85137-5.70041 1.87421-1.73204.29487-1.20281 2.00777-3.09182.36641-.40408-5.24348-34.69644-4.11829-35.63939 1.33345-1.11749 9.4247 31.09621 9.84008 30.59915 4.4678-5.34626 8.34741-11.2588 11.67102-17.68902-.2714-16.23028-1.74192-32.33925-5.48437-47.98242zm398.15234 2.62305c-.0165 4.16373-.075 8.32837-.0977 12.49219.0691-.0718.14784-.14309.2168-.21485-.0476-4.09082-.0684-8.18723-.11914-12.27734zm-4.51563 4.04687c-1.22737 1.3062-2.19879 2.46715-3.52929 3.83008v.004c-.29193.30028-.52649.49444-.81641.79101.25892 3.92614.48689 7.85271.69727 11.7793 1.41444-1.33762 2.72434-2.68471 4.08008-4.02734-.14813-4.12562-.25509-8.25205-.43165-12.37696zm-353.42968 3.37891c-.86737 1.12311-1.62335 2.26399-2.63086 3.36523-2.41579 2.60534-5.04776 4.72225-7.79102 6.59766-.0114.10956-.006.22055-.0176.33008-.0931 4.71182-.0794 9.45325-.0605 14.19531 3.73281-1.00506 7.36536-2.15763 10.84961-3.52734-.12837-7.17659-.22827-14.15535-.34961-20.96094zm301.19336 3.9707c-3.00014 3.00879-5.87854 5.79324-8.65235 8.38867-.48238 4.3905-1.01196 8.57485-1.54687 12.74805 3.44691-2.86384 6.94895-5.72257 10.12109-8.60937.0542-4.16698.12903-8.33145.0781-12.52735zm-35.97852 3.82813c-3.57658 5.28954-6.85118 10.60996-9.82226 15.96093 2.59811 18.11894 4.79617 36.30068 7.14453 54.45899.0253-.0187.045-.0262.0703-.0449 4.01615-2.97821 8.63301-7.31789 13.95312-13.05664 1.15916-1.25037 1.73035-2.02491 2.64649-3.07617-1.29618-1.1086-2.68101-3.72821-4.15625-8.00586-1.33484 1.22954-2.61832 2.37889-4.33203 4.21679-2.31882 2.48686-4.33459 4.30888-5.94531 5.44141-1.21196.85214-2.05824 1.1749-2.65235 1.32617l-.97265-1.93945c.17673-2.31551.99952-5.98101 2.65624-10.92383 1.98024-5.62897 4.07146-8.9823 4.76563-9.52539 1.27402-.963 1.7027-1.29904 2.87109-2.1836-2.37082-10.83027-4.43506-21.71616-6.22656-32.64843zm-373.18555 4.8457c-.10135 3.62673-.2511 7.25187-.33789 10.87891 2.54992 1.06119 5.32066 1.75624 8.31055 2.05664.0775-3.69331.23139-7.38396.33594-11.07617-.81036.0612-1.56959.24609-2.40625.24609-2.57767 0-4.35021-.79857-5.90235-2.10547zm159.6836.0957c-2.31041 0-4.01809 1.17393-6.35547 2.89844-2.33738 1.7245-5.12811 4.19775-8.46289 7.46289l-.0156.0156c-3.26842 3.25944-5.77256 5.98232-7.54882 8.24023-1.7135 2.17811-2.82665 3.74521-3.12891 5.7832.1453.69993.35187 1.39667.51562 2.09571.24992.45669.63742.823 1.10743 1.04687.45431.41328 1.04599.64299 1.66015.64453.98891 0 1.52041-.31449 2.05469-.61523.53429-.30075 1.04184-.66644 1.60156-1.11524 1.11945-.89758 2.43271-2.13441 4.02539-3.75585l-.0332.0332c1.06015-1.03932 1.71762-1.61934 2.45508-2.29297-.39051 1.0414-.9942 2.41883-2.02539 4.18359-1.9032 3.14878-3.3374 5.5505-4.30078 7.19922-.0226.0391-.0441.0789-.0645.11914l-1.24804 2.43164c-.18651-.29367-.30532-.62158-.57227-.86523-.50386-.45998-1.1615-.71495-1.84375-.71484h-.7168c-.11979.0001-.22756.0644-.3457.0801.5738 1.79205 1.14479 3.58516 1.85547 5.36914 10.98973 34.38913 12.18339-14.66298 19.61523-24.65625.67082 9.92225 1.43161 20.41848 2.1836 30.6543 3.17188-7.59242 6.20758-13.54444 8.92773-17.22266.003-.004.007-.008.01-.0117.27999-.38335 1.01679-1.0462 1.36133-1.47071-.52255-6.40029-1.04113-12.88538-1.41016-18.37304-.31886-1.01934-.6333-2.0409-1.16602-2.87305-1.74849-2.73129-4.80114-4.29102-8.13476-4.29102zm187.07226 1.03516c-.0686 6.79249-.0831 13.58471-.10156 20.37695 1.93325-3.07774 3.91237-6.19072 5.23828-8.90039.30735-3.7129.76037-7.40479 1.28125-11.08789-1.63213-.26062-3.96015-.33648-6.41797-.38867zm-256.32421.16406c-1.05218.4556-2.13712.84928-3.23047 1.22461.0992 3.97836.21301 7.15863.28906 11.53906 1.03208-.18171 2.03518-.40519 3.05078-.61132-.0315-4.05099-.0912-8.10123-.10937-12.15235zm247.56054.82813c-.65596.25847-1.40801.39518-1.95898.80664-.45963.360051-.75806.887395-.83008 1.4668-.75076-.19049-1.67288-.47508-3.00586-1.07813-.16963 13.55268-.18592 27.10874-.0137 40.66992 1.40379-2.43985 3.20554-5.2884 5.31055-8.45703.12714-11.13623.2608-22.27164.49804-33.4082zm-145.86133 1.4082c-.35745 0-.75198.0947-1.11914.12109.58328 6.42222 1.69358 12.56024 4.14649 17.90625 3.30471-4.15751 5.86856-8.96719 7.86914-14.2207-.12364-.12716-.20901-.28503-.33985-.40625-2.5757-2.38647-6.23036-3.40039-10.55664-3.40039zm249.46875.0391c-1.79067 1.61392-3.26312 2.66348-4.95117 4.09375.29758 3.43876.49736 6.88265.75 10.32422.34251-.263 1.10543-.83637 1.42188-1.08008.01-.008.0196-.0155.0293-.0234 1.29221-1.02726 2.38793-2.07138 3.64454-3.10157-.25124-3.41076-.61354-6.80576-.89454-10.21289zm-204.61328.0391c-.72591 1.24011-1.52654 2.48058-2.24804 3.7207-5.19774 8.85839-8.27347 14.54415-11.7168 20.7793-.0661 13.18857-.0582 27.04348-.0625 40.88867 2.69584.84425 5.76945 1.27539 9.24609 1.27539.66853 0 1.29107-.12669 1.95117-.15039-.34858-10.06701-.52629-20.14834.24219-30.28321 1.16055-12.06811 1.94551-24.14669 2.58789-36.23046zm78.09375.13867c-3.00693 1.34334-6.15722 3.46742-9.35937 5.85351-.24586 8.75275-.3769 17.50754-.49805 26.26367 1.08664-1.79038 2.33067-3.66065 3.78516-5.62695l.004-.004c.00093-.001.00096-.003.002-.004 1.84436-2.46857 3.74288-4.55607 5.63671-6.68359.13234-6.29379.2635-12.79093.42969-19.79883zm-191.92969 3.94336c.47525 9.63569 1.25126 19.27155 2.44727 28.89062 1.5886-3.22913 3.31601-6.54352 5.19141-9.95312-.59342-6.31399-.954-12.6288-.88086-18.9375zm9.18555 0c.0939 4.65771.53129 9.30614 1.33008 13.93945 1.87483-3.25349 3.48515-6.34125 5.61914-9.75586 1.13879-1.82106-.17054-4.18382-2.31836-4.18359zm276.5918 2.56836c-3.90983 6.96161-7.48083 13.95762-10.36133 21.02343-4.25203 10.42362-6.45312 19.17236-6.45312 26.42969 0 3.28803 1.23858 6.36675 3.50586 8.82422.0309.0341.0629.0673.0957.0996 2.45405 2.37164 5.6822 3.61914 9.19531 3.61914 1.84884 0 3.74701-.63671 5.72656-1.62109-1.60015-13.46939-2.63762-27.01495-3.33007-40.45704.97046-5.85951 1.38507-11.86468 1.62109-17.91796zm-226.32617.26757c-.1875 1.30186-.28714 2.60971-.4668 3.91211.61497-.34047 1.28742-.6981 1.44141-.74414.15561.0802.31928.14374.48828.18946.28446 0 .10732-.0103.0586-.0606-.0487-.0504.0998.0919.17578.68164.0488.0677.10091.13288.15625.19531v1.45117c0 3.61548-1.39107 8.63477-4.29101 14.83789-1.38041 12.19686-2.48792 24.40983-3.26953 36.64258 1.91249.60357 4.06315.90235 6.45312.90235 1.01532 0 1.83925-.19564 2.80273-.24805.32609-1.0986.60506-2.20375.95508-3.29883.56538 1.23963 1.04865 2.09858 1.55664 3.07422 3.79572-.41658 7.30343-1.13571 10.19532-2.53711 1.3438-5.16176 2.72062-11.26166 4.83593-15.75586-3.77514 2.08233-7.69543 3.15891-11.86132 3.2793-.0674-.0551-.14948-.11522-.20313-.16211.0128-.0308.0136-.0381.0273-.0703.27995-.66311.73468-1.64006 1.34961-2.88282.002-.003.006-.0104.008-.0137-4.15335-6.36182-4.72654-34.98669-10.41211-39.39258zm114.32617 6.625c-1.24818 1.20617-2.4584 2.24462-3.73828 3.58399-.69031 15.78689-1.31053 31.57541-1.93946 47.36328 1.27719-.18553 2.50201-.49221 3.6875-.90625.61019-16.99812 1.3076-33.31902 1.99024-50.04102zm-188.34961 6.66993c-.51038 1.06859-2.09181 4.41823-2.33203 4.91211l-7.94922 12.58007c.42454 9.28732.95528 18.60748 1.67383 27.98828 1.35228.50702 2.82391.79883 4.36914.79883 1.48277 0 3.0065-.29211 4.55273-.69922.0117-16.29922-.10151-31.39953-.31445-45.58007zm-130.10352 1.84375c-.8067 0-1.55802.13627-2.33789.20312-.20981 9.44859-.2462 18.90102-.36132 28.35156.46139-.19553.60973-.37167 1.26953-.55273.003-.00081.003-.00095.006-.002 2.84977-.75039 4.94832-1.31515 6.60546-1.77149.0972-8.48566.17123-16.99472.22071-25.48633-1.68943-.46792-3.4858-.74218-5.40235-.74218zm11.22266 3.72454c-.0456 6.63051-.0475 13.31676-.082 19.95898 2.71954-2.02802 4.40132-4.96327 4.72266-8.33984-.0123-.99083-.0179-1.98522-.0293-2.97657-.42642-3.39148-1.94734-6.4379-4.55664-8.60351-.0171-.0147-.0376-.0244-.0547-.0391zm357.16016 2.71484c-.0863.0132-.17173.0314-.25586.0547.004 4.57291.0289 9.14593.0527 13.71875 2.47099-3.48822 3.8457-6.69218 3.8457-9.76368 0-1.19171-.49576-2.38173-1.26367-3.25781-.41987-.47835-1.02563-.7524-1.66211-.75195zm-48.79297 1.75976c-.25207 10.85979-.6678 21.73118-1.04492 32.59961 1.4648-.70377 2.83424-1.61138 4.1289-2.66601-.15075-4.25781-.45664-8.50555-.83398-12.74805-.0413-.0583-.18946-.26951-.18946-1.02734 0-.18164.0722-.40892.0801-.59571-.50373-5.20129-1.17978-10.39121-2.14062-15.5625zm-79.29297 1.78126c-.30947.58256-1.00275 1.73813-1.29102 2.28906-.84583 1.61653-1.25547 2.58855-1.91992 3.93554-.29497-.0693-.60016-.0839-.90039-.043-1.46801 1.10889-2.12959 1.62939-3.27344 2.50195.51936.11861 1.00274.1268 1.57227.39844.56658 6.05596.93177 12.12126 1.4043 18.18164.71584 1.07104 1.54131 2.05668 2.5332 2.90039.39907.33945.88631.58058 1.32226.8789-.36279-7.06676-.66533-14.1351-1.11132-21.19922 1.29538-3.93583 1.73365-7.15775 1.66406-9.84374zm-86.85352.35742c-1.69917 1.73527-3.40902 4.02517-5.41015 7.02148.62401 4.5497 1.23332 9.09734 1.95703 13.63281.0398-.037.0717-.0724.11133-.10937l-.0977.18945c.68699 4.3023 1.53342 8.53344 2.2832 12.81836l17.41602-1.02539c.86389-.0511 1.63844-.54942 2.04297-1.31445.14242-.26928.54694-1.32314.70312-1.63477-8.91357 3.95698-23.7845-8.6196-18.70508-27.08203-.14202-.83176-.17273-1.6642-.30078-2.49609zm182.45508.39062c-3.38836 4.6503-6.37728 8.48286-8.66211 10.9375-.26287.28241-.40694.35687-.65429.60938-.0363 4.86872-.0729 9.73642-.0723 14.60547.21757.50854.41825.97001.58984 1.32421.19871.41017.27829.65339.67383 1.13477 1.65054 2.00867 4.33608 2.81461 7.43555 3.125.084-7.82555.51341-22.34459.68945-31.73633zm36.58399 1.66211c-2.57068 7.49489-3.92579 14.03569-3.92579 19.65625 0 3.28803 1.23858 6.36675 3.50586 8.82422.0309.0341.0629.0673.0957.0996.39364.38043.83611.68379 1.26757 1.00586-.42684-9.85486-.86579-19.73719-.94335-29.58594zm-13.53516 4.05274c-1.65402 2.06684-3.39949 3.67277-5.21289 4.95703.0629 4.39718.25272 8.79741.34375 13.19531 1.52153-1.2492 3.04775-2.5153 4.68945-4.03516.004-.003.008-.007.0117-.01l.0137-.0137c.0203-4.69785.11088-9.39573.1543-14.09375zm-61.3418 2.95507c-1.22653 3.20397-2.06445 6.30662-2.06445 9.21289 0 2.08968.6649 4.06155 1.64648 5.94532.17667-5.00595.2579-10.12947.41797-15.15821zm-104.45312 2.3711c-.18915.39556-.57855 1.06255-.74805 1.43164-1.36209 2.9661-2.19922 4.79912-2.19922 6.88281 0 3.44824 1.0474 6.48107 3.08594 8.70117.0631-6.04196.0493-11.74959-.13867-17.01562zm-195.90821 11.16406c-.0459 4.27292-.13566 8.54511-.16406 12.81836 2.45715.81944 5.06835 1.41792 7.78321 1.86914.0622-3.68425.11249-7.3684.16406-11.05078-1.08548-.33363-2.14018-.56177-3.26172-1.01953-.002-.00082-.004-.00096-.006-.002-2.06304-.86138-3.47794-1.76165-4.51563-2.61523zm31.84961 1.6582c-.1699.0808-.34141.15054-.51171.22852.1197 2.31515.31556 7.21328.44335 9.79101-.00071-3.33946.0471-6.67968.0684-10.01953zm-.0684 10.01953c.00022.99143-.0217 1.98323-.0195 2.97461.0509-.007.10341-.0102.1543-.0176-.0393-.80278-.0962-2.17851-.13476-2.95704zm-2.73632-8.76367c-1.89996.71956-3.83582 1.2049-5.78907 1.58203-.0163 3.64658-.0123 7.29287-.0137 10.93946 2.03729-.10093 4.04722-.27253 6.03711-.5-.11468-4.77987-.15325-7.9268-.23437-12.02149zm-15.20508 1.98242c-.0139 3.49894-.0322 6.99475-.043 10.49805 1.50272.0961 2.98579.22266 4.55469.22266.23888 0 .46876-.0237.70703-.0254-.078-3.51266-.15648-7.01631-.22461-10.53516-.75785.0479-1.50885.13477-2.27539.13477-.879 0-1.81484-.20355-2.71875-.29493zm-352.36349-73.437645c1.15699 1.79581 1.03816 5.161233 2.86317 7.741077.77793 1.099685.34252 2.089009-.4005 3.082111-1.88238-.842781-5.41288-5.968218-6.53705-10.133079-.56907-2.108314-2.92244-3.437517-4.46271-2.617969-.003.591563 1.70443 3.438199 2.95954 5.688141.72952 1.307749 1.30639 2.413914 1.3062 2.758512-.008 13.917242.36444 28.047212.81917 41.939302l1.04032-1.55155 1.4915-2.35898c-.52985-15.75001 14.97978-44.745412 1.28491-46.564681-.21765-.04078-2.31163-.460959-1.53722-2.95193.77142-2.481327.1377-7.551065-.51294-6.686667l-7.1402 9.48591c-.1449.192502 3.18325 2.885768 5.55009 1.479959 1.47873-.878308 3.12038.690112 3.27572.689843z" fill="url(#b)" stroke-width="1.18096"/><g stroke-linecap="square" stroke-linejoin="round" stroke-width="3"><path d="m623.56445 63.849609c-2.6268.05314-5.24059.705849-7.54614 1.975604-2.99735 1.644585-5.45588 4.266103-6.85913 7.388944-1.30694 2.832809-1.74238 6.063305-1.24518 9.142579.49733 3.188621 2.00075 6.198263 4.22663 8.531982 2.36492 2.469021 5.53314 4.168729 8.91411 4.712534 3.07401.536182 6.30556.110318 9.15179-1.161741 2.95087-1.306464 5.47038-3.536015 7.1478-6.290961 2.33612-3.831008 2.97937-8.669414 1.64508-12.964702-1.64609-5.609957-6.61382-10.054611-12.37264-11.066448-1.00905-.184641-2.03603-.284121-3.06232-.267791z"/><circle cx="623.69611" cy="79.844742" fill="url(#a)" r="14"/><path d="m619.35532 78.897608c.165.637-.41 1.883-.791 2.403-.572.741-.89.564-1.642.681-.569.029-1.312.193-1.647-.578-.481-.784-.263-1.132-.39-1.852-.231-.597-.08-1.892.284-2.177-.043-.044.889-.152 1.757-.269.369.362 1.202.726 1.648.978.03.19.752.474.851 1.406-.304.251-.068-.428-.07-.592" fill="#b2c1c7"/></g></g></svg>