<svg enable-background="new -1 -1 568.929 116.145" height="116.145" viewBox="-1 -1 568.929 116.145" width="568.929" xmlns="http://www.w3.org/2000/svg" xmlns:xlink="http://www.w3.org/1999/xlink"><linearGradient id="a"><stop offset="0" stop-color="#d9dde9"/><stop offset=".39" stop-color="#777489"/><stop offset=".98" stop-color="#d9dde9"/></linearGradient><linearGradient id="b" gradientUnits="userSpaceOnUse" x1="283.7192" x2="283.7192" xlink:href="#a" y1="4.5637" y2="109.5803"/><linearGradient id="c" gradientUnits="userSpaceOnUse" x1="196.3701" x2="245.8819" xlink:href="#a" y1="43.6252" y2="93.137"/><linearGradient id="d"><stop offset="0"/><stop offset=".11" stop-color="#181c4e"/><stop offset=".22" stop-color="#181818"/><stop offset=".34" stop-color="#181c4e"/><stop offset=".47"/><stop offset=".59" stop-color="#181c4e"/><stop offset=".72"/><stop offset=".84" stop-color="#181c4e"/><stop offset=".98"/></linearGradient><linearGradient id="e" gradientUnits="userSpaceOnUse" x1="197.2656" x2="245.2967" xlink:href="#d" y1="44.4036" y2="92.4348"/><linearGradient id="f" gradientUnits="userSpaceOnUse" x1="425.0845" x2="475.3266" xlink:href="#a" y1="55.0334" y2="108.4798"/><linearGradient id="g" gradientUnits="userSpaceOnUse" x1="425.7856" x2="473.9912" xlink:href="#d" y1="55.7795" y2="107.0596"/><linearGradient id="h" gradientUnits="userSpaceOnUse" x1="276.0747" x2="325.8835" xlink:href="#a" y1="43.9641" y2="93.7727"/><linearGradient id="i" gradientUnits="userSpaceOnUse" x1="277.1948" x2="325.1533" xlink:href="#d" y1="45.0598" y2="93.0183"/><linearGradient id="j" gradientUnits="userSpaceOnUse" x1="116.8037" x2="166.3363" xlink:href="#a" y1="44.2366" y2="93.769"/><linearGradient id="k" gradientUnits="userSpaceOnUse" x1="117.6558" x2="165.7816" xlink:href="#d" y1="45.0676" y2="93.1934"/><linearGradient id="l" gradientUnits="userSpaceOnUse" x1="40.5674" x2="89.4427" xlink:href="#a" y1="48.3664" y2="97.2418"/><linearGradient id="m" gradientUnits="userSpaceOnUse" x1="41.2622" x2="88.7737" xlink:href="#d" y1="49.0637" y2="96.5752"/><linearGradient id="n" gradientTransform="matrix(1 0 0 -1 .0352 -577.9663)" gradientUnits="userSpaceOnUse" x1="350.5229" x2="422.8159" xlink:href="#a" y1="-651.3997" y2="-651.3997"/><linearGradient id="o" gradientUnits="userSpaceOnUse" x1="357.0015" x2="406.0182" xlink:href="#d" y1="43.7317" y2="92.7482"/><linearGradient id="p" gradientUnits="userSpaceOnUse" x1="467.2114" x2="518.1216" xlink:href="#a" y1="42.5842" y2="93.4944"/><linearGradient id="q" gradientUnits="userSpaceOnUse" x1="468.3569" x2="517.3742" xlink:href="#d" y1="43.7317" y2="92.7489"/><path d="m533.056 31.853-.229-.132h-184.484l-19.022-32.721h-90.947l-19.027 32.721h-185.241l-35.106 19.884v43.654l34.88 19.759.228.127h498.717l34.85-19.741.254-.145v-43.652z"/><path d="m0 52.188v42.489l34.37 19.468h498.19l34.369-19.468v-42.487l-34.369-19.47h-184.793l-19.023-32.72h-89.796l-19.025 32.72h-185.553z" fill="#ced1dd"/><path d="m344.724 37.286-19.023-32.722h-.252-83.458-.25l-19.025 32.723h-185.939l-32.212 18.073v36.148l32.212 18.072h493.885l32.211-18.072v-36.148l-32.211-18.072z" fill="url(#b)"/><path d="m309.46 13.469-7.131 21.726h3.521l7.146-20.979c.26-.959 1.043-1.659 1.963-1.659.931 0 1.713.7 1.974 1.659l6.041 17.746h-9.479v3.232h14.105l-7.132-21.726c-.684-2.396-2.893-4.146-5.51-4.146-2.607-.001-4.812 1.749-5.498 4.147zm4.178 13.492 1.248-3.706 1.301 3.706zm-.517-10.638-6.387 18.872h4.117l2.643-7.822v3.697h8.295l-4.926-14.747c-.25-.821-.996-3.182-1.873-3.182-.881 0-1.627 2.36-1.869 3.182zm-22.549-2.885h12.344v-3.53h-12.639c-3.408 0-6.172 2.771-6.172 6.18v12.936c0 3.409 2.764 6.172 6.172 6.172h12.639v-16.47h-9.992v3.234h6.461v9.702h-8.813c-1.627 0-2.936-1.315-2.936-2.938v-12.35c-.002-1.619 1.309-2.936 2.936-2.936zm2.351 9.406v3.531h2.055v.882h-2.055c-.486 0-.883-.396-.883-.882v-7.648c0-.486.396-.883.883-.883h9.992v-3.524h-11.461c-1.627 0-2.945 1.316-2.945 2.938v10.585c0 1.622 1.318 2.938 2.945 2.938h7.055v-7.938zm-22.631-9.406h12.344v-3.53h-12.641c-3.408 0-6.17 2.771-6.17 6.18v12.792c0 3.408 2.762 6.179 6.17 6.179h12.641v-3.531h-12.344c-1.621 0-2.938-1.314-2.938-2.938v-12.214c0-1.621 1.317-2.938 2.938-2.938zm9.695 8.523v-3.234h-8.227c0-.486.395-.883.883-.883h9.992v-3.524h-11.461c-1.621 0-2.936 1.316-2.936 2.938v4.703zm0 1.179v3.234h-8.227c0 .485.395.882.883.882h9.992v3.522h-11.461c-1.621 0-2.936-1.314-2.936-2.938v-4.703zm-30.203 4.407h-7.412v3.233h11.314.145c2.123-.076 3.82-1.827 3.82-3.966 0-2.189-1.773-3.972-3.965-3.972h-4.459c-1.803-.686-3.334-2.474-3.334-4.559 0-2.679 2.467-4.848 5.145-4.848h11.027v-3.528h-11.469c-4.541 0-8.225 3.69-8.225 8.233 0 4.55 3.979 8.234 8.521 8.234v-.038l.023.038h2.625c.32 0 .586.259.586.586 0 .326-.268.586-.586.586h-3.756zm4.862-9.993h7.42v-3.234h-11.316-.152c-2.123.076-3.818 1.827-3.818 3.966 0 2.198 1.779 3.973 3.973 3.973h4.459c1.803.692 3.326 2.473 3.326 4.558 0 2.68-2.465 4.849-5.146 4.849h-11.018v3.53h11.459c4.545 0 8.234-3.683 8.234-8.232 0-4.543-3.979-8.234-8.523-8.234v.046l-.029-.045h-2.619c-.328 0-.586-.259-.586-.586 0-.319.258-.586.586-.586z" fill="#202066"/><path d="m260.669 47.433v52.173h-17.568v-19.273l-33.672-19.162v38.435h-17.569v-52.173h18.301l32.94 18.74v-18.74z" fill="url(#c)"/><path d="m259.698 48.156v50.493h-17.072v-18.654l-32.723-18.545v37.199h-17.073v-50.493h17.784l32.012 18.134v-18.134z" fill="url(#e)"/><path d="m433.251 47.179h18.262v52.509h-18.262z" fill="url(#f)"/><path d="m433.716 48.156h17.332v50.559h-17.332z" fill="url(#g)"/><path d="m320.921 57.68h-30.004v10.502h36.004l-17.252 10.502h-18.752v10.502h48.756l-17.252 10.502h-49.506v-40.506l18.002-12.003h47.256z" fill="url(#h)"/><path d="m320.378 58.266h-28.89v10.112h34.668l-16.612 10.112h-18.056v10.11h46.945l-16.609 10.114h-47.671v-39.002l17.335-11.556h45.502z" fill="url(#i)"/><path d="m161.399 57.878h-29.836v10.439h35.803l-17.156 10.445h-18.647v10.442h48.484l-17.157 10.443h-49.23v-40.279l17.903-11.935h46.992z" fill="url(#j)"/><path d="m160.984 58.319h-28.988v10.149h34.787l-16.67 10.147h-18.117v10.145h47.108l-16.668 10.145h-47.835v-39.137l17.395-11.594h45.658z" fill="url(#k)"/><path d="m29.562 59.372 17.908-11.939h54.472l-17.163 10.449h-37.309v31.337h33.578v-12.685h-20.893l17.162-10.445h21.641v21.638l-17.91 11.94h-51.486z" fill="url(#l)"/><path d="m30.563 59.76 17.408-11.604h52.951l-16.684 10.155h-36.267v30.465h32.64v-12.332h-20.309l16.683-10.154h21.036v21.035l-17.41 11.605h-50.048z" fill="url(#m)"/><path d="m422.089 89.034-17.502 10.654h-54.029l17.502-10.654h34.244v-10.652h-51.746v-20.547l17.502-10.656h54.791l-17.502 10.656h-35.767v9.89h52.507z" fill="#c2c4d2"/><path d="m402.304 89.034v-10.652h-51.746v-20.547l17.502-10.656h54.791l-17.502 10.656h-35.767v9.89h52.507v21.309l-17.502 10.654h-54.029l17.502-10.654z" fill="url(#n)"/><path d="m401.724 88.454v-10.256h-49.822v-19.785l16.851-10.257h52.754l-16.851 10.257h-34.438v9.525h50.557v20.516l-16.852 10.26h-52.021l16.851-10.26z" fill="url(#o)"/><path d="m533.447 89.034-17.502 10.654h-54.031l17.503-10.654h34.245v-10.652h-51.748v-20.547l17.503-10.656h54.79l-17.502 10.656h-35.766v9.89h52.508z" fill="#c2c4d2"/><path d="m513.662 89.034v-10.652h-51.748v-20.547l17.503-10.656h54.79l-17.502 10.656h-35.766v9.89h52.508v21.309l-17.502 10.654h-54.031l17.503-10.654z" fill="url(#p)"/><path d="m513.082 88.454v-10.256h-49.825v-19.785l16.854-10.257h52.754l-16.854 10.257h-34.435v9.525h50.556v20.516l-16.853 10.26h-52.022l16.854-10.26z" fill="url(#q)"/></svg>