<svg height="61.898369" viewBox="0 0 180.92465 61.898368" width="180.92465" xmlns="http://www.w3.org/2000/svg" xmlns:xlink="http://www.w3.org/1999/xlink"><filter id="a" color-interpolation-filters="sRGB"><feConvolveMatrix divisor="1" in="SourceGraphic" kernelMatrix="0 -0.15 0 -0.15 1.6 -0.15 0 -0.15 0" order="3 3" targetX="1" targetY="1"/></filter><g transform="matrix(.68841389 0 0 1 37.844452 -22.954882)"><path d="m6.670986 30.1206h178.78783v48.497082h-178.78783z" fill="#1a1a1a"/><g fill="#ffd42a" filter="url(#a)" transform="matrix(.58294071 0 0 .71414558 16.733652 17.689444)"><path d="m37.516961 77.228656-6.058667-4.608q-2.048 2.218666-5.376 3.669333-3.242667 1.450667-7.765334 1.450667-9.642666 0-14.848-6.570667-5.12-6.570667-5.12-18.176001 0-13.141333 6.4-19.370667 6.485334-6.314667 18.176001-6.314667 4.266666 0 8.362666.853334 4.181334.768 7.338667 2.048.256 3.072 0 6.314667-.170666 3.242666-.597333 6.485333h-7.168l-1.706667-7.082667q-.256-.938666-.597333-1.450666-.341334-.512-.938667-.938667-.853333-.597334-2.133333-1.024-1.194667-.512-2.901334-.512-5.290667 0-7.936 5.034667-2.645333 5.034666-2.645333 16.213333 0 8.874667 2.048 13.653334 2.133333 4.778667 7.936 4.778667 1.962667 0 3.584-.512 1.706667-.512 2.986667-1.365333v-12.714667l-5.888-.682667v-4.778667h20.224v4.778667l-3.157333.512v19.029334z"/><path d="m63.550294 72.279322v4.437334h-18.176001v-4.437334l4.608-.938666q.597334-.08533.938667-.341334.426667-.256.768-.853333l11.605334-16.469334-11.946667-18.517334q-.341334-.512-.768-.768-.341334-.341333-.938667-.512l-3.498667-.938667v-4.693333h22.784001v4.693333l-4.778667 1.109334 7.338667 12.117334 8.021333-12.117334-5.290666-1.109334v-4.693333h17.152v4.693333l-4.181333.938667q-.597334.08533-1.024.426667-.426667.256-.768.768l-10.837334 15.189334 12.970667 19.882667q.341333.512.768.853333.426667.256 1.024.341334l3.498667.938666v4.437334h-23.040001v-4.437334l4.778667-1.024-8.106667-13.312-8.704 13.312z"/><g stroke-width="1.052572"><path d="m147.08763 68.295711h-6.57067v8.319655h-10.24v-8.319655h-18.60266l-2.21867-5.294326q4.52267-7.846945 8.53333-16.261141 4.096-8.508739 7.85067-17.679266h9.728l1.536 2.174455q-5.46134 11.817691-9.64267 19.381012-4.096 7.468782-9.13066 11.817691l12.03199-.66179 1.10934-10.494109 9.04533-.567249v10.494109l6.57067-.378166z"/><path d="m169.60629 77.655322q-4.864 0-8.27733-1.796289-3.41333-1.89083-5.46133-5.105242-2.048-3.214411-2.98667-7.657863-.93867-4.443452-.93867-9.737778 0-13.04673 5.29067-19.097389 5.376-6.145199 13.568-6.145199 4.864 0 8.192 1.79629 3.41334 1.796288 5.46134 5.010701 2.048 3.11987 2.98666 7.563322.93867 4.443451.93867 9.737777 0 13.141272-5.29067 19.286472-5.29066 6.145198-13.48267 6.145198zm.42667-44.245434q-2.90133 0-4.352 3.970744-1.36533 3.970745-1.36533 13.803062 0 11.439526 1.36533 16.355686 1.45067 4.821617 4.608 4.821617 2.90133 0 4.352-4.065286 1.45067-4.065285 1.45067-13.897604 0-11.439525-1.45067-16.166602-1.36533-4.821617-4.608-4.821617z"/><path d="m212.93962 77.655322q-4.864 0-8.27733-1.796289-3.41333-1.89083-5.46133-5.105242-2.048-3.214411-2.98667-7.657863-.93867-4.443452-.93867-9.737778 0-13.04673 5.29067-19.097389 5.376-6.145199 13.568-6.145199 4.864 0 8.192 1.79629 3.41333 1.796288 5.46133 5.010701 2.048 3.11987 2.98667 7.563322.93867 4.443451.93867 9.737777 0 13.141272-5.29067 19.286472-5.29067 6.145198-13.48267 6.145198zm.42667-44.245434q-2.90133 0-4.352 3.970744-1.36533 3.970745-1.36533 13.803062 0 11.439526 1.36533 16.355686 1.45067 4.821617 4.608 4.821617 2.90133 0 4.352-4.065286 1.45067-4.065285 1.45067-13.897604 0-11.439525-1.45067-16.166602-1.36533-4.821617-4.608-4.821617z"/><path d="m256.27297 77.655322q-4.864 0-8.27734-1.796289-3.41333-1.89083-5.46133-5.105242-2.048-3.214411-2.98667-7.657863-.93866-4.443452-.93866-9.737778 0-13.04673 5.29066-19.097389 5.376-6.145199 13.568-6.145199 4.864 0 8.192 1.79629 3.41334 1.796288 5.46134 5.010701 2.048 3.11987 2.98666 7.563322.93867 4.443451.93867 9.737777 0 13.141272-5.29067 19.286472-5.29066 6.145198-13.48266 6.145198zm.42666-44.245434q-2.90133 0-4.352 3.970744-1.36533 3.970745-1.36533 13.803062 0 11.439526 1.36533 16.355686 1.45067 4.821617 4.608 4.821617 2.90134 0 4.352-4.065286 1.45067-4.065285 1.45067-13.897604 0-11.439525-1.45067-16.166602-1.36533-4.821617-4.608-4.821617z"/></g></g><path d="m-31.451006 30.1206h38.183464v48.497086h-38.183464z" fill="#666"/><path d="m-31.643248 46.493091v-10.303404l38.568024 9.599418v10.303403z" fill="#9c2249" stroke-width="1.494732"/><path d="m-15.43638 73.194554 14.123847 1.278656v-1.988105l-2.913849-.202958.01325-.943768 2.900641-.160521v-2.162461l-14.115412 1.481614zm2.438417-1.369984 6.443615-.307218v.626411zm-2.404799-3.216939 14.102234-.01848v-2.079423l-8.242109.0069 8.242109-.856123v-1.324792l-8.242109-.83582 8.242109.0034v-2.106163h-14.102234v2.936371l6.281536.674464-6.281536.550753zm.109261-13.135258 2.192292-.0034v-1.106217h11.753866v-2.292567h-11.75387v-1.184558h-2.192296zm.01325 3.023191c-.0047 1.311872-.234117 1.801736.440619 2.197516.857228.503712 2.618507.298904 4.665529.297985 1.652028-.000896 2.509255-2.906036 3.506952-2.92264h2.754174c.431014.0024.294148.731588-.103284.72974h-3.030305v2.211352l2.367578-.03135c2.983482.04983 3.425307.03226 3.414506-2.673546-.0061-1.289725-.02763-1.587709-.216113-1.834037-.123647-.161437-.473038-.386546-.775591-.498175-.50665-.188194-.75037-.201111-3.089138-.172509l-2.335163-.0081c-.600298-.0024-1.623215 1.060896-2.008603 1.631032-.440616.653188-.48264 1.360776-1.982186 1.375541-1.218611.01287-1.439522.02401-1.444324-.383779-.0037-.443751.242518-.320123 2.524857-.345958v-2.320216c-4.876844.000874-4.678743.142965-4.68955 2.74732zm.02279-8.081526 13.936552-.07015v-2.196598l-5.628405-.01378c.01652-.78785-.337368-.728808 5.684832-.67807l.01209-2.322063c-5.535974.08118-5.857735-.09037-6.987496.962217-.769513-.939151-1.241348-.855204-3.545298-.875505-2.207984-.01941-2.515337.03869-3.108432.529545-.535468.444672-.445423.851509-.363782 4.664407zm2.171883-2.263022c.03242-.860738.310955-.696521 1.749269-.696521 1.501952 0 1.817712-.144847 1.826118.702055zm-2.263865-9.451521s13.870066.148534 14.093377.07842h.0037l.03965-3.983568c.0159-1.465013-1.273839-1.232521-6.737762-1.261124-6.274333-.03318-7.39884.01848-7.39884 1.094149zm7.099888-2.895886c4.580289-.02768 4.694345-.06741 4.725556.595972l-9.470324.04892c0-.711287.738371-.620876 4.744768-.644862zm-7.118742 7.557535 14.125048 1.278644v-1.988093l-2.915055-.202959.01325-.943768 2.901848-.16052v-2.162461l-14.116627 1.481615zm2.439617-1.369996 6.443615-.307206v.62641z" fill="#f9f9f9" stroke-width="1.052431"/></g></svg>