<svg height="173.12842" viewBox="0 0 597.66357 225.06694" width="459.74121" xmlns="http://www.w3.org/2000/svg" xmlns:xlink="http://www.w3.org/1999/xlink"><filter id="a" color-interpolation-filters="sRGB" height="1.556329" width="1.556329" x="-.278164" y="-.278164"><feGaussianBlur stdDeviation="2.3180371"/></filter><linearGradient id="b" gradientUnits="userSpaceOnUse" x1="100.161798" x2="101.678008" y1="53.65821" y2="226.219275"><stop offset="0" stop-opacity="0"/><stop offset=".52784824" stop-color="#bd750f"/><stop offset="1" stop-color="#ad6b0e"/></linearGradient><filter id="c" color-interpolation-filters="sRGB" height="1.669458" width="1.296916" x="-.223123" y="-.081071"><feGaussianBlur in="SourceGraphic" result="blur" stdDeviation="3.9"/><feDiffuseLighting diffuseConstant="1" result="diffuse" surfaceScale="10"><feDistantLight azimuth="228" elevation="15"/></feDiffuseLighting><feComposite in="diffuse" in2="diffuse" k1="1" k2="0" k3="0" k4="0" operator="arithmetic" result="composite1"/><feComposite in="composite1" in2="SourceGraphic" k1="1" k2="0" k3="1" k4="0" operator="arithmetic" result="composite2"/></filter><linearGradient id="d" gradientUnits="userSpaceOnUse" x1="117.48109" x2="114.00914" y1="-244.91811" y2="-130.32195"><stop offset="0" stop-color="#fff"/><stop offset=".19696654" stop-color="#fff"/><stop offset=".82901198" stop-color="#626262" stop-opacity="0"/><stop offset="1" stop-opacity="0"/></linearGradient><filter id="e" color-interpolation-filters="sRGB" height="1.053443" width="1.048645" x="-.024323" y="-.026721"><feGaussianBlur stdDeviation="1.9174426"/></filter><filter id="f" color-interpolation-filters="sRGB" height="1.251858" width="1.183663" x="-.091831" y="-.125929"><feGaussianBlur stdDeviation="4.5191336"/></filter><g stroke-width=".488627" transform="matrix(2.004603 0 0 2.0893869 224.563613 -400.342393)"><path d="m11.253 254.205h-11.25v-1h3.375v-15.125h-2.875v-1h2.804c.56 0 1.26-.031 2.1-.094s1.726-.156 2.659-.281l.021 16.5h3.166zm-8.375-25.927c0-.701.237-1.295.713-1.781.475-.486 1.067-.729 1.776-.729.695 0 1.287.243 1.776.729s.734 1.08.734 1.781-.245 1.292-.734 1.771-1.081.719-1.776.719c-.709 0-1.302-.239-1.776-.719-.476-.479-.713-1.07-.713-1.771z"/><path d="m23.248 254.205h-10.438v-1h3v-15.125h-3v-1h2.827c.559 0 1.254-.031 2.086-.094s1.721-.156 2.667-.281v3.93h.406c.832-1.353 1.75-2.346 2.754-2.979s2.158-.95 3.464-.95c1.792 0 3.144.425 4.055 1.273.91.849 1.366 2.114 1.366 3.798v.753 10.676h2.75v1h-10.125v-1h2.625v-12.247c0-1.062-.154-1.775-.462-2.142-.308-.365-.854-.549-1.641-.549-1.273 0-2.438.686-3.497 2.056-1.059 1.371-1.588 2.917-1.588 4.639v8.243h2.75v.999z"/><path d="m53.104 248.705h1.076c-.518 2.006-1.439 3.528-2.767 4.567-1.327 1.038-3.024 1.558-5.091 1.558-2.396 0-4.385-.834-5.963-2.502s-2.367-3.74-2.367-6.217c0-2.691.86-4.932 2.583-6.722 1.722-1.789 3.903-2.685 6.544-2.685 1.938 0 3.487.423 4.649 1.268s1.744 1.976 1.744 3.392c0 .702-.208 1.268-.624 1.697s-.976.644-1.679.644c-.732 0-1.317-.211-1.755-.634s-.656-.979-.656-1.667c0-.631.189-1.189.57-1.678.38-.487.57-.753.57-.796 0-.387-.233-.688-.699-.902-.467-.215-1.116-.323-1.948-.323-1.464 0-2.525.448-3.186 1.345s-.989 2.341-.989 4.333v6.416c0 1.302.337 2.289 1.012 2.961.674.672 1.671 1.008 2.991 1.008 1.349 0 2.59-.482 3.724-1.447 1.134-.966 1.887-2.171 2.261-3.616z"/><path d="m57.02 254.205v-1h3v-15.125h-3v-1h2.827c.547 0 1.241-.031 2.084-.094.842-.063 1.731-.156 2.668-.281l.022 4.282h.345c.728-1.435 1.584-2.507 2.568-3.217s2.104-1.065 3.359-1.065c.97 0 1.743.255 2.321.764.578.51.867 1.194.867 2.055 0 .732-.204 1.32-.61 1.765s-.945.667-1.615.667c-.814 0-1.428-.172-1.842-.516s-.62-.854-.62-1.527v-.388c0-.301-.036-.523-.107-.667-.071-.143-.178-.215-.32-.215-1.014 0-1.978.663-2.891 1.988s-1.369 2.775-1.369 4.352v8.223h3.875v1h-11.562z"/><path d="m91.866 248.705h1.057c-.545 2.021-1.49 3.547-2.837 4.578-1.347 1.03-3.065 1.547-5.156 1.547-2.406 0-4.416-.834-6.027-2.502s-2.417-3.711-2.417-6.131c0-2.591.823-4.82 2.471-6.689 1.647-1.868 3.639-2.803 5.974-2.803 2.291 0 4.196.71 5.715 2.128 1.519 1.419 2.278 3.203 2.278 5.353v.395h-11.25v5.219c0 1.201.351 2.163 1.052 2.886s1.638 1.083 2.811 1.083c1.474 0 2.783-.457 3.928-1.373 1.142-.917 1.943-2.146 2.401-3.691zm-3.881-5.375v-2.354c0-1.098-.257-1.907-.771-2.428s-1.306-.781-2.375-.781c-1.057 0-1.849.268-2.376.803s-.791 1.337-.791 2.406v2.354z"/><path d="m114.889 253.205h2.813v1h-2.813c-.543 0-1.228.035-2.055.108-.828.071-1.705.164-2.633.279v-2.396h-.623c-.676.885-1.444 1.545-2.306 1.98-.862.436-1.84.653-2.932.653-2.227 0-4.109-.866-5.646-2.599s-2.306-3.887-2.306-6.464c0-2.605.782-4.767 2.349-6.485 1.566-1.718 3.521-2.577 5.862-2.577 1.049 0 1.972.209 2.77.626.797.418 1.563 1.094 2.295 2.028h.537v-13.592h-2.813v-1h2.77c.557 0 1.252-.04 2.087-.121.834-.081 1.716-.187 2.644-.316zm-4.731-5.281v-4.658c0-1.416-.541-2.708-1.621-3.874-1.081-1.166-2.271-1.75-3.567-1.75-1.239 0-2.114.372-2.626 1.116s-.768 2.133-.768 4.164v6.14c0 1.676.244 2.889.734 3.641s1.275 1.127 2.356 1.127c1.499 0 2.789-.555 3.87-1.664 1.08-1.109 1.621-2.494 1.621-4.155v-.087z"/><path d="m130.82 254.205h-11.25v-1h3.375v-15.125h-2.875v-1h2.804c.56 0 1.26-.031 2.1-.094s1.726-.156 2.659-.281l.021 16.5h3.166zm-8.375-25.927c0-.701.237-1.295.713-1.781.475-.486 1.067-.729 1.776-.729.695 0 1.287.243 1.776.729s.734 1.08.734 1.781-.245 1.292-.734 1.771-1.081.719-1.776.719c-.709 0-1.302-.239-1.776-.719-.475-.479-.713-1.07-.713-1.771z"/><path d="m140.048 254.549-2.829-.259h-.107c-1.02-.058-2.139-.086-3.357-.086-.144 0-.366.007-.667.021-.302.014-.538.021-.71.021v-1.043h3v-27.438h-3v-1h2.827c.557 0 1.253-.04 2.089-.121s1.718-.187 2.646-.316v15.029h.628c.748-.949 1.514-1.629 2.297-2.039s1.7-.615 2.751-.615c2.344 0 4.307.859 5.889 2.577 1.582 1.719 2.373 3.88 2.373 6.485 0 2.563-.777 4.714-2.33 6.453-1.553 1.74-3.444 2.609-5.673 2.609-1.093 0-2.063-.218-2.912-.653s-1.618-1.096-2.308-1.98h-.606v2.355zm0-6.625c0 1.676.548 3.078 1.646 4.209s2.397 1.696 3.899 1.696c1.024 0 1.797-.361 2.316-1.085.52-.723.78-1.814.78-3.275v-.408-6.139c0-2.031-.261-3.42-.78-4.164s-1.4-1.116-2.642-1.116c-1.285 0-2.477.584-3.574 1.75s-1.646 2.458-1.646 3.874v4.658z"/><path d="m159.747 225.767h-3.375v-1h3.289c.559 0 1.262-.04 2.107-.121s1.734-.187 2.666-.316v28.875h3.188v1h-11.25v-1h3.375z"/><path d="m184.935 248.705h1.057c-.545 2.021-1.49 3.547-2.837 4.578-1.347 1.03-3.065 1.547-5.156 1.547-2.406 0-4.416-.834-6.027-2.502s-2.417-3.711-2.417-6.131c0-2.591.823-4.82 2.471-6.689 1.647-1.868 3.639-2.803 5.974-2.803 2.291 0 4.196.71 5.715 2.128 1.519 1.419 2.278 3.203 2.278 5.353v.395h-11.25v5.219c0 1.201.351 2.163 1.052 2.886s1.638 1.083 2.811 1.083c1.474 0 2.783-.457 3.928-1.373 1.142-.917 1.943-2.146 2.401-3.691zm-3.881-5.375v-2.354c0-1.098-.257-1.907-.771-2.428s-1.306-.781-2.375-.781c-1.057 0-1.849.268-2.376.803s-.791 1.337-.791 2.406v2.354z"/></g><g stroke-width=".499359" transform="matrix(2.0036433 0 0 2.0015039 225.033993 -379.118913)"><path d="m42.376 275.164v-11.844h-4.438v-1.594h10.656v1.594h-4.438v11.844z"/><path d="m50.522 275.164v-13.438h9.719v1.594h-7.938v4.094h7.438v1.594h-7.438v4.563h8.25v1.594h-10.031z"/><path d="m72.599 270.445 1.781.447c-.374 1.46-1.046 2.573-2.017 3.34s-2.158 1.15-3.56 1.15c-1.452 0-2.632-.295-3.542-.884s-1.602-1.441-2.076-2.558-.712-2.315-.712-3.597c0-1.397.268-2.616.805-3.656.536-1.04 1.299-1.831 2.29-2.371s2.08-.81 3.269-.81c1.349 0 2.482.342 3.402 1.026.919.685 1.56 1.647 1.922 2.888l-1.75.411c-.313-.974-.767-1.683-1.361-2.127s-1.343-.667-2.244-.667c-1.036 0-1.902.246-2.598.739s-1.185 1.155-1.467 1.986-.423 1.688-.423 2.571c0 1.139.167 2.132.5 2.981s.852 1.484 1.556 1.904 1.466.63 2.287.63c.997 0 1.842-.286 2.534-.858.691-.57 1.159-1.419 1.404-2.545z"/><path d="m76.652 275.164v-13.438h1.781v5.5h6.969v-5.5h1.781v13.438h-1.781v-6.344h-6.969v6.344z"/><path d="m90.142 275.164v-13.438h1.838l7.068 10.548v-10.548h1.719v13.438h-1.838l-7.068-10.549v10.549z"/><path d="m103.163 268.623c0-2.226.601-3.968 1.804-5.227s2.756-1.889 4.658-1.889c1.246 0 2.369.295 3.369.887s1.763 1.416 2.288 2.474c.524 1.059.787 2.258.787 3.6 0 1.359-.276 2.576-.829 3.649s-1.335 1.886-2.348 2.438-2.104.828-3.276.828c-1.271 0-2.406-.305-3.406-.915-1.001-.609-1.759-1.441-2.274-2.497-.516-1.055-.773-2.172-.773-3.348zm1.844.022c0 1.614.437 2.885 1.311 3.813s1.971 1.393 3.289 1.393c1.344 0 2.449-.47 3.317-1.407.867-.938 1.302-2.268 1.302-3.99 0-1.09-.186-2.041-.557-2.854s-.914-1.442-1.629-1.89-1.517-.671-2.405-.671c-1.264 0-2.352.431-3.262 1.292-.911.861-1.366 2.299-1.366 4.314z"/><path d="m118.294 275.163v-13.438h1.781v11.844h6.656v1.594z"/><path d="m128.255 268.623c0-2.226.601-3.968 1.804-5.228 1.203-1.259 2.756-1.889 4.658-1.889 1.246 0 2.369.296 3.369.888s1.763 1.416 2.288 2.474c.524 1.059.787 2.258.787 3.6 0 1.359-.276 2.576-.829 3.649s-1.335 1.886-2.348 2.438-2.104.827-3.276.827c-1.271 0-2.406-.305-3.406-.914-1.001-.609-1.759-1.442-2.274-2.497s-.773-2.172-.773-3.348zm1.844.022c0 1.613.437 2.885 1.311 3.813.874.929 1.971 1.393 3.289 1.393 1.344 0 2.449-.469 3.317-1.406.867-.938 1.302-2.268 1.302-3.99 0-1.09-.186-2.041-.557-2.854s-.914-1.442-1.629-1.89-1.517-.672-2.405-.672c-1.264 0-2.352.432-3.262 1.293-.911.86-1.366 2.298-1.366 4.313z"/><path d="m149.761 269.913v-1.594h5.688v4.971c-.875.694-1.776 1.217-2.706 1.566-.93.351-1.884.525-2.861.525-1.321 0-2.521-.282-3.601-.847s-1.895-1.38-2.444-2.448c-.551-1.067-.825-2.26-.825-3.578 0-1.306.273-2.524.82-3.656s1.334-1.973 2.361-2.521c1.026-.549 2.209-.824 3.548-.824.972 0 1.851.158 2.637.473.785.315 1.4.755 1.847 1.317.446.563.786 1.298 1.019 2.203l-1.639.44c-.201-.684-.451-1.221-.749-1.611s-.724-.703-1.276-.938c-.554-.234-1.168-.353-1.843-.353-.81 0-1.509.124-2.099.371s-1.066.572-1.428.975c-.362.402-.644.845-.844 1.326-.341.829-.511 1.729-.511 2.699 0 1.195.205 2.195.615 3.001.41.805 1.008 1.402 1.793 1.793.784.391 1.618.585 2.5.585.766 0 1.514-.146 2.244-.441.729-.295 1.283-.609 1.66-.944v-2.489h-3.906z"/><path d="m158.392 275.163v-13.438h1.781v13.438z"/><path d="m163.398 275.163v-13.438h9.719v1.594h-7.938v4.094h7.438v1.594h-7.438v4.563h8.25v1.594h-10.031z"/><path d="m175.288 270.85 1.688-.156c.079.672.264 1.223.553 1.652.289.431.738.778 1.348 1.044s1.294.397 2.056.397c.676 0 1.272-.101 1.79-.302s.903-.478 1.156-.828.379-.732.379-1.146c0-.419-.124-.785-.372-1.098s-.652-.575-1.213-.788c-.359-.14-1.155-.357-2.386-.652s-2.095-.574-2.59-.838c-.643-.336-1.121-.753-1.436-1.251s-.473-1.057-.473-1.674c0-.679.192-1.313.578-1.902.385-.59.947-1.038 1.687-1.344s1.562-.459 2.466-.459c.996 0 1.875.161 2.636.483s1.346.796 1.755 1.422.63 1.335.66 2.126l-1.719.125c-.092-.845-.4-1.483-.928-1.915s-1.306-.647-2.335-.647c-1.073 0-1.854.196-2.345.589s-.736.865-.736 1.419c0 .481.174.877.521 1.187.341.311 1.231.629 2.673.954s2.433.61 2.973.854c.785.359 1.365.814 1.74 1.365.374.552.562 1.187.562 1.904 0 .713-.204 1.385-.613 2.015s-.997 1.12-1.763 1.471c-.767.35-1.629.524-2.588.524-1.215 0-2.232-.177-3.054-.529-.821-.354-1.466-.885-1.933-1.595-.466-.709-.712-1.511-.737-2.407z"/></g><g filter="url(#c)" transform="translate(-4.827889 236.871997)"><circle cx="114.18789" cy="-121.16506" fill="#f6e707" r="100"/><path d="m100.33789 51.447266a94.600876 86.108139 0 0 0 -94.5996088 86.107424 94.600876 86.108139 0 0 0 94.5996088 86.10937 94.600876 86.108139 0 0 0 94.60156-86.10937 94.600876 86.108139 0 0 0 -94.60156-86.107424zm-.17578 2.210937a58.879349 43.586643 0 0 1 58.87891 43.585938 58.879349 43.586643 0 0 1 -58.87891 43.587889 58.879349 43.586643 0 0 1 -58.878907-43.587889 58.879349 43.586643 0 0 1 58.878907-43.585938z" fill="url(#b)" filter="url(#e)" opacity=".625296" transform="translate(13.847342 -271.15343)"/><ellipse cx="113.50987" cy="-173.60236" fill="url(#d)" filter="url(#f)" rx="59.053455" ry="43.063721"/><ellipse cx="113.93716" cy="-124.51709" fill="none" rx="93.804077" ry="93.802757" stroke="#ad6b0e" stroke-linecap="round" stroke-linejoin="round" stroke-width="5"/><circle cx="55.727978" cy="-172.54948" fill="#fff" fill-opacity=".761013" filter="url(#a)" r="10" transform="matrix(1.25 0 0 1.25 -13.269415 44.480687)"/><g stroke-width=".999997"><path d="m160.43807-116.43487-13.3183.0177-.0136 42.481953c.0136 1.502795-.0305 4.550983 2.45064 3.018042 5.16553-3.440764 7.45899-15.58502 8.24831-17.872308l2.96896 1.059755c-3.42155 12.14229-6.61409 28.514425-22.78143 30.545458h-22.49958v-3.485985h5.76108c-2.46081-2.006129-4.68651-4.47758-5.76108-7.226259v-69.964806c15.03992-4.84394 27.2552-19.32529 31.61378-34.21757l.0135 51.17103h13.3183v4.473zm-44.94495 59.251245h-46.762785v-3.501714h8.448183l.01558-75.845561c5.502261 1.80559 11.406978 2.79849 17.527152 2.79849 2.926273 0 5.79767-.2248 8.60605-.64752 2.27246-.24315 4.42498-1.00798 6.37561-1.42022l.021 14.89163h5.05983v-16.73195c.25408-.0636.47902-.13697.7087-.22086v69.964807c-.44175-1.108254-.6877-2.266971-.6877-3.465668l-.021-45.072679h-5.05983v55.76526h5.76853v3.485985z"/><path d="m100.51892-198.00128c14.24721 0 25.86625 11.24049 25.86625 25.01926 0 13.78272-11.61904 25.02516-25.86625 25.02516-14.243819 0-25.868285-11.24179-25.868285-25.02516 0-13.77877 11.624466-25.01926 25.868285-25.01926z"/></g></g></svg>