<svg viewBox="67 322 745 150" xmlns="http://www.w3.org/2000/svg" xmlns:xlink="http://www.w3.org/1999/xlink"><linearGradient id="a" gradientTransform="matrix(1 0 0 -1 -24.5 564.5)" gradientUnits="userSpaceOnUse" x1="464.335" x2="464.335" y1="236.5" y2="98.5"><stop offset="0" stop-color="#d9dde9"/><stop offset=".39" stop-color="#777489"/><stop offset=".98" stop-color="#d9dde9"/></linearGradient><linearGradient id="b"><stop offset="0"/><stop offset=".11" stop-color="#181c4e"/><stop offset=".22" stop-color="#181818"/><stop offset=".34" stop-color="#181c4e"/><stop offset=".47"/><stop offset=".59" stop-color="#181c4e"/><stop offset=".72"/><stop offset=".84" stop-color="#181c4e"/><stop offset=".98"/></linearGradient><linearGradient id="c" gradientTransform="matrix(1 0 0 -1 -24.5 564.5)" gradientUnits="userSpaceOnUse" x1="349.977" x2="417.093" xlink:href="#b" y1="187.023" y2="119.907"/><linearGradient id="d" gradientTransform="matrix(1 0 0 -1 -24.5 564.5)" gradientUnits="userSpaceOnUse" x1="645.52" x2="712.267" xlink:href="#b" y1="170.946" y2="99.942"/><linearGradient id="e" gradientTransform="matrix(1 0 0 -1 -24.5 564.5)" gradientUnits="userSpaceOnUse" x1="453.714" x2="520.117" xlink:href="#b" y1="185.786" y2="119.383"/><linearGradient id="f" gradientTransform="matrix(1 0 0 -1 -24.5 564.5)" gradientUnits="userSpaceOnUse" x1="241.714" x2="308.117" xlink:href="#b" y1="185.786" y2="119.383"/><linearGradient id="g" gradientTransform="matrix(1 0 0 -1 -24.5 564.5)" gradientUnits="userSpaceOnUse" x1="143.25" x2="208.75" xlink:href="#b" y1="180.25" y2="114.75"/><linearGradient id="h" gradientTransform="matrix(1 0 0 -1 -24.5 564.5)" gradientUnits="userSpaceOnUse" x1="552.459" x2="619.359" xlink:href="#b" y1="186.541" y2="119.641"/><linearGradient id="i" gradientTransform="matrix(1 0 0 -1 -24.5 564.5)" gradientUnits="userSpaceOnUse" x1="705.46" x2="772.359" xlink:href="#b" y1="186.54" y2="119.641"/><path d="m67 392v53l48 27h649l48-27v-53l-48-27h-240l-25-43h-118l-25 43h-241z" fill="#c2c4d2"/><path d="m520 371-25-43h-110.33l-25 43h-244.34l-42.33 23.75v47.5l42.33 23.75h649.01l42.33-23.75v-47.5l-42.33-23.75z" fill="url(#a)"/><path d="m473.66 339.7-9.37 28.55h4.63l9.391-27.57c.34-1.26 1.369-2.18 2.579-2.18 1.221 0 2.25.92 2.591 2.18l7.939 23.32h-12.46v4.25h18.54l-9.37-28.55a7.525 7.525 0 0 0 -7.24-5.45c-3.43 0-6.329 2.3-7.23 5.45zm5.49 17.73 1.64-4.87 1.71 4.87zm-.68-13.98-8.39 24.8h5.41l3.47-10.28v4.86h10.9l-6.471-19.38c-.329-1.08-1.31-4.18-2.46-4.18-1.159 0-2.139 3.1-2.459 4.18zm-29.63-3.79h16.221v-4.64h-16.61c-4.48 0-8.11 3.64-8.11 8.12v17c0 4.48 3.63 8.11 8.11 8.11h16.61v-21.64h-13.131v4.25h8.49v12.75h-11.58a3.855 3.855 0 0 1 -3.859-3.86v-16.23a3.854 3.854 0 0 1 3.859-3.86zm3.09 12.36v4.64h2.7v1.16h-2.7c-.64 0-1.16-.52-1.16-1.16v-10.05c0-.64.521-1.16 1.16-1.16h13.131v-4.63h-15.061c-2.14 0-3.87 1.73-3.87 3.86v13.91c0 2.13 1.73 3.86 3.87 3.86h9.27v-10.43zm-29.74-12.36h16.22v-4.64h-16.61c-4.48 0-8.11 3.64-8.11 8.12v16.81c0 4.48 3.63 8.12 8.11 8.12h16.61v-4.64h-16.22c-2.13 0-3.86-1.73-3.86-3.86v-16.05c0-2.13 1.73-3.86 3.86-3.86zm12.74 11.2v-4.25h-10.81c0-.64.52-1.16 1.16-1.16h13.13v-4.63h-15.06c-2.13 0-3.86 1.73-3.86 3.86v6.18zm0 1.55v4.25h-10.81c0 .64.52 1.16 1.16 1.16h13.13v4.63h-15.06c-2.13 0-3.86-1.73-3.86-3.86v-6.18zm-39.69 5.79h-9.74v4.25h15.06c2.79-.1 5.02-2.4 5.02-5.21 0-2.88-2.33-5.22-5.21-5.22h-5.86c-2.37-.9-4.38-3.25-4.38-5.99 0-3.52 3.24-6.37 6.76-6.37h14.49v-4.64h-15.07c-5.97 0-10.81 4.85-10.81 10.82 0 5.98 5.23 10.82 11.2 10.82v-.05l.03.05h3.45a.77.77 0 0 1 0 1.54zm6.39-13.13h9.75v-4.25h-15.07a5.217 5.217 0 0 0 .2 10.43h5.86c2.37.91 4.37 3.25 4.37 5.99 0 3.52-3.24 6.37-6.76 6.37h-14.48v4.64h15.06c5.97 0 10.82-4.84 10.82-10.82 0-5.97-5.23-10.82-11.2-10.82v.06l-.04-.06h-3.44a.77.77 0 0 1 0-1.54z" fill="#181c4e"/><path d="m413 383v70h-24v-25.86l-46-25.709v51.569h-24v-70h25l45 25.14v-25.14z" fill="url(#c)"/><path d="m632 383h24v70h-24z" fill="url(#d)"/><path d="m489 397h-40v14h48l-23 14h-25v14h65l-23 14h-66v-54l24-16h63z" fill="url(#e)"/><path d="m277 397h-40v14h48l-23 14h-25v14h65l-23 14h-66v-54l24-16h63z" fill="url(#f)"/><path d="m104 399 24-16h73l-23 14h-50v42h45v-17h-28l23-14h29v29l-24 16h-69z" fill="url(#g)"/><path d="m589 439v-14h-68v-27l23-14h72l-23 14h-47v13h69v28l-23 14h-71l23-14z" fill="url(#h)"/><path d="m742 439v-14h-68v-27l23-14h72l-23 14h-47v13h69v28l-23 14h-71l23-14z" fill="url(#i)"/></svg>