<svg height="150" viewBox="0 0 320 120" width="400" xmlns="http://www.w3.org/2000/svg" xmlns:xlink="http://www.w3.org/1999/xlink"><clipPath id="a"><path d="m119.72744 98.46602h25.12551v22.9071h-25.12551zm8.78138 14.68034v3.20796h1.49403v-3.20796z"/></clipPath><path d="m0 0h320v120h-320z" fill="#f90706"/><text fill="#ef00eb" font-family="TrasksHand" font-size="1.6" stroke="#0105ff" stroke-width="2" x="38.677521" y="94.453644"><tspan fill="#fafafa" fill-opacity=".4" font-size="1.6" stroke="none" stroke-width="2" x="38.677521" y="94.453644">John Loreth 2022</tspan></text><g fill="#fff"><path d="m28.872568 119.34676v-13.2369h15.511993q1.602906 0 2.740452.98243 1.137546.98243 1.137546 2.3268v9.92767h-3.877998v-8.27306q0-.67219-.568773-1.1634-.568773-.49121-1.370226-.49121h-1.938999v9.92767h-3.877999v-9.92767h-3.877998v9.92767z" transform="scale(1.1212759 .89184112)"/><g transform="scale(1.0534864 .94922914)"><path d="m56.615916 112.13136q-1.530291 0-2.599065-.89874-1.044485-.92303-1.044485-2.21042v-9.327487h3.64355v7.772907q0 .65584.510097 1.11735.558678.43723 1.311678.43723h5.465325v-9.327487h3.64355v12.436647z"/><path d="m73.00542 112.13136c-1.020194 0-1.886549-.29958-2.599066-.89874-.696323-.61535-1.044484-1.35216-1.044484-2.21042v-9.327487h3.64355v7.772907c0 .43723.170032.80968.510097 1.11735.372451.29149.809677.43723 1.311678.43723h5.331061l.0095 3.10916z"/><path d="m82.85122 112.13136v-9.32748h-5.465325v-3.109167h14.574199v3.109167h-5.465325v9.32748z"/><path d="m92.573578 112.13136v-12.436647h3.64355v12.436647z"/></g><path d="m120.42431 105.2325-6.83877-11.671502h3.41939l5.12907 8.753622 5.12908-8.753622h3.41938l-6.83876 11.671502z" transform="scale(.9886709 1.0114589)"/><path d="m132.54504 105.2325v-11.671502h3.41939v11.671502z" transform="scale(.98867091 1.0114589)"/><path clip-path="url(#a)" d="m134.18088 113.14635q.78149 0 1.33609-.45377.5546-.47897.5546-1.15962v-3.22677q0-.65544-.5546-1.13442-.5546-.47897-1.33609-.47897h-5.67206v6.45355zm-9.45344 3.22677v-12.9071h11.34413q1.56297 0 2.67217.95795 1.10921.95795 1.10921 2.26883v6.45355q0 1.36129-1.10921 2.29403-1.1092.93274-2.67217.93274z" transform="scale(1.0933383 .91462998)"/><path d="m161.63282 103.85805q-1.41738 0-2.4073-.83243-.96742-.85493-.96742-2.04733v-8.639292h13.49889v2.879762h-10.12417v1.439881h10.12417v2.879763h-10.12417v1.439886h10.12417v2.87976z" transform="scale(.9757578 1.0248445)"/><path d="m168.96115 109.75698q.75808 0 1.29607-.44018.53799-.46463.53799-1.12489v-3.13012q0-.63581-.53799-1.10044-.53799-.46462-1.29607-.46462h-3.66811q-.75808 0-1.32053.46462-.51353.46463-.51353 1.10044v3.13012q0 .66026.51353 1.12489.56245.44018 1.32053.44018zm-5.50217 3.13012q-1.54061 0-2.61659-.9048-1.05153-.92926-1.05153-2.22532v-6.26025q0-1.29607 1.05153-2.20087 1.07598-.92926 2.61659-.92926h7.33623q1.51615 0 2.59213.92926 1.07598.92925 1.07598 2.20087v6.26025q0 1.32052-1.07598 2.22532-1.07598.9048-2.59213.9048z" transform="scale(1.0605867 .94287433)"/><path d="m184.04453 111.89053v-3.10248h10.90718v-1.55125h-9.08932q-.77562 0-1.30886-.43629-.509-.46052-.509-1.11495v-3.10249q0-1.28462 1.04224-2.18144 1.06648-.921047 2.59348-.921047h10.90719v3.102487h-10.90719v1.55124h9.08932q.75139 0 1.28463.46053.53324.46053.53324 1.09072v3.10249q0 1.30886-1.06648 2.20567-1.06648.89681-2.56925.89681z" transform="scale(1.0512238 .9512722)"/><path d="m204.40972 112.8871v-3.13012h-1.83406q-1.54061 0-2.61659-.90481-1.05152-.92925-1.05152-2.22532v-6.26025h3.66811v4.69519q0 .66026.51354 1.12489.56244.44017 1.32052.44017h3.66812q.75807 0 1.29606-.44017.53799-.46463.53799-1.12489v-4.69519h3.66812v6.26025q0 1.32052-1.07598 2.22532-1.07598.90481-2.59214.90481h-1.83405v3.13012z" transform="scale(1.0605867 .94287435)"/><path d="m225.28148 107.47324v-2.98001h10.47661v-1.49h-8.73051q-.745 0-1.25719-.41907-.48891-.44234-.48891-1.07094v-2.980014q0-1.233911 1.0011-2.095321 1.02438-.884691 2.4911-.884691h10.47661v2.980012h-10.47661v1.490004h8.73051q.72172 0 1.23391.44235.51219.44234.51219 1.04766v2.98001q0 1.25719-1.02438 2.1186-1.02438.86141-2.46782.86141z" transform="scale(1.0097229 .99037075)"/><path d="m246.36573 107.47324v-8.940034h-5.2383v-2.980012h13.9688v2.980012h-5.2383v8.940034z" transform="scale(1.0097229 .99037073)"/><path d="m271.37745 103.04008q-1.40623 0-2.38835-.82588-.9598-.8482-.9598-2.03121v-8.571263h13.3926v2.857087h-10.04445v1.428544h10.04445v2.857088h-10.04445v1.428544h10.04445v2.85709z" transform="scale(.96807287 1.0329801)"/><path d="m251.31087 116.41165v-12.9114h15.13054q1.56349 0 2.67307.95827 1.10957.95827 1.10957 2.26958v9.68355h-3.78264v-8.06962q0-.65566-.55478-1.13479-.55479-.47914-1.33653-.47914h-1.89132v9.68355h-3.78264v-9.68355h-3.78264v9.68355z" transform="scale(1.0937003 .91432726)"/><path d="m36.123391 89.295397h-22.984344l42.351389-73.572374c.215223-1.201775 4.105368-3.143209 6.955887-2.883925h13.488356c3.137407-.000896 4.8827 4.331275 4.969809 6.938686v31.755652l20.431912-34.929648c2.11722-3.935193 4.96909-3.727517 7.77755-3.764688h13.32619c5.88392.135383 4.4327 5.78415 4.64768 9.871894v66.823195h-20.70015v-39.887024l-20.843774 35.202208c-2.628918 4.60906-5.22253 4.333413-7.818948 4.446024h-12.108158c-2.567892.05206-5.526082 1.10613-5.395479-5.769612l-.172316-33.556965z"/><path d="m126.68501 12.8391h21.06787l17.23217 44.156237 16.1879-44.156237h21.87922l-25.78906 72.008194c-.88212 2.342345-.75415 4.448103-3.93224 4.448103h-16.40547c-3.36936.489128-3.16257-1.640983-4.19185-4.484882z"/><path d="m213.92641 12.8391h46.57132c8.11423.578137 9.46994 3.826274 11.7805 6.69719l7.93724 13.11618h-21.64818c-.74795-1.347707-.6412-3.040094-5.04579-2.913187h-29.35245c-3.06646 0-3.08223.0035-2.96865 3.922677l.14848 5.344481c.0928 1.526201.50591 1.283693 1.57577 1.332521h52.72429c7.28396.658854 12.05719 3.57951 14.90928 8.230846l14.16788 23.258302c3.45772 5.943665-1.27638 17.467287-9.46824 17.467287h-65.12807c-20.07457 0-29.88853-13.679797-29.5867-22.914349h20.86064c.23185 2.719595.94122 3.768489 6.8073 3.930198h48.08811l2.48614-2.968756-4.94326-8.561976h-55.76097c-9.9453-.240695-17.47681-8.487828-17.53796-12.502614v-20.665501c.15651-6.345075 8.33221-12.79684 13.61518-12.773299"/></g></svg>