<svg height="50mm" viewBox="0 0 744.09449 177.16525" width="210mm" xmlns="http://www.w3.org/2000/svg"><g transform="translate(0 -875.19749)"><path d="m191.1424 981.10541v-70.53413h27.83109l22.33182 50.16292v-50.16292h16.73692v70.53413h-26.92252l-22.90566-51.78879v51.78879z"/><path d="m270.52318 923.72171v-13.15043h18.60188v13.15043zm.28692 57.3837v-49.1587h18.12368v49.1587z"/><path d="m350.66907 962.21661q-.28692 9.22921-7.17296 14.68066-6.83822 5.40363-18.36278 5.40363-12.3375 0-19.22354-6.93386-6.83822-6.93386-6.83822-19.41482 0-12.00275 6.93386-18.60188 6.98168-6.59912 19.70173-6.59912 11.3811 0 17.83677 4.92543 6.50348 4.92543 6.64694 13.58081h-18.12368q0-4.1125-1.67369-6.26439-1.67369-2.15189-4.87761-2.15189-3.92122 0-5.88183 3.82558-1.96061 3.77776-1.96061 11.28546 0 8.36846 1.86497 12.0984 1.86497 3.72994 5.97747 3.72994 3.25174 0 4.87761-2.39099 1.67369-2.39099 1.67369-7.17296z"/><path d="m360.51994 981.10541v-70.53413h18.12368v28.21365q2.34317-3.58648 6.40785-5.59491 4.06468-2.00843 8.99011-2.00843 8.99011 0 13.62863 4.68634 4.68633 4.68633 4.68633 13.81991v31.41757h-18.12368v-24.67499q0-8.17718-1.67369-10.95072-1.67369-2.77355-5.78619-2.77355-3.8734 0-6.02529 2.72573-2.10407 2.6779-2.10407 7.65116v28.02237z"/><path d="m424.69403 923.72171v-13.15043h18.60188v13.15043zm.28692 57.3837v-49.1587h18.12369v49.1587z"/><path d="m490.7331 956.33478q0-7.36424-2.15189-11.142-2.10407-3.82558-6.26439-3.82558-4.39941 0-6.83822 3.92122-2.43881 3.92122-2.43881 11.04636 0 6.98168 2.39099 10.99854 2.39099 3.96904 6.50349 3.96904 4.44723 0 6.59912-3.68212 2.19971-3.68212 2.19971-11.28546zm-36.34301 24.77063q.38256-3.3952.57384-6.31221.2391-2.96482.2391-5.16453v-59.05739h18.21932v26.97034q2.77355-3.34738 6.59913-5.06889 3.82558-1.72151 8.55973-1.72151 10.28125 0 15.78052 6.64694 5.49927 6.64695 5.49927 19.1279 0 12.24185-5.45145 19.03226-5.40364 6.74258-15.11104 6.74258-5.26018 0-9.27703-1.86497-4.01686-1.86497-7.31642-5.78619l-.0956 6.45567h-18.21933z"/><path d="m571.8354 931.94671v38.68617q0 1.91279.19128 4.49506.19128 2.53445.62166 5.97747h-18.31497l-.28692-7.17296q-2.1997 3.82558-6.40784 6.0731-4.20814 2.19971-9.27703 2.19971-8.99011 0-13.67645-4.73415-4.63851-4.73416-4.63851-13.91555v-31.60885h18.12368v24.86627q0 8.22499 1.67369 11.04636 1.67369 2.77354 5.78619 2.77354 3.82558 0 5.97747-2.72572 2.15189-2.77355 2.15189-7.7468v-28.21365z"/><path d="m617.98144 981.10541q-3.44303.4782-6.55131.71729-3.06046.2391-5.69055.2391-8.65537 0-12.81569-3.44302-4.1125-3.44302-4.1125-10.61598v-24.29243h-9.18139v-11.76366h9.18139v-7.65116l17.74113-7.41206v15.06322h11.42892v11.76366h-11.71584v20.75377q0 3.01264 1.53023 4.30377 1.53023 1.29114 5.11671 1.29114.76512 0 2.53445-.14346 1.81715-.14346 2.53445-.19128z"/><path d="m641.74785 965.32489v.62166q0 3.20392 1.48242 4.82979 1.48241 1.62587 4.39941 1.62587 2.72573 0 4.3516-1.33895 1.62587-1.33895 1.62587-3.58648 0-3.25174-9.51613-5.83401-.71729-.2391-1.09985-.33474-11.09418-3.01264-14.63284-6.21656-3.53867-3.25175-3.53867-9.03794 0-7.12514 6.02529-11.18982 6.02529-4.11249 16.68909-4.11249 10.71163 0 16.45 4.11249 5.78618 4.1125 5.78618 11.66802v.38256h-16.83255v-.57384q0-3.1561-1.57805-4.78197-1.53023-1.67369-4.39941-1.67369-2.43881 0-3.8734 1.09985-1.4346 1.09986-1.4346 2.91701 0 3.77776 11.04637 6.59912 1.62587.43038 2.4388.62166 9.61177 2.53444 12.72005 5.64273 3.15611 3.10828 3.15611 8.94229 0 8.36846-6.12093 12.48095-6.07311 4.1125-18.45842 4.1125-11.33328 0-16.97601-4.06468-5.64273-4.1125-5.64273-12.28967v-.62166z"/><path d="m732.701 931.94671v38.68617q0 1.91279.19128 4.49506.19128 2.53445.62166 5.97747h-18.31497l-.28692-7.17296q-2.1997 3.82558-6.40784 6.0731-4.20814 2.19971-9.27703 2.19971-8.99011 0-13.67645-4.73415-4.63851-4.73416-4.63851-13.91555v-31.60885h18.12368v24.86627q0 8.22499 1.67369 11.04636 1.67369 2.77354 5.78619 2.77354 3.82558 0 5.97747-2.72572 2.15189-2.77355 2.15189-7.7468v-28.21365z"/><circle cx="87.34893" cy="965.77905" fill="#ff0" r="80.400055" stroke="#000" stroke-width="2.453703"/><g stroke-width="2.540488"><path d="m38.108413 910.92517v76.98848c0 22.49935 25.099288 48.11765 50.042463 48.11765 22.054974 0 44.589124-24.1583 44.589124-47.79679v-77.63011l-7.37803 6.73649h-81.158646z" fill-rule="evenodd" stroke="#000"/><path d="m130.23165 944.76803c0 21.91069-24.13906 39.46826-45.13904 39.46826-19.810931 0-44.013223-19.59631-44.231705-41.73667 0-15.29475 8.959972-22.00243 22.456088-22.00243 15.15607 0 22.682953 13.42524 22.682953 30.16833 0-12.20502 5.942761-30.62198 24.270734-30.62198 15.2879 0 19.96097 7.16768 19.96097 24.72449z" fill="#fff" fill-rule="evenodd" stroke="#fff"/><circle cx="61.729218" cy="942.72626" r="15.651222" stroke="#000"/></g><circle cx="61.729176" cy="942.72644" fill="#fff" r="12.923797" stroke="#fff" stroke-width="2.097776"/><circle cx="61.956028" cy="942.95312" r="8.165855"/><path d="m85.546265 951.40277-5.557292 6.97491 5.613996 7.25868-.05665 9.52658 1.326542.0305.05665-9.55706 5.092535-7.30416-4.944654-6.98609z" fill-rule="evenodd" stroke="#000" stroke-width="2.540488"/><circle cx="109.59019" cy="942.49957" r="15.651222" stroke="#000" stroke-width="2.540488"/><circle cx="109.59015" cy="942.49988" fill="#fff" r="12.923797" stroke="#fff" stroke-width="2.097776"/><circle cx="109.59015" cy="942.0462" r="10.660978"/><circle cx="61.502365" cy="942.49957" r="10.660978"/><g fill="#fff" fill-rule="evenodd"><path d="m43.639564 989.85026 9.300017 9.29997 8.846336-9.29997z"/><path d="m66.719418 989.96357 9.300016 9.30022 8.846336-9.30022z"/><path d="m54.810904 1002.4961 9.300017 9.2999 8.846336-9.2999z"/><path d="m77.511616 1022.8675 9.300016 9.2999 8.846336-9.2999z"/><path d="m65.283966 1012.455 9.300016 9.3 8.846336-9.3z"/><path d="m88.861654 1012.7759 9.300016 9.2999 8.84634-9.2999z"/><path d="m88.06803 989.78294 9.300017 9.29996 8.846333-9.29996z"/><path d="m111.14788 989.8965 9.30002 9.29996 8.84634-9.29996z"/><path d="m76.671832 1002.6711 9.300016 9.3 8.846336-9.3z"/><path d="m98.966395 1002.6711 9.300015 9.3 8.84634-9.3z"/></g><path d="m86.226761 951.34586v-23.36335" fill="none" stroke="#000" stroke-width="2.540488"/><path d="m190.46881 1024.8313v-33.1747h13.08995l10.50344 23.5934v-23.5934h7.87197v33.1747h-12.66262l-10.77334-24.3581v24.3581z"/><path d="m227.8044 997.84171v-6.18511h8.74912v6.18511zm.13495 26.98959v-23.1211h8.52421v23.1211z"/><path d="m242.42376 1024.8313v-33.1747h8.52421v13.2699q1.10207-1.6869 3.01383-2.6315 1.91177-.9446 4.22837-.9446 4.22837 0 6.41003 2.2041 2.20415 2.2042 2.20415 6.5v14.7768h-8.52421v-11.6055q0-3.846-.7872-5.1505-.78719-1.3045-2.72145-1.3045-1.82179 0-2.8339 1.282-.98962 1.2595-.98962 3.5986v13.1799z"/><path d="m280.56903 1013.2258q0 3.9135 1.01211 5.6453 1.01211 1.7318 3.28374 1.7318 2.27162 0 3.28373-1.7093 1.0346-1.7318 1.0346-5.6678 0-3.936-1.0346-5.6678-1.01211-1.7544-3.28373-1.7544-2.24913 0-3.28374 1.7544-1.01211 1.7318-1.01211 5.6678zm-8.97403.045q0-5.8253 3.44117-8.9966 3.46366-3.1712 9.87369-3.1712 6.36504 0 9.80622 3.1712 3.46366 3.1488 3.46366 8.9966 0 5.8477-3.46366 9.019-3.44118 3.1488-9.80622 3.1488-6.41003 0-9.87369-3.1713-3.44117-3.1713-3.44117-8.9965z"/><path d="m303.06036 1024.8313v-18.1055q0-.8097-.09-2.0017-.09-1.1921-.2699-3.0139h8.65916l.09 3.3062q1.0346-1.7768 3.01384-2.8114 1.97924-1.0571 4.36332-1.0571 4.22837 0 6.41002 2.2267 2.20415 2.2041 2.20415 6.4775v14.9792h-8.52421v-11.7855q0-3.846-.78719-5.1505-.7872-1.3045-2.72145-1.3045-1.8218 0-2.83391 1.282-.98962 1.2596-.98962 3.5987v13.3598z"/><path d="m357.51185 1018.8036h3.55362q3.35121 0 4.83564-.9446 1.48443-.9671 1.48443-3.1263 0-2.0017-1.52941-2.9464-1.52941-.9671-4.79066-.9671h-3.55362zm0-13.6972h3.55362q2.96886 0 4.34083-.8996 1.37197-.9222 1.37197-2.8564 0-1.84433-1.43944-2.76647-1.43945-.92215-4.27336-.92215h-3.55362zm-8.88408 19.7249v-33.1747h12.4377q7.51211 0 11.08823 2.09169 3.59861 2.0917 3.59861 6.47751 0 2.9239-1.77682 4.7906-1.75432 1.8443-5.30795 2.6765 4.09342.7422 6.07266 2.744 1.97923 1.9792 1.97923 5.3304 0 4.5432-3.23875 6.8149-3.21625 2.2491-9.73874 2.2491z"/><path d="m405.77822 1001.7102v18.1955q0 .8997.09 2.1142.09 1.192.29239 2.8114h-8.61417l-.13495-3.3737q-1.0346 1.7993-3.01384 2.8564-1.97924 1.0346-4.36332 1.0346-4.22836 0-6.43251-2.2266-2.18166-2.2267-2.18166-6.545v-14.8668h8.52421v11.6955q0 3.8685.7872 5.1955.78719 1.3045 2.72144 1.3045 1.79931 0 2.81142-1.282 1.01211-1.3045 1.01211-3.6436v-13.2699h8.50172z"/><path d="m418.5083 1017.4092v.2924q0 1.5069.69724 2.2716.69723.7647 2.0692.7647 1.282 0 2.04671-.6298.7647-.6297.7647-1.6868 0-1.5294-4.47577-2.744-.33737-.1124-.5173-.1574-5.21799-1.417-6.88235-2.9239-1.66435-1.5294-1.66435-4.2508 0-3.3512 2.8339-5.263 2.83391-1.9343 7.84947-1.9343 5.03806 0 7.73702 1.9343 2.72145 1.9342 2.72145 5.4879v.1799h-7.91695v-.2699q0-1.4844-.74221-2.2491-.71972-.7872-2.0692-.7872-1.14706 0-1.8218.5173-.67474.5173-.67474 1.372 0 1.7768 5.1955 3.1038.7647.2024 1.14705.2923 4.52076 1.1921 5.9827 2.654 1.48442 1.462 1.48442 4.2059 0 3.936-2.87889 5.8702-2.85639 1.9343-8.68165 1.9343-5.33044 0-7.98442-1.9118-2.65397-1.9342-2.65397-5.7802v-.2924z"/><path d="m443.6986 1017.4092v.2924q0 1.5069.69723 2.2716.69723.7647 2.0692.7647 1.282 0 2.04671-.6298.7647-.6297.7647-1.6868 0-1.5294-4.47577-2.744-.33737-.1124-.5173-.1574-5.21799-1.417-6.88234-2.9239-1.66436-1.5294-1.66436-4.2508 0-3.3512 2.83391-5.263 2.8339-1.9343 7.84947-1.9343 5.03805 0 7.73701 1.9343 2.72145 1.9342 2.72145 5.4879v.1799h-7.91694v-.2699q0-1.4844-.74222-2.2491-.71972-.7872-2.0692-.7872-1.14706 0-1.8218.5173-.67474.5173-.67474 1.372 0 1.7768 5.1955 3.1038.7647.2024 1.14706.2923 4.52075 1.1921 5.98269 2.654 1.48442 1.462 1.48442 4.2059 0 3.936-2.87888 5.8702-2.8564 1.9343-8.68165 1.9343-5.33045 0-7.98442-1.9118-2.65398-1.9342-2.65398-5.7802v-.2924z"/><path d="m475.97364 1014.013q-.17993 0-.53979-.023-.35986-.023-.56229-.023-2.96885 0-4.47577.8996-1.50692.8772-1.50692 2.6315 0 1.327.87717 2.1592.89965.8322 2.29411.8322 1.97924 0 2.96885-1.3495 1.01211-1.372 1.01211-4.0709 0-.4274-.0225-.6298 0-.2249-.045-.4273zm.38235 10.8183q-.0675-.5173-.13495-1.3045-.0675-.7872-.15744-1.8668-.98961 1.7768-2.94636 2.744-1.95674.9446-4.58823.9446-3.59861 0-5.78027-2.0017-2.15916-2.0018-2.15916-5.2855 0-4.0259 3.28373-6.0951 3.30622-2.0692 9.71625-2.0692.96713 0 1.46194.022.4948 0 .92214.022v-1.3269q0-1.6419-.74221-2.5416-.71973-.8996-2.04671-.8996-1.25952 0-2.06921.8547-.78719.8321-.78719 2.1816v.4049h-8.16435q.045-3.7786 2.78892-5.6229 2.76643-1.8443 8.36677-1.8443 5.91522 0 8.38927 2.0243 2.47404 2.0242 2.47404 6.9273v9.4913q0 1.7543.0675 2.9914.0675 1.2145.20242 2.2491h-8.09688z"/><path d="m490.00821 1024.8313v-18.1055q0-.8097-.09-2.0017-.09-1.1921-.26989-3.0139h8.65915l.09 3.3062q1.0346-1.7768 3.01384-2.8114 1.97923-1.0571 4.36331-1.0571 4.22837 0 6.41003 2.2267 2.20415 2.2041 2.20415 6.4775v14.9792h-8.52421v-11.7855q0-3.846-.7872-5.1505-.78719-1.3045-2.72145-1.3045-1.8218 0-2.8339 1.282-.98962 1.2596-.98962 3.5987v13.3598z"/><path d="m566.11883 1014.1479v.3149q0 5.1055-4.04843 8.0069-4.02595 2.8789-11.20068 2.8789-7.75951 0-12.01037-4.2958-4.25086-4.3184-4.25086-12.1678 0-8.6592 4.31834-13.17996 4.31833-4.54325 12.55015-4.54325 6.83737 0 10.52594 2.78893 3.71107 2.78892 3.93598 8.11938h-9.40137q-.13495-2.0692-1.64187-3.26126-1.48442-1.19204-3.93598-1.19204-3.3512 0-5.08304 2.7889-1.73183 2.7889-1.73183 8.2543 0 5.0606 1.73183 7.6246 1.75433 2.564 5.17301 2.564 2.47404 0 3.95847-1.237 1.48443-1.2595 1.61938-3.4637z"/><path d="m578.80397 1013.2258q0 3.9135 1.01211 5.6453 1.01211 1.7318 3.28373 1.7318 2.27162 0 3.28373-1.7093 1.0346-1.7318 1.0346-5.6678 0-3.936-1.0346-5.6678-1.01211-1.7544-3.28373-1.7544-2.24913 0-3.28373 1.7544-1.01211 1.7318-1.01211 5.6678zm-8.97404.045q0-5.8253 3.44117-8.9966 3.46367-3.1712 9.87369-3.1712 6.36505 0 9.80622 3.1712 3.46366 3.1488 3.46366 8.9966 0 5.8477-3.46366 9.019-3.44117 3.1488-9.80622 3.1488-6.41002 0-9.87369-3.1713-3.44117-3.1713-3.44117-8.9965z"/><path d="m601.85757 1024.8313v-6.8599h8.05189v6.8599z"/><path d="m615.30738 1030.3642 2.99134-12.3028h8.5692l-5.35294 12.3028z"/><path d="m646.8627 1024.8313v-33.1747h9.17646v26.7647h14.73181v6.41z"/><path d="m690.27093 1024.8313q-1.61937.2249-3.08131.3374-1.43944.1124-2.67647.1124-4.07093 0-6.02767-1.6193-1.93426-1.6194-1.93426-4.9931v-11.4256h-4.31833v-5.5329h4.31833v-3.59859l8.34428-3.48616v7.08475h5.37543v5.5329h-5.51037v9.7612q0 1.417.71972 2.0242.71972.6073 2.40657.6073.35986 0 1.19204-.067.85467-.067 1.19204-.09v5.3529z"/><path d="m702.59617 1013.1808q0 3.5761 1.01211 5.3079 1.0346 1.7319 3.14879 1.7319 1.93425 0 3.08131-1.8668 1.14706-1.8893 1.14706-5.173 0-3.3512-1.16955-5.1955-1.16955-1.8443-3.26124-1.8443-1.93426 0-2.94637 1.7993-1.01211 1.7768-1.01211 5.2405zm8.5692 11.6505-.09-3.0363q-1.5519 1.8443-3.44117 2.7214-1.86678.8772-4.34083.8772-4.58823 0-7.10725-3.1713-2.51903-3.1938-2.51903-8.9515 0-5.8703 2.56401-8.9966 2.5865-3.1263 7.42213-3.1263 2.22665 0 4.07093.8322 1.84429.8322 3.08131 2.3616v-12.6851h8.52422v27.7768q0 1.0346.09 2.429.09 1.372.2699 2.9689h-8.52421z"/><path d="m725.6498 1024.8313v-6.8599h8.0519v6.8599z"/></g></svg>