<svg height="164.81267" viewBox="0 0 600.25662 115.36887" width="857.50946" xmlns="http://www.w3.org/2000/svg"><g transform="translate(.1724 -17.974143)"><text fill="#ef00eb" font-family="TrasksHand" font-size="1.4" stroke="#0105ff" stroke-width="1.75" x="137.13876" y="108.56167"><tspan fill="#fafafa" fill-opacity=".4" font-size="1.4" stroke="none" stroke-width="1.75" x="137.13876" y="108.56167">John Loreth 2022</tspan></text><g style="stroke-width:.999479;fill:#3c3b3c;stroke:#c2020e;stroke-linecap:square;stroke-linejoin:round;stroke-opacity:.985214" transform="matrix(1 0 0 1.0010421 0 -.021338)"><path d="m597.48525 116.38822-595.158754.04678" stroke-width="4.9974"/><path d="m1.5329405 110.50701h596.8790595" stroke-width="2.99844"/><path d="m598.94301 105.28081h-598.01225021" stroke-width="1.99896"/><path d="m599.33462 98.115589h-598.58460302" stroke-width="1.49922"/><path d="m597.48525 20.522424-595.158754-.04678" stroke-width="4.9974"/><path d="m1.5329405 26.403639h596.8790595" stroke-width="2.99844"/><path d="m598.94301 31.629839h-598.01225021" stroke-width="1.99896"/><path d="m599.33462 38.795059h-598.58460302" stroke-width="1.49922"/></g><path d="m401.56927 92.208799-.47619.124926.59523.37478c.11906.499707.23811.999413.23811 1.249267 0 .249853-.11905.74956-.4762 1.374193h.83334v.499707l.11905.249853-.23809 1.249266c0 .249853.11904.874487.47618 1.499119h.9524l.2381.499706h-.4762l-.23809.249853.59524.874491v.24985l.71428.24985.83334-.24985.4762.37478-.83334.24986c1.19048.9994 1.66668 1.12433 2.85716 1.24926l-.23809.37478 3.92859.12492.35715-.74956.35714.12493c.23811 0 .4762-.12493.83334-.37478h1.30954c.11905-.87449.23809-1.12434 1.07143-1.12434v.49971c.4762-.24986.4762-.24986 1.54763-1.12434l1.42857-.999414v-.624632c.59525 0 .83335-.124928 1.30956-.624633l2.38097-2.123753c1.90476-1.624046 3.21428-2.748386 3.57144-3.248093l5.71432-6.246332 3.6905-3.123166c1.42859-1.249266 1.66669-1.8739 1.66669-3.123166v-.74956h-.4762l-.71429.874486c-4.64289 4.622287-5.95242 5.871553-9.76197 8.619939-3.9286 2.873313-6.42863 4.122579-8.45244 4.122579-2.02382 0-3.6905-1.998826-4.16669-4.997065l-.11906-.999414.2381-4.372433-.35714-.624632.11904-.499708h.4762l-.11905-.374779.35715-.499707-.59524-.124927-.2381-.499706.2381-.499707.71428.249853-.23809-.374779.71429-2.373606h.59524c.95239 0 1.90478-.374781 3.33335-1.374194 2.02384-1.374193 2.73812-1.748973 4.6429-2.123753.23809-.374779.47619-.499707 1.19048-.499707l1.42858-.999413 3.09527-1.249266 2.02381-1.8739 1.78572-.624633v-.874486l.7143.249853c.59524-.624634.83334-.749561 1.66667-.999414-.95238-.499707-.71429-.74956-.47618-.999413l1.54762-.249853.9524-1.249267.95238-.499706.2381-.874487c.59524-.124926.59524-.124926 1.07144-1.124339l.47619-.999414-.11905-.249853c.11905-.37478.2381-.37478.59524-.37478l.47619-1.12434.59524-1.374192.4762-1.374193-.35714-.499706.47618-.249853-.23809-.999415h.23809l.11905-.874485c0-3.248094-2.50001-5.99648-5.47621-5.99648-1.54765 0-5.47624 1.49912-7.61911 2.873313l-2.85717 1.998826-3.4524 2.498534-2.02382 1.873899-.59524.124927c-3.21432 2.998238-3.33336 2.998238-4.52384 3.747798l-.83334 1.12434-3.45242 3.622873-1.54763 2.123753-1.90476 2.498532c-1.19048 1.624047-2.26193 3.7478-2.73811 5.6217h-.35716c-.23808.74956-.35714 1.249266-.47618 1.49912l-.4762.874487.11905.999413-.47619 1.12434c-.83335.749559-1.54764 2.998239-1.54764 4.247505 0 .249853 0 .624634.2381 1.249267h-.2381c-.11905.624633-.11905.999413-.47619 1.49912l.35714.249853c-.35714 1.12434-.47619 1.624047-.47619 2.498533v.874487c.35715.37478.71428.624633.59524 1.374193zm12.97628-17.739584.35715-.624634.71429-.124926-.35714-.874487.11904-.37478h.4762l.2381-.124926v-.499707c-.7143 0-1.07144.124926-1.54764.37478.35715-.74956.59525-.874486 1.66668-.874486.71429-1.8739 1.07144-2.248681 2.14286-4.49736.35715-.249853.59525-.37478.83335-.999413h.71429c.11906-.37478.2381-.499706.59525-.624634-.59525 0-.71429-.124926-.95239-.624632l.35714-.374781.35716.124928.83333-.874487c.83333-1.374194 1.78573-1.748973 2.02382-2.498534.95239-.499706 1.07144-.874486 1.19048-1.624046l3.09527-2.123752-.23811-.249853-.23809.249853-.4762-.249853.83334-.249853c.4762-.499707.9524-.74956 1.30955-.74956 1.42857 0 2.7381 1.998826 2.7381 4.247504 0 2.873313-1.66668 5.746626-4.76193 8.744866-2.73811 2.62346-5.59528 3.872726-12.0239 5.496773zm-33.47524 13.492078.23809-1.748973-.47619-1.249266.83334-2.873313v-2.62346l.95238-1.624047-.11905-.874487.7143-.999413.11904-.624633-.11904-.74956.59525-.249853.23809-2.373607.59524-.124926.71429-.874487-.11905-.874487.2381-.124926.35714-1.249266h.35715c.11905-.74956.2381-.999413.83333-1.374193h.35716v-.374781l-.35716-.124926.7143-1.499119h.47619l-.47619-.874487.95238-.74956 1.42859-2.123753 1.42858-1.8739.59524-.999413.23809-.124926.59525.124926c.83334 1.998826 1.07143 3.373019 1.07143 6.121406l-.11904 2.373606-.47619 2.498533c0 .374779.35714 1.12434.83334 1.8739v.374779h.47618c.83334-.999413 1.30954-1.249266 2.02383-1.249266l1.78573-2.248679 2.02383-2.123753 1.30952-.74956.59524-1.249266.7143-.499708.59524-1.374192h.95239c.35714-1.124341.59523-1.249267 1.54762-1.249267v-.37478h-.2381l.11905-.249853.4762-.374781-1.19049-.749559 1.30954-1.374192-1.54763-.124927.95238-.74956.71429-.124927v-.624632l-.95238.374779v-.874486l.83334-.124927-.11905-1.624047h-.59525l-.11904-.624632.4762-.874487-1.07145-.249854.23811-.624633v-.499707c-.83334-.749559-1.07145-.999413-1.54763-1.998826l-.35716-.249853c-1.19048-1.12434-1.78572-1.374193-3.33335-1.374193-1.19049 0-1.78572.249853-2.61907 1.374193l-.71428.124927-.4762.874486-1.54763.74956-1.66666 1.748974-4.4048 3.622872-1.30954 1.49912-2.97621 2.623458c-2.61906 2.498533-5.23813 5.871552-9.04768 11.743105-1.54764 2.62346-1.78573 2.873313-3.45241 6.496186l-.59523 1.12434-.83334 3.123166-1.07145 4.247506-.47618 4.372433-.11905 1.748973c0 1.748973.23809 2.998239.35714 3.497946l.4762.874486.23809 1.374193.47619 1.624043 1.07144.99942 1.19048.4997.83334.99941 1.66667.37478c2.38098 0 4.881-1.12434 7.50007-3.49794l3.2143-2.873312 2.02383-1.624047 5.23814-5.621698 1.90476-1.8739 1.90477-2.123754 2.50002-2.998239.35714-.874486-.35714-.124928.83334-.749559-.35716-.37478-.95238.874486c-3.80954 4.12258-7.26195 7.120819-9.88101 8.744866-2.73811 1.624047-4.28574 2.248679-5.47622 2.248679-.47621 0-.83335-.124926-1.30955-.749559-1.07143-1.624047-1.42857-2.62346-1.42857-3.872726zm-25.60843-9.369499.35715-.74956.83333.249854v-.624634h-.47619v-.374779l-1.07144-.124928-.23809-.499706.7143-.124926.11904-.999414.95238-.249853.95241.37478-.2381-.499707c.95238 0 1.07143-.124927.59523-1.12434l.35715-.499706-.71428-.124926-.35715.499706h-.23811c.4762-.874487.95239-1.49912 1.42859-1.49912l.59524.249853.95239-1.124339.23809-.874487.11905-.374781-1.30953.124928c.11905-.999413.35715-1.124341 1.54763-1.124341l.59524-1.249266.4762-1.249266c-.35715-.874487-.11906-.74956 1.07143-3.248093l1.19048-.624633v-.499707l-1.42857.124927v-.499707h.59523c1.07144 0 1.30953-.249853 1.54763-1.374193h.35714l.2381-1.374193.9524-1.249266.23809-1.249266h.2381l.11904-.37478.23811-.124927.47619-.999413 1.07144-1.374193.23809-1.374193 1.42858-2.99824c.2381-.249853.2381-.624633.2381-.874487 0-.374779-.35715-.749559-.83334-.749559l-.83334-.124927-1.07143.499707-1.19048.249853-.83335.37478-1.19048.74956-1.07144.624633-1.42859.874487-1.66667.874486-1.66668 1.624046c-.83334 1.624047-1.90478 1.8739-2.50002 2.873313l-1.54762 2.623459-.83334 1.8739-1.42858 2.373606-.71429 1.748973-.95239 1.12434-6.19052 12.617591c-1.07143 1.998827-1.90477 4.247507-2.38097 6.246334l-.35714.374779-.35715 1.249266c-.2381.999413-.35714 1.249268-1.19049 1.998827l.2381 1.873899-.4762.999414c-.35715.37478 0 .874486.2381 1.124339-.83334.124927-.95239.249854-.95239.999413l-.11904 1.624047.11904.124927v1.374193l.2381.249854c-.47619.74956 0 1.249266.35715 1.748972.71429 1.873896 1.42858 2.748386 2.14287 2.248676v.37479l1.42859.49969 1.19048.62464c.23809-.24985.4762-.62464.95238-.24985l-.2381.62463.83334.24985.4762-1.37419.47619.24986c.11905-.62463.23809-.74957 1.19048-1.12434.9524-.24986 2.14289-.999417 3.45241-2.123756l3.45241-2.873312 5.23813-4.247507 2.38096-2.623459 4.76194-4.372433.83334-1.624046-.71428-.124927-2.85718 2.498533c-2.9762 2.873313-2.50001 2.498534-4.28573 3.622873l-5.35718 3.622872c-.4762.374781-1.42858.624634-1.90478.624634-.95238 0-1.30952-.499707-1.54763-2.373606l.4762-.124928-.4762-.874485.71429-.874487-.35714-.74956.59523-.249853-.23809-1.374194.11905-1.249266.83334.124927.35715-.999414-.59524-.374779.35714-.499707h.71428l.59525-1.748974-.59525.499708-1.30952.74956-.35715-.374781.23811-.249853h.23808l.11906-.499706h.83334l.11904-.624634 1.30953-.249853-.23809-.74956.59524-.874486zm.35715-1.998826 1.90478.374779-.11904-.624632c-.59526-.499708-.83336-.624634-1.4286-.624634zm10.95245-37.60292.11906-.374781.71428-.374779c.7143 0 1.07145-.249853 1.42859-.74956.59524.37478.83334.37478 1.42858.37478h.83334l.35714-.874487h1.19048c.35715-.624633.47619-.74956.83333-.999413l2.02384-.499707.95238.124927v-.624633l.9524-.124927c.47618-1.12434.59524-1.49912.71429-2.623459l.23809-.124927.83334-.624633-.23809-.499707.35714-.499707h-.59525c-.35714-.124926-.35714-.74956.11905-.74956h.9524c0-.624632.11904-.874486.59523-1.249266v-.74956l.35715-.124927c0-.74956.11904-1.124339.95238-3.123166l.35715-.999413c-.47619-.874486-.7143-.999413-1.78573-.999413v-.249853h-.71429l-1.54762.499706-1.07144.374781-.71428.249853-.35716.624632-.59524-.374779c-.35714.74956-.95239.874486-1.42857.874486l-.47621.249853-.11904 1.249267-.83335-.499706c-.35713 0-.95238.624633-1.42857 1.624046l-2.50001 3.747799-1.66668 3.37302-.47619 1.624047.47619 1.374193h-.71429l-.11905 1.374192c0 .249854.23809.624634.59523.374781zm-22.82359 25.360109.23808-.249855.47619-1.124339-.35713-1.374193.35713-1.49912-.59523-1.998825.59523-2.498533-.11904-.499707h-.23809c0-.999413-.11906-1.374193-.59525-1.998826l.23811-1.49912h-.4762l-.11905.249853h-.23809c-.47621-1.249266-.59525-1.624046-.7143-2.998239l-.59526.124926-.23808-.249853-.2381.124927v-.74956l-1.07144-.37478-1.42858-.624633-.47619.124926.11904.624634h-.59523c-.11906-.624634-.23811-.874487-.9524-1.12434l-.23809.749559-.59524.124927c-2.14287.124927-2.14287.124927-2.97622.624633l-.95238.74956-2.14287 1.748974-2.38097 2.748385-1.30954 1.249267-2.38097 1.8739-2.85716 3.373018-5.11908 5.746626c-5.35717 5.996479-8.92863 15.740758-8.92863 24.485623 0 3.872727 1.07142 8.370084 2.38098 10.119058 1.42858 1.8739 2.9762 2.87331 4.40478 2.87331 1.19048 0 2.02381-.24985 4.40479-1.24926v-.37478l.83334-.12493.35714-.99941 2.73812-1.374197.47619-.74956 4.4048-4.497357 1.66667-1.8739c.2381-.499707.35715-.624634.83334-.624634l1.66668-2.248679.35714.124926.35715-.374779c0-.499707.11905-.624634.47619-1.124341l.23811.249854.35714-.124926c.95239-1.998828 1.19049-2.373607 3.21432-3.997654l-.23811-.874486h.59524l.2381-.249854v-.374779l1.78572-2.62346c-.23809-.37478-.35714-.749561-.35714-.999414 0-.374779.23809-.499706 1.66668-1.249266l.47619-1.249266 1.07144-2.62346.11905-1.12434 1.19049-2.748386.23808-1.249266.23811.249853.11905-.624634-.35716-.124926v-.624633l.47621-.374781-.11905-1.124339h.23809zm-14.40488-7.120819c.4762-.249853 1.30954.124926 1.54763.37478 1.78572 2.248679 3.33337 7.995305 3.33337 11.992957 0 4.372433-2.26193 12.367739-5.23814 17.989437-1.78572 3.622874-5.35719 6.870966-7.50005 6.870966-1.19048 0-1.90477-.999413-2.26193-2.998239-1.19048-.37478-1.42856-.624633-1.30952-1.998827l.59524.249853c-.4762-.999413-.59524-1.374192-.59524-2.373606-.95239-.249853-.71429-.499707-.2381-.874486v-1.624047c-.59524-.124927-.71429-.249853-.71429-.499706 0-.37478.2381-.624634.47619-.624634.11906 0 .2381 0 .35716.249854l.35714-.499707-.11906-.374779-.59524-.374781v-.374779l.95239-.624634v-.874487c0-.499706.2381-1.624045.71429-2.748385.11904-.249854.23811-.74956.4762-1.249267h-.35716l-.35714-1.249267c.83334-.249853 1.30955-.624633 1.30955-.874486l-.47621-.74956h-.4762l-.23808-.999414h.47619l.7143.499708.47618-.124927c0-1.374194.11905-1.624047 1.07143-2.498533l-.59523-.249853v-.499708h.23809l.11905-.749559h.71429l-.35715-1.249267h.4762l.23808-.249853h-.71428l-.2381-.374779v-.499708l.4762.124927.2381-.749559.47619.499706.71429-.124927.11904-.874486.35715-.249853-.11904-.624634-.35715.624634-.2381-.874487c.2381-.249853.47619-.499707 1.07143-.374779.2381-.499708.7143-2.248681 2.14289-3.373021l.11904-1.499119.95239 1.12434c.23809-.249854.4762-.499707.23809-.999413.47621-.374781.59525-.624634.71429-1.374194l.4762.624634zm-31.46459 23.860989.83335-1.624046.35714-.124927.2381-.499707-.4762-.249853v-.499706l.4762-.124928.83334-1.374192c-.4762-.624634.23809-1.374193.83333-2.123753l1.42858-3.37302-.11905-1.374193h.23811l.11904-.624634.83334-.124926c-.11905-.37478-.11905-.499706-.59524-.749559l1.19049-.624634-.11906-.874487.83334-1.624046h.47621l.11904-.999414-.47619-.749559c.35715-.74956.47619-.999413 1.30953-1.12434-.11904-.624633 0-.999413.35714-1.249267l-.35714-.374779.95238-2.623459-.83334-.124927.4762-1.49912-.35714-1.8739-.11906-1.624045-.71428-.124927.35714-.874487c-.11905-.37478-.71428-.624633-1.07143-.499707l-.11906-.374779-.71428-.249853.11905-.499707-1.66668-.249853c-1.78572 0-6.54766 2.498532-8.8096 4.747212l-2.9762 2.873313c-3.09525 2.873312-4.1667 3.747798-4.6429 3.997652l-.83333.124927v-.624634l.59524-.124927c-.35715-.249853-.83333-.74956-.59524-1.124339l.47619.124926.71429-.374779v-1.374194l.9524-.749558v-.624634l.95238.249853v-.624632c-.47619-.74956-.2381-1.124341-.11904-1.374194l.35715-.874487-.35715-.74956h.47619l.11905-.499706.83333.124927.11906-.999413c1.42858-.124927.35713-.999414.35713-1.249267s.59525-.74956 1.42859-1.249266h-1.30953v-.37478c2.26191-.499707.95239-1.748974 1.19048-3.37302l1.30953.249854c.2381 0 .47619-.124927.59524-.37478l-1.07143-.499707.35714-.124927v-.374779l-.35714-1.124341 1.66668-.249853c0-.874487.23809-1.12434.95238-1.624047-4.76194-1.249266-1.19049-1.499119-.59524-1.748972v-.374781l-.83334-.249853v-.74956l1.30954-.249853.23808-.249853 1.07145.124927.11904-.37478-1.30953-1.124341.83335-.374779.83334-.37478.95239-2.373607.11904-.74956h-.47619l-.35715-.374779.83334-.624634 1.54763-3.373019h.95239l.35714-.999413v-.999413l.47619-.999413.83334-.874487c0-.499706.11905-.74956.47619-1.249266l-.35714-1.249268.95239-.499706.47619-2.498533-.95239-.624633-.35714.37478-.83334-.124927-.35714.124927-1.19049.249853-1.07144.624634-.95238.999413-.59525-.74956-1.07142.499707-2.02383 1.124339h-.35715l-1.19048 1.374193v.874487c-1.19048.499707-1.42859.74956-2.14287 1.998826l-.59525 2.248681-1.07142 1.998826-.47621 1.374193-.71428.624633v1.249266l-1.19049.999414-.59525 1.49912c-1.19048 2.248679-1.30953 2.498532-1.66668 2.748385l.11905.374781-.95239 1.748972-.59523 1.49912c-.83333.74956-1.30954 1.499121-1.30954 2.123753l.2381.624634-.71429.249853-.47619 1.249266c-.59524 1.49912-.59524 1.374194-.7143 2.24868l-1.90477 3.747799-.4762.624634-.35714 1.624046v.499707c-.59525.37478-.83335.74956-1.07143 2.123752l-.35716 1.249267-2.61905 5.121992-1.19048 2.748386-1.19049 2.123753-.4762 1.374193-1.30953 2.498533-1.90478 4.747213-.59524.999413.11905.499706c-1.19048 1.624047-1.42858 2.24868-1.66668 3.997653-.71428.624634-.71428.499707-1.07143 1.998826l-.83333 1.8739-.11906 1.249268-.83335.999413-1.66667 3.622872c-1.07143 3.497946-1.19049 3.747799-2.14287 4.622286l.23809.499706-.83333.374781.59524.124926-.11905.874486-.59524.874486-.2381 1.624047.11905.99942-.2381.12492v.62463l.2381.24985.11905-.62463.47619.37478.71429.37479 1.19048-.74957.7143.12493c1.19048 0 1.42857-1.12434 1.66667-1.37419.95239.62463 2.26193-1.24927 3.69051-1.24927l1.42857-1.748974.59525-1.499118 1.07144-.124926v-.374781h.71428l.9524-.749559.47619-1.49912h-.7143l.11905-.749561-.2381-.374779c.59525-2.123753.9524-2.498534 2.26193-2.498534l-.11904-1.374192h.35714c.83334-.624634 1.07143-.74956 2.14287-.74956l-.11904-.499706-1.19049-.499708c.23809-1.124339.35715-1.249266 1.42858-1.998826.23809-.249853.59523-.499706.23809-.999413l.2381-1.249266c1.66668-.999413.71428-1.998827 2.26192-3.123166l.47618-1.12434h.59525l.11905-.374781.59526-.124926v-.37478l-1.66669-.499707.71428-1.374192.83335.249853c.35714 0 .95239-.499706 1.66669-1.12434-2.85719-1.374194-2.85719-1.748973-.95239-1.748973l.35714-.874487 1.54763.124926.11904-.249853c-.47619-.374779-.59524-.499706-1.30953-.499706l.83334-2.373607.11905-.374779.71429-.249853.47619.124926c-.35714-.74956-.11904-1.624046.35714-1.873899h.4762l.95239-1.249268 1.90477-1.873898 2.97623-2.998241c1.19048-1.249266 2.02381-1.748972 3.80953-2.373606.59524.874487.7143 1.624047.7143 2.24868 0 2.623459-.83334 5.871552-2.85717 10.243985l-7.02386 16.365392c-.71428-.124928-.35714.999413-.59523 1.124339l-.23811.874487.11906.624632-.83334 1.624047-.35715 3.123166-.35714 1.998827c0 3.248095 1.66668 6.621115 3.33335 6.621115l.71429-.12494 2.50002-.62463c.71429-.37477 1.66668-1.12433 2.61906-2.12375l5.83338-6.496182 6.78576-6.246332c.95239-.874487 1.90478-1.998826 3.09526-3.7478 1.07144-.499706 1.19049-.74956 1.78573-3.123166l-.71429.124927c-1.07144.74956-1.30953.999413-1.66667 1.8739l-1.66668 1.124339-3.45242 3.622874-1.66667 1.624045-2.61906 2.248681c-.2381.249853-.59525.374779-.95239.374779-.71431 0-.95239-.374779-.95239-1.249266s.23808-1.12434 1.07143-1.12434l.11906-1.374193-.59526-.499706v-.249853l.7143-.374781.35715-2.373606.59523-1.374194c0-.624632.47621-.999413 1.30955-1.249266zm-55.49618 12.367738-1.19049.124926-1.54762.124927-1.90479-.499706-1.66667.499706-.95238-.999413-1.78574-.874486c-2.61906-1.374194-4.52384-5.746626-4.52384-10.618765l.11905-2.62346.83335-5.6217-.2381-1.873899.71429-.37478.47619-2.748386.83334-1.374193.47619-1.49912 2.02382-3.622872 2.73812-5.371846 1.30954-1.374193 2.14286-3.497946 1.66667-1.624046 1.78574-2.24868 3.21431-3.872726 2.14286-2.373606c1.19049-.874487 1.30954-.874487 1.42859-1.8739l2.26193-1.998826 1.66667-1.249267 2.73812-1.998826.59523.249853.95239.74956c1.1905 1.12434 1.78573 3.248093 1.78573 6.246332 0 5.746626-2.14287 12.867445-5.47623 17.86451l-3.80954 5.871552-.35716.74956.59525 1.374193 1.07144-.499706 1.42858-.999413 1.07143-.374781 2.26192-2.248679 1.19048-.249853c1.54764-1.374194 1.90478-1.49912 2.85717-1.49912.9524 0 1.19049-.624633 2.50001-1.624046l1.54763-1.499119 1.90478-1.374193.7143-1.8739.95238-.74956.11905-.624634 1.07144-.499706v-.499707l-.71429-.499706.11905-.499707h.47619c0-1.499119.11905-1.873899 1.30953-2.623459l.59524-1.8739.2381-.999413-.83334.624633.2381-1.249267 1.30953.124927-.2381-.749559h.95238v-.499707h-.59523l-.11905-.999413.59523-1.249267-.95238-.249854v-.374779c.95238 0 .83334 0 1.42858-.499706l.4762-2.373607-.59524-.124927-.23811.124927.35715.624633h-.71428l-.7143-.249853.35715-.999413.95239.249853.59524-1.748973-.11906-.249853-.71429.124926.35715-.874486-.11904-1.374193-.35716-.249854v-.624633c0-3.997652-4.88097-8.619939-8.92863-8.619939-.71429 0-1.30952.124927-1.90476.37478l-2.97621 1.49912-.9524.249853-1.66667.874487-.11906.499706c-2.26191.624634-6.07147 2.498533-8.21434 4.12258l-3.45239 2.498533-1.78573 1.49912-7.1429 5.371845-.83334.999413-2.73812 2.62346-5.23813 6.371259c-2.85718 3.7478-4.28575 5.99648-5.11909 7.995305l-1.54762 3.373019-.9524 1.249266-.95238 2.99824-1.54763 4.49736-.23811 1.374192-.35714.874487-.11905 1.624047-.59523 2.248679c-.4762 1.374194.59523 2.123753-.35716 2.99824l.11905 2.748386h.47619c.83334 1.374193-.11904 1.249266-.71428 1.748974l.23809 2.248679v.999413l.95239.374781.11905.374779-.71429.499706v.74956l.59524.624634-.11905.874487c0 1.374192 2.38098 5.621698 4.28575 7.745451 2.50001 2.623453 4.64288 3.872733 7.97624 4.622293l2.26192.37477 2.73812-.12493 1.07143.24986 4.6429-2.87331 1.30952-.24986v-.37477l1.66669-.99942.83334-1.374193 2.38097-1.124339 1.66667-1.998826.71429.124926.2381-.124926v-.624634l1.42857-1.624047 2.38098-1.499119.83334-1.374194 3.57145-3.747798.4762-1.124341 1.90477-1.624046.35715-.874486.83334-.624634.4762-1.12434 1.07142-1.249266.47621-1.249266.71427-.999413c-.95238.249853-1.19048.374779-2.50001 2.123753l-3.4524 2.873313-2.02383 2.248679-.71429.499706-1.07144.874487-1.90476 1.8739-2.02383 1.249267-1.07144.249853-1.42858 1.12434-1.66668 1.374192zm284.71233-13.866858.11937-1.374193.47742-1.748973c0-.124926 0-.124926 0-.249853 0-.499707-.23871-.74956-.83549-.999413l.59678-.249854.23871-.874487.47743-.124926.23873-2.373606c.23871-1.12434.35807-1.499121.47742-2.62346 0-.249853.35808-.874487.8355-1.499119l-.35807-.624634.59678-.74956v-.749559h.35807c.8355-1.499121.95486-1.998827.95486-3.497947l1.79035-2.373606c-.47742-.499707-.71614-.74956-.71614-.874486 0-.249854.47744-.624633 1.19357-.874486.71614-.74956.8355-.999413 1.07422-1.748973l.35807-.124927.59678-.999413.71614-1.748973 1.19358-1.624047.35807-1.12434.59678-.249853v-.74956c0-.624633.11937-.874487.71615-1.12434l-.11936-.999413h.11936c3.81942-3.997652 2.74521-4.747213 3.93878-5.246919.23871-1.249267.35807-1.624046 1.19357-2.373607l.71614-1.249266c1.31294-1.8739 1.43229-1.8739 3.22264-1.8739 3.70007 0 6.92271 5.496773 6.92271 11.992958 0 5.871553-.2387 6.995894-1.79036 13.117298-.83549 2.99824-1.43228 4.997066-1.67099 5.621699l-1.07422 2.24868-1.43228 3.622872-3.70006 6.121407-1.90972 3.123166-2.98392 3.497945-3.70007 3.622873c-2.62587 2.123753-4.17751 2.873313-5.72915 2.873313-1.31292 0-2.86457-1.374192-3.342-2.998239l-.23871-1.499119-.59679-2.498534.11935-1.12434c-.83549-1.49912-.59678-1.998826 0-4.622286zm37.59749-47.472125.11936-.499707-.47743-.499706-2.14842-2.873313c-.83551-1.249267-1.90972-1.748973-3.93879-2.123753l-.23872.249853c-.47743-.499707-.95485-.74956-1.19356-.74956-.23872 0-.47744 0-.59679 0l-2.86458.249853-1.31292.499707-1.07422.499706-2.38714 1.499121-2.7452 1.873899-2.02908 2.24868-2.86457 2.123753-.95485.999413-2.86457 2.62346-2.74522 3.123166-1.671 1.8739-3.70006 5.121992-1.43229 1.624047-1.31293 1.998826-3.342 5.121992c-.95485 1.374193-1.43227 2.248679-1.90971 3.997652-1.55164 2.24868-1.67101 2.498533-1.79036 4.372433l-.71614.999413-1.79035 4.622286c-.59679 1.249267-.59679 1.624046-.59679 2.873313-1.19356 3.248093-1.19356 4.247506-2.02907 8.370086v2.873313l-.23871.74956-.23872 1.249266.23872 2.123753.23871 2.873313c.71614.249853.83551.374779.83551 1.249266l-.59679-.249853c.11935.999413.11935 1.374193.71614 1.998826l-.11935.624634c1.0742 2.498531 1.55163 3.373018 2.26777 4.247508 1.31293 1.62404 3.58072 3.24809 4.53557 3.24809l.59679-.49971.23871.49971.95486.12492.35808-.37478.71613.12493.47743-.12493.35807-.37477c1.07421-.24986 1.31293-.49971 3.46136-1.99883l.95486-.24985c.59679-1.124344.59679-1.124344 2.50649-2.748388.95486-.74956 1.671-1.499121 3.342-3.497947h.47743l.23871-1.12434.35808-.249853.47742.124927c1.31294-2.123753 2.14844-2.99824 3.10329-3.7478l2.26778-1.49912c.11936-.124927.47743-.499706 2.14843-2.373606 1.55165-.499707 3.58072-2.248679 4.53557-3.997653.59678-.874486.71614-.999413 1.43229-1.124339 0-1.12434.2387-1.499121 1.55163-2.123753l1.31294-1.998826.47743.249853.23871-.749561h.23871l.35808-.74956.35807-1.124339 1.19357-1.8739c2.02907-1.374193 2.14842-2.748387 3.10327-3.497946l.23872-.74956h.47743l-.35808-.37478.11936-.499707.47743-.124926.47743-.624634.59678-1.249266.23873-.874487c0-.124926-.11937-.499706-.23873-.874486l.83551-.624633c-.23871-.999414-.11936-1.374194 1.55164-4.372432l.95485-2.998239-.59678.374779c1.19357-1.748972 1.31293-2.123753 1.671-5.746625.11935-.999414.23872-1.748973.47742-2.24868.23872-.249853.23872-.624633.23872-.74956l-.11935-.624633.23871-.249853-.11936-.74956.35807-1.624047-.35807-4.122579.11936-.624634c-.23871-1.124339-.35808-1.499119-.8355-2.623459 0-.999413-.23871-1.374193-.35807-2.498533l-.59678-1.249266zm-62.71285 34.354827 1.79035-.37478.23872-.249853v-.124927c1.43228-1.124339 1.79035-1.49912 2.26779-2.748386l-1.19357-.624633-1.31294.749559.23872-.999413c.59678-.374779.8355-.499706 1.31292-1.374193l.71616.249853.95485-.499706h.59679l.59678-.74956.23872-.624633-.35807-.37478v-.874486l-.95486.499706-.71614-.374779c.47743-.874487.8355-1.12434 1.55164-1.12434v.624634h.71614c.35807-.999413.23871-1.124341.83549-1.998826l-.11935-.999415h-.35807l-.11936-1.249266c1.19357.124927 1.31293-.124926 2.86457-3.622872 1.671-2.498533 1.43228-1.624047 2.14842-2.123754v-.499706l-1.67099-.37478-.8355.124927c.47742-.874487.95485-1.374194 1.19357-1.374194l.59678.249853 1.07421-.624632-.47742-1.249266 2.02908-1.374194.11935-1.998826.47743-.749561h.47743c.47743-1.499119.59678-1.873899 1.43228-3.123166v-.624632c1.07422-1.374194 1.19357-1.748973 1.55164-3.497947l.59678-.249853.47744-1.12434 1.0742-1.998827c.11936-.374779.23872-.874485.23872-1.249266 0-1.499119-1.43229-2.873313-3.10328-2.873313-1.19357 0-5.013 1.8739-7.51949 3.7478l-1.31294.624633-6.20657 3.7478-2.14842 1.12434-2.50649 2.123752-1.79036.74956-.71615.74956-2.5065 2.373607-1.07421 1.124339-.95486 1.12434c-.47742.624633-.59678.874487-.59678 1.374194 0 .999413.23872 1.624045.95485 3.497945l.23872-.374779.59678-.249854.8355-.874486 2.14843-1.124341 1.07422-.374779c.8355-1.12434 1.07421-1.249267 2.26778-1.49912v-.37478l1.19357-.124927.23871-.374779c.23872.249853.47744.374779.59679.374779l.71615-.374779v-.624634l.95485-.124926-.47743.999413.95485.499706-.35807.999413-2.02907 3.123167-16.1132 28.233421-2.38714 3.622873c.35808 1.249266-.35807.874487-1.90971 3.872726l-.47743 1.624047c-.95486.874487-1.19358 1.249266-1.55165 2.623459l-1.31292 2.123754-2.14842 4.747211-.35808 1.249268-1.55164 3.747797c-.47742.999413-.8355 1.873904-.8355 2.623454 0 .99942 1.19357 2.12376 2.26778 2.24868l2.38714-.4997c1.31293-.12493 1.79036-.37478 2.62586-1.24927 1.31293 0 2.02908-.87448 2.14843-.99941l.71614-1.249267 1.19357-.749559 1.55165-.874486.83549.499705.95486.74956-.11936.874487.95485-1.748972-.35807-.37478.23872-.874486.47743-.499708.35808-.999413.59678-.249853.59679-1.748973.71614-2.498532 1.19356-2.248681h.47744c.35806-.374779.59678-.999413.35806-1.624046.71614-.499707 1.07422-1.124339 1.07422-1.49912 0-.874487 1.90971-3.497945 2.14842-4.872139l.47743-.249853-.11936-.999413.95487-.999414-.23873-.999413.35809-.249853.23871.249853h.47743v-.374779l-.59679-.499707v-.249853c.8355-.874487 1.07422-1.249267 1.31292-2.248681.47744-.249853.59679-.499706 1.07422-1.12434.59679-.499706.95485-.874486.95485-1.124339 0-.124927-.23871-.37478-.47742-.74956l2.38714-2.623459c-.23871-1.249267-.95486-1.624047-1.55165-1.624047zm-38.46268 2.748387-.95485-.124928-1.31293.124928h-2.26778l-2.14843.374779-1.43229.124927-1.43228.124926-1.19357.249853-1.07422.124928-2.02907.624633-.35808.499707h.59679l-.83549.999413-1.19357 1.624046-1.19357 1.249267-1.55165 1.998826-.35807.999413c0 .624633 1.07422 1.12434 2.5065 1.12434h.47743l.35806-.624634.95487.874487.59678-.374779.35807.499706.71615-.624633.23872.124927h1.55163l.23872.374779 1.07422.124927.71613-1.374193.71614.999413v.624633l.8355-.874486.47743.124927.47742-.999414.71615.249853.35807-.374779.23872.874485.59679.124928.23872-.624634.47742-.124926c.59678.74956 2.26779.999413 2.26779.249853 0-.37478.11935-.624634.8355-.624634l.11935 1.748974.59678-.37478v-.999413l1.31293-.74956h.47743l-.11936.874486 1.07421-1.124339c1.19358 2.498532 1.4323 2.248679 1.67101 2.248679l.35807.124927.8355-.874487v.624634l.59679-.624634.35806.374781v.374779l1.31293-.249853.71614-1.748973h.47743l.11936.74956 1.67099.249853.47743-.249853.5968.249853v.374779h.59678l.47742-.999413.59679-1.249266-.23871-.499706.59679-.499707.2387-1.12434 1.19357-1.249266.11936-.624634.47743-.374779.8355-1.748973v-.499708l-.47742-.249853v-.624632l-1.90972-.624634h-.71614l-.23872-.249853h-1.31292l-3.70008.499706h-4.89363l-1.90972.374781zm-268.12716 32.551904.59678-1.11858-.59678-.24857v-.37286l.83549-.497148-.35807-.621432 1.07421-2.23716.11936-.870007.47744-.124287.35807-1.49144.95485-.870006.11936-.497147h-.23871v-.37286l1.19357-1.988587-.11936-.372859-.59678-.124288v-.497146l.95485-.124286.47743-1.11858h-.47743v-.497147l.71614-.124287c.71614-.994293.83549-1.367153.95486-2.23716h.23871v-.870006h-.71614c0 .372859 0 .497147-.35808.994293l-.47742-.124287c.59679-1.118579.8355-1.367153 2.38713-1.740013v-1.11858l.59679-.37286c0-.74572.59678-1.864299 2.5065-2.858592l3.93878-1.988587 1.55164-.74572 1.07421-.74572 2.26779-.74572c.23871-.124286.47743-.37286 1.19357-1.8643h-1.79035-.83551l-2.98392 1.11858-2.26779.74572-1.19356.74572-1.07421.497147v-.621433c.59678-.124287.71614-.248574 1.07421-.994294l-.23872-.248573c.47743-.870007.59679-1.11858 1.43228-1.49144v-.37286l.71615-1.615727.8355-1.367154.23871-1.242865.59678-.497147c0-.994293-.11935-1.242867.59679-1.988587l.83549-1.11858-.23871-.37286.35808-.248573v-.74572c1.67099-1.615727 1.79034-1.988587 2.38714-3.604314l1.55164-2.361446-.35807-.621433 1.07421-.994293 1.31293-3.107168 1.43228-2.361446.95485-2.610019.35807-.994294-1.43228-.621434-.71614.124287-1.43229.994294-4.65492 1.864299-1.79035 1.49144-1.07421.497147c-.71614.248573-2.02907 2.361446-5.25171 8.078633-1.79036 3.107166-2.62585 4.722894-3.22264 6.71148h-.23872l-5.25171 10.81294-1.55163 4.225746-1.55165 3.231452-2.38713 2.112874-2.38715 2.361446c-1.31292 1.242867-3.46134 2.237161-4.89363 2.237161-1.19356 0-2.62586-1.988587-2.5065-3.604313l.23872-1.367154.11936-1.615726-.47744.248573.11936.372859h-.59678l.11935-1.118579.71615.248573c.47743-.74572.59679-1.11858.59679-1.740013-.23871-.372861-.47743-.870007-.47743-1.118581l.11935-.124286h.35808l.71614-.248572c-.47743-.621434-.47743-.870007-.71614-1.740014l1.79035-1.118579c-.35807 0 .35807-1.740014-.11936-2.23716.8355-.497147 1.07421-.621434 1.671-1.615727v-.37286l-.71614-.497147v-.248573h-.23871l.23871-.497147c.95485-.124287 1.19357-.37286 1.79035-.994293l-.11935-.248573v-.74572l1.0742-.248574v-.37286h-.35806l-.11937-.37286 1.31294-.621434-.23872-.372859.71614-1.11858c1.07422-1.242866 1.07422-1.242866 1.07422-1.988586-.35808-1.367154.11936-1.118581.59679-1.118581l1.31292-1.49144.95485-1.864299c.11937-.124288.47743-.372861 1.31293-1.864301.35807-1.367153.59678-1.740012 1.55164-2.485732v-.994294c1.31293-1.242866 1.67099-1.740013 2.5065-3.604314 1.55164-2.112873 1.90972-2.98288 2.26778-4.971466-.35806-.248573-.47743-.37286-.71614-.37286s-.35807 0-.59678.124287l-.8355.497147-1.90972.870006-.95486.870006-2.86456 1.615727-3.70007 2.61002c-.8355.621434-.59679.372861-1.90971 2.112874l-2.26778 2.485733-1.90971 2.61002-3.342 4.47432-1.671 3.107166-2.14842 4.84718-1.31292 1.740013-1.07422 2.485734-.59679 2.23716-.95485 2.112872-.47743 4.10146-1.07422 1.8643-.11935 2.112873-.11936 1.615727.35807 1.615726s-.11936.248573-.23871 2.734307c.59678.248573.71614.37286.83549.994293h-.23871l-.11935.248574.71614.994293.11935.870007.71614.37286c.23872.870006.35808.994293 1.07422.994293v.372857l-.8355.87002-4.17749 3.72859c-7.75821 7.08434-12.53249 14.79012-12.53249 20.38301 0 3.10717 1.31294 5.84148 3.342 7.08434.8355.49715 1.90971.99429 4.77427.99429 1.67101 0 2.14844-.49714 3.10329-1.24287v.37288l.47743-.1243.95485-.87 2.14843-1.11858.59679-.74573.59677-.24857 1.90972-1.86429 1.19357-.62144v-.49715c.95486-.24857 1.19357-.37286 3.70007-2.48574l.11935-.86999.71614-.12429.71614-.87001 2.02909-1.49144c2.14842-1.61573 1.67099-1.98859 2.62585-2.36145l.71614-1.11858 1.79034-.99429.35808-.87001-.47743-.74572c.71614-.24857.95486-.37285.95486-1.36715l1.43228-.24857v-.87001l.8355.37286.47743-.12429-.11935-.62143 1.0742-2.36145.59679-.62143c.23872-.74572.47743-.99429 1.31292-1.36715l-.35806-1.11859h-.71614c.71614-1.49143 1.0742-1.74 2.50649-1.74l.47742-.49715-.23871-.62144.71614-.62143v-.87001zm-6.20656-10.315791.47743.248574c-.71615 3.7286-2.2678 8.327207-4.53557 12.552947l-3.81942 7.4572-1.07423 2.11288c-3.34199 5.71719-7.51947 9.57007-10.50341 9.57007-.59678 0-1.19357-.24858-2.38714-.62143v-.74572c-1.0742-1.11858-1.31292-1.61573-1.31292-3.10717 0-4.35003 1.07421-6.46291 5.72913-12.55295l.8355-1.11858-.11935-.24858 1.31292-.62142.23872-.74573 1.07421-.87 3.70006-3.480031 5.013-3.852886c.59679-.870006.47743-.74572 2.14842-1.242867l1.43228-1.615726zm-64.04963 8.451494.23871 1.242877c.23872.49714.71615.87.8355.87.95485.37286.8355 1.11858 1.07421 1.24286.59678.37286 1.43229.49715 2.14843.49715l1.19357-.62143.23871.24857c1.43228 0 1.79035-.24857 2.5065-1.24287l2.26778-1.24286.11936-.87001c1.07421-.124287 1.31293-.37286 1.9097-1.367154h.23872c1.07422-1.242866 1.31293-1.367153 2.14842-1.615726l.95486-1.8643.71615-.124287c.11936-.497146.11936-.74572.59679-1.11858l.35806.497146c.35808-1.118579.59679-1.49144 1.43228-1.864299v-.621434c.35808-.621433.83551-1.118579 1.07422-1.118579l.35807-.124288c.35807 0 .59679-.497146.8355-1.242866l-.11936 2.485733-.11935 2.23716v.74572c0 1.615727.23871 3.480027.95485 5.965764.35807 1.36715.83549 1.98858 1.55163 1.98858 1.31294 0 3.70008-.74572 4.77429-1.36715l1.55164-1.24287 1.07421-.497144.95485-1.615726 2.38715-2.112873 2.14842-2.23716 2.26779-3.107168.59678-.994293 1.19357-1.11858.95485-2.23716 2.98394-2.98288 1.19357-1.988586h-.59679l.23871-.745719-1.19357.745719-1.90971 2.23716-3.22264 3.107167-2.98392 4.598606c-.59678.621433-1.55164 1.11858-2.26778 1.11858-.83551 0-1.31294-.74572-1.31294-1.8643l.11936-4.350033v-1.615727h.23872l.47743-1.118579-.59679-1.242867c.59679-.497147.71615-.994294.71615-1.367153.23871-1.367153.47742-1.49144 1.07421-1.988587v-1.242865l.59678-1.988587.95486-1.118581v-1.864299c.8355-1.864301.8355-2.112874.8355-3.231454l.59678-.994293.95485-2.858593 1.07422-1.367154.59678-1.615726.59679-.497147.59678-1.11858.71615-1.367153.11936-.621434.47743-.74572-2.02908-.124286.59679-1.367153-1.19357.497147.11935-.74572-.47743-.497147.59679-2.23716h-.23871l-.95486-3.107167h-.23871c-1.19357-2.485734-2.38714-3.35574-4.77427-3.852887-.71615-.497146-1.07423-.621433-1.79037-.621433-2.02906 0-3.34199.497147-4.65491 1.615727l-.23872-.124286-2.86457 2.734305-6.44527 4.971467c-1.67101 1.367154-5.37108 4.971467-7.63885 7.705774-2.14843 2.610019-2.86457 3.7286-4.05814 6.214332h-.11936l-1.19357 2.23716h-.23872l-.59678.994294-.35807 1.242866-1.671 3.480027c-3.58071 10.191506-2.86457 10.067219-2.98392 11.434373l.23871.372859-.47743.621433-.23871 2.23716.83549.994293-.23871 1.367154-.35807.124286-.11936 1.118581c0 .74572.11936.994293.95486 1.367153v.37286l.11936.248574v.621433l-.35808.497146zm11.21955-15.162973-.59678-1.49144.71614-1.11858-.59678-.248574v-.621433l.35806-.372859.23872-1.8643.35807-.74572c.83549-.994293.59678-1.242866.71614-2.361446l.59678-1.49144.35808-.994293.71614-1.49144.59678-2.858594.8355-1.242866c.71614-3.231453 1.19358-4.225747 2.38715-5.592901l.71614-.994293c1.31292-2.23716 1.43228-2.361446 2.50649-3.35574l.71614-1.118579c.8355-1.242867 1.55164-1.864301 2.26778-1.864301 2.38715 0 4.53557 4.598607 4.53557 9.570073 0 1.740014-.23871 3.355741-.59678 4.84718l-3.70007 8.94864-2.26779 7.954346-7.16142 6.214333c-.71614.621434-1.31292.74572-2.50649.74572-1.19357-2.112873-1.55164-2.858593-1.55164-4.350033l.11936-1.242867h-.23871l-.23872-.870006.47743-.372861zm-37.373722-2.485733-.477428 1.242867c.238714.870006-.477428.994293-.954856 1.242866l.358071.870006-.358071.248574c.716142 1.242866 0 1.740013-.716142 2.23716.596785.994293-.119357 1.242867-.596785 1.615726l.477428.497147-.238714 1.11858-.358071 1.242867.238714.994293h.358071l.119357.497147-.954856.497147c0 .372859 0 .870006.358071 1.242866-.954856.994294.835499.74572 1.19357.870007l-1.432283.74572-.238715.621433h.477428l.238714 1.242866-.596785.372861.716142.248573-.119357.994297 1.074213.87 1.670997.12429.358068.37286-.596781.12429v-.24858h-1.670998c-.358071.62144-.119357.74572.954856 1.24287l1.193573-.12429 1.193571-.62143.95485-.24857.71614-1.11858.71614.24857.95486-.74573 2.02907-.869997v-.497147l3.34199-2.98288 3.81943-3.355739 1.671-1.864301 6.92271-6.711479 2.38713-2.23716 2.62585-3.35574 1.79036-1.988585-1.90971.994293-9.4292 8.202918-1.90971 1.367154-1.31292.870006c-2.86458 2.23716-3.46137 2.485734-5.13236 2.734307l-.23872-.870007.59679-.37286-.59679-.37286c.95486-.497147 1.07422-.745719 1.31293-1.615727l-.35807.372861-1.07421-.124287-.11936-.37286 1.31293-.870007-.11936-.870006c.95485-.497147 1.07421-.74572.95485-1.988587l.47743-.497146-1.19357-.248574c-.11935.621433-.35806.870006-.95485.74572l.59679-1.367154.47742.248574c.8355 0 1.19357-.124287 1.671-.37286v-.74572h-1.43228l.23871-.74572 1.90971-.124286-.11936-.248573-.71614.124287-.8355-.74572 1.19357-1.740014c.59678-1.242866.95486-1.49144 2.02907-1.49144l-.23871-1.242866-.8355-.124287v-.621433l-.71614.124287.11935-.497147.95486-.124287-.95486-.870006.59679-.124287v-.248574h.35807c.47743.248574.95486.497147 1.43228.248574-.95485-.248574-1.0742-1.11858-1.0742-1.8643l2.02906-.497147v-.497146h-.95486l-.59677-.248574-.59679.124286v-.621432l.8355-.248574c3.46134-.74572.95485-2.858593 2.02906-3.480026l.59679-.74572.47743.248573.35806-.37286c0-.621434.11936-.74572.71614-1.11858v-.870006l-2.98391.497146.11935-.621434c.8355-.124286 1.07422-.372859 1.31293-.994293l2.38714-.497147.11935-.372859h.47743l-.11936-.621434-.47742-.124286c-1.55165-.621434-1.07422-1.49144-.71614-1.615727l1.55163-.248574 1.07422-.497145-.59679-.124288v-.497146l.59679-.124286.11935.372859v-1.118579l-.35807.124286-.59679.621434h-.35806l.23871-.994294c0-.621434 1.43229-1.11858 1.43229-1.49144l-.47743-1.367154 1.19357-.248573.71615-.870006-1.07422.124286.35807-1.367153c1.55164-1.242867 2.74521-1.242867 2.26778-2.23716l.59679-.497147-.23871-.248573.23871-.372859-.95486.124286.8355-1.367153c.35807-1.118581-.35807-2.485734 1.90971-2.98288l1.07421-1.242867-.59679-.37286.11937-.124287v-.870007c.83549-.248573.95485-.497147 1.0742-1.49144 1.31294-1.615726 1.31294-1.740013 1.79037-2.610019l.35807-1.242867.8355-.497147-.47743-.621433.35807-.124287.47742-.994293 1.671-2.61002.47743-1.367154 1.07421-1.615726c.59678-.74572.95486-2.112873.95486-3.231453l-.11936-1.740014-.59678-.497146-1.19357.124287-1.07422.74572c-.83549 0-1.0742.124286-1.67099.497147-.47743.621432-.59678.74572-1.671.870006l-2.5065 1.367154-.95485.124286v.37286l-.95486.497147-.95485 2.112873-1.07422 1.988587-1.07421 2.734306-.8355 1.367153-3.22264 6.214334-.59679 1.367153.11936.497146-.71614.621434-.47742 1.11858c-1.43229 3.107166-1.55165 3.231453-1.90971 3.480026l-.71614 2.361447-.95486.994293-.83551 1.740013-.71614 1.242867-1.671 3.480027-.11935.497146h-.11936l-.95486 1.988587-1.19357 2.98288-1.67099 2.61002-.47743 1.11858-.95486 2.485733-.8355 1.11858-.71614 1.367153v.994294l-.59678.497146-1.07422 2.858594-.59678 1.615726v.994294h-.35807l-.477431.621433c-.23871 1.118579.119361 1.864299-.716141 2.361446zm2.181332-54.313264c-.59678-1.49144-1.790351-1.615726-2.745207-1.864299-1.19357-.497147-2.029069-.74572-2.029069-.74572l-2.745211-.497147-1.312927-.497146h-1.193569l-.358071.372859-1.551641-.124286-.119357-.497147-1.19357.248574h-4.177495l-2.864567.372859c-.596786.372861-.596786.372861-1.909713.372861l-1.074212-.124288-1.670998.870008-2.029069.74572-1.670998 1.49144-.954855.621432c-1.193571.870008-3.341996 4.350033-4.893637 6.090047l-.954856.994293-.119358.621434.477429 1.242867.35807-.124287.358072.248573v.497147c.716142 0 .954856-.124287 1.312926-.497147h.716142l.358072-.37286 1.074212.37286-.954855 1.11858-1.312928 2.734307c-.596784.74572-.716142.994294-1.074212 1.864299l-.596786.248573c-.238713.994293-.35807 1.367153-1.312926 2.23716 0 .37286-1.312927 1.8643-1.670998 2.98288l-.596785.870006-.238714.621434-.477428.497147-4.535565 8.327206-1.074214 1.740014-.716141 1.864299-1.432284 2.734307-4.058137 8.327206-.477428 1.49144-.716142 1.615727-.119357.870007-.477428.621433-.954855 1.11858-1.790356 4.10146-2.029068 3.977173-.238714 1.367153-.477429 1.118581-.477427 1.118579-.596785 1.242867-.596785 2.485733-.835499 2.112873-.477428 2.23716-.358071.870006-.119357 1.24287c0 1.86429.716142 3.23145 1.670998 3.23145l1.074212-.37286 1.432285-1.11858 1.074212-.12429 1.551641-.99429c1.551641-.37286 3.58071-1.61573 4.654923-2.734306 1.909712-1.864299 1.670998-1.615726 2.625854-1.988586v.497146l.716141.124287.35807-.248573v-.497147l-.835498-.124287.238714-1.242866c.596784-.497147.835499-.621433 1.432283-.621433l.119357-.497147-1.193569.248573c.119357-1.49144.35807-1.864299 1.790354-2.112873l.358072-2.734306c.238714-.74572.477427-.74572.835499-3.231454l.35807-.497146c1.312928-1.242867-.716142-.994294.835499-2.734307-1.312927.621433.835499-1.49144.835499-1.49144l.477429-1.11858h.35807l.119357.621433.954856-.372859v-.372861h-.477428l-.238714-1.49144.835499-.870006 1.074213-.372861-.477428-.248573-.119357-.621433.119357-.37286 1.074213-.497147.119357-.497147.358071-.621433-.477428-1.11858.119357-.621433c1.312927-.372859 1.670998-.621433 2.387139-1.49144l.954857-.497147 2.029068.124288 2.864568-1.988587.954857.497146.35807-.248573 2.625854-.248573 1.551641-.372861v-.372859h-.358071l.238714-.870007.954856.248573.119357.37286 1.19357-.37286.477427-1.49144.596786-.248573.238713.248573.835499.124287.596785-1.242867.954856-.621433.716142.37286.596786-.124287 2.029068-1.615726c1.074213-.497147 1.432284-.621434 2.625854-.870008l.596785-1.118579c4.296851-1.8643 1.790355-1.740013 5.012993-1.8643 1.432285-1.242866 1.551641-1.367154 2.267783-1.49144.358071-.74572.358071-.870007 1.55164-.994293l.954857-.372861-.358071-.248573v-.994293l1.074206-.248574c1.55164-1.242866 1.671-1.242866 1.90971-1.242866-1.55163 0 4.17751-3.852887 4.29686-4.722893l1.19357-.621434.59679-.248573v-.372859h-.83551l.23872-1.118581 1.19357-.497147v-.248573l-.47743-1.49144.47743-1.615726.71614-.248573.35807-1.615726-1.43228.248574-.23871-.621434.59678-.497147.71614.248573h.47742l.23872-.74572-.35807-1.367153.35807-1.49144h-1.07421l.23871-1.11858-.8355-.248573.35808-.870007-.23872-.621434h-.47742l.47742-1.242866-2.02907-.497147c-.71614-1.118579-.71614-1.242866-.47743-1.988586l-.83549-.994293-.59679-.124287-1.31292-1.367153zm-16.948689 7.705774h-.358071l.119357-.248573c3.341995.248573 5.132351.497146 6.803349 1.118579 3.461353 1.367154 5.609778 4.101461 5.609778 7.084339l-.119357 1.615727.238714.248573v2.237161l-1.432284 1.118579-.596785 1.242867-2.38714 2.98288c-.35807.74572-3.461352 2.98288-5.609779 4.101459l-1.312926 1.242867-2.864568 1.367154c-.596784.621433-.716141.74572-1.432283.621433l-.835499.74572-3.819424 1.615727-.954856.745719h-.596785c-.835499.621434-1.074213.74572-2.029069.870007v.248574l-1.312927.372859-1.909712.621434-1.074212-.124287c0-.497147.119357-.74572.596784-1.242867l.119358-.870006c.35807-.870006.596784-1.11858 1.193569-1.615726l-.477428-.248574.119358-.37286 1.312926-1.740013c.477429-1.242867.119357-1.242867.358072-2.237161.477427-.870006 3.103281-2.23716 1.432283-3.355739 0-.497147.119357-.621434.596785-.870007l.477428.37286.596785-.248573.596785-3.852886c.596785.497146 1.193569.74572 1.551641.74572.119357 0 .238714 0 .477427-.124288v-.248573c-.835499 0-1.074212-.124286-1.432283-.497147.358071-.621432.596784-.621432 1.19357-.621432l.477428-.994294-.238715-.74572c-.477427-1.242867.119358-.621434 1.074214-2.112874h.35807v-.248573l-.477427-.37286c1.312926-1.367151.358071-1.864298.954856-1.864298.238714 0 .716142-.372861.835499-1.242867.238713-.621434.35807-.870007.954856-.870007.119356 0-1.312928-2.858593.954855-1.367153.358071.37286.596786.124286.716142-.248573.477428-2.23716 2.148426-1.118581 1.551641-2.734307z" fill="#3a393a"/><g fill="#fff"><path d="m460.3807 67.555861-.96085-.120823-1.32118.120823h-2.28203l-2.16192.362466-1.44129.120822-1.44128.120822-1.20107.241644-1.08097.120823-2.04181.60411-.36033.483289h.60054l-.84074.966577-1.20107 1.570687-1.20107 1.208222-1.5614 1.933154-.36032.966577c0 .60411 1.08097 1.087399 2.52225 1.087399h.48043l.36031-.604111.96087.845755.60053-.362466.36032.483288.72064-.60411.24022.120822h1.56138l.24022.362466 1.08097.120822.72063-1.329043.72064.966577v.60411l.84075-.845754.48043.120822.48042-.966577.72065.241644.36032-.362466.24022.845754.60053.120823.24022-.604111.48042-.120822c.60053.724933 2.28204.966577 2.28204.241644 0-.362466.1201-.604111.84075-.604111l.1201 1.69151.60053-.362466v-.966577l1.32118-.724933h.48043l-.12011.845755 1.08096-1.087399c1.20107 2.416442 1.44129 2.174798 1.6815 2.174798l.36032.120822.84075-.845755v.604111l.60054-.604111.36031.362467v.362466l1.32118-.241644.72064-1.69151h.48043l.12011.724933 1.68149.241644.48043-.241644.60054.241644v.362466h.60053l.48042-.966577.60054-1.208221-.24021-.483288.60054-.483289.2402-1.087399 1.20107-1.208221.12011-.604111.48043-.362466.84075-1.69151v-.483289l-.48042-.241644v-.60411l-1.92172-.604111h-.72064l-.24022-.241644h-1.32117l-3.72332.483288h-4.92438l-1.92171.362467z"/><path d="m499.08502 64.897774 1.8016-.362467.24022-.241644v-.120822c1.44128-1.087399 1.8016-1.449866 2.28203-2.658087l-1.20106-.60411-1.32119.724932.24022-.966577c.60053-.362466.84075-.483288 1.32117-1.329043l.72065.241644.96085-.483288h.60054l.60053-.724933.24022-.604111-.36032-.362466v-.845754l-.96086.483287-.72064-.362465c.48043-.845755.84075-1.087399 1.56139-1.087399v.604111h.72064c.36032-.966577.24021-1.0874.84074-1.933154l-.1201-.966578h-.36032l-.12011-1.208221c1.20107.120822 1.32118-.120822 2.88257-3.503841 1.6815-2.416443 1.44128-1.570688 2.16192-2.053977v-.483288l-1.68149-.362467-.84075.120823c.48042-.845755.96085-1.329044 1.20107-1.329044l.60053.241644 1.08096-.60411-.48042-1.208221 2.04182-1.329044.1201-1.933154.48043-.724933h.48043c.48043-1.449865.60053-1.812332 1.44128-3.020553v-.60411c1.08097-1.329044 1.20107-1.69151 1.56139-3.38302l.60053-.241644.48044-1.087399 1.08095-1.933155c.12011-.362466.24022-.845754.24022-1.208221 0-1.449865-1.44129-2.778909-3.12278-2.778909-1.20107 0-5.04449 1.812332-7.56673 3.624664l-1.32119.604111-6.24556 3.624664-2.16192 1.087399-2.52224 2.053976-1.80161.724933-.72064.724932-2.52225 2.295621-1.08096 1.087399-.96086 1.087399c-.48042.604111-.60053.845755-.60053 1.329044 0 .966577.24022 1.570687.96085 3.383019l.24022-.362466.60053-.241645.84075-.845754 2.16193-1.0874 1.08096-.362466c.84075-1.087399 1.08096-1.208221 2.28203-1.449865v-.362467l1.20107-.120822.24021-.362466c.24022.241644.48044.362466.60054.362466l.72065-.362466v-.604111l.96085-.120822-.48043.966577.96085.483288-.36032.966577-2.04182 3.020554-16.21443 27.305799-2.40214 3.503842c.36033 1.208221-.36032.845755-1.92171 3.745486l-.48043 1.570688c-.96085.845755-1.20107 1.208221-1.56139 2.537264l-1.32117 2.053977-2.16192 4.59124-.36033 1.208222-1.56139 3.624662c-.48042.966577-.84075 1.812332-.84075 2.537265 0 .966577 1.20107 2.053976 2.28203 2.174796l2.40214-.48329c1.32118-.12082 1.80161-.362462 2.64236-1.208217 1.32117 0 2.04182-.845755 2.16192-.966577l.72064-1.208222 1.20107-.724932 1.5614-.845754.84074.483287.96086.724933-.12011.845755.96085-1.691509-.36032-.362466.24022-.845755.48043-.483289.36032-.966577.60053-.241644.60054-1.69151.72064-2.416442 1.20106-2.174799h.48044c.36031-.362466.60053-.966577.36031-1.570687.72064-.483289 1.08097-1.087399 1.08097-1.449866 0-.845755 1.92171-3.383019 2.16192-4.712063l.48043-.241644-.12011-.966577.96086-.966577-.24022-.966577.36033-.241644.24021.241644h.48043v-.362466l-.60054-.483289v-.241644c.84075-.845755 1.08097-1.208221 1.32117-2.174799.48044-.241644.60054-.483288 1.08097-1.087399.60054-.483288.96085-.845755.96085-1.087399 0-.120822-.24021-.362466-.48042-.724933l2.40214-2.537264c-.24021-1.208222-.96086-1.570688-1.5614-1.570688z"/><path d="m524.35817 77.584097.12012-1.329043.48042-1.69151c0-.120822 0-.120822 0-.241644 0-.483289-.24021-.724933-.84074-.966577l.60053-.241645.24021-.845755.48043-.120822.24022-2.29562c.24021-1.087399.36032-1.449866.48042-2.537265 0-.241644.36033-.845755.84075-1.449865l-.36032-.604111.60053-.724933v-.724932h.36032c.84075-1.449866.96086-1.933154.96086-3.38302l1.8016-2.29562c-.48042-.483289-.72064-.724933-.72064-.845755 0-.241645.48044-.60411 1.20107-.845754.72064-.724933.84075-.966577 1.08097-1.69151l.36032-.120822.60053-.966577.72064-1.69151 1.20107-1.570688.36032-1.087399.60053-.241644v-.724933c0-.60411.12012-.845755.72065-1.087399l-.12011-.966577h.12011c3.84342-3.866308 2.76246-4.591241 3.96353-5.074529.24021-1.208222.36032-1.570688 1.20107-2.295621l.72063-1.208221c1.32119-1.812332 1.44129-1.812332 3.24289-1.812332 3.72332 0 6.9662 5.316174 6.9662 11.598924 0 5.67864-.2402 6.76604-1.8016 12.686323-.84074 2.899731-1.44128 4.832885-1.68149 5.436995l-1.08097 2.174799-1.44128 3.503841-3.72331 5.920285-1.92171 3.020553-3.00267 3.383019-3.72332 3.503842c-2.64236 2.053976-4.20375 2.778909-5.76514 2.778909-1.32117 0-2.88257-1.329043-3.36299-2.899731l-.24021-1.449865-.60054-2.416443.1201-1.087399c-.84074-1.449866-.60053-1.933154 0-4.470419zm37.83369-45.912407.12011-.483289-.48043-.483288-2.16192-2.778909c-.84075-1.208222-1.92171-1.69151-3.96353-2.053976l-.24022.241644c-.48043-.483289-.96085-.724933-1.20106-.724933-.24022 0-.48044 0-.60054 0l-2.88257.241644-1.32117.483289-1.08097.483288-2.40214 1.449866-2.76245 1.812332-2.04182 2.174798-2.88257 2.053976-.96085.966577-2.88257 2.537265-2.76246 3.020553-1.6815 1.812332-3.72331 4.953707-1.44128 1.570688-1.32118 1.933154-3.363 4.953707c-.96085 1.329043-1.44127 2.174797-1.92171 3.866307-1.56138 2.174799-1.6815 2.416443-1.8016 4.228775l-.72064.966577-1.8016 4.470418c-.60054 1.208222-.60054 1.570688-.60054 2.778909-1.20106 3.141376-1.20106 4.107953-2.04182 8.095083v2.778909l-.24021.724933-.24022 1.208221.24022 2.053976.24021 2.778909c.72064.241644.84076.362466.84076 1.208221l-.60054-.241644c.1201.966577.1201 1.329043.72064 1.933154l-.1201.604111c1.08095 2.416441 1.56138 3.262196 2.28202 4.107951 1.32118 1.570688 3.60321 3.141375 4.56406 3.141375l.60054-.48329.24021.48329.96086.12082.36033-.36247.72063.12083.48043-.12083.36032-.36246c1.08096-.241645 1.32118-.483289 3.4831-1.933154l.96086-.241645c.60054-1.087399.60054-1.087399 2.52224-2.658085.96086-.724933 1.6815-1.449866 3.363-3.38302h.48043l.24021-1.087399.36032-.241644.48042.120822c1.32119-2.053976 2.16194-2.899731 3.12279-3.624664l2.28203-1.449866c.12011-.120822.48043-.483288 2.16193-2.29562 1.56139-.483289 3.60321-2.174798 4.56406-3.866308.60053-.845755.72064-.966577 1.44129-1.087399 0-1.087399.2402-1.449866 1.56138-2.053976l1.32118-1.933154.48043.241644.24021-.724933h.24021l.36033-.724933.36032-1.087399 1.20107-1.812332c2.04182-1.329043 2.16192-2.658087 3.12277-3.383019l.24022-.724933h.48043l-.36033-.362467.12011-.483288.48043-.120822.48043-.604111.60053-1.208221.24022-.845755c0-.120822-.12011-.483288-.24022-.845755l.84075-.60411c-.24021-.966578-.12011-1.329044 1.56139-4.228774l.96085-2.899731-.60053.362466c1.20107-1.691509 1.32118-2.053976 1.6815-5.557817.1201-.966578.24022-1.69151.48042-2.174799.24022-.241644.24022-.60411.24022-.724933l-.1201-.60411.24021-.241644-.12011-.724933.36032-1.570688-.36032-3.98713.12011-.604111c-.24021-1.087399-.36033-1.449865-.84075-2.537264 0-.966577-.24021-1.329044-.36032-2.416443l-.60053-1.208221z"/><path d="m237.92702 90.995353-1.20107.120822-1.56139.120822-1.92172-.483288-1.68149.483288-.96085-.966577-1.80161-.845754c-2.64235-1.329044-4.56407-5.557818-4.56407-10.269881l.12011-2.537265.84076-5.436996-.24022-1.812332.72064-.362466.48043-2.658087.84075-1.329043.48042-1.449866 2.04182-3.503841 2.76246-5.195351 1.32118-1.329043 2.16192-3.38302 1.68149-1.570687 1.80161-2.174799 3.24289-3.745486 2.16192-2.29562c1.20107-.845755 1.32118-.845755 1.44129-1.812332l2.28203-1.933154 1.68149-1.208221 2.76247-1.933154.60053.241644.96086.724933c1.20107 1.087399 1.8016 3.141375 1.8016 6.041106 0 5.557818-2.16192 12.444679-5.52492 17.277563l-3.84342 5.67864-.36033.724933.60054 1.329043 1.08097-.483288 1.44128-.966577 1.08096-.362467 2.28203-2.174798 1.20107-.241644c1.56139-1.329044 1.92171-1.449866 2.88257-1.449866s1.20107-.60411 2.52224-1.570687l1.56139-1.449865 1.92172-1.329043.72064-1.812332.96085-.724933.12011-.604111 1.08096-.483288v-.483289l-.72064-.483288.12011-.483289h.48043c0-1.449865.1201-1.812331 1.32117-2.537264l.60053-1.812332.24022-.966577-.84075.60411.24022-1.208221 1.32117.120822-.24021-.724932h.96085v-.483289h-.60053l-.12011-.966577.60053-1.208221-.96085-.241645v-.362466c.96085 0 .84075 0 1.44128-.483288l.48044-2.295621-.60054-.120822-.24022.120822.36032.604111h-.72063l-.72065-.241644.36032-.966577.96086.241644.60054-1.69151-.12012-.241644-.72064.120822.36032-.845755-.1201-1.329043-.36033-.241645v-.60411c0-3.866308-4.92438-8.336727-9.00802-8.336727-.72064 0-1.32117.120822-1.9217.362466l-3.00268 1.449866-.96085.241644-1.6815.845755-.12011.483288c-2.28203.604111-6.12546 2.416443-8.28738 3.987131l-3.48309 2.416442-1.80161 1.449866-7.20641 5.195351-.84075.966577-2.76246 2.537265-5.28471 6.161928c-2.88257 3.624664-4.32385 5.799463-5.1646 7.732616l-1.56138 3.262197-.96087 1.208221-.96085 2.899731-1.56139 4.349597-.24022 1.329043-.36031.845755-.12011 1.570688-.60053 2.174798c-.48043 1.329044.60053 2.053976-.36033 2.899731l.12011 2.658087h.48042c.84075 1.329043-.1201 1.208221-.72063 1.69151l.24021 2.174798v.966577l.96086.362467.1201.362466-.72064.483288v.724933l.60054.604111-.12011.845755c0 1.329043 2.40214 5.436995 4.32385 7.490971 2.52224 2.537264 4.68417 3.745491 8.04716 4.470421l2.28203.36246 2.76247-.12082 1.08095.24165 4.68418-2.778913 1.32117-.241644v-.362467l1.6815-.966577.84075-1.329043 2.40214-1.087398 1.68149-1.933154.72065.120822.24021-.120822v-.604111l1.44128-1.570688 2.40214-1.449865.84075-1.329044 3.60321-3.624663.48043-1.0874 1.92171-1.570687.36032-.845755.84075-.604111.48043-1.087399 1.08095-1.208221.48044-1.208221.72063-.966577c-.96085.241644-1.20107.362466-2.52224 2.053976l-3.4831 2.778909-2.04182 2.174798-.72064.483288-1.08097.845755-1.9217 1.812332-2.04182 1.208222-1.08096.241644-1.44129 1.087399-1.6815 1.329043z"/><path d="m293.91663 79.033963.84076-1.570688.36031-.120822.24022-.483289-.48043-.241644v-.483288l.48043-.120823.84075-1.329043c-.48043-.604111.24021-1.329043.84074-2.053976l1.44129-3.262198-.12011-1.329043h.24022l.1201-.604111.84075-.120822c-.12011-.362466-.12011-.483288-.60053-.724932l1.20107-.604111-.12012-.845755.84075-1.570688h.48044l.1201-.966577-.48042-.724932c.36032-.724933.48042-.966577 1.32117-1.0874-.1201-.60411 0-.966577.36032-1.208221l-.36032-.362466.96085-2.537264-.84075-.120822.48043-1.449866-.36031-1.812332-.12012-1.570687-.72063-.120822.36031-.845755c-.1201-.362467-.72063-.604111-1.08095-.483289l-.12012-.362466-.72063-.241644.1201-.483289-1.68149-.241644c-1.8016 0-6.60588 2.416442-8.88792 4.591241l-3.00267 2.778909c-3.12278 2.778908-4.20374 3.624662-4.68418 3.866307l-.84074.120822v-.604111l.60054-.120822c-.36033-.241644-.84075-.724933-.60054-1.087399l.48043.120822.72064-.362466v-1.329044l.96086-.724931v-.604111l.96085.241644v-.60411c-.48043-.724933-.24022-1.0874-.1201-1.329044l.36032-.845755-.36032-.724933h.48042l.12011-.483288.84074.120822.12012-.966577c1.44128-.120822.36031-.966577.36031-1.208221s.60054-.724933 1.44129-1.208221h-1.32118v-.362467c2.28203-.483288.96086-1.69151 1.20107-3.262197l1.32118.241644c.24021 0 .48042-.120822.60053-.362466l-1.08096-.483289.36032-.120822v-.362466l-.36032-1.0874 1.6815-.241644c0-.845755.24021-1.087399.96085-1.570688-4.80428-1.208221-1.20107-1.449865-.60053-1.691509v-.362467l-.84075-.241644v-.724933l1.32118-.241644.2402-.241644 1.08097.120822.1201-.362466-1.32117-1.0874.84075-.362466.84075-.362466.96086-2.295621.1201-.724933h-.48042l-.36033-.362466.84075-.604111 1.56139-3.262197h.96086l.36032-.966577v-.966577l.48042-.966577.84075-.845755c0-.483288.12011-.724933.48043-1.208221l-.36032-1.208222.96086-.483288.48042-2.416443-.96085-.60411-.36032.362466-.84075-.120822-.36032.120822-1.20107.241644-1.08097.604111-.96085.966577-.60054-.724933-1.08095.483289-2.04182 1.087399h-.36032l-1.20107 1.329043v.845755c-1.20107.483289-1.44129.724933-2.16193 1.933154l-.60054 2.174799-1.08095 1.933154-.48044 1.329043-.72063.604111v1.208221l-1.20107.966577-.60054 1.449866c-1.20107 2.174798-1.32118 2.416442-1.6815 2.658086l.12011.362467-.96086 1.691509-.60053 1.449866c-.84074.724933-1.32118 1.449866-1.32118 2.053976l.24022.604111-.72065.241644-.48042 1.208221c-.60053 1.449866-.60053 1.329044-.72065 2.174799l-1.9217 3.624663-.48044.604111-.36031 1.570688v.483288c-.60054.362467-.84076.724933-1.08096 2.053976l-.36033 1.208221-2.64234 4.953707-1.20107 2.658087-1.20107 2.053976-.48043 1.329043-1.32118 2.416443-1.92171 4.591241-.60054.966577.12011.483288c-1.20107 1.570688-1.44128 2.174798-1.6815 3.866308-.72063.604111-.72063.483289-1.08096 1.933154l-.84074 1.812332-.12012 1.208222-.84075.966577-1.68149 3.503841c-1.08096 3.38302-1.20107 3.624664-2.16192 4.470419l.2402.483288-.84074.362467.60054.120822-.12011.845754-.60054.845755-.24021 1.570687.12011.966577-.24022.120823v.604112l.24022.24164.1201-.60411.48043.36247.72064.36247 1.20107-.72494.72065.12082c1.20107 0 1.44127-1.087395 1.68149-1.329039.96085.60411 2.28203-1.208222 3.72332-1.208222l1.44127-1.69151.60054-1.449864 1.08097-.120822v-.362467h.72063l.96087-.724932.48042-1.449866h-.72064l.1201-.724933-.24021-.362466c.60053-2.053976.96086-2.416443 2.28203-2.416443l-.1201-1.329043h.36032c.84075-.604111 1.08096-.724933 2.16192-.724933l-.1201-.483288-1.20107-.483289c.24021-1.087399.36032-1.208221 1.44128-1.933154.24021-.241644.60053-.483288.24021-.966577l.24022-1.208221c1.6815-.966577.72063-1.933154 2.28203-3.020553l.48042-1.087399h.60054l.12011-.362467.60054-.120822v-.362466l-1.6815-.483289.72063-1.329043.84075.241644c.36032 0 .96086-.483288 1.68151-1.087399-2.88258-1.329044-2.88258-1.69151-.96086-1.69151l.36032-.845755 1.56139.120822.1201-.241644c-.48042-.362466-.60053-.483288-1.32117-.483288l.84075-2.295621.1201-.362466.72065-.241644.48042.120822c-.36032-.724933-.1201-1.570688.36032-1.812332h.48043l.96086-1.208222 1.92171-1.812331 3.00268-2.899732c1.20107-1.208221 2.04181-1.691509 3.84341-2.29562.60053.845755.72065 1.570688.72065 2.174798 0 2.537265-.84075 5.67864-2.88257 9.907415l-7.08631 15.827699c-.72064-.120823-.36032.966577-.60053 1.087399l-.24022.845755.12011.60411-.84075 1.570688-.36032 3.020553-.36032 1.933154c0 3.141374 1.6815 6.403573 3.36299 6.403573l.72065-.12083 2.52224-.60411c.72064-.36246 1.6815-1.087393 2.64235-2.05397l5.88524-6.28275 6.8461-6.041106c.96085-.845755 1.92171-1.933154 3.12278-3.624664 1.08096-.483288 1.20107-.724933 1.80161-3.020553l-.72065.120822c-1.08096.724933-1.32117.966577-1.68149 1.812332l-1.6815 1.087399-3.48311 3.503842-1.68149 1.570687-2.64235 2.174799c-.24022.241644-.60054.362466-.96086.362466-.72065 0-.96085-.362466-.96085-1.208221s.2402-1.087399 1.08095-1.087399l.12012-1.329044-.60054-.483288v-.241644l.72064-.362467.36032-2.29562.60053-1.329044c0-.60411.48044-.966577 1.32119-1.208221z"/><path d="m340.19393 62.843798.2402-.241645.48043-1.087399-.36031-1.329043.36031-1.449866-.60053-1.933153.60053-2.416442-.1201-.483289h-.24021c0-.966577-.12012-1.329043-.60054-1.933154l.24022-1.449865h-.48043l-.12011.241644h-.24021c-.48044-1.208221-.60054-1.570688-.72065-2.899731l-.60054.120822-.2402-.241644-.24022.120822v-.724933l-1.08096-.362466-1.44129-.604111-.48042.120822.1201.604111h-.60053c-.12011-.604111-.24022-.845755-.96086-1.087399l-.24021.724932-.60054.120822c-2.16192.120823-2.16192.120823-3.00267.604111l-.96085.724933-2.16193 1.69151-2.40214 2.658086-1.32118 1.208222-2.40214 1.812332-2.88256 3.262196-5.16459 5.557818c-5.40481 5.799462-9.00802 15.223588-9.00802 23.681137 0 3.745486 1.08095 8.095081 2.40214 9.786591 1.44128 1.812332 3.00267 2.778911 4.44395 2.778911 1.20107 0 2.04181-.24165 4.44395-1.208223v-.362466l.84075-.120823.36032-.966577 2.76246-1.329043.48043-.724933 4.44396-4.349595 1.68149-1.812332c.24022-.483289.36033-.604111.84075-.604111l1.6815-2.174798.36032.120822.36032-.362466c0-.483289.12011-.604111.48043-1.0874l.24022.241645.36032-.120822c.96085-1.933155 1.20107-2.295621 3.24289-3.866309l-.24022-.845754h.60053l.24022-.241645v-.362466l1.8016-2.537265c-.24021-.362466-.36032-.724933-.36032-.966577 0-.362466.24021-.483288 1.6815-1.208221l.48043-1.208221 1.08096-2.537265.12011-1.087399 1.20107-2.658087.2402-1.208221.24022.241644.12011-.604111-.36033-.120822v-.60411l.48044-.362467-.12011-1.087399h.24021zm-14.53295-6.886861c.48043-.241644 1.32118.120822 1.56139.362467 1.8016 2.174797 3.363 7.732615 3.363 11.598923 0 4.228774-2.28203 11.961391-5.28471 17.398386-1.8016 3.503842-5.40481 6.645217-7.56673 6.645217-1.20107 0-1.92171-.966577-2.28204-2.899731-1.20107-.362466-1.44127-.60411-1.32117-1.933154l.60053.241644c-.48043-.966577-.60053-1.329043-.60053-2.29562-.96085-.241644-.72064-.483289-.24022-.845755v-1.570688c-.60053-.120822-.72063-.241644-.72063-.483288 0-.362466.24021-.604111.48042-.604111.12011 0 .24021 0 .36033.241645l.36032-.483289-.12012-.362466-.60053-.362467v-.362466l.96086-.604111v-.845755c0-.483288.24021-1.570687.72064-2.658086.1201-.241645.24022-.724933.48043-1.208222h-.36033l-.36032-1.208221c.84075-.241644 1.32119-.604111 1.32119-.845755l-.48044-.724933h-.48043l-.2402-.966577h.48042l.72065.483289.48042-.120822c0-1.329044.12011-1.570688 1.08096-2.416443l-.60053-.241644v-.483289h.24021l.12011-.724932h.72064l-.36032-1.208222h.48043l.2402-.241644h-.72063l-.24022-.362466v-.483289l.48043.120822.24022-.724932.48042.483288.72065-.120822.1201-.845755.36032-.241644-.1201-.604111-.36032.604111-.24022-.845755c.24022-.241644.48042-.483289 1.08096-.362466.24021-.483289.72065-2.174799 2.16193-3.262198l.1201-1.449865.96086 1.087399c.24021-.241645.48043-.483289.24021-.966577.48044-.362467.60054-.604111.72064-1.329044l.48043.604111z"/><path d="m351.8103 76.61752.36033-.724933.84074.241645v-.604111h-.48042v-.362466l-1.08097-.120823-.24021-.483288.72065-.120822.1201-.966577.96085-.241644.96087.362466-.24022-.483289c.96085 0 1.08096-.120822.60053-1.087399l.36032-.483288-.72063-.120822-.36033.483288h-.24021c.48042-.845755.96085-1.449865 1.44128-1.449865l.60053.241644.96086-1.087399.24021-.845755.12011-.362467-1.32118.120823c.12011-.966577.36033-1.0874 1.5614-1.0874l.60053-1.208221.48043-1.208221c-.36032-.845755-.12011-.724933 1.08096-3.141375l1.20107-.604111v-.483289l-1.44128.120823v-.483289h.60053c1.08097 0 1.32117-.241644 1.56139-1.329043h.36032l.24021-1.329044.96086-1.20822.24021-1.208221h.24022l.1201-.362467.24022-.120822.48043-.966577 1.08096-1.329043.24021-1.329044 1.44129-2.899731c.24021-.241644.24021-.60411.24021-.845755 0-.362466-.36032-.724932-.84075-.724932l-.84075-.120823-1.08096.483289-1.20106.241644-.84076.362467-1.20106.724932-1.08097.604111-1.44129.845755-1.68149.845755-1.6815 1.570687c-.84075 1.570688-1.92171 1.812332-2.52224 2.778909l-1.56139 2.537264-.84075 1.812332-1.44128 2.29562-.72064 1.69151-.96086 1.087399-6.24556 12.203035c-1.08096 1.933154-1.92171 4.107953-2.40214 6.041107l-.36032.362466-.36032 1.208221c-.24022.966577-.36032 1.208222-1.20107 1.933154l.24021 1.812332-.48043.966577c-.36032.362467 0 .845755.24022 1.087399-.84075.120822-.96086.241645-.96086.966577l-.1201 1.570688.1201.120822v1.329044l.24022.241644c-.48043.724933 0 1.208221.36032 1.691509.72064 1.812332 1.44128 2.658086 2.16192 2.174798v.362466l1.44129.483289 1.20107.60411c.24021-.241644.48043-.60411.96085-.241644l-.24022.604109.84075.24164.48044-1.329037.48042.241644c.12011-.604111.24021-.724933 1.20107-1.087399.96086-.241644 2.16193-.966577 3.4831-2.053976l3.48311-2.778908 5.2847-4.107953 2.40213-2.537264 4.80428-4.228775.84075-1.570687-.72064-.120823-2.88257 2.416443c-3.00267 2.778909-2.52224 2.416443-4.32384 3.503842l-5.40481 3.503841c-.48044.362467-1.44129.604111-1.92172.604111-.96085 0-1.32117-.483289-1.56139-2.29562l.48043-.120823-.48043-.845754.72064-.845755-.36032-.724933.60053-.241644-.24021-1.329044.12011-1.208221.84075.120822.36032-.966577-.60053-.362466.36032-.483289h.72063l.60054-1.69151-.60054.483289-1.32117.724933-.36032-.362467.24022-.241644h.2402l.12012-.483288h.84075l.1201-.604111 1.32117-.241644-.2402-.724933.60053-.845755zm.36033-1.933154 1.92171.362466-.1201-.60411c-.60054-.483289-.84076-.604111-1.44129-.604111zm11.04983-36.367459.12011-.362467.72064-.362466c.72065 0 1.08097-.241644 1.44129-.724933.60053.362467.84075.362467 1.44128.362467h.84075l.36032-.845755h1.20107c.36032-.604111.48042-.724933.84074-.966577l2.04182-.483289.96085.120822v-.60411l.96087-.120823c.48042-1.087399.60053-1.449865.72064-2.537264l.24021-.120822.84075-.604111-.24021-.483288.36032-.483289h-.60054c-.36032-.120822-.36032-.724933.1201-.724933h.96087c0-.60411.1201-.845755.60053-1.208221v-.724933l.36032-.120822c0-.724933.1201-1.087399.96085-3.020553l.36032-.966577c-.48042-.845755-.72064-.966577-1.8016-.966577v-.241644h-.72064l-1.56139.483288-1.08096.362467-.72064.241644-.36033.60411-.60053-.362466c-.36032.724933-.96086.845755-1.44128.845755l-.48043.241644-.1201 1.208221-.84076-.483288c-.36031 0-.96085.604111-1.44128 1.570688l-2.52224 3.624663-1.6815 3.262198-.48042 1.570688.48042 1.329043h-.72064l-.12011 1.329043c0 .241645.24021.604111.60053.362467z"/><path d="m377.64642 85.67918.24021-1.69151-.48042-1.208221.84075-2.778909v-2.537265l.96085-1.570688-.12011-.845755.72065-.966577.1201-.60411-.1201-.724933.60053-.241644.24021-2.295621.60053-.120822.72065-.845755-.12011-.845755.24021-.120822.36032-1.208221h.36033c.1201-.724933.24021-.966577.84074-1.329043h.36033v-.362467l-.36033-.120822.72065-1.449865h.48042l-.48042-.845755.96085-.724933 1.44129-2.053976 1.44128-1.812332.60054-.966577.2402-.120822.60054.120822c.84075 1.933154 1.08096 3.262197 1.08096 5.920284l-.1201 2.29562-.48043 2.416443c0 .362466.36032 1.087399.84075 1.812332v.362466h.48042c.84075-.966577 1.32118-1.208221 2.04182-1.208221l1.80161-2.174798 2.04182-2.053976 1.32117-.724933.60053-1.208221.72065-.483289.60053-1.329043h.96086c.36032-1.0874.60053-1.208222 1.56139-1.208222v-.362466h-.24022l.12011-.241644.48043-.362467-1.20107-.724932 1.32118-1.329043-1.56139-.120822.96085-.724933.72064-.120822v-.60411l-.96085.362466v-.845755l.84075-.120822-.12011-1.570688h-.60054l-.1201-.60411.48043-.845755-1.08097-.241645.24022-.60411v-.483289c-.84075-.724932-1.08097-.966577-1.56139-1.933154l-.36033-.241644c-1.20107-1.087399-1.8016-1.329043-3.36299-1.329043-1.20107 0-1.8016.241644-2.64236 1.329043l-.72063.120822-.48043.845755-1.56139.724933-1.68149 1.69151-4.44396 3.503841-1.32118 1.449866-3.00268 2.537263c-2.64234 2.416443-5.2847 5.67864-9.12812 11.35728-1.56139 2.537265-1.8016 2.778909-3.4831 6.282751l-.60053 1.087399-.84075 3.020553-1.08097 4.107953-.48042 4.228774-.12011 1.69151c0 1.69151.24021 2.899731.36032 3.38302l.48043.845754.24021 1.329043.48043 1.570688 1.08096.966577 1.20107.483288.84075.966571 1.68149.36247c2.40214 0 4.92439-1.087397 7.56675-3.383017l3.24288-2.778908 2.04182-1.570688 5.28471-5.436995 1.9217-1.812332 1.92171-2.053977 2.52225-2.899731.36032-.845754-.36032-.120823.84075-.724932-.36033-.362467-.96085.845755c-3.84342 3.98713-7.32652 6.886861-9.96887 8.457549-2.76246 1.570688-4.32385 2.174798-5.52492 2.174798-.48043 0-.84075-.120822-1.32118-.724932-1.08096-1.570688-1.44128-2.537265-1.44128-3.745486z"/><path d="m398.32765 89.787132-.48043.120822.60053.362466c.12012.483289.24022.966577.24022 1.208222 0 .241644-.1201.724933-.48043 1.329043h.84075v.483289l.12011.241644-.24021 1.208221c0 .241644.1201.845755.48042 1.449865h.96086l.24021.483288h-.48043l-.24021.241644.60053.845755v.241645l.72064.241644.84075-.241644.48043.362466-.84075.241644c1.20107.966577 1.6815 1.087399 2.88257 1.208222l-.24021.362462 3.96352.12082.36032-.724927.36032.120822c.24022 0 .48043-.120822.84075-.362466h1.32118c.12011-.845755.24021-1.087399 1.08096-1.087399v.483288c.48043-.241644.48043-.241644 1.56139-1.087399l1.44128-.966577v-.60411c.60054 0 .84076-.120823 1.32119-.60411l2.40214-2.053976c1.9217-1.570688 3.24287-2.658087 3.6032-3.141376l5.76513-6.041106 3.72332-3.020553c1.44128-1.208221 1.6815-1.812332 1.6815-3.020553v-.724933h-.48044l-.72063.845755c-4.68418 4.470419-6.00535 5.67864-9.84877 8.336727-3.96353 2.778909-6.48578 3.98713-8.52759 3.98713-2.04182 0-3.72332-1.933154-4.20374-4.832885l-.12012-.966577.24022-4.228775-.36032-.60411.1201-.483289h.48043l-.12011-.362466.36033-.483289-.60053-.120822-.24022-.483288.24022-.483289.72063.241644-.24021-.362466.72064-2.29562h.60054c.96085 0 1.92171-.362467 3.36299-1.329044 2.04182-1.329043 2.76246-1.69151 4.68417-2.053976.24021-.362466.48043-.483289 1.20107-.483289l1.44128-.966577 3.12279-1.208221 2.04181-1.812332 1.8016-.60411v-.845755l.72065.241644c.60053-.604111.84075-.724933 1.68149-.966577-.96085-.483289-.72064-.724933-.48042-.966577l1.56139-.241644.96085-1.208222.96085-.483288.24022-.845755c.60053-.120822.60053-.120822 1.08097-1.087399l.48042-.966577-.12011-.241644c.12011-.362467.24022-.362467.60054-.362467l.48042-1.087399.60054-1.329042.48043-1.329044-.36032-.483288.48042-.241644-.24021-.966578h.24021l.12011-.845754c0-3.141376-2.52224-5.799463-5.52491-5.799463-1.5614 0-5.52493 1.449866-7.68685 2.778909l-2.88257 1.933154-3.4831 2.416443-2.04182 1.812332-.60053.120822c-3.24289 2.89973-3.36299 2.89973-4.56406 3.624663l-.84075 1.087399-3.48311 3.503842-1.56139 2.053976-1.9217 2.416442c-1.20107 1.570688-2.28204 3.624664-2.76246 5.436996h-.36033c-.2402.724933-.36032 1.208221-.48042 1.449866l-.48043.845755.12011.966577-.48043 1.087399c-.84075.724932-1.56139 2.899731-1.56139 4.107952 0 .241644 0 .604111.24022 1.208221h-.24022c-.12011.604111-.12011.966577-.48043 1.449866l.36032.241644c-.36032 1.087399-.48042 1.570688-.48042 2.416443v.845755c.36032.362466.72063.60411.60053 1.329043zm13.09165-17.156742.36033-.604111.72064-.120822-.36032-.845755.1201-.362466h.48043l.24022-.120822v-.483289c-.72065 0-1.08097.120822-1.5614.362467.36033-.724933.60054-.845755 1.6815-.845755.72064-1.812332 1.08097-2.174799 2.16192-4.349597.36032-.241644.60054-.362466.84076-.966577h.72063c.12012-.362466.24022-.483288.60054-.604111-.60054 0-.72064-.120822-.96086-.60411l.36032-.362467.36033.120823.84074-.845755c.84075-1.329044 1.80161-1.69151 2.04182-2.416443.96086-.483288 1.08097-.845755 1.20107-1.570688l3.12279-2.053975-.24022-.241644-.24021.241644-.48044-.241644.84075-.241644c.48044-.483289.96086-.724933 1.32119-.724933 1.44127 0 2.76245 1.933154 2.76245 4.107951 0 2.778909-1.6815 5.557818-4.80427 8.457549-2.76246 2.537265-5.64503 3.745486-12.13081 5.316174z"/><path d="m95.74802 27.637586c-.600535-1.442438-1.801603-1.562641-2.762458-1.803047-1.201068-.480813-2.041816-.721219-2.041816-.721219l-2.762458-.480813-1.321175-.480812h-1.201068l-.360321.360609-1.561389-.120203-.120107-.480813-1.201068.240407h-4.20374l-2.882564.360609c-.600535.36061-.600535.36061-1.92171.36061l-1.080961-.120204-1.681496.841423-2.041817.721219-1.681496 1.442438-.960854.601015c-1.201069.841423-3.362992 4.207111-4.924381 5.889956l-.960855.961625-.120107.601016.480428 1.202032.36032-.120203.360321.240406v.480813c.720641 0 .960855-.120204 1.321175-.480813h.720641l.360321-.36061 1.080961.36061-.960854 1.081828-1.321176 2.64447c-.600534.721219-.720641.961626-1.080961 1.803047l-.600535.240406c-.240213.961625-.36032 1.322235-1.321175 2.163657 0 .36061-1.321175 1.803048-1.681496 2.884876l-.600534.841422-.240214.601016-.480427.480813-4.56406 8.053612-1.080962 1.682845-.720641 1.803047-1.441282 2.64447-4.083632 8.053612-.480427 1.442438-.720641 1.562642-.120107.841422-.480428.601016-.960854 1.081828-1.801603 3.966705-2.041816 3.846501-.240214 1.322235-.480428 1.081829-.480427 1.081828-.600534 1.202032-.600534 2.404063-.840748 2.043454-.480428 2.163657-.36032.841422-.120107 1.202032c0 1.803038.720641 3.125278 1.681496 3.125278l1.080961-.36061 1.441283-1.08182 1.080961-.12021 1.561389-.961622c1.561389-.360609 3.603206-1.562641 4.684167-2.64447 1.92171-1.803047 1.681496-1.562641 2.642351-1.92325v.480812l.72064.120203.36032-.240406v-.480813l-.840747-.120203.240213-1.202031c.600534-.480813.840748-.601016 1.441282-.601016l.120107-.480813-1.201068.240406c.120107-1.442438.36032-1.803047 1.801602-2.043454l.360321-2.644469c.240214-.721219.480427-.721219.840748-3.125283l.36032-.480812c1.321176-1.202032-.720641-.961626.840748-2.64447-1.321175.601016.840748-1.442438.840748-1.442438l.480428-1.081829h.36032l.120107.601016.960855-.360609v-.36061h-.480428l-.240213-1.442438.840748-.841422 1.080961-.36061-.480427-.240406-.120107-.601016.120107-.360609 1.080962-.480813.120106-.480813.360321-.601016-.480427-1.081828.120106-.601016c1.321176-.360609 1.681496-.601016 2.402137-1.442438l.960855-.480813 2.041816.120204 2.882565-1.923251.960855.480812.36032-.240406 2.642351-.240406 1.561389-.36061v-.360609h-.360321l.240214-.841422.960855.240406.120107.360609 1.201068-.360609.480427-1.442438.600535-.240406.240213.240406.840748.120203.600534-1.202032.960855-.601015.720641.360609.600535-.120203 2.041816-1.562641c1.080962-.480813 1.441282-.601016 2.642351-.841423l.600534-1.081828c4.323846-1.803048 1.801603-1.682844 5.044487-1.803048 1.441283-1.202031 1.561389-1.322235 2.28203-1.442438.360321-.721219.360321-.841422 1.561389-.961625l.960855-.36061-.36032-.240406v-.961625l1.080961-.240407c1.561389-1.202031 1.681496-1.202031 1.92171-1.202031-1.561389 0 4.203746-3.726299 4.323846-4.567721l1.20107-.601016.60054-.240406v-.360609h-.84076l.24022-1.081829 1.20107-.480813v-.240406l-.48043-1.442438.48043-1.562641.72064-.240406.36032-1.562641-1.44128.240407-.24021-.601016.60053-.480813.72064.240406h.48042l.24022-.721219-.36032-1.322235.36032-1.442438h-1.08096l.24021-1.081828-.84075-.240406.36033-.841423-.24022-.601016h-.48042l.48042-1.202031-2.04182-.480813c-.72064-1.081828-.72064-1.202032-.48043-1.923251l-.840741-.961625-.600535-.120203-1.321175-1.322235zm-17.055173 7.452597h-.36032l.120107-.240406c3.362991.240406 5.164594.480812 6.84609 1.081828 3.483099 1.322235 5.645022 3.966705 5.645022 6.85158l-.120107 1.562641.240214.240406v2.163658l-1.441283 1.081828-.600534 1.202032-2.402137 2.884876c-.36032.721219-3.483098 2.884876-5.645022 3.966704l-1.321175 1.202032-2.882564 1.322235c-.600534.601016-.720641.721219-1.441282.601016l-.840748.721219-3.843419 1.562641-.960855.721219h-.600534c-.840748.601016-1.080962.721219-2.041817.841422v.240407l-1.321175.360609-1.92171.601016-1.080961-.120203c0-.480813.120107-.721219.600534-1.202032l.120107-.841422c.36032-.841422.600534-1.081829 1.201068-1.562641l-.480427-.240407.120107-.360609 1.321175-1.682844c.480428-1.202032.120107-1.202032.360321-2.163658.480427-.841422 3.122778-2.163657 1.441282-3.245485 0-.480813.120107-.601016.600534-.841422l.480427.360609.600535-.240406.600534-3.726298c.600534.480812 1.201068.721219 1.561389.721219.120107 0 .240214 0 .480427-.120204v-.240406c-.840748 0-1.080961-.120203-1.441282-.480813.360321-.601015.600534-.601015 1.201069-.601015l.480427-.961626-.240214-.721219c-.480427-1.202032.120107-.601016 1.080962-2.043454h.36032v-.240406l-.480427-.36061c1.321175-1.322233.360321-1.803046.960855-1.803046.240214 0 .720641-.36061.840748-1.202032.240213-.601016.36032-.841422.960855-.841422.120106 0-1.321176-2.764673.960854-1.322235.360321.36061.600535.120203.720641-.240406.480428-2.163657 2.161924-1.081829 1.561389-2.64447z"/><path d="m93.55298 80.166363-.480428 1.202032c.240214.841422-.480427.961625-.960854 1.202031l.36032.841422-.36032.240407c.720641 1.202031 0 1.682844-.720642 2.163657.600535.961625-.120106 1.202032-.600534 1.562641l.480428.480813-.240214 1.081828-.360321 1.202032.240214.961625h.360321l.120106.480813-.960854.480813c0 .360609 0 .841422.36032 1.202031-.960855.961626.840748.721219 1.201069.841423l-1.441282.721219-.240214.601015h.480427l.240214 1.202032-.600534.36061.720641.240406-.120107.961625 1.080962.841423 1.681495.120203.360321.360609-.600534.120203v-.240406h-1.681496c-.360321.601016-.120107.72122.960855 1.20203l1.201068-.1202 1.201069-.601017.960854-.240407.720641-1.081828.720641.240406.960854-.721219 2.041814-.841422v-.480813l3.36299-2.884876 3.84342-3.245485 1.6815-1.803048 6.9662-6.490971 2.40213-2.163657 2.64235-3.245485 1.80161-1.92325-1.92171.961625-9.48844 7.933408-1.92171 1.322235-1.32117.841422c-2.88257 2.163657-3.48311 2.404064-5.1646 2.64447l-.24022-.841422.60054-.36061-.60054-.360609c.96086-.480813 1.08097-.721219 1.32118-1.562642l-.36032.36061-1.08096-.120203-.12011-.36061 1.32118-.841422-.12011-.841422c.96085-.480813 1.08096-.721219.96085-1.923251l.48043-.480812-1.20107-.240407c-.1201.601016-.36031.841422-.96085.721219l.60054-1.322235.48042.240407c.84075 0 1.20107-.120204 1.6815-.36061v-.721219h-1.44128l.24021-.721219 1.92171-.120202-.12011-.240406-.72064.120203-.84075-.721219 1.20107-1.682845c.60053-1.202031.96086-1.442438 2.04181-1.442438l-.24021-1.202031-.84074-.120204v-.601015l-.72064.120203.1201-.480813.96085-.120203-.96085-.841422.60054-.120203v-.240407h.36031c.48043.240407.96086.480813 1.44128.240407-.96085-.240407-1.08095-1.081829-1.08095-1.803048l2.04181-.480813v-.480812h-.96086l-.60052-.240407-.60054.120203v-.601015l.84075-.240407c3.48309-.721219.96085-2.764673 2.04181-3.365688l.60054-.721219.48043.240406.36031-.36061c0-.601016.12011-.721219.72064-1.081828v-.841422l-3.00266.480812.1201-.601016c.84075-.120203 1.08097-.360609 1.32118-.961625l2.40214-.480813.1201-.360609h.48043l-.12011-.601016-.48042-.120203c-1.5614-.601016-1.08097-1.442438-.72064-1.562641l1.56138-.240407 1.08097-.480812-.60054-.120204v-.480812l.60054-.120203.1201.360609v-1.081828l-.36032.120203-.60054.601016h-.36031l.24021-.961626c0-.601016 1.44128-1.081828 1.44128-1.442438l-.48042-1.322235 1.20106-.240406.72065-.841422-1.08097.120203.36032-1.322235c1.56139-1.202032 2.76246-1.202032 2.28203-2.163657l.60054-.480813-.24021-.240406.24021-.360609-.96086.120203.84075-1.322235c.36032-1.081829-.36032-2.404064 1.92171-2.884876l1.08096-1.202032-.60054-.360609.12012-.120204v-.841422c.84074-.240406.96085-.480813 1.08095-1.442438 1.32118-1.562641 1.32118-1.682844 1.80161-2.524266l.36032-1.202032.84075-.480813-.48043-.601016.36032-.120203.48042-.961625 1.6815-2.524267.48043-1.322235 1.08096-1.562641c.60053-.721219.96086-2.043454.96086-3.125282l-.12011-1.682845-.60053-.480812-1.20107.120203-1.08097.721219c-.84074 0-1.08095.120203-1.68149.480813-.48043.601015-.60053.721219-1.6815.841422l-2.52224 1.322235-.96085.120203v.360609l-.96086.480813-.96085 2.043454-1.08097 1.923251-1.08096 2.644469-.84075 1.322235-3.24288 6.010159-.60054 1.322235.12011.480812-.72064.601016-.48042 1.081829c-1.44129 3.005079-1.5614 3.125282-1.92171 3.365688l-.72064 2.283861-.96086.961625-.84075 1.682844-.72064 1.202032-1.6815 3.365689-.1201.480812h-.12011l-.96086 1.923251-1.20107 2.884876-1.68149 2.524267-.480428 1.081828-.960855 2.404064-.840748 1.081828-.72064 1.322235v.961626l-.600534.480812-1.080962 2.764673-.600534 1.562641v.961626h-.360321l-.480427.601016c-.240214 1.081827.120107 1.803046-.720641 2.283859z"/><path d="m119.87146 97.235213.24021 1.202032c.24022.480812.72065.841422.84075.841422.96085.360609.84075 1.081833 1.08096 1.202033.60053.36061 1.44129.48081 2.16193.48081l1.20107-.60101.24021.2404c1.44128 0 1.8016-.2404 2.52224-1.20203l2.28203-1.202032.12011-.841422c1.08096-.120203 1.32118-.360609 1.9217-1.322235h.24022c1.08097-1.202031 1.32118-1.322235 2.16192-1.562641l.96086-1.803047.72064-.120204c.12011-.480812.12011-.721219.60054-1.081828l.36031.480812c.36033-1.081828.60054-1.442438 1.44128-1.803047v-.601016c.36033-.601016.84076-1.081828 1.08097-1.081828l.36032-.120204c.36032 0 .60054-.480812.84075-1.202031l-.12011 2.404063-.1201 2.163657v.721219c0 1.562641.24021 3.365689.96085 5.769752.36032 1.322235.84074 1.923252 1.56138 1.923252 1.32119 0 3.72332-.72122 4.80428-1.322236l1.56139-1.202032 1.08096-.480812.96085-1.562641 2.40214-2.043454 2.16192-2.163657 2.28204-3.00508.60053-.961625 1.20107-1.081829.96085-2.163657 3.00268-2.884876 1.20107-1.92325h-.60054l.24021-.721218-1.20107.721218-1.92171 2.163657-3.24288 3.005079-3.00267 4.447517c-.60053.601016-1.56139 1.081829-2.28203 1.081829-.84075 0-1.32118-.721219-1.32118-1.803048l.12011-4.207111v-1.562641h.24022l.48042-1.081828-.60053-1.202032c.60053-.480813.72064-.961626.72064-1.322234.24021-1.322235.48042-1.442438 1.08096-1.923251v-1.202031l.60053-1.923251.96086-1.081829v-1.803047c.84075-1.803048.84075-2.043454.84075-3.125283l.60053-.961625.96085-2.764673 1.08097-1.322235.60053-1.562641.60054-.480813.60053-1.081828.72064-1.322235.12011-.601016.48043-.721219-2.04182-.120203.60054-1.322235-1.20107.480813.1201-.721219-.48043-.480813.60054-2.163657h-.24021l-.96086-3.005079h-.24021c-1.20107-2.404064-2.40214-3.245486-4.80427-3.726299-.72065-.480812-1.08097-.601016-1.80161-.601016-2.04181 0-3.36299.480813-4.68416 1.562642l-.24022-.120203-2.88256 2.644469-6.48577 4.808127c-1.6815 1.322235-5.40482 4.808127-7.68684 7.452597-2.16192 2.524266-2.88256 3.606095-4.08363 6.010158h-.12011l-1.20107 2.163657h-.24022l-.60053.961626-.36032 1.202031-1.6815 3.365689c-3.6032 9.856659-2.88256 9.736456-3.00266 11.058691l.24021.360609-.48043.601016-.24021 2.163657.84074.961625-.24021 1.322235-.36032.120203-.12011 1.081829c0 .721219.12011.961625.96086 1.322235v.360609l.12011.240407v.601016l-.36033.480812zm11.29004-14.664787-.60053-1.442438.72064-1.081828-.60053-.240407v-.601016l.36031-.360608.24022-1.803048.36032-.721219c.84074-.961625.60053-1.202031.72064-2.28386l.60053-1.442438.36033-.961625.72064-1.442438.60053-2.764673.84075-1.202032c.72064-3.125282 1.20107-4.086908 2.40214-5.409143l.72064-.961625c1.32117-2.163657 1.44128-2.28386 2.52224-3.245486l.72064-1.081828c.84075-1.202032 1.56139-1.803048 2.28203-1.803048 2.40214 0 4.56406 4.447518 4.56406 9.255644 0 1.682845-.24021 3.245486-.60053 4.687924l-3.72331 8.654628-2.28204 7.693002-7.20641 6.010159c-.72064.601016-1.32117.721219-2.52224.721219-1.20107-2.043454-1.56139-2.764673-1.56139-4.207111l.12011-1.202032h-.24021l-.24022-.841422.48043-.36061z"/><path d="m190.56904 99.038261.60053-1.081829-.60053-.240406v-.36061l.84074-.480813-.36032-.601015 1.08096-2.163657.12011-.841423.48043-.120203.36032-1.442438.96085-.841422.12011-.480813h-.24021v-.360609l1.20107-1.923251-.12011-.360609-.60053-.120204v-.480812l.96085-.120203.48043-1.081829h-.48043v-.480813l.72064-.120203c.72064-.961625.84074-1.322235.96086-2.163657h.24021v-.841422h-.72064c0 .360609 0 .480813-.36033.961625l-.48042-.120203c.60054-1.081828.84075-1.322235 2.40213-1.682844v-1.081829l.60054-.360609c0-.721219.60053-1.803047 2.52224-2.764672l3.96353-1.923251 1.56139-.721219 1.08096-.721219 2.28203-.721219c.24021-.120203.48043-.36061 1.20107-1.803048h-1.8016-.84075l-3.00267 1.081829-2.28204.721219-1.20106.721219-1.08096.480813v-.601016c.60053-.120203.72064-.240407 1.08096-.961626l-.24022-.240406c.48043-.841422.60054-1.081828 1.44128-1.442438v-.360609l.72065-1.562642.84075-1.322235.24021-1.202031.60053-.480813c0-.961625-.1201-1.202032.60054-1.923251l.84074-1.081828-.24021-.36061.36033-.240406v-.721219c1.68149-1.562641 1.80159-1.923251 2.40213-3.485892l1.56139-2.28386-.36032-.601016 1.08096-.961625 1.32118-3.00508 1.44128-2.28386.96085-2.524266.36032-.961626-1.44128-.601016-.72064.120203-1.44129.961626-4.68416 1.803047-1.8016 1.442438-1.08096.480813c-.72064.240406-2.04182 2.28386-5.2847 7.813206-1.80161 3.005079-2.64235 4.567721-3.24289 6.490971h-.24022l-5.2847 10.457676-1.56138 4.086908-1.5614 3.125281-2.40213 2.043454-2.40214 2.28386c-1.32117 1.202032-3.48309 2.163658-4.92438 2.163658-1.20106 0-2.64235-1.923251-2.52224-3.485892l.24021-1.322235.12011-1.562641-.48043.240406.12011.360609h-.60053l.1201-1.081828.72064.240406c.48043-.721219.60054-1.081828.60054-1.682844-.24021-.36061-.48043-.841422-.48043-1.081829l.1201-.120203h.36033l.72064-.240405c-.48043-.601016-.48043-.841422-.72064-1.682845l1.8016-1.081828c-.36032 0 .36032-1.682845-.12011-2.163657.84075-.480813 1.08096-.601016 1.6815-1.562641v-.36061l-.72064-.480813v-.240406h-.24021l.24021-.480813c.96085-.120203 1.20107-.360609 1.8016-.961625l-.1201-.240406v-.721219l1.08095-.240407v-.360609h-.36031l-.12012-.36061 1.32119-.601016-.24022-.360609.72064-1.081829c1.08096-1.202031 1.08096-1.202031 1.08096-1.92325-.36032-1.322235.12011-1.081829.60054-1.081829l1.32117-1.442438.96085-1.803047c.12012-.120204.48043-.36061 1.32118-1.803048.36032-1.322235.60053-1.682844 1.56139-2.404063v-.961626c1.32118-1.202031 1.68149-1.682844 2.52225-3.485892 1.56138-2.043454 1.92171-2.884876 2.28202-4.808127-.36031-.240406-.48043-.360609-.72064-.360609s-.36032 0-.60053.120203l-.84075.480813-1.92171.841422-.96086.841422-2.88256 1.562641-3.72331 2.524267c-.84075.601016-.60054.36061-1.92171 2.043454l-2.28203 2.404063-1.92171 2.524267-3.36299 4.327314-1.6815 3.005079-2.16192 4.687924-1.32117 1.682844-1.08097 2.404064-.60053 2.163657-.96085 2.043453-.48043 3.966704-1.08097 1.803048-.1201 2.043454-.12011 1.562641.36032 1.562641s-.12011.240406-.24021 2.64447c.60053.240406.72064.360609.84074.961625h-.24021l-.1201.240407.72064.961625.1201.841422.72064.36061c.24022.841422.36033.961625 1.08097.961625v.360609l-.84075.841423-4.20374 3.606095c-7.80695 6.85158-12.61122 14.30418-12.61122 19.71332 0 3.00508 1.32118 5.64955 3.36299 6.85158.84075.48081 1.92171.96162 4.80427.96162 1.6815 0 2.16193-.48081 3.12278-1.20203v.36062l.48043-.12021.96085-.84142 2.16193-1.08183.60054-.72122.60052-.24041 1.92171-1.80304 1.20107-.60102v-.48081c.96086-.24041 1.20107-.36061 3.72332-2.40407l.1201-.84141.72064-.12021.72064-.84142 2.04183-1.44244c2.16192-1.56264 1.68149-1.92325 2.64235-2.28386l.72064-1.08183 1.80159-.96162.36033-.84143-.48043-.72122c.72064-.2404.96086-.3606.96086-1.32223l1.44128-.2404v-.84143l.84074.36061.48043-.12021-.1201-.60101 1.08095-2.28386.60054-.60101c.24022-.72122.48043-.96163 1.32117-1.32224l-.36031-1.08183h-.72064c.72064-1.44243 1.08095-1.68284 2.52224-1.68284l.48042-.48081-.24021-.60102.72064-.601017v-.841422zm-6.24556-9.976864.48043.240407c-.72064 3.606095-2.28204 8.053612-4.56406 12.140516l-3.84342 7.21219-1.08097 2.04346c-3.36299 5.52935-7.56672 9.25564-10.5694 9.25564-.60053 0-1.20107-.24041-2.40214-.60101v-.72122c-1.08095-1.08183-1.32117-1.56265-1.32117-3.00508 0-4.20711 1.08096-6.25057 5.76513-12.14052l.84074-1.08183-.1201-.24041 1.32117-.60101.24022-.72122 1.08096-.841424 3.72331-3.365689 5.04449-3.726298c.60054-.841422.48043-.721219 2.16192-1.202032l1.44128-1.562641z"/></g></g></svg>