<svg height="162.40361" viewBox="0 0 1065.7224 243.60542" width="710.48163" xmlns="http://www.w3.org/2000/svg"><text fill="#fff" fill-opacity=".5" font-family="TrasksHand" font-size="3" stroke-width="3.75" x="670.54053" y="41.144962"><tspan fill="#fff" fill-opacity=".5" font-size="3" stroke-width="3.75" x="670.54053" y="41.144962">John Loreth 2022</tspan></text><path d="m854.57018 2.8729457c-6.95879-1.1055035-9.08339 4.4196978-8.56549 9.0101673l1.61792 79.903035-1.25781 1.078125c.61211-3.673213.93766-7.53724.71484-11.806641-7.932-47.617324-63.03252-43.650932-94.36589-24.472656-15.68767-15.222543-33.2183-15.518998-52.20953-11.810775-22.08026-.917994-46.22741-.243046-68.52223-.20485 7.07877-15.922784 24.03989-31.033223 8.01397-33.010631l-128.46103-.146211c-6.43746.367176-5.75924 3.749039-9.84801 8.551903-20.64728-19.01925185-56.19557-10.486513-65.3429-8.682736-100.92551.928009-232.48085-1.061118-336.16472-.245068-6.852102.101566-8.738515.317763-16.183641 12.544462l-33.724901 59.658348c-5.580814 10.476679 6.727697 8.668968 17.387461 9.663591-18.874982 32.563601-49.818114 88.728721-64.0943007 111.449371-1.4062071 2.37022-1.8922764 7.28834 7.1529347 7.3605 43.835682.34971 243.456937.0686 301.417377.26223 5.23602.13876 5.19718-.36305 8.76026-5.57551l6.32968-11.08416c1.56682 2.27536 3.27869 4.42014 5.28321 6.24024 7.62697 8.23904 26.13671 13.7323 43.15295 13.18756 18.26311-.58466 34.32008-5.73381 40.5743-10.45027 4.80384-3.62269-4.5188 6.25626 8.95079 8.45378 3.35324.54707 29.66331.87043 36.69849-.78895-.56843 3.11276-.82971 7.10038 2.36826 9.04142 10.62763 6.45052 22.80787 13.44803 37.03898 17.08845 12.72392 3.25488 26.27755 2.91241 33.15481 2.51072 15.71509.0891 31.18963-1.08282 45.68447-.16966l42.43085.18652c9.23691-.00049 9.87396.23173 14.49257-7.76758l12.0297-20.97558c18.39242-1.36128 29.48379-5.08223 42.91821-14.21309 12.13242 14.1758 27.23368 17.44774 54.52496 13.24039 32.95556-.94382 48.53044-.42932 81.77761-.10972 6.01878.34673 12.02293-8.51661 21.66215-16.00947 1.11894 9.38043-.94148 15.54767 7.25637 15.65297l79.85995.1722c6.16701.0744 7.55876-1.12426 7.31661-7.21822l-2.06904-87.43007c37.54822-32.010894 81.54533-72.124873 118.25243-103.389151 1.4807-.905213 5.8701-8.3990465-3.0371-9.537327-12.1928.7231081-100.57666-.1925747-106.07526.3267895l-12.1189 11.1928545c-3.3644-7.7740672 1.8606-10.8523499-9.37876-11.1476282z" style="opacity:.98;stroke:#fff;stroke-width:5.5;stroke-linecap:round;stroke-linejoin:round;stroke-opacity:.970748"/><g fill="#fff" transform="translate(.77105 1.426773)"><path d="m917.90707 183.45738h-41.93498l-1.59586-45.69938-53.31838 45.69938h-43.09723l95.16317-81.5647-2.60281-74.53458h41.93498l1.45403 41.63787 46.17478-41.63787h43.09723l-88.08946 75.5018z" fill="#2a7fbd" opacity=".98"/><path d="m478.62891 45.892578c-2.64475-.04327-5.81298.266027-9.69922 1.056641l-6.29883 1.990234c.85281-1.449283.73967-2.111523-.33789-1.990234h-20.05469l-55.48437 96.101561h25.02539l11.48437-19.89062c21.66176 4.87487 34.37319-9.02509 41.58399-16.98047 9.18123-13.986436 18.58336-27.86359 24.57422-43.414065 3.25768-9.062185 1.33137-13.917417-4.23829-15.816406-1.78974-.617549-3.90994-1.013374-6.55468-1.056641zm-19.16797 16.773438c2.10338-.08787 4.10665 2.040079 2.7832 4.693359-6.69702 13.3676-14.6663 26.032412-22.41406 38.820315 0 0-2.21377 3.7516-8.21875 2.25976 13.16246-23.66243 20.31501-35.914265 25.83203-44.884762.60394-.584139 1.31645-.859381 2.01758-.888672z" stroke-width=".666667" transform="matrix(1.5 0 0 1.5 -.77105 -1.426773)"/><path d="m656.50579 68.99597-66.78434 115.67387c-13.27566 15.7291-29.96992 27.34989-54.63445 29.39232-21.52799.88506-34.25061-1.8218-41.3605-6.81822l13.00299-21.22782c19.1499 6.61441 29.26458 6.07477 37.68782 4.19586 5.69622-2.36458 9.52855-6.35002 12.57456-11.01924l-21.2848.34094-11.34716-31.35566 45.60866-79.18205h37.82414l-45.01389 77.96635 3.7109 9.13252c1.8056-.74332 2.87301-1.95671 3.9072-3.19125l48.44409-83.90762z" opacity=".98"/><path d="m456.65914 185.36518h39.05967l69.09029-119.667903h23.34621l18.60997-30.615737-87.35075.695337-17.27455 29.9204h23.60945z" opacity=".98"/><path d="m309.40039 22c-17.31247-.258785-30.86337 9.829586-34.49219 12.691406-10.56947 8.335489-31.18575 47.56722-43.98242 71.441404-11.01437 27.25867 42.69563 28.96339 62.38477-6.10937l23.87695-40.980471c7.40001-12.701232 19.63655-32.374628-.15625-36.248047-2.60881-.51054-5.15765-.757953-7.63086-.794922zm-11.33594 17.048828c2.3014-.102883 3.97324 1.550547 1.32422 5.646484l-35.69336 61.824218c-1.35824 2.93391-9.03517 3.3488-6.99219-1.18164l36.5879-63.183593c.8121-1.883577 2.98346-3.025448 4.77343-3.105469z" stroke-width=".666667" transform="matrix(1.5 0 0 1.5 -.77105 -1.426773)"/><path d="m262.85962 184.66984h39.05967l69.09029-119.6679h23.34621l18.26185-29.9204h-87.00263l-17.27455 29.9204h23.60945z" opacity=".98"/><path d="m197.12748 184.66984 86.52762-149.5883h38.95475l-86.61264 149.5883z" opacity=".98"/><path d="m134.27539 24.339844-71.134765 99.724606h27.5l11.261715-17.88476h9.36524l-9.3086 17.88476h27.19532l42.74218-99.724606zm5.60742 24.597656-19.26562 39.285156h-8.75586z" stroke-width=".666667" transform="matrix(1.5 0 0 1.5 -.77105 -1.426773)"/><path d="m42.859618 184.66984h39.059673l69.090289-119.6679h23.34621l21.34201-29.9204h-90.08279l-17.274549 29.9204h23.609449z" opacity=".98"/><path d="m533.56836 45.435547c-12.45276-.505897-28.75063 7.449717-41.91602 24.181641-21.98557 27.941514-29.2845 55.384452-6.33203 55.130862 16.34783-.18063 32.03217-7.75447 39.61914-23.64258.001-.003.003-.005.004-.008l-19.91016-.10352-2.54687 4.64648c-2.70736 4.89003-7.18192 1.41345-5.35742-2.11523l7.78711-14.740234h28.57031c10.366-16.222855 18.78308-34.81314 10.99414-40.035156-3.0383-2.036995-6.76119-3.145821-10.91211-3.314453zm-10.11524 16.941406c1.22212.07049 2.10585 1.067187 1.62696 3.0625l-4.45508 7.925781-6.79492.06055 5.96289-8.554687c.87739-1.70844 2.43804-2.564633 3.66015-2.494141z" stroke-width=".666667" transform="matrix(1.5 0 0 1.5 -.77105 -1.426773)"/></g></svg>