<svg enable-background="new 0.25 0 567.927 113.032" height="191.37212" viewBox=".25 0 248.13016 95.686058" width="496.26031" xmlns="http://www.w3.org/2000/svg" xmlns:xlink="http://www.w3.org/1999/xlink"><linearGradient id="a" gradientUnits="userSpaceOnUse" x1="251.22699" x2="182.20859" y1="180.82822" y2="6.901841"><stop offset="0" stop-color="#572b13"/><stop offset=".53976196" stop-color="#69371e"/><stop offset=".68582207" stop-color="#794425"/><stop offset="1" stop-color="#814228"/></linearGradient><g transform="matrix(.43853486 0 0 -.43853486 -4.473634 126.981276)"><path d="m103.87 289.53c4.37-5.87 10.1-10.57 16.1-14.69 14.19-8.38 31.15-8.94 46.97-11.9 10.98-2.27 22.28-5.52 30.99-12.91 10.82-9.57 17.86-23.43 18.55-37.92 1.22-19.01-9.15-37.18-23.59-48.94-1.53-.77-.33-2.37-.18-3.53 1-3.54-.17-7.17-1.71-10.35 10.74-7.39 18.19-19.3 20.26-32.15 2.5-13.27-1.1-27.93-10.56-37.77-5.31-4.97-12.51-7.78-19.77-7.96-13.25.11-27.14 5.35-35.3 16.15-4.8-.54-9.16 2-13.45 3.73h-86.55c2.44 3 4.76 6.45 6.84 9.7-10.51 2.38-21.34 6.7-32.21 3.81-2.89 5.3-4.51 11.22-4.42 17.27-9.02 12.48-5.29 31.31 6.43 40.72 6.19 4.76 14.36 4.88 21.78 4.05 4.78-.88 9.75-3.36 11.85-7.99 1.43-2.76 1.12-5.94 1.18-8.95 1.77-1.42 2.95-3.35 3.53-5.55 4.5 6.57 11.45 12.18 19.63 12.84-4.49 6.89-9.7 14.38-9.22 22.98 2.01 6.79 7.42 12 12.86 16.25.24 10.22 1.75 20.71 6.54 29.87-1.22 4.88.28 9.82 1.86 14.43 3.15 8.62 7.5 17.05 8.03 26.38.27 4.73.23 9.65-1.39 14.17 2.55-1.97 5.36-3.54 8.21-5.02-1.35 4.35-2.49 8.78-3.26 13.28m8.42834-15.31049c.65-3.25.0917-5.0516 1.37172-8.1316-3.41 1.21-5.67006 4.76209-8.38006 6.96209-.48-4.62-.87-9.32-2.57-13.68-2.67-8.92-9.58-16.7-8.57-26.51 3.44 2.91 6.93 5.75 10.27 8.77 2.13 1.51 1.6 4.34 2.08 6.58 1.84-1.14 1.81-3.48 2.32-5.35.56-4 3.07-7.48 2.98-11.61-2.03 3.2-3.4 6.73-4.99 10.15-4.25-4.28-8.87-8.32-11.98-13.55 2.43 1.88 4.71 5.13 8.23 4.29 2.89-.17 3.51-3.7 4.24-5.94 1.55-5.54-1.06-12.8 4.07-16.92-1.68-3.84-3.74-7.54-5.12-11.5-.31-2.9-.53028-7.75946-2.22028-10.28946.009.26011-.64172.98568-.82911.80893-1.13809-1.07349 1.1072 1.91986 1.10725 2.00117.001 2.10137-.19059 4.13387-.0269 6.25283-.38927.61697-.1564 1.11388-.37092 1.57653-.91 2.47-2.11 4.83-3.91 6.78l1.31.64c-.58 1.25-.44 3.35-2.29 3.37-3.54-.85-5.37-4.38-6.75-7.42-1.29-3.69-2.94-7.61-2-11.59-.38.26-1.13.77-1.51 1.03.15 5.92 1.27 12.02 4.31 17.16 1.38 2.35 4.12 3.19 6.71 3.06-.79 1.7-1.73 3.32-2.87 4.81-4.42-1.56-7.19-5.73-9.3-9.68-.95-3.97-1.05-8.12-1.7-12.16-4.71-3.95-9.3-8.44-11.2-14.46 2.62 1.15 5.25 2.9 8.25 2.37 3.11-1.56 4.97-5.54 4.02-8.93-2.28-3.42-5.74-5.85-8.92-8.39 4.59-7.35 10.03-14.37 17.1-19.49 2.41-1.98 5.62-2.17 8.56-2.64 8.97-1.07 17.89-2.4 26.75-4.14 4.82 10.52 15.58 16.93 26.72 18.67-1.25 1.63-2.44 3.3-3.41 5.1 3.44-.66 4.84-4.67 8.34-5.21-1.35 2.66-3.58 4.68-5.71 6.7 8.03 5.91 11.4 16.37 10.53 26.05 3.42.8 6.78 1.95 9.72 3.92-1.74 4.16-4.47 7.78-7.54 11.03 1.67-.08 3.34-.16 5.03-.24-2.72 2.31-5.55 4.47-8.43 6.57 1.59-.05 3.19-.12 4.78-.19l-2.58 2.46c-7.98-.49-15.99-.61-23.97-.19-5.78.41-11.32 2.16-16.82 3.78-6.54-2.2-6.64-10.52-7.31-16.22-3.07 3.55-5.42 7.89-4.94 12.74-1-1.25-1.98-2.51-2.97-3.77-.39 3.22-.74 7.07 1.71 9.61 1.33 1.7 3.39 2.48 5.37 3.17-2.52 2.38-5.48803 5.74846-7.16803 8.80846l-.0764 1.57903c1.62-1.67 4.65439-5.98749 6.86439-6.97749.22-.79.67-2.38.89-3.17l.15 1.13c.74-.84 1.47-1.67 2.21-2.5-2.27-1.01-5.46-1.19-6.66-3.67-.61-1.47 1.77-2.02 1.52-3.48.1-3.14-.3-6.5 1.75-9.15.59 3.19.59 6.59 2.11 9.53 1.45 2.23 3.98 3.32 6.2 4.59 2.19-1.2 4.52-2.08 6.9-2.78 3.54907-.11755 3.46405-1.06341 7-.84 5.03-1.23 10.23-1.47 15.38-1.51 4.49.23 8.93 1.13 13.44.85 1.12-1.52 2.27-3.03 3.43-4.52-.55-.14-1.64-.4-2.19-.54 2.07-1.63 4-3.44 5.55-5.58-1.38-.21-2.77-.41-4.15-.62 2.42-3 7.82185-6.26085 8.48185-10.30085-1.44-3.51-5.85-3.81972-8.63-5.93972.35-9.31-4.48043-17.08915-10.82043-23.61915 1.2-1.41 2.82043-.958 4.10043-2.298 5.43 6.36 15.20957 10.39986 22.82957 5.44986 2.29-1.92 3.31858.0194 4.97858 1.53943 4.27 4.42 7.67886 7.80886 10.46886 13.35886 10.37 17.02 8.23763 38.70857-3.37237 54.72857-2.71459-3.01272-11.48247 12.70249-17.22741 16.0145-10.05 4.85-19.86908 7.76565-30.85908 9.52565-14.29 2.05-24.83092 2.18987-37.03092 10.33987m-16.75908-43.75902c-4.73-3.34-3.572945-4.7889-4.262945-10.4689 2.45 1.75 2.64724 2.47927 5.75724-.0807 4.029995-4.84 1.345705-9.82331 5.775705-14.46331 1.14 2.78 1.60975 2.28914 2.22975 5.24914-.72 3.21-2.46012 5.37975-2.59012 8.69975-.48 3.55 1.06227 6.8138-1.04773 9.9238-1.42 2.08-2.80356 1.74608-4.573556.49608m-25.398344-52.26586c1.78-.01 3.59.24 5.35-.12.65-.92 1.16-1.98 1.28-3.13-1.43-2.23-4.56-3.7-3.94-6.8 3.4 1.93 6.71 4.29 8.97 7.53 1.23 3.08-.77 6-2.87 8.07-3.56-.28-8.29-1.27-8.79-5.55m.75-.7c-.05-2.24.41-4.44 1.41-6.45 1.11 1.66 4.04 2.87 3.49 5.19-1.03 1.75-3.25 1-4.9 1.26m-45.06-10.62c-5.34-1.04-8.5-5.8-11.06-10.16-3.56-6.43-5.73-13.92-4.67-21.3 1.48-6.67 7.02-12.41 13.86-13.49 5.17-.76 10.25 2.16 13.3 6.2 3.82 5.1 6.26 11.49 5.65 17.93 2.43 1.29 4.99 2.82 6.13 5.45 2.13 4.25.26 9.68-3.58 12.27-5.51 4.31-13.07 4.51-19.63 3.1m134.91-6.73c2.96-.37 5.93-.66 8.88-1.18 2.96-.67 5.87 1.08 8.85.33-1.6-.68-3.34-.84-5.03-1.07 2.83-1.06 5.64-2.2 8.43-3.37 2.5 3.92 1.41 9.71-3.01 11.73-6.61 2.86-13.98-1.24-18.12-6.44m-102.26-16.82c.57-3.48.99-6.98 1.4-10.48-1 2.73-1.81 5.51-2.63 8.29-2.17-3.13-3.22-7.25-6.72-9.27-2.03-1.41-4.54-1.47-6.9-1.73-3.16-5.97-9.02-10.33-15.58-11.85-2.06-2.36-4.22-4.64-6.61-6.67 9.82 1.95 18.67-5.22 28.48-3.93 1.58.22 2.1 1.89 2.85 3.05 3.33 6.09 6.28 12.38 9.12 18.71 2.78 6.14 4.99 12.6 8.84 18.19 2.19 3.69 5.58 6.44 7.97 9.98-8.73-.57-15.85-7.14-20.22-14.29m79.26 6.4c-7.92-6.6-10.96-17.39-10.78-27.36.12-6.48 5.04-11.62 10.74-14.03 1.3 3.48 3.01 6.87 5.85 9.34-1.6-5.3-2.87-10.81-2.42-16.4.7-3.91 1.83-7.91 4.56-10.93 6.18-7.16 15.47-10.66 24.51-12.5 7.82-1.62 16.11 1.25 21.83 6.69 7.76 6.98 10.8 17.75 10.96 27.9-.08 2.88.3 5.94-.87 8.65-1.45 11.11-7.63 21.42-16.51 28.2-7.11 5.24-15.92 7.64-24.66 7.97-8.12-.75-16.81-2.02-23.21-7.53m-74.2-21.81c-4.36-11.54-9.27-22.79-15.67-33.35h15.51c2.78 4.32 5.32 9.03 6.74 13.99 2 6.37 3.86 13.32 9.23 17.78-3.4 1.62-7.24 2.63-9.91 5.45 4.32-1.41 8.42-3.47 12.96-4.2 1.77 3.24 4.71 5.54 7.82 7.42-4.92 3.44-8.64 8.76-9.93 14.63-.56 1.98 1.5 4.5-.76 5.94-7.67-7.61-12.05-17.78-15.99-27.66m19.28 23.33c-.07-6.23 3.7-12.19 9.15-15.11.27 2.29.37 4.59.23 6.89-3.75 1.97-6.4 5.33-9.38 8.22m-30.95-1.55c-1.42-2.41-3.38-4.43-5.83-5.79.06-3.96-.43-7.89-1.34-11.74 7.37 1.47 12.47 11.46 7.17 17.53m41.73-6.83c.05-2.92-.52-5.92.31-8.79 1.69 2.34.38 5.53 1.97 7.88.14-2.69.08-5.39.03-8.09 8.91-3.13 18.48-2.38 27.66-1.18.58 1.5 1.19 2.99 1.79 4.48-8.53 2.98-17.4 4.75-26.42 5.29-1.81-.05-3.7-.71-5.34.41m-9.53-15.35c.65-.01 1.94-.03 2.59-.04 1.95 2.44 4.79 4.26 5.87 7.29-3.87-.87-6.59-3.94-8.46-7.25m3.92-.95c7.93.08 15.84-1.32 23.76-.36-2.15-.9-4.38-1.75-6.74-1.69-6.36-.07-12.74-.25-19.04.71-10.47-6.72-13.24-19.5-16.44-30.66h57.49c-8.15 5.64-11.79 19.03-3.54 26.15-.74 3.59-.65 7.29-.1 10.9-9.79-1.6-19.96-1.72-29.52 1.2-2.59-1.42-4.38-3.77-5.87-6.25m-6.56-.14c-4.03-3.37-7.1-7.8-8.68-12.82-2.05-6.57-4.41-12.99-7.73-19.04h2.76c2.18 4.71 3.69 9.81 5.28 14.75 1.92 6.2 5.63 11.83 10.55 16.05-.73.36-1.46.71-2.18 1.06m-66.67-4.76c.66-3.11 1.43-6.21 2.51-9.21 2.07 1.81 4 3.75 5.86 5.77-3.1.26-5.8 1.84-8.37 3.44m107.78-14.11c1.04-7.72 8.45-14.45 16.47-13.2-1.02 3.47-1.28 7.09-1.57 10.67-5.15 1.78-9.72 5.3-12.17 10.24-1.98-2.04-2.95-4.89-2.73-7.71z" fill="#322010" stroke="#322010" stroke-miterlimit="10" stroke-width=".09375"/><path d="m138.76172 29.925781c.8125 4.0625 1.43906 8.2125 3.03906 12.0625-4.2625-1.5125-6.8-5.550781-10.1875-8.300781-.6 5.775-1.08789 11.649609-3.21289 17.099609-3.3375 11.15-11.97539 20.876172-10.71289 33.138672 4.3-3.6375 8.66289-7.18789 12.83789-10.96289 2.6625-1.8875 1.99961-5.42461 2.59961-8.22461 2.3 1.425 2.26289 4.35 2.90039 6.6875.7 5 5.26054 7.437753 5.14804 12.600253.15.275 2.22301 2.790416 2.38551 3.065416l-1.72105-.267231c2.025 2.0875 3.66133 4.6375 6.42383 5.875-.1875-.6625-.54883-1.961328-.73633-2.611328-2.2625-2.775-4.30117-7.42461-.51367-9.91211.5875-1.7 1.16289-3.401172 1.77539-5.076172 2.1375 6.475 1.25039 13.475391.77539 20.150391.925 1.05 1.83672 2.0875 2.76172 3.125-2.8375 1.2625-6.82422 1.487891-8.32422 4.58789-.7625 1.8375 2.21289 2.52461 1.90039 4.34961.125 3.925-.375 8.125 2.1875 11.4375.7375-3.9875.73672-8.23711 2.63672-11.91211 1.8125-2.7875 4.975-4.15078 7.75-5.73828 2.7375 1.5 5.65 2.59961 8.625 3.47461 6.9-4.900001 14.13867-9.287111 20.88867-14.412111-.55.9875-19.31406 13.121481-19.91406 14.083981.23435.88414 4.73704 1.22096 9.07226 1.66407 5.8828 1.27861 11.93113 1.55498 17.92774 1.60156 5.6125-.2875 11.16328-1.4125 16.80078-1.0625 1.4 1.9 2.83711 3.78789 4.28711 5.65039-.6875.175-2.04883.50078-2.73633.67578 2.5875 2.0375 5 4.29961 6.9375 6.97461-1.725.2625-3.4625.51289-5.1875.77539 3.025 3.75 7.66133 6.85039 8.48633 11.90039-1.8 4.3875-7.31211 5.1-10.78711 7.75.4375 11.6375-5.11211 22.3375-13.03711 30.5 1.5 1.7625 3.03672 3.47344 4.63672 5.14844 6.7875-7.95 19.50039-13.16211 29.02539-6.97461 2.8625 2.4 5.77461-.67422 7.84961-2.57422 5.3375-5.525 10.90117-11.0625 14.38867-18 12.9625-21.275 11.02422-50.012109-3.48828-70.037109-5.73675-8.553616-13.73248-15.336196-22.30078-19.71289-12.5625-6.0625-26.09844-9.850782-39.83594-12.050782-17.8625-2.5625-36.10156-6.361328-51.35156-16.548828zm73.75781 38.765625c.29915.136664.61101.241754.9375.306641-.32649-.06489-.63835-.169977-.9375-.306641zm-52.82031 5.470703c.7125 1.3625 1.35 2.825391.9375 4.400391-.875 6.4625-2.5625 12.8375-5.1875 18.8125-1.6375-.3375-1.57383-2.375391-1.86133-3.650391-.925-7.0125 1.38633-14.3125 6.11133-19.5625zm5.01367 10.488282c-.8125 4.575-1.67461 9.299609-4.66211 13.037109-1.3125-4.975 1.44961-9.487109 4.66211-13.037109zm22.53711 12.886718c-.11565.0982-.23514.191899-.35156.289063.21635-.219696.34378-.329529.35156-.289063zm4.3125 3.300781c-2.1375 2.6875-4.94961 4.98633-8.34961 5.79883 2.5-2.3125 5.32461-4.24883 8.34961-5.79883z" fill="url(#a)" transform="matrix(.8 0 0 -.8 0 300)"/><g stroke-miterlimit="10" stroke-width=".09375"><path d="m106.81 241.4c1.59-3.42 2.96-6.95 4.99-10.15.12-.22.38-.67.51-.89 1.68-3.06 4.16-5.55 6.68-7.93-1.98-.69-4.04-1.47-5.37-3.17-2.45-2.54-2.1-6.39-1.71-9.61.99 1.26 1.97 2.52 2.97 3.77-.48-4.85 1.87-9.19 4.94-12.74.67 5.7.77 14.02 7.31 16.22 5.5-1.62 11.04-3.37 16.82-3.78 7.98-.42 15.99-.3 23.97.19l2.58-2.46c-1.59.07-3.19.14-4.78.19 2.88-2.1 5.71-4.26 8.43-6.57-1.69.08-3.36.16-5.03.24 3.07-3.25 5.8-6.87 7.54-11.03-2.94-1.97-6.3-3.12-9.72-3.92.87-9.68-2.5-20.14-10.53-26.05 2.13-2.02 4.36-4.04 5.71-6.7-3.5.54-4.9 4.55-8.34 5.21.97-1.8 2.16-3.47 3.41-5.1-11.14-1.74-21.9-8.15-26.72-18.67-8.86 1.74-17.78 3.07-26.75 4.14-2.94.47-6.15.66-8.56 2.64-7.07 5.12-12.51 12.14-17.1 19.49 3.18 2.54 6.64 4.97 8.92 8.39.95 3.39-.91 7.37-4.02 8.93-3 .53-5.63-1.22-8.25-2.37 1.9 6.02 6.49 10.51 11.2 14.46.65 4.04.75 8.19 1.7 12.16 2.11 3.95 4.88 8.12 9.3 9.68 1.14-1.49 2.08-3.11 2.87-4.81-2.59.13-5.33-.71-6.71-3.06-3.04-5.14-4.16-11.24-4.31-17.16.38-.26 1.13-.77 1.51-1.03.15-.16.46-.48.61-.63 2.206342-2.09159 4.500296-4.20337 6.39-6l.24-.24c3.11568 2.5052 5.92731 4.37099 7.51291 7.59872.95373 2.22904.97075 4.74328 1.22709 7.14128 1.38 3.96 3.44 7.66 5.12 11.5-5.13 4.12-2.52 11.38-4.07 16.92-.73 2.24-1.35 5.77-4.24 5.94-3.52.84-5.8-2.41-8.23-4.29 3.11 5.23 7.73 9.27 11.98 13.55m4.37-38.3c.09.64.29 1.91.39 2.55-1.81 1.09-2.45-3.25-.39-2.55m15.79-1.95c-2.31-.3-3.16 2.23-4.45 3.62-3.51-5.11-4.17-12.58-.84-17.9-.93-1.59-2.04-3.11-2.6-4.89-.68-2.37 1.17-4.72.18-7.04 5.55 2.04 11.34.1 16.84-1.06l.61-.41c1.81-1.07 3.55-2.25 5.26-3.46 1.16.46 2.01091 1.30043 3.18091 1.75043l.03909-.06043c1 .75 2.04 1.45 2.97 2.29 2.65 2.82 4.82 6.12 5.46 10.01 2.33-3.59 3.69-7.71 3.88-12 .56.69 1.12 1.37 1.68 2.06l-.13.48c.57 1.17 1.13 2.36 1.67 3.55l-.03.38c2.23 7.34 3.33 15.45.55 22.8-1.27 3.27-5 4.44-8.19 4.71-9.02.68-17.26-4.02-26.08-4.83m-17.85 1.59c-.45-3.1-1.74-6.29-.74-9.43.52 2.48.88 5.02 1.81 7.39-.34.69-.7 1.37-1.07 2.04m8.8-13.55c-.64 4.45-.61 8.93.1 13.37-2.99-3.67-2.66-9.54-.1-13.37m-16.51-7.69c-2.23-.16-3.46-2.49-2.66-4.51.97-3.69 5.02-5.03 8.34-5.75 2.45-.35 5.89-.79 7.33 1.76.93 3.67-3.18 4.7-5.74 5.65-2.49.73-4.7 2.56-7.27 2.85m-14.03-11.92c-.08-.28-.23-.82-.31-1.1 4.16-.45 8.59-1.92 11.18-5.4 1.63-2.06 1.33-5.26 3.72-6.74-.33 7.48-7.34 13.05-14.59 13.24z" fill="#ecba89" stroke="#ecba89"/><path d="m127.76 240.67c.57-1.09 1.08-2.26.75-3.52-.7-5.17-2.05-10.27-4.15-15.05-1.31.27-1.26 1.9-1.49 2.92-.74 5.61 1.11 11.45 4.89 15.65z" fill="#e7e9ed" stroke="#e7e9ed"/><path d="m117.61 235.86c.47 1.36.93 2.72 1.42 4.06 1.71-5.18 1-10.78.62-16.12l-.15-1.13c-.22.79-.67 2.38-.89 3.17-.15.53-.44 1.57-.59 2.09-1.81 2.22-3.44 5.94-.41 7.93z" fill="#cebfba" stroke="#cebfba"/><path d="m128.04 221.85c-1.05 3.98 1.16 7.59 3.73 10.43-.65-3.66-1.34-7.44-3.73-10.43z" fill="#fdfefa" stroke="#fdfefa"/><path d="m98.3 228.62c1.77 1.25 4.81 1.86 6.23-.22 2.11-3.11 1.58-7.11 2.06-10.66.13-3.32 1.41-6.41 2.13-9.62-.62-2.96-2.01-5.69-3.15-8.47-4.43 4.64-2.85 12.2-6.88 17.04-3.11 2.56-6.16-.93-8.61-2.68.69 5.68 3.49 11.27 8.22 14.61z" fill="#5b3018" stroke="#5b3018"/><g fill="#fdfefa" stroke="#fdfefa"><path d="m133.68 216.34c5.52 3.92 11.31 7.43 16.71 11.53-.44-.79-.91-1.57-1.39-2.34-4.72-3.59-9.63-7.33-15.32-9.19z"/><path d="m149.6 223.02c.05-.26.15-.79.2-1.05-2.85-2.42-6-4.44-9.12-6.47l-1.27-.8c2.43 3.86 7.02 5.25 10.19 8.32z"/><path d="m146.57 214.69c2 1.85 4.26 3.4 6.68 4.64-1.71-2.15-3.96-3.99-6.68-4.64z"/></g><path d="m267.71 214c1.49-2.54 2.92-5.12 4.29-7.73-4.33-1.99-8.38-4.53-12.21-7.35 2.45 5.13 5.4 9.99 7.92 15.08z" fill="#62afff" stroke="#62afff"/><path d="m92.27 201.5c1.38 3.04 3.21 6.57 6.75 7.42 1.85-.02 1.71-2.12 2.29-3.37l-1.31-.64c-5.61-2.41-8.33-8.64-8.54-14.45-.15-.3-.44-.89-.58-1.18-.15.15-.46.47-.61.63-.94 3.98.71 7.9 2 11.59z" fill="#fffcff" stroke="#fffcff"/><path d="m111.18 203.1c-2.06-.7-1.42 3.64.39 2.55-.1-.64-.3-1.91-.39-2.55z" fill="#331e0d" stroke="#331e0d"/><path d="m126.97 201.15c8.82.81 17.06 5.51 26.08 4.83 3.19-.27 6.92-1.44 8.19-4.71 2.78-7.35 1.54986-20.2102-2.11171-27.15977-.69 5.21 1.881 14.88484.751 20.06484-.55 3.73-1.43957 7.53408-5.65957 8.51408-9.09 2.09-17.45958-2.10465-26.33958-3.29465-2.1-.2-3.55957.93479-5.45957 1.65479-.7-3.89-2.05-7.34408-.27-11.12408 1.34-2.19 3.87464-.85928 6.00464-.79928 7.48.85 15.32522 2.68 22.83522 1.13 6.11-2.24 6.25196-8.8693 7.96196-14.2193l.22761-1.97663c-.56-.69-1.12-1.37-1.68-2.06-.19 4.29-1.55 8.41-3.88 12-.64-3.89-2.81-7.19-5.46-10.01 1.14 2.51 1.5 5.26 1.23 7.98.04.08.11.24.15.31.6.43 1.35077 1.38761 1.94077 1.80761-1.06 1.28-1.73077 2.42239-2.95077 3.54239-4.58.5-9.34 1.05-13.85-.16-1.16-1.55-1.98-3.32-2.88-5.02l1.4-.7-1.73-.49.8-.29-.03-.89c-.03-1.17-.06-2.34-.08-3.51-.15818 1.41454 13.14717-5.25222 10.63193-6.19702l-.88433-.33218c-5.91411 5.16307-17.0976 6.9392-22.6476 4.8992.99 2.32-.86 4.67-.18 7.04.56 1.78 1.67 3.3 2.6 4.89-3.33 5.32-2.67 12.79.84 17.9 1.29-1.39 2.14-3.92 4.45-3.62m-4.18-14.16c-1.79-3.19-3.9-7.05-1.45-10.5 3.21.43 6.45.27 9.62-.37-.32 4-.28 8.14 1.76 11.74-3.27-.68-6.6-1.01-9.93-.87z" fill="#331e0d" stroke="#331e0d"/><path d="m91.46 190.46c.21 5.81 2.93 12.04 8.54 14.45 1.8-1.95 3-4.31 3.91-6.78l-.74-.15-1.06-.22c-1.65-.39-3.79-.45-4.57-2.26-.66-1.78-.39-4.18 1.5-5.08 1.45.59 2.26 2.02 3.26 3.12.17.22.5.65.66.87.04.55-.58018 3.20141-.54018 3.76141.37.01 1.1.04 1.47.05.9076-2.80214.50211-5.44953.44808-7.40803-.003-.11051.23745-.51807.23427-.62859-.0115-.40058-.26759-.50416-.28217-.90483-1.3-2.69-3.92-4.31-6.3-5.92 1.01 1.48 1.98 3 2.95 4.5-2.72 1.89-5.58 3.55-8.46 5.17 1.03-3.51 3.18-6.5 4.79-9.75-2.06 1.96-4.14 3.9-6.23 5.83l-.16.17c.14.29.43.88.58 1.18z" fill="#5b3119" stroke="#5b3119"/></g><path d="m158.95312 174.47461c-1.71 5.35-2.24351 12.69555-8.35351 14.93555-7.51 1.55-15.15867-.28086-22.63867-1.13086-2.13-.06-4.99008-.73883-6.33008 1.45117-1.78 3.78-.43047 8.07875.26953 11.96875 1.9-.72 3.74961-2.04961 5.84961-1.84961 8.88 1.19 17.64047 5.71109 26.73047 3.62109 4.22-.98 5.49883-5.63133 6.04883-9.36132 1.13-5.18001.77209-9.71265-.0996-15.1504-.30884-1.60034-.90845-3.29614-1.47657-4.48437z" fill="#5a3018"/><g stroke-miterlimit="10" stroke-width=".09375"><path d="m508.37 201.17c0 1.1.01 2.19.02 3.28 8.85 0 17.69.04 26.54-.03 0-.81 0-2.43-.01-3.24-8.85-.06-17.7 0-26.55-.01z" fill="#151221" stroke="#151221"/><path d="m256.87 187.87c2.32 7.43 9.09 12.56 16.17 15.04 2.38-1.06 2.86-4.47 4.28-6.57 1.84-.11 3.67-.22 5.52-.33.32-1.22.66-2.43 1-3.65-5.72 1.08-11.56.77-17.33.4.12-.62.37-1.87.49-2.49 5.25-.94 10.72.58 15.9-.99 5.31-1.48 9.66-5.04 13.87-8.44-2.22-1.92-4.41-3.88-6.54-5.9.44-1.38.88-2.77 1.34-4.16-1.1-.79-2.19-1.58-3.27-2.38-.48 5.14-2.42 9.94-4.67 14.52-1.17-.17-2.34-.34-3.5-.53 2.05-4.6 4.46-9.28 4.63-14.42-.3-5.01-2.59-9.6-4.94-13.94-2.59 1.22-5.06 2.76-7.81 3.62-1.39-.66-2.65-1.58-4.04-2.24-1.51.45-2.9 1.22-4.32 1.88 5.13 2.2 10.41 4.63 14.2 8.87.35 1.55-.27 2.25-1.87 2.11-3.54-2.17-6.5-5.31-10.48-6.75-5.96-2.69-12.62-1.94-18.94-1.5.47 2.61.97 5.21 1.42 7.82-1.27.98-3.73 1.18-3.82 3.16.16 1.15-.31 3.38 1.57 2.85 4.09-3.2 8.12-6.8 13.25-8.2 3.61 1.62-.79 3.82-2.6 4.64-7.83 3.51-13.21 11.54-13.32 20.14 2.56.23 5.12.46 7.68.7l1.56 4.89c1.78.2 3.57.39 5.36.59-3.03-4.72-5.49-9.98-5.69-15.68 4.3-.7 3.77 4.21 4.9 6.94z" fill="#66aeff" stroke="#66aeff"/><path d="m109.99423 204.94859c.37-.67 2.47847-.0617.19577-4.24859-.93-2.37-1.29-4.91-1.81-7.39-1 3.14.6811 9.38982 1.61423 11.63859z" fill="#331e0d" stroke="#331e0d"/><path d="m117.92 189.19c-2.56 3.83-2.89 9.7.1 13.37-.71-4.44-.74-8.92-.1-13.37z" fill="#331e0d" stroke="#5b3117"/><path d="m97.54 195.5c.78 1.81 2.92 1.87 4.57 2.26-1.24-.95-2-2.3-2.63-3.69.71-.13 2.12-.39 2.82-.53-1-1.1-1.81-2.53-3.26-3.12-1.89.9-2.16 3.3-1.5 5.08z" fill="#382940" stroke="#382940"/><path d="m103.29617 197.45491c.44129-1.1419.0856-2.15982-.40108-3.20766-.13479-.32758-.35645-.6685-.72486-.7534-.64749-.19804-1.36568-.25113-2.0135-.0265-.360494.12172-.668097.41794-.739975.80002-.145221.59654.151923 1.19231.51397 1.64967 1.112265 1.20216 2.418275 2.40197 3.365445 1.53787z" fill="#fbfafd" stroke="#fbfafd"/><path d="m307.74 197.96 32.91-.01v-32.91l-6.71.01v26.14h-26.14z" fill="#151323" stroke="#151323"/><path d="m347.03 198.005h32.955v-6.815h-26.41v-6.335h26.41v-6.815l-26.41-.11v-6.05h26.41v-6.845h-26.41c-3.25-.19-6.625 2.685-6.545 5.865z" fill="#161423" stroke="#161423"/><path d="m387.03 189.98c.79 5.15 6.09 8.205 11 8.025h21.71v-6.835c-7.26-.13-14.55.26-21.8-.25-3.86-.31-4.58-4.81-4.83-7.89-.21-3.96.09-9.17 4.27-11.02 7.44-.42 14.91-.19 22.36-.25v-6.75c-7.61.03-15.23-.1-22.83.04-4.54.16-9.3 3.03-9.88 7.84-.29 5.69-.32 11.41 0 17.09z" fill="#161422" stroke="#161422"/><path d="m426.39 197.995h6.63v-13.145l19.86.02v13.125h6.33v-32.96h-6.33v12.945l-19.86-.02v-12.925h-6.62z" fill="#161323" stroke="#161323"/><path d="m465.74 197.99h24.25c4.14.31 8.38-3.25 8.48-7.47v-25.5h-6.485v21.03c.08 2.24-1.415 5.18-3.965 5.05h-15.95c.04-8.73.04-17.35 0-26.08h-6.36c.12 10.96.06 22.01.03 32.97z" fill="#161322" stroke="#161322"/><path d="m504.75 191.32c4.39 5.83 10.95612 6.68 17.15227 6.68s12.63581-2.24779 15.91773-6.03 3.66-8.45 3.28-12.94c-.15-5.51-4.25-10.27-9.24-12.21-6.21-2.35-13.06-2.26-19.4-.51-4.89 1.71-9.18 5.59-10.24 10.81-.58 4.8-.68 10.22 2.53 14.2m17.15227.16025c-6.06431 0-13.50074-1.37319-13.50074-9.92559 0-8.55239 8.63544-10.14288 13.50074-10.14288s12.96773 2.15393 12.96773 10.14288c0 7.98896-6.90342 9.92559-12.96773 9.92559z" fill="#151422" stroke="#151422"/><path d="m547.34 196.5c1.2777 1.49394 3.46566 1.5 4.61 1.5h24v-6.95h-22.17c6.31-5.17 13.3-9.56 19.74-14.54 4-3.05 3.08-10.89-2.45-11.41l-24.99-.05.03 6.855h22.16l-19.79 14.635c-4.11632 2.99012-2.4177 8.46606-1.14 9.96z" fill="#161423" stroke="#161423"/><path d="m91.781274 193.40845c3.202086-1.57399 8.077744-4.68814 10.797746-6.57814-1.70886-1.58312-3.405971-2.67394-5.046014-3.7673-2.130048 2.29697-4.417618 4.186-6.623073 6.25614.511312 1.39636.693423 2.98353.871341 4.0893z" fill="#7e472d" stroke="#7e472d"/><path d="m287.88 190.79c6.1-.51 12.14-1.57 18.25-1.97-2.3-2.03-4.61-4.05-7.03-5.93-3.35 3.14-7.11 5.82-11.22 7.9z" fill="#67b0ff" stroke="#67b0ff"/><path d="m229.77 188.91c3.2.25 6.4.49 9.59.78.51-4.49 2.27-8.66 3.94-12.81-4.59 3.92-9.44 7.57-13.53 12.03z" fill="#63adfe" stroke="#63adfe"/><path d="m134.68 187.47c4.51 1.21 9.27.66 13.85.16 9.57874-8.35544-7.20874-1.83162-8.55-4.7s.039-5.45715 2.81-5.65 4.25 1.2 5.41 3.15c.3.38.89 1.16 1.19 1.54.27-2.72-.09-5.47-1.23-7.98-.93-.84-1.97-1.54-2.97-2.29-2.9 4.57-7.92 6.92-12.95 8.38l.03.89-.8.29 1.73.49-1.4.7c.9 1.7 1.72 3.47 2.88 5.02z" fill="#5b3117" stroke="#5b3117"/><path d="m122.79 186.99c3.33-.14 6.66.19 9.93.87-2.04-3.6-2.08-7.74-1.76-11.74-3.17.64-6.41.8-9.62.37-2.45 3.45-.34 7.31 1.45 10.5z" fill="#fcfdfd" stroke="#fcfdfd"/><path d="m139.98 182.93c1.34126 2.86838 4.96241 3.50769 7.37872 3.49618 2.41631-.0115 3.53948-1.71137 3.79588-2.89004l-.13907-.17162c-.84076-.0201-1.16804-.57828-1.00804-.14833-.98.75-1.76745 2.33371-2.89745 2.83371-1.68-.53-3.36-1.45-4.13-3.12.29-1.08.64-2.14 1.05-3.18 1.39.2 5.63428 3.4897 7.02428 3.7397-1.16-1.95-5.50974-7.40978-8.78485-6.37238-3.27511 1.03741-3.63069 2.9443-2.28943 5.81268z" fill="#40323f" stroke="#40323f"/><path d="m142.98 182.93c.29086.96805 1.02549 1.8999 1.78971 2.32295.76421.42305 1.50618.76303 2.33725.75193.88529.003 1.70509-.4387 2.39618-.95614.67052-.55387.76442-1.58976.38742-2.34844s-.75949-1.3248-1.27947-1.88901c-.36056-.43129-1.05511-.83826-1.57531-1.03119-.8877-.36845-1.71281-.52009-2.65583-.18965-.93157.36303-1.45676 1.37482-1.48817 2.33808-.0187.33576.0119.67406.0882 1.00147z" fill="#fbfafd" stroke="#fbfafd"/><path d="m101.41 181.5c2.57-.29 4.78-2.12 7.27-2.85 2.56-.95 6.67-1.98 5.74-5.65-1.44-2.55-4.88-2.11-7.33-1.76-3.32.72-7.37 2.06-8.34 5.75-.8 2.02.43 4.35 2.66 4.51z" fill="#d0886a" stroke="#d0886a"/><path d="m74.19 175.71c.5 4.28 5.23 5.27 8.79 5.55 2.1-2.07 4.1-4.99 2.87-8.07-2.26-3.24-5.57-5.6-8.97-7.53-.62 3.1 2.51 4.57 3.94 6.8-.12 1.15-.63 2.21-1.28 3.13-1.76.36-3.57.11-5.35.12z" fill="#ce8965" stroke="#ce8965"/><path d="m132.24 180.31006c5.03-1.46 10.16503-3.92503 13.06503-8.49503l-.22581-.17823c-.99134-.59636-1.10329-.77637-2.26329-1.23637-3.25191 2.81462-6.65484 4.39837-10.65593 5.43337.02 1.17.05 3.30626.08 4.47626z" fill="#7e472d" stroke="#774927"/><path d="m74.94 175.01c1.65-.26 3.87.49 4.9-1.26.55-2.32-2.38-3.53-3.49-5.19-1 2.01-1.46 4.21-1.41 6.45z" fill="#d1866c" stroke="#d1866c"/><path d="m87.38 169.58c7.25-.19 14.26-5.76 14.59-13.24-2.39 1.48-2.09 4.68-3.72 6.74-2.59 3.48-7.02 4.95-11.18 5.4.08.28.23.82.31 1.1z" fill="#331e0d" stroke="#331e0d"/><path d="m29.88 164.39c6.56 1.41 14.12 1.21 19.63-3.1 3.84-2.59 5.71-8.02 3.58-12.27-1.14-2.63-3.7-4.16-6.13-5.45.61-6.44-1.83-12.83-5.65-17.93-3.05-4.04-8.13-6.96-13.3-6.2-6.84 1.08-12.38 6.82-13.86 13.49-1.06 7.38 1.11 14.87 4.67 21.3 2.56 4.36 5.72 9.12 11.06 10.16z" fill="#ecba89" stroke="#ecba89"/><path d="m164.79 157.66c4.14 5.2 11.51 9.3 18.12 6.44 4.42-2.02 5.51-7.81 3.01-11.73-2.79 1.17-5.6 2.31-8.43 3.37 1.69.23 3.43.39 5.03 1.07-2.98.75-5.89-1-8.85-.33-2.95.52-5.92.81-8.88 1.18z" fill="#eeb987" stroke="#eeb987"/><path d="m282.99 152.5c2.21 3.86 3.44 8.16 5.37 12.15 1.04-5.32 2.26-10.6 3.05-15.97-2.86 1.17-5.66 2.46-8.42 3.82z" fill="#64b1ff" stroke="#64b1ff"/><path d="m334.045 160.97h2.58v-2.83c2.92004 0 6.70386.15823 8.695-1.79 1.71-1.53 1.62-4.2.56-6.08-3.14-3.18-7.82447-2.23497-11.835-2.23497.01 4.38999-.16 8.55497 0 12.93497m2.58-5.22c.01-1.71-.02-3.42 0-5.13 2.17067 0 7.425-.84591 7.425 2.44s-4.9895 2.69-7.425 2.69z" fill="#161324" stroke="#161324"/></g><path d="m367.03932 155.65568c-.0126 3.29321 2.11679 5.32068 6.19422 5.27356 3.21465 0 6.13708-2.01169 6.0743-5.27356v-7.62065h-2.41625v4.96497h-7.64435v-4.96497h-2.24724m2.24724 7.62065h7.64435c-.002 1.19413-.55903 3.16247-3.65805 3.16913-3.09902.007-3.9863-1.8549-3.9863-3.16913z" fill="#14121e"/><g stroke-miterlimit="10" stroke-width=".09375"><path d="m381.98 160.92924c2.79591 0 8.93877.54906 11.06202-2.09924.86139-1.07439.83817-2.69052.02-3.91-.81816-1.21948-2.46699-1.49848-4.22312-1.9824l5.5711-4.90257h-2.94l-5.71635 4.90257v2.10829c1.82199 0 5.64635-.46332 5.64635 1.56816s-4.41588 1.5842-7.11 1.5842c.01-3.36 0-6.80322 0-10.16322h-2.3c-.01 4.31-.01 8.58421-.01 12.89421z" fill="#191724" stroke="#191724"/><path d="m396.45 159.39c2.27647 2.14943 7.45478 1.51 11.57 1.51-.01-.71-.01-2.12-.01-2.83-2.87-.02-7.11783.16133-8.75014-.26014-1.96691-.50787-1.97858-4.75791-.87974-5.87986 1.57328-1.60636 4.22518-1.23 9.55988-1.23.03-.67.09-1.98497.12-2.66497h-9.54849c-.72376.12215-1.24315.72808-1.98604 1.6118-2.19035 3.15043-1.68705 7.92167-.0755 9.74322z" fill="#161421" stroke="#161421"/><path d="m412.70994 160.40198c.66206.34812.75629.45271 3.149.45607l8.55606.012c.04-.67-.03-2.175 0-2.855h-8.485l7.57-5.695c2.32114-1.60057 1.44266-4.17595.52-4.28502h-11c.02.66999-.02 2.02002 0 2.70002h8.49c-2.84 2.16-5.83 4.165-8.53 6.505-1.09257.93107-.93212 2.81381-.27006 3.16193z" fill="#161421" stroke="#161421"/><path d="m427.06 160.895h2.21571v-4.16447c0-.40823.64908-1.1771 1.12834-1.1771h5.67975c.35816 0 .89123.81899.89123 1.1771v4.16449h2.22996v-5.57381c0-.71997-1.52378-2.33568-2.33701-2.33568h-2.56044v-4.9505h-2.43515v4.9505h-2.8835c-1.09256 0-1.92889 1.74901-1.92889 2.33568z" fill="#16141d" stroke="#16141d"/><path d="m455.06 160.88c4.29.03 8.58.04 12.88 0 .05-4.3.03-8.55497.03-12.84497h-2.81c.01 3.37 0 6.69497.03 10.05497-3.37-.01-6.74-.02-10.11.01 0 .7-.02 2.09-.02 2.78z" fill="#171520" stroke="#171520"/><path d="m485.68 160.86922h2.2746l3.7154-5.17922 4.085 5.17922c.6.04 1.71-.03 2.31 0v-12.83419h-2.31v8.29497l-4.025-4.93-3.7754 4.98v-8.34497h-2.2846z" fill="#171523" stroke="#171523"/><path d="m503.05 160.955h2.755v-8.135l3.715 4.71 3.68-4.52c.06 2.68-.06 5.265 0 7.945h2.66c.13-4.3.08-8.61997.08-12.91997h-2.74l-3.63 5.26497-3.765-5.26497h-2.775c.01 4.31-.02 8.60997.02 12.91997z" fill="#151321" stroke="#151321"/><path d="m550.045 160.94h2.40034v-12.90497h-2.40034z" fill="#17151f" stroke="#17151f"/><path d="m558.52 160.94h3.51l-6.23408-6.68 6.23408-6.22497h-3.51l-4.87142 5.10392v2.21105z" fill="#14121e" stroke="#14121e"/><path d="m359.015 159.405h2.62834v-9.73962c0-.86064-.69624-1.63035-1.22549-1.63035h-11.52785c.04.66999.13 2.02497.17 2.68497h9.955v2.25h-8.865c-.65508 0-1.10532.7817-1.11011 1.38805l-.03989 5.04695h2.93v-3.74932h7.085z" fill="#161421" stroke="#161421"/><path d="m246.05 156.73c5.12.19 10.25-.68 15.37.08-5.62-2.99-11.45-5.53-17.11-8.41.4 2.8.5 5.73 1.74 8.33z" fill="#63afff" stroke="#63afff"/><path d="m62.53 140.84c4.37 7.15 11.49 13.72 20.22 14.29-2.39-3.54-5.78-6.29-7.97-9.98-3.85-5.59-6.06-12.05-8.84-18.19-2.84-6.33-5.79-12.62-9.12-18.71-.75-1.16-1.27-2.83-2.85-3.05-9.81-1.29-18.66 5.88-28.48 3.93 2.39 2.03 4.55 4.31 6.61 6.67 6.56 1.52 12.42 5.88 15.58 11.85 2.36.26 4.87.32 6.9 1.73 3.5 2.02 4.55 6.14 6.72 9.27.82-2.78 1.63-5.56 2.63-8.29-.41 3.5-.83 7-1.4 10.48z" fill="#e9e7ea" stroke="#e9e7ea"/><path d="m141.79 147.24c6.4 5.51 15.09 6.78 23.21 7.53 8.74-.33 17.55-2.73 24.66-7.97 8.88-6.78 15.06-17.09 16.51-28.2-1.29812-4.30923-4.61917-4.55696-5.27-17.27-2.33-1.75-1.9073-4.760996-3.3973-7.290996-3.56-6.16-13.4527-10.470997-20.4527-9.960997-7.25049.100516-22.44274 6.795906-25.5 9.441993-.96 2.5-2.1255.845303-4.0355 2.845303-.93-.62-1.85999-.654361-2.23689 1.058202-.58015 5.850285.72239 12.466495 2.32239 17.766495-2.84-2.47-4.55-5.86-5.85-9.34-5.7 2.41-10.62 7.55-10.74 14.03-.18 9.97 2.86 20.76 10.78 27.36z" fill="#ecba89" stroke="#ecba89"/><path d="m67.59 125.43c3.94 9.88 8.32 20.05 15.99 27.66 2.26-1.44.2-3.96.76-5.94 1.29-5.87 5.01-11.19 9.93-14.63-3.11-1.88-6.05-4.18-7.82-7.42-4.54.73-8.64 2.79-12.96 4.2 2.67-2.82 6.51-3.83 9.91-5.45-5.37-4.46-7.23-11.41-9.23-17.78-1.42-4.96-3.96-9.7425-6.74-14.0625h-15.51c6.4 10.56 11.31 21.8825 15.67 33.4225z" fill="#e9e7ea" stroke="#e9e7ea"/><path d="m86.87 148.76c2.98-2.89 5.63-6.25 9.38-8.22.14-2.3.04-4.6-.23-6.89-5.45 2.92-9.22 8.88-9.15 15.11z" fill="#e9e8ed" stroke="#e9e8ed"/><path d="m55.92 147.21c5.3-6.07.2-16.06-7.17-17.53.91 3.85 1.4 7.78 1.34 11.74 2.45 1.36 4.41 3.38 5.83 5.79z" fill="#edb985" stroke="#edb985"/><path d="m97.65 140.38c1.64-1.12 3.53-.46 5.34-.41 9.02-.54 17.89-2.31 26.42-5.29-.6-1.49-1.21-2.98-1.79-4.48-9.18-1.2-18.75-1.95-27.66 1.18.05 2.7.11 5.4-.03 8.09-1.59-2.35-.28-5.54-1.97-7.88-.83 2.87-.26 5.87-.31 8.79z" fill="#e9e7eb" stroke="#e9e7eb"/><g fill="#e9e7ea"><path d="m88.12 125.03c1.87 3.31 4.59 6.38 8.46 7.25-1.08-3.03-3.92-4.85-5.87-7.29-.65.01-1.94.03-2.59.04z" stroke="#e9e0db"/><path d="m92.04 124.08c1.49 2.48 3.28 4.83 5.87 6.25 9.56-2.92 19.73-2.8 29.52-1.2-.55-3.61-.64-7.31.1-10.9-8.25-7.12-4.61-20.5825 3.54-26.2225-19.16-.05-38.33-.2-57.49 0 3.2 11.16 5.97 24.0125 16.44 30.7325 6.3-.96 12.68-.78 19.04-.71 2.36-.06 4.59.79 6.74 1.69-7.92-.96-15.83.44-23.76.36z" stroke="#e9e7ea"/><path d="m85.48 123.94c.72-.35 1.45-.7 2.18-1.06-4.92-4.22-8.63-9.85-10.55-16.05-1.59-4.94-3.1-10.1125-5.28-14.8225h-2.76c3.32 6.05 5.68 12.5425 7.73 19.1125 1.58 5.02 4.65 9.45 8.68 12.82z" stroke="#fdfefa"/></g><path d="m206.93208 114.82296c.68218-10.47406-1.2927-21.704482-8.15979-29.975772-5.84709-7.298888-15.7408-11.452637-25.01168-9.432722-9.41912 2.073962-19.2067 5.866667-25.13378 13.880108-1.63451 2.82906-4.24796 7.940723-3.12826 10.866786 1.18042-.15918 4.23375-2.529385 5.58178-4.446711 3.91498-5.492866 10.80723-7.248173 16.99846-8.795102 6.28534-1.054018 13.11801-2.011913 19.09194.864514 6.08947 2.3362 10.03334 8.204405 11.6716 14.323759 1.78866 5.5029 2.02836 11.53263 4.82765 16.68218.87201.57947 1.80312 5.62043 3.26208-3.96704z" fill="#deac8b" stroke="#e1ae8a"/><path d="m18.81 119.18c2.57-1.6 5.27-3.18 8.37-3.44-1.86-2.02-3.79-3.96-5.86-5.77-1.08 3-1.85 6.1-2.51 9.21z" fill="#e5e8ec" stroke="#e5e8ec"/><path d="m126.59 105.07c-.22 2.82.75 5.67 2.73 7.71 2.45-4.94 7.02-8.46 12.17-10.24.29-3.58.55-7.2 1.57-10.67-8.02-1.25-15.43 5.48-16.47 13.2z" fill="#dfae8a" stroke="#dfae8a"/></g><path d="m97.53451 182.93328s1.359185.8253 2.013034 1.27684c.536376.37041 1.050906.77181 1.564416 1.17332.42081.32903.85042.6493 1.24234 1.01226.31838.29486.62537.60504.89724.94326.23187.28845.43448.60068.62116.92024.48877.85601 1.03558 2.07562 1.20782 2.6112-.127.18292-.48488.0934-.66718-.0345-.19005-.72708-.75096-1.64323-1.12533-2.46561-1.22874-1.53861-2.59446-2.64889-4.039544-3.6639-.532477-.33462-1.163516-.75923-1.658414-1.06223l-8.583261 7.79153-.111071-.64581z" fill="#322010" fill-rule="evenodd"/><g stroke-miterlimit="10"><path d="m105.29 273.05c2.71-2.2 4.54445-5.38399 7.95445-6.59399 2.66-4.22 5.97555-8.16601 9.12555-12.02601 7.89-8.48 17.54-15.81 28.73-19.26 8.6-1.95 17.58-1.03 26.21-2.85 17.14327-5.7072 8.76521-30.86402 1.62-38.26-.66 4.04-4.37 6.52-6.79 9.52 1.38.21 2.77.41 4.15.62-1.55 2.14-3.48 3.95-5.55 5.58.55.14 1.64.4 2.19.54-1.16 1.49-2.31 3-3.43 4.52-20.38865-2.35126-36.34657-.28473-42.72 4.28-2.22-1.27-4.75-2.36-6.2-4.59-1.52-2.94-1.52-6.34-2.11-9.53-2.05 2.65-1.65 6.01-1.75 9.15.25 1.46-2.13 2.01-1.52 3.48 1.2 2.48 4.39 2.66 6.66 3.67-.74.83-1.47 1.66-2.21 2.5.38 5.34 1.09 10.94-.62 16.12-.49-1.34-.95-2.7-1.42-4.06-3.03-1.99-1.4-5.71.41-7.93.15-.52.44-1.56.59-2.09-2.21.99-3.52 3.03-5.14 4.7l-.54182.63339c-2.17285 2.52377-3.66231 8.76386-4.10818 11.68661-.51 1.87-.48 4.21-2.32 5.35-.48-2.24.05-5.07-2.08-6.58-3.34-3.02-6.83-5.86-10.27-8.77-1.01 9.81 5.9 17.59 8.57 26.51 1.7 4.36 2.09 9.06 2.57 13.68m22.47-32.38c-3.78-4.2-5.63-10.04-4.89-15.65.23-1.02.18-2.65 1.49-2.92 2.1 4.78 3.45 9.88 4.15 15.05.33 1.26-.18 2.43-.75 3.52m.28-18.82c2.39 2.99 3.08 6.77 3.73 10.43-2.57-2.84-4.78-6.45-3.73-10.43" fill="#593016" stroke="#331e0d" stroke-width=".24"/><path d="m470.2899 160.94871h12.92416v-2.67268h-10.35737v-2.48443h10.35737v-2.67268l-10.35737-.0431v-2.37267h10.35737v-2.66812h-10.35737c-1.27457-.0745-2.59816 1.03667-2.56679 2.28379z" fill="#171520" stroke="#161423" stroke-width=".036767"/><path d="m519.81724 158.19205c1.7136 2.27571 4.27665 2.60749 6.69527 2.60749 2.41864 0 4.93232-.8774 6.2134-2.35377 1.28108-1.47635 1.42866-3.2984 1.28033-5.05105-.0586-2.15079-1.65897-4.00883-3.60678-4.7661-2.42404-.91731-5.0979-.88218-7.57267-.19907-1.90878.66748-3.58337 2.18202-3.99712 4.21962-.2264 1.87365-.26543 3.98931.98757 5.54288m6.69527.0625c-2.36716 0-5.26992-.53602-5.26992-3.87439 0-3.33838 3.37079-3.95921 5.26992-3.95921 1.89915 0 5.06188.84077 5.06188 3.95921s-2.6947 3.87439-5.06188 3.87439z" fill="#161422" stroke="#151422" stroke-width=".036595"/><path d="m441.38234 160.40198c.66206.34812.75629.45271 3.149.45607l8.55606.012c.04-.67-.03-2.175 0-2.855h-8.485l7.57-5.695c2.32114-1.60057 1.44266-4.17595.52-4.28502h-11c.02.66999-.02 2.02002 0 2.70002h8.49c-2.84 2.16-5.83 4.165-8.53 6.505-1.09257.93107-.93212 2.81381-.27006 3.16193z" fill="#161421" stroke="#161421" stroke-width=".09375"/><path d="m564.27069 160.40198c.66206.34812.75629.53802 3.149.53802h8.55606c.04-.67-.03-2.24495 0-2.92495h-8.485l7.57-5.695c2.32114-1.60057 1.44266-4.17596.52-4.28502h-11c.02.66999-.02 2.02002 0 2.70002h8.49c-2.84 2.16-5.83 4.165-8.53 6.505-1.09257.93107-.93212 2.81381-.27006 3.16193z" fill="#161421" stroke="#161421" stroke-width=".09375"/></g><path d="m139.0258 214.69402c.0699-.009.16788-.22543.22384-.21607.056.009.65756.188.65756.188l-.20986.13157-.40571-.0471z" fill="#322010" fill-rule="evenodd"/><path d="m535.81537 160.94c2.79591 0 8.93877.5383 11.06202-2.11.86139-1.07439.83817-2.69052.02-3.91-.81816-1.21948-2.46699-1.49848-4.22312-1.9824l5.5711-4.90257h-2.94l-5.71635 4.90257v2.10829c1.82199 0 5.64635-.46332 5.64635 1.56816s-4.41588 1.5842-7.11 1.5842c.01-3.36 0-6.80322 0-10.16322h-2.3c-.01 4.31-.01 8.59497-.01 12.90497z" fill="#191724" stroke="#191724" stroke-miterlimit="10" stroke-width=".09375"/></g></svg>