<svg height="147.86604" viewBox="0 0 595.85449 147.86604" width="595.85449" xmlns="http://www.w3.org/2000/svg"><g fill="#f00" stroke-width="2.5"><path d="m66.006887 38.556038v-36.5302164h-26.489748v36.5302164h4.058913v47.425194c0 7.690572 0 11.749485-.427254 14.313008-.427254 4.05891-2.777151 6.40881-6.195183 6.40881s-5.554302-2.56352-6.195183-6.836063c-.213627-2.563524-.427254-7.263318-.427254-13.244874v-48.066075h5.554302v-36.5302164h-32.0440496v36.5302164h6.8360636v66.224372 10.89498c0 11.96311 1.709016 18.58554 6.195183 23.49896 4.486167 4.91343 11.322231 7.69058 18.585549 7.69058 15.167517 0 23.285343-10.46773 23.285343-29.48053v-10.89498-67.933382z" transform="matrix(.99542121 0 0 1.0045998 -3.823841 .325566)"/><g transform="matrix(.99542126 0 0 1.0045998 -3.823841 .325566)"><path d="m146.97643 38.556038v-36.5302164h-28.62602v36.5302164h7.69057v62.806342l-20.50819-99.3365584h-32.044052v36.5302164h7.263318v67.506132h-7.263318v38.45286h29.480522v-38.45286h-8.331449v-73.914942l23.712599 112.367802h21.57632v-105.958992z"/><path d="m188.84508 144.51503v-38.45286h-6.83606v-67.506132h6.83606v-36.5302164h-34.18032v36.5302164h7.04969v67.506132h-7.04969v38.45286z"/><path d="m259.44948 38.556038v-36.5302164h-27.77151v36.5302164h8.33145l-8.33145 73.914942-10.2541-73.914942h6.19519v-36.5302164h-31.83043v36.5302164h6.19519l14.74026 105.958992h23.28534l14.09938-105.958992z"/><path d="m324.01981 144.51503v-58.747425h-18.37192v20.294565h-13.67213v-27.344256h17.94467v-14.740263h-17.94467v-25.421613h13.67213v20.508192h16.87653v-57.0384084h-57.25204v36.5302164h7.04969v67.506132h-7.04969v38.45286z"/><path d="m404.87784 111.61647c0-5.98155-.21363-11.53586-1.06813-20.294563h-4.91342v2.349897c0 10.254096-1.06814 13.672126-4.05892 13.672126-2.34989 0-3.41803-1.70901-3.63166-5.76793l-.42725-7.690569-.42725-9.613215c-.21363-6.195183-3.20441-10.040469-8.54508-11.535858-1.49539-.427254-1.92265-.640881-6.40881-1.281762 1.06813-.213627 1.70901-.427254 2.34989-.640881 13.24488-2.990778 16.66291-9.399588 16.66291-30.975915 0-30.1214064-5.98156-37.8119784-29.48053-37.8119784h-32.04405v36.5302164h7.04969v67.506132h-7.04969v38.45286h34.18032v-38.45286h-6.83606v-27.130629c.85451 0 1.49539-.213627 1.92264-.213627 9.61322 0 11.53586 2.349897 11.53586 14.313009 0 1.281762-.21363 3.845286-.21363 7.904197v9.18596c0 16.23566.42726 21.14908 2.3499 26.48975 2.13627 5.76793 6.62244 8.97233 13.03125 8.97233 11.74948 0 16.02202-9.39958 16.02202-33.96669zm-30.54866-58.96105c0 9.826842-2.3499 12.176739-12.17674 12.176739h-1.92264v-26.276121h2.3499c9.61321 0 11.74948 2.563524 11.74948 14.099382z"/><path d="m464.98168 108.41207c0-16.876536-1.70902-26.276124-6.19519-32.25768-3.84528-5.340675-8.11782-8.758707-18.15829-15.167517-7.47695-4.699794-10.04047-8.758707-10.04047-14.740263 0-4.699794 2.13627-7.476945 5.76793-7.476945 4.05891 0 5.34067 2.13627 5.76793 9.826842l.21363 3.631659h18.58554v-50.2023444h-17.51741v10.0404694c-3.84529-9.1859614-7.69057-12.39036635-14.52664-12.39036635-13.4585 0-19.86731 12.60399335-19.86731 38.23923235 0 18.799176 3.84529 27.77151 16.02203 36.102963l10.25409 7.049691c5.34068 3.631659 7.69058 8.331453 7.69058 15.594771 0 6.622438-2.13627 10.040468-6.40881 10.040468-5.34068 0-7.26332-3.84528-7.26332-14.099381v-2.13627h-18.58555v54.047631h18.58555v-10.04047c4.27254 8.54508 9.39959 12.39037 16.44928 12.39037 13.03124 0 19.22643-12.604 19.22643-38.45286z"/><path d="m537.32457 144.51503v-38.45286h-6.40881l-14.74026-104.0363484h-26.27612l-14.31301 104.0363484h-6.83607v38.45286h29.2669v-38.45286h-8.11782l2.34989-18.799176h15.16752l2.13627 18.799176h-7.47695v38.45286zm-31.83042-71.992299h-11.32223l5.76792-43.793534z"/><path d="m602.43671 144.51503v-65.797116h-18.15829v27.344256h-13.4585v-67.506132h7.26331v-36.5302164h-34.60757v36.5302164h7.04969v67.506132h-7.04969v38.45286z"/></g></g></svg>