<svg viewBox="0 0 347.869 102.59" xmlns="http://www.w3.org/2000/svg" xmlns:xlink="http://www.w3.org/1999/xlink"><linearGradient id="a" gradientUnits="userSpaceOnUse" x1="299.872" x2="299.872" y1="70.387" y2="25.554"><stop offset="0" stop-color="#a6a6a6"/><stop offset="1" stop-color="#efefef"/></linearGradient><linearGradient id="b" gradientTransform="matrix(.87831334 0 0 .77313557 22.35642 10.63024)" gradientUnits="userSpaceOnUse" x1="62.451927" x2="129.92676" xlink:href="#a" y1="99.212242" y2="6.194396"/><linearGradient id="c" gradientTransform="matrix(.87831334 0 0 .77313557 22.35642 10.63024)" gradientUnits="userSpaceOnUse" x1="227.40929" x2="262.6441" y1="69.675163" y2="27.276554"><stop offset="0" stop-color="#d9d9d9"/><stop offset="1" stop-color="#e5e5e5"/></linearGradient><linearGradient id="d" gradientTransform="matrix(.87831334 0 0 .77313557 22.35642 10.63024)" gradientUnits="userSpaceOnUse" x1="277.51437" x2="321.88712" xlink:href="#a" y1="72.776756" y2="26.267836"/><linearGradient id="e" gradientTransform="matrix(.87831334 0 0 .77313557 22.35642 10.63024)" gradientUnits="userSpaceOnUse" x1="166.3614" x2="212.34929" y1="92.068352" y2="23.510752"><stop offset="0" stop-color="#a6a6a6"/><stop offset="1" stop-color="#f2f2f2"/></linearGradient><path d="m276.662 27.554h-44.959a.284.284 0 0 0 -.277.225l-9.38 44.267a.283.283 0 0 0 .277.342h44.959a.284.284 0 0 0 .277-.225l9.38-44.267a.283.283 0 0 0 -.277-.342zm-20.162 34.112a.28.28 0 0 1 -.273.222h-18.4a.279.279 0 0 1 -.273-.337l4.932-23.274a.28.28 0 0 1 .273-.222h18.4c.178 0 .31.164.273.337zm-33.227-29.101-5.087-4.93a.29.29 0 0 0 -.201-.081h-38.714a.288.288 0 0 0 -.282.229l-9.378 44.257a.288.288 0 0 0 .282.348h38.616c.06 0 .118-.019.167-.054l7.338-5.231a.287.287 0 0 0 .115-.175l2.584-12.193a.288.288 0 0 0 -.081-.267l-5.29-5.127a.29.29 0 0 1 .033-.442l7.653-5.455a.287.287 0 0 0 .115-.175l2.212-10.438a.287.287 0 0 0 -.082-.266zm-19.419 29.093a.289.289 0 0 1 -.282.229h-18.734a.288.288 0 0 1 -.282-.349l1.306-6.14a.288.288 0 0 1 .282-.228h18.726c.183 0 .32.169.282.348zm3.627-17.116a.289.289 0 0 1 -.282.229h-18.734a.289.289 0 0 1 -.282-.349l1.306-6.14a.288.288 0 0 1 .282-.228h18.726c.183 0 .32.169.282.348zm-156.197 7.808-4.199 19.815a.28.28 0 0 1 -.274.222h-45.259a.28.28 0 0 1 -.274-.339l9.381-44.272a.28.28 0 0 1 .274-.222h12.843a.28.28 0 0 1 .274.339l-7.13 33.651a.28.28 0 0 0 .274.339h18.426a.28.28 0 0 0 .274-.222l7.18-33.883a.28.28 0 0 1 .274-.222h12.843a.28.28 0 0 1 .274.339l-2.69 12.694a.28.28 0 0 0 .392.313l84.59-38.873c.266-.122.518.194.34.426l-48.702 63.45c-.178.232.074.548.34.426l30.373-13.957a.278.278 0 0 0 .157-.197l5.17-24.4a.28.28 0 0 1 .274-.222h44.611a.28.28 0 0 1 .274.339l-2.106 9.939a.28.28 0 0 1 -.274.222h-31.456a.28.28 0 0 0 -.274.222l-1.304 6.156a.28.28 0 0 0 .274.339h20.307a.28.28 0 0 1 .274.339l-2.085 9.839a.28.28 0 0 1 -.274.222h-20.545a.28.28 0 0 0 -.274.222l-1.304 6.156a.28.28 0 0 0 .274.339h31.218a.28.28 0 0 1 .274.339l-2.106 9.939a.28.28 0 0 1 -.274.222h-44.611a.28.28 0 0 1 -.274-.339l1.717-8.103a.28.28 0 0 0 -.392-.313l-84.729 38.931c-.263.121-.513-.192-.336-.421l48.71-63.461c.178-.232-.074-.548-.34-.426l-30.242 13.896a.282.282 0 0 0 -.158.197zm222.245 19.689 1.215-5.733a.288.288 0 0 1 .083-.149l16.838-16.023a.29.29 0 0 0 .046-.362l-9.983-16.037a.287.287 0 0 1 -.037-.212l1.216-5.738a.29.29 0 0 1 .283-.229h13.044a.29.29 0 0 1 .245.135l6.828 10.889a.289.289 0 0 0 .444.056l11.56-11a.29.29 0 0 1 .199-.08h12.966a.29.29 0 0 1 .283.349l-1.196 5.645a.288.288 0 0 1 -.083.149l-16.86 16.109a.288.288 0 0 0 -.045.362l10.001 15.948a.29.29 0 0 1 .038.213l-1.235 5.826a.29.29 0 0 1 -.283.229h-13.044a.29.29 0 0 1 -.245-.135l-6.828-10.889a.289.289 0 0 0 -.444-.056l-11.56 11a.29.29 0 0 1 -.199.08h-12.966a.287.287 0 0 1 -.281-.347z" fill="#040006" transform="matrix(.87831334 0 0 .77313557 24.113047 12.176511)"/><g stroke="#000" stroke-width=".412024"><path d="m264.23601 30.386947h-39.48808a.24944099.2195705 0 0 0 -.24329.173955l-8.23859 34.224392a.24856268.21879736 0 0 0 .2433.264412h39.48809a.24944099.2195705 0 0 0 .24329-.173955l8.23858-34.224392a.24856268.21879736 0 0 0 -.2433-.264412zm-17.70855 26.3732a.24592774.21647796 0 0 1 -.23978.171636h-16.16097a.24504942.21570482 0 0 1 -.23977-.260547l4.33184-17.993957a.24592774.21647796 0 0 1 .23978-.171636h16.16096c.15635 0 .27228.126794.23978.260547z" fill="url(#c)"/><path d="m217.34375 34.261128-4.46799-3.811558a.25471086.22420932 0 0 0 -.17653-.06262h-34.00303a.25295425.22266305 0 0 0 -.24768.177048l-8.23683 34.21666a.25295425.22266305 0 0 0 .24769.269051h33.91695c.0527 0 .10363-.01469.14667-.04175l6.44506-4.044272a.25207593.22188991 0 0 0 .10101-.135299l2.26957-9.426842a.25295425.22266305 0 0 0 -.0711-.206427l-4.64628-3.963866a.25471086.22420932 0 0 1 .029-.341726l6.72173-4.217454a.25207593.22188991 0 0 0 .101-.135299l1.94284-8.069989a.25207593.22188991 0 0 0 -.0721-.205655zm-17.05597 22.492833a.25383255.22343618 0 0 1 -.24769.177048h-16.45432a.25295425.22266305 0 0 1 -.24769-.269823l1.14708-4.747053a.25295425.22266305 0 0 1 .24768-.176275h16.44731c.16073 0 .28105.13066.24768.269052zm3.18564-13.232988a.25383255.22343618 0 0 1 -.24768.177048h-16.45433a.25383255.22343618 0 0 1 -.24768-.269824l1.14707-4.747052a.25295425.22266305 0 0 1 .24769-.176275h16.4473c.16073 0 .28106.13066.24768.269051z" fill="url(#e)"/><path d="m66.284385 49.557616-3.688038 15.319681a.24592774.21647796 0 0 1 -.240659.171637h-39.752462a.24592774.21647796 0 0 1 -.240657-.262094l8.239457-34.228257a.24592774.21647796 0 0 1 .240658-.171636h11.280178a.24592774.21647796 0 0 1 .240659.262092l-6.262375 26.016785a.24592774.21647796 0 0 0 .240659.262093h16.184679a.24592774.21647796 0 0 0 .240658-.171636l6.30629-26.196152a.24592774.21647796 0 0 1 .240658-.171636h11.280178a.24592774.21647796 0 0 1 .240657.262092l-2.362662 9.814183a.24592774.21647796 0 0 0 .344298.241992l74.296529-30.054099c.23363-.09432.45497.149988.29863.329356l-42.7765 49.055452c-.15634.179367.065.423678.29863.329356l26.67701-10.790653a.24417111.21493169 0 0 0 .1379-.152308l4.54088-18.864509a.24592774.21647796 0 0 1 .24066-.171636h39.18243a.24592774.21647796 0 0 1 .24066.262094l-1.84973 7.684194a.24592774.21647796 0 0 1 -.24065.171636h-27.62823a.24592774.21647796 0 0 0 -.24066.171636l-1.14532 4.759423a.24592774.21647796 0 0 0 .24066.262092h17.8359a.24592774.21647796 0 0 1 .24066.262093l-1.83128 7.606881a.24592774.21647796 0 0 1 -.24065.171636h-18.04495a.24592774.21647796 0 0 0 -.24066.171636l-1.14532 4.759423a.24592774.21647796 0 0 0 .24066.262093h27.41918a.24592774.21647796 0 0 1 .24066.262093l-1.84973 7.684194a.24592774.21647796 0 0 1 -.24066.171636h-39.18243a.24592774.21647796 0 0 1 -.24066-.262092l1.50806-6.264718a.24592774.21647796 0 0 0 -.3443-.241991l-74.397532 30.090436c-.237145.09587-.461115-.151535-.302139-.333222l42.768589-49.04772c.156339-.179367-.065-.423678-.298627-.329356l-26.561952 10.743492a.24417111.21493169 0 0 0 -.137894.152308z" fill="url(#b)"/><path d="m261.48426 64.779882 1.06715-4.432386c.0106-.04399.0359-.08416.0729-.115198l14.78907-12.387951c-2.36909-4.182135-5.81682-8.562337-8.7278-12.678649-.0346-.04886-.0462-.107628-.0325-.163905l1.06803-4.436252c.0252-.103144.1287-.176862.24857-.177048h11.45672c.0873.000027.16851.03941.21518.104373l5.99713 8.418673c.0851.119698.27365.14062.38997.0433l10.15329-8.50449c.0471-.03953.10969-.06165.17479-.06185h11.38821c.16118.000456.28136.130914.24857.269823l-1.05047 4.364351c-.0105.044-.0359.08416-.0729.115198l-14.80572 12.455986c2.373 4.159663 5.8287 8.516992 8.74448 12.609841.0348.04904.0469.108051.0334.164678l-1.08472 4.504288c-.0252.103144-.1287.176862-.24856.177048h-11.45672c-.0873-.000027-.16852-.03941-.21519-.104373l-5.99712-8.418674c-.0851-.119698-.27366-.14062-.38997-.0433l-10.15337 8.504494c-.0471.03953-.10968.06164-.17479.06185h-11.38821c-.16154.000032-.2823-.130605-.24944-.269824z" fill="url(#d)"/></g><path d="m334.54 26.882h-2.738l.375-1.575h7.101l-.375 1.575h-2.738l-1.147 5.551h-1.625zm11.175.78-2.246 1.871h-.265l-1.545-1.871-.849 4.778h-1.739l1.256-7.125h1.55l1.854 1.843 2.602-1.843h1.536l-1.256 7.125h-1.772z" fill="#696969" transform="matrix(.87831334 0 0 .77313557 22.35642 10.63024)"/></svg>