<svg height="150.63062" viewBox="0 0 1894.669 557.33328" width="512.07269" xmlns="http://www.w3.org/2000/svg"><g fill="#fff" fill-opacity=".5" stroke-width="3.7"><path d="m1275.9666 342.7174q0 .888-.2146 1.4948-.3182.9028-1.0212.9028-.4662 0-.9768-.2146-.6142-.259-.6734-.6364.2072 0 .4884.074.6512.1702.814.1702.629 0 .9472-.629.2516-.5032.2516-1.2062 0-.4958-.3256-1.4134-.3182-.925-.3182-1.2876 0-.111.059-.1776.067-.074.1776-.074.2886 0 .5624 1.332.2294 1.1248.2294 1.665z"/><path d="m1278.8156 343.4722q0 .7548-.4366 1.184-.4366.4292-1.2062.4292-.4218 0-.6512-.1998-.2294-.1998-.2294-.6142 0-.5846.7622-1.1766.7252-.5624 1.3394-.5624.2812 0 .37.3478.052.1998.052.592zm-.4514.2072q0-.0888-.022-.1702-.015-.0888-.059-.1998-.1184.0814-.3922.3996-.1406.1628-.2442.2368 0-.1406.03-.2294.059-.1258.096-.2146-.3256 0-.6808.2738-.3478.2738-.3478.592 0 .2146.2368.2146.4514 0 .8732-.222.5106-.2664.5106-.6808z"/><path d="m1281.8644 343.7756q0 .3626-.2738.814-.3108.5106-.6438.5106-.096 0-.1628-.1036-.059-.111-.059-.2146 0-.1332.2812-.4144.2886-.2886.2886-.3922 0-.0666-.022-.1332-.022-.0666-.03-.0888-.555.1258-1.1322.6364-.5698.5106-.8658.5772-.059-.1628-.059-.333 0-.2072.096-.4366.067-.1628.222-.3922.259-.3922.5476-.888.148-.259.5106-.8954.37-.6364.5402-.9028.089-.1332.1554-.1998.096-.0888.2294-.1184.089.0296.1258.111.044.0814.044.1924 0 .2516-.3256.6808-.592.7696-.6068.7992-.333.5032-.333.9102l.015.074q.407-.1998.481-.2294.3034-.1258.518-.1258.2368 0 .3478.1628.111.1554.111.3996z"/><path d="m1285.298 343.339q0 .5032-.2442 1.073-.2664.629-.6586.8658-.081-.0962-.1406-.2146-.052-.1184-.052-.2368 0-.1258.37-.7474.1628-.2738.148-.481l-.01-.0962q-.2738.0814-.9472.4958-.666.407-1.3468.8288-.1036 0-.1924-.074-.081-.0814-.081-.1776 0-.1554.4958-1.0434.148-.2664.5328-.925.1184.1554.1554.3478.037.185.037.444 0 .111 0 .1702.6808-.407 1.0656-.6142.4218-.2294.5772-.2294.1036 0 .1924.2368.096.2368.096.3774z"/><path d="m1291.7286 344.7746q0 .1332-.1184.2072-.111.0666-.2516.0666-.1258 0-.3182-.0296-.4366-.0666-.5624-.0666-.222 0-.8732.0518-.37.0296-.5328.0296-.4514 0-.4514-.4514 0-.4292.2812-1.2284.1554-.4514.5846-1.48.3848-.925.4884-1.3024.037-.1184.059-.1554.059-.0888.148-.0888.1406 0 .2368.2072.096.1998.096.3626 0 .259-.3034.8732-.3034.6068-.592 1.1914-.3182.6956-.3182 1.0582 0 .185.1554.259.111.0518.3256.0518.1628 0 .5624-.037.3996-.0444.5328-.0444.333 0 .5476.0962.3034.1332.3034.4292z"/><path d="m1294.4814 343.4722q0 .7548-.4366 1.184-.4366.4292-1.2062.4292-.4218 0-.6512-.1998-.2294-.1998-.2294-.6142 0-.5846.7622-1.1766.7252-.5624 1.3394-.5624.2812 0 .37.3478.052.1998.052.592zm-.4514.2072q0-.0888-.022-.1702-.015-.0888-.059-.1998-.1184.0814-.3922.3996-.1406.1628-.2442.2368 0-.1406.03-.2294.059-.1258.096-.2146-.3256 0-.6808.2738-.3478.2738-.3478.592 0 .2146.2368.2146.4514 0 .8732-.222.5106-.2664.5106-.6808z"/><path d="m1297.5968 343.3168q0 .2368-.1258.5032-.1184.2664-.3034.444l-.01-.1036q0-.0888.022-.2738.022-.185.022-.2738 0-.1258-.037-.185-.037-.0666-.1554-.0666-.3478 0-.8658.5402-.5624.592-1.1174 1.1766-.044 0-.089-.007-.111-.0296-.148-.037.022-.2664.185-.592.4366-.8806.4514-.9398.059-.2368.089-.3478.03-.111.081-.2294.059-.1258.1332-.222.081-.1036.2072-.1554l.074.888q.3182-.259.4884-.3996.3256-.259.5624-.259.2368 0 .3848.1554.148.1554.148.3848z"/><path d="m1301.2302 342.4584q0 .3108-.8288.8214-.7992.4884-1.1618.4884-.1702 0-.2294-.1184-.052-.1184-.052-.333 0-.1406 0-.1998.4958 0 .9028-.148.407-.148.7104-.4884-.222-.0814-.4514-.0814-.5402 0-1.147.4144-.666.4514-.666.962 0 .4884.666.6808.1036.0296 1.2506.2072.6734.1036.6734.3626 0 .111-.2442.1776-.2442.074-.6216.074-.9472 0-1.4948-.2886-.7252-.3848-.7252-1.2358 0-.888.888-1.4134.7548-.444 1.7168-.444.2886 0 .5254.1332.2886.1628.2886.4292z"/><path d="m1304.1754 341.1338q0 .1628-.3922.6808-.3922.518-.3922.7918 0 .1406.1628.2812.37.3256.37.3996 0 .0962-.067.185-.059.0888-.1554.0888-.081 0-.2294-.0888-.1036-.0592-.3996-.2886-.111.2146-.1702.3256-.2072.3922-.2812.5698-.111.3404-.222.6808-.1924.4588-.481.4588l-.01-.1702q0-.5254.3404-1.2432.067-.1332.37-.6882-.5846-.3182-1.2876-.3182 0-.2738.111-.3996.1184-.1332.3922-.1332.2516 0 .629.0888.185.0444.37.0888.1406-.0444.3848-.481.5994-1.0508.814-1.2062.059.0962.096.1924.044.0962.044.185z"/><path d="m1306.906 343.7756q0 .3626-.2738.814-.3108.5106-.6438.5106-.096 0-.1628-.1036-.059-.111-.059-.2146 0-.1332.2812-.4144.2886-.2886.2886-.3922 0-.0666-.022-.1332-.022-.0666-.03-.0888-.555.1258-1.1322.6364-.5698.5106-.8658.5772-.059-.1628-.059-.333 0-.2072.096-.4366.067-.1628.222-.3922.259-.3922.5476-.888.148-.259.5106-.8954.37-.6364.5402-.9028.089-.1332.1554-.1998.096-.0888.2294-.1184.089.0296.1258.111.044.0814.044.1924 0 .2516-.3256.6808-.592.7696-.6068.7992-.333.5032-.333.9102l.015.074q.407-.1998.481-.2294.3034-.1258.518-.1258.2368 0 .3478.1628.111.1554.111.3996z"/><path d="m1312.9815 341.3632q0 .3478-.37.9324-.2368.37-.777 1.0656-.5402.6882-.6734.9028.022.007.555.1776.5402.1628.5402.592-.222.037-.4366.0666l-.081-.007v-.0592q-.1184-.0296-.1924-.0296-.1406 0-.444.0444-.3034.0444-.4588.0444-.1998 0-.3256-.074-.1258-.074-.1258-.2664 0-.1554.5698-.8806 1.0656-1.3542 1.073-1.369.5772-.7844.5772-1.0508 0-.1036-.074-.1554-.067-.0518-.2738-.0518-.1406 0-.5846.2738-.2146.1332-.3478.1332l-.1258-.0222q-.044-.0296-.096-.111-.052-.0888-.052-.1406 0-.3108.5994-.5698.5106-.222.888-.222.3182 0 .4884.2368.148.2072.148.5402z"/><path d="m1317.4288 342.6952q0 .8954-.9694 1.5836-.888.629-1.8278.629-.4662 0-.74-.2368-.2738-.2368-.2738-.6882 0-1.0064.8806-1.7464.8362-.703 1.8722-.703.5254 0 .7918.3108.2664.3108.2664.851zm-.4514.1702q0-.3404-.3848-.5106-.2886-.1258-.6882-.1258-.5846 0-1.221.5698-.6364.5698-.6364 1.147 0 .2368.1184.3404.1258.0962.3774.0962.7252 0 1.5096-.3996.925-.4736.925-1.1174z"/><path d="m1320.8181 341.3632q0 .3478-.37.9324-.2368.37-.777 1.0656-.5402.6882-.6734.9028.022.007.555.1776.5402.1628.5402.592-.222.037-.4366.0666l-.081-.007v-.0592q-.1184-.0296-.1924-.0296-.1406 0-.444.0444-.3034.0444-.4588.0444-.1998 0-.3256-.074-.1258-.074-.1258-.2664 0-.1554.5698-.8806 1.0656-1.3542 1.073-1.369.5772-.7844.5772-1.0508 0-.1036-.074-.1554-.067-.0518-.2738-.0518-.1406 0-.5846.2738-.2146.1332-.3478.1332l-.1258-.0222q-.044-.0296-.096-.111-.052-.0888-.052-.1406 0-.3108.5994-.5698.5106-.222.888-.222.3182 0 .4884.2368.148.2072.148.5402z"/><path d="m1324.222 341.3632q0 .3478-.37.9324-.2368.37-.777 1.0656-.5402.6882-.6734.9028.022.007.555.1776.5402.1628.5402.592-.222.037-.4366.0666l-.081-.007v-.0592q-.1184-.0296-.1924-.0296-.1406 0-.444.0444-.3034.0444-.4588.0444-.1998 0-.3256-.074-.1258-.074-.1258-.2664 0-.1554.5698-.8806 1.0656-1.3542 1.073-1.369.5772-.7844.5772-1.0508 0-.1036-.074-.1554-.067-.0518-.2738-.0518-.1406 0-.5846.2738-.2146.1332-.3478.1332l-.1258-.0222q-.044-.0296-.096-.111-.052-.0888-.052-.1406 0-.3108.5994-.5698.5106-.222.888-.222.3182 0 .4884.2368.148.2072.148.5402z"/></g><g fill="#d4d1c5" stroke-width="74"><rect height="31.876898" opacity=".98" rx="8.892695" width="33.656261" x="574.57324" y="100.594134"/><rect height="31.876898" opacity=".98" rx="8.892695" width="33.656261" x="634.45941" y="100.594134"/><rect height="31.876898" opacity=".98" rx="8.892695" width="33.656261" x="694.0611" y="100.594134"/><rect height="31.876898" opacity=".98" rx="8.892695" width="33.656261" x="395.18973" y="100.594134"/><rect height="31.876898" opacity=".98" rx="8.892695" width="33.656261" x="455.07565" y="100.594134"/><rect height="31.876898" opacity=".98" rx="8.892695" width="33.656261" x="514.67712" y="100.594134"/><rect height="31.876898" opacity=".98" rx="8.892695" width="33.656261" x="216.23907" y="100.594134"/><rect height="31.876898" opacity=".98" rx="8.892695" width="33.656261" x="276.125" y="100.594134"/><rect height="31.876898" opacity=".98" rx="8.892695" width="33.656261" x="335.72644" y="100.594134"/><rect height="31.876898" opacity=".98" rx="8.892695" width="33.656261" x="36.855728" y="100.594134"/><rect height="31.876898" opacity=".98" rx="8.892695" width="33.656261" x="96.741707" y="100.594134"/><rect height="31.876898" opacity=".98" rx="8.892695" width="33.656261" x="156.3432" y="100.594134"/></g><g fill="#d4d1c5" stroke-width="74"><rect height="31.876898" opacity=".98" rx="8.892695" width="33.656261" x="574.57324" y="424.37634"/><rect height="31.876898" opacity=".98" rx="8.892695" width="33.656261" x="634.45941" y="424.37634"/><rect height="31.876898" opacity=".98" rx="8.892695" width="33.656261" x="694.0611" y="424.37634"/><rect height="31.876898" opacity=".98" rx="8.892695" width="33.656261" x="395.18973" y="424.37634"/><rect height="31.876898" opacity=".98" rx="8.892695" width="33.656261" x="455.07565" y="424.37634"/><rect height="31.876898" opacity=".98" rx="8.892695" width="33.656261" x="514.67712" y="424.37634"/><rect height="31.876898" opacity=".98" rx="8.892695" width="33.656261" x="216.23907" y="424.37634"/><rect height="31.876898" opacity=".98" rx="8.892695" width="33.656261" x="276.125" y="424.37634"/><rect height="31.876898" opacity=".98" rx="8.892695" width="33.656261" x="335.72644" y="424.37634"/><rect height="31.876898" opacity=".98" rx="8.892695" width="33.656261" x="36.855728" y="424.37634"/><rect height="31.876898" opacity=".98" rx="8.892695" width="33.656261" x="96.741707" y="424.37634"/><rect height="31.876898" opacity=".98" rx="8.892695" width="33.656261" x="156.3432" y="424.37634"/></g><rect fill="#444445" height="305.18198" opacity=".98" rx="26.502874" stroke-width="74.0002" width="767.86035" x=".713594" y="125.20518"/><rect fill="#3a3a3a" height="272.95453" opacity=".98" rx="26.502872" ry="20.513414" stroke-width="74.0002" width="756.10236" x="6.078364" y="141.23386"/><circle cx="645.17932" cy="280.99411" fill="#444445" opacity=".98" r="44.400002" stroke-width="74"/><circle cx="74.639214" cy="359.52774" fill="#444445" opacity=".98" r="25.9" stroke-width="74.0002"/><g fill="#fff" stroke-width="3.7"><g transform="scale(1.0729826 .93198154)"><path d="m232.61047 265.39697v-16.22762l-6.47363-26.59124h8.79601l1.53858 9.75399q.29029 1.79985.46447 3.5126.17418 1.68373.26127 3.39648h.34836q.26127-2.26432.46447-3.97707.23224-1.71276.43545-2.87395l1.71275-9.81205h7.6058l-6.64781 26.59124v16.22762z"/><path d="m245.70288 265.39697 6.85102-42.81886h10.94421l5.05118 42.81886h-8.85407l-.84187-11.40868h-4.23834l-1.10313 11.40868zm9.57982-17.70814h3.16424l-.95798-13.06338q-.0871-1.10313-.14515-3.97707-.029-1.24828-.029-1.94499h-.31933q-.11612 2.46752-.20321 3.94804-.0871 1.45149-.14515 1.91596z"/><path d="m270.26204 265.39697v-42.81886h12.25055l2.78686 22.3529q.34835 2.61267.66768 7.17034.029.37739.0581.5806l.2903-.029q.14514-2.03208.34835-3.97708.23224-1.97402.60963-4.32543l3.33842-21.7723h11.69898v42.81886h-7.77997v-22.64319q0-1.77082.029-4.06416.0581-2.32238.14515-5.19633l-.23224-.029q-.17418 3.77387-.81283 7.3155-.029.14514-.029.17417l-4.15125 24.44304h-7.25744l-3.97707-23.22379q-.20321-1.16119-.43545-3.39648-.20321-2.26431-.40641-5.28341l-.2903-.029q0 .11612 0 .98701.0581 13.44077.0581 30.9457z"/><path d="m304.02362 265.39697 6.85102-42.81886h10.94421l5.05117 42.81886h-8.85407l-.84186-11.40868h-4.23834l-1.10313 11.40868zm9.57981-17.70814h3.16424l-.95798-13.06338q-.0871-1.10313-.14515-3.97707-.029-1.24828-.029-1.94499h-.31932q-.11612 2.46752-.20321 3.94804-.0871 1.45149-.14515 1.91596z"/><path d="m328.58278 265.39697v-42.81886h8.50571v15.87927h2.67074v-15.87927h8.56377v42.81886h-8.56377v-20.6982h-2.67074v20.6982z"/><path d="m350.03575 265.39697 6.85102-42.81886h10.94421l5.05117 42.81886h-8.85407l-.84186-11.40868h-4.23834l-1.10313 11.40868zm9.57981-17.70814h3.16424l-.95798-13.06338q-.0871-1.10313-.14515-3.97707-.029-1.24828-.029-1.94499h-.31932q-.11612 2.46752-.20321 3.94804-.0871 1.45149-.14515 1.91596z"/></g><g transform="scale(1.0471817 .9549441)"><path d="m399.40889 259.78931h2.54061c5.17707 0 8.6764-3.83488 8.6764-8.77227v-24.92667h-4.21836v24.11176c0 3.01996-1.82157 5.80024-5.32089 5.80024h-1.67776z"/><path d="m431.19033 259.78931h4.31423l-9.29956-33.69894h-4.98534l-9.44337 33.69894h4.07455l2.49267-8.96402h10.40209zm-7.62181-28.71361 4.21836 16.01059h-8.48465z"/><path d="m437.90136 259.78931h4.21836v-12.75095h6.18373c5.17708 0 9.3475-4.17043 9.3475-9.3475v-2.25299c0-5.17708-4.17042-9.3475-9.3475-9.3475h-10.40209zm4.21836-16.53789v-13.37412h5.99199c2.97202 0 5.36882 2.44473 5.36882 5.41676v2.5406c0 2.97203-2.3968 5.41676-5.36882 5.41676z"/><path d="m474.33262 259.78931h4.31424l-9.29957-33.69894h-4.98533l-9.44338 33.69894h4.07456l2.49266-8.96402h10.40209zm-7.6218-28.71361 4.21836 16.01059h-8.48466z"/><path d="m481.04365 259.78931h4.02661v-25.31016l13.85348 25.31016h3.2117v-33.69894h-4.02661v24.20763l-13.13444-24.20763h-3.93074z"/></g><g transform="scale(1.0246702 .97592378)"><path d="m247.29598 303.11865h4.15781v-13.37115l8.78811-19.84412h-4.06332l-6.80369 15.40281-6.75645-15.40281h-4.11057l8.78811 19.84412z"/><path d="m262.55709 303.11865h3.96882v-25.04138l7.60691 16.773h.94496l7.51242-16.773v25.04138h3.96882v-33.21527h-4.15782l-7.7014 17.38723-7.79591-17.38723h-4.3468z"/><path d="m290.33881 303.11865h19.74962v-4.01607h-14.12712l8.36288-10.01655c2.83487-3.30736 5.48076-5.85874 5.48076-10.06381v-.9922c0-4.77204-3.87433-8.59912-8.64637-8.59912h-1.93716c-4.96103 0-8.64637 3.96882-8.64637 8.9771v3.30735h3.87433v-3.2601c0-2.88212 2.22065-5.29177 5.05552-5.29177h1.08671c2.74037 0 4.96103 2.22066 4.96103 5.00828v.85046c0 2.59864-1.98442 4.77204-4.06332 7.27618l-11.15051 13.6074z"/><path d="m316.9866 279.16397c0-3.21286 2.31514-5.90599 5.528-5.90599h1.22845c3.02386 0 5.29176 2.55139 5.29176 5.57525v1.41744h4.01607v-1.65368c0-5.05552-3.82708-9.16609-8.8826-9.16609h-2.12616c-5.24451 0-9.16609 4.25231-9.16609 9.54408v15.45006c0 5.05552 3.92158 9.16609 8.9771 9.16609h2.55139c5.10277 0 9.02435-4.11057 9.02435-9.16609v-2.07891c0-4.96103-3.82708-8.78811-8.78811-8.78811h-1.93717c-1.55918 0-4.39405.56698-5.71699 1.22845zm5.38626 8.03214h1.60643c3.02386 0 5.33901 2.50414 5.33901 5.528v1.60643c0 3.02387-2.31515 5.57526-5.33901 5.57526h-1.70093c-3.02386 0-5.29176-2.55139-5.29176-5.57526v-6.09498c1.22844-.47247 3.87433-1.03945 5.38626-1.03945z"/></g><g transform="scale(1.1499103 .86963301)"><path d="m228.4937 391.3299c0 3.60555-2.59811 6.62784-6.20365 6.62784h-1.37859c-3.39346 0-5.93855-2.86323-5.93855-6.25668v-1.6437h-4.50693v1.90881c0 5.67343 4.29484 10.28641 9.96827 10.28641h2.38602c5.88552 0 10.28641-4.77205 10.28641-10.71059v-17.33842c0-5.72645-4.34786-10.2864-10.07432-10.2864h-2.86322c-5.72645 0-10.07431 4.61297-10.07431 10.2864v2.06788c0 5.56739 4.29483 9.86223 9.80919 9.86223h2.17394c1.69672 0 4.87808-.63628 6.41574-1.37859zm-6.04459-9.27897h-1.80277c-3.39345 0-5.93854-2.8102-5.93854-6.20366v-1.59068c0-3.39345 2.54509-6.20365 5.93854-6.20365h1.90882c3.39345 0 5.93854 2.8102 5.93854 6.20365v6.68086c-1.37859.47721-4.34786 1.11348-6.04459 1.11348z"/><path d="m236.60614 401.72235h22.16349v-4.50693h-15.85378l9.38501-11.24081c3.18137-3.71159 6.15064-6.57482 6.15064-11.29384v-1.11347c0-5.3553-4.34786-9.65013-9.70316-9.65013h-2.17393c-5.56738 0-9.70315 4.4539-9.70315 10.07431v3.71159h4.34786v-3.65857c0-3.23438 2.49207-5.93854 5.67343-5.93854h1.21952c3.07532 0 5.56738 2.49207 5.56738 5.6204v.95441c0 2.91625-2.22695 5.3553-4.55995 8.1655l-12.51336 15.27054z"/><path d="m268.68486 401.72235h4.66599v-37.27496h-2.91624l-10.39245 2.65114v4.08275l8.6427-1.90882z"/><path d="m284.96278 401.72235h4.666v-37.27496h-2.91625l-10.39245 2.65114v4.08275l8.6427-1.90882z"/></g><path d="m314.11976 401.72235h4.66599v-37.27496h-4.66599z" transform="scale(1.1499103 .86963304)"/><g transform="scale(1.0006898 .99931071)"><path d="m396.41301 349.784h4.03112l-8.68931-31.48758h-4.6582l-8.82368 31.48758h3.80717l2.3291-8.37579h9.71949zm-7.12166-26.82939 3.94155 14.95996h-7.92789z"/><path d="m409.26779 356.14422h3.94155v-6.0019c4.38945-.49269 7.88309-4.25508 7.88309-8.82369v-14.55685c0-4.92693-4.03113-8.91327-8.91327-8.91327h-1.92598c-4.92694 0-8.91327 3.98634-8.91327 8.91327v14.55685c0 4.6134 3.44885 8.37579 7.92788 8.86848zm-3.98634-29.29286c0-2.95616 2.3291-5.37483 5.28526-5.37483h1.29892c2.91137 0 5.28525 2.41867 5.28525 5.37483v14.37769c0 2.95616-2.37388 5.37484-5.28525 5.37484h-1.29892c-2.95616 0-5.28526-2.41868-5.28526-5.37484z"/></g><path d="m423.87872 358.68951h11.93041c4.63961 0 8.37969-3.74008 8.37969-8.42703v-1.3256c0-3.02995-1.79903-5.96521-4.54491-7.10144 2.03574-1.23091 3.59806-4.07149 3.59806-6.67535v-1.27826c0-4.68694-3.78743-8.47437-8.47438-8.47437h-10.88887zm4.07149-18.36904v-11.17293h6.24926c2.69855 0 4.87632 2.22512 4.87632 4.82898v1.51497c0 2.65121-2.17777 4.82898-4.82897 4.82898zm0 14.62896v-11.17293h6.77004c3.07728 0 5.11303 2.22512 5.11303 4.87632v1.46763c0 2.6512-2.08309 4.82898-4.73429 4.82898z" transform="scale(1.0267309 .973965)"/><g transform="scale(1.026865 .97383783)"><path d="m353.69562 303.71017h4.18343v-33.41991h-2.61464l-9.31765 2.37695v3.6605l7.74886-1.7114z"/><path d="m361.68213 303.71017h19.87131v-4.04081h-14.21416l8.4144-10.07827c2.85234-3.32773 5.51452-5.89484 5.51452-10.12581v-.99832c0-4.80143-3.8982-8.65209-8.69963-8.65209h-1.9491c-4.9916 0-8.69964 3.99327-8.69964 9.03241v3.32773h3.8982v-3.28019c0-2.89988 2.23433-5.32437 5.08667-5.32437h1.0934c2.75726 0 4.99159 2.23433 4.99159 5.03913v.8557c0 2.61465-1.99664 4.80144-4.08835 7.32101l-11.21921 13.69123z"/></g></g><g fill="#17569b" stroke-width="3.69999"><g transform="scale(1.0142741 .98592677)"><path d="m803.00488 87.031523v-87.3391378h63.51938v67.4893338l23.81976 19.849804 23.81977-19.849804v-67.4893338h63.51937v87.3391378l-31.75969 23.819767h-111.1589z"/><path d="m985.62308 110.85129v-111.1589048h63.51942v111.1589048z"/><path d="m1057.0824 110.85129v-79.399218l47.6395-31.7596868h127.0387v87.3391378l-31.7596 23.819767zm63.5193-87.33914v63.519373h47.6396v-63.519373z"/><path d="m1239.7006 110.85129v-79.399218l47.6395-31.7596868h127.0387l-31.7596 23.8197648h-79.3993v23.819765h79.3993l-31.7597 23.819765h-47.6396v15.879843h111.1589l-31.7596 23.819767z"/><path d="m1406.4389 87.031523v-63.519373l31.7597-23.8197648h111.1589l31.7597 23.8197648v63.519373l-31.7597 23.819767h-111.1589zm63.5194-63.519373v63.519373h47.6395v-63.519373z"/></g><g transform="scale(1.0178589 .98245447)"><path d="m799.90472 262.51367v-78.82324l47.29395-31.52929h126.11718l-31.5293 23.64697h-78.82323v63.05859h47.29394v-15.76465h-39.41162l31.52929-23.64697h70.94092v39.41162l-31.5293 23.64697z"/><path d="m981.19817 262.51367v-78.82324l47.29393-31.52929h126.1172v110.35253h-63.0586v-39.41162h-47.2939v39.41162zm63.05863-86.70556v23.64697h47.2939v-23.64697z"/><path d="m1162.4916 262.51367v-110.35253h63.0586l23.647 11.82348 23.6469-11.82348h63.0586v110.35253h-63.0586v-78.82324l-23.6469 11.82349-23.647-11.82349v78.82324z"/><path d="m1343.785 262.51367v-78.82324l47.294-31.52929h126.1172l-31.5293 23.64697h-78.8233v23.64697h78.8233l-31.5293 23.64697h-47.294v15.76465h110.3526l-31.5293 23.64697z"/></g><g transform="scale(1.0141156 .98608092)"><path d="m802.62201 413.84628v-111.24339h63.56765l23.83787 11.91894 23.83787-11.91894h63.56765v111.24339h-63.56765v-79.45956l-23.83787 11.91893-23.83787-11.91893v79.45956z"/><path d="m1160.1901 302.60289v87.40552l-31.7839 23.83787h-111.2434l-31.78379-23.83787v-87.40552h63.56769v87.40552h47.6757v-87.40552z"/><path d="m1168.136 374.1165v-39.72978l47.6758-31.78383h127.1353l-31.7839 23.83787h-79.4595v23.83787h111.2434v39.72978l-31.7839 23.83787h-143.0272l31.7838-23.83787h79.4596v-15.89191z"/><path d="m1350.893 413.84628v-111.24339h63.5677v111.24339z"/><path d="m1422.4066 413.84628v-79.45956l47.6758-31.78383h127.1353l-31.7839 23.83787h-79.4595v63.56765h111.2434l-31.7839 23.83787z"/></g><g transform="scale(1.0137239 .98646188)"><path d="m802.93213 485.85689 47.54918-31.69945h126.79782v47.54918l-31.69945 23.77459h-79.24864v39.62432h-63.39891zm110.94809 15.84973v-23.77459h-47.54918v23.77459z"/><path d="m985.20399 565.10553v-110.94809h63.39891v87.1735h110.9481l-31.6995 23.77459z"/><path d="m1167.4759 565.10553v-79.24864l47.5491-31.69945h126.7979v110.94809h-63.3989v-39.62432h-47.5492v39.62432zm63.3989-87.1735v23.77459h47.5492v-23.77459z"/><path d="m1349.7477 485.85689v-31.69945h63.399v23.77459l23.7745 14.52892 23.7746-14.52892v-23.77459h63.3989v31.69945l-55.474 23.77459v55.47405h-63.3989v-55.47405z"/><path d="m1532.0196 565.10553v-79.24864l47.5492-31.69945h126.7978l-31.6995 23.77459h-79.2486v23.77459h79.2486l-31.6994 23.77459h-47.5492v15.84973h110.9481l-31.6995 23.77459z"/><path d="m1698.4417 485.85689 47.5492-31.69945h126.7978v55.47404l-23.7746 15.84973 23.7746 39.62432h-63.3989l-39.6243-63.39891h39.6243v-23.77459h-47.5492v87.1735h-63.3989z"/></g></g></svg>