<svg height="153.65862" viewBox="0 0 1101.5964 445.60998" width="379.86084" xmlns="http://www.w3.org/2000/svg" xmlns:xlink="http://www.w3.org/1999/xlink"><linearGradient id="a" gradientUnits="userSpaceOnUse" x1="521.14966" x2="547.15253" y1="328.12241" y2="114.90797"><stop offset="0" stop-color="#edea22"/><stop offset=".74777329" stop-color="#fff"/><stop offset="1" stop-color="#fff"/></linearGradient><g transform="translate(-65.245522 -52.552734)"><text fill="#ef00eb" font-family="TrasksHand" font-size="5.8" stroke="#0105ff" stroke-width="7.25" x="214.21596" y="106.57784"><tspan fill="#fafafa" fill-opacity=".4" font-size="5.8" stroke="none" stroke-width="7.25" x="214.21596" y="106.57784">John Loreth 2022</tspan></text><g stroke-linecap="round"><path d="m395.49023 52.552734c-27.56248.000002-51.39555 13.186844-68.64648 30.464844-2.15459 2.157971-4.11904 4.491974-6.08789 6.81836-4.50729-1.162352-9.36318-1.485372-14.54102-.5625-13.90725 2.478747-23.68362 12.142872-28.63867 23.011722-.91779.16382-1.82522.30966-2.74805.55273-7.20087-.8907-14.33479.13624-20.89257 2.52539-3.72665-2.01826-7.56249-3.3466-11.06836-3.95703-5.16149-.89869-10.96111-.58933-16.59766 1.02539-6.34059-1.8098-12.76929-1.72697-18.73828-.0762-4.475-2.99608-9.15561-4.77283-13.94141-5.54688-6.21987-11.597155-18.24117-19.404334-32.5957-19.404293-4.67551-.000032-9.01695.980605-12.97266 2.564453-2.30462-.695925-4.7377-1.257452-7.41992-1.412109a16.957331 16.957331 0 0 0 -.0293-.002c-.68595-.03839-1.37318-.05389-2.0625-.04688h-.004c-3.54499.034-6.91943.863051-9.99219 1.867188-3.27595-1.130225-6.47379-1.701688-9.45898-1.888672-13.10453-.820813-27.499029 5.49847-35.921878 16.683592a16.957331 16.957331 0 0 0 -.0039.004c-.499045.66317-.971386 1.34602-1.416015 2.04687-.000308.00049.000307.001 0 .002-.000971.002-.0029.002-.0039.004-10.282009 16.20407-13.679273 33.56798-15.757812 46.24805a16.957331 16.957331 0 0 0 -.002.0117c-.106205.65108-.191073 1.30557-.25586 1.96289-.792036 7.97433-2.149146 27.40737 12.119141 42.85156.0013.001.0026.003.0039.004.0023.002.0036.005.0059.008.05405.0585.107593.11592.158203.16992a16.957331 16.957331 0 0 0 .01563.0156c9.945659 10.58393 23.324276 14.27679 34.759766 13.75195 3.7598-.17253 7.49652-.79108 11.11133-1.8418 1.13411-.32969 2.25009-.72353 3.33984-1.17968 2.39024-1.00037 4.55958-2.14694 6.61719-3.34766 1.49448.81528 3.01683 1.57432 4.58203 2.18164.26746.10378.53315.14073.80078.23828-15.50974 17.13546-27.08478 37.99461-32.37695 61.5586-.00087.004-.001.008-.002.0117-.00045.002-.001.004-.002.006-.20349.90435-.37223 1.81523-.50586 2.73243a16.957331 16.957331 0 0 0 -.002.0176l-21.880625 151.272901a16.957331 16.957331 0 0 0 -.002.0156c-.08578.59683-.155554 1.19209-.210938 1.78515-.000061.00065.000062.001 0 .002-1.721653 18.32126 4.091949 36.2547 16.478511 48.97461 11.87151 12.19099 27.65165 17.90235 42.78126 18.24805 31.47633.71919 62.23593-23.19286 67.38085-59.64453l1.91797-13.21289c22.09757 3.44892 45.1916-2.64491 68.06836-11.85547a16.957331 16.957331 0 0 0 .13086-.0527c.0596-.0246.10303-.0428.12696-.0527l-.10743.043c8.47051-3.45452 16.9249-7.98955 24.78516-13.88477 1.09588 1.59872 2.15351 3.22181 3.42773 4.70899 11.29583 13.18366 26.92623 19.71814 41.875 21.08984 13.591 1.24712 27.2228-2.05772 39.14258-9.05468 9.77464 6.39533 20.7995 9.58279 31.21485 10.15625 15.67875.86324 32.2465-4.01967 45.36523-13.89649 2.85995 23.98504 13.08199 45.15211 28.69141 60.46094 21.14537 20.73817 49.36388 30.23935 76.875 30.42383 38.17146.58264 65.78842-29.17473 68.77539-61.03516.56758-6.05419.27413-12.41879-.99414-18.74805 7.55956 1.43344 15.4117 1.92851 23.44726 1.49805v.0644l1.68555-.0488-.73242.004c38.83452.55553 77.97047-15.94176 106.05664-45.71679.51044.69368.97731 1.41286 1.50586 2.0957.00056.00072.001.001.002.002.001.002.002.004.004.006.37937.49041.77191.97125 1.17578 1.44141a16.957331 16.957331 0 0 0 .006.008c28.36692 32.9829 67.78821 47.20516 104.50195 41.71484a16.957331 16.957331 0 0 0 .15039-.0234c.0277-.004.10722-.0176.16797-.0274 7.90144-1.25358 15.13861-3.94913 21.70898-7.5 10.67906 6.66946 22.66793 9.2045 33.25196 9.13672 12.90357-.0826 25.45066-3.78159 36.53515-10.4043 9.03647 5.37204 19.00199 8.18564 28.61719 8.81055 13.32006.86569 26.66306-2.49867 38.30276-9.45117 9.3273 5.79705 19.7222 8.80289 29.6972 9.45117 30.6823 1.99412 64.0772-18.66919 69.9532-55.18164.037-.23276.069-.44396.096-.62695a16.957331 16.957331 0 0 0 .01-.0703l29.8243-211.47265-.2891 1.04297a16.957331 16.957331 0 0 0 .459-2.21485c2.6382-18.95441-4.4976-36.67234-17.1563-48.43359-11.6396-10.814458-26.4529-15.888958-40.75-16.419922-12.5946-.467747-24.9712 3.119134-35.875 9.80664-9.9068-6.290757-21.1612-9.399467-32.125-9.80664-30.6294-1.137544-62.1291 21.077292-69.08396 57.648432-.0983.51683-.18644 1.03415-.26172 1.55079a16.957331 16.957331 0 0 0 0 .004l-5.20508 35.77149c-17.339253-12.99818-39.537393-21.93636-65.559423-22.65497a16.957331 16.957331 0 0 0 -.0449 0c-42.28407-1.11592-83.52859 16.37401-112.40625 47.33008-.69699-.96042-1.34794-1.93747-2.08008-2.88477-15.55204-20.12241-39.86624-36.57959-70.32031-40.85547-7.09117-2.32109-14.2695-3.53819-21.32813-3.72461.0602-.57298.16335-1.24182.21875-1.80273v-.01c.00084-.009.003-.0188.004-.0273a16.957331 16.957331 0 0 0 .008-.1543c1.85919-18.77772-2.31402-38.0357-15.11328-52.30664-12.80411-14.27634-30.56818-19.658227-46.32813-19.113278-30.27798 1.046956-60.57254 22.929808-65.26171 57.939448a16.957331 16.957331 0 0 0 -.0293.0605l-4.58008 33.05664c-16.81485-10.68324-37.53304-17.24565-60.99053-17.29859a16.957331 16.957331 0 0 0 -.0117 0c-.18968-.00029-.38469.001-.58203.004-6.58605.0915-12.90417.83101-19.07617 1.87109 1.60038-7.06507 2.5183-14.40574 2.47265-22-.14609-24.3011-9.53394-47.247034-26.76369-63.043054-17.03357-15.616154-39.62625-22.863282-62.57422-22.863282zm-147.875 89.617186 31.0586 13.16602c-.15477.48452-.33792 1.01561-.73828 1.85547-.20019.41993-.42858.89274-.96289 1.73242-.5339.83901 1.50012 1.70337-6.34571 5.85156-.99062.52225-4.0201 1.51381-4.01953 1.51367.00058-.00013-6.81688.205-6.8164.20508.00047.00008-7.72303-3.49249-7.72266-3.49219s-4.40652-5.37552-4.40625-5.375-1.26378-3.03044-1.51172-4.14257c-.24794-1.11214-.33498-1.98264-.37695-2.70508-.0839-1.44489.009-2.33247.0957-3.03711.3453-2.81857.7158-3.25357.95703-3.89063.36949-.97579.57216-1.29464.78906-1.68164zm428.59766 144.06641c1.302.19322 2.58827.45114 3.9043.58203-.13515.80068-.15879 1.49381-.40235 2.36719.56193-2.01504.18783-.4082-1.25.78515-.64135.53231-1.43865 1.00699-2.22851 1.42188-.0885-1.45578-.0545-3.22995-.0234-5.15625zm207.58984.7539-.81445 5.31836c-1.77985-.3833-3.56037-.76454-5.375-1.03515.90379-1.09723 2.15661-2.33017 3.69531-3.26172.70265-.42539 1.62001-.70941 2.49414-1.02149zm-646.24023.27735c-.89234 1.85738-2.42439 3.5257-5.11328 4.36914 1.31564-1.44898 3.29312-3.20487 5.11328-4.36914z" fill="#f0352b"/><path d="m395.49023 69.507812c-22.10695.000001-41.8509 10.669482-56.64843 25.490235-4.94426 4.952008-9.35955 10.496773-13.13282 16.453123-4.49197-4.11989-10.84825-6.49519-16.51953-5.48437-8.68279 1.54757-14.80517 8.44956-17.30078 16.22851-.022.0695-.0435.13916-.0644.20899-.80311 2.64208-1.36373 4.72885-2.04102 7.08203-4.12619-1.28231-9.16662-1.33122-13.74218.79101-8.37974-2.20832-16.89786-.0866-24.13477 5.10157-3.30731-4.48161-7.76464-6.53932-11.94727-7.26758-4.20194-.73162-8.58936-.23986-12.85546 2.08398-.31473.17144-.60115.4402-.91016.63672-1.06139-.62406-2.05637-1.31994-3.28906-1.77344h-.002c-6.57696-2.41897-13.80755-.59486-18.71679 3.93555-.66543-1.2792-1.40974-2.44397-2.23047-3.35156-.35461-.39304-.73085-.76601-1.12696-1.11719-5.209-4.60786-13.30282-5.90571-18.80468-4.4082-.29115.0792-.52189.2041-.80274.29101-.12287-10.52195-9.69204-20.04884-20.22656-20.04882-4.45448-.00002-8.68952 1.76633-12.16211 4.52734-2.64249-1.793-5.67028-3.1984-9.20703-3.40234-.31803-.0178-.63657-.025-.95508-.0215-5.55104.0524-7.92802 1.69805-10.61914 3.51172-.0244.0165-.0459.042-.0703.0586-3.34683-2.45143-7.1021-3.44434-9.98633-3.625-8.61248-.53945-15.66886 2.46128-21.316406 9.96094-.228562.30373-.444881.61648-.648437.9375-8.15675 12.85237-11.378736 27.91074-13.345703 39.91016-.04853.29751-.08762.59649-.117188.89648-.740785 7.45434-1.603928 19.61802 7.707032 29.68945.02593.0281.05197.0561.07812.084 6.072358 6.46206 14.321462 8.76107 21.626962 8.42578 2.43326-.11166 4.82477-.50786 7.15625-1.18555.51826-.15066 1.02754-.33063 1.52539-.53906 5.77943-2.41882 10.0472-5.75545 13.70507-9.23242 2.42157 3.5738 5.74072 6.18028 10.17383 7.90039 5.89968 2.28917 10.56879 2.26392 16.1211 1.61719 2.37635-.2768 4.89943-.76984 7.45703-1.58594 2.64902 1.10868 5.37174 1.91995 8.0039 2.26367.34764.0454.69684.078 1.04688.0977 2.0564.11559 3.84254-.009 5.49414-.22071-29.09346 17.18484-51.67785 45.24178-59.29102 79.16211-.1093.48461-.19986.97326-.27148 1.46485l-21.88086 151.27343c-.0458.31867-.0835.63843-.11328.95899-1.274572 13.55937 3.26482 26.85103 11.74609 35.56055 8.48127 8.70951 19.82868 12.87125 31.01953 13.12695 22.38069.51137 46.24073-16.96853 50.20508-45.06641l4.75977-32.79101c.20726.10413.40278.2443.61133.34375 21.66639 10.33215 46.606 5.48442 75.07226-5.97656.0267-.011.0534-.0221.0801-.0332 11.61108-4.73533 22.32826-11.00644 30.75781-20.41211 2.54733-1.99471 4.98586-4.09221 7.31836-6.28515 1.03814 8.40479 4.31604 16.23941 9.41406 22.18945 8.08559 9.43691 19.31425 14.20544 30.54883 15.23633 13.22108 1.21317 27.56713-3.7503 38.33594-13.66211 8.46659 9.63455 20.28737 14.10667 31.4043 14.71875 22.65689 1.24745 48.09713-13.17772 51.8457-40.24219.005-.0325.009-.0651.0137-.0977 0 0 2.94922-22.113 5.83203-44.17382 1.44141-11.03042 2.86562-22.04379 3.90235-30.32032.51836-4.13826.9385-7.57728 1.22461-10.08203.0687-.60138.10644-1.01504.16015-1.51562 1.98443-5.51698 7.40426-8.01913 10.8457-8.06836.58439-.008.75145.0567 1.01954.10742-.005.35484.0242.54095-.14454 1.83984-.005.043-.0105.0859-.0156.12891l-13.39648 108.82617c-.00033.003.00032.005 0 .008-3.85992 30.91064 6.07032 57.67761 23.71093 74.97852 17.60827 17.26918 41.48183 25.43768 65.19727 25.57812 29.13014.479 49.53756-22.6087 51.69922-45.66601 1.08262-11.54781-1.85307-24.1428-10.66797-33.8457-8.53846-9.39862-22.22767-14.31929-36.4707-13.57227-.005-.002-.0223-.012-.0273-.0137-.15688-1.26949.57443-9.61317 2.46485-23.3125l.80273-5.66602c3.26448 4.62692 6.79635 9.05761 10.69141 13.10352 18.70157 19.42587 44.83566 32.73894 73.0625 30.71484 41.27241.8357 84.20414-20.9041 108.76171-58.99219 3.26932 7.85761 7.46854 15.2551 12.64649 21.94336.20297.26252.41268.51977.62891.77149 24.95282 29.01325 58.30806 40.61248 89.13867 36.00195.0567-.009.11332-.0179.16992-.0273 9.91517-1.57306 18.49165-5.82948 25.36914-11.69922.0107.0116.0186.0255.0293.0371 8.90579 9.68329 21.19126 13.15976 32.10937 13.08984 10.91811-.0699 21.35729-3.2772 30.49414-9.40625 2.20575-1.47963 4.34636-3.19739 6.37305-5.10156 8.23943 8.25978 18.98192 12.26601 29.49414 12.94922 13.09101.85081 27.19661-4.15211 37.57031-13.875 8.3475 8.90944 19.5213 13.16605 30.4297 13.875 22.2419 1.44555 47.7129-13.61229 52.1132-40.95508.02-.12351.039-.24721.057-.37109l29.9804-212.58008.01-.0352c1.7936-12.88601-3.5174-25.88151-11.9043-33.67383-8.3869-7.79231-18.9787-11.49514-29.8379-11.89843-12.3575-.45894-25.5604 4.76847-35.7383 14.45507-.7819-.89018-1.5746-1.76763-2.4238-2.55664-8.3869-7.79231-18.9787-11.49514-29.8379-11.89843-21.7179-.80658-46.39216 15.43641-51.79878 43.875-.0522.27436-.0984.54981-.13867.82617l-10.16992 69.90039c-15.04831-22.27218-41.83248-41.28098-77.8418-42.27539h-.0234c-45.10666-1.19041-89.39071 21.80626-114.12696 60.66797-3.34844-7.87309-7.7432-15.57654-13.32812-22.80274-13.39717-17.33427-34.37616-31.52216-60.9375-34.74414-12.72205-4.47073-25.76264-4.24004-36.77539-.40234 1.00253-7.98374 2.15189-16.43101 2.83008-23.30664v-.006c1.54069-15.22276-1.95351-29.54518-10.85547-39.4707-8.90313-9.92682-21.70931-13.88282-33.11914-13.48829-22.81992.78907-45.73562 16.95064-49.11133 43.60547l.0293-.22461-8.91796 64.36328c-15.68654-19.75854-40.87768-33.90298-73.48633-33.97656-.10287-.00016-.20574.00051-.3086.002-19.25155.26572-36.4786 5.52369-51.11718 13.48632 10.76787-13.87005 17.42814-31.22731 17.3125-50.46679-.12028-20.01017-7.82652-38.3239-21.26758-50.646488-13.44106-12.322585-31.71131-18.40625-51.11524-18.40625zm268.63868 333.437498c-.33647-.007-.67548.0489-1.01172.0391l2.25195-.0645c-.41762.0366-.82352-.004-1.24023.0254zm-401.43555-253.15429c.0215-.0114-.006.09-.12109.29101-.017.0312-.034.0624-.0508.0937.0796-.24919.15034-.37338.17188-.38476zm61.43945 39.14843c3.44985 5.50495 7.57494 10.52229 12.34766 14.82813-1.24416 2.67792-2.28925 5.7034-2.57422 9.49609l.16016-1.41992-1.27149 8.4707c-6.68184-10.2529-15.55227-19.29587-26.54492-26.5664.52833-.004 1.05541.0212 1.58789 0 4.85722-.19357 9.22253.48706 16.29492-4.8086zm337.8086 75.42188c8.02213 4.13068 17.67233 6.09958 28.02148 5.95703 5.73236 1.90204 6.61979 3.41589 7.40234 5.36523.88879 2.21397 1.40587 8.28762-1.31835 18.05664-1.70196 6.10313-9.89049 13.5151-19.25 15.36133-11.09136.67964-13.05095-1.00482-14.48243-2.9082-1.46687-1.95045-4.12781-10.28373-2.86328-26.39453.0595-.34992 1.78161-11.16992 2.49024-15.4375zm225.30859 4.57617c1.27989-.0509 2.38013.0449 3.33594.21875 4.05624 1.0789 11.8674 7.01505 10.49414 17.01367-.00038.003.00038.005 0 .008l-4.47852 29.24219c-8.81018-5.36965-19.54315-8.04479-31.59179-8.28906-1.84742-1.94103-3.20787-3.46351-3.92969-4.75195-1.2709-2.26854-2.42335-4.99203-1.28516-13.54297 1.74546-5.78468 6.40366-11.49659 12.73242-15.32813 4.93531-2.98791 10.5368-4.40379 14.72266-4.57031zm-647.39062.0879c3.33514-.24263 6.21536.28091 8.38476 1.27539 2.63762 1.20912 4.76527 2.96159 6.73438 7.35156 2.85308 13.44428-6.01149 30.11176-24.22266 31.44532-.82741.0603-1.65008.17379-2.46289.33984-3.90653.79947-8.48331 1.05208-15.18164 3.17383-.65325.20692-1.31997.52897-1.97656.77539l3.5-24.10938c2.532-9.59285 12.26354-17.67851 21.74804-19.74414 1.20334-.26207 2.36484-.42693 3.47657-.50781zm530.49414 1.1875c-.0336.10586-.0468.21248-.0801.31836-.0461.16846-.11272.32533-.15821.49414z" fill="url(#a)"/><path d="m245.34961 195.44922c-46.63184 1.28473-92.85982 36.58679-103.13573 82.37095l-21.8799 151.27358c-3.31312 35.24639 49.05144 38.57714 54.61671-.88711l20.76025-143.01328c8.67074-36.12053 62.88413-51.50242 77.82669-13.3751 6.51668 25.21003-11.01023 54.31847-41.37157 56.54174-5.10199 1.04412-9.10297 1.35948-13.22239 2.66434-4.97792 1.57679-7.53018 3.16313-15.56287 9.73167-21.97625 41.54109 12.3452 54.57949 63.92634 33.81207 10.47244-4.27096 19.56888-10.04241 25.03041-16.75582 46.4023-35.06559 54.05847-117.7644.58467-149.81877-14.18723-8.72042-30.97224-12.87001-47.57261-12.54427z"/><path d="m383.59766 191.12305c-4.95292 3.79763-12.02596-.13698-16.2933 1.9888-2.19935 1.09561-3.81209 8.0804-3.81209 8.0804-3.62382 4.20313-9.92762 8.20854-10.32664 13.51912l-20.9918 139.78863c-7.18624 35.35854 47.97711 41.99311 55.46621 3.51822l19.45611-139.88358c.699-5.28164-2.86135-12.38655-5.55783-16.0864-4.23-5.80399-10.72101-9.97285-17.94066-10.92519z"/><path d="m501.94336 194.85156c-50.20143.69291-83.04128 41.7782-88.0506 68.3245l-13.94354 89.23214c-6.50654 43.27592 50.76826 40.52953 55.14425 8.93507 0 0 11.78658-88.38515 11.23984-87.82883 8.15506-29.88088 54.12727-31.91165 49.89725.65703l-13.40045 108.86173c-6.47679 51.83642 31.34009 78.68447 69.97093 78.86296 39.18671.74907 45.308-57.68673 4.46425-54.48529-2.42911.21018-4.86256.0182-6.93235-1.15031-16.00891-9.03797-13.62463-17.08527-9.88287-44.17639l12.92821-91.24603c6.71639-32.1749-17.91627-75.86582-71.43492-75.98658z"/><path d="m603.52096 147.80268-20.96119 151.29157c-5.70412 42.78796 38.4505 88.32818 81.12185 84.5854 52.49282 1.53398 111.02042-40.4675 110.46915-111.99548-.57763-29.25619-22.58486-70.42521-67.32852-74.42054-47.05309-19.12695-72.65862 57.76302-13.9607 53.68542 24.07175 6.75972 28.47163 24.01671 21.78953 47.9786-4.19039 15.02664-18.8861 26.69138-35.45976 29.41103-31.13447 2.25721-42.03943-13.49897-38.97378-50.56879 0 0 13.60723-80.26505 18.0141-124.98059 4.64484-45.85459-50.6482-37.06427-54.71068-4.98662z"/><path d="m899.27539 194.63086c-48.54518-1.28115-96.87289 30.80097-110.51225 81.42035-9.18039 28.94784-3.67901 57.71404 12.04461 78.02396 21.38343 24.86303 46.93358 33.18752 71.64076 29.49271 35.77742-5.67614 40.1884-61.75964-15.6023-56.99836-8.39029-9.06782-19.9116-16.30277-16.01239-41.91028 6.15961-23.6788 33.6769-38.65272 54.01827-34.38529 13.90407 3.30535 28.15083 18.30346 25.3617 38.54084l-10.1552 66.31021c-6.51736 42.30533 49.33062 34.27083 53.95872 7.33274l11.75993-80.29893c4.71065-27.92685-16.62211-85.87434-76.50185-87.52795z"/><path d="m1006.9314 150.48061-29.58765 203.36705c-5.74905 37.15359 49.40675 39.67556 55.04495 4.64107l29.9833-212.58078c3.8929-27.96776-47.6297-36.51288-55.4406 4.57266z"/><path d="m448.56034 138.6758c.21129 35.15024-31.29637 64.01161-62.22432 64.01161s-53.61349-20.09813-53.61349-51.02608 31.84018-62.840868 62.76813-62.840868 52.88378 18.927958 53.06968 49.855338z" stroke-opacity=".659414" stroke-width="54"/><path d="m1074.9314 150.48061-29.5877 203.36705c-5.749 37.15359 49.4068 39.67556 55.045 4.64107l29.9833-212.58078c3.8929-27.96776-47.6297-36.51288-55.4406 4.57266z"/></g><g fill="#100"><path d="m108.06095 123.94167c-6.12013 9.64332-9.497043 23.49192-11.314655 34.5802-.628119 6.32061-.592168 13.65126 3.989215 18.60683 3.64266 3.87643 9.46531 4.75527 14.42217 3.31445 6.11509-2.5593 11.48413-8.45784 16.8485-14.23409 5.52658-6.60287 8.57844-17.5573 10.12235-25.77317 6.05061 3.74454 11.01187-3.10757 3.96427-5.3499-2.4695-1.00819-2.22522-2.93991-2.00956-4.73188 1.15894-4.12091-.62402-10.37422-5.27802-10.64261-2.92141.0276-10.68232 6.03196-3.61087 14.09017.73871 1.70091 1.21604 2.95515.53395 5.54152-2.4598 6.75773-4.63236 15.0494-8.81312 21.02656-1.66944 1.94386-3.35544 3.91098-5.17928 5.68124-7.26079 7.37312-16.22439 5.85028-15.91833-3.11015.26494-5.94226 1.62964-10.51653 3.57029-16.52417 1.83877-7.20563 6.3446-15.35652 10.51263-21.01236 3.8213-7.4678-7.33456-7.44503-11.83954-1.46264z" stroke="#000" stroke-linecap="round"/><path d="m295.38275 175.66912c1.66155-.85061 2.92505 1.85243 4.05831 2.5751 2.38234 1.94092 13.03747 1.71977 16.38151-.85473 7.3774-5.48416 5.21691-9.73777 1.26958-6.35297-4.7514 5.40812-14.84943 5.24494-13.93953-.50543 2.09528-12.42327 5.44423-27.55958 10.66358-34.01688 1.60842-1.98992 2.86597-3.61112 3.47759-6.22274.37969-2.27067.71131-4.54394.0412-6.69359-1.77933-5.54867-9.31413-5.03954-11.87764 2.95106-6.23576 20.51449-8.14629 30.53533-8.87003 39.22965-.70565 9.84208-19.45604 12.23194-16.89005 3.03788l8.26554-22.00746c1.36637-3.13149-4.42326-6.01117-7.07331-2.79412-.63031.76518-1.5576 1.47357-2.27363 2.66762 0 0-.9484-.34785-3.47469-1.64598-6.47871-3.32906-18.07554.41287-24.19209 13.39519-1.2551 3.72336-1.79135 7.12815-1.61605 11.04189-.27198 1.19519-.86926 2.11342-1.91847 3.0914-4.74799 4.57377-14.63493 2.75121-12.77654-6.06233 2.4349-7.04306 3.50414-12.80507 6.23473-19.01661 1.96283-5.99857-7.81142-7.68521-9.32576-1.63824-2.65443 9.78855-3.43187 14.6829-7.01951 20.85283l-3.05364 4.24898c-4.96885 6.94585-8.55134.56739-6.69325-5.62888l6.37252-17.83239c.76252-2.07322-1.09558-4.29339-3.16874-5.05609-2.07322-.76252-4.37206.2999-5.13476 2.37305l-5.2769 19.53891c-1.75288 7.27459-3.09509 7.59861-9.02372 10.51397-5.45969 2.6187-7.1068-.22962-4.39389-4.93486 2.27793-4.24156 2.20226-10.95419-.84233-15.77852-.66447-1.14678-1.33304-1.99318-2.2693-3.11577-1.65309-1.71455-.52167-4.92813.61797-6.43031.54697-1.56424 1.81939-3.08498-.27448-5.40045-3.59365-3.17892-8.02424-.95325-10.10749 1.73355h-.00005c-1.46236 1.83461-2.04959 4.5638.80214 8.1976l-13.99443 20.94508c-1.45803 1.45118-4.40893 4.06879-12.04237 3.85534-3.84458-.47994-3.51907-3.82104-2.82857-5.49486l6.90997-21.45285c1.72169-6.20897-8.20369-5.98338-9.60999-1.28993l-5.67372 22.16448c-.5101 1.43772-.70139 3.58297.11663 6.07362.59605 2.1092 2.48792 4.16935 4.73438 5.04101 4.28284 1.66181 14.25754 1.34982 18.92786-3.05483 2.47253 2.61178 5.56073 4.01175 9.34558 4.506 4.46874.25122 7.01319-1.13997 10.40399-2.24233 4.76513 2.4439 7.69518 2.37215 12.72419.17139.90324-.40245 1.67147-.86646 2.43153-1.34986 2.28228-1.61133 2.94276-2.9846 4.40003-.008 2.19753 3.90106 10.8625 1.67489 13.09692-.21932 1.40276-.94472 2.32309-1.69524 3.15656-2.96351 1.95849-4.37834 3.16532-1.50605 3.43467-.0326 1.51513 8.37196 14.14841 7.42853 17.90908 4.6928 4.56272-2.57442 3.51163-2.98821 7.57905.50256 2.81792 2.30825 9.43564 3.17588 16.08015-5.07439 1.09794-2.03819 1.76606-.59195 3.36746 1.92808 3.01293 6.27531 15.6651 5.47873 22.83221-.15821zm-30.58904-3.54958c-5.60038 5.47427-9.58093-1.36287-7.22406-7.85888 1.22473-3.37559 3.43876-6.3667 4.53035-7.72535 2.52808-3.05664 5.44073-5.36767 8.56112-6.2603 1.83153-.25855 8.92469-1.23982 4.28067 6.88042-2.66773 5.05001-5.97407 10.04466-10.14808 14.96411zm-81.27874-14.22475c.45297-.74124 1.01735-.82361 2.09489 1.05876 2.6844 4.69576.0405 10.50304-2.87927 14.0952-2.70683 2.62516-8.70856-2.24687-5.32438-6.70595z" stroke="#000" stroke-linecap="round"/><ellipse cx="160.99332" cy="-124.60928" rx="6" ry="6.000001" transform="scale(1 -1)"/></g></g></svg>