<svg height="181.818182" viewBox="0 0 400 181.81818182" width="400" xmlns="http://www.w3.org/2000/svg"><path d="m56.727 37.524c0 .66 7.578 13.977 25.828 45.385 3.117 5.365 23.156 40.063 30.347 52.548l5.762 10.003 92.812-.185 92.812-.184 8.59-14.909c4.725-8.2 8.818-15.399 9.094-15.999.277-.599 10.261-18.108 22.187-38.909l21.683-37.819-51.829-.187-51.829-.187-3.942 4.187c-2.169 2.303-7.513 7.95-11.876 12.55l-7.934 8.364 14.442.363 14.443.364-10.443 18.546c-5.743 10.2-11.351 20.181-12.462 22.181-1.11 2-2.933 5.273-4.05 7.273s-4.404 7.891-7.305 13.091c-2.9 5.2-5.879 10.522-6.62 11.826l-1.346 2.371-13.726-.19-13.726-.189-28.819-50.352-28.82-50.351-41.636-.012c-22.9-.007-41.637.183-41.637.421m97.559 2.294c3.911 6.953 19.343 34.63 22.303 40 1.819 3.3 3.517 6 3.772 6s5.489-5.154 11.632-11.454c6.142-6.3 16.916-17.264 23.943-24.364l12.776-12.909h-37.98-37.98zm-17.19 7.273c.784 1.5 2.377 4.364 3.54 6.364 5.85 10.064 19.405 33.66 23.396 40.727 2.484 4.4 9.106 16.018 14.715 25.818l10.199 17.818-32.751.189c-30.552.177-32.814.104-33.688-1.09-.516-.705-5.828-9.79-11.806-20.19-5.977-10.4-17.018-29.545-24.534-42.545-7.517-13-14.462-25.027-15.434-26.727l-1.766-3.091h33.351 33.351zm59.577 11.818c-16.521 16.688-14.714 15.512-17.035 11.091-.997-1.9-4.364-7.961-7.482-13.47-3.117-5.508-5.854-10.499-6.081-11.091-.359-.935 2.553-1.075 22.293-1.075h22.704zm156.054-14.122c0 .232-1.145 2.377-2.545 4.766s-2.546 4.521-2.546 4.737c0 .217-.607 1.263-1.349 2.325-.743 1.062-3.819 6.349-6.837 11.749s-9.164 16.2-13.659 24c-4.494 7.8-9.1 15.854-10.236 17.898s-5.141 9.081-8.901 15.636l-6.837 11.92-32.817.189c-18.05.104-32.818.023-32.818-.181 0-.357 5.552-10.439 15.423-28.008 2.585-4.6 5.695-10.163 6.912-12.363s3.952-7.11 6.077-10.91 6.88-12.309 10.566-18.909l6.703-12-12.104-.363-12.103-.364 4.998-5.273 4.998-5.272h43.538c23.945 0 43.537.19 43.537.423m-278.648 51.031c-.635.7-12.101 12.155-25.481 25.455l-24.326 24.182h40.955c22.525 0 40.955-.255 40.955-.566s-.45-1.211-.999-2c-.87-1.248-12.404-20.591-16.743-28.077-.842-1.453-3.822-6.598-6.622-11.432-5.295-9.143-5.831-9.667-7.739-7.562m3.547 15.273c1.586 2.7 5.714 9.701 9.174 15.558s6.291 10.848 6.291 11.091-11.504.442-25.565.442h-25.565l16.292-15.969c8.961-8.783 16.337-15.983 16.391-16 .055-.017 1.397 2.178 2.982 4.878" fill="#f2f2f2" fill-rule="evenodd"/></svg>