<svg height="146.30861" viewBox="0 0 553.61011 58.523444" width="1384.0253" xmlns="http://www.w3.org/2000/svg"><g stroke-width="2.5" transform="translate(-16.424772 -91.539841)"><path d="m122.1379 149.75078q0-1.21094.85937-2.07031.85938-.85938 2.07032-.85938v-49.999999q-1.21094 0-2.07032-.859375-.85937-.859375-.85937-2.070313h16.75781q0 1.210938-.85937 2.070313-.85938.859375-2.07032.859375v20.859379l11.75782-23.789067h13.82812q0 1.640625-1.48437 2.5-.46875.3125-1.44532.390625l-12.65625 25.039062 12.65625 25q1.21094 0 2.07032.85938.85937.85937.85937 2.07031h-13.82812l-11.75782-23.82813v20.89844q1.21094 0 2.07032.85938.85937.85937.85937 2.07031zm-28.388756-10.89844q0 1.21094.859375 2.07031.859375.85938 2.070312.85938h5.859379q1.21093 0 2.07031-.85938.85937-.85937.85937-2.07031v-6.17187h12.10938q0 1.99218-1.83594 2.73437.625 1.75781.625 3.63281v.35157q0 4.375-3.125 7.5-3.125 3.125-7.5 3.125h-12.265624q-4.375 0-7.5-3.125-3.125-3.125-3.125-7.5v-35.23438q0-4.374999 3.125-7.499999 3.125-3.125 7.5-3.125h12.265624q4.375 0 7.5 3.125 3.125 3.125 3.125 7.499999v.35156q0 1.875-.625 3.63282 1.83594.74218 1.83594 2.73437h-12.10938v-6.17187q0-1.21094-.85937-2.07032-.85938-.85937-2.07031-.85937h-5.859379q-1.210937 0-2.070312.85937-.859375.85938-.859375 2.07032zm-33.388749 10.89844q0-1.21094.859375-2.07031.859375-.85938 2.070313-.85938v-50.039062q-1.210938 0-2.070313-.859375-.859375-.859375-.859375-2.070312h16.757813q0 1.210937-.859375 2.070312-.859375.859375-2.070313.859375v50.039062q1.210938 0 2.070313.85938.859375.85937.859375 2.07031zm-18.388748-44.6875q0-1.21094-.859375-2.07031-.859375-.89844-2.070312-.89844h-8.789063v15.58594h8.789063q1.210937 0 2.070312-.85938.859375-.85937.859375-2.07031zm.664063 16.71875q4.21875.15625 7.226562 3.24219 3.007813 3.125 3.007813 7.42187v14.375q1.210937 0 2.070312.85938.859375.85937.859375 2.07031h-13.828125v-20.89844q0-1.21094-.859375-2.07031-.820312-.85938-2.03125-.85938h-8.828125v20.89844q1.210938 0 2.070313.85938.859375.85937.859375 2.07031h-16.757813q0-1.21094.859375-2.07031.859375-.85938 2.070313-.85938v-50.039062q-1.210938 0-2.070313-.859375-.859375-.859375-.859375-2.070312h25.820313q4.375 0 7.5 3.125 3.125 3.124999 3.125 7.499999v6.67969q0 4.29687-3.007813 7.38281-3.007812 3.125-7.226562 3.24219zm515.25524 7.07031q0-1.21093-.86462-2.07031-.86461-.85937-2.08293-.85937h-9.11776q-4.44097 0-7.58502-3.125-3.10476-3.125-3.10476-7.5v-11.13281q0-4.375001 3.10476-7.499997 3.14405-3.124999 7.58502-3.124999h12.34041q4.40168 0 7.54573 3.124999 3.14405 3.124996 3.14405 7.499997v.35156q0 1.875-.66811 3.63281 1.84713.74219 1.84713 2.73438h-12.1439v-6.17187q0-1.21094-.86462-2.07031-.86461-.85939-2.08293-.85939h-5.8951q-1.21832 0-2.08293.85939-.86462.85937-.86462 2.07031v10.03906q0 1.21093.86462 2.07031.86461.85937 2.08293.85937h9.11775q4.40168 0 7.54573 3.125 3.14405 3.125 3.14405 7.5v11.09375q0 4.375-3.14405 7.5-3.14405 3.125-7.54573 3.125h-12.34041q-4.44097 0-7.58502-3.125-3.10476-3.125-3.10476-7.5v-.35156q0-1.875.62882-3.63281-1.84714-.74219-1.84714-2.73438h12.18321v6.17187q0 1.21094.86462 2.07031.86461.85937 2.08293.85937h5.8951q1.21832 0 2.08293-.85937.86462-.85937.86462-2.07031zm-42.8673-32.070299q-1.21831 0-2.08293-.859375-.86461-.859375-.86461-2.070312h16.85998q0 1.210937-.86462 2.070312-.86461.859375-2.08293.859375v42.617179q0 4.375-3.14405 7.5-3.14405 3.125-7.54573 3.125h-12.34041q-4.40167 0-7.54573-3.125-3.14405-3.125-3.14405-7.5v-42.617179q-1.21832 0-2.08293-.859375-.86462-.859375-.86462-2.070312h16.85999q0 1.210937-.86461 2.070312-.86463.859375-2.08295.859375v42.070299q0 1.21094.86462 2.07031.86461.85937 2.08294.85937h5.8951q1.21832 0 2.08293-.85937.86461-.85937.86461-2.07031zm-31.47008 42.656239q0 4.375-3.14405 7.5-3.14405 3.125-7.54573 3.125h-12.34041q-4.40167 0-7.54573-3.125-3.14405-3.125-3.14405-7.5v-35.23437q0-4.375 3.14405-7.499994 3.14406-3.125 7.54573-3.125h12.34041q4.40168 0 7.54573 3.125 3.14405 3.124994 3.14405 7.499994zm-13.91243 2.38282q1.21832 0 2.08293-.85938.86461-.85938.86461-2.07032v-34.14061q0-1.21094-.86461-2.07031-.86461-.85937-2.08293-.85937h-5.8951q-1.21833 0-2.08294.85937-.86462.85937-.86462 2.07031v34.14061q0 1.21094.86462 2.07032.86461.85938 2.08294.85938zm-38.3084-36.75781q0-1.21094-.86462-2.07031-.86462-.89844-2.08293-.89844h-8.84265v15.58593h8.84265q1.21831 0 2.08293-.85937.86462-.85938.86462-2.07031zm.66811 16.71874q4.24447.15626 7.27062 3.2422 3.02615 3.12499 3.02615 7.42186v14.375q1.21833 0 2.08294.85938.86461.85937.86461 2.07031h-13.91243v-20.89844q0-1.21093-.86462-2.07031-.82531-.85937-2.04363-.85937h-8.88195v20.89843q1.21832 0 2.08293.85938.86462.85937.86462 2.07031h-16.85999q0-1.21094.86461-2.07031.86462-.85938 2.08295-.85938v-50.039049q-1.21833 0-2.08295-.859375-.86461-.859375-.86461-2.070312h25.97774q4.40168 0 7.54573 3.124999 3.14405 3.124997 3.14405 7.499997v6.67969q0 4.29687-3.02615 7.3828-3.02615 3.12501-7.27062 3.24219zm-65.30795 27.96875q0-1.21094.86461-2.07031.86461-.85938 2.08293-.85938v-50.039049q-1.21832 0-2.08293-.859375-.86461-.859375-.86461-2.070312h33.95576v11.171876q-1.21831 0-2.08293-.85938-.86461-.85937-.86461-2.07031h-17.09579v15.58593h14.34474q0-1.21093.86461-2.07031.86462-.85937 2.08293-.85937v14.10155q-1.21831 0-2.08293-.85937-.86461-.85938-.86461-2.07031h-14.34474v15.54687h17.09579q0-1.21094.86461-2.07031.86462-.85938 2.08293-.85938v11.21094zm-30.29108-10.89844q0 1.21094.86461 2.07031.86462.85937 2.08294.85937h5.8951q1.21832 0 2.08294-.85937.86461-.85937.86461-2.07031v-14.10155q-1.21832 0-2.08293-.85939-.86462-.85937-.86462-2.0703h16.85999q0 1.21093-.86461 2.0703-.86463.85939-2.08294.85939v14.64843q0 4.375-3.14406 7.5-3.14405 3.125-7.54573 3.125h-12.34041q-4.40166 0-7.54571-3.125-3.14407-3.125-3.14407-7.5v-35.23437q0-4.375001 3.14407-7.499997 3.14405-3.124999 7.54571-3.124999h12.34041q4.40168 0 7.54573 3.124999 3.14406 3.124996 3.14406 7.499997v.35156q0 1.875-.62881 3.63281 1.84712.74219 1.84712 2.73438h-12.1832v-6.17187q0-1.21094-.86461-2.07031-.86462-.85939-2.08294-.85939h-5.8951q-1.21832 0-2.08294.85939-.86461.85937-.86461 2.07031zm-42.47427-21.01562v28.98437q1.21832 0 2.08293.85938.86462.85937.86462 2.07031h-16.85999q0-1.21094.86461-2.07031.86462-.85938 2.08294-.85938v-49.999987q-1.21832 0-2.08294-.859375-.86461-.859374-.86461-2.070312h13.16572l12.57622 31.914054v-28.984367q-1.21833 0-2.08294-.859375-.86462-.859374-.86462-2.070312h16.85999q0 1.210938-.86461 2.070312-.86462.859375-2.08293.859375v49.999987q1.21831 0 2.08293.85938.86461.85937.86461 2.07031h-13.16572zm-55.16839 16.52344q.1572-8.86719 2.67245-16.60156l7.03482-21.484372q-1.29693-.898437-1.29693-2.421874h16.85999q0 1.523437-1.25763 2.421874l7.03482 21.484372q2.51524 7.73437 2.67245 16.60156v12.46093q1.21832 0 2.08293.85938.86461.85937.86461 2.07031h-16.82067q0-1.21094.82531-2.07031.86462-.85938 2.08293-.85938v-12.65625h-11.7902v12.65625q1.21832 0 2.08294.85938.82531.85937.82531 2.07031h-16.82068q0-1.21094.86462-2.07031.86461-.85938 2.08293-.85938zm22.20487-8.4375q-.51091-4.02344-1.61133-8.20313l-3.73356-14.29687-3.73356 14.29687q-1.10042 4.17969-1.61133 8.20313zm-63.46082-29.140619q-1.21832 0-2.08294-.859375-.86461-.859375-.86461-2.070312h25.97774q4.40167 0 7.54573 3.124999 3.14405 3.124997 3.14405 7.499997v34.60937q0 4.41406-3.14405 7.53906-3.14406 3.125-7.54573 3.125h-25.97774q0-1.21094.86461-2.07031.86462-.85938 2.08294-.85938zm22.75508 8.242189q0-1.21094-.86461-2.07031-.86462-.85938-2.08293-.85938h-8.84266v39.37499h8.84266q1.21831 0 2.08293-.85938.86461-.82031.86461-2.07031z" fill="#d80000"/><g fill="#d86c00"><path d="m41.971647 103.06328q0-1.21094-.859375-2.07031-.859375-.89844-2.070312-.89844h-8.789063v15.58594h8.789063q1.210937 0 2.070312-.85938.859375-.85937.859375-2.07031zm.664063 16.71875q4.21875.15625 7.226562 3.24219 3.007813 3.125 3.007813 7.42187v14.375q1.210937 0 2.070312.85938.859375.85937.859375 2.07031h-13.828125v-20.89844q0-1.21094-.859375-2.07031-.820312-.85938-2.03125-.85938h-8.828125v20.89844q1.210938 0 2.070313.85938.859375.85937.859375 2.07031h-16.757813q0-1.21094.859375-2.07031.859375-.85938 2.070313-.85938v-50.039062q-1.210938 0-2.070313-.859375-.859375-.859375-.859375-2.070312h25.820313q4.375 0 7.5 3.125 3.125 3.125 3.125 7.499999v6.67969q0 4.29687-3.007813 7.38281-3.007812 3.125-7.226562 3.24219z"/><path d="m60.360395 147.75078q0-1.21094.859375-2.07031.859375-.85938 2.070313-.85938v-50.039062q-1.210938 0-2.070313-.859375-.859375-.859375-.859375-2.070312h16.757813q0 1.210937-.859375 2.070312-.859375.859375-2.070313.859375v50.039062q1.210938 0 2.070313.85938.859375.85937.859375 2.07031z"/><path d="m93.749144 136.85234q0 1.21094.859375 2.07031.859375.85938 2.070312.85938h5.859379q1.21093 0 2.07031-.85938.85937-.85937.85937-2.07031v-6.17187h12.10938q0 1.99218-1.83594 2.73437.625 1.75781.625 3.63281v.35157q0 4.375-3.125 7.5-3.125 3.125-7.5 3.125h-12.265624q-4.375 0-7.5-3.125-3.125-3.125-3.125-7.5v-35.23438q0-4.374999 3.125-7.499999 3.125-3.125 7.5-3.125h12.265624q4.375 0 7.5 3.125 3.125 3.125 3.125 7.499999v.35156q0 1.875-.625 3.63282 1.83594.74218 1.83594 2.73437h-12.10938v-6.17187q0-1.21094-.85937-2.07032-.85938-.859372-2.07031-.859372h-5.859379q-1.210937 0-2.070312.859372-.859375.85938-.859375 2.07032z"/><path d="m122.1379 147.75078q0-1.21094.85937-2.07031.85938-.85938 2.07032-.85938v-49.999999q-1.21094 0-2.07032-.859375-.85937-.859375-.85937-2.070313h16.75781q0 1.210938-.85937 2.070313-.85938.859375-2.07032.859375v20.859379l11.75782-23.789067h13.82812q0 1.640625-1.48437 2.5-.46875.3125-1.44532.390625l-12.65625 25.039062 12.65625 25q1.21094 0 2.07032.85938.85937.85937.85937 2.07031h-13.82812l-11.75782-23.82813v20.89844q1.21094 0 2.07032.85938.85937.85937.85937 2.07031z"/><g transform="scale(1.003044 .99696522)"><path d="m196.90383 95.070558q-1.21462 0-2.07661-.861991-.86199-.861991-.86199-2.076614h25.8989q4.38832 0 7.52283 3.134512 3.13451 3.134511 3.13451 7.522825v34.71472q0 4.4275-3.13451 7.56201-3.13451 3.13451-7.52283 3.13451h-25.8989q0-1.21462.86199-2.07661.86199-.86199 2.07661-.86199zm22.68603 8.267272q0-1.21462-.86199-2.07661-.86199-.86199-2.07661-.86199h-8.81582v39.49484h8.81582q1.21462 0 2.07661-.86199.86199-.82281.86199-2.07661z"/><path d="m238.03458 132.76306q.15673-8.89418 2.66434-16.65209l7.01347-21.549771q-1.29299-.901172-1.29299-2.429246h16.80882q0 1.528074-1.25381 2.429246l7.01347 21.549771q2.50761 7.75791 2.66434 16.65209v12.49887q1.21462 0 2.07661.86199.86199.86199.86199 2.07661h-16.76963q0-1.21462.82281-2.07661.86199-.86199 2.07661-.86199v-12.69478h-11.75442v12.69478q1.21462 0 2.07662.86199.8228.86199.8228 2.07661h-16.76963q0-1.21462.86199-2.07661.86199-.86199 2.07661-.86199zm22.13749-8.46318q-.50936-4.03568-1.60644-8.22809l-3.72223-14.3404-3.72223 14.3404q-1.09708 4.19241-1.60644 8.22809z"/><path d="m293.03555 116.18933v29.0726q1.21462 0 2.07661.86199.86199.86199.86199 2.07661h-16.80882q0-1.21462.86199-2.07661.86199-.86199 2.07662-.86199v-50.152191q-1.21463 0-2.07662-.861991-.86199-.861991-.86199-2.076614h13.12577l12.53805 32.011206v-29.072601q-1.21463 0-2.07662-.861991-.86199-.861991-.86199-2.076614h16.80882q0 1.214623-.86199 2.076614-.86199.861991-2.07661.861991v50.152191q1.21462 0 2.07661.86199.86199.86199.86199 2.07661h-13.12577z"/><path d="m335.38092 137.26892q0 1.21462.86199 2.07662.86199.86199 2.07662.86199h5.87721q1.21462 0 2.07661-.86199.86199-.862.86199-2.07662v-14.14448q-1.21462 0-2.07661-.86199-.86199-.86199-.86199-2.07662h16.80882q0 1.21463-.86199 2.07662-.862.86199-2.07662.86199v14.69302q0 4.38832-3.13451 7.52283-3.13451 3.13451-7.52283 3.13451h-12.30296q-4.38831 0-7.52282-3.13451-3.13452-3.13451-3.13452-7.52283v-35.34162q0-4.388315 3.13452-7.522827 3.13451-3.134511 7.52282-3.134511h12.30296q4.38832 0 7.52283 3.134511 3.13451 3.134512 3.13451 7.522827v.35263q0 1.88071-.6269 3.64387 1.84152.74445 1.84152 2.7427h-12.14623v-6.19066q0-1.21462-.86199-2.07661-.86199-.86199-2.07661-.86199h-5.87721q-1.21463 0-2.07662.86199-.86199.86199-.86199 2.07661z"/><path d="m365.58007 148.20053q0-1.21462.86199-2.07661.86199-.86199 2.07661-.86199v-50.191372q-1.21462 0-2.07661-.861991-.86199-.861991-.86199-2.076614h33.85272v11.205877q-1.21462 0-2.07661-.86199-.86199-.86199-.86199-2.07661h-17.04391v15.63337h14.30121q0-1.21462.86199-2.07661.86199-.86199 2.07661-.86199v14.14448q-1.21462 0-2.07661-.86199-.86199-.86199-.86199-2.07661h-14.30121v15.59419h17.04391q0-1.21462.86199-2.07661.86199-.86199 2.07661-.86199v11.24506z"/><path d="m430.02375 103.37701q0-1.21462-.862-2.07661-.86199-.90117-2.07661-.90117h-8.81581v15.63337h8.81581q1.21462 0 2.07661-.86199.862-.86199.862-2.07661zm.66608 16.76964q4.23159.15673 7.24856 3.25206 3.01696 3.13451 3.01696 7.44446v14.41876q1.21463 0 2.07662.86199.86199.86199.86199 2.07661h-13.87021v-20.96205q0-1.21462-.862-2.07661-.8228-.86199-2.03743-.86199h-8.85499v20.96205q1.21462 0 2.07661.86199.86199.86199.86199 2.07661h-16.80882q0-1.21462.86199-2.07661.86199-.86199 2.07662-.86199v-50.191372q-1.21463 0-2.07662-.861991-.86199-.861991-.86199-2.076614h25.8989q4.38832 0 7.52283 3.134512 3.13451 3.134511 3.13451 7.522825v6.70002q0 4.30995-3.01696 7.40529-3.01697 3.13451-7.24856 3.25205z"/><path d="m482.0861 137.85664q0 4.38832-3.13451 7.52283-3.13451 3.13451-7.52283 3.13451h-12.30296q-4.38831 0-7.52283-3.13451-3.13451-3.13451-3.13451-7.52283v-35.34162q0-4.388314 3.13451-7.522825 3.13452-3.134512 7.52283-3.134512h12.30296q4.38832 0 7.52283 3.134512 3.13451 3.134511 3.13451 7.522825zm-13.87021 2.39007q1.21462 0 2.07661-.86199.86199-.86199.86199-2.07662v-34.24454q0-1.21462-.86199-2.07661-.86199-.86199-2.07661-.86199h-5.87721q-1.21463 0-2.07662.86199-.86199.86199-.86199 2.07661v34.24454q0 1.21463.86199 2.07662.86199.86199 2.07662.86199z"/><path d="m513.46068 95.070558q-1.21462 0-2.07661-.861991-.86199-.861991-.86199-2.076614h16.80881q0 1.214623-.86199 2.076614-.86199.861991-2.07661.861991v42.746902q0 4.38832-3.13451 7.52283-3.13451 3.13451-7.52283 3.13451h-12.30296q-4.38831 0-7.52283-3.13451-3.13451-3.13451-3.13451-7.52283v-42.746902q-1.21462 0-2.07661-.861991-.86199-.861991-.86199-2.076614h16.80882q0 1.214623-.86199 2.076614-.862.861991-2.07662.861991v42.198362q0 1.21462.86199 2.07662.86199.86199 2.07662.86199h5.87721q1.21462 0 2.07661-.86199.86199-.862.86199-2.07662z"/><path d="m556.19788 127.23848q0-1.21462-.86199-2.07661-.86199-.86199-2.07661-.86199h-9.09009q-4.42749 0-7.562-3.13451-3.09534-3.13451-3.09534-7.52283v-11.1667q0-4.388315 3.09534-7.522827 3.13451-3.134511 7.562-3.134511h12.30296q4.38832 0 7.52283 3.134511 3.13451 3.134512 3.13451 7.522827v.35263q0 1.88071-.66608 3.64387 1.84152.74445 1.84152 2.7427h-12.10705v-6.19066q0-1.21462-.86199-2.07661-.86199-.86199-2.07661-.86199h-5.87721q-1.21462 0-2.07661.86199-.862.86199-.862 2.07661v10.06962q0 1.21462.862 2.07661.86199.86199 2.07661.86199h9.09008q4.38832 0 7.52283 3.13452 3.13451 3.13451 3.13451 7.52282v11.12752q0 4.38832-3.13451 7.52283-3.13451 3.13451-7.52283 3.13451h-12.30296q-4.42749 0-7.562-3.13451-3.09534-3.13451-3.09534-7.52283v-.35263q0-1.88071.62691-3.64387-1.84153-.74445-1.84153-2.7427h12.14623v6.19066q0 1.21462.862 2.07662.86199.86199 2.07661.86199h5.87721q1.21462 0 2.07661-.86199.86199-.862.86199-2.07662z"/></g></g></g></svg>