<svg height="40.350868mm" viewBox="0 0 117.43232 40.350869" width="117.43232mm" xmlns="http://www.w3.org/2000/svg"><g transform="translate(-38.69993 -149.16879)"><g fill="#fff" fill-opacity=".5" stroke-width=".079375"><path d="m69.978958 159.04592q0 .019-.0046.0321-.0068.0194-.02191.0194-.01 0-.02096-.005-.01318-.006-.01445-.0136.0044 0 .01048.002.01397.004.01746.004.01349 0 .02032-.0135.0054-.0108.0054-.0259 0-.0106-.007-.0303-.0068-.0198-.0068-.0276 0-.002.0013-.004.0014-.002.0038-.002.0062 0 .01206.0286.0049.0241.0049.0357z"/><path d="m70.040077 159.06211q0 .0162-.0094.0254-.0094.009-.02588.009-.009 0-.01397-.004-.0049-.004-.0049-.0132 0-.0125.01635-.0252.01556-.0121.02873-.0121.006 0 .0079.007.0011.004.0011.0127zm-.0097.004q0-.002-.000476-.004-.000318-.002-.0013-.004-.0025.002-.0084.009-.003.003-.0052.005 0-.003.000635-.005.0013-.003.0021-.005-.007 0-.0146.006-.0075.006-.0075.0127 0 .005.0051.005.0097 0 .01873-.005.01095-.006.01095-.0146z"/><path d="m70.105482 159.06862q0 .008-.0059.0175-.0067.011-.01381.011-.0021 0-.0035-.002-.0013-.002-.0013-.005 0-.003.006-.009.0062-.006.0062-.008 0-.001-.000476-.003-.000476-.001-.000635-.002-.01191.003-.02429.0137-.01222.011-.01857.0124-.0013-.003-.0013-.007 0-.004.0021-.009.0014-.003.0048-.008.0056-.008.01175-.0191.0032-.006.01095-.0192.0079-.0137.01159-.0194.0019-.003.0033-.004.0021-.002.0049-.003.0019.00064.0027.002.000953.002.000953.004 0 .005-.007.0146-.0127.0165-.01302.0171-.0071.0108-.0071.0195l.000317.002q.0087-.004.01032-.005.0065-.003.01111-.003.0051 0 .0075.003.0024.003.0024.009z"/><path d="m70.179142 159.05925q0 .0108-.0052.023-.0057.0135-.01413.0186-.0017-.002-.003-.005-.0011-.003-.0011-.005 0-.003.0079-.016.0035-.006.0032-.0103l-.000159-.002q-.0059.002-.02032.0106-.01429.009-.02889.0178-.0022 0-.0041-.002-.0017-.002-.0017-.004 0-.003.01064-.0224.0032-.006.01143-.0198.0025.003.0033.007.000793.004.000793.01 0 .002 0 .004.01461-.009.02286-.0132.009-.005.01238-.005.0022 0 .0041.005.0021.005.0021.008z"/><path d="m70.317096 159.09005q0 .003-.0025.004-.0024.001-.0054.001-.0027 0-.0068-.00064-.0094-.001-.01207-.001-.0048 0-.01873.001-.0079.00064-.01143.00064-.0097 0-.0097-.01 0-.009.006-.0263.0033-.01.01254-.0318.0083-.0198.01048-.0279.000794-.003.0013-.003.0013-.002.0032-.002.003 0 .0051.004.0021.004.0021.008 0 .006-.0065.0187-.0065.013-.0127.0256-.0068.0149-.0068.0227 0 .004.0033.006.0024.001.007.001.0035 0 .01206-.0008.0086-.00095.01143-.00095.0071 0 .01175.002.0065.003.0065.009z"/><path d="m70.376151 159.06211q0 .0162-.0094.0254-.0094.009-.02588.009-.009 0-.01397-.004-.0049-.004-.0049-.0132 0-.0125.01635-.0252.01556-.0121.02873-.0121.006 0 .0079.007.0011.004.0011.0127zm-.0097.004q0-.002-.000476-.004-.000318-.002-.0013-.004-.0025.002-.0084.009-.003.003-.0052.005 0-.003.000635-.005.0013-.003.0021-.005-.007 0-.01461.006-.0075.006-.0075.0127 0 .005.0051.005.0097 0 .01873-.005.01095-.006.01095-.0146z"/><path d="m70.442985 159.05878q0 .005-.0027.0108-.0025.006-.0065.01l-.000159-.002q0-.002.000477-.006.000476-.004.000476-.006 0-.003-.000794-.004-.000794-.001-.0033-.001-.0075 0-.01857.0116-.01206.0127-.02397.0252-.000952 0-.0019-.00016-.0024-.00063-.0032-.00079.000477-.006.004-.0127.0094-.0189.0097-.0202.0013-.005.0019-.007.000635-.002.0017-.005.0013-.003.0029-.005.0017-.002.0044-.003l.0016.019q.0068-.006.01048-.009.007-.006.01207-.006.0051 0 .0083.003.0032.003.0032.008z"/><path d="m70.520931 159.04036q0 .007-.01778.0176-.01714.0105-.02492.0105-.0037 0-.0049-.003-.0011-.003-.0011-.007 0-.003 0-.004.01064 0 .01937-.003.0087-.003.01524-.0105-.0048-.002-.0097-.002-.01159 0-.02461.009-.01429.01-.01429.0206 0 .0105.01429.0146.0022.00063.02683.004.01445.002.01445.008 0 .002-.0052.004-.0052.002-.01333.002-.02032 0-.03207-.006-.01556-.008-.01556-.0265 0-.019.01905-.0303.01619-.01.03683-.01.0062 0 .01127.003.0062.003.0062.009z"/><path d="m70.584113 159.01195q0 .003-.0084.0146-.0084.0111-.0084.017 0 .003.0035.006.0079.007.0079.009 0 .002-.0014.004-.0013.002-.0033.002-.0017 0-.0049-.002-.0022-.001-.0086-.006-.0024.005-.0037.007-.0044.008-.006.0122-.0024.007-.0048.0146-.0041.01-.01032.01l-.000159-.004q0-.0113.0073-.0267.0014-.003.0079-.0148-.01254-.007-.02762-.007 0-.006.0024-.009.0025-.003.0084-.003.0054 0 .01349.002.004.00095.0079.002.003-.00096.0083-.0103.01286-.0225.01746-.0259.0013.002.0021.004.000952.002.000952.004z"/><path d="m70.642692 159.06862q0 .008-.0059.0175-.0067.011-.01381.011-.0021 0-.0035-.002-.0013-.002-.0013-.005 0-.003.006-.009.0062-.006.0062-.008 0-.001-.000477-.003-.000476-.001-.000635-.002-.01191.003-.02429.0137-.01222.011-.01857.0124-.0013-.003-.0013-.007 0-.004.0021-.009.0014-.003.0048-.008.0056-.008.01175-.0191.0032-.006.01095-.0192.0079-.0137.01159-.0194.0019-.003.0033-.004.0021-.002.0049-.003.0019.00064.0027.002.000952.002.000952.004 0 .005-.007.0146-.0127.0165-.01302.0171-.0071.0108-.0071.0195l.000318.002q.0087-.004.01032-.005.0065-.003.01111-.003.0051 0 .0075.003.0024.003.0024.009z"/><path d="m70.773026 159.01687q0 .007-.0079.02-.0051.008-.01667.0229-.01159.0148-.01445.0194.000476.00016.01191.004.01159.003.01159.0127-.0048.00079-.0094.001l-.0017-.00016v-.001q-.0025-.00064-.0041-.00064-.003 0-.0095.00096-.0065.00095-.0098.00095-.0043 0-.007-.002-.0027-.002-.0027-.006 0-.003.01222-.0189.02286-.0291.02302-.0294.01238-.0168.01238-.0226 0-.002-.0016-.003-.0014-.001-.0059-.001-.003 0-.01254.006-.0046.003-.0075.003l-.0027-.00048q-.000952-.00063-.0021-.002-.0011-.002-.0011-.003 0-.007.01286-.0122.01095-.005.01905-.005.0068 0 .01048.005.0032.004.0032.0116z"/><path d="m70.868435 159.04544q0 .0192-.0208.034-.01905.0135-.03921.0135-.01 0-.01587-.005-.0059-.005-.0059-.0148 0-.0216.01889-.0375.01794-.0151.04016-.0151.01127 0 .01699.007.0057.007.0057.0183zm-.0097.004q0-.007-.0083-.011-.0062-.003-.01476-.003-.01254 0-.02619.0122-.01365.0122-.01365.0246 0 .005.0025.007.0027.002.0081.002.01556 0 .03239-.009.01984-.0102.01984-.024z"/><path d="m70.941143 159.01687q0 .007-.0079.02-.0051.008-.01667.0229-.01159.0148-.01445.0194.000476.00016.01191.004.01159.003.01159.0127-.0048.00079-.0094.001l-.0017-.00016v-.001q-.0025-.00064-.0041-.00064-.003 0-.0095.00096-.0065.00095-.0098.00095-.0043 0-.007-.002-.0027-.002-.0027-.006 0-.003.01222-.0189.02286-.0291.02302-.0294.01238-.0168.01238-.0226 0-.002-.0016-.003-.0014-.001-.0059-.001-.003 0-.01254.006-.0046.003-.0075.003l-.0027-.00048q-.000952-.00063-.0021-.002-.0011-.002-.0011-.003 0-.007.01286-.0122.01095-.005.01905-.005.0068 0 .01048.005.0032.004.0032.0116z"/><path d="m71.014167 159.01687q0 .007-.0079.02-.0051.008-.01667.0229-.01159.0148-.01445.0194.000476.00016.01191.004.01159.003.01159.0127-.0048.00079-.0094.001l-.0017-.00016v-.001q-.0025-.00064-.0041-.00064-.003 0-.0095.00096-.0065.00095-.0098.00095-.0043 0-.007-.002-.0027-.002-.0027-.006 0-.003.01222-.0189.02286-.0291.02302-.0294.01238-.0168.01238-.0226 0-.002-.0016-.003-.0014-.001-.0059-.001-.003 0-.01254.006-.0046.003-.0075.003l-.0027-.00048q-.000952-.00063-.0021-.002-.0011-.002-.0011-.003 0-.007.01286-.0122.01095-.005.01905-.005.0068 0 .01048.005.0032.004.0032.0116z"/></g><g fill="#e20d11" stroke-width=".264583" transform="scale(1.0063829 .99365759)"><path d="m58.689419 165.41045c0-.35723-.07145-.39296-.571572-.39296-.571571 0-.571571.17862-1.178865 1.60755-2.0005 4.71546-6.144391 4.85835-11.538595 4.85835-.750187 0-1.357481-.21434-1.357481-.85735 0-.50013.357232-1.10742.750187-1.67899 4.000999-5.71572 8.14489-10.9313 9.609541-12.75319 3.250812-4.03672 3.750937-4.21534 3.750937-4.85835 0-.39296-.321509-.4644-.785911-.4644-.678741 0-3.786659.10717-8.287783.10717-3.143641 0-4.822632-.1429-5.787158-.28579-.928804-.14289-1.10742-.28579-1.321759-.28579-.464402 0-.535848.28579-.643018.75019l-1.035972 4.71546c-.10717.50013-.178616.85736-.178616 1.03598 0 .25006.07145.39295.535848.39295.643017 0 .607294-.50012 1.428928-2.10767 1.607544-3.14364 2.643517-3.21509 10.288282-3.21509.428678 0 .678741 0 .678741.32151 0 .17862-.178616.46441-.392956.71447-1.78616 2.17911-10.895576 14.21783-13.360477 17.29003-.857357 1.10742-1.035973 1.10742-1.035973 1.78616 0 .4644.214339.50012.714464.50012 1.357482 0 4.251061-.10717 8.537845-.10717 4.715463 0 8.645015.28579 9.323756.28579.714464 0 .750187-.39296.89308-1.28604l.821634-5.10841c.03572-.21434.142893-.78592.142893-.96453z"/><path d="m80.80205 165.4819c0-.42868-.250062-.46441-.643018-.46441-.535848 0-.607294.82164-1.000249 1.60755-.714464 1.46465-1.78616 4.64401-6.823132 4.64401-3.750936 0-4.108168-.50012-4.215338-2.53634-.07145-1.35749-.142892-3.57232-.142892-5.35848 0-1.50038.392955-1.89333 2.643516-1.89333 1.286036 0 3.357981.21434 4.322508.21434.535848 0 .714464-.17862.714464-1.00025 0-.57158-.250063-.64302-.785911-.64302-.89308 0-2.857856.21434-5.179864.21434-1.214589 0-1.714713-.0714-1.714713-1.28604 0-1.82188.107169-3.3937.142892-4.89408.03572-1.50037.392956-2.17911 3.858106-2.17911 2.286285 0 4.4654 0 5.537096 2.9293.643018 1.78616.357232 2.17912 1.10742 2.17912.428678 0 .500124-.1429.500124-.46441 0-.21433-.03572-.9288-.03572-1.21458l-.107172-4.32251c-.03572-.28579 0-.6073-.357232-.6073-.250063 0-1.500375.10717-2.214839.1429-1.286035.0714-4.858355.14289-7.751935.14289-2.893579 0-6.323006-.10717-7.323256-.10717-.392955 0-.428678.14289-.428678.57157 0 .4644.107169.57157.392955.57157 2.500624.10717 3.000749.6073 3.179365 3.71522.07145 1.25031.142893 4.10816.142893 6.14439 0 2.03622-.07145 4.9298-.142893 6.14439-.178616 3.10792-.678741 3.57232-3.179365 3.71521-.285786 0-.392955.10717-.392955.57157 0 .42868.03572.57157.428678.57157 1.107419 0 4.429677-.10717 7.466149-.10717 2.643517 0 4.965525.0714 6.751685.1429 1.750437.0714 3.000749.14289 3.429428.14289.714464 0 .750187-.39296.89308-1.28604l.821633-5.10841c.03572-.21434.10717-.71447.10717-.89308z"/><path d="m102.20025 165.4819c0-.42868-.25006-.46441-.64302-.46441-.50012 0-.60729.82164-1.00025 1.60755-.71446 1.46465-1.678987 4.64401-6.537342 4.64401-4.072445 0-4.286784-.96452-4.4654-3.53659-.07145-1.00025-.142893-4.10817-.142893-6.14439 0-2.03623.07145-4.89408.142893-6.14439.178616-3.10792.67874-3.60805 3.179365-3.71522.285785 0 .392955-.10717.392955-.57157 0-.42868-.03572-.57157-.428679-.57157-1.321758 0-3.072195.10717-4.965525.10717-1.893329 0-3.643766-.10717-4.965525-.10717-.392955 0-.428678.14289-.428678.57157 0 .4644.107169.57157.392955.57157 2.500624.10717 3.000749.6073 3.179365 3.71522.07145 1.25031.142893 4.10816.142893 6.14439 0 2.03622-.07145 4.9298-.142893 6.14439-.178616 3.10792-.678741 3.57232-3.179365 3.71521-.285786 0-.392955.10717-.392955.57157 0 .42868.03572.57157.428678.57157 1.714714 0 5.215588-.10717 8.680738-.10717 2.286285 0 4.322508.0714 5.894329.1429 1.57182.0714 2.643517.14289 3.036474.14289.71446 0 .75018-.39296.89308-1.28604l.82163-5.10841c.0357-.21434.10717-.71447.10717-.89308z"/><path d="m127.56374 161.15939c0-9.21659-5.21559-10.57407-11.25281-10.57407-1.96477 0-4.3225.10717-7.18036.10717-1.89333 0-3.35798-.10717-4.67974-.10717-.39296 0-.42868.17862-.42868.57157 0 .4644.10717.53585.39296.57157 2.07194.28579 2.71496.6073 2.89358 3.71522.0714 1.25031.14289 4.10816.14289 6.14439 0 2.03622-.0715 4.9298-.14289 6.14439-.17862 3.10792-.82164 3.42942-2.89358 3.71521-.28579.0714-.39296.10717-.39296.57157 0 .39296.0357.57157.42868.57157 1.32176 0 2.78641-.10717 4.67974-.10717 2.35773 0 5.28703.10717 7.10892.10717 4.96552 0 11.32425-2.03622 11.32425-11.43142zm-4.07244.10717c0 8.10916-4.10817 10.324-8.60929 10.324-3.39371 0-3.78666-1.14314-3.92956-3.92955-.0714-1.3932-.14289-4.03672-.14289-6.07294 0-2.03623.0714-4.64402.14289-6.07295.1429-2.82213.92881-3.92955 4.53685-3.92955 5.14414 0 8.002 2.50062 8.002 9.68099z"/><path d="m155.142 172.01924c0-.4644-.10717-.50012-.39296-.57157-2.75069-.60729-3.03647-1.10742-4.4654-4.67974-2.17911-5.42993-4.39395-12.25306-5.32276-15.32525-.28578-.92881-.50012-1.32176-.67874-1.32176-.50012 0-1.32176.4644-2.39345.64302-.64302.10717-1.00025.14289-1.28604.78591-1.89333 4.42967-5.8586 12.25305-8.43067 16.36122-1.57182 2.53635-2.35773 3.25081-4.57257 3.5366-.28579.0714-.39296.10717-.39296.57157 0 .42868.0357.57157.42868.57157 1.10742 0 2.50063-.10717 4.10817-.10717 1.75044 0 2.96503.10717 4.17961.10717.39296 0 .42868-.14289.42868-.57157 0-.4644-.10717-.53585-.39295-.57157-1.96478-.21434-2.14339-.60729-2.14339-1.21459 0-.75019 1.17886-3.3937 2.21483-5.75143.46441-1.03598 1.14315-1.14315 4.78691-1.14315 4.25106 0 4.67974.0357 5.17987 1.78616.64301 2.25056 1.28603 4.21534 1.28603 4.89408 0 1.00025-.39295 1.17887-2.53635 1.42893-.28578.0357-.39295.10717-.39295.57157 0 .42868.0357.57157.42868.57157 1.42893 0 3.14364-.10717 5.17986-.10717 1.89333 0 3.42943.10717 4.75119.10717.39295 0 .42868-.14289.42868-.57157zm-10.50262-10.50262c0 .64302-.82164.67874-3.60805.67874-2.57207 0-3.5366-.0357-3.5366-.60729 0-.71447 1.46466-3.82239 2.71497-6.50163.82163-1.75043.9288-1.89333 1.32176-1.89333.4644 0 .71446.92881 1.14314 2.1434 1.00025 2.85785 1.96478 5.67998 1.96478 6.18011z"/></g><g fill="#ba9453" stroke-width=".264583" transform="scale(1.0233912 .97714344)"><path d="m103.05915 185.41447v-.91598h-.91598v-.91598h-.91598v-2.74795h.91598v-.91598h.91598v-.91598h3.66393v.91598h.91599v.91598h-1.83197v-.91598h-1.83196v.91598h-.91599v2.74795h.91599v.91598h1.83196v-.91598h1.83197v.91598h-.91599v.91598z"/><path d="m109.47103 185.41447v-6.41187h1.83197v5.49589h3.66393v.91598z"/><path d="m120.46282 182.66653v-1.83197h-.91598v-.91598h-.91598v.91598h-.91599v1.83197zm-4.57991 2.74794v-4.57991h.91598v-.91598h.91598v-.91598h2.74795v.91598h.91598v.91598h.91599v4.57991h-1.83197v-1.83196h-2.74795v1.83196z"/><path d="m124.12675 185.41447v-.91598h-.91598v-.91598h1.83196v.91598h2.74795v-1.83196h-3.66393v-.91599h-.91598v-1.83196h.91598v-.91598h3.66393v.91598h.91598v.91598h-1.83196v-.91598h-1.83197v1.83196h3.66393v.91599h.91599v1.83196h-.91599v.91598z"/><path d="m131.45461 185.41447v-.91598h-.91598v-.91598h1.83196v.91598h2.74795v-1.83196h-3.66393v-.91599h-.91598v-1.83196h.91598v-.91598h3.66393v.91598h.91598v.91598h-1.83196v-.91598h-1.83197v1.83196h3.66393v.91599h.91599v1.83196h-.91599v.91598z"/><path d="m138.78247 185.41447v-.91598h1.83196v-4.57991h-1.83196v-.91598h5.49589v.91598h-1.83196v4.57991h1.83196v.91598z"/><path d="m147.02631 185.41447v-.91598h-.91598v-.91598h-.91598v-2.74795h.91598v-.91598h.91598v-.91598h3.66393v.91598h.91598v.91598h-1.83196v-.91598h-1.83197v.91598h-.91598v2.74795h.91598v.91598h1.83197v-.91598h1.83196v.91598h-.91598v.91598z"/></g><g stroke-width="12.9978" transform="matrix(.02050624 0 0 .0202072 70.045631 176.80924)"><path d="m465.66204 407.01532h-420.399036l-.407938-53.28938-43.90924065.0425v-36.94676l43.93561665.0223-.06267-43.99826 420.888278.17229z" fill="#c94b0e" opacity=".98"/><g stroke-width="12.9978"><path d="m546.65527 353.3428h42.31697v43.97783h-42.31697zm-36.17025 85.31589h36.07349v37.27664h-36.07349zm-45.60184-243.90689h45.60187v281.18353h-45.60187z" fill="#6fd903" fill-opacity=".980392" opacity=".98" stroke="#6fd903" stroke-opacity=".980392"/><path d="m783.76227 80.033989h76.39096v42.835591h-76.39096zm-44.14899-10.609184h173.39458v10.806894h-173.39458zm296.32992 133.156705h46.8351v72.24264h-46.8351zm-76.07888-44.43559h78.74648v89.86392h-78.74648zm-46.85645-87.764183h89.77803v125.579193h-89.77803zm-173.34692-35.012882h220.51041v34.964908h-220.51041zm-45.20819-34.0000007h185.6136v34.9649087h-185.6136z" fill="#72d804" opacity=".98" stroke="#72d804"/><path d="m809.50201 237.62822h44.53132v35.05672h-44.53132zm44.53132-41.97469h106.42237v77.03141h-106.42237zm-105.46204-36.05194h35.19099v78.36905h-35.19099zm35.19098-36.73201h59.99689v36.61756h-59.99689zm-44.10132-42.835591h44.10132v79.567601h-44.10132zm-159.34052-44.665134h9.34264v44.8269h-9.34264zm-53.49896 43.607509h63.38464v44.762586h-63.38464zm62.84162-43.607509h149.99786v124.232745h-149.99786z" fill="#cb4d10" opacity=".98"/><path d="m634.56757 519.8714h156.90667v34.72566h-156.90667zm32.36438-81.22501h124.54229v37.16813h-124.54229zm246.32898-.37079h56.78049v40.1518h-56.78049zm-121.78669 37.53891h178.56708v78.78253h-178.56708zm262.59646-37.16433h36.8238v37.42733h-36.8238zm-49.4583-44.62827h51.5473v126.16353h-51.5473zm-74.2031-74.86716h39.63201v43.78211h-39.63201zm37.63202-2h43.96138v237.44227h-43.96138zm-219.47003-45.28817h219.46995v47.28818h-219.46995z" fill="#6fd903" opacity=".98"/><path d="m974.65265 554.5733h36.59405v44.47028h-36.59405zm36.59405-35.08758h79.0292v79.55788h-79.0292zm42.824-45.87061h80.3718v89.71152h-80.3718zm-509.88082 45.35651h44.86332v35.6254h-44.86332zm-61.04736 35.62543h186.00821v43.73116h-186.00821zm105.9107-78.78254h45.51435v78.78255h-45.51435zm0-44.55157h77.87872v44.55157h-77.87872zm45.51435 44.55157h156.90667v44.05689h-156.90667zm156.90667-37.53891h121.78669v37.53891h-121.78669zm138.935-75.33874h43.67105v75.33874h-43.67105zm-263.47729-43.78211h263.47735v119.49164h-263.47735z" fill="#cb4d10" opacity=".98" stroke="#cb4d10"/><path d="m580.07068 229.99875h24.33855v45.74736h-24.33855zm-69.58563-35.24695h88.67772v36.00468h-88.67772zm79.17804-35.15021h78.06157v87.17739h-78.06157zm-79.42667 187.18305h36.64028v50.53599h-36.64028zm0-73.82151h79.27437v80.52387h-79.27437zm78.73575-26.18414h78.7525v150.54161h-78.7525zm254.73016-123.90941h10.33102v36.73202h-10.33102zm9.49085-42.637883h59.81469v115.967663h-59.81469zm-70.67865 79.369893h71.51882v78.02663h-71.51882zm-33.94324 77.36583h60.93072v35.71753h-60.93072zm-81.63934-77.36583h81.63934v159.55316h-81.63934z" fill="#f89739" opacity=".98" stroke="#f89739"/></g><path d="m615.65588 159.5426h42.990105v42.859665h-42.990105z" fill="#6fd903" opacity=".98"/><path d="m615.65588 203.5426h42.990105v42.859665h-42.990105z" fill="#cb4d10" fill-opacity=".980392" opacity=".98"/></g><g stroke-width="1.98003" transform="matrix(.16703163 0 0 .16703495 49.701644 175.08962)"><path d="m.02833422 63.812649h11.10991978v5.173723h-11.10991978zm58.27197378 10.586208h15.805452v5.105624h-15.805452zm-10.218078 5.105621h21.524013v5.894852h-21.524013zm-37.009347-5.119644h4.683406v11.0145h-4.683406zm26.618443-.02953h5.293864v6.069873h-5.293864zm-5.336742 0h5.336744v11.044026h-5.336744zm-16.598295-5.26768h16.598297v16.311706h-16.598297zm21.538877-20.556946h5.659282v10.415116h-5.659282zm-16.286112-5.839173h5.530374v10.996024h-5.530374zm5.530375 0h10.934535v21.519024h-10.934535zm0-10.329368h15.752179v10.329369h-15.752179zm37.25119 25.890152h5.1127v5.580664h-5.1127zm5.112701-4.471569h5.474297v10.052233h-5.474297zm5.474297-11.262749h5.870479v11.262748h-5.870479zm-10.021019-4.902599h10.021019v4.883705h-10.021019zm-5.336628 4.883705h15.357647v11.281643h-15.357647zm15.357647-10.835447h10.909375v10.835448h-10.909375zm-10.603397-26.2496328h5.328563v5.3525938h-5.328563zm5.328563 5.3525938h5.102022v5.575896h-5.102022zm.05702 15.789367h5.916858v5.805791h-5.916858zm-4.803207-5.619459h15.259156v6.075706h-15.259154zm-6.493572 0h6.493573v16.678871h-6.493571zm-25.639147-20.94663796h5.381673v4.94549366h-5.381673zm5.381672 0h4.686056v11.17108496h-4.686056zm-.607395 15.75165696h5.446165v11.315022h-5.446165zm10.587276 16.620619h5.429708v10.649752h-5.429708zm-5.293823-32.37227596h10.723532v32.37227596h-10.723532zm10.72353 0h6.004832v53.79085896h-6.004832z" fill="#088" opacity=".98" stroke="#088"/><path d="m59.014496 5.4605265h4.759725v5.3060645h-4.759725zm4.759724 5.3060645h5.328563v5.575896h-5.328563zm5.328563 5.575896h10.512969v4.594012h-10.512969zm5.973877 10.213471h10.210331v5.107672h-10.210331zm-5.916855 5.80579h5.217814v5.253623h-5.217814zm-10.139835 5.253624h5.336628v4.883705h-5.336628zm-22.021816-10.558832h5.293454v5.305596h-5.293454zm.475811 15.634965h5.480484v5.839173h-5.480484zm4.817642-10.329368h5.293822v10.649752h-5.293822zm0 10.329368h10.723529v11.089215h-10.723529zm-15.745438 21.519021h5.808415v4.983734h-5.808415zm5.808415 0h5.11938v10.144775h-5.11938zm4.940582-5.264733h5.690024v15.40951h-5.690024zm21.005142-.693504h5.490311v16.146568h-5.490311zm-15.345859 0h15.345859v21.252191h-15.345859zm-31.816195 10.941971h4.618035v5.190574h-4.618035zm0-5.381611h15.407916v5.381608h-15.407916zm-5.6971453-5.191551h21.1592673v5.255297h-21.1592673zm0-15.612175h4.9157673v10.672943h-4.9157673zm4.9157673 0h10.652178v10.678606h-10.652178zm-4.9157673-10.646786h4.9157673v5.204597h-4.9157673zm10.6613483-16.304718h6.486667v5.446502h-6.486667zm-5.745581 5.446503h12.232247v10.858215h-12.232247zm0 10.858215h16.182553v10.646785h-16.182553zm11.114329-21.201191h16.134344v21.201191h-16.134344zm16.134344 0h4.83877v4.580572h-4.83877z" opacity=".98" stroke="#000"/><path d="m42.352554 58.252288h26.611709v.879516h-26.611709zm0-4.471569h.662842v4.471569h-.662842zm-36.8504983-16.213986h4.9157673v5.44219h-4.9157673zm0 16.120797h21.0983203v4.933568h-21.0983203zm32.2502173 26.737648h5.293862v4.974153h-5.293862zm31.914913-.920701h4.499517v5.894849h-4.499517zm-26.65179-25.723758h25.948871v4.471569h-25.948871zm21.402149-26.768515h4.803207v10.603166h-4.803207zm0-10.669718h4.746185v4.594012h-4.746185zm-5.342102-5.575896h5.3421v10.169908h-5.3421z" fill="#e4133a" opacity=".98" stroke="#e4133a"/><path d="m27.649862 58.340111h13.648345v.781426h-13.648345z" fill="#088" opacity=".98" stroke="#088"/></g></g></svg>