<svg height="98.441" viewBox="0 0 566.929 98.441" width="566.929" xmlns="http://www.w3.org/2000/svg"><g fill="#707070"><path d="m12 98.442c-6.627 0-12-5.373-12-12v-54.536c0-6.628 5.373-12 12-12s12 5.371 12 12v54.535c0 6.628-5.373 12.001-12 12.001z"/><path d="m174.735 48.034h-36.223v-6.528h36.223c5.964 0 10.799-4.835 10.799-10.799 0-5.965-4.835-10.8-10.799-10.8h-49.423c-5.965 0-10.8 4.835-10.8 10.8v55.735c0 6.627 5.373 12 12 12s12-5.373 12-12v-16.81h36.223c5.964 0 10.799-4.835 10.799-10.8.001-5.963-4.834-10.798-10.799-10.798z"/><path d="m540.859 82.934-15.535-54.18c-.918-3.207-3.068-5.724-5.787-7.194-1.66-1.041-3.619-1.652-5.723-1.652h-57c-.373 0-.742.019-1.105.056-6.107.56-10.895 5.688-10.895 11.944v54.535c0 6.627 5.371 12 12 12 6.627 0 12-5.373 12-12v-44.937h5.314v44.938c0 6.627 5.373 12 12 12 6.625 0 11.998-5.373 11.998-12v-44.938h6.041l13.766 48.002c1.5 5.233 6.271 8.644 11.457 8.644 1.088 0 2.193-.149 3.293-.465 6.33-1.819 9.992-8.422 8.176-14.753z"/><path d="m250.508 19.907h-40.751c-11.338 0-20.615 9.276-20.615 20.614v37.306c0 11.338 9.277 20.614 20.615 20.614h40.751c11.339 0 20.615-9.276 20.615-20.614v-37.305c0-11.338-9.276-20.615-20.615-20.615zm-2.65 53.848c0 1.32-1.08 2.4-2.4 2.4h-30.652c-1.32 0-2.4-1.08-2.4-2.4v-29.162c0-1.318 1.08-2.398 2.4-2.398h30.652c1.32 0 2.4 1.08 2.4 2.398z"/><path d="m419.322 19.907h-40.752c-11.336 0-20.615 9.276-20.615 20.614v37.306c0 11.338 9.279 20.614 20.615 20.614h40.752c11.338 0 20.613-9.276 20.613-20.614v-37.305c0-11.338-9.275-20.615-20.613-20.615zm-2.651 53.848c0 1.32-1.08 2.4-2.398 2.4h-30.652c-1.32 0-2.4-1.08-2.4-2.4v-29.162c0-1.318 1.08-2.398 2.4-2.398h30.652c1.318 0 2.398 1.08 2.398 2.398z"/><path d="m105.464 19.907h-70.722c-3.005 0-5.441 2.436-5.441 5.44v61.095c0 6.627 5.373 12 12 12s11.861-5.373 11.861-12v-41.859c0-1.318 1.08-2.398 2.4-2.398h28.855c1.32 0 2.488 1.08 2.488 2.398v41.858c0 6.627 5.373 12 12 12s12-5.373 12-12v-45.455-15.638c0-3.005-2.436-5.441-5.441-5.441z"/><path d="m345.042 76.156h-42.9c-1.32 0-2.4-1.08-2.4-2.4v-29.163c0-1.318 1.08-2.398 2.4-2.398h42.9c6.152 0 11.145-4.988 11.145-11.145 0-6.153-4.99-11.144-11.145-11.144h-15.545-30.555-2.564c-11.279 0-20.507 9.228-20.507 20.507v37.521c0 11.276 9.228 20.507 20.507 20.507h2.564 30.555 15.545c6.152 0 11.145-4.988 11.145-11.146 0-6.154-4.99-11.139-11.145-11.139z"/><path d="m541.027 11.729h-4.131v-2.903h11.752v2.903h-4.176v12.387h-3.445z"/><path d="m563.324 18.263c-.07-1.84-.139-4.038-.139-6.285h-.045c-.5 1.951-1.135 4.129-1.725 5.921l-1.859 5.967h-2.701l-1.633-5.898c-.5-1.813-.998-3.97-1.385-5.987h-.045c-.066 2.063-.158 4.424-.248 6.33l-.297 5.809h-3.197l.977-15.29h4.604l1.496 5.127c.5 1.747.955 3.651 1.295 5.444h.09c.408-1.771.936-3.768 1.451-5.489l1.611-5.082h4.539l.814 15.29h-3.355z"/></g></svg>