<svg enable-background="new 0 0 64 64" height="64" viewBox="0 0 64 64" width="64" xmlns="http://www.w3.org/2000/svg"><path d="m62 32c0 16.564-13.436 30-30 30-16.567 0-30-13.436-30-30 0-16.567 13.433-30 30-30 16.564 0 30 13.433 30 30z" fill="#d24d57"/><path d="m61.867 34.598c-.012-.012-.021-.023-.031-.035-.039-.035-.072-.072-.108-.108-.036-.034-.069-.071-.108-.104-.033-.035-.067-.071-.104-.105-.035-.038-.072-.073-.107-.107-.036-.037-.07-.068-.102-.105-.039-.036-.076-.071-.111-.111-.035-.029-.064-.063-.1-.094-.035-.039-.073-.078-.113-.113-.035-.039-.069-.073-.107-.107-.033-.038-.07-.072-.105-.109-.034-.033-.07-.066-.104-.104-.037-.035-.072-.073-.106-.107-.036-.032-.067-.068-.104-.1-.035-.04-.071-.075-.111-.111-.033-.037-.07-.07-.104-.106-.032-.033-.066-.067-.099-.101-.042-.039-.081-.08-.122-.12-.033-.03-.063-.063-.098-.095-.031-.034-.065-.069-.102-.104-.037-.037-.076-.076-.115-.115-.033-.036-.07-.069-.105-.105-.032-.033-.066-.066-.099-.1-.038-.037-.071-.072-.108-.109-.037-.036-.071-.071-.109-.105-.035-.038-.071-.075-.109-.112-.031-.032-.066-.063-.098-.097-.035-.036-.07-.073-.106-.108-.038-.036-.075-.074-.111-.111-.036-.034-.067-.068-.103-.101-.035-.037-.071-.075-.111-.112-.033-.032-.07-.067-.102-.103-.036-.036-.072-.072-.107-.106-.039-.036-.072-.071-.106-.106-.036-.036-.069-.07-.108-.105-.035-.037-.071-.074-.109-.108-.031-.034-.066-.067-.1-.102-.034-.037-.072-.074-.107-.108-.035-.037-.07-.072-.105-.107-.039-.035-.072-.07-.108-.106-.034-.036-.067-.07-.106-.104-.035-.038-.071-.075-.109-.112-.031-.033-.066-.064-.098-.098-.035-.036-.07-.071-.104-.106-.04-.038-.077-.078-.117-.116-.036-.036-.069-.068-.106-.104-.031-.033-.063-.066-.098-.1-.035-.037-.072-.072-.107-.108-.036-.037-.072-.073-.107-.107-.039-.037-.074-.073-.109-.109-.035-.034-.066-.066-.104-.102-.035-.036-.069-.072-.107-.108-.033-.035-.07-.07-.105-.106-.035-.037-.074-.071-.109-.107-.031-.034-.066-.067-.099-.101-.038-.037-.073-.072-.109-.109s-.071-.073-.11-.108c-.033-.036-.069-.071-.107-.107-.031-.034-.066-.066-.1-.101-.034-.036-.072-.073-.105-.109-.039-.035-.072-.071-.108-.107-.038-.037-.071-.07-.11-.106-.031-.035-.065-.069-.104-.105-.031-.034-.066-.067-.1-.102-.038-.041-.08-.079-.119-.118-.032-.034-.066-.068-.102-.102-.033-.033-.066-.066-.102-.099-.037-.039-.073-.076-.111-.112-.033-.035-.068-.069-.102-.104-.037-.038-.076-.074-.111-.111-.034-.034-.066-.067-.101-.102-.04-.036-.075-.073-.111-.111-.032-.032-.063-.064-.097-.096-.037-.038-.077-.078-.117-.117-.031-.033-.066-.064-.098-.098-.038-.039-.078-.077-.113-.113-.035-.034-.066-.067-.101-.101-.04-.039-.075-.075-.114-.112-.031-.033-.063-.066-.098-.099-.035-.037-.076-.075-.113-.112-.033-.036-.068-.07-.102-.103-.039-.037-.074-.073-.107-.108-.037-.035-.068-.068-.107-.103-.033-.037-.067-.072-.105-.108-.033-.035-.07-.071-.107-.107-.033-.036-.07-.069-.104-.104-.035-.036-.07-.071-.105-.107-.039-.034-.072-.071-.108-.107s-.069-.071-.106-.104c-.035-.037-.069-.071-.105-.107-.033-.035-.07-.067-.102-.102-.038-.039-.078-.077-.113-.113-.035-.034-.066-.067-.101-.102-.038-.038-.073-.072-.114-.109-.031-.035-.065-.07-.102-.105-.035-.034-.072-.07-.105-.105-.036-.037-.074-.073-.109-.108s-.068-.069-.101-.104c-.038-.036-.071-.071-.11-.107-.035-.037-.068-.072-.105-.107-.035-.036-.073-.073-.111-.11-.029-.033-.066-.066-.096-.098-.039-.037-.074-.075-.111-.113-.037-.033-.07-.069-.104-.104-.038-.038-.075-.074-.114-.111-.029-.032-.062-.065-.096-.098-.035-.036-.072-.071-.105-.105-.038-.04-.078-.078-.113-.115-.039-.036-.072-.069-.105-.105-.035-.035-.068-.068-.104-.102-.035-.037-.069-.073-.107-.108-.035-.034-.072-.071-.105-.106-.035-.037-.076-.074-.111-.109-.033-.033-.066-.066-.097-.1-.038-.038-.073-.073-.112-.111-.035-.034-.066-.068-.102-.101-.037-.038-.075-.076-.113-.115-.033-.034-.068-.066-.102-.1-.036-.037-.074-.075-.111-.112-.033-.032-.066-.065-.1-.1-.037-.037-.072-.074-.113-.11-.031-.034-.063-.067-.098-.101-.037-.039-.078-.076-.115-.114-.032-.034-.066-.067-.098-.101-.041-.037-.076-.074-.113-.111-.033-.033-.066-.066-.1-.098-.035-.036-.069-.072-.107-.108-.035-.036-.072-.072-.107-.109s-.074-.073-.109-.109c-.035-.034-.068-.067-.101-.101-.04-.038-.075-.074-.113-.112-.032-.033-.065-.066-.099-.098-.035-.038-.074-.075-.113-.112-.031-.034-.068-.068-.1-.101-.037-.038-.076-.076-.111-.113-.035-.034-.07-.067-.103-.102-.038-.037-.071-.072-.11-.107-.033-.035-.067-.069-.102-.104-.035-.036-.072-.071-.107-.107-.036-.037-.072-.072-.107-.107-.039-.038-.076-.075-.111-.111-.033-.033-.066-.064-.1-.098-.035-.038-.071-.075-.111-.111-.033-.035-.07-.07-.105-.105-.031-.035-.066-.068-.1-.102-.039-.036-.074-.074-.111-.111-.037-.035-.068-.069-.105-.104-.035-.036-.07-.071-.107-.106-.033-.035-.068-.069-.104-.105-.035-.037-.074-.073-.111-.111-.032-.032-.064-.065-.096-.097-.041-.039-.078-.076-.114-.115-.036-.035-.067-.068-.104-.102-3.494-3.523-8.334-5.707-13.69-5.707-10.651 0-19.29 8.636-19.29 19.288 0 5.352 2.182 10.189 5.702 13.683.039.041.076.077.114.116.036.035.071.068.105.105.034.032.068.067.102.1.035.035.071.074.107.108.036.037.071.072.106.105.035.038.069.071.105.107.035.036.07.069.106.106.037.036.074.071.112.111.031.031.065.066.097.098.039.037.079.078.116.115.035.036.069.069.104.102.034.036.067.068.101.104.035.033.07.067.106.106.034.032.069.07.104.104.037.036.074.075.109.11.037.037.072.072.109.106.033.035.065.067.099.103.039.037.076.073.113.113.034.032.068.066.102.1.037.035.073.074.109.109.034.036.069.07.104.103.036.039.072.074.109.109.033.035.066.067.099.104.039.037.077.072.115.113.033.032.067.068.1.101.037.034.073.073.109.108.034.035.067.067.101.102.039.039.076.075.114.115.034.032.066.064.101.1.036.036.073.074.112.111.032.031.066.066.097.098.039.04.077.076.115.113.031.035.065.066.097.101.037.037.076.073.112.112.036.034.071.07.108.105.034.033.067.069.101.102.035.036.07.071.106.105.036.039.073.075.11.11.036.038.07.069.104.107.035.033.071.067.106.104.035.034.067.07.104.104.037.035.074.074.11.109.034.035.068.069.103.102.037.039.073.074.11.112.037.036.073.071.109.109.032.031.064.064.098.096.035.035.072.074.107.108.037.038.073.074.11.109.036.039.073.075.112.111.031.033.062.061.093.094.034.035.069.072.106.107.04.039.076.08.117.117.033.033.069.07.103.103.034.036.068.068.102.104.035.034.069.067.103.104.039.037.077.073.115.114.033.032.067.067.102.101s.071.072.105.105c.037.038.074.074.113.109.032.035.064.067.097.102.037.036.074.07.111.109.034.034.07.071.107.106.035.034.07.071.106.105.033.036.069.071.104.104.035.037.069.07.104.106.036.036.073.071.107.109.039.036.076.071.113.11.033.031.064.066.099.097.037.039.074.075.111.111.034.036.068.068.102.103.035.035.07.068.104.106.037.036.075.071.112.111.035.034.071.072.108.106.032.032.066.066.098.098.036.039.073.074.11.109.035.038.069.072.104.108.037.035.074.07.11.108.034.033.068.069.102.102.037.035.073.074.11.109.032.035.066.068.101.101.038.04.075.077.114.114.032.034.066.065.098.101.038.036.076.075.115.113.032.031.064.066.097.098.039.039.076.075.112.111.034.036.068.069.104.104.037.037.072.072.111.11.032.033.066.065.099.1.038.036.074.074.111.11.035.033.069.07.103.103.036.037.073.073.11.108.035.039.07.073.107.111.034.033.068.064.102.1.034.035.069.071.105.105.037.035.073.074.109.109.037.038.074.073.109.107.033.036.067.068.1.103.034.034.07.067.105.105.038.036.076.075.115.114l.104.104c.034.033.068.068.102.1.032.037.068.07.104.107.039.037.075.074.114.114.034.032.067.064.102.101.035.035.071.072.108.107s.072.073.107.106c.034.036.068.069.102.101.037.04.072.075.111.113.034.034.068.066.102.102.037.038.076.077.116.115.03.029.061.062.091.092.038.039.075.077.115.113.032.037.068.07.104.106.035.035.072.069.107.108.034.033.07.069.105.104s.07.072.107.107c.034.035.07.07.105.104.033.037.067.069.102.105.039.037.075.074.114.114.035.033.069.066.104.103.032.033.068.069.104.104.034.032.066.067.101.099.038.042.078.082.12.12.033.035.067.067.1.102.034.034.07.067.105.105.034.032.067.067.102.102.039.036.075.077.114.114.035.035.071.07.106.104.033.036.067.068.1.103.037.036.074.071.109.109.036.034.07.07.105.104.037.035.072.072.109.108.034.034.068.069.102.102.035.037.071.073.106.108.037.037.072.071.108.108.035.035.07.068.106.106.033.033.069.07.106.105.036.033.069.071.106.105.033.036.068.071.107.105.033.037.07.071.104.108.033.034.072.067.104.104.039.036.076.074.111.11.037.034.07.07.107.104.035.037.068.071.105.104.031.036.07.069.102.104.035.036.072.07.105.108.041.037.08.073.117.114.031.029.061.062.094.091.037.039.072.077.111.112.035.037.072.072.107.106.033.039.072.074.107.112.033.032.068.063.1.1.016.013.027.023.041.037 14.488-1.24 26.025-12.777 27.269-27.265z" opacity=".2"/><path d="m32 17.213c8.155 0 14.791 6.632 14.791 14.787 0 8.154-6.636 14.789-14.791 14.789s-14.789-6.635-14.789-14.789c-.001-8.155 6.633-14.787 14.789-14.787m0-4.501c-10.651 0-19.29 8.636-19.29 19.288 0 10.65 8.638 19.288 19.29 19.288 10.651 0 19.29-8.638 19.29-19.288-.001-10.651-8.64-19.288-19.29-19.288z" fill="#fff"/></svg>