<svg enable-background="new 0 0 64 64" height="64" viewBox="0 0 64 64" width="64" xmlns="http://www.w3.org/2000/svg"><path d="m62 32c0 16.564-13.434 30-30 30-16.568 0-30-13.436-30-30 0-16.568 13.432-30 30-30 16.566 0 30 13.432 30 30z" fill="#65c6bb"/><path d="m60.584 41.105c-.004-.005-.006-.008-.009-.011-.034-.041-.069-.069-.106-.104-.033-.044-.073-.071-.107-.11-.031-.038-.07-.065-.104-.104-.036-.04-.072-.072-.107-.107-.035-.04-.07-.069-.106-.104-.034-.04-.071-.071-.108-.105-.029-.043-.067-.069-.102-.107-.033-.041-.074-.068-.107-.108-.036-.04-.072-.069-.105-.104-.037-.04-.072-.07-.106-.105-.034-.038-.069-.07-.108-.104-.031-.044-.071-.072-.105-.107-.033-.044-.071-.071-.105-.108-.036-.04-.074-.067-.107-.105-.035-.039-.07-.07-.105-.104-.035-.04-.07-.071-.106-.106-.034-.041-.069-.069-.106-.105-.033-.043-.071-.071-.105-.109-.033-.039-.072-.066-.105-.104-.038-.04-.072-.072-.107-.107-.035-.038-.068-.068-.106-.102-.034-.042-.067-.073-.106-.108-.031-.043-.071-.07-.105-.108-.033-.04-.072-.067-.105-.106-.036-.038-.07-.069-.105-.105-.037-.039-.072-.07-.108-.105-.032-.039-.069-.07-.106-.104-.033-.044-.071-.071-.105-.106-.033-.042-.07-.07-.105-.109-.036-.037-.07-.066-.104-.104-.037-.04-.072-.072-.109-.107-.035-.039-.07-.07-.106-.104-.034-.044-.069-.072-.106-.107-.033-.041-.069-.068-.102-.105-.037-.04-.074-.07-.109-.109-.036-.039-.072-.07-.105-.105-.035-.038-.07-.069-.108-.104-.034-.04-.067-.071-.104-.106-.033-.042-.071-.07-.107-.108-.031-.04-.072-.067-.105-.104-.034-.04-.07-.071-.105-.107-.037-.037-.07-.068-.106-.104-.034-.038-.069-.069-.106-.104-.033-.044-.073-.073-.107-.109-.033-.042-.07-.068-.105-.107-.036-.038-.07-.067-.104-.104-.037-.038-.072-.071-.108-.106-.034-.038-.069-.071-.107-.104-.032-.044-.069-.071-.106-.104-.031-.044-.07-.071-.104-.108-.035-.04-.072-.07-.107-.108-.034-.04-.072-.071-.105-.106-.035-.038-.07-.069-.108-.104-.034-.04-.067-.069-.104-.106-.033-.042-.071-.069-.105-.108-.033-.038-.074-.067-.107-.104-.034-.04-.07-.071-.104-.104-.037-.04-.072-.073-.11-.108-.032-.038-.067-.067-.104-.103-.033-.044-.071-.073-.107-.108-.031-.042-.07-.069-.104-.106-.036-.04-.072-.069-.107-.108-.035-.038-.07-.067-.106-.103-.034-.038-.069-.071-.106-.106-.033-.044-.07-.071-.107-.104-.031-.044-.07-.071-.104-.11-.035-.038-.072-.067-.105-.106-.037-.04-.074-.071-.107-.106-.035-.038-.07-.069-.106-.103-.032-.042-.069-.071-.106-.106-.033-.042-.071-.069-.105-.11-.033-.036-.07-.065-.104-.104-.038-.039-.074-.071-.109-.106-.035-.038-.07-.069-.106-.103-.034-.04-.069-.073-.108-.108-.031-.042-.067-.068-.102-.106-.035-.04-.074-.071-.109-.106-.034-.04-.068-.067-.102-.104-.037-.04-.074-.071-.11-.108-.034-.041-.069-.071-.106-.106-.033-.04-.07-.069-.105-.105-.031-.041-.072-.07-.105-.105-.034-.041-.072-.07-.105-.107-.035-.039-.07-.069-.105-.106-.037-.041-.072-.07-.107-.104-.033-.041-.068-.07-.107-.107-.033-.039-.071-.069-.105-.106-.033-.04-.07-.069-.104-.105-.038-.04-.074-.071-.109-.108-.035-.039-.07-.067-.104-.103-.034-.041-.071-.072-.11-.11-.031-.037-.067-.066-.102-.103-.035-.042-.074-.072-.109-.108-.032-.039-.068-.067-.102-.104-.037-.04-.074-.07-.11-.107-.032-.041-.067-.071-.104-.107-.035-.039-.072-.069-.107-.105-.031-.04-.07-.069-.104-.104-.036-.041-.074-.072-.107-.11-.037-.038-.07-.066-.105-.103-.037-.041-.07-.071-.107-.105-.033-.041-.068-.07-.105-.107-.033-.039-.073-.07-.107-.107-.033-.041-.07-.07-.104-.106-.038-.039-.072-.067-.105-.104-.037-.041-.072-.071-.11-.106-.032-.04-.069-.069-.104-.106-.031-.039-.071-.068-.105-.105-.033-.042-.074-.073-.109-.109-.032-.04-.07-.069-.102-.105-.037-.038-.072-.067-.106-.104-.034-.042-.071-.072-.108-.109-.035-.04-.072-.07-.107-.107-.031-.04-.072-.069-.105-.104-.034-.04-.068-.068-.102-.104-.037-.04-.072-.072-.109-.109-.037-.042-.07-.071-.107-.106-.033-.041-.068-.07-.105-.107-.033-.039-.072-.068-.105-.104-.033-.041-.072-.07-.105-.107-.037-.039-.072-.069-.105-.106-.037-.041-.07-.07-.108-.105-.034-.041-.069-.07-.108-.107-.029-.038-.069-.067-.104-.104-.031-.041-.072-.071-.105-.106-.036-.041-.07-.071-.105-.108-.037-.039-.072-.068-.11-.105-.03-.04-.065-.069-.104-.106-.031-.039-.071-.069-.105-.105-.033-.042-.07-.072-.105-.107-.036-.041-.072-.069-.104-.105-.037-.039-.072-.069-.109-.106-.035-.041-.07-.071-.107-.107-.033-.04-.068-.07-.105-.106-.033-.04-.07-.069-.104-.105-.035-.041-.072-.07-.107-.107-.037-.04-.072-.07-.107-.107-.035-.041-.068-.069-.107-.104-.033-.041-.066-.071-.104-.108-.033-.039-.073-.069-.107-.106-.033-.04-.072-.069-.105-.105-.036-.04-.07-.07-.105-.106-.037-.04-.07-.069-.108-.106-.032-.041-.067-.07-.104-.107-.033-.039-.071-.068-.107-.105-.031-.041-.07-.07-.105-.105-.036-.042-.072-.072-.105-.109-.035-.039-.072-.068-.107-.104-.033-.041-.068-.069-.104-.105-.035-.041-.072-.072-.109-.109-.033-.039-.07-.068-.104-.104-.035-.041-.072-.071-.107-.107-.035-.039-.07-.068-.104-.104-.037-.042-.072-.072-.111-.107-.033-.041-.066-.07-.104-.106-.033-.04-.072-.07-.107-.107-.033-.041-.072-.07-.105-.105-.035-.04-.07-.069-.104-.105-.035-.041-.072-.07-.109-.107-.033-.041-.068-.072-.107-.109-.031-.038-.069-.067-.104-.102-.033-.041-.072-.071-.105-.107-.036-.042-.072-.071-.107-.109s-.07-.066-.106-.102c-.034-.042-.069-.072-.108-.108-.031-.041-.068-.07-.105-.107-.031-.039-.07-.069-.104-.104-.035-.041-.072-.07-.105-.107-.037-.039-.072-.069-.107-.106-.035-.041-.07-.07-.109-.105-.031-.041-.066-.071-.104-.107-.033-.04-.072-.069-.105-.104-.033-.041-.072-.071-.105-.107-.037-.04-.072-.07-.107-.106-.035-.04-.07-.069-.107-.104-.033-.041-.068-.071-.105-.108-.033-.039-.071-.069-.105-.106-.033-.04-.072-.07-.107-.105-.034-.041-.07-.07-.104-.106-.037-.041-.072-.071-.109-.107-.033-.04-.068-.069-.105-.105-.033-.04-.07-.07-.107-.107-.031-.039-.07-.068-.104-.104-.034-.041-.07-.07-.104-.106-.035-.04-.072-.071-.107-.108-.037-.041-.072-.07-.109-.105-.031-.041-.068-.071-.105-.108-.033-.04-.072-.069-.105-.105-.033-.04-.07-.07-.104-.106-.039-.04-.074-.07-.109-.107-.035-.039-.07-.068-.105-.103-.033-.041-.07-.071-.107-.108-.031-.039-.07-.068-.104-.105-.035-.042-.074-.072-.109-.108-.035-.04-.068-.068-.102-.104-.037-.041-.074-.07-.11-.108-.034-.041-.069-.071-.106-.107-.033-.04-.069-.068-.104-.104-.033-.041-.072-.071-.107-.107-.035-.04-.072-.069-.105-.106-.035-.039-.07-.069-.105-.106-.037-.041-.07-.07-.107-.105-.033-.041-.07-.071-.107-.108-.033-.04-.072-.069-.105-.104-.033-.041-.07-.07-.104-.107-.039-.039-.072-.069-.105-.105-.037-.042-.074-.071-.111-.107-.033-.04-.068-.069-.105-.106-.031-.04-.07-.069-.104-.105-.035-.042-.072-.071-.107-.107-.035-.04-.072-.07-.105-.106-.035-.039-.07-.068-.107-.104-.031-.041-.068-.071-.105-.108-.035-.04-.072-.07-.107-.107-.031-.04-.068-.068-.104-.103-.036-.041-.072-.072-.107-.11-.037-.039-.07-.068-.105-.104-.037-.041-.07-.07-.107-.105-.033-.041-.068-.07-.105-.106-.033-.041-.074-.07-.107-.107-.031-.041-.07-.07-.104-.107-.039-.039-.072-.069-.105-.106-.037-.041-.072-.07-.109-.104-.033-.041-.07-.071-.107-.108-.031-.04-.07-.069-.104-.105-.033-.04-.072-.069-.104-.104-.037-.041-.072-.071-.107-.109-.037-.04-.074-.069-.11-.105-.03-.04-.065-.069-.103-.106-.033-.04-.074-.07-.109-.108-.031-.04-.068-.069-.104-.104-.037-.041-.072-.07-.105-.107-.035-.04-.072-.07-.107-.106-.035-.04-.07-.07-.107-.105-.033-.041-.068-.071-.105-.107-.033-.04-.072-.07-.107-.106-.031-.041-.07-.071-.105-.108-.037-.039-.07-.067-.104-.104-.035-.041-.07-.07-.109-.105-.031-.042-.066-.071-.105-.108-.031-.041-.072-.07-.105-.106-.031-.04-.07-.069-.102-.104-.039-.041-.074-.072-.109-.109-.037-.04-.072-.069-.109-.105-.031-.04-.068-.07-.105-.106-.033-.039-.072-.068-.105-.105-.031-.041-.07-.07-.105-.105-.037-.041-.072-.071-.107-.108-.033-.039-.068-.067-.105-.104-.033-.041-.07-.071-.107-.107-.033-.04-.068-.069-.105-.105-.033-.04-.07-.069-.104-.106-.035-.04-.072-.07-.105-.107-.037-.04-.074-.069-.107-.106-.035-.041-.07-.07-.109-.105-.033-.041-.066-.07-.104-.107-.033-.039-.072-.068-.105-.105-.033-.041-.074-.071-.107-.106-.356-.418-.769-.63-1.184-.63-.542 0-1.085.359-1.497 1.073l-18.012 31.126c-.526.912-.435 1.714.125 2.177.036.039.067.074.107.109.035.035.066.07.106.106.035.034.067.071.106.104.034.034.066.074.105.105.035.036.068.075.107.107.035.037.067.074.107.105.033.037.064.072.104.106.036.035.068.072.106.106.036.035.068.075.108.107.035.034.065.072.104.104.036.039.067.075.107.106.034.037.065.073.105.108.035.035.068.071.107.107.035.033.066.072.106.104.033.035.065.074.105.105.036.038.067.074.106.105.035.039.066.074.106.108.035.035.067.07.105.106.036.035.068.072.108.105.034.034.065.074.105.105.035.035.067.074.107.105.035.039.066.073.106.106.034.038.066.073.106.108.035.034.067.071.105.105.036.035.068.075.109.107.035.034.065.071.104.102.036.041.068.076.107.108.034.037.065.073.105.108.035.033.067.07.106.105.036.034.067.073.106.105.034.035.066.074.106.105.035.038.066.073.104.106.037.036.07.073.111.108.035.035.064.069.104.104.035.035.066.072.106.104.033.037.065.076.106.108.035.035.067.074.106.104.035.039.066.074.106.106.034.037.065.072.106.108.035.035.067.071.104.106.036.033.069.074.109.104.035.036.066.074.105.104.036.041.068.076.107.108.033.037.064.072.104.106.036.035.068.073.108.107.035.034.065.073.104.104.035.036.066.074.107.106.035.039.067.075.106.107.035.036.066.073.107.107.035.033.066.07.105.104.035.035.066.072.105.104.035.037.068.077.109.108.034.035.066.074.104.104.035.037.066.074.105.106.035.035.066.072.106.106.036.037.068.073.106.108.035.033.066.074.106.104.035.034.067.074.107.106.035.039.066.072.105.104.034.038.066.075.106.109.036.035.067.073.107.106.034.033.066.074.105.104.035.034.066.074.106.104.036.039.067.076.105.107.036.038.068.075.109.109.035.033.065.07.104.104.035.033.066.072.106.104.034.036.066.076.107.108.035.035.066.074.105.104.035.037.066.074.106.106.035.035.065.072.105.106.035.035.067.071.106.106.035.035.067.076.107.106.035.034.067.074.106.104.035.039.067.074.106.105.033.038.064.073.104.107.037.035.069.073.109.108.035.033.066.074.106.104.034.034.065.074.105.104.036.039.066.074.105.105.035.038.067.073.107.109.035.035.066.071.105.106.035.033.068.072.107.106.033.034.065.072.104.103.036.039.068.076.106.107.035.038.067.073.107.107.035.035.066.072.106.108.036.033.067.069.105.103.035.035.067.074.106.105.036.037.067.075.106.107.035.037.067.074.107.105.034.038.065.073.106.109.035.033.067.069.104.104.036.036.067.075.107.107.035.034.066.074.107.104.035.039.066.074.105.105.035.038.067.073.107.109.035.035.066.07.104.104.036.035.069.074.109.106.033.036.065.074.105.104.035.039.067.074.105.107.035.038.067.073.107.107.035.035.064.07.104.106.036.034.067.071.106.104.035.035.068.076.108.108.035.034.065.071.103.103.036.038.068.074.108.107.034.037.066.073.106.107.036.035.068.071.106.106.035.034.066.073.105.104.035.037.066.075.106.107.036.038.067.074.106.105.034.037.066.073.106.108.036.035.067.071.105.105.035.034.066.074.106.105.034.036.066.075.107.105.035.039.066.074.103.106.036.036.068.073.109.108.035.035.065.071.105.106.036.034.066.07.106.104.034.035.066.074.106.105.035.035.067.074.105.105.036.039.068.074.109.107.033.037.065.073.105.107.035.034.065.07.104.105.036.033.068.074.109.105.034.036.065.074.105.106.036.038.067.074.106.105.034.037.066.073.106.108.035.033.067.071.105.104.036.035.067.075.108.107.027.027.055.056.084.085 1.756.357 3.529.546 5.349.546 13.39 0 24.727-8.781 28.584-20.895z" opacity=".2"/><path d="m32 20.566 13.157 22.861h-26.315zm0-7.493c-.542 0-1.085.359-1.497 1.073l-17.946 31.183c-.824 1.427-.146 2.598 1.503 2.598h35.882c1.65 0 2.324-1.171 1.502-2.598l-17.95-31.183c-.41-.714-.952-1.073-1.494-1.073z" fill="#fff"/></svg>