<?xml version="1.0" encoding="utf-8"?>
<!-- Generator: Adobe Illustrator 16.0.0, SVG Export Plug-In . SVG Version: 6.00 Build 0)  -->
<!DOCTYPE svg PUBLIC "-//W3C//DTD SVG 1.1//EN" "http://www.w3.org/Graphics/SVG/1.1/DTD/svg11.dtd">
<svg version="1.1" id="Layer_1" xmlns="http://www.w3.org/2000/svg" xmlns:xlink="http://www.w3.org/1999/xlink" x="0px" y="0px"
	 width="175.095px" height="175.013px" viewBox="0 0 175.095 175.013" enable-background="new 0 0 175.095 175.013"
	 xml:space="preserve">
<path fill-rule="evenodd" clip-rule="evenodd" fill="#FFFFFF" d="M87.464,175.01c-47.887,0.378-88.328-39.495-87.45-89.138
	C0.848,38.739,39.892-0.609,88.774,0.007c47.771,0.603,87.289,40.285,86.303,89.397C174.125,136.772,134.946,175.413,87.464,175.01z
	 M87.515,168.733c43.678,0.245,80.589-36.07,81.26-79.923c0.688-44.918-36.427-82.215-80.652-82.497
	C43.438,6.028,6.867,42.952,6.318,86.461C5.747,131.771,43.503,168.98,87.515,168.733z"/>
<path fill-rule="evenodd" clip-rule="evenodd" fill="#FFFFFF" d="M27.19,86.64c0.445-32.174,27.649-59.96,62.053-59.078
	c32.852,0.843,59.378,28.776,58.705,61.241c-0.674,32.479-28.462,60.083-62.171,59.119C53.448,146.998,26.419,120.075,27.19,86.64z
	 M87.557,131.292c25.341-0.217,43.976-20.864,43.703-44.234c-0.276-23.61-19.605-43.402-44.08-43.214
	C62.942,44.03,43.562,64.042,43.817,88.275C44.064,111.728,63.769,131.313,87.557,131.292z"/>
</svg>
