<svg enable-background="new 0 0 175.095 175.013" height="175.013" viewBox="0 0 175.095 175.013" width="175.095" xmlns="http://www.w3.org/2000/svg"><g clip-rule="evenodd" fill="#fff" fill-rule="evenodd"><path d="m87.464 175.01c-47.887.378-88.328-39.495-87.45-89.138.834-47.133 39.878-86.481 88.76-85.865 47.771.603 87.289 40.285 86.303 89.397-.952 47.368-40.131 86.009-87.613 85.606zm.051-6.277c43.678.245 80.589-36.07 81.26-79.923.688-44.918-36.427-82.215-80.652-82.497-44.685-.285-81.256 36.639-81.805 80.148-.571 45.31 37.185 82.519 81.197 82.272z"/><path d="m27.19 86.64c.445-32.174 27.649-59.96 62.053-59.078 32.852.843 59.378 28.776 58.705 61.241-.674 32.479-28.462 60.083-62.171 59.119-32.329-.924-59.358-27.847-58.587-61.282zm60.367 44.652c25.341-.217 43.976-20.864 43.703-44.234-.276-23.61-19.605-43.402-44.08-43.214-24.238.186-43.618 20.198-43.363 44.431.247 23.453 19.952 43.038 43.74 43.017z"/></g></svg>