<?xml version="1.0" encoding="utf-8"?>
<!-- Generator: Adobe Illustrator 16.0.0, SVG Export Plug-In . SVG Version: 6.00 Build 0)  -->
<!DOCTYPE svg PUBLIC "-//W3C//DTD SVG 1.1//EN" "http://www.w3.org/Graphics/SVG/1.1/DTD/svg11.dtd">
<svg version="1.1" id="Layer_1" xmlns="http://www.w3.org/2000/svg" xmlns:xlink="http://www.w3.org/1999/xlink" x="0px" y="0px"
	 width="175.095px" height="175.014px" viewBox="0 0 175.095 175.014" enable-background="new 0 0 175.095 175.014"
	 xml:space="preserve">
<path fill-rule="evenodd" clip-rule="evenodd" fill="#FFFFFF" d="M87.56,175.01c-47.947,0.429-88.438-39.482-87.545-89.162
	C0.862,38.725,39.884-0.559,88.678,0.006c47.812,0.553,87.4,40.255,86.398,89.422C174.112,136.775,134.97,175.363,87.56,175.01z
	 M87.549,168.733c43.669,0.227,80.572-36.098,81.226-79.957c0.67-44.898-36.442-82.199-80.687-82.463
	C43.42,6.046,6.85,42.972,6.318,86.495C5.765,131.785,43.517,168.998,87.549,168.733z"/>
<path fill-rule="evenodd" clip-rule="evenodd" fill="#FFFFFF" d="M78.884,87.368C65.642,74.337,52.478,61.382,39.393,48.505
	c3.098-3.1,5.917-5.92,8.881-8.887c12.989,12.927,26.096,25.969,39.499,39.308c13.028-13.241,25.979-26.403,38.842-39.478
	c3.119,3.113,5.964,5.954,9.104,9.088c-13.077,12.874-26.239,25.832-39.701,39.084c13.377,13.164,26.537,26.117,39.66,39.031
	c-3.132,3.092-5.992,5.916-9.151,9.035c-12.857-13.064-25.812-26.229-39.009-39.639c-13.172,13.384-26.126,26.547-39.014,39.643
	c-3.09-3.098-5.906-5.92-8.866-8.887C52.563,113.816,65.605,100.711,78.884,87.368z"/>
</svg>
