<svg enable-background="new 0 0 175.095 175.014" height="175.014" viewBox="0 0 175.095 175.014" width="175.095" xmlns="http://www.w3.org/2000/svg"><g clip-rule="evenodd" fill="#fff" fill-rule="evenodd"><path d="m87.56 175.01c-47.947.429-88.438-39.482-87.545-89.162.847-47.123 39.869-86.407 88.663-85.842 47.812.553 87.4 40.255 86.398 89.422-.964 47.347-40.106 85.935-87.516 85.582zm-.011-6.277c43.669.227 80.572-36.098 81.226-79.957.67-44.898-36.442-82.199-80.687-82.463-44.668-.267-81.238 36.659-81.77 80.182-.553 45.29 37.199 82.503 81.231 82.238z"/><path d="m78.884 87.368c-13.242-13.031-26.406-25.986-39.491-38.863 3.098-3.1 5.917-5.92 8.881-8.887 12.989 12.927 26.096 25.969 39.499 39.308 13.028-13.241 25.979-26.403 38.842-39.478 3.119 3.113 5.964 5.954 9.104 9.088-13.077 12.874-26.239 25.832-39.701 39.084 13.377 13.164 26.537 26.117 39.66 39.031-3.132 3.092-5.992 5.916-9.151 9.035-12.857-13.064-25.812-26.229-39.009-39.639-13.172 13.384-26.126 26.547-39.014 39.643-3.09-3.098-5.906-5.92-8.866-8.887 12.925-12.987 25.967-26.092 39.246-39.435z"/></g></svg>