<?xml version="1.0" encoding="utf-8"?>
<!-- Generator: Adobe Illustrator 16.0.0, SVG Export Plug-In . SVG Version: 6.00 Build 0)  -->
<!DOCTYPE svg PUBLIC "-//W3C//DTD SVG 1.1//EN" "http://www.w3.org/Graphics/SVG/1.1/DTD/svg11.dtd">
<svg version="1.1" id="Layer_1" xmlns="http://www.w3.org/2000/svg" xmlns:xlink="http://www.w3.org/1999/xlink" x="0px" y="0px"
	 width="88.55px" height="65.017px" viewBox="-374 6.558 88.55 65.017" enable-background="new -374 6.558 88.55 65.017"
	 xml:space="preserve">
<path fill="#FFFFFF" d="M-293.965,40.338c0,2.592-3.778,6.366-6.367,6.366h-63.837c-2.594,0-6.367-3.777-6.367-6.366V12.929
	c0-2.594,3.776-6.371,6.367-6.371h63.833c2.592,0,6.366,3.777,6.366,6.371v27.409H-293.965z"/>
<g>
	<path fill="#FFFFFF" d="M-364.937,60.245c-0.08-0.782-0.363-1.37-0.854-1.755c-0.491-0.384-1.229-0.574-2.213-0.574
		c-1.815,0-2.721,0.626-2.721,1.867c0,0.449,0.186,0.821,0.562,1.115c0.376,0.302,0.977,0.553,1.809,0.747
		c0.983,0.233,1.837,0.45,2.559,0.648c0.726,0.199,1.385,0.428,1.988,0.691c0.335,0.135,0.655,0.308,0.955,0.52
		c0.301,0.207,0.554,0.462,0.761,0.773c0.207,0.303,0.372,0.674,0.497,1.106c0.123,0.432,0.186,0.95,0.186,1.564
		c0,0.739-0.151,1.392-0.46,1.962c-0.307,0.57-0.727,1.051-1.245,1.443c-0.522,0.394-1.136,0.688-1.845,0.899
		c-0.709,0.208-1.457,0.312-2.234,0.312c-2.23,0-3.91-0.433-5.029-1.293c-1.128-0.855-1.716-2.131-1.779-3.82h3.09
		c0.013,0.782,0.335,1.4,0.955,1.854c0.625,0.453,1.403,0.679,2.341,0.679c1.014,0,1.785-0.187,2.306-0.554
		c0.523-0.367,0.785-0.864,0.785-1.5c0-0.242-0.033-0.471-0.093-0.679c-0.062-0.207-0.182-0.397-0.358-0.566
		c-0.173-0.168-0.417-0.315-0.722-0.449c-0.31-0.134-0.709-0.25-1.2-0.358c-1.173-0.242-2.183-0.497-3.036-0.748
		c-0.854-0.251-1.558-0.566-2.112-0.942c-0.553-0.376-0.959-0.834-1.221-1.374s-0.394-1.219-0.394-2.053
		c0-0.632,0.115-1.22,0.344-1.772c0.231-0.553,0.586-1.033,1.063-1.443c0.478-0.411,1.067-0.73,1.766-0.969
		c0.7-0.242,1.523-0.358,2.479-0.358c0.921,0,1.753,0.112,2.492,0.358c0.739,0.238,1.373,0.575,1.904,1.012
		c0.529,0.437,0.942,0.968,1.234,1.595c0.291,0.622,0.456,1.31,0.481,2.062H-364.937z"/>
	<path fill="#FFFFFF" d="M-357.969,71.038V55.725h11.255V58.4h-8.143v3.276h7.492v2.697h-7.488v3.946h8.511v2.719H-357.969z"/>
	<path fill="#FFFFFF" d="M-343.044,71.038V55.725h3.202V68.25h7.592v2.788H-343.044z"/>
	<path fill="#FFFFFF" d="M-328.837,71.038V55.725h11.257V58.4h-8.143v3.276h7.49v2.697h-7.49v3.946h8.506v2.719H-328.837z"/>
	<path fill="#FFFFFF" d="M-300.421,65.782c-0.164,0.877-0.437,1.668-0.804,2.377c-0.368,0.709-0.83,1.314-1.393,1.824
		c-0.562,0.506-1.21,0.898-1.949,1.176c-0.738,0.28-1.552,0.415-2.45,0.415c-0.994,0-1.928-0.173-2.801-0.506
		c-0.864-0.342-1.616-0.848-2.248-1.526c-0.631-0.674-1.123-1.513-1.486-2.502c-0.363-0.994-0.545-2.148-0.545-3.471
		c0-1.293,0.164-2.455,0.497-3.497c0.329-1.037,0.8-1.914,1.414-2.628c0.617-0.713,1.365-1.266,2.251-1.65
		c0.887-0.385,1.872-0.575,2.966-0.575c0.95,0,1.819,0.139,2.593,0.424c0.773,0.28,1.448,0.679,2.006,1.176
		c0.562,0.501,1.007,1.089,1.335,1.768c0.333,0.679,0.536,1.396,0.614,2.17h-3.207c-0.216-0.878-0.631-1.561-1.245-2.04
		c-0.618-0.484-1.305-0.727-2.079-0.727c-1.335,0-2.321,0.479-2.952,1.439c-0.631,0.964-0.941,2.282-0.941,3.959
		c0,1.707,0.311,3.034,0.934,3.977c0.622,0.951,1.556,1.422,2.801,1.422c0.95,0,1.72-0.255,2.299-0.77s0.973-1.258,1.188-2.226
		h3.203V65.782z"/>
	<path fill="#FFFFFF" d="M-293.294,71.038V58.4h-4.611v-2.675h12.456V58.4h-4.633v12.639H-293.294z"/>
</g>
</svg>
