<?xml version="1.0" encoding="utf-8"?>
<!-- Generator: Adobe Illustrator 16.0.0, SVG Export Plug-In . SVG Version: 6.00 Build 0)  -->
<!DOCTYPE svg PUBLIC "-//W3C//DTD SVG 1.1//EN" "http://www.w3.org/Graphics/SVG/1.1/DTD/svg11.dtd">
<svg version="1.1" id="Layer_1" xmlns="http://www.w3.org/2000/svg" xmlns:xlink="http://www.w3.org/1999/xlink" x="0px" y="0px"
	 width="58.296px" height="54.682px" viewBox="-36 -3 58.296 54.682" enable-background="new -36 -3 58.296 54.682"
	 xml:space="preserve">
<g>
	<path fill="#FFFFFF" d="M-28.894,42.807c-0.061-0.619-0.286-1.077-0.667-1.376c-0.387-0.304-0.968-0.455-1.737-0.455
		c-1.422,0-2.134,0.488-2.134,1.463c0,0.354,0.149,0.646,0.444,0.876c0.297,0.237,0.766,0.435,1.419,0.59
		c0.772,0.182,1.439,0.353,2.008,0.507c0.563,0.157,1.085,0.338,1.555,0.544c0.265,0.106,0.516,0.244,0.748,0.406
		c0.237,0.165,0.435,0.365,0.598,0.606c0.163,0.239,0.295,0.533,0.388,0.868c0.099,0.34,0.146,0.749,0.146,1.23
		c0,0.578-0.123,1.089-0.362,1.534c-0.242,0.448-0.568,0.824-0.976,1.136c-0.411,0.307-0.892,0.543-1.446,0.701
		c-0.554,0.166-1.141,0.244-1.755,0.244c-1.747,0-3.062-0.337-3.943-1.012c-0.878-0.678-1.345-1.676-1.391-3.002h2.422
		c0.012,0.614,0.262,1.098,0.75,1.456c0.486,0.354,1.102,0.533,1.836,0.533c0.797,0,1.396-0.148,1.81-0.433
		c0.412-0.29,0.614-0.684,0.614-1.177c0-0.189-0.025-0.369-0.072-0.53c-0.047-0.162-0.14-0.312-0.277-0.445
		c-0.141-0.13-0.33-0.25-0.572-0.354c-0.242-0.098-0.554-0.193-0.941-0.281c-0.915-0.188-1.708-0.387-2.378-0.586
		c-0.667-0.198-1.223-0.446-1.656-0.744c-0.432-0.292-0.751-0.65-0.958-1.075c-0.206-0.418-0.311-0.959-0.311-1.607
		c0-0.492,0.095-0.961,0.275-1.394c0.181-0.434,0.457-0.809,0.832-1.133c0.373-0.317,0.835-0.571,1.384-0.759
		c0.547-0.183,1.197-0.279,1.944-0.279c0.725,0,1.376,0.095,1.954,0.279c0.579,0.188,1.078,0.456,1.492,0.796
		c0.417,0.342,0.737,0.761,0.967,1.251c0.232,0.485,0.359,1.024,0.381,1.616h-2.389V42.807z"/>
	<path fill="#FFFFFF" d="M-20.285,51.269v-9.911h-3.618V39.26h9.765v2.098h-3.635v9.911H-20.285z"/>
	<path fill="#FFFFFF" d="M-5.893,51.269l-0.759-2.477h-4.434l-0.848,2.477h-2.657l4.283-12.009h2.913l4.232,12.009H-5.893z
		 M-8.878,41.957h-0.017l-1.536,4.773h3.051L-8.878,41.957z"/>
	<path fill="#FFFFFF" d="M6.908,51.269v-3.094c0-0.578-0.134-0.991-0.396-1.237c-0.267-0.249-0.76-0.372-1.483-0.372H2.354v4.703
		h-2.443V39.26h6.092c0.552,0,1.059,0.091,1.508,0.262c0.453,0.176,0.843,0.418,1.17,0.726c0.321,0.305,0.572,0.674,0.748,1.101
		c0.177,0.428,0.262,0.893,0.262,1.385c0,0.65-0.153,1.229-0.461,1.728c-0.304,0.497-0.751,0.851-1.327,1.056
		c0.529,0.167,0.908,0.428,1.13,0.777c0.22,0.351,0.333,0.876,0.333,1.574v3.401H6.908z M2.354,41.339v3.202h3.142
		c0.678,0,1.156-0.152,1.43-0.451c0.278-0.303,0.417-0.68,0.417-1.141c0-0.469-0.136-0.854-0.407-1.157
		c-0.273-0.301-0.723-0.453-1.349-0.453H2.354z"/>
	<path fill="#FFFFFF" d="M16.147,51.269v-9.911h-3.615V39.26h9.764v2.098h-3.634v9.911H16.147z"/>
</g>
<path fill="#FFFFFF" d="M-26.991,32.698c-1.697,0-2.877-1.298-2.877-3.156V1.116c0-1.864,1.183-3.156,2.877-3.156
	c0.467,0,0.948,0.097,1.438,0.292L11.93,13.327c1.577,0.631,1.816,1.527,1.816,2.001c0,0.475-0.239,1.363-1.816,1.998
	l-37.482,15.076C-26.043,32.599-26.524,32.698-26.991,32.698z"/>
<path fill="#FFFFFF" d="M-27.628,33.745c-1.77,0-3.006-1.369-3.006-3.336V0.336c0-1.964,1.236-3.336,3.006-3.336
	c0.486,0,0.99,0.106,1.494,0.308l39.145,15.948c1.651,0.673,1.899,1.613,1.899,2.119c0,0.497-0.248,1.442-1.899,2.116
	l-39.145,15.944C-26.638,33.646-27.142,33.745-27.628,33.745z M-27.628-1.454c-0.901,0-1.461,0.683-1.461,1.791v30.073
	c0,1.104,0.56,1.794,1.461,1.794c0.286,0,0.592-0.069,0.912-0.199l39.141-15.949c0.774-0.312,0.939-0.62,0.939-0.684
	c0-0.061-0.168-0.37-0.939-0.687L-26.714-1.258C-27.036-1.389-27.342-1.454-27.628-1.454z"/>
</svg>
