<svg enable-background="new 0 0 175.095 175.013" height="175.013" viewBox="0 0 175.095 175.013" width="175.095" xmlns="http://www.w3.org/2000/svg"><g clip-rule="evenodd" fill="#fff" fill-rule="evenodd"><path d="m87.456 175.01c-47.881.374-88.324-39.497-87.442-89.146.838-47.13 39.882-86.477 88.768-85.857 47.768.607 87.285 40.288 86.295 89.405-.956 47.367-40.137 86.005-87.621 85.598zm.072-6.277c43.674.237 80.583-36.081 81.246-79.938.68-44.911-36.435-82.208-80.666-82.482-44.677-.277-81.248 36.647-81.79 80.162-.564 45.302 37.191 82.512 81.21 82.258z"/><path d="m142.256 125.995c-36.547 0-72.88 0-109.41 0 18.258-31.106 36.442-62.085 54.703-93.195 18.261 31.108 36.434 62.067 54.707 93.195zm-87.391-11.043h65.372c-10.918-20.081-21.758-40.018-32.689-60.122-10.944 20.131-21.782 40.07-32.683 60.122z"/></g></svg>