<?xml version="1.0" encoding="utf-8"?>
<!-- Generator: Adobe Illustrator 16.0.0, SVG Export Plug-In . SVG Version: 6.00 Build 0)  -->
<!DOCTYPE svg PUBLIC "-//W3C//DTD SVG 1.1//EN" "http://www.w3.org/Graphics/SVG/1.1/DTD/svg11.dtd">
<svg version="1.1" id="Layer_1" xmlns="http://www.w3.org/2000/svg" xmlns:xlink="http://www.w3.org/1999/xlink" x="0px" y="0px"
	 width="175.095px" height="175.013px" viewBox="0 0 175.095 175.013" enable-background="new 0 0 175.095 175.013"
	 xml:space="preserve">
<path fill-rule="evenodd" clip-rule="evenodd" fill="#FFFFFF" d="M87.456,175.01c-47.881,0.374-88.324-39.497-87.442-89.146
	C0.852,38.734,39.896-0.613,88.782,0.007c47.768,0.607,87.285,40.288,86.295,89.405C174.121,136.779,134.94,175.417,87.456,175.01z
	 M87.528,168.733c43.674,0.237,80.583-36.081,81.246-79.938c0.68-44.911-36.435-82.208-80.666-82.482
	C43.431,6.036,6.86,42.96,6.318,86.475C5.754,131.777,43.509,168.987,87.528,168.733z"/>
<path fill-rule="evenodd" clip-rule="evenodd" fill="#FFFFFF" d="M142.256,125.995c-36.547,0-72.88,0-109.41,0
	C51.104,94.889,69.288,63.91,87.549,32.8C105.81,63.908,123.983,94.867,142.256,125.995z M54.865,114.952
	c21.882,0,43.548,0,65.372,0C109.319,94.871,98.479,74.934,87.548,54.83C76.604,74.961,65.766,94.9,54.865,114.952z"/>
</svg>
