<?xml version="1.0" encoding="utf-8"?>
<!-- Generator: Adobe Illustrator 16.0.0, SVG Export Plug-In . SVG Version: 6.00 Build 0)  -->
<!DOCTYPE svg PUBLIC "-//W3C//DTD SVG 1.1//EN" "http://www.w3.org/Graphics/SVG/1.1/DTD/svg11.dtd">
<svg version="1.1" id="Layer_1" xmlns="http://www.w3.org/2000/svg" xmlns:xlink="http://www.w3.org/1999/xlink" x="0px" y="0px"
	 width="175.095px" height="175.013px" viewBox="0 0 175.095 175.013" enable-background="new 0 0 175.095 175.013"
	 xml:space="preserve">
<path fill-rule="evenodd" clip-rule="evenodd" fill="#FFFFFF" d="M87.464,175.01c-47.887,0.378-88.328-39.495-87.45-89.138
	C0.848,38.739,39.892-0.609,88.773,0.007c47.772,0.603,87.29,40.285,86.304,89.397C174.125,136.772,134.946,175.413,87.464,175.01z
	 M87.518,168.733c43.677,0.243,80.588-36.073,81.257-79.926c0.686-44.917-36.429-82.214-80.655-82.494
	C43.437,6.03,6.866,42.954,6.318,86.464C5.749,131.773,43.505,168.982,87.518,168.733z"/>
<path fill-rule="evenodd" clip-rule="evenodd" fill="#FFFFFF" d="M40.734,134.382c0-31.23,0-62.402,0-93.652
	c31.197,0,62.335,0,93.583,0c0,31.185,0,62.385,0,93.652C103.138,134.382,71.969,134.382,40.734,134.382z M53.342,53.273
	c0,22.899,0,45.698,0,68.476c22.884,0,45.653,0,68.435,0c0-22.873,0-45.643,0-68.476C98.943,53.273,76.201,53.273,53.342,53.273z"/>
</svg>
