<svg enable-background="new 0 0 175.095 175.013" height="175.013" viewBox="0 0 175.095 175.013" width="175.095" xmlns="http://www.w3.org/2000/svg"><g clip-rule="evenodd" fill="#fff" fill-rule="evenodd"><path d="m87.464 175.01c-47.887.378-88.328-39.495-87.45-89.138.834-47.133 39.878-86.481 88.759-85.865 47.772.603 87.29 40.285 86.304 89.397-.952 47.368-40.131 86.009-87.613 85.606zm.054-6.277c43.677.243 80.588-36.073 81.257-79.926.686-44.917-36.429-82.214-80.655-82.494-44.683-.283-81.254 36.641-81.802 80.151-.569 45.309 37.187 82.518 81.2 82.269z"/><path d="m40.734 134.382c0-31.23 0-62.402 0-93.652h93.583v93.652c-31.179 0-62.348 0-93.583 0zm12.608-81.109v68.476h68.435c0-22.873 0-45.643 0-68.476-22.834 0-45.576 0-68.435 0z"/></g></svg>