<svg enable-background="new" height="600" width="1000" xmlns="http://www.w3.org/2000/svg" xmlns:xlink="http://www.w3.org/1999/xlink"><linearGradient id="a"><stop offset="0" stop-color="#dcdcd9"/><stop offset=".65597826" stop-color="#f0f0ee"/><stop offset="1" stop-color="#f3f3ef"/></linearGradient><linearGradient id="b"><stop offset="0" stop-color="#d3d3d3"/><stop offset=".53977019" stop-color="#ededed"/><stop offset="1" stop-color="#4d4d4d"/></linearGradient><linearGradient id="c"><stop offset="0" stop-color="#899194"/><stop offset="1" stop-color="#5e6667"/><stop offset="1" stop-color="#515759"/></linearGradient><linearGradient id="d"><stop offset="0" stop-color="#303638"/><stop offset="1" stop-color="#424a4f"/></linearGradient><radialGradient id="e" cx="170" cy="300" gradientUnits="userSpaceOnUse" r="96.805557"><stop offset="0"/><stop offset=".3888889" stop-color="#dcdcdc"/><stop offset="1" stop-color="#eeeee9"/></radialGradient><radialGradient id="f" cx="170" cy="300" gradientUnits="userSpaceOnUse" r="97.111115"><stop offset="0" stop-color="#f3f3f1"/><stop offset=".94" stop-color="#7f7f7e"/><stop offset="1" stop-color="#e6e6e3"/></radialGradient><radialGradient id="g" cx="306.00046" cy="299.30283" gradientUnits="userSpaceOnUse" r="11.154825" xlink:href="#d"/><radialGradient id="h" cx="246.84801" cy="253.6937" gradientTransform="matrix(1 0 0 1.0280112 0 -7.106277)" gradientUnits="userSpaceOnUse" r="16.627798" xlink:href="#d"/><radialGradient id="i" cx="63.996368" cy="530.88275" gradientTransform="matrix(1 0 0 .25778 0 394.0318)" gradientUnits="userSpaceOnUse" r="32.95863" xlink:href="#c"/><radialGradient id="j" cx="621" cy="301" gradientUnits="userSpaceOnUse" r="154.5"><stop offset="0" stop-color="#2a2d2e"/><stop offset=".98000002" stop-color="#d7d6d7"/><stop offset=".99000001"/><stop offset="1" stop-color="#859094"/></radialGradient><linearGradient id="k" gradientUnits="userSpaceOnUse" x1="500" x2="512.44775" y1="508" y2="82"><stop offset="0" stop-color="#5b5b5a"/><stop offset=".31944445" stop-color="#5d5d5d"/><stop offset="1" stop-color="#f9f9f9"/></linearGradient><linearGradient id="l" gradientUnits="userSpaceOnUse" x1="500" x2="512.44775" y1="508" y2="82"><stop offset="0" stop-color="#8d8d8c"/><stop offset=".25416961" stop-color="#f6f6f4"/><stop offset="1" stop-color="#f3f3ef"/></linearGradient><linearGradient id="m" gradientUnits="userSpaceOnUse" x1="140.66206" x2="349.68732" xlink:href="#a" y1="143.66698" y2="143.66698"/><radialGradient id="n" cx="245.17468" cy="143.66698" gradientTransform="matrix(1.7645947 -.297109 .07949175 .4721195 -198.87963 148.68252)" gradientUnits="userSpaceOnUse" r="104.51264" xlink:href="#b"/><radialGradient id="o" cx="245.17468" cy="143.66698" gradientTransform="matrix(1.7645947 -.297109 .07949175 .4721195 -198.87963 150.80384)" gradientUnits="userSpaceOnUse" r="104.51264" xlink:href="#b"/><linearGradient id="p" gradientUnits="userSpaceOnUse" x1="140.66206" x2="349.68732" xlink:href="#a" y1="145.7883" y2="145.7883"/><linearGradient id="q" gradientUnits="userSpaceOnUse" x1="542.5" x2="542.5" y1="334.09967" y2="257.43439"><stop offset="0" stop-color="#00dea5"/><stop offset="1" stop-color="#00f8b9"/></linearGradient><linearGradient id="r" gradientTransform="matrix(1 0 0 1.6685383 9.375 -85.831423)" gradientUnits="userSpaceOnUse" x1="492.77176" x2="492.77176" y1="132.51852" y2="134.27342"><stop offset="0" stop-color="#f0f0ec"/><stop offset="1" stop-color="#babab7"/></linearGradient><radialGradient id="s" cx="63.996368" cy="530.88281" gradientTransform="matrix(1.7547305 -.00515884 .00055716 .189512 -45.845799 433.35427)" gradientUnits="userSpaceOnUse" r="32.95863" xlink:href="#c"/><g><g fill="url(#n)" fill-rule="evenodd" stroke="url(#m)" transform="matrix(-1 0 0 1 1000.3494 -4.573223)"><path d="m145.19609 174.21869c-3.77331-.72031-4.26587-3.85881-3.95767-8.86071.4115-6.67852 1.13955-7.96723 2.69974-10.07496 2.79288-3.77298 7.30907-7.44863 10.16955-9.56651 2.82164-2.0891 5.72767-4.10117 8.73971-6.039 3.01852-1.94202 6.04513-3.76162 9.09498-5.48408 3.13148-1.76855 6.27547-3.42172 9.45025-4.96177 3.23987-1.57164 6.50962-3.03736 9.80553-4.37421 3.33887-1.35426 6.71751-2.60471 10.12528-3.72133 3.42251-1.12145 6.87034-2.11808 10.37396-3.00318 3.48795-.88114 7.04281-1.6348 10.62266-2.28503 3.53487-.64207 7.09365-1.17938 10.72924-1.59952 3.56215-.41166 7.20203-.71237 10.87134-.91402 1.7696-.09725 71.61582-.21912 95.94883-.21912 6.08301 1.375 12.37045 11.14454 7.6863 17.76954-25.68415 0-99.40872.14001-101.27658.25173-3.87306.23165-7.71505.5771-11.475 1.05-3.83746.48265-7.59385 1.0999-11.325 1.8375-3.77863.74698-7.53088 1.61276-11.2125 2.625-3.69817 1.01679-7.33744 2.1617-10.95 3.45-3.59699 1.28275-7.16324 2.71924-10.6875 4.275-3.47892 1.53574-6.93023 3.21953-10.35 5.025-3.35107 1.76919-6.66964 3.66832-9.975 5.7-3.2192 1.97873-6.41387 4.06905-9.6 6.3-5.8138 4.31804-10.07902 8.01481-15.50812 12.81967z" fill="url(#n)" stroke="url(#m)" transform="matrix(-1 0 0 1 1000.3494 2.12132)"/><path d="m145.19609 176.34001c-3.77331-.72031-4.26587-3.85881-3.95767-8.86071.4115-6.67852 1.13955-7.96723 2.69974-10.07496 2.79288-3.77298 7.30907-7.44863 10.16955-9.56651 2.82164-2.0891 5.72767-4.10117 8.73971-6.039 3.01852-1.94202 6.04513-3.76162 9.09498-5.48408 3.13148-1.76855 6.27547-3.42172 9.45025-4.96177 3.23987-1.57164 6.50962-3.03736 9.80553-4.37421 3.33887-1.35426 6.71751-2.60471 10.12528-3.72133 3.42251-1.12145 6.87034-2.11808 10.37396-3.00318 3.48795-.88114 7.04281-1.6348 10.62266-2.28503 3.53487-.64207 7.09365-1.17938 10.72924-1.59952 3.56215-.41166 7.20203-.71237 10.87134-.91402 1.7696-.09725 71.61582-.21912 95.94883-.21912 6.08301 1.375 12.37045 11.14454 7.6863 17.76954-25.68415 0-99.40872.14001-101.27658.25173-3.87306.23165-7.71505.5771-11.475 1.05-3.83746.48265-7.59385 1.0999-11.325 1.8375-3.77863.74698-7.53088 1.61276-11.2125 2.625-3.69817 1.01679-7.33744 2.1617-10.95 3.45-3.59699 1.28275-7.16324 2.71924-10.6875 4.275-3.47892 1.53574-6.93023 3.21953-10.35 5.025-3.35107 1.76919-6.66964 3.66832-9.975 5.7-3.2192 1.97873-6.41387 4.06905-9.6 6.3-5.8138 4.31804-10.07902 8.01481-15.50812 12.81967z" fill="url(#o)" stroke="url(#p)"/></g><path d="m716.44579 130.79902c-11.50175.00215-466.43087.11406-470.16658.3375-3.87306.23165-7.71505.5771-11.475 1.05-3.83746.48265-7.59385 1.0999-11.325 1.8375-3.77863.74698-7.53088 1.61276-11.2125 2.625-3.69817 1.01679-7.33744 2.1617-10.95 3.45-3.59699 1.28275-7.16324 2.71924-10.6875 4.275-3.47892 1.53574-6.93023 3.21953-10.35 5.025-3.35107 1.76919-6.66964 3.66832-9.975 5.7-3.2192 1.97873-6.41387 4.06905-9.6 6.3-3.17928 2.22615-6.24668 4.53757-9.225 6.9375-3.01931 2.43297-5.96436 4.93799-8.775 7.5375-2.84378 2.63015-5.54704 5.34934-8.175 8.1375-2.65444 2.81626-5.21801 5.7354-7.65 8.7-2.45286 2.99005-4.78825 6.02227-7.0125 9.15-2.23987 3.14969-4.36935 6.39919-6.375 9.675-2.01676 3.29394-3.92248 6.64228-5.7 10.05-1.78487 3.42182-3.44631 6.9024-4.9875 10.425-1.54621 3.53408-2.939041 7.10353-4.237501 10.725-1.3013 3.6294-2.51253 7.28449-3.5625 10.9875-1.05128 3.70763-1.94069 7.44533-2.7375 11.2125-.79711 3.76861-1.48507 7.58604-2.025 11.4-.5398 3.81301-.95726 7.6309-1.2375 11.475-.27985 3.83885-.43151 7.69435-.45 11.55-.01845 3.84721.09325 7.70015.3375 11.55.24349 3.83789.61796 7.686 1.125 11.5125.50477 3.80942 1.14411 7.57816 1.9125 11.3625.76424 3.76388 1.67258 7.5245 2.7 11.25 1.02036 3.69989 2.16772 7.3763 3.45 11.025 1.27159 3.61828 2.668551 7.20754 4.200001 10.7625 1.51592 3.51887 3.17723 7.01831 4.95 10.4625 1.75208 3.404 3.61989 6.76866 5.625 10.0875 1.97765 3.2734 4.07413 6.49615 6.3 9.675 2.22615 3.17928 4.53757 6.2467 6.9375 9.225 2.43297 3.01931 4.93798 5.96436 7.5375 8.775 2.63015 2.84378 5.34934 5.54702 8.1375 8.175 2.81626 2.65444 5.7354 5.21802 8.7 7.65 2.99005 2.45286 6.02227 4.78825 9.15 7.0125 3.14969 2.23987 6.3992 4.36934 9.675 6.375 3.29394 2.01676 6.64228 3.92248 10.05 5.7 3.42182 1.78488 6.9024 3.44632 10.425 4.9875 3.53408 1.54621 7.10353 2.93903 10.725 4.2375 3.6294 1.3013 7.28449 2.51254 10.9875 3.5625 3.70763 1.05128 7.44533 1.94069 11.2125 2.7375 3.76861.7971 7.58604 1.48507 11.4 2.025 3.81301.5398 7.6309.95725 11.475 1.2375 3.83885.27985 7.69435.43151 11.55.45 3.84721.01844 7.70015-.09325 11.55-.3375 3.83789-.24349 7.686-.61795 11.5125-1.125 3.80942-.50477 7.57816-1.1441 11.3625-1.9125 3.76388-.76423 7.5245-1.67258 11.25-2.7 3.69989-1.02035 7.3763-2.16773 11.025-3.45 3.61828-1.27159 7.20756-2.66852 10.7625-4.2 3.51887-1.51591 7.01831-3.17723 10.4625-4.95 3.404-1.75207 6.76866-3.61987 10.0875-5.625 1.63669-.98882 6.50369-4.9827 9.675-5.4375 3.21366-.46087 283.94715-1.8332 287.20408-.8625l3.55873 1.06066c1.98952.59296 6.02407 3.29948 9.30377 5.23934 3.33745 1.97402 6.6835 3.87293 10.0875 5.625 3.44417 1.77277 6.94363 3.43409 10.4625 4.95 3.55495 1.53148 7.14422 2.92841 10.7625 4.2 3.64868 1.28227 7.32511 2.42965 11.025 3.45 3.7255 1.02742 7.44862 1.93577 11.2125 2.7 3.78433.7684 7.59058 1.40773 11.4 1.9125 3.8265.50705 7.67461.88151 11.5125 1.125 3.84988.24425 7.70279.35594 11.55.3375 3.85566-.01849 7.71115-.17015 11.55-.45 3.84409-.28025 7.66199-.6977 11.475-1.2375 3.814-.53993 7.59389-1.2279 11.3625-2.025 3.76721-.79681 7.54237-1.68622 11.25-2.7375 3.703-1.04996 7.3581-2.2612 10.9875-3.5625 3.62146-1.29847 7.19092-2.69129 10.725-4.2375 3.5226-1.54118 7.00318-3.20262 10.425-4.9875 3.40775-1.77752 6.75606-3.68324 10.05-5.7 3.27577-2.00566 6.48781-4.13513 9.6375-6.375 3.12772-2.22425 6.19745-4.55964 9.1875-7.0125 2.96462-2.43198 5.88374-4.99556 8.7-7.65 2.78819-2.62798 5.46985-5.33122 8.1-8.175 2.59955-2.81064 5.14204-5.75569 7.575-8.775 2.39993-2.9783 4.71134-6.04572 6.9375-9.225 2.22584-3.17885 4.32235-6.4016 6.3-9.675 2.00509-3.31884 3.87293-6.6835 5.625-10.0875 1.77274-3.44419 3.43408-6.94363 4.95-10.4625 1.53149-3.55496 2.92841-7.14422 4.2-10.7625 1.28228-3.6487 2.42964-7.32511 3.45-11.025 1.02743-3.7255 1.93576-7.48612 2.7-11.25.76841-3.78434 1.40773-7.55308 1.9125-11.3625.50705-3.8265.88151-7.67461 1.125-11.5125.24422-3.84985.35596-7.70279.3375-11.55-.01846-3.85565-.17015-7.71115-.45-11.55-.28024-3.8441-.6977-7.66199-1.2375-11.475-.53992-3.81396-1.22789-7.63139-2.025-11.4-.79681-3.76717-1.72372-7.50487-2.775-11.2125-1.05-3.70301-2.2237-7.3581-3.525-10.9875-1.29846-3.62147-2.72879-7.19092-4.275-10.725-1.54122-3.5226-3.20263-7.00318-4.9875-10.425-1.77749-3.40772-3.64574-6.75606-5.6625-10.05-2.00562-3.27581-4.13514-6.52531-6.375-9.675-2.22425-3.12773-4.55964-6.15995-7.0125-9.15-2.432-2.9646-4.99556-5.88374-7.65-8.7-2.62796-2.78816-5.36872-5.50735-8.2125-8.1375-2.81063-2.59951-5.71819-5.10453-8.7375-7.5375-2.97829-2.39993-6.04572-4.71135-9.225-6.9375-3.18614-2.23095-6.3808-4.32127-9.6-6.3-3.30535-2.03168-6.66143-3.93081-10.0125-5.7-3.41981-1.80547-6.83358-3.48926-10.3125-5.025-3.52424-1.55576-7.09051-2.99225-10.6875-4.275-3.61254-1.2883-7.28933-2.43321-10.9875-3.45-3.6816-1.01224-7.39637-1.87802-11.175-2.625-3.73118-.7376-7.52504-1.35485-11.3625-1.8375-3.75991-.4729-7.56444-.81835-11.4375-1.05-3.36701-.20138-36.85712-.3375-37.275-.3375z" fill="url(#l)" fill-rule="evenodd" stroke="url(#k)" stroke-width="5"/><path d="m266 300a96 96 0 1 1 -192 0 96 96 0 1 1 192 0z" fill="url(#e)" stroke="url(#f)" stroke-width="3.333333" transform="matrix(1.1486534 0 0 1.1486534 52.05556 -44.596021)"/><path d="m773 301a152 152 0 1 1 -304 0 152 152 0 1 1 304 0z" fill="#777f82" stroke="url(#j)" stroke-width="5" transform="translate(119.05204 .000001)"/><rect id="t" fill="#f4f4f1" height="65" rx="36" stroke="#fdfdfa" transform="matrix(.7071068 -.7071068 .7071068 .7071068 0 0)" width="159" x="235.90645" y="652.72327"/><use height="600" transform="translate(80 75)" width="800" xlink:href="#t"/><path d="m570 298a27.5 27.5 0 1 1 -55 0 27.5 27.5 0 1 1 55 0z" fill="#1a1a1a" stroke="#ebebe8" stroke-width=".952381" transform="matrix(1.05 0 0 1.05 103.92704 -17.899999)"/><path d="m570 298a27.5 27.5 0 1 1 -55 0 27.5 27.5 0 1 1 55 0z" fill="url(#q)" stroke="#00ab7f" stroke-width="2.105263" transform="matrix(.95 0 0 .95 158.17704 11.900001)"/><path d="m570 298a27.5 27.5 0 1 1 -55 0 27.5 27.5 0 1 1 55 0z" fill="#1a1a1a" stroke="#ebebe8" stroke-width=".952381" transform="matrix(1.05 0 0 1.05 184.42704 58.100001)"/><path d="m570 298a27.5 27.5 0 1 1 -55 0 27.5 27.5 0 1 1 55 0z" fill="#ffbb58" stroke="#ba853d" stroke-width="2.105263" transform="matrix(.95 0 0 .95 238.67704 87.900001)"/><path d="m570 298a27.5 27.5 0 1 1 -55 0 27.5 27.5 0 1 1 55 0z" fill="#1a1a1a" stroke="#ebebe8" stroke-width=".952381" transform="matrix(1.05 0 0 1.05 251.92704 -9.899999)"/><path d="m570 298a27.5 27.5 0 1 1 -55 0 27.5 27.5 0 1 1 55 0z" fill="#ff4856" stroke="#c72b3e" stroke-width="2.105263" transform="matrix(.95 0 0 .95 306.17704 19.900001)"/><path d="m570 298a27.5 27.5 0 1 1 -55 0 27.5 27.5 0 1 1 55 0z" fill="#1a1a1a" stroke="#ebebe8" stroke-width=".952381" transform="matrix(1.05 0 0 1.05 170.92704 -85.399999)"/><path d="m570 298a27.5 27.5 0 1 1 -55 0 27.5 27.5 0 1 1 55 0z" fill="#0075fa" stroke="#0054b3" stroke-width="2.105263" transform="matrix(.95 0 0 .95 225.17704 -55.599999)"/><rect fill="#1a1a1a" height="19.478285" rx="7.345721" stroke="#e2e2df" stroke-width="1.83643" transform="matrix(.7071068 -.7071068 .7071068 .7071068 14 0)" width="68.390419" x="32.659458" y="523.89368"/><rect fill="url(#s)" height="15.777154" rx="5.950034" stroke="#252a2a" stroke-width="1.215" transform="matrix(.7071068 -.7071068 .7071068 .7071068 14 0)" width="64.702263" x="34.395237" y="525.7442"/><path d="m230.57544 224.95464c-4.45447 0-8.04056 3.5861-8.04056 8.04058v42.21302h-42.21302c-4.45448 0-8.04058 3.58609-8.04058 8.04056v33.5024c0 4.45447 3.5861 8.04056 8.04058 8.04056h42.21302v42.21302c0 4.45448 3.58609 8.04058 8.04056 8.04058h33.5024c4.45447 0 8.04056-3.5861 8.04056-8.04058v-42.21302h42.21302c4.45448 0 8.04058-3.58609 8.04058-8.04056v-33.5024c0-4.45447-3.5861-8.04056-8.04058-8.04056h-42.21302v-42.21302c0-4.45448-3.58609-8.04058-8.04056-8.04058z" fill="#1a1a1a" stroke="#8e979e" stroke-width=".938067"/><path d="m233.57956 231.91492c-3.52838 0-6.36888 3.21405-6.36888 7.20644v40.57323h-41.37463c-3.52835 0-6.36888 3.21405-6.36888 7.20642v26.15927c0 3.99236 2.84053 7.20641 6.36888 7.20641h41.37463v40.79886c0 3.99238 2.8405 7.20645 6.36888 7.20645h26.85603c3.52837 0 6.36887-3.21407 6.36887-7.20645v-40.79886h42.18366c3.52834 0 6.36887-3.21405 6.36887-7.20641v-26.15927c0-3.99237-2.84053-7.20642-6.36887-7.20642h-41.5068v-40.57323c0-3.99239-2.84052-7.20644-6.36888-7.20644z" fill="#4d5254" stroke="#63686b" stroke-width="1.914422"/><path id="u" d="m231.71636 267.52693c-1.4158-2.83982.84907-7.30807.84907-7.30807l4.71939-9.46605 4.71934-9.46604s1.88776-3.65607 4.71938-3.65607 4.71935 3.65607 4.71935 3.65607l4.71937 9.46604 4.71937 9.46605s2.55158 4.30223 1.13576 7.14205c-1.41578 2.83984-5.85513 2.32402-5.85513 2.32402h-9.43872-9.43872s-4.15264.6818-5.56846-2.158z" fill="url(#h)" stroke="#4f5457" stroke-opacity=".862745" stroke-width="2.061148"/><use id="v" height="600" transform="matrix(1 0 0 -1 0 598.76219)" width="1000" xlink:href="#u"/><use height="600" transform="matrix(0 -1 1 0 -52.533083 546.22911)" width="1000" xlink:href="#u"/><use height="600" transform="matrix(0 -1 1 0 -52.533083 546.22911)" width="1000" xlink:href="#v"/><path d="m316.43028 299.30283a10.429825 10.429825 0 1 1 -20.85965 0 10.429825 10.429825 0 1 1 20.85965 0z" fill="url(#g)" stroke="#4f5457" stroke-opacity=".861702" stroke-width="1.45" transform="matrix(1.6288945 0 0 1.6288945 -251.11585 -187.53276)"/><rect fill="#1a1a1a" height="19.478285" rx="7.345721" stroke="#e2e2df" stroke-width="1.83643" transform="matrix(.7071068 -.7071068 .7071068 .7071068 112.9467 0)" width="68.390419" x="29.909458" y="521.14368"/><rect fill="url(#i)" height="15.777154" rx="5.950034" stroke="#252a2a" stroke-width="1.215" transform="matrix(.7071068 -.7071068 .7071068 .7071068 112.9467 0)" width="64.702263" x="31.645237" y="522.9942"/><rect fill="url(#r)" height="8.387381" rx=".7" ry="1.167977" width="36.5" x="481.75" y="128.3867"/></g></svg>