<?xml version="1.0" encoding="UTF-8"?>
<!-- Generator: Adobe Illustrator 16.0.0, SVG Export Plug-In . SVG Version: 6.00 Build 0)  -->
<!DOCTYPE svg PUBLIC "-//W3C//DTD SVG 1.1//EN" "http://www.w3.org/Graphics/SVG/1.1/DTD/svg11.dtd">
<svg version="1.1" id="Capa_1" xmlns="http://www.w3.org/2000/svg" xmlns:xlink="http://www.w3.org/1999/xlink" x="0px" y="0px" width="19.996px" height="19.995px" viewBox="0 0 19.996 19.995" enable-background="new 0 0 19.996 19.995" xml:space="preserve">
<g display="none">
	<path display="inline" fill="#CC3366" d="M158.14,70.903c23.665,0,42.917,19.252,42.917,42.917   c0,23.664-19.252,42.917-42.917,42.917c-23.665,0-42.918-19.253-42.918-42.917C115.222,90.156,134.475,70.903,158.14,70.903    M158.14,56.903c-31.434,0-56.918,25.483-56.918,56.917c0,31.435,25.484,56.917,56.918,56.917   c31.434,0,56.917-25.482,56.917-56.917C215.057,82.387,189.574,56.903,158.14,56.903L158.14,56.903z"/>
</g>
<g>
	<g>
		<linearGradient id="SVGID_1_" gradientUnits="userSpaceOnUse" x1="9.998" y1="0" x2="9.998" y2="17.896">
			<stop offset="0" style="stop-color:#5B5B5F"/>
			<stop offset="0.0231" style="stop-color:#59595D"/>
			<stop offset="0.4507" style="stop-color:#333335"/>
			<stop offset="0.7912" style="stop-color:#1C1C1D"/>
			<stop offset="1" style="stop-color:#141414"/>
		</linearGradient>
		<circle fill="url(#SVGID_1_)" cx="9.998" cy="9.998" r="9.998"/>
	</g>
	<path fill="#CC3333" d="M9.998,5.177c2.658,0,4.82,2.163,4.82,4.82s-2.162,4.82-4.82,4.82c-2.658,0-4.819-2.163-4.819-4.82   S7.34,5.177,9.998,5.177 M9.998,3.293c-3.703,0-6.705,3.002-6.705,6.705c0,3.703,3.002,6.705,6.705,6.705   c3.704,0,6.706-3.002,6.706-6.705C16.704,6.295,13.702,3.293,9.998,3.293L9.998,3.293z"/>
</g>
</svg>