<svg height="30" width="250" xmlns="http://www.w3.org/2000/svg"><path d="m130.6 27c0 .3-.3.6-.6.6h-10.9c-.3 0-.6-.3-.6-.6v-7.9c0-.3.3-.6.6-.6h10.9c.3 0 .6.3.6.6zm-.5-10.9-11.1.001c-1.6 0-2.9 1.3-2.9 2.9v7.9c0 1.6 1.3 2.9 2.9 2.9h11.1c1.6 0 2.9-1.3 2.9-2.9v-7.9c0-1.6-1.3-2.9-2.9-2.9" fill="#b3b3b3"/><g fill="#fff"><path d="m2.3 4.3v10.2h-2.6v-13.8h2.2l10.4 10.1v-10.1h2 .5v13.8h-2z"/><path d="m28 4.3v10.2h-2.6v-13.8h2.2l10.4 10.1v-10.1h2 .5v13.8h-2z"/><path d="m81.1 4.3v10.2h-2.6v-13.8h2.2l10.4 10.1v-10.1h2 .5v13.8h-2z"/><path d="m20.9.7h.5v13.8h-2.6v-13.8h2.1z"/><path d="m57.9.7h.5v2.4h-6.2v11.4h-2.7v-11.4h-6.2v-2.4h14.5z"/><path d="m74.2.7h.5v2.4h-10.9v3.1h8.5v2.4h-8.5v3.6h10.9v2.4h-13.5v-13.8h13z"/><path d="m107.8 12.1h-7.8v-9h.1 7.8c2.5 0 3.3 2.4 3.3 4.5s-.9 4.5-3.3 4.5m4.2-9.4c-1-1.3-2.5-2-4.3-2h-10.2v13.8h10.2c1.8 0 3.3-.7 4.3-2 .9-1.2 1.4-2.9 1.4-4.9s-.5-3.7-1.4-4.9"/><path d="m130.6 11.6c0 .3-.3.6-.6.6h-10.9c-.3 0-.6-.3-.6-.6v-7.9c0-.3.3-.6.6-.6h10.9c.3 0 .6.3.6.6zm-.5-10.9h-11.1c-1.6 0-2.9 1.3-2.9 2.9v8c0 1.6 1.3 2.9 2.9 2.9h11.1c1.6 0 2.9-1.3 2.9-2.9v-8c0-1.6-1.3-2.9-2.9-2.9"/><path d="m213.1 24.2c2.6 1 8.2 1.9 12.6 1.9 4.8 0 6.8-1.6 6.8-3.7 0-1.8-1.8-2.9-7.1-4.9-7.1-2.6-12.2-4.7-12.2-9.3 0-4.8 6.2-7.6 15.7-7.6 5.1 0 6.8.3 10.1.9v4.6c-3.2-.6-6-1.6-10.4-1.6-4.7 0-6.7 1.5-6.7 3 0 2.2 3.1 3.3 8.5 5.2 7.5 2.7 11.7 4.8 11.7 9.3 0 4.7-5.2 8-17.1 8-4.8 0-8.2-.3-11.9-.9z"/><path d="m188 4.6h-5.6v21.3h5.6c8.6 0 14.1-3.7 14.1-10.6s-5.4-10.7-14.1-10.7m15.1 23.3c-2.8 1.3-8 2.1-12.6 2.1h-17.6v-29.3h17.6c4.6 0 9.9.8 12.7 2.1 6.8 3.1 9 7.9 9 12.6 0 4.6-2.2 9.5-9 12.6"/></g><path d="m160.5 13.9s8.2-1.3 8.2-6.4c0-5-8.7-7-18-7-8.4 0-13.9 1-13.9 1v4.5c3.8-.9 7.4-1.7 12.4-1.7 5.3 0 9.4 1.6 9.4 3.8 0 2.7-4 4.3-12.7 4.3h-4v4.1h3.7c9.1 0 14.3 1.4 14.3 4.7 0 3-4.6 4.8-10.4 4.8-5 0-9.6-1.1-13.4-2.1v4.9c1.8.3 6.6 1.3 15.4 1.3 9.8 0 18.4-3.2 18.4-8.7 0-4.7-5.9-7.4-9.4-7.4" fill="#cf181f"/><g fill="#231f20"><path d="m244.5 25.9h-.9v-.5h2.4v.5h-.9v2.8h-.6z"/><path d="m249.1 27.4c0-.4 0-.9 0-1.4-.1.4-.2.8-.4 1.2l-.5 1.4h-.5l-.4-1.4c-.1-.4-.2-.9-.3-1.3 0 .4 0 .9-.1 1.4l-.1 1.3h-.6l.2-3.2h.8l.4 1.3c.1.4.2.8.3 1.1.1-.4.2-.8.3-1.1l.4-1.3h.8l.2 3.2h-.6l-.1-1.3z"/></g></svg>