<svg height="41.697426mm" viewBox="0 0 148.02879 70.885624" width="87.07576mm" xmlns="http://www.w3.org/2000/svg" xmlns:xlink="http://www.w3.org/1999/xlink"><filter id="a" color-interpolation-filters="sRGB" height="1.401585" width="1.247709" x="-.123854" y="-.200792"><feGaussianBlur result="result6" stdDeviation="5"/><feComposite in="SourceGraphic" in2="result6" operator="atop" result="result8"/><feComposite in="result8" in2="SourceAlpha" operator="over" result="result9"/><feColorMatrix result="result10" values="1 0 0 0 0 0 1 0 0 0 0 0 1 0 0 0 0 0 1 0"/><feBlend in="result10" in2="result6" mode="normal"/></filter><filter id="b" color-interpolation-filters="sRGB" height="1.446197" width="1.107604" x="-.053802" y="-.223098"><feGaussianBlur result="result6" stdDeviation=".82065264"/><feComposite in="SourceGraphic" in2="result6" operator="atop" result="result8"/><feComposite in="result8" in2="SourceAlpha" operator="over" result="result9"/><feColorMatrix result="result10" values="1 0 0 0 0 0 1 0 0 0 0 0 1 0 0 0 0 0 1 0"/><feBlend in="result10" in2="result6" mode="normal"/></filter><filter id="c" color-interpolation-filters="sRGB" height="1.396982" width="1.110435" x="-.055218" y="-.198491"><feGaussianBlur result="result6" stdDeviation=".73013927"/><feComposite in="SourceGraphic" in2="result6" operator="atop" result="result8"/><feComposite in="result8" in2="SourceAlpha" operator="over" result="result9"/><feColorMatrix result="result10" values="1 0 0 0 0 0 1 0 0 0 0 0 1 0 0 0 0 0 1 0"/><feBlend in="result10" in2="result6" mode="normal"/></filter><filter id="d" color-interpolation-filters="sRGB" height="1.492239" width="1.104794" x="-.052397" y="-.24612"><feGaussianBlur result="result6" stdDeviation=".90533475"/><feComposite in="SourceGraphic" in2="result6" operator="atop" result="result8"/><feComposite in="result8" in2="SourceAlpha" operator="over" result="result9"/><feColorMatrix result="result10" values="1 0 0 0 0 0 1 0 0 0 0 0 1 0 0 0 0 0 1 0"/><feBlend in="result10" in2="result6" mode="normal"/></filter><g transform="translate(-17.033486 -37.613167)"><path d="m92.006885 82.302821q0 .04228-.04498.113347-.02879.04498-.09446.12954-.06567.08366-.08186.109749.0027.0009.06747.02159.06567.01979.06567.07197-.02699.0045-.05308.0081l-.0099-.0009v-.0072q-.01439-.0036-.02339-.0036-.01709 0-.05397.0054-.03688.0054-.05577.0054-.02429 0-.03958-.009-.01529-.009-.01529-.03238 0-.01889.06927-.107051.12954-.164624.130439-.166423.07017-.09536.07017-.127741 0-.01259-.009-.01889-.0081-.0063-.03329-.0063-.01709 0-.07107.03329-.02609.01619-.04228.01619l-.01529-.0027q-.0054-.0036-.0117-.01349-.0063-.0108-.0063-.01709 0-.03778.07287-.06927.06207-.02699.10795-.02699.03868 0 .05937.02879.01799.02519.01799.06567zm-.413808 0q0 .04228-.04498.113347-.02879.04498-.09446.12954-.06567.08366-.08186.109749.0027.0009.06747.02159.06567.01979.06567.07197-.02699.0045-.05308.0081l-.0099-.0009v-.0072q-.01439-.0036-.02339-.0036-.01709 0-.05398.0054-.03688.0054-.05577.0054-.02429 0-.03958-.009-.01529-.009-.01529-.03238 0-.01889.06927-.107051.12954-.164624.13044-.166423.07017-.09536.07017-.127741 0-.01259-.009-.01889-.0081-.0063-.03329-.0063-.01709 0-.07107.03329-.02609.01619-.04228.01619l-.01529-.0027q-.0054-.0036-.0117-.01349-.0063-.0108-.0063-.01709 0-.03778.07287-.06927.06207-.02699.10795-.02699.03868 0 .05937.02879.01799.02519.01799.06567zm-.412009.161924q0 .10885-.117846.192511-.10795.07646-.222197.07646-.05667 0-.08996-.02879-.03329-.02879-.03329-.08366 0-.122343.107051-.212302.101653-.08546.227594-.08546.06387 0 .09626.03778.03238.03778.03238.103452zm-.05487.02069q0-.04138-.04678-.06207-.03508-.01529-.08366-.01529-.07107 0-.148432.06927-.07736.06927-.07736.139435 0 .02879.01439.04138.01529.01169.04588.01169.08816 0 .183515-.04858.112448-.05757.112448-.135837zm-.485779-.182614q0 .04228-.04498.113347-.02879.04498-.09446.12954-.06567.08366-.08186.109749.0027.0009.06747.02159.06567.01979.06567.07197-.02699.0045-.05308.0081l-.0099-.0009v-.0072q-.01439-.0036-.02339-.0036-.01709 0-.05398.0054-.03688.0054-.05577.0054-.02429 0-.03958-.009-.01529-.009-.01529-.03238 0-.01889.06927-.107051.12954-.164624.13044-.166423.07017-.09536.07017-.127741 0-.01259-.009-.01889-.0081-.0063-.03328-.0063-.01709 0-.07107.03329-.02609.01619-.04228.01619l-.01529-.0027q-.0054-.0036-.01169-.01349-.0063-.0108-.0063-.01709 0-.03778.07287-.06927.06207-.02699.10795-.02699.03868 0 .05937.02879.01799.02519.01799.06567zm-.738559.293264q0 .04408-.03328.09895-.03778.06207-.07826.06207-.0117 0-.01979-.01259-.0072-.01349-.0072-.02609 0-.01619.03418-.05038.03508-.03508.03508-.04768 0-.0081-.0027-.01619-.0027-.0081-.0036-.0108-.06747.01529-.137636.07736-.06927.06207-.105251.07017-.0072-.01979-.0072-.04048 0-.02519.0117-.05307.0081-.01979.02699-.04768.03149-.04768.06657-.10795.01799-.03148.06207-.10885.04498-.07736.06567-.109749.0108-.01619.01889-.02429.01169-.0108.02789-.01439.0108.0036.01529.01349.0054.0099.0054.02339 0 .03059-.03958.08276-.07197.09356-.07377.09716-.04048.06117-.04048.110648l.0018.009q.04948-.02429.05847-.02789.03688-.01529.06297-.01529.02879 0 .04228.01979.01349.01889.01349.04858zm-.331947-.321152q0 .01979-.04768.08276-.04768.06297-.04768.09625 0 .01709.01979.03418.04498.03958.04498.04858 0 .0117-.0081.02249-.0072.0108-.01889.0108-.0099 0-.02789-.0108-.01259-.0072-.04858-.03508-.01349.02609-.02069.03958-.02519.04768-.03418.06927-.01349.04138-.02699.08276-.02339.05577-.05847.05577l-.0009-.02069q0-.06387.04138-.15113.0081-.01619.04498-.08366-.07107-.03868-.156528-.03868 0-.03328.01349-.04858.01439-.01619.04768-.01619.03059 0 .07646.0108.02249.0054.04498.0108.01709-.0054.04678-.05847.07287-.127741.09895-.146632.0072.01169.0117.02339.0054.01169.0054.02249zm-.358034.161026q0 .03778-.100753.09985-.09716.05937-.141235.05937-.02069 0-.02789-.01439-.0063-.01439-.0063-.04048 0-.01709 0-.02429.06027 0 .109749-.01799.04948-.01799.08636-.05937-.02699-.0099-.05487-.0099-.06567 0-.139436.05038-.08096.05487-.08096.116946 0 .05937.08096.08276.0126.0036.15203.02519.08186.01259.08186.04408 0 .01349-.02969.02159-.02969.009-.07556.009-.115147 0-.181716-.03508-.08816-.04678-.08816-.15023 0-.10795.10795-.171821.09176-.05397.208703-.05397.03508 0 .06387.01619.03508.01979.03508.05218zm-.441696.104351q0 .02879-.01529.06117-.01439.03238-.03688.05397l-.000899-.01259q0-.0108.0027-.03329.0027-.02249.0027-.03328 0-.01529-.0045-.02249-.0045-.0081-.01889-.0081-.04228 0-.105251.06567-.06837.07197-.135837.143034-.0054 0-.0108-.000899-.01349-.0036-.01799-.0045.0027-.03239.02249-.07197.05308-.10705.05487-.114247.0072-.02879.0108-.04228.0036-.01349.0099-.02789.0072-.01529.01619-.02699.0099-.01259.02519-.01889l.009.10795q.03868-.03149.05937-.04858.03958-.03148.06837-.03148.02879 0 .04678.01889.01799.01889.01799.04678zm-.378724.01889q0 .09176-.05308.143933-.05307.05218-.146632.05218-.05128 0-.07916-.02429-.02789-.02429-.02789-.07466 0-.07107.09266-.143034.08816-.06837.162824-.06837.03419 0 .04498.04228.0063.02429.0063.07197zm-.05487.02519q0-.0108-.0027-.02069-.0018-.0108-.0072-.02429-.01439.0099-.04768.04858-.01709.01979-.02969.02879 0-.01709.0036-.02789.0072-.01529.01169-.02609-.03958 0-.08276.03329-.04228.03328-.04228.07197 0 .02609.02879.02609.05487 0 .106151-.02699.06207-.03239.06207-.08276zm-.279776.133136q0 .01619-.01439.02519-.01349.0081-.03059.0081-.01529 0-.03868-.0036-.05307-.0081-.06837-.0081-.02699 0-.106151.0063-.04498.0036-.06477.0036-.05487 0-.05487-.05487 0-.05218.03418-.149331.01889-.05487.07107-.179916.04678-.112448.05937-.158327.0045-.01439.0072-.01889.0072-.0108.01799-.0108.01709 0 .02879.02519.0117.02429.0117.04408 0 .03149-.03688.106151-.03688.07376-.07197.144832-.03868.08456-.03868.128641 0 .02249.01889.03149.01349.0063.03958.0063.01979 0 .06837-.0045.04858-.0054.06477-.0054.04048 0 .06657.01169.03688.01619.03688.05218zm-.781737-.174519q0 .06117-.02969.13044-.03239.07646-.08006.105251-.0099-.0117-.01709-.02609-.0063-.01439-.0063-.02879 0-.01529.04498-.09086.01979-.03328.01799-.05847l-.0009-.0117q-.03328.0099-.115146.06027-.08096.04948-.163724.100753-.01259 0-.02339-.009-.0099-.0099-.0099-.02159 0-.01889.06027-.126842.01799-.03239.06477-.112448.01439.01889.01889.04228.0045.02249.0045.05398 0 .01349 0 .02069.08276-.04948.12954-.07467.05128-.02789.07017-.02789.01259 0 .02339.02879.01169.02879.01169.04588zm-.417407.05308q0 .04408-.03328.09895-.03778.06207-.07826.06207-.0117 0-.01979-.01259-.0072-.01349-.0072-.02609 0-.01619.03418-.05038.03508-.03508.03508-.04768 0-.0081-.0027-.01619-.0027-.0081-.0036-.0108-.06747.01529-.137636.07736-.06927.06207-.105251.07017-.0072-.01979-.0072-.04048 0-.02519.0117-.05307.0081-.01979.02699-.04768.03149-.04768.06657-.10795.01799-.03148.06207-.10885.04498-.07736.06567-.109749.0108-.01619.01889-.02429.0117-.0108.02789-.01439.0108.0036.01529.01349.0054.0099.0054.02339 0 .03059-.03958.08276-.07197.09356-.07377.09716-.04048.06117-.04048.110648l.0018.009q.04948-.02429.05847-.02789.03688-.01529.06297-.01529.02879 0 .04228.01979.01349.01889.01349.04858zm-.370628-.03688q0 .09176-.05308.143933-.05308.05218-.146632.05218-.05128 0-.07916-.02429-.02789-.02429-.02789-.07466 0-.07107.09266-.143034.08816-.06837.162825-.06837.03418 0 .04498.04228.0063.02429.0063.07197zm-.05488.02519q0-.0108-.0027-.02069-.0018-.0108-.0072-.02429-.01439.0099-.04768.04858-.01709.01979-.02969.02879 0-.01709.0036-.02789.0072-.01529.0117-.02609-.03958 0-.08276.03329-.04228.03328-.04228.07197 0 .02609.02879.02609.05488 0 .106151-.02699.06207-.03239.06207-.08276zm-.29146-.116948q0 .10795-.02609.181716-.03868.109749-.124142.109749-.05667 0-.118745-.02609-.07467-.03149-.08186-.07736.02519 0 .05937.009.07916.02069.09895.02069.07646 0 .115147-.07646.03059-.06117.03059-.146632 0-.06027-.03958-.171821-.03868-.112448-.03868-.156527 0-.01349.0072-.02159.0081-.009.02159-.009.03508 0 .06837.161925.02789.136737.02789.202406z" fill="#fff" fill-opacity=".5"/><g stroke-width=".661458"><path d="m100.72401 117.82101v-57.966276h22.07437v5.392211h-16.17663v20.557806h14.15455v5.392212h-14.15455v21.231837h16.17663v5.39221zm-12.248736-.00001-3.845731-17.54676h-15.382922l-3.756296 17.54676h-5.008393l13.325904-59.763215h6.439363l13.325904 59.763215zm-11.268885-52.553409h-.536614l-6.618234 30.663394h13.773082zm-23.302623 52.553409-3.845731-17.54676h-15.382923l-3.756295 17.54676h-5.008393l13.325904-59.763215h6.439363l13.325904 59.763215zm-11.268886-52.553409h-.536613l-6.618235 30.663394h13.773083z" fill="#09f" filter="url(#a)" transform="scale(1.2245123 .81665169)"/><g fill="#fff" fill-opacity=".948461"><g><path d="m53.123498 119.55154-3.790063-17.80449h-15.160252l-3.701922 17.80449h-4.935896l13.133009-60.641011h6.346152l13.133009 60.641011zm-11.105766-53.325308h-.528846l-6.522434 31.113773h13.573714z" transform="scale(1.2424977 .80483046)"/><path d="m87.194577 119.55154-3.790063-17.80449h-15.160252l-3.701922 17.80449h-4.935896l13.133009-60.641011h6.346152l13.133009 60.641011zm-11.105766-53.325308h-.528846l-6.522434 31.113773h13.573714z" transform="scale(1.2424977 .80483046)"/><path d="m100.72401 117.82101v-57.966276h22.07437v5.392211h-16.17663v20.557806h14.15455v5.392212h-14.15455v21.231837h16.17663v5.39221z" transform="scale(1.2245123 .81665169)"/></g><g><path d="m65.715702 106.26427v-6.593408h.456846v.617358q.506236-.6544 1.197679-.666747v.518587q-.728485.0494-1.197679.55562v5.56859zm-3.131787-3.09915h-2.420052v1.80269q0 .91369.913693.91369h.135819q.913693 0 .913693-.91369v-.76553h.456847v.75318q0 1.37054-1.37054 1.37054h-.148166q-1.370539 0-1.370539-1.37054v-3.97579q0-1.370544 1.370539-1.370544h.148166q1.37054 0 1.37054 1.370544zm-2.420052-2.1978v1.7533h1.950858v-1.7533q0-.91369-.913693-.91369h-.123472q-.913693 0-.913693.91369zm-6.465535 5.29695v-8.766515h.456846v2.666995q.716138-.555624 1.271762-.555624h.06174q1.086554 0 1.086554 1.061864v5.59328h-.456847v-5.5192q0-.70379-.740832-.70379h-.03704q-.481541 0-1.185332.50623v5.71676zm-3.61332-6.16126v6.16126h-.469193v-6.16126h-.518583v-.432148h.518583v-1.111248h.469193v1.111248h.864304v.432148zm-5.10735 6.22299h-.259291q-1.358192 0-1.358192-1.35819v-4.00049q0-1.358194 1.358192-1.358194h.259291q1.345845 0 1.345845 1.358194v4.00049q0 1.35819-1.345845 1.35819zm-.01235-6.27237h-.234597q-.901345 0-.901345.90134v4.02519q0 .90134.901345.90134h.234597q.901346 0 .901346-.90134v-4.02519q0-.90134-.901346-.90134zm-7.601475 6.21064v-6.593408h.456847v.493888q.716137-.555624 1.271761-.555624h.06174q1.086554 0 1.086554 1.061864v5.59328h-.456846v-5.5192q0-.70379-.740832-.70379h-.04939q-.469194 0-1.172984.50623v5.71676zm-4.55172-8.680085 1.568094 8.680085h-.456846l-.321028-1.83974h-2.061982l-.30868 1.83974h-.469194l1.555747-8.680085zm-.246944.901346-.938388 5.482159h1.889122z" fill="#09f" fill-opacity="1" filter="url(#b)"/><path d="m32.812113 97.584185 1.568094 8.680085h-.456846l-.321028-1.83974h-2.061982l-.30868 1.83974h-.469194l1.555747-8.680085zm-.246944.901346-.938388 5.482159h1.889122z"/><path d="m37.363833 106.26427v-6.593408h.456847v.493888q.716137-.555624 1.271761-.555624h.06174q1.086554 0 1.086554 1.061864v5.59328h-.456846v-5.5192q0-.70379-.740832-.70379h-.04939q-.469194 0-1.172984.50623v5.71676z"/><path d="m44.977658 106.326h-.259291q-1.358192 0-1.358192-1.35819v-4.00049q0-1.358194 1.358192-1.358194h.259291q1.345845 0 1.345845 1.358194v4.00049q0 1.35819-1.345845 1.35819zm-.01235-6.27237h-.234597q-.901345 0-.901345.90134v4.02519q0 .90134.901345.90134h.234597q.901346 0 .901346-.90134v-4.02519q0-.90134-.901346-.90134z"/><path d="m50.085008 100.10301v6.16126h-.469193v-6.16126h-.518583v-.432148h.518583v-1.111248h.469193v1.111248h.864304v.432148z"/><path d="m53.698328 106.26427v-8.766515h.456846v2.666995q.716138-.555624 1.271762-.555624h.06174q1.086554 0 1.086554 1.061864v5.59328h-.456847v-5.5192q0-.70379-.740832-.70379h-.03704q-.481541 0-1.185332.50623v5.71676z"/><path d="m62.583915 103.16512h-2.420052v1.80269q0 .91369.913693.91369h.135819q.913693 0 .913693-.91369v-.76553h.456847v.75318q0 1.37054-1.37054 1.37054h-.148166q-1.370539 0-1.370539-1.37054v-3.97579q0-1.370544 1.370539-1.370544h.148166q1.37054 0 1.37054 1.370544zm-2.420052-2.1978v1.7533h1.950858v-1.7533q0-.91369-.913693-.91369h-.123472q-.913693 0-.913693.91369z"/><path d="m65.715702 106.26427v-6.593408h.456846v.617358q.506236-.6544 1.197679-.666747v.518587q-.728485.0494-1.197679.55562v5.56859z"/></g><g><path d="m105.02398 103.16512h-2.42005v1.80269q0 .91369.91369.91369h.13582q.91369 0 .91369-.91369v-.76553h.45685v.75318q0 1.37054-1.37054 1.37054h-.14817q-1.37053 0-1.37053-1.37054v-3.97579q0-1.370544 1.37053-1.370544h.14817q1.37054 0 1.37054 1.370544zm-2.42005-2.1978v1.7533h1.95086v-1.7533q0-.91369-.9137-.91369h-.12347q-.91369 0-.91369.91369zm-3.613317-3.469565v8.766515h-.456847v-.49389q-.691443.55562-1.271761.55562h-.06174q-1.111248 0-1.111248-1.0989v-4.51907q0-1.098904 1.111248-1.098904h.06174q.567971 0 1.271761.543274v-2.654645zm-.456847 7.840475v-4.71663q-.70379-.56797-1.148289-.56797h-.06174q-.777874 0-.777874.70379v4.42029q0 .70379.777874.70379h.06174q.469193 0 1.148289-.54327zm-8.379351-.0617v-1.22237q0-.53093.209903-.81492.222249-.28398.765526-.49389l1.358192-.51858v-1.35819q0-.81491-.851957-.81491h-.08643q-.876651 0-.876651.81491v.87665h-.456847v-.8643q0-1.271764 1.333498-1.271764h.09878q1.308804 0 1.308804 1.271764v5.38338h-.469194v-.4692q-.691443.53093-1.247067.53093h-.03704q-1.049512 0-1.049512-1.04951zm1.172984.60501h.03704q.444499 0 1.123595-.46919v-2.75343l-1.172984.4692q-.39511.16051-.543277.35807-.148166.19755-.148166.58032v1.13594q0 .67909.70379.67909zm-4.687539-3.92641v-1.00012q0-.90134-.901346-.90134h-.172861q-.901345 0-.901345.90134v4.02519q0 .90134.901345.90134h.185208q.901346 0 .901346-.90134v-1.19768h.456846v1.18533q0 1.35819-1.345844 1.35819h-.209903q-1.358192 0-1.358192-1.35819v-4.00049q0-1.358194 1.358192-1.358194h.197555q1.345845 0 1.345845 1.345844v1.00012zm-6.749532 4.30918v-6.593408h.456847v.617358q.506235-.6544 1.197678-.666747v.518587q-.728485.0494-1.197678.55562v5.56859zm-4.551721-8.680085 1.568095 8.680085h-.456846l-.321028-1.83974h-2.061982l-.30868 1.83974h-.469194l1.555747-8.680085zm-.246944.901346-.938387 5.482159h1.889122z" fill="#09f" fill-opacity="1" filter="url(#c)"/><path d="m75.338607 97.584185 1.568095 8.680085h-.456846l-.321028-1.83974h-2.061982l-.30868 1.83974h-.469194l1.555747-8.680085zm-.246944.901346-.938387 5.482159h1.889122z"/><path d="m79.890328 106.26427v-6.593408h.456847v.617358q.506235-.6544 1.197678-.666747v.518587q-.728485.0494-1.197678.55562v5.56859z"/><path d="m86.63986 101.95509v-1.00012q0-.90134-.901346-.90134h-.172861q-.901345 0-.901345.90134v4.02519q0 .90134.901345.90134h.185208q.901346 0 .901346-.90134v-1.19768h.456846v1.18533q0 1.35819-1.345844 1.35819h-.209903q-1.358192 0-1.358192-1.35819v-4.00049q0-1.358194 1.358192-1.358194h.197555q1.345845 0 1.345845 1.345844v1.00012z"/><path d="m90.154415 105.27649v-1.22237q0-.53093.209903-.81492.222249-.28398.765526-.49389l1.358192-.51858v-1.35819q0-.81491-.851957-.81491h-.08643q-.876651 0-.876651.81491v.87665h-.456847v-.8643q0-1.271764 1.333498-1.271764h.09878q1.308804 0 1.308804 1.271764v5.38338h-.469194v-.4692q-.691443.53093-1.247067.53093h-.03704q-1.049512 0-1.049512-1.04951zm1.172984.60501h.03704q.444499 0 1.123595-.46919v-2.75343l-1.172984.4692q-.39511.16051-.543277.35807-.148166.19755-.148166.58032v1.13594q0 .67909.70379.67909z"/><path d="m98.990613 97.497755v8.766515h-.456847v-.49389q-.691443.55562-1.271761.55562h-.06174q-1.111248 0-1.111248-1.0989v-4.51907q0-1.098904 1.111248-1.098904h.06174q.567971 0 1.271761.543274v-2.654645zm-.456847 7.840475v-4.71663q-.70379-.56797-1.148289-.56797h-.06174q-.777874 0-.777874.70379v4.42029q0 .70379.777874.70379h.06174q.469193 0 1.148289-.54327z"/><path d="m105.02398 103.16512h-2.42005v1.80269q0 .91369.91369.91369h.13582q.91369 0 .91369-.91369v-.76553h.45685v.75318q0 1.37054-1.37054 1.37054h-.14817q-1.37053 0-1.37053-1.37054v-3.97579q0-1.370544 1.37053-1.370544h.14817q1.37054 0 1.37054 1.370544zm-2.42005-2.1978v1.7533h1.95086v-1.7533q0-.91369-.9137-.91369h-.12347q-.91369 0-.91369.91369z"/></g><g><path d="m151.64327 106.26427v-6.593408h.45685v.617358q.50624-.6544 1.19768-.666747v.518587q-.72849.0494-1.19768.55562v5.56859zm-4.48997.0617h-.2593q-1.35819 0-1.35819-1.35819v-4.00049q0-1.358194 1.35819-1.358194h.2593q1.34584 0 1.34584 1.358194v4.00049q0 1.35819-1.34584 1.35819zm-.0123-6.27237h-.2346q-.90134 0-.90134.90134v4.02519q0 .90134.90134.90134h.2346q.90134 0 .90134-.90134v-4.02519q0-.90134-.90134-.90134zm-5.04565.0494v6.16126h-.4692v-6.16126h-.51858v-.432148h.51858v-1.111248h.4692v1.111248h.8643v.432148zm-6.61372 5.17348v-1.22237q0-.53093.20991-.81492.22225-.28398.76552-.49389l1.3582-.51858v-1.35819q0-.81491-.85196-.81491h-.0864q-.87665 0-.87665.81491v.87665h-.45685v-.8643q0-1.271764 1.3335-1.271764h.0988q1.3088 0 1.3088 1.271764v5.38338h-.46919v-.4692q-.69145.53093-1.24707.53093h-.037q-1.04952 0-1.04952-1.04951zm1.17299.60501h.037q.4445 0 1.1236-.46919v-2.75343l-1.17299.4692q-.39511.16051-.54328.35807-.14816.19755-.14816.58032v1.13594q0 .67909.70379.67909zm-4.78631.38277v-8.766515h.4692v8.766515zm-3.23056-6.593408v6.593408h-.4692v-.49389q-.71613.55562-1.27176.55562h-.0617q-1.08656 0-1.08656-1.04951v-5.605628h.4692v5.519198q0 .70379.74083.70379h.0494q.48154 0 1.16063-.50623v-5.716758zm-11.18216 6.593408v-6.593408h.45685v.493888q.71613-.555624 1.25941-.555624h.037q.75318 0 .95074.567974.71614-.567974 1.3088-.567974h.037q.51858 0 .79022.271638.28399.271636.28399.753176v5.63033h-.46919v-5.5439q0-.67909-.71614-.67909h-.037q-.4692 0-1.11125.48154v.11112 5.63033h-.4692v-5.5439q0-.67909-.67909-.67909h-.037q-.4445 0-1.14829.50623v5.71676zm-5.62592-8.643043h2.48178v.456846h-2.00024v3.555997h1.93851v.45684h-1.93851v3.71651h2.02494v.45685h-2.50648z" fill="#09f" fill-opacity="1" filter="url(#d)"/><path d="m111.82967 97.621227h2.48178v.456846h-2.00024v3.555997h1.93851v.45684h-1.93851v3.71651h2.02494v.45685h-2.50648z"/><path d="m117.45559 106.26427v-6.593408h.45685v.493888q.71613-.555624 1.25941-.555624h.037q.75318 0 .95074.567974.71614-.567974 1.3088-.567974h.037q.51858 0 .79022.271638.28399.271636.28399.753176v5.63033h-.46919v-5.5439q0-.67909-.71614-.67909h-.037q-.4692 0-1.11125.48154v.11112 5.63033h-.4692v-5.5439q0-.67909-.67909-.67909h-.037q-.4445 0-1.14829.50623v5.71676z"/><path d="m128.63775 99.670862v6.593408h-.4692v-.49389q-.71613.55562-1.27176.55562h-.0617q-1.08656 0-1.08656-1.04951v-5.605628h.4692v5.519198q0 .70379.74083.70379h.0494q.48154 0 1.16063-.50623v-5.716758z"/><path d="m131.86831 106.26427v-8.766515h.4692v8.766515z"/><path d="m135.48163 105.27649v-1.22237q0-.53093.20991-.81492.22225-.28398.76552-.49389l1.3582-.51858v-1.35819q0-.81491-.85196-.81491h-.0864q-.87665 0-.87665.81491v.87665h-.45685v-.8643q0-1.271764 1.3335-1.271764h.0988q1.3088 0 1.3088 1.271764v5.38338h-.46919v-.4692q-.69145.53093-1.24707.53093h-.037q-1.04952 0-1.04952-1.04951zm1.17299.60501h.037q.4445 0 1.1236-.46919v-2.75343l-1.17299.4692q-.39511.16051-.54328.35807-.14816.19755-.14816.58032v1.13594q0 .67909.70379.67909z"/><path d="m142.09535 100.10301v6.16126h-.4692v-6.16126h-.51858v-.432148h.51858v-1.111248h.4692v1.111248h.8643v.432148z"/><path d="m147.1533 106.326h-.2593q-1.35819 0-1.35819-1.35819v-4.00049q0-1.358194 1.35819-1.358194h.2593q1.34584 0 1.34584 1.358194v4.00049q0 1.35819-1.34584 1.35819zm-.0123-6.27237h-.2346q-.90134 0-.90134.90134v4.02519q0 .90134.90134.90134h.2346q.90134 0 .90134-.90134v-4.02519q0-.90134-.90134-.90134z"/><path d="m151.64327 106.26427v-6.593408h.45685v.617358q.50624-.6544 1.19768-.666747v.518587q-.72849.0494-1.19768.55562v5.56859z"/></g></g></g></g></svg>