<svg height="300" width="1300.391" xmlns="http://www.w3.org/2000/svg" xmlns:xlink="http://www.w3.org/1999/xlink"><linearGradient id="a" gradientUnits="userSpaceOnUse" x1="57.70973190428" x2="182.14208889734" y1="191.60717272168" y2="40.28136080354"><stop offset="0" stop-color="#bf0000"/><stop offset=".3747088" stop-color="#bf0000"/><stop offset="1" stop-color="#fbe40a"/></linearGradient><linearGradient id="b" gradientUnits="userSpaceOnUse" x1="63.35619588463" x2="768.71345802939" y1="200.97303125838" y2="200.97303125838"><stop offset="0" stop-color="#bf0000"/><stop offset=".24505855" stop-color="#fff20c"/><stop offset=".44498077" stop-color="#0ce500"/><stop offset=".64282119" stop-color="#31e1fd"/><stop offset="1" stop-color="#0019bf"/></linearGradient><g fill-rule="evenodd" transform="matrix(1.7474016 0 0 1.7474016 -42.859864 -63.57199)"><path d="m199.35187 36.380871c-3.50981 5.608317-66.68143 104.662829-94.23119 147.843309h40.61907c5.64945-8.88141 7.25661-11.45155 12.48847-19.6788l41.37594-.31537c.002 6.65858-.001 13.33557 0 19.99417h38.28537c.0152-49.27455-.0369-98.568859-.12615-147.843309zm90.82524 0-31.03195 48.629349-.2523.315365-.18922.315366c-18.50136 28.165819-17.41539 23.455939.31537 52.413729l.25229.44152.25229.44151 29.95972 45.28647h41.12365l-41.88053-63.32538c-.0259-.045-.0373-.0815-.0631-.12614-3.48-6.03514-5.16348-9.4694-.25229-17.97583l42.38511-66.415959h-40.61907zm56.19812 0-31.03195 48.629349-.2523.315365-.18922.315366c-18.50136 28.165819-17.41539 23.455939.31537 52.413729l.25229.44152.25229.44151 29.95972 45.28647h41.06058l-41.81746-63.32538c-.026-.045-.0373-.0815-.0631-.12614-3.48-6.03514-5.16348-9.4694-.25229-17.97583l42.38511-66.415959h-40.61907zm46.10643 0v147.843309h36.89775v-147.843309zm165.62992 0v27.626011h36.96083v-27.626011zm-64.77606 32.987224c-31.63449 0-57.6488 26.014307-57.6488 57.648795 0 29.32782 22.36947 53.79069 50.83691 57.20729h13.56071c5.99094-.72476 11.72544-2.35992 17.02974-4.79355v4.79355h33.87024v-113.846916h-33.87024v4.225897c-7.2703-3.335648-15.31223-5.235066-23.77856-5.235066zm64.77606 2.018338v112.837747h36.96083v-112.837747zm45.60184.252293v112.585454h34.31176v-64.01918c0-8.40341 6.22954-14.63295 14.63296-14.63295 8.40341 0 14.63295 6.22954 14.63295 14.63295v64.01918h37.0239v-63.70381c-.00004-8.4034 6.22955-14.63296 14.63296-14.63296 8.40337.00002 14.63296 6.22954 14.63296 14.63296v63.70381h34.31175v-63.70381c-.00004-26.818598-10.77294-48.18784-49.32315-47.430963-12.08355 0-19.90691 5.365027-27.43679 12.740763-7.53595-8.418592-19.80445-13.430127-38.85302-13.056129-4.36625 0-8.67623.617249-12.80384 1.766047v-2.901362zm-404.2354 27.941377c.0104 6.320207.0542 5.981027.0631 14.506807.004 4.26836-.005 7.5414 0 11.79467l-16.84051.12614c8.07004-12.69248 8.72854-13.76622 16.77744-26.427617zm293.8575 4.099747c13.06969 0 23.33704 10.26735 23.33704 23.33704 0 13.0697-10.26735 23.33705-23.33704 23.33705s-23.33704-10.26735-23.33704-23.33705c0-13.06969 10.26735-23.33704 23.33704-23.33704z"/><path d="m183.74765 40.281391-159.21988 167.782969h744.18569v-14.18261h-696.28593z" fill="url(#a)"/><path d="m63.356167 208.06436h705.357293v-14.18261h-696.28593l-9.071363 14.18261z" fill="url(#b)"/></g></svg>