<?xml version="1.0" encoding="UTF-8" standalone="no"?>
<svg
   xmlns:dc="http://purl.org/dc/elements/1.1/"
   xmlns:cc="http://creativecommons.org/ns#"
   xmlns:rdf="http://www.w3.org/1999/02/22-rdf-syntax-ns#"
   xmlns:svg="http://www.w3.org/2000/svg"
   xmlns="http://www.w3.org/2000/svg"
   xmlns:sodipodi="http://sodipodi.sourceforge.net/DTD/sodipodi-0.dtd"
   xmlns:inkscape="http://www.inkscape.org/namespaces/inkscape"
   version="1.1"
   id="svg2"
   xml:space="preserve"
   width="884.91998"
   height="183.74667"
   viewBox="0 0 884.91998 183.74667"
   sodipodi:docname="Coleco_Adam.eps"><metadata
     id="metadata8"><rdf:RDF><cc:Work
         rdf:about=""><dc:format>image/svg+xml</dc:format><dc:type
           rdf:resource="http://purl.org/dc/dcmitype/StillImage" /></cc:Work></rdf:RDF></metadata><defs
     id="defs6" /><sodipodi:namedview
     pagecolor="#ffffff"
     bordercolor="#666666"
     borderopacity="1"
     objecttolerance="10"
     gridtolerance="10"
     guidetolerance="10"
     inkscape:pageopacity="0"
     inkscape:pageshadow="2"
     inkscape:window-width="640"
     inkscape:window-height="480"
     id="namedview4" /><g
     id="g10"
     inkscape:groupmode="layer"
     inkscape:label="ink_ext_XXXXXX"
     transform="matrix(1.3333333,0,0,-1.3333333,0,183.74667)"><g
       id="g12"
       transform="scale(0.1)"><path
         d="m 5690.52,595.32 -259.71,782.77 h -733.93 c -16.5,0 -29.04,-10.23 -36.63,-26.41 l -134.3,-292.7 c -7.27,-16.5 -3.97,-29.37 12.53,-29.37 h 117.15 c 55.79,0 87.78,-32.34 87.78,-87.79 l 0.66,-917.3981 C 4744.07,10.8906 4754.97,0 4768.51,0 h 347.14 c 13.53,0 24.42,10.8906 24.42,24.4219 V 989.34 c 0,9.25 10.56,16.5 19.47,16.5 l -0.32,-0.32 c 9.23,0 17.48,-6.93 20.46,-16.18 L 5500.11,17.8203 C 5503.41,7.58984 5514.29,0 5525.19,0 h 338.58 c 10.89,0 21.77,7.58984 25.08,17.8203 L 6201.36,989.34 c 2.96,9.25 11.21,16.18 20.46,16.18 l -0.34,0.32 c 8.91,0 19.47,-7.25 19.47,-16.5 V 24.4219 C 6240.95,10.8906 6251.85,0 6265.38,0 h 347.15 c 13.53,0 24.41,10.8906 24.41,24.4219 V 1378.09 H 5950.21 L 5690.52,595.32"
         style="fill:#c7282a;fill-opacity:1;fill-rule:nonzero;stroke:none"
         id="path14" /><path
         d="m 3872.88,997.27 c 2.96,9.23 11.21,16.16 20.46,16.16 l 3.29,0.34 3.3,-0.34 c 9.25,0 17.5,-6.93 20.46,-16.16 l 180.18,-420.434 c 5.94,-13.859 1.32,-22.422 -12.53,-22.422 h -382.81 c -13.85,0 -18.47,8.563 -12.53,22.422 z M 3065.7,0 h 379.5 l 95.03,221.77 h 712.81 L 4348.07,0 h 379.5 C 4741.1,0 4752,10.8906 4752,24.4219 L 4161.94,1378.09 h -740.17 c -16.51,0 -29.06,-10.23 -36.64,-26.41 l -134.31,-292.7 c -7.25,-16.5 -3.96,-29.37 12.54,-29.37 h 93.4 c 55.76,0 87.78,-32.34 87.78,-87.79 L 3041.27,24.4219 C 3041.27,10.8906 3052.16,0 3065.7,0"
         style="fill:#c7282a;fill-opacity:1;fill-rule:nonzero;stroke:none"
         id="path16" /><path
         d="m 2139.05,364.332 c -13.53,0 -24.43,10.879 -24.43,24.418 v 616.43 c 0,13.53 10.9,24.43 24.43,24.43 h 505.56 c 55.44,0 87.78,-32.34 87.78,-87.79 V 452.109 c 0,-55.449 -32.34,-87.777 -87.78,-87.777 z M 2846.91,0 c 154.77,0 265.64,110.891 265.64,265.66 v 846.77 c 0,154.77 -110.87,265.66 -265.64,265.66 h -1174.8 c -16.5,0 -29.04,-10.23 -36.65,-26.41 l -134.3,-292.7 c -7.25,-16.5 -3.96,-29.37 12.54,-29.37 h 117.16 c 55.43,0 87.77,-32.34 87.77,-87.79 V 24.4219 C 1718.63,10.8906 1729.52,0 1743.05,0 h 1103.86"
         style="fill:#c7282a;fill-opacity:1;fill-rule:nonzero;stroke:none"
         id="path18" /><path
         d="m 831.586,997.27 c 2.984,9.23 11.234,16.16 20.465,16.16 l 3.304,0.34 3.305,-0.34 c 9.235,0 17.485,-6.93 20.449,-16.16 L 1059.29,576.836 c 5.94,-13.859 1.32,-22.422 -12.54,-22.422 H 663.949 c -13.859,0 -18.484,8.563 -12.539,22.422 z M 24.4102,0 H 403.91 l 95.039,221.77 H 1211.75 L 1306.79,0 h 379.5 c 13.53,0 24.42,10.8906 24.42,24.4219 L 1120.68,1378.09 H 380.484 c -16.5,0 -29.035,-10.23 -36.629,-26.41 l -134.32,-292.7 c -7.25,-16.5 -3.949,-29.37 12.555,-29.37 h 93.375 c 55.785,0 87.789,-32.34 87.789,-87.79 L 0,24.4219 C 0,10.8906 10.875,0 24.4102,0"
         style="fill:#c7282a;fill-opacity:1;fill-rule:nonzero;stroke:none"
         id="path20" /></g></g></svg>
