<svg height="67.786751mm" viewBox="0 0 500.00001 240.18927" width="141.11111mm" xmlns="http://www.w3.org/2000/svg" xmlns:xlink="http://www.w3.org/1999/xlink"><linearGradient id="a" gradientUnits="userSpaceOnUse" x1="119.7724" x2="421.392" y1="172.48013" y2="172.48013"><stop offset="0" stop-color="#f00"/><stop offset=".26179838" stop-color="#f00"/><stop offset=".35360512" stop-color="#ff7c00"/><stop offset=".62091219" stop-color="#ff7c00"/><stop offset=".75927901" stop-color="#ff0"/><stop offset="1" stop-color="#ff0"/></linearGradient><g transform="matrix(1.3061242 0 0 1.3061242 -97.055856 -914.82881)"><path d="m131.71816 846.34434-18.98387-15.0948h26.76093l14.63854-26.30414v26.30414h41.62786v-130.83467l-121.45333 183.89466h35.452z"/><path d="m155.20976 851.14807 8.07293 24.01346h32.47893v-24.01346z"/><g fill="url(#a)" transform="translate(34.338958 668.57887)"><path d="m421.39199 165.39573v-1.1156l-265.33199-.67866-5.81867 2.48906z"/><path d="m421.39199 169.19467v-1.11614l-274.15733-.70253-5.928 2.53587z"/><path d="m421.39199 172.99053v-1.1156l-282.98399-.72293-6.032 2.58013z"/><path d="m421.39199 176.78947v-1.11614l-291.81226-.74693-6.13707 2.6256z"/><path d="m120.5188 181.3588 300.87319-.77093v-1.11614l-300.63786-.7692-.98173.42027z"/></g><g transform="matrix(.13333333 0 0 -.13333333 34.338958 927.3522)"><path d="m1368.72 1006.3v-263.14h-88.99v456.78h120.19l38.09-210.338 39.9 210.338h111.32v-456.78h-89.78v263.14l-44.63-263.14h-39.91z"/><path d="m1631.64 743.16v456.78h157.51v-66.94h-59.06v-108.68h54.86v-67.734h-54.86v-147.785h59.06v-65.641z"/><path d="m1829.12 743.16v456.78h112.85c49.03 0 80.27-5.44 93.74-16.31 13.48-10.86 20.22-36.84 20.22-77.92v-47.47c0-33.17-3.33-55.35-9.98-66.521-6.66-11.172-36.08-19.785-53.5-25.828 16.86-4.75 46.14-12.567 53.08-23.442 6.93-10.879 10.4-27.75 10.4-50.59v-148.699h-95.35v156.949c0 9.52-1.58 15.942-4.73 19.243-3.15 3.296-12.96 4.949-21.67 4.949h-5.83v-181.141zm131.46 297.93v67.39c0 12.22-1.47 19.7-4.38 22.47-2.93 2.76-8.88 4.15-17.83 4.15h-9.69v-125.94c1.24 0 3.02-.12 5.32-.31 2.29-.2 3.93-.29 4.99-.29 8.33 0 14.03 1.33 17.05 4 3.01 2.66 4.54 7.73 4.54 15.21z"/><path d="m2105.85 743.16h98.4492v456.777h-98.4492z"/><path d="m2246.55 1107.65c0 42.55 6.28 68.97 18.85 79.24s50.2 21.71 100.29 21.71c51.21 0 76.71-11.81 89.09-22.81s18.58-37.06 18.58-78.14v-63.65h-99.23v60.89c0 8.81-1.12 14.78-3.33 17.9-2.23 3.13-11.13 4.69-17.24 4.69-4.63 0-7.88-1.37-9.72-4.13-1.86-2.76-2.79-8.91-2.79-18.46v-266.218c0-8.422 1.06-14.383 3.2-17.852 2.13-3.468 5.79-5.199 10.98-5.199 4.44 0 12.64 1.309 15.15 3.969 2.5 2.648 3.75 6.351 3.75 11.109v106.992h99.23v-101.769c0-42.082-6.39-68.59-19.13-79.524-12.76-10.918-37.73-22.847-87.81-22.847-50.65 0-88.68 12.058-101.15 23.269-12.48 11.2-18.72 37.571-18.72 79.102z"/><path d="m2488.29 743.16 75.38 456.78h119.71l53.5-456.78h-85.01l-10.05 80.531h-50.84l-7.51-80.531zm117.73 163.809h31.15l-15.43 176.341z"/><path d="m2758.28 743.16v456.78h91.8l49.17-187.24v187.24h85.84v-456.78h-79.1l-62.66 223.863v-223.863z"/><path d="m1301.58 389.391v134.25h-15.85l-.01-150.102h108.14v15.852z"/><path d="m1855.32 507.789v15.852h-116.54v-150.102h116.54v15.852h-100.68v52.039h97.09v15.851h-97.09v50.508z"/><path d="m2810.3 507.789v15.852h-116.53v-150.102h116.53v15.852h-100.68v52.039h97.09v15.851h-97.09v50.508z"/><path d="m1991.5 438.762c13.25 3.816 22.75 13.886 22.75 25.777v31.633c0 15.156-15.42 27.469-34.44 27.469h-99.33v-150.102h15.85v58.281h84.4c10.28 0 18.59-13.191 18.59-21.39v-36.891h15.85v39.262c0 12.148-9.96 22.34-23.67 25.961zm-11.69 8.929c-.68 0-55.74.059-83.48 0v60.219c26.84.25 79.31.699 83.48.699 10.27 0 18.59-6.629 18.59-14.82v-26.879c0-8.18-8.32-19.219-18.59-19.219z"/><path d="m1487.49 523.641h-19.01l-70.48-150.102h17.51l14.64 31.18h95.67l14.64-31.18h17.51zm-49.9-103.071 40.4 86.039 40.39-86.039z"/><path d="m2375.19 523.641h-19.02l-70.49-150.102h17.52l14.65 31.18h95.66l14.64-31.18h17.51zm-49.91-103.071 40.4 86.039 40.4-86.039z"/><path d="m1710.43 480.461v15.711c0 15.156-15.42 27.469-34.44 27.469h-66.66c-19.02 0-34.44-12.313-34.44-27.469v-29.102c0-15.172 15.42-27.461 34.44-27.461h66.66c10.27 0 18.59-6.64 18.59-14.828v-20.551c0-8.199-8.32-14.839-18.59-14.839h-66.66c-10.27 0-18.59 6.64-18.59 14.839v16.34h-15.85v-19.57c0-15.16 15.42-27.461 34.44-27.461h66.66c19.02 0 34.44 12.301 34.44 27.461v26.988c0 15.172-15.42 27.461-34.44 27.461h-66.66c-10.27 0-18.59 6.641-18.59 14.832v22.668c0 8.192 8.32 14.84 18.59 14.84h66.66c10.27 0 18.59-6.648 18.59-14.84v-12.488z"/><path d="m2958.58 480.461v15.711c0 15.156-15.42 27.469-34.44 27.469h-66.66c-19.02 0-34.43-12.313-34.43-27.469v-29.102c0-15.172 15.41-27.461 34.43-27.461h66.66c10.28 0 18.59-6.64 18.59-14.828v-20.551c0-8.199-8.31-14.839-18.59-14.839h-66.66c-10.26 0-18.58 6.64-18.58 14.839v16.34h-15.85v-19.57c0-15.16 15.41-27.461 34.43-27.461h66.66c19.02 0 34.44 12.301 34.44 27.461v26.988c0 15.172-15.42 27.461-34.44 27.461h-66.66c-10.26 0-18.58 6.641-18.58 14.832v22.668c0 8.192 8.32 14.84 18.58 14.84h66.66c10.28 0 18.59-6.648 18.59-14.84v-12.488z"/><path d="m2267.68 480.461v15.711c0 15.156-15.42 27.469-34.44 27.469h-77.44c-19.03 0-34.44-12.313-34.44-27.469v-95.172c0-15.16 15.41-27.461 34.44-27.461h77.44c19.02 0 34.44 12.301 34.44 27.461v46.691h-76.97v-15.851h61.12v-27.61c0-8.199-8.32-14.839-18.59-14.839h-77.44c-10.28 0-18.6 6.64-18.6 14.839v88.719c0 8.192 8.32 14.84 18.6 14.84h77.44c10.27 0 18.59-6.648 18.59-14.84v-12.488z"/><path d="m2628.84 523.641-71.35-129.18-71.34 129.18h-24.23v-149.68h15.85v132.078l73.16-132.5h13.12l73.17 132.5v-132.078h15.85v149.68z"/><path d="m3163.93 388.871v-9.23c0-3.59-3.63-6.481-8.12-6.481h-20.99c-4.49 0-8.12 2.891-8.12 6.481v38.757c0 3.582 3.63 6.493 8.12 6.493h20.99c4.49 0 8.12-2.911 8.12-6.493v-5.457h6.93v6.868c0 6.632-6.74 12.011-15.05 12.011h-20.99c-8.32 0-15.05-5.379-15.05-12.011v-41.579c0-6.621 6.73-12 15.05-12h20.99c8.31 0 15.05 5.379 15.05 12v10.641z"/><path d="m3031.42 366.23h6.9297v65.5898h-6.9297z"/><path d="m3101.23 431.82v-59.601l-37.19 59.601h-12.44v-65.59h6.93v61.329l38.28-61.329h11.34v65.59z"/><path d="m2987.82 390.191h-16.87v-20.203h10.03l.56-2.207v-8.98c0-3.242-3.28-5.86-7.35-5.86h-4.29l-4.33-6.281h8.62c7.53 0 13.63 4.86 13.63 10.879z"/></g></g></svg>