<svg height="300pt" preserveAspectRatio="xMidYMid meet" viewBox="0 0 600 300" width="600pt" xmlns="http://www.w3.org/2000/svg"><g transform="matrix(.1 0 0 -.1 0 300)"><path d="m2370 1305v-665h360 360v140 140l-217 2-218 3-3 523-2 522h-140-140z"/><path d="m3185 1958c-3-7-4-305-3-663l3-650 143-3 142-3v175 174l123 4c98 3 131 8 169 25 93 42 172 148 214 289 29 94 25 276-8 376-45 137-130 240-225 272-61 21-551 24-558 4zm453-280c87-58 119-204 68-313-13-27-32-58-42-67-33-29-91-48-144-48h-50v231 231l64-4c47-3 74-11 104-30z"/><path d="m4080 1305v-665h140 140v265 265h125 125v-265-265h145 145v665 665h-145-145v-260-260h-125-125v260 260h-140-140z"/><path d="m5330 1938c-6-18-88-253-181-521l-170-488v-142-142h112 112l111 332c61 183 113 333 116 333s34-87 69-192c35-106 66-198 68-205 4-9-20-13-87-15l-92-3-39-125c-21-69-39-126-39-127 0-2 146-3 325-3 257 0 325 3 325 13 0 13-92 289-213 637-170 488-225 646-232 663-6 14-20 17-90 17h-83z"/><path d="m2840 522c-27-13-37-26-45-55-14-61 6-86 94-119 41-15 78-33 82-40 25-39-11-88-65-88-39 0-86 33-86 61 0 12-7 19-20 19-48 0-2-91 55-110 102-34 189 43 152 133-12 28-25 38-63 52-99 34-114 43-114 68 0 32 30 57 66 57 34 0 74-25 74-46 0-8 9-14 20-14 24 0 25 11 5 49-25 49-95 64-155 33z"/><path d="m3820 522c-44-22-70-67-77-134-14-140 68-232 177-199 42 12 80 57 80 94 0 29-34 19-50-16-28-60-101-62-144-4-17 22-21 43-21 97s4 75 21 97c41 55 112 56 142 3 19-33 21-34 41-21 11 7 10 15-8 44-34 55-98 71-161 39z"/><path d="m4153 524c-55-28-78-77-78-164 0-89 24-138 81-165 156-74 276 165 150 302-39 43-101 54-153 27zm120-48c23-22 47-80 47-116 0-35-23-94-45-116-35-35-88-33-125 4-33 34-45 83-35 149 13 91 99 134 158 79z"/><path d="m195 518c-3-7-30-84-60-170-49-143-53-158-36-158 14 0 24 13 36 50l17 51 66-3 66-3 15-48c12-39 19-47 39-47 19 0 23 4 17 18-4 9-32 86-62 170-45 122-60 152-75 152-10 0-21-6-23-12zm49-116 25-72h-50c-27 0-49 3-49 7 0 12 44 143 47 139 2-1 14-35 27-74z"/><path d="m430 360v-170h95c88 0 95 1 95 20 0 18-7 20-75 20h-75v150c0 143-1 150-20 150s-20-7-20-170z"/><path d="m700 360c0-163 1-170 20-170 18 0 20 7 20 69v69l71 4c63 3 74 7 95 31 43 50 27 137-29 157-16 5-63 10-103 10h-74zm174 114c21-20 20-63-1-86-12-13-31-18-75-18h-58v60 60h59c41 0 65-5 75-16z"/><path d="m1010 360c0-163 1-170 20-170 18 0 20 7 20 80v80h80 80v-80c0-73 2-80 20-80 19 0 20 7 20 170s-1 170-20 170c-18 0-20-7-20-70v-70h-80-80v70c0 63-2 70-20 70-19 0-20-7-20-170z"/><path d="m1435 518c-3-7-30-84-60-170-49-143-53-158-36-158 14 0 24 13 36 50l17 51 66-3 66-3 15-48c12-39 19-47 39-47 19 0 23 4 17 18-4 9-32 86-62 170-45 122-60 152-75 152-10 0-21-6-23-12zm49-116 25-72h-50c-27 0-49 3-49 7 0 12 44 143 47 139 2-1 14-35 27-74z"/><path d="m1790 360v-170h70c39 0 86 6 106 15 99 41 99 269 0 310-20 9-67 15-106 15h-70zm162 119c11-6 26-26 34-44 28-67 10-171-34-194-12-6-43-11-71-11h-51v130 130h51c28 0 59-5 71-11z"/><path d="m2140 360v-170h110c103 0 110 1 110 20s-7 20-95 20h-95v60 60h85c78 0 85 2 85 20s-7 20-85 20h-85v50 50h90c83 0 90 1 90 20s-7 20-105 20h-105z"/><path d="m2450 360c0-162 1-170 20-170 18 0 20 8 22 130l3 131 75-128c57-96 81-129 98-131l22-3v170c0 163-1 171-20 171-18 0-20-8-22-130l-3-131-75 130c-61 106-79 130-97 131-23 0-23 0-23-170z"/><path d="m3100 360c0-163 1-170 20-170 18 0 20 7 20 80v80h80 80v-80c0-73 2-80 20-80 19 0 20 7 20 170s-1 170-20 170c-18 0-20-7-20-70v-70h-80-80v70c0 63-2 70-20 70-19 0-20-7-20-170z"/><path d="m3450 360c0-163 1-170 20-170s20 7 20 170-1 170-20 170-20-7-20-170z"/><path d="m4910 360v-170h95c88 0 95 1 95 20 0 18-7 20-75 20h-75v150c0 143-1 150-20 150s-20-7-20-170z"/><path d="m5120 510c0-17 7-20 50-20h50v-150c0-143 1-150 20-150s20 7 20 150v150h50c43 0 50 3 50 20 0 19-7 20-120 20s-120-1-120-20z"/><path d="m5440 360v-170h70c96 0 135 18 160 72 26 56 26 140 0 196-25 54-64 72-160 72h-70zm162 119c62-33 62-205 0-238-12-6-43-11-71-11h-51v130 130h51c28 0 59-5 71-11z"/><path d="m4460 210c0-13 7-20 20-20s20 7 20 20-7 20-20 20-20-7-20-20z"/><path d="m4610 211c0-11 5-21 11-23 9-3 9-9 0-25-18-35-12-50 9-24 11 13 20 38 20 57 0 27-4 34-20 34-13 0-20-7-20-19z"/><path d="m5780 210c0-13 7-20 20-20s20 7 20 20-7 20-20 20-20-7-20-20z"/><path d="m1178 1775c-621-618-1128-1126-1128-1129s98-6 217-6h218l762 762 763 763v-628-627h-350-350v40 40h310 310v492 493l-665-665-665-665 852-3c468-1 853-1 855 1s2 510 1 1129l-3 1125z"/><path d="m1930 991.93545h-618.0645l618.0645 618.06455z" fill="#ff0004" opacity=".98"/></g></svg>