<svg viewBox="0 0 217.214 111.831" xmlns="http://www.w3.org/2000/svg"><g fill="#1a1a1a" stroke-width=".843321"><path d="m36.772453 9.8965545c4.576885-1.7651725 9.548683-2.1737385 14.41898-2.3338298 1.004765-.06337 1.993324.1334093 2.994678.1550884 2.849678.2734891 5.689974.7020667 8.476535 1.3582739 4.707384 1.07061 9.179358 2.955017 13.429566 5.176282a76.81934 75.096121 0 0 1 6.939534 4.113177c.776177.543643 1.519942 1.133979 2.31062 1.657611 3.086795 2.249616 5.924532 4.811075 8.601063 7.510946.225177.209286.424765.536139.785559.471936 2.746472-.07087 5.509142.297669 8.127672 1.113968 2.41639.785448 4.77051 2.151225 6.1301 4.31746 1.49008 2.302979 1.70845 5.115415 1.77326 7.77026.002 4.660155.002 9.319477 0 13.979632.006.526967-.0486 1.063106.0896 1.580067 1.56429 6.251062 2.03255 12.845653.69174 19.178427-1.07983 5.430594-3.58066 10.624387-7.37796 14.745068-4.01905 4.424188-9.484704 7.504276-15.335031 8.949269-5.143278 1.30324-10.547516 1.43665-15.793961.73292-6.738231-.889678-13.22997-3.15597-19.221886-6.261907-9.70477-5.084563-18.106246-12.452094-24.541691-21.171229-5.447739-7.423396-9.468506-15.945752-11.092506-24.975897-.353971-2.025321-.617531-4.070653-.671266-6.126824a20.303424 19.847975 0 0 1 -.0035-3.575371c.234559-6.58125 2.244943-13.199186 6.26571-18.533893 1.103706-1.209022 2.075208-2.535612 3.293208-3.642909a30.759636 30.069632 0 0 1 9.709976-6.1885255zm9.723536-1.6117517c-5.935621.6712158-11.760361 3.0133832-16.133392 7.0465152-.759118.528634-1.287089 1.286566-1.919119 1.939437-1.827855 2.020318-3.271032 4.348311-4.402886 6.80221-1.279412 2.965856-2.129795 6.115984-2.448795 9.319476-.1885.811296-.0708 1.650107-.208971 2.468906-.225176 5.714924.760824 11.447356 2.588678 16.874615 2.079472 6.175186 5.208915 11.993501 9.0463 17.295688 5.907474 8.079603 13.442361 15.042737 22.164543 20.157318 5.526209 3.230174 11.551389 5.693244 17.862305 6.994819 4.481355.913854 9.115387 1.19985 13.66242.637863 5.397415-.66121 10.674565-2.701538 14.844598-6.152671 3.48341-2.834949 6.14118-6.588754 7.76518-10.717774 1.72721-4.31746 2.3217-9.000128 2.23385-13.612756-.14755-2.267959-.29852-4.550092-.79068-6.776361-.011.933032-.0836 1.859393-.16803 2.787422-.28317 2.687364-1.02779 5.4998-3.01002 7.487599-1.4773 1.570062-3.45613 2.65568-5.57825 3.134286-3.257376.763769-6.628201.528634-9.94785.568657-4.973504-.0033-9.945301.0016-14.918804-.0016-.0145-15.512171-.0094-31.021841-.0035-46.534013 5.305298.0016 10.609742-.0016 15.915039.0016a74.308281 72.641389 0 0 0 -12.657566-10.416768c-8.070534-5.204632-17.361629-8.8867302-27.073222-9.5129203-2.275649-.117567-4.559827-.0683723-6.821828.2084521zm44.123526 28.7221982c-.0035 9.596301 0 19.193436-.0017 28.789737 1.214588.01501 2.430031.01418 3.646325.0033.853795-.06587 1.82956-.170931 2.401884-.872997.708795-.883838.61753-2.069513.634589-3.126782.0034-7.066526.0094-14.133886-.0035-21.200412.02047-.998903-.07676-2.058674-.712207-2.885812-.614971-.471935-1.389441-.680388-2.161354-.697897-1.267471-.02501-2.535796 0-3.80412-.0092z"/><path d="m51.338991 27.288964c1.717825-.101725 3.45015-.299337 5.167974-.08005 2.06412.05503 4.119709.415236 6.089151 1.017245 2.590384.782113 5.086091 2.160398 6.733975 4.308289 1.391147 1.826874 1.887559 4.13819 1.977119 6.371963.0077 2.087857.006 4.176546 0 6.264403-4.356826.01334-8.714506-.01251-13.073038.01334-.121118-1.524201-.02047-3.06091-.05032-4.588447-.03582-.960547.08956-1.997805-.416235-2.8658-.417941-.857154-1.426119-1.261552-2.346443-1.315749-1.031206-.0642-2.159648-.02001-3.019413.610348-.787265.571158-1.109677 1.576731-1.068736 2.506428.0017 7.987051-.0042 15.975769.0017 23.96282-.02048.711238.2465 1.398296.691735 1.954447 1.020119.831306 2.42406.923025 3.688973.767103.755707-.130907 1.575384-.441084 1.967737-1.12981.598765-.926362.460588-2.074515.499824-3.119277-.01109-1.542546.0145-3.085926-.0145-4.626804 4.434443.0092 8.868034.0042 13.300772.0016-.06482 3.181813.229442 6.411986-.485324 9.545439-.568911 2.423046-2.1315 4.612628-4.298825 5.923374-3.142238 1.961118-6.974505 2.458901-10.627654 2.552288-1.096883.135077-2.195472-.04336-3.294914-.04586-3.455296-.200928-7.070064-.703714-10.00333-2.639818a10.09883 9.8722916 0 0 1 -3.805826-4.445032c-.815412-1.822706-.986-3.843023-.969795-5.809977.0017-6.452009 0-12.904019.0017-19.357696.01705-2.026988-.102353-4.074821.284882-6.075962.322412-2.784086 1.915707-5.40558 4.309915-6.957297 2.567354-1.742659 5.695091-2.42805 8.758857-2.741562zm135.535839.621187c1.70418-.0092 3.40751-.0075 5.11169 0 .0154.384386.0154.769605.0128 1.155658-.63203.01668-1.26406.01084-1.89268.0075-.006 1.874402.0111 3.74797-.01 5.622371a49.769148 48.65272 0 0 1 -1.33485.0033c-.0239-1.872734 0-3.744633-.011-5.617367-.63033-.0058-1.25895 0-1.88586-.01418-.004-.386054-.002-.772108.01-1.157327zm7.21163-.0016c.61582-.0033 1.2342-.0033 1.85344-.01251.50153 1.645937.90668 3.31939 1.37068 4.975334.5075-1.642602.8845-3.321893 1.36726-4.972833.60986.0058 1.22142.0075 1.83297.0033.0154 2.266292.006 4.53425.004 6.801376l-1.24615-.0042c-.0341-1.776013.10235-3.554525.0878-5.324701-.47594 1.593408-.89729 3.201825-1.31694 4.811075a3.2155902 3.1434577 0 0 1 -.20556.531969c-.36336-.01667-.725-.01834-1.08494-.0092-.54588-1.788519-.93994-3.622064-1.51568-5.399743.0801 1.796023.10491 3.597049.0946 5.39474a75.627781 73.93129 0 0 0 -1.24359-.0033c-.01-2.264624-.0111-4.52758.002-6.79137zm-81.7519.09089c11.20594.01834 22.41189-.0016 33.61869.0092.002 2.964188.002 5.928377 0 8.8934-3.19085.0058-6.38342.0058-9.57427-.0016-.17144.04169-.56891-.09672-.56294.176768-.005 12.491284.01 24.981734-.004 37.47135-4.46855-.0092-8.93626.0033-13.40312-.0058-.0264-12.537144.0187-25.075954-.0239-37.613098-3.35888-.05503-6.71948-.0075-10.07836-.02501-.0563-2.041997-.006-4.087329-.0222-6.130994.0307-.923859-.0572-1.851888.0495-2.77408zm35.03798.0092c4.36962-.0075 8.74095.0016 13.11057-.0033 1.48668 10.6469 2.98018 21.2938 4.4643 31.9407.16973 1.183174.30024 2.37552.51859 3.55119 1.73573-11.820902 3.34012-23.665151 5.06136-35.490222 4.43444.0016 8.86802-.0075 13.30418.0042-.70879 3.179311-1.27344 6.389473-1.9268 9.579625-2.46756 12.31535-4.86603 24.645708-7.35747 36.956889-6.08915-.0092-12.1783.01251-18.26831-.01084-2.8437-14.981869-5.76418-29.949564-8.63689-44.925597-.0964-.533638-.23626-1.060604-.26953-1.602579zm24.9221 54.743691c1.39457-.774609 3.31027-.697899 4.51121.396892.45463.462764.73524 1.051432.94166 1.65511-.51518.127573-1.0261.273489-1.54554.377715-.14926-.476105-.34117-1.018914-.841-1.238206-.55356-.319348-1.21373-.279326-1.81676-.158423-.94932.43358-1.47559 1.453328-1.48412 2.449729-.0427.9372.11003 2.008644.87853 2.658182.55015.503619 1.38006.605344 2.09056.424408.70282-.242638 1.13953-.888007 1.37409-1.55005.50323.196778.99965.410234 1.50544.602009-.0801.13341-.15523.270155-.22773.406899-.51689 1.207355-1.78606 2.048667-3.12006 2.094527-1.09518.08922-2.23642-.268487-3.016-1.035591-.88963-.909684-1.26662-2.206256-1.21204-3.445295-.0315-1.423312.69003-2.899986 1.96176-3.637906zm-42.82022-.317718a93.90888 91.802305 0 0 1 1.54979.0033c.011 2.749066.006 5.498132.004 8.245531-.51859.0092-1.03547.0075-1.55321.0042-.007-2.750734-.005-5.502301 0-8.253036zm3.47317.0016c.45121-.0016.90242-.0016 1.35533-.01501 1.30756 1.881072 2.45988 3.864702 3.76318 5.748275a6.8414453 6.6879772 0 0 0 -.0444-1.148988c-.0785-1.235704-.0128-2.477245-.12709-3.709614-.0171-.297669.0282-.592837.0649-.886337.46997.01418.94335.01418 1.41589-.005.10406.396892.0649.80796.0691 1.214025 0 2.352173-.005 4.705181.002 7.057354-.45889-.02501-.94335.05669-1.38518-.04169-1.26064-1.856057-2.378-3.806336-3.66253-5.645717.0537 1.892746.0878 3.786325.099 5.680737-.5186.0075-1.03548.0075-1.55322 0-.004-2.749067-.0103-5.498966.004-8.248033zm7.70889.01668c2.07777-.0016 4.15639-.01668 6.23586.0058 0 .474437-.002.949707-.008 1.424145-.77618.0042-1.55151.0033-2.32597.0075-.004 2.26379.004 4.526746-.004 6.792204-.52029.0092-1.03888.0092-1.55747.0033-.0154-2.264624 0-4.528414-.008-6.793037-.77363-.01668-1.5481.0058-2.32172-.01501-.011-.47527-.0128-.950541-.011-1.424979zm7.36856-.01501c1.98651-.0033 3.97557-.01251 5.96378.0033.004.474438.004.953044-.008 1.429148-1.46962-.0058-2.93753.0033-4.40629-.0033-.002.632861 0 1.267388-.004 1.901083 1.35618.02501 2.71491-.0075 4.07109.02001 0 .435248-.002.87133-.01 1.307412-1.35362.0092-2.70553-.0033-4.0566.0075-.002.720411 0 1.442489-.004 2.163733 1.57368.03419 3.14821-.0092 4.72188.03836 0 .457761-.002.918857-.004 1.378285-2.08715.01251-4.17515.0075-6.2623.0016-.0136-2.7499-.0103-5.498133-.003-8.247199zm7.43765.0042c1.07983-.01418 2.16136-.0042 3.2446-.01251.82564-.01251 1.69906.21679 2.29953.797121.82053.880501.9715 2.353841.22176 3.319392-.29256.379382-.73097.608679-1.1455.832974.5783 1.115636 1.27345 2.171237 1.80909 3.308551-.5783.0033-1.15488-.0058-1.73233.0092-.62861-.975556-1.09432-2.040329-1.68797-3.033395a11.108713 10.859521 0 0 0 -1.37835-.04253c-.0111 1.020581-.002 2.039496-.004 3.059243-.54418.01251-1.0858.01251-1.62826.0016.00084-2.746565.004-5.493963.00084-8.239694zm1.62401 1.370782c-.002.854653.01 1.708472-.01 2.563126.73695.05253 1.47474-.05669 2.20401-.155088.86743-.249309 1.1489-1.489182.44353-2.054505-.73438-.596172-1.7673-.320181-2.63815-.353533zm8.09783-1.387458c.55356.0092 1.10797.01584 1.66324-.0058.22346.324351.33179.705401.45717 1.073945.80944 2.408039 1.69309 4.789396 2.49486 7.199102a58.037565 56.73566 0 0 0 -1.63509.0058c-.23883-.512792-.33009-1.073945-.52969-1.599245-1.0457-.0033-2.08884 0-3.13285-.0033-.19361.522798-.33606 1.060604-.50153 1.59174-.56891.0033-1.13782.0058-1.70418-.0092 1.00221-2.73656 1.87648-5.518145 2.88807-8.253035zm-.2576 5.279675c.75742-.0042 1.51654-.0033 2.27566.0016a155.37186 151.88654 0 0 0 -1.10627-3.623731c-.4947 1.16483-.79068 2.413041-1.16939 3.622063zm13.42873-5.257163c2.04791 0 4.09582.0092 6.14459-.0075.0768.481108.0486.968052-.006 1.450827-.76082-.01335-1.51993-.0058-2.27906-.0033.0205 2.263791-.004 4.526746.0128 6.792204-.54076.01334-1.07982.01251-1.61889.0058-.006-2.266291.002-4.532583-.004-6.799707-.74974-.0033-1.49947-.0033-2.2475 0-.004-.47944-.004-.95888-.003-1.43832zm7.39499-.01334c.51519-.0016 1.03292-.0016 1.55151.0016-.002 2.749066.004 5.498132-.004 8.247198a52.387679 51.212512 0 0 1 -1.5532.0033c-.003-2.751568-.0119-5.501468.005-8.252202zm2.63645 0c.52797-.0016 1.05765.0016 1.58732-.0075.70112 2.120374 1.19583 4.311623 1.92509 6.421158.48533-1.719313.97321-3.438626 1.46024-5.157105.13817-.42691.1902-.885505.42732-1.274059.51859.02001 1.03718.01501 1.55918.02418-.81712 2.747399-1.60694 5.502302-2.41894 8.251368-.70283-.0092-1.40395-.0033-2.10336-.0042-.80091-2.753235-1.711-5.48229-2.43685-8.253869zm8.03727-.005c1.97541.01501 3.95339-.0058 5.92879.0075.005.451925.005.902182.0205 1.354105-.39918.125905-.82224.06754-1.23079.07504-1.07472-.0016-2.15027-.0016-3.22412.0033 0 .625356.006 1.25238-.006 1.879404 1.35021.06337 2.70213.0092 4.05403.02918.006.444421.0315.889674-.0222 1.334094-1.33912-.03085-2.67824-.0042-4.01736-.01501-.002.73792-.0469 1.478342.0332 2.215428 1.55321-.05337 3.10727.0092 4.66218-.03085.0264.4686.0256.938869.01 1.409136-2.07776-.0058-4.15639.0033-6.23414-.0033.035-2.754069-.0247-5.505637.0264-8.258039zm-66.94739 9.505416c.7685-.01084 1.53529-.0092 2.30465.0033.53137 1.997805 1.02779 4.010618 1.63337 5.988411.55015-1.994469 1.07556-3.996443 1.60354-5.997583.76423.0033 1.52761-.005 2.29356.0092.002 2.749067 0 5.499801 0 8.248036-.51859 0-1.03462.002-1.54979.003-.01-2.18208.0768-4.360822.12879-6.539563-.64909 2.160398-1.21459 4.346643-1.77498 6.532053-.48105.009-.96041.009-1.43976 0-.5783-2.166232-1.1472-4.334968-1.75876-6.49203-.11515 1.053934.0955 2.105366.0332 3.160967.0768 1.110634.0546 2.223768.0836 3.337743-.51859 0-1.03718 0-1.55577-.003-.0111-2.750741-.0111-5.501475-.002-8.250541zm10.10053.0016c.5348-.0075 1.06704-.0092 1.60182-.0092-.002 1.691797-.01 3.383594-.002 5.075392.0299.476105-.004 1.032254.3915 1.384121.52029.516128 1.33145.536139 2.01635.410234.64909-.109228 1.20862-.691227 1.16598-1.354939-.004-1.834377-.01-3.671258-.004-5.505636a52.947209 51.75949 0 0 1 1.64618-.0016 840.14415 821.29795 0 0 0 -.002 5.363055c.006.760434-.20471 1.56756-.77191 2.116206-.71477.723741-1.78436.989731-2.78657.964721-.97576-.004-2.04193-.29934-2.64581-1.101466-.5186-.522797-.60986-1.289067-.61924-1.98363.009-1.786018-.005-3.571202.009-5.357218zm9.22712-.0058a46.60644 45.560959 0 0 1 1.54383.0092c.004 2.269627.008 4.540921 0 6.813048 1.1037.0033 2.20656.0033 3.31027.0016.008.476105.008.953874 0 1.432476-1.62401.006-3.24715-.01-4.86945.0109.0324-2.755731.00085-5.512301.0154-8.267204zm4.81486.0042c2.06241-.0016 4.12482-.0016 6.18724 0 .002.471936.002.944705.002 1.418309-.76424.01668-1.52592-.01084-2.28845.01251 0 2.077851-.006 4.154867.01 6.233548-.004.200117-.0256.399401-.0649.597837-.51859-.0142-1.03548-.0109-1.55321-.01-.0187-2.277123.0128-4.552586-.0154-6.83055-.75486-.04169-1.51056.01668-2.26371-.01834-.0307-.467767-.007-.936367-.0128-1.404134zm7.80527.0016a66.166099 64.681853 0 0 1 1.59415-.0042c-.004 2.753235.0486 5.511473-.0282 8.263874-.522-.0109-1.044-.01-1.56429-.01-.01-2.750735-.004-5.499801-.002-8.250535zm3.8877-.0058c.76254 0 1.52336-.0033 2.28504.005.48106 1.985298 1.102 3.93641 1.54638 5.930046.22773-.100058.19788-.381051.27806-.571994.45888-1.793521.94762-3.582041 1.42868-5.368891.76083.01251 1.52165 0 2.28418.01084-.002 2.749066 0 5.498133 0 8.247203-.51262.006-1.02524.006-1.53444.0109-.0281-2.186251.0554-4.371662.0972-6.55624-.61412 2.174573-1.22312 4.349979-1.76388 6.54289-.47765.0109-.9553.0125-1.43209.004-.57233-2.163728-1.19924-4.316621-1.72465-6.493695-.15439 2.1654.0913 4.326632.0862 6.493695-.5203.004-1.04059.004-1.55918.004.009-2.752398 0-5.504799.009-8.258035zm10.08007.0016c1.98224-.005 3.96277-.0016 5.94501-.0016.002.461096.006.92386.0282 1.384122-1.4662-.0033-2.93496-.02751-4.39947.01835-.0392.63286-.0256 1.267388-.0187 1.903584 1.35618.04002 2.71918-.05836 4.07281.05087-.01.413568-.011.827971-.006 1.244876-1.35533.0092-2.70979-.0092-4.06342.01084-.0171.729582-.008 1.459999-.011 2.191248 1.57027.0033 3.14054-.0042 4.71081.0016.006.484442.006.968049.004 1.451654-2.0863-.002-4.17174.002-6.25888 0-.0102-2.751562-.006-5.503963-.003-8.255531zm7.743.0092c1.07983-.01418 2.15965 0 3.24119-.01084.98855-.01084 2.01208.2935 2.73026.982226.96383.997235 1.28454 2.448061 1.16341 3.782989-.12452.986395-.47594 2.016148-1.28623 2.665685-.80177.679554-1.91144.826304-2.93326.829644-.97321-.02-1.94728.0259-2.91878-.0292.002-2.739899.007-5.480627.004-8.220522zm1.64107 1.40997c-.004 1.791854.002 3.584543-.002 5.378064.93056-.0075 1.92765.133409 2.79765-.262649.74803-.339361.98259-1.210691 1.01415-1.94861.0597-.920525-.0409-1.972791-.76253-2.644841-.86147-.692061-2.01977-.513626-3.04756-.521964zm7.32932-1.41664a41.970701 41.02921 0 0 1 1.60524.0033c-.006 2.747399-.002 5.493129-.002 8.240534-.5075.0109-1.01585.006-1.51994.0217a1.5787951 1.5433794 0 0 1 -.0878-.439418c.003-2.608991.008-5.21631.004-7.82613zm5.95098-.0058c.58768.0033 1.17536 0 1.76558.0016.94763 2.756571 1.91743 5.505637 2.87186 8.258874a67.251894 65.743292 0 0 0 -1.65982.004c-.20556-.539473-.3335-1.101462-.53565-1.639269-1.03462.0042-2.06838-.02001-3.09958.01834-.19021.536139-.34716 1.083115-.53737 1.620929-.56549-.0109-1.12843-.004-1.69138-.015.98771-2.740733 1.90207-5.508143 2.88636-8.249705zm-.24053 5.257995c.75486-.0016 1.50885.005 2.26456-.0033-.35994-1.219028-.71391-2.441391-1.12247-3.644577-.44694 1.190679-.77874 2.42805-1.14209 3.647912z"/></g></svg>