<svg height="131.06465" viewBox="-64 344.8 600.50537 131.06466" width="600.50537" xmlns="http://www.w3.org/2000/svg"><g fill="#f00" stroke-width=".814115" transform="matrix(1.24586179849 0 0 1.24586174708 15.73515520096 -84.77313060517)"><g><path d="m-11.4 344.8c-29.1 0-52.6 23.6-52.6 52.6 0 29.1 23.6 52.6 52.6 52.6 5.6 0 11-.9 16-2.5v-26.3c-4.4 2.5-9.5 4-14.9 4-16 0-28.9-12.5-28.9-27.8s13-27.8 28.9-27.8c5.5 0 10.6 1.5 14.9 4v-26.3c-5-1.6-10.4-2.5-16-2.5z" fill="#3771c8"/><path d="m26.7 395.7h-21.6v-18.3h39.2z" fill="#3771c8"/><path d="m26.7 399.4h-21.6v18.3h39.2z" fill="#f00"/><g fill="#3771c8"><path d="m110.6 391.1c5 0 9-1.4 12.2-4 3.2-2.7 4.8-6.4 4.9-11.3-.1-4.9-1.7-8.7-4.9-11.4s-7.2-4-12.2-4-9 1.4-12.2 4-4.8 6.5-4.9 11.4c.1 4.9 1.7 8.7 4.9 11.3s7.2 4 12.2 4zm0-7.1c-2.3-.1-4-.9-5.1-2.5s-1.6-3.5-1.5-5.8c0-2.3.5-4.2 1.5-5.8s2.7-2.4 5.1-2.5c2.3.1 4 .9 5.1 2.5s1.6 3.5 1.5 5.8c0 2.2-.5 4.2-1.5 5.8-1.1 1.6-2.8 2.4-5.1 2.5z"/><path d="m131.8 390.4h10.2v-12.4c0-3.1.5-5.5 1.5-7s2.4-2.2 4.2-2.2c1.4 0 2.5.6 3.1 1.7s1 2.5 1 4.2v15.8h10.2v-12.4c0-3.1.5-5.5 1.5-7s2.4-2.2 4.2-2.2c1.4 0 2.5.6 3.1 1.7s1 2.5 1 4.2v15.8h10.2v-17.3c.1-4-.6-7.1-2-9.4-1.4-2.2-4.2-3.4-8.4-3.4-2.1 0-4.1.4-5.9 1.3s-3.3 2.3-4.5 4.3c-.8-1.9-2-3.3-3.6-4.3-1.6-.9-3.5-1.4-5.6-1.4-2.3 0-4.5.5-6.3 1.5-1.9 1-3.3 2.5-4.4 4.6h-.1v-5.4h-9.3z"/><path d="m187.5 390.4h10.2v-12.4c0-3.1.5-5.5 1.5-7s2.4-2.2 4.2-2.2c1.4 0 2.5.6 3.1 1.7s1 2.5 1 4.2v15.8h10.2v-12.4c0-3.1.5-5.5 1.5-7s2.4-2.2 4.2-2.2c1.4 0 2.5.6 3.1 1.7s1 2.5 1 4.2v15.8h10.2v-17.3c.1-4-.6-7.1-2-9.4-1.4-2.2-4.2-3.4-8.4-3.4-2.1 0-4.1.4-5.9 1.3s-3.3 2.3-4.5 4.3c-.8-1.9-2-3.3-3.6-4.3-1.6-.9-3.5-1.4-5.6-1.4-2.3 0-4.5.5-6.3 1.5-1.9 1-3.3 2.5-4.4 4.6h-.1v-5.4h-9.3z"/><path d="m258.8 391.1c5 0 9-1.4 12.2-4 3.2-2.7 4.8-6.4 4.9-11.3-.1-4.9-1.7-8.7-4.9-11.4s-7.2-4-12.2-4-9 1.4-12.2 4-4.8 6.5-4.9 11.4c.1 4.9 1.7 8.7 4.9 11.3s7.3 4 12.2 4zm0-7.1c-2.3-.1-4-.9-5.1-2.5s-1.6-3.5-1.5-5.8c0-2.3.5-4.2 1.5-5.8s2.7-2.4 5.1-2.5c2.3.1 4 .9 5.1 2.5s1.6 3.5 1.5 5.8c0 2.2-.5 4.2-1.5 5.8-1.1 1.6-2.7 2.4-5.1 2.5z"/><path d="m311.7 348.1h-10.2v16.7h-.1c-1.3-1.7-2.8-2.8-4.5-3.5s-3.6-1-5.6-1c-4.1.2-7.2 1.7-9.3 4.7s-3.2 6.4-3.2 10.1c0 4.5 1.2 8.2 3.4 11.2 2.3 3 5.6 4.6 10 4.7 2.4 0 4.5-.6 6.3-1.7s3.1-2.5 3.8-4.2h.1v5.3h9.4zm-22.6 27.3c0-2 .5-3.7 1.6-5.1s2.6-2.1 4.6-2.2c1.9 0 3.4.8 4.5 2.2s1.7 3.2 1.7 5.5c0 2.2-.7 4-1.8 5.4s-2.6 2.1-4.4 2.1c-1.9 0-3.4-.8-4.5-2.2s-1.7-3.3-1.7-5.7z"/><path d="m332.6 391.1c5 0 9-1.4 12.2-4 3.2-2.7 4.8-6.4 4.9-11.3-.1-4.9-1.7-8.7-4.9-11.4s-7.2-4-12.2-4-9 1.4-12.2 4c-3.2 2.7-4.8 6.5-4.9 11.4.1 4.9 1.7 8.7 4.9 11.3s7.3 4 12.2 4zm0-7.1c-2.3-.1-4-.9-5.1-2.5-1-1.6-1.6-3.5-1.5-5.8 0-2.3.5-4.2 1.5-5.8s2.7-2.4 5.1-2.5c2.3.1 4 .9 5.1 2.5 1 1.6 1.6 3.5 1.5 5.8 0 2.2-.5 4.2-1.5 5.8s-2.7 2.4-5.1 2.5z"/><path d="m375.4 360.7c-.5-.1-1.1-.2-1.7-.2-.6-.1-1.2-.1-1.8-.1-2.2 0-4 .6-5.3 1.7-1.4 1.1-2.5 2.6-3.4 4.4h-.1v-5.4h-9.3v29.4h10.2v-12.4c0-2.9.6-5.2 1.9-6.8s3.1-2.4 5.5-2.4h1.7c.6 0 1.1.1 1.7.3z"/><path d="m407.3 378.7v-1.9c.1-4.5-1.1-8.4-3.3-11.5-2.3-3.2-6.1-4.8-11.5-5-4.7 0-8.4 1.4-11.3 4-2.9 2.7-4.4 6.4-4.4 11.3.1 4.9 1.7 8.7 4.9 11.3 3.2 2.7 7.2 4 12.2 4.1 1.9 0 3.8-.1 5.6-.4s3.6-.8 5.2-1.4v-7.2c-1.5.8-3.1 1.4-4.6 1.7-1.5.4-3 .5-4.4.5-2.5 0-4.5-.4-6-1.3s-2.4-2.3-2.7-4.3zm-20.5-5.8c.1-1.7.6-3.2 1.5-4.3.9-1.2 2.3-1.8 4.1-1.8 2 0 3.5.6 4.3 1.8.9 1.2 1.3 2.6 1.3 4.3z"/><path d="m71.8 390.7c-4.4-1.2-7.8-3.2-10.6-6.3s-4.1-5.9-4.9-10.9c-1.5-9.8 2.7-18.8 10.8-22.7 4.1-2 9.6-3 15.1-3 3.4 0 6.4.6 9.2 1.1l-.9 8.8s-.7-.2-2.7-.7c-1.9-.5-3.8-.7-5.7-.7-3.8 0-7.5 1-9.9 2.9-5.7 4.4-5.7 15.9.2 20.7 3.6 3 10.1 4 15.9 2.5l2.7-.7.8 8.9c-1.7.4-5.3 1.1-9.7 1.1-5.8 0-7.6-.2-10.3-1z"/><path d="m49 395.79999h369v3h-369z"/></g><path d="m104.7 443.9c0-.5-.1-.9-.4-1-.3-.2-.6-.3-1.1-.3-1.6-.3-2.5-.9-2.8-1.8-.3-1-.4-2.2-.4-3.7l-1.6-30.8c0-1.1-.1-2-.3-2.8-.2-.7-.9-1.1-2.2-1.2-1.1 0-1.9.4-2.4 1s-1 1.4-1.6 2.2l-19.8 27.8-3.3 4.7c-.7 1-1.4 1.9-2.1 2.8-.8.9-1.8 1.4-3 1.6-.7.1-1.3.2-1.9.4s-.9.7-1 1.5c0 .5.2.8.5.9s.7.2 1.1.2c1.1 0 2.3-.1 3.5-.2s2.3-.2 3.5-.2c1.1 0 2.1.1 3.1.2s2.1.1 3.1.2c.5 0 .9-.1 1.3-.3s.6-.6.6-1.1c-.1-.8-.5-1.2-1.4-1.3s-1.7-.3-2.6-.5-1.3-.8-1.4-1.9c.2-1.1.9-2.7 2.2-4.7s2.2-3.5 2.8-4.3h12.3c.1 1.3.1 2.6.2 3.9s.1 2.6.1 3.9c-.1 1.8-.5 2.9-1.4 3.2s-1.8.5-2.6.5c-.9 0-1.4.6-1.4 1.5 0 .4.1.7.4.9s.6.2 1 .2c1.7 0 3.4-.1 5.1-.2s3.4-.2 5.1-.2c1.1 0 2.3.1 3.4.1 1.1.1 2.3.1 3.4.1.5 0 1-.1 1.3-.2.5-.2.7-.5.7-1.1zm-15.2-15.7h-10.3l9.8-14.3z" fill="#f00"/><path d="m194.1 404.7c0-.4-.1-.6-.4-.8-.2-.2-.5-.3-.9-.3-.6 0-1.1 0-1.6.1-.5 0-1.1.1-1.6.2-1.4.1-2.7.2-4.1.3-1.4 0-2.8 0-4.2 0-1 0-2-.1-3.1-.1-1-.1-2-.1-3.1-.1-.5 0-.9.1-1.3.4s-.6.7-.6 1.2c.2.9.9 1.4 2.1 1.3s1.9.5 2.1 1.6c0 .3 0 .6-.1 1-.1.3-.2.6-.3 1l-7.8 27c-.3 1.3-.6 2.4-1 3.3s-1.2 1.5-2.5 1.8c-.6.1-1.3.2-2.1.4s-1.3.7-1.3 1.4c0 .4.2.7.5.9s.7.3 1.1.3c1.3 0 2.7-.1 4-.2 1.4-.1 2.7-.2 4.1-.2 1.5 0 2.9.1 4.4.2s2.9.1 4.4.2c.6 0 1.3 0 2.1-.1s1.2-.5 1.3-1.3c-.1-.8-.5-1.2-1.2-1.3s-1.5-.2-2.2-.4-1.1-.9-1.2-2.1c0-.5.1-1 .2-1.5s.3-1 .4-1.5l7.8-27.1c.3-1.1.6-1.9 1-2.4s1.2-.9 2.3-1.1c.6-.1 1.2-.2 1.9-.5.5-.5.8-.9.9-1.6z" fill="#f00"/><path d="m234.7 405c-.1-.7-.8-1.1-2-1.4-1.3-.3-2.6-.4-4-.5s-2.3-.1-2.8-.1c-5.2 0-10.6 1.1-16.2 3.1-5.6 2.1-10.4 5.1-14.4 9.1s-6.1 8.9-6.2 14.7c.1 3.7 1.1 6.7 3.2 9.1s4.6 4.2 7.8 5.4c3.1 1.2 6.3 1.8 9.7 1.8 2 0 4-.1 6.1-.4 2-.2 4-.6 6-1.1.7-.1 1.4-.3 1.9-.6.5-.2.9-.7 1.2-1.5.5-1.5 1-3.1 1.5-4.7s.9-3.2 1.3-4.7c.7-2.2 1.6-3.6 2.6-4s1.9-.6 2.7-.6 1.2-.5 1.2-1.5c0-.4-.2-.7-.5-.9s-.7-.3-1-.3c-1.5 0-3.1.1-4.6.2-1.6.1-3.1.2-4.7.2-1.5 0-3-.1-4.4-.2-1.5-.1-3-.2-4.4-.2-.5 0-1 .1-1.4.3-.5.2-.7.6-.7 1.1.1.7.5 1.1 1.2 1.2.8.1 1.5.2 2.3.5.8.2 1.2.9 1.2 2-.1 1.2-.4 2.7-1.1 4.8-.6 2-1.2 3.6-1.6 4.9-.2.9-.6 1.6-1 2s-1.1.6-2.1.6c-3.6-.1-6.4-1.2-8.2-3.5-1.9-2.3-2.8-5.1-2.8-8.6 0-3.2.7-6.4 2-9.4s3.1-5.7 5.3-8c2.2-2.2 5-4.1 8.2-5.7 3.3-1.6 6.5-2.4 9.7-2.5 1.5 0 2.4.3 2.8.9.3.6.5 1.6.4 3 0 .4 0 .7-.1 1.1 0 .4-.1.7-.1 1.1 0 .6.1 1.2.3 1.7s.7.8 1.4.8c.8-.1 1.3-.4 1.7-1.1s.6-1.4.8-2c.2-.5.5-1.5 1-3.1.4-1.6.7-2.6.8-3z" fill="#f00"/><path d="m270.1 443.9c0-.5-.1-.9-.4-1-.3-.2-.6-.3-1.1-.3-1.6-.3-2.5-.9-2.8-1.8-.3-1-.4-2.2-.4-3.7l-1.6-30.8c0-1.1-.1-2-.3-2.8-.2-.7-.9-1.1-2.2-1.2-1.1 0-1.9.4-2.4 1s-1 1.4-1.6 2.2l-19.8 27.8-3.3 4.7c-.7 1-1.4 1.9-2.1 2.8-.8.9-1.8 1.4-3 1.6-.7.1-1.3.2-1.9.4s-.9.7-1 1.5c0 .5.2.8.5.9s.7.2 1.1.2c1.1 0 2.3-.1 3.5-.2s2.3-.2 3.5-.2c1.1 0 2.1.1 3.1.2 1.1.1 2.1.1 3.1.2.5 0 .9-.1 1.3-.3s.6-.6.6-1.1c-.1-.8-.5-1.2-1.4-1.3s-1.7-.3-2.6-.5-1.3-.8-1.4-1.9c.2-1.1.9-2.7 2.2-4.7s2.2-3.5 2.8-4.3h12.4c.1 1.3.1 2.6.2 3.9s.1 2.6.1 3.9c-.1 1.8-.5 2.9-1.4 3.2s-1.8.5-2.6.5c-.9 0-1.4.6-1.4 1.5 0 .4.1.7.4.9s.6.2 1 .2c1.7 0 3.4-.1 5.1-.2s3.4-.2 5.1-.2c1.1 0 2.3.1 3.4.1 1.1.1 2.3.1 3.4.1.5 0 1-.1 1.3-.2.4-.2.6-.5.6-1.1zm-15.3-15.7h-10.3l9.8-14.3z" fill="#f00"/><path d="m167.9 404.9c0-.4-.1-.7-.4-.9-.2-.2-.5-.3-.9-.3-1.3 0-2.6 0-3.9.1s-2.6.1-3.9.1c-.7 0-1.7-.1-3.1-.1s-2.3.1-2.8.5c-.1.1-.2.3-.2.4-.1.2-.2.3-.2.4l-17 25.7-.7-25.3c0-.5 0-.9-.1-1.2-.1-.4-.4-.5-.9-.6-1.4 0-2.9 0-4.3.1-1.4 0-2.9 0-4.3 0-.8 0-1.6-.1-2.4-.1-.8-.1-1.6-.1-2.4-.1-.5 0-1 .1-1.5.2-.5.2-.7.5-.8 1.1.2 1 1 1.5 2.3 1.4 1.4 0 2.1.5 2.3 1.4 0 .7-.2 1.4-.4 2.1-.3.7-.5 1.4-.7 2-1.5 4.2-3 8.3-4.5 12.5s-3 8.3-4.6 12.5c-.6 1.8-1.2 3-1.8 3.7s-1.8 1.2-3.7 1.5c-.5.1-1 .2-1.4.5-.4.2-.6.6-.6 1.2 0 .5.2.8.5 1 .3.1.7.2 1.2.2 1.1 0 2.2 0 3.3-.1s2.2-.1 3.3-.1c1 0 2 .1 3 .2s2 .1 3 .2c.5 0 .9-.1 1.3-.3s.6-.6.7-1.1c-.1-.9-.5-1.3-1.4-1.4s-1.8-.2-2.7-.4-1.4-1-1.4-2.4c.1-1.9.8-4.8 2.1-8.7 1.3-3.8 2.6-7.6 4.1-11.2 1.4-3.6 2.4-6 2.9-7.3l.7 29.4c0 .9.1 1.6.3 2.2.2.5.8.8 1.8.8s1.8-.4 2.4-1.1 1.1-1.4 1.6-2.2l19.8-29.1-6.5 24.6c-.2 1.1-.5 2.1-.9 3.2s-1.2 1.7-2.3 2c-.7 0-1.4.2-2.2.3-.8.2-1.3.7-1.4 1.5 0 .5.2.8.5 1s.7.3 1.1.3c1.4 0 2.9-.1 4.3-.2s2.9-.2 4.3-.2c1.5 0 3 .1 4.4.2 1.5.1 3 .2 4.4.2.6 0 1-.1 1.5-.3.4-.2.7-.6.7-1.2-.1-.7-.4-1.2-1.1-1.3s-1.4-.3-2.1-.5-1.1-.8-1.1-1.9c0-.7.1-1.5.3-2.3s.3-1.5.5-2.2l6.3-25.3c.2-1.1.5-2 .9-2.6s1.1-1 2.3-1.2c.6 0 1.2-.2 1.8-.4.3.1.7-.3.7-1.1z" fill="#f00"/></g><g fill="#f00" stroke-width="1.083326"><path d="m310.71338 405.04901q3.35331-.15968 13.62616-.0532 8.51635 0 13.62616-.42582v-.74518q-9.52767-.69195-26.29423-.69195-1.54359.63872-3.30008.53227-.15969.26613-.15969.42581 0 .47905 1.11777.53228 1.171.0532 1.38391.42581zm28.05072 2.55491.31937-.26614q0-.37259-.15969-.47904-5.6953-.63873-14.53101-.63873-7.07922 0-14.21166 0l-2.76781.42582-.10646.63873 2.18232.47904q7.29212.15968 14.58424.26614 8.51635.0532 14.6907-.42582zm-29.43463 3.08717 24.11192.15969 4.63076-.53228.31936-.26613q-.0532-.53227-.7984-.5855-.90487-.0532-1.06455-.31936-15.16974-.31937-22.62155-.0532-3.77913-.53227-6.75985.5855 0 .5855.42582.74518.10645 0 .95809 0 .5855-.0532.7984.26613zm8.19699 2.50168q.0532-.0532.69195-.15968.47905-.0532.47905-.31936 0-.21291-.10646-.42582-1.54358-.53227-4.15172-.53227-3.40654 0-4.20494-.10646-.31937.21291-1.65005.37259-1.06454.15969-1.3839.74518 1.75649.85164 4.68399.85164 1.22422 0 5.64208-.42582zm1.06454 2.342q-1.33068-.74518-3.77913-.85164-2.07586-.0532-4.15172-.15968-.37259.21291-1.91617.37259-1.22423.15968-1.49037.85164 2.71459.85163 6.01468.85163 2.07586 0 4.52431-.31936.10645-.10646.47904-.15968.42582-.10646.42582-.31937 0-.10645-.10646-.26613zm-8.6228 1.91618q-.26614.2129-1.70327.37259-1.11777.10645-1.01132.7984 2.02264.79841 4.79045.79841 1.43713 0 5.64208-.42582.95809-.10645.95809-.69195 0-.10645-.10645-.26613-1.65005-.53228-4.15172-.5855-2.18232 0-4.41786 0zm21.66346 4.41785q.21291-.15968.5855-.15968.15968 0 .47905.0532.31936.0532.47904.0532.42582 0 .69195-.42581-.31936-.63873-1.54359-.63873-2.23554.0532-2.07586.0532-4.04526-.53227-10.11316-.53227-5.05658 0-10.11316-.0532-.26614.15968-1.65004.37259-1.06455.15968-1.22423.85163.42582.0532 1.80972.42582 1.06455.26614 1.80973.26614 1.9694 0 6.91953.0532 4.36463.10646 6.91953.0532 3.83236-.0532 7.02599-.37259zm1.54359 3.14041 3.99204-.69196q.0532-.15968.15968-.37259.10645-.15968-.21291-.31936-10.48575-.69195-26.34745-.69195l-3.40654.69195q-.10646.63872.74518.85163 1.33068.31937 1.43713.37259zm-13.5197.90486q-7.02599-.37259-11.39062.21291-.37259.26613-.37259.74518 5.85499.90486 13.46648.90486 2.23554 0 17.08592-.5855.31936-.0532.69195-.15968.37259-.10646.21291-.53227-3.40654-.69196-8.09053-.69196-1.49036 0-4.36463.10646-2.87426.0532-4.3114.0532-1.59681 0-2.92749-.0532zm8.14375 3.30008-.15968.47905q4.68399.95809 9.68735.7984.31936-.2129 1.86295-.31936.90486-.0532 1.171-.79841-3.7259-.7984-6.97276-.7984-3.03395 0-5.58886.63872zm13.04066 3.03395q-2.82104-.95809-6.01467-.95809-2.71458 0-5.16303.74518-.26614.53227-.26614.53227 2.07586.74518 4.95013.74518 1.11777 0 6.0679-.42581 0 0 .26613-.15968.26614-.21291.15968-.47905zm-10.00671 2.28877q-.26613.15968-1.75649.15968-1.11777 0-1.171.74518 3.88558.95809 9.47444.42582.15968-.0532 1.80972-.10646 1.11777 0 1.06454-.90486-2.66135-.63872-5.32271-.63872-1.86295 0-4.0985.31936zm-18.73596 2.39522q-1.33068.37259-4.15172.74518.10645.63873 1.06454.90487.79841.2129 1.59682.42581 23.63286 0 25.07 0 .37259-.26613 2.07586-.42581 1.27745-.10646 1.54358-.79841-.95808-.15968-2.71458-.69196zm25.49582 3.67268q-8.19699-.63873-27.89105-.74518-.31936.31936-1.49036.47904-.95809.15968-1.11777.69196 1.171.53227 4.52431.69195 9.90026.37259 22.94092-.26614.47904-.26613 1.65004-.10645 1.01132.15968 1.49036-.21291.10645-.26614-.10645-.53227zm-25.97487 2.02263q-1.22422.15968-3.61944.5855l.0532.63873q4.63077.74518 11.07126.74518 2.71458 0 14.9036-.53228.26614-.53227.26614-.53227-4.36463-.95809-11.28416-.90486-9.63412.10646-11.39062 0z"/><path d="m365.23631 405.15547q.37259-.21291 1.01131-.15968.79841 0 .95809 0 .53227-.10646.63873-.5855-1.7565-.0532-5.42917-.37259-3.67268-.31937-5.69531-.31937-1.59682 0-3.03395.10646-.69195.31936-2.02263.31936h-.95809q-1.65004 0-2.342.47905l.42582.42581q9.04862.53228 10.48575.53228 3.40654 0 5.96145-.42582zm3.67267 2.82104q.26614-.21291 1.01132-.15968.79841 0 1.01131-.0532.47905-.10645.47905-.69195-3.51299-.63873-8.72926-.63873-1.70327 0-5.10981.10645-3.35331.0532-5.00335.0532-1.91618 0-3.45977-.10645-.53227.26613-2.02263.37259-1.43713.10645-2.02263.53227l.31936.42582q4.04527.53227 9.68735.53227-.42582 0 13.83906-.37259zm-25.54904 2.5549q4.95012.74518 13.46647.53227 9.7938-.2129 13.46648.0532.31936-.21291 1.80972-.37259 1.11777-.10645 1.33068-.85163l-3.35331-.63873q-7.71794.10646-23.20705 0-2.23554.47905-3.61945.95809 0 .31936.10646.31936zm11.07125 2.71459v-.63873q-4.79045-1.06454-9.84703-.42581-.31936.26613-1.22422.31936-.90486 0-1.11777.5855 2.39522.74518 5.4824.74518 2.76781 0 6.70662-.5855zm9.7938-.85164q-.26614.10646-.69195.10646-.21291 0-.53227 0-.37259-.0532-.53228-.0532-.5855 0-.85163.47905 2.5549.7984 6.28081.7984 1.3839 0 6.01467-.26613.5855-.21291.47904-.74518-4.20495-.74518-6.54694-.74518-1.96941 0-3.61945.42581zm-11.23093 3.56623q-.10646-.79841-1.43714-.53228-1.11777-.63872-3.24686-.63872-3.51299.0532-3.24685.10645-.37259.15968-1.70327.37259-1.06455.15968-1.38391.74518 2.39522.69196 5.42917.69196 3.14041 0 5.58886-.74518zm13.46647-1.01132q-.31936.31936-1.70327.26613-1.171 0-1.171.79841 2.02264.69196 5.05659.69196 2.71458 0 6.12112-.5855l.15968-.42582q-2.07586-.79841-8.46312-.74518zm-24.43127 3.7259q2.23554.69195 5.00335.69195 1.86295 0 3.67268-.31936.53227 0 1.59681-.10645.5855-.10646.53227-.85164-2.87426-.63872-8.19698-.42582-.31936.21291-1.54359.3726-.90486.10645-1.06454.63872zm21.557-.42582q1.7565 1.06455 4.84368 1.06455 1.22422 0 3.19363-.21291 2.71458-.21291 3.08717-.26614.26614-.53227.26614-.53227l-.26614-.26613q-4.68399-.53228-6.33403-.53228-2.82104 0-4.79045.74518zm-13.14711 3.67268q.26614-.15968 1.59682-.15968 1.01131 0 1.01131-.74518-1.59681-.5855-4.25817-.5855-4.15172 0-4.41786-.0532-.26613.31936-1.54358.53227-1.01132.15968-.85164.85164 5.37595.47904 5.64208.47904 1.54359 0 2.82104-.31936zm13.73261-1.11777q-.15968.0532-.37259.21291-.15968.10645-.0532.31936 2.5549 1.06454 8.56957.5855.26614-.15968.74518-.15968.15968 0 .47905.0532.37259 0 .47904 0 .95809 0 1.01132-.7984-2.76782-.79841-5.80176-.79841-2.55491 0-5.05659.5855zm-11.70998 3.7259q.37259-.26614.37259-.74518-5.00335-.69195-6.38726-.69195-2.92749 0-4.63076 1.11777 2.71459.63872 6.0679.63872 2.34199 0 4.57753-.31936zm22.56833-.90486q-4.57754-.53227-6.44049-.53227-2.76781 0-4.84367.69195v.42582q2.44845.74518 5.64208.74518 3.1404 0 5.85499-.69196.0532-.15968-.10646-.31936-.10645-.21291-.10645-.31936zm-33.00085 3.03395v.42582q5.53562.69195 5.85499.69195 1.43713 0 2.66136-.31936.2129-.21291 1.54358-.15969 1.01132 0 1.06455-.7984-2.50168-.74518-5.32272-.74518-3.1404 0-5.80176.90486zm30.17981.79841q.21291-.10646 1.70327-.21291 1.06454-.0532 1.17099-.74518-1.49036-.69196-4.04526-.79841.85163.0532-4.47108.10645-.26614.15968-1.65005.26614-1.01131.10645-1.11777.85163 4.63077.69196 6.12113.69196 1.22422 0 2.28877-.15968zm-19.21501 2.23554v-.47905q-2.12909-.69195-4.95013-.69195-2.39522 0-5.90822.5855-.26613.53227-.26613.5855 2.18231.69195 5.16303.69195 3.24686 0 5.96145-.69195zm13.25356-1.171q-.26613.21291-1.3839.31936-.90487.15968-1.11777.69196 2.02263.74518 4.8969.74518 1.17099 0 6.01467-.42582.5855-.21291.47904-.74518-1.65004-.5855-4.41785-.53227-3.513.0532-4.47109-.0532zm-15.48911 4.68399q.26614-.21291.95809-.15968.74518 0 .90487-.0532.42581-.10645.42581-.69195-1.65004-.74518-4.25817-.79841-2.23554 0-4.52431 0-.31936.42582-1.27745.5855-.95809.10645-1.06455.5855 2.71459.63872 8.83571.53227zm22.78124-1.33068q-1.96941-.53227-4.20495-.53227-2.82104 0-5.58885.79841l.0532.47904q1.96941.69195 4.73722.69195 1.33068 0 5.64208-.37259.0532-.10645.53227-.15968.31937-.10645.31937-.26613 0-.15968-.0532-.31937-1.06454-.42581-1.43713-.31936zm-19.5876 3.56622q.37259-.47904-.15969-.79841-5.64208-.58549-8.94216-.26613-.21291.10645-1.38391.21291-.85163.0532-.95809.74518 2.18232.69195 5.21627.69195 2.71458 0 6.22758-.5855zm18.78919-.95809q-2.342-.37259-4.73722-.37259-2.76781 0-5.26949.47905-.42582.26613-.10645.74518 2.92749.69195 5.90821.69195 2.60813 0 4.73722-.53227 1.70327-.0532 1.65004-.74518-.31936-.31936-1.01131-.26614-1.06455.0532-1.171 0zm-2.12909 2.39523-7.87762.10645q-1.96941 0-5.64208-.15968-3.88559-.15968-5.53563-.15968-4.8969 0-8.14376.95809.26614.69195 1.06455.69195.10645 0 .37259 0 .31936 0 .47904 0 .63873 0 1.01132.26614.74518 0 13.5197.0532 8.14376.0532 13.46648-.53227l.42582-.26614q-.15969-.74518-.79841-.74518-.21291 0-.69196.10646-.47904.10645-.74518.10645-.5855 0-.90486-.42581zm-2.87427 2.66135q-2.18231.10646-10.96479 0-6.75986-.10645-10.9648.53228-.31937.0532-.69196.10645-.31936.0532-.2129.42582.7984.37259 2.39522.47904 1.80972.15968 2.50168.37259 2.50167-.10645 6.38726 0 5.05658.10646 6.22758.10646 5.53562 0 9.42121-.85164v-.42582q-1.38391-.37259-4.0985-.74518zm-2.5549 2.98073-13.04066.0532q-1.33068.21291-4.04526.79841.42581.5855 1.80972.53227 2.02263-.0532 2.07586-.0532 2.60813.42581 5.85499.42581 1.7565 0 5.00335-.15968 3.513-.15968 5.05659-.15968l.90486-.47904q-.26614-.53228-1.27745-.5855-.79841 0-1.59682 0-.47904-.0532-.74518-.37259z"/><path d="m399.54288 405.15547q.37259-.21291 1.01132-.15968.79841 0 .95809 0 .53227-.10646.63872-.5855-1.75649-.0532-5.42917-.37259-3.67267-.31937-5.69531-.31937-1.59681 0-3.03394.10646-.69196.31936-2.02264.31936h-.95809q-1.65004 0-2.34199.47905l.42581.42581q9.04862.53228 10.48576.53228 3.40654 0 5.96144-.42582zm3.67268 2.82104q.26613-.21291 1.01131-.15968.79841 0 1.01132-.0532.47905-.10645.47905-.69195-3.513-.63873-8.72926-.63873-1.70327 0-5.10981.10645-3.35331.0532-5.00336.0532-1.91617 0-3.45976-.10645-.53227.26613-2.02263.37259-1.43714.10645-2.02264.53227l.31937.42582q4.04526.53227 9.68734.53227-.42582 0 13.83907-.37259zm-25.54905 2.5549q4.95013.74518 13.46648.53227 9.7938-.2129 13.46647.0532.31937-.21291 1.80973-.37259 1.11777-.10645 1.33068-.85163l-3.35331-.63873q-7.71795.10646-23.20705 0-2.23554.47905-3.61945.95809 0 .31936.10645.31936zm11.07126 2.71459v-.63873q-4.79045-1.06454-9.84703-.42581-.31937.26613-1.22423.31936-.90486 0-1.11777.5855 2.39523.74518 5.4824.74518 2.76781 0 6.70663-.5855zm9.7938-.85164q-.26614.10646-.69196.10646-.21291 0-.53227 0-.37259-.0532-.53227-.0532-.5855 0-.85164.47905 2.55491.7984 6.28081.7984 1.38391 0 6.01467-.26613.5855-.21291.47905-.74518-4.20495-.74518-6.54695-.74518-1.9694 0-3.61944.42581zm-11.23094 3.56623q-.10645-.79841-1.43713-.53228-1.11777-.63872-3.24686-.63872-3.51299.0532-3.24686.10645-.37259.15968-1.70327.37259-1.06454.15968-1.3839.74518 2.39522.69196 5.42917.69196 3.1404 0 5.58885-.74518zm13.46648-1.01132q-.31937.31936-1.70327.26613-1.171 0-1.171.79841 2.02263.69196 5.05658.69196 2.71459 0 6.12113-.5855l.15968-.42582q-2.07586-.79841-8.46312-.74518zm-24.43128 3.7259q2.23554.69195 5.00336.69195 1.86295 0 3.67267-.31936.53228 0 1.59682-.10645.5855-.10646.53227-.85164-2.87427-.63872-8.19698-.42582-.31937.21291-1.54359.3726-.90486.10645-1.06455.63872zm21.55701-.42582q1.7565 1.06455 4.84367 1.06455 1.22423 0 3.19363-.21291 2.71459-.21291 3.08718-.26614.26614-.53227.26614-.53227l-.26614-.26613q-4.68399-.53228-6.33403-.53228-2.82104 0-4.79045.74518zm-13.14711 3.67268q.26613-.15968 1.59681-.15968 1.01132 0 1.01132-.74518-1.59682-.5855-4.25818-.5855-4.15171 0-4.41785-.0532-.26614.31936-1.54359.53227-1.01132.15968-.85163.85164 5.37594.47904 5.64208.47904 1.54359 0 2.82104-.31936zm13.73261-1.11777q-.15968.0532-.37259.21291-.15968.10645-.0532.31936 2.55491 1.06454 8.56958.5855.26613-.15968.74518-.15968.15968 0 .47904.0532.37259 0 .47905 0 .95809 0 1.01131-.7984-2.76781-.79841-5.80176-.79841-2.5549 0-5.05658.5855zm-11.70998 3.7259q.37259-.26614.37259-.74518-5.00335-.69195-6.38726-.69195-2.9275 0-4.63077 1.11777 2.71459.63872 6.0679.63872 2.342 0 4.57754-.31936zm22.56832-.90486q-4.57753-.53227-6.44049-.53227-2.76781 0-4.84367.69195v.42582q2.44845.74518 5.64208.74518 3.14041 0 5.85499-.69196.0532-.15968-.10645-.31936-.10646-.21291-.10646-.31936zm-33.00085 3.03395v.42582q5.53563.69195 5.85499.69195 1.43714 0 2.66136-.31936.21291-.21291 1.54359-.15969 1.01132 0 1.06454-.7984-2.50167-.74518-5.32271-.74518-3.14041 0-5.80177.90486zm30.17981.79841q.21291-.10646 1.70327-.21291 1.06455-.0532 1.171-.74518-1.49036-.69196-4.04527-.79841.85164.0532-4.47108.10645-.26613.15968-1.65004.26614-1.01132.10645-1.11777.85163 4.63076.69196 6.12112.69196 1.22423 0 2.28877-.15968zm-19.21501 2.23554v-.47905q-2.12909-.69195-4.95013-.69195-2.39522 0-5.90821.5855-.26614.53227-.26614.5855 2.18232.69195 5.16304.69195 3.24686 0 5.96144-.69195zm13.25357-1.171q-.26614.21291-1.38391.31936-.90486.15968-1.11777.69196 2.02263.74518 4.8969.74518 1.171 0 6.01467-.42582.5855-.21291.47905-.74518-1.65005-.5855-4.41786-.53227-3.51299.0532-4.47108-.0532zm-15.48911 4.68399q.26614-.21291.95809-.15968.74518 0 .90486-.0532.42582-.10645.42582-.69195-1.65004-.74518-4.25818-.79841-2.23554 0-4.52431 0-.31936.42582-1.27745.5855-.95809.10645-1.06454.5855 2.71459.63872 8.83571.53227zm22.78123-1.33068q-1.9694-.53227-4.20494-.53227-2.82105 0-5.58886.79841l.0532.47904q1.9694.69195 4.73722.69195 1.33068 0 5.64208-.37259.0532-.10645.53227-.15968.31936-.10645.31936-.26613 0-.15968-.0532-.31937-1.06455-.42581-1.43714-.31936zm-19.5876 3.56622q.37259-.47904-.15968-.79841-5.64208-.58549-8.94217-.26613-.2129.10645-1.3839.21291-.85164.0532-.95809.74518 2.18231.69195 5.21626.69195 2.71459 0 6.22758-.5855zm18.78919-.95809q-2.34199-.37259-4.73721-.37259-2.76782 0-5.26949.47905-.42582.26613-.10646.74518 2.9275.69195 5.90822.69195 2.60813 0 4.73722-.53227 1.70327-.0532 1.65004-.74518-.31936-.31936-1.01132-.26614-1.06454.0532-1.171 0zm-2.12908 2.39523-7.87762.10645q-1.96941 0-5.64209-.15968-3.88558-.15968-5.53562-.15968-4.8969 0-8.14376.95809.26614.69195 1.06454.69195.10646 0 .37259 0 .31937 0 .47905 0 .63872 0 1.01131.26614.74519 0 13.51971.0532 8.14376.0532 13.46647-.53227l.42582-.26614q-.15968-.74518-.79841-.74518-.21291 0-.69195.10646-.47904.10645-.74518.10645-.5855 0-.90486-.42581zm-2.87427 2.66135q-2.18231.10646-10.9648 0-6.75985-.10645-10.9648.53228-.31936.0532-.69195.10645-.31936.0532-.21291.42582.79841.37259 2.39522.47904 1.80973.15968 2.50168.37259 2.50168-.10645 6.38726 0 5.05658.10646 6.22758.10646 5.53563 0 9.42121-.85164v-.42582q-1.3839-.37259-4.09849-.74518zm-2.5549 2.98073-13.04066.0532q-1.33068.21291-4.04527.79841.42582.5855 1.80973.53227 2.02263-.0532 2.07586-.0532 2.60813.42581 5.85498.42581 1.7565 0 5.00336-.15968 3.51299-.15968 5.05658-.15968l.90486-.47904q-.26613-.53228-1.27745-.5855-.79841 0-1.59681 0-.47905-.0532-.74518-.37259z"/></g></g></svg>