<svg viewBox="0 0 44.384 18.138" xmlns="http://www.w3.org/2000/svg"><path d="m32.501984 14.13866h10.504618v2.465001h-10.504618z" fill="#f9f9f9"/><path d="m29.017471 1.582398h7.737654l-7.208975 15.061115h-7.737654z" fill="#9c2249" stroke-width=".809455"/><path d="m5.13993 5.8752136-1.1135986 6.7516424h1.7314611l.1767616-1.392912.8219418.0063.1398025 1.386598h1.8833153l-1.2903602-6.747611zm1.1931414 1.1656398.2675529 3.0802496h-.545551zm2.8016727-1.14957.016069 6.7413116h1.8110039l-.0065-3.939988.745613 3.939988h1.153771l.727937-3.939988-.0032 3.939988h1.834303v-6.7413116h-2.557323l-.587399 3.0027716-.479668-3.0027716zm11.4396949.052227.0032 1.0479853h.963351v5.6187173h1.996628v-5.618717h1.031645v-1.0479854zm-2.632945.00633c-1.142524-.0023-1.569162-.1119154-1.913847.2106301-.438692.4097818-.260322 1.2517284-.259519 2.2302695.000804.789721 2.530905 1.199502 2.545368 1.676433v1.316582c-.0016.206038-.637145.140612-.635539-.04937v-1.448582h-1.925899l.02731 1.131777c-.04338 1.426199-.02813 1.637405 2.328432 1.632241 1.123241-.0029 1.38276-.01321 1.597283-.103308.140607-.05911.33665-.226127.43387-.370757.163907-.242195.175155-.358701.150248-1.476705l.0072-1.116282c.0025-.286961-.923955-.775947-1.420495-.960175-.568868-.210628-1.185124-.230717-1.197979-.947548-.01123-.5825338-.02091-.688136.334239-.6904315.386467-.00172.278802.1159321.3013 1.2069615h2.020708c-.000756-2.3312845-.124507-2.2365869-2.39268-2.2417522zm7.038327.010899.06106 6.6621106h1.913044l.01204-2.690555c.686155.0079.634734-.161273.590543 2.717529l2.022315.0058c-.07071-2.646373.07875-2.800185-.83801-3.340247.817928-.367851.744812-.593403.762489-1.6947638.01688-1.055485-.03375-1.2024093-.461184-1.4859279-.387268-.25597-.741594-.2129258-4.062305-.1738988zm1.970893 1.0382287c.749631.015496.606615.1486461.606615.8362066 0 .7179793.126144.8689223-.611435.8729403zm8.231471-1.082202s-.129357 6.6303279-.06829 6.7370779v.0017l3.46935.01895c1.275897.0076 1.073425-.608934 1.098333-3.220862.02892-2.9993275-.01607-3.5368778-.952908-3.5368778zm2.522067 3.3939699c.02412 2.189522.05865 2.244044-.519035 2.258965l-.04258-4.5271123c.61947 0 .540729.3529633.561619 2.2681473zm-6.581961-3.4029825-1.113598 6.7522175h1.73146l.176762-1.393488.821941.0063.139803 1.387175h1.883316l-1.290361-6.7481921zm1.193141 1.1662137.267552 3.0802508h-.54555z" stroke-width=".679063"/><g transform="matrix(.00364744 0 0 -.00337671 32.283138 16.806264)"><path d="m60 425v-365h1440 1440v365 365h-1440-1440zm425 200c0-68-1-70-25-70-23 0-25 4-25 43v42h-92-93v-215-215l23-5c12-3 54-5 92-3l70 3-3 43c-3 41-3 42 27 42h31v-70-70h-130c-183 0-170-20-170 272 0 296-10 280 170 276l125-3zm367 58c15-14 18-32 18-128 0-73-4-117-12-128-11-13-34-17-118-19l-105-3-3-97c-3-94-2-97 20-100 17-2 24-11 26-31l3-27h-70c-70 0-71 0-71 26 0 17 6 28 20 31 19 5 20 14 20 219 0 207-1 214-20 214-16 0-20 7-20 30v30h147c122 0 149-3 165-17zm368-58c0-73-1-75-25-75-23 0-25 4-25 45v45h-95-95v-215-215l23-5c12-3 54-5 92-3l70 3 3 42c3 38 6 43 28 43 23 0 24-2 24-70v-70h-127c-104 0-130 3-145 17-16 15-18 36-18 259 0 296-14 274 167 274h123zm1558 33c17-17 17-449 0-466s-1379-17-1396 0-17 449 0 466 1379 17 1396 0z"/><path d="m630 550v-90h95 95v90 90h-95-95z"/><path d="m1464 567c-3-8-4-41-2-73l3-59 170-3c94-1 180 0 193 3 21 5 23 10 20 73l-3 67-188 3c-152 2-188 0-193-11z" fill="#800000"/><path d="m2314 567c-3-8-4-41-2-73l3-59h190 190v70 70l-188 3c-152 2-188 0-193-11z" fill="#000080"/><path d="m1890 505v-65h190 190v65 65h-190-190z" fill="#008000"/><path d="m1467 404c-4-4-7-36-7-71v-63l193 2 192 3v65 65l-186 3c-102 1-188-1-192-4z" fill="#800000"/><path d="m2317 404c-4-4-7-36-7-71v-63h195 196l-3 68-3 67-186 3c-102 1-188-1-192-4z" fill="#000080"/><path d="m1890 335v-65h190 190v65 65h-190-190z" fill="#008000"/></g></svg>