<svg height="200" viewBox="0 0 719.99998 200" width="720" xmlns="http://www.w3.org/2000/svg"><text fill="#f00" font-family="ArialMT" font-size="1.608762" stroke-width=".804381" transform="scale(1.0510851 .95139775)" x="433.42825" y="130.9911">I don’t like bugs!</text><g fill="#040404"><g transform="matrix(.8454729 0 0 .76528625 -24.948602 -6.989285)"><path d="m342.455 152.604c1.287 4.1 2.459 7.377 3.513 9.836s2.75 4.451 5.094 5.972c1.639 1.172 3.132 1.844 4.479 2.02 1.346.176 2.021.791 2.021 1.845 0 1.641-1.229 2.459-3.688 2.459-1.523 0-3.485-.176-5.884-.527-2.401-.351-5.357-.526-8.87-.526-4.918 0-8.87.147-11.856.438-2.985.294-5.065.439-6.235.439-1.992 0-2.985-.702-2.985-2.107 0-1.872 1.169-2.811 3.513-2.811 2.926 0 4.857-.291 5.796-.878.937-.585 1.405-1.696 1.405-3.338 0-1.52-.526-4.154-1.581-7.903l-6.85-22.482c-.236-.936-1.114-1.405-2.635-1.405h-21.779c-.352 0-.733.148-1.142.439-.396.27-.678.677-.791 1.142l-4.215 15.632c-1.757 6.91-2.635 11.417-2.635 13.524 0 1.757.352 2.929 1.054 3.513.702.588 1.872.997 3.513 1.229 2.341.352 4.098.764 5.27 1.229 1.169.47 1.757 1.348 1.757 2.635 0 1.405-.997 2.108-2.986 2.108-1.29 0-3.222-.176-5.796-.527-2.577-.352-5.739-.527-9.485-.527-2.577 0-4.83.148-6.762.439-1.933.291-3.54.439-4.83.439-2.108 0-3.162-.761-3.162-2.283 0-.937.294-1.551.879-1.845.587-.291 1.316-.497 2.195-.614.936-.122 1.873-.24 2.81-.352.994-.115 1.96-.527 2.898-1.229 1.639-1.169 2.868-2.838 3.688-5.006.818-2.165 1.696-4.83 2.635-7.992l27.927-90.631c.467-1.287.849-2.311 1.142-3.074.291-.76.906-1.142 1.845-1.142 1.287 0 2.107.763 2.459 2.283.352 1.523.936 3.514 1.757 5.973zm-36.183-60.948c-.469 0-.82.47-1.054 1.405l-8.255 31.089a5.158 5.158 0 0 0 -.176 1.229v.526c0 .703.409 1.055 1.229 1.055h17.564c.352 0 .702-.146 1.054-.439.352-.291.527-.615.527-.966 0-.233-.118-.818-.352-1.757l-9.484-30.562c-.35-1.052-.701-1.58-1.053-1.58z"/><path d="m375.827 105.884c0 .82.176 1.229.527 1.229s.817-.291 1.405-.879l1.756-2.107c3.044-3.513 6.147-6.06 9.31-7.641 3.161-1.58 6.613-2.371 10.362-2.371 3.864 0 7.553.938 11.065 2.811 3.513 1.874 6.557 4.509 9.134 7.903 2.574 3.398 4.624 7.553 6.147 12.471 1.521 4.918 2.283 10.363 2.283 16.335 0 6.56-.884 12.531-2.646 17.916-1.762 5.387-4.229 10.041-7.401 13.963-3.173 3.925-6.93 6.969-11.277 9.134s-9.166 3.249-14.452 3.249c-5.521 0-10.635-1.348-15.333-4.039l-.705.526-.173 24.941c0 2.107.173 3.688.524 4.742s1.229 1.872 2.635 2.459c1.169.585 2.311.936 3.425 1.054 1.111.115 2.047.233 2.81.352.761.115 1.375.352 1.845.702.467.352.702 1.055.702 2.108 0 1.638-1.229 2.459-3.688 2.459-11.4255-.18029-20.99086-.11411-29.858 0-2.108 0-3.162-.938-3.162-2.811 0-1.642.643-2.459 1.933-2.459 1.287 0 2.81-.352 4.566-1.054 1.521-.588 2.547-1.405 3.073-2.459.527-1.054.791-2.753.791-5.094v-79.391c0-3.161-.412-5.269-1.229-6.323-.821-1.054-1.729-1.726-2.723-2.02-.996-.291-1.904-.467-2.723-.527-.82-.058-4.03025 2.61619-4.03025 1.44419 0-1.405 3.70725-5.71719 5.52425-6.36219 6.60241-4.47626 8.69089-5.9143 14.139-9.923 1.521-1.756 2.75-2.634 3.689-2.634 1.169 0 1.756 1.229 1.756 3.688v8.608zm3.881 63.033c2.47 2.709 5.941 4.062 10.412 4.062 3.411 0 6.529-.823 9.353-2.47 2.824-1.646 5.267-3.974 7.325-6.977 2.059-3.002 3.645-6.592 4.765-10.771 1.116-4.177 1.677-8.738 1.677-13.684 0-10.476-2.207-18.597-6.62-24.365s-9.97-8.653-16.675-8.653c-4.942 0-8.502 1.444-10.679 4.328-2.176 2.885-3.263 7.268-3.263 13.151v32.843c.001 5.65 1.236 9.83 3.705 12.536zm76.036-63.033c0 .82.176 1.229.527 1.229s.817-.291 1.405-.879l1.756-2.107c3.044-3.513 6.147-6.06 9.31-7.641 3.161-1.58 6.613-2.371 10.362-2.371 3.864 0 7.553.938 11.065 2.811 3.513 1.874 6.557 4.509 9.134 7.903 2.574 3.398 4.624 7.553 6.147 12.471 1.521 4.918 2.283 10.363 2.283 16.335 0 6.56-.884 12.531-2.646 17.916-1.762 5.387-4.229 10.041-7.401 13.963-3.173 3.925-6.93 6.969-11.277 9.134s-9.166 3.249-14.452 3.249c-5.521 0-10.635-1.348-15.333-4.039l-.705.526-.173 24.941c0 2.107.173 3.688.524 4.742s1.229 1.872 2.635 2.459c1.169.585 2.311.936 3.425 1.054 1.111.115 2.047.233 2.81.352.761.115 1.375.352 1.845.702.467.352.702 1.055.702 2.108 0 1.638-1.229 2.459-3.688 2.459-10.71252-.24516-19.99455-.0399-29.858 0-2.108 0-3.162-.938-3.162-2.811 0-1.642.643-2.459 1.933-2.459 1.287 0 2.81-.352 4.566-1.054 1.521-.588 2.547-1.405 3.073-2.459.527-1.054.791-2.753.791-5.094v-79.391c0-3.161-.412-5.269-1.229-6.323-.821-1.054-1.729-1.726-2.723-2.02-.996-.291-1.904-.467-2.723-.527-.82-.058-4.03025 1.45565-4.03025.28365 0-1.405 3.70725-4.55665 5.52425-5.20165 5.55194-3.70256 8.16566-6.10772 14.139-9.923 1.521-1.756 2.75-2.634 3.689-2.634 1.169 0 1.756 1.229 1.756 3.688v8.608zm3.881 63.033c2.47 2.709 5.941 4.062 10.412 4.062 3.411 0 6.529-.823 9.353-2.47 2.824-1.646 5.267-3.974 7.325-6.977 2.059-3.002 3.645-6.592 4.765-10.771 1.116-4.177 1.677-8.738 1.677-13.684 0-10.476-2.207-18.597-6.62-24.365s-9.97-8.653-16.675-8.653c-4.942 0-8.502 1.444-10.679 4.328-2.176 2.885-3.263 7.268-3.263 13.151v32.843c.001 5.65 1.236 9.83 3.705 12.536zm75.859-7.706c0 3.864 1.111 6.323 3.338 7.377.936.469 1.871.732 2.81.79.937.061 1.784.148 2.547.264.761.118 1.375.382 1.845.79.466.412.702 1.142.702 2.196 0 1.641-1.172 2.459-3.513 2.459-1.992 0-4.271-.176-6.834-.527-2.563-.352-5.291-.527-8.184-.527-3.008 0-5.708.176-8.096.527-2.391.352-4.405.527-6.043.527-2.108 0-3.162-.937-3.162-2.811 0-1.639.585-2.459 1.757-2.459 1.287 0 2.867-.352 4.742-1.054 1.639-.585 2.635-1.375 2.985-2.371.352-.994.527-2.371.527-4.128v-91.334c0-1.521-.382-2.635-1.142-3.337-.76137-.701127-1.65807-1.239149-2.635-1.581-.89388-.311151-1.77312-.662849-2.635-1.054-.763-.352-1.142-.878-1.142-1.581 0-1.287.791-2.135 2.371-2.547 1.581-.409 3.423-1.023 5.527-1.844 4.051-1.521 7.028-2.956 8.938-4.304 1.91-1.345 3.153-2.02 3.732-2.02.925 0 1.504.293 1.737.878.233.587.352 1.405.352 2.459 0 1.523-.088 3.279-.264 5.27-.176 1.992-.264 4.215-.264 6.674v93.268zm30.563-36.183c-.938 0-1.522.176-1.756.527-.236.351-.352 1.114-.352 2.283v4.215c0 10.891 2.311 19.497 6.938 25.82 4.625 6.322 10.627 9.484 18.004 9.484 3.276 0 6.117-.527 8.519-1.581 2.398-1.054 4.391-2.223 5.972-3.513 1.581-1.287 2.5634-4.64733 3.4404-5.70133s1.9882-2.12808 2.3402-2.12808c.936 0 1.1564 3.38141 1.1564 4.66841 0 1.289-.702 2.985-2.107 5.093s-3.425 4.188-6.06 6.235c-2.635 2.051-5.769 3.837-9.396 5.357-3.631 1.521-7.729 2.283-12.295 2.283-4.803 0-9.164-.966-13.086-2.897-3.924-1.933-7.289-4.713-10.1-8.344-2.81-3.628-4.978-8.019-6.498-13.173-1.523-5.151-2.283-10.947-2.283-17.389 0-6.438.848-12.265 2.547-17.477 1.695-5.209 4.066-9.63 7.113-13.261 3.043-3.628 6.644-6.438 10.802-8.431 4.155-1.99 8.694-2.986 13.612-2.986 4.216 0 8.079.733 11.593 2.195 3.513 1.466 6.498 3.426 8.957 5.885s4.361 5.329 5.709 8.606c1.345 3.279 2.02 6.792 2.02 10.538 0 1.523-.469 2.52-1.405 2.986-.938.469-2.459.702-4.566.702h-38.819zm28.00618-5.82961c3.86054-.12647 4.6523 2.51895 1.32582-9.27639-.78756-2.79259-2.42755-5.81342-4.82655-8.27242-2.401-2.459003-4.25045-3.49458-7.99645-3.49458-4.101 0-7.671 1.581-10.714 4.742-3.047 3.161-5.036 7.144-5.973 11.943l-.526 2.811v.352c0 1.054.702 1.581 2.107 1.581h11.417c5.736 0 8.87453-.0627 15.18618-.38561z"/></g><path d="m621.51097 104.42261c0-1.69052-.16064-2.79559-.48276-3.31675-.32213-.51963-1.19973-.94284-2.63111-1.268076-.69208-.11714-1.39103-.19814-2.09339-.2426-.53917-.0247-1.07669-.0733-1.61063-.1454-.4667-.0635-.82434-.17755-1.0746-.33979-.2511-.16071-.37539-.46912-.37539-.92293 0-.90763.6079-1.36068 1.82538-1.36068.71527 0 1.98686.13086 3.81224.38876 1.82537.2602 4.2764.38877 7.35477.38877 3.436 0 6.04766-.12857 7.83838-.38877 1.78902-.2579 2.93463-.38876 3.436-.38876 1.07459 0 1.61062.42243 1.61062 1.26348 0 .45382-.12597.77754-.37539.97192-.25195.19438-.57407.32524-.96722.38876-.46163.0727-.92748.12168-1.39503.14541-.53772.0337-1.12786.11403-1.77211.24259-1.2885.260196-2.09423.665036-2.41551 1.215276-.32213.55177-.48362 1.66909-.48362 3.35348v14.7731c0 1.49078-.55463 2.86676-1.66389 4.13025-1.1101 1.26349-2.63026 2.33259-4.56301 3.20731s-4.17157 1.5543-6.71052 2.04102c-2.54234.48596-5.24447.72855-8.10724.72855-4.43958 0-8.53674-.77753-12.29402-2.33259-3.75813-1.55506-6.98023-3.70858-9.6646-6.46284-2.68438-2.7535-4.77777-6.04194-6.28187-9.86531-1.5024-3.8226-2.25487-8.00184-2.25487-12.537686 0-4.86033.8404-9.34644 2.52373-13.461385 1.6808-4.114175 3.98979-7.662042 6.92527-10.642832 2.93464-2.979259 6.44166-5.311852 10.52191-6.997777 4.08025-1.684395 8.51814-2.526975 13.31451-2.526975 1.93275 0 3.75813.117854 5.47697.353562 1.71716.235708 3.27452.537231 4.6704.906864 1.39503.370398 2.577.771408 3.54253 1.20303.28956.128988.33765-1.44096.60315-1.424167.49695.03143 1.28895-.156839 1.54071.115003.23348.21134.4236 2.719733.47428 3.302787.29892 3.438765.65722 4.651926.65722 8.662988 0 1.814494-.4667 2.721358-1.39588 2.721358-.78882 0-1.34176-.436979-1.66473-1.311701-.32213-.875487-.76938-1.959133-1.34177-3.256293-2.50683-5.700617-6.9092-8.552839-13.20713-8.552839-3.07921 0-5.92423.728553-8.53674 2.186423-2.6142 1.45787-4.88514 3.532561-6.81789 6.220247-1.93276 2.689981-3.43516 5.928672-4.50976 9.719132-1.07375 3.790465-1.61062 8.018665-1.61062 12.683085 0 4.342236.55378 8.262036 1.66473 11.760166 1.10926 3.49888 2.61251 6.49651 4.50976 8.99058 1.89555 2.49483 4.11576 4.42182 6.65725 5.78327 2.54065 1.35991 5.24278 2.04101 8.10724 2.04101 2.07479 0 3.72093-.26019 4.93925-.78135 1.21579-.51963 2.1475-1.25125 2.79175-2.19408s1.05515-2.06551 1.23524-3.36496c.17755-1.29946.26801-2.73054.26801-4.29096zm22.09116-29.93493c.89451-2.077752 2.16441-3.861634 3.81224-5.354708 1.64529-1.490777 3.63215-2.644064 5.95889-3.455267 2.3259-.811203 4.95617-1.21757 7.89249-1.21757 3.0065 0 5.67228.384173 7.99902 1.15099 1.00747.332812 1.88094.668477 2.54627.970112.16003.07255.2276-.995192.51659-1.137133.50551-.248299 1.26093-.253701 1.49289.0253.57238.648963.54584 6.377269.54584 12.791899 0 1.360679-.46671 2.041018-1.39588 2.041018-.78883 0-1.3071-.436978-1.55736-1.311701-.25111-.875487-.76938-2.153515-1.55652-3.839441-1.14561-2.591259-2.39945-4.567993-3.75812-5.928672-1.36037-1.360679-3.29397-2.041019-5.79826-2.041019-3.22125 0-5.74414.888498-7.56952 2.664727-1.82537 1.776995-2.73764 4.214431-2.73764 7.313841 0 2.585137.80489 4.683549 2.41552 6.297539 1.61062 1.61552 4.13436 3.23027 7.56952 4.844259 2.86277 1.35762 5.40426 2.71371 7.62447 4.0698 2.21768 1.35761 4.09716 2.8591 5.63677 4.506 1.5361 1.64442 2.71973 3.533846 3.49011 5.571276.78714 2.06704 1.18028 4.45704 1.18028 7.16922 0 2.84303-.51996 5.45802-1.55651 7.84877-1.03909 2.38999-2.47048 4.45703-4.29501 6.20112-1.82537 1.74255-4.01007 3.11548-6.54987 4.11647-2.54234 1.001-5.31549 1.50226-8.32199 1.50226-4.72451 0-8.5545-.68034-11.48914-2.04102-2.93632-1.36068-4.40237-3.43307-4.40237-6.22025 0-1.10048.0355-2.17035.10737-3.20731.0702-1.0362.10738-2.00735.10738-2.91574 0-.71248-.0178-1.2788-.0533-1.70123-.0372-.42091-.0533-.69565-.0533-.82575 0-2.00811.53687-3.01369 1.61062-3.01369.49968 0 .859.17907 1.07375.53417.21475.35738.37539.84334.48277 1.45787.10737.61682.23166 1.34537.37623 2.18642.14204.84334.35679 1.7173.64425 2.62416 1.07376 3.30451 2.80782 5.86516 5.20727 7.67812 2.39776 1.8145 4.95616 2.72212 7.67774 2.72212 1.57343 0 3.07668-.29233 4.50975-.87701 1.40837-.56862 2.66999-1.39727 3.70402-2.43285 1.0374-1.03849 1.86089-2.27213 2.46963-3.69939.60789-1.42726.91311-2.98385.91311-4.67284 0-2.98462-1.02049-5.66082-3.06061-8.03015-2.04013-2.36933-5.0999-4.59096-9.18015-6.66795-2.03872-1.044686-4.06101-2.115426-6.06627-3.211896-1.89808-1.0385-3.54337-2.23847-4.94009-3.60221-1.39503-1.36221-2.50599-2.98385-3.32863-4.86722-.82434-1.881069-1.23524-4.250399-1.23524-7.106439-.002-2.530041.44472-4.831257 1.34092-6.909009z" stroke-width=".804381"/><g transform="translate(-4.736762 4.561854)"><path d="m542.726 112.08927c0 1.43491.0228 2.59967.0744 3.49506.049.89691.197 1.63618.44557 2.21703.23161.56732.64528 1.05901 1.18789 1.41196.54279.35892 1.31048.67192 2.30138.94053.89197.26938 1.73152.40254 2.52458.40254.79136 0 1.48549.0467 2.07902.13469.59352.0903 1.06275.29234 1.41109.60535.34495.31453.51912.82957.51912 1.54587 0 1.2566.33258 1.90187-1.74644 1.90187-10.83246.047-20.21248-.0722-29.58763-.02-2.07902 0-3.11811-.71631-3.11811-2.15122 0-.62524.17164-1.07523.51997-1.34384.34495-.26938.79136-.44769 1.33585-.538.61331-.0942 1.2346-.13926 1.85666-.13469.69075 0 1.38488-.088 2.07901-.26861 1.18705-.26939 2.10185-.58239 2.74695-.94054.64256-.35739 1.11348-.82804 1.41109-1.41195.29676-.58162.46839-1.34385.51912-2.28438.049-.94054.0744-2.1275.0744-3.56241v-61.56118c0-2.151219-.17417-3.606028-.51912-4.369019-.34833-.759929-1.26229-1.364505-2.74779-1.814493-.99089-.268616-1.93021-.402541-2.82134-.402541-.79305 0-1.51086-.04439-2.15342-.13469-.64509-.08801-1.1397-.245657-1.48549-.470651-.34749-.221933-.51912-.692584-.51912-1.411188 0-1.254304.74232-1.881839 2.22782-1.881839.79136 0 2.37578.180607 4.75155.537231 2.37663.359684 5.69173.537996 9.95038.537996 4.25526 0 7.5729-.178312 9.94952-.537996 2.37662-.356624 3.9585-.537231 4.7524-.537231 1.48465 0 2.22698.627535 2.22698 1.881839 0 .627534-.14796 1.054564-.44472 1.277262-.29761.224229-.74232.381878-1.33669.469886-.59352.0903-1.28766.157649-2.07902.202036-.79305.04668-1.63345.157649-2.52374.335195-1.88286.359685-2.99635.964261-3.34131 1.815259-.34833.852529-.51996 2.351725-.51996 4.502944z" stroke-width=".804381"/><path d="m574.20634 112.08927c0 1.43491.0228 2.59967.0744 3.49506.049.89691.197 1.63618.44557 2.21703.23161.56732.64528 1.05901 1.18789 1.41196.54279.35892 1.31048.67192 2.30137.94053.89198.26938 1.73153.40254 2.52459.40254.79136 0 1.48549.0467 2.07901.13469.59353.0903 1.06276.29234 1.4111.60535.34495.31453.51912.82957.51912 1.54587 0 1.2566-1.03909 1.88184-3.11811 1.88184-10.04199-.24724-20.06325-.0979-28.21596 0-2.07902 0-2.03405.24491-2.03405-1.19 0-.62524-1.20003-2.41693-.8517-2.68554.34496-.26939 1.07897-.0672 1.62346-.15752.61331-.0942 1.2346-.13925 1.85665-.13469.69076 0 1.38489-.088 2.07902-.26861 1.18705-.26938 2.10185-.58238 2.74694-.94054.64256-.35739 1.11349-.82804 1.4111-1.41195.29676-.58162.46839-1.34384.51912-2.28438.049-.94054.0744-2.1275.0744-3.56241v-61.56115c0-2.151219-.17417-3.606028-.51912-4.369019-.34834-.759929-1.26229-1.364505-2.74779-1.814493-.99089-.268616-1.93021-.402541-2.82134-.402541-.79305 0-1.51086-.04439-2.15342-.13469-.6451-.08801-1.1397-.245657-1.4855-.470651-.34749-.221933-.51912-.692584-.51912-1.411188 0-1.254304.74233-1.881839 2.22782-1.881839.79137 0 2.37578.180607 4.75156.537231 2.37663.359684 5.69173.537996 9.95037.537996 4.25527 0 7.5729-.178312 9.94953-.537996 2.37662-.356624 3.9585-.537231 4.7524-.537231 1.48465 0 2.22698.627535 2.22698 1.881839 0 .627534-.14796 1.054564-.44472 1.277262-.29761.224229-.74233.381878-1.33669.469886-.59353.0903-1.28766.157649-2.07902.202036-.79306.04668-1.63346.157649-2.52374.335195-1.88287.359685-2.99635.964261-3.34131 1.815259-.34833.852529-.51996 2.351725-.51996 4.502944z" stroke-width=".804381"/><g stroke-width=".944209"><path d="m139.77445 41.789976c6.04428-6.183131 9.19403-14.866134 9.62821-26.544961l.0156-.42394-.44494.08477c-21.22782 4.048847-32.19082 16.453397-32.58491 36.868103l-.007.397506.42147-.0611c10.11225-1.476036 17.62628-4.852962 22.97235-10.320408z" fill="#008000"/><path d="m66.719995 146.79463.390166.52332c3.508635 4.71894 7.532612 9.30934 11.958494 13.64901 3.37075 3.30308 8.740296 5.121 15.118026 5.121 4.674267 0 9.520639-1.02475 12.648879-2.67491 6.4716-3.40975 9.90103-3.41705 12.4044-3.42069.50263 0 .97201-.002 1.42379-.0265l.40875-.0246c.54175-.032 1.1011-.0675 1.73183-.0675 2.21978 0 5.53479.40571 11.56147 3.58115 4.20587 1.64561 8.2846 2.47799 12.12278 2.47799h.002c10.44962 0 19.61235-6.09742 28.01038-18.62687l.34324-.51147h-108.124205z" fill="#00f"/><path d="m176.08607 68.613913c1.39739-1.29825 2.90332-2.578276 4.52074-3.83642l.27087-.210598-.22296-.25619c-7.87682-9.058618-18.66283-13.943488-31.19143-14.127653l-.57402-.0022c-6.34937 0-11.96436 1.109534-16.23671 3.208262-5.54067 2.720508-9.66145 3.324051-9.70154 3.329516-.0724.0086-.52611.0255-1.76997.0255-1.50985 0-2.81336-.02281-2.96982-.04378l-.0997-.01183c-1.77684-.214209-6.30539-.908926-9.97636-2.73323-4.98914-2.479852-10.547416-3.791786-16.073409-3.791786l-.36377.0022c-14.611486.152199-26.826177 6.790263-34.415508 18.449037z" fill="#008000"/><path d="m163.83519 87.980184c1.43749-6.482174 5.31868-12.775618 11.64753-18.798283l.59651-.567988h-118.798716l-.104624.16137c-3.640645 5.632462-6.052096 12.147444-7.197197 19.203991z" fill="#ff0"/><path d="m166.61824 107.11122c-2.87302-5.50209-4.2841-11.859346-2.85443-18.728066l.0822-.39842h-113.855588l-.04502.28263c-.963216 6.11839-.963216 12.451946-.07238 18.842946h116.745158z" fill="#f60"/><path d="m55.465572 127.18132h130.114728l.76177-1.53622-.31292-.14405c-6.22714-2.87457-14.57529-9.16711-19.3278-18.20384l-.0988-.1869h-116.733388l.05375.37744c.794039 5.53674 2.417326 12.26232 5.542629 19.69357z" fill="#f00"/><path d="m66.721943 146.79463h108.110487c4.12762-6.23691 7.53065-13.1038 10.52003-19.13832l.23469-.47409h-130.101047l.196562.45768c2.843668 6.62256 6.537126 13.02176 11.039278 19.15473z" fill="#800080"/></g></g></g></svg>