<svg enable-background="new 0 0 566.929 104.51" height="104.51" viewBox="0 0 566.929 104.51" width="566.929" xmlns="http://www.w3.org/2000/svg"><path d="m566.929 84.51c0 11-9 20-20 20h-526.929c-11 0-20-9-20-20v-64.51c0-11 9-20 20-20h526.929c11 0 20 9 20 20z"/><path d="m432.612 68.958-48.482 17.581h48.791l18.554-10.243z" fill="#f00"/><path d="m387.336 18.221h57.596l76.685 38.876h-30.072l-21.144-9.72-13.036 5.304z" fill="#f00"/><g fill="#fc0"><path d="m494.603 36.031 48.488-17.573h-48.789l-18.553 10.235z"/><path d="m539.886 86.768h-57.595l-76.686-38.876h30.071l21.146 9.721 13.035-5.305z"/><path d="m23.837 17.749h38.175v46.65h-38.175z"/><path d="m23.837 70.11h97.824v14.281h-97.824z"/><path d="m85.87 17.749h45.34l31.017 26.177-22.42 16.449z"/><path d="m143.136 62.967v21.425h35.791v-21.425l69.198-45.218h-33.407l-69.192 45.218z"/><path d="m252.899 24.885 38.175 23.801v35.706h-38.175z"/><path d="m257.667 17.749 97.831 66.643h21.474v-66.65h-18.611v46.871l-69.671-46.864z"/></g></svg>