<svg height="264.854" width="1000.999" xmlns="http://www.w3.org/2000/svg"><g transform="matrix(2.2325588 0 0 2.2325588 -482.46259 -1404.42056)"><g fill="#3163b7"><path d="m0 0h-2.861v-14.055h6.69v3.015h-3.829z" transform="matrix(8.3973198 0 0 -8.3973198 447.13171 629.60498)"/><path d="m0 0h-2.752v-9.031c.033-2.544 2.698-6.243 6.812-4.644v3.389c-1.225-1.443-4.114-1.006-4.06 1.85z" transform="matrix(8.3973198 0 0 -8.3973198 507.57817 629.60498)"/><path d="m545.3258 747.62595h24.24306v-118.02433h-24.24306z"/><path d="m0 0h-3.391l-1.284-2.193c-.939-1.162-.911-5.993 3.986-6.087h1.628c1.915-.408 1.571-2.855-.342-2.76h-5.931v-3.015h5.96c5.837.191 6.116 8.598.221 8.598l-1.662.045c-1.318.096-1.601 1.319-1.145 2.057z" transform="matrix(8.3973198 0 0 -8.3973198 620.74462 629.60498)"/><path d="m0 0-1.712-2.883h4.628l1.694 2.883z" transform="matrix(8.3973198 0 0 -8.3973198 625.75533 629.60498)"/><path d="m0 0-9.148-14.119h3.264l3.562 5.495h2.322z" transform="matrix(8.3973198 0 0 -8.3973198 292.92165 629.06331)"/><path d="m319.79898 629.60162h-23.13461v118.03272h23.13461z"/></g><g fill="#ed1c24"><path d="m0 0v2.87h-3.334l-3.364-3.449v-10.606h3.01v11.186z" transform="matrix(8.3973198 0 0 -8.3973198 416.61 653.70609)"/><path d="m0 0 2.823 2.869h-6.774v-2.87z" transform="matrix(8.3973198 0 0 -8.3973198 359.41082 653.69769)"/></g></g></svg>