<svg height="44.528419mm" viewBox="0 0 542.91454 106.8682" width="226.2144mm" xmlns="http://www.w3.org/2000/svg"><g transform="translate(161.4294 -25.381956)"><text fill="#fff" fill-opacity=".5" font-family="TrasksHand" font-size=".370417" stroke-width=".185208" x="-58.913097" y="75.787498"><tspan fill="#fff" fill-opacity=".5" stroke-width=".185208" x="-58.913097" y="75.787498">John Loreth 2022</tspan></text><path d="m-130.99969 79.672158-30.099-.127-.0911-.762c-.12446-1.040493.41809-7.864409.84819-10.668.19287-1.2573.41797-2.80035.5002-3.429.38191-2.919473 1.88053-8.965032 3.21115-12.954 1.38286-4.145574 2.74292-7.200991 4.90163-11.011677 1.99822-3.527386 3.47571-5.522265 6.1127-8.253269 2.85558-2.957381 5.69055-4.875177 8.96294-6.063224 3.69118-1.095547 6.87752-1.464076 10.35233-.333992 3.92409 1.296008 6.19954 2.758029 9.6782 6.218432 4.67297 4.648453 8.47841 11.337592 11.42276 20.07873 1.77713 5.275918 3.2104 12.570927 3.91746 19.939.30164 3.14325.51089 6.11505.46501 6.604l-.0834.889z" fill="#52ad67" stroke-width=".254"/><path d="m-104.8562 130.6666c-1.17727-.87096-2.78913-1.98538-3.58191-2.4765-2.39773-1.48537-4.85052-2.96199-5.92458-3.5667-1.2149-.68401-8.9707-4.56524-9.12263-4.56524-.0584 0-.65866-.24639-1.33381-.54752-.67516-.30114-1.36449-.5759-1.53186-.61059-.16736-.0347-.79601-.29031-1.397-.56806-.60098-.27774-1.94995-.81295-2.9977-1.18934-1.04775-.3764-2.4765-.89439-3.175-1.1511-1.8827-.6919-7.22057-2.3044-12.065-3.64465-1.52809-.42276-6.99744-1.61547-9.017-1.96635-4.65348-.8085-6.12255-1.104-6.31833-1.2709-.12228-.10425-.14384-.6079-.0479-1.11921l.17441-.92967 1.31792.1689c2.03546.26087 6.97564 1.11415 8.81092 1.52186.90805.20173 3.07975.66315 4.826 1.02539 5.01877 1.04108 5.66773 1.18556 6.477 1.44194.4191.13277 1.39065.34573 2.159.47324s1.9685.38955 2.667.58231l1.27.35048.0803-.88085c.0442-.48446.0253-.93591-.042-1.00321s-1.01786-.23681-2.11235-.37668c-13.17354-2.36552-25.61623-13.944862-25.68868-27.412397l.0767-1.628595h30.353 30.353l-.0406 2.667c-.0688 4.51248-1.6347 8.919494-4.91883 13.843-1.24693 1.869379-5.68933 6.187242-7.79079 7.572382-3.72711 2.45666-9.04652 4.53965-12.44165 4.87193-2.72438.26664-2.6211.18602-2.6211 2.04597 0 1.57124.0248 1.63439.6985 1.77988 2.04671.44197 11.70279 3.89232 15.5575 5.55908 4.73274 2.04641 5.90509 2.59235 10.795 5.02704 5.638305 2.80731 7.278017 3.75407 7.155845 4.13172-.106486.32916-7.455675 3.429-8.129585 3.429-.18331 0-1.29651-.7126-2.47377-1.58356z" fill="#38894b" stroke-width=".254"/><path d="m-93.840942 101.24749 10.294093.0146 13.078251-16.582564 21.891908.110133-.06666 16.726261 10.480642-.00051 1.198086-60.959459-9.580072.0015zm30.556695-25.548174 16.070167-21.808259-1.108608 22.223915z" fill="#52ad67"/><g stroke-width=".687917"><g fill="#52ad67"><path d="m25.114491 57.253216-.07962-.159238q-1.672005-2.945914-3.582868-5.334493-1.910864-2.468199-5.414113-4.936397-4.299442-3.105153-9.0766001-4.379061-4.777158-1.353529-8.9173617-1.353529-6.0510668 0-11.6244182 2.30896-5.493731 2.229341-9.713554 6.449163-4.219823 4.140204-6.608402 9.713555-2.388579 5.493732-2.388579 11.863276 0 6.130686 2.308959 11.783657 2.388579 5.573351 6.528783 9.872793 4.219823 4.299442 9.713555 6.76764 5.5733507 2.388578 11.7040369 2.388578 3.5828686 0 7.2453564-.87581 3.7421071-.87581 7.2453567-2.707057 3.582868-1.910863 6.76764-4.936397 3.184772-3.025533 5.493732-7.165737h-10.589367q-3.105153 3.662488-7.3249757 5.73259-4.1402036 2.070102-8.7581231 2.070102-4.2198229 0-8.2007882-1.751625-3.980965-1.751625-7.006498-4.936397-3.025534-3.184772-4.777158-7.324975-1.751625-4.219823-1.751625-8.837743 0-4.617919 1.672005-8.678503 1.672006-4.140204 4.697539-7.245357 3.025534-3.105153 7.006499-4.856777 4.060584-1.751625 8.5192648-1.751625 3.2643914 0 5.9714476.875812 2.7070562.875813 4.6975387 2.229341 2.0701019 1.273909 3.2643909 2.468198 1.273909 1.19429 2.468199 2.547818l.159238.159238z" transform="scale(.99966349 1.0003366)"/><path d="m87.935009 71.973607q0-6.22525-2.314516-11.812013-2.314516-5.666574-6.544494-9.896552-4.150166-4.309788-9.81674-6.704115-5.586763-2.394327-12.051446-2.394327-6.624304 0-12.290878 2.474138-5.666574 2.474138-9.81674 6.783926-4.150167 4.309789-6.384872 9.896552-2.234705 5.506951-2.234705 11.492769 0 5.985817 2.314516 11.57258 2.314516 5.586763 6.464682 9.896551 4.229978 4.309789 9.896552 6.783924 5.666573 2.39433 12.051445 2.39433 6.384872 0 12.051446-2.39433 5.666574-2.474135 9.81674-6.783924 4.229978-4.309788 6.544494-9.81674 2.314516-5.506952 2.314516-11.492769zm-8.619577.07981q0 3.59149-1.356785 7.582035-1.356786 3.910734-4.150167 7.342602-2.71357 3.352058-6.943548 5.506952-4.229978 2.075084-9.657119 2.075084-5.427141 0-9.657118-2.075084-4.150167-2.075083-6.943548-5.506952-2.793382-3.431868-4.150167-7.422413-1.356785-3.990545-1.356785-7.741657 0-3.671301 1.356785-7.661846 1.356785-3.990545 4.070356-7.422414 2.793381-3.431868 7.023359-5.506952 4.229977-2.154894 9.657118-2.154894 5.26752 0 9.417686 2.075083 4.229978 1.995273 7.023359 5.427141 2.793382 3.352058 4.229978 7.422414 1.436596 3.990545 1.436596 8.060901z" transform="scale(1.0041471 .99587002)"/><path d="m130.65003 102.22442-16.70469-22.272925q1.93678 0 4.68054-.726291 2.82447-.80699 5.64893-2.743766 2.90516-1.936776 4.84194-5.648929 1.93678-3.712154 1.93678-9.199686 0-3.954251-1.37189-7.747104-1.37188-3.792853-4.11565-6.375221-2.58236-2.42097-6.29452-3.712154-3.63145-1.291184-9.60318-1.291184h-18.480068v59.71726h8.715492v-27.679758h.161396l19.69056 27.679758zm-30.746316-51.728059h9.199686q3.55076 0 6.05242.968388 2.58237.968388 4.11565 2.663067 1.61398 1.61398 2.34027 3.550756.7263 1.936776.7263 3.954251 0 4.03495-1.93678 6.536619-1.85608 2.42097-4.59984 3.550756-2.74377 1.049087-5.24544 1.371883-2.50167.242097-4.68054.242097h-5.971726z" transform="scale(1.0086415 .99143249)"/><path d="m185.32563 100.7584v-58.86086h-8.59051v44.781979h-.15908l-28.63501-44.781979h-9.38592v58.86086h8.5905v-45.497854h.15908l29.11227 45.497854z" transform="scale(.99417646 1.0058576)"/></g><path d="m203.08814 83.177943h26.91055l7.71853 17.940367h2.22516l-22.043-51.456863h-2.71192l-22.04301 51.456863h2.22517zm13.42051-31.56948 12.58607 29.692h-25.1026z" fill="#38894b" transform="scale(.99723355 1.0027741)"/><path d="m237.8603 49.43008v1.86658h13.89565v49.29154h2.07398v-49.29154h13.89565v-1.86658z" fill="#38894b" transform="scale(.99200556 1.0080589)"/><path d="m266.69857 75.668146q0 5.648932 2.02246 10.600465 2.09219 4.951532 5.78841 8.578007 3.69621 3.556735 8.57801 5.579192 4.88179 1.95272 10.39124 1.95272 5.50945 0 10.39125-1.95272 4.88179-2.022457 8.578-5.648932 3.69622-3.626474 5.71867-8.508267 2.0922-4.951533 2.0922-10.600465 0-5.648932-2.0922-10.600465-2.02245-4.951532-5.71867-8.508267-3.69621-3.626475-8.578-5.579192-4.8818-2.022457-10.39125-2.022457-5.50945 0-10.39124 2.022457-4.8818 1.952717-8.57801 5.579192-3.69622 3.556735-5.78841 8.508267-2.02246 4.951533-2.02246 10.600465zm2.0922 0q0-5.230492 1.88297-9.763586 1.95272-4.602833 5.30024-7.950348 3.41725-3.417255 7.8806-5.230493 4.5331-1.882977 9.62411-1.882977 5.09101 0 9.55437 1.882977 4.53309 1.813238 7.88061 5.230493 3.41725 3.347515 5.30023 7.950348 1.95271 4.533094 1.95271 9.763586 0 5.230492-1.95271 9.833326-1.88298 4.533093-5.30023 7.950348-3.34752 3.347515-7.88061 5.230493-4.46336 1.813237-9.55437 1.813237-5.09101 0-9.62411-1.813237-4.46335-1.882978-7.8806-5.230493-3.34752-3.417255-5.30024-7.950348-1.88297-4.602834-1.88297-9.833326z" fill="#38894b" transform="scale(1.0007207 .99927986)"/><path d="m330.30031 49.864384h-3.34751v51.607526h2.09219v-49.515329h.13948l24.33923 49.515329h1.18558l24.26948-49.515329h.13948-.0697.0697v49.515329h2.0922v-51.607526h-3.27778l-23.7813 48.260009z" fill="#38894b" transform="scale(1.0007207 .99927982)"/></g></g></svg>