<svg enable-background="new 0 0 566.929 129.21" height="129.21" viewBox="0 0 566.929 129.21" width="566.929" xmlns="http://www.w3.org/2000/svg" xmlns:xlink="http://www.w3.org/1999/xlink"><linearGradient id="a" gradientTransform="matrix(3.983499 .06557266 -.06557266 3.983499 -9.635257 -1085.6046)" gradientUnits="userSpaceOnUse" x1="50.717438" x2="50.97065" y1="275.1796" y2="300.46671"><stop offset="0" stop-color="#bb000f"/><stop offset=".01046079" stop-color="#fa0211"/><stop offset=".81084877" stop-color="#e9010c"/><stop offset=".97777402" stop-color="#d90209"/><stop offset="1" stop-color="#c20b03"/></linearGradient><linearGradient id="b" gradientUnits="userSpaceOnUse" x1="34.010048" x2="35.122318" y1="274.68298" y2="300.81601"><stop offset="0" stop-color="#830505"/><stop offset=".03801362" stop-color="#f00"/><stop offset=".97301853" stop-color="#f00"/><stop offset="1" stop-color="#cc0202"/></linearGradient><linearGradient id="c" gradientUnits="userSpaceOnUse" x1="101.447804" x2="105.972108" y1="12.837075" y2="116.26232"><stop offset="0" stop-color="#a42402"/><stop offset=".02531188" stop-color="#bb000f"/><stop offset=".03487674" stop-color="#fa0211"/><stop offset=".42406154" stop-color="#f1010e"/><stop offset=".42995468" stop-color="#bb000f"/><stop offset=".44927278" stop-color="#ef010c"/><stop offset=".48493782" stop-color="#f1010e"/><stop offset=".84242028" stop-color="#e7010b"/><stop offset=".98973793" stop-color="#d50208"/><stop offset="1" stop-color="#b51100"/></linearGradient><linearGradient id="d" gradientTransform="matrix(3.983499 .06557266 -.06557266 3.983499 -9.635257 -1085.6046)" gradientUnits="userSpaceOnUse" x1="62.158527" x2="64.281677" y1="274.58725" y2="300.33633"><stop offset="0" stop-color="#bb000f"/><stop offset=".02909146" stop-color="#fa0211"/><stop offset=".81084877" stop-color="#e9010c"/><stop offset=".97777402" stop-color="#d90209"/><stop offset="1" stop-color="#c20b03"/></linearGradient><linearGradient id="e" gradientTransform="matrix(3.983499 .06557266 -.06557266 3.983499 -9.635257 -1085.6046)" gradientUnits="userSpaceOnUse" x1="94.803421" x2="94.431168" y1="274.23569" y2="299.84857"><stop offset="0" stop-color="#bb000f"/><stop offset=".03055353" stop-color="#fa0211"/><stop offset=".4289301" stop-color="#f1010e"/><stop offset=".43979308" stop-color="#f1010e"/><stop offset=".44761753" stop-color="#f0010d"/><stop offset=".81084877" stop-color="#e9010c"/><stop offset=".96867174" stop-color="#d90209"/><stop offset="1" stop-color="#c20b03"/></linearGradient><linearGradient id="f" gradientTransform="matrix(3.983499 .06557266 -.06557266 3.983499 -9.635257 -1085.6046)" gradientUnits="userSpaceOnUse" x1="78.90744" x2="79.617294" y1="274.22351" y2="300.64111"><stop offset="0" stop-color="#bb000f"/><stop offset=".01779762" stop-color="#fa0211"/><stop offset=".81084877" stop-color="#e9010c"/><stop offset=".97940391" stop-color="#d90209"/><stop offset="1" stop-color="#c20b03"/></linearGradient><linearGradient id="g" gradientTransform="matrix(3.983499 .06557266 -.06557266 3.983499 -9.635257 -1085.6046)" gradientUnits="userSpaceOnUse" x1="107.26579" x2="109.25779" y1="274.14783" y2="299.71075"><stop offset="0" stop-color="#bb000f"/><stop offset=".03144556" stop-color="#fa0211"/><stop offset=".81084877" stop-color="#e9010c"/><stop offset=".97077686" stop-color="#d90209"/><stop offset="1" stop-color="#c20b03"/></linearGradient><linearGradient id="h" gradientTransform="matrix(3.983499 .06557266 -.06557266 3.983499 -58.635257 -1085.1046)" gradientUnits="userSpaceOnUse" x1="145.73663" x2="142.62247" y1="273.60263" y2="299.18527"><stop offset="0" stop-color="#bb000f"/><stop offset=".03712977" stop-color="#fa0211"/><stop offset=".81084877" stop-color="#e9010c"/><stop offset=".97940391" stop-color="#d90209"/><stop offset="1" stop-color="#c20b03"/></linearGradient><path d="m85.921399-114.03912 7.003212-34.23004c1.354387-2.60086 3.317007-3.90636 5.88786-3.9165l13.689129.22533c2.72647.09721 4.72373 1.4679 5.99178 4.11206l5.76477 33.80845" fill="none"/><g fill="#dfdfdf" transform="matrix(4.0790176 -.18867279 .1933877 3.9795687 -110.87303 -1056.857)"><path d="m111.57031 273.59766c-.56549 0-1.21726.15671-1.70703.64648s-.64648 1.14153-.64648 1.70703v23.69922c0 .56549.15671 1.21725.64648 1.70703.48978.48978 1.14155.64649 1.70703.64649h2.98242c.56576 0 1.21901-.1629 1.70313-.65821.48127-.4924.62891-1.13774.62891-1.69531v-23.69922c0-.56384-.15576-1.21484-.64454-1.70508-.48915-.4906-1.14074-.64843-1.70703-.64843z"/><path d="m115.51997 299.65049q0 .98749-.96774.98749h-2.98221q-.98749 0-.98749-.98749v-23.69971q0-.98749.98749-.98749h2.96247q.98748 0 .98748.98749z"/></g><path d="m337.6229 10.293372c-2.2373-.06649-4.84802.485139-6.85037 2.399035-2.00067 1.912251-2.69103 4.508708-2.75663 6.763508l-2.71595 93.352815c-.0656 2.25484.47259 4.8878 2.35866 6.91553 1.88763 2.02942 4.46174 2.73526 6.69906 2.80175l11.54747.34318c2.23937.0666 4.84118-.49192 6.84275-2.3993 2.00159-1.90741 2.70601-4.4997 2.77186-6.76305l.9703-33.351294 6.05156.179848c1.99464.05928 2.84184.444011 4.22562 1.92741 1.38373 1.48332 1.71406 2.360718 1.65541 4.376693-.0113.391149-.0566.738044-.11401 1.036123a.76267698.77083762.00000103 0 0 -.00023.0079c-.10734.56563-.006 1.135262.0647 1.703653a.76267698.77083762.00000103 0 0 -.0375.21454l-.70595 24.265277c-.0659 2.26335.48659 4.893 2.37389 6.91599 1.88719 2.02294 4.45208 2.73497 6.69143 2.80152l11.53986.34296c2.23939.0665 4.84115-.49193 6.84276-2.3993 2.00154-1.90746 2.70598-4.49971 2.77184-6.76306l.73549-25.280807c.23624-8.119953-2.71461-15.440708-7.67462-21.642177 5.31196-5.896114 8.68337-13.029016 8.91957-21.149009.27529-9.462426-3.23957-18.15501-10.00798-24.976363-6.77005-6.822899-15.5084-10.532693-25.26085-10.822529zm19.99884 31.163889 6.05156.179849c1.99463.05928 2.84183.44401 4.2256 1.92741 1.38374 1.483319 1.71408 2.360717 1.65543 4.376692-.0586 2.016054-.43932 2.872243-1.90701 4.27082-1.46762 1.398579-2.33568 1.732413-4.33036 1.673133l-6.05157-.179848z" fill="#dfdfdf"/><g fill="#845f23" transform="matrix(3.9795687 -.18867279 .18867279 3.9795687 -99.338419 -1058.415)"><path d="m111.57031 273.59766c-.56549 0-1.21726.15671-1.70703.64648s-.64648 1.14153-.64648 1.70703v23.69922c0 .56549.15671 1.21725.64648 1.70703.48978.48978 1.14155.64649 1.70703.64649h2.98242c.56576 0 1.21901-.1629 1.70313-.65821.48127-.4924.62891-1.13774.62891-1.69531v-23.69922c0-.56384-.15576-1.21484-.64454-1.70508-.48915-.4906-1.14074-.64843-1.70703-.64843z"/><path d="m115.51997 299.65049q0 .98749-.96774.98749h-2.98221q-.98749 0-.98749-.98749v-23.69971q0-.98749.98749-.98749h2.96247q.98748 0 .98748.98749z"/></g><path d="m336.0604 8.9808715c-2.2373-.066491-4.84802.4851392-6.85037 2.3990355-2.00067 1.912251-2.69103 4.508708-2.75663 6.763508l-2.71595 93.352815c-.0656 2.25484.47259 4.8878 2.35866 6.91553 1.88763 2.02942 4.46174 2.73526 6.69906 2.80175l11.54747.34318c2.23937.0666 4.84118-.49192 6.84275-2.3993 2.00159-1.90741 2.70601-4.4997 2.77186-6.76305l.9703-33.351294 6.05156.179848c1.99464.05928 2.84184.444011 4.22562 1.92741 1.38373 1.48332 1.71406 2.360718 1.65541 4.376693l-.087 2.962216-.70595 24.265277c-.0659 2.26335.48659 4.893 2.37389 6.91599 1.88719 2.02294 4.45208 2.73497 6.69143 2.80152l11.53986.34296c2.23939.0665 4.84115-.49193 6.84276-2.3993 2.00154-1.90746 2.70598-4.49971 2.77184-6.76306l.73549-25.280807c.23624-8.119953-2.71461-15.440708-7.67462-21.642177 5.31196-5.896114 8.68337-13.029016 8.91957-21.149009.27529-9.462426-3.23957-18.15501-10.00798-24.976363-6.77005-6.822899-15.5084-10.532693-25.26085-10.822529zm19.99884 31.1638895 6.05156.179849c1.99463.05928 2.84183.44401 4.2256 1.92741 1.38374 1.483319 1.71408 2.360717 1.65543 4.376692-.0586 2.016054-.43932 2.872243-1.90701 4.27082-1.46762 1.398579-2.33568 1.732413-4.33036 1.673133l-6.05157-.179848z" fill="#845f23"/><path d="m193.45401 15.648872c-1.8533.191691-3.76931 1.795991-4.42696 3.359304-.65766 1.563314-.68347 3.005089-.58287 4.597962a3.6913849 3.6913849 0 0 0 .10481.671697l23.61827 93.115145a3.6913849 3.6913849 0 0 0 .38747.95013c1.9528 3.35796 5.59381 5.63446 9.40548 5.47195a3.6913849 3.6913849 0 0 0 .0777-.005l13.6679-.86317a3.6913849 3.6913849 0 0 0 .0699-.004c3.88839-.32061 7.34603-2.99723 8.88311-6.62692a3.6913849 3.6913849 0 0 0 .26486-.99133l11.71637-95.346624a3.6913849 3.6913849 0 0 0 .0195-.679547c-.10695-1.693548-.42417-3.338647-1.56173-4.85234-1.13753-1.513695-3.29724-2.427791-5.07722-2.369272a3.6913849 3.6913849 0 0 0 -.1087.0069l-15.08129.952425c-1.88522.119058-3.41846 1.196076-4.43587 2.354089-1.01741 1.158014-1.73517 2.491114-2.40196 4.065703a3.6913849 3.6913849 0 0 0 -.26584.975781l-3.4494 27.233853-6.99665-26.589724a3.6913849 3.6913849 0 0 0 -.40448-.97245c-.88206-1.462923-1.76992-2.67139-2.90646-3.675891-1.13653-1.004501-2.74761-1.900431-4.65795-1.779788l-15.71032.992151a3.6913849 3.6913849 0 0 0 -.14756.0093z" fill="#dfdfdf" stroke="#dfdfdf" stroke-width="2"/><path d="m287.80923 8.7522851c-13.76051 0-26.013 6.3399599-35.36613 17.8425969-9.34102 11.437936-14.02973 25.527927-14.02973 41.388863 0 15.868745 4.68779 29.97786 14.02973 41.466675.005.005.0103.0106.0155.0159 9.35753 11.44989 21.60144 17.74145 35.35057 17.74145 13.7492 0 25.98635-6.29291 35.34277-17.74145.005-.005.0104-.0106.0155-.0159 9.34194-11.488815 14.02973-25.59793 14.02973-41.466675 0-15.868904-4.69507-29.963477-14.04529-41.404441-9.34996-11.489768-21.58919-17.8270189-35.3427-17.8270189zm-.008 39.5836159 2.52115 7.765768c.79327 2.436717 3.25784 4.224356 5.82043 4.225272h5.80487l-4.37311 3.18253c-2.07685 1.512859-.80317 4.157237-.00018 6.597979l.93395 9.828412-6.74642-5.695941c-2.18737-1.848873-5.71844-1.848873-7.90582 0l-6.80866 5.742633 3.63228-12.238243c-.0238-5.278412-.56871-2.727599-2.65962-4.242609l-4.38866-3.174761h5.83599c2.56259-.000916 5.02716-1.788555 5.82043-4.225272z" fill="#dfdfdf"/><path d="m287.80923 6.6272851c-13.76051 0-26.013 6.3399599-35.36613 17.8425969-9.34102 11.437936-14.02973 25.527927-14.02973 41.388863 0 15.868745 4.68779 29.97786 14.02973 41.466675.005.005.0103.0106.0155.0159 9.35753 11.44989 21.60144 17.74145 35.35057 17.74145 13.7492 0 25.98635-6.29291 35.34277-17.74145.005-.005.0104-.0106.0155-.0159 9.34194-11.488815 14.02973-25.59793 14.02973-41.466675 0-15.868904-4.69507-29.963477-14.04529-41.404441-9.34996-11.489768-21.58919-17.8270189-35.3427-17.8270189zm-.008 39.5836159 2.52115 7.765768c.79327 2.436717 3.25784 4.224356 5.82043 4.225272h5.80487l-4.37311 3.18253c-2.07685 1.512859-1.95222 4.996926-1.14923 7.437668l6.19305 12.65684-10.85647-9.364058c-2.18737-1.848873-5.49747-.390465-7.68485 1.458408l-7.20641 5.344885 3.80906-11.173903c.81585-2.449984-.56871-4.852599-2.65962-6.367609l-4.38866-3.174761h5.83599c2.56259-.000916 5.02716-1.788555 5.82043-4.225272z" fill="#dfdfdf"/><path d="m191.93278 13.648872c-1.8533.191691-3.76931 1.795991-4.42696 3.359304-.65766 1.563314-.68347 3.005089-.58287 4.597962a3.6913849 3.6913849 0 0 0 .10481.671697l23.61827 93.115145a3.6913849 3.6913849 0 0 0 .38747.95013c1.9528 3.35796 5.59381 5.63446 9.40548 5.47195a3.6913849 3.6913849 0 0 0 .0777-.005l13.6679-.86317a3.6913849 3.6913849 0 0 0 .0699-.004c3.88839-.32061 7.34603-2.99723 8.88311-6.62692a3.6913849 3.6913849 0 0 0 .26486-.99133l11.71637-95.346624a3.6913849 3.6913849 0 0 0 .0195-.679547c-.10695-1.693548-.42417-3.338647-1.56173-4.85234-1.13753-1.513695-3.29724-2.427791-5.07722-2.369272a3.6913849 3.6913849 0 0 0 -.1087.0069l-15.08129.952425c-1.88522.119058-3.41846 1.196076-4.43587 2.354089-1.01741 1.158014-1.73517 2.491114-2.40196 4.065703a3.6913849 3.6913849 0 0 0 -.26584.975781l-3.4494 27.233853-6.99665-26.589724a3.6913849 3.6913849 0 0 0 -.40448-.97245c-.88206-1.462923-1.76992-2.67139-2.90646-3.675891-1.13653-1.004501-2.74761-1.900431-4.65795-1.779788l-15.71032.992151a3.6913849 3.6913849 0 0 0 -.14756.0093z" fill="#845f23" stroke="#845f23" stroke-width="2"/><path d="m287.80923 6.6272851c-13.76051 0-26.013 6.3399599-35.36613 17.8425969-9.34102 11.437936-14.02973 25.527927-14.02973 41.388863 0 15.868745 4.68779 29.97786 14.02973 41.466675.005.005.0103.0106.0155.0159 9.35753 11.44989 21.60144 17.74145 35.35057 17.74145 13.7492 0 25.98635-6.29291 35.34277-17.74145.005-.005.0104-.0106.0155-.0159 9.34194-11.488815 14.02973-25.59793 14.02973-41.466675 0-15.868904-4.69507-29.963477-14.04529-41.404441-9.34996-11.489768-21.58919-17.8270189-35.3427-17.8270189zm-.008 39.5836159 2.52115 7.765768c.79327 2.436717 3.25784 4.224356 5.82043 4.225272h5.80487l-4.37311 3.18253c-2.07685 1.512859-3.01288 4.422402-2.20989 6.863144l3.67399 10.800684-7.49772-5.298194c-2.18737-1.848873-4.65778-2.114038-6.84516-.265165l-7.82513 5.433274 3.36712-10.647253c.81585-2.449984-.12677-5.379249-2.21768-6.894259l-4.38866-3.174761h5.83599c2.56259-.000916 5.02716-1.788555 5.82043-4.225272z" fill="#845f23"/><g stroke-width="2" transform="translate(49.000001 -.5)"><path d="m116.93024 13.38314c-3.85541.01503-7.44196 2.499708-9.25039 5.972464a3.8107312 3.8107312 0 0 0 -.35105.998136l-19.254152 94.11446a3.8107312 3.8107312 0 0 0 -.08156.69907c-.02682 1.62949.06189 3.09046.818143 4.66733.756267 1.57688 2.906449 3.14522 4.83504 3.17696l15.731719.25896c1.95541.0322 3.55125-.95557 4.65606-2.02458 1.10482-1.06905 1.93813-2.33426 2.75601-3.84581a3.8107312 3.8107312 0 0 0 .37453-1.00556l.19328-.86845 9.87316.16253.1646.87433a3.8107312 3.8107312 0 0 0 .31101.96234c.74414 1.55165 1.53259 2.86575 2.61927 3.9888 1.08666 1.12305 2.6972 2.14563 4.6258 2.17737l15.1015.24859c1.82979.0301 4.069-1.00332 5.17165-2.61534 1.10263-1.61202 1.33836-3.2968 1.36686-5.02827a3.8107312 3.8107312 0 0 0 -.0585-.70137l-16.1461-94.697185a3.8107312 3.8107312 0 0 0 -.31801-1.009149c-1.72122-3.589152-5.36082-6.137433-9.29778-6.277787a3.8107312 3.8107312 0 0 0 -.07-.0012l-13.69328-.225406a3.8107312 3.8107312 0 0 0 -.0778-.0013z" fill="#dfdfdf" stroke="#dfdfdf"/><path d="m115.40898 11.462933c-3.85541.01503-7.44196 2.499708-9.25039 5.972464a3.8107312 3.8107312 0 0 0 -.35105.998136l-19.254134 94.114457a3.8107312 3.8107312 0 0 0 -.08156.69907c-.02682 1.62949.06189 3.09046.818143 4.66733.756267 1.57688 2.906449 3.14522 4.83504 3.17696l15.731701.25896c1.95541.0322 3.55125-.95557 4.65606-2.02458 1.10482-1.06905 1.93813-2.33426 2.75601-3.84581a3.8107312 3.8107312 0 0 0 .37453-1.00556l.19328-.86845 9.87316.16253.1646.87433a3.8107312 3.8107312 0 0 0 .31101.96234c.74414 1.55165 1.53259 2.86575 2.61927 3.9888 1.08666 1.12305 2.6972 2.14563 4.6258 2.17737l15.1015.24859c1.82979.0301 4.069-1.00332 5.17165-2.61534 1.10263-1.61202 1.33836-3.2968 1.36686-5.02827a3.8107312 3.8107312 0 0 0 -.0585-.70137l-16.1461-94.697182a3.8107312 3.8107312 0 0 0 -.31801-1.009149c-1.72122-3.589152-5.36082-6.137433-9.29778-6.277787a3.8107312 3.8107312 0 0 0 -.07-.0012l-13.69328-.225406a3.8107312 3.8107312 0 0 0 -.0778-.0013z" fill="#845f23" stroke="#845f23"/></g><g fill="none" stroke="#fcf1b3" stroke-width=".125501" transform="matrix(3.9823174 .11709866 -.11709866 3.9823174 -7.308196 -1093.7981)"><path d="m93.794922 274c-.491332 0-1.030238.13649-1.421875.5293-.391587.39275-.527344.93149-.527344 1.42187v23.69922c0 .49039.135754 1.02913.527344 1.42188.391639.3928.930546.52929 1.421875.52929h2.96289c.491383 0 1.029801-.13722 1.421876-.52929.392074-.39208.529296-.93049.529296-1.42188v-8.91211h1.998046c.59077 0 .99101.1668 1.41211.58789.4211.4211.58789.82134.58789 1.41211v.75781 6.1543c0 .49139.13722 1.0298.5293 1.42188.39207.39207.9305.52929 1.42187.52929h2.96094c.49139 0 1.02979-.13722 1.42188-.52929.39207-.39209.52929-.93049.52929-1.42188v-6.41797c0-2.07229-.83331-3.90619-2.24414-5.43164 1.41083-1.52544 2.24414-3.35934 2.24414-5.43164 0-2.28404-.90781-4.3321-2.61328-5.93555-1.70654-1.60442-3.85052-2.43359-6.25-2.43359zm4.914062 6.86328h1.998046c.59077 0 .99101.1668 1.41211.58789.4211.4211.58789.82134.58789 1.41211 0 .59078-.16679.99101-.58789 1.41211s-.82134.58789-1.41211.58789h-1.998046z"/><path d="m100.70766 279.90073h-2.962467v5.92493h2.962467q1.22448 0 2.09347-.86899.86899-.86899.86899-2.09348 0-1.22448-.86899-2.09347-.86899-.86899-2.09347-.86899zm2.96246 13.33109h-.0395q.0395-.237.0395-.49375 0-1.22448-.86899-2.09347-.86899-.86899-2.09347-.86899h-2.962467v9.87488q0 .98749-.987488.98749h-2.962464q-.987488 0-.987488-.98749v-23.69971q0-.98749.987488-.98749h6.912419q3.27846 0 5.58918 2.17247 2.31072 2.17248 2.31072 5.23369 0 3.06121-2.31072 5.23369-.0988.0988-.21725.19749.1185.0987.21725.1975 2.31072 2.17248 2.31072 5.23369v6.41867q0 .98749-.98749.98749h-2.96246q-.98749 0-.98749-.98749z"/></g><path d="m246.85156 7.0449219.002.015625-14.9375.9433593c-2.05589.1298355-3.6975 1.2943672-4.77735 2.5234378-1.06578 1.21307-1.8089 2.59952-2.48633 4.199218-.15002.352016-.25159.725747-.30078 1.105469l-3.12695 24.695313-6.33789-24.082032-.008-.03125c-.0993-.386885-.25474-.760511-.45899-1.103515-.89562-1.485412-1.81333-2.742439-3.00195-3.792969-1.20147-1.0619-2.93765-2.0338199-5.01953-1.902344l-15.71094.992188c-.0411.002-.0799.0051-.11523.0078-.001.000091-.003-.000089-.004 0-.0138-.000164-.0273-.000984-.041 0h-.004l-.004.002c-2.09547.216739-4.08987 1.895929-4.83203 3.660156-.69828 1.659865-.7252 3.206686-.62305 4.824218.0164.257529.0579.512399.1211.761719l23.61914 93.113275c.0951.37787.24197.74109.4375 1.07813 2.03851 3.50535 5.83349 5.89218 9.85547 5.7207h.008.008c.0249-.002.0507-.006.0762-.008l-.004.002 13.6582-.86328c.0188-.00075.0406-.003.0625-.004.008-.00047.0135-.001.0215-.002h.006c4.08966-.3372 7.69176-3.13273 9.29883-6.92773.15228-.359.25334-.74009.30078-1.12696l11.71674-95.34545c.031-.255139.0399-.512001.0234-.769531-.1096-1.735433-.44725-3.502574-1.66211-5.119141-1.25871-1.6749501-3.52495-2.6295449-5.48438-2.5664061h-.008zm-13.92383 111.8554681-.0137.002h.01zm14.20118-111.3554681h.002.004.004c1.78138-.058565 3.93589.8524282 5.07422 2.3671871 1.13679 1.512679 1.45363 3.156611 1.56055 4.84961.0144.225779.008.452125-.0195.677734l-11.7168 95.345707c-.0418.34055-.13171.67648-.26563.99218-1.53668 3.62878-4.99351 6.30448-8.88086 6.625h-.002c-.0188.002-.0397.003-.0644.004h-.004l-13.66797.86328h-.002c-.0217.002-.0441.004-.0664.006-.003.00021-.005-.00021-.008 0-3.81062.16247-7.44806-2.11354-9.40039-5.4707-.17211-.29668-.30302-.61663-.38672-.94922l-23.61909-93.113512v-.002c-.0555-.219651-.0911-.444683-.10547-.669922-.10056-1.592445-.0733-3.035293.58399-4.597656.65856-1.565489 2.56258-3.16341 4.41797-3.357422h.0137.0176c-.0265.0018-.0265.0021.006 0h.002.002c.0393-.003.0746-.0063.10742-.0078h.002l15.71289-.992188c1.90943-.120585 3.52031.773365 4.65625 1.777344 1.13605 1.004068 2.02225 2.21289 2.90429 3.675781.17854.300155.31516.628818.40235.966797.00036.0014.002.0025.002.0039l6.67383 25.363282.32593 1.226662.1643-1.259862 3.28907-25.97461c.0432-.333752.13358-.662832.26562-.972656.66675-1.574481 1.38336-2.90882 2.40039-4.066406 1.0171-1.157651 2.54918-2.2325558 4.4336-2.3515628l15.08007-.953125h.002c.0315-.00216.065-.00448.0996-.00586z" fill="#fcf1b3"/><g fill="none" stroke="#fcf1b3" stroke-width=".125501" transform="matrix(3.9840387 0 0 3.9840387 -30.641521 -1082.5007)"><path d="m79.931641 273.36914c-3.321571 0-6.256533 1.51367-8.53711 4.31836-2.280382 2.79129-3.425781 6.21656-3.425781 10.11328 0 3.8977 1.145745 7.3288 3.425781 10.13281.0012.001.0025.003.0039.004l.002.002c2.280876 2.78874 5.21342 4.29102 8.53125 4.29102s6.248629-1.50253 8.529297-4.29102l.002-.002.002-.002c.000683-.00065.0014-.001.002-.002 2.280037-2.80401 3.42578-6.23511 3.425781-10.13281-.000001-3.89769-1.14621-7.32356-3.427734-10.11523-2.280108-2.803-5.212512-4.31641-8.533203-4.31641zm-.002 7.54763 1.448169 3.61152c.07128.21895.21214.41351.398437.54883s.416228.21086.646485.21094h2.798828l-2.181641 1.58789c-.186612.13593-.327634.33103-.398437.55078-.0708.21975-.0702.46233.002.68164l1.537711 5.0874-3.627357-2.82512c-.196543-.16613-.45359-.25977-.710937-.25977s-.514395.0936-.710938.25977l-3.227316 2.41921 1.06916-3.92327c.07337-.22032.07513-.46453.0039-.68555s-.214139-.41671-.402344-.55273l-2.479819-2.38462 3.209888-.26623c.230256-.00008.704229.16844.890526.0331.186297-.13532.238417-.32988.309695-.54883z"/><path d="m79.930909 274.46955q4.502945 0 7.682657 3.91045 3.179711 3.8907 3.179711 9.42063 0 5.52994-3.179711 9.44039-3.179712 3.8907-7.682657 3.8907-4.502946 0-7.682657-3.8907-3.179711-3.91045-3.179711-9.44039 0-5.52993 3.179711-9.42063 3.179711-3.91045 7.682657-3.91045zm4.93744 20.2435q.335746.158.493744.158.157998 0 .157998-.158 0-.158-.157998-.49374l-2.073725-6.30018 3.554957-2.58722q.493744-.49374.493744-.75049 0-.23699-.493744-.23699h-4.818941l-1.599731-4.93744q-.236997-.49375-.493744-.49375-.236997 0-.493744.49375l-1.599731 4.93744h-4.818941q-.493744 0-.493744.25674 0 .237.473994.73074l3.574707 2.58722-2.093475 6.30018q-.157998.31599-.157998.49374 0 .158.177748.158.157998 0 .493744-.158l4.93744-4.1672z"/></g><path d="m154.06573 13.058366-55.037348 2.163213c-1.801494.07092-3.658479.645295-4.948921 2.046481-1.29045 1.401226-1.712615 3.298784-1.641862 5.096781l3.711694 94.340819c.0708 1.79847.641334 3.65436 2.038708 4.94893 1.397366 1.29458 3.295989 1.72043 5.096769 1.64963l11.79649-.46689c1.7986-.0709 3.65643-.63927 4.94892-2.03871 1.29249-1.39943 1.71261-3.29886 1.64186-5.09678l-1.43176-36.377676 28.51859-1.120511c1.79859-.07092 3.65643-.639318 4.94892-2.038712 1.2925-1.399434 1.71263-3.298864 1.64186-5.096781l-.31127-7.866922c-.0708-1.798595-.6393-3.656471-2.03871-4.948933s-3.2989-1.71254-5.09677-1.641863l-28.51081 1.12832-.70032-17.725865 36.37773-1.431784c1.79849-.07091 3.65434-.64131 4.94893-2.038712 1.29458-1.397362 1.72051-3.295955 1.64964-5.096741l-.46688-11.796499c-.0708-1.798595-.6393-3.656471-2.03871-4.948933s-3.29889-1.712539-5.09677-1.641862z" fill="#d2d2d2" stroke="#d2d2d2" stroke-width="2"/><path d="m152.22526 11.377538-55.037292 2.163213c-1.801494.07092-3.658479.645295-4.948921 2.046481-1.29045 1.401226-1.712615 3.298784-1.641862 5.096781l3.711694 94.340827c.0708 1.79847.641334 3.65436 2.038708 4.94893 1.397366 1.29458 3.295991 1.72043 5.096763 1.64963l11.79649-.46689c1.79861-.0709 3.65644-.63927 4.94892-2.03871 1.29249-1.39943 1.71261-3.29886 1.64187-5.09678l-1.43177-36.377684 28.51855-1.120511c1.79858-.07092 3.65642-.639318 4.94891-2.038712 1.2925-1.399434 1.71263-3.298864 1.64186-5.096781l-.31127-7.866922c-.0708-1.798595-.6393-3.656471-2.03871-4.948933s-3.2989-1.71254-5.09675-1.641863l-28.51077 1.12832-.70032-17.725865 36.37767-1.431784c1.79849-.07091 3.65434-.64131 4.94893-2.038712 1.29458-1.397362 1.72051-3.295955 1.64964-5.096741l-.46688-11.796499c-.0708-1.798595-.6393-3.656471-2.03871-4.948933s-3.29889-1.712539-5.09677-1.641862z" fill="#815a16" stroke="#805a16" stroke-width="2"/><g fill="none" stroke="#fcf1b3" stroke-width=".125501" transform="matrix(3.9795687 -.18867279 .18867279 3.9795687 -100.92944 -1059.8846)"><path d="m111.57031 273.98242c-.49422 0-1.03918.13684-1.43554.5332-.39637.39637-.53321.94132-.53321 1.43555v23.69922c0 .49423.13683 1.03917.53321 1.43555.39636.39636.94132.5332 1.43554.5332h2.98242c.49127 0 1.03732-.14158 1.42774-.54102.39005-.39907.51953-.9379.51953-1.42773v-23.69922c0-.49322-.13544-1.0366-.53125-1.43359-.39587-.39704-.94122-.53516-1.43555-.53516z"/><path d="m115.51997 299.65049q0 .98749-.96774.98749h-2.98221q-.98749 0-.98749-.98749v-23.69971q0-.98749.98749-.98749h2.96247q.98748 0 .98748.98749z"/></g><path d="m394.77562 9.614624c-1.92603.09131-4.00805.727036-5.45974 2.323223-1.45168 1.596186-1.88758 3.72897-1.79626 5.655041l4.4714 94.312672c.0913 1.92607.72699 4.00805 2.32322 5.45978 1.59619 1.45168 3.72901 1.88754 5.65504 1.79622l11.86874-.5627c1.91243-.0907 3.99989-.74695 5.42723-2.35283 1.42729-1.60588 1.83388-3.71083 1.7433-5.62138l-4.4714-94.312673c-.0911-1.92241-.7207-3.997979-2.31506-5.452344-1.5944-1.4543631-3.72937-1.8953415-5.65545-1.8040258z" fill="#fad60b"/><path d="m415.32611 110.79964q.18631 3.92978-3.66487 4.11237l-11.86791.56266q-3.92979.18631-4.1161-3.74347l-4.47149-94.314628q-.18631-3.929784 3.74347-4.116096l11.78935-.558938q3.92975-.186311 4.11606 3.743474z" fill="url(#g)"/><path d="m334.12083 8.5812566c-1.91139-.056204-4.00641.4154876-5.55116 1.8763634-1.54476 1.460836-2.13542 3.523716-2.19152 5.431525l-2.77515 94.377815c-.0561 1.90785.41232 4.00187 1.86858 5.55095s3.51995 2.1431 5.43132 2.1993l11.79917.34695c1.91138.0562 4.00453-.41809 5.55117-1.87636s2.14309-3.51995 2.1993-5.43134l1.05068-35.731978 8.19797.241058c2.40006.07057 4.064.821353 5.72369 2.581562 1.65969 1.760248 2.31136 3.465427 2.24079 5.86549l-.0881 2.994504-.72134 24.531714c-.0562 1.91139.41805 4.00455 1.87636 5.55118 1.45827 1.54662 3.51994 2.14309 5.4313 2.1993l11.7914.34672c1.91139.0562 4.00451-.4181 5.55118-1.87637 1.54663-1.4583 2.14309-3.51994 2.1993-5.43133l.75153-25.558394c.24286-8.258968-2.88309-15.658977-8.37865-21.895589 5.85252-5.902885 9.40788-13.106433 9.65073-21.36544.26556-9.031418-3.07806-17.219436-9.63935-23.762043-6.56571-6.546924-14.94357-10.076862-24.44299-10.3561888zm18.53874 27.4178414 8.19797.241058c2.40006.07057 4.064.821353 5.72369 2.581562 1.65969 1.760248 2.31136 3.465427 2.24078 5.86549-.0706 2.400103-.82131 4.064004-2.58156 5.72369-1.76024 1.659687-3.46542 2.311359-5.86549 2.240786l-8.19796-.241058z" fill="#fad60b"/><path d="m360.96567 32.648179-11.79748-.346901-.6938 23.594952 11.79748.346901c3.25085.09559 6.06372-.976227 8.43862-3.215451 2.3749-2.239225 3.61015-4.984273 3.70574-8.235145.0956-3.250845-.97623-6.063718-3.21546-8.438619-2.23922-2.374901-4.98425-3.610147-8.2351-3.705737zm10.2364 53.435532.0578-1.966244c.0956-3.250845-.97622-6.063719-3.21545-8.43862s-4.98426-3.610146-8.2351-3.705736l-11.79749-.346901-1.15633 39.3249c-.0771 2.62167-1.42647 3.89396-4.04813 3.81687l-11.79747-.3469c-2.62166-.0771-3.89395-1.42647-3.81686-4.04814l2.77521-94.379759c.0771-2.621665 1.42646-3.893954 4.04812-3.816865l27.52745.809435c8.70391.255935 16.03841 3.357919 22.00349 9.305951 5.96509 5.948058 8.82814 12.985657 8.58917 21.112797-.23898 8.12714-3.51061 14.984351-9.81488 20.571632-.27002.254589-.56612.508265-.88829.761028.3069.271287.58758.541937.84203.811948 5.96509 5.948058 8.82814 12.985657 8.58917 21.112797l-.75162 25.561176c-.0771 2.62167-1.42646 3.89395-4.04813 3.81686l-11.79746-.3469c-2.62167-.0771-3.89395-1.42646-3.81686-4.04813z" fill="url(#e)"/><path d="m334.01562 12.175781c-2.62166-.07709-3.96977 1.196695-4.04687 3.81836l-.60149 20.233947c.60515 3.895502 2.96643 7.332856 3.92112 11.157735.95658 3.832413 1.45173 7.778813 1.78563 11.714667.20443 2.409759.21892 4.837269.1306 7.254071-.11076 3.030414-.35313 6.064483-.8273 9.059619-.45569 2.878385-1.11149 5.730294-1.93314 8.526298-1.07836 3.920185-2.87686 7.740367-4.814 11.567091l-.43681 14.865481c-.0527 1.79278.51732 2.9865 1.72661 3.58937l.27144-17.603045c4.28364-9.49364 7.10207-20.465909 7.55574-30.165338-.14457-7.347354-.65207-13.429377-2.00496-19.176459-.97683-3.971956-3.94904-7.118872-3.80469-10.99414l.76422-20.516299c-.0287-.907403.98802-1.514848 1.6065-1.486467l38.62928 1.065266-.10352-.248047c-3.18685-1.122897-6.61586-1.743497-10.29101-1.851563z" fill="#bb000f" fill-rule="evenodd"/><path d="m287.80923 6.8381891c-13.16517 0-24.78959 5.9873729-33.84099 17.1189359-9.05148 11.079413-13.59397 24.670881-13.59397 40.15162 0 15.484644 4.54357 29.09918 13.59397 40.229465l.008.008c9.05443 11.07902 20.67571 17.02555 33.83321 17.02555 13.15748 0 24.77178-5.94749 33.82542-17.02555l.008-.008c9.0504-11.130285 13.59397-24.744821 13.59397-40.229465 0-15.484603-4.54573-29.078462-13.60176-40.159428-9.04962-11.124871-20.66382-17.1111279-33.82548-17.1111279zm-.008 31.2498039 4.38867 13.531747c.55727 1.711795 2.15269 2.870665 3.95291 2.871297h11.8354l-9.24422 6.730834c-1.45926 1.06298-2.06599 2.946062-1.50179 4.661007l5.31464 16.16181-12.05327-10.177944c-1.54995-1.310092-3.81917-1.310092-5.36912 0l-12.13886 10.240215 5.39245-16.208504c.57395-1.723563-.0373-3.620214-1.50957-4.684353l-9.2909-6.723065h11.88986c1.80022-.000632 3.41127-1.112627 4.01541-3.121297z" fill="#fad60b"/><path d="m287.80631 10.996609q17.93991 0 30.60801 15.579384 12.66809 15.5007 12.66809 37.532155 0 22.031495-12.66809 37.610882-12.6681 15.5007-30.60801 15.5007-17.93991 0-30.608-15.5007-12.66809-15.579387-12.66809-37.610882 0-22.031455 12.66809-37.532155 12.66809-15.579384 30.608-15.579384zm19.67095 80.650888q1.33763.629478 1.9671.629478.62947 0 .62947-.629478 0-.629479-.62947-1.96708l-8.2618-25.100161 14.16309-10.307584q1.96709-1.967079 1.96709-2.989981 0-.944178-1.96709-.944178h-19.19885l-6.37339-19.670952q-.94421-1.967119-1.9671-1.967119-.9442 0-1.96709 1.967119l-6.37339 19.670952h-19.19885q-1.9671 0-1.9671 1.022862 0 .944218 1.88842 2.911297l14.24177 10.307584-8.34049 25.100161q-.62947 1.258917-.62947 1.96708 0 .629478.70816.629478.62947 0 1.96709-.629478l19.67095-16.602286z" fill="#f00"/><path d="m287.80631 10.996609q17.93991 0 30.60801 15.579384 12.66809 15.5007 12.66809 37.532155 0 22.031495-12.66809 37.610882-12.6681 15.5007-30.60801 15.5007-17.93991 0-30.608-15.5007-12.66809-15.579387-12.66809-37.610882 0-22.031455 12.66809-37.532155 12.66809-15.579384 30.608-15.579384zm19.67095 80.650888q1.33763.629478 1.9671.629478.62947 0 .62947-.629478 0-.629479-.62947-1.96708l-8.2618-25.100161 14.16309-10.307584q1.96709-1.967079 1.96709-2.989981 0-.944178-1.96709-.944178h-19.19885l-6.37339-19.670952q-.94421-1.967119-1.9671-1.967119-.9442 0-1.96709 1.967119l-6.37339 19.670952h-19.19885q-1.9671 0-1.9671 1.022862 0 .944218 1.88842 2.911297l14.24177 10.307584-8.34049 25.100161q-.62947 1.258917-.62947 1.96708 0 .629478.70816.629478.62947 0 1.96709-.629478l19.67095-16.602286z" fill="url(#f)"/><g transform="matrix(3.9840387 0 0 3.9840387 -22.208639 -1082.5007)"><path d="m43.486328 236.81445-13.814453.54297c-.452178.0178-.918284.16197-1.242187.51367-.323905.35171-.429869.828-.41211 1.2793l.931641 23.67969c.01777.45142.160976.91725.511719 1.24219.350741.32494.827299.43183 1.279296.41406l2.960938-.11719c.451452-.0178.917771-.16046 1.242187-.51172.324417-.35126.429868-.82802.41211-1.2793l-.359375-9.13085 7.158203-.28125c.451449-.0178.917769-.16047 1.242187-.51172.324419-.35126.429873-.82802.41211-1.2793l-.07813-1.97461c-.01777-.45145-.160465-.91778-.511719-1.24219s-.828031-.42985-1.279297-.41211l-7.15625.28321-.175781-4.44922 9.130859-.35938c.451422-.0178.917245-.16097 1.242188-.51172.324942-.35074.43185-.82729.414062-1.27929l-.117187-2.96094c-.01777-.45145-.160465-.91778-.511719-1.24219s-.828026-.42985-1.279297-.41211z" fill="#fad60b" transform="translate(0 37.150464)"/><path d="m34.230924 289.89059.388352 9.86724q.03883.98672-.947889 1.02556l-2.960172.11651q-.986724.0388-1.025559-.9479l-.932045-23.68137q-.03883-.98673.947889-1.02556l13.814137-.5437q.986724-.0388 1.025559.9479l.116506 2.96016q.03883.98673-.947889 1.02557l-9.867241.38835.233011 5.92034 7.893793-.31068q.986724-.0388 1.025559.94789l.07767 1.97344q.03884.98673-.947888 1.02557z" fill="url(#b)"/></g><path d="m163.34993 8.9629329c-3.85541.015032-7.44196 2.4997081-9.25039 5.9724641a3.8107312 3.8107312 0 0 0 -.35105.998136l-19.25414 94.114457a3.8107312 3.8107312 0 0 0 -.0816.69907c-.0268 1.62949.0619 3.09046.81814 4.66733.75627 1.57688 2.90645 3.14522 4.83504 3.17696l15.73171.25896c1.95541.0322 3.55125-.95557 4.65606-2.02458 1.10482-1.06905 1.93813-2.33426 2.75601-3.84581a3.8107312 3.8107312 0 0 0 .37453-1.00556l.19328-.86845 9.87316.16253.1646.87433a3.8107312 3.8107312 0 0 0 .31101.96234c.74414 1.55165 1.53259 2.86575 2.61927 3.9888 1.08666 1.12305 2.6972 2.14563 4.6258 2.17737l15.1015.24859c1.82979.0301 4.069-1.00332 5.17165-2.61534 1.10263-1.61202 1.33836-3.2968 1.36686-5.02827a3.8107312 3.8107312 0 0 0 -.0585-.70137l-16.1461-94.697182a3.8107312 3.8107312 0 0 0 -.31801-1.009149c-1.72122-3.589152-5.36082-6.1374328-9.29778-6.277787a3.8107312 3.8107312 0 0 0 -.07-.00115l-13.69324-.225406a3.8107312 3.8107312 0 0 0 -.0778-.00128z" fill="#fad60b"/><path d="m160.71205 107.24564-.85149 3.92071c-1.40683 2.6-2.73964 3.88964-3.99841 3.86891l-15.73463-.259c-1.31122-.0216-1.94524-1.34362-1.90207-3.96605l19.25551-94.116382c1.35439-2.600859 3.31701-3.906361 5.88786-3.916506l13.68913.225338c2.72647.09721 4.72373 1.467897 5.99178 4.112058l16.14741 94.699152c-.0432 2.62245-.93019 3.91942-2.66097 3.89093l-15.10524-.24865c-1.31122-.0216-2.60086-1.3544-3.86891-3.99841l-.72198-3.94662zm12.75412-19.604834-3.88574-21.957243-4.68964 21.957243z" fill="url(#a)"/><path d="m169.73828 65.140625c-.48577.05123-.47354.762376.0137.796875.0247.126771.0534.269693.0527.265625.00066.0013.001.0026.002.0039l3.84766 21.732422h-.73438-5.21484-2.40625c-.0144-.000106-.0287.000562-.043.002-.0447.0049-.0579.0019-.0801 0-.30617-.169613-.74501-.721403-.74715-.221859-.00057.101695.0185.728809.0209 1.100922.002.297345.20295.332025.38224.332025h3.53384 5.68379c.39947.000013 1.0985-.424851.97798-1.445464-.73573-6.349576-2.54202-14.450024-3.68359-21.63676v-.0039c-.0136-.08141-.0645-.370015-.10742-.537109-.0181-.07209-.056-.137691-.10938-.189453-.31237-.300624-1.38867-.199219-1.38867-.199219z" fill="#bb000f"/><path d="m120.57812 65.972656c-.0956.000459-.18557.07495-.20703.167969-.00022.000959-.002.00099-.002.002l-4.6875 21.953125c-.0251.12365.0826.257814.20898.257813h2.40626 5.21484.95508c.12384.000004.23133-.127995.21093-.25v-.002l-3.88671-21.951171c-.0175-.09823-.11117-.178252-.21094-.177735a5.2627881 5.2627881 0 0 1 -.002 0z" fill="none" stroke="#fcf1b3" stroke-linecap="round" stroke-linejoin="round" stroke-width=".5" transform="translate(49.000001 -.5)"/><path d="m238.38044 110.34008q-1.71523 4.05035-5.79369 4.38676l-13.66376.86291q-3.85282.16427-6.06395-3.63792l-23.61973-93.117016q-.243-3.847848 1.71522-4.050357l15.70548-.991845q1.88466-.119021 4.17433 3.678415l11.82847 44.980521 5.84019-46.096346q1.71522-4.050357 3.67841-4.174338l15.07725-.952171q2.59635-.08532 2.83937 3.762722z" fill="#f00"/><path d="m163.34993 8.9629329c-3.85541.015032-7.44196 2.4997081-9.25039 5.9724641a3.8107312 3.8107312 0 0 0 -.35105.998136l-19.25414 94.114457a3.8107312 3.8107312 0 0 0 -.0816.69907c-.0268 1.62949.0619 3.09046.81814 4.66733.75627 1.57688 2.90645 3.14522 4.83504 3.17696l15.73171.25896c1.95541.0322 3.55125-.95557 4.65606-2.02458 1.10482-1.06905 1.93813-2.33426 2.75601-3.84581a3.8107312 3.8107312 0 0 0 .37453-1.00556l.19328-.86845 9.87316.16253.1646.87433a3.8107312 3.8107312 0 0 0 .31101.96234c.74414 1.55165 1.53259 2.86575 2.61927 3.9888 1.08666 1.12305 2.6972 2.14563 4.6258 2.17737l15.1015.24859c1.82979.0301 4.069-1.00332 5.17165-2.61534 1.10263-1.61202 1.33836-3.2968 1.36686-5.02827a3.8107312 3.8107312 0 0 0 -.0585-.70137l-16.1461-94.697182a3.8107312 3.8107312 0 0 0 -.31801-1.009149c-1.72122-3.589152-5.36082-6.1374328-9.29778-6.277787a3.8107312 3.8107312 0 0 0 -.07-.00115l-13.69324-.225406a3.8107312 3.8107312 0 0 0 -.0778-.00128z" fill="none" stroke="#fcf1b3" stroke-width=".498898"/><path d="m154.73003 33.956387c.0588-.02509.34367-.122828.40172-.149595.68901-.317746 1.3257-.754666 1.86434-1.336089m0 0c1.29458-1.397362 1.71931-3.29687 1.64844-5.097656l-.37289-9.415134-.004-.102444-.0469-1.53125" fill="#bb000f" stroke="#bb000f" stroke-width="1.5"/><path d="m150.50195 52.482422-.44726 1.253906c.161.119699-.13179.198134.0195.337891 1.43782 1.327931 2.01409 3.223855 2.08594 5.048828l.31054 7.867187c.0718 1.823895-.35162 3.761274-1.67968 5.199219-1.32797 1.437794-3.22388 2.013978-5.04883 2.085938l-.22656.0098.0586 1.498047.22656-.0078c2.10004-.08281 4.41882-.755061 6.0918-2.566407 1.67335-1.811802 2.16073-4.178702 2.07812-6.277343l-.31052-7.867188c-.0827-2.100181-.75505-4.418874-2.56641-6.091797-.19092-.176331-.38882-.339323-.5918-.490234z" fill="#bb000f"/><path d="m163.36914 12.777344c-2.57085.01014-4.53428 1.315156-5.88867 3.916015l-19.25586 94.117191c.10666.73136.0185 1.02126.0785 1.58629.0785.73877.32168 1.65963.68763 1.73569.0874.0182-.0239-1.27486.10825-1.24988 0 0 18.77205-92.031951 19.74771-96.007577.0984-.401077.86134-1.713258 1.67808-2.132909.83298-.427998 1.28298-.777644 2.40695-.893683s13.76057.293577 17.72062.296053c-1.00979-.709075-2.20625-1.093107-3.59375-1.142578z" fill="#bb000f"/><path d="m151.04257 8.9861235-55.037311 2.1632135c-1.801494.07092-3.658479.645295-4.948921 2.046481-1.29045 1.401226-1.712615 3.298784-1.641862 5.096781l3.711694 94.340801c.0708 1.79847.641334 3.65436 2.038708 4.94893 1.397366 1.29458 3.295991 1.72043 5.096762 1.64963l11.79649-.46689c1.79861-.0709 3.65644-.63927 4.94893-2.03871 1.29248-1.39943 1.71261-3.29886 1.64186-5.09678l-1.43177-36.377658 28.51856-1.120511c1.79859-.07092 3.65643-.639318 4.94892-2.038712 1.2925-1.399434 1.71263-3.298864 1.64186-5.096781l-.31127-7.866922c-.0708-1.798595-.6393-3.656471-2.03871-4.948933s-3.2989-1.71254-5.09677-1.641863l-28.51077 1.12832-.70032-17.725865 36.37769-1.431784c1.79849-.07091 3.65434-.64131 4.94893-2.038712 1.29458-1.397362 1.72051-3.295955 1.64964-5.096741l-.46688-11.796499c-.0708-1.798595-.6393-3.656471-2.03871-4.948933-1.39941-1.2924623-3.29889-1.7125393-5.09677-1.6418625z" fill="#fad60b"/><path d="m114.16869 72.434629 1.54721 39.311471q.1547 3.93113-3.77643 4.08587l-11.79344.46418q-3.931147.15458-4.085867-3.77647l-3.713303-94.347498q-.1547-3.931171 3.776426-4.085871l55.036054-2.166122q3.93115-.154581 4.08587 3.77647l.46416 11.793392q.1547 3.931171-3.77642 4.085911l-39.31147 1.547201.92832 23.586864 31.44918-1.237761q3.93115-.154581 4.08586 3.77643l.30945 7.862262q.15474 3.93117-3.77643 4.08591z" fill="url(#c)"/><path d="m151.04257 8.9861235-55.037311 2.1632135c-1.801494.07092-3.658479.645295-4.948921 2.046481-1.29045 1.401226-1.712615 3.298784-1.641862 5.096781l3.711694 94.340801c.0708 1.79847.641334 3.65436 2.038708 4.94893 1.397366 1.29458 3.295991 1.72043 5.096762 1.64963l11.79649-.46689c1.79861-.0709 3.65644-.63927 4.94893-2.03871 1.29248-1.39943 1.71261-3.29886 1.64186-5.09678l-1.43177-36.377658 28.51856-1.120511c1.79859-.07092 3.65643-.639318 4.94892-2.038712 1.2925-1.399434 1.71263-3.298864 1.64186-5.096781l-.31127-7.866922c-.0708-1.798595-.6393-3.656471-2.03871-4.948933s-3.2989-1.71254-5.09677-1.641863l-28.51077 1.12832-.70032-17.725865 36.37769-1.431784c1.79849-.07091 3.65434-.64131 4.94893-2.038712 1.29458-1.397362 1.72051-3.295955 1.64964-5.096741l-.46688-11.796499c-.0708-1.798595-.6393-3.656471-2.03871-4.948933-1.39941-1.2924623-3.29889-1.7125393-5.09677-1.6418625z" fill="none" stroke="#fcf1b3" stroke-width=".5"/><path d="m190.57114 11.11226c-1.8533.191691-3.76931 1.795991-4.42696 3.359304-.65766 1.563314-.68347 3.005089-.58287 4.597962a3.6913849 3.6913849 0 0 0 .10481.671697l23.61827 93.115147a3.6913849 3.6913849 0 0 0 .38747.95013c1.9528 3.35796 5.59381 5.63446 9.40548 5.47195a3.6913849 3.6913849 0 0 0 .0777-.005l13.6679-.86317a3.6913849 3.6913849 0 0 0 .0699-.004c3.88839-.32061 7.34603-2.99723 8.88311-6.62692a3.6913849 3.6913849 0 0 0 .26486-.99133l11.71637-95.346626a3.6913849 3.6913849 0 0 0 .0195-.679547c-.10695-1.693548-.42417-3.338647-1.56173-4.85234-1.13753-1.5136947-3.29724-2.4277913-5.07722-2.3692723a3.6913849 3.6913849 0 0 0 -.1087.00687l-15.08129.9524257c-1.88522.1190573-3.41846 1.1960756-4.43587 2.3540886-1.01741 1.158014-1.73517 2.491114-2.40196 4.065703a3.6913849 3.6913849 0 0 0 -.26584.975781l-3.4494 27.233853-6.99665-26.589724a3.6913849 3.6913849 0 0 0 -.40448-.97245c-.88206-1.462923-1.76992-2.67139-2.90646-3.675891-1.13653-1.004501-2.74761-1.900431-4.65795-1.779788l-15.71032.992151a3.6913849 3.6913849 0 0 0 -.14756.0093z" fill="none"/><path d="m113.5498 56.710027.25617 3.689129-18.087247.646501-.279275-4.707779 17.873602-.598447.2182.556513z" fill="#f1010e" fill-rule="evenodd"/><path d="m151.16016 11.919922-55.037112 2.166016c-2.620751.103133-3.878524 1.465156-3.775391 4.085937l3.712891 94.347655c.07494 1.90404.822674 3.07864 2.226562 3.54492l-3.697265-98.167966c-.09415-1.755301.754484-2.161014 3.271484-2.255859l56.205081-2.082031.65162-.0206-.19097-.298512-.32589-.385965c-.68197-.670313-1.69037-.986704-3.04101-.933595z" fill="#bb000f"/><path d="m190.57114 11.11226c-1.8533.191691-3.76931 1.795991-4.42696 3.359304-.65766 1.563314-.68347 3.005089-.58287 4.597962a3.6913849 3.6913849 0 0 0 .10481.671697l23.61827 93.115147a3.6913849 3.6913849 0 0 0 .38747.95013c1.9528 3.35796 5.59381 5.63446 9.40548 5.47195a3.6913849 3.6913849 0 0 0 .0777-.005l13.6679-.86317a3.6913849 3.6913849 0 0 0 .0699-.004c3.88839-.32061 7.34603-2.99723 8.88311-6.62692a3.6913849 3.6913849 0 0 0 .26486-.99133l11.71637-95.346626a3.6913849 3.6913849 0 0 0 .0195-.679547c-.10695-1.693548-.42417-3.338647-1.56173-4.85234-1.13753-1.5136947-3.29724-2.4277913-5.07722-2.3692723a3.6913849 3.6913849 0 0 0 -.1087.00687l-15.08129.9524257c-1.88522.1190573-3.41846 1.1960756-4.43587 2.3540886-1.01741 1.158014-1.73517 2.491114-2.40196 4.065703a3.6913849 3.6913849 0 0 0 -.26584.975781l-3.4494 27.233853-6.99665-26.589724a3.6913849 3.6913849 0 0 0 -.40448-.97245c-.88206-1.462923-1.76992-2.67139-2.90646-3.675891-1.13653-1.004501-2.74761-1.900431-4.65795-1.779788l-15.71032.992151a3.6913849 3.6913849 0 0 0 -.14756.0093z" fill="#fad60b"/><path d="m238.38044 110.34008q-1.71523 4.05035-5.79369 4.38676l-13.66376.86291q-3.85282.16427-6.06395-3.63792l-23.61973-93.117016q-.243-3.847848 1.71522-4.050357l15.70548-.991845q1.88466-.119021 4.17433 3.678415l11.82847 44.980521 5.84019-46.096346q1.71522-4.050357 3.67841-4.174338l15.07725-.952171q2.59635-.08532 2.83937 3.762722z" fill="url(#d)"/><g fill="#bb000f"><path d="m206.66016 13.792969-15.70508.992187c-1.30548.135006-1.87685 1.483596-1.71485 4.048828l23.61915 93.117186c.35197.60524.73574 1.13365 1.1509 1.58619l-23.6557-95.149329c-.40615-2.018024.53954-2.099598 1.20818-2.173936l17.42977-1.154496c-.54108-.488365-.57888-.67095-1.18467-.97045-.36451-.180208-.71708-.301376-1.1477-.29618z"/><path d="m247.25781 11.228516-15.07617.953125c-1.30879.08265-2.53425 1.47359-3.67773 4.173828l-5.8411 46.096079.93598.0066 6.26448-46.115132c.29702-.859923 1.22561-2.320514 2.01278-2.606859l17.71586-1.079364c-.29049-.62101-1.0354-1.470928-2.3341-1.428251z" fill-rule="evenodd"/><path d="m287.80664 10.996094-5.19106.341227s-3.29556.599124-4.91441 1.022054c-.81121.211931-1.61869.449633-2.39844.757813-2.27062.897419-4.53265 1.874747-6.60575 3.164443-2.67136 1.661877-5.05325 3.760397-7.41964 5.833603-.2708.237248-.53422.484835-.77343.753907-3.41753 3.844245-6.25072 7.067553-8.96485 12.08789-.1137.21032-.22185.423693-.33398.634766l-5.18946 42.779297c.26403 1.212694.5536 2.411383.88868 3.58789l.43945-2.923828 5.12695-42.603515c.12882-1.300378 1.48942-3.222653 2.60587-4.91421 1.83384-2.778504 3.72926-5.635284 6.58554-8.165869 4.09053-4.137262 6.95999-6.582871 12.44134-8.73324.51587-.202376 3.21936-1.194644 3.75397-1.370238 0 0 1.49693-.243639 2.25218-.300143 6.2389-.46676 18.76634-.3165 18.76634-.3165-.20874-.06679-.23658-.0822-1.54391-.424411l-3.95393-.816534z" fill-rule="evenodd"/><path d="m287.91406 28.699219c.39641.04696.68479.254427.98021.585242.34493.38626.56098.69743.87917 1.383508l6.37304 19.669922h7.37696l-5.54554-.0054-7.22232-20.332624c-.35351-.858959-.75554-1.209257-1.19692-1.283788zm28.42969 21.71289c.24458.154441.96875.599256.96875.871094 0 .681935-.6554 1.678849-1.9668 2.990235l-14.16406 10.30664 8.26367 25.09961c.41965.891733.62891 1.549097.62891 1.96875 0 .419651-.20926.628906-.62891.628906-.41964 0-1.07699-.209255-1.96875-.628906l-19.66992-16.603516-19.67187 16.603516c-.58986.277581-.9223.419755-1.30559.513728l-.70246.127813 1.20279.07024 2.22236-.210421 18.36221-15.235736 2.21234.129428 17.43704 14.700088c2.10588.986435 3.86138.772282 3.33283-1.289859l-7.89434-25.424421 13.7793-10.443359c.88805-.673052 2.8729-3.97852.81541-4.159024z" fill-rule="evenodd"/><path d="m362.43359 32.785156c2.61539.378965 4.87492 1.561019 6.76758 3.56836 2.23923 2.374901 3.31045 5.188608 3.21485 8.439453-.0956 3.250872-1.33018 5.99515-3.70508 8.234375-2.3749 2.239224-5.18861 3.310434-8.43946 3.214844l-11.75977-.322266-.0513.880094 14.26394.371822c2.40774-.09312 10.84361-2.790285 11.06997-12.467756.15501-6.62748-4.08379-11.722037-11.36076-11.918926z" fill-rule="evenodd"/><path d="m366.81055 73.109375c-1.33335-.723285-4.45907-.908471-4.45907-.908471 1.05463.391528 2.11671.654804 3.403 1.498425.71873.471377 1.78102 1.389209 2.29044 2.002456.748.900453 1.52541 1.752486 2.05556 2.810848.47195.942187.84423 2.000392 1.02932 3.082869.14156.827894.15529 1.660816.12997 2.521686l-.0586 1.966796-.75 25.560546c-.0507 1.72558.49486 2.88852 1.61328 3.51172l.87799-31.259162c.0672-2.39398-.98794-4.783227-2.2334-6.828829-.96315-1.581916-2.27053-3.075785-3.89849-3.958884z" fill-rule="evenodd"/><path d="m406.73828 12.742188-11.78906.558593c-2.61985.124208-3.86835 1.495379-3.74414 4.115235l.45312 9.564453c2.84907 4.990404 4.24536 10.576318 4.07032 16.529297-.1216 4.13531-1.07954 8.002087-2.73633 11.576172.89563 18.731891 1.87925 39.5945 2.68554 56.644532.0793 1.6718.67207 2.77958 1.76758 3.33398l-2.93554-59.628903s2.10274-3.210605 2.375-12.226563-3.70118-16.5-3.70118-16.5l-.44885-10.3116c-.0873-.468462.93967-1.380349 1.60783-1.367161l15.94928-.727086c-.61842-.952591-1.7089-1.648406-3.55357-1.560949z" fill-rule="evenodd"/></g><g transform="translate(-43.838095 .828427)"><g fill="#dfdfdf" transform="matrix(3.9597396 .4393481 -.4393481 3.9597396 -16.661592 -1142.3426)"><path d="m160.98438 273.77148c-2.45269 0-4.65854.8549-6.40626 2.49805-1.74717 1.64264-2.68554 3.75438-2.68554 6.09961 0 2.34519.938 4.45857 2.68554 6.10156 1.74812 1.64352 3.95428 2.49611 6.40626 2.4961.5493 0 .86.12758 1.25195.51953.39196.39196.51953.70263.51953 1.25195 0 .54933-.12757.85999-.51953 1.25195-.39195.39195-.70265.51954-1.25195.51954h-5.92579c-.53439 0-1.13371.14736-1.58203.5957-.44831.44831-.5957 1.04762-.5957 1.58203v2.96289c0 .53476.14866 1.13365.5957 1.58203.4474.44872 1.04605.59766 1.58203.59766h5.92579c2.45268 0 4.65691-.85521 6.40429-2.49805 1.7468-1.64229 2.6875-3.75364 2.6875-6.09961 0-2.34592-.94034-4.45892-2.6875-6.10156-1.74777-1.64321-3.95232-2.49609-6.40429-2.49609-.54933 0-.86-.12758-1.25196-.51954-.39195-.39196-.51953-.70262-.51953-1.25195 0-.54931.12758-.85999.51953-1.25195.39196-.39196.70261-.51952 1.25196-.51953h5.92382c.53475 0 1.13365-.14865 1.58203-.59571.44872-.44739.59766-1.04605.59766-1.58203v-2.96289c0-.53632-.1502-1.13457-.59766-1.58203-.44746-.44744-1.0457-.59766-1.58203-.59766z"/><path d="m160.98392 295.70054q1.22449 0 2.09348-.86899.86899-.86899.86899-2.09348 0-1.22448-.86899-2.09347-.86899-.86899-2.09348-.86899-3.27846 0-5.58918-2.17247-2.31072-2.17248-2.31072-5.23369 0-3.06121 2.31072-5.23369 2.31072-2.17247 5.58918-2.17247h5.92493q.98749 0 .98749.98749v2.96246q0 .98749-.98749.98749h-5.92493q-1.22448 0-2.09347.86899-.86899.86899-.86899 2.09347 0 1.22449.86899 2.09348.86899.86899 2.09347.86899 3.27847 0 5.58919 2.17247 2.31072 2.17248 2.31072 5.23369 0 3.06121-2.31072 5.23368-2.31072 2.17248-5.58919 2.17248h-5.92492q-.98749 0-.98749-.98749v-2.96246q0-.98749.98749-.98749z"/></g><g fill="#845f23" transform="matrix(3.9597396 .4393481 -.4393481 3.9597396 -18.286592 -1143.9676)"><path d="m160.98438 273.77148c-2.45269 0-4.65854.8549-6.40626 2.49805-1.74717 1.64264-2.68554 3.75438-2.68554 6.09961 0 2.34519.938 4.45857 2.68554 6.10156 1.74812 1.64352 3.95428 2.49611 6.40626 2.4961.5493 0 .86.12758 1.25195.51953.39196.39196.51953.70263.51953 1.25195 0 .54933-.12757.85999-.51953 1.25195-.39195.39195-.70265.51954-1.25195.51954h-5.92579c-.53439 0-1.13371.14736-1.58203.5957-.44831.44831-.5957 1.04762-.5957 1.58203v2.96289c0 .53476.14866 1.13365.5957 1.58203.4474.44872 1.04605.59766 1.58203.59766h5.92579c2.45268 0 4.65691-.85521 6.40429-2.49805 1.7468-1.64229 2.6875-3.75364 2.6875-6.09961 0-2.34592-.94034-4.45892-2.6875-6.10156-1.74777-1.64321-3.95232-2.49609-6.40429-2.49609-.54933 0-.86-.12758-1.25196-.51954-.39195-.39196-.51953-.70262-.51953-1.25195 0-.54931.12758-.85999.51953-1.25195.39196-.39196.70261-.51952 1.25196-.51953h5.92382c.53475 0 1.13365-.14865 1.58203-.59571.44872-.44739.59766-1.04605.59766-1.58203v-2.96289c0-.53632-.1502-1.13457-.59766-1.58203-.44746-.44744-1.0457-.59766-1.58203-.59766z"/><path d="m160.98392 295.70054q1.22449 0 2.09348-.86899.86899-.86899.86899-2.09348 0-1.22448-.86899-2.09347-.86899-.86899-2.09348-.86899-3.27846 0-5.58918-2.17247-2.31072-2.17248-2.31072-5.23369 0-3.06121 2.31072-5.23369 2.31072-2.17247 5.58918-2.17247h5.92493q.98749 0 .98749.98749v2.96246q0 .98749-.98749.98749h-5.92493q-1.22448 0-2.09347.86899-.86899.86899-.86899 2.09347 0 1.22449.86899 2.09348.86899.86899 2.09347.86899 3.27847 0 5.58919 2.17247 2.31072 2.17248 2.31072 5.23369 0 3.06121-2.31072 5.23368-2.31072 2.17248-5.58919 2.17248h-5.92492q-.98749 0-.98749-.98749v-2.96246q0-.98749.98749-.98749z"/></g><g fill="none" stroke="#fcf1b3" stroke-width=".125501" transform="matrix(3.9597396 .4393481 -.4393481 3.9597396 -20.054362 -1145.7356)"><path d="m160.98438 274.16211c-2.36339 0-4.46022.81258-6.13868 2.39062-1.67759 1.57723-2.5625 3.57346-2.5625 5.81641s.88465 4.24089 2.5625 5.81836c1.67873 1.57828 3.77577 2.38868 6.13868 2.38867.62875 0 1.07965.18708 1.52734.63477s.63476.89859.63476 1.52734c0 .62876-.18707 1.07965-.63476 1.52734s-.89859.63477-1.52734.63477h-5.92579c-.46318 0-.95284.12666-1.30664.48047-.35379.35379-.48047.84345-.48047 1.30664v2.96289c0 .46324.1273.95242.48047 1.30664.35323.35427.84261.48242 1.30664.48242h5.92579c2.36336 0 4.45849-.81281 6.13671-2.39062 1.67735-1.577 2.56446-3.57295 2.56446-5.81641 0-2.24344-.88685-4.24111-2.56446-5.81836-1.67848-1.57806-3.77384-2.38867-6.13671-2.38867-.62877 0-1.07965-.18707-1.52735-.63477-.44768-.44769-.63476-.89858-.63476-1.52734 0-.62875.18708-1.07965.63476-1.52734.4477-.44769.89857-.63476 1.52735-.63477h5.92382c.46324 0 .95241-.12729 1.30664-.48047.35427-.35322.48243-.8426.48243-1.30664v-2.96289c0-.46408-.12878-.95299-.48243-1.30664-.35367-.35365-.84254-.48242-1.30664-.48242z"/><path d="m160.98392 295.70054q1.22449 0 2.09348-.86899.86899-.86899.86899-2.09348 0-1.22448-.86899-2.09347-.86899-.86899-2.09348-.86899-3.27846 0-5.58918-2.17247-2.31072-2.17248-2.31072-5.23369 0-3.06121 2.31072-5.23369 2.31072-2.17247 5.58918-2.17247h5.92493q.98749 0 .98749.98749v2.96246q0 .98749-.98749.98749h-5.92493q-1.22448 0-2.09347.86899-.86899.86899-.86899 2.09347 0 1.22449.86899 2.09348.86899.86899 2.09347.86899 3.27847 0 5.58919 2.17247 2.31072 2.17248 2.31072 5.23369 0 3.06121-2.31072 5.23368-2.31072 2.17248-5.58919 2.17248h-5.92492q-.98749 0-.98749-.98749v-2.96246q0-.98749.98749-.98749z"/></g><path d="m496.92266 10.842908c-9.30313-1.0322181-17.89634 1.249703-25.1886 6.725386-7.28828 5.472677-11.62677 12.918048-12.60519 21.736309-.97842 8.81826 1.62075 17.040325 7.53295 23.978568 5.91547 6.942012 13.80117 11.043591 23.10256 12.075615 2.53882.281693 4.32474 1.26535 5.93141 3.273049 1.6067 2.007744 2.17487 3.965797 1.89318 6.504623-.2817 2.538867-1.26527 4.324708-3.27301 5.931415-2.0077 1.606671-3.9658 2.174915-6.50463 1.893223l-23.46458-2.603485c-1.79004-.198611-3.71575.08417-5.20718 1.277733-1.49142 1.193519-2.18949 3.010355-2.38811 4.800435l-1.30174 11.732271c-.19862 1.79008.0865 3.71404 1.27773 5.20718 1.19129 1.49313 3.00661 2.19693 4.79958 2.39587l23.46458 2.60349c9.30305 1.0322 17.88954-1.2513 25.18084-6.72625 7.28727-5.47195 11.63429-12.915371 12.61291-21.735493.97862-8.820082-1.62928-17.042115-7.54067-23.979425-5.91465-6.941119-13.79348-11.042739-23.09479-12.074754-2.53887-.281697-4.32475-1.26531-5.93145-3.273054-1.60667-2.007739-2.17488-3.965757-1.89319-6.504623.2817-2.538826 1.26531-4.324703 3.27301-5.931414 2.00774-1.606667 3.9658-2.174916 6.50467-1.893219l23.45678 2.602619c1.79008.198616 3.71404-.08645 5.20722-1.277729 1.49313-1.191244 2.1969-3.006607 2.39583-4.799577l1.30174-11.732273c.19894-1.79297-.092-3.71674-1.28545-5.208031-1.19345-1.491295-3.00661-2.196899-4.79962-2.39584z" fill="#fad60b"/><path d="m487.48457 95.889517q4.84866.537978 8.67143-2.521207 3.82276-3.059185 4.36074-7.907847.53797-4.848622-2.52122-8.671385-3.05918-3.822763-7.90784-4.360741-12.98185-1.440385-21.17723-11.058011-8.19537-9.617665-6.85044-21.73926 1.34494-12.121594 11.44926-19.708839 10.10432-7.587205 23.08617-6.14682l23.46118 2.603107q3.91021.433852 3.47635 4.344055l-1.30155 11.73057q-.43385 3.910204-4.34405 3.476352l-23.46118-2.603107q-4.84862-.537973-8.67139 2.521212-3.82276 3.059185-4.36073 7.907807-.53798 4.848662 2.5212 8.671425 3.05919 3.822763 7.90781 4.360736 12.98189 1.44039 21.17727 11.058015 8.19537 9.617666 6.85043 21.73926-1.34493 12.121591-11.44925 19.708801-10.10433 7.58724-23.08621 6.14685l-23.46114-2.6031q-3.91021-.43385-3.47636-4.34405l1.30156-11.730574q.43385-3.910203 4.34405-3.476351z" fill="url(#h)"/><g fill="#bb000f" fill-rule="evenodd"><path d="m491.82812 13.552734c-6.4701.131192-12.34945 2.113378-17.65234 5.90625l-4.9668 4.341797c-1.51337 1.913918-3.6035 4.624427-4.2246 6.328125l-1.76368 3.927735c-.55473 1.771045-.94419 3.627817-1.16015 5.574218-.47248 4.258331-.20945 7.783064 1.08398 11.578125 1.59024-.0423 1.68179 4.791652 2.98829 5.851563 1.50655 1.222248 2.66966 3.210094 2.85547 5.019531l2.36718 1.804688c.81618.815497.68402.640742 1.56319 1.349073 0 0-5.08278-7.474413-7.12493-11.492571-.49724-.978371-.17299-1.560552-1.23789-3.050857-.89129-1.865879-1.25104-5.606341-1.50222-7.461167.0883-2.702104.62324-6.564275 1.31337-8.029962l3.31674-8.071299c2.37232-1.487148 3.16424-4.049879 4.94129-5.135795l2.75-1.84375c2.0521-2.513827 6.10319-3.050321 9.125-3.9375 1.7793-.522387 6.20678-1.209759 8.65755-.93637l30.20964 3.369963c-.42026-1.302052-1.51254-2.066129-3.31055-2.265625l-23.46096-2.603515c-1.62273-.180048-3.21228-.254193-4.76758-.222657zm-9.93164 81.716797c-17.4255-1.406711-21.11552-1.561952-21.08007-1.216797l-2.04297 13.742186c.18581 1.8094 1.55804 1.10546.33367 2.61007-.54317.6675.64292-.24644-.0872.12876l1.42513 1.5415s-1.07559.81813-.77021-.34784c.29929-1.14276.83152-15.949367 2.16273-16.67048l11.2601.900101z"/><path d="m498.96836 77.893916c3.03764 5.346037 1.83091 11.653269-2.81212 15.475217-2.37863 1.844771-5.68008 2.851535-8.67187 2.519531l-4.68165-.519531c-.57053-.06331-.48154 1.183766.0906 1.230661l2.67991.21967c1.76128.144371 3.49525.404462 5.30113.08839 9.46413-1.564522 13.66377-11.649386 9.65468-18.638213-.93959-1.351608-3.6947-2.942786-3.6947-2.942786s1.78091 1.960927 2.13404 2.567063z"/></g></g></svg>