<svg height="225pt" viewBox="0 0 982 225" width="982pt" xmlns="http://www.w3.org/2000/svg"><g fill="#fff"><path d="m22.97 0h88.28c6.78 1.84 11.38 7.16 16.01 12.04 3.27-5.7 8.38-10.02 14.67-12.04h67.33c8.09 2.32 13.17 9.24 19.03 14.73 5.74-5.53 10.43-12.69 18.66-14.73h39.28c4.53 1.46 8.74 3.82 11.99 7.34 3.6-3.34 7.9-5.77 12.54-7.34h24.47c6.92 1.71 11.76 6.98 16.35 12.05 3.25-5.98 8.56-10.44 15.25-12.05h73.41c6.4 2.02 11.67 6.23 15.8 11.43 4-5.35 9.16-9.79 15.79-11.43h80.35c6.61 1.64 11.77 6.07 15.76 11.41 4.37-4.92 9.37-9.45 15.81-11.41h38.48c4.64 1.56 8.95 4 12.55 7.34 3.25-3.52 7.47-5.89 12.01-7.34h88.29c4.04 1.65 7.96 3.66 11.32 6.48 3.78-2.77 7.99-4.88 12.39-6.48h88.3c6.71 1.94 11.12 7.33 15.97 11.92 2.98-5.91 8.48-9.92 14.7-11.92h81.29c10.33 3.77 18.46 12.84 22.95 22.68v18.59c-3.34 5.33-3.9 11.4 0 16.64v47.39c-2.97 9.11-11.59 14.2-17.19 21.51-4.72 6.57-13.2 8.12-20.77 8.21-21.69-.03-43.39-.03-65.08 0-7.31 0-15.15-1.61-20.1-7.44-5.15 5.93-13.32 7.49-20.81 7.46-23.37-.07-46.73-.05-70.09-.01-7.95-.1-16.92-1.21-22.16-7.92-2.65 2.17-5.37 4.23-8.19 6.16 5.22 9.07 2.95 19.8 3.39 29.73-.23 7.01 1.01 14.49-1.89 21.09-9.52 10.14-18.18 21.09-28.75 30.27-3.64 4.33-7.51 8.68-13.01 10.64h-29.77c-7.64-3.12-11.71-10.66-17.71-15.86-4.49-5.91-11.06-9.72-15.45-15.7-7.42 9.79-17.39 17.31-25.39 26.6-2.47 2.33-5.67 3.63-8.74 4.96h-26.59c-8.83-2.3-12.69-11.03-19.52-16.16-4.29-5.71-10.62-9.29-15.29-14.63-3.77 6.31-10.3 10.2-14.43 16.26-6.17 4.29-10.25 11.02-17 14.53h-31.91c-6.85-4.16-11.46-10.9-17.69-15.84-4.19-5.97-11.15-9.35-14.67-15.82-7.53 9.34-16.98 16.95-24.95 25.93-3.15 3.45-7.99 4.15-12.16 5.73h-20.23c-10.56-2-16.61-11.01-23.91-17.9-4.07-5.59-10.47-8.93-14.2-14.82-7.08 9.27-16.33 16.68-24.12 25.37-3.46 4.62-9.49 5.43-14.54 7.35h-17.15c-4.24-1.71-9.13-2.21-12.75-5.18-10.74-11.57-21.71-23.02-33.65-33.36-6.39-6.86-4.18-16.97-4.53-25.46.56-10.05-2.28-21.31 4.2-30.05-2.21-2.57-4.41-5.15-6.78-7.57-6.37 12.78-22.97 13.08-35.11 10.36-6.24-.77-9.96-6.09-13.94-10.31-2.67 3.56-5.1 7.86-9.59 9.33-10.57 3.58-21.87 1.83-32.79 2.29-7.77-.02-17.01-.16-22.54-6.49-3.34-3.99-8.24-6.77-10.25-11.78-3.53-7.76-1.86-16.45-2.2-24.67-8.95 1.35-18.08 1.15-27.08.39-.15 11.04 2.66 25.12-8.27 32.16-6.1 9.16-17.37 11.14-27.64 10.38-11.35-.62-23.8 2-34.14-3.92-5.6-5.68-12.2-11.01-14.87-18.83v-89.59c4.47-9.86 12.62-18.93 22.97-22.7m2.39 18.3c-.09 2.27-.21 4.53-.32 6.8-2.28.1-4.55.23-6.82.32-.09 28.05-.11 56.1.01 84.15 2.25.11 4.5.25 6.75.38.14 2.25.29 4.49.41 6.74 11.5-.08 23.01-.05 34.52-.01.18-2.39.4-4.78.55-7.17 2.22-.09 4.44-.21 6.66-.32.41-11.61.02-23.24.17-34.85 13.92-.03 27.85.34 41.76-.15.15-2.07.28-4.13.41-6.19 2.2-.16 4.39-.36 6.59-.49.1-2.19.14-4.38.2-6.57-2.22-.2-4.44-.39-6.66-.55-.18-2.19-.37-4.37-.56-6.55-13.89-.59-27.81-.15-41.71-.18-.09-4.78-.09-9.56-.02-14.34 13.91-.06 27.83.38 41.73-.19.18-2.18.38-4.37.55-6.55 2.2-.17 4.39-.35 6.59-.53.04-2.09.06-4.18.06-6.27-2.25-.1-4.5-.21-6.75-.28-.14-2.4-.35-4.79-.53-7.18-27.86.05-55.72.09-83.59-.02m118.84.02c-.02 2.22-.04 4.44-.05 6.66 2.31.18 4.62.35 6.93.49.07 2.16.09 4.32.13 6.47-2.24.22-4.47.44-6.71.63-.2 2.22-.44 4.44-.67 6.66-2.12-.04-4.24-.06-6.36-.11-.18-2.28-.38-4.56-.59-6.84-2.21-.02-4.42-.03-6.63-.04.05 25.78.04 51.56.01 77.34 2.24.1 4.48.24 6.72.37.13 2.24.28 4.49.4 6.73 11.5-.05 23-.07 34.51.01.19-2.21.39-4.43.57-6.64 2.18-.18 4.36-.36 6.54-.51.73-14.05.07-28.14.3-42.2 6.9.09 13.8.08 20.7.01.82 14.05.18 28.14.3 42.21 2.26.11 4.52.25 6.78.38.11 2.24.24 4.49.34 6.73 4.49.02 8.98.02 13.47 0 .2-2.2.4-4.41.57-6.61 2.19-.18 4.37-.39 6.55-.53.57-23.15.45-46.35.07-69.51-2.21-.36-4.4-.78-6.6-1.15-.15-2.03-.31-4.06-.47-6.08-2.18-.11-4.36-.21-6.54-.27-.12-2.36-.33-4.71-.48-7.07-2.04-.15-4.08-.3-6.11-.46-.17-2.17-.4-4.34-.54-6.51-21.04-.31-42.09.01-63.14-.16m105.22 0c-.08 2.26-.19 4.51-.29 6.77-2.28.12-4.55.24-6.83.34.1 25.7.08 51.41.01 77.11 2.24.13 4.47.29 6.71.43.19 2.15.38 4.3.55 6.45 2.17.18 4.33.37 6.5.56.13 2.24.26 4.47.37 6.71 13.84-.09 27.69-.05 41.53-.02.18-2.18.39-4.36.52-6.55 2.16-.22 4.31-.44 6.48-.62.19-2.12.38-4.24.53-6.36 2.13-.23 4.25-.44 6.38-.64.25-2.28.56-4.55.78-6.83 2.1-.18 4.2-.37 6.3-.57.19-1.95.38-3.9.57-5.86 4.74.19 8.42-2.01 7.55-7.26 1.93-.19 3.87-.35 5.81-.5.25-2.28.55-4.56.77-6.84 2.17-.18 4.34-.37 6.52-.56.37-16.06.38-32.15 0-48.21-2.16-.2-4.31-.39-6.47-.58-.25-2.32-.54-4.64-.83-6.95-6.82-.01-13.65.03-20.47-.04-.09 2.26-.22 4.52-.32 6.79-2.27.11-4.53.24-6.79.33-.02 13.91.31 27.84-.13 41.75-2.23.09-4.46.2-6.69.28-.15 2.41-.38 4.82-.59 7.23-2.18-.01-4.36-.02-6.53-.01-.06-16.29.29-32.6-.15-48.89-2.24-.1-4.48-.21-6.72-.27-.12-2.4-.34-4.79-.5-7.19-11.53.04-23.05.06-34.57 0m118.79.02c.09 2.33.19 4.67.27 7 2.24.16 4.48.36 6.73.54.01 2.05.01 4.1 0 6.15-2.22.18-4.43.37-6.64.54-.17 2.21-.35 4.42-.52 6.63-2.07.02-4.13.03-6.19.01-.17-2.25-.35-4.5-.49-6.75-2.35-.08-4.7-.17-7.04-.26.03 23.46.07 46.92-.02 70.38 2.23.1 4.47.23 6.71.36.18 2.17.36 4.33.53 6.5 2.17.17 4.34.35 6.52.54.13 2.24.26 4.47.37 6.7 23.37-.07 46.74-.06 70.11 0 .09-2.24.21-4.47.34-6.71 2.16-.17 4.32-.35 6.49-.51.02-2.24.15-4.47.2-6.71 2.19-.2 4.38-.42 6.58-.63.37-23.07.36-46.17.01-69.25-2.2-.21-4.4-.42-6.6-.62-.04-2.24-.17-4.47-.19-6.71-2.17-.16-4.33-.34-6.49-.51-.13-2.24-.25-4.47-.34-6.71-23.45.08-46.89.03-70.34.02m105.24-.02c-.07 2.26-.18 4.52-.27 6.78-2.3.11-4.58.24-6.87.33.14 28.03.1 56.06.02 84.09 2.39.14 4.78.38 7.17.57.12 2.2.34 4.39.51 6.59 11.51-.04 23.03-.06 34.54 0 .08-2.25.2-4.5.32-6.75 2.27-.13 4.55-.27 6.82-.37-.07-6.95-.23-13.9.09-20.85 2.13 0 4.27.01 6.41.05.08 2.26.19 4.53.26 6.8 2.23.1 4.47.23 6.71.35.1 2.22.21 4.43.29 6.65 2.23.11 4.47.24 6.71.37.11 2.21.22 4.42.29 6.63 2.23.11 4.45.24 6.69.37.1 2.24.22 4.49.3 6.74 4.7.01 9.41.01 14.11 0 .09-2.25.21-4.49.33-6.74 2.26-.13 4.53-.27 6.81-.37-.12-9.31.08-18.62-.14-27.93-2.22-.19-4.43-.39-6.63-.59-.15-2.2-.28-4.4-.38-6.6-2.28-.08-4.56-.2-6.82-.3-.02-2.08-.01-4.16.03-6.23 2.2-.17 4.42-.35 6.63-.51.18-2.16.37-4.32.58-6.48 2.23-.14 4.47-.28 6.72-.39-.04-9.36-.06-18.72.01-28.08-2.26-.12-4.5-.28-6.74-.42-.2-2.15-.38-4.29-.54-6.44-2.18-.19-4.35-.39-6.52-.59-.14-2.22-.26-4.45-.35-6.67-25.7.04-51.39.06-77.09-.01m112 0c-.08 2.25-.18 4.5-.27 6.75-2.09.13-4.19.24-6.27.36-.42 28.01-.51 56.08.05 84.09 2.17.18 4.35.39 6.53.61.13 2.19.34 4.37.52 6.55 11.52-.04 23.04-.07 34.56.01.09-2.26.22-4.52.35-6.78 2.25-.11 4.52-.23 6.78-.32-.06-28.06-.06-56.12 0-84.18-2.27-.09-4.53-.21-6.78-.32-.13-2.26-.25-4.52-.35-6.78-11.71.08-23.42.06-35.12.01m63 .01c-.06 2.26-.17 4.52-.26 6.78-2.29.11-4.58.23-6.87.32.01 4.64.04 9.28.18 13.91 2.2.17 4.39.37 6.6.56.14 2.05.27 4.11.39 6.16 7.04.68 14.12.31 21.18.27.15 21.07-.42 42.16.26 63.22 2.06.14 4.11.29 6.18.46.17 2.17.36 4.35.53 6.53 9.31.25 18.62.02 27.93.15.09-2.26.22-4.51.35-6.77 2.26-.11 4.52-.24 6.79-.33.1-20.94-.23-41.88.15-62.81 6.89-.32 13.79-.15 20.69-.11.1-2.27.24-4.53.37-6.8 2.24-.13 4.48-.26 6.73-.36.02-4.69.03-9.38.04-14.07-2.27-.11-4.53-.25-6.78-.38-.13-2.25-.25-4.49-.34-6.74-28.04.07-56.08.05-84.12.01m117.76.01c.08 2.34.18 4.67.27 7.01 2.24.15 4.48.34 6.73.52.01 2.05.01 4.1-.01 6.15-2.22.19-4.42.38-6.63.55-.16 2.21-.35 4.42-.52 6.62-2.07.03-4.13.03-6.18.03-.19-2.26-.36-4.51-.5-6.76-2.35-.08-4.7-.17-7.04-.26.03 23.46.08 46.92-.02 70.38 2.23.1 4.47.24 6.71.37.18 2.16.36 4.33.53 6.49 2.17.17 4.34.35 6.52.54.12 2.23.26 4.47.37 6.7 23.37-.07 46.74-.06 70.11 0 .08-2.24.2-4.48.34-6.71 2.15-.18 4.31-.35 6.48-.51.03-2.24.16-4.48.21-6.71 2.19-.2 4.38-.42 6.58-.62.37-23.08.36-46.18.01-69.26-2.21-.2-4.4-.42-6.6-.62-.05-2.24-.17-4.47-.2-6.7-2.16-.17-4.33-.35-6.48-.53-.13-2.23-.26-4.46-.35-6.7-23.44.08-46.89.03-70.33.02m113.74-.02c-.08 2.24-.13 4.48-.16 6.73 2.31.14 4.64.29 6.97.41-.02 2.34-.03 4.68-.03 7.02-2.23.1-4.44.24-6.65.37-.19 2.11-.38 4.22-.53 6.33-5.25 1.76-7.45-2.07-7.16-6.87-2.34-.01-4.68-.01-7.01-.01.25 11.66-.07 23.32.17 34.98 2.32.22 4.64.56 6.97.8.13 2.03.27 4.07.43 6.1 18.59.5 37.2.12 55.8.17-.01 2.43-.01 4.86 0 7.3-18.61.02-37.23-.37-55.83.17-.13 2.24-.27 4.47-.37 6.71-2.23.08-4.45.2-6.66.32-.38 6.78-.36 13.58-.04 20.37 2.22.1 4.44.21 6.67.28.13 2.39.34 4.78.53 7.18 25.53-.04 51.06-.11 76.59.03.13-2.24.3-4.48.46-6.72 2.11-.19 4.24-.38 6.37-.55.21-2.15.44-4.29.68-6.43 2.19-.16 4.4-.32 6.61-.46.13-14.03.14-28.06 0-42.09-2.25-.09-4.48-.22-6.71-.34-.16-2.27-.32-4.53-.44-6.8-13.93-.05-27.88.39-41.8-.19.06-2.26.13-4.52.24-6.78 13.72 0 27.45.31 41.16-.12.12-2.06.23-4.11.33-6.16 2.39-.21 4.78-.46 7.19-.61.16-4.67.16-9.35.04-14.03-2.26-.1-4.51-.25-6.74-.37-.15-2.26-.3-4.5-.41-6.76-25.56.1-51.11.07-76.67.02m-611.15 113.48c-.06 3.49-.05 6.98 0 10.46 3.73.13 7.47.23 11.21.09l.04.96c-3.71-.03-7.43-.13-11.13-.42-3.36-.41-6.75-.46-10.12-.31-.16 10.82-.27 21.66.06 32.49 3.3.11 6.6.17 9.91.2.13 3.3.29 6.6.44 9.9 3.5.07 6.99.13 10.49.04l.73.07c-.71 3.43-.8 6.95-.29 10.41 3.01.07 6.01.13 9.01.26l.88.06c-.32 3.29-.3 6.59-.11 9.89 6.92.52 13.87.5 20.8.06.09-3.3.21-6.59.41-9.88 3.33-.22 6.67-.32 10.01-.37.15-3.22.19-6.45.13-9.67l-.01-.92c3.33.43 6.7.43 10.05.27.17-3.55.15-7.13-.49-10.64l1.04-.8c2.97.47 5.97.54 8.97.41-.12-10.64.02-21.27-.1-31.91-3.02.01-6.04-.03-9.06-.11-.13-3.31-.2-6.62-.21-9.93-10.51-.27-21.03-.05-31.54-.14-.16 3.42-.26 6.84-.4 10.27l.83.03c-3.54-.02-7.07.19-10.59.51-.22-.22-.67-.64-.89-.85.68-3.45.66-6.97.48-10.46-6.85-.22-13.7-.25-20.55.03m95.43.34c-.02 3.36-.05 6.72-.1 10.08-3.29.1-6.59.14-9.88.14.04 11.11.07 22.23-.02 33.34 3.33.03 6.66.06 10 .13.07 3.29.09 6.59.1 9.88 3.61.05 7.21.13 10.82.24.12 3.56.18 7.12.2 10.68 3.25.01 6.49.06 9.75.14.07 3.32.15 6.64.22 9.96 7.12-.11 14.24-.12 21.36.01.06-3.28.12-6.55.2-9.83 3.03-.2 6.06-.43 9.08-.73h.91c-.1-3.35-.11-6.71-.05-10.06 3.36-.14 6.73-.25 10.1-.34.24-3.56.27-7.13-.03-10.69l.87-.02c2.94-.21 5.9-.34 8.85-.44-.15-10.51-.13-21.02 0-31.53-3.13-.24-6.26-.37-9.39-.46-.07-3.29-.22-6.58-.37-9.87-10.41-.36-20.84-.23-31.25-.07-.12 3.39-.14 6.78-.07 10.17-3.42.28-6.85.33-10.28.14-.02-3.48-.01-6.96.04-10.43-6.97-1.16-14.04-.37-21.06-.44m191.44.62c-.09 3.48-.07 6.95.03 10.43 3.72.1 7.44.18 11.16.13-.48 7.2-.16 14.41-.19 21.62-3.68.26-7.37.37-11.05.45-.11-7.28.02-14.57-.21-21.85-3.24-.07-6.47-.07-9.7.02-.19 10.76-.3 21.54.06 32.3 3.31.15 6.61.3 9.93.36.05 3.28.11 6.57.2 9.86 3.37.1 6.77.32 10.13-.09-.06 3.66.2 7.32.32 10.98 3.21.2 6.42.34 9.64.43.15 3.23.34 6.46.77 9.66 6.92-.43 13.85-.08 20.78-.36.08-3.21.18-6.41.35-9.61 3.28-.24 6.57-.38 9.87-.47.26-3.2.43-6.41.45-9.62l-.01-.91c3.31.37 6.64.36 9.96.16.17-3.49.14-7-.48-10.46.32-.18.95-.55 1.27-.73 2.79.28 5.61.38 8.43.42.23-10.64.23-21.28 0-31.92-2.82.04-5.63.14-8.43.39-.31-.2-.93-.61-1.24-.81.56-3.27.59-6.59.37-9.89-10.43-.05-20.86.01-31.28-.04-.17 3.29-.21 6.59-.17 9.89l.24.75c-3.53-.27-7.07-.28-10.58.1v-.92c.08-3.43.06-6.85-.04-10.27-6.86-.26-13.72-.26-20.58 0m95.59.56c-.28 3.28.86 7.16-.77 10.05-3.06.54-6.19.44-9.27.59.02 10.88-.05 21.76.05 32.64 3.33-.03 6.66.01 10 .12.11 3.26.18 6.53.23 9.79 3.55.07 7.09.15 10.64.3.11 3.57.16 7.14.21 10.71 3.26-.05 6.53-.02 9.8.1.06 3.34.11 6.68.16 10.02 6.92-.1 13.84-.09 20.76-.01.22-3.41.3-6.83.32-10.24 3.41-.01 6.82-.08 10.23-.29-.01-3.32.05-6.64.17-9.95 3.23.01 6.45.01 9.69.04.56-3.67.96-7.37.84-11.08 2.93-.15 5.87-.29 8.81-.37.34-10.6.24-21.22.06-31.82-2.97-.06-5.94-.11-8.9-.11.03-3.52-.28-7.04-.56-10.54-10.52.05-21.04.21-31.55-.13l.14.76c-.03 3.34-.13 6.68-.39 10.01-3.29.22-6.59.3-9.88.25-.17-3.62-.25-7.24-.31-10.86-6.82.05-13.65.04-20.48.02m-191.37.5c-.06 3.46-.01 6.93.17 10.39 3.69.1 7.38.17 11.08.11.15 7.26.3 14.53-.06 21.78-3.6.13-7.2.17-10.8.07-.1-7.28.27-14.59-.5-21.85-3.22 0-6.43-.03-9.64-.07-.48 10.85-.36 21.72-.1 32.57 3.4.14 6.81.28 10.22.26-.05 3.29-.03 6.6.33 9.88 3.45.28 6.91.29 10.37.32.22 3.45.3 6.92.34 10.38 3.14.06 6.28.16 9.42.35.12 3.22.31 6.44.49 9.66 6.93-.07 13.85-.05 20.78-.01.19-3.21.28-6.43.37-9.64 3.4-.22 6.81-.32 10.22-.38-.02-3.32.02-6.63.11-9.95 3.3-.09 6.6-.13 9.91-.12.02-3.53.05-7.06.2-10.59l.04-.87c3.03.31 6.08.35 9.13.25.21-10.64.39-21.31-.11-31.94-3.04-.01-6.07-.01-9.09-.13-.14-3.33-.15-6.66-.16-9.99-10.5-.06-20.99-.01-31.48-.04-.14 3.24-.23 6.48-.17 9.73l.04.92c-3.36-.32-6.73-.32-10.08-.01l.04-.93-.85.05c.56-3.39.55-6.84.37-10.27-6.86-.19-13.73-.25-20.59.07z"/><path d="m25.27 25.8c4.58-.39 9.2-.39 13.79-.04 0 2.1-.01 4.21-.03 6.32-2.23.1-4.45.23-6.68.32-.13 2.29-.3 4.58-.46 6.86-2.2-.02-4.4-.04-6.6-.1-.04-4.45-.04-8.91-.02-13.36z"/><path d="m249.73 25.71c4.5-.26 9.02-.26 13.52.01-.01 2.11-.04 4.22-.07 6.33-2.21.16-4.42.34-6.62.5-.15 2.22-.32 4.43-.48 6.64-2.12.05-4.23.07-6.34.08-.27-4.51-.26-9.04-.01-13.56z"/><path d="m473.78 25.71c4.51-.25 9.03-.26 13.55 0-.01 2.13-.03 4.27-.06 6.4-2.28.1-4.56.22-6.83.31-.07 2.27-.18 4.54-.26 6.81-2.14.02-4.26.03-6.39.02-.24-4.51-.24-9.03-.01-13.54z"/><path d="m585.78 25.71c4.51-.25 9.04-.26 13.56 0-.03 2.11-.06 4.23-.11 6.34-2.22.17-4.43.36-6.64.53-.16 2.2-.33 4.41-.5 6.62-2.1.04-4.2.06-6.29.07-.25-4.52-.25-9.04-.02-13.56z"/><path d="m648.78 25.73c4.52-.27 9.05-.28 13.58-.03 0 2.14-.01 4.27-.04 6.41-2.3.1-4.59.23-6.87.32-.07 2.26-.18 4.53-.26 6.79-2.15.03-4.28.05-6.41.05-.23-4.51-.22-9.03 0-13.54z"/><path d="m403.33 39.33c7.1.05 14.21.04 21.32.01-.11 16.44-.1 32.87-.01 49.31-7.1-.08-14.2-.08-21.3 0 .05-16.44.07-32.88-.01-49.32z"/><path d="m801.33 39.33c7.1.05 14.21.04 21.32.02-.11 16.43-.1 32.86-.01 49.3-7.1-.08-14.2-.08-21.3.01.05-16.45.08-32.89-.01-49.33z"/><path d="m179.69 39.76c6.83-.32 13.66-.35 20.49.03.28 4.46.27 8.92-.01 13.38-6.82.38-13.66.35-20.48.04-.29-4.48-.29-8.98 0-13.45z"/><path d="m515.78 39.77c6.82-.34 13.66-.33 20.48-.02.26 4.48.26 8.98-.02 13.46-6.81.31-13.64.32-20.45 0-.27-4.48-.28-8.96-.01-13.44z"/></g><path d="m25.36 18.3c27.87.11 55.73.07 83.59.02.18 2.39.39 4.78.53 7.18 2.25.07 4.5.18 6.75.28 0 2.09-.02 4.18-.06 6.27-2.2.18-4.39.36-6.59.53-.17 2.18-.37 4.37-.55 6.55-13.9.57-27.82.13-41.73.19-.07 4.78-.07 9.56.02 14.34 13.9.03 27.82-.41 41.71.18.19 2.18.38 4.36.56 6.55 2.22.16 4.44.35 6.66.55-.06 2.19-.1 4.38-.2 6.57-2.2.13-4.39.33-6.59.49-.13 2.06-.26 4.12-.41 6.19-13.91.49-27.84.12-41.76.15-.15 11.61.24 23.24-.17 34.85-2.22.11-4.44.23-6.66.32-.15 2.39-.37 4.78-.55 7.17-11.51-.04-23.02-.07-34.52.01-.12-2.25-.27-4.49-.41-6.74-2.25-.13-4.5-.27-6.75-.38-.12-28.05-.1-56.1-.01-84.15 2.27-.09 4.54-.22 6.82-.32.11-2.27.23-4.53.32-6.8m-.09 7.5c-.02 4.45-.02 8.91.02 13.36 2.2.06 4.4.08 6.6.1.16-2.28.33-4.57.46-6.86 2.23-.09 4.45-.22 6.68-.32.02-2.11.03-4.22.03-6.32-4.59-.35-9.21-.35-13.79.04z" fill="#4c504e"/><path d="m144.2 18.32c21.05.17 42.1-.15 63.14.16.14 2.17.37 4.34.54 6.51 2.03.16 4.07.31 6.11.46.15 2.36.36 4.71.48 7.07 2.18.06 4.36.16 6.54.27.16 2.02.32 4.05.47 6.08 2.2.37 4.39.79 6.6 1.15.38 23.16.5 46.36-.07 69.51-2.18.14-4.36.35-6.55.53-.17 2.2-.37 4.41-.57 6.61-4.49.02-8.98.02-13.47 0-.1-2.24-.23-4.49-.34-6.73-2.26-.13-4.52-.27-6.78-.38-.12-14.07.52-28.16-.3-42.21-6.9.07-13.8.08-20.7-.01-.23 14.06.43 28.15-.3 42.2-2.18.15-4.36.33-6.54.51-.18 2.21-.38 4.43-.57 6.64-11.51-.08-23.01-.06-34.51-.01-.12-2.24-.27-4.49-.4-6.73-2.24-.13-4.48-.27-6.72-.37.03-25.78.04-51.56-.01-77.34 2.21.01 4.42.02 6.63.04.21 2.28.41 4.56.59 6.84 2.12.05 4.24.07 6.36.11.23-2.22.47-4.44.67-6.66 2.24-.19 4.47-.41 6.71-.63-.04-2.15-.06-4.31-.13-6.47-2.31-.14-4.62-.31-6.93-.49.01-2.22.03-4.44.05-6.66m35.49 21.44c-.29 4.47-.29 8.97 0 13.45 6.82.31 13.66.34 20.48-.04.28-4.46.29-8.92.01-13.38-6.83-.38-13.66-.35-20.49-.03z" fill="#4c504e"/><path d="m249.42 18.32c11.52.06 23.04.04 34.57 0 .16 2.4.38 4.79.5 7.19 2.24.06 4.48.17 6.72.27.44 16.29.09 32.6.15 48.89 2.17-.01 4.35 0 6.53.01.21-2.41.44-4.82.59-7.23 2.23-.08 4.46-.19 6.69-.28.44-13.91.11-27.84.13-41.75 2.26-.09 4.52-.22 6.79-.33.1-2.27.23-4.53.32-6.79 6.82.07 13.65.03 20.47.04.29 2.31.58 4.63.83 6.95 2.16.19 4.31.38 6.47.58.38 16.06.37 32.15 0 48.21-2.18.19-4.35.38-6.52.56-.22 2.28-.52 4.56-.77 6.84-1.94.15-3.88.31-5.81.5.87 5.25-2.81 7.45-7.55 7.26-.19 1.96-.38 3.91-.57 5.86-2.1.2-4.2.39-6.3.57-.22 2.28-.53 4.55-.78 6.83-2.13.2-4.25.41-6.38.64-.15 2.12-.34 4.24-.53 6.36-2.17.18-4.32.4-6.48.62-.13 2.19-.34 4.37-.52 6.55-13.84-.03-27.69-.07-41.53.02-.11-2.24-.24-4.47-.37-6.71-2.17-.19-4.33-.38-6.5-.56-.17-2.15-.36-4.3-.55-6.45-2.24-.14-4.47-.3-6.71-.43.07-25.7.09-51.41-.01-77.11 2.28-.1 4.55-.22 6.83-.34.1-2.26.21-4.51.29-6.77m.31 7.39c-.25 4.52-.26 9.05.01 13.56 2.11-.01 4.22-.03 6.34-.08.16-2.21.33-4.42.48-6.64 2.2-.16 4.41-.34 6.62-.5.03-2.11.06-4.22.07-6.33-4.5-.27-9.02-.27-13.52-.01z" fill="#4c504e"/><path d="m368.21 18.34c23.45.01 46.89.06 70.34-.02.09 2.24.21 4.47.34 6.71 2.16.17 4.32.35 6.49.51.02 2.24.15 4.47.19 6.71 2.2.2 4.4.41 6.6.62.35 23.08.36 46.18-.01 69.25-2.2.21-4.39.43-6.58.63-.05 2.24-.18 4.47-.2 6.71-2.17.16-4.33.34-6.49.51-.13 2.24-.25 4.47-.34 6.71-23.37-.06-46.74-.07-70.11 0-.11-2.23-.24-4.46-.37-6.7-2.18-.19-4.35-.37-6.52-.54-.17-2.17-.35-4.33-.53-6.5-2.24-.13-4.48-.26-6.71-.36.09-23.46.05-46.92.02-70.38 2.34.09 4.69.18 7.04.26.14 2.25.32 4.5.49 6.75 2.06.02 4.12.01 6.19-.01.17-2.21.35-4.42.52-6.63 2.21-.17 4.42-.36 6.64-.54.01-2.05.01-4.1 0-6.15-2.25-.18-4.49-.38-6.73-.54-.08-2.33-.18-4.67-.27-7m35.12 20.99c.08 16.44.06 32.88.01 49.32 7.1-.08 14.2-.08 21.3 0-.09-16.44-.1-32.87.01-49.31-7.11.03-14.22.04-21.32-.01z" fill="#4c504e"/><path d="m473.45 18.32c25.7.07 51.39.05 77.09.01.09 2.22.21 4.45.35 6.67 2.17.2 4.34.4 6.52.59.16 2.15.34 4.29.54 6.44 2.24.14 4.48.3 6.74.42-.07 9.36-.05 18.72-.01 28.08-2.25.11-4.49.25-6.72.39-.21 2.16-.4 4.32-.58 6.48-2.21.16-4.43.34-6.63.51-.04 2.07-.05 4.15-.03 6.23 2.26.1 4.54.22 6.82.3.1 2.2.23 4.4.38 6.6 2.2.2 4.41.4 6.63.59.22 9.31.02 18.62.14 27.93-2.28.1-4.55.24-6.81.37-.12 2.25-.24 4.49-.33 6.74-4.7.01-9.41.01-14.11 0-.08-2.25-.2-4.5-.3-6.74-2.24-.13-4.46-.26-6.69-.37-.07-2.21-.18-4.42-.29-6.63-2.24-.13-4.48-.26-6.71-.37-.08-2.22-.19-4.43-.29-6.65-2.24-.12-4.48-.25-6.71-.35-.07-2.27-.18-4.54-.26-6.8-2.14-.04-4.28-.05-6.41-.05-.32 6.95-.16 13.9-.09 20.85-2.27.1-4.55.24-6.82.37-.12 2.25-.24 4.5-.32 6.75-11.51-.06-23.03-.04-34.54 0-.17-2.2-.39-4.39-.51-6.59-2.39-.19-4.78-.43-7.17-.57.08-28.03.12-56.06-.02-84.09 2.29-.09 4.57-.22 6.87-.33.09-2.26.2-4.52.27-6.78m.33 7.39c-.23 4.51-.23 9.03.01 13.54 2.13.01 4.25 0 6.39-.02.08-2.27.19-4.54.26-6.81 2.27-.09 4.55-.21 6.83-.31.03-2.13.05-4.27.06-6.4-4.52-.26-9.04-.25-13.55 0m42 14.06c-.27 4.48-.26 8.96.01 13.44 6.81.32 13.64.31 20.45 0 .28-4.48.28-8.98.02-13.46-6.82-.31-13.66-.32-20.48.02z" fill="#4c504e"/><path d="m585.45 18.32c11.7.05 23.41.07 35.12-.01.1 2.26.22 4.52.35 6.78 2.25.11 4.51.23 6.78.32-.06 28.06-.06 56.12 0 84.18-2.26.09-4.53.21-6.78.32-.13 2.26-.26 4.52-.35 6.78-11.52-.08-23.04-.05-34.56-.01-.18-2.18-.39-4.36-.52-6.55-2.18-.22-4.36-.43-6.53-.61-.56-28.01-.47-56.08-.05-84.09 2.08-.12 4.18-.23 6.27-.36.09-2.25.19-4.5.27-6.75m.33 7.39c-.23 4.52-.23 9.04.02 13.56 2.09-.01 4.19-.03 6.29-.07.17-2.21.34-4.42.5-6.62 2.21-.17 4.42-.36 6.64-.53.05-2.11.08-4.23.11-6.34-4.52-.26-9.05-.25-13.56 0z" fill="#4c504e"/><path d="m648.45 18.33c28.04.04 56.08.06 84.12-.01.09 2.25.21 4.49.34 6.74 2.25.13 4.51.27 6.78.38-.01 4.69-.02 9.38-.04 14.07-2.25.1-4.49.23-6.73.36-.13 2.27-.27 4.53-.37 6.8-6.9-.04-13.8-.21-20.69.11-.38 20.93-.05 41.87-.15 62.81-2.27.09-4.53.22-6.79.33-.13 2.26-.26 4.51-.35 6.77-9.31-.13-18.62.1-27.93-.15-.17-2.18-.36-4.36-.53-6.53-2.07-.17-4.12-.32-6.18-.46-.68-21.06-.11-42.15-.26-63.22-7.06.04-14.14.41-21.18-.27-.12-2.05-.25-4.11-.39-6.16-2.21-.19-4.4-.39-6.6-.56-.14-4.63-.17-9.27-.18-13.91 2.29-.09 4.58-.21 6.87-.32.09-2.26.2-4.52.26-6.78m.33 7.4c-.22 4.51-.23 9.03 0 13.54 2.13 0 4.26-.02 6.41-.05.08-2.26.19-4.53.26-6.79 2.28-.09 4.57-.22 6.87-.32.03-2.14.04-4.27.04-6.41-4.53-.25-9.06-.24-13.58.03z" fill="#4c504e"/><path d="m766.21 18.34c23.44.01 46.89.06 70.33-.02.09 2.24.22 4.47.35 6.7 2.15.18 4.32.36 6.48.53.03 2.23.15 4.46.2 6.7 2.2.2 4.39.42 6.6.62.35 23.08.36 46.18-.01 69.26-2.2.2-4.39.42-6.58.62-.05 2.23-.18 4.47-.21 6.71-2.17.16-4.33.33-6.48.51-.14 2.23-.26 4.47-.34 6.71-23.37-.06-46.74-.07-70.11 0-.11-2.23-.25-4.47-.37-6.7-2.18-.19-4.35-.37-6.52-.54-.17-2.16-.35-4.33-.53-6.49-2.24-.13-4.48-.27-6.71-.37.1-23.46.05-46.92.02-70.38 2.34.09 4.69.18 7.04.26.14 2.25.31 4.5.5 6.76 2.05 0 4.11 0 6.18-.03.17-2.2.36-4.41.52-6.62 2.21-.17 4.41-.36 6.63-.55.02-2.05.02-4.1.01-6.15-2.25-.18-4.49-.37-6.73-.52-.09-2.34-.19-4.67-.27-7.01m35.12 20.99c.09 16.44.06 32.88.01 49.33 7.1-.09 14.2-.09 21.3-.01-.09-16.44-.1-32.87.01-49.3-7.11.02-14.22.03-21.32-.02z" fill="#4c504e"/><path d="m879.95 18.32c25.56.05 51.11.08 76.67-.02.11 2.26.26 4.5.41 6.76 2.23.12 4.48.27 6.74.37.12 4.68.12 9.36-.04 14.03-2.41.15-4.8.4-7.19.61-.1 2.05-.21 4.1-.33 6.16-13.71.43-27.44.12-41.16.12-.11 2.26-.18 4.52-.24 6.78 13.92.58 27.87.14 41.8.19.12 2.27.28 4.53.44 6.8 2.23.12 4.46.25 6.71.34.14 14.03.13 28.06 0 42.09-2.21.14-4.42.3-6.61.46-.24 2.14-.47 4.28-.68 6.43-2.13.17-4.26.36-6.37.55-.16 2.24-.33 4.48-.46 6.72-25.53-.14-51.06-.07-76.59-.03-.19-2.4-.4-4.79-.53-7.18-2.23-.07-4.45-.18-6.67-.28-.32-6.79-.34-13.59.04-20.37 2.21-.12 4.43-.24 6.66-.32.1-2.24.24-4.47.37-6.71 18.6-.54 37.22-.15 55.83-.17-.01-2.44-.01-4.87 0-7.3-18.6-.05-37.21.33-55.8-.17-.16-2.03-.3-4.07-.43-6.1-2.33-.24-4.65-.58-6.97-.8-.24-11.66.08-23.32-.17-34.98 2.33 0 4.67 0 7.01.01-.29 4.8 1.91 8.63 7.16 6.87.15-2.11.34-4.22.53-6.33 2.21-.13 4.42-.27 6.65-.37 0-2.34.01-4.68.03-7.02-2.33-.12-4.66-.27-6.97-.41.03-2.25.08-4.49.16-6.73z" fill="#4c504e"/><path d="m268.8 131.8c6.85-.28 13.7-.25 20.55-.03.18 3.49.2 7.01-.48 10.46-2.95 0-5.91-.02-8.86.12-3.74.14-7.48.04-11.21-.09-.05-3.48-.06-6.97 0-10.46z"/><path d="m299.92 132.27c10.51.09 21.03-.13 31.54.14.01 3.31.08 6.62.21 9.93 3.02.08 6.04.12 9.06.11.12 10.64-.02 21.27.1 31.91-3 .13-6 .06-8.97-.41-.31-10.43-.1-20.87-.24-31.31-10.7-.14-21.41-.6-32.1-.1.14-3.43.24-6.85.4-10.27z"/><path d="m364.75 132.84c6.84-.31 13.69-.1 20.54-.26-.05 3.47-.06 6.95-.04 10.43 3.43.19 6.86.14 10.28-.14-.07-3.39-.05-6.78.07-10.17 10.41-.16 20.84-.29 31.25.07.15 3.29.3 6.58.37 9.87 3.13.09 6.26.22 9.39.46-.13 10.51-.15 21.02 0 31.53-2.95.1-5.91.23-8.85.44-1.05-10.66.2-21.38-.81-32.05-3.59-.19-7.17-.34-10.76-.28-6.83.14-13.69.07-20.48.95-.07 3.3-.17 6.61-.25 9.91-3.31.02-6.62.03-9.92.05-.26-3.54-.52-7.08-.77-10.62-2.96-.16-5.92-.3-8.87-.37l-.86-.02c-3.42-.12-6.83-.32-10.24-.53-.04-3.09-.06-6.18-.05-9.27z"/><path d="m555.67 132.76c6.86-.26 13.72-.26 20.58 0 .1 3.42.12 6.84.04 10.27-3.15.14-6.29.25-9.43.29-3.72.05-7.44-.03-11.16-.13-.1-3.48-.12-6.95-.03-10.43z"/><path d="m586.8 133.21c10.42.05 20.85-.01 31.28.04.22 3.3.19 6.62-.37 9.89-10.36.19-20.72.44-31.08-.04-.04-3.3 0-6.6.17-9.89z"/><path d="m651.26 133.32c6.83.02 13.66.03 20.48-.02.06 3.62.14 7.24.31 10.86 3.29.05 6.59-.03 9.88-.25.26-3.33.36-6.67.39-10.01 10.33-.34 20.67-.4 31.01-.04-.01 3.29-.03 6.58-.08 9.87-10.39.1-20.77-.27-31.15.14 0 3.44-.01 6.89.02 10.34-3.28.25-6.55.44-9.82.62-.24-3.44-.29-6.92-1.03-10.29-2.82-1.37-6.11-.82-9.14-.96-3.4.06-6.81.09-10.19.35l-1 .11c-.37 7.3.32 14.61.32 21.91.04 3.25.07 6.49.09 9.73 3.49.17 6.99.36 10.49.56.23 3.46.45 6.92.63 10.38 3.16.05 6.32.13 9.48.15.04 3.46.1 6.93.15 10.39 3.3.09 6.61.21 9.92.22 3.37.03 6.75-.09 10.13-.21.14-3.24.3-6.48.4-9.72 3.58-.18 7.16-.35 10.74-.51.01-3.74-.05-7.48-.26-11.21l.87-.02c3.11.02 6.22.18 9.34.31.07 3.72.16 7.45.24 11.17-3.24-.03-6.46-.03-9.69-.04-.12 3.31-.18 6.63-.17 9.95-3.41.21-6.82.28-10.23.29-.02 3.41-.1 6.83-.32 10.24-6.92-.08-13.84-.09-20.76.01-.05-3.34-.1-6.68-.16-10.02-3.27-.12-6.54-.15-9.8-.1-.05-3.57-.1-7.14-.21-10.71-3.55-.15-7.09-.23-10.64-.3-.05-3.26-.12-6.53-.23-9.79-3.34-.11-6.67-.15-10-.12-.1-10.88-.03-21.76-.05-32.64 3.08-.15 6.21-.05 9.27-.59 1.63-2.89.49-6.77.77-10.05z"/><path d="m459.89 133.82c6.86-.32 13.73-.26 20.59-.07.18 3.43.19 6.88-.37 10.27-2.99.16-5.98.26-8.97.3-3.7.06-7.39-.01-11.08-.11-.18-3.46-.23-6.93-.17-10.39z"/><path d="m491.13 134.26c10.49.03 20.98-.02 31.48.04.01 3.33.02 6.66.16 9.99 3.02.12 6.05.12 9.09.13.5 10.63.32 21.3.11 31.94-3.05.1-6.1.06-9.13-.25.26-10.62.53-21.25-.08-31.86-10.6-.47-21.21.67-31.8-.26-.06-3.25.03-6.49.17-9.73z"/><path d="m258.8 142.58c3.37-.15 6.76-.1 10.12.31-.12 7.1-.03 14.21.07 21.32.07 3.42.19 6.84.32 10.26 3.51.14 7.02.31 10.53.51-.02 3.41-.04 6.82-.14 10.23-3.5.09-6.99.03-10.49-.04-.15-3.3-.31-6.6-.44-9.9-3.31-.03-6.61-.09-9.91-.2-.33-10.83-.22-21.67-.06-32.49z"/><path d="m289.76 143.08c3.52-.32 7.05-.53 10.59-.51-.19 3.45-.38 6.91-.56 10.36-3.32.07-6.63.12-9.95.14-.05-3.34-.08-6.67-.08-9.99z"/><path d="m354.93 142.84c3.07-.04 6.14-.06 9.21-.06.27 7.43.21 14.87.44 22.31.06 3.04.08 6.07.1 9.11 3.62.49 7.24.93 10.87 1.34.06 3.15.13 6.31.17 9.47-3.57.15-7.13.2-10.7.18-.18-3.24-.39-6.47-.54-9.71-3.18-.14-6.36-.35-9.54-.5-.42-10.71-.4-21.44-.01-32.14z"/><path d="m450.14 144.25c3.21.04 6.42.07 9.64.07.77 7.26.4 14.57.5 21.85.03 3.64.01 7.27-.02 10.91-3.41.02-6.82-.12-10.22-.26-.26-10.85-.38-21.72.1-32.57z"/><path d="m545.71 143.56c3.23-.09 6.46-.09 9.7-.02.23 7.28.1 14.57.21 21.85.03 3.23.1 6.46.16 9.69 3.6.38 7.21.72 10.82 1.08.09 3.23.21 6.46.36 9.69l-.93.14c-3.36.41-6.76.19-10.13.09-.09-3.29-.15-6.58-.2-9.86-3.32-.06-6.62-.21-9.93-.36-.36-10.76-.25-21.54-.06-32.3z"/><path d="m576.29 143.95c3.51-.38 7.05-.37 10.58-.1-.07 3.4-.15 6.81-.21 10.21-3.45.05-6.9.05-10.35.01-.02-3.38-.05-6.75-.02-10.12z"/><path d="m618.95 143.95c2.8-.25 5.61-.35 8.43-.39.23 10.64.23 21.28 0 31.92-2.82-.04-5.64-.14-8.43-.42-.42-10.37-.43-20.74 0-31.11z"/><path d="m714.32 176.11c-.37-10.77-.25-21.54-.03-32.3 2.96 0 5.93.05 8.9.11.18 10.6.28 21.22-.06 31.82-2.94.08-5.88.22-8.81.37z"/><path d="m321.3 174.91c3.18.03 6.35-.06 9.52-.16.64 3.51.66 7.09.49 10.64-3.35.16-6.72.16-10.05-.27-.04-3.4.01-6.81.04-10.21z"/><path d="m417.26 175.26c3.21-.06 6.42-.12 9.63-.17.3 3.56.27 7.13.03 10.69-3.37.09-6.74.2-10.1.34-.06 3.35-.05 6.71.05 10.06h-.91c-3.2 0-6.39.01-9.58.04-.06 3.29-.17 6.57-.27 9.86-6.79.42-13.59.41-20.38-.01.03-3.27.08-6.53.19-9.79 6.39.1 12.77.12 19.15.01.35-3.32.7-6.63 1.03-9.95 3.43-.11 6.92-.05 10.27-.92.76-3.32.78-6.77.89-10.16z"/><path d="m608.31 175.99c3.12-.02 6.25.01 9.37-.2.62 3.46.65 6.97.48 10.46-3.32.2-6.65.21-9.96-.16-.02-3.37.04-6.73.11-10.1z"/><path d="m460.68 176.68c3.38.01 6.76.04 10.14.12.28 3.47.58 6.93.87 10.4 2.92.28 5.84.61 8.77.91.23 3.21.45 6.41.7 9.62 6.62.38 13.25.43 19.87.12.12-3.28.28-6.55.39-9.83 3.68-.22 7.36-.41 11.04-.58.14-3.52.32-7.03.51-10.54 3.27-.02 6.55-.02 9.83.08-.15 3.53-.18 7.06-.2 10.59-3.31-.01-6.61.03-9.91.12-.09 3.32-.13 6.63-.11 9.95-3.41.06-6.82.16-10.22.38-.09 3.21-.18 6.43-.37 9.64-6.93-.04-13.85-.06-20.78.01-.18-3.22-.37-6.44-.49-9.66-3.14-.19-6.28-.29-9.42-.35-.04-3.46-.12-6.93-.34-10.38-3.46-.03-6.92-.04-10.37-.32-.01-3.43.02-6.86.09-10.28z"/><path d="m280.43 185.28c2.91.32 5.83.54 8.76.75.04 3.3.04 6.61-.04 9.92-3-.13-6-.19-9.01-.26-.51-3.46-.42-6.98.29-10.41z"/><path d="m310.23 185.99c3.68-.05 7.36-.05 11.04.05.06 3.22.02 6.45-.13 9.67-3.34.05-6.68.15-10.01.37-.2 3.29-.32 6.58-.41 9.88-6.93.44-13.88.46-20.8-.06-.19-3.3-.21-6.6.11-9.89 6.61.52 13.24.49 19.85.07.11-3.37.25-6.73.35-10.09z"/><path d="m375.73 185.98c3.12-.15 6.25-.24 9.38-.28-.02 3.52-.07 7.05-.16 10.57-3.03-.04-6.06-.14-9.09-.21-.07-3.36-.11-6.72-.13-10.08z"/><path d="m566.97 186.85c3.02-.06 6.06-.06 9.09-.08.09 3.04.25 6.08.46 9.11-3.14.18-6.28.27-9.42.36-.07-3.14-.12-6.26-.13-9.39z"/><path d="m597.25 187.02c3.65-.08 7.3-.1 10.96-.02-.02 3.21-.19 6.42-.45 9.62-3.3.09-6.59.23-9.87.47-.17 3.2-.27 6.4-.35 9.61-6.93.28-13.86-.07-20.78.36.09-3.19.1-6.38-.12-9.56 6.7-.18 13.41-.11 20.11-.5.15-3.33.34-6.66.5-9.98z"/><path d="m364.23 132.14c7.02.07 14.09-.72 21.06.44-6.85.16-13.7-.05-20.54.26-.01 3.09.01 6.18.05 9.27 3.41.21 6.82.41 10.24.53-3.4.04-6.79.23-10.18.38-.32 7.35-.2 14.71-.28 22.07-.23-7.44-.17-14.88-.44-22.31-3.07 0-6.14.02-9.21.06-.39 10.7-.41 21.43.01 32.14 3.18.15 6.36.36 9.54.5.15 3.24.36 6.47.54 9.71 3.57.02 7.13-.03 10.7-.18l.01.97c.02 3.36.06 6.72.13 10.08 3.03.07 6.06.17 9.09.21l.97.01c-.11 3.26-.16 6.52-.19 9.79 6.79.42 13.59.43 20.38.01.1-3.29.21-6.57.27-9.86 3.19-.03 6.38-.04 9.58-.04-3.02.3-6.05.53-9.08.73-.08 3.28-.14 6.55-.2 9.83-7.12-.13-14.24-.12-21.36-.01-.07-3.32-.15-6.64-.22-9.96-3.26-.08-6.5-.13-9.75-.14-.02-3.56-.08-7.12-.2-10.68-3.61-.11-7.21-.19-10.82-.24-.01-3.29-.03-6.59-.1-9.88-3.34-.07-6.67-.1-10-.13.09-11.11.06-22.23.02-33.34 3.29 0 6.59-.04 9.88-.14.05-3.36.08-6.72.1-10.08z" fill="#797a7a"/><path d="m682.18 133.14c10.51.34 21.03.18 31.55.13.28 3.5.59 7.02.56 10.54-.22 10.76-.34 21.53.03 32.3.12 3.71-.28 7.41-.84 11.08-.08-3.72-.17-7.45-.24-11.17-3.12-.13-6.23-.29-9.34-.31 3.01-.13 6.02-.45 9.03-.71.3-10.04.24-20.09.05-30.13-10.04-.37-20.08-.38-30.11.02-.39 17.11-.35 34.25-.01 51.36 2.71.01 5.43 0 8.16-.03.19-3.19.43-6.39.61-9.58 3.42-.21 6.84-.44 10.27-.68.32-3.42.68-6.83 1.13-10.23.21 3.73.27 7.47.26 11.21-3.58.16-7.16.33-10.74.51-.1 3.24-.26 6.48-.4 9.72-3.38.12-6.76.24-10.13.21-.01-3.5-.01-7.01.03-10.51.11-10.89.08-21.77.07-32.66-.03-3.45-.02-6.9-.02-10.34 10.38-.41 20.76-.04 31.15-.14.05-3.29.07-6.58.08-9.87-10.34-.36-20.68-.3-31.01.04z" fill="#caadac"/><path d="m280.01 142.35c2.95-.14 5.91-.12 8.86-.12.22.21.67.63.89.85 0 3.32.03 6.65.08 9.99 3.32-.02 6.63-.07 9.95-.14.18-3.45.37-6.91.56-10.36 6.91.45 13.84-.12 20.75.37.33 10.38.34 20.77-.02 31.15-3.66.12-7.32.23-10.99.32-.17 3.55-.33 7.11-.47 10.66-9.97.83-19.95-.51-29.92.14.1-3.41.12-6.82.14-10.23-3.51-.2-7.02-.37-10.53-.51-.13-3.42-.25-6.84-.32-10.26 3.68.06 7.37.04 11.05-.04.3-6.95.3-13.91.01-20.86z" fill="#f00"/><path d="m375.9 142.66c2.95.07 5.91.21 8.87.37.25 3.54.51 7.08.77 10.62 3.3-.02 6.61-.03 9.92-.05.08-3.3.18-6.61.25-9.91 6.79-.88 13.65-.81 20.48-.95.87 10.55.45 21.14.41 31.71-3.72.17-7.44.37-11.16.6-.12 3.56-.27 7.11-.43 10.66-6.64.01-13.27-.04-19.9-.01-3.13.04-6.26.13-9.38.28l-.01-.97c-.04-3.16-.11-6.32-.17-9.47-3.63-.41-7.25-.85-10.87-1.34-.02-3.04-.04-6.07-.1-9.11 3.69-.28 7.39-.45 11.09-.55-.04-7.3-.15-14.59.23-21.88z" fill="#f00"/><path d="m566.86 143.32c3.14-.04 6.28-.15 9.43-.29v.92c-.03 3.37 0 6.74.02 10.12 3.45.04 6.9.04 10.35-.01.06-3.4.14-6.81.21-10.21 6.98-.11 13.96-.31 20.93.16 0 10.34.01 20.68-.01 31.02-3.54.15-7.06.3-10.59.42-.37 3.6-.75 7.19-1.14 10.79-9.7.2-19.41.02-29.1-.39-.15-3.23-.27-6.46-.36-9.69-3.61-.36-7.22-.7-10.82-1.08-.06-3.23-.13-6.46-.16-9.69 3.68-.08 7.37-.19 11.05-.45.03-7.21-.29-14.42.19-21.62z" fill="#f00"/><path d="m471.14 144.32c2.99-.04 5.98-.14 8.97-.3l.85-.05-.04.93c-.17 3.41-.17 6.82-.13 10.24 3.42.05 6.85.07 10.28.09l.04-.96c.24-3.08.62-6.15.98-9.22 6.67-.46 13.36-.42 20.03-.03.39 10.33.42 20.68-.01 31.01-3.65.15-7.29.29-10.94.41-.16 3.54-.32 7.09-.45 10.64-9.67.63-19.35-.02-29.03.12-.29-3.47-.59-6.93-.87-10.4-3.38-.08-6.76-.11-10.14-.12-.07 3.42-.1 6.85-.09 10.28-.36-3.28-.38-6.59-.33-9.88.03-3.64.05-7.27.02-10.91 3.6.1 7.2.06 10.8-.07.36-7.25.21-14.52.06-21.78z" fill="#f00"/><path d="m662.13 143.58c3.03.14 6.32-.41 9.14.96.74 3.37.79 6.85 1.03 10.29 3.27-.18 6.54-.37 9.82-.62.01 10.89.04 21.77-.07 32.66-3.37-.05-6.74-.06-10.1-.1-3.16-.02-6.32-.1-9.48-.15-.18-3.46-.4-6.92-.63-10.38-3.5-.2-7-.39-10.49-.56-.02-3.24-.05-6.48-.09-9.73 3.67-.08 7.34-.26 11-.6.09-7.25.11-14.51-.13-21.77z" fill="#f00"/><path d="m299.52 142.54c10.69-.5 21.4-.04 32.1.1.14 10.44-.07 20.88.24 31.31-.26.2-.78.6-1.04.8-3.17.1-6.34.19-9.52.16-.03 3.4-.08 6.81-.04 10.21l.01.92c-3.68-.1-7.36-.1-11.04-.05-.1 3.36-.24 6.72-.35 10.09-6.61.42-13.24.45-19.85-.07l-.88-.06c.08-3.31.08-6.62.04-9.92-2.93-.21-5.85-.43-8.76-.75l-.73-.07c9.97-.65 19.95.69 29.92-.14.14-3.55.3-7.11.47-10.66 3.67-.09 7.33-.2 10.99-.32.36-10.38.35-20.77.02-31.15-6.91-.49-13.84.08-20.75-.37z" fill="#7f0000"/><path d="m416.19 142.74c3.59-.06 7.17.09 10.76.28 1.01 10.67-.24 21.39.81 32.05l-.87.02c-3.21.05-6.42.11-9.63.17-.11 3.39-.13 6.84-.89 10.16-3.35.87-6.84.81-10.27.92-.33 3.32-.68 6.63-1.03 9.95-6.38.11-12.76.09-19.15-.01l-.97-.01c.09-3.52.14-7.05.16-10.57 6.63-.03 13.26.02 19.9.01.16-3.55.31-7.1.43-10.66 3.72-.23 7.44-.43 11.16-.6.04-10.57.46-21.16-.41-31.71z" fill="#7f0000"/><path d="m586.63 143.1c10.36.48 20.72.23 31.08.04.31.2.93.61 1.24.81-.43 10.37-.42 20.74 0 31.11-.32.18-.95.55-1.27.73-3.12.21-6.25.18-9.37.2-.07 3.37-.13 6.73-.11 10.1l.01.91c-3.66-.08-7.31-.06-10.96.02-.16 3.32-.35 6.65-.5 9.98-6.7.39-13.41.32-20.11.5-.03-.4-.09-1.21-.12-1.62-.21-3.03-.37-6.07-.46-9.11-3.03.02-6.07.02-9.09.08l-.01-1c9.69.41 19.4.59 29.1.39.39-3.6.77-7.19 1.14-10.79 3.53-.12 7.05-.27 10.59-.42.02-10.34.01-20.68.01-31.02-6.97-.47-13.95-.27-20.93-.16z" fill="#7f0000"/><path d="m490.96 143.99c10.59.93 21.2-.21 31.8.26.61 10.61.34 21.24.08 31.86l-.04.87c-3.28-.1-6.56-.1-9.83-.08-.19 3.51-.37 7.02-.51 10.54-3.68.17-7.36.36-11.04.58-.11 3.28-.27 6.55-.39 9.83-6.62.31-13.25.26-19.87-.12-.25-3.21-.47-6.41-.7-9.62-2.93-.3-5.85-.63-8.77-.91 9.68-.14 19.36.51 29.03-.12.13-3.55.29-7.1.45-10.64 3.65-.12 7.29-.26 10.94-.41.43-10.33.4-20.68.01-31.01-6.67-.39-13.36-.43-20.03.03-.36 3.07-.74 6.14-.98 9.22.08-3.12.01-6.24-.11-9.36z" fill="#7f0000"/><path d="m671.95 186.77c3.36.04 6.73.05 10.1.1-.04 3.5-.04 7.01-.03 10.51-3.31-.01-6.62-.13-9.92-.22-.05-3.46-.11-6.93-.15-10.39z" fill="#7f0000"/><path d="m268.92 142.89c3.7.29 7.42.39 11.13.42.29 6.95.29 13.91-.01 20.86-3.68.08-7.37.1-11.05.04-.1-7.11-.19-14.22-.07-21.32z" fill="#f9f9f9"/><path d="m364.86 143.02c3.39-.15 6.78-.34 10.18-.38l.86.02c-.38 7.29-.27 14.58-.23 21.88-3.7.1-7.4.27-11.09.55.08-7.36-.04-14.72.28-22.07z" fill="#f9f9f9"/><path d="m682.87 144.89c10.03-.4 20.07-.39 30.11-.02.19 10.04.25 20.09-.05 30.13-3.01.26-6.02.58-9.03.71l-.87.02c-.45 3.4-.81 6.81-1.13 10.23-3.43.24-6.85.47-10.27.68-.18 3.19-.42 6.39-.61 9.58-2.73.03-5.45.04-8.16.03-.34-17.11-.38-34.25.01-51.36z" fill="#f9f9f9"/><path d="m650.94 144.04 1-.11c-.32 7.08-.42 14.18-.07 21.26 3.46.03 6.92.1 10.39.16-3.66.34-7.33.52-11 .6 0-7.3-.69-14.61-.32-21.91z" fill="#cf9595"/><path d="m651.94 143.93c3.38-.26 6.79-.29 10.19-.35.24 7.26.22 14.52.13 21.77-3.47-.06-6.93-.13-10.39-.16-.35-7.08-.25-14.18.07-21.26z" fill="#fafafa"/><path d="m480.92 144.9c3.35-.31 6.72-.31 10.08.01.12 3.12.19 6.24.11 9.36l-.04.96c-3.43-.02-6.86-.04-10.28-.09-.04-3.42-.04-6.83.13-10.24z" fill="#010101"/><path d="m566.03 185.99.93-.14.01 1c.01 3.13.06 6.25.13 9.39 3.14-.09 6.28-.18 9.42-.36.03.41.09 1.22.12 1.62.22 3.18.21 6.37.12 9.56-.43-3.2-.62-6.43-.77-9.66-3.22-.09-6.43-.23-9.64-.43-.12-3.66-.38-7.32-.32-10.98z" fill="#777877"/></svg>