<svg height="539pt" viewBox="0 0 2362 539" width="2362pt" xmlns="http://www.w3.org/2000/svg"><path d="m541 86.65c47.02-1.39 94.61-3.34 141.02 5.93 20.6 4.15 40.85 11.27 58.37 23.05 24.05 15.78 41.47 40.36 50.72 67.41 2.48 7.78 5.66 15.64 5.16 23.97.69 19.02-4.04 38.18-13.53 54.68-9.02 15.98-21.94 29.42-36.17 40.86-11.26 9.19-24.75 15.27-38.56 19.52-12.58 3.51-25.18 6.96-37.83 10.2 44.36 44.73 88.75 89.42 133.03 134.22-78.05 1.25-156.09 2.55-234.14 3.36-12.02.42-24.06-.16-36.08.4-31.26-.08-62.51.22-93.76-.27.05-114.34.01-228.67.02-343 .06-13.53-.13-27.05.1-40.57 9.51 1.12 19.09 1.06 28.65 1.13 5.98.36 11.97.21 17.95-.03 18.36.08 36.7-.47 55.05-.86m-90 13.28c.06 118.88-.13 237.76.1 356.64 108.04-.17 216.08-.01 324.12-.08-40.39-40.87-80.92-81.6-121.31-122.46-2.92-3.03-3.58-8.09-1.76-11.83 1.33-2.5 4.41-1.87 6.74-2.07 25.88-.64 51.04-9.66 72.72-23.55 15.14-9.41 28.86-21.62 38.2-36.95 10.47-16.85 14.77-37.01 14.12-56.71-.04-4.17-1.5-8.12-2.76-12.04-4.87-15.13-12.06-29.63-21.99-42.1-11.32-14.31-26.24-25.7-42.9-33.1-20.18-8.81-42.1-12.72-63.9-14.87-67.05-6.21-134.4 7.05-201.38-.88z"/><path d="m1708.6 86.51c24.85-.29 49.78.47 74.39 4.15 19.48 2.85 38.8 7.58 56.86 15.57 26.63 11.59 49.92 30.62 66.66 54.37 6.01 7.66 12.43 15.05 17.31 23.53 18.54 30.35 24.73 66.69 23.61 101.83-.72 23.25-4.94 46.47-13.22 68.25-11.2 29.62-29.26 57.1-54.23 76.88 2.26 4.36 1.91 9.34 1.87 14.09 7.26-12.87 19.73-22.73 34.14-26.22 17.08-4.66 36.42.31 49.03 12.78-.01-115.09-.07-230.18.03-345.27 124.6.07 249.2.01 373.8.03.36 11.83.01 23.68.18 35.52.56 15.3-.12 30.62.46 45.92-.06 31.86.49 63.72.47 95.58-70.05-.05-140.11 0-210.16-.02-4.47 13.73-4.72 29.06.02 42.77 24.86-.08 49.73.07 74.6-.08.19 16.17.02 32.33.09 48.5-24.83 1.32-49.68 2.29-74.51 3.58-.01 12.57 0 25.15 0 37.73 28.98-.08 57.96.48 86.94.49 40.61.49 81.22.46 121.83 1.06.02 11.05-.15 22.1.08 33.15.69 1.05 1.41 2.1 2.14 3.17 3.09 5.52 9.71 7.7 13.21 12.89 1.31 2.42.98 5.66-.93 7.69-3.17 3.55-6.71 6.75-10.09 10.08 14.07 8.82 20.25 27.67 15.5 43.37-3.59 13.45-14.9 24.24-28.4 27.48-10.88 3.01-22.82.48-32.14-5.68-4.66-3.25-9.42-6.85-11.96-12.07-3.7-2.86-7.62-5.54-10.56-9.21-2.17-2.41-2.24-6.47.02-8.84 3.17-3.59 6.76-6.78 10.14-10.18-5.24-3.66-10.05-8.39-12.33-14.47.41 2.82-.21 5.61-1.24 8.24 2.46 6.36 1.2 13.26 1.48 19.9-.22 9.28.44 18.6-.3 27.85-.18 4.29-4.7 5.93-8.35 5.77-22.36.04-44.72-.05-67.07.04-2.96-.08-6.42.11-8.74-2.03-2.42-2.83-1.88-6.85-2.03-10.3-1.97-.04-3.92-.07-5.84-.12-.07 3.1.35 6.41-1.02 9.29-1.72 2.74-5.34 3.12-8.27 3.15-24.09-.09-48.2.07-72.29-.1-2.94.19-5.87.6-8.8.6-31.66-.06-63.32-.01-94.98-.03-2.79-.08-6.56-.37-7.53-3.53-1.32-3 .42-6.01 1.51-8.76-4.47.08-9.27.44-13.08-2.34-6.39 5.93-14.13 10.55-22.69 12.46-20.01 5.3-42.79-2.56-55.3-19.03-2.28-2.71-5.37-4.54-7.87-6.99-3.67-3.41-6.32-7.7-9.16-11.77-.15 9.94-.03 19.88-.04 29.82-.09 2.65-.21 5.66-2.09 7.74-2.07 1.88-5.08 1.85-7.69 1.93-12.04-.04-24.08-.04-36.11 0-2.81-.1-6.24-.1-8.13-2.51-1.91-2.87-1.47-6.5-1.66-9.76-3.38-.12-7.08.31-10.06-1.58-2.18-1.54-2.06-4.53-2.18-6.89.01-13.75.02-27.49.01-41.23-4.45.01-8.89.01-13.32-.03.07 17.08-.04 34.17.06 51.25-.08 2.76.04 5.8-1.56 8.2-1.92 2.37-5.29 2.44-8.08 2.55-12.03-.03-24.07-.04-36.1 0-2.81-.1-6.26-.1-8.12-2.54-1.9-2.86-1.46-6.48-1.65-9.73-3.39-.14-7.1.3-10.12-1.53-2.39-1.85-2.18-5.24-2.32-7.93.03-13.3.04-26.6.01-39.9-3.15-.86-6.18-2.04-9.2-3.21-1.97 9.68-7.61 18.41-15.73 24.06 6.2 9.55 12.3 19.16 18.6 28.65 1.45 2.37 3.37 5.2 2.11 8.08-1.27 3.34-5.32 4.09-8.47 4.04-25.05-.01-50.09-.04-75.13.01-2.8-.07-6.1-.28-7.98-2.62-1.87-2.89-1.34-6.52-1.46-9.78-1.93.02-3.82.04-5.7.07-.22 3.25.3 6.89-1.61 9.76-1.9 2.44-5.34 2.46-8.14 2.57-22.67-.05-45.34-.01-68.01-.02-2.74-.11-6.16-.41-7.58-3.12-1.43-2.82-1.12-6.09-1.27-9.13-3.4-.14-7.11.3-10.13-1.54-2.38-1.84-2.16-5.22-2.31-7.91.05-14.76.01-29.53.03-44.29-1.98.01-3.96-.04-5.9.17-2.09 2.45-3.16 5.56-4.64 8.39-9.96 19.91-19.88 39.83-29.85 59.73h-12.62c-1.43-2.47-2.64-5.04-3.9-7.58-2.23-.3-4.93.1-6.52-1.79-2.39-2.82-3.67-6.35-5.36-9.58-8.23-16.38-16.37-32.79-24.69-49.11-16.38-.07-32.75.41-49.13.29 3.45 4.78 6.53 9.96 7.82 15.78 3.61 12.82-.36 27.03-9.09 36.91-10.3 10.89-26.95 15.76-41.29 10.76-8.94-3.05-17.69-8.68-22.41-17.06-4.6-3.41-9.3-6.9-12.38-11.84-6.69 14.55-20.26 25.63-35.85 29.27-19.88 5.15-42.8-2.34-55.05-19-3.31-3.76-7.69-6.39-10.99-10.17-.06 7.05.01 14.1 0 21.15-.07 2.67-.22 5.69-2.1 7.79-2.11 1.92-5.18 1.83-7.83 1.91-14.68-.08-29.35 0-44.01-.05-14.68-.13-29.24-6.35-39.17-17.2-1.98-2.4-3.87-4.93-6.38-6.8-5.49-4.12-10.21-9.41-13.04-15.7.69 7.97.15 15.99.34 23.98-.09 3.98.44 8.11-.86 11.95-1.15 3.16-4.93 3.7-7.85 3.78-22.68.03-45.36-.04-68.04.03-2.79-.1-6.21-.09-8.11-2.48-1.94-2.86-1.5-6.52-1.69-9.79-3.7-.23-8.39.59-11.11-2.53-2.07-4.01-1.15-8.76-1.26-13.1-5.23 15.16-19.9 26.02-35.73 27.6-12.47 1.18-25.9-2.66-34.73-11.83-2.93-2.78-4.78-6.56-8.14-8.88-5.47-4-10.27-9.19-12.74-15.58-1.23 11.76-8.31 22.74-18.21 29.11-10.17 6.9-23.4 9.22-35.28 5.98-8.68-1.97-16.39-7.4-21.61-14.55-2.89-4.12-7.62-6.35-10.78-10.21-7.89-9.23-11.56-21.44-12.06-33.42-.19-3.46 1.45-7.93 5.53-8 8.42-.57 16.89-.08 25.34-.21-.04-13.62.03-27.24-.05-40.85.07-2.75-.1-5.8 1.54-8.17 1.65-2.12 4.56-2.44 7.06-2.55 6.03-.13 12.06.06 18.1-.04-18.72-17.27-34.05-38.22-44.77-61.34-9.71-21.27-14.36-44.6-15.31-67.89-.87-20.76.84-41.76 6.39-61.83 4.23-15.64 11.32-30.35 19.81-44.1 27.31-44.96 74.04-77.7 125.75-87.57 34.99-6.46 72.04-4.04 105.19 9.32 25.12 10.18 47.97 25.89 66.74 45.43 12.13 12.77 22.32 27.43 29.72 43.42-48.95 29.68-98.01 59.17-146.93 88.87 51.44 22.69 103.53 43.98 156.61 62.54-2.64 7.47-5.69 14.79-9.3 21.84-14.21 28.38-36.98 51.81-63.33 69.21.13 3.31.11 6.63-.27 9.92 8.65-17.54 28.34-27.91 47.56-27.95 62.69-109.14 125.43-218.25 188.14-327.37 60.14 107.84 115.98 217.99 172.97 327.5 5.02.09 10.04-.09 15.07.04 2.94.05 6.74.66 7.88 3.86 1.38 2.93-.52 5.9-1.61 8.58 1.43-.09 2.89-.16 4.37-.22.09-2.96-.29-6.09.92-8.88 1.38-2.58 4.59-2.9 7.1-3.73-.12-28.65.44-57.28.27-85.93-.18-26.31.42-52.62.25-78.94-.17-29.68.42-59.36.25-89.05-.18-25.49.41-50.97.25-76.47 16.08.12 32.15.87 48.23 1.03 25.55-.07 51.1.09 76.65-.09 11.35.11 22.73.06 34.05-.87l.35-.01c3.17.44 6.39.41 9.57-.03m-158.05 330.76c19.49-.06 38.99-.01 58.48-.03 2.68-.05 5.71.82 7.25 3.18 1.36 2.85.9 6.11.96 9.17 1.89-.07 3.8-.11 5.73-.15.04-3.29-.24-6.89 1.63-9.79 1.41-1.95 4.03-2.39 6.3-2.41 14.7-.02 29.4.03 44.11-.02 11.79-.25 23.42 6.02 30.02 15.74 1.78 2.56 4.6 4.04 7.01 5.95.28-5.57-.6-11.26.53-16.75.46-3.55 4.18-5.02 7.36-4.91 27.05-.01 54.11-.03 81.17.01 3.64-.22 6.99 1.97 7.64 5.69 3.64-.93 6.51-3.37 9.7-5.16 5.54-.68 10.3-3.66 15.16-6.17 13.24-7.18 25.61-16.14 35.97-27.11 10.65-11.25 18.79-24.66 25.14-38.74 8.75-19.65 13.87-40.75 16.66-62.03 2.39 0 4.8.01 7.23.03-4.37 36.53-16.89 72.82-40.06 101.77-10.13 12.74-22.8 23.28-36.75 31.59 6.96.33 13.95-.11 20.93.21 3.21.16 5.81 2.45 6.66 5.51 29.18-25.42 51.94-59 61.91-96.61 10.36-39.22 7.21-82-9.52-119.01-8.23-17.94-19.85-34.25-33.66-48.31-25.65-26.22-58.02-46.71-94.07-54.77-9.13-2.52-18.67-1.74-28.01-2.43-17.66-.73-35.33-1.53-52.99-2.21-26.01.1-52.02-.27-78.02.25-28.15-.05-56.3.04-84.45-.05-.13 105.85-.09 211.71-.02 317.56m425.45-317.52c0 114.37-.01 228.73.01 343.1 5.62 5.02 10.29 11.03 13.97 17.61 4.65.06 9.32.07 13.99-.01 7.76-15.42 15.38-30.92 23.22-46.3 1.95-4.6 9.6-4.52 11.48.08 1.55 2.91 2.92 5.92 4.41 8.86 2.91-.61 6.4.09 7.72 3.08 5.91 11.34 11.44 22.88 17.22 34.29 4.82.07 9.64.04 14.47.03 0-11.15.02-22.31-.02-33.47.03-2.38-.01-4.99 1.37-7.05 1.89-2.44 5.28-2.77 8.16-2.75 12.65.05 25.31.01 37.97.02 2.95-.11 6.46 1.03 7.56 4.08.75 2.65.49 5.46.58 8.19 4.35-.25 11.4-.35 11.95 5.45.64 8.49.03 17.04.3 25.56 8.14-.09 16.29.08 24.44-.1-.07-12.13-.13-24.27.01-36.39-.3-3.98 3.44-6.76 7.13-6.75 23.36-.11 46.73.02 70.09-.06 2.98-.12 6.5.51 8.26 3.21 1.34 2.83.89 6.07.95 9.11 3.08-.03 6.35-.38 9.25.99 2.66 1.46 3.04 4.79 3.12 7.53 4.94-10.72 15.93-17.94 27.35-20.08 9.15-2.04 18.78.36 26.81 4.92-.04-4.15 0-8.3-.09-12.44-68.73.1-137.46.01-206.19.04-2.73-10.6-3.37-21.61-3.24-32.51-.13-11.36.66-22.7 1.74-33.99h73.26c.01-8.49-.02-16.98.02-25.46-24.82-.09-49.64-.02-74.46-.04-5.97-19.99-3.47-41.04-3.53-61.56-.12-2.27 2.31-3.39 3.58-4.95 69.63.01 139.27.03 208.91-.01-.03-50.74-.02-101.47-.01-152.21-117.25-.05-234.51-.01-351.76-.02m-1084.38 35.96c-27.43 18.69-48.89 45.81-61.36 76.52-8.28 20.52-12.09 42.68-12.27 64.77-.16 20.11 2.35 40.36 8.64 59.51 5.18 15.75 12.98 30.66 23.12 43.8 10.35 13.19 22.32 25.11 35.52 35.45 2.02 1.61 4.79 1.61 7.02 2.85 1.44 1.31 1.92 3.4 3.45 4.65 1.92 1.5 4.03 2.74 6.06 4.11.35-2.81.27-6.03 2.26-8.29 1.85-1.76 4.57-1.87 6.98-1.86 23.01.05 46.02.01 69.02.02 2.72.03 5.93.75 7.41 3.28 1.32 2.83.94 6.05.9 9.08 3.17-.23 6.44-.29 9.46.95-.02-3.37-.59-6.97.88-10.12 1.98-3.05 6-3.36 9.3-3.22 21.98.05 43.97.05 65.95 0 3.17-.11 6.88.11 9.04 2.79 1.68 2.64 1.15 5.96 1.25 8.94 13.72-8.4 26.55-18.33 37.71-29.93 12.68-13.18 22.74-29.32 26.7-47.33-48.61-18.46-96.86-37.92-144.3-59.22-6.13-2.98-12.68-5.21-18.48-8.77 53.1-30.78 104.54-64.28 156.71-96.58-8.62-15.56-20.01-29.55-33.55-41.09-22.93-19.59-50.91-32.9-80.21-39.71-9.68-2.68-19.82-2.47-29.77-2.57-37.88-.11-76.13 10.36-107.44 31.97m387.07 71.9c-40.71 70.51-81.39 141.04-122.15 211.52 12 3.95 23.52 11.01 30.9 21.42 4.36 4.01 10.58 7.18 11.98 13.4 4.83-16.96 19.64-30.28 36.52-34.76 19.02-5.43 41.04.76 54.01 15.81 4.47 6.42 11.91 10.04 15.97 16.86.65-5.23 2.28-10.33 4.99-14.87 8.32-14.97 27.47-23.23 43.98-18.25 8.46 2.22 15.6 7.63 22.01 13.37 1.29 1.21 1.82 2.97 2.6 4.52 3.34 2.24 6.36 4.92 9.45 7.51 1.78 1.42 3.07 3.5 3.08 5.84-.05 4.35-4.22 6.74-6.88 9.58 15.5-.08 31.01-.13 46.51.02-2.95-5.76-5.81-11.57-8.83-17.28-7.11-.28-14.2.33-21.29.2-.05-1.71-.09-3.42-.12-5.12 6.21-.39 12.43-.43 18.64-.68-1.99-4.45-5.15-8.6-5.57-13.59.16-3.92 4.03-5.92 7.56-5.84 12.68-.09 25.37.01 38.06-.04-10.4-21.62-23.57-41.96-31.77-64.61 1.68-.95 3.39-1.89 5.13-2.77 11.61 22.54 23.34 45.04 35.26 67.43 7.22-.07 14.43-.05 21.65-.02-52.89-100.53-105.35-201.29-158.39-301.74-17.96 30.58-35.49 61.42-53.3 92.09m702.6 311.31c6.17 0 12.35-.01 18.53.01-2.02 4.15-4.21 8.22-6.21 12.38 34.39.03 68.79.04 103.19-.01-2.14-4.27-4.25-8.56-6.44-12.8 3.47.04 6.96.04 10.47-.01.02 4.1.01 8.2.06 12.3 24.88-.02 49.76.03 74.65-.02-.05-12.4.03-24.79-.04-37.18-4.13 0-8.25-.01-12.36.03-.01-4.15 0-8.31-.02-12.46-6.19.02-12.37-.05-18.55.07-.24-15.29-.02-30.58-.11-45.86-4.11-.02-8.21-.02-12.3.02-.04-4.08-.03-8.15-.03-12.22-14.59 0-29.18-.02-43.77.01-.1 30.04.2 60.1-.15 90.14-4.26-6.79-7.31-14.26-11.05-21.33-10.59-21.29-21.25-42.53-31.85-63.82-1.03 1.97-2.01 3.96-2.96 5.96-3.47-5.95-6.24-12.27-9.41-18.37-17.21 34.39-34.43 68.77-51.65 103.16m-1136.03-95.75c.05 17.13-.1 34.26.07 51.39-10.31.22-20.63.09-30.94.07-.17 13.72 4.6 28.56 16.1 36.87 4.16 2.49 6.03 7.23 9.66 10.3 11.91 11.4 31.78 11.75 45.03 2.46 9.92-6.63 16.21-18.25 16.31-30.19.09-19.56.01-39.13.04-58.7-4.2-.01-8.38-.01-12.57-.01 0-4.07 0-8.14-.01-12.2-14.57.02-29.13-.01-43.69.01m62.75-.02c-.04 17.96.01 35.92-.02 53.88 0 4.71-.2 9.52 1.13 14.1 2.15 8.18 7.05 15.83 14.32 20.36 3.2 1.81 4.54 5.44 7.03 8 10.91 11.96 30.05 14.61 44.24 7.19 12.33-6.22 20.65-19.83 20.21-33.69-.02-19.22.04-38.43-.03-57.65-4.11.02-8.21.02-12.31.03 0-4.07 0-8.13.01-12.19-24.86-.04-49.72.01-74.58-.03m95.61.01c-.07 31.77.01 63.55-.04 95.32 4.19.07 8.39.05 12.59.05-.01 4.08-.01 8.17 0 12.26h74.61c.01-14.54 0-29.08.01-43.62-4.15 0-8.29.03-12.42-.09.02-2.65.02-5.3.02-7.94 4.13 0 8.26 0 12.4-.02-.01-14.59.01-29.17-.01-43.76-4.14 0-8.26-.01-12.38.02 0-4.06-.01-8.12.02-12.17-24.93-.11-49.87 0-74.8-.05m103.17 16.62c-7.68 8.83-12.06 20.55-11.61 32.29.13 13.86 6.79 27.55 17.85 35.97 3.7 2.59 5.97 6.62 9.3 9.62 8.65 8.37 20.59 13.22 32.64 13.12 15.98.02 31.96 0 47.94.01.24-16.66-.47-33.34.4-49.98 1.83 10.78 8.12 20.58 16.73 27.23 4.25 3.05 6.67 7.91 10.75 11.16 8.99 8.05 21.23 12.07 33.23 11.57 16.47-.45 32.31-10.24 40.07-24.78 9.46-16.76 7.39-39.31-5.32-53.84-3.45-4.54-8.85-7.09-12.07-11.82-13.78-17.84-41.14-22.42-60.34-10.93-16.5 9.22-26.42 28.66-23.93 47.45-3.96.01-7.91.01-11.85.02.01-4.18 0-8.34 0-12.51-2.54 0-5.08 0-7.59.01 3.49-3.58 7.11-7.03 10.64-10.57-4.2-4.03-8.56-7.95-13.51-11.04.23-.4.68-1.19.91-1.59-9.47-9.29-21.43-17.1-35.02-17.93-14.75-1.22-29.65 5.35-39.22 16.54m214.85-7.17c-8.01 7.69-11.89 19.49-9.71 30.41 1.62 8.77 7.01 16.68 14.37 21.68 1.93 1.23 3.22 3.14 4.51 5.01-4.78 4.75-9.53 9.51-14.29 14.27 3.83 4.24 8.23 8.03 13.41 10.55-.3.75-.59 1.52-.85 2.28 6.57 6.96 14.99 12.81 24.74 13.79 12.59 1.53 25.64-4.82 32.34-15.55 8.09-12.34 6.75-29.99-3.43-40.75-3.12-3.85-8.4-5.43-10.6-10.07 4.69-4.77 9.41-9.51 14.11-14.27-4.13-4.23-8.76-7.99-13.94-10.88.37-.43 1.1-1.3 1.46-1.74-5.44-5.16-11.45-10-18.62-12.47-11.46-4.17-24.85-.64-33.5 7.74m98.3-9.42c17.15 34.32 34.29 68.65 51.64 102.87 1.03-1.99 2.07-3.98 3.16-5.95 3 5.84 5.75 11.82 8.87 17.61.18.03.55.1.74.13 8.59-16.91 16.94-33.96 25.47-50.92 8.43-17.21 17.4-34.18 25.47-51.56-6.1-.02-12.19-.02-18.27.01 1.95-4.09 4.03-8.12 6.02-12.19-34.37-.04-68.73-.04-103.1 0m116.7-.05c-.11 31.79-.01 63.57-.05 95.36 4.19.04 8.38.03 12.58.03-.02 4.08-.02 8.17 0 12.26h74.61c.01-14.54 0-29.08.01-43.62-4.11-.02-8.2-.03-12.29.05-.1-2.69-.13-5.39-.14-8.08 4.13 0 8.28 0 12.43-.01-.01-14.59.01-29.18-.01-43.77-4.14 0-8.26-.01-12.38.02-.01-4.06-.01-8.12.02-12.17-24.93-.11-49.85.01-74.78-.07m92.37.02c.03 31.81-.11 63.62.07 95.42 4.09-.07 8.19-.06 12.29-.05-.02 4.08-.02 8.16-.01 12.25 27.29 0 54.58.04 81.88-.02-7.81-12.43-15.91-24.68-23.88-37.01 7.38-3.23 13.54-9.27 16.53-16.79 2.29-5.36 2.52-11.36 1.76-17.07-1.31-8-6.58-14.91-13.24-19.31-3.13-1.86-4.64-5.3-7.09-7.83-5.49-5.79-13.26-9.89-21.39-9.6-15.64.03-31.28.02-46.92.01m89.04 0c.02 11.12-.12 22.24.08 33.37 4.07-.08 8.15-.07 12.25-.06-.03 4.11-.03 8.22-.03 12.34 2.75 0 5.52.03 8.29.12-.12 16.52.01 33.03-.06 49.55 4.19.07 8.38.05 12.59.05-.02 4.08-.02 8.17 0 12.25 14.52.01 29.04.01 43.57 0 0-20.65-.01-41.3 0-61.94 6.9-.01 13.8-.01 20.71 0 .05-11.14-.02-22.29.04-33.43-4.2-.07-8.39-.06-12.57-.05-.01-4.07-.01-8.13-.01-12.2-28.28 0-56.57.02-84.86 0m101.83 0c-.08 31.76.05 63.51-.06 95.27 4.1.15 8.22.11 12.35.1-.02 4.08-.02 8.17 0 12.26 14.57 0 29.13-.01 43.7 0 .01-31.81.02-63.62-.01-95.44-4.14.01-8.27 0-12.4.02 0-4.06 0-8.12.02-12.18-14.53-.07-29.07 0-43.6-.03m71.55 18.35c-11.83 14.51-13.6 36.11-4.48 52.42 3.37 6.37 8.53 11.55 14.23 15.88 4.01 4.35 7.67 9.15 12.74 12.39 15.32 10.91 37.47 11.71 53.03.88 8.79-6.02 15.05-14.95 19.89-24.29-4.95-2.45-9.84-4.99-14.83-7.33.69-1.72 1.41-3.43 2.14-5.14-4.14-2.02-8.26-4.09-12.32-6.23 8.35-4.25 16.72-8.47 25.12-12.63-3.26-6.8-7.45-13.2-12.87-18.46-2.69-2.67-6.04-4.62-8.31-7.68-6.44-8.25-15.51-14.63-25.78-16.97-17.77-4.42-37.42 2.74-48.56 17.16m289.2-18.36c-.09 31.78 0 63.56-.04 95.34 4.18.05 8.37.04 12.58.04-.02 4.08-.02 8.17 0 12.26 24.87-.01 49.74.01 74.62-.01 0-14.53-.01-29.07 0-43.61-4.11-.02-8.22-.02-12.31.04-.08-2.69-.11-5.38-.12-8.06 4.13-.01 8.27-.01 12.43-.03-.01-14.59.01-29.18-.01-43.76-4.14 0-8.27-.01-12.38.02-.01-4.06-.01-8.12.02-12.18-24.93-.09-49.86.01-74.79-.05m100.69 13.21c-9.46 11.87-9.23 30.13.68 41.66 3.22 4.65 9.03 6.68 11.8 11.69-4.77 4.75-9.53 9.51-14.28 14.28 3.83 4.24 8.24 8.02 13.41 10.54-.31.75-.6 1.51-.85 2.28 6.57 6.98 15.04 12.84 24.83 13.8 12.3 1.46 25.03-4.59 31.83-14.91 8.53-12.38 7.36-30.46-3.01-41.41-3.14-3.84-8.39-5.43-10.61-10.05 4.69-4.78 9.41-9.52 14.13-14.28-4.15-4.23-8.77-8-13.95-10.88.37-.43 1.1-1.29 1.47-1.72-6.16-5.92-13.25-11.37-21.71-13.41-12.4-3.02-26.11 2.31-33.74 12.41m-468.91-7.29c.08 3.33 2.99-1.5 0 0m-614.28 26.35c-1.69 2.9 3.31.31 0 0m-1.79 4.51c1.38.35 1.91-.16 1.59-1.56-1.4-.35-1.92.17-1.59 1.56m334.3-2.22c-.69 1.69-1.34 3.39-1.98 5.1.67 1.42 1.38 2.86 2.09 4.29 0-3.13.01-6.26-.11-9.39m458.33 15.15c-4.65 2.45-9.33 4.82-14.06 7.1 3.31 1.51 6.02 4.83 4.74 8.68 2.69 1.42 5.43 2.78 8.17 4.17 3.4-6.95 6.92-13.84 10.34-20.78-3.06.16-6.41-.73-9.19.83m84.84-.84c2.98 6.1 6.23 12.09 8.88 18.36-.36-6.1-.19-12.21-.15-18.31-2.93-.08-5.84-.09-8.73-.05m76.53-.02c-.01.82-.03 2.46-.04 3.29 4.9.2 10-.74 14.8.63 4.85 1.81 3.92 7.72 3.98 11.84 1.89 0 3.81.02 5.74.06-.14-5.27-.08-10.54-.06-15.8-8.15-.04-16.29-.01-24.42-.02m-834.39 12.05c-.26 5.09-1.1 10.14-2.68 14.99 3.02-3.36 6.26-6.53 9.55-9.64-2.32-1.76-4.61-3.54-6.87-5.35z"/><path d="m11.35 472c73.23-127.41 146.44-254.84 219.72-382.22 56.81 101.67 109.59 205.5 163.32 308.81 12.44 24.07 24.99 48.07 37.37 72.17-12.9.05-25.81-.2-38.71.25-55.04-.2-110.07.42-165.11.24-30.96.5-61.93.16-92.9.24-22.67.52-45.35.15-68.03.26-18.56-.19-37.1.4-55.66.25m216.81-351.76c-65.34 113.27-130.78 226.49-196.13 339.76 38.99-.11 78 .26 116.98-.25 43.69-.05 87.37.16 131.05-.25 32.98-.01 65.95.01 98.93-.01 10.79-.46 21.59-.14 32.39-.26-59.98-114.42-119.97-228.83-179.96-343.24-1.86.5-2.2 2.86-3.26 4.25z"/><path d="m1994.81 116.21c52.88-.61 105.76.71 158.63 1.97 0 1.77.03 3.54.08 5.31-50.67.2-101.34.91-152.02 1.01-.07 42.08-.8 84.15-.99 126.23-1.93.01-3.84.03-5.72.05-.06-44.86-.09-89.71.02-134.57z"/><path d="m618.49 191.66c7.06-1.82 15.52-.4 20.5 5.28 6.91 7.72 6.29 20.79-1.21 27.89-5.29 5.16-13.68 6.26-20.42 3.6-4.62-1.97-8.18-5.92-10.51-10.28-3.14-9.97 1.18-22.9 11.64-26.49z"/><path d="m757.5 219.29c1.78-.02 3.56-.03 5.36-.02-1.26 17.62-9.95 34.02-21.95 46.7-6.43 6.82-14.11 12.5-22.68 16.31-11.74 5.24-23.48 10.46-35.22 15.7-.02-2.95-.02-5.9-.01-8.85 18.57-6.12 36.98-14.19 51.76-27.27 12.41-10.81 21.12-26.07 22.74-42.57z"/><path d="m1746.52 309.68c6.27-1.4 13.31.25 17.93 4.85 3.08 3.07 6.24 6.82 6.08 11.46.65 6.99-2.65 14.18-8.49 18.1-2.92 1.88-6.59 3.11-10.01 2.02-6.61-1.64-14.06-4.32-17.26-10.84-2.94-9.87 1.94-21.7 11.75-25.59z"/><path d="m216.5 311.58c9.77-3.23 20.72 2.32 24.97 11.44 1.38 8.13-1.1 17.46-7.84 22.64-7.87 5.64-19.86 2.78-24.95-5.3-3.87-4.5-3.18-10.88-2.01-16.26 1.11-5.35 4.52-10.6 9.83-12.52z"/><path d="m1317.42 311.59c7.4-2.3 16.05-.03 21.15 5.89 1.96 2.45 4.54 5.04 4.22 8.45.37 7.09-2.06 14.66-7.67 19.27-3.84 3.27-9.27 3.89-14.07 2.98-6.34-1.26-11.41-6.34-13.81-12.17-1.65-8.9.88-20.72 10.18-24.42z"/><path d="m1002.5 321.57c36.8 14.23 73.61 28.42 110.39 42.69-.48 8.65-6.21 15.74-12.18 21.52-7.05 6.77-15.31 12.12-23.93 16.65-1.3-.96-2.59-1.92-3.87-2.88 10.58-9.44 23.74-17.2 29.89-30.54-32.63-15.54-67.11-26.65-100.3-40.87-.01-2.19-.01-4.38 0-6.57z"/><path d="m327.36 352.65c1.59-.93 3.16-1.91 4.83-2.71 5.37 9.1 9.85 18.74 14.91 28.03 10.96 20.99 21.95 41.98 32.91 62.97-26.5.62-53 1.15-79.51 1.56 0-1.74-.01-3.47-.01-5.19 21.99-.73 43.99-1.29 65.97-1.97-9.87-29-28.79-53.86-39.1-82.69z"/><path d="m647.56 363.81c2.83-.07 5.68-.07 8.52-.08 15 14.75 29.56 29.93 44.51 44.73 10.18 10.26 20.53 20.36 30.6 30.73-27.81.18-55.61-1.06-83.39-2.4-.03-1.26-.06-2.51-.08-3.76 21.41-2.93 43.12.69 64.5-2.59-12.03-13.15-24.88-25.52-37.14-38.45-9.22-9.35-18.36-18.78-27.52-28.18z"/><path d="m864.14 441.92c10.29 0 20.57 0 30.86.01-.02 17.04.04 34.08-.03 51.12-.06 8.61-3.56 17.23-9.93 23.1-7.85 7.38-19.71 10.1-29.98 6.86-12.68-3.73-21.83-16.2-21.87-29.39 10.28.06 20.57-.03 30.86.05.22-17.25.03-34.5.09-51.75m5.93 5.96c0 14.36-.02 28.72.01 43.08-.11 2.2-.01 4.74-1.62 6.47-2.01 1.77-4.82 2.12-7.38 2.1-7.09-.03-14.17-.02-21.25-.04 2.08 9.01 9.57 16 18.34 18.47.8-1.69 1.22-3.93 3.16-4.73 2.53-1.11 5.41-.95 8-1.93 7.68-3.27 13.35-10.88 13.98-19.25.23-2.92 3.32-3.78 5.62-4.6.16-13.19.02-26.38.06-39.56-6.31-.01-12.62-.01-18.92-.01m18.84 45.43c-.94 12.77-12.05 24.2-24.91 25.04 0 .82 0 2.46.01 3.28 14.75-.34 28.38-13.38 28.07-28.37-.79.01-2.38.04-3.17.05z"/><path d="m926.75 441.92h61.61c-.03 17.69.06 35.39-.04 53.08-.37 13.49-10.75 25.69-23.87 28.59-7.83 1.77-16.34.41-23.15-3.88-9.13-5.51-14.73-16.13-14.57-26.74.02-17.01 0-34.03.02-51.05m20.98 6.44c11.42 2.83 22.99 5.18 34.75 5.96 0-2.16.01-4.31.02-6.46-11.59.32-23.23-.57-34.77.5m-15.12 8.75c.1 12.63-.1 25.27.09 37.9.26 10.82 8.7 20 18.79 23.03.78-2.36 2.19-4.88 4.8-5.51 3.14-.74 6.57-1.02 9.18-3.15 4.29-3.4 8.4-7.75 9.41-13.33.52-2.33.58-5.04 2.47-6.77 1.33-1.44 3.43-1.45 5.21-1.94-.14-6.88-.04-13.75-.07-20.63-16.97-.88-33.8-4.11-49.88-9.6m48.72 36.12c-1.06 12.34-11.13 24.02-23.84 24.87v3.4c14.73-.25 26.9-13.66 27.16-28.12-1.12-.06-2.23-.11-3.32-.15z"/><path d="m1022.59 441.92h61.62c.03 10.2-.06 20.41.05 30.61-9.05.16-18.1.01-27.15.08 0 1.39 0 2.78.02 4.18 4.3-.01 8.6-.01 12.9 0 .01 4.19.01 8.38.01 12.57-4.31 0-8.61 0-12.91-.01-.01 1.43-.01 2.86.01 4.3 9.02-.02 18.05-.01 27.08-.01-.01 10.24-.01 20.48 0 30.72-20.55.01-41.09-.01-61.64.01.02-27.48 0-54.97.01-82.45m5.89 5.91c-.05 1.05-.09 2.1-.11 3.16 4.55-.92 9.02-2.2 13.48-3.5-4.44.64-8.92.37-13.37.34m44.12.62c-13.83 7.23-28.9 11.93-44.15 15.1-.08 18.35.12 36.7-.1 55.05 8.93-.24 17.86-.04 26.79-.11.77-2.31 1.43-5.24 4.04-6.12 4.1-1.15 8.44-.51 12.66-.54-.17-4.17-.38-8.4.77-12.46-5.04.13-10.09.33-15.11.01-7.18-.3-8.37-11.25-3.14-14.84 3.11-1.53 6.71-.82 10.06-1.29-3.62-1.29-8.11.36-11.17-2.46-3.29-4.04-2.72-10.86 1.9-13.71.76-2.03 1.01-4.67 3.22-5.69 4.18-1.9 8.94-.95 13.38-1.11.01-3.95-.4-8.01.85-11.83m4.98 2.78c.02 4.98.01 9.96.01 14.94-5.48-.01-10.96-.02-16.44.01 0 1.15.01 2.3.04 3.47 6.57-.01 13.15-.04 19.73.02.07-6.18.04-12.36.03-18.54-1.14.02-2.27.06-3.37.1m.03 51.19c-.02 5.06-.03 10.13.01 15.2-5.49-.04-10.98-.04-16.47 0 .01.83.01 2.5.01 3.33 6.59.02 13.19 0 19.79.01.02-6.18 0-12.36.02-18.53-.84-.01-2.52-.01-3.36-.01z"/><path d="m1134.65 447.69c15.19-9.36 36.66-7.12 49.15 5.75l.12.62c-9.41 9.91-19.38 19.29-28.86 29.14 13.75.08 27.51.07 41.26 0 .09 13.72.01 27.44.05 41.17-13.79-.03-27.58.02-41.36-.03-11.08.09-22.03-4.72-29.62-12.77-8.03-8.31-12.23-20.16-11.24-31.67 1.08-13.22 9.06-25.56 20.5-32.21m3.14 5.02c-2.24 1.92-3.26 4.84-4.8 7.29 9.05 0 18.11-.01 27.16.01 3.22-3.16 6.3-6.45 9.67-9.45-10.26-3.9-22.6-3.95-32.03 2.15m37.93.2c-8.52 8.83-17.33 17.38-25.96 26.1.72.76 1.47 1.53 2.22 2.3 8.79-8.58 17.3-17.45 26.17-25.97-.82-.82-1.63-1.63-2.43-2.43m-55.38 36.19c1.89 11.93 10.48 22.35 21.62 26.89 7.92 3.46 16.75 2.3 25.15 2.49.76-2.3 1.47-5.21 4.05-6.1 4.14-1.17 8.52-.49 12.78-.59.09-3.81-.43-7.71.54-11.42.73-2.72 3.84-3.14 6.1-3.93-.08-2.45-.09-4.89-.09-7.33-11.87-.1-23.76.29-35.61-.18-4.31-1.55-9.77-3.76-10.79-8.78-.81-3.45 1.96-6.03 3.96-8.39-8.78-.04-17.56.46-26.34.2-1.93 5.48-2.11 11.42-1.37 17.14m69.62 13.27c-.19 5.08-.08 10.17-.11 15.26-5.57-.05-11.14-.06-16.71 0 .01.83.02 2.49.03 3.32 6.6.02 13.21.01 19.83.01-.03-6.2.07-12.41-.07-18.61-.74.01-2.23.02-2.97.02z"/><path d="m1258.1 442.17c17.94-2.16 36.24 9.23 42.55 26.1 6.35 15.74 1.49 35.03-11.49 45.93-7.47 6.47-17.27 10.37-27.19 10.14-11.07.09-21.99-4.74-29.57-12.76-9.43-9.73-13.53-24.35-10.31-37.54 3.84-16.73 18.89-30.18 36.01-31.87m-22.21 17.83c17.64-.55 35.31-.1 52.97-.25-6.5-6.78-15.35-11.81-24.93-11.84-10.63-.78-21.11 4.16-28.04 12.09m-7.01 11.76c-2.14 5.05-2.13 10.71-1.69 16.09 1.69 14.95 14.17 27.86 29.03 30.16.73-1.7 1.08-3.91 2.98-4.75 3.33-1.65 7.23-1.16 10.7-2.44 11.54-4.16 20.58-15.31 21.02-27.75.05-3.44 3.26-5.41 6.24-6.14-.46-1.82-.96-3.64-1.46-5.43-22.27.18-44.59-.35-66.82.26m67.72 11.42c-.14 18.15-16.38 34.26-34.41 34.89-.03.83-.09 2.48-.11 3.3 20.37.41 38.46-18.15 37.96-38.42-1.16.07-2.31.14-3.44.23z"/><path d="m1341.42 447.24c10.47-7.93 26.42-6.74 35.61 2.66-6.55 6.58-13.14 13.11-19.67 19.7 6.35.24 12.69 2.32 17.61 6.42 7.19 5.76 11.13 15.38 9.84 24.52-1.38 10.26-8.94 19.46-18.86 22.52-9.6 2.91-21.2 1.05-28.2-6.54 6.76-6.6 13.39-13.33 20.07-20.01-10.09.03-19.98-5.78-24.51-14.84-6.21-11.43-2.6-27.01 8.11-34.43m8.63 1.85c-5.15 1.92-9.06 6.11-11.93 10.67 3.88-.08 7.77.17 11.65-.11 3.79-3.77 7.33-7.85 11.08-11.68-3.62-.06-7.38-.25-10.8 1.12m3.03 15.91c.86.78 1.74 1.57 2.64 2.36 4.66-5.22 9.39-10.37 14.13-15.52-.92-.72-1.83-1.44-2.71-2.15-4.68 5.11-9.34 10.24-14.06 15.31m-17 6.27c.98 8.64 7.38 16.49 15.91 18.59 2.98.77 6.34.51 9.06 2.18 3.01 2.43 2.51 7.4-.16 9.92-4.67 4.77-9.49 9.38-14.11 14.19 1.56.66 3.13 1.32 4.72 1.98.74-1.67 1.21-3.77 3.04-4.62 2.87-1.41 6.31-1.17 9.07-2.87 3.33-1.97 6.08-4.95 7.62-8.51 1.16-2.76 1.27-5.82 2.41-8.59.84-1.86 3.05-2.24 4.74-2.98-3.07-8.1-10.65-14.49-19.46-14.93-3.33.12-5.42-2.59-7.92-4.24-4.97-.37-9.96-.05-14.92-.12m42.44 25.14c-.45 11.26-9.89 21.16-21.11 22.16-.03.77-.09 2.33-.12 3.1 4.16-.43 8.43-1.11 12.06-3.33 7.82-4.29 12.57-13.1 12.55-21.94-1.15 0-2.27 0-3.38.01z"/><path d="m1442.81 441.93c27.46-.01 54.92-.01 82.38 0-13.73 27.4-27.46 54.81-41.19 82.21-13.73-27.4-27.46-54.81-41.19-82.21m9.51 6c1.94 3.8 3.89 7.6 5.73 11.46 17.42.41 34.83-.36 52.25-.16 1.55-4.14-2.54-7.47-3.72-11.18-18.08-.36-36.18-.12-54.26-.12m11.62 23.12c5.27 10.62 10.69 21.16 15.89 31.82 3.42-6.37 6.41-12.97 9.87-19.32 1.89-3.31 6.07-4.15 9.41-2.62 1.7-3.39 3.42-6.77 5.04-10.2-13.4.55-26.81.1-40.21.32m20.05 36.8c.7 1.4 1.38 2.8 2.11 4.21 3.37-7.01 6.72-14.04 10.08-21.06 1.27-1.82-.43-3.7-1.01-5.39-3.83 7.36-7.57 14.77-11.18 22.24z"/><path d="m1555.59 441.92h61.62c.03 10.2-.06 20.4.05 30.6-9.05.18-18.11.01-27.16.1-.01 1.38.01 2.78.04 4.18 4.29-.02 8.59-.02 12.89-.01v12.57c-4.3 0-8.59.01-12.88-.02-.03 1.43-.04 2.86-.02 4.31 9.02-.02 18.05-.01 27.09-.01-.02 10.24-.01 20.48 0 30.72-20.55.01-41.1-.01-61.64.01.02-27.48 0-54.97.01-82.45m5.83 17.05c14.4-1.06 28.85-1.35 43.3-1.22-.11-3.33.01-6.69.97-9.9-14.73.04-29.46.08-44.18-.02-.09 3.71-.08 7.42-.09 11.14m49.16-7.75c.02 4.98.01 9.97.01 14.95-5.48-.01-10.96-.01-16.43 0-.02 1.15-.01 2.31.02 3.47 6.58 0 13.16-.02 19.75.02.04-6.18.04-12.37 0-18.55-1.14.03-2.25.07-3.35.11m-49.15 19.03c-.03 16.12.12 32.24-.08 48.35 8.93-.24 17.85-.04 26.79-.11.76-2.32 1.44-5.26 4.07-6.13 4.09-1.13 8.42-.5 12.62-.53-.17-4.17-.38-8.4.78-12.46-5.06.14-10.13.33-15.16 0-7.15-.34-8.3-11.26-3.08-14.83 3.09-1.54 6.68-.82 10.02-1.27-3.61-1.36-8.16.39-11.2-2.54-2.64-3.26-2.47-8.02-.61-11.63-8.04.58-16.12.43-24.15 1.15m49.18 32.16c-.03 5.07-.03 10.14.01 15.21-5.5-.04-10.99-.04-16.47 0 0 .83.01 2.5.01 3.33 6.59.02 13.19.01 19.8.01 0-6.17-.02-12.35.02-18.51-.85-.01-2.53-.03-3.37-.04z"/><path d="m1647.79 441.92c13.74.02 27.48-.04 41.22.03 13.07.13 23.89 13.2 22.39 26.02-.98 11.37-11.08 21.08-22.52 21.47 7.53 11.64 15.02 23.3 22.56 34.92-21.22 0-42.44 0-63.66 0 .02-27.48 0-54.96.01-82.44m5.9 5.94v11.83c7.34.26 14.66.82 22.01 1.02 2.64-4.5 8.07-7.45 13.27-5.77 3.66.65 6.06 3.82 7.7 6.92 2.93.1 5.54-1.24 8.12-2.45-3.04-5.54-7.97-11.23-14.75-11.46-12.12-.18-24.24.01-36.35-.09m30.74 12.64c-3.59.9-5 5.77-2.58 8.53 2.45 3.27 8.49 2.1 9.25-2.04 1.3-3.86-2.88-7.84-6.67-6.49m20.36 4.93c-.6 6.94-6.03 12.41-12.07 15.26-5.23 2.66-11.24 1.57-16.86 1.78 7.33 12.11 15.12 23.94 22.7 35.9-3.68-.02-7.35-.01-11.01 0-.04 1.12-.06 2.25-.05 3.38 5.83.06 11.67.04 17.51.03-7.59-12-15.38-23.86-23-35.84 4.38.01 8.92-.09 12.98-2 7.41-3.03 13.14-10.44 12.96-18.64-1.08.03-2.13.08-3.16.13m-51.09 5.28c-.06 15.94.08 31.88-.07 47.82 9.34-.08 18.68-.02 28.02-.04.45-3.39 3.05-5.51 6.35-5.93-5.04-7.55-9.75-15.31-14.7-22.92-1.14-1.79-2.42-3.59-2.74-5.72-.2-2.9 1.27-6.43 4.46-6.96 4.62-.77 9.34-.03 14.02-.41-2.36-.17-4.72-.18-7.01-.67-2.45-.53-4.02-2.64-5.69-4.29-7.54-.53-15.1-.61-22.64-.88z"/><path d="m1736.84 441.93c24.05-.01 48.1-.01 72.16-.01 0 6.81-.01 13.62 0 20.44-6.9 0-13.79 0-20.68 0-.02 20.67-.01 41.34 0 62-10.25 0-20.5-.01-30.74.01.01-20.67 0-41.34.01-62-6.93-.02-13.84 0-20.76-.01 0-6.81-.01-13.62.01-20.43m5.92 5.93c0 2.89-.02 5.77-.05 8.66 5.12.14 10.31-.44 15.4.32 2.38.21 3.91 2.03 5.04 3.95 6.41-.49 12.78-1.39 19.14-2.36.29-2.64.18-5.92 2.62-7.62 3.23-2.26 7.41-1.51 11.13-1.64l.06-1.3c-17.78.01-35.56.03-53.34-.01m59.27-.48c-.01 2.58 0 5.16.01 7.74-4.6 0-9.19-.02-13.78.03.01 1.12.04 2.25.09 3.39 5.7-.03 11.41.03 17.13-.05-.02-3.71-.02-7.42-.01-11.12-.86 0-2.58.01-3.44.01m-38.58 23.23c-.05 13.77.06 27.54-.05 41.31 4.04-.22 8.1-.21 12.17-.14 0-4.09-.7-8.45 1.09-12.28 1.07-2.23 3.76-2.36 5.85-3.03-.18-9.29-.05-18.59-.06-27.89-6.33.81-12.66 1.51-19 2.03m17.91 31.83c-.01 5.05-.02 10.1.02 15.16-5.42-.02-10.83.05-16.24-.07-.09 1.13-.16 2.28-.19 3.43 6.62 0 13.25.01 19.89-.01-.03-6.19.02-12.38-.04-18.57-1.17.01-2.32.03-3.44.06z"/><path d="m1838.69 441.92h30.72c.01 27.48-.01 54.97.01 82.45-10.25-.02-20.49-.01-30.74-.01.02-27.48 0-54.96.01-82.44m5.82 10.65c.08 19.89.12 39.78-.02 59.67 4.12-.75 8.32-.5 12.5-.47.11-3.66-.46-7.45.66-10.98.93-2.57 3.41-3.88 5.98-4.29-.16-16.18-.07-32.36-.04-48.54-3.22-.04-6.45-.34-9.62.15-3.31 1.12-6.32 2.96-9.46 4.46m18.57 49.78c-.15 5.09-.05 10.18-.12 15.28-5.58-.06-11.16-.03-16.72-.04 0 .85-.01 2.54-.01 3.39 6.63-.04 13.27-.01 19.91-.02-.05-6.21.13-12.41-.13-18.61-.73 0-2.2 0-2.93 0z"/><path d="m1934.09 442.63c17.39-3.43 36.61 5.74 44.06 22.01-12.4 6.11-24.84 12.17-37.11 18.53 12.35 6.07 24.55 12.47 36.97 18.43-8.43 18.01-31.32 27.32-50 20.59-17.12-5.5-29.02-23.36-27.74-41.27.66-18.55 15.61-35.17 33.82-38.29m-2.11 6.41c-11.44 3.35-21 12.61-24.54 24.02-4.37 14.35 1.48 31.05 13.99 39.36 8.72 6.2 20.2 7.44 30.37 4.59-.35-1.85-1.17-3.82-.33-5.65 1-2.48 3.59-3.68 5.56-5.27-7.45-3.9-14.91-7.79-22.29-11.8-2.5-1.34-4-4.5-3.21-7.25.92-4.24 4.59-7.11 7.83-9.66 8.48-4.28 16.98-8.52 25.53-12.68.08-2.65.1-5.31.16-7.96-8.76-8.08-21.67-10.71-33.07-7.7m6.33 36.79c-.48 1.01-.94 2.03-1.37 3.06 10.02 5.3 20.05 10.58 30.08 15.87-3.12 3.23-6.46 6.24-10.15 8.78.51 1.04 1.02 2.08 1.59 3.13 5.47-3.5 10.14-8.03 14.29-13-11.45-6.02-22.87-12.08-34.44-17.84z"/><path d="m2107.23 441.97c10.28-.11 20.56-.03 30.85-.04 0 19.34-.01 38.68 0 58.03 10.34.01 20.69-.01 31.04 0 0 8.13-.01 16.26 0 24.4-20.63 0-41.26 0-61.89 0 .03-27.46.03-54.93 0-82.39m5.9 5.9c-.01 4.22-.03 8.43.03 12.65 6.28-.03 12.57-.05 18.87.02.12-4.23.08-8.45.09-12.67-6.33.02-12.66.01-18.99 0m-.01 24.14c-.01 15.49.07 30.98-.04 46.46 8.86.05 17.73.01 26.6.03.6-2.04.72-4.84 3.03-5.78 4.31-1.66 9.06-.78 13.59-.97-.07-1.94-.08-3.87-.09-5.8-6.22-.19-12.48.39-18.65-.3-3.34-.29-5.41-3.47-5.37-6.6-.2-9.02-.01-18.03-.08-27.05-6.33 0-12.67-.01-18.99.01m49.07 30.38c-.05 5.06-.04 10.13-.02 15.2-5.53.02-11.06-.03-16.57.04 0 .83 0 2.5.01 3.33 6.67-.01 13.36.03 20.05-.03-.05-6.17-.02-12.33-.02-18.5-1.18-.02-2.33-.04-3.45-.04z"/><path d="m2199.59 441.92h61.62c.03 10.21-.06 20.41.04 30.61-9.05.15-18.09.02-27.13.08-.03 1.38-.02 2.78.01 4.18 4.29-.01 8.59-.01 12.91 0-.01 4.19-.01 8.38-.01 12.57-4.3 0-8.59.01-12.87-.02-.05 1.43-.06 2.86-.03 4.31 9.02-.03 18.05-.01 27.09-.01-.02 10.24-.01 20.48 0 30.72-20.55.01-41.1-.01-61.64.01.02-27.48 0-54.97.01-82.45m5.81 6.04c.05 4.18.04 8.36.04 12.54 14.44.13 28.88-.1 43.31-.36-.02-4.11-.39-8.32.98-12.29-14.78.12-29.56-.09-44.33.11m49.18 3.27c.02 4.98.01 9.96.01 14.94-5.49-.01-10.97-.01-16.44.01-.02 1.15-.01 2.3.04 3.47 6.57-.01 13.15-.03 19.74.01.04-6.18.03-12.36.01-18.53-1.15.02-2.27.06-3.36.1m-49.18 20.84c.04 15.51.13 31.02-.05 46.53 8.92-.24 17.85-.04 26.79-.11.75-2.32 1.43-5.26 4.07-6.13 4.09-1.13 8.41-.51 12.62-.52-.17-4.17-.37-8.41.78-12.47-5.27.09-10.58.44-15.82-.11-6.48-.92-7.31-10.63-2.91-14.39 2.92-1.93 6.65-1.27 9.99-1.34-.02-.22-.06-.64-.08-.85-3.36-.06-7.09.48-10.03-1.45-2.7-2.21-2.58-6.08-2.49-9.24-7.63.05-15.26-.07-22.87.08m49.2 30.34c-.02 5.07-.03 10.14.02 15.21-5.5-.04-10.98-.04-16.46-.01v3.34c6.59.02 13.19.01 19.8.01 0-6.18-.02-12.35.02-18.52-.85 0-2.53-.02-3.38-.03z"/><path d="m2313.03 443.04c9.39-2.84 20.06-.06 27 6.86-6.52 6.59-13.17 13.05-19.61 19.71 6.79.23 13.55 2.67 18.59 7.3 5.94 5.27 9.3 13.25 9.04 21.17-.39 8.36-4.83 16.36-11.61 21.23-10.52 7.6-26.45 6.62-35.71-2.58 6.58-6.85 13.44-13.43 20.07-20.23-13.67.28-26.37-10.94-27.38-24.63-1.6-12.73 7.25-25.58 19.61-28.83m.07 6.04c-5.36 2.03-9.57 6.41-12.25 11.38 3.77-.04 7.58.29 11.36-.13 3.95-4.03 7.67-8.33 11.65-12.37-3.62-.05-7.36-.25-10.76 1.12m2.96 15.92c.88.77 1.79 1.54 2.72 2.31 4.64-5.25 9.42-10.39 14.14-15.57-.91-.73-1.87-1.31-2.88-1.73-4.89 4.77-9.22 10.09-13.98 14.99m-16.92 7.03c1.32 8.36 7.61 15.85 15.95 17.85 2.94.75 6.25.5 8.94 2.15 2.84 2.24 2.6 6.87.31 9.43-4.69 5.07-9.99 9.57-14.46 14.84 1.51.6 3.07 1.2 4.63 1.79.72-1.65 1.2-3.72 3.01-4.57 3.11-1.51 6.89-1.18 9.76-3.29 4.98-3.03 7.83-8.52 8.58-14.18.15-3.06 2.74-4.89 5.52-5.49-2.98-7.73-10.02-14.09-18.47-14.78-3.08-.06-5.9-1.42-7.84-3.77-5.32-.02-10.63-.02-15.93.02m42.38 24.38c-.48 11.09-9.8 21.42-21.09 21.94-.01.83-.05 2.49-.07 3.32 4.36-.43 8.83-1.25 12.58-3.68 7.49-4.39 11.96-12.98 11.96-21.59-1.16 0-2.28 0-3.38.01z"/><path d="m2004.16 524.95c13.85-27.31 27.16-54.9 41.2-82.1 13.65 27.41 27.44 54.75 41.11 82.15-27.44-.03-54.88.07-82.31-.05m41.07-69.34c-.79 1.63-1.56 3.26-2.31 4.89 1.56 0 3.16.01 4.78.03-.85-1.64-1.68-3.28-2.47-4.92m-8.12 16.42c-7.83 15.63-15.57 31.3-23.42 46.92 13.21.06 26.43.1 39.65-.02.52-2.11.55-4.73 2.57-6.07 2.15-1.68 5-1.61 7.61-1.76-1.48-3.03-3.81-6.48-2.29-9.95.76-2.1 2.98-3 4.71-4.17-4.1-8.29-8.39-16.48-12.32-24.84-5.51-.26-11.01-.12-16.51-.11m29.08 31.57c2.36 4.46 4.59 9 6.87 13.51-4.58.01-9.16-.01-13.73.04-.01 1.12.01 2.25.06 3.38 6.27-.01 12.55 0 18.83 0-2.53-6.37-5.99-12.32-8.87-18.53-1.08.53-2.15 1.05-3.16 1.6z"/><path d="m1260.03 473.03c7.81-1.92 15.4 6.42 12.9 14.04-1.76 8.04-13.26 10.65-18.67 4.64-6.05-5.74-2.85-17.7 5.77-18.68m-.64 6.37c-3.06 1.73-3.29 6.69-.46 8.74 2.66 2.09 7.19 1.03 8.3-2.3 1.96-4.41-3.86-9.3-7.84-6.44z"/><path d="m2039.32 483.4c4.37-1.98 10.12-.74 13.07 3.13 3.19 4.17 3.17 10.49-.31 14.48-4.16 4.9-12.77 4.85-16.89-.01-4.63-5.38-2.9-15.24 4.13-17.6m3.01 5.01c-3.39.84-5.26 5.29-3.09 8.15 2.21 3.7 8.85 2.82 9.58-1.6 1.08-3.74-2.72-7.72-6.49-6.55z"/><g fill="#f4b20c"><path d="m1664.63 87.42c11.34-.37 22.7-.55 34.05-.87-11.32.93-22.7.98-34.05.87z"/><path d="m451 99.93c66.98 7.93 134.33-5.33 201.38.88 21.8 2.15 43.72 6.06 63.9 14.87 16.66 7.4 31.58 18.79 42.9 33.1 9.93 12.47 17.12 26.97 21.99 42.1 1.26 3.92 2.72 7.87 2.76 12.04.65 19.7-3.65 39.86-14.12 56.71-9.34 15.33-23.06 27.54-38.2 36.95-21.68 13.89-46.84 22.91-72.72 23.55-2.33.2-5.41-.43-6.74 2.07-1.82 3.74-1.16 8.8 1.76 11.83 40.39 40.86 80.92 81.59 121.31 122.46-108.04.07-216.08-.09-324.12.08-.23-118.88-.04-237.76-.1-356.64m167.49 91.73c-10.46 3.59-14.78 16.52-11.64 26.49 2.33 4.36 5.89 8.31 10.51 10.28 6.74 2.66 15.13 1.56 20.42-3.6 7.5-7.1 8.12-20.17 1.21-27.89-4.98-5.68-13.44-7.1-20.5-5.28m139.01 27.63c-1.62 16.5-10.33 31.76-22.74 42.57-14.78 13.08-33.19 21.15-51.76 27.27-.01 2.95-.01 5.9.01 8.85 11.74-5.24 23.48-10.46 35.22-15.7 8.57-3.81 16.25-9.49 22.68-16.31 12-12.68 20.69-29.08 21.95-46.7-1.8-.01-3.58 0-5.36.02m-109.94 144.52c9.16 9.4 18.3 18.83 27.52 28.18 12.26 12.93 25.11 25.3 37.14 38.45-21.38 3.28-43.09-.34-64.5 2.59.02 1.25.05 2.5.08 3.76 27.78 1.34 55.58 2.58 83.39 2.4-10.07-10.37-20.42-20.47-30.6-30.73-14.95-14.8-29.51-29.98-44.51-44.73-2.84.01-5.69.01-8.52.08z"/><path d="m1550.55 417.27c-.07-105.85-.11-211.71.02-317.56 28.15.09 56.3 0 84.45.05 26-.52 52.01-.15 78.02-.25 17.66.68 35.33 1.48 52.99 2.21 9.34.69 18.88-.09 28.01 2.43 36.05 8.06 68.42 28.55 94.07 54.77 13.81 14.06 25.43 30.37 33.66 48.31 16.73 37.01 19.88 79.79 9.52 119.01-9.97 37.61-32.73 71.19-61.91 96.61-.85-3.06-3.45-5.35-6.66-5.51-6.98-.32-13.97.12-20.93-.21 13.95-8.31 26.62-18.85 36.75-31.59 23.17-28.95 35.69-65.24 40.06-101.77-2.43-.02-4.84-.03-7.23-.03-2.79 21.28-7.91 42.38-16.66 62.03-6.35 14.08-14.49 27.49-25.14 38.74-10.36 10.97-22.73 19.93-35.97 27.11-4.86 2.51-9.62 5.49-15.16 6.17-3.19 1.79-6.06 4.23-9.7 5.16-.65-3.72-4-5.91-7.64-5.69-27.06-.04-54.12-.02-81.17-.01-3.18-.11-6.9 1.36-7.36 4.91-1.13 5.49-.25 11.18-.53 16.75-2.41-1.91-5.23-3.39-7.01-5.95-6.6-9.72-18.23-15.99-30.02-15.74-14.71.05-29.41 0-44.11.02-2.27.02-4.89.46-6.3 2.41-1.87 2.9-1.59 6.5-1.63 9.79-1.93.04-3.84.08-5.73.15-.06-3.06.4-6.32-.96-9.17-1.54-2.36-4.57-3.23-7.25-3.18-19.49.02-38.99-.03-58.48.03m195.97-107.59c-9.81 3.89-14.69 15.72-11.75 25.59 3.2 6.52 10.65 9.2 17.26 10.84 3.42 1.09 7.09-.14 10.01-2.02 5.84-3.92 9.14-11.11 8.49-18.1.16-4.64-3-8.39-6.08-11.46-4.62-4.6-11.66-6.25-17.93-4.85z"/><path d="m1976 99.75c117.25.01 234.51-.03 351.76.02-.01 50.74-.02 101.47.01 152.21-69.64.04-139.28.02-208.91.01-1.27 1.56-3.7 2.68-3.58 4.95.06 20.52-2.44 41.57 3.53 61.56 24.82.02 49.64-.05 74.46.04-.04 8.48-.01 16.97-.02 25.46-24.42 0-48.84 0-73.26 0-1.08 11.29-1.87 22.63-1.74 33.99-.13 10.9.51 21.91 3.24 32.51 68.73-.03 137.46.06 206.19-.04.09 4.14.05 8.29.09 12.44-8.03-4.56-17.66-6.96-26.81-4.92-11.42 2.14-22.41 9.36-27.35 20.08-.08-2.74-.46-6.07-3.12-7.53-2.9-1.37-6.17-1.02-9.25-.99-.06-3.04.39-6.28-.95-9.11-1.76-2.7-5.28-3.33-8.26-3.21-23.36.08-46.73-.05-70.09.06-3.69-.01-7.43 2.77-7.13 6.75-.14 12.12-.08 24.26-.01 36.39-8.15.18-16.3.01-24.44.1-.27-8.52.34-17.07-.3-25.56-.55-5.8-7.6-5.7-11.95-5.45-.09-2.73.17-5.54-.58-8.19-1.1-3.05-4.61-4.19-7.56-4.08-12.66-.01-25.32.03-37.97-.02-2.88-.02-6.27.31-8.16 2.75-1.38 2.06-1.34 4.67-1.37 7.05.04 11.16.02 22.32.02 33.47-4.83.01-9.65.04-14.47-.03-5.78-11.41-11.31-22.95-17.22-34.29-1.32-2.99-4.81-3.69-7.72-3.08-1.49-2.94-2.86-5.95-4.41-8.86-1.88-4.6-9.53-4.68-11.48-.08-7.84 15.38-15.46 30.88-23.22 46.3-4.67.08-9.34.07-13.99.01-3.68-6.58-8.35-12.59-13.97-17.61-.02-114.37-.01-228.73-.01-343.1m18.81 16.46c-.11 44.86-.08 89.71-.02 134.57 1.88-.02 3.79-.04 5.72-.05.19-42.08.92-84.15.99-126.23 50.68-.1 101.35-.81 152.02-1.01-.05-1.77-.08-3.54-.08-5.31-52.87-1.26-105.75-2.58-158.63-1.97z"/><path d="m891.62 135.71c31.31-21.61 69.56-32.08 107.44-31.97 9.95.1 20.09-.11 29.77 2.57 29.3 6.81 57.28 20.12 80.21 39.71 13.54 11.54 24.93 25.53 33.55 41.09-52.17 32.3-103.61 65.8-156.71 96.58 5.8 3.56 12.35 5.79 18.48 8.77 47.44 21.3 95.69 40.76 144.3 59.22-3.96 18.01-14.02 34.15-26.7 47.33-11.16 11.6-23.99 21.53-37.71 29.93-.1-2.98.43-6.3-1.25-8.94-2.16-2.68-5.87-2.9-9.04-2.79-21.98.05-43.97.05-65.95 0-3.3-.14-7.32.17-9.3 3.22-1.47 3.15-.9 6.75-.88 10.12-3.02-1.24-6.29-1.18-9.46-.95.04-3.03.42-6.25-.9-9.08-1.48-2.53-4.69-3.25-7.41-3.28-23-.01-46.01.03-69.02-.02-2.41-.01-5.13.1-6.98 1.86-1.99 2.26-1.91 5.48-2.26 8.29-2.03-1.37-4.14-2.61-6.06-4.11-1.53-1.25-2.01-3.34-3.45-4.65-2.23-1.24-5-1.24-7.02-2.85-13.2-10.34-25.17-22.26-35.52-35.45-10.14-13.14-17.94-28.05-23.12-43.8-6.29-19.15-8.8-39.4-8.64-59.51.18-22.09 3.99-44.25 12.27-64.77 12.47-30.71 33.93-57.83 61.36-76.52m110.88 185.86c-.01 2.19-.01 4.38 0 6.57 33.19 14.22 67.67 25.33 100.3 40.87-6.15 13.34-19.31 21.1-29.89 30.54 1.28.96 2.57 1.92 3.87 2.88 8.62-4.53 16.88-9.88 23.93-16.65 5.97-5.78 11.7-12.87 12.18-21.52-36.78-14.27-73.59-28.46-110.39-42.69z"/><path d="m228.16 120.24c1.06-1.39 1.4-3.75 3.26-4.25 59.99 114.41 119.98 228.82 179.96 343.24-10.8.12-21.6-.2-32.39.26-32.98.02-65.95 0-98.93.01-43.68.41-87.36.2-131.05.25-38.98.51-77.99.14-116.98.25 65.35-113.27 130.79-226.49 196.13-339.76m-11.66 191.34c-5.31 1.92-8.72 7.17-9.83 12.52-1.17 5.38-1.86 11.76 2.01 16.26 5.09 8.08 17.08 10.94 24.95 5.3 6.74-5.18 9.22-14.51 7.84-22.64-4.25-9.12-15.2-14.67-24.97-11.44m110.86 41.07c10.31 28.83 29.23 53.69 39.1 82.69-21.98.68-43.98 1.24-65.97 1.97 0 1.72.01 3.45.01 5.19 26.51-.41 53.01-.94 79.51-1.56-10.96-20.99-21.95-41.98-32.91-62.97-5.06-9.29-9.54-18.93-14.91-28.03-1.67.8-3.24 1.78-4.83 2.71z"/><path d="m1278.69 207.61c17.81-30.67 35.34-61.51 53.3-92.09 53.04 100.45 105.5 201.21 158.39 301.74-7.22-.03-14.43-.05-21.65.02-11.92-22.39-23.65-44.89-35.26-67.43-1.74.88-3.45 1.82-5.13 2.77 8.2 22.65 21.37 42.99 31.77 64.61-12.69.05-25.38-.05-38.06.04-3.53-.08-7.4 1.92-7.56 5.84.42 4.99 3.58 9.14 5.57 13.59-6.21.25-12.43.29-18.64.68.03 1.7.07 3.41.12 5.12 7.09.13 14.18-.48 21.29-.2 3.02 5.71 5.88 11.52 8.83 17.28-15.5-.15-31.01-.1-46.51-.02 2.66-2.84 6.83-5.23 6.88-9.58-.01-2.34-1.3-4.42-3.08-5.84-3.09-2.59-6.11-5.27-9.45-7.51-.78-1.55-1.31-3.31-2.6-4.52-6.41-5.74-13.55-11.15-22.01-13.37-16.51-4.98-35.66 3.28-43.98 18.25-2.71 4.54-4.34 9.64-4.99 14.87-4.06-6.82-11.5-10.44-15.97-16.86-12.97-15.05-34.99-21.24-54.01-15.81-16.88 4.48-31.69 17.8-36.52 34.76-1.4-6.22-7.62-9.39-11.98-13.4-7.38-10.41-18.9-17.47-30.9-21.42 40.76-70.48 81.44-141.01 122.15-211.52m38.73 103.98c-9.3 3.7-11.83 15.52-10.18 24.42 2.4 5.83 7.47 10.91 13.81 12.17 4.8.91 10.23.29 14.07-2.98 5.61-4.61 8.04-12.18 7.67-19.27.32-3.41-2.26-6-4.22-8.45-5.1-5.92-13.75-8.19-21.15-5.89z"/><path d="m1028.48 447.83c4.45.03 8.93.3 13.37-.34-4.46 1.3-8.93 2.58-13.48 3.5.02-1.06.06-2.11.11-3.16z"/><path d="m947.73 448.36c11.54-1.07 23.18-.18 34.77-.5-.01 2.15-.02 4.3-.02 6.46-11.76-.78-23.33-3.13-34.75-5.96z"/><path d="m1137.79 452.71c9.43-6.1 21.77-6.05 32.03-2.15-3.37 3-6.45 6.29-9.67 9.45-9.05-.02-18.11-.01-27.16-.01 1.54-2.45 2.56-5.37 4.8-7.29z"/><path d="m1235.89 460c6.93-7.93 17.41-12.87 28.04-12.09 9.58.03 18.43 5.06 24.93 11.84-17.66.15-35.33-.3-52.97.25z"/><path d="m1350.05 449.09c3.42-1.37 7.18-1.18 10.8-1.12-3.75 3.83-7.29 7.91-11.08 11.68-3.88.28-7.77.03-11.65.11 2.87-4.56 6.78-8.75 11.93-10.67z"/><path d="m1452.32 447.93c18.08 0 36.18-.24 54.26.12 1.18 3.71 5.27 7.04 3.72 11.18-17.42-.2-34.83.57-52.25.16-1.84-3.86-3.79-7.66-5.73-11.46z"/><path d="m1561.42 458.97c.01-3.72 0-7.43.09-11.14 14.72.1 29.45.06 44.18.02-.96 3.21-1.08 6.57-.97 9.9-14.45-.13-28.9.16-43.3 1.22z"/><path d="m1653.69 447.86c12.11.1 24.23-.09 36.35.09 6.78.23 11.71 5.92 14.75 11.46-2.58 1.21-5.19 2.55-8.12 2.45-1.64-3.1-4.04-6.27-7.7-6.92-5.2-1.68-10.63 1.27-13.27 5.77-7.35-.2-14.67-.76-22.01-1.02 0-3.95 0-7.89 0-11.83z"/><path d="m1742.76 447.86c17.78.04 35.56.02 53.34.01l-.06 1.3c-3.72.13-7.9-.62-11.13 1.64-2.44 1.7-2.33 4.98-2.62 7.62-6.36.97-12.73 1.87-19.14 2.36-1.13-1.92-2.66-3.74-5.04-3.95-5.09-.76-10.28-.18-15.4-.32.03-2.89.05-5.77.05-8.66z"/><path d="m2113.13 447.87c6.33.01 12.66.02 18.99 0-.01 4.22.03 8.44-.09 12.67-6.3-.07-12.59-.05-18.87-.02-.06-4.22-.04-8.43-.03-12.65z"/><path d="m2205.4 447.96c14.77-.2 29.55.01 44.33-.11-1.37 3.97-1 8.18-.98 12.29-14.43.26-28.87.49-43.31.36 0-4.18.01-8.36-.04-12.54z"/><path d="m2313.1 449.08c3.4-1.37 7.14-1.17 10.76-1.12-3.98 4.04-7.7 8.34-11.65 12.37-3.78.42-7.59.09-11.36.13 2.68-4.97 6.89-9.35 12.25-11.38z"/><path d="m2045.23 455.61c.79 1.64 1.62 3.28 2.47 4.92-1.62-.02-3.22-.03-4.78-.03.75-1.63 1.52-3.26 2.31-4.89z"/></g><path d="m1699.03 86.54c3.16-.54 6.38-.53 9.57-.03-3.18.44-6.4.47-9.57.03z" fill="#3b2b03" opacity=".5"/><g fill="#f00"><path d="m1981.29 518.92c17.22-34.39 34.44-68.77 51.65-103.16 3.17 6.1 5.94 12.42 9.41 18.37.95-2 1.93-3.99 2.96-5.96 10.6 21.29 21.26 42.53 31.85 63.82 3.74 7.07 6.79 14.54 11.05 21.33.35-30.04.05-60.1.15-90.14 14.59-.03 29.18-.01 43.77-.01 0 4.07-.01 8.14.03 12.22 4.09-.04 8.19-.04 12.3-.02.09 15.28-.13 30.57.11 45.86 6.18-.12 12.36-.05 18.55-.07.02 4.15.01 8.31.02 12.46 4.11-.04 8.23-.03 12.36-.03.07 12.39-.01 24.78.04 37.18-24.89.05-49.77 0-74.65.02-.05-4.1-.04-8.2-.06-12.3-3.51.05-7 .05-10.47.01 2.19 4.24 4.3 8.53 6.44 12.8-34.4.05-68.8.04-103.19.01 2-4.16 4.19-8.23 6.21-12.38-6.18-.02-12.36-.01-18.53-.01m125.94-76.95c.03 27.46.03 54.93 0 82.39h61.89c-.01-8.14 0-16.27 0-24.4-10.35-.01-20.7.01-31.04 0-.01-19.35 0-38.69 0-58.03-10.29.01-20.57-.07-30.85.04m-103.07 82.98c27.43.12 54.87.02 82.31.05-13.67-27.4-27.46-54.74-41.11-82.15-14.04 27.2-27.35 54.79-41.2 82.1z"/><path d="m845.26 423.17c14.56-.02 29.12.01 43.69-.01.01 4.06.01 8.13.01 12.2 4.19 0 8.37 0 12.57.01-.03 19.57.05 39.14-.04 58.7-.1 11.94-6.39 23.56-16.31 30.19-13.25 9.29-33.12 8.94-45.03-2.46-3.63-3.07-5.5-7.81-9.66-10.3-11.5-8.31-16.27-23.15-16.1-36.87 10.31.02 20.63.15 30.94-.07-.17-17.13-.02-34.26-.07-51.39m18.88 18.75c-.06 17.25.13 34.5-.09 51.75-10.29-.08-20.58.01-30.86-.05.04 13.19 9.19 25.66 21.87 29.39 10.27 3.24 22.13.52 29.98-6.86 6.37-5.87 9.87-14.49 9.93-23.1.07-17.04.01-34.08.03-51.12-10.29-.01-20.57-.01-30.86-.01z"/><path d="m908.01 423.15c24.86.04 49.72-.01 74.58.03-.01 4.06-.01 8.12-.01 12.19 4.1-.01 8.2-.01 12.31-.03.07 19.22.01 38.43.03 57.65.44 13.86-7.88 27.47-20.21 33.69-14.19 7.42-33.33 4.77-44.24-7.19-2.49-2.56-3.83-6.19-7.03-8-7.27-4.53-12.17-12.18-14.32-20.36-1.33-4.58-1.13-9.39-1.13-14.1.03-17.96-.02-35.92.02-53.88m18.74 18.77c-.02 17.02 0 34.04-.02 51.05-.16 10.61 5.44 21.23 14.57 26.74 6.81 4.29 15.32 5.65 23.15 3.88 13.12-2.9 23.5-15.1 23.87-28.59.1-17.69.01-35.39.04-53.08-20.54 0-41.08 0-61.61 0z"/><path d="m1003.62 423.16c24.93.05 49.87-.06 74.8.05-.03 4.05-.02 8.11-.02 12.17 4.12-.03 8.24-.02 12.38-.02.02 14.59 0 29.17.01 43.76-4.14.02-8.27.02-12.4.02 0 2.64 0 5.29-.02 7.94 4.13.12 8.27.09 12.42.09-.01 14.54 0 29.08-.01 43.62-24.87 0-49.74 0-74.61 0-.01-4.09-.01-8.18 0-12.26-4.2 0-8.4.02-12.59-.05.05-31.77-.03-63.55.04-95.32m18.97 18.76c-.01 27.48.01 54.97-.01 82.45 20.55-.02 41.09 0 61.64-.01-.01-10.24-.01-20.48 0-30.72-9.03 0-18.06-.01-27.08.01-.02-1.44-.02-2.87-.01-4.3 4.3.01 8.6.01 12.91.01 0-4.19 0-8.38-.01-12.57-4.3-.01-8.6-.01-12.9 0-.02-1.4-.02-2.79-.02-4.18 9.05-.07 18.1.08 27.15-.08-.11-10.2-.02-20.41-.05-30.61-20.54 0-41.08 0-61.62 0z"/><path d="m1106.79 439.78c9.57-11.19 24.47-17.76 39.22-16.54 13.59.83 25.55 8.64 35.02 17.93-.23.4-.68 1.19-.91 1.59 4.95 3.09 9.31 7.01 13.51 11.04-3.53 3.54-7.15 6.99-10.64 10.57 2.51-.01 5.05-.01 7.59-.01 0 4.17.01 8.33 0 12.51 3.94-.01 7.89-.01 11.85-.02-2.49-18.79 7.43-38.23 23.93-47.45 19.2-11.49 46.56-6.91 60.34 10.93 3.22 4.73 8.62 7.28 12.07 11.82 12.71 14.53 14.78 37.08 5.32 53.84-7.76 14.54-23.6 24.33-40.07 24.78-12 .5-24.24-3.52-33.23-11.57-4.08-3.25-6.5-8.11-10.75-11.16-8.61-6.65-14.9-16.45-16.73-27.23-.87 16.64-.16 33.32-.4 49.98-15.98-.01-31.96.01-47.94-.01-12.05.1-23.99-4.75-32.64-13.12-3.33-3-5.6-7.03-9.3-9.62-11.06-8.42-17.72-22.11-17.85-35.97-.45-11.74 3.93-23.46 11.61-32.29m27.86 7.91c-11.44 6.65-19.42 18.99-20.5 32.21-.99 11.51 3.21 23.36 11.24 31.67 7.59 8.05 18.54 12.86 29.62 12.77 13.78.05 27.57 0 41.36.03-.04-13.73.04-27.45-.05-41.17-13.75.07-27.51.08-41.26 0 9.48-9.85 19.45-19.23 28.86-29.14l-.12-.62c-12.49-12.87-33.96-15.11-49.15-5.75m123.45-5.52c-17.12 1.69-32.17 15.14-36.01 31.87-3.22 13.19.88 27.81 10.31 37.54 7.58 8.02 18.5 12.85 29.57 12.76 9.92.23 19.72-3.67 27.19-10.14 12.98-10.9 17.84-30.19 11.49-45.93-6.31-16.87-24.61-28.26-42.55-26.1z"/><path d="m1321.64 432.61c8.65-8.38 22.04-11.91 33.5-7.74 7.17 2.47 13.18 7.31 18.62 12.47-.36.44-1.09 1.31-1.46 1.74 5.18 2.89 9.81 6.65 13.94 10.88-4.7 4.76-9.42 9.5-14.11 14.27 2.2 4.64 7.48 6.22 10.6 10.07 10.18 10.76 11.52 28.41 3.43 40.75-6.7 10.73-19.75 17.08-32.34 15.55-9.75-.98-18.17-6.83-24.74-13.79.26-.76.55-1.53.85-2.28-5.18-2.52-9.58-6.31-13.41-10.55 4.76-4.76 9.51-9.52 14.29-14.27-1.29-1.87-2.58-3.78-4.51-5.01-7.36-5-12.75-12.91-14.37-21.68-2.18-10.92 1.7-22.72 9.71-30.41m19.78 14.63c-10.71 7.42-14.32 23-8.11 34.43 4.53 9.06 14.42 14.87 24.51 14.84-6.68 6.68-13.31 13.41-20.07 20.01 7 7.59 18.6 9.45 28.2 6.54 9.92-3.06 17.48-12.26 18.86-22.52 1.29-9.14-2.65-18.76-9.84-24.52-4.92-4.1-11.26-6.18-17.61-6.42 6.53-6.59 13.12-13.12 19.67-19.7-9.19-9.4-25.14-10.59-35.61-2.66z"/><path d="m1419.94 423.19c34.37-.04 68.73-.04 103.1 0-1.99 4.07-4.07 8.1-6.02 12.19 6.08-.03 12.17-.03 18.27-.01-8.07 17.38-17.04 34.35-25.47 51.56-8.53 16.96-16.88 34.01-25.47 50.92-.19-.03-.56-.1-.74-.13-3.12-5.79-5.87-11.77-8.87-17.61-1.09 1.97-2.13 3.96-3.16 5.95-17.35-34.22-34.49-68.55-51.64-102.87m22.87 18.74c13.73 27.4 27.46 54.81 41.19 82.21 13.73-27.4 27.46-54.81 41.19-82.21-27.46-.01-54.92-.01-82.38 0z"/><path d="m1536.64 423.14c24.93.08 49.85-.04 74.78.07-.03 4.05-.03 8.11-.02 12.17 4.12-.03 8.24-.02 12.38-.02.02 14.59 0 29.18.01 43.77-4.15.01-8.3.01-12.43.01.01 2.69.04 5.39.14 8.08 4.09-.08 8.18-.07 12.29-.05-.01 14.54 0 29.08-.01 43.62-24.87 0-49.74 0-74.61 0-.02-4.09-.02-8.18 0-12.26-4.2 0-8.39.01-12.58-.03.04-31.79-.06-63.57.05-95.36m18.95 18.78c-.01 27.48.01 54.97-.01 82.45 20.54-.02 41.09 0 61.64-.01-.01-10.24-.02-20.48 0-30.72-9.04 0-18.07-.01-27.09.01-.02-1.45-.01-2.88.02-4.31 4.29.03 8.58.02 12.88.02 0-4.19 0-8.38 0-12.57-4.3-.01-8.6-.01-12.89.01-.03-1.4-.05-2.8-.04-4.18 9.05-.09 18.11.08 27.16-.1-.11-10.2-.02-20.4-.05-30.6-20.54 0-41.08 0-61.62 0z"/><path d="m1629.01 423.16c15.64.01 31.28.02 46.92-.01 8.13-.29 15.9 3.81 21.39 9.6 2.45 2.53 3.96 5.97 7.09 7.83 6.66 4.4 11.93 11.31 13.24 19.31.76 5.71.53 11.71-1.76 17.07-2.99 7.52-9.15 13.56-16.53 16.79 7.97 12.33 16.07 24.58 23.88 37.01-27.3.06-54.59.02-81.88.02-.01-4.09-.01-8.17.01-12.25-4.1-.01-8.2-.02-12.29.05-.18-31.8-.04-63.61-.07-95.42m18.78 18.76c-.01 27.48.01 54.96-.01 82.44h63.66c-7.54-11.62-15.03-23.28-22.56-34.92 11.44-.39 21.54-10.1 22.52-21.47 1.5-12.82-9.32-25.89-22.39-26.02-13.74-.07-27.48-.01-41.22-.03z"/><path d="m1718.05 423.16c28.29.02 56.58 0 84.86 0 0 4.07 0 8.13.01 12.2 4.18-.01 8.37-.02 12.57.05-.06 11.14.01 22.29-.04 33.43-6.91-.01-13.81-.01-20.71 0-.01 20.64 0 41.29 0 61.94-14.53.01-29.05.01-43.57 0-.02-4.08-.02-8.17 0-12.25-4.21 0-8.4.02-12.59-.05.07-16.52-.06-33.03.06-49.55-2.77-.09-5.54-.12-8.29-.12 0-4.12 0-8.23.03-12.34-4.1-.01-8.18-.02-12.25.06-.2-11.13-.06-22.25-.08-33.37m18.79 18.77c-.02 6.81-.01 13.62-.01 20.43 6.92.01 13.83-.01 20.76.01-.01 20.66 0 41.33-.01 62 10.24-.02 20.49-.01 30.74-.01-.01-20.66-.02-41.33 0-62h20.68c-.01-6.82 0-13.63 0-20.44-24.06 0-48.11 0-72.16.01z"/><path d="m1819.88 423.16c14.53.03 29.07-.04 43.6.03-.02 4.06-.02 8.12-.02 12.18 4.13-.02 8.26-.01 12.4-.02.03 31.82.02 63.63.01 95.44-14.57-.01-29.13 0-43.7 0-.02-4.09-.02-8.18 0-12.26-4.13.01-8.25.05-12.35-.1.11-31.76-.02-63.51.06-95.27m18.81 18.76c-.01 27.48.01 54.96-.01 82.44 10.25 0 20.49-.01 30.74.01-.02-27.48 0-54.97-.01-82.45-10.24 0-20.48 0-30.72 0z"/><path d="m1891.43 441.51c11.14-14.42 30.79-21.58 48.56-17.16 10.27 2.34 19.34 8.72 25.78 16.97 2.27 3.06 5.62 5.01 8.31 7.68 5.42 5.26 9.61 11.66 12.87 18.46-8.4 4.16-16.77 8.38-25.12 12.63 4.06 2.14 8.18 4.21 12.32 6.23-.73 1.71-1.45 3.42-2.14 5.14 4.99 2.34 9.88 4.88 14.83 7.33-4.84 9.34-11.1 18.27-19.89 24.29-15.56 10.83-37.71 10.03-53.03-.88-5.07-3.24-8.73-8.04-12.74-12.39-5.7-4.33-10.86-9.51-14.23-15.88-9.12-16.31-7.35-37.91 4.48-52.42m42.66 1.12c-18.21 3.12-33.16 19.74-33.82 38.29-1.28 17.91 10.62 35.77 27.74 41.27 18.68 6.73 41.57-2.58 50-20.59-12.42-5.96-24.62-12.36-36.97-18.43 12.27-6.36 24.71-12.42 37.11-18.53-7.45-16.27-26.67-25.44-44.06-22.01z"/><path d="m2180.63 423.15c24.93.06 49.86-.04 74.79.05-.03 4.06-.03 8.12-.02 12.18 4.11-.03 8.24-.02 12.38-.02.02 14.58 0 29.17.01 43.76-4.16.02-8.3.02-12.43.03.01 2.68.04 5.37.12 8.06 4.09-.06 8.2-.06 12.31-.04-.01 14.54 0 29.08 0 43.61-24.88.02-49.75 0-74.62.01-.02-4.09-.02-8.18 0-12.26-4.21 0-8.4.01-12.58-.04.04-31.78-.05-63.56.04-95.34m18.96 18.77c-.01 27.48.01 54.97-.01 82.45 20.54-.02 41.09 0 61.64-.01-.01-10.24-.02-20.48 0-30.72-9.04 0-18.07-.02-27.09.01-.03-1.45-.02-2.88.03-4.31 4.28.03 8.57.02 12.87.02 0-4.19 0-8.38.01-12.57-4.32-.01-8.62-.01-12.91 0-.03-1.4-.04-2.8-.01-4.18 9.04-.06 18.08.07 27.13-.08-.1-10.2-.01-20.4-.04-30.61-20.54 0-41.08 0-61.62 0z"/><path d="m2281.32 436.36c7.63-10.1 21.34-15.43 33.74-12.41 8.46 2.04 15.55 7.49 21.71 13.41-.37.43-1.1 1.29-1.47 1.72 5.18 2.88 9.8 6.65 13.95 10.88-4.72 4.76-9.44 9.5-14.13 14.28 2.22 4.62 7.47 6.21 10.61 10.05 10.37 10.95 11.54 29.03 3.01 41.41-6.8 10.32-19.53 16.37-31.83 14.91-9.79-.96-18.26-6.82-24.83-13.8.25-.77.54-1.53.85-2.28-5.17-2.52-9.58-6.3-13.41-10.54 4.75-4.77 9.51-9.53 14.28-14.28-2.77-5.01-8.58-7.04-11.8-11.69-9.91-11.53-10.14-29.79-.68-41.66m31.71 6.68c-12.36 3.25-21.21 16.1-19.61 28.83 1.01 13.69 13.71 24.91 27.38 24.63-6.63 6.8-13.49 13.38-20.07 20.23 9.26 9.2 25.19 10.18 35.71 2.58 6.78-4.87 11.22-12.87 11.61-21.23.26-7.92-3.1-15.9-9.04-21.17-5.04-4.63-11.8-7.07-18.59-7.3 6.44-6.66 13.09-13.12 19.61-19.71-6.94-6.92-17.61-9.7-27-6.86z"/><path d="m1802.03 447.38c.86 0 2.58-.01 3.44-.01-.01 3.7-.01 7.41.01 11.12-5.72.08-11.43.02-17.13.05-.05-1.14-.08-2.27-.09-3.39 4.59-.05 9.18-.03 13.78-.03-.01-2.58-.02-5.16-.01-7.74z"/><path d="m1353.08 465c4.72-5.07 9.38-10.2 14.06-15.31.88.71 1.79 1.43 2.71 2.15-4.74 5.15-9.47 10.3-14.13 15.52-.9-.79-1.78-1.58-2.64-2.36z"/><path d="m2316.06 465c4.76-4.9 9.09-10.22 13.98-14.99 1.01.42 1.97 1 2.88 1.73-4.72 5.18-9.5 10.32-14.14 15.57-.93-.77-1.84-1.54-2.72-2.31z"/><path d="m1077.58 451.23c1.1-.04 2.23-.08 3.37-.1.01 6.18.04 12.36-.03 18.54-6.58-.06-13.16-.03-19.73-.02-.03-1.17-.04-2.32-.04-3.47 5.48-.03 10.96-.02 16.44-.01 0-4.98.01-9.96-.01-14.94z"/><path d="m1610.58 451.22c1.1-.04 2.21-.08 3.35-.11.04 6.18.04 12.37 0 18.55-6.59-.04-13.17-.02-19.75-.02-.03-1.16-.04-2.32-.02-3.47 5.47-.01 10.95-.01 16.43 0 0-4.98.01-9.97-.01-14.95z"/><path d="m2254.58 451.23c1.09-.04 2.21-.08 3.36-.1.02 6.17.03 12.35-.01 18.53-6.59-.04-13.17-.02-19.74-.01-.05-1.17-.06-2.32-.04-3.47 5.47-.02 10.95-.02 16.44-.01 0-4.98.01-9.96-.01-14.94z"/><path d="m1175.72 452.91c.8.8 1.61 1.61 2.43 2.43-8.87 8.52-17.38 17.39-26.17 25.97-.75-.77-1.5-1.54-2.22-2.3 8.63-8.72 17.44-17.27 25.96-26.1z"/><path d="m1684.43 460.5c3.79-1.35 7.97 2.63 6.67 6.49-.76 4.14-6.8 5.31-9.25 2.04-2.42-2.76-1.01-7.63 2.58-8.53z"/><path d="m1704.79 465.43c1.03-.05 2.08-.1 3.16-.13.18 8.2-5.55 15.61-12.96 18.64-4.06 1.91-8.6 2.01-12.98 2 7.62 11.98 15.41 23.84 23 35.84-5.84.01-11.68.03-17.51-.03-.01-1.13.01-2.26.05-3.38 3.66-.01 7.33-.02 11.01 0-7.58-11.96-15.37-23.79-22.7-35.9 5.62-.21 11.63.88 16.86-1.78 6.04-2.85 11.47-8.32 12.07-15.26z"/><path d="m1259.39 479.4c3.98-2.86 9.8 2.03 7.84 6.44-1.11 3.33-5.64 4.39-8.3 2.3-2.83-2.05-2.6-7.01.46-8.74z"/><path d="m1296.6 483.18c1.13-.09 2.28-.16 3.44-.23.5 20.27-17.59 38.83-37.96 38.42.02-.82.08-2.47.11-3.3 18.03-.63 34.27-16.74 34.41-34.89z"/><path d="m1938.31 485.83c11.57 5.76 22.99 11.82 34.44 17.84-4.15 4.97-8.82 9.5-14.29 13-.57-1.05-1.08-2.09-1.59-3.13 3.69-2.54 7.03-5.55 10.15-8.78-10.03-5.29-20.06-10.57-30.08-15.87.43-1.03.89-2.05 1.37-3.06z"/><path d="m1483.99 507.85c3.61-7.47 7.35-14.88 11.18-22.24.58 1.69 2.28 3.57 1.01 5.39-3.36 7.02-6.71 14.05-10.08 21.06-.73-1.41-1.41-2.81-2.11-4.21z"/><path d="m2042.33 488.41c3.77-1.17 7.57 2.81 6.49 6.55-.73 4.42-7.37 5.3-9.58 1.6-2.17-2.86-.3-7.31 3.09-8.15z"/><path d="m888.91 493.31c.79-.01 2.38-.04 3.17-.05.31 14.99-13.32 28.03-28.07 28.37-.01-.82-.01-2.46-.01-3.28 12.86-.84 23.97-12.27 24.91-25.04z"/><path d="m981.33 493.23c1.09.04 2.2.09 3.32.15-.26 14.46-12.43 27.87-27.16 28.12 0-.85 0-2.55 0-3.4 12.71-.85 22.78-12.53 23.84-24.87z"/><path d="m1378.52 496.41c1.11-.01 2.23-.01 3.38-.01.02 8.84-4.73 17.65-12.55 21.94-3.63 2.22-7.9 2.9-12.06 3.33.03-.77.09-2.33.12-3.1 11.22-1 20.66-10.9 21.11-22.16z"/><path d="m2341.52 496.41c1.1-.01 2.22-.01 3.38-.01 0 8.61-4.47 17.2-11.96 21.59-3.75 2.43-8.22 3.25-12.58 3.68.02-.83.06-2.49.07-3.32 11.29-.52 20.61-10.85 21.09-21.94z"/><path d="m1189.96 502.37c.74 0 2.23-.01 2.97-.02.14 6.2.04 12.41.07 18.61-6.62 0-13.23.01-19.83-.01-.01-.83-.02-2.49-.03-3.32 5.57-.06 11.14-.05 16.71 0 .03-5.09-.08-10.18.11-15.26z"/><path d="m1781.36 502.44c1.12-.03 2.27-.05 3.44-.06.06 6.19.01 12.38.04 18.57-6.64.02-13.27.01-19.89.01.03-1.15.1-2.3.19-3.43 5.41.12 10.82.05 16.24.07-.04-5.06-.03-10.11-.02-15.16z"/><path d="m1863.08 502.35h2.93c.26 6.2.08 12.4.13 18.61-6.64.01-13.28-.02-19.91.02 0-.85.01-2.54.01-3.39 5.56.01 11.14-.02 16.72.04.07-5.1-.03-10.19.12-15.28z"/><path d="m2066.19 503.6c1.01-.55 2.08-1.07 3.16-1.6 2.88 6.21 6.34 12.16 8.87 18.53-6.28 0-12.56-.01-18.83 0-.05-1.13-.07-2.26-.06-3.38 4.57-.05 9.15-.03 13.73-.04-2.28-4.51-4.51-9.05-6.87-13.51z"/><path d="m2162.19 502.39c1.12 0 2.27.02 3.45.04 0 6.17-.03 12.33.02 18.5-6.69.06-13.38.02-20.05.03-.01-.83-.01-2.5-.01-3.33 5.51-.07 11.04-.02 16.57-.04-.02-5.07-.03-10.14.02-15.2z"/><path d="m1077.61 502.42c.84 0 2.52 0 3.36.01-.02 6.17 0 12.35-.02 18.53-6.6-.01-13.2.01-19.79-.01 0-.83 0-2.5-.01-3.33 5.49-.04 10.98-.04 16.47 0-.04-5.07-.03-10.14-.01-15.2z"/><path d="m1610.61 502.41c.84.01 2.52.03 3.37.04-.04 6.16-.02 12.34-.02 18.51-6.61 0-13.21.01-19.8-.01 0-.83-.01-2.5-.01-3.33 5.48-.04 10.97-.04 16.47 0-.04-5.07-.04-10.14-.01-15.21z"/><path d="m2254.6 502.41c.85.01 2.53.03 3.38.03-.04 6.17-.02 12.34-.02 18.52-6.61 0-13.21.01-19.8-.01 0-.83 0-2.5 0-3.34 5.48-.03 10.96-.03 16.46.01-.05-5.07-.04-10.14-.02-15.21z"/></g><path d="m1812.41 429.07c2.99-1.5.08 3.33 0 0z" fill="#573f04"/><path d="m1198.13 455.42c3.31.31-1.69 2.9 0 0z" fill="#423003"/><path d="m1196.34 459.93c-.33-1.39.19-1.91 1.59-1.56.32 1.4-.21 1.91-1.59 1.56z" fill="#966e07"/></svg>