<svg height="150.652" viewBox="0 0 488.783 120.521" width="610.978" xmlns="http://www.w3.org/2000/svg"><text fill="#ef00eb" font-family="TrasksHand" font-size="1.6" stroke="#0105ff" stroke-width="2" transform="matrix(.10252 0 0 .10252 149.667 -3.582)" x="-1210.018" y="950.199"><tspan fill="#fafafa" fill-opacity=".4" stroke="none" x="-1210.018" y="950.199">John Loreth 2022</tspan></text><path d="m31.11 26.105h438.29c12.354 0 21.466 9.131 18.969 18.452l-8.983 32.75c-2.25 8.205-11.309 15.358-19.817 15.358h-443.864c-8.508 0-17.608-7.153-15.358-15.358l9.832-35.844c1.918-6.992 9.327-15.358 20.931-15.358z" fill="#2285c8"/><path d="m87.192 0h153.155c15.63 0 30.89 16.576 25.817 35.072l-11.782 42.954c-8.052 30.051-28.32 41.984-44.44 42.495h-152.121c-15.406 0-31.884-12.951-27.809-27.809l17.41-63.472c4.284-15.985 26.026-28.775 39.77-29.24z" fill="#050608"/><g stroke-width="24.385"><path d="m59.8 95.391h-22.714l27.72-51.586h-4.915l11.993-19.026h35.1l.99 70.612h-23.4l.669-9.807h-19.96zm15.012-28.441h11.012l.007-20.89zm48.506-20.988h-4.916l10.608-21.182h22.023l-13.067 48.644h14.846l-10.916 21.966h-31.856zm39.722 0h-4.917l10.607-21.182h22.023l-13.067 48.644h14.847l-10.916 21.966h-31.856zm39.668.196h-4.916l10.659-21.38h29.299l1.649-2.844h19.664l-12.27 24.813h-22.22l-1.08 4.02h25.858l-9.62 18.242h-21.138l-1.16 4.316h25.465l-11.138 22.065h-42.277z" fill="#ed1e24"/><path d="m276.192 76.55q-2.604-.85-4.817-2.251l5.502-10.408 1.472.751q2.553 1.25 4.112 1.851 1.623.55 2.429.55.29.05.49.05h.252q.806 0 1.7-.35.906-.4 1.16-1.4.088-.35-.1-.801-.138-.45-.54-.65l-.176-.1-1.635-.701-3.962-1.651q-3.46-1.451-4.588-3.953-1.066-2.552-.053-6.555.67-2.652 2.247-4.703 1.626-2.052 3.78-3.403 2.205-1.35 4.093-1.85 1.901-.551 4.72-.551.957 0 2.002.05 1.044.05 2.063.2l.657-1.201 9.046 1.851-6.121 11.459q-1.873-1.351-4.175-2.002-2.24-.7-3.448-.7-.654 0-1.36.2-.654.2-1.057.6-.404.4-.53.9-.102.401.062.751.213.35.628.5l4.717 1.852 1.534.7q5.722 3.453 4.076 9.958-.215.85-.998 2.752-.77 1.85-2.863 3.952-2.042 2.102-3.818 3.153-1.776 1.05-4.005 1.7-2.24.701-5.916.701-1.41 0-2.806-.25-1.397-.25-3.774-1zm30.883-24.767h-2.517l5.226-10.708h13.39q.756 0 1.196.05.44.05 5.247.95 4.806.902 4.56 5.855-.183 4.904-.323 5.654t-.393 1.751q-.873 3.453-2.677 6.005-1.753 2.551-4.5 4.453-2.695 1.901-4.71 2.702-2.002.75-4.167.75h-3.473l-1.988 7.856h-11.276zm9.53 6.905h2.164q.806 0 1.738-.7.995-.751 1.362-1.602.379-.9.454-1.2.368-1.452-.135-2.252-.439-.851-1.395-.851h-2.517zm20.221-6.705h-2.517l5.277-10.908h15.002l.82-1.45h10.068l-6.072 12.658h-11.377l-.519 2.052h13.24l-4.771 9.306h-10.824l-.556 2.202h13.038l-5.516 11.257h-21.647zm28.066-.1h-2.517l5.251-10.808h11.277l-6.279 24.818h7.602l-5.403 11.207h-16.311zm20.338 0h-2.517l5.251-10.808h11.277l-6.279 24.818h7.602l-5.404 11.207h-16.31zm20.313.1h-2.517l5.276-10.908h15.002l.82-1.45h10.068l-6.072 12.658h-11.377l-.519 2.052h13.24l-4.771 9.306h-10.823l-.557 2.202h13.038l-5.516 11.257h-21.647zm28.344-1.201h-2.517l4.972-9.707h11.428l4.79 12.309 3.114-12.309h11.226l-9.115 36.026h-9.111l-6.106-16.062-4.063 16.062h-11.277z" fill="#fff"/></g></svg>