<svg height="209.21196" width="500" xmlns="http://www.w3.org/2000/svg"><g fill="#ed1c24"><path d="m0 0c0 1.657 1.349 3.006 3.003 3.006 1.656 0 3.006-1.349 3.006-3.006 0-1.653-1.35-3.002-3.006-3.002-1.654 0-3.003 1.349-3.003 3.002zm-.774 0c0-2.079 1.695-3.774 3.777-3.774 2.081 0 3.778 1.695 3.778 3.774 0 2.085-1.697 3.779-3.778 3.779-2.082 0-3.777-1.694-3.777-3.779" transform="matrix(9.280573 0 0 -9.280573 437.06843 35.21978)"/><path d="m0 0h-4.316v-.771h1.771c0-.687 0-6.546 0-6.546h.774v6.546h1.771z" transform="matrix(9.280573 0 0 -9.280573 425.73693 2.33871)"/><path d="m0 0v2.667h2.281v.773h-2.281v2.334h2.281v.771h-3.05v-7.317h3.396v.772c0 0-2.039 0-2.627 0" transform="matrix(9.280573 0 0 -9.280573 300.59776 63.08006)"/><path d="m0 0c.798 0 1.449-.65 1.449-1.449 0-.8-.651-1.451-1.449-1.451-.801 0-1.453.651-1.453 1.451 0 .799.652 1.449 1.453 1.449zm-2.221-1.757v-4.991h.768v3.564l2.849-3.564.984-.005-2.461 3.089c.022 0 .055-.005.081-.005 1.224 0 2.219.995 2.219 2.22s-.995 2.218-2.219 2.218c-1.226 0-2.221-.993-2.221-2.218z" transform="matrix(9.280573 0 0 -9.280573 258.75165 7.57288)"/><path d="m0 0c-.994 0-1.792.8-1.792 1.79 0 .977.798 1.784 1.792 1.784.979 0 1.781-.807 1.781-1.784 0-.99-.802-1.79-1.781-1.79zm-2.568 1.477v-4.683h.776v3.163c.456-.453 1.091-.729 1.792-.729 1.404 0 2.554 1.144 2.554 2.562 0 1.405-1.15 2.557-2.554 2.557-1.421 0-2.568-1.152-2.568-2.557z" transform="matrix(9.280573 0 0 -9.280573 201.69454 40.49122)"/><path d="m0 0 1.293-.005c.81 0 1.466-.66 1.466-1.468 0-.822-.656-1.482-1.466-1.482h-1.298zm0 1.912c.004.303.142.605.361.816.219.206.505.317.808.313.299-.005.584-.127.796-.345.206-.219.319-.501.316-.805-.011-.59-.518-1.086-1.124-1.107h-1.157zm1.293-5.639c1.24 0 2.254 1.018 2.254 2.259 0 .834-.463 1.563-1.139 1.953.393.341.649.838.653 1.395.011.505-.18.992-.536 1.358-.356.367-.832.575-1.344.588-.508.009-.994-.184-1.362-.539-.366-.356-.575-.831-.58-1.344l-.004-5.67z" transform="matrix(9.280573 0 0 -9.280573 7.09964 35.65582)"/><path d="m0 0c0-.732.33-1.67 1.907-1.979 1.071-.208 1.584-.462 1.584-1.337 0-.824-.676-1.496-1.5-1.496-.626 0-1.189.394-1.409.98l-.714-.262c.326-.887 1.176-1.484 2.123-1.484 1.251 0 2.259 1.018 2.259 2.262 0 1.659-1.428 1.939-2.197 2.089-1.153.23-1.284.811-1.284 1.227 0 .679.547 1.227 1.222 1.227.594 0 .994-.61 1.101-.804l.665.377c-.161.283-.764 1.191-1.766 1.191-1.102 0-1.991-.892-1.991-1.991" transform="matrix(9.280573 0 0 -9.280573 339.24192 18.47762)"/><path d="m0 0v1.3c0 1.836 1.44 1.891 1.601 1.891.167 0 1.609-.055 1.609-1.891v-1.3zm1.601 3.964c-.819 0-2.376-.557-2.376-2.664v-4.889h.775v2.817h3.21v-2.817h.772v4.889c0 2.107-1.555 2.664-2.381 2.664" transform="matrix(9.280573 0 0 -9.280573 61.07538 36.93668)"/><path d="m0 0v-4.889h.769v4.889c0 1.836 1.6 1.891 1.787 1.891.183 0 1.783-.055 1.783-1.891v-4.889h.77v4.889c0 2.107-1.673 2.664-2.553 2.664-.887 0-2.556-.557-2.556-2.664" transform="matrix(9.280573 0 0 -9.280573 114.6058 24.87201)"/></g><path d="m0 0h-8.334c0-2.878 2.435-3.958 3.936-3.958 1.508 0 3.781 1.08 4.398 3.958zm-21.95-3.958c1.507 0 3.934 1.08 3.934 3.958h-8.335c.62-2.878 2.898-3.958 4.401-3.958zm6.905-2.547-3.603-3.853-16.282 7.577v5.38h43.513v-5.38l-16.279-7.577-3.605 3.853c-.557.637-1.062.965-1.868.965-.815 0-1.316-.328-1.876-.965" fill="#231f20" transform="matrix(9.280573 0 0 -9.280573 370.34126 113.08379)"/></svg>