<svg enable-background="new 197.424 8.176 116.453 53.518" height="53.518" viewBox="197.424 8.176 116.453 53.518" width="116.453" xmlns="http://www.w3.org/2000/svg"><path d="m265.562 28.495c0 5.628-4.41 8.442-13.231 8.442-1.531 0-3.916-.042-7.155-.127.176-4.271.266-9.086.266-14.446 0-5.147-.088-9.538-.266-13.173h3.293c.624 0 1.67-.021 3.141-.063 1.47-.042 2.619-.063 3.445-.063 6.002 0 9.004 2.037 9.004 6.108 0 3.141-1.539 5.219-4.615 6.236v.318c1.64.269 3.07.937 4.289 2.004 1.22 1.07 1.829 2.657 1.829 4.764zm-6.971-11.645c0-2.531-1.518-3.798-4.553-3.798-1.396 0-2.636.106-3.72.318.148 1.429.224 3.882.224 7.361.515.027 1.058.042 1.626.042 4.282 0 6.423-1.307 6.423-3.923zm1.484 11.879c0-2.814-2.364-4.223-7.095-4.223-.935 0-1.74.036-2.418.106 0 2.956.062 5.678.184 8.167.46.114 1.15.17 2.072.17 2.508 0 4.344-.314 5.509-.944s1.748-1.721 1.748-3.276z" fill="#fff"/><path d="m290.441 28.495c0 5.628-4.41 8.442-13.231 8.442-1.53 0-3.916-.042-7.153-.127.176-4.271.264-9.086.264-14.446 0-5.147-.088-9.538-.264-13.173h3.291c.623 0 1.67-.021 3.141-.063s2.619-.063 3.445-.063c6.002 0 9.004 2.037 9.004 6.108 0 3.141-1.537 5.219-4.613 6.236v.318c1.64.269 3.068.937 4.289 2.004 1.218 1.07 1.827 2.657 1.827 4.764zm-6.971-11.645c0-2.531-1.518-3.798-4.553-3.798-1.396 0-2.636.106-3.72.318.148 1.429.224 3.882.224 7.361.515.027 1.058.042 1.626.042 4.282 0 6.423-1.307 6.423-3.923zm1.484 11.879c0-2.814-2.365-4.223-7.093-4.223-.936 0-1.742.036-2.42.106 0 2.956.062 5.678.184 8.167.46.114 1.15.17 2.073.17 2.507 0 4.343-.314 5.508-.944s1.748-1.721 1.748-3.276z" fill="#fff"/><path d="m313.877 31.783-.346 4.879c-1.925.48-3.821.721-5.691.721-4.646 0-8.188-1.339-10.619-4.02-2.434-2.68-3.648-5.937-3.648-9.77 0-3.973 1.291-7.431 3.871-10.372 2.582-2.941 6.123-4.412 10.621-4.412 1.652 0 3.219.197 4.694.594l-.711 4.899c-1.6-.537-3.131-.806-4.594-.806-2.751 0-4.797.909-6.14 2.727-1.342 1.816-2.012 4.026-2.012 6.629 0 2.658.795 4.964 2.389 6.915 1.593 1.951 3.824 2.928 6.696 2.928 1.683 0 3.512-.303 5.49-.912z" fill="#fff"/><path d="m250.922 50.963-3.193-9.094c-.018-.041-.054-.081-.125-.081-.072 0-.162.054-.162.136v9.039h-1.488v-9.962h2.745l2.798 7.736c.036.081.09.122.162.122.107 0 .197-.055.215-.136l2.726-7.723h2.781v9.962h-1.488v-8.983c0-.082-.072-.123-.127-.123-.072 0-.144.026-.179.096l-3.157 9.012h-1.508z" fill="#fff"/><path d="m261.057 50.081h1.112v-8.171h-1.112v-.909h4.145v.909h-1.166v8.171h1.166v.882h-4.145z" fill="#fff"/><path d="m274.42 43.893c-.145-.966-.753-1.833-2.188-1.833-1.311 0-1.866.772-2.152 1.303-.484.896-.539 2.28-.539 2.39 0 2.186.521 4.315 2.691 4.315 1.041 0 1.578-.569 1.74-.76.357-.462.43-1.032.465-1.357l1.795.244c-.072.787-.448 1.642-1.237 2.239-1.13.854-2.422.854-2.925.854-1.076 0-4.322-.421-4.322-5.212 0-2.294.771-5.198 4.484-5.198.843 0 1.938.189 2.744.814.897.69 1.076 1.479 1.166 1.954z" fill="#fff"/><path d="m279.73 41.001h4.054c3.678 0 4.467 1.684 4.467 2.701 0 1.872-1.632 2.375-2.815 2.659l3.443 4.602h-2.152l-3.121-4.424h-2.027v4.424h-1.848v-9.962zm1.831 1.167v3.299c1.004.015 2.295.015 2.977-.096.719-.122 1.848-.407 1.848-1.52 0-1.168-1.039-1.685-3.013-1.685z" fill="#fff"/><path d="m298.959 43.268c.395.882.502 2.049.502 2.741 0 2.375-.879 5.253-4.431 5.253-3.229 0-4.449-2.457-4.449-5.117 0-1.521.324-2.904 1.077-3.813 1.095-1.33 2.402-1.479 3.372-1.479 2.225-.001 3.391 1.22 3.929 2.415zm-3.893-1.222c-1.129 0-1.828.598-2.205 1.534-.252.597-.396 1.479-.396 2.523 0 1.264.232 3.923 2.529 3.923 1.864 0 2.582-1.452 2.582-3.978.002-1.315-.159-4.002-2.51-4.002z" fill="#fff"/><g fill="#f9f8e1"><circle cx="199.287" cy="10.039" r="1.863"/><circle cx="204.204" cy="10.039" r="1.863"/><circle cx="209.121" cy="10.039" r="1.863"/><circle cx="214.039" cy="10.039" r="1.863"/><circle cx="218.956" cy="10.039" r="1.863"/><circle cx="223.873" cy="10.039" r="1.863"/><circle cx="228.79" cy="10.039" r="1.863"/><circle cx="233.707" cy="10.039" r="1.863"/><circle cx="238.624" cy="10.039" r="1.863"/><circle cx="201.713" cy="12.854" r="1.863"/><circle cx="216.465" cy="12.854" r="1.863"/><circle cx="221.382" cy="12.854" r="1.863"/><circle cx="236.133" cy="12.854" r="1.863"/><circle cx="199.287" cy="15.584" r="1.863"/><circle cx="209.121" cy="15.584" r="1.863"/><circle cx="218.956" cy="15.584" r="1.863"/><circle cx="228.79" cy="15.584" r="1.863"/><circle cx="238.624" cy="15.584" r="1.863"/><circle cx="206.63" cy="18.4" r="1.863"/><circle cx="211.548" cy="18.4" r="1.863"/><circle cx="226.299" cy="18.4" r="1.863"/><circle cx="231.216" cy="18.4" r="1.863"/><circle cx="199.287" cy="20.999" r="1.863"/><circle cx="209.121" cy="20.999" r="1.863"/><circle cx="228.79" cy="20.999" r="1.863"/><circle cx="238.624" cy="20.999" r="1.863"/><circle cx="201.713" cy="23.815" r="1.863"/><circle cx="216.465" cy="23.815" r="1.863"/><circle cx="221.382" cy="23.815" r="1.863"/><circle cx="236.133" cy="23.815" r="1.863"/><circle cx="199.287" cy="26.544" r="1.863"/><circle cx="204.204" cy="26.544" r="1.863"/><circle cx="218.956" cy="26.544" r="1.863"/><circle cx="233.707" cy="26.544" r="1.863"/><circle cx="238.624" cy="26.544" r="1.863"/><circle cx="201.713" cy="29.36" r="1.863"/><circle cx="206.63" cy="29.36" r="1.863"/><circle cx="211.548" cy="29.36" r="1.863"/><circle cx="216.465" cy="29.36" r="1.863"/><circle cx="221.382" cy="29.36" r="1.863"/><circle cx="226.299" cy="29.36" r="1.863"/><circle cx="231.216" cy="29.36" r="1.863"/><circle cx="199.287" cy="32.22" r="1.863"/><circle cx="204.204" cy="32.22" r="1.863"/><circle cx="209.121" cy="32.22" r="1.863"/><circle cx="214.039" cy="32.22" r="1.863"/><circle cx="218.956" cy="32.22" r="1.863"/><circle cx="238.624" cy="32.22" r="1.863"/><circle cx="201.713" cy="35.036" r="1.863"/><circle cx="206.63" cy="35.036" r="1.863"/><circle cx="211.548" cy="35.036" r="1.863"/><circle cx="216.465" cy="35.036" r="1.863"/><circle cx="221.382" cy="35.036" r="1.863"/><circle cx="204.204" cy="37.765" r="1.863"/><circle cx="209.121" cy="37.765" r="1.863"/><circle cx="214.039" cy="37.765" r="1.863"/><circle cx="218.956" cy="37.765" r="1.863"/><circle cx="238.624" cy="37.765" r="1.863"/><circle cx="206.63" cy="40.581" r="1.863"/><circle cx="211.548" cy="40.581" r="1.863"/><circle cx="216.465" cy="40.581" r="1.863"/><circle cx="221.382" cy="40.581" r="1.863"/><circle cx="209.121" cy="43.181" r="1.863"/><circle cx="214.039" cy="43.181" r="1.863"/><circle cx="218.956" cy="43.181" r="1.863"/><circle cx="223.873" cy="43.181" r="1.863"/><circle cx="238.624" cy="43.181" r="1.863"/><circle cx="211.548" cy="45.996" r="1.863"/><circle cx="216.465" cy="45.996" r="1.863"/><circle cx="221.382" cy="45.996" r="1.863"/><circle cx="226.299" cy="45.996" r="1.863"/><circle cx="214.039" cy="48.726" r="1.863"/><circle cx="218.956" cy="48.726" r="1.863"/><circle cx="223.873" cy="48.726" r="1.863"/><circle cx="228.79" cy="48.726" r="1.863"/><circle cx="238.624" cy="48.726" r="1.863"/><circle cx="216.465" cy="51.541" r="1.863"/><circle cx="226.299" cy="51.541" r="1.863"/><circle cx="231.216" cy="51.541" r="1.863"/><circle cx="214.039" cy="54.285" r="1.863"/><circle cx="223.873" cy="54.285" r="1.863"/><circle cx="233.707" cy="54.285" r="1.863"/><circle cx="238.624" cy="54.285" r="1.863"/><circle cx="201.713" cy="57.102" r="1.863"/><circle cx="206.63" cy="57.102" r="1.863"/><circle cx="211.548" cy="57.102" r="1.863"/><circle cx="216.465" cy="57.102" r="1.863"/><circle cx="221.382" cy="57.102" r="1.863"/><circle cx="226.299" cy="57.102" r="1.863"/><circle cx="236.133" cy="57.102" r="1.863"/><circle cx="238.624" cy="59.83" r="1.863"/></g></svg>