<?xml version="1.0" encoding="utf-8"?>
<!-- Generator: Adobe Illustrator 16.0.0, SVG Export Plug-In . SVG Version: 6.00 Build 0)  -->
<!DOCTYPE svg PUBLIC "-//W3C//DTD SVG 1.1//EN" "http://www.w3.org/Graphics/SVG/1.1/DTD/svg11.dtd">
<svg version="1.1" id="Layer_1" xmlns="http://www.w3.org/2000/svg" xmlns:xlink="http://www.w3.org/1999/xlink" x="0px" y="0px"
	 width="116.453px" height="53.518px" viewBox="197.424 8.176 116.453 53.518"
	 enable-background="new 197.424 8.176 116.453 53.518" xml:space="preserve">
<path fill="#FFFFFF" d="M265.562,28.495c0,5.628-4.41,8.442-13.231,8.442c-1.531,0-3.916-0.042-7.155-0.127
	c0.176-4.271,0.266-9.086,0.266-14.446c0-5.147-0.088-9.538-0.266-13.173h3.293c0.624,0,1.67-0.021,3.141-0.063
	c1.47-0.042,2.619-0.063,3.445-0.063c6.002,0,9.004,2.037,9.004,6.108c0,3.141-1.539,5.219-4.615,6.236v0.318
	c1.64,0.269,3.07,0.937,4.289,2.004C264.953,24.801,265.562,26.388,265.562,28.495z M258.591,16.85c0-2.531-1.518-3.798-4.553-3.798
	c-1.396,0-2.636,0.106-3.72,0.318c0.148,1.429,0.224,3.882,0.224,7.361c0.515,0.027,1.058,0.042,1.626,0.042
	C256.45,20.773,258.591,19.466,258.591,16.85L258.591,16.85z M260.075,28.729c0-2.814-2.364-4.223-7.095-4.223
	c-0.935,0-1.74,0.036-2.418,0.106c0,2.956,0.062,5.678,0.184,8.167c0.46,0.114,1.15,0.17,2.072,0.17
	c2.508,0,4.344-0.314,5.509-0.944S260.075,30.284,260.075,28.729z"/>
<path fill="#FFFFFF" d="M290.441,28.495c0,5.628-4.41,8.442-13.231,8.442c-1.53,0-3.916-0.042-7.153-0.127
	c0.176-4.271,0.264-9.086,0.264-14.446c0-5.147-0.088-9.538-0.264-13.173h3.291c0.623,0,1.67-0.021,3.141-0.063
	s2.619-0.063,3.445-0.063c6.002,0,9.004,2.037,9.004,6.108c0,3.141-1.537,5.219-4.613,6.236v0.318
	c1.64,0.269,3.068,0.937,4.289,2.004C289.832,24.801,290.441,26.388,290.441,28.495L290.441,28.495z M283.47,16.85
	c0-2.531-1.518-3.798-4.553-3.798c-1.396,0-2.636,0.106-3.72,0.318c0.148,1.429,0.224,3.882,0.224,7.361
	c0.515,0.027,1.058,0.042,1.626,0.042C281.329,20.773,283.47,19.466,283.47,16.85z M284.954,28.729c0-2.814-2.365-4.223-7.093-4.223
	c-0.936,0-1.742,0.036-2.42,0.106c0,2.956,0.062,5.678,0.184,8.167c0.46,0.114,1.15,0.17,2.073,0.17
	c2.507,0,4.343-0.314,5.508-0.944S284.954,30.284,284.954,28.729z"/>
<path fill="#FFFFFF" d="M313.877,31.783l-0.346,4.879c-1.925,0.48-3.821,0.721-5.691,0.721c-4.646,0-8.188-1.339-10.619-4.02
	c-2.434-2.68-3.648-5.937-3.648-9.77c0-3.973,1.291-7.431,3.871-10.372c2.582-2.941,6.123-4.412,10.621-4.412
	c1.652,0,3.219,0.197,4.694,0.594l-0.711,4.899c-1.6-0.537-3.131-0.806-4.594-0.806c-2.751,0-4.797,0.909-6.14,2.727
	c-1.342,1.816-2.012,4.026-2.012,6.629c0,2.658,0.795,4.964,2.389,6.915c1.593,1.951,3.824,2.928,6.696,2.928
	C310.07,32.695,311.899,32.392,313.877,31.783L313.877,31.783z"/>
<path fill="#FFFFFF" d="M250.922,50.963l-3.193-9.094c-0.018-0.041-0.054-0.081-0.125-0.081c-0.072,0-0.162,0.054-0.162,0.136v9.039
	h-1.488v-9.962h2.745l2.798,7.736c0.036,0.081,0.09,0.122,0.162,0.122c0.107,0,0.197-0.055,0.215-0.136L254.6,41h2.781v9.962h-1.488
	v-8.983c0-0.082-0.072-0.123-0.127-0.123c-0.072,0-0.144,0.026-0.179,0.096l-3.157,9.012H250.922z"/>
<path fill="#FFFFFF" d="M261.057,50.081h1.112V41.91h-1.112v-0.909h4.145v0.909h-1.166v8.171h1.166v0.882h-4.145V50.081z"/>
<path fill="#FFFFFF" d="M274.42,43.893c-0.145-0.966-0.753-1.833-2.188-1.833c-1.311,0-1.866,0.772-2.152,1.303
	c-0.484,0.896-0.539,2.28-0.539,2.39c0,2.186,0.521,4.315,2.691,4.315c1.041,0,1.578-0.569,1.74-0.76
	c0.357-0.462,0.43-1.032,0.465-1.357l1.795,0.244c-0.072,0.787-0.448,1.642-1.237,2.239c-1.13,0.854-2.422,0.854-2.925,0.854
	c-1.076,0-4.322-0.421-4.322-5.212c0-2.294,0.771-5.198,4.484-5.198c0.843,0,1.938,0.189,2.744,0.814
	c0.897,0.69,1.076,1.479,1.166,1.954L274.42,43.893z"/>
<path fill="#FFFFFF" d="M279.73,41.001h4.054c3.678,0,4.467,1.684,4.467,2.701c0,1.872-1.632,2.375-2.815,2.659l3.443,4.602h-2.152
	l-3.121-4.424h-2.027v4.424h-1.848V41.001z M281.561,42.168v3.299c1.004,0.015,2.295,0.015,2.977-0.096
	c0.719-0.122,1.848-0.407,1.848-1.52c0-1.168-1.039-1.685-3.013-1.685L281.561,42.168L281.561,42.168z"/>
<path fill="#FFFFFF" d="M298.959,43.268c0.395,0.882,0.502,2.049,0.502,2.741c0,2.375-0.879,5.253-4.431,5.253
	c-3.229,0-4.449-2.457-4.449-5.117c0-1.521,0.324-2.904,1.077-3.813c1.095-1.33,2.402-1.479,3.372-1.479
	C297.255,40.852,298.421,42.073,298.959,43.268z M295.066,42.046c-1.129,0-1.828,0.598-2.205,1.534
	c-0.252,0.597-0.396,1.479-0.396,2.523c0,1.264,0.232,3.923,2.529,3.923c1.864,0,2.582-1.452,2.582-3.978
	C297.578,44.733,297.417,42.046,295.066,42.046z"/>
<circle fill="#F9F8E1" cx="199.287" cy="10.039" r="1.863"/>
<circle fill="#F9F8E1" cx="204.204" cy="10.039" r="1.863"/>
<circle fill="#F9F8E1" cx="209.121" cy="10.039" r="1.863"/>
<circle fill="#F9F8E1" cx="214.039" cy="10.039" r="1.863"/>
<circle fill="#F9F8E1" cx="218.956" cy="10.039" r="1.863"/>
<circle fill="#F9F8E1" cx="223.873" cy="10.039" r="1.863"/>
<circle fill="#F9F8E1" cx="228.79" cy="10.039" r="1.863"/>
<circle fill="#F9F8E1" cx="233.707" cy="10.039" r="1.863"/>
<circle fill="#F9F8E1" cx="238.624" cy="10.039" r="1.863"/>
<circle fill="#F9F8E1" cx="201.713" cy="12.854" r="1.863"/>
<circle fill="#F9F8E1" cx="216.465" cy="12.854" r="1.863"/>
<circle fill="#F9F8E1" cx="221.382" cy="12.854" r="1.863"/>
<circle fill="#F9F8E1" cx="236.133" cy="12.854" r="1.863"/>
<circle fill="#F9F8E1" cx="199.287" cy="15.584" r="1.863"/>
<circle fill="#F9F8E1" cx="209.121" cy="15.584" r="1.863"/>
<circle fill="#F9F8E1" cx="218.956" cy="15.584" r="1.863"/>
<circle fill="#F9F8E1" cx="228.79" cy="15.584" r="1.863"/>
<circle fill="#F9F8E1" cx="238.624" cy="15.584" r="1.863"/>
<circle fill="#F9F8E1" cx="206.63" cy="18.4" r="1.863"/>
<circle fill="#F9F8E1" cx="211.548" cy="18.4" r="1.863"/>
<circle fill="#F9F8E1" cx="226.299" cy="18.4" r="1.863"/>
<circle fill="#F9F8E1" cx="231.216" cy="18.4" r="1.863"/>
<circle fill="#F9F8E1" cx="199.287" cy="20.999" r="1.863"/>
<circle fill="#F9F8E1" cx="209.121" cy="20.999" r="1.863"/>
<circle fill="#F9F8E1" cx="228.79" cy="20.999" r="1.863"/>
<circle fill="#F9F8E1" cx="238.624" cy="20.999" r="1.863"/>
<circle fill="#F9F8E1" cx="201.713" cy="23.815" r="1.863"/>
<circle fill="#F9F8E1" cx="216.465" cy="23.815" r="1.863"/>
<circle fill="#F9F8E1" cx="221.382" cy="23.815" r="1.863"/>
<circle fill="#F9F8E1" cx="236.133" cy="23.815" r="1.863"/>
<circle fill="#F9F8E1" cx="199.287" cy="26.544" r="1.863"/>
<circle fill="#F9F8E1" cx="204.204" cy="26.544" r="1.863"/>
<circle fill="#F9F8E1" cx="218.956" cy="26.544" r="1.863"/>
<circle fill="#F9F8E1" cx="233.707" cy="26.544" r="1.863"/>
<circle fill="#F9F8E1" cx="238.624" cy="26.544" r="1.863"/>
<circle fill="#F9F8E1" cx="201.713" cy="29.36" r="1.863"/>
<circle fill="#F9F8E1" cx="206.63" cy="29.36" r="1.863"/>
<circle fill="#F9F8E1" cx="211.548" cy="29.36" r="1.863"/>
<circle fill="#F9F8E1" cx="216.465" cy="29.36" r="1.863"/>
<circle fill="#F9F8E1" cx="221.382" cy="29.36" r="1.863"/>
<circle fill="#F9F8E1" cx="226.299" cy="29.36" r="1.863"/>
<circle fill="#F9F8E1" cx="231.216" cy="29.36" r="1.863"/>
<circle fill="#F9F8E1" cx="199.287" cy="32.22" r="1.863"/>
<circle fill="#F9F8E1" cx="204.204" cy="32.22" r="1.863"/>
<circle fill="#F9F8E1" cx="209.121" cy="32.22" r="1.863"/>
<circle fill="#F9F8E1" cx="214.039" cy="32.22" r="1.863"/>
<circle fill="#F9F8E1" cx="218.956" cy="32.22" r="1.863"/>
<circle fill="#F9F8E1" cx="238.624" cy="32.22" r="1.863"/>
<circle fill="#F9F8E1" cx="201.713" cy="35.036" r="1.863"/>
<circle fill="#F9F8E1" cx="206.63" cy="35.036" r="1.863"/>
<circle fill="#F9F8E1" cx="211.548" cy="35.036" r="1.863"/>
<circle fill="#F9F8E1" cx="216.465" cy="35.036" r="1.863"/>
<circle fill="#F9F8E1" cx="221.382" cy="35.036" r="1.863"/>
<circle fill="#F9F8E1" cx="204.204" cy="37.765" r="1.863"/>
<circle fill="#F9F8E1" cx="209.121" cy="37.765" r="1.863"/>
<circle fill="#F9F8E1" cx="214.039" cy="37.765" r="1.863"/>
<circle fill="#F9F8E1" cx="218.956" cy="37.765" r="1.863"/>
<circle fill="#F9F8E1" cx="238.624" cy="37.765" r="1.863"/>
<circle fill="#F9F8E1" cx="206.63" cy="40.581" r="1.863"/>
<circle fill="#F9F8E1" cx="211.548" cy="40.581" r="1.863"/>
<circle fill="#F9F8E1" cx="216.465" cy="40.581" r="1.863"/>
<circle fill="#F9F8E1" cx="221.382" cy="40.581" r="1.863"/>
<circle fill="#F9F8E1" cx="209.121" cy="43.181" r="1.863"/>
<circle fill="#F9F8E1" cx="214.039" cy="43.181" r="1.863"/>
<circle fill="#F9F8E1" cx="218.956" cy="43.181" r="1.863"/>
<circle fill="#F9F8E1" cx="223.873" cy="43.181" r="1.863"/>
<circle fill="#F9F8E1" cx="238.624" cy="43.181" r="1.863"/>
<circle fill="#F9F8E1" cx="211.548" cy="45.996" r="1.863"/>
<circle fill="#F9F8E1" cx="216.465" cy="45.996" r="1.863"/>
<circle fill="#F9F8E1" cx="221.382" cy="45.996" r="1.863"/>
<circle fill="#F9F8E1" cx="226.299" cy="45.996" r="1.863"/>
<circle fill="#F9F8E1" cx="214.039" cy="48.726" r="1.863"/>
<circle fill="#F9F8E1" cx="218.956" cy="48.726" r="1.863"/>
<circle fill="#F9F8E1" cx="223.873" cy="48.726" r="1.863"/>
<circle fill="#F9F8E1" cx="228.79" cy="48.726" r="1.863"/>
<circle fill="#F9F8E1" cx="238.624" cy="48.726" r="1.863"/>
<circle fill="#F9F8E1" cx="216.465" cy="51.541" r="1.863"/>
<circle fill="#F9F8E1" cx="226.299" cy="51.541" r="1.863"/>
<circle fill="#F9F8E1" cx="231.216" cy="51.541" r="1.863"/>
<circle fill="#F9F8E1" cx="214.039" cy="54.285" r="1.863"/>
<circle fill="#F9F8E1" cx="223.873" cy="54.285" r="1.863"/>
<circle fill="#F9F8E1" cx="233.707" cy="54.285" r="1.863"/>
<circle fill="#F9F8E1" cx="238.624" cy="54.285" r="1.863"/>
<circle fill="#F9F8E1" cx="201.713" cy="57.102" r="1.863"/>
<circle fill="#F9F8E1" cx="206.63" cy="57.102" r="1.863"/>
<circle fill="#F9F8E1" cx="211.548" cy="57.102" r="1.863"/>
<circle fill="#F9F8E1" cx="216.465" cy="57.102" r="1.863"/>
<circle fill="#F9F8E1" cx="221.382" cy="57.102" r="1.863"/>
<circle fill="#F9F8E1" cx="226.299" cy="57.102" r="1.863"/>
<circle fill="#F9F8E1" cx="236.133" cy="57.102" r="1.863"/>
<circle fill="#F9F8E1" cx="238.624" cy="59.83" r="1.863"/>
</svg>
