<svg height="59.859772" viewBox="94 357.6 603.12109 59.859771" width="603.12109" xmlns="http://www.w3.org/2000/svg"><g transform="matrix(.75390139 0 0 .75390139 23.133269 88.004863)"><path d="m133.7 357.6h720.6c21.8 0 39.7 17.9 39.7 39.7s-17.9 39.7-39.7 39.7h-720.6c-21.8 0-39.7-17.9-39.7-39.7 0-21.9 17.9-39.7 39.7-39.7z" fill="#4e4e4e"/><g stroke-width=".800503"><path d="m535.5 371.1h139.43916v5.9h-139.43916" fill="#f00"/><path d="m535.5 382.8h139.43916v5.8h-139.43916" fill="#fd4120"/><path d="m535.5 394.4h139.43916v5.8h-139.43916" fill="#fc0"/><path d="m535.5 406h139.43916v5.8h-139.43916" fill="#4dac26"/><path d="m535.5 417.6h139.43916v5.8h-139.43916" fill="#00a0c6"/></g><path d="m467.8 385.6h-7.5v21.5h7.8v-11.2c0-2.9 1.8-4.4 5.1-4.4s4.1 1 4.2 3.7h7.3c0-7.3-1-10.1-8.8-10.1-4.7 0-6.4 1-8.1 4.6zm-307.6 12.9h-12.6v10.3h22.6zm10-12.5h-22.6v10.3h12.4zm333.6 16.8c-7.5 0-8.6-.7-8.6-4.4h20.5c-.3-10.4-.3-12.9-14.2-12.9-11.7 0-14.3 2.1-14.3 11.4 0 8.6 3.4 10.8 12.9 10.9 10.6 0 15.6-.5 15.6-7.5h-7.7c-.3 1.7-.9 2.5-4.2 2.5zm-8.8-8.9c.3-2.3 1-3.1 6.2-3.1 5.7 0 6.5.3 6.9 3.1zm-291.4.8h7.8c-.7-7.3-2.8-9.1-13.7-9.1-12.4 0-15.2 2-15.2 11.1s2.6 11.2 14.2 11.2c12.2 0 14.7-1.6 14.7-9.3h-7.8c0 2.1-.8 3.1-6.8 3.1-5.2 0-6.4-1.3-6.4-5.5 0-4.1 1.1-4.1 7.3-4.1 4.6 0 5.4.5 5.9 2.6zm181.7 1.3c0-8.8-2.6-10.6-15.2-10.6-13.5 0-15.2 2.3-15.2 11.4s2.3 11.1 15.2 11.1c13.7 0 15.2-2.3 15.2-11.9zm-22.3.5c0-4.4 1-4.9 6.7-4.9 6.4 0 7.5.2 7.5 4.9 0 4.4-.8 5.2-6.8 5.2-6.6 0-7.4-.7-7.4-5.2zm92.6-.5c0-8.8-2.4-10.6-15-10.6-13.4 0-15 2.1-15 11.2 0 9.3 2.3 11.2 15 11.2 13.7.1 15-2.2 15-11.8zm-22.2.5c0-4.4 1-4.9 6.7-4.9 6.4 0 7.5.2 7.5 4.9 0 4.4-.8 5.2-6.8 5.2-6.6 0-7.4-.7-7.4-5.2zm-187.3-.5c0-8.8-2.4-10.6-15-10.6-13.5 0-15.2 2.1-15.2 11.2 0 9.3 2.3 11.2 15.2 11.2 13.7.1 15-2.2 15-11.8zm-22 .5c0-4.4 1-4.9 6.5-4.9 6.4 0 7.5.2 7.5 4.9 0 4.4-.8 5.2-6.8 5.2-6.4 0-7.2-.7-7.2-5.2zm188.4-20.1v12.6c-1.8-2.4-3.4-3.7-9.9-3.7-10.4 0-12.4 2.8-12.4 11.2 0 8.6 2.8 11.1 12.9 11.1 6.4 0 8.3-1.6 9.8-4.4v3.9h7.8v-30.6h-8.2zm-5.7 15c4.4 0 5.9.6 5.9 4.1 0 5.2-.3 5.7-6.5 5.7s-7.8-.2-7.8-4.6c0-5 1.9-5.2 8.4-5.2zm-259.9-6.1v-13.3c-2.7-.7-4.5-1-7.2-1-14 0-26.3 11.7-26.3 26.3 0 15 12.4 26.2 26.4 26.2 2.5 0 4-.3 7.1-1.1v-13.6c-3.1 1.6-4.7 2-7.2 2-7.8 0-13.7-6.5-13.7-13.7 0-7.5 5.8-13.9 13.6-13.9 2.6 0 4.9.7 7.3 2.1zm111.6.3h-7.3v21.5h7.8v-11.1c0-3.3 1.6-4.4 6-4.4 4.1 0 5.2 1.5 5.2 5.5v9.9h8v-11.4c0-3.1 2.4-4.1 6.2-4.1 3.6 0 5.2 1 5.2 4.1v11.4h7.8v-12.7c0-6.4-3.9-9.3-11.1-9.3-6.2 0-8.5 2.3-9.3 4.7-1.6-2.8-3.9-4.7-10.1-4.7-5.9 0-7.5 2-8.5 5.5zm52.7 0h-7.3v21.5h7.8v-11.1c0-3.3 2-4.4 5.9-4.4 4.1 0 5.2 1.3 5.2 5.5v9.9h8v-11.4c0-3.1 2.3-4.1 6-4.1 3.6 0 5.4 1.1 5.4 4.1v11.4h7.8v-12.7c0-6.4-3.9-9.3-11.1-9.3-6.2 0-8.3 2.1-9.3 4.7-1.6-2.8-3.9-4.7-10.1-4.7-5.7 0-7.2 2-8.3 5.5z" fill="#fff"/><g fill="#fff" stroke-width="1.189659" transform="scale(1.0066993 .99334528)"><path d="m702.11022 376.15043-17.41661 14.91833 7.99451 9.35072 14.06177-11.84901h3.78312v35.19012h14.49005v-47.61016z"/><path d="m752.13502 393.85256v-1.64173c.0714-3.71174.42827-4.85381 1.71311-5.35347 1.57035-.57103 5.49622-.78517 14.34729-.78517 7.56623 0 9.63623.0714 10.92107.49966 1.64173.57103 2.14138 1.57035 2.14138 4.21139 0 3.92587-.71379 4.28277-9.0652 4.92519-5.42485.42827-9.4221.78517-12.06314.92793-4.49691.3569-6.92382.57104-7.42348.64242-7.85175.85655-11.20659 2.64104-12.84831 6.85243-.92794 2.35553-1.21346 5.85313-1.21346 14.20453 0 2.28415 0 2.99794.21414 5.42485h56.74674v-10.92107h-43.47014v-.49966c.0714-2.35552.57103-3.28346 2.35552-3.99725.92794-.42828 3.71174-.64242 23.69801-1.92725 8.06589-.42828 12.49142-1.99863 14.56143-5.06795 1.49897-2.28414 2.07001-5.13933 2.07001-10.70693 0-7.78037-1.14208-10.99245-4.56829-12.99108-3.1407-1.85587-5.63899-2.07-25.05423-2.07-24.12628 0-27.12422 1.78448-27.12422 16.13177 0 .21414 0 1.28483.0714 2.14139z"/><path d="m812.68272 399.42016c-2.85518.49966-3.92588.78518-5.06795 1.35622-2.99794 1.64173-4.21139 4.63967-4.21139 10.27865 0 5.49623 1.14207 8.7083 3.64035 10.35003 3.8545 2.56967 6.9952 2.92657 24.34043 2.92657 17.27385 0 20.41455-.3569 24.26904-2.92657 2.49829-1.64173 3.64036-4.78243 3.64036-10.35003 0-5.28209-1.07069-8.20865-3.56898-9.92176-1.21345-.78517-2.28414-1.14207-5.71036-1.71311 6.56692-.49965 8.70831-3.06932 8.70831-10.56417 0-6.35278-1.71311-9.70762-5.85313-11.42073-2.99794-1.21345-10.35003-1.85586-21.55662-1.85586-9.70762 0-17.48799.57103-20.41455 1.49897-4.92519 1.49897-6.92382 4.8538-6.92382 11.77762 0 7.49485 2.14139 10.06452 8.70831 10.56417zm17.20247-13.13383c5.21071 0 10.84969.21414 12.42004.49965 1.85587.3569 2.64104 1.4276 2.64104 3.64036 0 4.06864 0 4.06864-14.13315 4.06864-12.42004 0-13.06245-.21414-13.06245-4.06864 0-3.71174 1.28483-4.14001 12.13452-4.14001zm1.49897 18.41592c5.42484 0 10.99245.21414 11.99176.49966 1.64173.49965 2.14139 1.35621 2.14139 3.78311 0 2.28415-.42828 3.35484-1.64173 3.8545s-5.49623.78517-11.92038.78517c-14.70419 0-14.77557 0-14.77557-4.42553 0-2.35552.49966-3.4976 1.85587-3.92587 1.14207-.3569 5.13932-.57104 12.34866-.57104z"/></g></g></svg>