<svg height="59.859772" viewBox="94 357.6 603.12109 59.859771" width="603.12109" xmlns="http://www.w3.org/2000/svg"><g transform="matrix(.75390139 0 0 .75390139 23.133269 88.004863)"><path d="m133.7 357.6h720.6c21.8 0 39.7 17.9 39.7 39.7s-17.9 39.7-39.7 39.7h-720.6c-21.8 0-39.7-17.9-39.7-39.7 0-21.9 17.9-39.7 39.7-39.7z" fill="#4e4e4e"/><g stroke-width=".546764"><path d="m535.5 371.1h65.05161v5.9h-65.05161" fill="#f00"/><path d="m535.5 382.8h65.05161v5.8h-65.05161" fill="#fd4120"/><path d="m535.5 394.4h65.05161v5.8h-65.05161" fill="#fc0"/><path d="m535.5 406h65.05161v5.8h-65.05161" fill="#4dac26"/><path d="m535.5 417.6h65.05161v5.8h-65.05161" fill="#00a0c6"/></g><path d="m467.8 385.6h-7.5v21.5h7.8v-11.2c0-2.9 1.8-4.4 5.1-4.4s4.1 1 4.2 3.7h7.3c0-7.3-1-10.1-8.8-10.1-4.7 0-6.4 1-8.1 4.6zm-307.6 12.9h-12.6v10.3h22.6zm10-12.5h-22.6v10.3h12.4zm333.6 16.8c-7.5 0-8.6-.7-8.6-4.4h20.5c-.3-10.4-.3-12.9-14.2-12.9-11.7 0-14.3 2.1-14.3 11.4 0 8.6 3.4 10.8 12.9 10.9 10.6 0 15.6-.5 15.6-7.5h-7.7c-.3 1.7-.9 2.5-4.2 2.5zm-8.8-8.9c.3-2.3 1-3.1 6.2-3.1 5.7 0 6.5.3 6.9 3.1zm-291.4.8h7.8c-.7-7.3-2.8-9.1-13.7-9.1-12.4 0-15.2 2-15.2 11.1s2.6 11.2 14.2 11.2c12.2 0 14.7-1.6 14.7-9.3h-7.8c0 2.1-.8 3.1-6.8 3.1-5.2 0-6.4-1.3-6.4-5.5 0-4.1 1.1-4.1 7.3-4.1 4.6 0 5.4.5 5.9 2.6zm181.7 1.3c0-8.8-2.6-10.6-15.2-10.6-13.5 0-15.2 2.3-15.2 11.4s2.3 11.1 15.2 11.1c13.7 0 15.2-2.3 15.2-11.9zm-22.3.5c0-4.4 1-4.9 6.7-4.9 6.4 0 7.5.2 7.5 4.9 0 4.4-.8 5.2-6.8 5.2-6.6 0-7.4-.7-7.4-5.2zm92.6-.5c0-8.8-2.4-10.6-15-10.6-13.4 0-15 2.1-15 11.2 0 9.3 2.3 11.2 15 11.2 13.7.1 15-2.2 15-11.8zm-22.2.5c0-4.4 1-4.9 6.7-4.9 6.4 0 7.5.2 7.5 4.9 0 4.4-.8 5.2-6.8 5.2-6.6 0-7.4-.7-7.4-5.2zm-187.3-.5c0-8.8-2.4-10.6-15-10.6-13.5 0-15.2 2.1-15.2 11.2 0 9.3 2.3 11.2 15.2 11.2 13.7.1 15-2.2 15-11.8zm-22 .5c0-4.4 1-4.9 6.5-4.9 6.4 0 7.5.2 7.5 4.9 0 4.4-.8 5.2-6.8 5.2-6.4 0-7.2-.7-7.2-5.2zm188.4-20.1v12.6c-1.8-2.4-3.4-3.7-9.9-3.7-10.4 0-12.4 2.8-12.4 11.2 0 8.6 2.8 11.1 12.9 11.1 6.4 0 8.3-1.6 9.8-4.4v3.9h7.8v-30.6h-8.2zm-5.7 15c4.4 0 5.9.6 5.9 4.1 0 5.2-.3 5.7-6.5 5.7s-7.8-.2-7.8-4.6c0-5 1.9-5.2 8.4-5.2zm-259.9-6.1v-13.3c-2.7-.7-4.5-1-7.2-1-14 0-26.3 11.7-26.3 26.3 0 15 12.4 26.2 26.4 26.2 2.5 0 4-.3 7.1-1.1v-13.6c-3.1 1.6-4.7 2-7.2 2-7.8 0-13.7-6.5-13.7-13.7 0-7.5 5.8-13.9 13.6-13.9 2.6 0 4.9.7 7.3 2.1zm111.6.3h-7.3v21.5h7.8v-11.1c0-3.3 1.6-4.4 6-4.4 4.1 0 5.2 1.5 5.2 5.5v9.9h8v-11.4c0-3.1 2.4-4.1 6.2-4.1 3.6 0 5.2 1 5.2 4.1v11.4h7.8v-12.7c0-6.4-3.9-9.3-11.1-9.3-6.2 0-8.5 2.3-9.3 4.7-1.6-2.8-3.9-4.7-10.1-4.7-5.9 0-7.5 2-8.5 5.5zm52.7 0h-7.3v21.5h7.8v-11.1c0-3.3 2-4.4 5.9-4.4 4.1 0 5.2 1.3 5.2 5.5v9.9h8v-11.4c0-3.1 2.3-4.1 6-4.1 3.6 0 5.4 1.1 5.4 4.1v11.4h7.8v-12.7c0-6.4-3.9-9.3-11.1-9.3-6.2 0-8.3 2.1-9.3 4.7-1.6-2.8-3.9-4.7-10.1-4.7-5.7 0-7.2 2-8.3 5.5z" fill="#fff"/><g fill="#fff" stroke-width="1.326433"><path d="m616.58045 375.12745 21.0107 42.46709h19.801l20.75603-42.46709h-14.13447l-15.28052 31.77073h-2.48308l-15.47152-31.77073z"/><path d="m680.21443 375.12745v42.46709h13.56146v-42.46709z"/><path d="m740.04022 401.23166c-.0637 6.30321-.25467 6.36688-14.38915 6.36688-13.68879 0-13.87979-.19101-13.87979-11.0147 0-6.36688.50935-8.91363 2.0374-10.12334 1.33704-1.08237 3.69279-1.33705 11.71506-1.33705 2.92876 0 6.74889.12734 8.78629.25468 2.80143.191 3.82013.50935 4.32948 1.20971.50935.70035.63669 1.27337.76403 3.75646h12.92476v-2.10108c0-7.00356-1.40071-10.12334-5.28451-11.96973-2.86509-1.40071-6.9399-1.78273-17.82726-1.78273-21.77473 0-26.61356 1.08237-29.03298 6.43055-1.0187 2.41942-1.33704 5.98487-1.33704 15.7262 0 4.90249.12734 8.53162.25467 10.44168.50935 4.77516 1.91007 7.25824 5.02984 8.84996 3.50178 1.78273 8.84996 2.29208 25.02184 2.29208 9.74133 0 14.45282-.44568 17.89093-1.59172 4.39315-1.59172 6.11221-4.71149 6.11221-11.39671 0-.63669-.0637-1.59172-.12734-4.01114z"/><path d="m770.48684 390.91731v-1.46438c.0637-3.31078.38201-4.32948 1.52805-4.77516 1.40072-.50935 4.9025-.70036 12.79743-.70036 6.7489 0 8.59529.0637 9.74133.44569 1.46438.50935 1.91006 1.40071 1.91006 3.75646 0 3.50178-.63668 3.82012-8.08593 4.39314-4.83883.38202-8.40429.70036-10.76003.8277-4.01114.31834-6.17588.50935-6.62156.57302-7.00357.76402-9.996 2.35574-11.46038 6.1122-.8277 2.10107-1.08237 5.22084-1.08237 12.67009 0 2.03741 0 2.67409.191 4.83883h50.6167v-9.74132h-38.7743v-.44569c.0637-2.10107.50935-2.92876 2.10107-3.56545.8277-.38201 3.31078-.57302 21.13805-1.71906 7.19457-.38201 11.14204-1.78272 12.98843-4.52048 1.33705-2.0374 1.8464-4.58415 1.8464-9.55032 0-6.9399-1.0187-9.805-4.07481-11.58772-2.80142-1.65539-5.02983-1.8464-22.34775-1.8464-21.52005 0-24.19414 1.59172-24.19414 14.38915 0 .19101 0 1.14604.0637 1.91006z"/><path d="m841.17514 374.6181c-7.64026 0-13.94347.25468-17.12691.76403-5.02984.70035-8.21328 3.62912-9.04097 8.21327-.44568 2.41942-.50935 3.8838-.50935 12.28808 0 9.61399.0637 10.69636.50935 13.24311.82769 4.58416 4.01113 7.51292 9.04097 8.21328 3.11977.50935 9.48665.76402 17.12691.76402 7.57659 0 13.94347-.25467 17.12691-.76402 4.96616-.70036 8.1496-3.62912 8.9773-8.21328.50935-2.54675.50935-3.24711.50935-12.73376 0-9.55032 0-10.25068-.50935-12.79743-.8277-4.58415-4.01114-7.51292-8.9773-8.21327-3.18344-.50935-9.55032-.76403-17.12691-.76403zm-.8277 11.0147c6.87623 0 10.44169.25468 11.8424.89137 2.10107.95503 2.67409 3.11977 2.67409 9.80499 0 6.23955-.50935 8.59529-2.16474 9.61399-1.46438.8277-4.64782 1.14604-12.41542 1.14604-12.41541 0-12.86109-.38201-12.86109-10.95103 0-5.98487.57302-8.34062 2.16474-9.35932 1.33704-.82769 4.58415-1.14604 10.76002-1.14604z"/></g></g></svg>