<svg height="160.90147" viewBox="0 0 599.4765 209.17192" width="461.13577" xmlns="http://www.w3.org/2000/svg"><g transform="translate(-2.680524 -2.60587)"><g stroke-width="8.71975" transform="matrix(.11465417 0 0 .11471002 280.83154 -3.637187)"><path d="m1321.875 54.424683c-166.6776 0-315.3087 71.988637-411.9375 184.406247-28.5276-36.63982-63.401-75.12648-101.5-102.21875-79.963-59.6946-183.6385-77.860294-294.4375-80.843747-187.5745-5.050763-337.5982 96.283867-406.6875 210.218747-58.3612-116.43853-110.7186-177.24222-313.7813-187.34375h-492.0803l.1116 205.09375s23.4011 7.47335 31.3125 16.15625c6.6004 7.24407 11 27.25 11 27.25l-1.1562 456.5s-12.8696-9.33294-18-15.3125c-9.5491-11.12871-23.0938-37.4375-23.0938-37.4375l-252.125-652.46875-319.6875.21875-277.7813 726.1875v-155.4375h-199.9062c-15.7424 43.40396-59.9402 72.71875-113.25 72.71875-28.0932 0-58.13-6.62565-82.4688-21.25-31.7176-19.0581-55.4185-41.69206-74.9375-81.90625-15.3567-37.21359-27.109-82.77963-28.4687-123.09375 4.6791-79.72921 28.9019-108.14789 73.25-141.03125 9.8313-7.28971 37.2996-13.1189 45.2187-13.15625 17.4221-.0822 31.9427 10.48615 39.8125 26.0625 11.4471 22.65651-5.3079 50.1006-21.875 69.625l161.625 111.34375 249.625-261.1875c-87.0859-138.79748-246.2201-231.718747-428.0937-231.718747-275.3534 0-498.5625 212.989027-498.5625 475.718747s216.0662 461.41517 498.5625 482.84377l35.7187 1.4375h380v-.1875h884.7188v-.062l332.625-.4688v-.5312h52.0312v-195.43752s-27.8733-5.81326-39.3437-13.625c-12.0454-8.20329-13.1875-21.125-13.1875-21.125-.2158-4.98391.7879-8.80271 3.4062-12.0625 2.5668-3.19557 8.5725-5.36854 10.8438-5.84375 34.3492-7.18693 69.3766-17.0151 104.4375-29.625 93.5498-33.64584 172.271-81.51341 228.1563-134.40625 37.3957 220.94624 231.5684 382.17352 466.3124 409.09372 15.3291 1.758 28.5364 3.0874 42.875 3.5938 3.8075.1344 11.4376-.1563 11.4376-.1563h332l-1.0102-163.37655c86.3414 95.84593 254.5574 187.71955 424.3523 187.71955 138.7352 0 263.1783-60.7472 350.89-135.86529l-.7142 112.99109h419.2321l2.1429-172.86609 109.2945 1.42857v-1.90625l146.6563 1.28125v171.43752h447.125v-227.15627s-19.0914-1.22398-26.5625-6.4375c-10.1018-7.04923-20.5625-30.71875-20.5625-30.71875l-62.8437-417.34375s1.8846-27.91969 10-38.34375c6.6769-8.57661 28.5624-15.71875 28.5624-15.71875v-201.4375h-40-64.3124-341.4063v5.71875l-31.4375 105.71875-45.2188-106.40625v-5.03125h-2.125l-1.2187-2.84375-.094 2.84375h-430.0938v211.4375l-29.375-40c-80.6835-117.62942-222.3089-195.656747-383.5935-195.656747-6.576 0-13.1167.118185-19.625.375-6.8966-.248953-13.819-.375-20.7812-.375zm-2875.375 791.718747-.031 2.0625h-1.875c.6407-.68471 1.27-1.37525 1.9062-2.0625z" fill="#0c4da2"/><g fill="#ffcb08"><path d="m-1927.7708 145.18332c-226.9823 1.42857-412.3662 166.7661-412.3662 383.05133s204.6469 402.07109 452.3662 396.47808l240.7127.6783v-189.50724h-45.4634c-14.2837 35.73115-80.9968 70.68064-129.3669 70.68064-25.4902 0-89.6606-3.46506-113.3988-11.7792-41.9106-14.67892-101.712-35.75045-153.7082-123.14142-13.9338-30.6351-53.1686-105.28898-44.4023-214.19078 4.2456-65.63495 45.9366-147.56776 120.7486-184.67165 32.6212-16.17886 65.4607-18.83348 123.1208-13.60101 41.3957 3.75653 82.5276 32.86328 96.8886 67.79717 11.107 27.01833 7.9153 59.94169-5.16 78.69532-.9328 1.33796-.9528 2.52293-.7595 3.80017.1471.97218 1.408 2.592 1.408 2.592l22.7845 17.79932s6.4866 4.50696 14.0636 4.30516c4.4004-.11719 12.2667-4.89104 12.2667-4.89104l130.1212-136.55317c-80.4452-108.54703-223.4056-147.54198-309.8556-147.54198z"/><g transform="translate(-2446 20.362183)"><path d="m3770 121.15625c-240.6384 0-435.7188 181.00042-435.7188 404.28125s195.0804 404.28125 435.7188 404.28125 435.7188-181.00042 435.7188-404.28125-195.0804-404.28125-435.7188-404.28125zm2.8438 125.6875c123.8694 0 190.2581 88.64355 217.1696 194.30357 7.7034 30.245 4.5802 130.80895-.01 164.29464-13.9939 102.11219-97.4584 201.62179-218.567 198.55804-118.0174-2.98555-196.9617-57.93034-221.4242-205.70089-7.1559-43.22671-7.2805-95.15491-1.4508-138.58036 16.9036-125.91479 100.4117-212.875 224.2813-212.875z"/><path d="m1235.625 146.25s-191.3393 517.74554-225.625 612.03125c-34.28571 94.28572-72.84375 91.4375-72.84375 91.4375l2.84375 57.125 231.25-.0625.1875-54.875s-14.838-.76195-25.7187-10.75c-21.1033-19.37177-7.75-58.34375-7.75-58.34375l53.4687-136.78125 237.4687.5s46.2886 115.5722 57.625 153.71875c14.7908 49.76976-31.4062 50.65625-31.4062 50.65625v55.78125l292.4375-.15625-.1875-55.15625s-17.4155-2.65648-35.9375-18.8125c-21.0102-18.32633-35.3125-56.125-35.3125-56.125l-239.5-629.65625zm68.6562 159.1875 79.2813 220.71875-153.5625.6875z"/><path d="m1841 145.4375-1.125 63.46875s18.5873 5.32601 36.375 25.0625c9.4309 10.4641 3.5938 143.28125 3.5938 143.28125l-.3126 425.15625s6.0586 16.7572-14.2812 33.59375c-7.6779 6.35547-14.4784 13.09219-26.3438 14.125l-1.4062 56.5625 271.0312.65625.6563-57.53125s-9.5873-3.78169-24.625-17.34375c-8.488-7.65511-13.7169-18.67175-13.5937-29.65625.2278-38.40715 1.1259-75.31081.9374-112.8125 94.9385-22.86724 176.8968-61.6423 208.8438-73.40625 120.0869-47.918 213.2691-123.99838 207.8125-259.71875-1.0305-96.15561-49.8021-174.97063-154.2813-192.78125-47.6269-13.76116-69.4926-16.16571-88.2812-17.21875zm309.9688 107.79219c29.2343-.56143 63.6671 6.13685 90.1758 19.48827 33.0369 21.93314 53.1366 44.65398 53.1366 92.71954 1.3623 22.59657-5.1304 42.02538-16 61.78125-11.318 18.89081-45.5547 55.15612-67.1726 75.90229-63.2001 45.18182-85.8164 58.42722-136.0234 81.53802l-.804-322.09656c26.7572-5.04664 50.758-9.16086 76.6876-9.33281z"/></g><path d="m540.75458 145.6884c-226.9823 1.42857-412.3662 166.7661-412.3662 383.05133s204.6469 402.07109 452.3662 396.47808l240.7127.6783v-189.50724h-45.4634c-14.2837 35.73115-80.9968 70.68064-129.3669 70.68064-25.4902 0-89.6606-3.46506-113.3988-11.7792-41.9106-14.67892-101.712-35.75045-153.7082-123.14142-13.9338-30.6351-53.1686-105.28898-44.4023-214.19078 4.2456-65.63495 45.9366-147.56776 120.7486-184.67165 32.6212-16.17886 65.4607-18.83348 123.1208-13.60101 41.3957 3.75653 82.5276 32.86328 96.8886 67.79717 11.107 27.01833 7.9153 59.94169-5.16 78.69532-.9328 1.33796-.9528 2.52293-.7595 3.80017.1471.97218 1.408 2.592 1.408 2.592l22.7845 17.79932s6.4866 4.50696 14.0636 4.30516c4.4004-.11719 12.2667-4.89104 12.2667-4.89104l130.1212-136.55317c-80.4452-108.54703-223.4056-147.54198-309.8556-147.54198z"/><path d="m4314.625 146.9375.25 54.53125s23.8448 6.41919 33.3125 13.90625c10.8238 8.55957 8.0937 23.75 8.0937 23.75s-86.497 537.5233-88.375 547.5c-2.0203 10.73288-4.8812 35.80842-19.9687 49.75-15.0022 13.86285-32.3125 16.65625-32.3125 16.65625l-.25 53.78125h242.1875v-50.25s-19.7118-1.52427-32.8437-14.65625c-13.132-13.13198-9.3438-49.21875-9.3438-49.21875l59.5938-406.09375 121.2187 349.5 147.6563 2.03125 119.9374-376.375 66.9376 432.9375s8.0739 32.54659-9.3438 49.25c-13.404 12.85426-32.8125 14.65625-32.8125 14.65625v50.25h280.5625l-.25-53.78125s-6.2803 2.15034-22.2188-10.625c-9.3731-7.51301-13.8859-41.01712-15.9062-51.75-1.8779-9.9767-77.4688-550.84375-77.4688-550.84375s-1.3149-22.33329 10.9376-33.75c8.8308-8.22857 26.9062-16.03125 26.9062-16.03125l-.4375-44.53125-291.2813-.34375-106.5937 307.03125-101.6563-307.03125z" transform="translate(-2446 20.362183)"/></g></g><g stroke-width="6"><g fill="#0c4da2" transform="scale(.98912458 1.010995)"><path d="m122.26562 133.91797c-20.83491 0-36.857416 16.11659-36.857417 36.53906 0 6.78764 2.012246 16.24335 9.005859 24.50391 6.993618 8.26055 19.044268 14.51367 36.468748 14.51367 4.66841 0 9.59152-.34766 14.53321-1.50781a7.0383057 7.0383057 0 0 0 1.80273-1.14453 7.0383057 7.0383057 0 0 0 2.98633 1.23632h47.03515a7.0383057 7.0383057 0 0 0 1.56446-.64843 7.0383057 7.0383057 0 0 0 1.56445.64843h16.51563a7.0383057 7.0383057 0 0 0 7.03711-7.03711v-3.02734a7.0383057 7.0383057 0 0 0 -2.51172-4.99414l2.40234-6.20703h11.15234l2.64649 6.27344a7.0383057 7.0383057 0 0 0 -2.31641 4.92773v3.02734a7.0383057 7.0383057 0 0 0 7.03711 7.03711h19.7168a7.0383057 7.0383057 0 0 0 7.03711-7.03711v-.25195c1.58731 1.45634 3.25193 2.81389 5.12109 3.93164 5.41723 3.23949 11.85027 4.64649 19.23047 4.64649 7.03019 0 14.52784-1.52512 20.93164-5.60547 2.85444-1.81878 5.36301-4.39181 7.36719-7.40039 2.66531 3.2734 5.53312 6.23363 9.08789 8.35937 5.41723 3.23949 11.85027 4.64649 19.23047 4.64649 7.03019 0 14.52784-1.52512 20.93164-5.60547 1.4114-.89931 2.72327-2.0223 3.96875-3.23047v.56445a7.0383057 7.0383057 0 0 0 7.03711 7.03711h19.16601a7.0383057 7.0383057 0 0 0 7.03711-7.03711v-3.04297a7.0383057 7.0383057 0 0 0 -3.71093-5.71289c-.023-.31702-.0527-.49623-.0527-.94922v-5.42968c1.35786 3.04554 3.03012 6.10196 5.5 9.01953 6.99313 8.26069 19.04426 14.51367 36.46875 14.51367 4.66841 0 9.59298-.34753 14.53516-1.50781a7.0383057 7.0383057 0 0 0 5.42773-6.85157v-1.83203c2.01571 2.07982 4.19969 3.92676 6.69336 5.41797 5.41723 3.23949 11.85027 4.64649 19.23047 4.64649 7.03019 0 14.52784-1.52512 20.93164-5.60547s11.52148-11.52094 11.52148-20.67969c0-7.80179-3.71802-14.3631-8.64453-18.13672-.68853-.5274-1.41374-.92335-2.125-1.37109l6.89258-6.04688a7.0383057 7.0383057 0 0 0 .94727-9.57031c-7.36861-9.62011-18.65412-13.86133-29.85352-13.86133-6.26941 0-13.12025 1.14388-19.14844 4.75-3.00667 1.79863-5.7483 4.44676-7.74414 7.71485-6.73205-7.78633-16.68943-12.62305-27.27929-12.62305-15.0995 0-27.57602 8.52492-33.35352 20.95898v-2.82422c0-.45298.0297-.63219.0527-.94921a7.0383057 7.0383057 0 0 0 3.71093-5.7129v-3.04296a7.0383057 7.0383057 0 0 0 -7.03711-7.03711h-19.16601a7.0383057 7.0383057 0 0 0 -7.03711 7.03711v.75195c-7.05853-6.17718-16.15395-9.02344-25.23047-9.02344-6.26942 0-13.12025 1.14388-19.14844 4.75-3.23982 1.93809-6.09484 4.91463-8.11719 8.53906-7.37265-9.19048-18.38902-13.28906-29.3496-13.28906-6.26942 0-13.12025 1.14388-19.14844 4.75-6.0282 3.60612-11.00196 10.60946-11.00196 19.23242 0 7.50703 3.93532 13.8689 8.88477 17.20703.0344.0232.0711.0356.10547.0586l-8.92969 6.01367a7.0383057 7.0383057 0 0 0 -1.58008 2.35742l-17.72656-43.71484a7.0383057 7.0383057 0 0 0 -6.52148-4.39258h-12.2168a7.0383057 7.0383057 0 0 0 -6.54688 4.45703l-16.75781 42.52735a7.0383057 7.0383057 0 0 0 -4.42969-1.83399h-4.44726a7.0383057 7.0383057 0 0 0 -6.75977 5.85352c-.21648.0384-1.01845.27148-2.75195.27148h-10.03516v-35.18359c0-.4398.0301-.60268.0527-.91211a7.0383057 7.0383057 0 0 0 3.85937-5.79492v-3.0625a7.0383057 7.0383057 0 0 0 -7.03711-7.03711h-19.91601a7.0383057 7.0383057 0 0 0 -6.66992 6.14843c-6.07198-4.46844-13.49121-7.10351-21.26954-7.10351zm176.9004 21.01172a7.0383057 7.0383057 0 0 0 -.21094 1.29297c-.009-.0434-.0508-.11045-.0508-.13868 0-.18561.43674-1.44601.26172-1.15429zm56.61523 0a7.0383057 7.0383057 0 0 0 -.21094 1.29297c-.009-.0434-.0508-.11045-.0508-.13868 0-.18556.43673-1.44597.26172-1.15429zm142.23242 0a7.0383057 7.0383057 0 0 0 -.21094 1.29297c-.009-.0434-.0508-.11045-.0508-.13868 0-.18556.43673-1.44597.26172-1.15429zm-376.16992.66601c1.56236 0 3.33451.549 4.13477 1.08203.67945.45257.57095.43117.55468.68555a7.0383057 7.0383057 0 0 0 1.55078 8.90039l3.29493 2.56055a7.0383057 7.0383057 0 0 0 9.02539-.32422l6.67578-6.00586v21.04102a7.0383057 7.0383057 0 0 0 -3.27344-1.35547h-4.22266a7.0383057 7.0383057 0 0 0 -6.7207 4.95117c-.20433.65842.15159.12769-.11523.25195-.26683.12426-1.48017.41602-3.30274.41602-10.60779 0-17.79883-8.31203-17.79883-18.58008 0-3.61201 1.17789-7.43901 2.99414-9.89648 1.81626-2.45748 3.75242-3.72657 7.20313-3.72657zm315.51758 0c1.56236 0 3.33582.55064 4.13672 1.08399.67981.45271.57099.4299.55468.68359a7.0383057 7.0383057 0 0 0 1.55079 8.90039l3.29492 2.56055a7.0383057 7.0383057 0 0 0 9.02539-.32617l6.47461-5.82617c1.21938 5.44682 4.40321 9.97031 8.29297 12.59374.0346.0234.0708.0374.10547.0605l-8.92774 6.01172a7.0383057 7.0383057 0 0 0 -.99414 1.48242 7.0383057 7.0383057 0 0 0 -1.54883-.64062h-4.22461a7.0383057 7.0383057 0 0 0 -6.7207 4.95117c-.2046.65928.15081.12802-.11524.25195-.26604.12393-1.47822.41602-3.30078.41602-10.6078 0-17.79882-8.31201-17.79882-18.58008 0-3.61246 1.1783-7.43917 2.99414-9.89648 1.81583-2.45732 3.75047-3.72657 7.20117-3.72657zm-144.25195.12305c1.4519 0 4.06635.40232 5.36523.95313.30091.1276.23786.11223.375.20117a7.0383057 7.0383057 0 0 0 -.11328.69922c-2.64448-.60363-4.96071-1.17717-6.80078-1.68946.45834-.0334.7408-.16406 1.17383-.16406zm56.61523 0c1.4519 0 4.06635.40232 5.36523.95313.30092.1276.23787.11223.375.20117a7.0383057 7.0383057 0 0 0 -.11328.69726c-2.64412-.60353-4.96113-1.17525-6.80078-1.6875.45828-.0334.7408-.16406 1.17383-.16406zm142.23242 0c1.4519 0 4.06636.40232 5.36524.95313.30091.1276.23786.11223.375.20117a7.0383057 7.0383057 0 0 0 -.11329.69922c-2.6446-.60363-4.96057-1.17716-6.80078-1.68946.45835-.0334.7408-.16406 1.17383-.16406zm-113.23633 1.68164v13.05859c-1.38589-2.15638-2.98397-4.0981-4.85742-5.5332-.6885-.52741-1.41377-.92335-2.125-1.37109l6.89258-6.04688a7.0383057 7.0383057 0 0 0 .0898-.10742zm-58.96289 2.08594c.47513 6.86022 4.0797 12.66236 8.70117 15.77929.0346.0234.0708.0374.10547.0605l-3.32031 2.23633c-1.26413-5.35368-4.28265-9.79064-7.99805-12.63672-.6885-.52741-1.41377-.92335-2.125-1.37109zm-31.21679 21.68945c4.16895.88729 7.93792 1.68326 9.88086 2.52734 1.09547.47592 1.5251.89088 1.55859.93165.0335.0408-.008-.30867-.008.23828 0 .76385.0597.68841-1.27735 1.45898-1.33709.77057-3.90457 1.375-5.66797 1.375-1.37646 0-3.9289-.53788-5.25781-1.24805-1.01095-.54025-.81005-.46165-.78515-.51757a7.0383057 7.0383057 0 0 0 1.55664-4.76563zm56.61523 0c4.16896.88729 7.93793 1.68326 9.88086 2.52734 1.09547.47592 1.52511.89088 1.55859.93165.0335.0408-.008-.30867-.008.23828 0 .76385.0597.68842-1.27734 1.45898-1.33709.77057-3.90457 1.375-5.66797 1.375-1.37647 0-3.92955-.53614-5.25781-1.24609-1.01323-.54157-.81062-.46484-.78516-.52149a7.0383057 7.0383057 0 0 0 1.55664-4.76367zm142.23242 0c4.16896.88729 7.93793 1.68326 9.88086 2.52734 1.09548.47592 1.52511.89088 1.55859.93165.0335.0408-.008-.30867-.008.23828 0 .76385.0598.68841-1.27734 1.45898-1.33709.77057-3.90458 1.375-5.66797 1.375-1.37647 0-3.92891-.53788-5.25781-1.24805-1.01211-.54087-.81029-.4634-.78516-.51953a7.0383057 7.0383057 0 0 0 1.55664-4.76367z"/><path d="m210.9655 184.90373h36.436859v22.894581h-36.436859z"/><path d="m419.57101 150.79576h51.682564v42.610065h-51.682564z"/></g><g fill="#ffcb08"><path d="m144.65536 155.46762c-5.18025-7.77038-14.37103-12.95063-23.72891-12.95063-17.29537 0-29.494031 12.61642-29.494031 29.82824 0 10.69472 6.6842 32.33482 38.016391 32.33482 4.26117 0 8.6059-.33421 12.78353-1.33684v-12.03156h-4.17763c-1.42039 4.67894-5.43091 5.68157-10.0263 5.68157-14.28747 0-24.56443-11.94801-24.56443-25.90128 0-10.10985 5.84867-20.88812 17.04471-20.88812 5.59802 0 11.69735 3.09144 11.69735 9.02367 0 1.42039-.58487 2.33947-1.25329 3.25854l3.25855 2.59013z" transform="scale(1.0000785 .99992149)"/><path d="m144.9414 208.32166h45.38582v-13.72728h-4.28977c-.51478 5.49091-4.54716 6.34886-9.18012 6.34886h-16.47274v-43.7557c0-3.68921 0-6.26308 3.775-6.94944v-3.17443h-19.21819v3.17443c3.775.68636 3.775 3.26023 3.775 6.94944v41.01025c0 3.6892 0 6.26307-3.775 6.94943z" transform="scale(1.025047 .97556502)"/><path d="m233.68473 144.76527h-12.0371l-19.17635 50.14076c-.91316 2.32441-1.99235 5.89403-5.06389 6.06006v3.07154h16.27085v-3.07154c-3.81867-.99617-3.90169-2.73948-2.57345-6.14307l4.64881-12.36916h20.33855l5.06389 12.36916c1.41124 3.40359 1.82632 5.47896-2.40742 6.14307v3.07154h19.42539v-3.07154c-2.57345-.33206-3.23757-2.15838-4.06771-4.31675zm-15.52371 30.54934 7.4713-19.67444 7.80337 19.67444z" transform="scale(1.0039673 .9960484)"/><path d="m266.95187 187.17586c6.74487 10.44632 13.40748 15.13483 26.48595 15.13483 11.84465 0 25.41664-5.5933 25.41664-19.24755 0-23.77155-37.67256-14.88807-37.67256-27.39075 0-6.00458 7.2384-6.99163 11.9269-6.99163 4.524 0 12.8317 1.56283 12.8317 7.4029 0 .98706-.24676 1.64509-.74029 2.46764l2.79666 1.89185 9.37701-8.22545c-5.92232-7.73192-14.72356-11.10436-24.26508-11.10436-10.61083 0-23.11351 4.35949-23.11351 16.94443 0 22.20871 37.01452 11.26887 37.01452 26.81497 0 6.99163-8.14319 9.87054-13.98326 9.87054-5.09978 0-13.32523-2.54989-13.32523-8.96574 0-1.64509.82254-3.12567 1.89185-4.27724l-2.54989-2.46763z" transform="scale(.98912459 1.010995)"/><path d="m323.56796 187.17586c6.74487 10.44632 13.40748 15.13483 26.48595 15.13483 11.84465 0 25.41664-5.5933 25.41664-19.24755 0-23.77155-37.67256-14.88807-37.67256-27.39075 0-6.00458 7.23839-6.99163 11.9269-6.99163 4.524 0 12.8317 1.56283 12.8317 7.4029 0 .98706-.24676 1.64509-.74029 2.46764l2.79666 1.89185 9.37701-8.22545c-5.92233-7.73192-14.72356-11.10436-24.26508-11.10436-10.61083 0-23.11351 4.35949-23.11351 16.94443 0 22.20871 37.01452 11.26887 37.01452 26.81497 0 6.99163-8.14319 9.87054-13.98326 9.87054-5.09978 0-13.32523-2.54989-13.32523-8.96574 0-1.64509.82254-3.12567 1.89185-4.27724l-2.54989-2.46763z" transform="scale(.98912458 1.010995)"/><path d="m389.64381 155.07754c0-3.60729 0-6.12401 3.69118-6.79513v-3.10395h-18.79147v3.10395c3.69118.67112 3.69118 3.18784 3.69118 6.79513v40.09966c0 3.60729 0 6.12401-3.69118 6.79513v3.10395h18.79147v-3.10395c-3.69118-.67112-3.69118-3.18784-3.69118-6.79513z" transform="scale(1.0087981 .99127858)"/><path d="m456.71836 155.46762c-5.18025-7.77038-14.37103-12.95063-23.72891-12.95063-17.29536 0-29.49403 12.61642-29.49403 29.82824 0 10.69472 6.6842 32.33482 38.01639 32.33482 4.26118 0 8.60591-.33421 12.78353-1.33684v-12.03156h-4.17762c-1.4204 4.67894-5.43092 5.68157-10.0263 5.68157-14.28748 0-24.56444-11.94801-24.56444-25.90128 0-10.10985 5.84868-20.88812 17.04471-20.88812 5.59802 0 11.69735 3.09144 11.69735 9.02367 0 1.42039-.58487 2.33947-1.25329 3.25854l3.25855 2.59013z" transform="scale(1.0000785 .9999215)"/><path d="m465.80023 187.17586c6.74487 10.44632 13.40748 15.13483 26.48595 15.13483 11.84465 0 25.41664-5.5933 25.41664-19.24755 0-23.77155-37.67256-14.88807-37.67256-27.39075 0-6.00458 7.23839-6.99163 11.9269-6.99163 4.524 0 12.8317 1.56283 12.8317 7.4029 0 .98706-.24676 1.64509-.74029 2.46764l2.79665 1.89185 9.37702-8.22545c-5.92233-7.73192-14.72356-11.10436-24.26508-11.10436-10.61083 0-23.11352 4.35949-23.11352 16.94443 0 22.20871 37.01453 11.26887 37.01453 26.81497 0 6.99163-8.1432 9.87054-13.98326 9.87054-5.09978 0-13.32523-2.54989-13.32523-8.96574 0-1.64509.82254-3.12567 1.89185-4.27724l-2.54989-2.46763z" transform="scale(.98912458 1.010995)"/></g></g></g></svg>