<?xml version="1.0" encoding="UTF-8" standalone="no"?>
<!-- Created with Inkscape (http://www.inkscape.org/) -->
<svg version="1.1" id="svg1" width="2558.489" height="462.49432" viewBox="0 0 2558.489 462.49432" sodipodi:docname="cassettevision-w.svg" inkscape:version="1.4.3 (0d15f75042, 2025-12-25)" xmlns:inkscape="http://www.inkscape.org/namespaces/inkscape" xmlns:sodipodi="http://sodipodi.sourceforge.net/DTD/sodipodi-0.dtd" xmlns="http://www.w3.org/2000/svg" xmlns:svg="http://www.w3.org/2000/svg">
  <defs id="defs1"/>
  <sodipodi:namedview id="namedview1" pagecolor="#b7b7b7" bordercolor="#000000" borderopacity="0.25" inkscape:showpageshadow="2" inkscape:pageopacity="0.0" inkscape:pagecheckerboard="0" inkscape:deskcolor="#d1d1d1" inkscape:zoom="0.17558594" inkscape:cx="552.43604" inkscape:cy="216.41824" inkscape:window-width="1920" inkscape:window-height="1080" inkscape:window-x="0" inkscape:window-y="0" inkscape:window-maximized="0" inkscape:current-layer="g1"/>
  <g inkscape:groupmode="layer" inkscape:label="Image" id="g1" transform="translate(0,-26.588288)">
    <g id="g24" transform="translate(-620,26)" style="fill:#ffffff;fill-opacity:1">
      <g id="g22" style="fill:#ffffff;fill-opacity:1">
        <path style="fill:#ffffff;fill-opacity:1" d="M 1856,61.333335 V 2.6666667 h 42 42 V 12 21.333334 h -32.0437 -32.0436 l 0.377,15 0.377,15 29,0.359337 29,0.359336 v 7.947994 7.947994 l -29,0.359337 -29,0.359336 V 85.333335 102 l 32.3333,0.35704 32.3333,0.35704 V 111.35704 120 H 1898.6667 1856 Z" id="path22"/>
        <path style="fill:#ffffff;fill-opacity:1" d="M 1710.6667,61.333335 V 2.6666667 h 14.3618 14.3619 l 15.962,45.2761503 c 8.7791,24.901882 16.3227,44.851883 16.7635,44.333334 0.4409,-0.518549 7.609,-20.892816 15.9292,-45.27615 L 1803.1727,2.6666667 H 1817.5863 1832 V 61.333335 120 h -9.982 -9.9821 l -0.3513,-44.201883 -0.3513,-44.201886 -5.1595,14.535219 c -2.8378,7.99437 -9.9729,27.910693 -15.8558,44.258495 l -10.6961,29.723275 -8.6503,-0.38994 -8.6502,-0.38994 -15.494,-43.18369 -15.4941,-43.183686 -0.3515,43.517019 L 1730.6302,120 h -9.9818 -9.9817 z" id="path21"/>
        <path style="fill:#ffffff;fill-opacity:1" d="m 1610.734,61.666668 22.367,-58.3333346 h 11.0826 11.0827 l 22.3481,58.0000016 c 12.2914,31.9 22.3565,58.150005 22.3668,58.333335 0.01,0.18333 -4.9745,0.33333 -11.0775,0.33333 h -11.0963 l -5.237,-15 -5.2371,-14.999998 -23.349,-0.362806 -23.3489,-0.362806 -5.3177,15.36194 -5.3177,15.36194 -10.8165,8.7e-4 L 1588.367,120 Z m 49.9832,9.333333 c -0.4958,-1.283333 -4.2846,-12.083333 -8.4196,-24 -4.1349,-11.916667 -7.8587,-21.666667 -8.275,-21.666667 -0.4163,0 -4.2741,10.05 -8.5729,22.333334 -4.2988,12.283333 -8.0978,23.083333 -8.4422,24 -0.4812,1.280838 3.4525,1.666667 16.9925,1.666667 16.2342,0 17.5478,-0.183353 16.7172,-2.333334 z" id="path20"/>
        <path style="fill:#ffffff;fill-opacity:1" d="M 1262.6667,70.666668 V 21.333334 H 1244 1225.3333 V 12 2.6666667 h 57.9429 57.9429 l 7.9664,25.0000003 c 4.3816,13.750001 10.8572,34.150001 14.3903,45.333335 3.5332,11.183333 6.7445,20.333333 7.1363,20.333333 0.3918,0 6.6221,-18.45 13.8451,-41.000001 7.223,-22.55 13.9219,-42.9500005 14.8864,-45.3333339 l 1.7537,-4.3333334 h 10.068 c 5.5374,0 10.0471,0.45 10.0215,1 -0.026,0.5500001 -8.8756,26.8000003 -19.6667,58.3333343 L 1382,119.33334 l -11.5389,0.38338 -11.5388,0.38338 -19.3559,-57.716719 C 1320.8354,6.5300517 1320.2071,4.9357085 1320.1053,13 L 1320,21.333334 h -18.6667 -18.6666 V 70.666668 120 h -10 -10 z" id="path19"/>
        <path style="fill:#ffffff;fill-opacity:1" d="M 1073.3333,61.333335 V 2.6666667 h 10 10 V 26.000001 49.333334 H 1120 1146.6667 V 26.000001 2.6666667 h 10 10 V 61.333335 120 h -9.9718 -9.9719 L 1146.3615,93.666669 1146,67.333335 l -26.3333,-0.36152 -26.3334,-0.36152 V 93.305149 120 h -10 -10 z" id="path18"/>
        <path style="fill:#ffffff;fill-opacity:1" d="M 722.66667,61.167497 V 2.3349909 l 31.66666,0.6598555 c 33.95503,0.7075392 38.9138,1.5719509 47.7706,8.3273626 2.35788,1.798441 5.84908,6.404477 7.75823,10.235635 2.85137,5.721961 3.47117,8.831249 3.47117,17.413441 0,16.03798 -5.40572,26.200859 -16.96375,31.892226 -5.74095,2.826942 -8.67241,3.202286 -29.70291,3.803157 L 743.33333,75.333335 742.96776,97.666669 742.60219,120 h -9.96776 -9.96776 z m 62.23814,-5.928942 C 796.27488,46.892187 795.76115,28.210759 784,22.335406 780.23708,20.455618 775.78289,20.003743 761,20.002072 L 742.66667,20 v 18.444445 c 0,10.144445 0.45,18.897207 1,19.450582 0.55,0.553375 9.20716,0.803375 19.23814,0.555555 15.91932,-0.393293 18.71643,-0.801676 22,-3.212027 z" id="path17"/>
        <path style="fill:#ffffff;fill-opacity:1" d="M 620,61.333335 V 2.6666667 h 42 42 V 12 21.333334 h -32.04367 -32.04367 l 0.37701,15 0.377,15 29,0.359337 29,0.359336 v 7.947994 7.947994 l -29,0.359337 -29,0.359336 V 85.333335 102 L 673,102.35704 l 32.33333,0.35704 V 111.35704 120 H 662.66667 620 Z" id="path16"/>
        <path style="fill:#ffffff;fill-opacity:1" d="m 1513.3657,120.61517 c -9.8879,-2.77343 -16.9363,-7.12068 -24.2879,-14.98013 -11.0275,-11.789287 -15.7553,-25.089707 -15.7286,-44.248434 0.035,-25.041582 10.4196,-44.539815 28.9951,-54.4404587 21.8219,-11.6309495 53.4019,-6.64276425 67.0206,10.5861527 4.3491,5.502061 9.3018,16.883738 9.3018,21.376439 0,0.600233 -4.35,1.089198 -9.6667,1.086589 l -9.6667,-0.0047 -3.3333,-6.99537 c -4.3331,-9.093396 -12.3264,-14.248353 -23.6914,-15.278895 -11.6236,-1.053991 -20.0357,2.105267 -27.3922,10.287462 -7.9971,8.894696 -10.9413,18.317619 -10.8306,34.662843 0.1364,20.134593 6.6053,32.880291 20.0187,39.442882 6.2981,3.08135 8.4613,3.45018 17.7592,3.02794 9.1642,-0.41617 11.3637,-1.01905 16.3619,-4.48468 6.4227,-4.453423 11.5846,-13.346055 12.7379,-21.944216 l 0.721,-5.375259 h -15.5089 -15.5089 V 66.000001 58.666668 H 1555.3333 1580 V 89.333335 120 h -6.5337 -6.5337 l -1.6266,-6.78069 -1.6267,-6.78069 -4.8396,4.63932 c -7.8573,7.53201 -15.2438,10.51563 -27.442,11.08453 -7.021,0.32745 -13.2552,-0.20752 -18.032,-1.54737 z" id="path15"/>
        <path style="fill:#ffffff;fill-opacity:1" d="m 989.37721,120.60917 c -29.53533,-8.24945 -45.96561,-41.380193 -37.9653,-76.554888 6.68335,-29.384453 32.28773,-47.0061399 62.26419,-42.8520481 18.7318,2.5958267 32.685,12.6990591 38.3132,27.7419871 4.1527,11.098968 4.1821,11.056508 -7.656,11.050782 L 1034,39.990005 1031.549,34.0298 c -9.9408,-24.1733858 -45.62318,-21.643517 -57.04089,4.044183 -3.93055,8.843012 -5.57926,22.99548 -3.82051,32.795197 4.03364,22.475341 15.73831,34.36769 33.8914,34.43487 14.7135,0.0545 25.3146,-8.298772 28.7602,-22.662002 l 1.5934,-6.642046 h 10.0184 10.0185 l -0.9439,6.333333 c -2.3348,15.667863 -14.2728,31.006635 -28.3435,36.417855 -9.9379,3.82181 -26.27958,4.65813 -36.30489,1.85798 z" id="path14"/>
        <path style="fill:#ffffff;fill-opacity:1" d="m 865.37721,120.61749 c -24.19958,-6.78675 -40.04388,-30.34366 -40.04388,-59.536268 0,-17.931744 7.40689,-36.31896 18.81863,-46.71631 20.6901,-18.8509347 55.72586,-18.2765665 75.23582,1.233399 20.17141,20.171409 23.41667,57.919796 7.1577,83.257216 -9.27158,14.448493 -23.94819,22.535443 -42.31368,23.315233 -7.71344,0.32751 -13.99284,-0.1898 -18.85459,-1.55327 z M 895.40774,102.8185 C 907.96947,97.112791 916,80.974086 916,61.434889 916,35.75603 903.80612,19.307275 883.56527,17.682534 863.85574,16.100442 850.35248,28.993773 846.6366,52.943162 c -3.34204,21.539973 5.48261,42.797968 20.69673,49.857038 7.12923,3.30783 20.81252,3.31675 28.07441,0.0183 z" id="path13"/>
      </g>
    </g>
    <g id="g23" transform="translate(-1.5110939)" style="fill:#ffffff;fill-opacity:1">
      <path style="fill:#ffffff;fill-opacity:1" d="m 2322.6667,336.66667 v -146 l 31,0.0492 31,0.0492 60,105.76713 60,105.76713 0.3413,-105.81629 0.3413,-105.81629 H 2532.6746 2560 v 146 146.00001 h -30.4307 -30.4308 L 2438.5693,377.16338 2378,271.66009 l -0.3414,105.50329 -0.3413,105.5033 h -27.3253 -27.3253 z" id="path12"/>
      <path style="fill:#ffffff;fill-opacity:1" d="m 1941.3333,336.66667 v -146 H 1968.6667 1996 v 146 146.00001 h -27.3333 -27.3334 z" id="path11"/>
      <path style="fill:#ffffff;fill-opacity:1" d="m 1685.3333,336.66667 v -146 H 1712.6667 1740 v 146 146.00001 h -27.3333 -27.3334 z" id="path10"/>
      <path style="fill:#ffffff;fill-opacity:1" d="m 1619.0157,481.00001 c -0.721,-0.91667 -44.9835,-63.76667 -98.3612,-139.66667 -53.3776,-75.9 -99.1123,-140.85 -101.6326,-144.33334 l -4.5823,-6.33333 33.7802,0.0394 33.7802,0.0394 65.3333,96.0282 65.3334,96.0282 0.3421,-96.06763 0.3421,-96.06762 H 1640.6754 1668 v 146 146.00001 h -23.8367 c -17.4814,0 -24.1863,-0.44437 -25.1476,-1.66667 z" id="path9"/>
      <path style="fill:#ffffff;fill-opacity:1" d="m 1173.3333,336.66667 v -146 H 1252 1330.6667 V 216 241.33334 H 1279.3333 1228 v 36 36 h 49.3333 49.3334 v 24.66667 24.66666 H 1277.3333 1228 v 34.66667 34.66667 h 51.3333 51.3334 v 25.33333 25.33334 H 1252 1173.3333 Z" id="path8"/>
      <path style="fill:#ffffff;fill-opacity:1" d="M 1060,362.00001 V 241.33334 h -21.3333 -21.3334 V 216 190.66667 H 1086 1154.6667 V 216 241.33334 H 1134 1113.3333 V 362.00001 482.66668 H 1086.6667 1060 Z" id="path7"/>
      <path style="fill:#ffffff;fill-opacity:1" d="M 904,362.00001 V 241.33334 H 883.33333 862.66667 V 216 190.66667 H 931.33333 1000 V 216 241.33334 H 979.33333 958.66667 V 362.00001 482.66668 H 931.33333 904 Z" id="path6"/>
      <path style="fill:#ffffff;fill-opacity:1" d="m 686.66667,336.66667 v -146 H 765.33333 844 V 216 241.33334 h -51.33333 -51.33334 v 36 36 H 790.66667 840 v 24.66667 24.66666 h -49.33333 -49.33334 v 34.66667 34.66667 H 792.66667 844 v 25.33333 25.33334 h -78.66667 -78.66666 z" id="path5"/>
      <path style="fill:#ffffff;fill-opacity:1" d="m 2144,487.9887 c -63.4646,-6.16656 -116.9884,-51.67678 -132.8411,-112.95223 -4.1471,-16.02959 -5.5564,-41.00102 -3.2776,-58.07751 4.5988,-34.46288 19.2363,-63.38035 44.6919,-88.29229 20.3527,-19.91806 41.0744,-31.70357 69.6352,-39.60526 9.1228,-2.52394 13.8635,-2.89341 37.1249,-2.89341 23.2488,0 28.0048,0.37026 37.1069,2.88879 62.792,17.37445 105.9213,66.17259 114.3691,129.40163 1.8133,13.57171 0.8964,36.86484 -1.979,50.27712 -13.8409,64.56029 -68.4073,112.77369 -134.9575,119.24487 -14.5227,1.41215 -15.4221,1.4124 -29.8728,0.008 z m 27.489,-50.76138 c 21.7772,-3.02894 41.8654,-13.35824 57.3603,-29.49456 18.848,-19.62831 26.8902,-38.64997 28.0937,-66.44876 0.6173,-14.25635 0.3057,-18.36941 -2.1177,-27.95253 -9.4306,-37.29305 -36.7549,-65.78055 -71.6563,-74.70683 -13.8296,-3.53701 -33.8418,-3.53701 -47.6713,0 -47.2401,12.08198 -80.1165,60.82977 -74.0487,109.79631 1.6241,13.10617 7.2602,30.15425 13.3973,40.52393 6.0912,10.29214 22.1423,26.9819 32.3378,33.62458 13.4135,8.7392 33.735,15.1651 50.3861,15.93265 1.9636,0.0905 8.227,-0.48315 13.9188,-1.27479 z" id="path4"/>
      <path style="fill:#ffffff;fill-opacity:1" d="m 1827.959,487.96324 c -43.6543,-5.11174 -75.937,-37.74598 -82.0695,-82.96323 l -0.859,-6.33334 h 28.5228 28.5227 l 2.3845,9.25641 c 4.0785,15.8322 12.9002,25.09785 27.4422,28.82335 17.4214,4.46316 37.7531,-4.36393 45.6343,-19.81228 8.3676,-16.40193 2.2925,-37.25955 -14.0028,-48.07578 -4.1349,-2.74455 -16.9716,-8.55806 -28.5261,-12.91891 -44.6909,-16.86708 -59.9517,-27.32102 -70.2234,-48.10436 -11.3088,-22.88191 -11.3887,-53.90577 -0.197,-76.50176 14.6223,-29.52215 42.3285,-46 77.3455,-46 21.0492,0 37.9824,5.6233 53.9638,17.92074 17.3744,13.3693 31.9945,40.8989 32.0833,60.41259 l 0.02,4.33334 h -27.3079 -27.308 l -0.7845,-3.66667 C 1868.4699,245.03272 1858.5669,236 1841.5362,236 c -18.5881,0 -30.811,11.63669 -30.811,29.33334 0,9.37681 3.2917,16.58773 10.5663,23.14706 6.6276,5.97587 13.6538,9.25603 34.3572,16.03947 28.9109,9.47265 44.3763,18.19546 58.153,32.79944 15.3251,16.2454 21.3873,33.1434 21.2911,59.34736 -0.098,26.74362 -8.213,47.19717 -25.7008,64.78002 -15.643,15.72806 -32.3561,23.63766 -56.0237,26.5137 -12.309,1.49577 -12.6595,1.49581 -25.4093,0.003 z" id="path3"/>
      <path style="fill:#ffffff;fill-opacity:1" d="m 454.92382,487.9341 c -12.00476,-1.60238 -21.02188,-4.46839 -33.06636,-10.50981 -28.0621,-14.07576 -45.17879,-38.85154 -49.2273,-71.25474 l -0.93742,-7.50288 h 28.6689 28.66891 l 0.85114,5.67581 c 3.76194,25.08644 28.01195,39.51279 52.41196,31.17993 27.88633,-9.52346 34.614,-46.45638 11.62883,-63.83872 -3.70107,-2.7989 -17.67217,-9.71314 -31.87509,-15.77485 -31.39594,-13.39958 -41.64619,-19.31078 -52.86803,-30.48838 -9.3361,-9.2993 -15.26264,-19.3445 -19.36546,-32.82349 -3.68976,-12.12201 -3.43112,-39.49346 0.49071,-51.9303 10.90189,-34.57191 41.2793,-55.33333 80.96188,-55.33333 20.3457,0 37.36989,5.42635 51.81523,16.51576 l 6.41505,4.92471 6.42146,-4.71378 c 15.06511,-11.05881 32.73581,-16.72669 52.14862,-16.72669 25.22254,0 45.47347,8.15627 62.7535,25.27464 14.3196,14.18564 21.5424,29.24563 24.48785,51.05869 l 0.85519,6.33334 H 648.0817 c -27.01389,0 -28.0817,-0.0995 -28.0817,-2.61665 0,-5.15419 -5.40583,-16.9304 -9.66343,-21.05109 C 604.29382,238.48384 597.51187,236 587.58587,236 c -15.37691,0 -25.94808,8.71084 -29.12558,24.00001 -1.27081,6.11476 -1.15683,8.59255 0.68596,14.91133 4.17786,14.32554 10.47885,18.94413 40.47066,29.66472 41.58311,14.86391 58.83077,27.62954 70.65026,52.2909 8.42744,17.58385 10.50543,44.1283 5.09885,65.13305 -9.431,36.63969 -39.15142,61.44677 -79.02673,65.96212 -23.28309,2.6365 -46.1274,-2.55736 -63.34211,-14.40138 -5.22495,-3.59487 -5.98314,-3.7743 -8.37124,-1.98117 -5.84119,4.3859 -21.48987,11.4153 -30.44507,13.67593 -11.95905,3.01891 -28.33589,4.13634 -39.25705,2.67859 z M 604.97279,433.86277 C 617.23025,427.94638 624,416.37264 624,401.33334 c 0,-15.2476 -6.66074,-25.89043 -21.52627,-34.39562 -4.01131,-2.29505 -15.87727,-7.51945 -26.3688,-11.6098 -10.49152,-4.09034 -22.06777,-8.95329 -25.725,-10.80655 -3.65722,-1.85325 -6.16393,-2.57871 -5.57047,-1.61212 0.59347,0.96658 2.83126,4.35875 4.97288,7.53814 4.37221,6.49087 8.16939,15.78062 10.30781,25.21792 1.93115,8.52256 1.84415,31.29546 -0.15844,41.47443 -1.48369,7.54144 -1.40697,8.49364 0.88889,11.03226 9.18711,10.15857 29.47767,12.77382 44.15219,5.69077 z m -86.22688,-114.1961 c -9.53666,-14.50376 -12.93683,-24.59788 -14.709,-43.66666 -0.71561,-7.7 -1.92206,-16.16745 -2.68102,-18.81654 -2.03814,-7.11401 -8.34388,-15.05948 -14.20094,-17.89371 -6.33594,-3.06597 -21.22909,-4.13215 -27.73374,-1.98542 -11.3406,3.74273 -18.00878,13.81398 -18.05859,27.2747 -0.0693,18.73415 13.38572,30.87364 50.75904,45.79606 5.56691,2.22276 14.26691,6.16816 19.33333,8.76756 5.06642,2.59941 9.4206,4.7557 9.67595,4.79177 0.25534,0.0361 -0.81792,-1.88442 -2.38503,-4.26776 z" id="path2"/>
      <path style="fill:#ffffff;fill-opacity:1" d="M 138.96033,487.90319 C 70.553258,481.29291 14.466084,428.47081 3.1511267,360.00001 0.18036009,342.02285 1.3372758,315.78595 5.8784337,298.14927 19.412665,245.58584 60.600463,203.8852 113.05892,189.63425 c 12.01637,-3.26439 14.94182,-3.51943 40.94108,-3.56929 22.49677,-0.0431 30.2275,0.43377 39.33333,2.42649 14.49223,3.17148 27.39336,7.78612 40,14.30771 10.6678,5.5186 33.33334,21.84625 33.33334,24.01245 0,1.81702 -30.37293,42.52173 -31.72875,42.52173 -0.60812,0 -2.86793,-1.85277 -5.0218,-4.11727 -7.92019,-8.32699 -26.09174,-19.1601 -39.92352,-23.80071 -11.66277,-3.9129 -15.51134,-4.55088 -30.83623,-5.11176 -21.70108,-0.79423 -33.0428,1.43911 -49.72923,9.79236 -48.021915,24.03984 -67.556191,84.4936 -43.478108,134.554 11.965362,24.87701 35.547168,45.52257 61.057708,53.45521 7.49221,2.32974 7.71883,2.32518 9.59691,-0.19287 1.05792,-1.41843 41.10489,-56.71855 88.99326,-122.88915 l 87.06976,-120.3102 22.33333,-0.0231 22.33333,-0.0231 v 146 146.00001 H 330.66667 304 v -48.66667 -48.66667 h -33.84876 -33.84875 l -16.57068,21.66667 c -20.11434,26.3001 -19.51228,25.35746 -15.13229,23.6922 10.35517,-3.93704 24.40493,-15.53054 30.21655,-24.93394 l 2.73476,-4.42493 h 30.63062 30.63062 l -4.74863,9 c -14.27854,27.06189 -42.19562,52.5048 -71.58518,65.24091 -14.45501,6.26415 -32.30273,10.61117 -50.60585,12.32564 -16.60326,1.55525 -16.8514,1.55527 -32.91208,0.003 z M 304,313.04763 c 0,-21.76146 -0.27525,-25.32507 -1.82798,-23.66667 -1.00538,1.07381 -9.07077,12.60238 -17.92308,25.61905 l -16.09511,23.66666 H 286.07692 304 Z" id="path1"/>
    </g>
  </g>
</svg>