<svg height="48.666302mm" viewBox="0 0 283.76086 30.272125" width="456.18176mm" xmlns="http://www.w3.org/2000/svg" xmlns:xlink="http://www.w3.org/1999/xlink"><filter id="a" color-interpolation-filters="sRGB" height="1.588719" width="1.105867" x="-.050613" y="-.208476"><feFlood result="flood"/><feComposite in="flood" in2="SourceGraphic" operator="in" result="composite1"/><feGaussianBlur in="composite1" result="blur" stdDeviation=".4"/><feOffset dx=".1" dy=".9" result="offset"/><feComposite in="SourceGraphic" in2="offset" operator="over" result="composite2"/></filter><linearGradient id="b" gradientUnits="userSpaceOnUse" x1="112.06145" x2="112.06145" y1="136.68471" y2="158.55212"><stop offset="0" stop-color="#fcfcfc"/><stop offset=".62472063" stop-color="#7a7a7a" stop-opacity="0"/><stop offset=".87829024" stop-color="#747474"/><stop offset="1" stop-color="#4d4d4d"/></linearGradient><filter id="c" color-interpolation-filters="sRGB" height="2.72595" width="1.854418" x="-.427209" y="-.861283"><feGaussianBlur in="SourceGraphic" result="blur" stdDeviation=".948188"/><feDiffuseLighting diffuseConstant="1" result="diffuse" surfaceScale="10"><feDistantLight azimuth="79" elevation="204"/></feDiffuseLighting><feComposite in="diffuse" in2="diffuse" k1="1" k2="0" k3="0" k4="0" operator="arithmetic" result="composite1"/><feComposite in="composite1" in2="SourceGraphic" k1="1" k2="0" k3="1" k4="0" operator="arithmetic" result="composite2"/></filter><filter id="d" color-interpolation-filters="sRGB" height="2.72595" width="1.854418" x="-.427209" y="-.861283"><feGaussianBlur in="SourceGraphic" result="blur" stdDeviation=".948188"/><feDiffuseLighting diffuseConstant="1" result="diffuse" surfaceScale="10"><feDistantLight azimuth="79" elevation="204"/></feDiffuseLighting><feComposite in="diffuse" in2="diffuse" k1="1" k2="0" k3="0" k4="0" operator="arithmetic" result="composite1"/><feComposite in="composite1" in2="SourceGraphic" k1="1" k2="0" k3="1" k4="0" operator="arithmetic" result="composite2"/></filter><filter id="e" color-interpolation-filters="sRGB" height="2.72595" width="1.854418" x="-.427209" y="-.861283"><feGaussianBlur in="SourceGraphic" result="blur" stdDeviation=".948188"/><feDiffuseLighting diffuseConstant="1" result="diffuse" surfaceScale="10"><feDistantLight azimuth="79" elevation="204"/></feDiffuseLighting><feComposite in="diffuse" in2="diffuse" k1="1" k2="0" k3="0" k4="0" operator="arithmetic" result="composite1"/><feComposite in="composite1" in2="SourceGraphic" k1="1" k2="0" k3="1" k4="0" operator="arithmetic" result="composite2"/></filter><filter id="f" color-interpolation-filters="sRGB" height="4.510262" width="1.510736" x="-.255368" y="-1.755131"><feGaussianBlur in="SourceGraphic" result="blur" stdDeviation=".948188"/><feDiffuseLighting diffuseConstant="1" result="diffuse" surfaceScale="10"><feDistantLight azimuth="79" elevation="204"/></feDiffuseLighting><feComposite in="diffuse" in2="diffuse" k1="1" k2="0" k3="0" k4="0" operator="arithmetic" result="composite1"/><feComposite in="composite1" in2="SourceGraphic" k1="1" k2="0" k3="1" k4="0" operator="arithmetic" result="composite2"/></filter><filter id="g" color-interpolation-filters="sRGB" height="1.6302" width="3.062479" x="-1.029769" y="-.315097"><feGaussianBlur in="SourceGraphic" result="blur" stdDeviation=".948188"/><feDiffuseLighting diffuseConstant="1" result="diffuse" surfaceScale="10"><feDistantLight azimuth="48" elevation="204"/></feDiffuseLighting><feComposite in="diffuse" in2="diffuse" k1="1" k2="0" k3="0" k4="0" operator="arithmetic" result="composite1"/><feComposite in="composite1" in2="SourceGraphic" k1="1" k2="0" k3="1" k4="0" operator="arithmetic" result="composite2"/></filter><filter id="h" color-interpolation-filters="sRGB" height="16.062053" width="17.740467" x="-16.453253" y="-14.825865"><feGaussianBlur in="SourceGraphic" result="blur" stdDeviation=".948188"/><feDiffuseLighting diffuseConstant="1" result="diffuse" surfaceScale="10"><feDistantLight azimuth="43" elevation="204"/></feDiffuseLighting><feComposite in="diffuse" in2="diffuse" k1="1" k2="0" k3="0" k4="0" operator="arithmetic" result="composite1"/><feComposite in="composite1" in2="SourceGraphic" k1="1" k2="0" k3="1" k4="0" operator="arithmetic" result="composite2"/></filter><filter id="i" color-interpolation-filters="sRGB" height="2.190551" width="2.026158" x="-.513078" y="-.595232"><feGaussianBlur in="SourceGraphic" result="blur" stdDeviation=".948188"/><feDiffuseLighting diffuseConstant="1" result="diffuse" surfaceScale="10"><feDistantLight azimuth="43" elevation="204"/></feDiffuseLighting><feComposite in="diffuse" in2="diffuse" k1="1" k2="0" k3="0" k4="0" operator="arithmetic" result="composite1"/><feComposite in="composite1" in2="SourceGraphic" k1="1" k2="0" k3="1" k4="0" operator="arithmetic" result="composite2"/></filter><filter id="j" color-interpolation-filters="sRGB" height="2.568944" width="3.068576" x="-1.034288" y="-.784472"><feGaussianBlur in="SourceGraphic" result="blur" stdDeviation=".948188"/><feDiffuseLighting diffuseConstant="1" result="diffuse" surfaceScale="10"><feDistantLight azimuth="41" elevation="204"/></feDiffuseLighting><feComposite in="diffuse" in2="diffuse" k1="1" k2="0" k3="0" k4="0" operator="arithmetic" result="composite1"/><feComposite in="composite1" in2="SourceGraphic" k1="1" k2="0" k3="1" k4="0" operator="arithmetic" result="composite2"/></filter><filter id="k" color-interpolation-filters="sRGB" height="1.721022" width="2.107368" x="-.553684" y="-.360505"><feGaussianBlur in="SourceGraphic" result="blur" stdDeviation=".948188"/><feDiffuseLighting diffuseConstant="1" result="diffuse" surfaceScale="10"><feDistantLight azimuth="41" elevation="204"/></feDiffuseLighting><feComposite in="diffuse" in2="diffuse" k1="1" k2="0" k3="0" k4="0" operator="arithmetic" result="composite1"/><feComposite in="composite1" in2="SourceGraphic" k1="1" k2="0" k3="1" k4="0" operator="arithmetic" result="composite2"/></filter><filter id="l" color-interpolation-filters="sRGB" height="1.689875" width="2.478865" x="-.739432" y="-.344937"><feGaussianBlur in="SourceGraphic" result="blur" stdDeviation=".948188"/><feDiffuseLighting diffuseConstant="1" result="diffuse" surfaceScale="10"><feDistantLight azimuth="95" elevation="204"/></feDiffuseLighting><feComposite in="diffuse" in2="diffuse" k1="1" k2="0" k3="0" k4="0" operator="arithmetic" result="composite1"/><feComposite in="composite1" in2="SourceGraphic" k1="1" k2="0" k3="1" k4="0" operator="arithmetic" result="composite2"/></filter><filter id="m" color-interpolation-filters="sRGB" height="3.698888" width="3.904013" x="-1.452007" y="-1.349444"><feGaussianBlur in="SourceGraphic" result="blur" stdDeviation=".948188"/><feDiffuseLighting diffuseConstant="1" result="diffuse" surfaceScale="10"><feDistantLight azimuth="33" elevation="204"/></feDiffuseLighting><feComposite in="diffuse" in2="diffuse" k1="1" k2="0" k3="0" k4="0" operator="arithmetic" result="composite1"/><feComposite in="composite1" in2="SourceGraphic" k1="1" k2="0" k3="1" k4="0" operator="arithmetic" result="composite2"/></filter><filter id="n" color-interpolation-filters="sRGB" height="1.573652" width="1.46548" x="-.23274" y="-.286826"><feGaussianBlur in="SourceGraphic" result="blur" stdDeviation=".948188"/><feDiffuseLighting diffuseConstant="1" lighting-color="#838381" result="diffuse" surfaceScale="10"><feDistantLight azimuth="42" elevation="204"/></feDiffuseLighting><feComposite in="diffuse" in2="diffuse" k1="1" k2="0" k3="0" k4="0" operator="arithmetic" result="composite1"/><feComposite in="composite1" in2="SourceGraphic" k1="1" k2="0" k3="1" k4="0" operator="arithmetic" result="composite2"/></filter><filter id="o" color-interpolation-filters="sRGB" height="2.34949" width="1.323496" x="-.161748" y="-.674745"><feGaussianBlur in="SourceGraphic" result="blur" stdDeviation=".948188"/><feDiffuseLighting diffuseConstant="1" result="diffuse" surfaceScale="10"><feDistantLight azimuth="108" elevation="189"/></feDiffuseLighting><feComposite in="diffuse" in2="diffuse" k1="1" k2="0" k3="0" k4="0" operator="arithmetic" result="composite1"/><feComposite in="composite1" in2="SourceGraphic" k1="1" k2="0" k3="1" k4="0" operator="arithmetic" result="composite2"/></filter><filter id="p" color-interpolation-filters="sRGB" height="1.758611" width="1.258355" x="-.129177" y="-.379306"><feGaussianBlur in="SourceGraphic" result="blur" stdDeviation=".948188"/><feDiffuseLighting diffuseConstant="1" result="diffuse" surfaceScale="10"><feDistantLight azimuth="108" elevation="189"/></feDiffuseLighting><feComposite in="diffuse" in2="diffuse" k1="1" k2="0" k3="0" k4="0" operator="arithmetic" result="composite1"/><feComposite in="composite1" in2="SourceGraphic" k1="1" k2="0" k3="1" k4="0" operator="arithmetic" result="composite2"/></filter><filter id="q" color-interpolation-filters="sRGB" height="3.563849" width="1.388437" x="-.194218" y="-1.281925"><feGaussianBlur in="SourceGraphic" result="blur" stdDeviation=".948188"/><feDiffuseLighting diffuseConstant="1" result="diffuse" surfaceScale="10"><feDistantLight azimuth="108" elevation="189"/></feDiffuseLighting><feComposite in="diffuse" in2="diffuse" k1="1" k2="0" k3="0" k4="0" operator="arithmetic" result="composite1"/><feComposite in="composite1" in2="SourceGraphic" k1="1" k2="0" k3="1" k4="0" operator="arithmetic" result="composite2"/></filter><g transform="translate(-74.797665 -132.09214)"><path d="m92.885765 145.42994c-.512854.0631-1.026879-.92999-.75118-1.18402 1.395903-1.28619 8.323595-4.28985 11.709515-4.34073 1.62614-.30792 2.69498-.3314 3.65147-.0412 3.67922 1.11632 2.02436 6.30422-.046 5.75452" style="opacity:.98;fill:#5556c8;stroke-width:.132292;stroke-linecap:round;stroke-linejoin:round;stroke-opacity:.881958;filter:url(#p)"/><path d="m93.724661 144.55224c3.217419-2.06642 7.267039-3.49794 13.420869-3.32413l.64823 1.47117-5.23304-.0273c-1.164.0908-6.869042 2.20676-8.836059 1.88026z" fill="#fff" fill-opacity=".770511" filter="url(#o)" opacity=".98"/><path d="m95.781932 145.05311c1.263655-.83104 3.214525-1.17098 5.118738-1.54427 5.43802-.44349 5.25211-.1308 6.59823-.0241l-.12329.73315c-1.77335-.2904-4.13865-.18313-6.43694-.12088-1.569475.48218-3.274346.81625-5.156738.9561z" fill="#fff" fill-opacity=".770511" filter="url(#q)" opacity=".98"/><path d="m117.74425 137.74542-.56487-.69855c.73009.386 3.12814-2.60918 3.49952-2.69608l2.84102-.007c1.5797.0494 1.73716 3.18297 1.64638 3.46568l-7.42209-.0637" style="opacity:.98;fill:#fcfcfc;stroke:#000;stroke-width:.264583;stroke-linecap:round;stroke-linejoin:round"/><path d="m125.31124 137.67894-.0891-.6029c.0399-.41328-.781-2.70798-1.21765-2.6481l-1.38506-.0127.0427 3.31288z" opacity=".98"/><g stroke-linejoin="round"><path d="m122.63381 136.86755 2.37394.001.0194.25684h-2.3933z" fill="#fff" opacity=".98" stroke-opacity=".531644" stroke-width=".132292"/><g stroke="#000" stroke-width=".396875"><path d="m74.871559 147.38464c11.161423-1.3864 13.986755-2.17924 17.24073-3.0026.05852.36219-.0606.75684.79571.97322-2.394563-.006 6.636487.13608 14.541521.26326 1.6216-.3211 3.25361-2.82311-.0936-6.12168 1.44814-1.50911 2.83942-2.32187 4.21425-2.93329l5.21421-.0316.95987 1.21347 7.53042.0256-.29489.86572-.32996.41984-.12437 16.92402.48221.37806v1.01978l.25433.94857h-6.76235c-4.29966.11252-11.50174-1.47481-15.98991-1.82851-1.74448.13208-18.332534-1.6687-27.637941-9.11383z" fill="#fcfcfc" opacity=".98" stroke-linecap="round"/><path d="m74.871559 147.38464c11.161423-1.3864 13.986755-2.17924 17.24073-3.0026.05852.36219-.0606.75684.79571.97322-2.394563-.006 6.636487.13608 14.541521.26326 1.6216-.3211 3.25361-2.82311-.0936-6.12168 1.44814-1.50911 3.66582-2.94423 4.21425-2.93329l5.21421-.0316.95987 1.21347 7.53042.0256-.29489.86572-.32996.41984-.12437 16.92402.48221.37806v1.01978l.25433.94857h-6.76235c-4.29966.11252-11.50174-1.47481-15.98991-1.82851-1.74448.13208-18.332534-1.6687-27.637941-9.11383z" fill="url(#b)" opacity=".98" stroke-linecap="round"/><ellipse cx="125.27215" cy="147.94614" fill="#535151" opacity=".98" rx="1.293395" ry="10.17173"/></g></g><path d="m109.20385 141.68557c.0426-1.87963 1.58456-3.20319 2.24284-4.89238-1.03261.30475-2.44864 1.36972-3.77284 2.70029.77466.83852 1.17181 1.52324 1.53 2.19209z" fill="#535151" fill-opacity=".398935" opacity=".98"/><path d="m116.69135 136.73462-1.07843 1.18031c-.0711.0682-.0117.0962.0191.11177l.86652.31317c.0792.0353.11816.0212.1567.002.58413-.30357.9506-.19762 1.39407-.23653h6.67055l.0769-.13328-7.06244-.0358c-.0659.005-.0659.005-.12476-.0463z" fill="#535151" fill-opacity=".398935" opacity=".98"/><path d="m119.07995 151.61145h-20.486581c-.63753.17063-.514922 1.21184.05857 1.37768 1.497201.67052 3.506361.64743 3.553681 3.55225.0181.31561.0253.30928.25761.30928h16.53142c.16641.0109.24503-.40036.25454-.68843v-.48028c.0102-.26958-.0365-.33967.19465-.36529.40942-.0171.27887-.35058.30176-.49558v-2.35179c-.0337-.41611-.21012-.8265-.66565-.85784z" style="opacity:.98;fill:#fcfcfc;stroke:#727272;stroke-width:.264583;stroke-linecap:round;stroke-linejoin:round;filter:url(#a)"/><g filter="url(#f)"><rect fill="#535151" height="1.275233" opacity=".98" rx=".637617" width="8.911264" x="95.173782" y="157.21742"/><path d="m96.264099 157.19994h1.058332v1.296571h-1.058332z" fill="#671e5a" opacity=".98"/></g><g stroke-width="1.11316"><g filter="url(#d)" transform="matrix(.89843074 0 0 .8982532 10.233413 22.062852)"><path d="m116.96027 149.67415h2.42926c.79545 0 1.43582.53703 1.43582 1.20409v.23765c0 .66707-.64037 1.20409-1.43582 1.20409h-2.42926c-.79545 0-1.43583-.53702-1.43583-1.20409v-.23765c0-.66706.64038-1.20409 1.43583-1.20409z" style="opacity:.98;fill:#871413;stroke-width:.147262;stroke-linecap:round;stroke-linejoin:round;stroke-opacity:.881958"/><path d="m120.36038 149.9859c.7701.58158.53091 1.7063-.0116 2.03062m-.00004 0c-.18164-.2386-.21567-.59826-.21567-.9346v-.0946c0-.36323.039-.7637.22731-1.00142" fill="#4b0404" opacity=".98"/><path d="m117.06294 152.25847c-.23981-.27979-.39382-.71962-.39382-1.21601v-.0769c0-.49908.15569-.94097.3977-1.22053.71729-.0006 1.26749-.00036 1.94228-.00036-.24203.27955-.3977.72145-.3977 1.22053v.0769c0 .4964.154.93623.39381 1.21602l-.4004-.005c-.51398-.001-1.02791-.001-1.54187.005z" style="opacity:.98;fill:#fff;stroke:#fff;stroke-width:.147262;stroke-linecap:round;stroke-linejoin:round"/></g><g filter="url(#c)" transform="matrix(.89843074 0 0 .8982532 -1.173173 22.062852)"><path d="m116.96027 149.67415h2.42926c.79545 0 1.43582.53703 1.43582 1.20409v.23765c0 .66707-.64037 1.20409-1.43582 1.20409h-2.42926c-.79545 0-1.43583-.53702-1.43583-1.20409v-.23765c0-.66706.64038-1.20409 1.43583-1.20409z" style="opacity:.98;fill:#871413;stroke-width:.147262;stroke-linecap:round;stroke-linejoin:round;stroke-opacity:.881958"/><path d="m120.36038 149.9859c.7701.58158.53091 1.7063-.0116 2.03062m-.00004 0c-.18164-.2386-.21567-.59826-.21567-.9346v-.0946c0-.36323.039-.7637.22731-1.00142" fill="#4b0404" opacity=".98"/><path d="m117.06294 152.25847c-.23981-.27979-.39382-.71962-.39382-1.21601v-.0769c0-.49908.15569-.94097.3977-1.22053.71729-.0006 1.26749-.00036 1.94228-.00036-.24203.27955-.3977.72145-.3977 1.22053v.0769c0 .4964.154.93623.39381 1.21602l-.4004-.005c-.51398-.001-1.02791-.001-1.54187.005z" style="opacity:.98;fill:#fff;stroke:#fff;stroke-width:.147262;stroke-linecap:round;stroke-linejoin:round"/></g><g filter="url(#e)" transform="matrix(.89843074 0 0 .8982532 4.309309 22.062852)"><path d="m116.96027 149.67415h2.42926c.79545 0 1.43582.53703 1.43582 1.20409v.23765c0 .66707-.64037 1.20409-1.43582 1.20409h-2.42926c-.79545 0-1.43583-.53702-1.43583-1.20409v-.23765c0-.66706.64038-1.20409 1.43583-1.20409z" style="opacity:.98;fill:#871413;stroke-width:.147262;stroke-linecap:round;stroke-linejoin:round;stroke-opacity:.881958"/><path d="m120.36038 149.9859c.7701.58158.53091 1.7063-.0116 2.03062m-.00004 0c-.18164-.2386-.21567-.59826-.21567-.9346v-.0946c0-.36323.039-.7637.22731-1.00142" fill="#4b0404" opacity=".98"/><path d="m117.06294 152.25847c-.23981-.27979-.39382-.71962-.39382-1.21601v-.0769c0-.49908.15569-.94097.3977-1.22053.71729-.0006 1.26749-.00036 1.94228-.00036-.24203.27955-.3977.72145-.3977 1.22053v.0769c0 .4964.154.93623.39381 1.21602l-.4004-.005c-.51398-.001-1.02791-.001-1.54187.005z" style="opacity:.98;fill:#fff;stroke:#fff;stroke-width:.147262;stroke-linecap:round;stroke-linejoin:round"/></g></g><g fill="#535353" filter="url(#n)" stroke="#cdcdcd"><g stroke-linecap="round" stroke-linejoin="round"><path d="m111.48393 142.64952h8.57059c.23813 0 .42983.19171.42983.42983v.92073c-.002.0454.002.0753-.0887.0949l-.24482.0643c-.0323.0101-.0632.0233-.0623.1084l-.001 4.74719c-.004.0242-.00042.0461.0368.0574l.2427.0851c.0679.0163.11082.0571.11755.13348v1.09336c0 .23813-.1917.42983-.42983.42983h-8.57059c-1.482-.007-1.34692-8.1526 0-8.16448z" fill="#7d7d7d" opacity=".98" stroke="#000" stroke-width=".132292"/><path d="m112.50394 143.00082h6.20645c.20858 0 .3765.16792.3765.37651v6.15747c0 .20858-.16792.3765-.3765.3765h-5.90791c-.20859 0-.37651-.16792-.37651-.3765l-.0126-.82038c-.20358.0108-.3207-.14594-.31908-.53293l.0331-4.80416c.001-.20858.16792-.37651.37651-.37651z" fill="#535353" opacity=".98" stroke="#000" stroke-width=".066146"/><g fill="#4f4f4f" stroke="#cdcdcd" stroke-width=".132292"><rect height="2.116667" opacity=".98" rx=".376505" width="2.116667" x="113.06084" y="143.45198"/><rect height="2.116667" opacity=".98" rx=".376505" width="2.116667" x="116.23583" y="147.19116"/><rect height="2.116667" opacity=".98" rx=".376505" width="2.116667" x="116.23583" y="143.45198"/><rect height="2.116667" opacity=".98" rx=".376505" width="2.116667" x="113.11648" y="147.26894"/></g></g><g fill="#9aeefa" stroke="none"><rect height="1.058333" opacity=".98" rx=".27308" width="1.058333" x="114.05318" y="144.44662"/><rect height="1.058333" opacity=".98" rx=".27308" width="1.058333" x="117.22221" y="144.42096"/></g></g><path d="m129.51484 153.81931c.39314-.0317.83323-.0406 1.29684-.0709.64782-.0423 1.90853-.83327 1.98647-1.69245v-3.62483h.88638v3.75806c.0131 1.42998-2.09771 2.7183-2.87215 2.64292h-1.27124z" style="opacity:.98;fill:#cdd370;stroke:#000;stroke-width:.066146;stroke-linejoin:round;filter:url(#k)"/><g filter="url(#h)"><ellipse cx="132.61311" cy="145.17574" rx=".795012" ry=".855435" style="opacity:.98;fill:#7b7b7b;stroke:#000;stroke-width:.066146;stroke-linejoin:round;filter:url(#m)"/><ellipse cx="134.73738" cy="142.98312" fill="#808578" opacity=".98" rx=".653691" ry=".703373" stroke="#000" stroke-linejoin="round" stroke-width=".066146"/><path d="m135.50548 143.42931c.76298 3.28081.50021 5.52262.24528 7.77236-.19142.63392-.59388.43823-1.15528.43823v-8.18349z" opacity=".98"/><g stroke="#000" stroke-linejoin="round" stroke-width=".066146"><path d="m134.06931 143.40905.48882-.008c.0263-.34932.10913-.66657.59601-.75446h.56004c.11813.001.12479-.003.11909.12103v.42926c-.47534.19146-.66797.47323-.7192.80018v8.02809c-.0204.36321-.0124.39435-.31634.3964h-2.03069c-.80135-.90895-.75475-2.48637-.77878-4.00811z" fill="#2e6b6b" opacity=".98"/><path d="m131.4182 148.60475h.56598l.4141.71724c.20545.38315.38192.55109.50744.52758.20618-.30225.22147-.56648.21251-.88698.0898-.43925.088-.45898.48337-.43997.23016.3792.48487.19078.49665 0v-5.31625c-.42016.0409-.72077.32998-.89064.89064v.85939c-.0122.34271-.27567.85705-.50367.87238h-.90799v2.19435h-.36802z" fill="#129292" opacity=".98"/><path d="m131.42528 148.73445h-3.33861v-1.19475h3.343c.34758-.0215.26058.26785.25569.62164.001.51656-.0365.5976-.26008.57311z" fill="#acabac" opacity=".98"/></g></g><path d="m127.58598 155.92165h.64372c.0845-.27425.2665-.52019.69461-.69461h.71004v-1.85921c-.38289-.16446-.68503.11327-.72241-.34705h-1.4778z" fill="#2c2c2d" filter="url(#j)" opacity=".98"/><path d="m127.6545 149.99854h2.1911c1.07642-.12055 1.23966-.6874 1.7297-.70959.81614-.13819.52942 1.63082.5329 1.65625-.11554.74068-2.09471 2.22397-2.44458 2.21415h-1.99175z" style="opacity:.98;fill:#a00203;stroke:#000;stroke-width:.066146;stroke-linejoin:round;filter:url(#i)"/><path d="m125.14856 155.92916h2.71578v-6.78905h-3.16702v6.78717z" style="opacity:.98;fill:#555353;stroke:#000;stroke-width:.132292;stroke-linejoin:round;filter:url(#l)"/><g filter="url(#g)" transform="translate(0 .529167)"><path d="m127.6037 138.19075v3.00781h1.49335v-3.10249c-.006-.25903.0999-.31675.22718-.33624.14745-.0103.11928-.10696.12093-.45014v-3.17369c-.005-.17956.0226-.26263-.4554-.26292h-1.41996c-.35642-.007-.35304.00042-.35304.35582v3.41203c.23439.0823.38678.24313.38694.54982z" fill="#43b3b2" opacity=".98" stroke="#000" stroke-linejoin="round" stroke-width=".066146"/><path d="m127.61115 139.8588c.48602.13851.97687.19594 1.48279 0v1.31891h-1.49361z" fill="#4c5253" opacity=".98"/><rect fill="#d1d1d1" height="1.794984" opacity=".98" rx=".219396" width="1.556235" x="127.22326" y="135.05016"/><path d="m127.22292 135.35152h1.1689c.12154 0 .21939.0978.21939.21939v.76571c0 .12155-.0978.2194-.21939.2194h-1.1626" fill="none" opacity=".98" stroke="#ff211e" stroke-linejoin="round" stroke-width=".066146"/><g fill="#ff2321" stroke-width=".511657" transform="matrix(-1.6712691 0 0 -1 341.37184 271.93872)"><path d="m127.77947 135.56245-.0337.12558h-.0205l-.0231-.0762-.0231.0762h-.0205l-.0335-.12558h.0256l.0194.0792.0229-.0792h.0183l.0229.0792.0196-.0792z"/><path d="m127.86907 135.68803h-.0229v-.0561q0-.008-.005-.0127-.004-.004-.0102-.004-.006 0-.01.004-.005.004-.005.0127v.0561h-.0229v-.12558h.0229v.0421q.009-.01.0221-.01.0146 0 .0229.01.008.009.008.024z"/><path d="m127.96767 135.642q0 .0132-.002.021-.002.009-.008.0148-.0108.0113-.0286.0113-.0176 0-.0284-.0113-.006-.006-.008-.0148-.002-.008-.002-.021 0-.0247.0106-.0358.0106-.0111.0282-.0111.0178 0 .0284.0111.0106.0111.0106.0358zm-.0229 0q0-.0169-.005-.0222-.004-.004-.0108-.004-.007 0-.0106.004-.005.005-.005.0222 0 .0171.005.0224.004.004.0106.004.007 0 .0108-.004.005-.005.005-.0224z"/><path d="m127.72814 135.86291q0 .0257-.012.0383-.0138.0143-.0354.0143-.0201 0-.0339-.0138-.008-.008-.0109-.0217-.001-.008-.001-.0284 0-.0206.001-.0284.002-.0132.0109-.0217.0138-.0138.0339-.0138.0205 0 .0333.0122.0111.0108.0139.028h-.0247q-.004-.0183-.0226-.0183-.01 0-.0157.007-.005.005-.006.0169-.00036.003-.00036.0183 0 .0152.00036.0183.001.0118.006.0171.006.007.0157.007.0111 0 .0175-.007.006-.006.006-.0168v-.005h-.0231v-.0205h.0474z"/><path d="m127.82515 135.86838q0 .0132-.002.021-.002.009-.008.0148-.0108.0113-.0286.0113-.0176 0-.0284-.0113-.006-.006-.008-.0148-.002-.008-.002-.021 0-.0247.0106-.0358.0106-.0111.0282-.0111.0178 0 .0284.0111.0106.0111.0106.0358zm-.0229 0q0-.0169-.005-.0222-.004-.004-.0108-.004-.007 0-.0106.004-.005.005-.005.0222 0 .0171.005.0224.004.004.0106.004.007 0 .0108-.004.005-.005.005-.0224z"/><path d="m127.8883 135.91441h-.0125q-.0131 0-.0203-.008-.006-.007-.006-.018v-.0455h-.01v-.0175h.01v-.0272h.0229v.0272h.0162v.0175h-.0162v.0441q0 .008.008.008h.008z"/><path d="m127.7195 136.03707h-.0328v.10372h-.0245v-.10372h-.0328v-.0219h.0901z"/><path d="m127.81333 136.14079h-.0229v-.0561q0-.008-.005-.0127-.004-.004-.0102-.004-.006 0-.01.004-.005.004-.005.0127v.0561h-.0229v-.12559h.0229v.0422q.009-.01.0221-.01.0146 0 .0229.01.008.009.008.024z"/><path d="m127.91352 136.10199h-.0575q0 .009.005.0148.005.006.0148.006.0122 0 .0208-.009l.0139.0136q-.008.008-.0148.0108-.008.004-.0201.004-.0425 0-.0425-.0471 0-.022.0111-.0347.0108-.0122.0289-.0122.0187 0 .0296.0125.0104.012.0104.0314zm-.0226-.0157q-.00018-.006-.002-.01-.004-.01-.0153-.01-.0111 0-.0153.01-.002.004-.002.01z"/><path d="m127.73026 136.36717h-.0245v-.0526h-.0425v.0526h-.0245v-.12559h.0245v.0513h.0425v-.0513h.0245z"/><path d="m127.83168 136.32113q0 .0132-.002.021-.002.009-.008.0148-.0108.0113-.0286.0113-.0176 0-.0284-.0113-.006-.006-.008-.0148-.002-.008-.002-.021 0-.0247.0106-.0358.0106-.0111.0282-.0111.0178 0 .0284.0111.0106.0111.0106.0358zm-.0229 0q0-.0169-.005-.0222-.004-.004-.0108-.004-.007 0-.0106.004-.005.005-.005.0222 0 .0171.005.0224.004.004.0106.004.007 0 .0108-.004.005-.005.005-.0224z"/><path d="m127.92746 136.32113q0 .0132-.002.021-.002.009-.008.0148-.0108.0113-.0286.0113-.0176 0-.0284-.0113-.006-.006-.008-.0148-.002-.008-.002-.021 0-.0247.0106-.0358.0106-.0111.0282-.0111.0178 0 .0284.0111.0106.0111.0106.0358zm-.0229 0q0-.0169-.005-.0222-.004-.004-.0108-.004-.007 0-.0106.004-.005.005-.005.0222 0 .0171.005.0224.004.004.0106.004.007 0 .0108-.004.005-.005.005-.0224z"/><path d="m128.01618 136.35571q-.012.0125-.0303.0125-.0168 0-.0273-.01-.0138-.0123-.0138-.0376 0-.0252.0138-.0374.0106-.01.0273-.01.0185 0 .0303.0123l-.0155.0155q-.007-.007-.0148-.007-.008 0-.0132.006-.005.006-.005.0201 0 .0141.005.0203.005.006.0132.006.008 0 .0148-.007z"/><path d="m128.10967 136.36717h-.0229v-.0561q0-.008-.005-.0127-.004-.004-.0102-.004-.006 0-.0101.004-.005.004-.005.0127v.0561h-.0229v-.12559h.0229v.0422q.009-.01.0221-.01.0146 0 .0229.01.008.009.008.024z"/></g><path d="m127.21045 134.60089v-.50984c0-.12154.0979-.21939.2194-.21939h1.79345c.12154 0 .21939.0979.21939.21939v.50984c-.56769 0-1.13538 0-1.70307 0z" opacity=".98"/></g><g fill="#fcfcfc" stroke="#000" stroke-linejoin="round" stroke-width=".132292"><path d="m125.1999 144.36348h3.77055c1.13673.20104 1.12124-.86192 1.10916-1.92113v-1.4768c-.011-.55745-.25149-.77778-.69701-.69702-.27045 1.2236-.692 1.08665-1.09717 1.09717h-.907v-1.06235h-.44749v-1.3285c-.7524-1.04678-1.39161-.49146-2.04478 0v5.44471z" opacity=".98"/><path d="m125.01774 156.38486.34594-.40373v-4.37573c.2908-1.04693.68764-2.03605 2.56232-2.2196.28245.00099.42807-.15136.44637-.44637v-1.17627l.66622-.66622c-.77364-.64351-.93462-1.26068-3.42615-1.97808v-1.57304h-.42792v-4.51207l.66619-.66618v-1.40746c-.76887.86146-1.06308 1.90917-1.22282 3.0882-.66518 5.30261-.78726 10.75023-.17033 16.331z" opacity=".98"/></g></g><g transform="translate(-10.703492 .356475)"><g fill="#fff" fill-opacity=".4" stroke-width=".41145"><path d="m230.53063 12.761968q0 .0395-.01.06649-.0142.04016-.0454.04016-.0207 0-.0435-.0095-.0273-.01152-.0299-.02831.009 0 .0217.0033.029.0076.0362.0076.028 0 .0421-.02798.0112-.02238.0112-.05365 0-.02205-.0145-.06287-.0142-.04115-.0142-.05727 0-.0049.003-.0079.003-.0033.008-.0033.0128 0 .025.05925.0102.05003.0102.07406z"/><path d="m230.65736 12.795542q0 .03357-.0194.05267-.0194.01909-.0536.01909-.0188 0-.029-.0089-.0102-.0089-.0102-.02732 0-.026.0339-.05234.0323-.02502.0596-.02502.0125 0 .0165.01547.002.0089.002.02633zm-.0201.0092q0-.004-.00099-.0076-.00065-.0039-.003-.0089-.005.0036-.0174.01777-.006.0072-.0109.01053 0-.0063.001-.0102.003-.0056.004-.0095-.0145 0-.0303.01218-.0155.01218-.0155.02633 0 .0095.0105.0095.0201 0 .0388-.0099.0227-.01185.0227-.03028z"/><path d="m230.79297 12.809038q0 .01613-.0122.03621-.0138.02271-.0286.02271-.004 0-.007-.0046-.003-.0049-.003-.0095 0-.0059.0125-.01843.0128-.01284.0128-.01744 0-.003-.00099-.0059-.00099-.003-.001-.0039-.0247.0056-.0504.02831-.0253.02271-.0385.02567-.003-.0072-.003-.01481 0-.0092.004-.01942.003-.0072.01-.01745.0115-.01745.0244-.0395.007-.01152.0227-.03983.0165-.02831.024-.04016.004-.0059.007-.0089.004-.0039.0102-.0053.004.0013.006.0049.002.0036.002.0086 0 .01119-.0145.03028-.0263.03423-.027.03555-.0148.02238-.0148.04049l.00066.0033q.0181-.0089.0214-.0102.0135-.0056.023-.0056.0105 0 .0155.0072.005.0069.005.01777z"/><path d="m230.94571 12.789617q0 .02238-.0109.04773-.0119.02798-.0293.03851-.004-.0043-.006-.0095-.002-.0053-.002-.01053 0-.0056.0165-.03325.007-.01218.007-.0214l-.00033-.0043q-.0122.0036-.0421.02205-.0296.0181-.0599.03687-.005 0-.009-.0033-.004-.0036-.004-.0079 0-.0069.0221-.04641.007-.01185.0237-.04115.005.0069.007.01547.002.0082.002.01975 0 .0049 0 .0076.0303-.0181.0474-.02732.0188-.0102.0257-.0102.005 0 .009.01053.004.01053.004.01679z"/><path d="m231.23174 12.853474q0 .0059-.005.0092-.005.003-.0112.003-.006 0-.0142-.0013-.0194-.003-.025-.003-.01 0-.0388.0023-.0165.0013-.0237.0013-.0201 0-.0201-.02008 0-.01909.0125-.05464.007-.02008.026-.06583.0171-.04115.0217-.05793.002-.0053.003-.0069.003-.0039.007-.0039.006 0 .0105.0092.004.0089.004.01613 0 .01152-.0135.03884-.0135.02699-.0263.053-.0142.03094-.0142.04707 0 .0082.007.01152.005.0023.0145.0023.007 0 .025-.0016.0178-.002.0237-.002.0148 0 .0244.0043.0135.0059.0135.01909z"/><path d="m231.35419 12.795542q0 .03357-.0194.05267-.0194.01909-.0537.01909-.0188 0-.029-.0089-.0102-.0089-.0102-.02732 0-.026.0339-.05234.0323-.02502.0596-.02502.0125 0 .0165.01547.002.0089.002.02633zm-.0201.0092q0-.004-.00098-.0076-.00066-.0039-.003-.0089-.005.0036-.0174.01777-.006.0072-.0109.01053 0-.0063.001-.0102.003-.0056.004-.0095-.0145 0-.0303.01218-.0155.01218-.0155.02633 0 .0095.0105.0095.0201 0 .0388-.0099.0227-.01185.0227-.03028z"/><path d="m231.49277 12.78863q0 .01053-.006.02238-.005.01185-.0135.01975l-.00033-.0046q0-.004.00099-.01218.00098-.0082.00098-.01218 0-.0056-.002-.0082-.002-.003-.007-.003-.0155 0-.0385.02403-.025.02633-.0497.05234-.002 0-.004-.000329-.005-.0013-.007-.0016.00098-.01185.008-.02633.0194-.03917.0201-.0418.003-.01053.004-.01547.001-.0049.004-.0102.003-.0056.006-.0099.004-.0046.009-.0069l.003.0395q.0142-.01152.0217-.01777.0145-.01152.025-.01152.0105 0 .0171.0069.007.0069.007.01712z"/><path d="m231.65439 12.750447q0 .01383-.0369.03654-.0356.02172-.0517.02172-.008 0-.0102-.0053-.002-.0053-.002-.01481 0-.0063 0-.0089.0221 0 .0402-.0066.0181-.0066.0316-.02172-.01-.0036-.0201-.0036-.024 0-.051.01843-.0296.02008-.0296.04279 0 .02172.0296.03028.005.0013.0556.0092.0299.0046.0299.01613 0 .0049-.0109.0079-.0109.0033-.0277.0033-.0421 0-.0665-.01284-.0323-.01712-.0323-.05497 0-.0395.0395-.06287.0336-.01975.0764-.01975.0128 0 .0234.0059.0128.0072.0128.01909z"/><path d="m231.78539 12.691527q0 .0072-.0174.03028-.0175.02304-.0175.03522 0 .0063.007.01251.0165.01448.0165.01777 0 .0043-.003.0082-.003.004-.007.004-.004 0-.0102-.004-.005-.0026-.0178-.01284-.005.0095-.008.01448-.009.01745-.0125.02534-.005.01514-.01.03028-.009.02041-.0214.02041l-.00033-.0076q0-.02337.0151-.0553.003-.0059.0165-.03061-.026-.01415-.0573-.01415 0-.01218.005-.01777.005-.0059.0174-.0059.0112 0 .028.0039.008.002.0164.0039.006-.002.0171-.0214.0267-.04674.0362-.05365.003.0043.004.0086.002.0043.002.0082z"/><path d="m231.90685 12.809038q0 .01613-.0122.03621-.0138.02271-.0286.02271-.004 0-.007-.0046-.003-.0049-.003-.0095 0-.0059.0125-.01843.0128-.01284.0128-.01744 0-.003-.00099-.0059-.00099-.003-.001-.0039-.0247.0056-.0504.02831-.0253.02271-.0385.02567-.003-.0072-.003-.01481 0-.0092.004-.01942.003-.0072.01-.01745.0115-.01745.0244-.0395.007-.01152.0227-.03983.0165-.02831.024-.04016.004-.0059.007-.0089.004-.0039.0102-.0053.004.0013.006.0049.002.0036.002.0086 0 .01119-.0145.03028-.0263.03423-.027.03555-.0148.02238-.0148.04049l.00066.0033q.0181-.0089.0214-.0102.0135-.0056.023-.0056.0105 0 .0155.0072.005.0069.005.01777z"/><path d="m232.17709 12.701731q0 .01547-.0164.04148-.0105.01646-.0346.0474-.024.03061-.0299.04016.00099.000329.0247.0079.024.0072.024.02633-.01.0016-.0194.003l-.004-.000329v-.0026q-.005-.0013-.009-.0013-.006 0-.0197.002-.0135.002-.0204.002-.009 0-.0145-.0033-.006-.0033-.006-.01185 0-.0069.0254-.03917.0474-.06024.0477-.0609.0257-.03489.0257-.04674 0-.0046-.003-.0069-.003-.0023-.0122-.0023-.006 0-.026.01218-.01.0059-.0155.0059l-.006-.000988q-.002-.0013-.004-.0049-.002-.0039-.002-.0063 0-.01382.0267-.02535.0227-.0099.0395-.0099.0142 0 .0217.01053.007.0092.007.02403z"/><path d="m232.37492 12.76098q0 .03983-.0431.07044-.0395.02798-.0813.02798-.0207 0-.0329-.01053-.0122-.01053-.0122-.03061 0-.04477.0392-.07768.0372-.03127.0833-.03127.0234 0 .0352.01383.0119.01383.0119.03785zm-.0201.0076q0-.01514-.0171-.02271-.0128-.0056-.0306-.0056-.026 0-.0543.02534-.0283.02535-.0283.05102 0 .01053.005.01514.006.0043.0168.0043.0322 0 .0671-.01778.0411-.02107.0411-.0497z"/><path d="m232.52567 12.701731q0 .01547-.0164.04148-.0105.01646-.0346.0474-.024.03061-.0299.04016.00099.000329.0247.0079.024.0072.024.02633-.01.0016-.0194.003l-.004-.000329v-.0026q-.005-.0013-.009-.0013-.006 0-.0197.002-.0135.002-.0204.002-.009 0-.0145-.0033-.006-.0033-.006-.01185 0-.0069.0254-.03917.0474-.06024.0477-.0609.0257-.03489.0257-.04674 0-.0046-.003-.0069-.003-.0023-.0122-.0023-.006 0-.026.01218-.01.0059-.0155.0059l-.006-.000988q-.002-.0013-.004-.0049-.002-.0039-.002-.0063 0-.01382.0267-.02535.0227-.0099.0395-.0099.0142 0 .0217.01053.007.0092.007.02403z"/><path d="m232.67709 12.701731q0 .01547-.0165.04148-.0105.01646-.0346.0474-.024.03061-.03.04016.00099.000329.0247.0079.024.0072.024.02633-.01.0016-.0194.003l-.004-.000329v-.0026q-.005-.0013-.009-.0013-.006 0-.0197.002-.0135.002-.0204.002-.009 0-.0145-.0033-.006-.0033-.006-.01185 0-.0069.0254-.03917.0474-.06024.0477-.0609.0257-.03489.0257-.04674 0-.0046-.003-.0069-.003-.0023-.0122-.0023-.006 0-.026.01218-.01.0059-.0155.0059l-.006-.000988q-.002-.0013-.004-.0049-.002-.0039-.002-.0063 0-.01382.0267-.02535.0227-.0099.0395-.0099.0142 0 .0217.01053.007.0092.007.02403z"/></g><g fill="#ffff75" stroke="#a44f32" stroke-width=".661458" transform="scale(.81891417 1.2211292)"><path d="m286.24654 10.879029h-7.02721c.38506.83428.48132 1.187245.48132 1.828999 0 .320877-.0321.673842-.0642.994719l-.73801 5.037769h-1.37977c-.77011 0-.99472-.192527-.99472-.834281 0-.12835.0321-.288789.0321-.481315l1.2835-9.0487314c.0642-.641754.12835-.9947187.16044-1.1551572.0642-.2246139.2567-.4813155.48132-.641754.32087-.2246139.67384-.320877 1.05889-.320877h4.20349c.83428 0 1.86109.064175 2.18196.1604385.19253.096263.48132.2246139.86637.4171401l.80219-5.7436983h-11.13443c-.86637 0-1.37977.032088-1.57229.032088-.57758.064175-1.09099.320877-1.54021.7701048-.73802.6738417-1.09099 1.604385-1.3156 3.0162438l-2.0857 14.8566047c-.0963.738017-.16044 1.411859-.16044 1.95735 0 1.732736.83428 2.50284 2.72746 2.50284h9.01664c.89845 0 1.95735-.577578 2.50284-1.411858.60967-.866368.70593-1.219333.99472-3.401297z"/><path d="m298.95191 24.227512.73802-5.198207h-6.12875l.5134-3.690086h6.16084l.70593-5.230295h-6.12875l.54549-3.914699h6.19292l.67385-5.1019443h-8.34281c-1.829 0-2.47075.1925262-3.24085 1.1551572-.8022.8663679-1.3156 2.2140513-1.54021 3.7542609l-1.89318 13.4768342c-.0642.385052-.0963.802192-.0963 1.187245 0 2.406577 1.18724 3.561734 3.59382 3.561734z"/><path d="m301.19671 24.227512h6.2571l2.27823-15.9475865c.12835-1.1872449.64175-1.7648235 1.47603-1.7648235.64176 0 1.0589.4171401 1.0589.9947187 0 .1604385-.0321.4171401-.0963.7059294l-2.24614 16.0117619h6.28919l2.69537-19.1884442c.0642-.641754.16044-1.3476834.16044-1.6685604 0-1.3797711-.99472-2.2782267-2.50284-2.2782267h-2.56702c-.86637 0-1.66856.2887893-2.27823.8021925-.57757.5134032-.89845.962631-1.47603 2.1819636.0642-.7701048.0963-1.1551572.0963-1.5402096 0-.4492278-.0321-.7380171-.16043-1.4439465h-6.44963c.19252 1.283508.2567 1.7969112.2567 2.5028406 0 .4492278-.0321.9947187-.12835 1.6685604z"/><path d="m318.39437 24.227512h6.22502l3.27294-23.1352313h-6.28919z"/><path d="m345.0579 1.0922807h-6.22501l-2.3424 16.3968143c-.16044 1.251421-.19253 1.347684-.67385 1.636473-.2567.128351-.5134.224614-.80219.224614-.70593 0-1.15516-.352965-1.15516-.930543 0-.128351.0321-.41714.12835-.770105l2.31032-16.5572533h-6.28919l-2.79163 20.1510753c-.0642.449228-.12835.930544-.12835 1.219333 0 1.315596.57758 1.764823 2.31031 1.764823h9.81884c2.11779 0 2.69537-.577578 3.04833-2.984156z"/><path d="m343.6447 24.227512h8.82411c1.37978 0 2.05362-.256701 2.79163-.930543.8022-.770105.89846-1.090982 1.18725-3.016244l1.09098-7.701048c.0642-.320877.0642-.673841.0642-.994718 0-1.347684-.8022-2.0215255-2.43867-2.0215255h-3.20877l.5134-3.3692085h6.0004l.70593-5.1019443h-7.89357c-1.86109 0-2.21405.096263-3.14459.641754-1.15516.8021925-1.50813 1.5081219-1.86109 4.1393133l-.73802 5.069857c-.0642.545491-.0963 1.123069-.0963 1.636472 0 1.989438.7701 2.823718 2.56701 2.823718h2.82372l-.48131 3.561735h-5.93623z"/><path d="m107.84331 23.619375.7701-5.519084h-2.37449c-.60966 0-.96263-.320877-.96263-.930543 0-.06418 0-.128351.0321-.224614l1.34768-9.7546611c.0963-.7701048.54549-1.1551572 1.3156-1.1551572h2.37449l.7701-5.55117209h-5.93622c-1.76483 0-2.02153.0962631-2.82372.83428019-.89846.8342802-1.5723 2.1498759-1.73274 3.4975593l-2.053619 14.5036399c-.03209.256702-.06418.513404-.06418.802193 0 1.058894.320877 2.0857.83428 2.663279.545491.705929 1.026809.83428 2.599109.83428z"/><path d="m115.38254 23.619375h1.60438c3.46547 0 4.4281-.288789 6.03249-1.700648.80219-.738017 1.37977-1.572297 1.76482-2.470753.41714-.994718.80219-2.534928 1.0589-4.363927l.83428-5.872049c.38505-2.6953668.44922-3.1445946.44922-3.8184363 0-1.7327358-.5134-3.2408577-1.37977-3.9467871-.73801-.60966629-2.11778-.96263099-3.97887-.96263099h-3.04833c-3.04833 0-5.00568.89845559-5.90414 2.75954219-.64175 1.3155957-1.05889 3.0162438-1.47603 5.9683122l-.83428 5.872049c-.12835 1.090982-.25671 2.181964-.25671 2.887893 0 3.561735 1.92527 5.647435 5.13404 5.647435zm3.62591-5.968312c-.19253.513403-.73802.930543-1.28351.930543-.64176 0-1.0589-.41714-1.0589-.994718 0-.224614.0321-.545491.12836-.994719l1.37977-9.947187c.16043-1.1872449.54549-1.604385 1.47603-1.604385.67384 0 1.02681.2887893 1.02681.962631 0 .1925262-.0321.4171401-.0642.641754l-1.41186 9.947187c-.0642.481315-.12835.802192-.19252 1.058894z"/><path d="m126.8044 23.619375h6.2571l2.31031-16.2042882c.12835-1.0909818.60967-1.6685604 1.44395-1.6685604.80219 0 1.15516.3850524 1.15516 1.2193326 0 .1283508-.0321.320877-.0321.4492278l-2.31032 16.2042882h6.25711l2.27822-16.3005513c.16044-.9947187.70593-1.6364727 1.50812-1.6364727.67385 0 1.0589.3850524 1.0589 1.0588941 0 .1604385-.0321.320877-.0321.5134032l-2.37449 16.3647267h6.22501l2.72746-19.2526197c.0963-.6738417.12835-1.2193326.12835-1.7006481 0-1.4118588-.80219-2.21405129-2.21405-2.21405129l-2.98416.0320877c-.86637.0320877-1.66856.3850524-2.11779.93054329-.2567.2887893-.48131.6738417-.73801 1.1551572-.0963.2246139-.28879.5454909-.48132.962631 0-1.4439465-.0642-1.7969112-.38505-2.2782267-.22462-.41714009-.93054-.77010479-1.60439-.77010479h-3.75426c-1.12307 0-1.79691.54549089-2.82371 2.40657749l-.60967 1.0588941c.12835-.8663679.16044-1.2514203.16044-1.7327358 0-.5454909-.0321-.8984556-.16044-1.73273579h-6.35337c.19253 1.34768339.25671 1.79691119.25671 2.50284059 0 .4492278-.0642 1.0268064-.12835 1.7006481z"/><path d="m152.76197 23.619375h6.2571l2.31031-16.2042882c.12835-1.0909818.60967-1.6685604 1.44395-1.6685604.80219 0 1.15516.3850524 1.15516 1.2193326 0 .1283508-.0321.320877-.0321.4492278l-2.31032 16.2042882h6.25711l2.27822-16.3005513c.16044-.9947187.70593-1.6364727 1.50812-1.6364727.67385 0 1.0589.3850524 1.0589 1.0588941 0 .1604385-.0321.320877-.0321.5134032l-2.37449 16.3647267h6.22502l2.72745-19.2526197c.0963-.6738417.12835-1.2193326.12835-1.7006481 0-1.4118588-.80219-2.21405129-2.21405-2.21405129l-2.98416.0320877c-.86636.0320877-1.66856.3850524-2.11779.93054329-.2567.2887893-.48131.6738417-.73801 1.1551572-.0963.2246139-.28879.5454909-.48132.962631 0-1.4439465-.0642-1.7969112-.38505-2.2782267-.22461-.41714009-.93054-.77010479-1.60439-.77010479h-3.75426c-1.12307 0-1.79691.54549089-2.82371 2.40657749l-.60967 1.0588941c.12835-.8663679.16044-1.2514203.16044-1.7327358 0-.5454909-.0321-.8984556-.16044-1.73273579h-6.35336c.19252 1.34768339.2567 1.79691119.2567 2.50284059 0 .4492278-.0642 1.0268064-.12835 1.7006481z"/><path d="m178.71953 23.619375h6.19293l.73802-5.069856h2.47075l-.70593 5.069856h6.22501l2.79163-19.7660229c.0321-.3850524.0642-.7701048.0642-1.1230695 0-1.3797711-.93055-2.24613899-2.43867-2.24613899h-9.27334c-.83428 0-1.60439.2887893-2.18197.80219249-.67384.5775786-.93054 1.2193326-1.12307 2.567016zm8.56742-16.6856037c.12835-1.0268064.60966-1.5722973 1.37977-1.5722973.80219 0 1.12307.320877 1.12307 1.1872449 0 .1283508-.0321.2567016-.0321.3850524l-.96263 6.7063297h-2.43866z"/><path d="m195.82093 23.619375h6.2571l2.27823-15.9475866c.12835-1.1872449.64175-1.7648235 1.47603-1.7648235.64175 0 1.05889.4171401 1.05889.9947187 0 .1604385-.0321.4171401-.0963.7059294l-2.24614 16.011762h6.28919l2.69537-19.1884443c.0642-.641754.16044-1.3476834.16044-1.6685604 0-1.3797711-.99472-2.27822669-2.50284-2.27822669h-2.56702c-.86637 0-1.66856.2887893-2.27823.80219249-.57758.5134032-.89845.962631-1.47603 2.1819636.0642-.7701048.0963-1.1551572.0963-1.5402096 0-.4492278-.0321-.7380171-.16044-1.44394649h-6.44962c.19252 1.28350799.2567 1.79691119.2567 2.50284059 0 .4492278-.0321.9947187-.12835 1.6685604z"/><path d="m213.01859 23.619375h11.45531c2.24614 0 3.658-1.604385 4.07514-4.524365l1.98943-14.054413c.0642-.5454909.0963-1.0588941.0963-1.5081219 0-1.8610866-1.12307-3.04833149-2.95207-3.04833149h-11.45531zm8.75994-18.0332871h1.09098c.70593 0 1.09099.4492278 1.09099 1.283508 0 .1604385 0 .320877-.0321.4813155l-1.28351 9.1770826c-.19253 1.476034-.54549 1.893174-1.54021 1.893174h-1.12307z"/><path d="m242.47377 23.619375.73802-5.198207h-6.12875l.5134-3.690086h6.16084l.70593-5.2302947h-6.12875l.54549-3.9146994h6.19292l.67385-5.10194429h-8.34281c-1.829 0-2.47075.1925262-3.24085 1.15515719-.8022.8663679-1.3156 2.2140513-1.54021 3.7542609l-1.89318 13.4768343c-.0642.385052-.0963.802192-.0963 1.187245 0 2.406577 1.18724 3.561734 3.59382 3.561734z"/><path d="m244.71856 23.619375h6.22502l1.21933-8.663679h.93054c.89846 0 1.25142.28879 1.25142 1.155157v.256702l-.67384 4.813155c-.0321.256702-.0321.481316-.0321.738017 0 .802193.0321 1.090982.32088 1.700648h6.67424c-.41714-.866368-.5134-1.219332-.5134-1.732736 0-.256701.0321-.54549.0963-.962631l.70593-5.005681c.0321-.385052.0642-.770105.0642-1.123069 0-1.700648-.93055-2.567016-3.24086-2.919981 1.50812-.256702 2.14988-.481315 2.72745-.994719.77011-.673841 1.3156-1.7969108 1.47604-3.2087696l.48131-3.3050331c.0321-.1925262.0321-.4492278.0321-.6738417 0-.962631-.2567-1.7327358-.7701-2.2782267-.67384-.73801709-1.34769-.93054329-3.20877-.93054329h-10.55686zm8.82412-18.1295502h.60967c1.05889 0 1.50812.320877 1.50812 1.0909818 0 .5454909-.16044 1.6364727-.38505 2.2140513-.19253.641754-.67384.8663679-1.60439.8663679h-.70593z"/></g></g></svg>