<svg height="165.66656" viewBox="0 0 567.03829 149.09991" width="630.04254" xmlns="http://www.w3.org/2000/svg"><g transform="translate(-118.29013 -42.000465)"><rect fill="#fff" height="61.670349" rx="16.877701" ry="17.12289" stroke="#fff" stroke-width="4.5" width="153.56087" x="264.52734" y="86.048996"/><g stroke-width="5"><rect fill="none" height="144.09991" rx="12.289656" ry="9.780565" stroke="#fff" width="562.03827" x="120.79013" y="44.500465"/><rect fill="none" height="122.40707" rx="12.289701" ry="9.78057" stroke="#fff" width="539.37744" x="131.13757" y="55.62479"/><g fill="#fff"><path d="m162.28068 67.949196c32.41851-3.248044 63.10136-3.239847 92.06163 0 11.62364 1.300361 21.11411 9.34823 21.11411 20.960157v56.204307c0 11.61192-9.52269 19.40191-21.11411 20.96015-29.28718 3.9371-59.92228 4.08364-92.06163 0-11.60256-1.47423-21.11411-9.34823-21.11411-20.96015v-56.204307c0-11.611927 9.47602-19.794125 21.11411-20.960157z"/><path d="m296.12672 67.949196c32.18212-3.248044 62.64123-3.239847 91.39033 0 11.53888 1.300361 20.96015 9.34823 20.96015 20.960157v56.204307c0 11.61192-9.45326 19.40191-20.96015 20.96015-29.07362 3.9371-59.48534 4.08364-91.39033 0-11.51796-1.47423-20.96016-9.34823-20.96016-20.96015v-56.204307c0-11.611927 9.40693-19.794125 20.96016-20.960157z"/><path d="m429.65983 67.949196c32.51446-3.248044 63.28812-3.239847 92.33412 0 11.65804 1.300361 21.1766 9.34823 21.1766 20.960157v56.204307c0 11.61192-9.55088 19.40191-21.1766 20.96015-29.37387 3.9371-60.09965 4.08364-92.33412 0-11.63691-1.47423-21.17662-9.34823-21.17662-20.96015v-56.204307c0-11.611927 9.50408-19.794125 21.17662-20.960157z"/></g></g><path d="m185.74455 114.46492v-1.57649c-.38451-8.26699-4.49878-8.30544-11.68913-8.30544-8.4977 0-12.07365 2.07636-12.07365 11.30463v6.61358c.11536 8.4208 1.92256 11.76604 12.07365 11.38153 7.1519-.30761 12.11209 0 11.99674-8.68995v-1.8841h-5.53696v1.57649c0 4.11427-1.99945 4.26807-6.45978 4.26807-5.80612 0-6.49824-1.11508-6.53669-6.88274v-6.38288c0-5.65232.96128-6.57514 6.53669-6.57514 4.84484 0 6.15217.2307 6.15217 3.57595v1.57649z" transform="scale(1.0211787 .97926056)"/><path d="m197.09383 104.8137h-5.53695v28.83832h5.53695z" transform="scale(1.0211787 .97926054)"/><path d="m226.05804 128.92254h-.1538l-12.34281-24.10884h-9.15136v28.83832h5.53696l-.46141-24.10884h.19225l12.2659 24.10884h9.18982v-28.83832h-5.53696z" transform="scale(1.0211787 .97926054)"/><path d="m243.41368 109.54318h14.22691v-4.72948h-19.76386v28.83832h19.87921v-4.72948h-14.34226v-7.65177h13.49634v-4.53723h-13.49634z" transform="scale(1.0211787 .97926054)"/><path d="m292.16258 109.23652h.19205l-.46093 24.27569h5.53117v-28.80818h-9.06497l-7.68218 21.39487h-.15365l-7.83582-21.39487h-8.87292v28.80818h5.53117l-.46093-24.16046h.11523l9.1418 24.16046h4.955z" transform="scale(1.0201103 .98028614)"/><path d="m554.09358 106.27122v29.4175h-3.30376v-29.4175z" fill="#fffffb" transform="scale(1.0308393 .97008332)"/><path d="m320.59122 128.19197 1.88411 5.46005h5.61386l-9.76658-28.83832h-8.15163l-9.57433 28.83832h5.72922l1.8072-5.46005zm-1.23043-4.19117h-9.95884l4.92174-14.95748h.0769z" transform="scale(1.0211787 .97926054)"/><path d="m340.3072 109.54318h8.45924v-4.72948h-22.45544v4.72948h8.45924v24.10884h5.53696z" transform="scale(1.0211787 .97926054)"/><path d="m366.19035 124.11615c2.65312.0384 3.65285 1.7303 3.65285 4.15272v5.38315h5.53696v-5.38315c0-4.07582-.96128-6.19063-4.88329-6.53669v-.1538c4.88329-.73057 5.114-3.84511 5.114-8.11318 0-6.53669-2.42242-8.4977-8.7284-8.6515h-14.72677v28.83832h5.53696v-9.53587zm-8.49769-4.72948v-9.84349h7.69022c3.96046 0 4.69103.73057 4.69103 4.80639 0 4.22962-.99973 5.0371-5.07555 5.0371z" transform="scale(1.0211787 .97926054)"/><path d="m393.64525 103.60294c-9.36668 0-12.47579 1.61359-12.47579 10.78349v7.94987c0 9.68153 3.34524 11.25576 12.47579 11.25576 8.93376 0 12.59385-1.81037 12.59385-11.25576v-7.94987c0-9.48475-4.093-10.78349-12.59385-10.78349zm0 4.84076c5.03754 0 7.04469.39356 6.92662 5.94273v7.94987c0 5.70659-1.77101 6.415-6.92662 6.415-5.66724 0-6.80856-.55098-6.80856-6.415v-7.94987c.11807-4.68334.70841-5.94273 6.80856-5.94273z" transform="scale(1.0189617 .98139117)"/><g transform="scale(1.0211787 .97926054)"><path d="m432.5793 128.92254h-.15381l-12.3428-24.10884h-9.15136v28.83832h5.53696l-.46142-24.10884h.19226l12.2659 24.10884h9.18981v-28.83832h-5.53696z"/><path d="m449.82156 105.01768h-5.53696v28.83832h5.53696z"/><path d="m479.48241 114.46492v-1.57649c-.38451-8.26699-4.49878-8.30544-11.68914-8.30544-8.49769 0-12.07364 2.07636-12.07364 11.30463v6.61358c.11535 8.4208 1.92255 11.76604 12.07364 11.38153 7.15191-.30761 12.1121 0 11.99674-8.68995v-1.8841h-5.53695v1.57649c0 4.11427-1.99946 4.26807-6.45979 4.26807-5.80611 0-6.49823-1.11508-6.53668-6.88274v-6.38288c0-5.65232.96127-6.57514 6.53668-6.57514 4.84484 0 6.15218.2307 6.15218 3.57595v1.57649z"/><path d="m483.05401 124.46221v1.34579c0 8.26699 5.69076 8.07473 12.07365 8.07473 7.42106 0 11.26617-.69212 11.26617-8.8053 0-7.34416-2.42242-7.80558-11.30462-8.34389-5.61386-.34606-6.34444-.46141-6.34444-3.99891 0-3.07609.88438-3.61441 6.38289-3.61441 3.88356 0 5.15244.11536 5.15244 3.22989v.92283h5.53696v-.92283c0-7.57486-4.80638-7.76712-10.6894-7.76712-6.9212 0-11.91984.23071-11.91984 8.15164 0 8.38233 4.92174 8.15163 11.15082 8.53614 4.30652.23071 6.49823-.30761 6.49823 3.80666 0 3.34524-.69212 4.26807-5.72921 4.26807-5.114 0-6.53669-.23071-6.53669-3.5375v-1.34579z"/></g><path d="m595.84462 103.99465v28.7873h-5.26219l-16.15345-26.0129v26.0129h-3.14127v-28.7873h5.21634l16.19931 26.29951v-26.29951z" fill="#fffffb" transform="scale(1.0087563 .99131969)"/><path d="m632.80221 120.07247h3.21809q0 .45146.0695 1.35438.0695.90292.0695 1.35438 0 6.55194-6.44776 7.15389-2.33833.13891-4.64193.13891h-4.07471q-3.09076-.23152-4.80399-1.52802-1.70165-1.30807-2.37305-3.33385-.6714-2.03735-.77559-4.88502-.10418-2.84767-.16206-4.8966v-4.6072q0-2.90554.6251-4.93132.63667-2.03735 2.26887-3.27597 1.64378-1.2502 4.54932-1.55117 1.80584-.2431 5.64903-.2431 3.06761 0 4.82714.34728 1.77111.34728 2.78979 1.28492 1.01868.93765 1.49329 2.70876.47461 1.75953.65982 4.86187h-3.22967q0-2.48882-.3357-3.77374-.32412-1.2965-1.43541-1.93317-1.09971-.64825-3.39173-.64825-2.73191 0-6.12364.23152-2.08366.17364-3.14864.9608-1.0534.77558-1.40068 2.14153-.3357 1.35438-.3357 3.68113v6.69086q0 5.93843 1.14601 8.01051 1.03025 1.85214 5.77636 1.85214.34728 0 1.26178.0463.91449.0463 1.44698.0463 2.96343 0 4.8966-.81031 1.93317-.82189 2.02578-3.1718 0-.56721-.0463-1.66692-.0463-1.09971-.0463-1.60905z" fill="#fffffb" transform="scale(.98820785 1.0119329)"/><path d="m644.91498 125.72793v3.98211h-3.46119v-3.98211z" fill="#fffffb" transform="scale(.98820782 1.0119329)"/><text fill="#ef00eb" font-family="TrasksHand" font-size="1.8" stroke="#0105ff" stroke-width="2.25" x="346.22379" y="185.86217"><tspan fill="#fafafa" fill-opacity=".4" font-size="1.8" stroke="none" stroke-width="2.25" x="346.22379" y="185.86217">John Loreth 2022</tspan></text></g></svg>