<svg enable-background="new 0.462 0 601.857 123.585" height="123.585" viewBox=".462 0 601.857 123.585" width="601.857" xmlns="http://www.w3.org/2000/svg"><path d="m478.667 123.585h49.414l74.239-123.585h-49.396l-74.262 123.585" fill="#498cc1"/><g fill="#fff"><path d="m193.596 33.716v67.343h40.405c12.569-2.062 19.758-9.104 22.492-20.201.024-8.988.004-17.952 0-26.938-2.734-11.101-9.923-18.141-22.492-20.202h-40.405zm15.803 13.514h17.914c5.626.998 10.965 2.762 13.513 11.224l-.044 17.958c-2.572 8.449-7.888 10.225-13.515 11.224h-17.912z"/><path d="m20.684 101.073v-51.613h-20.215l-.007-15.709h62.896l-6.742 15.709-15.722.007v51.604h-20.21"/><path d="m70.091 33.761-24.693 67.298h20.248l7.812-24.647 7.857 11.225h13.468l4.489 13.423h20.384l-24.872-67.298zm12.256 17.914 7.946 20.246h-15.714z"/><path d="m121.704 101.073v-67.322h24.745l24.703 49.392v-49.392h15.723l-.014 67.322h-24.698l-24.705-49.35-.007 49.35z"/><path d="m274.435 69.695-26.931-35.944h20.197l14.647 22.409 14.575-22.409h22.417l-27.014 35.833.05 31.489h-17.925z"/></g><path d="m413.802 123.585h49.414l74.231-123.585h-49.405l-74.244 123.585" fill="#197123"/><path d="m348.924 123.585h49.414l74.232-123.585h-49.397l-74.26 123.585" fill="#ae1f19"/></svg>