<?xml version="1.0" encoding="utf-8"?>
<!-- Generator: Adobe Illustrator 16.0.0, SVG Export Plug-In . SVG Version: 6.00 Build 0)  -->
<!DOCTYPE svg PUBLIC "-//W3C//DTD SVG 1.1//EN" "http://www.w3.org/Graphics/SVG/1.1/DTD/svg11.dtd">
<svg version="1.1" id="Layer_1" xmlns="http://www.w3.org/2000/svg" xmlns:xlink="http://www.w3.org/1999/xlink" x="0px" y="0px"
	 width="601.857px" height="123.585px" viewBox="0.462 0 601.857 123.585" enable-background="new 0.462 0 601.857 123.585"
	 xml:space="preserve">
<path fill="#498CC1" d="M478.667,123.585h49.414L602.32,0h-49.396l-74.262,123.585"/>
<g>
	<path fill="#FFFFFF" d="M193.596,33.716v67.343h40.405c12.569-2.062,19.758-9.104,22.492-20.201c0.024-8.988,0.004-17.952,0-26.938
		c-2.734-11.101-9.923-18.141-22.492-20.202h-40.405V33.716z M209.399,47.23h17.914c5.626,0.998,10.965,2.762,13.513,11.224
		l-0.044,17.958c-2.572,8.449-7.888,10.225-13.515,11.224h-17.912L209.399,47.23L209.399,47.23z"/>
	<path fill="#FFFFFF" d="M20.684,101.073V49.46H0.469L0.462,33.751h62.896L56.616,49.46l-15.722,0.007v51.604H20.684"/>
	<path fill="#FFFFFF" d="M70.091,33.761l-24.693,67.298h20.248l7.812-24.647l7.857,11.225h13.468l4.489,13.423h20.384L94.784,33.762
		L70.091,33.761L70.091,33.761z M82.347,51.675l7.946,20.246H74.579L82.347,51.675L82.347,51.675z"/>
	<path fill="#FFFFFF" d="M121.704,101.073V33.751h24.745l24.703,49.392V33.751h15.723l-0.014,67.322h-24.698l-24.705-49.35
		l-0.007,49.35H121.704"/>
	<path fill="#FFFFFF" d="M274.435,69.695l-26.931-35.944h20.197l14.647,22.409l14.575-22.409h22.417l-27.014,35.833l0.05,31.489
		h-17.925L274.435,69.695"/>
</g>
<path fill="#197123" d="M413.802,123.585h49.414L537.447,0h-49.405l-74.244,123.585"/>
<path fill="#AE1F19" d="M348.924,123.585h49.414L472.57,0h-49.397l-74.26,123.585"/>
</svg>
