<?xml version="1.0" encoding="utf-8"?>
<!-- Generator: Adobe Illustrator 16.0.0, SVG Export Plug-In . SVG Version: 6.00 Build 0)  -->
<!DOCTYPE svg PUBLIC "-//W3C//DTD SVG 1.1//EN" "http://www.w3.org/Graphics/SVG/1.1/DTD/svg11.dtd">
<svg version="1.1" id="Layer_1" xmlns="http://www.w3.org/2000/svg" xmlns:xlink="http://www.w3.org/1999/xlink" x="0px" y="0px"
	 width="886.51px" height="165.571px" viewBox="0 0 886.51 165.571" enable-background="new 0 0 886.51 165.571"
	 xml:space="preserve">
<g>
	<g>
		<g>
			<rect x="412.398" width="474.112" height="165.539"/>
			<rect y="0.031" fill="#FFFFFF" width="412.259" height="165.54"/>
			<g>
				<polygon points="414.663,156.706 8.625,156.706 8.625,7.831 414.663,7.831 414.663,14.328 15.123,14.328 15.123,150.209 
					414.663,150.209 				"/>
			</g>
			<path d="M35.485,73.993l-4.168-12.58l23.742-16.826l6.845,20.649l11.951-3.959l5.209,15.724l-11.952,3.961l5.11,15.408
				c1.528,4.613,4.667,6.368,8.129,5.218c2.409-0.797,4.193-1.739,5.87-2.991l5.212,15.724c-5.209,3.587-10.699,6.686-17.199,8.842
				c-13.627,4.515-22.489-0.11-27.282-14.576l-6.255-18.87l-9.332,3.091l-5.211-15.724L35.485,73.993"/>
			<path d="M93.099,34.969l27.729,2.386l-2.786,32.347l0.222,0.021c3.038-4.394,10.082-7.668,17.893-6.996
				c14.743,1.268,19.471,9.433,18.515,20.547l-3.426,39.831l-27.729-2.387l2.842-33.009c0.283-3.301,0.672-7.813-4.17-8.229
				c-4.95-0.425-5.339,4.086-5.623,7.388l-2.841,33.005l-27.726-2.382L93.099,34.969"/>
			<path d="M194.366,91.318c-0.408-4.396-1.71-11.266-7.977-10.683c-6.377,0.59-7.175,7.541-6.428,12.018L194.366,91.318
				 M181.193,104.739c1.102,7.108,7.961,8.136,16.1,7.379c7.586-0.702,14.284-2.652,18.468-5.368l1.373,14.844
				c-7.151,2.992-15.858,4.796-25.534,5.694c-23.202,2.149-36.558-7.926-38.392-27.721c-1.784-19.242,9.636-30.061,32.841-32.21
				c22.212-2.059,31.302,11.074,33.097,30.427l0.313,3.409L181.193,104.739z"/>
			<path d="M212.701,74.498l25.405-6.739l2.548,9.608l0.216-0.055c1.133-8.644,7.678-13.693,16.112-15.929
				c7.473-1.985,16.028-1.169,19.921,4.884l0.212-0.056c0.116-6.886,8.688-12.474,15.306-14.23
				c19.643-5.209,23.013,7.492,25.901,18.381l8.834,33.305l-26.901,7.135l-8.493-32.023c-0.851-3.204-2.011-7.58-6.816-6.304
				c-4.695,1.246-3.534,5.622-2.686,8.823l8.496,32.026l-26.903,7.134l-8.493-32.026c-0.85-3.201-2.01-7.577-6.707-6.332
				c-4.804,1.273-3.644,5.649-2.793,8.854l8.493,32.023l-26.898,7.137L212.701,74.498"/>
			<path d="M361.792,73.039c0.425-4.398,0.434-11.384-5.831-11.989c-6.376-0.617-8.461,6.06-8.567,10.598L361.792,73.039
				 M346.336,83.749c-0.248,7.188,6.295,9.482,14.432,10.268c7.583,0.732,14.525,0.071,19.144-1.813l-1.432,14.838
				c-7.587,1.598-16.475,1.736-26.148,0.803c-23.19-2.239-34.418-14.638-32.511-34.421c1.857-19.235,15.1-27.719,38.292-25.481
				c22.203,2.144,28.671,16.743,26.801,36.089l-0.328,3.407L346.336,83.749z"/>
			<g>
				<polygon fill="#FFFFFF" points="880.253,156.799 412.499,156.799 412.499,150.301 873.756,150.301 873.756,14.421 
					412.499,14.421 412.499,7.924 880.253,7.924 				"/>
			</g>
			<path fill="#FFFFFF" d="M486.024,49.736c1.364,0.098,2.826,0.293,4.288,0.293c1.364,0,2.728-0.195,4.288-0.293v66.653
				c-1.56-0.098-2.924-0.293-4.288-0.293c-1.462,0-2.924,0.195-4.288,0.293V82.867c-6.918-0.194-13.64-0.487-20.463-0.487
				c-6.817,0-13.542,0.293-20.559,0.487v33.523c-1.56-0.098-2.924-0.293-4.288-0.293c-1.462,0-2.923,0.195-4.287,0.293V49.736
				c1.364,0.098,2.824,0.293,4.287,0.293c1.364,0,2.728-0.195,4.288-0.293v27.969c7.016,0.194,13.836,0.484,20.559,0.484
				c6.823,0,13.545-0.29,20.463-0.484V49.736"/>
			<path fill="#FFFFFF" d="M562.897,60.943c-4.871-6.138-12.472-9.452-20.27-9.452c-17.147,0-27.477,12.96-27.477,32.74
				c0,19.783,12.08,30.111,26.6,30.111c20.561,0,27.97-21.243,27.286-31.962C569.037,74.293,567.964,67.473,562.897,60.943
				 M505.599,83.062c0-21.339,15.887-34.786,36.053-34.786c18.321,0,36.936,9.939,36.936,33.324
				c0,21.73-15.396,35.959-37.129,35.959C519.926,117.559,505.599,103.916,505.599,83.062z"/>
			<path fill="#FFFFFF" d="M587.923,103.233c3.798,6.236,8.184,10.135,15.786,10.135c7.893,0,13.545-6.529,13.545-14.229
				c0-18.125-30.501-10.134-30.501-32.154c0-12.572,9.94-18.71,21.634-18.71c4.677,0,10.33,1.46,13.934,4.677
				c-1.168,2.534-1.851,5.262-2.63,7.99h-0.975c-2.047-5.261-6.336-8.477-12.083-8.477c-6.725,0-12.279,4.481-12.279,11.401
				c0,17.927,30.695,10.719,30.695,31.472c0,13.936-10.817,22.219-24.068,22.219c-4.775,0-12.57-2.047-15.884-5.652
				c0.972-2.826,1.459-5.75,1.851-8.673H587.923"/>
			<path fill="#FFFFFF" d="M643.761,81.99c2.434,0.291,6.333,0.291,9.646,0c9.744-0.975,15.396-7.111,15.396-15.784
				c0-6.627-3.313-11.889-11.013-12.571c-4.19-0.391-11.108-0.292-14.03-0.098V81.99 M643.761,116.39
				c-1.557-0.098-2.921-0.293-4.285-0.293c-1.462,0-2.924,0.195-4.288,0.293V49.736h17.438c18.906,0,25.144,4.19,25.144,15.982
				c0,11.792-7.114,17.148-20.855,19.876c-4.383,0.877-10.719,0.195-13.153,0.195V116.39z"/>
			<path fill="#FFFFFF" d="M688.97,49.736c1.364,0.098,2.826,0.293,4.289,0.293c1.363,0,2.728-0.195,4.285-0.293v66.653
				c-1.558-0.098-2.922-0.293-4.285-0.293c-1.463,0-2.925,0.195-4.289,0.293V49.736"/>
			<path fill="#FFFFFF" d="M736.704,116.584c-1.558-0.098-2.922-0.292-4.286-0.292c-1.462,0-2.924,0.195-4.288,0.292v-62.17
				c-9.842,0-15.785,0.585-21.34,1.169c0.095-0.975,0.291-1.948,0.291-2.923s-0.196-1.852-0.291-2.924h50.279
				c-0.099,1.073-0.292,1.95-0.292,2.924s0.193,1.948,0.292,2.923c-4.871-0.584-11.694-1.169-20.365-1.169V116.584"/>
			<path fill="#FFFFFF" d="M780.551,61.041L769.93,85.984h21.438L780.551,61.041 M813.291,116.39
				c-1.852-0.098-3.411-0.293-5.066-0.293c-1.852,0-3.507,0.195-5.165,0.293c-2.826-8.089-6.333-17.444-10.231-26.312h-24.749
				c-3.411,8.575-6.918,17.151-9.649,26.312c-1.363-0.098-2.437-0.293-3.604-0.293c-1.266,0-2.339,0.195-3.411,0.293l30.403-68.114
				h2.244L813.291,116.39z"/>
			<path fill="#FFFFFF" d="M830.153,111.518c5.946,0.194,11.791-0.196,17.64-0.391c3.117-0.097,6.137-0.487,9.257-0.876
				c-0.098,1.071-0.294,1.948-0.294,2.923c0,0.975,0.196,1.949,0.294,2.924h-35.471v-66.36c1.364,0.098,2.823,0.293,4.285,0.293
				c1.364,0,2.731-0.195,4.289-0.293V111.518"/>
			<path fill="#FFFFFF" d="M846.417,58.31c-0.146-0.019-0.291-0.05-0.421-0.05c-0.146,0-0.291,0.031-0.421,0.05v-6.137
				c-0.975,0-1.56,0.065-2.113,0.112v-0.567h4.969v0.567c-0.487-0.047-1.154-0.112-2.014-0.112V58.31 M856.464,51.719
				c0.259,2.385,0.519,4.738,0.799,6.591c-0.182-0.019-0.312-0.05-0.456-0.05c-0.161,0-0.312,0.031-0.455,0.05
				c-0.162-1.932-0.358-4.029-0.505-4.967c-1.102,1.978-1.933,3.52-2.515,4.852h-0.099l-0.536-1.087
				c-0.617-1.268-1.298-2.516-1.946-3.765c-0.211,1.866-0.438,3.779-0.471,4.967c-0.129-0.019-0.228-0.033-0.343-0.05
				c-0.112,0-0.228,0.031-0.34,0.05c0.245-1.56,0.827-5.584,0.926-6.591h0.244c0.779,1.526,1.705,3.343,2.726,5.047
				c0.926-1.654,1.803-3.325,2.774-5.047H856.464z"/>
		</g>
	</g>
</g>
</svg>
