<svg height="151.44" viewBox="0 0 68.059 8.178" width="1260.345" xmlns="http://www.w3.org/2000/svg" xmlns:xlink="http://www.w3.org/1999/xlink"><linearGradient id="a"><stop offset="0" stop-color="#ffcf64"/><stop offset="1" stop-color="#d09236"/></linearGradient><radialGradient id="b" cx="34.754" cy="8.235" gradientTransform="matrix(1 0 0 .11187 0 7.314)" gradientUnits="userSpaceOnUse" r="33.651" xlink:href="#a"/><radialGradient id="c" cx="33.634" cy="-21.894" gradientTransform="matrix(1 0 0 .31135 0 11.681)" gradientUnits="userSpaceOnUse" r="33.651" xlink:href="#a"/><radialGradient id="d" cx="34.754" cy="8.235" gradientTransform="matrix(1 0 0 .11187 .108 7.314)" gradientUnits="userSpaceOnUse" r="33.651" xlink:href="#a"/><g stroke-width=".661"><path d="m1.129 0-1.129 1.129v5.904l1.129 1.13h6.094v-2.529h-4.696v-3.107h3.635l1.26-2.527zm7.435 0-1.128 1.129v5.904l1.128 1.13h4.965l1.13-1.13v-5.903l-1.131-1.13zm6.307 0v8.162h6.16l1.262-2.527h-4.895v-5.635zm7.436 0v8.162h6.16l1.262-2.527h-4.897v-5.635zm7.464 0v8.178h6.473v-2.532h-3.871v-.292h3.871v-2.532h-3.871v-.289h3.67l.002-.002h.2v-2.531zm6.713 0v2.527h2.62l-2.819 5.635h7.422v-2.527h-2.617l2.816-5.635zm7.436 0v8.162h2.527v-8.162zm3.867 0-1.129 1.129v5.904l1.13 1.13h4.966l1.129-1.13v-5.903l-1.13-1.13zm6.307 0v8.162h2.527v-3.646l1.822 3.646h2.873v-8.162h-2.525v3.65l-1.826-3.65zm7.492 0v8.178h6.473v-2.532h-3.871v-.292h3.87v-2.532h-3.87v-.289h3.67l.001-.002h.2v-2.531zm-51.623 2.527h2.17v3.108h-2.17zm39.223 0h2.17v3.108h-2.17z"/><g fill="url(#b)" transform="translate(-.78 -4.146)"><path d="m36.699 4.47h-5.824v7.53h5.825v-1.883h-3.87v-.941h3.87v-1.882h-3.87v-.939h3.858l.002-.002h.01z" fill="url(#c)"/><path d="m68.513 4.47h-5.824v7.53h5.824v-1.883h-3.87v-.941h3.87v-1.882h-3.87v-.939h3.857l.002-.002h.01z" fill="url(#d)"/><path d="m2.043 11.985-.94-.94v-5.635l.94-.94h5.636l-.94 1.879h-3.757v3.757h4.698v1.879zm11.192-1.879v-3.757h-2.817v3.757zm-3.757 1.879-.939-.94v-5.635l.94-.94h4.696l.939.94v5.635l-.94.94zm6.496 0v-7.515h1.879v5.636h4.696l-.94 1.879zm7.436 0v-7.515h1.878v5.636h4.696l-.939 1.879zm14.178 0 2.818-5.636h-2.818v-1.879h6.575l-2.818 5.636h2.818v1.879zm7.435 0v-7.515h1.879v7.515zm7.435-1.879v-3.757h-2.817v3.757zm-3.757 1.879-.939-.94v-5.635l.94-.94h4.696l.939.94v5.635l-.94.94zm6.496 0v-7.515h2.349l2.348 4.697v-4.697h1.878v7.515h-2.348l-2.348-4.697v4.697z"/></g></g></svg>