<svg height="172pt" viewBox="0 0 1035 172" width="1035pt" xmlns="http://www.w3.org/2000/svg"><path d="m28.96 26.97c12.99-10.32 29.94-13.56 46.01-15.26 17.22.51 35.2 4.71 48.76 15.91 12.65-10.53 29.29-14.11 45.23-15.88 14.47.03 29 3.75 42.03 9.98 12.65-10.48 29.91-7.38 45.05-7.86 11.44-.43 23.39 3.31 30.5 12.73 6.29-9.83 18.4-12.94 29.42-12.73 22.33.23 44.67-.28 66.98.25 8.25.05 15.1 4.56 21.95 8.43 15.22-6.92 32.15-11.96 49.03-10.45 11.64 2.21 24.01 4.04 33.81 11.23 2.56 1.48 5.69 4.83 8.54 2.04 11.21-8.42 25.33-10.94 38.81-13.27 12.73-2.01 24.97 2.76 37.22 5.24 6.95-.59 13.52-3.93 20.65-3.46 15.8.61 33.83-2.97 47.11 7.91 9.72-5.06 20.54-7.37 31.22-9.4 16.4-2.47 32.71 3.05 47.82 8.78 7.29-4.12 15.24-7.51 23.84-7.25 11.88.36 24.21-1.56 35.63 2.66 2.95 1.11 6.22 1.76 9.24.43 12.88-4.87 26.88-2.98 40.3-2.5 23.6-1.25 47.27-.28 70.9-.65 9.74-.37 19.89 1.52 27.75 7.61 12.95-6.58 27.77-9.94 42.28-9.66 13.9 1.81 28.57 4.43 39.94 13.24 10.08 7.01 20.39 16.44 21.73 29.39 1.39 7.1-2.74 13.58-3.79 20.31 5.38 12.05 10.05 25.78 5.84 38.94-2.3 14.56-11.81 27.22-24.11 35-9.32 6.78-20.96 8.58-31.95 10.96-15.59 2.99-31.48-.24-46.33-5.11-4.06-1.76-7.92 1.07-11.77 2.02-7.59 2.65-15.71 2-23.6 2.02-22.23-.33-44.5.71-66.69-.69-15.74.81-32.93 3.02-47.11-5.5-9.5 6.29-21.23 6.57-32.22 6.24-10.55.83-20.79-2.22-29.91-7.22-15.55 5.86-32.34 11.37-49.17 8.56-10.26-1.98-20.6-4.28-29.99-9.01-11.35 8.9-26.37 7.74-39.9 7.65-8.11.7-16.26-2.15-24.25.01-24.38 5.01-50.23.41-72.51-10.22-3.41 2.97-6.92 6.07-11.25 7.6-27.49 8.64-57.98 4.7-83.69-7.69-6.94 7.53-17.3 10.37-27.26 10.3-48.04-.09-96.06-.14-144.1.01-9.2.2-18.63-2.02-26.04-7.67-11.85 5.58-24.85 8.87-37.9 9.78-14.48-.15-28.98-3.91-42.05-10.1-5.65 4.34-12.4 6.81-19.39 7.95-21.68 4.67-44.23 1.12-64.87-6.27-17.73-7.55-33.01-21.43-40.74-39.25-2.7-7.02-3.89-14.5-5.96-21.71v-14.64c2.62-8.83 3.67-18.28 8.33-26.38 5.29-9 11.81-17.54 20.63-23.35m-6.73 27.23c-11.24 18.11-10.91 42.3.24 60.37 7.07 11.5 18.22 20.23 30.65 25.3 19.8 7.37 41.97 9.2 62.45 3.64 6.45-1.68 9.23-8.28 9.93-14.32 24.24 22.73 65.46 23.36 90.16 1.02.82 9.21 9.33 15.34 18.3 14.43 49.37-.12 98.71-.12 148.08.01 4.99-.05 10.56-.62 14.3-4.31 3.81-3.77 4.07-9.45 4.88-14.43 22.61 20.03 55.71 24.86 84.38 17.68 8.04-1.78 9.91-10.63 10.55-17.62 22.54 20.34 55.72 24.43 84.46 17.77 13.81.92 27.8 1.49 41.64.39 7.27-.55 11.26-7.24 12.8-13.66 24.83 21.6 64.8 21.42 89.45-.38 1.09 4.14 1.99 9 5.93 11.44 6.39 4.13 14.36 2.91 21.57 3.11 6.82-.15 14.48.98 20.36-3.3 5.91-4.21 6.35-12.47 5.25-19.02-.66-4.55-5.25-7.55-5.24-12.27-.17-4.63.06-9.26-.13-13.89 5.4 6.1 11.64 11.38 16.96 17.56-6.62 8.63-6.99 25.03 4.64 29.48 14.77 3.88 30.15-.74 45.11 1.39 23.3 0 46.61.1 69.91-.05 6.6.25 12.24-3.77 15.26-9.44 13.72 10.16 31.66 12.83 48.31 11.2 10.63-1.55 21.63-3.9 30.42-10.44 14.25-9.53 21.35-28.97 15.62-45.28-1.84-6.72-6.55-12.06-11.38-16.85 7.06-5.11 13.34-14.4 8.28-23.07-19.9-29.87-68.64-33.66-93.12-7.52-1.26-4.12-2.15-8.8-5.65-11.68-4.28-3.68-10.29-3.56-15.59-3.62-21.02.17-42.03-.11-63.04.13-9.98 1.29-19.96-.55-29.96-.14-8.89-.87-19.74 1.19-22.84 10.87-4.4-3.92-8.31-9.32-14.51-10.29-6.84-1.06-13.78-.34-20.66-.55-6.26.15-13.08-.78-18.76 2.43-4.51 2.51-5.83 7.81-6.77 12.49-24.23-22.49-65.13-22.5-89.34 0-1.37-4.64-2.72-10.04-7.31-12.55-6.37-3.42-13.89-2.13-20.82-2.35-10.77.58-24.19-2.89-31.86 6.98-25.53-15.44-61.19-10.69-81.88 10.81-24.06-27.29-70.67-25.66-95.02.38-.8-4.92-1.16-10.56-5.13-14.11-3.69-3.64-9.18-4.02-14.07-4.09-21.69.06-43.39.04-65.08.01-4.85.1-10.34.48-13.93 4.16-4.33 4.47-5.28 11.28-4.27 17.21.73 5.33 5.92 9.07 5.49 14.69-.14 10.22.15 20.46-.25 30.68-5.3.45-11.02 1.42-14.44 5.94-3.47 4.65-9.81 2.45-14.72 2.67-.29-13.09 0-26.18-.2-39.27-.62-6.41 6.05-10.52 5.71-16.94 1.29-8.33-3.79-17.66-12.69-18.63-11.47-.96-23.07-.55-34.57-.25-7.78.1-13.08 6.82-14.44 13.96-8.09-6.08-16.71-11.91-26.83-13.91-22.98-6.64-48.97.72-65.5 17.93-25.87-30.23-80.48-25.95-101.09 8.1z" fill="#fff"/><path d="m67.49 72.49c1.6-4.57 6.64-5.66 10.93-5.78-2.63 15.43 17.59 27.06 29.81 17.56.14 3.45.31 6.89.53 10.33-5.6.81-12.09 1.46-15.52 6.63-3.05 5.1-9.97 4.11-14.66 2.16-10.95-5.44-14.66-19.86-11.09-30.9z" fill="#fff"/><path d="m913.98 73.48c2.17 6.96 4.87 13.82 9.71 19.4-3.14 2.33-6.56 4.49-10.62 4.4.39-7.93-.3-15.92.91-23.8z" fill="#fff"/><path d="m22.23 54.2c20.61-34.05 75.22-38.33 101.09-8.1 16.53-17.21 42.52-24.57 65.5-17.93 10.12 2 18.74 7.83 26.83 13.91 1.36-7.14 6.66-13.86 14.44-13.96 11.5-.3 23.1-.71 34.57.25 8.9.97 13.98 10.3 12.69 18.63.34 6.42-6.33 10.53-5.71 16.94.2 13.09-.09 26.18.2 39.27 4.91-.22 11.25 1.98 14.72-2.67 3.42-4.52 9.14-5.49 14.44-5.94.4-10.22.11-20.46.25-30.68.43-5.62-4.76-9.36-5.49-14.69-1.01-5.93-.06-12.74 4.27-17.21 3.59-3.68 9.08-4.06 13.93-4.16 21.69.03 43.39.05 65.08-.01 4.89.07 10.38.45 14.07 4.09 3.97 3.55 4.33 9.19 5.13 14.11 24.35-26.04 70.96-27.67 95.02-.38 20.69-21.5 56.35-26.25 81.88-10.81 7.67-9.87 21.09-6.4 31.86-6.98 6.93.22 14.45-1.07 20.82 2.35 4.59 2.51 5.94 7.91 7.31 12.55 24.21-22.5 65.11-22.49 89.34 0 .94-4.68 2.26-9.98 6.77-12.49 5.68-3.21 12.5-2.28 18.76-2.43 6.88.21 13.82-.51 20.66.55 6.2.97 10.11 6.37 14.51 10.29 3.1-9.68 13.95-11.74 22.84-10.87 10-.41 19.98 1.43 29.96.14 21.01-.24 42.02.04 63.04-.13 5.3.06 11.31-.06 15.59 3.62 3.5 2.88 4.39 7.56 5.65 11.68 24.48-26.14 73.22-22.35 93.12 7.52 5.06 8.67-1.22 17.96-8.28 23.07 4.83 4.79 9.54 10.13 11.38 16.85 5.73 16.31-1.37 35.75-15.62 45.28-8.79 6.54-19.79 8.89-30.42 10.44-16.65 1.63-34.59-1.04-48.31-11.2-3.02 5.67-8.66 9.69-15.26 9.44-23.3.15-46.61.05-69.91.05-14.96-2.13-30.34 2.49-45.11-1.39-11.63-4.45-11.26-20.85-4.64-29.48-5.32-6.18-11.56-11.46-16.96-17.56.19 4.63-.04 9.26.13 13.89-.01 4.72 4.58 7.72 5.24 12.27 1.1 6.55.66 14.81-5.25 19.02-5.88 4.28-13.54 3.15-20.36 3.3-7.21-.2-15.18 1.02-21.57-3.11-3.94-2.44-4.84-7.3-5.93-11.44-24.65 21.8-64.62 21.98-89.45.38-1.54 6.42-5.53 13.11-12.8 13.66-13.84 1.1-27.83.53-41.64-.39-28.74 6.66-61.92 2.57-84.46-17.77-.64 6.99-2.51 15.84-10.55 17.62-28.67 7.18-61.77 2.35-84.38-17.68-.81 4.98-1.07 10.66-4.88 14.43-3.74 3.69-9.31 4.26-14.3 4.31-49.37-.13-98.71-.13-148.08-.01-8.97.91-17.48-5.22-18.3-14.43-24.7 22.34-65.92 21.71-90.16-1.02-.7 6.04-3.48 12.64-9.93 14.32-20.48 5.56-42.65 3.73-62.45-3.64-12.43-5.07-23.58-13.8-30.65-25.3-11.15-18.07-11.48-42.26-.24-60.37m11.65 7.63c-10.68 17.26-6.87 41.58 8.33 54.95 18.41 16.77 45.47 17.78 68.82 14.02.62-7.32.44-14.65.14-21.97-7.53-1.89-9.32 7.32-15.76 8.67-11.06 3.36-23.87.39-31.99-7.92-10.22-10.41-13.51-26.71-9.47-40.55 3.82-14.54 23.47-20.97 35.47-12.46 4.87 3.29 4.69 9.63 2.96 14.6 1.9.9 3.72 1.93 5.48 3.07 5.49-5.68 10.98-11.36 16.25-17.25-19.41-25.34-63.87-22.23-80.23 4.84m128.48-21.38c-14.21 2.13-27.42 10.89-34.27 23.62-8.93 16-7.52 37.37 4.28 51.56 17 20.59 50.99 22.76 71.42 6.14 18.3-14.41 21.87-43.15 8.36-61.94-10.75-15.78-31.37-22.66-49.79-19.38m242.1 20.98c-10.6 16.8-7.5 40.57 6.9 54.21 18.34 17.64 46.38 19.54 70.22 14.97.18-7.18.14-14.36.12-21.54-2.1.03-4.21.08-6.3.07-6.61 12.14-23.63 11.6-34.39 5.87-16.29-9.02-22.26-31.1-15.99-48 4.69-12.56 21.16-17.65 32.73-11.78 6.17 2.74 7.25 10.17 4.88 15.88 1.83.98 3.61 2.03 5.39 3.1 5.67-5.53 11.17-11.24 16.34-17.24-19.25-25.23-63.36-22.23-79.9 4.46m94.41.4c-10.66 17.27-6.86 41.58 8.34 54.95 18.42 16.76 45.47 17.79 68.82 14.02.62-7.32.43-14.65.14-21.97-7.52-1.88-9.32 7.32-15.77 8.67-11.05 3.36-23.86.39-31.98-7.92-10.23-10.42-13.51-26.71-9.47-40.55 3.82-14.54 23.46-20.97 35.47-12.46 4.87 3.29 4.69 9.63 2.96 14.61 1.89.89 3.71 1.92 5.47 3.06 5.5-5.68 11-11.36 16.26-17.25-19.42-25.34-63.87-22.23-80.24 4.84m171.51-21.32c-12.24 2-23.87 8.62-31 18.88-11.99 16.42-11.74 41.03 1.63 56.59 17.82 21.11 53.66 22.47 73.59 3.63 16.52-15.19 18.69-42.68 5.33-60.56-10.95-15.34-31.38-21.84-49.55-18.54m267.95 6.85c-11.68 7.97-14.27 26.99-3.38 36.68 12.69 10.41 30.66 8.75 44.77 16.2 5.45 2.71 6.83 10.63 2.48 14.93-5.2 5.15-13.1 5.7-20.02 5.52-5.83-.31-12.68-1.44-16.18-6.67-2.58-3.79-.68-8.39.73-12.22-1.93-1.32-3.77-2.77-5.53-4.3-6.46 4.38-12.97 8.69-19.19 13.4 5.69 10.37 15.53 18.59 27.4 20.57 14.47 2.44 30.44 1.91 43.4-5.66 9.27-5.39 15.29-16.31 13.52-27.08-1.08-7.71-6.71-14.01-13.41-17.58-12.29-6.53-26.72-7.05-39.35-12.63-5.99-2.4-5.59-11.29-.17-14.1 8.01-4.56 19.25-4.24 26.55 1.62 3.7 2.71 2.33 7.53 3.08 11.39 1.64 1.54 3.77 2.42 5.72 3.51 4.92-4.37 9.98-8.57 14.74-13.13-14.44-19.93-45.13-23.74-65.16-10.45m-708.6-5.25c-1.53 5.73 6.29 6.69 5.82 11.98.1 21.27.07 42.55.01 63.82.43 3.72-2.88 5.76-5.55 7.53.02 1.73.04 3.47.07 5.21 24.54-.05 49.08-.11 73.62.03-.01-7.28.01-14.55.01-21.83-7.67-2.62-7.91 8.27-14.71 8.28-10.36.55-20.77.19-31.15.08-.25-20.76-.14-41.52-.08-62.28-.91-5.71 7.05-6.97 5.76-12.83-11.26-.27-22.54-.3-33.8.01m79.44.1c.14 1.73.26 3.47.38 5.2 1.6.81 3.2 1.61 4.8 2.43 1.95 19.96.26 40.12.9 60.15-.41 4.61 1.43 11.1-3.56 13.74-2.69 1.27-2.35 4.39-2.61 6.87 25.89.06 51.78-.1 77.67.08.06-6.9.12-13.81-.01-20.71-1.75.08-3.49.16-5.23.25-1.66 3.59-3.83 8.07-8.5 7.88-11.89.4-23.82.34-35.72-.06.06-10.3.08-20.59-.01-30.89 8.25-.13 16.51-.35 24.76-.04 5.77-.53 7 7.65 13.06 6.42.39-8.05.34-16.12.03-24.17-5.48-1.03-7.82 5.78-13.11 5.31-8.24.13-16.48-.09-24.71.03.02-6.8.02-13.61-.01-20.42 10.87.11 21.76-.18 32.62.09 4.47-.22 6.43 4.33 8.45 7.49 1.79.05 3.58.1 5.38.15.12-6.66.06-13.31.06-19.96-24.87-.09-49.77-.4-74.64.16m277.99-.01c.13 1.74.26 3.48.38 5.22 1.6.81 3.2 1.61 4.8 2.44 1.54 20.65.16 41.44.72 62.15-.27 4.01 1.04 9.51-3.36 11.71-2.7 1.28-2.39 4.38-2.63 6.88 11.3.03 22.6 0 33.89.02 1.79-6.24-6.77-7.58-5.74-13.54.41-22.27-.78-44.62.62-66.84 3.45-1.44 5.5-4.25 5.28-8.07-11.31-.38-22.65-.43-33.96.03m151.28-.15c-1.41 5.83 6.47 7.21 5.51 12.86.05 20.72.03 41.45.01 62.17 1.18 6.13-7.58 7.15-5.88 13.52 8.61.05 17.22-.02 25.83.05.01-1.75.03-3.49.05-5.24-2.61-1.79-5.9-3.83-5.53-7.5-.08-18.03-.12-36.07.05-54.1 14.58 13.27 28.08 27.72 42.46 41.22 4.85 3.9 4 11.05 2.62 16.38-2.81 2.47-6 5.01-4.82 9.25 8.5-.06 17.01-.06 25.52 0 2.16-6.21-6.71-7.57-5.53-13.58-.03-20.71-.09-41.44.02-62.15-.96-5.73 7.1-6.95 5.75-12.83-8.67-.28-17.34-.28-26.01 0-1.36 5.91 6.58 7.18 5.82 12.83.2 7.49.15 14.99-.23 22.47-9.83-8.64-18.54-18.45-27.82-27.66-3.33-3.03-6.06-8.08-11.18-7.81-8.88-.07-17.76-.05-26.64.12m94.73.16c.13 1.73.25 3.47.38 5.2 1.59.81 3.19 1.61 4.8 2.43 1.87 22.31.42 44.83.79 67.22.99 6.13-7.78 7.12-6.07 13.53 25.89.08 51.79-.09 77.68.09.06-6.9.12-13.81 0-20.71-1.76.08-3.5.16-5.24.25-1.67 3.59-3.83 8.07-8.5 7.88-11.89.4-23.83.35-35.72-.06.06-10.3.07-20.59-.01-30.89 8.25-.13 16.51-.35 24.76-.05 5.77-.53 6.99 7.67 13.06 6.42.38-8.05.34-16.11.03-24.16-5.49-1.05-7.82 5.79-13.11 5.31-8.24.14-16.48-.09-24.71.03.02-6.8.02-13.61-.01-20.41 10.87.1 21.76-.19 32.63.08 4.46-.22 6.41 4.33 8.44 7.49 1.79.05 3.58.09 5.39.14.11-6.65.05-13.3.05-19.95-24.88-.09-49.77-.4-74.64.16m-765.68 30.28c-3.57 11.04.14 25.46 11.09 30.9 4.69 1.95 11.61 2.94 14.66-2.16 3.43-5.17 9.92-5.82 15.52-6.63-.22-3.44-.39-6.88-.53-10.33-12.22 9.5-32.44-2.13-29.81-17.56-4.29.12-9.33 1.21-10.93 5.78m846.49.99c-1.21 7.88-.52 15.87-.91 23.8 4.06.09 7.48-2.07 10.62-4.4-4.84-5.58-7.54-12.44-9.71-19.4m-562.79 27.54c0 .79.02 2.37.03 3.17 3.01-.05 6.03-.01 9.04.14-.53-1.09-1.07-2.18-1.59-3.26-2.5.06-4.99.03-7.48-.05m524 0c.01.79.02 2.37.03 3.16 3.01-.04 6.02.01 9.04.14-.54-1.08-1.07-2.17-1.6-3.25-2.49.06-4.99.03-7.47-.05z" fill="#0c4da2"/><path d="m164.39 54.4c10.49-2.97 22.82 1.38 28.13 11.13 7.25 13.22 7.02 30.91-1.51 43.49-8.09 11.91-27.11 13.3-37.01 2.98-8.7-8.87-9.96-22.4-8.19-34.12 1.5-10.27 8-20.8 18.58-23.48z" fill="#0c4da2"/><path d="m673.36 54.28c8.11-1.97 17.44-.16 23.36 5.99 12.03 13.1 12.17 35.24 2.05 49.49-8.81 12.01-28.91 12.21-38.05.51-8.24-10.57-8.84-25.36-5.29-37.84 2.51-8.48 9.04-16.17 17.93-18.15z" fill="#0c4da2"/><g fill="#ffcb08"><path d="m33.88 61.83c16.36-27.07 60.82-30.18 80.23-4.84-5.27 5.89-10.76 11.57-16.25 17.25-1.76-1.14-3.58-2.17-5.48-3.07 1.73-4.97 1.91-11.31-2.96-14.6-12-8.51-31.65-2.08-35.47 12.46-4.04 13.84-.75 30.14 9.47 40.55 8.12 8.31 20.93 11.28 31.99 7.92 6.44-1.35 8.23-10.56 15.76-8.67.3 7.32.48 14.65-.14 21.97-23.35 3.76-50.41 2.75-68.82-14.02-15.2-13.37-19.01-37.69-8.33-54.95z"/><path d="m162.36 40.45c18.42-3.28 39.04 3.6 49.79 19.38 13.51 18.79 9.94 47.53-8.36 61.94-20.43 16.62-54.42 14.45-71.42-6.14-11.8-14.19-13.21-35.56-4.28-51.56 6.85-12.73 20.06-21.49 34.27-23.62m2.03 13.95c-10.58 2.68-17.08 13.21-18.58 23.48-1.77 11.72-.51 25.25 8.19 34.12 9.9 10.32 28.92 8.93 37.01-2.98 8.53-12.58 8.76-30.27 1.51-43.49-5.31-9.75-17.64-14.1-28.13-11.13z"/><path d="m404.46 61.43c16.54-26.69 60.65-29.69 79.9-4.46-5.17 6-10.67 11.71-16.34 17.24-1.78-1.07-3.56-2.12-5.39-3.1 2.37-5.71 1.29-13.14-4.88-15.88-11.57-5.87-28.04-.78-32.73 11.78-6.27 16.9-.3 38.98 15.99 48 10.76 5.73 27.78 6.27 34.39-5.87 2.09.01 4.2-.04 6.3-.07.02 7.18.06 14.36-.12 21.54-23.84 4.57-51.88 2.67-70.22-14.97-14.4-13.64-17.5-37.41-6.9-54.21z"/><path d="m498.87 61.83c16.37-27.07 60.82-30.18 80.24-4.84-5.26 5.89-10.76 11.57-16.26 17.25-1.76-1.14-3.58-2.17-5.47-3.06 1.73-4.98 1.91-11.32-2.96-14.61-12.01-8.51-31.65-2.08-35.47 12.46-4.04 13.84-.76 30.13 9.47 40.55 8.12 8.31 20.93 11.28 31.98 7.92 6.45-1.35 8.25-10.55 15.77-8.67.29 7.32.48 14.65-.14 21.97-23.35 3.77-50.4 2.74-68.82-14.02-15.2-13.37-19-37.68-8.34-54.95z"/><path d="m670.38 40.51c18.17-3.3 38.6 3.2 49.55 18.54 13.36 17.88 11.19 45.37-5.33 60.56-19.93 18.84-55.77 17.48-73.59-3.63-13.37-15.56-13.62-40.17-1.63-56.59 7.13-10.26 18.76-16.88 31-18.88m2.98 13.77c-8.89 1.98-15.42 9.67-17.93 18.15-3.55 12.48-2.95 27.27 5.29 37.84 9.14 11.7 29.24 11.5 38.05-.51 10.12-14.25 9.98-36.39-2.05-49.49-5.92-6.15-15.25-7.96-23.36-5.99z"/><path d="m938.33 47.36c20.03-13.29 50.72-9.48 65.16 10.45-4.76 4.56-9.82 8.76-14.74 13.13-1.95-1.09-4.08-1.97-5.72-3.51-.75-3.86.62-8.68-3.08-11.39-7.3-5.86-18.54-6.18-26.55-1.62-5.42 2.81-5.82 11.7.17 14.1 12.63 5.58 27.06 6.1 39.35 12.63 6.7 3.57 12.33 9.87 13.41 17.58 1.77 10.77-4.25 21.69-13.52 27.08-12.96 7.57-28.93 8.1-43.4 5.66-11.87-1.98-21.71-10.2-27.4-20.57 6.22-4.71 12.73-9.02 19.19-13.4 1.76 1.53 3.6 2.98 5.53 4.3-1.41 3.83-3.31 8.43-.73 12.22 3.5 5.23 10.35 6.36 16.18 6.67 6.92.18 14.82-.37 20.02-5.52 4.35-4.3 2.97-12.22-2.48-14.93-14.11-7.45-32.08-5.79-44.77-16.2-10.89-9.69-8.3-28.71 3.38-36.68z"/><path d="m229.73 42.11c11.26-.31 22.54-.28 33.8-.01 1.29 5.86-6.67 7.12-5.76 12.83-.06 20.76-.17 41.52.08 62.28 10.38.11 20.79.47 31.15-.08 6.8-.01 7.04-10.9 14.71-8.28 0 7.28-.02 14.55-.01 21.83-24.54-.14-49.08-.08-73.62-.03-.03-1.74-.05-3.48-.07-5.21 2.67-1.77 5.98-3.81 5.55-7.53.06-21.27.09-42.55-.01-63.82.47-5.29-7.35-6.25-5.82-11.98z"/><path d="m309.17 42.21c24.87-.56 49.77-.25 74.64-.16 0 6.65.06 13.3-.06 19.96-1.8-.05-3.59-.1-5.38-.15-2.02-3.16-3.98-7.71-8.45-7.49-10.86-.27-21.75.02-32.62-.09.03 6.81.03 13.62.01 20.42 8.23-.12 16.47.1 24.71-.03 5.29.47 7.63-6.34 13.11-5.31.31 8.05.36 16.12-.03 24.17-6.06 1.23-7.29-6.95-13.06-6.42-8.25-.31-16.51-.09-24.76.04.09 10.3.07 20.59.01 30.89 11.9.4 23.83.46 35.72.06 4.67.19 6.84-4.29 8.5-7.88 1.74-.09 3.48-.17 5.23-.25.13 6.9.07 13.81.01 20.71-25.89-.18-51.78-.02-77.67-.08.26-2.48-.08-5.6 2.61-6.87 4.99-2.64 3.15-9.13 3.56-13.74-.64-20.03 1.05-40.19-.9-60.15-1.6-.82-3.2-1.62-4.8-2.43-.12-1.73-.24-3.47-.38-5.2z"/><path d="m587.16 42.2c11.31-.46 22.65-.41 33.96-.03.22 3.82-1.83 6.63-5.28 8.07-1.4 22.22-.21 44.57-.62 66.84-1.03 5.96 7.53 7.3 5.74 13.54-11.29-.02-22.59.01-33.89-.02.24-2.5-.07-5.6 2.63-6.88 4.4-2.2 3.09-7.7 3.36-11.71-.56-20.71.82-41.5-.72-62.15-1.6-.83-3.2-1.63-4.8-2.44-.12-1.74-.25-3.48-.38-5.22z"/><path d="m738.44 42.05c8.88-.17 17.76-.19 26.64-.12 5.12-.27 7.85 4.78 11.18 7.81 9.28 9.21 17.99 19.02 27.82 27.66.38-7.48.43-14.98.23-22.47.76-5.65-7.18-6.92-5.82-12.83 8.67-.28 17.34-.28 26.01 0 1.35 5.88-6.71 7.1-5.75 12.83-.11 20.71-.05 41.44-.02 62.15-1.18 6.01 7.69 7.37 5.53 13.58-8.51-.06-17.02-.06-25.52 0-1.18-4.24 2.01-6.78 4.82-9.25 1.38-5.33 2.23-12.48-2.62-16.38-14.38-13.5-27.88-27.95-42.46-41.22-.17 18.03-.13 36.07-.05 54.1-.37 3.67 2.92 5.71 5.53 7.5-.02 1.75-.04 3.49-.05 5.24-8.61-.07-17.22 0-25.83-.05-1.7-6.37 7.06-7.39 5.88-13.52.02-20.72.04-41.45-.01-62.17.96-5.65-6.92-7.03-5.51-12.86z"/><path d="m833.17 42.21c24.87-.56 49.76-.25 74.64-.16 0 6.65.06 13.3-.05 19.95-1.81-.05-3.6-.09-5.39-.14-2.03-3.16-3.98-7.71-8.44-7.49-10.87-.27-21.76.02-32.63-.08.03 6.8.03 13.61.01 20.41 8.23-.12 16.47.11 24.71-.03 5.29.48 7.62-6.36 13.11-5.31.31 8.05.35 16.11-.03 24.16-6.07 1.25-7.29-6.95-13.06-6.42-8.25-.3-16.51-.08-24.76.05.08 10.3.07 20.59.01 30.89 11.89.41 23.83.46 35.72.06 4.67.19 6.83-4.29 8.5-7.88 1.74-.09 3.48-.17 5.24-.25.12 6.9.06 13.81 0 20.71-25.89-.18-51.79-.01-77.68-.09-1.71-6.41 7.06-7.4 6.07-13.53-.37-22.39 1.08-44.91-.79-67.22-1.61-.82-3.21-1.62-4.8-2.43-.13-1.73-.25-3.47-.38-5.2z"/></g><path d="m351.19 101.02c2.49.08 4.98.11 7.48.05.52 1.08 1.06 2.17 1.59 3.26-3.01-.15-6.03-.19-9.04-.14-.01-.8-.03-2.38-.03-3.17z" fill="#fdfdfe"/><path d="m875.19 101.02c2.48.08 4.98.11 7.47.05.53 1.08 1.06 2.17 1.6 3.25-3.02-.13-6.03-.18-9.04-.14-.01-.79-.02-2.37-.03-3.16z" fill="#fdfdfe"/></svg>