<svg enable-background="new 0 0 566.929 129.21" height="129.21" viewBox="0 0 566.929 129.21" width="566.929" xmlns="http://www.w3.org/2000/svg" xmlns:xlink="http://www.w3.org/1999/xlink"><clipPath id="a"><path d="m171.641 13.556 4.729 11.337c-.545.468-.949.942-1.226 1.474-.277.531-.426 1.12-.461 1.814-.034.695.045 1.498.227 2.457.181.959.464 2.076.835 3.399l-4.763-10.982c-.385-1.375-.679-2.535-.867-3.531s-.271-1.829-.234-2.552c.037-.722.192-1.333.481-1.885.29-.552.711-1.045 1.279-1.531z"/></clipPath><clipPath id="b"><path d="m87.144 25.833c2.685 3.626 5.369 7.252 8.054 10.878-.231-.313-.481-.585-.752-.819s-.563-.427-.878-.582-.653-.271-1.016-.348c-.363-.078-.751-.116-1.167-.116-.167 0-.338.006-.515.019-.176.012-.356.031-.541.056-.186.025-.375.056-.569.093-.195.037-.394.081-.599.13l-8.298-10.939c.213-.051.42-.096.623-.135.202-.039.4-.071.593-.097.192-.025.38-.045.563-.058s.361-.02.535-.02c.433 0 .836.04 1.214.12.377.081.729.201 1.057.362.327.161.631.363.913.605.282.244.542.527.783.851z"/></clipPath><clipPath id="c"><path d="m191.479 27.944c1.321 3.6 2.641 7.199 3.962 10.799-.259-.707-.668-1.237-1.139-1.635-.471-.397-1.003-.663-1.51-.839-.507-.177-.988-.265-1.357-.309s-.626-.044-.683-.044l-4.151-10.91c.059 0 .326 0 .71.046s.885.138 1.413.321c.527.184 1.082.459 1.571.872.49.413.915.964 1.184 1.699z"/></clipPath><clipPath id="d"><path d="m149.297 21.509c1.871 3.68 3.741 7.36 5.611 11.041-1.079-2.122-2.282-3.814-3.602-5.159-1.319-1.344-2.756-2.342-4.304-3.074-1.546-.732-3.203-1.2-4.962-1.485s-3.621-.386-5.578-.386c-.364 0-.732.003-1.103.01-.371.006-.746.016-1.123.028s-.758.026-1.142.043c-.384.016-.771.035-1.161.054-5.279.267-9.136 1.508-11.951 3.371-2.816 1.864-4.59 4.351-5.699 7.11-1.11 2.762-1.555 5.796-1.712 8.75-.157 2.957-.027 5.833.012 8.273l-7.361-10.356c-.037-2.535-.169-5.524-.001-8.596.167-3.07.634-6.223 1.793-9.092 1.157-2.867 3.006-5.451 5.94-7.387 2.931-1.935 6.947-3.223 12.441-3.501.406-.021.809-.04 1.208-.057s.796-.032 1.189-.044.782-.022 1.168-.029.769-.011 1.148-.011c2.037 0 3.974.105 5.804.401 1.831.295 3.554.781 5.163 1.542s3.104 1.797 4.476 3.194c1.375 1.398 2.625 3.156 3.746 5.36z"/></clipPath><clipPath id="e"><path d="m224.022 31.995c.896 3.549 1.791 7.098 2.687 10.647-.011-.042-.021-.082-.033-.121-.011-.039-.023-.076-.036-.111-.012-.035-.025-.069-.038-.101-.014-.032-.027-.062-.042-.091-.168-.337-.374-.672-.627-.983-.253-.312-.554-.601-.913-.848s-.775-.452-1.261-.595c-.485-.143-1.038-.225-1.67-.225-.245 0-.502.013-.771.038-.269.026-.551.065-.846.118-.294.054-.602.122-.923.205-.321.084-.656.183-1.006.299-1.252.414-2.434.931-3.625 1.651s-2.389 1.644-3.673 2.868c-1.285 1.226-2.656 2.753-4.19 4.682-1.536 1.93-3.236 4.263-5.179 7.098l-3.71-10.104c2.024-2.946 3.795-5.371 5.395-7.376 1.599-2.004 3.026-3.591 4.365-4.865 1.337-1.272 2.585-2.232 3.825-2.98s2.471-1.286 3.774-1.715c.363-.121.712-.224 1.046-.311s.655-.158.961-.213c.307-.056.6-.096.88-.123.28-.026.547-.039.803-.04.658 0 1.233.084 1.738.233.504.148.938.361 1.312.618s.687.557.95.881.477.671.652 1.022c.015.03.029.061.043.094s.027.068.04.105.025.075.037.115c.013.043.025.085.035.128z"/></clipPath><clipPath id="f"><path d="m223.745 52.44 2.706 9.876c-.268-.007-.541-.013-.819-.019-.279-.005-.562-.009-.851-.013-.288-.003-.581-.006-.878-.008-.297-.001-.598-.002-.902-.002-2.12 0-4.413.039-6.711.098s-4.601.139-6.738.221c-2.137.083-4.109.168-5.746.239s-2.938.127-3.735.151l-3.789-9.85c.829-.025 2.184-.083 3.888-.157s3.757-.163 5.982-.249 4.623-.169 7.015-.23c2.393-.062 4.78-.101 6.987-.101.317 0 .63 0 .939.002.309.001.614.004.914.008.3.003.595.008.885.013.29.007.574.013.853.021z"/></clipPath><clipPath id="g"><path d="m199.643 111.895c-.627-1.292-1.253-2.584-1.88-3.875-.653-1.346-1.305-2.69-1.958-4.036-2.93-6.038-4.537-11.795-5.257-17.145-.719-5.341-.553-10.275.064-14.679.616-4.396 1.684-8.265 2.772-11.479 1.087-3.21 2.196-5.768 2.898-7.548l3.789 9.85c-.674 1.712-1.737 4.174-2.78 7.262-1.043 3.092-2.066 6.813-2.655 11.043-.59 4.235-.745 8.981-.052 14.118.695 5.146 2.242 10.683 5.059 16.489z"/></clipPath><clipPath id="h"><path d="m240.933 23.024c.674 3.661 1.347 7.322 2.02 10.983.035.188.017.397-.047.614-.064.216-.173.441-.318.662-.146.221-.328.438-.541.64-.211.201-.451.387-.713.546-.456.277-.777.595-1.003.964-.226.37-.356.791-.432 1.273-.075.483-.093 1.028-.095 1.646-.001.619.014 1.31.007 2.085s-.044 5.027-.097 11.051c-.053 6.036-.122 13.859-.191 21.75-.069 7.913-.14 15.896-.195 22.205-.055 6.322-.096 10.957-.106 12.145-.003.306.004.604.021.896s.043.577.078.855.079.55.132.813.114.52.183.769c0-.118-.073-.266-.105-.379-.322-1.159-.644-2.317-.965-3.477-.371-1.338-.743-2.676-1.114-4.015-.072-.258-.135-.524-.19-.799s-.1-.557-.137-.846-.064-.586-.081-.89c-.018-.304-.025-.614-.022-.933.011-1.234.055-6.055.116-12.629.06-6.56.136-14.859.211-23.085.075-8.203.15-16.333.207-22.606.058-6.26.098-10.678.105-11.483.007-.806-.008-1.524-.007-2.167.002-.643.021-1.209.1-1.711.078-.502.214-.939.449-1.323s.57-.714 1.044-1.001c.272-.165.523-.358.743-.567.221-.209.411-.435.563-.665.152-.229.266-.462.332-.688s.084-.437.048-.633z"/></clipPath><clipPath id="i"><path d="m105.224 39.729 7.361 10.356c.041 2.442.289 7.608.641 14.04.353 6.444.811 14.164 1.27 21.684.461 7.538.923 14.873 1.282 20.51.36 5.647.616 9.582.663 10.299l-7.286-7.722c-.048-.745-.31-4.838-.677-10.71-.367-5.861-.839-13.489-1.31-21.327-.469-7.816-.936-15.841-1.295-22.54-.359-6.684-.61-12.053-.649-14.59z"/></clipPath><clipPath id="j"><path d="m242.437 110.31 1.988 7.667c-2.41 0-5.008.007-7.56.017s-5.057.023-7.281.037-4.168.027-5.598.039c-1.43.011-2.345.018-2.511.02l-2.938-7.662c.173-.002 1.126-.01 2.615-.021s3.514-.025 5.83-.039c2.317-.015 4.926-.028 7.583-.039 2.657-.012 5.362-.019 7.872-.019z"/></clipPath><clipPath id="k"><path d="m170.983 23.055 4.763 10.982c.369 1.324.97 3.499 1.488 6.396.519 2.899.955 6.524.995 10.747.04 4.229-.319 9.058-1.392 14.359-1.075 5.311-2.867 11.098-5.696 17.231-2.796 6.066-6.777 11.651-11.697 16.618-4.927 4.976-10.793 9.329-17.35 12.924-6.564 3.599-13.817 6.435-21.505 8.372-7.693 1.938-15.819 2.976-24.123 2.976-.112 0-.225 0-.338 0-.112-.001-.225-.001-.338-.002-.112 0-.225-.001-.338-.002s-.226-.003-.338-.004l-8.179-7.439c.118.002.235.003.353.004s.234.002.352.003c.117.001.234.001.352.002h.352c8.648 0 17.112-1.079 25.126-3.095 8.01-2.016 15.566-4.966 22.406-8.709 6.831-3.738 12.944-8.266 18.08-13.438 5.126-5.165 9.277-10.972 12.193-17.278 2.95-6.377 4.821-12.392 5.945-17.912 1.122-5.51 1.499-10.529 1.461-14.923-.038-4.387-.489-8.154-1.027-11.167-.538-3.01-1.161-5.269-1.545-6.645z"/></clipPath><clipPath id="l"><path d="m189.773 106.212c-1.414-2.712-2.828-5.425-4.242-8.137 1.221 2.341 2.607 4.688 4.107 6.907 1.501 2.222 3.116 4.315 4.793 6.151 1.678 1.838 3.417 3.416 5.165 4.603 1.749 1.188 3.505 1.982 5.218 2.254l3.488 7.371c-1.645-.262-3.332-1.026-5.011-2.167-1.679-1.142-3.35-2.658-4.962-4.425-1.611-1.766-3.164-3.779-4.606-5.915-1.443-2.134-2.776-4.39-3.95-6.642z"/></clipPath><clipPath id="m"><path d="m340.346 39.1c.653-3.595 1.305-7.19 1.958-10.786.104-.576.313-1.14.633-1.688s.754-1.082 1.31-1.6c.556-.517 1.232-1.017 2.04-1.499.809-.481 1.748-.944 2.827-1.386l-2.223 11.017c-1.037.425-1.939.871-2.716 1.334s-1.428.945-1.961 1.442c-.534.498-.951 1.012-1.259 1.54s-.508 1.071-.609 1.626z"/></clipPath><clipPath id="n"><path d="m380.394 40.152c1.197-3.582 2.396-7.163 3.594-10.745.208-.622.438-1.149.691-1.613.254-.465.533-.867.844-1.239.309-.372.648-.713 1.021-1.057s.78-.688 1.227-1.068l-3.74 10.931c-.429.365-.82.697-1.179 1.027-.358.331-.685.659-.982 1.017s-.565.745-.811 1.192-.465.957-.665 1.555z"/></clipPath><clipPath id="o"><path d="m439.073 43.202c1.998-3.542 3.997-7.083 5.995-10.625.172-.305.379-.579.627-.84s.537-.512.876-.771.727-.527 1.171-.825c.443-.298.943-.625 1.507-1.002l-6.155 10.754c-.542.363-1.023.678-1.449.965-.428.287-.8.545-1.125.794-.326.25-.604.49-.844.742-.239.251-.438.514-.603.808z"/></clipPath><clipPath id="p"><path d="m250.871 40.018 1.635 10.346c-.288-1.748-.631-3.038-1.019-3.991s-.819-1.572-1.284-1.978c-.465-.405-.963-.597-1.483-.698s-1.062-.11-1.614-.15l-1.854-10.612c.575.041 1.14.051 1.681.156.542.104 1.06.304 1.544.725.483.421.934 1.063 1.336 2.055.402.991.759 2.331 1.058 4.147z"/></clipPath><clipPath id="q"><path d="m368.472 44.573-2.992 10.174c.001-.111.01-.723.014-1.643s.004-2.148-.014-3.494c-.016-1.345-.049-2.807-.109-4.195s-.147-2.702-.273-3.752c-.127-1.052-.436-1.958-.872-2.741s-.999-1.443-1.636-2.002c-.635-.56-1.344-1.018-2.071-1.399s-1.472-.684-2.182-.931l2.69-10.96c.738.257 1.514.571 2.271.967s1.494.872 2.156 1.453c.662.582 1.25 1.267 1.703 2.081.455.813.776 1.755.908 2.848.133 1.091.225 2.457.288 3.898.063 1.443.099 2.961.116 4.359.018 1.398.02 2.675.016 3.63-.003.957-.012 1.592-.013 1.707z"/></clipPath><clipPath id="r"><path d="m463.09 54.818c2.33-3.39 4.66-6.78 6.99-10.17.663-.964 1.413-1.948 2.254-2.882.84-.934 1.771-1.818 2.792-2.581s2.136-1.406 3.342-1.857c1.207-.452 2.508-.713 3.904-.713.227 0 .455.007.687.021.231.014.466.035.703.064.236.029.476.065.718.109s.486.096.733.156c2.617.634 4.618 1.629 6.149 2.772 1.531 1.144 2.592 2.436 3.327 3.663.734 1.227 1.144 2.389 1.37 3.272.228.883.272 1.486.281 1.596l-8.029 10.034c-.008-.105-.05-.687-.267-1.536-.218-.849-.608-1.967-1.313-3.148-.704-1.181-1.722-2.424-3.191-3.524s-3.391-2.058-5.904-2.668c-.237-.058-.472-.107-.704-.15s-.462-.077-.689-.105-.452-.048-.675-.062-.442-.021-.66-.021c-1.342 0-2.591.251-3.751.687-1.16.435-2.23 1.053-3.213 1.788s-1.877 1.585-2.686 2.483c-.808.898-1.53 1.845-2.168 2.772z"/></clipPath><clipPath id="s"><path d="m368.208 51.394-2.986 9.916c-3.381.057-6.619.1-9.583.132s-5.654.054-7.94.068c-2.285.014-4.168.021-5.515.025-1.347.003-2.16.003-2.308.003l1.945-9.907c.154 0 1 0 2.402-.003 1.402-.004 3.361-.011 5.742-.026 2.379-.015 5.18-.037 8.266-.07s6.457-.079 9.977-.138z"/></clipPath><clipPath id="t"><path d="m438.517 52.897-5.757 9.859c.171-3.563.212-6.657.12-9.324-.092-2.665-.314-4.904-.67-6.76-.355-1.855-.843-3.329-1.464-4.463-.62-1.134-1.374-1.928-2.263-2.426l5.559-10.758c.925.517 1.711 1.342 2.357 2.521.647 1.178 1.156 2.709 1.527 4.637.373 1.929.607 4.256.705 7.025.099 2.77.06 5.985-.114 9.689z"/></clipPath><clipPath id="u"><path d="m320.265 32.411-1.093 10.632c-4.063 4.445-8.314 8.012-12.616 10.914-4.305 2.905-8.658 5.143-12.918 6.928-4.263 1.786-8.432 3.118-12.367 4.213-3.937 1.096-7.639 1.953-10.969 2.79l-.908-9.658c3.467-.87 7.32-1.761 11.42-2.899 4.096-1.138 8.436-2.523 12.873-4.379 4.436-1.855 8.967-4.18 13.448-7.199 4.478-3.017 8.903-6.724 13.13-11.342z"/></clipPath><clipPath id="v"><path d="m488.732 57.648c-2.581 3.227-5.161 6.453-7.741 9.68-.207.26-.456.547-.751.865-.296.318-.64.666-1.036 1.045-.397.38-.849.791-1.36 1.235s-1.084.922-1.723 1.434l7.546-9.499c.665-.532 1.261-1.029 1.793-1.491.532-.461 1.001-.889 1.414-1.283.412-.395.77-.756 1.077-1.087.306-.33.565-.63.781-.899z"/></clipPath><clipPath id="w"><path d="m457.299 69.095c2.257-3.203 4.514-6.406 6.771-9.61.182-.258.406-.462.688-.623.281-.161.619-.28 1.028-.368s.889-.146 1.453-.187c.563-.04 1.213-.063 1.96-.079.117-.002.234-.004.351-.006s.234-.003.351-.005.232-.002.349-.003.232-.001.349-.001c1.291 0 2.563.042 3.792.162 1.229.119 2.416.313 3.535.618 1.12.305 2.174.719 3.139 1.276s1.84 1.259 2.603 2.137l-7.546 9.499c-.732-.845-1.572-1.519-2.498-2.056-.926-.536-1.938-.936-3.013-1.229s-2.215-.48-3.396-.595c-1.18-.114-2.402-.155-3.643-.155-.111 0-.223.001-.335.001-.111.001-.223.002-.335.003-.111.002-.224.003-.336.005s-.225.004-.337.006c-.718.016-1.342.037-1.884.075-.542.039-1.003.095-1.396.18s-.718.199-.988.354c-.27.157-.486.353-.662.601z"/></clipPath><clipPath id="x"><path d="m267.31 110.77c-.346-2.651-.691-5.304-1.038-7.955-.019-.136-.032-.275-.044-.418-.012-.144-.021-.29-.027-.44-.006-.151-.01-.306-.012-.466-.003-.16-.004-.324-.003-.494 0-.038.005-3.453.011-8.671.007-5.208.016-12.206.025-19.43.01-7.206.021-14.635.032-20.743.011-6.096.021-10.881.029-12.827.009-1.944.414-3.737 1.173-5.359.758-1.621 1.869-3.071 3.288-4.332 1.418-1.26 3.145-2.332 5.134-3.195 1.99-.863 4.243-1.519 6.717-1.948.401-.07.793-.13 1.175-.182s.755-.094 1.118-.128.717-.059 1.063-.075c.345-.017.682-.024 1.01-.024 1.695 0 3.167.217 4.468.611s2.431.964 3.44 1.669c1.011.706 1.902 1.547 2.728 2.482.825.936 1.583 1.966 2.327 3.051l-.294 10.651c-.715-1.043-1.443-2.036-2.235-2.937-.793-.9-1.65-1.71-2.621-2.389s-2.056-1.228-3.306-1.607c-1.249-.379-2.663-.588-4.292-.588-.315 0-.639.008-.971.023-.332.016-.672.04-1.021.073-.349.032-.707.073-1.074.123-.366.05-.742.108-1.129.175-2.375.413-4.541 1.044-6.451 1.875-1.912.831-3.57 1.862-4.934 3.075-1.362 1.214-2.43 2.609-3.157 4.169-.729 1.561-1.118 3.286-1.126 5.157-.008 1.873-.018 6.478-.026 12.343-.009 5.876-.019 13.024-.027 19.957-.009 6.948-.016 13.679-.021 18.688-.006 5.018-.01 8.301-.01 8.338 0 .163 0 .321.002.476.002.153.007.303.013.447.007.146.015.286.026.424.01.136.023.27.04.401z"/></clipPath><clipPath id="y"><path d="m325.165 103.814c-.433 2.64-.866 5.278-1.3 7.918.029-.178.057-.36.081-.548s.047-.38.067-.576c.02-.197.037-.399.053-.606s.028-.419.038-.637c.104-2.235.308-7.123.538-13.3.232-6.164.491-13.608.707-20.98.216-7.354.389-14.64.448-20.522.06-5.872.007-10.354-.229-12.125-.237-1.77-.686-3.276-1.248-4.551-.563-1.274-1.239-2.316-1.937-3.158-.696-.841-1.413-1.483-2.055-1.956-.641-.473-1.206-.778-1.602-.945l1.072-11.068c.412.174 1.001.49 1.668.982.668.491 1.414 1.158 2.139 2.033.726.875 1.431 1.957 2.016 3.28.586 1.324 1.053 2.89 1.301 4.729.246 1.84.302 6.497.241 12.599-.062 6.114-.239 13.685-.462 21.33-.224 7.664-.492 15.403-.73 21.813-.24 6.423-.451 11.506-.559 13.83-.01.227-.023.447-.039.662-.016.216-.034.426-.055.631-.021.204-.045.404-.07.599-.025.192-.053.381-.083.566z"/></clipPath><clipPath id="z"><path d="m392.019 105.258c-1.318 2.62-2.638 5.241-3.957 7.861.171-.339.326-.704.467-1.098s.266-.815.375-1.268c.109-.451.203-.934.281-1.448s.141-1.061.188-1.643c.143-1.781.404-5.975.715-11.318.311-5.335.669-11.813 1.007-18.183.337-6.355.654-12.604.882-17.508.229-4.897.367-8.458.351-9.458-.017-1-.065-1.826-.187-2.504s-.315-1.208-.62-1.617-.722-.696-1.288-.889c-.567-.192-1.285-.29-2.193-.319l3.91-10.521c.945.031 1.693.132 2.283.332.591.2 1.023.499 1.342.924.317.424.52.975.646 1.68s.178 1.563.196 2.603c.018 1.038-.125 4.739-.358 9.828-.234 5.097-.559 11.592-.906 18.198-.348 6.621-.716 13.356-1.035 18.903-.319 5.558-.589 9.918-.736 11.771-.049.604-.113 1.173-.194 1.708s-.179 1.036-.292 1.506-.244.908-.39 1.317-.309.791-.487 1.143z"/></clipPath><clipPath id="A"><path d="m365.63 105.272c-.97 2.621-1.939 5.241-2.908 7.861.088-.24.17-.491.244-.753.074-.263.141-.536.198-.821.058-.286.106-.583.146-.893s.069-.632.089-.966c.119-2.036.29-5.971.479-10.754.189-4.775.396-10.394.59-15.813.193-5.408.374-10.619.51-14.599.137-3.975.229-6.726.244-7.226l2.986-9.916c-.018.52-.111 3.378-.252 7.51-.139 4.137-.324 9.553-.523 15.176-.199 5.633-.412 11.475-.605 16.439-.193 4.974-.369 9.066-.492 11.184-.021.348-.052.683-.093 1.004-.041.322-.092.632-.151.928-.061.297-.129.582-.207.854-.077.274-.163.536-.255.785z"/></clipPath><clipPath id="B"><path d="m272.425 109.487.795 7.698c-1.125 0-2.945 0-5.104 0s-4.654 0-7.133 0-4.939 0-7.026 0-3.8 0-4.782 0l-1.791-7.698h4.98 7.316 7.43z"/></clipPath><clipPath id="C"><path d="m247.384 109.487 1.791 7.698c-.045.005-.088.009-.131.012s-.084.006-.123.008c-.04.002-.078.003-.115.004s-.072.001-.105.001l-1.811-7.697c.035 0 .072-.001.109-.002.039-.001.078-.002.12-.004.041-.002.084-.005.128-.008.045-.003.09-.007.137-.012z"/></clipPath><clipPath id="D"><path d="m246.89 109.512 1.811 7.697c-.066 0-.127-.001-.179-.004-.052-.002-.097-.005-.133-.008s-.064-.006-.085-.008c-.02-.003-.03-.004-.032-.005l-1.829-7.698c.003 0 .014.002.035.004.02.003.05.006.088.009.037.003.084.006.139.009.053.002.116.004.185.004z"/></clipPath><clipPath id="E"><path d="m344.223 110.777-2.06 7.649c-2.955 0-5.872 0-8.596 0-2.723 0-5.252 0-7.43 0-2.179 0-4.006 0-5.325 0s-2.132 0-2.279 0l1.081-7.649h2.373 5.546s4.902 0 7.738 0 5.875 0 8.952 0z"/></clipPath><clipPath id="F"><path d="m403.253 111.251-4.407 7.631c-1.636-.056-3.546-.172-5.499-.316s-3.949-.314-5.758-.48c-1.81-.167-3.432-.328-4.639-.451-1.205-.124-1.996-.21-2.139-.226l3.659-7.689c.149.016.972.105 2.229.233 1.256.129 2.946.297 4.83.47 1.885.173 3.964.352 5.997.501 2.035.149 4.024.27 5.727.327z"/></clipPath><clipPath id="G"><path d="m383.892 111.019-3.637 7.64c-3.098-.028-6.129-.057-8.943-.083-2.813-.026-5.41-.052-7.639-.073s-4.09-.04-5.43-.054c-1.34-.013-2.16-.021-2.311-.022l2.631-7.649c.154.002 1.01.01 2.405.024 1.396.014 3.333.032 5.653.056 2.322.022 5.026.048 7.957.076 2.932.026 6.089.056 9.314.085z"/></clipPath><clipPath id="H"><path d="m431.41 109.887c-1.842 2.561-3.684 5.122-5.525 7.683-.553.769-1.104 1.492-1.648 2.169s-1.081 1.306-1.604 1.884c-.521.578-1.029 1.105-1.516 1.577s-.951.889-1.388 1.246l5.277-7.407c.454-.372.938-.806 1.444-1.297.506-.49 1.033-1.038 1.577-1.64s1.102-1.256 1.668-1.96c.566-.703 1.14-1.457 1.715-2.255z"/></clipPath><clipPath id="I"><path d="m398.689 53.343c1.451-3.41 2.901-6.819 4.352-10.229.094-.22.196-.406.309-.563.111-.156.234-.282.367-.379.134-.099.279-.169.438-.215s.331-.067.518-.067c.227 0 .475.032.748.09.271.058.569.142.895.248.324.105.678.232 1.061.375s.795.302 1.242.471c1.369.52 3.5 1.819 5.976 3.667 2.478 1.85 5.301 4.25 8.052 6.972 2.754 2.724 5.436 5.77 7.625 8.905 2.193 3.139 3.893 6.368 4.678 9.455.785 3.09 1.172 6.271 1.158 9.595-.014 3.328-.429 6.801-1.25 10.473-.822 3.675-2.051 7.55-3.689 11.678-1.641 4.134-3.692 8.522-6.159 13.221l-5.277 7.407c2.372-4.517 4.347-8.736 5.926-12.711 1.577-3.969 2.761-7.695 3.553-11.229.792-3.53 1.194-6.871 1.211-10.071.017-3.198-.354-6.257-1.104-9.229-.752-2.97-2.381-6.076-4.484-9.096-2.101-3.017-4.674-5.946-7.316-8.566-2.641-2.619-5.352-4.929-7.73-6.709-2.377-1.779-4.423-3.029-5.737-3.529-.429-.164-.825-.316-1.193-.454-.367-.138-.706-.26-1.019-.361-.312-.102-.598-.183-.859-.239-.262-.056-.5-.086-.717-.086-.18 0-.345.021-.498.065-.152.044-.291.112-.42.207-.129.094-.246.215-.354.365-.114.148-.212.327-.303.539z"/></clipPath><clipPath id="J"><path d="m492.069 119.762-7.95 7.302c-1.299-.199-3.228-.547-5.581-1.272-2.353-.726-5.131-1.827-8.131-3.532-2.997-1.704-6.215-4.01-9.448-7.144-3.229-3.13-6.473-7.084-9.526-12.085-3.046-4.992-4.972-10.208-6.097-15.326-1.123-5.109-1.449-10.121-1.295-14.716.154-4.588.788-8.761 1.584-12.204.796-3.439 1.754-6.15 2.563-7.818.807-1.665 1.406-3.121 1.8-4.398.394-1.276.58-2.374.563-3.322-.019-.948-.241-1.748-.668-2.427s-1.058-1.24-1.891-1.71l6.356-10.707c.868.489 1.525 1.071 1.97 1.777s.679 1.537.698 2.522-.174 2.126-.581 3.452c-.408 1.327-1.031 2.84-1.869 4.57-.839 1.733-1.834 4.55-2.658 8.124-.825 3.578-1.48 7.916-1.636 12.685-.156 4.776.188 9.986 1.363 15.298 1.178 5.321 3.188 10.745 6.365 15.937 3.186 5.199 6.567 9.312 9.935 12.567 3.371 3.259 6.725 5.657 9.849 7.43 3.126 1.773 6.021 2.92 8.473 3.674 2.451.754 4.458 1.116 5.812 1.323z"/></clipPath><g enable-background="new"><g clip-path="url(#a)" enable-background="new"><path d="m171.641 13.556 4.729 11.337c-.545.468-.949.942-1.226 1.474-.277.531-.426 1.12-.461 1.814-.034.695.045 1.498.227 2.457.181.959.464 2.076.835 3.399l-4.763-10.982c-.385-1.375-.679-2.535-.867-3.531s-.271-1.829-.234-2.552c.037-.722.192-1.333.481-1.885.29-.552.711-1.045 1.279-1.531" fill="#856125"/></g><g clip-path="url(#b)" enable-background="new"><path d="m87.144 25.833 8.054 10.878c-.231-.313-.481-.585-.752-.819s-.563-.427-.878-.582-.653-.271-1.016-.348c-.363-.078-.751-.116-1.167-.116-.167 0-.338.006-.515.019-.176.012-.356.031-.541.056-.186.025-.375.056-.569.093-.195.037-.394.081-.599.13l-8.298-10.939c.213-.051.42-.096.623-.135.202-.039.4-.071.593-.097.192-.025.38-.045.563-.058s.361-.02.535-.02c.433 0 .836.04 1.214.12.377.081.729.201 1.057.362.327.161.631.363.913.605.282.244.542.527.783.851" fill="#856125"/></g><g clip-path="url(#c)" enable-background="new"><path d="m191.479 27.944 3.962 10.799c-.259-.707-.668-1.237-1.139-1.635-.471-.397-1.003-.663-1.51-.839-.507-.177-.988-.265-1.357-.309s-.626-.044-.683-.044l-4.151-10.91c.059 0 .326 0 .71.046s.885.138 1.413.321c.527.184 1.082.459 1.571.872.49.413.915.964 1.184 1.699" fill="#856125"/></g><g clip-path="url(#d)" enable-background="new"><path d="m149.297 21.509 5.611 11.041c-1.079-2.122-2.282-3.814-3.602-5.159-1.319-1.344-2.756-2.342-4.304-3.074-1.546-.732-3.203-1.2-4.962-1.485s-3.621-.386-5.578-.386c-.364 0-.732.003-1.103.01-.371.006-.746.016-1.123.028s-.758.026-1.142.043c-.384.016-.771.035-1.161.054-5.279.267-9.136 1.508-11.951 3.371-2.816 1.864-4.59 4.351-5.699 7.11-1.11 2.762-1.555 5.796-1.712 8.75-.157 2.957-.027 5.833.012 8.273l-7.361-10.356c-.037-2.535-.169-5.524-.001-8.596.167-3.07.634-6.223 1.793-9.092 1.157-2.867 3.006-5.451 5.94-7.387 2.931-1.935 6.947-3.223 12.441-3.501.406-.021.809-.04 1.208-.057s.796-.032 1.189-.044.782-.022 1.168-.029.769-.011 1.148-.011c2.037 0 3.974.105 5.804.401 1.831.295 3.554.781 5.163 1.542s3.104 1.797 4.476 3.194c1.375 1.398 2.625 3.156 3.746 5.36" fill="#856125"/></g><g clip-path="url(#e)" enable-background="new"><path d="m224.022 31.995 2.687 10.647c-.011-.042-.021-.082-.033-.121-.011-.039-.023-.076-.036-.111-.012-.035-.025-.069-.038-.101-.014-.032-.027-.062-.042-.091-.168-.337-.374-.672-.627-.983-.253-.312-.554-.601-.913-.848s-.775-.452-1.261-.595c-.485-.143-1.038-.225-1.67-.225-.245 0-.502.013-.771.038-.269.026-.551.065-.846.118-.294.054-.602.122-.923.205-.321.084-.656.183-1.006.299-1.252.414-2.434.931-3.625 1.651s-2.389 1.644-3.673 2.868c-1.285 1.226-2.656 2.753-4.19 4.682-1.536 1.93-3.236 4.263-5.179 7.098l-3.71-10.104c2.024-2.946 3.795-5.371 5.395-7.376 1.599-2.004 3.026-3.591 4.365-4.865 1.337-1.272 2.585-2.232 3.825-2.98s2.471-1.286 3.774-1.715c.363-.121.712-.224 1.046-.311s.655-.158.961-.213c.307-.056.6-.096.88-.123.28-.026.547-.039.803-.04.658 0 1.233.084 1.738.233.504.148.938.361 1.312.618s.687.557.95.881.477.671.652 1.022c.015.03.029.061.043.094s.027.068.04.105.025.075.037.115c.013.043.025.085.035.128" fill="#856125"/></g><g clip-path="url(#f)" enable-background="new"><path d="m223.745 52.44 2.706 9.876c-.268-.007-.541-.013-.819-.019-.279-.005-.562-.009-.851-.013-.288-.003-.581-.006-.878-.008-.297-.001-.598-.002-.902-.002-2.12 0-4.413.039-6.711.098s-4.601.139-6.738.221c-2.137.083-4.109.168-5.746.239s-2.938.127-3.735.151l-3.789-9.85c.829-.025 2.184-.083 3.888-.157s3.757-.163 5.982-.249 4.623-.169 7.015-.23c2.393-.062 4.78-.101 6.987-.101.317 0 .63 0 .939.002.309.001.614.004.914.008.3.003.595.008.885.013.29.007.574.013.853.021" fill="#856125"/></g><g clip-path="url(#g)" enable-background="new"><path d="m196.282 53.134 3.789 9.85c-.674 1.712-1.737 4.174-2.78 7.262-1.043 3.092-2.066 6.813-2.655 11.043-.59 4.235-.745 8.981-.052 14.118.695 5.145 2.243 10.682 5.06 16.487l-3.838-7.911c-2.93-6.037-4.537-11.795-5.257-17.145-.719-5.341-.553-10.275.064-14.679.616-4.396 1.684-8.265 2.772-11.479 1.085-3.208 2.194-5.766 2.897-7.546" fill="#856125"/></g><g clip-path="url(#h)" enable-background="new"><path d="m240.933 23.024 2.02 10.983c.035.188.017.397-.047.614-.064.216-.173.441-.318.662-.146.221-.328.438-.541.64-.211.201-.451.387-.713.546-.456.277-.777.595-1.003.964-.226.37-.356.791-.432 1.273-.075.483-.093 1.028-.095 1.646-.001.619.014 1.31.007 2.085s-.044 5.027-.097 11.051c-.053 6.036-.122 13.859-.191 21.75-.069 7.913-.14 15.896-.195 22.205-.055 6.322-.096 10.957-.106 12.145-.003.306.004.604.021.896s.043.577.078.855.079.55.132.813.114.52.183.769l-2.185-7.87c-.072-.258-.135-.524-.19-.799s-.1-.557-.137-.846-.064-.586-.081-.89c-.018-.304-.025-.614-.022-.933.011-1.234.055-6.055.116-12.629.06-6.56.136-14.859.211-23.085.075-8.203.15-16.333.207-22.606.058-6.26.098-10.678.105-11.483.007-.806-.008-1.524-.007-2.167.002-.643.021-1.209.1-1.711.078-.502.214-.939.449-1.323s.57-.714 1.044-1.001c.272-.165.523-.358.743-.567.221-.209.411-.435.563-.665.152-.229.266-.462.332-.688s.085-.438.049-.634" fill="#856125"/></g><g clip-path="url(#i)" enable-background="new"><path d="m105.224 39.729 7.361 10.356c.041 2.442.289 7.608.641 14.04.353 6.444.811 14.164 1.27 21.684.461 7.538.923 14.873 1.282 20.51.36 5.647.616 9.582.663 10.299l-7.286-7.722c-.048-.745-.31-4.838-.677-10.71-.367-5.861-.839-13.489-1.31-21.327-.469-7.816-.936-15.841-1.295-22.54-.359-6.684-.61-12.053-.649-14.59" fill="#856125"/></g><g clip-path="url(#j)" enable-background="new"><path d="m242.437 110.31 1.988 7.667c-2.41 0-5.008.007-7.56.017s-5.057.023-7.281.037-4.168.027-5.598.039c-1.43.011-2.345.018-2.511.02l-2.938-7.662c.173-.002 1.126-.01 2.615-.021s3.514-.025 5.83-.039c2.317-.015 4.926-.028 7.583-.039 2.657-.012 5.362-.019 7.872-.019" fill="#856125"/></g><g clip-path="url(#k)" enable-background="new"><path d="m170.983 23.055 4.763 10.982c.369 1.324.97 3.499 1.488 6.396.519 2.899.955 6.524.995 10.747.04 4.229-.319 9.058-1.392 14.359-1.075 5.311-2.867 11.098-5.696 17.231-2.796 6.066-6.777 11.651-11.697 16.618-4.927 4.976-10.793 9.329-17.35 12.924-6.564 3.599-13.817 6.435-21.505 8.372-7.693 1.938-15.819 2.976-24.123 2.976-.112 0-.225 0-.338 0-.112-.001-.225-.001-.338-.002-.112 0-.225-.001-.338-.002s-.226-.003-.338-.004l-8.179-7.439c.118.002.235.003.353.004s.234.002.352.003c.117.001.234.001.352.002h.352c8.648 0 17.112-1.079 25.126-3.095 8.01-2.016 15.566-4.966 22.406-8.709 6.831-3.738 12.944-8.266 18.08-13.438 5.126-5.165 9.277-10.972 12.193-17.278 2.95-6.377 4.821-12.392 5.945-17.912 1.122-5.51 1.499-10.529 1.461-14.923-.038-4.387-.489-8.154-1.027-11.167-.538-3.01-1.161-5.269-1.545-6.645" fill="#856125"/></g><path d="m170.983 23.055c.384 1.376 1.007 3.635 1.544 6.645.538 3.013.989 6.779 1.027 11.167.038 4.394-.339 9.413-1.461 14.923-1.124 5.52-2.995 11.535-5.945 17.912-2.917 6.307-7.067 12.113-12.193 17.278-5.136 5.173-11.249 9.7-18.08 13.438-6.84 3.743-14.396 6.693-22.406 8.709-8.015 2.016-16.479 3.095-25.126 3.095-.117 0-.234 0-.352 0-.118-.001-.235-.001-.352-.002-.118-.001-.235-.002-.352-.003s-.235-.002-.353-.004c1.407-1.003 2.541-1.859 3.436-2.808.895-.948 1.553-1.989 2.009-3.361s.709-3.075.797-5.348c.088-2.271.01-5.11-.198-8.754-.208-3.641-.46-8.829-.738-14.687-.277-5.845-.58-12.354-.888-18.656-.308-6.289-.621-12.373-.921-17.392-.299-5.011-.586-8.965-.842-11.008-.217-1.739-.479-3.252-.812-4.544s-.736-2.362-1.235-3.216c-.5-.853-1.096-1.489-1.815-1.912s-1.561-.633-2.551-.633c-.174 0-.352.006-.535.02-.183.013-.371.032-.563.058-.193.026-.391.058-.593.097-.203.039-.41.083-.623.135 5.828-4.496 10.949-8.011 15.578-10.754 4.625-2.741 8.76-4.714 12.618-6.127 3.856-1.412 7.437-2.265 10.952-2.764 3.515-.5 6.965-.646 10.562-.646 1.126 0 2.267.014 3.428.037 1.162.022 2.344.053 3.553.085s2.447.067 3.717.096 2.574.054 3.917.068c5.632.057 10.088.64 13.607 1.491 3.521.851 6.104 1.97 7.991 3.097s3.076 2.262 3.806 3.144 1 1.511 1.049 1.625c-.567.486-.989.979-1.277 1.531-.289.552-.444 1.164-.481 1.885-.037.723.046 1.556.234 2.552.188.997.482 2.156.867 3.531zm-22.378 54.385c2.391-4.404 4.042-9.064 5.092-13.788 1.049-4.717 1.499-9.496 1.487-14.149-.012-4.646-.484-9.166-1.28-13.371-.794-4.2-1.912-8.087-3.216-11.475-1.115-2.896-2.395-5.196-3.828-7.018-1.432-1.821-3.018-3.164-4.747-4.146-1.729-.981-3.6-1.602-5.604-1.977s-4.141-.505-6.399-.505c-.379 0-.762.004-1.148.011s-.776.017-1.168.029c-.393.013-.79.027-1.189.044s-.802.036-1.208.057c-5.495.278-9.51 1.566-12.441 3.501-2.934 1.936-4.783 4.52-5.94 7.387-1.159 2.869-1.625 6.022-1.793 9.092-.168 3.072-.036 6.061.001 8.596.04 2.538.291 7.907.649 14.59.359 6.699.826 14.723 1.295 22.54.47 7.838.942 15.466 1.31 21.327.367 5.872.629 9.965.677 10.71 3.681-.296 7.036-.68 10.238-1.524s6.249-2.148 9.313-4.283c3.063-2.134 6.141-5.096 9.405-9.255 3.26-4.154 6.702-9.498 10.494-16.393" fill="#deba27"/><g clip-path="url(#l)" enable-background="new"><path d="m204.813 117.991 3.488 7.371c-1.645-.262-3.332-1.026-5.011-2.167-1.679-1.142-3.35-2.658-4.962-4.425-1.611-1.766-3.164-3.779-4.606-5.915-1.442-2.135-2.775-4.391-3.949-6.643l-4.243-8.138c1.221 2.342 2.607 4.688 4.107 6.908 1.501 2.221 3.116 4.315 4.793 6.151 1.678 1.838 3.417 3.416 5.165 4.603 1.749 1.188 3.506 1.983 5.218 2.255" fill="#856125"/></g><path d="m218.537 110.427c.064-.028.42-.183.92-.499.5-.317 1.144-.796 1.786-1.476.642-.678 1.281-1.556 1.772-2.669s.833-2.462.881-4.081c.048-1.617.068-5.35.069-10.077.001-4.719-.016-10.427-.042-16.011-.025-5.574-.06-11.025-.093-15.253-.033-4.222-.065-7.228-.086-7.922-.279-.008-.563-.014-.853-.02-.29-.005-.585-.01-.885-.013s-.605-.006-.914-.008-.623-.002-.939-.002c-2.207 0-4.594.04-6.987.101-2.392.061-4.79.144-7.015.23s-4.278.175-5.982.249-3.059.132-3.888.157c-.834 2.113-2.241 5.323-3.504 9.419-1.265 4.102-2.387 9.094-2.646 14.766-.26 5.684.347 12.051 2.545 18.891 2.203 6.855 6.005 14.188 12.138 21.78-2.238-.354-4.551-1.604-6.823-3.453-2.271-1.849-4.498-4.295-6.565-7.045-2.065-2.748-3.971-5.799-5.601-8.859-1.628-3.057-2.98-6.123-3.942-8.908-.961-2.785-1.753-5.778-2.326-8.921-.573-3.139-.926-6.425-1.011-9.799-.084-3.37.1-6.827.604-10.311.503-3.48 1.324-6.987 2.514-10.461 1.186-3.468 2.347-6.016 3.437-7.983 1.088-1.966 2.106-3.353 3.004-4.498s1.677-2.048 2.29-3.046 1.059-2.091 1.291-3.615c.231-1.522.048-2.664-.362-3.52s-1.046-1.426-1.72-1.806-1.387-.57-1.95-.665-.976-.095-1.051-.095c5.307-.344 11.039-.681 16.7-.996s11.251-.609 16.274-.867 9.478-.48 12.869-.652c3.391-.171 5.718-.292 6.485-.349.034-.002.067-.005.1-.007s.065-.003.097-.005c.032-.001.063-.002.094-.003s.062-.001.091-.001c.65 0 1.084.147 1.342.385.257.238.339.567.281.93s-.253.761-.546 1.136c-.295.375-.688.729-1.142 1.003-.474.288-.809.618-1.044 1.001s-.372.821-.449 1.323c-.078.502-.098 1.068-.1 1.711-.001.643.014 1.361.007 2.167-.007.805-.048 5.223-.105 11.483-.057 6.273-.132 14.403-.207 22.606-.075 8.226-.151 16.525-.211 23.085-.061 6.574-.104 11.395-.116 12.629-.012 1.236.134 2.369.406 3.382s.67 1.904 1.164 2.656 1.081 1.364 1.733 1.818c.651.454 1.366.75 2.113.868-2.51 0-5.215.007-7.872.018s-5.266.024-7.583.039c-2.316.014-4.341.028-5.83.039-1.491.014-2.444.022-2.617.024zm5.451-68.973c.038-.777.093-1.699.143-2.665s.095-1.978.114-2.935.011-1.859-.044-2.608c-.055-.75-.159-1.346-.332-1.691-.175-.351-.389-.698-.652-1.022-.264-.324-.577-.625-.95-.881-.374-.256-.807-.469-1.312-.618s-1.081-.233-1.738-.233c-.255 0-.522.013-.803.04-.28.027-.573.067-.88.123-.307.055-.627.126-.961.213s-.683.19-1.046.311c-1.303.43-2.534.967-3.774 1.715-1.24.749-2.488 1.708-3.825 2.98-1.338 1.273-2.766 2.86-4.365 4.865-1.6 2.006-3.371 4.43-5.395 7.376.597.017 1.214.031 1.847.043s1.282.022 1.941.03c.659.007 1.329.013 2.003.017.675.003 1.354.005 2.034.005 1.641 0 3.281-.01 4.846-.028 1.564-.018 3.053-.043 4.392-.073 1.338-.03 2.527-.065 3.491-.103s1.703-.078 2.143-.119c.62-.059 1.116-.19 1.513-.402s.696-.505.922-.888.379-.856.485-1.429c.105-.573.165-1.244.203-2.023" fill="#deba27"/></g><g enable-background="new"><g clip-path="url(#m)" enable-background="new"><path d="m349.114 22.142-2.223 11.017c-1.037.425-1.939.871-2.716 1.334s-1.428.945-1.961 1.442c-.534.498-.951 1.012-1.259 1.54-.309.528-.509 1.07-.609 1.625l1.958-10.786c.104-.576.313-1.14.633-1.688s.754-1.082 1.31-1.6c.556-.517 1.232-1.017 2.04-1.499.808-.481 1.748-.944 2.827-1.385" fill="#856125"/></g><g clip-path="url(#n)" enable-background="new"><path d="m387.771 24.431-3.74 10.931c-.429.365-.82.697-1.179 1.027-.358.331-.685.659-.982 1.017s-.565.745-.811 1.192-.465.955-.665 1.553l3.594-10.745c.208-.622.438-1.149.691-1.613.254-.465.533-.867.844-1.239.309-.372.648-.713 1.021-1.057s.781-.686 1.227-1.066" fill="#856125"/></g><g clip-path="url(#o)" enable-background="new"><path d="m449.249 29.138-6.155 10.754c-.542.363-1.023.678-1.449.965-.428.287-.8.545-1.125.794-.326.25-.604.49-.844.742-.238.252-.438.515-.603.809l5.995-10.625c.172-.305.379-.579.627-.84s.537-.512.876-.771.727-.527 1.171-.825c.443-.299.943-.626 1.507-1.003" fill="#856125"/></g><g clip-path="url(#p)" enable-background="new"><path d="m250.871 40.018 1.635 10.346c-.288-1.748-.631-3.038-1.019-3.991s-.819-1.572-1.284-1.978c-.465-.405-.963-.597-1.483-.698s-1.062-.11-1.614-.15l-1.854-10.612c.575.041 1.14.051 1.681.156.542.104 1.06.304 1.544.725.483.421.934 1.063 1.336 2.055.402.991.759 2.331 1.058 4.147" fill="#856125"/></g><g clip-path="url(#q)" enable-background="new"><path d="m368.472 44.573-2.992 10.174c.001-.101.008-.616.012-1.401.005-.785.006-1.839-.004-3.02-.01-1.18-.031-2.485-.074-3.772-.041-1.286-.104-2.554-.194-3.66l2.976-10.637c.095 1.149.16 2.467.205 3.803.044 1.337.067 2.693.078 3.919.012 1.227.011 2.322.006 3.138s-.012 1.351-.013 1.456" fill="#8a6625"/><path d="m368.195 32.257-2.976 10.637c-.009-.109-.019-.218-.028-.324-.01-.106-.02-.211-.029-.313s-.021-.204-.031-.302c-.012-.099-.022-.196-.033-.291-.127-1.052-.436-1.958-.872-2.741s-.999-1.443-1.636-2.002c-.635-.56-1.344-1.018-2.071-1.399s-1.472-.684-2.182-.931l2.69-10.96c.738.257 1.514.571 2.271.967s1.494.872 2.156 1.453c.662.582 1.25 1.267 1.703 2.081.455.813.776 1.755.908 2.848.013.098.023.199.035.301.012.103.022.208.033.314s.021.215.031.326.021.222.031.336" fill="#856125"/></g><g clip-path="url(#r)" enable-background="new"><path d="m496.341 48.267-8.029 10.034c0-.007-.001-.015-.002-.025 0-.01-.001-.022-.002-.036-.002-.014-.003-.029-.005-.046-.001-.017-.003-.036-.005-.057l8.027-10.041c.002.021.004.041.006.059s.003.034.004.048c.002.014.003.026.004.037 0 .011.001.02.002.027" fill="#8a6625"/><path d="m496.326 48.097-8.027 10.041c-.032-.309-.125-.99-.394-1.875-.27-.884-.715-1.97-1.45-3.089s-1.762-2.27-3.193-3.285c-1.432-1.014-3.268-1.892-5.625-2.464-.237-.058-.472-.107-.704-.15s-.462-.077-.689-.105-.452-.048-.675-.062-.442-.021-.66-.021c-1.342 0-2.591.251-3.751.687-1.16.435-2.23 1.053-3.213 1.788s-1.877 1.585-2.686 2.483c-.809.899-1.53 1.846-2.168 2.774l6.99-10.171c.663-.964 1.413-1.948 2.254-2.882.84-.934 1.771-1.818 2.792-2.581s2.136-1.406 3.342-1.857c1.207-.452 2.508-.713 3.904-.713.227 0 .455.007.687.021.231.014.466.035.703.064.236.029.476.065.718.109s.486.096.733.156c2.454.595 4.367 1.507 5.857 2.561 1.492 1.055 2.562 2.251 3.329 3.414.768 1.163 1.232 2.292 1.514 3.21.281.917.378 1.626.412 1.947" fill="#856125"/></g><g clip-path="url(#s)" enable-background="new"><path d="m368.208 51.394-2.986 9.916c-3.381.057-6.619.1-9.583.132s-5.654.054-7.94.068c-2.285.014-4.168.021-5.515.025-1.347.003-2.16.003-2.308.003l1.945-9.907c.154 0 1 0 2.402-.003 1.402-.004 3.361-.011 5.742-.026 2.379-.015 5.18-.037 8.266-.07s6.457-.079 9.977-.138" fill="#856125"/></g><g clip-path="url(#t)" enable-background="new"><path d="m438.517 52.897-5.757 9.859c.063-1.303.108-2.543.136-3.723.027-1.179.037-2.297.029-3.357s-.033-2.061-.075-3.005c-.043-.944-.103-1.832-.181-2.666l5.739-10.359c.082.866.146 1.789.19 2.77.046.981.073 2.021.082 3.123.01 1.101 0 2.263-.027 3.488-.027 1.227-.072 2.516-.136 3.87" fill="#8a6625"/><path d="m438.409 39.647-5.739 10.359c-.136-1.447-.324-2.73-.566-3.861-.241-1.131-.536-2.109-.885-2.947-.348-.837-.75-1.533-1.205-2.099-.456-.566-.966-1.001-1.529-1.317l5.559-10.758c.587.328 1.117.78 1.592 1.368.476.588.895 1.311 1.258 2.181s.672 1.887.924 3.062c.251 1.175.449 2.509.591 4.012" fill="#856125"/></g><g clip-path="url(#u)" enable-background="new"><path d="m320.265 32.411-1.093 10.632c-4.063 4.445-8.314 8.012-12.616 10.914-4.305 2.905-8.658 5.143-12.918 6.928-4.263 1.786-8.432 3.118-12.367 4.213-3.937 1.096-7.639 1.953-10.969 2.79l-.908-9.658c3.467-.87 7.32-1.761 11.42-2.899 4.096-1.138 8.436-2.523 12.873-4.379 4.436-1.855 8.967-4.18 13.448-7.199 4.478-3.017 8.903-6.724 13.13-11.342" fill="#856125"/></g><g clip-path="url(#v)" enable-background="new"><path d="m488.732 57.648-7.741 9.68c-.207.26-.456.547-.751.865-.296.318-.64.666-1.036 1.045-.397.38-.849.791-1.36 1.235s-1.084.922-1.723 1.434l7.546-9.499c.665-.532 1.261-1.029 1.793-1.491.532-.461 1.001-.889 1.414-1.283.412-.395.77-.756 1.077-1.087.306-.33.565-.63.781-.899" fill="#856125"/></g><g clip-path="url(#w)" enable-background="new"><path d="m483.667 62.408-7.546 9.499c-.732-.845-1.572-1.519-2.498-2.056-.926-.536-1.938-.936-3.013-1.229s-2.215-.48-3.396-.595c-1.18-.114-2.402-.155-3.643-.155-.111 0-.223.001-.335.001-.111.001-.223.002-.335.003-.111.002-.224.003-.336.005s-.225.004-.337.006c-.718.016-1.342.037-1.884.075-.542.039-1.003.095-1.396.18s-.718.199-.988.354c-.271.155-.486.352-.662.6l6.771-9.61c.182-.258.406-.461.688-.623.281-.161.619-.28 1.028-.368s.889-.146 1.453-.187c.563-.04 1.213-.063 1.96-.079.117-.002.234-.004.351-.006s.234-.003.351-.005.232-.002.349-.003.232-.001.349-.001c1.291 0 2.563.042 3.792.162 1.229.119 2.416.313 3.535.618 1.12.305 2.174.719 3.139 1.276s1.84 1.26 2.603 2.138" fill="#856125"/></g><g clip-path="url(#x)" enable-background="new"><path d="m299.923 31.896-.294 10.651c-.715-1.043-1.443-2.036-2.235-2.937-.793-.9-1.65-1.71-2.621-2.389s-2.056-1.228-3.306-1.607c-1.249-.379-2.663-.588-4.292-.588-.315 0-.639.008-.971.023-.332.016-.672.04-1.021.073-.349.032-.707.073-1.074.123-.366.05-.742.108-1.129.175-2.375.413-4.541 1.044-6.451 1.875-1.912.831-3.57 1.862-4.934 3.075-1.362 1.214-2.43 2.609-3.157 4.169-.729 1.561-1.118 3.286-1.126 5.157-.008 1.873-.018 6.478-.026 12.343-.009 5.876-.019 13.024-.027 19.957-.009 6.948-.016 13.679-.021 18.688-.006 5.018-.01 8.301-.01 8.338 0 .163 0 .321.002.476.002.153.007.303.013.447.007.146.015.286.026.424.011.137.024.271.041.401l-1.038-7.955c-.019-.136-.032-.275-.044-.418-.012-.144-.021-.29-.027-.44-.006-.151-.01-.306-.012-.466-.003-.16-.004-.324-.003-.494 0-.038.005-3.453.011-8.671.007-5.208.016-12.206.025-19.43.01-7.206.021-14.635.032-20.743.011-6.096.021-10.881.029-12.827.009-1.944.414-3.737 1.173-5.359.758-1.621 1.869-3.071 3.288-4.332 1.418-1.26 3.145-2.332 5.134-3.195 1.99-.863 4.243-1.519 6.717-1.948.401-.07.793-.13 1.175-.182s.755-.094 1.118-.128.717-.059 1.063-.075c.345-.017.682-.024 1.01-.024 1.695 0 3.167.217 4.468.611s2.431.964 3.44 1.669c1.011.706 1.902 1.547 2.728 2.482.824.936 1.582 1.966 2.326 3.051" fill="#856125"/></g><g clip-path="url(#y)" enable-background="new"><path d="m325.165 103.814-1.3 7.918c.014-.088.027-.177.041-.267s.026-.182.039-.273c.012-.093.023-.186.035-.28.011-.095.021-.19.031-.288l1.307-7.961c-.011.101-.021.2-.033.299s-.023.195-.037.292c-.012.096-.025.19-.039.284-.014.092-.03.185-.044.276" fill="#8f6b25"/><path d="m325.318 102.663-1.307 7.961c.01-.1.02-.2.029-.303s.018-.206.025-.311c.008-.105.015-.212.021-.319s.012-.216.017-.326c.1-2.15.292-6.758.513-12.605.221-5.838.469-12.907.684-20.005.213-7.081.392-14.191.473-20.142.081-5.939.065-10.729-.109-13.191l1.358-10.617c.183 2.56.2 7.536.117 13.708-.083 6.185-.268 13.574-.487 20.935-.222 7.379-.479 14.729-.707 20.798-.229 6.081-.428 10.872-.531 13.108-.005.114-.011.228-.018.34-.007.111-.014.222-.021.331-.009.109-.018.217-.027.323-.01.106-.02.21-.03.315" fill="#8a6625"/><path d="m327.022 32.804-1.358 10.617c-.008-.097-.014-.19-.021-.279-.008-.09-.016-.175-.023-.258-.008-.082-.016-.16-.023-.235-.009-.075-.018-.145-.026-.212-.237-1.77-.686-3.276-1.248-4.551-.563-1.274-1.239-2.316-1.937-3.158-.696-.841-1.413-1.483-2.055-1.956-.641-.473-1.206-.778-1.602-.945l1.072-11.068c.412.174 1.001.49 1.668.982.668.491 1.414 1.158 2.139 2.033.726.875 1.431 1.957 2.016 3.28.586 1.324 1.053 2.89 1.301 4.729.01.069.018.143.027.22.008.078.017.159.025.244s.016.175.023.268.015.189.022.289" fill="#856125"/></g><g clip-path="url(#z)" enable-background="new"><path d="m392.019 105.258-3.957 7.861c.027-.053.053-.105.078-.159s.051-.107.076-.163c.025-.055.05-.11.074-.167.023-.056.048-.112.071-.17l3.969-7.889c-.024.061-.05.119-.074.178-.025.059-.051.116-.077.174-.025.057-.052.113-.078.169-.027.057-.055.112-.082.166" fill="#997526"/><path d="m392.331 104.572-3.969 7.889c.05-.124.099-.251.146-.381s.093-.263.136-.398c.044-.137.086-.275.127-.418.04-.143.078-.289.115-.438l3.99-7.953c-.039.155-.079.307-.121.455s-.086.293-.131.435-.093.28-.142.415c-.048.134-.099.266-.151.394" fill="#947026"/><path d="m392.876 102.872-3.99 7.953c.053-.21.102-.428.146-.651.045-.225.087-.456.125-.693.039-.238.073-.483.105-.736.031-.252.059-.512.084-.779l4.006-8.068c-.025.278-.055.549-.087.812s-.069.518-.108.765c-.04.248-.083.488-.131.722-.046.229-.096.456-.15.675" fill="#8f6b25"/><path d="m393.353 99.896-4.006 8.068c.002-.025.004-.05.006-.074.002-.025.005-.051.007-.075.002-.025.005-.05.007-.075s.004-.051.006-.076c.143-1.781.404-5.975.715-11.318.311-5.335.669-11.813 1.007-18.183.337-6.355.654-12.604.882-17.508.229-4.897.367-8.458.351-9.458-.003-.149-.005-.295-.01-.437-.004-.142-.009-.279-.015-.414s-.013-.265-.021-.392-.017-.25-.027-.37l4.086-10.376c.011.125.02.252.029.384.008.132.016.267.021.407s.012.283.016.43.008.298.011.454c.018 1.038-.125 4.739-.358 9.828-.234 5.097-.559 11.592-.906 18.198-.348 6.621-.716 13.356-1.035 18.903-.319 5.558-.589 9.918-.736 11.771-.002.026-.005.052-.007.078-.003.026-.005.053-.007.078-.002.026-.004.053-.007.078-.004.028-.007.054-.009.079" fill="#8a6625"/><path d="m396.339 39.209-4.086 10.376c-.059-.682-.159-1.249-.324-1.717-.164-.468-.395-.838-.713-1.126s-.727-.494-1.248-.634c-.521-.141-1.157-.215-1.93-.24l3.91-10.521c.805.026 1.465.104 2.008.249.543.146.969.36 1.301.659s.571.684.743 1.171.277 1.075.339 1.783" fill="#856125"/></g><g clip-path="url(#A)" enable-background="new"><path d="m365.63 105.272-2.908 7.861c.03-.082.06-.165.088-.25.029-.085.057-.171.084-.258.027-.088.053-.176.078-.266.025-.091.05-.182.073-.274l2.921-7.902c-.023.096-.049.19-.075.284s-.054.186-.081.276c-.029.091-.058.181-.088.269-.029.088-.06.175-.092.26" fill="#947026"/><path d="m365.966 104.183-2.921 7.902c.036-.142.069-.286.101-.435s.06-.3.086-.454c.026-.155.051-.313.072-.475.021-.161.039-.326.055-.494l2.934-7.977c-.016.175-.035.346-.058.514s-.047.332-.074.493-.058.318-.09.472c-.032.155-.068.307-.105.454" fill="#8f6b25"/><path d="m366.292 102.251-2.934 7.977c.005-.043.009-.086.013-.13.003-.043.007-.087.011-.131.003-.044.006-.089.01-.133.002-.044.006-.089.008-.134.119-2.036.29-5.971.479-10.754.189-4.775.396-10.394.59-15.813.193-5.408.374-10.619.51-14.599.137-3.975.229-6.726.244-7.226l2.986-9.916c-.018.52-.111 3.378-.252 7.51-.139 4.137-.324 9.553-.523 15.176-.199 5.633-.412 11.475-.605 16.439-.193 4.974-.369 9.066-.492 11.184-.004.046-.006.093-.01.139-.003.047-.006.093-.01.138-.004.046-.007.092-.011.137-.005.047-.009.092-.014.136" fill="#8a6625"/></g><g clip-path="url(#B)" enable-background="new"><path d="m272.425 109.487.795 7.698c-1.125 0-2.945 0-5.104 0s-4.654 0-7.133 0-4.939 0-7.026 0-3.8 0-4.782 0l-1.791-7.698h4.98 7.316 7.43z" fill="#856125"/></g><path d="m269.394 58.229c5.028-3.129 9.23-5.931 12.76-8.475 3.525-2.542 6.381-4.827 8.719-6.927 2.338-2.099 4.158-4.012 5.615-5.812 1.457-1.798 2.551-3.481 3.436-5.121-.744-1.084-1.502-2.115-2.327-3.051s-1.717-1.777-2.728-2.482c-1.01-.705-2.14-1.275-3.44-1.669s-2.772-.611-4.468-.611c-.328 0-.665.008-1.01.024-.346.017-.699.042-1.063.075s-.736.076-1.118.128c-.382.051-.773.112-1.175.182-2.474.429-4.727 1.085-6.717 1.948-1.989.863-3.716 1.935-5.134 3.195-1.419 1.261-2.53 2.711-3.288 4.332-.759 1.622-1.164 3.415-1.173 5.359-.009 1.946-.019 6.731-.029 12.827-.011 6.108-.022 13.537-.032 20.743-.01 7.224-.019 14.222-.025 19.43-.006 5.218-.011 8.633-.011 8.671-.004.882.026 1.622.165 2.293.137.671.381 1.273.805 1.882s1.025 1.223 1.88 1.917 1.96 1.469 3.39 2.398c-1.172 0-3.067 0-5.314 0-2.248 0-4.848 0-7.43 0-2.58 0-5.143 0-7.316 0s-3.957 0-4.98 0c.407-.042.91-.145 1.438-.374.527-.229 1.078-.584 1.578-1.131.501-.546.952-1.285 1.281-2.28.328-.995.533-2.247.545-3.821.014-2.117.01-6.612-.021-12.271-.032-5.649-.092-12.454-.191-19.21-.099-6.741-.236-13.436-.423-18.894-.187-5.449-.423-9.67-.72-11.488-.299-1.816-.655-3.156-1.059-4.147-.402-.991-.853-1.634-1.336-2.055-.484-.421-1.002-.621-1.544-.725-.541-.105-1.105-.115-1.681-.156 5.275-2.915 9.955-5.255 14.192-7.125 4.235-1.869 8.029-3.27 11.537-4.307 3.507-1.037 6.728-1.71 9.815-2.124s6.042-.569 9.016-.569h.317c.105 0 .212.001.317.002.105 0 .211.001.316.002.106.001.213.002.318.004 3.088.042 5.879.32 8.472.861 2.593.542 4.988 1.347 7.286 2.443s4.499 2.483 6.702 4.188c2.205 1.706 4.413 3.73 6.724 6.1-4.228 4.619-8.652 8.325-13.13 11.341-4.481 3.019-9.013 5.344-13.448 7.199-4.438 1.856-8.777 3.241-12.873 4.379-4.1 1.142-7.953 2.033-11.42 2.902z" fill="#deba27"/><g clip-path="url(#C)" enable-background="new"><path d="m247.384 109.487 1.791 7.698c-.045.005-.088.009-.131.012s-.084.006-.123.008c-.04.002-.078.003-.115.004s-.072.001-.105.001l-1.811-7.697c.035 0 .072-.001.109-.002.039-.001.078-.002.12-.004.041-.002.084-.005.128-.008.045-.003.09-.007.137-.012" fill="#856125"/></g><path d="m246.89 109.512c-.069 0-.132-.002-.186-.004-.055-.003-.102-.006-.139-.009-.038-.003-.068-.006-.088-.009-.021-.002-.032-.004-.035-.004h.07s.103 0 .182 0h.291s.248 0 .398 0c-.047.005-.092.009-.137.012-.044.003-.087.006-.128.008-.042.002-.081.003-.12.004-.036.001-.073.002-.108.002z" fill="#e0bc27"/><g clip-path="url(#D)" enable-background="new"><path d="m246.89 109.512 1.811 7.697c-.066 0-.127-.001-.179-.004-.052-.002-.097-.005-.133-.008s-.064-.006-.085-.008c-.02-.003-.03-.004-.032-.005l-1.829-7.698c.003 0 .014.002.035.004.02.003.05.006.088.009.037.003.084.006.139.009.053.002.116.004.185.004" fill="#856125"/></g><g clip-path="url(#E)" enable-background="new"><path d="m344.223 110.777-2.06 7.649c-2.955 0-5.872 0-8.596 0-2.723 0-5.252 0-7.43 0-2.179 0-4.006 0-5.325 0s-2.132 0-2.279 0l1.081-7.649h2.373 5.546s4.902 0 7.738 0 5.875 0 8.952 0" fill="#856125"/></g><g clip-path="url(#F)" enable-background="new"><path d="m403.253 111.251-4.407 7.631c-1.636-.056-3.546-.172-5.499-.316s-3.949-.314-5.758-.48c-1.81-.167-3.432-.328-4.639-.451-1.205-.124-1.996-.21-2.139-.226l3.659-7.689c.149.016.972.105 2.229.233 1.256.129 2.946.297 4.83.47 1.885.173 3.964.352 5.997.501 2.035.149 4.024.27 5.727.327" fill="#856125"/></g><g clip-path="url(#G)" enable-background="new"><path d="m383.892 111.019-3.637 7.64c-3.098-.028-6.129-.057-8.943-.083-2.813-.026-5.41-.052-7.639-.073s-4.09-.04-5.43-.054c-1.34-.013-2.16-.021-2.311-.022l2.631-7.649c.154.002 1.01.01 2.405.024 1.396.014 3.333.032 5.653.056 2.322.022 5.026.048 7.957.076 2.932.026 6.089.056 9.314.085" fill="#856125"/></g><path d="m319.8 20.758 29.313 1.383c-1.26.516-2.329 1.06-3.222 1.629-.892.569-1.607 1.164-2.162 1.78-.555.617-.946 1.255-1.191 1.912-.246.657-.344 1.333-.309 2.024.035.689.053 1.937.062 3.43.008 1.494.005 3.235-.002 4.909-.007 1.676-.019 3.285-.029 4.514-.011 1.23-.019 2.079-.021 2.233h26.232c.001-.116.01-.75.014-1.707.004-.956.002-2.232-.016-3.63-.018-1.397-.053-2.916-.116-4.359-.063-1.441-.155-2.807-.288-3.898-.132-1.093-.453-2.035-.908-2.848-.453-.813-1.041-1.499-1.703-2.081-.662-.581-1.399-1.058-2.156-1.453-.758-.396-1.533-.71-2.271-.967 3.798.028 7.332.09 10.506.168s5.988.171 8.346.262 4.258.18 5.605.248 2.143.115 2.287.124c-.844.717-1.548 1.312-2.145 2.002-.598.69-1.086 1.477-1.498 2.576-.41 1.099-.743 2.511-1.027 4.454-.285 1.944-.521 4.421-.74 7.649-.216 3.231-.487 8.266-.773 14.091-.287 5.836-.59 12.47-.867 18.878-.277 6.421-.529 12.614-.714 17.545-.186 4.938-.304 8.605-.313 9.959-.01 1.354.074 2.54.25 3.576.176 1.037.441 1.925.797 2.685.354.76.796 1.39 1.322 1.912.527.522 1.139.936 1.83 1.261-3.225-.029-6.382-.059-9.313-.086-2.931-.028-5.635-.054-7.957-.076-2.32-.023-4.258-.042-5.653-.056-1.396-.015-2.251-.022-2.405-.024.091-.007.591-.047 1.298-.236.708-.188 1.621-.526 2.539-1.129s1.84-1.469 2.563-2.716 1.247-2.873 1.371-4.993c.123-2.117.299-6.21.492-11.184.193-4.965.406-10.807.605-16.439.199-5.623.385-11.039.523-15.176.141-4.131.234-6.99.252-7.51-3.521.059-6.891.104-9.977.137s-5.887.056-8.266.07c-2.381.015-4.34.022-5.742.026-1.402.003-2.248.003-2.402.003-.025.58-.17 3.773-.367 8.312-.199 4.544-.45 10.443-.691 16.417-.24 5.986-.47 12.051-.623 16.903-.152 4.859-.229 8.499-.16 9.618.067 1.118.201 2.111.406 2.987.203.876.479 1.636.827 2.284s.771 1.187 1.271 1.622c.501.435 1.079.767 1.738 1.002-3.077 0-6.115 0-8.951 0s-5.47 0-7.738 0-4.171 0-5.546 0c-1.373 0-2.219 0-2.373 0 .066-.001.436-.01.959-.166.523-.157 1.199-.463 1.881-1.06s1.367-1.483 1.91-2.804c.543-1.319.941-3.07 1.049-5.395s.318-7.407.559-13.83c.238-6.409.507-14.148.73-21.813.223-7.645.4-15.216.462-21.33.061-6.102.005-10.758-.241-12.599-.248-1.839-.715-3.405-1.301-4.729-.585-1.323-1.29-2.406-2.016-3.28-.725-.875-1.471-1.542-2.139-2.033-.666-.487-1.255-.804-1.667-.978z" fill="#deba27"/><g clip-path="url(#H)" enable-background="new"><path d="m431.41 109.887-5.525 7.683c-.553.769-1.104 1.492-1.648 2.169s-1.081 1.306-1.604 1.884c-.521.578-1.029 1.105-1.516 1.577s-.951.889-1.388 1.246l5.277-7.407c.454-.372.938-.806 1.444-1.297.506-.49 1.033-1.038 1.577-1.64s1.102-1.256 1.668-1.96c.566-.703 1.14-1.457 1.715-2.255" fill="#856125"/></g><g clip-path="url(#I)" enable-background="new"><path d="m425.006 117.039-5.277 7.407c.57-1.086 1.118-2.154 1.642-3.207.525-1.052 1.025-2.087 1.504-3.106s.934-2.023 1.366-3.012.842-1.962 1.229-2.921l5.504-7.898c-.401.997-.827 2.01-1.276 3.038s-.923 2.072-1.42 3.132c-.497 1.061-1.018 2.138-1.563 3.231-.547 1.094-1.116 2.207-1.709 3.336" fill="#997526"/><path d="m430.973 104.301-5.504 7.898c.38-.944.738-1.874 1.075-2.791.336-.916.65-1.819.942-2.711.292-.891.562-1.77.811-2.636.248-.867.475-1.722.679-2.566l5.639-8.325c-.212.878-.447 1.767-.705 2.668s-.537 1.814-.841 2.741-.63 1.866-.979 2.819c-.35.955-.721 1.922-1.117 2.903" fill="#947026"/><path d="m434.615 93.17-5.639 8.325c.162-.666.311-1.326.444-1.979s.255-1.3.362-1.94.201-1.274.281-1.903c.08-.628.146-1.25.199-1.867l5.684-8.632c-.055.641-.123 1.288-.205 1.941-.084.653-.18 1.313-.291 1.979s-.236 1.338-.375 2.018c-.139.679-.292 1.365-.46 2.058" fill="#8f6b25"/><path d="m435.947 85.173-5.684 8.632c.053-.611.092-1.217.117-1.817.026-.601.039-1.196.039-1.787-.001-.591-.015-1.177-.042-1.758-.026-.582-.066-1.158-.12-1.731l5.678-8.914c.056.596.098 1.196.127 1.801.027.604.043 1.214.044 1.827.001.614-.012 1.233-.038 1.858-.026.624-.067 1.254-.121 1.889" fill="#8a6625"/><path d="m435.935 77.797-5.678 8.914c-.043-.469-.096-.936-.156-1.399-.062-.463-.131-.924-.21-1.383s-.167-.915-.263-1.369-.201-.905-.314-1.355c-.752-2.97-2.381-6.076-4.484-9.096-2.101-3.017-4.674-5.946-7.316-8.566-2.641-2.619-5.352-4.929-7.73-6.709-2.377-1.779-4.423-3.029-5.737-3.529-.429-.164-.825-.316-1.193-.454-.367-.138-.706-.26-1.019-.361-.312-.102-.598-.183-.859-.239-.262-.056-.5-.086-.717-.086-.18 0-.345.021-.498.065-.152.044-.291.112-.42.207-.129.094-.246.215-.354.365-.107.15-.206.33-.297.542l4.352-10.229c.094-.22.196-.406.309-.563.111-.156.234-.282.367-.379.134-.099.279-.169.438-.215s.331-.067.518-.067c.227 0 .475.032.748.09.271.058.569.142.895.248.324.105.678.232 1.061.375s.795.302 1.242.471c1.369.52 3.5 1.819 5.976 3.667 2.478 1.85 5.301 4.25 8.052 6.972 2.754 2.724 5.436 5.77 7.625 8.905 2.193 3.139 3.893 6.368 4.678 9.455.118.468.229.938.328 1.409.102.473.193.946.275 1.424.082.477.155.956.22 1.438.059.481.114.965.161 1.452" fill="#856125"/></g><path d="m402.329 24.409c.277 0 .563.026.856.08.295.053.6.133.916.239.316.107.645.241.986.401.343.161.699.349 1.072.565 1.49.86 3.865 2.202 6.689 3.927 2.824 1.726 6.097 3.836 9.378 6.231 3.284 2.397 6.577 5.082 9.438 7.954 2.863 2.875 5.295 5.938 6.852 9.09.174-3.704.213-6.919.115-9.69-.098-2.769-.332-5.096-.705-7.025-.371-1.928-.88-3.459-1.527-4.637-.646-1.178-1.433-2.004-2.357-2.521.424-.006.844-.011 1.258-.015.415-.004.824-.007 1.229-.01s.803-.004 1.195-.006c.392-.001.777-.001 1.156-.001 1.516 0 2.908.009 4.148.021 1.239.013 2.325.031 3.229.048.904.018 1.625.036 2.133.049.509.014.805.024.858.026-1.244.833-2.179 1.422-2.882 1.988-.704.566-1.176 1.108-1.496 1.849s-.489 1.68-.584 3.039c-.096 1.359-.117 3.14-.146 5.563-.025 2.423-.076 5.628-.176 9.289-.1 3.666-.247 7.789-.467 12.041-.219 4.258-.51 8.647-.896 12.833-.386 4.193-.866 8.183-1.466 11.637-.6 3.459-1.59 6.781-2.818 9.886-1.23 3.106-2.697 5.993-4.248 8.577-1.551 2.586-3.186 4.868-4.748 6.763-1.563 1.896-3.054 3.401-4.315 4.437 2.467-4.698 4.519-9.087 6.159-13.221 1.639-4.128 2.867-8.003 3.689-11.678.821-3.672 1.236-7.145 1.25-10.473.014-3.324-.373-6.505-1.158-9.595-.785-3.087-2.484-6.315-4.678-9.455-2.189-3.135-4.871-6.181-7.625-8.905-2.751-2.721-5.574-5.122-8.052-6.972-2.476-1.849-4.606-3.148-5.976-3.667-.447-.169-.859-.329-1.242-.471-.383-.143-.736-.27-1.061-.375-.325-.106-.623-.19-.895-.248-.273-.058-.521-.09-.748-.09-.466 0-.839.134-1.145.449-.307.314-.545.809-.74 1.53s-.349 1.668-.484 2.887c-.136 1.22-.254 2.713-.379 4.524-.189 2.693-.453 7.011-.742 12.026-.29 5.022-.607 10.746-.902 16.232-.297 5.497-.571 10.755-.776 14.825-.205 4.076-.341 6.959-.356 7.696-.018.735.072 1.588.256 2.477.184.89.461 1.813.82 2.69s.8 1.706 1.309 2.404c.51.699 1.088 1.268 1.723 1.621-1.703-.058-3.692-.179-5.727-.328-2.033-.149-4.112-.328-5.997-.501-1.884-.173-3.574-.341-4.83-.47-1.257-.128-2.079-.218-2.229-.233 1.31-.177 2.485-.436 3.52-.839 1.034-.404 1.929-.953 2.679-1.713.749-.759 1.353-1.728 1.807-2.971.453-1.243.756-2.759.904-4.612.147-1.853.417-6.213.736-11.771.319-5.547.688-12.282 1.035-18.903.348-6.606.672-13.101.906-18.198.233-5.089.376-8.79.358-9.828-.019-1.04-.07-1.898-.196-2.603-.127-.705-.329-1.255-.646-1.68-.318-.425-.751-.724-1.342-.924-.59-.2-1.338-.301-2.283-.332 1.209-1.79 2.254-3.368 3.195-4.729.939-1.36 1.775-2.503 2.563-3.423.789-.919 1.529-1.615 2.28-2.082.752-.462 1.514-.699 2.343-.699z" fill="#deba27"/><g clip-path="url(#J)" enable-background="new"><path d="m492.069 119.762-7.95 7.302c-1.299-.199-3.228-.547-5.581-1.272-2.353-.726-5.131-1.827-8.131-3.532-2.997-1.704-6.215-4.01-9.448-7.144-3.229-3.13-6.473-7.084-9.526-12.085-1.103-1.807-2.059-3.645-2.883-5.495-.823-1.85-1.517-3.714-2.093-5.577-.575-1.861-1.035-3.722-1.393-5.565s-.615-3.669-.787-5.464l6.249-9.143c.18 1.865.449 3.765.824 5.68.375 1.918.855 3.852 1.457 5.787.602 1.937 1.325 3.875 2.185 5.799.86 1.925 1.858 3.835 3.008 5.715 3.186 5.199 6.567 9.312 9.935 12.567 3.371 3.259 6.725 5.657 9.849 7.43 3.126 1.773 6.021 2.92 8.473 3.674 2.451.754 4.458 1.116 5.812 1.323" fill="#856125"/><path d="m450.526 71.787-6.249 9.143c-.094-.983-.161-1.957-.205-2.918-.045-.961-.066-1.91-.067-2.845s.021-1.855.059-2.759c.038-.902.095-1.789.168-2.655l6.234-9.584c-.075.901-.133 1.822-.172 2.761-.039.938-.06 1.896-.058 2.866.001.972.024 1.959.072 2.958.047.998.119 2.01.218 3.033" fill="#8a6625"/><path d="m450.465 60.168-6.234 9.584c.074-.884.165-1.747.27-2.588s.223-1.659.353-2.452c.129-.792.27-1.56.419-2.299s.308-1.451.472-2.132l6.286-9.956c-.17.708-.334 1.447-.488 2.215-.155.769-.301 1.566-.435 2.39s-.257 1.674-.364 2.548c-.109.874-.202 1.772-.279 2.69" fill="#8f6b25"/><path d="m452.03 50.326-6.286 9.956c.145-.603.295-1.181.447-1.734.153-.553.309-1.081.466-1.581s.314-.972.472-1.416c.158-.443.314-.857.469-1.24l6.354-10.191c-.159.398-.322.828-.485 1.289s-.327.952-.49 1.472c-.162.52-.324 1.067-.482 1.643-.16.574-.315 1.175-.465 1.802" fill="#947026"/><path d="m453.952 44.12-6.354 10.191c.05-.126.101-.248.15-.367.05-.119.1-.234.148-.346.05-.112.099-.221.146-.326.049-.105.097-.207.145-.305.107-.223.213-.442.313-.658.102-.216.198-.428.291-.636.094-.208.184-.413.27-.614s.168-.399.246-.593l6.421-10.341c-.081.202-.167.407-.256.616s-.182.422-.278.639c-.098.216-.198.437-.303.661-.104.225-.213.452-.325.685-.05.102-.1.207-.149.316-.051.109-.102.222-.152.338-.051.116-.103.236-.154.36s-.107.25-.159.38" fill="#997526"/><path d="m455.727 40.124-6.421 10.341c.105-.262.205-.518.297-.768s.178-.493.256-.73c.08-.237.151-.469.217-.695.065-.226.124-.446.176-.66l6.456-10.453c-.054.223-.114.451-.182.686-.067.234-.143.475-.225.722-.081.247-.17.5-.266.759-.095.26-.198.526-.308.798" fill="#947026"/><path d="m456.708 37.159-6.456 10.453c.034-.145.066-.287.095-.426.029-.14.055-.276.077-.411.023-.134.043-.267.06-.396s.03-.257.04-.382l6.466-10.517c-.011.13-.024.263-.041.397-.018.135-.038.272-.062.412-.023.14-.05.282-.079.427-.031.145-.064.293-.1.443" fill="#8f6b25"/><path d="m456.989 35.48-6.466 10.517c.01-.108.016-.215.021-.32s.007-.208.007-.31c0-.101-.003-.201-.007-.299-.005-.098-.012-.194-.021-.29l6.465-10.564c.01.099.017.199.022.301s.007.206.007.311c.001.105-.002.212-.006.321-.006.11-.012.221-.022.333" fill="#8a6625"/><path d="m456.987 34.214-6.465 10.564c-.04-.411-.123-.792-.248-1.146-.126-.354-.294-.681-.505-.982-.212-.302-.465-.579-.762-.835s-.635-.49-1.017-.705l6.356-10.707c.397.224.751.467 1.06.732s.573.554.793.868.396.653.527 1.021c.132.367.219.763.261 1.19" fill="#856125"/></g><path d="m457.079 30.12c.668 0 1.454.03 2.395.093s2.036.161 3.325.294c1.288.134 2.769.305 4.479.516 1.712.211 3.652.463 5.861.759 3.027.405 5.865.76 8.48 1.064 2.614.304 5.006.557 7.141.759s4.013.354 5.601.455c1.589.101 2.887.151 3.86.151h.188c.063 0 .122-.001.181-.002s.116-.002.172-.003.109-.003.162-.005c.559-.02 1.078-.077 1.557-.15s.916-.165 1.311-.253.746-.174 1.053-.237c.308-.064.569-.105.784-.105.114 0 .216.012.303.038.088.026.162.067.223.125.061.059.107.134.141.23s.053.212.058.353c.014.402-.175.898-.542 1.562-.368.664-.914 1.495-1.613 2.568-.7 1.073-1.555 2.388-2.538 4.019-.984 1.631-2.099 3.579-3.317 5.918-.009-.11-.054-.713-.281-1.596s-.636-2.045-1.37-3.272c-.735-1.227-1.796-2.519-3.327-3.663-1.531-1.143-3.532-2.139-6.149-2.772-.247-.06-.491-.112-.733-.156s-.481-.08-.718-.109-.472-.05-.703-.064-.46-.021-.687-.021c-2.175 0-4.117.633-5.835 1.634s-3.212 2.37-4.488 3.84c-1.277 1.471-2.337 3.044-3.185 4.453-.849 1.409-1.486 2.653-1.918 3.464-.477.896-.746 1.568-.783 2.075-.037.506.158.846.608 1.078s1.156.355 2.142.429 2.252.097 3.82.127c1.568.028 3.414.137 5.3.292 1.886.156 3.813.358 5.543.575 1.731.217 3.268.449 4.372.663s1.777.41 1.781.555c.005.145-.054.377-.225.706s-.453.756-.896 1.292c-.441.536-1.042 1.18-1.851 1.944-.808.765-1.822 1.65-3.093 2.667-.763-.878-1.638-1.58-2.603-2.137s-2.019-.972-3.139-1.276c-1.119-.305-2.306-.5-3.535-.618-1.229-.119-2.501-.162-3.792-.162-.116 0-.232 0-.349.001s-.232.001-.349.003-.233.003-.351.005c-.116.001-.233.004-.351.006-1.419.031-2.483.083-3.287.239s-1.348.417-1.728.867c-.379.45-.594 1.087-.74 1.998s-.225 2.093-.329 3.633c-.113 7.511.684 14.156 2.182 20.033 1.501 5.888 3.705 11.001 6.399 15.439 2.697 4.444 5.887 8.209 9.352 11.395 3.469 3.19 7.214 5.799 11.021 7.929-1.354-.207-3.361-.569-5.813-1.324-2.452-.754-5.347-1.9-8.473-3.674-3.124-1.772-6.478-4.171-9.849-7.43-3.367-3.256-6.749-7.368-9.935-12.567-3.177-5.191-5.188-10.615-6.365-15.937-1.175-5.312-1.52-10.521-1.363-15.298.155-4.769.811-9.106 1.636-12.685.824-3.574 1.819-6.391 2.658-8.124.838-1.73 1.461-3.243 1.869-4.57.407-1.326.601-2.467.581-3.452s-.253-1.816-.698-2.522c-.444-.706-1.102-1.288-1.97-1.777.167-.045.344-.086.535-.121s.396-.064.619-.089c.223-.024.463-.042.725-.055.261-.014.544-.02.853-.02z" fill="#deba27"/></g></svg>