<svg enable-background="new -1 -1 568.929 116.145" height="116.145" viewBox="-1 -1 568.929 116.145" width="568.929" xmlns="http://www.w3.org/2000/svg"><g stroke="#fff" stroke-width="2"><path d="m34.216 86.073v-53.208h47.952c3.215 0 5.951.313 8.208.936 2.255.625 4.068 1.548 5.436 2.772s2.363 2.736 2.988 4.536c.624 1.8.936 3.876.936 6.228v24.263c0 2.354-.313 4.429-.936 6.229-.625 1.801-1.62 3.313-2.988 4.536-1.368 1.224-3.181 2.149-5.436 2.772-2.257.624-4.993.936-8.208.936zm10.44-10.44h37.584c2.352 0 4.068-.371 5.148-1.117 1.08-.743 1.62-1.859 1.62-3.348v-23.4c0-1.487-.54-2.603-1.62-3.348-1.08-.744-2.796-1.116-5.148-1.116h-37.584z"/><path d="m108.952 86.073v-53.208h65.448v10.44h-55.008v6.984h45v9.72h-45v15.625h55.152v10.439z"/><path d="m182.175 86.073v-10.44h46.08c2.352 0 4.068-.371 5.148-1.117 1.08-.743 1.619-1.859 1.619-3.348v-5.472c0-1.487-.539-2.604-1.619-3.349-1.08-.743-2.797-1.115-5.148-1.115h-30.672c-10.272 0-15.408-3.816-15.408-11.448v-6.696c0-6.815 5.087-10.224 15.264-10.224h46.152v10.44h-46.511c-1.584 0-2.664.156-3.24.468-.576.313-.864.804-.864 1.476v3.168c0 .864.288 1.476.864 1.836s1.68.54 3.312.54h31.032c3.216 0 5.951.313 8.208.936 2.256.625 4.068 1.548 5.437 2.772 1.368 1.224 2.363 2.736 2.987 4.536s.937 3.877.937 6.228v6.336c0 2.354-.313 4.429-.937 6.229-.624 1.801-1.619 3.313-2.987 4.536s-3.181 2.149-5.437 2.772c-2.257.624-4.992.936-8.208.936z"/><path d="m254.823 86.073v-53.208h10.44v20.016h6.336l32.328-20.016h19.871l-41.688 24.624 44.208 28.584h-19.296l-35.424-23.977h-6.336v23.977z"/><path d="m351.302 86.073v-42.769h-27.575v-10.44h65.592v10.44h-27.576v42.768h-10.441z"/><path d="m411.135 86.073c-3.265 0-6.013-.312-8.244-.936-2.232-.623-4.032-1.549-5.4-2.772s-2.364-2.735-2.987-4.536c-.625-1.8-.937-3.875-.937-6.229v-24.263c0-2.352.312-4.428.937-6.228.623-1.8 1.619-3.312 2.987-4.536s3.168-2.147 5.4-2.772c2.231-.623 4.979-.936 8.244-.936h30.456c3.215 0 5.951.313 8.208.936 2.255.625 4.067 1.548 5.436 2.772s2.364 2.736 2.988 4.536c.623 1.8.936 3.876.936 6.228v24.263c0 2.354-.313 4.429-.936 6.229-.624 1.801-1.62 3.313-2.988 4.536s-3.181 2.149-5.436 2.772c-2.257.624-4.993.936-8.208.936zm-6.84-14.905c0 1.488.54 2.604 1.619 3.348 1.08.746 2.796 1.117 5.148 1.117h30.6c2.352 0 4.068-.371 5.148-1.117 1.08-.743 1.62-1.859 1.62-3.348v-23.4c0-1.487-.54-2.603-1.62-3.348-1.08-.744-2.797-1.116-5.148-1.116h-30.6c-2.353 0-4.068.373-5.148 1.116-1.079.745-1.619 1.861-1.619 3.348z"/><path d="m468.375 86.073v-53.208h48.024c3.215 0 5.951.313 8.208.936 2.255.625 4.067 1.548 5.436 2.772s2.363 2.736 2.988 4.536c.623 1.8.936 3.876.936 6.228v6.912c0 2.353-.313 4.428-.936 6.229-.625 1.8-1.62 3.312-2.988 4.535-1.368 1.225-3.181 2.149-5.436 2.772-2.257.624-4.993.937-8.208.937h-37.584v17.352h-10.44zm10.44-27.073h37.655c2.352 0 4.068-.371 5.148-1.116 1.08-.744 1.62-1.86 1.62-3.348v-6.768c0-1.487-.54-2.603-1.62-3.348-1.08-.744-2.797-1.116-5.148-1.116h-37.655z"/></g></svg>