<svg viewBox="0 0 3840 477.90002" xmlns="http://www.w3.org/2000/svg" xmlns:xlink="http://www.w3.org/1999/xlink"><linearGradient id="a" gradientTransform="matrix(1 0 0 -1 0 477.88983)" gradientUnits="userSpaceOnUse" x1="820.79999" x2="3095.90015" y1="282.43982" y2="282.43982"><stop offset=".1596" stop-color="#ea2427"/><stop offset=".5303" stop-color="#ffcc05"/><stop offset=".7318" stop-color="#6dbd46"/><stop offset="1" stop-color="#46a2da"/></linearGradient><g fill="#fff"><path d="m2618.1001 415.5h25.8c19.2 0 27.5 14 27.5 31.2s-8.3 31.2-27.5 31.2h-25.8zm10.8999 53.4h10.7c17.1001 0 20.8-9.8 20.8-22.3s-3.7-22.3-20.8-22.3h-10.7z"/><path d="m2710.80005 415.5h11.6001l24 62.3h-11.69995l-5.80005-16.5h-24.90015l-5.8 16.5h-11.3001zm-3.8 37.6h19l-9.3-26.8h-.30005z"/><path d="m2751.3999 415.5h50.3999v9.4h-19.8v52.9h-10.89991v-52.8h-19.7z"/><path d="m2830.80005 415.5h11.6001l24 62.3h-11.69995l-5.80005-16.5h-24.90015l-5.8 16.5h-11.3001zm-3.8 37.6h19l-9.3-26.8h-.30005z"/><path d="m2922.7 415.5h10.8999v52.9h31.69995v9.4h-42.60009v-62.3z"/><path d="m2971.8999 415.5h50.3999v9.4h-19.8v52.9h-10.89991v-52.8h-19.7z"/><path d="m3042.7 415.5h25.8c19.2 0 27.5 14 27.5 31.2s-8.3 31.2-27.5 31.2h-25.8zm10.90015 53.4h10.69995c17.1001 0 20.80005-9.8 20.80005-22.3s-3.7-22.3-20.80005-22.3h-10.7z"/><path d="m3100.7 466.1h12.1001v11.8h-12.1001z"/></g><g fill="#ec2224"><path d="m324.6 327.2-31.6 54.8h-17l31.7-54.8z"/><path d="m389.4 215 73.7-127.6a42.58269 42.58269 0 0 1 36.9-21.3h156.5l8.5-14.7h-164.7a58.2437 58.2437 0 0 0 -50.2 29l-27.8 48.2-.8 1.4-49.1 85z"/><path d="m689.5 8.9h-189.2a100.53758 100.53758 0 0 0 -87 50.2l-27.8 48.2-.8 1.5-61.5 106.2h38.1l80.5-139.4a67.60979 67.60979 0 0 1 58.4-33.7h170.1z"/><path d="m476.6 149.1h131.9l42.4-73.4h-151a33.04956 33.04956 0 0 0 -28.6 16.5l-70.9 122.8h38.1z"/><path d="m373.8 327.2-31.6 54.8h-38.2l31.7-54.8z"/><path d="m258.5 327.2-31.6 54.8h38.1l31.6-54.8z"/><path d="m97.1 149.1h90.1l-12.2 21.2c-38.7 67 9.7 150.7 87 150.7h378.4l-35.1 61h38.1l25.6-44.4a33 33 0 0 0 -28.6-49.5h-378.4a67.45 67.45 0 0 1 -58.4-101.2l12.2-21.2a33 33 0 0 0 -28.6-49.5h-109.2z"/><path d="m58.5 82.3h127.7a67.45 67.45 0 0 1 58.4 101.2l-12.2 21.2a33 33 0 0 0 28.6 49.5h378.4a67.431 67.431 0 0 1 62.2 93.5l-19.8 34.3h38.8l5.8-10c38.7-67-9.7-150.7-87-150.7h-378.4l12.2-21.2c38.7-67-9.7-150.7-87-150.7h-1l-21.9 21.9-21.9-21.9h-102z"/><path d="m147.6 43.1 15.7-15.7 15.8 15.7h16.6l-32.4-32.4-32.4 32.4z"/><path d="m50.4 116.2-50.4-18.4 29.2-18.4 7.2 12.4h149.8a57.95 57.95 0 0 1 50.2 86.9l-12.2 21.2a42.6 42.6 0 0 0 36.9 63.9h378.4a57.95 57.95 0 0 1 50.2 86.9l-18.3 31.3h-17l22.9-39.6a42.6 42.6 0 0 0 -36.9-63.9h-378.4a57.95 57.95 0 0 1 -50.2-86.9l12.2-21.2a42.6 42.6 0 0 0 -36.9-63.9h-142.1z"/></g><path d="m1009.5 8.9h-188.7v373.1h166.2c130.1 0 190.7-72.6 190.7-187.1 0-94-43.8-186-168.2-186zm-28.8 277.5h-44.9v-181.9h36.6c83.1 0 90.4 65.3 90.4 88.8.00005 35.1-10.49995 93.1-82.1 93.1zm516.3-77.4c38.19995-14.1 55.9-54.9 55.9-93.5 0-70.5-56.4-106.6-121.8-106.6h-219v373.1h115v-130.1h61.1c45.5 0 48.6 37.1 51.69995 72.6 1.6 19.3 3.6 38.7 9.4 57.5h115c-10.4-17.2-11-61.7-12.5-80-4.09995-46.5-23.39995-81-54.79995-93zm-109.69995-37.1h-60.1v-74.2h53.8c43.9 0 57 13.6 57 37.1-.00005 33.5-29.30005 37.1-50.7 37.1zm331.79995-163-137.5 373.1h115.5l16.69995-53.3h118.6l15.7 53.3h119.1l-135.79995-373.1zm19.8 239.8 36.1-115h1l33.4 115zm425.4 7.9h50.7c-5.7 27.7-32.8999 41.3-59.6001 41.3-70 0-84.1001-61.1-84.1001-96.1 0-25.6-2.60009-108.7 76.30005-108.7a54.43025 54.43025 0 0 1 54.3 46.5h110.30015c-16.8001-87.9-76.89995-139.6-172-139.6-84.1001 0-183.9 57-183.9 199.1 0 106.1 67.9 191.8 178.20007 191.8 40.8 0 80.5-14.1 106.1001-47l3.69995 38.1h72.6001v-205.4h-152.6001zm372.5-256.6c-113.3999 0-189.19995 81.5-189.19995 195.4s75.8 195.4 189.19995 195.4 189.2-81.5 189.2-195.4-75.8-195.4-189.19995-195.4zm0 297.9c-29.3 0-74.19995-19.3-74.19995-102.4s45-102.5 74.19995-102.5c29.30005 0 74.2 19.3 74.2 102.4s-44.8999 102.5-74.19995 102.5zm450.5-289v199.6h-1.1l-108.7-199.6h-117.6001v373.1h108.7v-203.8h1l114.5002 203.8h111.8v-373.1z" fill="url(#a)"/><path d="m3399 115.5c-2.1001-6.8-7.3-14.1-15.2-19.9-7.3-4.7-16.69995-6.3-28.19995-6.3-39.7 0-59.6001 38.7-63.2 74.7 24.60009-22.5 51.2-28.2 84.10009-28.2 70 0 121.80005 44.9 121.80005 116 0 89.4-62.7 134.3-149.3999 134.3-110.3 0-155.19995-83.6-155.19995-173 0-114.4 52.8-199.1 164.1001-199.1 78.3999 0 125.3999 30.3 136.8999 101.4h-95.70034zm-99.8 137.9c0 28.7 20.8999 50.2 49.69995 50.2 31.3999 0 53.30005-22.5 53.30005-50.2 0-25.6-20.8999-48.1-53.30005-48.1-28.29985.1-49.69995 21-49.69995 48.1z" fill="#fff"/><path d="m3682.2 309.9h-161.5v-98.2l166.1999-193.3h104v202.6h49.1001v88.8h-49.1001v72.2h-108.6999zm-88.8001-88.9h88.8001v-101.9z" fill="#fff"/></svg>