<svg viewBox="0 0 3840 391.30002" xmlns="http://www.w3.org/2000/svg" xmlns:xlink="http://www.w3.org/1999/xlink"><linearGradient id="a" gradientTransform="matrix(1 0 0 -1 0 391.88983)" gradientUnits="userSpaceOnUse" x1="672.20001" x2="2535.19995" y1="231.88983" y2="231.88983"><stop offset=".1596" stop-color="#ea2427"/><stop offset=".5303" stop-color="#ffcc05"/><stop offset=".7318" stop-color="#6dbd46"/><stop offset="1" stop-color="#46a2da"/></linearGradient><g fill="#fff"><path d="m2878.3999 140.4c-4.69995-81.7 46.2-128.8 126.2-128.8 72.3 0 121.5 30.4 121.5 93.7 0 76.2-74.5 100.1-130.5 134.4v.4h134.8v72.7h-258a111.72788 111.72788 0 0 1 21.3999-73.6c24.80005-34.7 67.6001-57.3 105.7-80.5 15.3999-9.4 40.19995-21.4 40.19995-43.2 0-27-15.8-36.4-35.89991-36.4-34.19995 0-45.8 24.8-44.8999 61.2h-80.5z"/><path d="m2143.8999 340.3h21.1001c15.7 0 22.5 11.4 22.5 25.5s-6.8 25.5-22.5 25.5h-21.1001zm8.90015 43.7h8.80005c14 0 17-8 17-18.2s-3-18.2-17-18.2h-8.80005z"/><path d="m2219.80005 340.3h9.5l19.6001 51h-9.6001l-4.8-13.5h-20.3999l-4.80005 13.5h-9.19995zm-3.10005 30.7h15.6001l-7.6001-21.9h-.2z"/><path d="m2253.1001 340.3h41.3v7.7h-16.1999v43.3h-8.89991v-43.3h-16.2v-7.7z"/><path d="m2318.1001 340.3h9.5l19.6001 51h-9.6001l-4.80005-13.5h-20.3999l-4.8 13.5h-9.2zm-3.1001 30.7h15.6001l-7.6001-21.9h-.2z"/><path d="m2393.3999 340.3h8.8999v43.3h25.89991v7.7h-34.89991v-51z"/><path d="m2433.7 340.3h41.3v7.7h-16.2v43.3h-8.8999v-43.3h-16.1999v-7.7z"/><path d="m2491.6001 340.3h21.1001c15.69995 0 22.5 11.4 22.5 25.5s-6.80005 25.5-22.5 25.5h-21.1001zm8.8999 43.7h8.8c14 0 17-8 17-18.2s-3-18.2-17-18.2h-8.8z"/><path d="m2539.1001 381.7h9.8999v9.6h-9.8999z"/></g><g fill="#ec2224"><path d="m265.8 268-25.8 44.8h-14l25.9-44.8z"/><path d="m318.9 176.1 60.3-104.5a34.73114 34.73114 0 0 1 30.2-17.4h128.1l6.9-12h-134.8a47.70235 47.70235 0 0 0 -41.1 23.7l-22.8 39.4-.7 1.2-40 69.6z"/><path d="m564.6 7.3h-154.9a82.43151 82.43151 0 0 0 -71.3 41.1l-22.8 39.4-.7 1.2-50.3 87h31.2l65.9-114.2a55.4329 55.4329 0 0 1 47.8-27.6h139.5z"/><path d="m390.3 122.1h108l34.7-60.1h-123.6a27.04769 27.04769 0 0 0 -23.4 13.5l-58.1 100.6h31.2z"/><path d="m306.1 268-25.9 44.8h-31.2l25.9-44.8z"/><path d="m211.7 268-25.9 44.8h31.2l25.9-44.8z"/><path d="m79.5 122.1h73.8l-10 17.4c-31.7 54.9 7.9 123.4 71.3 123.4h309.9l-28.8 49.9h31.2l21-36.4a27.3004 27.3004 0 0 0 0-27.1 26.95908 26.95908 0 0 0 -23.4-13.5h-309.9a55.2 55.2 0 0 1 -47.8-82.8l10-17.4a27.3003 27.3003 0 0 0 0-27.1 26.95912 26.95912 0 0 0 -23.4-13.5h-89.5z"/><path d="m47.9 67.4h104.5a55.2 55.2 0 0 1 47.8 82.8l-10 17.4a27.30032 27.30032 0 0 0 0 27.1 26.95914 26.95914 0 0 0 23.4 13.5h309.9a55.22325 55.22325 0 0 1 50.9 76.6l-16.2 28h31.7l4.7-8.2c31.7-54.9-7.9-123.4-71.3-123.4h-309.8l10-17.4c31.7-54.9-7.9-123.4-71.3-123.4h-.8l-17.9 17.9-17.9-17.9h-83.3z"/><path d="m120.9 35.3 12.8-12.9 12.9 12.9h13.7l-26.6-26.5-26.5 26.5z"/><path d="m41.3 95.1-41.3-15 23.9-15 5.9 10.2h122.7a47.4 47.4 0 0 1 41.1 71.1l-10 17.4a34.85 34.85 0 0 0 30.2 52.3h309.9a47.4 47.4 0 0 1 41.1 71.1l-14.8 25.7h-13.9l18.7-32.4a34.85 34.85 0 0 0 -30.2-52.3h-310a47.4 47.4 0 0 1 -41.1-71.1l10-17.4a34.85 34.85 0 0 0 -30.2-52.3h-116.5z"/></g><path d="m826.7 7.3h-154.5v305.5h136.1c106.5 0 156.2-59.5 156.2-153.2-.1-77-36-152.3-137.8-152.3zm-23.6 227.2h-36.8v-148.9h30c68 0 74 53.5 74 72.7 0 28.7-8.6 76.2-67.2 76.2zm422.8-63.3c31.2-11.6 45.80005-44.9 45.80005-76.6 0-57.8-46.2-87.3-99.7-87.3h-179.30005v305.5h94.1v-106.5h50.1c37.2 0 39.80005 30.4 42.4 59.5 1.30005 15.8 3 31.7 7.69995 47.1h94.1c-8.6-14.1-9-50.5-10.30005-65.5-3.3999-38.2-19.1999-66.4-44.8999-76.2zm-89.9-30.4h-49.19995v-60.8h44.1c35.9 0 46.6 11.1 46.6 30.4-.00005 27.4-23.90005 30.4-41.50005 30.4zm271.7-133.5-112.5 305.5h94.6l13.7-43.6h97.1l12.8 43.6h97.6l-111.3-305.5zm16.3 196.4 29.5-94.1h.9l27.4 94.1zm348.30005 6.4h41.5c-4.69995 22.7-27 33.8-48.80005 33.8-57.30005 0-68.9-50.1-68.9-78.7 0-21-2.1-89 62.5-89a44.61511 44.61511 0 0 1 44.5 38.1h90.3c-13.7-71.9-62.9-114.3-140.8-114.3-68.9 0-150.6 46.6-150.6 163 0 86.9 55.6 157 145.9 157 33.4 0 65.9-11.6 86.9-38.5l3 31.2h59.5v-168.1h-124.9v65.5zm305.09985-210.1c-92.9 0-154.9 66.8-154.9 160 0 93.3 62 160 154.9 160 92.8999 0 154.8999-66.8 154.8999-160 .00025-93.2-61.99975-160-154.8999-160zm0 243.9c-24 0-60.8-15.8-60.8-83.9s36.8-83.9 60.8-83.9 60.8001 15.8 60.8001 83.9-36.8001 83.9-60.8001 83.9zm368.8001-236.6v163.5h-.8999l-89-163.5h-96.3001v305.5h89v-166.9h.8999l93.7 166.9h91.6001v-305.5z" fill="url(#a)"/><path d="m2624.2 114.3c.3999-35.1 14.5-60.8 37.19995-77.9 22.7-16.7 53.5-24.8 86.8999-24.8 86.39991 0 115.1001 51.3 115.1001 76.6 0 62.5-39.3999 62.5-39.3999 63.8v.9c0 3.4 48.8 3.4 48.8 69.8 0 36.4-27.3999 93.7-124.8999 93.7-133.89991 0-134.39991-94.1-132.19995-116.4h81.3c-.3999 15.8 3.39991 27.8 11.6001 35.5 8.1001 9.8 20.5 13.3 35.5 13.3 24.3999 0 39.8-9 39.8-33.4 0-26.1-20.1001-30.8-39.8-30.8-12.3999 0-18.3999 1.3-24.8 2.1v-58.2c6.39991.4 13.3 1.7 24.8 1.7 18 0 40.7-3.9 40.7-27 0-18.8-21.3999-26.1-38.8999-26.1-23.1001 0-41.8999 12.4-41.1001 37.2z" fill="#fff"/><path d="m3268.2 0h65l-119.8001 320.1h-65z" fill="#fff"/><path d="m3478.8999 94.6c-1.69995-5.6-6-11.6-12.3999-16.3-6-3.9-13.7-5.1-23.1001-5.1-32.5 0-48.8 31.7-51.8 61.2 20.1001-18.4 41.89991-23.1 68.89991-23.1 57.3 0 99.69995 36.8 99.69995 95 0 73.2-51.3 110-122.39991 110-90.3 0-127.10009-68.5-127.10009-141.6 0-93.7 43.2-163 134.3999-163 64.19995 0 102.69995 24.8 112.1001 83h-78.29986zm-81.7998 112.9c0 23.5 17.1001 41.1 40.69995 41.1 25.7 0 43.6001-18.4 43.6001-41.1 0-21-17.1001-39.4-43.6001-39.4-23.10005.1-40.69995 17.2-40.69995 39.4z" fill="#fff"/><path d="m3710.80005 253.8h-132.19995v-80.5l136-158.3h85.19995v166h40.19995v72.7h-40.2v59.1h-89zm-72.80005-72.8h72.7v-83.4z" fill="#fff"/></svg>