<svg clip-rule="evenodd" fill-rule="evenodd" height="215" image-rendering="optimizeQuality" shape-rendering="geometricPrecision" text-rendering="geometricPrecision" width="638" xmlns="http://www.w3.org/2000/svg"><path d="m356.5 29.5c26.163.8322 52.497 1.3322 79 1.5-2.667 1.3333-5.333 2.6667-8 4 .333.3333.667.6667 1 1-23 .3333-46 .6667-69 1-1.803 2.1025-4.136 2.9358-7 2.5.284-1.9147-.049-3.5813-1-5 0-7.3333 0-14.6667 0-22-1.599-.2678-2.932.0655-4 1-1.716.1287-3.383.462-5 1-4.014-.1655-8.014.0012-12 .5-2.153.0995-3.819.9328-5 2.5-2.433-.2271-4.099.7729-5 3-2.923.6634-3.59 2.3301-2 5 2.587.5541 4.92 1.5541 7 3v15c-1.644.2135-3.144-.1198-4.5-1-.499-3.6516-.665-7.3183-.5-11-1.291-.2373-2.291.096-3 1-.992-.1716-1.658.1618-2 1-.667 0-1.333 0-2 0-1.294-1.5478-1.961-3.5478-2-6 .279-3.6799.612-7.3465 1-11 1.406-.4731 2.073-1.4731 2-3 .473-1.4063 1.473-2.073 3-2 2.897-.629 5.564-1.62904 8-3h1c6.669-1.00035 13.336-2.00035 20-3 2.982-.46286 5.982-.79619 9-1-.326 8.5168.007 16.8501 1 25z" fill="#f7f7f7"/><path d="m353.5 3.5h3v26c-.993-8.1499-1.326-16.4832-1-25-3.018.20381-6.018.53714-9 1 0-.33333 0-.66667 0-1 2.264-.71862 4.597-1.05195 7-1z" fill="#c0bfc0"/><path d="m452.5 26.5c0 1.3333-.667 2-2 2-31 0-62 0-93 0 0-8.6667 0-17.3333 0-26-1.599-.26781-2.932.06552-4 1-2.403-.05195-4.736.28138-7 1-6.334.75017-12.667 1.5835-19 2.5-.556.38258-.889.88258-1 1.5-.333 0-.667 0-1 0-3.216-.1545-5.883.8455-8 3-1.527-.073-2.527.5937-3 2-1.406.4731-2.073 1.4731-2 3-1.424 2.0145-2.09 4.3478-2 7-.802 1.4516-1.302 3.1183-1.5 5-.198-1.8817-.698-3.5484-1.5-5 .192-5.6325-2.141-9.6325-7-12-4.343-2.1847-9.009-3.6847-14-4.5-8.027-1.06032-16.027-2.22699-24-3.5-.709-.90397-1.709-1.23731-3-1v26c-41.667 0-83.333 0-125 0-.237 1.291.096 2.291 1 3h1c.8 2.0735 2.133 3.7402 4 5 3.333 3.6667 6.667 7.3333 10 11-.333 0-.667 0-1 0-5.911-5.4089-11.745-11.0755-17.5-17-.507-1.4961-.007-2.6627 1.5-3.5 41.665-.5 83.332-.6667 125-.5 0-8.6667 0-17.33333 0-26 14.095 1.91893 28.095 4.41893 42 7.5 4.766 2.4294 7.6 6.2627 8.5 11.5 1.523-6.2014 5.356-10.36806 11.5-12.5 12.558-2.77038 25.225-4.93705 38-6.5v26z" fill="#121110" opacity=".71"/><path d="m325.5 8.5c-2.436 1.37096-5.103 2.371-8 3 2.117-2.1545 4.784-3.1545 8-3z" fill="#9c9b9b"/><path d="m346.5 4.5v1c-6.664.99965-13.331 1.99965-20 3 .111-.61742.444-1.11742 1-1.5 6.333-.9165 12.666-1.74983 19-2.5z" fill="#828282"/><path d="m260.5 4.5c.342-.83825 1.008-1.17158 2-1 7.973 1.27301 15.973 2.43968 24 3.5 4.991.8153 9.657 2.3153 14 4.5-13.171-3.05822-26.504-5.39155-40-7z" fill="#a6a6a6"/><path d="m269.5 13.5h1v1c-1.975 9.9459-2.642 20.2792-2 31v4c-.333 0-.667 0-1 0-.646-12.3799.021-24.3799 2-36z" fill="#72393c"/><path d="m347.5 13.5h3v36c-.333 0-.667 0-1 0 0-1.3333 0-2.6667 0-4 0-10.3333 0-20.6667 0-31-1.599-.2678-2.932.0655-4 1-1 0-2 0-3 0 0-.3333 0-.6667 0-1 1.617-.538 3.284-.8713 5-1z" fill="#805959"/><path d="m314.5 13.5c.073 1.5269-.594 2.5269-2 3-.073-1.5269.594-2.5269 2-3z" fill="#908e8e"/><path d="m342.5 14.5v1c-5.367.6167-10.701 1.2834-16 2-.333 0-.667 0-1 0 1.181-1.5672 2.847-2.4005 5-2.5 3.986-.4988 7.986-.6655 12-.5z" fill="#887b7a"/><path d="m325.5 17.5h1c-1.956.9918-3.956 1.9918-6 3 .901-2.2271 2.567-3.2271 5-3z" fill="#8b3f3b"/><path d="m307.5 23.5c.802 1.4516 1.302 3.1183 1.5 5 .198-1.8817.698-3.5484 1.5-5v11c-2.235.2947-4.235-.0386-6-1h3c0-3.3333 0-6.6667 0-10z" fill="#4a4a4a" opacity=".996"/><path d="m262.5 3.5c-.992-.17158-1.658.16175-2 1v25c-42.013-.6611-83.68.0055-125 2-.904-.709-1.237-1.709-1-3h125c0-8.6667 0-17.3333 0-26 1.291-.23731 2.291.09603 3 1z" fill="#7b7a7b"/><path d="m342.5 15.5h3 3v27c-6.877.0975-13.544.0975-20 0 .318-4.5323-.015-8.8656-1-13-2.043-3.205-5.043-5.205-9-6 .693-1.0178 1.359-2.0178 2-3 2.044-1.0082 4.044-2.0082 6-3 5.299-.7166 10.633-1.3833 16-2z" fill="#d91b22"/><path d="m353.5 3.5c1.068-.93448 2.401-1.26781 4-1v26h93c.172.9916-.162 1.6583-1 2-4.134-.9849-8.468-1.3182-13-1-26.667 0-53.333 0-80 0 0-8.6667 0-17.3333 0-26-1 0-2 0-3 0z" fill="#757575"/><path d="m260.5 29.5c-41.333.6667-82.667 1.3333-124 2-.333 0-.667 0-1 0 41.32-1.9945 82.987-2.6611 125-2z" fill="#d7d7d8"/><path d="m312.5 16.5c-.388 3.6535-.721 7.3201-1 11 .039 2.4522.706 4.4522 2 6-.709.904-1.709 1.2373-3 1 0-3.6667 0-7.3333 0-11-.09-2.6522.576-4.9855 2-7z" fill="#b0afaf"/><path d="m436.5 29.5c4.532-.3182 8.866.0151 13 1-1.645.9787-2.979 2.312-4 4-3.523.6346-6.856 1.6346-10 3-1 0-2 0-3 0 3.37-1.1933 6.036-3.36 8-6.5-1.558-.21-2.891-.71-4-1.5z" fill="#a8a8a8"/><path d="m260.5 4.5c13.496 1.60845 26.829 3.94178 40 7 4.859 2.3675 7.192 6.3675 7 12v10c-1 0-2 0-3 0-.667 0-1.333 0-2 0 0-.6667-.333-1-1-1-1.068-.9345-2.401-1.2678-4-1v11c-1.542.8007-3.208 1.134-5 1 0-4.6667 0-9.3333 0-14 1.573-3.3931 4.24-4.7264 8-4 .609-3.3784-.724-5.3784-4-6-.843-1.6733-2.176-2.84-4-3.5-2.982-.498-5.982-.6646-9-.5-4.157-.9489-8.49-1.6156-13-2-.333 0-.667 0-1 0-.709-.904-1.709-1.2373-3-1v26c-.951 1.4187-1.284 3.0853-1 5-3.542.3128-6.875-.0206-10-1 .667-1 1.333-2 2-3 .904-.709 1.237-1.709 1-3-39.394.0629-78.727.0629-118 0-1.867-1.2598-3.2-2.9265-4-5 41.333-.6667 82.667-1.3333 124-2 0-8.3333 0-16.6667 0-25z" fill="#f4f5f5"/><path d="m283.5 16.5c0-.3333 0-.6667 0-1 3.018-.1646 6.018.002 9 .5 1.824.66 3.157 1.8267 4 3.5-3.95-2.3791-8.284-3.3791-13-3z" fill="#9f9b9b"/><path d="m272.5 15.5c3.599.8439 7.266 1.1773 11 1 4.716-.3791 9.05.6209 13 3 .976 1.3149 1.976 2.6482 3 4-4.125.4813-7.125 2.4813-9 6-.333 0-.667 0-1 0-.817 2.4686-1.317 5.1353-1.5 8-1-1-2-2-3-3-3.744.5098-7.744.5098-12 0-1 1-2 2-3 3-.5-7.3258-.666-14.6591-.5-22z" fill="#dd1d24"/><path d="m270.5 14.5c0-.3333 0-.6667 0-1 4.51.3844 8.843 1.0511 13 2v1c-3.734.1773-7.401-.1561-11-1-.342-.8382-1.008-1.1716-2-1z" fill="#8d716f"/><path d="m484.5 27.5c.558 1.2899 1.558 2.1232 3 2.5-1.873 1.7038-3.54 3.5372-5 5.5-1.285 1.9516-2.951 3.6182-5 5-1.456-1.8704-2.789-3.8704-4-6 3.15-3.0792 6.817-5.4125 11-7z" fill="#38302a"/><path d="m296.5 19.5c3.276.6216 4.609 2.6216 4 6-3.76-.7264-6.427.6069-8 4-.99 6.1446-1.323 12.4779-1 19h6c0-2 0-4 0-6 0-3.6667 0-7.3333 0-11 1.599-.2678 2.932.0655 4 1-1 0-2 0-3 0v17c-2.885.3064-5.552-.0269-8-1 0-6.3333 0-12.6667 0-19 1.875-3.5187 4.875-5.5187 9-6-1.024-1.3518-2.024-2.6851-3-4z" fill="#8b8383"/><path d="m320.5 20.5c-.641.9822-1.307 1.9822-2 3 3.957.795 6.957 2.795 9 6v20c-2.667 0-5.333 0-8 0-.988-5.1405-1.321-10.4738-1-16-1 0-2 0-3 0 .342-.8382 1.008-1.1716 2-1 1.954 4.8924 2.954 10.2257 3 16h6c.324-6.8543-.009-13.521-1-20-2.08-1.4459-4.413-2.4459-7-3-1.59-2.6699-.923-4.3366 2-5z" fill="#828080"/><path d="m356.5 29.5h80c1.109.79 2.442 1.29 4 1.5-1.964 3.14-4.63 5.3067-8 6.5-24.009-.3331-48.009.0003-72 1 .355 1.0223 1.022 1.689 2 2 .889 2.236 2.222 4.236 4 6-4.667 1.3333-9.333 1.3333-14 0-.933-3.9295-1.266-7.9295-1-12 .951 1.4187 1.284 3.0853 1 5 2.864.4358 5.197-.3975 7-2.5 23-.3333 46-.6667 69-1-.333-.3333-.667-.6667-1-1 2.667-1.3333 5.333-2.6667 8-4-26.503-.1678-52.837-.6678-79-1.5z" fill="#cfd0d1"/><path d="m482.5 35.5c1.46-1.9628 3.127-3.7962 5-5.5-1.442-.3768-2.442-1.2101-3-2.5 2.031-2.0224 4.365-3.6891 7-5 .543-.06.876-.3933 1-1-7.49-1.3194-14.823-1.3194-22 0-7.016 3.8384-13.683 8.1717-20 13-1.331 43.5019-1.331 87.169 0 131 1.022-.355 1.689-1.022 2-2 6.254-3.582 12.254-7.582 18-12 .833-27.994 1.333-55.9941 1.5-84 6.443-4.4676 12.943-8.8009 19.5-13 .543-.06.876-.3933 1-1-6.634-.9967-13.3-1.33-20-1-.289-6.0907.045-12.0907 1-18 1.211 2.1296 2.544 4.1296 4 6-1.768 2.6625-2.435 5.6625-2 9 6.675-.1663 13.342.0004 20 .5 1.624 3.2056.958 5.8723-2 8-5.833 3.8333-11.667 7.6667-17.5 11.5-.016 28.0864-.683 56.086-2 84-7.608 6.218-15.774 11.552-24.5 16-1.147-.318-1.981-.984-2.5-2-.273 1.601-.773 3.101-1.5 4.5-6.333 4.333-12.667 8.667-19 13-2.789 1.664-5.623 1.83-8.5.5-.5-10.328-.666-20.661-.5-31-20.003-.167-40.003 0-60 .5-.64 4.268-1.307 8.435-2 12.5 0-3.667 0-7.333 0-11-1.126-1.358-1.126-2.692 0-4 2 .333 4 .667 6 1 17.461-.654 34.794-1.32 52-2 0-.333 0-.667 0-1 0-32.333 0-64.6667 0-97-16.825-.9966-33.825-1.3299-51-1-.333-.6667-.667-1.3333-1-2 3-.6667 6-1.3333 9-2h1c2.31.6638 4.81.9971 7.5 1 13.826-.6861 27.659-1.1861 41.5-1.5 5.118-2.6386 9.785-5.8052 14-9.5.667 0 1-.3333 1-1 3.144-1.3654 6.477-2.3654 10-3 1.021-1.688 2.355-3.0213 4-4 .838-.3417 1.172-1.0084 1-2 1.333 0 2-.6667 2-2 4.451-2.6106 8.784-5.4439 13-8.5 10-.6667 20-.6667 30 0 1.076 1.7261 1.243 3.5594.5 5.5-4.74 3.9164-9.24 7.9164-13.5 12z" fill="#2d231b"/><path d="m470.5 21.5c7.187-.3245 14.187.0088 21 1-2.635 1.3109-4.969 2.9776-7 5-4.183 1.5875-7.85 3.9208-11 7-1.956 5.912-2.623 12.2453-2 19 6.854-.324 13.521.0093 20 1-6.557 4.1991-13.057 8.5324-19.5 13-.167 28.0059-.667 56.006-1.5 84-5.746 4.418-11.746 8.418-18 12-1.995-42.654-2.661-85.6537-2-129 6.317-4.8283 12.984-9.1616 20-13z" fill="#fcfcfc"/><path d="m470.5 21.5c7.177-1.3194 14.51-1.3194 22 0-.124.6067-.457.94-1 1-6.813-.9912-13.813-1.3245-21-1z" fill="#bab9ba"/><path d="m140.5 36.5c39.273.0629 78.606.0629 118 0 .237 1.291-.096 2.291-1 3-17.32-1.3329-34.987-1.9996-53-2-17.667.3333-35.333.6667-53 1 .355 1.0223 1.022 1.689 2 2h1c1.043 2.5562 2.71 4.7228 5 6.5-2.646.4974-5.313.6641-8 .5-.333 0-.667 0-1 0-3.333-3.6667-6.667-7.3333-10-11z" fill="#ced2d3"/><path d="m257.5 39.5c-.667 1-1.333 2-2 3-2.414 1.4108-4.081 3.4108-5 6-2.198.0912-2.531-.5755-1-2 1.333-1.6667 2.667-3.3333 4-5 .667 0 1-.3333 1-1 .789-.2828 1.456-.7828 2-1.5-17.167-.1667-34.333-.3333-51.5-.5-17.513.0005-34.68.6671-51.5 2-.978-.311-1.645-.9777-2-2 17.667-.3333 35.333-.6667 53-1 18.013.0004 35.68.6671 53 2z" fill="#7a6e6d"/><path d="m270.5 14.5c.992-.1716 1.658.1618 2 1-1 0-2 0-3 0-.166 7.3409 0 14.6742.5 22l3-3c4.256.5098 8.256.5098 12 0l3 3c.183-2.8647.683-5.5314 1.5-8 .404 5.7896-.096 11.4562-1.5 17-6.563-.8816-13.063-1.2149-19.5-1-.642-10.7208.025-21.0541 2-31z" fill="#c9181f"/><path d="m432.5 37.5h3c0 .6667-.333 1-1 1-24.357-.6568-48.357.0098-72 2-.978-.311-1.645-.9777-2-2 23.991-.9997 47.991-1.3331 72-1z" fill="#736664"/><path d="m450.5 34.5c-.661 43.3463.005 86.346 2 129-.311.978-.978 1.645-2 2-1.331-43.831-1.331-87.4981 0-131z" fill="#e8e8e9"/><path d="m254.5 40.5c-33-1.3333-66-1.3333-99 0-.333 0-.667 0-1 0s-.667 0-1 0c16.82-1.3329 33.987-1.9995 51.5-2 17.167.1667 34.333.3333 51.5.5-.544.7172-1.211 1.2172-2 1.5z" fill="#971e1f"/><path d="m441.5 39.5c.06-.5431.393-.8764 1-1 1.331 43.8315 1.331 87.498 0 131 .332-43.503-.001-86.8365-1-130z" fill="#5e5a58"/><path d="m292.5 29.5v14c1.792.134 3.458-.1993 5-1v6c-2 0-4 0-6 0-.323-6.5221.01-12.8554 1-19z" fill="#c0c0c0"/><path d="m422.5 39.5c-6.087 1.5864-12.42 2.4197-19 2.5-11.713.1872-23.379.6872-35 1.5-.917-.6272-1.917-.9606-3-1-1-.3333-1.667-1-2-2 19.493-.9971 39.16-1.3304 59-1z" fill="#c7161c"/><path d="m441.5 39.5c.999 43.1635 1.332 86.497 1 130-6.667 4.333-13.333 8.667-20 13-.999-43.163-1.332-86.4968-1-130 6.63-4.3198 13.297-8.6532 20-13z" fill="#fdfdfd"/><path d="m254.5 40.5c0 .6667-.333 1-1 1-2.917.7911-5.75.7911-8.5 0-.75.6258-1.584 1.1258-2.5 1.5-27.998.5-55.998.6666-84 .5-1.333-.6667-2.333-1.6667-3-3 33-1.3333 66-1.3333 99 0z" fill="#be161c"/><path d="m325.5 28.5c.991 6.479 1.324 13.1457 1 20-2 0-4 0-6 0-.046-5.7743-1.046-11.1076-3-16 .709-.904 1.709-1.2373 3-1-.165 3.6817.001 7.3484.5 11 1.356.8802 2.856 1.2135 4.5 1 0-5 0-10 0-15z" fill="#c1c1c1"/><path d="m345.5 15.5c1.068-.9345 2.401-1.2678 4-1v31c-6.59-.311-13.09.0223-19.5 1-.791-1.245-1.291-2.5783-1.5-4 6.456.0975 13.123.0975 20 0 0-9 0-18 0-27-1 0-2 0-3 0z" fill="#b4141b"/><path d="m253.5 41.5c-1.333 1.6667-2.667 3.3333-4 5-14.681 1.301-29.514 1.9677-44.5 2-14.167-.1667-28.333-.3333-42.5-.5-.544-.7172-1.211-1.2172-2-1.5-.667-1-1.333-2-2-3 28.002.1666 56.002 0 84-.5.916-.3742 1.75-.8742 2.5-1.5 2.75.7911 5.583.7911 8.5 0z" fill="#a01116"/><path d="m266.5 38.5v10c-5.333 0-10.667 0-16 0 .919-2.5892 2.586-4.5892 5-6 3.125.9794 6.458 1.3128 10 1-.284-1.9147.049-3.5813 1-5z" fill="#c0c0c0"/><path d="m422.5 39.5c2.424-.3076 4.757.0258 7 1-5.066 2.7695-10.399 4.9361-16 6.5-14.044.2008-28.044.7008-42 1.5-.333 0-.667 0-1 0-1.667-2-3.333-4-5-6 1.083.0394 2.083.3728 3 1 11.621-.8128 23.287-1.3128 35-1.5 6.58-.0803 12.913-.9136 19-2.5z" fill="#ab1319"/><path d="m289.5 29.5h1v19c-7.246.964-14.58 1.2973-22 1 0-1.3333 0-2.6667 0-4 6.437-.2149 12.937.1184 19.5 1 1.404-5.5438 1.904-11.2104 1.5-17z" fill="#961619"/><path d="m327.5 29.5c.985 4.1344 1.318 8.4677 1 13 .209 1.4217.709 2.755 1.5 4 6.41-.9777 12.91-1.311 19.5-1v4c-5.676-.1661-11.343.0006-17 .5-1.773 1.802-3.44 1.6353-5-.5 0-6.6667 0-13.3333 0-20z" fill="#951619"/><path d="m347.5 13.5c1.068-.9345 2.401-1.2678 4-1v22c-.266 4.0705.067 8.0705 1 12 4.667 1.3333 9.333 1.3333 14 0-1.778-1.764-3.111-3.764-4-6h1c.333 1 1 1.6667 2 2 1.667 2 3.333 4 5 6-3 .6667-6 1.3333-9 2-1.603 1.1772-2.936 1.0106-4-.5-2.31-.4966-4.643-.6633-7-.5 0-12 0-24 0-36-1 0-2 0-3 0z" fill="#9d9c9d"/><path d="m154.5 40.5h1c.667 1.3333 1.667 2.3333 3 3 .667 1 1.333 2 2 3-1.014 1.2647-2.514 1.9313-4.5 2-1.707-.0085-3.207-.3418-4.5-1 2.687.1641 5.354-.0026 8-.5-2.29-1.7772-3.957-3.9438-5-6.5z" fill="#7c7373"/><path d="m434.5 38.5c-4.215 3.6948-8.882 6.8614-14 9.5-13.841.3139-27.674.8139-41.5 1.5-2.69-.0029-5.19-.3362-7.5-1 13.956-.7992 27.956-1.2992 42-1.5 5.601-1.5639 10.934-3.7305 16-6.5-2.243-.9742-4.576-1.3076-7-1-19.84-.3304-39.507.0029-59 1-.333 0-.667 0-1 0 23.643-1.9902 47.643-2.6568 72-2z" fill="#8f1215"/><path d="m269.5 13.5c-1.979 11.6201-2.646 23.6201-2 36-5.858.3222-11.525-.0111-17-1h16c0-3.3333 0-6.6667 0-10 0-8.6667 0-17.3333 0-26 1.291-.2373 2.291.096 3 1z" fill="#939696"/><path d="m302.5 33.5h2c1.765.9614 3.765 1.2947 6 1 1.291.2373 2.291-.096 3-1h2 3c-.321 5.5262.012 10.8595 1 16 2.528.6657 5.194 1.3324 8 2-.124.6067-.457.94-1 1-7.333 0-14.667 0-22 0-1.052-1.756-2.719-2.4227-5-2-.321-5.1946.013-10.1946 1-15v13h16c.166-4.3461-.001-8.6794-.5-13-1.313 1.0728-2.813 1.7395-4.5 2-1.667-1.3333-3.333-1.3333-5 0-2.192-.2573-3.859-1.2573-5-3 0-.6667.333-1 1-1z" fill="#1b140e"/><path d="m473.5 34.5c-.955 5.9093-1.289 11.9093-1 18 6.7-.33 13.366.0033 20 1-.124.6067-.457.94-1 1-6.479-.9907-13.146-1.324-20-1-.623-6.7547.044-13.088 2-19z" fill="#7e7b79"/><path d="m413.5 53.5v97c-16.667 0-33.333 0-50 0 0-32.333 0-64.6667 0-97z" fill="#fefefe"/><path d="m362.5 52.5c17.175-.3299 34.175.0034 51 1-16.667 0-33.333 0-50 0v97h50v1c-17 0-34 0-51 0 0-33 0-66 0-99z" fill="#bbb9b9"/><path d="m421.5 52.5c-.332 43.5032.001 86.837 1 130-.06.543-.393.876-1 1-1.331-43.831-1.331-87.4981 0-131z" fill="#d0cecf"/><path d="m301.5 32.5c.667 0 1 .3333 1 1-.667 0-1 .3333-1 1-.667 0-1 .3333-1 1-.987 4.8054-1.321 9.8054-1 15 2.281-.4227 3.948.244 5 2v91c-1.333.667-2.667 1.333-4 2-1.992-30.649-2.659-61.6487-2-93-14.682-.3326-29.348.0007-44 1 .124.6067.457.94 1 1 6.289 4.8178 12.956 9.1511 20 13-.333 38.672 0 77.339 1 116 .607-.124.94-.457 1-1 8.667-5.333 17.333-10.667 26-16 .667 5.514 1.333 11.181 2 17 .607-.124.94-.457 1-1 15.982-10.307 31.982-20.64 48-31 1-32.66 1.333-65.3265 1-98-7.148-.9916-14.481-1.325-22-1v91c-1.562.233-2.895.9-4 2-1.664-30.486-2.664-61.1531-3-92 0-.3333 0-.6667 0-1 .543-.06.876-.3933 1-1-2.806-.6676-5.472-1.3343-8-2h8c1.56 2.1353 3.227 2.302 5 .5 5.657-.4994 11.324-.6661 17-.5h1c2.357-.1633 4.69.0034 7 .5 1.064 1.5106 2.397 1.6772 4 .5.333.6667.667 1.3333 1 2v99h51c-17.206.68-34.539 1.346-52 2-2-.333-4-.667-6-1-1.126 1.308-1.126 2.642 0 4-4.584 1.582-7.917 4.582-10 9-.333 0-.667 0-1 0-.017-1.528-.684-2.028-2-1.5-5.164 3.417-10.164 6.917-15 10.5-.992-.172-1.658.162-2 1-6.352 3.507-12.352 7.507-18 12-.333 0-.667 0-1 0-1.72-.808-3.387-1.808-5-3 .317-3.072-.016-6.072-1-9-.607.124-.94.457-1 1-2.883-1.373-5.217-.707-7 2-.985 4.134-1.318 8.468-1 13-.33 7.032.003 14.032 1 21 2.353-2.023 4.686-4.023 7-6-1.624 3.29-3.957 5.957-7 8-.667 0-1.333 0-2 0 .167-11.671 0-23.338-.5-35-4.714 3.554-9.547 6.887-14.5 10 .237-1.291-.096-2.291-1-3-1.442-1.32-2.108-2.986-2-5-.667-.667-1.333-1.333-2-2 1.333-16.82 2-33.987 2-51.5 0-17.337-.333-34.5033-1-51.5-6 0-12 0-18 0-.985 4.1344-1.318 8.4677-1 13 .215 1.6788-.452 2.6788-2 3 .329-13.5105-.004-26.8438-1-40-17 0-34 0-51 0 15.872-.5786 31.872-1.4119 48-2.5-16.667-.6667-33.333-.6667-50 0-.916.2784-1.582.7784-2 1.5-25.667 0-51.333 0-77 0-.592 3.1305.408 5.4639 3 7 5.695 8.3798 11.029 17.0465 16 26-6.25 1.9589-12.916 2.6255-20 2-.237 1.291.096 2.291 1 3 0 .6667.333 1 1 1 12.902 19.46 25.569 39.127 38 59v1c-2-1-4-2-6-3-13.32-18.831-25.653-38.331-37-58.5-.016-2.3052.984-3.9718 3-5 4.667-.3333 9.333-.6667 14-1-5.361-9.217-10.861-18.3837-16.5-27.5-.896-2.525-.396-4.6917 1.5-6.5 11.507-.1694 22.841-.6694 34-1.5h1 1c1.293.6582 2.793.9915 4.5 1 1.986-.0687 3.486-.7353 4.5-2 .789.2828 1.456.7828 2 1.5 14.167.1667 28.333.3333 42.5.5 14.986-.0323 29.819-.699 44.5-2-1.531 1.4245-1.198 2.0912 1 2 5.475.9889 11.142 1.3222 17 1h1c7.42.2973 14.754-.036 22-1 2.448.9731 5.115 1.3064 8 1 0-5.6667 0-11.3333 0-17z" fill="#2e241c"/><path d="m253.5 58.5c3.888 2.586 7.888 5.086 12 7.5-3.986.4988-7.986.6655-12 .5 0-2.6667 0-5.3333 0-8z" fill="#560909"/><path d="m304.5 52.5h22v1c-7 0-14 0-21 0 .331 30.1713-.002 60.171-1 90 0-30.333 0-60.6667 0-91z" fill="#acaaaa"/><path d="m355.5 53.5c-7 0-14 0-21 0 .331 30.1713-.002 60.171-1 90 0-30.333 0-60.6667 0-91 7.519-.325 14.852.0084 22 1z" fill="#b8b7b7"/><path d="m300.5 145.5c-.709.904-1.709 1.237-3 1 0-31 0-62 0-93-14.177-.3291-28.177.0042-42 1-.543-.06-.876-.3933-1-1 14.652-.9993 29.318-1.3326 44-1-.659 31.3513.008 62.351 2 93z" fill="#999796"/><path d="m300.5 145.5c1.333-.667 2.667-1.333 4-2 .998-29.829 1.331-59.8287 1-90h21v93c1.291.237 2.291-.096 3-1 1.105-1.1 2.438-1.767 4-2 .998-29.829 1.331-59.8287 1-90h21c.333 32.6735 0 65.34-1 98-16.018 10.36-32.018 20.693-48 31-.667-5.514-1.333-11.181-2-17-.607.124-.94.457-1 1-8.667 5.333-17.333 10.667-26 16-.667-38.333-1.333-76.667-2-115-7.044-3.8489-13.711-8.1822-20-13 13.823-.9958 27.823-1.3291 42-1v93c1.291.237 2.291-.096 3-1z" fill="#fdfdfd"/><path d="m326.5 53.5c.336 30.8469 1.336 61.514 3 92-.709.904-1.709 1.237-3 1 0-31 0-62 0-93z" fill="#928e8d"/><path d="m246.5 89.5c-6.278-3.1424-12.278-6.809-18-11-.929-1.1888-1.262-2.5222-1-4-2 0-4 0-6 0-.997 17.8256-1.33 35.826-1 54h7c0-1 0-2 0-3 6.122-5.113 12.789-9.446 20-13 .995 12.155 1.329 24.489 1 37-16.333 0-32.667 0-49 0 0-32 0-64 0-96h49c.646 12.3799-.021 24.3799-2 36z" fill="#fdfdfd"/><path d="m193.5 52.5v26c-10.333 0-20.667 0-31 0-.446 2.5101.22 4.5101 2 6 .838.3417 1.172 1.0084 1 2 8.94 1.9722 18.273 2.6389 28 2v25c-10.667 0-21.333 0-32 0-.237 1.291.096 2.291 1 3-.073 1.527.594 2.527 2 3s2.073 1.473 2 3c8.818.993 17.818 1.327 27 1v26c-12.333 0-24.667 0-37 0-12.431-19.873-25.098-39.54-38-59 6.587-1.9612 13.587-2.6279 21-2 .343-1.9832-.324-3.3166-2-4-.333 0-.667 0-1 0-4.971-8.9535-10.305-17.6202-16-26-1.13-1.8146-1.796-3.8146-2-6z" fill="#fdfdfd"/><path d="m194.5 51.5v1c-.333 0-.667 0-1 0-25 0-50 0-75 0 .204 2.1854.87 4.1854 2 6-2.592-1.5361-3.592-3.8695-3-7z" fill="#939191"/><path d="m275.5 67.5c.667 38.333 1.333 76.667 2 115-.06.543-.393.876-1 1-1-38.661-1.333-77.328-1-116z" fill="#b9b5b5"/><path d="m249.5 52.5c.996 13.1562 1.329 26.4895 1 40-.992.1716-1.658-.1618-2-1 .995-12.8226 1.329-25.8226 1-39z" fill="#4b4643"/><path d="m267.5 75.5c-.277-6.5787-3.777-8.5787-10.5-6-1.559 1.7166-2.392 3.7166-2.5 6-.973-2.4479-1.306-5.1146-1-8 4.679-.1658 9.345.0008 14 .5 4.271.7697 5.937 3.2697 5 7.5-1.667 0-3.333 0-5 0z" fill="#888"/><path d="m267.5 75.5c-4.333 0-8.667 0-13 0 .108-2.2834.941-4.2834 2.5-6 6.723-2.5787 10.223-.5787 10.5 6z" fill="#a5a6a7"/><path d="m384.5 75.5h1v53h6v1c-2.333 0-4.667 0-7 0 0-18 0-36 0-54z" fill="#797471"/><path d="m384.5 75.5c2.448-.9731 5.115-1.3064 8-1 .33 18.5076-.003 36.841-1 55 0-.333 0-.667 0-1 0-17.667 0-35.3333 0-53-2 0-4 0-6 0-.333 0-.667 0-1 0z" fill="#d6d6d6"/><path d="m385.5 75.5h6v53c-2 0-4 0-6 0 0-17.667 0-35.3333 0-53z" fill="#291f16"/><path d="m193.5 52.5h1v27c-10.333 0-20.667 0-31 0-.237 1.291.096 2.291 1 3v2c-1.78-1.4899-2.446-3.4899-2-6h31c0-8.6667 0-17.3333 0-26z" fill="#bfbebe"/><path d="m194.5 79.5c-10.208.3425-20.208 1.3425-30 3-.904-.709-1.237-1.709-1-3z" fill="#635d5b"/><path d="m136.5 84.5h1c.304.6499.637 1.3165 1 2-7.381.3559-14.381 1.3559-21 3-.904-.709-1.237-1.709-1-3 7.084.6255 13.75-.0411 20-2z" fill="#6b6765"/><path d="m137.5 84.5c1.676.6834 2.343 2.0168 2 4-7.413-.6279-14.413.0388-21 2-.667 0-1-.3333-1-1 6.619-1.6441 13.619-2.6441 21-3-.363-.6835-.696-1.3501-1-2z" fill="#c7c7c8"/><path d="m253.5 76.5v1 11h11 7c0-4 0-8 0-12 .667 16.9967 1 34.163 1 51.5 0 17.513-.667 34.68-2 51.5.331-30.171-.002-60.171-1-90-5.667 0-11.333 0-17 0-.318-4.5323.015-8.8656 1-13z" fill="#661a18"/><path d="m253.5 77.5c0-.3333 0-.6667 0-1h18v12c-2.333 0-4.667 0-7 0 1.765-.9614 3.765-1.2947 6-1-.551-3.3067-.884-6.6401-1-10-5.333 0-10.667 0-16 0z" fill="#83080e"/><path d="m253.5 77.5h16c.116 3.3599.449 6.6933 1 10-2.235-.2947-4.235.0386-6 1-3.667 0-7.333 0-11 0 0-3.6667 0-7.3333 0-11z" fill="#a71117"/><path d="m252.5 89.5h17v60c-.997-19.493-1.33-39.16-1-59-5 0-10 0-15 0-.204 2.1854-.87 4.1854-2 6-8.667 0-17.333 0-26 0 0-2 0-4 0-6h14c3.455 2.7412 7.122 3.4079 11 2 1.548-.3212 2.215-1.3212 2-3z" fill="#9fa0a0"/><path d="m224.5 97.5h38v102h3c-.76 3.46-2.26 3.793-4.5 1-.5-33.665-.667-67.332-.5-101-11.667 0-23.333 0-35 0-.838-.3417-1.172-1.0084-1-2z" fill="#0e0c0a" opacity=".145"/><path d="m198.5 52.5v98h51c1.325-13.173 1.325-26.506 0-40-.607.124-.94.457-1 1-.667 0-1 .333-1 1-7.211 3.554-13.878 7.887-20 13-1.614 1.575-3.614 2.241-6 2 0-17.667 0-35.3333 0-53h6c-.262 1.4778.071 2.8112 1 4 5.722 4.191 11.722 7.8576 18 11 .667.6667 1.333 1.3333 2 2 .342.8382 1.008 1.1716 2 1-3.878 1.4079-7.545.7412-11-2-.342-.8382-1.008-1.1716-2-1-2.367-2.6566-5.367-4.6566-9-6-3.701.7979-4.701 2.7979-3 6-.973 2.4479-1.306 5.1146-1 8-.172.9916.162 1.6583 1 2-.166 7.341 0 14.674.5 22 7.253-4.71 14.42-9.543 21.5-14.5 2.201-.825 4.034-.325 5.5 1.5.667 14.667.667 29.333 0 44-.5.5-1 1-1.5 1.5-32.333.667-64.667.667-97 0-1.732-1.972-3.065-4.139-4-6.5l6 3h38c0-9.333 0-18.667 0-28-9.333 0-18.667 0-28 0 .073-1.527-.594-2.527-2-3-.039-1.083-.373-2.083-1-3 10.492-.667 20.826-1.333 31-2 0-9 0-18 0-27-9.75.3065-19.416-.0268-29-1 .172-.9916-.162-1.6583-1-2 0-.6667 0-1.3333 0-2 9.792-1.6575 19.792-2.6575 30-3 0-9 0-18 0-27 0-.3333 0-.6667 0-1 .418-.7216 1.084-1.2216 2-1.5 16.667-.6667 33.333-.6667 50 0-16.128 1.0881-32.128 1.9214-48 2.5z" fill="#2b221b" opacity=".968"/><path d="m221.5 74.5v53c2.386.241 4.386-.425 6-2v3c-2.333 0-4.667 0-7 0-.33-18.174.003-36.1744 1-54z" fill="#827f7e"/><path d="m269.5 89.5c.998 29.829 1.331 59.829 1 90 .667.667 1.333 1.333 2 2-1 0-2 0-3 0 0-10.667 0-21.333 0-32 0-20 0-40 0-60z" fill="#636262"/><path d="m165.5 86.5c9.584.9732 19.25 1.3065 29 1v27c-11.052-.643-21.719.024-32 2-.904-.709-1.237-1.709-1-3h32c0-8.333 0-16.6667 0-25-9.727.6389-19.06-.0278-28-2z" fill="#d4d4d4"/><path d="m248.5 111.5c.06-.543.393-.876 1-1 1.325 13.494 1.325 26.827 0 40 .329-13.177-.005-26.177-1-39z" fill="#4c4643"/><path d="m194.5 114.5c-10.174.667-20.508 1.333-31 2 .627.917.961 1.917 1 3-1.406-.473-2.073-1.473-2-3 10.281-1.976 20.948-2.643 32-2z" fill="#8c8988"/><path d="m225.5 89.5h12c.992-.1716 1.658.1618 2 1-4.667 0-9.333 0-14 0v6h26 12v82c-.626 7.084.041 13.75 2 20v1c-1 0-2 0-3 0 0-34 0-68 0-102-12.667 0-25.333 0-38 0-.306-2.8854.027-5.5521 1-8z" fill="#6d6c6c" opacity=".994"/><path d="m166.5 122.5h28v28c-12.667 0-25.333 0-38 0 0-.333 0-.667 0-1h37c0-8.667 0-17.333 0-26-9.182.327-18.182-.007-27-1z" fill="#b0afb0"/><path d="m198.5 52.5h51c.329 13.1774-.005 26.1774-1 39-.667-.6667-1.333-1.3333-2-2 1.979-11.6201 2.646-23.6201 2-36-16.333 0-32.667 0-49 0v96h49c.329-12.511-.005-24.845-1-37 0-.667.333-1 1-1 .995 12.823 1.329 25.823 1 39-17 0-34 0-51 0 0-32.667 0-65.3333 0-98z" fill="#cacaca"/><path d="m237.5 89.5c-4 0-8 0-12 0-1.701-3.2021-.701-5.2021 3-6 3.633 1.3434 6.633 3.3434 9 6z" fill="#520c0a"/><path d="m303.5 166.5c.06-.543.393-.876 1-1 .667 5.819 1.333 11.486 2 17-.06.543-.393.876-1 1-.667-5.819-1.333-11.486-2-17z" fill="#b1b1b1"/><path d="m344.5 165.5h1c-4.333 4.667-8.667 9.333-13 14-1.372 1.012-2.705 2.012-4 3-1.583-2.008-2.583-4.341-3-7 .342-.838 1.008-1.172 2-1-.299 2.104.034 4.104 1 6 5.354-5.022 10.687-10.022 16-15z" fill="#766d6d"/><path d="m355.5 156.5v11c-5.667 6.333-11.667 12.333-18 18-.333 0-.667 0-1 0-.315-1.726-.481-3.393-.5-5 2.429-.529 4.262-1.863 5.5-4-.333-.333-.667-.667-1-1-2.142 2.405-4.809 3.738-8 4 4.333-4.667 8.667-9.333 13-14 2.083-4.418 5.416-7.418 10-9z" fill="#bcbcbc"/><path d="m269.5 149.5v32h3c-.108 2.014.558 3.68 2 5-3.49-.897-5.656-3.23-6.5-7-.852-8.117-1.852-16.117-3-24-.171 7.844-.671 15.511-1.5 23 0-27.333 0-54.667 0-82-4 0-8 0-12 0 1.13-1.8146 1.796-3.8146 2-6h15c-.33 19.84.003 39.507 1 59z" fill="#c0c0c0"/><path d="m344.5 165.5c-5.313 4.978-10.646 9.978-16 15-.966-1.896-1.299-3.896-1-6 4.836-3.583 9.836-7.083 15-10.5 1.316-.528 1.983-.028 2 1.5z" fill="#931316"/><path d="m325.5 175.5c.417 2.659 1.417 4.992 3 7-.709.904-1.709 1.237-3 1 0-1 0-2 0-3-2.886.11-5.22 1.277-7 3.5 1.203 5.426 2.536 10.592 4 15.5v1c-1 0-2 0-3 0 .326-4.384-.008-8.717-1-13-.607.124-.94.457-1 1-1 1.667-2.333 3-4 4 0-1 0-2 0-3-2.333 0-4.667 0-7 0 .333-.667.667-1.333 1-2 5.648-4.493 11.648-8.493 18-12z" fill="#adacad"/><path d="m298.5 184.5c-1.879-.841-3.879-1.175-6-1 .306 2.885-.027 5.552-1 8-.318-4.532.015-8.866 1-13 5.426-1.881 7.426.119 6 6z" fill="#9f9f9f"/><path d="m301.5 184.5c-.667 0-1.333 0-2 0 0-2.667 0-5.333 0-8 .06-.543.393-.876 1-1 .984 2.928 1.317 5.928 1 9z" fill="#6b1111"/><path d="m336.5 185.5c-.838.342-1.172 1.008-1 2-2 2.667-4.333 5-7 7-2 0-3 1-3 3-1.527-.073-2.527.594-3 2-1.464-4.908-2.797-10.074-4-15.5 1.78-2.223 4.114-3.39 7-3.5v3c1.291.237 2.291-.096 3-1 1.295-.988 2.628-1.988 4-3 3.191-.262 5.858-1.595 8-4 .333.333.667.667 1 1-1.238 2.137-3.071 3.471-5.5 4 .019 1.607.185 3.274.5 5z" fill="#d9dada"/><path d="m336.5 185.5h1c-.333 1-1 1.667-2 2-.172-.992.162-1.658 1-2z" fill="#2b2724" opacity=".235"/><path d="m274.5 186.5c.904.709 1.237 1.709 1 3-3.936 2.266-7.269 5.266-10 9-1.959-6.25-2.626-12.916-2-20 .829-7.489 1.329-15.156 1.5-23 1.148 7.883 2.148 15.883 3 24 .844 3.77 3.01 6.103 6.5 7z" fill="#e2e2e3"/><path d="m299.5 184.5h2c1.613 1.192 3.28 2.192 5 3-2.297 1.794-4.463 3.794-6.5 6-.498-2.982-.665-5.982-.5-9z" fill="#af161b"/><path d="m299.5 176.5v8c-.165 3.018.002 6.018.5 9 2.037-2.206 4.203-4.206 6.5-6h1c-.333.667-.667 1.333-1 2-1.796 1.293-3.463 2.793-5 4.5-.948.483-1.948.649-3 .5 0-3.333 0-6.667 0-10 1.426-5.881-.574-7.881-6-6 1.783-2.707 4.117-3.373 7-2z" fill="#6b6462"/><path d="m298.5 184.5v10c1.052.149 2.052-.017 3-.5 1.537-1.707 3.204-3.207 5-4.5h7v3c-.333 1-1 1.667-2 2s-1.667 1-2 2c-1 .333-1.667 1-2 2-.667 1.333-1.667 2.333-3 3-1 .333-1.667 1-2 2-1.333.667-2.333 1.667-3 3-2.314 1.977-4.647 3.977-7 6-.997-6.968-1.33-13.968-1-21 .973-2.448 1.306-5.115 1-8 2.121-.175 4.121.159 6 1z" fill="#e0e1e1"/><path d="m311.5 194.5c0 1.333-.667 2-2 2 .333-1 1-1.667 2-2z" fill="#272423" opacity=".027"/><path d="m328.5 194.5c-.667 1.333-1.667 2.333-3 3 0-2 1-3 3-3z" fill="#2a2726" opacity=".118"/><path d="m317.5 188.5c.06-.543.393-.876 1-1 .992 4.283 1.326 8.616 1 13h3c-.761.891-1.761 1.558-3 2-.667-4.817-1.334-9.483-2-14z" fill="#3c3b3a" opacity=".529"/><path d="m275.5 189.5c-3.048 3.715-6.381 7.048-10 10 0-.333 0-.667 0-1 2.731-3.734 6.064-6.734 10-9z" fill="#35312e" opacity=".592"/><path d="m309.5 196.5c0 1.333-.667 2-2 2 .333-1 1-1.667 2-2z" fill="#272423" opacity=".027"/><path d="m325.5 197.5c-.667 1.333-1.667 2.333-3 3 0-.333 0-.667 0-1 .473-1.406 1.473-2.073 3-2z" fill="#37322f" opacity=".059"/><path d="m304.5 201.5c0 1.333-.667 2-2 2 .333-1 1-1.667 2-2z" fill="#342e2b" opacity=".059"/><path d="m302.5 203.5c0 2-1 3-3 3 .667-1.333 1.667-2.333 3-3z" fill="#2b2725" opacity=".027"/></svg>