<?xml version="1.0" encoding="UTF-8" standalone="no"?>
<!-- Created with Inkscape (http://www.inkscape.org/) -->
<svg version="1.1" id="svg1" width="1056" height="326.39999" viewBox="0 0 1056 326.39999" sodipodi:docname="Enterprise_Computers.eps" xmlns:inkscape="http://www.inkscape.org/namespaces/inkscape" xmlns:sodipodi="http://sodipodi.sourceforge.net/DTD/sodipodi-0.dtd" xmlns="http://www.w3.org/2000/svg" xmlns:svg="http://www.w3.org/2000/svg">
  <defs id="defs1"/>
  <sodipodi:namedview id="namedview1" pagecolor="#ffffff" bordercolor="#000000" borderopacity="0.25" inkscape:showpageshadow="2" inkscape:pageopacity="0.0" inkscape:pagecheckerboard="0" inkscape:deskcolor="#d1d1d1">
    <inkscape:page x="0" y="0" inkscape:label="1" id="page1" width="1056" height="326.39999" margin="0" bleed="0"/>
  </sodipodi:namedview>
  <g id="g1" inkscape:groupmode="layer" inkscape:label="1">
    <g id="group-R5">
      <path id="path2" d="M 0,0 H 7920 V 2447.99 H 0 Z" style="fill:#231f20;fill-opacity:1;fill-rule:nonzero;stroke:none" transform="matrix(0.13333333,0,0,-0.13333333,0,326.4)"/>
      <path id="path3" d="m 320.902,499.488 h 1151.7 v 167.691 h -1151.7 z" style="fill:#eb222c;fill-opacity:1;fill-rule:nonzero;stroke:none" transform="matrix(0.13333333,0,0,-0.13333333,0,326.4)"/>
      <path id="path4" d="M 1544.6,499.488 H 2696.3 V 667.179 H 1544.6 Z" style="fill:#f3b913;fill-opacity:1;fill-rule:nonzero;stroke:none" transform="matrix(0.13333333,0,0,-0.13333333,0,326.4)"/>
      <path id="path5" d="M 2768.3,499.488 H 3920 V 667.179 H 2768.3 Z" style="fill:#eee016;fill-opacity:1;fill-rule:nonzero;stroke:none" transform="matrix(0.13333333,0,0,-0.13333333,0,326.4)"/>
      <path id="path6" d="M 3992,499.488 H 5143.7 V 667.179 H 3992 Z" style="fill:#1bb069;fill-opacity:1;fill-rule:nonzero;stroke:none" transform="matrix(0.13333333,0,0,-0.13333333,0,326.4)"/>
      <path id="path7" d="M 5215.69,499.488 H 6367.4 V 667.179 H 5215.69 Z" style="fill:#0ab0ef;fill-opacity:1;fill-rule:nonzero;stroke:none" transform="matrix(0.13333333,0,0,-0.13333333,0,326.4)"/>
      <path id="path8" d="M 6439.3,499.488 H 7591 V 667.179 H 6439.3 Z" style="fill:#ed51a0;fill-opacity:1;fill-rule:nonzero;stroke:none" transform="matrix(0.13333333,0,0,-0.13333333,0,326.4)"/>
      <path id="path9" d="m 320.902,1936.39 v -167.7 h 95.996 V 906.59 H 320.902 V 738.988 h 264 V 1936.39 h -264" style="fill:#ffffff;fill-opacity:1;fill-rule:nonzero;stroke:none" transform="matrix(0.13333333,0,0,-0.13333333,0,326.4)"/>
      <path id="path10" d="m 632.898,1936.39 v -167.7 h 167.903 v -143.6 h 168 v 311.3 H 632.898" style="fill:#ffffff;fill-opacity:1;fill-rule:nonzero;stroke:none" transform="matrix(0.13333333,0,0,-0.13333333,0,326.4)"/>
      <path id="path11" d="m 632.898,1265.79 h 239.898 v 167.699 H 632.898 Z" style="fill:#ffffff;fill-opacity:1;fill-rule:nonzero;stroke:none" transform="matrix(0.13333333,0,0,-0.13333333,0,326.4)"/>
      <path id="path12" d="M 632.898,906.59 V 738.988 h 335.903 v 335.302 h -168 V 906.59 H 632.898" style="fill:#ffffff;fill-opacity:1;fill-rule:nonzero;stroke:none" transform="matrix(0.13333333,0,0,-0.13333333,0,326.4)"/>
      <path id="path13" d="m 2768.3,1936.39 v -167.7 h 96 v -862.1 h -96 V 738.988 h 263.9 V 1936.39 h -263.9" style="fill:#ffffff;fill-opacity:1;fill-rule:nonzero;stroke:none" transform="matrix(0.13333333,0,0,-0.13333333,0,326.4)"/>
      <path id="path14" d="m 3080.2,1936.39 v -167.7 h 168 v -143.6 h 167.9 v 311.3 h -335.9" style="fill:#ffffff;fill-opacity:1;fill-rule:nonzero;stroke:none" transform="matrix(0.13333333,0,0,-0.13333333,0,326.4)"/>
      <path id="path15" d="m 3080.2,1265.79 h 240 v 167.699 h -240 z" style="fill:#ffffff;fill-opacity:1;fill-rule:nonzero;stroke:none" transform="matrix(0.13333333,0,0,-0.13333333,0,326.4)"/>
      <path id="path16" d="M 3080.2,906.59 V 738.988 h 335.9 v 335.302 h -167.9 v -167.7 h -168" style="fill:#ffffff;fill-opacity:1;fill-rule:nonzero;stroke:none" transform="matrix(0.13333333,0,0,-0.13333333,0,326.4)"/>
      <path id="path17" d="m 6943.19,1936.39 v -167.7 h 96.01 v -862.1 h -96.01 V 738.988 H 7207.1 V 1936.39 h -263.91" style="fill:#ffffff;fill-opacity:1;fill-rule:nonzero;stroke:none" transform="matrix(0.13333333,0,0,-0.13333333,0,326.4)"/>
      <path id="path18" d="m 7255.1,1936.39 v -167.7 h 168.01 v -143.6 H 7591 v 311.3 h -335.9" style="fill:#ffffff;fill-opacity:1;fill-rule:nonzero;stroke:none" transform="matrix(0.13333333,0,0,-0.13333333,0,326.4)"/>
      <path id="path19" d="m 7255.1,1265.79 h 240 v 167.699 h -240 z" style="fill:#ffffff;fill-opacity:1;fill-rule:nonzero;stroke:none" transform="matrix(0.13333333,0,0,-0.13333333,0,326.4)"/>
      <path id="path20" d="M 7255.1,906.59 V 738.988 H 7591 V 1074.29 H 7423.11 V 906.59 H 7255.1" style="fill:#ffffff;fill-opacity:1;fill-rule:nonzero;stroke:none" transform="matrix(0.13333333,0,0,-0.13333333,0,326.4)"/>
      <path id="path21" d="M 1040.8,906.59 V 738.988 h 263.9 v 598.702 l -168,311.3 v -742.4 h -95.9" style="fill:#ffffff;fill-opacity:1;fill-rule:nonzero;stroke:none" transform="matrix(0.13333333,0,0,-0.13333333,0,326.4)"/>
      <path id="path22" d="m 1832.5,1768.69 v 167.7 h -263.9 v -598.7 l 168,-311.3 v 742.3 h 95.9" style="fill:#ffffff;fill-opacity:1;fill-rule:nonzero;stroke:none" transform="matrix(0.13333333,0,0,-0.13333333,0,326.4)"/>
      <path id="path23" d="m 1040.8,1936.39 v -167.7 h 83.9 L 1640.6,738.988 h 191.9 V 906.59 h -83.9 l -515.9,1029.8 h -191.9" style="fill:#ffffff;fill-opacity:1;fill-rule:nonzero;stroke:none" transform="matrix(0.13333333,0,0,-0.13333333,0,326.4)"/>
      <path id="path24" d="m 1904.5,1936.39 v -335.3 h 168 v 167.6 h 96 v 167.7 h -264" style="fill:#ffffff;fill-opacity:1;fill-rule:nonzero;stroke:none" transform="matrix(0.13333333,0,0,-0.13333333,0,326.4)"/>
      <path id="path25" d="m 2432.4,1936.39 v -167.7 h 96 v -167.6 h 167.9 v 335.3 h -263.9" style="fill:#ffffff;fill-opacity:1;fill-rule:nonzero;stroke:none" transform="matrix(0.13333333,0,0,-0.13333333,0,326.4)"/>
      <path id="path26" d="M 2216.4,1936.39 V 906.59 h -95.9 V 738.988 h 359.9 V 906.59 h -96 v 1029.8 h -168" style="fill:#ffffff;fill-opacity:1;fill-rule:nonzero;stroke:none" transform="matrix(0.13333333,0,0,-0.13333333,0,326.4)"/>
      <path id="path27" d="m 5935.5,1768.69 v -862.1 h -120 V 738.988 h 383.89 V 906.59 h -120 v 862.1 h 120 v 167.7 H 5815.5 v -167.7 h 120" style="fill:#ffffff;fill-opacity:1;fill-rule:nonzero;stroke:none" transform="matrix(0.13333333,0,0,-0.13333333,0,326.4)"/>
      <path id="path28" d="M 4351.89,1768.69 V 906.59 H 4255.9 V 738.988 h 359.9 V 906.59 h -96 v 1029.8 h -263.9 v -167.7 h 95.99" style="fill:#ffffff;fill-opacity:1;fill-rule:nonzero;stroke:none" transform="matrix(0.13333333,0,0,-0.13333333,0,326.4)"/>
      <path id="path29" d="m 5119.7,1768.69 v -862.1 h -96 V 738.988 h 263.9 V 1936.39 h -263.9 v -167.7 h 96" style="fill:#ffffff;fill-opacity:1;fill-rule:nonzero;stroke:none" transform="matrix(0.13333333,0,0,-0.13333333,0,326.4)"/>
      <path id="path30" d="m 3584.1,1768.69 v -862.1 h -96 V 738.988 H 3752 V 1936.39 h -263.9 v -167.7 h 96" style="fill:#ffffff;fill-opacity:1;fill-rule:nonzero;stroke:none" transform="matrix(0.13333333,0,0,-0.13333333,0,326.4)"/>
      <path id="path31" d="m 6703.3,1625.09 h 167.898 v 311.305 H 6703.3 Z" style="fill:#ffffff;fill-opacity:1;fill-rule:nonzero;stroke:none" transform="matrix(0.13333333,0,0,-0.13333333,0,326.4)"/>
      <path id="path32" d="m 6271.4,738.988 h 167.898 v 359.203 H 6271.4 Z" style="fill:#ffffff;fill-opacity:1;fill-rule:nonzero;stroke:none" transform="matrix(0.13333333,0,0,-0.13333333,0,326.4)"/>
      <path id="path33" d="m 5551.6,1507.39 -80.8,-73.9 h -135.19 v -167.7 h 191.99 l 191.9,175.7 v 319.2 l -191.9,175.7 h -191.99 v -167.7 h 135.19 l 80.8,-73.8 v -187.5" style="fill:#ffffff;fill-opacity:1;fill-rule:nonzero;stroke:none" transform="matrix(0.13333333,0,0,-0.13333333,0,326.4)"/>
      <path id="path34" d="m 4783.8,1507.39 -80.8,-73.9 h -135.21 v -167.7 h 192.01 l 191.9,175.7 v 319.2 l -191.9,175.7 h -192.01 v -167.7 H 4703 l 80.8,-73.8 v -187.5" style="fill:#ffffff;fill-opacity:1;fill-rule:nonzero;stroke:none" transform="matrix(0.13333333,0,0,-0.13333333,0,326.4)"/>
      <path id="path35" d="m 4016,1507.39 -80.8,-73.9 H 3800 v -167.7 h 192 l 191.9,175.7 v 319.2 l -191.9,175.7 h -192 v -167.7 h 135.2 l 80.8,-73.8 v -187.5" style="fill:#ffffff;fill-opacity:1;fill-rule:nonzero;stroke:none" transform="matrix(0.13333333,0,0,-0.13333333,0,326.4)"/>
      <path id="path36" d="m 6439.3,1507.39 v 187.5 l 80.8,73.8 h 135.19 v 167.7 H 6463.3 l -191.9,-175.7 v -319.2 l 191.9,-175.7 h 159.2 l 80.8,-73.8 V 980.488 L 6622.5,906.59 H 6487.3 V 738.988 h 192 l 191.9,175.692 v 343.11 l -191.9,175.7 h -159.2 l -80.8,73.9" style="fill:#ffffff;fill-opacity:1;fill-rule:nonzero;stroke:none" transform="matrix(0.13333333,0,0,-0.13333333,0,326.4)"/>
      <path id="path37" d="m 3992,738.988 h 191.9 V 906.59 h -74.3 l -93.6,311.3 h -168 l 144,-478.902" style="fill:#ffffff;fill-opacity:1;fill-rule:nonzero;stroke:none" transform="matrix(0.13333333,0,0,-0.13333333,0,326.4)"/>
      <path id="path38" d="m 5527.6,738.988 h 191.9 V 906.59 h -74.4 l -93.5,311.3 H 5383.59 L 5527.6,738.988" style="fill:#ffffff;fill-opacity:1;fill-rule:nonzero;stroke:none" transform="matrix(0.13333333,0,0,-0.13333333,0,326.4)"/>
    </g>
  </g>
</svg>