<?xml version="1.0" encoding="utf-8"?>
<!-- Generator: Adobe Illustrator 16.0.0, SVG Export Plug-In . SVG Version: 6.00 Build 0)  -->
<!DOCTYPE svg PUBLIC "-//W3C//DTD SVG 1.1//EN" "http://www.w3.org/Graphics/SVG/1.1/DTD/svg11.dtd">
<svg version="1.1"
	 id="svg2" xmlns:dc="http://purl.org/dc/elements/1.1/" xmlns:rdf="http://www.w3.org/1999/02/22-rdf-syntax-ns#" xmlns:cc="http://creativecommons.org/ns#" xmlns:svg="http://www.w3.org/2000/svg"
	 xmlns="http://www.w3.org/2000/svg" xmlns:xlink="http://www.w3.org/1999/xlink" x="0px" y="0px" width="647.167px"
	 height="750.977px" viewBox="0 0 647.167 750.977" enable-background="new 0 0 647.167 750.977" xml:space="preserve">
<g id="g10" transform="matrix(1.3333333,0,0,-1.3333333,-278.05173,902.58312)">
	<g id="g14">
		<g>
			<defs>
				<rect id="SVGID_1_" x="-150" y="-131.815" width="1200" height="1054.519"/>
			</defs>
			<clipPath id="SVGID_2_">
				<use xlink:href="#SVGID_1_"  overflow="visible"/>
			</clipPath>
			<g id="g16" clip-path="url(#SVGID_2_)">
				<g id="g22" transform="translate(649.8358,676.9377)">
					<path id="path24" fill="#2F2D2E" d="M0,0h-397.219c-32.196,0-44.078-11.882-44.078-44.093v-388.677
						c0-3.645,0.147-7.031,0.469-10.167c0.733-7.031,0.871-13.844,7.41-21.601c0.639-0.76,7.315-5.728,7.315-5.728
						c3.591-1.761,6.043-3.059,10.093-4.688l195.596-81.948c10.154-4.655,14.4-6.469,21.775-6.323v-0.001c0.01,0,0.019,0,0.029,0
						c0.01,0,0.019,0,0.029,0v0.001c7.375-0.146,11.622,1.668,21.776,6.323L18.79-474.954c4.052,1.63,6.502,2.927,10.094,4.688
						c0,0,6.677,4.968,7.314,5.728c6.539,7.757,6.677,14.57,7.411,21.601c0.322,3.137,0.47,6.523,0.47,10.167v388.677
						C44.079-11.882,32.194,0,0,0"/>
				</g>
				<g id="g26" transform="translate(623.2303,286.175)">
					<path id="path28" fill="#FFFFFF" d="M0,0L-0.09-0.897l-0.089-0.984l-0.18-0.897l-0.268-0.896l-0.174-0.807l-0.27-0.897
						l-0.357-0.807l-0.359-0.718L-2.14-7.71l-0.448-0.717l-0.448-0.718L-3.57-9.862l-0.448-0.717l-0.533-0.627l-0.627-0.628
						l-0.533-0.538L-6.428-13l-0.623-0.538l-0.718-0.538l-0.712-0.442l-0.712-0.538l-0.807-0.448l-0.801-0.359l-0.801-0.448
						l-0.896-0.359l-0.892-0.359l-0.891-0.268l-0.891-0.27l-0.807-0.268l-0.891-0.179l-0.803-0.179l-0.801-0.179l-0.896-0.18
						l-0.892-0.089l-0.801-0.09l-0.896-0.09l-0.98-0.09l-0.892-0.089h-0.891h-0.981h-0.986h-0.891l-0.892,0.089h-0.98l-0.892,0.09
						l-0.896,0.09l-0.981,0.09l-0.891,0.179l-0.891,0.09l-0.896,0.179l-0.892,0.179l-0.892,0.179l-0.891,0.179l-0.896,0.268
						l-0.801,0.179l-0.891,0.27l-0.892,0.269l-0.806,0.359l-0.892,0.269l-0.801,0.268l-0.892,0.359l-0.806,0.36l-0.803,0.359
						l-0.801,0.442l-0.807,0.359l-0.801,0.449L-49.177-13l-0.807,0.449l-0.712,0.448l-0.718,0.448l-0.712,0.538l-0.712,0.538
						l-0.716,0.538l-0.713,0.538l-0.627,0.538l-0.712,0.627l0.538,0.717l0.623,0.628l0.538,0.719l0.623,0.717l0.539,0.627
						l0.532,0.717l0.628,0.718l0.532,0.627l0.627,0.717l0.533,0.628l0.627,0.717l0.533,0.719l0.539,0.627l0.621,0.717l0.538,0.718
						l0.623,0.627l0.538,0.717l0.712-0.538l0.803-0.538l0.716-0.538l0.803-0.538l0.716-0.448l0.803-0.537l0.71-0.449l0.809-0.358
						l0.71-0.449l0.803-0.359l0.807-0.358l0.8-0.359l0.804-0.269l0.806-0.358l0.891-0.269l0.892-0.27l0.801-0.269l0.896-0.18
						l0.891-0.179l0.892-0.179l0.98-0.089l0.896-0.179h0.892l0.98-0.089h0.892h1.069l0.981,0.089l0.896,0.179l0.801,0.179
						l0.803,0.179l0.716,0.269l0.623,0.358l0.718,0.538l0.532,0.628l0.359,0.718l0.271,0.806l0.088,0.896v0.179l-0.088,1.076
						l-0.36,0.896l-0.448,0.628l-0.623,0.538l-0.718,0.538l-0.712,0.357l-0.801,0.36L-21.96,5.29l-1.071,0.447l-0.623,0.18
						l-0.71,0.179l-0.807,0.27l-0.803,0.179l-0.891,0.269l-0.896,0.179l-0.98,0.269l-0.892,0.179l-0.981,0.269l-0.891,0.179
						l-0.896,0.269l-0.891,0.18l-0.892,0.269l-0.807,0.268l-0.889,0.18l-0.804,0.269l-0.8,0.27l-0.807,0.269l-0.981,0.359
						l-0.891,0.359l-0.892,0.358l-0.896,0.359l-0.801,0.448l-0.892,0.448l-0.716,0.448l-0.803,0.448l-0.712,0.538l-0.716,0.448
						l-0.623,0.539l-0.627,0.627l-0.623,0.628l-0.538,0.628l-0.533,0.627l-0.448,0.627l-0.444,0.718l-0.447,0.806l-0.359,0.622
						l-0.27,0.718l-0.264,0.807l-0.268,0.717l-0.18,0.897l-0.179,0.807l-0.091,0.896l-0.089,0.897l-0.089,0.985v0.987v0.179v0.896
						l0.089,0.896l0.089,0.806l0.091,0.897l0.179,0.806l0.18,0.806l0.268,0.809l0.18,0.806l0.353,0.807l0.359,0.807l0.357,0.806
						l0.444,0.808l0.447,0.806l0.533,0.718l0.539,0.717l0.623,0.717l0.627,0.627l0.623,0.718l0.718,0.628l0.621,0.448l0.718,0.538
						l0.712,0.538l0.712,0.448l0.807,0.448l0.801,0.359l0.801,0.448l0.807,0.358l0.891,0.27l0.891,0.358l0.807,0.269l0.712,0.18
						l0.804,0.179l0.806,0.179l0.891,0.179l0.803,0.18l0.891,0.089l0.896,0.089l0.891,0.09l0.892,0.089h0.891h0.986h0.981h0.98
						l0.981-0.089l0.981-0.09h0.891l0.986-0.089l0.891-0.179l0.981-0.09l0.892-0.179l0.807-0.179l0.891-0.179l0.891-0.18
						l0.803-0.179l0.896-0.269l0.801-0.27l0.803-0.179l0.895-0.358l0.803-0.27l0.801-0.357l0.801-0.359l0.896-0.36l0.801-0.448
						l0.712-0.359l0.807-0.448l0.803-0.448l0.712-0.449l0.806-0.538l0.713-0.448l0.716-0.539l0.712-0.538l0.712-0.537l-0.532-0.719
						l-0.448-0.717l-0.533-0.716l-0.538-0.719l-0.533-0.806l-0.448-0.717l-0.538-0.719l-0.533-0.716l-0.447-0.717l-0.535-0.719
						l-0.538-0.717l-0.448-0.717l-0.532-0.806l-0.539-0.717l-0.532-0.717l-0.448-0.717l-0.533-0.717l-0.718,0.537l-0.8,0.449
						l-0.713,0.448l-0.718,0.538l-0.8,0.358l-0.719,0.449l-0.8,0.359l-0.712,0.358l-0.807,0.359l-0.712,0.358l-0.801,0.269
						l-0.718,0.359l-0.981,0.268l-0.891,0.27l-0.892,0.268l-0.896,0.18l-0.891,0.179l-0.891,0.18l-0.892,0.09l-0.896,0.089
						l-0.801,0.09h-0.892h-1.069l-0.981-0.179l-0.896-0.18l-0.801-0.179l-0.712-0.36l-0.628-0.357l-0.801-0.719l-0.539-0.807
						l-0.352-0.806l-0.091-0.896v-0.179l0.091-1.165l0.442-0.986l0.359-0.538l0.621-0.628l0.807-0.448l0.712-0.448l0.892-0.359
						l0.986-0.359l1.071-0.358l0.712-0.179l0.712-0.269l0.807-0.179l0.801-0.269l0.891-0.18l0.987-0.269l0.981-0.268l0.98-0.27
						l0.98-0.179l0.891-0.269l0.981-0.27l0.898-0.179l0.891-0.269l0.892-0.27l0.801-0.269l0.896-0.269l0.801-0.269l0.801-0.27
						l0.986-0.353l0.892-0.449l0.891-0.357l0.892-0.448l0.807-0.449l0.801-0.448l0.712-0.448l0.716-0.538l0.713-0.448l0.712-0.628
						l0.716-0.627l0.623-0.719L-3.481,13l0.533-0.718l0.538-0.806l0.442-0.717l0.45-0.808l0.357-0.717l0.27-0.806l0.264-0.807
						l0.179-0.807l0.18-0.896L-0.09,5.02L0,4.124l0.091-0.986V2.152V1.973V0.986L0,0z M-62.595-17.926h-0.895h-0.891h-0.892h-0.891
						h-0.896h-0.892h-0.891h-0.892h-0.986h-0.891h-0.891h-0.892h-0.898h-0.889h-0.892h-0.891h-0.898h-0.891h-0.891h-0.892h-0.892
						h-0.895h-0.891h-0.892h-0.892h-0.896h-0.891h-0.891h-0.981h-0.896h-0.892h-0.891h-0.891h-0.896h-0.892h-0.891h-0.892h-0.896
						h-0.891h-0.891h-0.892h-0.898h-0.889h-0.892h-0.891h-0.896h-0.892h-0.981h-0.891h-0.891h-0.898h-0.891h-0.892h-0.889h-0.896
						h-0.892h-0.891v0.897v0.897v0.896v0.892v0.896v0.896v0.896v0.896v0.897v0.897v0.896v0.897v0.897v0.896v0.897v0.896v0.896v0.897
						v0.807v0.897v0.896v0.896V2.6v0.897v0.896V5.29v0.896v0.896v0.896v0.896v0.897v0.897v0.896v0.897v0.897v0.896v0.897v0.896
						v0.896v0.897v0.896v0.892v0.896v0.896v0.897v0.896v0.896v0.896v0.896v0.896v0.897v0.896v0.897v0.896v0.807v0.896v0.896v0.897
						v0.896v0.897v0.896v0.897v0.896v0.897v0.896v0.896v0.897v0.896v0.896v0.896v0.896v0.896v0.897h0.891h0.892h0.896h0.889h0.892
						h0.891h0.898h0.891h0.891h0.892h0.896h0.892h0.889h0.892h0.807h0.892h0.891h0.892h0.895h0.892h0.891h0.892h0.896h0.891h0.891
						h0.892h0.896h0.892h0.891h0.891h0.896h0.892h0.891h0.891h0.892h0.898h0.891h0.891h0.891h0.898h0.891h0.891h0.891h0.809h0.891
						h0.892h0.891h0.896h0.891h0.892h0.891h0.896h0.892h0.891h0.892h0.895h0.892h0.892v-0.897v-0.807v-0.896v-0.897v-0.896v-0.807
						v-0.896v-0.897v-0.806v-0.896v-0.896v-0.808v-0.896v-0.896v-0.897v-0.807v-0.897h-0.892h-0.892h-0.895h-0.892h-0.891h-0.892
						h-0.807h-0.891h-0.891h-0.892h-0.896h-0.891h-0.892h-0.891h-0.898h-0.891h-0.891h-0.891h-0.898h-0.801h-0.891h-0.892h-0.896
						h-0.891h-0.892h-0.891h-0.896h-0.891h-0.892h-0.891h-0.896h-0.892h-0.801h-0.891h-0.896h-0.892h-0.891h-0.892h-0.896v-0.896
						v-0.896V29.85v-0.896v-0.897v-0.807v-0.896v-0.897V24.56v-0.897v-0.896V21.87h0.896h0.892h0.891h0.892h0.896h0.891h0.891h0.892
						h0.807h0.891h0.892h0.891h0.896h0.891h0.892h0.891h0.896h0.892h0.891h0.892h0.895h0.892h0.892h0.892h0.895h0.891h0.803h0.891
						h0.896h0.892h0.891h0.891h0.896h0.892h0.891v-0.896v-0.807v-0.892v-0.896v-0.807v-0.896v-0.896v-0.807v-0.897v-0.896v-0.897
						v-0.806V10.58V9.683V8.875V7.979h-0.891h-0.892h-0.896h-0.891h-0.891h-0.892h-0.896h-0.891h-0.803h-0.891h-0.895h-0.892h-0.892
						h-0.892h-0.895h-0.892h-0.891h-0.892h-0.896h-0.891h-0.892h-0.891h-0.896h-0.891h-0.892h-0.891h-0.807h-0.892h-0.891h-0.891
						h-0.896h-0.892h-0.891h-0.892h-0.896V7.083V6.096V5.2V4.303V3.317V2.42V1.524V0.538v-0.896v-0.896v-0.987v-0.896h0.896h0.892
						h0.891h0.892h0.896h0.891h0.891h0.892h0.896h0.98h0.892h0.891h0.896h0.892h0.892h0.891h0.895h0.892h0.892h0.891h0.891h0.898
						h0.891h0.892h0.889h0.898h0.892h0.891h0.891h0.986h0.892h0.891h0.892h0.896h0.891h0.892h0.891h0.895h0.892v-0.897v-0.806
						v-0.897v-0.896v-0.896v-0.807v-0.896v-0.896v-0.808v-0.896v-0.896v-0.808v-0.891v-0.896v-0.896v-0.808v-0.897H-62.595z
						 M-127.808-17.926h-0.891h-0.892h-0.986h-0.891h-0.892h-0.891h-0.896h-0.892h-0.98h-0.892h-0.892h-0.895h-0.891h-0.892h-0.98
						h-0.898h-0.891h-0.892v0.897v0.897v0.896v0.897v0.902v0.896v0.897v0.897v0.896v0.896v0.896v0.901v0.897v0.897v0.896v0.897
						v0.902v0.897v0.896v0.896v0.896v0.896v0.902v0.896v0.896v0.897v0.896v0.897v0.902v0.896v0.896v0.896v0.896v0.897v0.902v0.896
						v0.897v0.896v0.897v0.902v0.896v0.896v0.897l-0.447-0.717l-0.533-0.813l-0.45-0.717l-0.532-0.718l-0.448-0.806l-0.538-0.718
						l-0.442-0.717l-0.45-0.812l-0.532-0.717l-0.448-0.717l-0.538-0.718l-0.442-0.812l-0.539-0.717l-0.442-0.717l-0.45-0.807
						l-0.538-0.722L-152.351,8l-0.539-0.806l-0.441-0.718l-0.539-0.717l-0.442-0.812l-0.45-0.718l-0.536-0.717l-0.444-0.807
						l-0.538-0.721l-0.442-0.717l-0.539-0.719l-0.448-0.806l-0.442-0.722l-0.538-0.718l-0.442-0.807l-0.539-0.717l-0.448-0.717
						l-0.532-0.813l-0.448-0.717h-0.354l-0.538,0.807l-0.448,0.723l-0.533,0.807l-0.448,0.717l-0.533,0.806l-0.447,0.723
						l-0.533,0.807l-0.448,0.719l-0.538,0.806l-0.444,0.717l-0.538,0.813l-0.442,0.717l-0.538,0.807l-0.45,0.717l-0.532,0.812
						l-0.448,0.717l-0.533,0.807l-0.538,0.717l-0.448,0.812l-0.533,0.717l-0.447,0.806l-0.533,0.717l-0.448,0.813l-0.532,0.717
						l-0.448,0.807l-0.538,0.717l-0.443,0.807l-0.538,0.723l-0.443,0.806l-0.538,0.718l-0.448,0.807l-0.532,0.716l-0.45,0.813
						l-0.532,0.717v-0.896V18.69v-0.897v-0.901v-0.896v-0.896v-0.896v-0.897v-0.901v-0.897V10.7V9.804V8.907V8.011V7.109V6.212
						V5.316V4.42V3.523V2.626V1.725V0.828v-0.897v-0.896v-0.897v-0.896V-3.66v-0.896v-0.897v-0.896v-0.897v-0.901v-0.808v-0.896
						v-0.896v-0.897v-0.897v-0.896v-0.902v-0.897v-0.896v-0.897v-0.897h-0.891h-0.896h-0.892h-0.891h-0.891h-0.896h-0.892h-0.891
						h-0.892h-0.896h-0.891h-0.892h-0.891h-0.896h-0.891h-0.892h-0.892h-0.896h-0.891v0.897v0.897v0.896v0.892v0.896v0.896v0.896
						v0.896v0.897v0.897v0.896v0.897v0.897v0.896v0.897v0.896v0.896v0.897v0.807v0.897v0.896v0.896V2.6v0.897v0.896V5.29v0.896
						v0.896v0.896v0.896v0.897v0.897v0.896v0.897v0.897v0.896v0.897v0.896v0.896v0.897v0.896v0.892v0.896v0.896v0.897v0.896v0.896
						v0.896v0.896v0.896v0.897v0.896v0.897v0.896v0.807v0.896v0.896v0.897v0.896v0.897v0.896v0.897v0.896v0.897v0.896v0.896v0.897
						v0.896v0.896v0.896v0.896v0.896v0.897h0.891h0.896h0.803h0.89h0.892h0.896h0.802h0.891h0.897h0.891h0.802h0.891h0.896h0.891
						h0.801h0.891h0.897h0.892h0.801h0.891h0.897l0.442-0.718l0.448-0.806l0.532-0.712l0.449-0.807l0.448-0.717l0.443-0.808
						l0.448-0.711l0.534-0.808l0.447-0.717l0.449-0.717l0.443-0.801l0.449-0.719l0.532-0.806l0.448-0.718l0.448-0.801l0.442-0.717
						l0.539-0.717l0.448-0.803l0.442-0.716l0.448-0.807l0.444-0.718l0.538-0.801l0.448-0.718l0.442-0.806l0.448-0.712l0.444-0.717
						l0.538-0.807l0.448-0.719l0.442-0.806l0.448-0.712l0.442-0.807l0.539-0.717l0.448-0.801l0.444-0.718l0.448,0.718l0.447,0.801
						l0.533,0.717l0.447,0.807l0.444,0.712l0.448,0.806l0.533,0.719l0.448,0.807l0.45,0.717l0.441,0.712l0.539,0.806l0.442,0.718
						l0.448,0.801l0.448,0.718l0.533,0.807l0.447,0.716l0.45,0.803l0.442,0.717l0.45,0.717l0.532,0.801l0.448,0.718l0.448,0.806
						l0.444,0.719l0.536,0.801l0.444,0.717l0.448,0.717l0.448,0.808l0.532,0.711l0.45,0.808l0.442,0.717l0.448,0.807l0.538,0.712
						l0.444,0.806l0.448,0.718h0.891h0.892h0.806h0.892h0.891h0.891h0.807h0.892h0.891h0.892h0.807h0.891h0.891h0.892h0.806h0.892
						h0.892h0.891h0.807h0.891h0.891v-0.897v-0.896v-0.896v-0.896v-0.896v-0.896v-0.897v-0.896v-0.896v-0.897V37.47v-0.897v-0.896
						V34.78v-0.896v-0.897V32.09v-0.896v-0.807v-0.896v-0.897v-0.896v-0.897v-0.896v-0.896v-0.896v-0.896v-0.896v-0.897v-0.896
						v-0.896v-0.892v-0.896v-0.897v-0.896v-0.896v-0.897v-0.896v-0.897v-0.897v-0.896V9.772V8.875V7.979V7.083V6.187V5.29V4.393
						V3.497V2.6V1.703V0.807v-0.896v-0.897v-0.807V-2.69v-0.896v-0.896v-0.897v-0.896v-0.897v-0.897v-0.896v-0.897v-0.897v-0.896
						v-0.896v-0.896v-0.896v-0.892v-0.896v-0.897v-0.897H-127.808z M-231.367,8.965l-0.269,0.812l-0.353,0.897l-0.359,0.806
						l-0.269,0.812l-0.353,0.807l-0.358,0.897l-0.27,0.812l-0.359,0.807l-0.352,0.806l-0.27,0.812l-0.359,0.897l-0.263,0.807
						l-0.359,0.812l-0.359,0.807l-0.268,0.807l-0.354,0.901l-0.358,0.808l-0.269,0.806l-0.359,0.812l-0.353,0.896l-0.269,0.812
						l-0.359,0.807l-0.353-0.807l-0.268-0.812l-0.359-0.896l-0.359-0.812l-0.264-0.806l-0.358-0.808l-0.359-0.901l-0.353-0.807
						l-0.27-0.807l-0.358-0.812l-0.359-0.807l-0.264-0.897l-0.358-0.812l-0.359-0.806l-0.268-0.807l-0.354-0.812l-0.359-0.897
						l-0.358-0.807l-0.263-0.812l-0.359-0.806l-0.359-0.897l-0.269-0.812l-0.353-0.807h0.891h0.891h0.892h0.896h0.891h0.891h0.892
						h0.897h0.801h0.891h0.897h0.891h0.891h0.892h0.891h0.896h0.891L-231.367,8.965z M-203.337-17.926h-0.896h-0.803h-0.89h-0.897
						h-0.891h-0.892h-0.801h-0.897h-0.891h-0.891h-0.892h-0.896h-0.802h-0.891h-0.892h-0.896h-0.891h-0.802h-0.891h-0.896
						l-0.354,0.808l-0.269,0.807l-0.358,0.807l-0.359,0.896l-0.264,0.802L-222.797-13l-0.359,0.807l-0.264,0.806l-0.358,0.807
						l-0.359,0.807l-0.268,0.807l-0.354,0.896l-0.359,0.807l-0.269,0.807l-0.359,0.807h-0.891h-0.891h-0.891h-0.891h-0.807h-0.892
						h-0.891h-0.896h-0.891h-0.892h-0.891h-0.891h-0.897h-0.891h-0.801h-0.897h-0.892h-0.891h-0.891h-0.896h-0.892h-0.891h-0.891
						h-0.891h-0.808h-0.89h-0.892h-0.897h-0.891l-0.353-0.807l-0.269-0.807l-0.359-0.807l-0.358-0.896l-0.264-0.807l-0.358-0.807
						l-0.359-0.807l-0.269-0.806L-254.302-13l-0.359-0.806l-0.269-0.802l-0.354-0.896l-0.358-0.807l-0.269-0.807l-0.359-0.808
						h-0.891h-0.891h-0.891h-0.897h-0.891h-0.981h-0.891h-0.892h-0.896h-0.891h-0.891h-0.892h-0.897h-0.89h-0.891h-0.981h-0.897
						h-0.891h-0.892h-0.891l0.353,0.808l0.359,0.807l0.358,0.807l0.354,0.896l0.269,0.802l0.359,0.806l0.358,0.807l0.353,0.806
						l0.359,0.807l0.359,0.897l0.353,0.807l0.359,0.806l0.268,0.807l0.359,0.807l0.353,0.807l0.359,0.896l0.358,0.807l0.354,0.808
						l0.359,0.806l0.358,0.807l0.269,0.807l0.353,0.897l0.359,0.806l0.359,0.807l0.353,0.807l0.359,0.807l0.359,0.807l0.353,0.896
						l0.269,0.806l0.359,0.807l0.358,0.806l0.354,0.807l0.358,0.807l0.358,0.896l0.354,0.807l0.358,0.807l0.269,0.807l0.359,0.806
						l0.353,0.807l0.359,0.897l0.359,0.807l0.353,0.806l0.358,0.807l0.359,0.806l0.269,0.808l0.354,0.801l0.358,0.896l0.358,0.806
						l0.354,0.808l0.358,0.807l0.359,0.806l0.353,0.807l0.269,0.897l0.359,0.806l0.358,0.807l0.354,0.807l0.359,0.807l0.358,0.807
						l0.354,0.896l0.358,0.806l0.269,0.807l0.358,0.806l0.354,0.807l0.358,0.807l0.359,0.896l0.353,0.807l0.359,0.807l0.359,0.807
						l0.263,0.806l0.359,0.808l0.359,0.896l0.359,0.807l0.353,0.806l0.359,0.807l0.358,0.807l0.353,0.806l0.27,0.897l0.358,0.807
						l0.359,0.807l0.353,0.807h0.891h0.807h0.891h0.891h0.897h0.801h0.891h0.892h0.897h0.802h0.89h0.892h0.896h0.802h0.891h0.891
						h0.897h0.801h0.892l0.358-0.807l0.359-0.807l0.354-0.807l0.358-0.897l0.269-0.806l0.353-0.807l0.359-0.807l0.358-0.806
						l0.359-0.807l0.353-0.896l0.359-0.808l0.359-0.806l0.263-0.807l0.359-0.807l0.359-0.807l0.359-0.896l0.353-0.807l0.358-0.807
						l0.359-0.806l0.353-0.807l0.269-0.806l0.358-0.896l0.354-0.807l0.359-0.807l0.358-0.807l0.359-0.807l0.353-0.806l0.358-0.897
						l0.27-0.807l0.353-0.806l0.358-0.807l0.359-0.808l0.359-0.806l0.353-0.896l0.359-0.801l0.358-0.808l0.264-0.806l0.358-0.807
						l0.359-0.806l0.354-0.807l0.358-0.897l0.359-0.807l0.359-0.806l0.353-0.807l0.269-0.807l0.358-0.807l0.354-0.896l0.358-0.807
						l0.359-0.807l0.358-0.806l0.354-0.807l0.359-0.806l0.268-0.896l0.354-0.807l0.358-0.807l0.359-0.807l0.353-0.807l0.359-0.806
						l0.359-0.897l0.359-0.807l0.263-0.807l0.359-0.806l0.359-0.808l0.353-0.807l0.358-0.896l0.359-0.807l0.358-0.807l0.353-0.807
						l0.27-0.806l0.359-0.807l0.353-0.897l0.358-0.807l0.358-0.806l0.354-0.807l0.358-0.806l0.359-0.802l0.27-0.896l0.352-0.807
						l0.359-0.807l0.358-0.808H-203.337z M-281.53-9.592l-0.717-0.538l-0.623-0.449l-0.717-0.538l-0.712-0.448l-0.712-0.538
						l-0.717-0.448L-286.44-13l-0.807-0.448l-0.802-0.449l-0.802-0.448l-0.806-0.353l-0.802-0.449l-0.891-0.358l-0.801-0.359
						l-0.897-0.358l-0.801-0.359l-0.803-0.269l-0.806-0.27l-0.802-0.27l-0.891-0.268l-0.801-0.27l-0.897-0.179l-0.802-0.179
						l-0.891-0.179l-0.896-0.179l-0.892-0.09l-0.981-0.09l-0.891-0.09l-0.981-0.089l-0.897-0.089l-0.98-0.089h-0.981h-0.982h-0.98
						h-0.897l-0.891,0.089l-0.981,0.089l-0.891,0.089l-0.891,0.09l-0.897,0.09l-0.891,0.179l-0.892,0.18l-0.801,0.179l-0.896,0.179
						l-0.802,0.269l-0.891,0.179l-0.807,0.27l-0.802,0.358l-0.802,0.269l-0.89,0.359l-0.807,0.358l-0.802,0.358l-0.801,0.359
						l-0.808,0.448l-0.711,0.444l-0.802,0.448l-0.717,0.449L-330.085-13l-0.717,0.539l-0.712,0.537l-0.713,0.538l-0.627,0.538
						l-0.622,0.538l-0.628,0.628l-0.622,0.537l-0.628,0.628l-0.622,0.628l-0.538,0.627l-0.533,0.717l-0.538,0.628l-0.448,0.717
						l-0.533,0.719l-0.447,0.716l-0.444,0.719l-0.448,0.806l-0.448,0.717l-0.353,0.807l-0.359,0.807l-0.358,0.807l-0.354,0.806
						l-0.269,0.717l-0.359,0.808l-0.179,0.807l-0.264,0.806l-0.179,0.896l-0.269,0.808l-0.179,0.896l-0.09,0.806l-0.18,0.897
						l-0.088,0.806l-0.091,0.896l-0.084,0.897l-0.089,0.896v0.986v0.897v0.179V15.6l0.089,0.986v0.896l0.084,0.897l0.091,0.986
						l0.179,0.891l0.089,0.897l0.179,0.807l0.269,0.896l0.18,0.897l0.263,0.807l0.269,0.896l0.269,0.807l0.359,0.897l0.354,0.806
						l0.358,0.807l0.359,0.807l0.353,0.806l0.448,0.807l0.448,0.717l0.444,0.719l0.447,0.716l0.449,0.717l0.532,0.717l0.538,0.717
						l0.533,0.717l0.538,0.629l0.622,0.627l0.538,0.628l0.623,0.625l0.627,0.629l0.622,0.537l0.717,0.628l0.623,0.538l0.712,0.538
						l0.717,0.448l0.712,0.538l0.718,0.448l0.711,0.448l0.802,0.449l0.807,0.448l0.801,0.448l0.802,0.359l0.806,0.358l0.892,0.449
						l0.712,0.268l0.891,0.27l0.808,0.358l0.801,0.18l0.801,0.269l0.896,0.179l0.802,0.27l0.891,0.179l0.892,0.09l0.896,0.179
						l0.892,0.09l0.89,0.089l0.892,0.09l0.897,0.09h0.981h0.891h0.98h0.981l0.987-0.09l0.981-0.09h0.891l0.891-0.089l0.981-0.179
						l0.807-0.089l0.891-0.18l0.892-0.179l0.806-0.179l0.801-0.179l0.803-0.18l0.807-0.269l0.801-0.179l0.712-0.27l0.807-0.269
						l0.802-0.358l0.801-0.359l0.807-0.359l0.802-0.448l0.801-0.359l0.718-0.448l0.801-0.448l0.712-0.448l0.807-0.449l0.712-0.537
						l0.712-0.449l0.717-0.538l0.712-0.538l0.717-0.627l0.712-0.538l-0.538-0.718l-0.622-0.627l-0.538-0.717l-0.622-0.717
						l-0.538-0.718l-0.533-0.627l-0.628-0.717l-0.532-0.717l-0.538-0.629l-0.623-0.717l-0.537-0.717l-0.623-0.717l-0.538-0.628
						l-0.532-0.717l-0.627-0.717l-0.534-0.717l-0.627-0.628l-0.533-0.717l-0.717,0.538l-0.712,0.627l-0.717,0.449l-0.712,0.538
						l-0.712,0.448l-0.717,0.449l-0.713,0.448l-0.801,0.449l-0.717,0.357l-0.712,0.36l-0.717,0.269l-0.802,0.269l-0.801,0.269
						l-0.807,0.179l-0.891,0.18l-0.891,0.179l-0.892,0.089l-0.981,0.09l-0.986,0.089h-0.981h-0.891l-0.891-0.089l-0.807-0.09
						l-0.891-0.179l-0.802-0.18l-0.807-0.268l-0.801-0.269l-0.802-0.359l-0.802-0.358l-0.717-0.448l-0.711-0.449l-0.718-0.449
						l-0.622-0.537l-0.628-0.538l-0.622-0.538l-0.538-0.627l-0.622-0.628l-0.538-0.717l-0.444-0.628l-0.448-0.717l-0.442-0.806
						l-0.449-0.717l-0.358-0.807l-0.269-0.807l-0.354-0.807l-0.269-0.896l-0.179-0.892l-0.179-0.806l-0.18-0.987l-0.089-0.896
						l-0.084-0.896v-0.987v-0.179v-0.897l0.084-0.896l0.089-0.807l0.09-0.896l0.179-0.806l0.18-0.808l0.179-0.806l0.269-0.806
						l0.264-0.717l0.359-0.896l0.358-0.808l0.443-0.807l0.448-0.717l0.448-0.716l0.533-0.719l0.538-0.627l0.622-0.628l0.539-0.627
						L-320.092,0l0.718-0.538l0.712-0.538l0.711-0.448l0.717-0.448l0.803-0.36l0.801-0.359l0.806-0.357l0.892-0.27l0.891-0.269
						l0.897-0.18l0.891-0.179l0.891-0.089l0.981-0.09h0.981h1.07l0.987,0.09l0.981,0.089l0.891,0.09l0.891,0.18l0.897,0.179
						l0.891,0.268l0.801,0.18l0.803,0.357l0.717,0.359l0.801,0.36l0.627,0.357l0.713,0.449v0.896v0.896v0.897V2.42v0.987v0.896V5.2
						v0.896v0.897h-0.892h-0.806h-0.892h-0.891h-0.891h-0.807h-0.892h-0.891h-0.891h-0.806h-0.892h-0.891h-0.892h-0.806h-0.892
						v0.896v0.807v0.897v0.896v0.897v0.807v0.896v0.897v0.896v0.808v0.896v0.896v0.897v0.806v0.891h0.892h0.896h0.892h0.89h0.892
						h0.891h0.897h0.891h0.891h0.892h0.896h0.891h0.891h0.891h0.897h0.892h0.891h0.891h0.896h0.892h0.891h0.891h0.896h0.892h0.891
						h0.891h0.897h0.891h0.892h0.891h0.896h0.891h0.892v-0.891V18.29v-0.897v-0.807V15.69v-0.897v-0.896V13v-0.896v-0.806V10.4
						V9.503V8.607V7.71V6.814V5.917V5.111V4.214V3.317V2.42V1.524V0.627v-0.896v-0.807v-0.896v-0.897v-0.897v-0.896v-0.896v-0.809
						v-0.896v-0.896v-0.897L-281.53-9.592z"/>
				</g>
				<g id="g30" transform="translate(312.9946,481.1594)">
					<path id="path32" fill="#FFFFFF" d="M0,0h38.683v29.922H0v61.086h40.223v29.922h-73.072V-95.021h73.684v29.923H0V0z"/>
				</g>
				<g id="g34" transform="translate(590.0699,474.6773)">
					<path id="path36" fill="#FFFFFF" d="M0,0v-48.744c0-8.639-3.993-12.647-12.278-12.647h-6.144
						c-8.596,0-12.589,4.008-12.589,12.647V87.618c0,8.638,3.993,12.646,12.589,12.646h5.527c8.29,0,12.283-4.008,12.283-12.646
						V45.349h32.232v44.12c0,26.837-12.895,39.795-39.599,39.795h-15.97c-26.706,0-39.911-13.264-39.911-40.106V-50.284
						c0-26.843,13.206-40.106,39.911-40.106h16.274c26.711,0,39.911,13.263,39.911,40.106V0H0z"/>
				</g>
				<path id="path38" fill="#FFFFFF" d="M475.996,386.138h32.854V602.09h-32.854V386.138z"/>
				<g id="g40" transform="translate(428.3257,506.1461)">
					<path id="path42" fill="#FFFFFF" d="M0,0c0-8.639-3.987-12.652-12.277-12.652h-13.511v79.596h13.511
						C-3.987,66.944,0,62.935,0,54.298V0z M-7.061,95.944h-51.577v-215.952h32.85v78.362h18.727c26.711,0,39.911,13.263,39.911,40.1
						v57.384C32.85,82.68,19.65,95.944-7.061,95.944"/>
				</g>
				<g id="g44" transform="translate(357.6425,190.8749)">
					<path id="path46" fill="#FFFFFF" d="M0,0h188.055L92.068-31.654L0,0z"/>
				</g>
			</g>
		</g>
	</g>
</g>
</svg>
