<svg enable-background="new 0 0 566.929 458.929" height="458.929" viewBox="0 0 566.929 458.929" width="566.929" xmlns="http://www.w3.org/2000/svg"><path clip-rule="evenodd" d="m564.898 182.695c.103-1.35 0-2.745 0-3.875.015-25.821.018-51.642-.007-77.463-.001-1.341-.074-2.729-.417-4.015-7.45-27.979-20.942-52.36-43.296-71.218-18.353-15.481-39.435-24.117-63.727-24.113-64.021.011-128.042.004-192.064.004-86.168 0-172.335-.001-258.502.01-1.591 0-3.182-.08-4.898 0v58.69c1.204.469 2.251.942 3.338 1.29 7.92 2.53 15.849 5.035 23.776 7.545 79.821 25.273 159.644 50.542 239.464 75.823 37.698 11.939 75.383 23.919 113.091 35.826 2.366.747 4.884 1.441 7.333 1.444 57.348.081 114.696.064 172.045.052 1.128 0 2.515.104 3.864 0zm-222.241-3.722c-51.406-16.294-102.396-32.456-154.027-48.82v226.685c-22.218 11.208-44.116 22.253-65.864 33.224v66.882h269.52c0-43.316 0-86.366 0-129.985-16.6 0-32.95 0-49.629 0 0-49.564 0-98.559 0-147.986zm17.448 17.717v114.012h204.543c0-38.089 0-75.92 0-114.012-68.267 0-136.273 0-204.543 0z" fill="#cf8a61" fill-rule="evenodd"/><path d="m394.272 458.929h-273.493v-70.091l65.865-33.224v-228.175l157.999 50.079v147.452h49.629zm-269.521-3.973h265.548v-126.013h-49.628v-148.516l-150.056-47.562v225.195l-65.864 33.224zm441.882-142.268h-208.513v-117.983h208.514v117.983zm-204.542-3.972h200.57v-110.039h-200.57zm201.459-123.988c-.484 0-.96-.013-1.417-.025-.383-.01-.75-.021-1.092-.021l-8.07.002c-19.899.004-39.796.008-59.696.008-41.668 0-73.831-.019-104.289-.062-2.703-.004-5.407-.741-7.929-1.537-24.306-7.675-48.603-15.38-72.898-23.086-13.398-4.249-26.795-8.498-40.194-12.741-56.305-17.833-112.612-35.66-168.919-53.487l-74.236-23.504c-6.698-2.121-13.396-4.241-20.09-6.378-.807-.258-1.556-.564-2.349-.887-.357-.146-.723-.295-1.106-.444l-1.265-.493v-61.945l1.894-.088c1.19-.055 2.322-.038 3.433-.019.518.009 1.031.017 1.544.017 72.686-.009 145.355-.009 218.027-.009l151.407.002c27.049 0 54.099-.001 81.146-.006 23.806 0 45.671 8.27 65.007 24.581 21.438 18.085 35.81 41.71 43.935 72.226.428 1.604.483 3.261.484 4.524.023 25.822.021 51.644.007 77.466 0 .342.011.711.021 1.097.023.894.051 1.906-.026 2.927l-.129 1.699-1.699.131c-.5.038-1.005.052-1.501.052zm-2.516-4.019c.384 0 .787.011 1.208.022.231.006.469.013.71.018-.005-.243-.012-.484-.018-.724-.012-.423-.022-.828-.022-1.205.015-25.821.018-51.641-.007-77.461-.001-1.023-.041-2.346-.35-3.506-7.909-29.702-21.862-52.668-42.658-70.211-18.6-15.69-39.604-23.646-62.429-23.646-27.064.004-54.114.006-81.163.006l-151.407-.002c-72.672 0-145.342 0-218.014.01-.549 0-1.084-.009-1.624-.018-.425-.007-.853-.013-1.288-.016v55.396c.682.278 1.329.54 1.958.741 6.688 2.136 13.384 4.256 20.079 6.375l74.236 23.504c56.307 17.827 112.614 35.654 168.919 53.487 13.399 4.244 26.797 8.493 40.194 12.742 24.295 7.705 48.59 15.41 72.895 23.084 2.219.701 4.57 1.35 6.738 1.353 30.456.043 62.617.062 104.283.062 19.9 0 39.797-.004 59.695-.008z"/><path clip-rule="evenodd" d="m564.898 182.695-178.77-.052-384.142-121.739s0-39.136 0-58.88c1.717-.08 177.233-.01 263.401-.01 64.021 0 128.043.007 192.064-.003 24.292-.004 45.374 8.632 63.727 24.113 22.354 18.858 35.846 43.239 43.296 71.218.343 1.286.416 2.673.417 4.015.025 25.822.007 81.338.007 81.338z" fill="#cf8a61" fill-rule="evenodd"/><path d="m566.883 184.682-181.062-.052-.293-.093-385.528-122.179v-62.23l1.894-.088c.403-.018 7.359-.04 57.984-.04 30.269 0 68.808.007 106.595.015 36.342.007 71.988.014 98.914.014l110.918.002c27.053 0 54.095-.001 81.146-.006 23.806 0 45.671 8.27 65.007 24.581 21.438 18.085 35.81 41.711 43.935 72.226.427 1.604.483 3.26.484 4.524.023 25.822.007 81.34.007 81.34zm-180.447-4.024 176.477.051c.003-10.128.014-56.434-.008-79.35-.001-1.023-.041-2.346-.35-3.506-7.909-29.702-21.862-52.668-42.658-70.211-18.6-15.69-39.604-23.646-62.429-23.646-27.068.004-54.11.006-81.163.006l-110.918-.002c-26.926 0-62.573-.007-98.915-.014-37.787-.007-76.326-.014-106.594-.014-12.41 0-47.302 0-55.906.025v55.453z"/><path clip-rule="evenodd" d="m342.657 178.973v147.984h49.629v129.985c-89.912 0-179.575 0-269.52 0 0-22.296 0-44.378 0-66.882 21.748-10.971 43.646-22.016 65.864-33.224 0-75.393 0-150.66 0-226.685 51.631 16.366 102.62 32.527 154.027 48.822z" fill="#cf8a61" fill-rule="evenodd"/><path d="m394.272 458.929h-273.493v-70.091l65.865-33.224v-228.175l157.999 50.079v147.452h49.629zm-269.521-3.973h265.548v-126.013h-49.628v-148.516l-150.056-47.562v225.195l-65.864 33.224z"/><path clip-rule="evenodd" d="m360.105 196.69h204.543v114.012c-68.269 0-136.276 0-204.543 0 0-38.092 0-75.923 0-114.012z" fill="#cf8a61" fill-rule="evenodd"/><path d="m566.633 312.688h-208.513v-117.983h208.514v117.983zm-204.542-3.972h200.57v-110.039h-200.57z"/></svg>