<svg xmlns="http://www.w3.org/2000/svg" width="400" height="150"><g fill="#fff" color="#000"><path style="isolation:auto;mix-blend-mode:normal;solid-color:#000;solid-opacity:1;marker:none" d="M79.756 36.115l-33.574 19.47-.133 38.83 33.87 19.47 33.87-19.437-.148-38.864zm0 3.087v28.111l3.949 2.37-3.949 2.284L51.335 55.47zm31.555 18.085l.105 35.798-29.981 16.888V74.314z" overflow="visible"/><g stroke-width=".701" font-weight="400" font-size="28.467" font-family="Overpass" letter-spacing="0" word-spacing="0"><path d="M130.394 94.057V56.268h23.434v5.297h-17.82V71.92h11.52v5.297h-11.52v16.839zM160.55 94.057V56.268h5.614v32.387h18.478v5.402zM216.59 94.057l-3.005-8.696h-15.289l-3.084 8.696h-5.825l13.654-37.789h5.773l13.602 37.789zm-9.331-26.51q-.317-.896-.712-2.082-.369-1.186-.58-2.161-.263.975-.632 2.16-.343 1.16-.66 2.083l-4.665 12.86h11.835zM239.075 61.67v32.387h-5.615V61.67h-10.702v-5.402h26.993v5.402zM257.026 94.057V56.268h15.183q3.48 0 5.852 1.028 2.399 1.001 3.849 2.635 1.476 1.634 2.108 3.716.66 2.055.66 4.19 0 1.317-.317 2.687-.29 1.37-.923 2.662-.632 1.265-1.634 2.398-1.002 1.133-2.399 1.976-1.37.844-3.163 1.344-1.792.475-4.033.475h-9.568v14.678zm15.5-20.08q1.766 0 2.952-.554 1.212-.553 1.95-1.423.765-.896 1.081-1.976.343-1.107.343-2.187 0-1.002-.29-2.082-.29-1.08-1.002-1.977-.711-.922-1.95-1.502-1.213-.606-3.084-.606h-9.885v12.307zM311.485 94.057l-3.005-8.696h-15.288l-3.085 8.696h-5.825l13.654-37.789h5.773l13.602 37.789zm-9.331-26.51q-.316-.896-.712-2.082-.369-1.186-.58-2.161-.263.975-.632 2.16-.343 1.16-.66 2.083l-4.665 12.86h11.835zM347.36 94.057l-10.649-19.764-6.695 8.116v11.648h-5.615V56.268h5.615v18.315l14.577-18.315h6.485l-10.57 13.281 13.443 24.508z" style="line-height:125%;-inkscape-font-specification:'Overpass, Normal';text-indent:0;text-align:start;text-decoration-line:none;text-transform:none;marker:none"/></g></g></svg>