<svg height="160.70958" viewBox="0 0 427.86112 192.8515" width="356.55093" xmlns="http://www.w3.org/2000/svg"><g transform="translate(-.618713 -10.658497)"><text fill="#ef00eb" font-family="TrasksHand" font-size="2.4" stroke="#0105ff" stroke-width="3" x="311.89667" y="76.231308"><tspan fill="#fafafa" fill-opacity=".4" font-size="2.4" stroke="none" stroke-width="3" x="311.89667" y="76.231308">John Loreth 2022</tspan></text><g fill="#666"><g><path d="m24.058743 194.89666c0-3.49334-1.920003-4.90668-5.520007-4.90668h-7.813343v3.44001h6.826675c.773334 0 1.280002.24 1.280002 1.49333 0 1.09334-.400001 1.49334-1.253335 1.49334h-8.0533439c-2.5333366 0-3.2266708-.56-3.2266708-4.61334 0-3.86667.6666675-4.61334 3.2266708-4.61334h13.7066839v-4.10667h-17.3066885c-3.4133376 0-5.30667334 2-5.30667334 5.30667v6.82668c0 3.30667 1.89333574 5.30667 5.30667334 5.30667h12.6133495c3.600004 0 5.520007-1.76 5.520007-5.62667z"/><path d="m49.379997 195.21666v-6.82668c0-3.30667-1.920002-5.30667-5.306673-5.30667h-17.306689v4.10667h13.680018c2.586669 0 3.22667.74667 3.22667 4.61334 0 4.05334-.693334 4.61334-3.22667 4.61334h-8.053344c-.853334 0-1.253335-.4-1.253335-1.49334 0-1.25333.506667-1.49333 1.280002-1.49333h10.160013v-3.44001h-11.146681c-3.600005 0-5.49334 1.41334-5.49334 4.90668 0 3.86667 1.893335 5.62667 5.49334 5.62667h12.640016c3.386671 0 5.306673-2 5.306673-5.30667z"/><path d="m82.996696 200.52333v-12.13335c0-3.30667-1.893335-5.30667-5.306673-5.30667h-26.773367v17.44002h5.813341v-11.84001c0-1.33334.16-1.49334 1.253335-1.49334h4.826672c1.066668 0 1.253335.16 1.253335 1.49334v11.84001h5.786674v-11.84001c0-1.33334.186667-1.49334 1.253335-1.49334h4.826673c1.093335 0 1.253335.16 1.253335 1.49334v11.84001z"/><path d="m108.35668 188.70998c0-3.86667-1.92-5.62667-5.52001-5.62667h-12.613345c-3.413337 0-5.306673 2-5.306673 5.30667v6.82668c0 3.30667 1.893336 5.30667 5.306673 5.30667h17.306685v-4.10667h-13.70668c-2.560003 0-3.226671-.74667-3.226671-4.58667 0-4.05334.693334-4.64001 3.226671-4.64001h8.05334c.85334 0 1.25334.4 1.25334 1.49334 0 1.25333-.50667 1.49333-1.28 1.49333h-10.133349v3.44001h11.120009c3.60001 0 5.52001-1.41334 5.52001-4.90668z"/><path d="m161.489 195.21666v-6.82668c0-3.30667-1.89334-5.30667-5.28001-5.30667h-12.88001c-3.41334 0-5.30668 2-5.30668 5.30667v6.82668c0 3.30667 1.89334 5.30667 5.30668 5.30667h12.88001c3.38667 0 5.28001-2 5.28001-5.30667zm-5.68001-3.41334c0 4.10667-.74666 4.61334-3.22667 4.61334h-5.65334c-2.53333 0-3.22667-.56-3.22667-4.61334 0-3.86667.66667-4.61334 3.22667-4.61334h5.65334c2.48001 0 3.22667.58667 3.22667 4.61334z"/><path d="m182.87874 200.52335v-4.10667h-10.38622c-2.49795 0-3.18161-.56001-3.18161-4.61334 0-3.86667.65736-4.61333 3.18161-4.61333h10.38622v-4.10667h-13.93594c-3.36567 0-5.23255 1.99999-5.23255 5.30667v6.82667c0 3.30666 1.86688 5.30667 5.23255 5.30667z"/><path d="m208.54256 183.04871-6.78453.0346-3.52585 7.33333c-.40595.84432-.2975 1.25333-1.29817 1.25333h-4.74256v4.34667h4.92475c.97363 0 1.10886.10667 1.40635 1.14667l2.35043 3.36001h6.69607l-4.18791-4.94099c-.87291-1.53497-.96407-1.56151.22645-3.55925zm-17.59519 17.47464v-20.42668h-5.89586v20.42668z"/><path d="m231.55819 188.70998c0-3.86667-1.92-5.62667-5.52001-5.62667h-12.61335c-3.41333 0-5.30667 2-5.30667 5.30667v6.82668c0 3.30667 1.89334 5.30667 5.30667 5.30667h17.30669v-4.10667h-13.70668c-2.56001 0-3.22667-.74667-3.22667-4.58667 0-4.05334.69333-4.64001 3.22667-4.64001h8.05334c.85334 0 1.25334.4 1.25334 1.49334 0 1.25333-.50667 1.49333-1.28001 1.49333h-10.13334v3.44001h11.12001c3.60001 0 5.52001-1.41334 5.52001-4.90668z"/><path d="m243.5974 200.52333v-4.10667h-2.10667c-2.26667 0-2.69334-.53334-2.69334-2.96v-6.26668h4.80001v-4.10667h-4.80001v-2.98667h-5.81334v15.12002c0 3.30667 1.89334 5.30667 5.30667 5.30667z"/><path d="m270.25818 200.52335v-4.10667h-10.38622c-2.49795 0-3.18161-.56001-3.18161-4.61334 0-3.86667.65736-4.61333 3.18161-4.61333h10.38622v-4.10667h-13.93594c-3.36567 0-5.23255 1.99999-5.23255 5.30667v6.82667c0 3.30666 1.86688 5.30667 5.23255 5.30667z"/><path d="m295.8904 195.21666v-6.82668c0-3.30667-1.89334-5.30667-5.28001-5.30667h-12.88001c-3.41334 0-5.30668 2-5.30668 5.30667v6.82668c0 3.30667 1.89334 5.30667 5.30668 5.30667h12.88001c3.38667 0 5.28001-2 5.28001-5.30667zm-5.68001-3.41334c0 4.10667-.74667 4.61334-3.22667 4.61334h-5.65334c-2.53334 0-3.22667-.56-3.22667-4.61334 0-3.86667.66667-4.61334 3.22667-4.61334h5.65334c2.48 0 3.22667.58667 3.22667 4.61334z"/><path d="m329.71264 200.52333v-12.44474c0-3.39153-1.89333-5.44286-5.30666-5.44286h-26.77334v17.8876h5.81333v-12.14387c0-1.36756.16-1.53166 1.25334-1.53166h4.82667c1.06667 0 1.25332.1641 1.25332 1.53166v12.14387h5.78668v-12.14387c0-1.36756.18666-1.53166 1.25333-1.53166h4.82666c1.09334 0 1.25334.1641 1.25334 1.53166v12.14387z"/><path d="m355.32368 194.94679v-7.04883c0-3.41426-1.93628-5.47934-5.39974-5.47934h-13.17208c-3.49074 0-5.42701 2.06508-5.42701 5.47934v15.61204h5.94517v-13.79476c0-2.50563.43634-3.05632 2.75441-3.05632h6.1906c2.53624 0 3.29984.60575 3.29984 4.76346 0 4.2403-.7636 4.76346-3.29984 4.76346h-7.99051v4.2403h11.69942c3.46346 0 5.39974-2.06509 5.39974-5.47935z"/><path d="m379.84405 194.94679v-12.52817h-5.94515v10.71089c0 2.50563-.43634 3.05633-2.75442 3.05633h-5.69972c-2.31806 0-2.7544-.5507-2.7544-3.05633v-10.71089h-5.94517v12.52817c0 3.41426 1.93627 5.47935 5.42701 5.47935h12.24485c3.49074 0 5.427-2.06509 5.427-5.47935z"/><path d="m391.59742 200.52332v-4.28718h-2.10668c-2.26667 0-2.69333-.55678-2.69333-3.09012v-6.54213h4.80001v-4.28718h-4.80001v-3.11795h-5.81335v15.78462c0 3.45203 1.89333 5.53994 5.30667 5.53994z"/><path d="m416.44287 188.18861c0-4.03733-1.92-5.87501-5.52-5.87501h-12.61334c-3.41332 0-5.30666 2.08827-5.30666 5.54088v7.12797c0 3.45262 1.89334 5.5409 5.30666 5.5409h17.30668v-4.28793h-13.70668c-2.55999 0-3.22666-.77963-3.22666-4.7891 0-4.23224.69334-4.8448 3.22666-4.8448h8.05334c.85333 0 1.25333.41765 1.25333 1.55924 0 1.30865-.50666 1.55924-1.28 1.55924h-10.13333v3.59184h11.12c3.6 0 5.52-1.47572 5.52-5.12323z"/><path d="m428.47982 186.60152v-4.28792h-5.30666c-3.41334 0-5.30667 2.08827-5.30667 5.54088v12.66887h5.81333v-10.83119c0-2.53377.42667-3.09064 2.69333-3.09064z"/><path d="m136.12894 189.345c0-4.71756-3.03192-6.61007-5.98263-6.61007h-10.50342c-3.46505 0-5.38707 2.05707-5.38707 5.45811v12.56188h5.90141v-12.26018c0-1.37139.16242-1.53595 1.27233-1.53595h6.49696c1.54303 0 2.46343.68569 2.46343 2.30392 0 1.61824-.9204 2.35878-2.46343 2.35878h-6.63232v4.30615h8.85211c2.95071 0 5.98263-1.86508 5.98263-6.58264z"/></g><path d="m34.558594 12.279297c-.552285 0-1 .447715-1 1v3.316132l-.827972.970977h-4.923981c-.552285 0-1 .447715-1 1s.447715 1 1 1h4.63749l1.114463 1.016458v13.012839c0 .552285.447715 1 1 1s1-.447715 1-1v-13.035083l1.082515-.994214h5.603032c.552285 0 1-.447715 1-1s-.447715-1-1-1h-5.692308l-.993239-1.029948v-3.257161c0-.552285-.447715-1-1-1z" stroke-linecap="round" stroke-linejoin="round"/><circle cx="40.688507" cy="13.376314" r="1.5"/></g><g stroke-linecap="round" stroke-linejoin="round"><path d="m40.686949 13.202026v5.27224" fill="none" stroke="#666" stroke-width="1.5"/><path d="m56.823247 31.206781c6.897299-1.829305 6.920569-6.991645 7.549184-11.895727m-5.614594-.63107c.006.933866-.0049 1.831883.324718 3.450084m-5.867317-2.346082c.348758.373147.693303.616284 1.124059 3.519335" fill="none" stroke="#666" stroke-width="2"/><path d="m80.374539 16.969106 9.275203-.422197c-1.112669 7.642686-4.203569 13.097934-10.72393 15.653547m-2.6353-9.509889c1.813535-2.073006 3.623595-3.776076 5.191773-9.160547" fill="none" stroke="#666" stroke-width="2"/><path d="m101.82227 11.517578c-.55153-.0022-1.00068.442617-1.00391.994141l-.0156 3.113281c-.8085.169708-1.598469.461889-2.306636 1.021484-.433579.34197-.507902.970651-.166016 1.404297.342108.434835.972288.509232 1.40625.166016.334492-.264317.702212-.29081 1.054692-.423828l-.0273 5.296875c-.68832.837612-1.313322 1.574806-2.652342 2.982422-.517459.543049-.27508 1.441342.445313 1.65039.7733.225008 1.502699.15997 2.183589-.02148l-.0293 5.822265c-.003.553047.44304 1.003707.99609 1.00586.55153.0022 1.00068-.442617 1.00391-.994141l.0371-7.21289c.25387-.267072.51154-.247696.69937-.545528.34752.282266.68431.325678 1.09946.572871.4746.282725 1.08854.127053 1.37109-.347656.28273-.474604.12705-1.088549-.34766-1.371094-.13261-.07896-.73808-.572194-1.21679-.9375-.23936-.182652-.38465-.337813-.79102-.486328-.0502-.01834-.15606-.0217-.22852-.03711.026-.04.0858-.08448.11133-.125.12597-1.184151.84401-2.395851 1.48896-3.995497.23173-.574752.3506-1.054541.41143-1.891222.079-.449583-.15648-.895593-.57226-1.083984-.62998-.286343-1.30527-.288422-1.97071-.378906l.0156-3.173829c.002-.552285-.44381-1.001751-.99609-1.003906z" fill="#666"/><g stroke="#666"><path d="m107.219 18.93737 6.85548.03105m-7.6495 13.134198 8.14515-.03832m-4.1097-18.92184-.19035 18.790421" fill="none" stroke-width="2"/><path d="m131.32366 14.913357c-.79603 5.738847-1.1086 11.642759-4.84541 15.761635-2.87899 2.655659-6.53497-14.225227 3.76215-16.559151 12.51709.709728 7.3778 17.294882 2.38329 17.797675" fill="none" stroke-width="2"/><path d="m148.13929 18.976484 12.22521-.128391-.19975 9.756221c-.57258 2.895528-2.02859 2.353229-3.19455 2.689343m-8.65056.07405c3.90457-3.147087 6.03989-5.552101 5.70354-18.181058" fill="none" stroke-width="2"/><path d="m170.63548 18.497556h13.88414c-.33923 2.388561-1.66061 4.526403-4.07387 6.38551m-5.78835-12.038893v15.685196c.0578 1.098689-.10511 2.510874 2.60664 2.408077l7.31291-.127196" fill="none" stroke-width="2"/><path d="m200.30849 30.961047c6.8973-1.829305 6.92057-6.991645 7.54918-11.895727m-5.61459-.63107c.006.933866-.005 1.831883.32472 3.450084m-5.86732-2.346082c.34876.373147.6933.616284 1.12406 3.519335" fill="none" stroke-width="2"/><path d="m221.65776 19.838197c2.16609.460604 5.4092 2.335734 10.81141 7.046574m-10.79589 6.753663v-21.462193" fill="none" stroke-width="2"/><path d="m243.36299 30.937745 6.51958-1.558009m-2.99061-7.26036.0681 7.343664m-3.37701-7.240951 5.84717-.146307m2.92163-10.417285c1.22647 12.963651 1.64735 19.645331 3.54568 20.438947 1.42982-1.104261 2.15915-2.03869 2.69293-3.841577l-.3795-1.033995m-15.45857-10.626593 14.80408-.04479c.27642-1.194235.20083-2.38847-.41175-3.582705" fill="none" stroke-width="2"/><path d="m276.64306 18.517414-.73093 6.192036c-1.87547 4.602571-3.66779 4.840486-5.49024 6.659479m-.30994-13.61074 10.88673.369054m-14.70817 4.563324c1.81354-2.073006 3.6236-3.776076 5.19178-9.160547" fill="none" stroke-width="2"/><path d="m289.89572 21.703796h15.5295" fill="none" stroke-width="2"/><path d="m324.48566 21.202994 4.9299 10.628733m-1.68904-3.082084c-4.66146.576705-9.05733 1.532347-14.06932 1.582213m6.56067-17.054279c-1.0962 6.14098-3.1424 11.243474-4.7137 16.865106" fill="none" stroke-width="2"/><path d="m339.91849 30.847459c6.47546-.574345 11.85512-7.030916 12.02219-12.529119m-11.60598-3.776183c.74719.560231 1.45554 1.112309 2.94346 1.828828m-4.86678 4.142944c.50876.04507.92761-.0039 3.18608 1.870319" fill="none" stroke-width="2"/><path d="m369.19063 23.536155 6.45537 7.369045m-12.6059-16.087986 9.51049-.255591c-.92169 5.892328-4.3983 11.192124-10.02405 15.96497" fill="none" stroke-width="2"/><path d="m393.64254 21.354105c.51252 5.086745-1.69337 9.99114-4.65074 10.230073m-3.54598-10.914426h14.86678m-12.93166-6.20009h10.73408" fill="none" stroke-width="2"/><path d="m415.4668 13.277344-4.70703 16.845703c1.57057-5.613857 3.61211-10.711896 4.70703-16.845703zm-4.70703 16.845703-1.85352.208984c5.01199-.04987 9.40885-1.005326 14.07031-1.582031zm8.97656-8.919922 4.92969 10.628906z" fill="none" stroke-width="2"/><path d="m27.479905 31.437758c1.303287-2.43166 2.531893-4.910477 3.423692-7.601966m7.86968-.06123c.730763 2.986739 1.742811 5.262162 2.801702 7.419127" fill="#f06" fill-opacity=".436557" stroke-width="2"/><path d="m4.2851562 16.740234h13.1230468zm6.4257818.146485v13.001953zm-7.898438 13.144531h15.878906z" fill="#f0f" stroke-width="2"/><path d="m277.73039 13.452392 3.36351.423316.24684-1.228779m-3.04199 1.281774.1043 3.608643" fill="none" stroke-width="1.5"/></g></g><path d="m36.9213 157.542-.3973.004 1.0243-.71 1.7043-1.709-2.3891-1.55 1.2259-2.467-1.3069-1.295.0356.72-3.6121 3.11-4.4442 1.351-1.0575.942.1672-.559-1.6615-2.313.0247-2.039.7187 2.317.9089-1.492 3.7667-2.743 3.0984-2.102.1568-1.697.3544-.018-.1628-2.138 1.4869-5.261.195 1.302 2.905.376-.5699-5.289 1.7117-3.019 1.6452.435-1.0718 1.096 1.9424-.705-1.2542.057.9034-2.645 1.9416-2.418 2.9065-5.526 1.2801-6.399-2.5449-1.41-1.4199-1.433-.1618.876.8361-.024-.1188-.197.8107-3.28-1.4848-3.8.1558-3.593-1.6985-.916-1.5032.175-.3801 2.056-1.7995 2.143 2.3243-.175-1.8651 1.54-1.5197 5.131-3.1528 4.258-2.9994.834-1.6016-.353-1.7723-1.96-.0164.077-1.199-.402-3.0173 2.495-.5389-.813 1.067 1.962-3.1295.656-1.2381-1.708.3619-1.587-1.6749-.423.0931-1.216.9878-.705 2.758-3.423.389-4.13 1.1996-2.15.5183 2.465.0885-7.5549 1.454-4.2766-1.5892-2.3691 1.7146-2.8341.4928-.6601.3511-4.677.2916-.3242 2.0908-3.8633-2.0101 2.1731-.4317-.6946-1.7497-3.9049 1.534-1.1556-.0741-.6211.821-.2545 1.8695-.985 1.4365-1.9751-3.7295-1.2276-.9273-2.3051-.1659.5195 1.4571-3.3281 1.4063-1.1496 4.3579-2.6159 1.5796-.4338 1.5195-2.0172 3.2328 1.0315 2.1503.5842 1.4655 2.8558 2.6283-.6089-.4919 3.5271-.4355.6499.8987.1643.2977-1.1961 1.8454 2.9804 3.8787 2.7275-.1973.2902-.8487-.3698-2.9893 3.1249-3.9236 2.6506 2.59 1.1804 1.3813.425-.4923 1.8194 2.4018-2.6384 10.1832.0626 10.1758-.0708 2.1388-.4611 2.3026-.529-.338 1.6034-.3753.1122 1.32 3.751 1.017 1.4676.2265 3.0589.4451 1.3814.0667-.2709.1116 5.302-6.5154-1.9448-5.3656.2925 1.4172 3.0529-2.7556-1.9582 1.5586-1.1341 1.4089 2.2542-1.0007 2.3165 1.4125 1.0801-3.018-.3759-.5446-.2912-.4991 1.3469.6133 2.1396-1.3231 9.491 1.1516 9.659-.7203 4.198.0365 4.646-1.9249 2.587-.0208 3.762-2.5478 2.465-2.8348 5.643-4.114 4.181-4.3483 5.9-4.0318 2.923-4.1373 1.391-.7745-3.408-1.53 1.188.9583 2.119-.1622 1.86zm316.3197-2.577-1.526.047-1.649-1.819-5.001-4.117.529-3.44-.601-2.684.855-3.842.57-3.64 1.512.589-4.011-.651 2.492-3.15 1.74-5.932-1.529 1.756 1.319-1.459 5.3-3.875 1.56-1.118 6.9-1.015 6.366 1.699-1.297-.682 1.717-3.292 2.109.994 4.671-2.239.639-2.494 4.444-3.693 2.36 1.212 1.767-2.373 2.353-2.672 2.482-2.289 4.02-.446 2.541-.132.383-.522-1.989-2.234 6.102-3.0578 3.893-3.0604 2.083 1.5986.068.5754-1.973 2.5772-2.219 1.001.004-.324.081 2.149 3.342-.576-.515-.432 1.412 1.374 1.749.136-2.684 1.967-1.836 5.455-.294 1.323-1.971.969-1.458-.778-4.128 1.233-.019.338.633.78-.464 3.463-.091 2.519-3.129 1.861-3.003-2.141 2.319.826-1.182 2.851-1.808.152 1.23 3.4-2.201-.241-3.538-.086-3.449 4.399-4.687 6.15-2.552.981-.009.302-1.734.806-2.324 2.09.916.764.01-.307-1.58.898-1.382.808-3.594 5.451-2.106 2.462-1.838.564-4.731 2.467-1.354-1.107zm-158.876-1.595-1.533.88.184-2.46-1.138.065.918-6.477-.249-4.565.01-3.034 1.272-2.981-.457-1.073-.733-.808-.265-9.132.924-7.176-.933-2.505-1.443-.188-1.112 2.523-1.277 1.843-.531 3.118-1.011 3.724-.331 4.122-1.089.596-2.298.569-.752.188-1.585-.243.199 3.602-.296.376-.126 1.471 1.855.352-.985 1.024 1.449-3.714-1.306-.629 2.381-.489.296 1.915-2.823 2.325-1.633 5.527.574 1.167-.759 2.627-.074 2.968-1.498 1.93-1.792.96-2.305-1.915.935-1.985-1.28-.842-.857-.952.729-1.93-.446-1.453-2.285-.051-.925-5.129-.126-2.663-.126-.01.474 1.148 1.407-4.358-.503-2.852 2.039-.565 1.626-2.442-.312-.789 2.139-3.905-1.475-1.288-2.682-3.447 1.304-1.86.835-5.148 2.148-1.657 2.524-2.063.206-2.052-1.253-1.722-3.717-.907-1.206 1.276-3.985-1.945-2.874-4.1523 1.945-4.7375-1.611-6.7507 3.541-.7483 1.375-2.1112-.323.0528.232-.7883-.243.7946 3.746-.903.02-1.313-1.465-1.7064 9.168 1.3608 9.906-1.1984-1.281-2.8425-1.249-3.6233-.437.3937-3.104-1.4063.617-2.9818.001-2.5364 2.002-2.5072 2.442-.8633 3.6-1.8431 3.76-3.3686-.204-.0106 2.125-2.4292.724 1.3422 1.179 1.6098-1.116.7541-.402-.2514 4.351 2.5473 1.46 1.8165 1.515 1.7028 2.424 5.0128-.352 3.8499-3.201 2.8287 1.942.8345 1.377 1.0267.825.4639 3.165-2.48 2.439-.8689 1.82.8826 3.86-.2507 5.981 3.9683 2.382 2.2998-1.755-1.5094 1.779 3.0679 1.981 2.9249-.951 1.1095.442.6568-1.587-1.1454.859 1.4292-3.976 3.3015-.379 4.5309-.06-1.7914-1.145 1.0131.663.3601.016 2.2907-3.277-2.5228-3.098.5633 2.659 2.0327-2.808.9296-5.643.0334-4.709-.1963-1.09.1297-1.397 1.4653 1.876 3.2883-1.029 3.772-1.569 11.818 1.129 7.291-.983 4.757-1.401 3.627.631 2.244.387 6.289-1.289 3.204-.208 6.501-1.722-1.001-2.625-1.189-1.377.456-1.408-.154-.766-5.429-1.449-3.239.61-1.757-.312 2.093-1.2 2.716-.377.955-.137 3.021-.269 4.534zm-3.836-47.333 1.059-.201 2.295-2.219-1.122-2.413-.685-.591-2.759-2.4589-4.782 2.3029-3.86.027.029.046.126.02.869.804.539 1.955 1.824-.338 3.35.698.809 1.883 2.449.221-.636.644zm54.949 46.557-1.978 1.472-1.067-3.924.107-2.43 3.866-4.592 3.207-9.74 1.118 1.454-3.932-1.038 5.449-2.861 1.293-2.471 1.662-2.489-.476-.169.592-2.424.788-.863 1.476-10.292 1.48-10.372-1.31-1.829.986-1.9142-3.796.3033-1.823.3225-1.449.3293-2.768 2.5231.179 1.016.218.622-1.766 2.958-.408 1.011-3.447 3.245 1.158 3.771-2.526-.243-1.771.25-.405-1.146.725-1.339-1.417-1.564.722-3.469.979-1.947 2.065-2.497-1.354-.732-.443-1.523-2.037 3.264-2.729 3.117-1.721-1.989-2.123 1.29 2.584-5.8926 3.32-3.8436 1.239-3.5828-3.102-2.7906 1.608.9024 2.93-1.7568-1.37-4.0285.416-5.522 1.453.3409-.407.3572 1.092-4.5211-.449-5.5889 4.408-1.11.468-1.7987 3.559-2.1337 5.153-.0639 2.127-.386 1.937 1.0878-1.556.4881 4.399-1.6314.631 2.752.64 1.1946.764 5.3934.105 2.4726-1.428 1.3784-2.66 1.5103 1.897 2.4299-1.424 1.2139 1.589-2.0166 1.548.6919 1.152.0338-3.585 1.5627 3.341-2.8853 2.672-.3452 8.695-.9962 10.513.0809-1.229 2.5701-.207-1.7577-1.94 2.7751-1.099-.8193-.401 2.198 1.873 3.8343-1.991-.109-2.941 2.7313 2.385 2.1664 5.186-.3945-.241 1.596.935 1.9517-.855-.6221.79 1.9349-6.31-.4709-4.738 2.397-.933-.8731-.466 1.53-.847 2.9039 2.342 3.515-.531-.546-2.364-.854-1.434 5.943.835 3.344-2.073 5.617-.006 2.007-.22 1.241 2.636 1.922-1.048 1.12.446 1.258-4.575 2.143-2.016 2.236.612 1.037.686 1.473-1.165.029-.114 2.123-.659 1.156 1.701-1.309-3.512 2.402-1.779 4.305-1.37 1.316 2.041 1.798-3.159-.208.252 1.113-3.191 1.913-1.281.048-1.987.894 2.04 2.727-4.143 1.499-1.326-.508-1.881-1.442 1.427-3.084-2.574 2.152-1.149.462.981 1.424-1.004.594-1.045-.327zm58.583-1.587-2.306.019-.565.875-2.171-.513-2.595-4.254-3.715-2.035 1.243-4.509.967-.122-4.561-1.18.92.546 1.825-3.722 1.304-1.584-.189-.28.239-1.633-.973 2.351-4.349.646 2.132-2.764 1.128-2.877 1.433-2.534.108 1.237 2.683-1.717 2.455-.747 9.424-1.069 11.906 1.845.498-1.348 3.251.376-3.644-3.55-.195-1.267 2.376-8.094-.864-8.166 1.304-.561.046-1.864-1.037-1.955-3.881-3.0704-.972.273-2.716.1911-.244 2.5973-2.991.325-1.13-2.2417-1.172-.2359-1.019 1.3501 3.031.3895-4.74.964-2.563.776-2.755 1.726-2.033-.9-3.87-2.092-1.582 2.438-.33-2.803 1.493-3.3208-1.45.6575-1.138-2.9237 1.498-1.1586-.501.0173-.423-2.099-3.299.9741 1.676-4.3962.75-4.2023 5.234-3.455 1.546-3.0192 3.583-1.4333 1.631.0002 3.134 1.5181 2.841 1.5338 8.065-1.007 10.519 1.3826-1.87-1.7428.917-.4794 7.327.0596 3.489-.4258.861 4.018.889 2.7752 1.848 3.5871 1.583.7889-.714 4.8825.141 1.841-2.212 2.4981-2.211 4.0861-.47 7.782.931 5.444-2.079 1.013-.108 1.294-.29 2.244-1.065.872 2.252 4.054-.668 1.5 2.21 3.571 2.185 1.397-.162 1.063.142 1.775-.364 5.222-2.043 6.991-1.824.609-1.812 2.144-5.143-2.028-6.12-.222-2.671 1.458-3.158-1.298-3.94 1.342-6.386.612-1.42.234-1.361 4.445-.143-2.63zm24.789-26.259 3.161 2.035-2.184-1.239.698-3.02-1.358 2.11-1.478-1.629 2.032.89-.57 1.223zm3.248-4.178-.72858-.54355.40588-3.31439-.30244-3.10277-.61486-.75529-1.163-.554.543.918.18769 3.70536c-.7679.80188 1.77755 1.77587-2.30369 2.40564l2.673.828zm-105.148 28.17-1.171.053.914-4.103-.611-.909-.988-.203-1.848 1.025-1.179-2.466-2.994-1.79 1.598-1.748 1.416-.72-1.062-1.842-1.756.439-.704-1.222.105-3.837-2.942-2.255-.717-2.433 1.068-.116 1.072.581-2.418-3.627-.988-3.595-1.33 1.194.56-.759-1.677-6.917 1.692-5.379 2.621-2.583 2.083-2.839 1.977 2.021 1.42 2.481 3.774-2.042 1.491.262 1.151 1.093 1.725 1 2.037 4.625-1.786 3.795 1.792 9.518.034 6.862 2.638 2.934-.183 2.994-3.821 3.236-2.76 2.893 2.414 2.946-1.355-1.426-.092 1.155zm-110.542-3.739-4.858-.433.136-.859-2.278-.823-1.361-1.513 1.059-2.138-2.004.906-.735-1.321-.732-.745-1.179-.474.408-2.569 1.431-2.629 1.435-1.575 1.978-3.134-.699 1.484-3.024-2.36 3.647-1.257.245-.93 3.29-2.245 1.279.584.952-4.29 3.297-2.365.278-1.709.509-2.382.082-.889 2.263-1.89-1.144-4.508 1.077-4.644 1.187-7.2231 1.224-9.1208.012-2.851 1.383-.6201.582-.9403-1.474-3.656 1.778-5.4387 4.051-4.8794 1.477-.6916 3.671.795 1.365-.9473 4.071-.8397.124 2.9743-1.586 1.1244.44 2.4195-1.149 1.5384.608.9111.355.6919 2.809-2.8625 2.116-1.0216 1.023 3.4588 2.454.5103.9 1.345-1.067 1.7743.75 2.1922-.202.8752-1.416 5.1471-1.299 1.883-.592-2.5168 2.163-.6219-1.99 1.5329-2.742 2.5637-.795 4.3698-.65 2.5558.468-1.1838-3.071 1.1489-.345 1.6391.437-.6564 1.737 1.0793.768 1.5911-1.147.6212.239 2.4397-1.841.846-1.953 3.217-.422 1.916-.806.534-1.351 4.421-1.746 3.807.869 1.223-.168 1.157-1.792 1.289-.589-.273-1.342 1.73 1.141 3.052 3.178-2.309 2.951 1.687 2.55-.759 1.495-.885 2.583-1.757-2.282-.355 2.317-1.875.269-1.68-1.285-1.713-2.553-1.311 1.476-2.234 2.355-4.062 2.896-2.315 1.474-.981 3.946.075 3.821-1.57 2.841 5.102 2.209 4.227 1.501 4.257-1.922 4.249 1.482 3.289 1.647.262.306 3.195 1.443 4.008-.246.992 1.944 1.518-2.022 3.898.583 4.209-3.808-.166-.667-.142-1.097 3.022-.449-.171-3.37.136-3.862.691-2.633-1.811-.977.317-.667-2.408 1.588-1.077-.734 1.229-2.093-1.093-1.002-2.972 2.233-1.277-4.608-.316-.216.246.113 1.575-.451.292.214.161-2.258-1.581-5.547 1.847-6.09 2.454-1.452 1.175-2.866 2.722-2.284-1.453-1.679 1.289-4.188.046zm-35.8973-27.268-2.9598 1.347-2.321-3.691-2.7296-2.653 3.424-2.185-3.2235-2.881-.3001-.151 1.6757-1.229-3.2504.869-.3166.828.5054-4.828 2.3208-2.862.3254-.259-1.4341-1.1611 2.0672-.5742 3.355-.7221-1.7987.702 2.3581-2.4556 3.7354 1.7422 2.0745-2.5365 6.0311 1.9681 4.8267-1.3569 7.9108 1.3343 9.96-.8215.278.3843.716 1.6232-2.28 3.2238.351-.268.32.576 1.613 1.599-3.731.868-1.14 2.862-.806.249 1.023.136 1.884.484 3.886-3.572-1.073 3.972 1.389 1.303-2.349.142-2.772.045-1.356 3.044-2.264.391-7.1415 1.123-4.3638.268-5.5967-.974-6.2457 2.365-.6562-.004.7914 1.645-4.3167-.242zm35.7413-11.7-.423 1.007-.072-2.519-.325 3.588-.859-1.146 3.403-.644-1.986.532.726 1.685zm252.39-4.654-4.949-.59-2.996-.9754-2.635-3.1346-.536-.3055-2.967 1.5086-1.707-1.8595-1.204-1.9688-2.181-4.6829-3.562-1.7803.053-5.5525 2.955-4.7684.615-2.857 1.598-3.1756 4.413-1.59 5.403-4.0569 2.732 1.7693 2.642.365 2.553.2656.326-1.8289 2.281 1.8901 4.839 2.6859.717 2.5559-.785 1.9992 1.936 1.5175.95.151-1.179.893.309 2.5121-2.348 6.952 1.66 4.5729-1.761 1.5981-1.742-.8969.107 4.4579 1.09 1.6839-2.892-.6705-2.209 2.0537zm-297.3803-2.7639-2.0407-1.5647.3908-1.7546-.5781-.6869.5876.1613 2.7396-.2107-1.0682 2.5962 1.1194.1793zm9.0044-17.0364-1.9666-.8574-.319-1.2766-1.6275-1.2391 1.6964-.9021 2.6794-.8342-.4267 2.2665 1.7156-.3725.5542-.6341-2.0462 2.3222zm-9.8232-10.8122-6.5796 1.8756-1.5547-3.6772-.6694-3.2502.6204-1.5789 2.1051.0994-1.6607-.5926-.2565-2.1474 3.5756-.224 3.4069-3.8271-2.6769.3701 2.2647.2182.5268-.4683 2.526.0461 2.1844 2.6096 2.9863-.0843.3996 5.2052 2.6406 4.8273-1.6907.9795-.8058 1.0773zm159.0091.6179-4.222 1.5057-.545-2.1389-1.719.2246-1.013-2.1178-1.715-.0292-2.906-.5999.49-2.1161.223-2.0233-1.516-3.873.171-1.9449-1.06-3.4413 5.429-1.6874 5.393-3.9326 1.183-.8587 5.042-1.0544.497 1.4577 2.709 3.2509-.145 2.4345-.113-1.4257 3.099 1.8695.291.671.313 3.3991-.976 2.9676-1.828 1.8961-.966.5882.654.5336.244 3.5476-2.546.4549-1.425 2.0638zm-.44-9.672-.079.5764.054-.8228.499-4.5111-2.155 1.1438.012-.7462-3.972 1.61 1.045 2.3176-2.655.1209 1.263-.0103 3.221.7917 2.181.3974-.765 1.2678zm-142.5478 6.6918-1.8459 1.8164-2.1739-2.4324-.2736-1.6058.2051.0049-.0851-2.0697-1.1459 1.2709.6719-1.0009-1.7953-1.9316 1.0485-1.5774 2.2267-2.6529 1.0819-2.4255 2.2616.8612 2.2302-.5493.4116 1.9922 2.7363-1.4658-1.5255 5.1359.6739.8708 1.1106-.3559 1.9406 1.075.482 1.6747-1.1275-.8614-1.6483 3.0305-3.956 2.8398z" fill="#d09607"/></g></svg>