<?xml version="1.0" encoding="UTF-8" standalone="no"?>
<svg viewBox="0 0 452.14059 138.06866" version="1.1" id="svg27547" height="138.06866" width="452.14059" sodipodi:docname="gamecom.svg" xml:space="preserve" inkscape:version="1.4.3 (0d15f75042, 2025-12-25)" xmlns:inkscape="http://www.inkscape.org/namespaces/inkscape" xmlns:sodipodi="http://sodipodi.sourceforge.net/DTD/sodipodi-0.dtd" xmlns:xlink="http://www.w3.org/1999/xlink" xmlns="http://www.w3.org/2000/svg" xmlns:svg="http://www.w3.org/2000/svg" xmlns:rdf="http://www.w3.org/1999/02/22-rdf-syntax-ns#" xmlns:cc="http://creativecommons.org/ns#" xmlns:dc="http://purl.org/dc/elements/1.1/"><sodipodi:namedview id="namedview1" pagecolor="#858585" bordercolor="#000000" borderopacity="0.25" inkscape:showpageshadow="2" inkscape:pageopacity="0.0" inkscape:pagecheckerboard="0" inkscape:deskcolor="#d1d1d1" inkscape:zoom="2.1189633" inkscape:cx="131.4322" inkscape:cy="67.957761" inkscape:window-width="1920" inkscape:window-height="1080" inkscape:window-x="0" inkscape:window-y="0" inkscape:window-maximized="0" inkscape:current-layer="svg27547"/><defs id="defs27549"><linearGradient id="linearGradient1" inkscape:collect="always"><stop style="stop-color:#5d6969;stop-opacity:1;" offset="0" id="stop1"/><stop style="stop-color:#c7cfd5;stop-opacity:1;" offset="1" id="stop2"/></linearGradient><linearGradient id="linearGradient43" inkscape:collect="always"><stop style="stop-color:#262b2f;stop-opacity:1;" offset="0" id="stop43"/><stop style="stop-color:#262c2f;stop-opacity:1;" offset="0.24962941" id="stop45"/><stop style="stop-color:#282f34;stop-opacity:1;" offset="0.39728731" id="stop46"/><stop style="stop-color:#363b3d;stop-opacity:1;" offset="0.45676085" id="stop56"/><stop style="stop-color:#383e41;stop-opacity:1;" offset="0.46185219" id="stop57"/><stop style="stop-color:#58646e;stop-opacity:1;" offset="0.46439785" id="stop58"/><stop style="stop-color:#789cb5;stop-opacity:1;" offset="0.46694353" id="stop47"/><stop style="stop-color:#a9b3bb;stop-opacity:1;" offset="0.47696865" id="stop59"/><stop style="stop-color:#b8c0c8;stop-opacity:1;" offset="0.48198122" id="stop60"/><stop style="stop-color:#eaedf0;stop-opacity:1;" offset="0.48699376" id="stop48"/><stop style="stop-color:#b2bbc5;stop-opacity:1;" offset="0.49394411" id="stop61"/><stop style="stop-color:#a9b2bc;stop-opacity:1;" offset="0.4974193" id="stop62"/><stop style="stop-color:#90aac4;stop-opacity:1;" offset="0.50089449" id="stop49"/><stop style="stop-color:#575f66;stop-opacity:1;" offset="0.51433015" id="stop53"/><stop style="stop-color:#393f45;stop-opacity:1;" offset="0.52104795" id="stop54"/><stop style="stop-color:#2a2f34;stop-opacity:1;" offset="0.52440691" id="stop55"/><stop style="stop-color:#23292d;stop-opacity:1;" offset="0.59963936" id="stop50"/><stop style="stop-color:#262b2f;stop-opacity:1;" offset="0.68806821" id="stop52"/><stop style="stop-color:#1b1f23;stop-opacity:1;" offset="1" id="stop44"/></linearGradient><linearGradient id="linearGradient82" inkscape:collect="always"><stop style="stop-color:#bdd6ed;stop-opacity:1;" offset="0" id="stop82"/><stop style="stop-color:#265da2;stop-opacity:1;" offset="1" id="stop83"/></linearGradient><linearGradient id="linearGradient79" inkscape:collect="always"><stop style="stop-color:#c5c6c7;stop-opacity:1;" offset="0" id="stop79"/><stop style="stop-color:#4b545b;stop-opacity:1;" offset="1" id="stop80"/></linearGradient><linearGradient id="linearGradient77" inkscape:collect="always"><stop style="stop-color:#767b7f;stop-opacity:1;" offset="0" id="stop77"/><stop style="stop-color:#d3d5d6;stop-opacity:1;" offset="1" id="stop78"/></linearGradient><inkscape:path-effect effect="perspective-envelope" up_left_point="-273.55,-35.18" up_right_point="-267.56743,-30.608797" down_left_point="-272.86252,-27.275312" down_right_point="-265.39,-24.587797" id="path-effect64" is_visible="true" lpeversion="1" deform_type="perspective" horizontal_mirror="false" vertical_mirror="false" overflow_perspective="false"/><linearGradient id="linearGradient38" inkscape:collect="always"><stop style="stop-color:#000000;stop-opacity:1;" offset="0" id="stop38"/><stop style="stop-color:#9ab3c5;stop-opacity:1;" offset="1" id="stop39"/></linearGradient><linearGradient inkscape:collect="always" xlink:href="#linearGradient38" id="linearGradient39" x1="290.28113" y1="-30.700783" x2="310.05261" y2="-16.685211" gradientUnits="userSpaceOnUse" spreadMethod="reflect" gradientTransform="matrix(0.79504016,0,0,0.79504016,59.358103,-7.4634263)"/><linearGradient inkscape:collect="always" xlink:href="#linearGradient77" id="linearGradient78" x1="295.74756" y1="-37.45591" x2="308.61557" y2="-28.489262" gradientUnits="userSpaceOnUse" gradientTransform="translate(-42.046719,142.15796)"/><linearGradient inkscape:collect="always" xlink:href="#linearGradient79" id="linearGradient80" x1="295.74756" y1="-37.45591" x2="295.78271" y2="-30.762779" gradientUnits="userSpaceOnUse" spreadMethod="reflect" gradientTransform="translate(-42.046719,142.15796)"/><radialGradient inkscape:collect="always" xlink:href="#linearGradient82" id="radialGradient83" cx="285.22202" cy="-21.177809" fx="285.22202" fy="-21.177809" r="1.8877156" gradientUnits="userSpaceOnUse" gradientTransform="matrix(1.4415264,0,0,1.4415264,-165.21942,147.54066)"/><linearGradient inkscape:collect="always" xlink:href="#linearGradient43" id="linearGradient44" x1="250.47627" y1="47.702507" x2="250.47627" y2="491.8432" gradientUnits="userSpaceOnUse" gradientTransform="translate(-27.154905,-151.14972)"/><linearGradient inkscape:collect="always" xlink:href="#linearGradient1" id="linearGradient2" x1="207.55653" y1="140.65839" x2="207.96739" y2="69.917068" gradientUnits="userSpaceOnUse" spreadMethod="reflect" gradientTransform="translate(-2.3359289,19.354839)"/></defs><metadata id="metadata27552"><rdf:RDF><cc:Work rdf:about=""><dc:format>image/svg+xml</dc:format><dc:type rdf:resource="http://purl.org/dc/dcmitype/StillImage"/></cc:Work></rdf:RDF></metadata><path style="baseline-shift:baseline;display:inline;overflow:visible;vector-effect:none;fill:#ff0000;fill-rule:evenodd;stroke-linecap:round;stroke-linejoin:round;paint-order:markers stroke fill;enable-background:accumulate;stop-color:#000000" d="m 320.59151,44.591536 h 0.65369 l 1.49859,2.726126 h 1.64238 l -1.65828,-2.837065 c 0.86112,-0.06504 1.56254,-0.493984 1.56254,-1.690458 0,-1.482314 -0.98869,-1.96112 -2.66253,-1.96112 h -2.4233 v 6.488643 h 1.38691 z m 0,-1.099991 v -1.562536 h 0.97279 c 0.52615,0 1.24344,0.05059 1.24344,0.718391 0,0.716945 -0.36642,0.844145 -0.98869,0.844145 z m 7.04694,0.590107 c 0,-3.810217 -2.85368,-6.02646 -6.04235,-6.02646 -3.20495,0 -6.05826,2.216243 -6.05826,6.02646 0,3.810578 2.85331,6.026821 6.05826,6.026821 3.18867,0 6.04235,-2.216243 6.04235,-6.026821 z m -1.73743,0 c 0,2.773826 -1.97738,4.639908 -4.30492,4.639908 v 0 c -2.3915,0 -4.32083,-1.850182 -4.32083,-4.624008 0,-2.773827 1.92934,-4.623646 4.32083,-4.623646 2.32754,0 4.30492,1.849819 4.30492,4.623646 z" id="path2"/><path style="baseline-shift:baseline;display:inline;overflow:visible;vector-effect:none;fill:#ff0000;stroke-linecap:round;stroke-linejoin:round;paint-order:markers stroke fill;enable-background:accumulate;stop-color:#000000" d="m 177.24257,0 v 12.769502 h -18.0118 c -4.70457,0.271023 -5.2405,6.451785 0.80656,6.317719 h 17.20524 V 31.99079 h -18.41508 c -4.43572,-0.133705 -4.43572,5.376366 -0.53771,5.511155 h 38.577 V 50.271448 H 152.91306 C 140.27835,50.538857 131.40687,36.560593 144.17636,24.732442 134.50016,14.785188 138.79965,0 152.64456,0 Z" id="path10"/><path style="baseline-shift:baseline;display:inline;overflow:visible;vector-effect:none;fill:#ff0000;stroke-linecap:round;stroke-linejoin:round;paint-order:markers stroke fill;enable-background:accumulate;stop-color:#000000" d="M 206.9481,12.769502 H 196.59792 V 34.275691 H 181.81237 V 0.134066 h 26.34557 c 18.28031,0.133705 22.71605,18.818005 10.75311,27.823907 2.28706,1.613488 3.49473,2.957399 3.49473,5.914437 v 3.629535 h 68.96117 c 4.83938,0 6.45179,-1.747554 6.45179,-3.89839 0,-2.285263 -2.15011,-4.032094 -1.88161,-7.392414 0.67393,-6.451784 12.63506,-7.527202 16.12983,3.494747 3.22587,10.48424 -3.22591,17.876654 -11.29082,20.162278 -2.55412,0.671413 -4.70458,0.267409 -7.93049,0.403282 H 207.35138 V 35.081893 c 0,-2.015685 -0.94099,-3.629174 -3.49511,-3.629174 h -3.62881 V 18.414723 h 7.12392 c 4.43538,0 4.43538,-6.048502 -0.40328,-5.645221 z" id="path4"/><path style="baseline-shift:baseline;display:inline;overflow:visible;vector-effect:none;fill:#ff0000;stroke-linecap:round;stroke-linejoin:round;paint-order:markers stroke fill;enable-background:accumulate;stop-color:#000000" d="m 135.70817,0 v 12.769502 h -20.29669 c -10.61902,-0.271022 -15.18883,6.855066 -15.18883,13.306851 0,5.914437 4.0321,11.559658 12.76949,11.425592 h 8.06491 V 31.184226 H 109.90032 V 18.280658 h 25.80785 v 31.99079 H 112.1874 C 93.098339,50.405152 86.512128,38.577363 86.91541,22.850822 87.182819,14.517056 93.904903,0.134066 111.11016,0 Z" id="path8"/><path style="baseline-shift:baseline;display:inline;overflow:visible;vector-effect:none;fill:#ff0000;stroke-linecap:round;stroke-linejoin:round;paint-order:markers stroke fill;enable-background:accumulate;stop-color:#000000" d="M 69.038033,0 H 83.28625 V 12.769502 50.271448 H 69.038033 V 12.769502 Z" id="path6"/><path style="baseline-shift:baseline;display:inline;overflow:visible;vector-effect:none;fill:#ff0000;stroke-linecap:round;stroke-linejoin:round;paint-order:markers stroke fill;enable-background:accumulate;stop-color:#000000" d="m 32.880722,14.113052 c 2.688197,0 4.838657,2.01677 4.838657,4.704953 0,2.554117 -2.15046,4.839019 -4.838657,4.839019 -2.554118,0 -4.704578,-2.284902 -4.704578,-4.839019 0,-2.688183 2.15046,-4.704953 4.704578,-4.704953 z" id="path14"/><path style="baseline-shift:baseline;display:inline;overflow:visible;vector-effect:none;fill:#ff0000;stroke-linecap:round;stroke-linejoin:round;paint-order:markers stroke fill;enable-background:accumulate;stop-color:#000000" d="M 27.638435,0 H 65.140019 V 12.769502 H 53.849202 V 50.271448 H 39.063652 V 12.769502 H 27.638435 Z" id="path12"/><path style="baseline-shift:baseline;display:inline;overflow:visible;vector-effect:none;fill:#ff0000;stroke-linecap:round;stroke-linejoin:round;paint-order:markers stroke fill;enable-background:accumulate;stop-color:#000000" d="m 59.763653,14.113052 c 2.688169,0 4.838657,2.01677 4.838657,4.704953 0,2.554117 -2.150488,4.839019 -4.838657,4.839019 -2.554118,0 -4.704606,-2.284902 -4.704606,-4.839019 0,-2.688183 2.150488,-4.704953 4.704606,-4.704953 z" id="path16"/><path style="font-size:96px;font-family:CƏLAL;-inkscape-font-specification:CƏLAL;baseline-shift:baseline;display:inline;overflow:visible;fill:#5d6c76;fill-rule:evenodd;stroke-width:0.5;stroke-linecap:round;stroke-linejoin:round;stroke-dasharray:none;paint-order:markers stroke fill;enable-background:accumulate;stop-color:#000000" d="m 343.00001,60.927855 c -5.64975,0 -10.52015,0.694785 -14.65234,2.28125 a 4.0004,4.0004 0 0 0 -0.0117,0.0039 c -3.96967,1.537799 -7.34452,3.783775 -9.88867,6.751952 -2.48198,2.89564 -4.23158,6.38096 -5.24024,10.27148 a 4.0004,4.0004 0 0 0 -0.008,0.0254 c -0.9356,3.70777 -1.38672,7.69505 -1.38672,11.94727 0,4.252215 0.45112,8.239493 1.38672,11.947263 a 4.0004,4.0004 0 0 0 0.0117,0.043 c 1.01133,3.82858 2.76124,7.28086 5.22071,10.1875 2.54262,3.00493 5.92489,5.27679 9.90429,6.81836 a 4.0004,4.0004 0 0 0 0.0117,0.004 c 4.13218,1.58647 9.00258,2.28125 14.65233,2.28125 5.58632,0 10.42451,-0.6967 14.54688,-2.27734 l 0.004,-0.002 c 4.03783,-1.53719 7.4526,-3.80868 9.98047,-6.83789 2.45661,-2.90741 4.19039,-6.36306 5.16797,-10.1914 0.29499,-1.12844 0.4569,-2.33203 0.66015,-3.51172 v 17.46093 a 4.0004,4.0004 0 0 0 4,4 h 9.70313 a 4.0004,4.0004 0 0 0 4,-4 V 78.256057 h 12.76562 v 39.875003 a 4.0004,4.0004 0 0 0 4,4 h 9.79688 a 4.0004,4.0004 0 0 0 4,-4 V 78.256057 h 5.75 c 1.89808,0 3.14276,0.32627 3.75781,0.64063 a 4.0004,4.0004 0 0 0 0.0645,0.0312 c 0.91689,0.44826 1.43134,0.91169 1.7832,1.4043 a 4.0004,4.0004 0 0 0 0.043,0.0586 c 0.46577,0.627 0.76216,1.28298 0.93359,2.12109 a 4.0004,4.0004 0 0 0 0.0176,0.084 c 0.25009,1.1004 0.36914,2.15774 0.36914,3.1914 v 32.343753 a 4.0004,4.0004 0 0 0 4,4 h 9.79687 a 4.0004,4.0004 0 0 0 4,-4 V 83.584157 c 0,-6.616 -1.87706,-12.32424 -6.05273,-16.08984 -4.05708,-3.687061 -9.70385,-5.300784 -16.27539,-5.300784 h -52.45313 a 4.0004,4.0004 0 0 0 -4,4 v 17.556644 c -0.20272,-1.17681 -0.36419,-2.37616 -0.6582,-3.50196 -0.97499,-3.88659 -2.7083,-7.37274 -5.18555,-10.26758 -2.5298,-2.993057 -5.93622,-5.23975 -9.96484,-6.773432 -4.12319,-1.581666 -8.96275,-2.279297 -14.55078,-2.279297 z M 26.17188,62.19348 c -4.195975,0 -8.101126,0.812281 -11.539063,2.53125 a 4.0004,4.0004 0 0 0 -0.01563,0.0078 C 11.328326,66.395433 8.5147121,68.722827 6.3359381,71.615347 4.2221653,74.421557 2.634391,77.636127 1.574219,81.170037 0.519671,84.685197 0,88.379987 0,92.209097 c 0,3.773225 0.52178,7.439135 1.574219,10.947263 1.060172,3.53391 2.6479483,6.74652 4.7617191,9.55274 2.178773,2.8925 4.9923939,5.2199 8.2812489,6.88281 a 4.0004,4.0004 0 0 0 0.01563,0.008 c 3.351406,1.6757 7.158402,2.46007 11.234376,2.5 H 9.8593801 a 4.0004,4.0004 0 0 0 -4,4 v 7.96875 a 4.0004,4.0004 0 0 0 4,4 H 40.000005 c 3.48893,0 6.542924,-0.4894 9.175781,-1.8457 2.305056,-1.15799 4.28283,-2.79067 5.648438,-4.87891 1.222084,-1.83914 2.055526,-3.90067 2.429687,-6.0625 0.314317,-1.81605 0.480469,-3.5556 0.480469,-5.22851 v -8.51172 c 0.971001,2.17103 2.278129,4.12548 4.068359,5.67578 a 4.0004,4.0004 0 0 0 0.01563,0.0137 c 3.950639,3.38627 9.272338,4.90039 15.353516,4.90039 h 32.343765 a 4.0004,4.0004 0 0 0 4,-4 V 81.568687 c 0,-3.58718 -0.56525,-6.7866 -2,-9.53125 -1.24099,-2.40305 -2.84154,-4.4622 -4.84766,-6.003906 -1.84843,-1.450245 -3.92981,-2.50661 -6.1504,-3.056848 C 98.628916,62.480197 96.850256,62.19348 95.125004,62.19348 H 61.89063 a 4.0004,4.0004 0 0 0 -4,4 v 8.062497 a 4.0004,4.0004 0 0 0 4,4 h 29.578125 c 1.875,0 2.409933,0.34871 3.005859,1.13086 0.39936,0.52417 0.74495,1.71643 0.980472,3.24414 H 77.17188 c -6.096504,0 -11.444029,1.56377 -15.388672,5.0254 a 4.0004,4.0004 0 0 0 -0.01563,0.0137 c -1.772644,1.57162 -3.067869,3.53531 -4.033203,5.70898 V 66.19348 a 4.0004,4.0004 0 0 0 -4,-4 z m 91.87501,0 a 4.0004,4.0004 0 0 0 -4,4 v 51.9375 a 4.0004,4.0004 0 0 0 4,4 h 9.70313 a 4.0004,4.0004 0 0 0 3.99999,-4 V 78.255977 h 12.76563 v 39.875003 a 4.0004,4.0004 0 0 0 4,4 h 9.79687 a 4.0004,4.0004 0 0 0 4,-4 V 78.255977 h 5.75 c 1.89808,0 3.14276,0.32627 3.75781,0.64063 a 4.0004,4.0004 0 0 0 0.0645,0.0312 c 0.9169,0.44826 1.43135,0.91169 1.78321,1.4043 a 4.0004,4.0004 0 0 0 0.043,0.0586 c 0.46576,0.627 0.76216,1.28298 0.93359,2.12109 a 4.0004,4.0004 0 0 0 0.0176,0.084 c 0.25009,1.1004 0.36913,2.15774 0.36913,3.1914 v 32.343753 a 4.0004,4.0004 0 0 0 4,4 h 9.79687 a 4.0004,4.0004 0 0 0 4,-4 V 103.6427 c 1.05746,3.33417 2.55836,6.39535 4.57033,9.06641 2.17877,2.8925 4.99239,5.2199 8.28125,6.88281 a 4.0004,4.0004 0 0 0 0.0156,0.008 c 3.43794,1.71897 7.34308,2.53125 11.53906,2.53125 h 21.51563 a 4.0004,4.0004 0 0 0 4,-4 v -7.96875 a 4.0004,4.0004 0 0 0 -4,-4 h -18.42188 c -2.00069,0 -3.52448,-0.31077 -4.65234,-0.78515 -1.2143,-0.55699 -2.13367,-1.24652 -2.89062,-2.1211 -0.80572,-0.96742 -1.45232,-2.08393 -1.95704,-3.417958 -0.0179,-0.0515 -0.0177,-0.10852 -0.0352,-0.16016 h 26.78514 a 4.0004,4.0004 0 0 0 4,-4 v -7.875005 a 4.0004,4.0004 0 0 0 -4,-4 h -26.43944 c 0.46356,-1.07235 1.00979,-2.00002 1.73242,-2.76172 0.75774,-0.7987 1.69101,-1.45205 2.93163,-1.98047 a 4.0004,4.0004 0 0 0 0.0566,-0.0234 c 1.05108,-0.46714 2.51481,-0.78125 4.46875,-0.78125 h 18.42188 a 4.0004,4.0004 0 0 0 4,-4 V 66.19371 a 4.0004,4.0004 0 0 0 -4,-4 h -21.51563 c -4.19597,0 -8.10111,0.812281 -11.53906,2.53125 a 4.0004,4.0004 0 0 0 -0.0156,0.0078 c -3.28886,1.662904 -6.10248,3.990307 -8.28125,6.882817 -2.10931,2.8003 -3.69374,6.00808 -4.7539,9.5332 -0.42341,-5.55616 -2.22591,-10.36883 -5.86915,-13.65429 -4.05707,-3.687067 -9.70384,-5.30079 -16.27539,-5.30079 z m 171.46874,0 c -4.19597,0 -8.10111,0.812281 -11.53906,2.53125 a 4.0004,4.0004 0 0 0 -0.0156,0.0078 c -3.28886,1.662904 -6.10248,3.990307 -8.28125,6.882817 -2.11377,2.80621 -3.70155,6.02078 -4.76171,9.55469 -1.05455,3.51516 -1.57423,7.20995 -1.57423,11.03906 0,3.773225 0.52179,7.439135 1.57423,10.947263 1.06016,3.53391 2.64794,6.74652 4.76171,9.55274 2.17877,2.8925 4.99239,5.2199 8.28125,6.88281 a 4.0004,4.0004 0 0 0 0.0156,0.008 c 3.43795,1.71897 7.34309,2.53125 11.53906,2.53125 h 21.51563 a 4.0004,4.0004 0 0 0 4,-4 v -7.96875 a 4.0004,4.0004 0 0 0 -4,-4 h -18.42188 c -2.31955,0 -3.98424,-0.42485 -5.16601,-1.0625 -1.36898,-0.7561 -2.34546,-1.64765 -3.10352,-2.76367 -0.82124,-1.20906 -1.43588,-2.627678 -1.83789,-4.345698 -0.40466,-1.90082 -0.61133,-3.821615 -0.61133,-5.781255 0,-1.9628 0.20648,-3.84704 0.60743,-5.67383 0.40289,-1.72853 1.02382,-3.17929 1.86132,-4.43555 0.76268,-1.14401 1.73174,-2.03631 3.08985,-2.78515 1.18145,-0.63606 2.84407,-1.0586 5.16015,-1.0586 h 18.42188 a 4.0004,4.0004 0 0 0 4,-4 v -8.0625 a 4.0004,4.0004 0 0 0 -4,-4 z m 51.53125,6.869147 c -2.93896,0.17507 -5.67077,0.64825 -8.02343,1.77343 a 4.0004,4.0004 0 0 0 -0.0195,0.01 c -2.64267,1.28247 -4.90421,3.11947 -6.56055,5.43359 -1.60356,2.20974 -2.69403,4.78818 -3.29297,7.59571 a 4.0004,4.0004 0 0 0 -0.008,0.0391 c -0.52868,2.60819 -0.7832,5.37486 -0.78321,8.29492 0,2.920065 0.25484,5.699975 0.78125,8.332033 a 4.0004,4.0004 0 0 0 0.01,0.0488 c 0.60028,2.81382 1.69326,5.40025 3.30273,7.61328 1.66035,2.28298 3.91766,4.09326 6.55079,5.37109 a 4.0004,4.0004 0 0 0 0.0195,0.01 c 2.35053,1.12417 5.0798,1.59584 8.01562,1.77148 -3.9805,-0.1586 -7.3666,-0.674 -9.8125,-1.61132 l -0.004,-0.002 c -2.9558,-1.14571 -5.10397,-2.6543 -6.68555,-4.52344 -1.66127,-1.96331 -2.84489,-4.25625 -3.58398,-7.04296 -0.74825,-2.974078 -1.14062,-6.290628 -1.14062,-9.966803 0,-3.67766 0.39177,-6.99572 1.14062,-9.9707 0.74146,-2.85652 1.92656,-5.15097 3.56836,-7.06641 1.58006,-1.84339 3.73563,-3.34661 6.70118,-4.49609 10e-4,-5.8e-4 0.002,-0.001 0.004,-0.002 2.44758,-0.93797 5.83604,-1.45323 9.82031,-1.61132 z m 3.89454,0 c 3.93604,0.15845 7.29715,0.67351 9.75,1.61523 a 4.0004,4.0004 0 0 0 0.0117,0.004 c 3.02778,1.15216 5.17799,2.65315 6.70898,4.46679 a 4.0004,4.0004 0 0 0 0.0195,0.0234 c 1.63653,1.90929 2.80363,4.19105 3.51563,7.03906 a 4.0004,4.0004 0 0 0 0.0117,0.043 c 0.77688,2.96879 1.18164,6.28029 1.18164,9.95508 0,3.674785 -0.40476,6.988245 -1.18164,9.957033 a 4.0004,4.0004 0 0 0 -0.008,0.0254 c -0.70925,2.78444 -1.87606,5.0666 -3.53515,7.02734 a 4.0004,4.0004 0 0 0 -0.0195,0.0234 c -1.53288,1.83946 -3.67523,3.34565 -6.69336,4.49414 a 4.0004,4.0004 0 0 0 -0.0117,0.004 c -2.45286,0.94172 -5.81397,1.45678 -9.75,1.61523 2.91411,-0.17546 5.62135,-0.64911 7.95312,-1.77929 2.6596,-1.2743 4.93851,-3.08097 6.60547,-5.37305 1.61409,-2.21937 2.6905,-4.81836 3.25781,-7.63867 0.56162,-2.641738 0.83594,-5.428778 0.83594,-8.355473 0,-2.92386 -0.2729,-5.69636 -0.83594,-8.3125 -0.56661,-2.8144 -1.64283,-5.40503 -3.25195,-7.62109 -1.66253,-2.32053 -3.94445,-4.15379 -6.61133,-5.43164 -2.33177,-1.13018 -5.03901,-1.60579 -7.95312,-1.78125 z m -318.76954,1.13085 h 23.5625 v 49.859383 c 0,1.13958 -0.115098,2.43129 -0.363281,3.86523 -0.186947,1.08014 -0.56939,2.04159 -1.214844,3.00977 a 4.0004,4.0004 0 0 0 -0.02148,0.0332 c -0.503287,0.77171 -1.261882,1.47177 -2.564454,2.12305 a 4.0004,4.0004 0 0 0 -0.04883,0.0254 c -0.987607,0.51083 -2.831774,0.95898 -5.521484,0.95898 h -2.855469 c 2.492823,-0.0367 4.866028,-0.52276 6.902344,-1.77539 2.499146,-1.50845 3.890625,-4.6011 3.890625,-7.39648 v -2.76563 a 4.0004,4.0004 0 0 0 -3.962891,-3.98437 4.0004,4.0004 0 0 0 3.962891,-3.98438 V 74.255987 a 4.0004,4.0004 0 0 0 -4,-4 H 29.26563 c -3.30139,0 -6.350103,0.60631 -8.980469,2.0293 a 4.0004,4.0004 0 0 0 -0.02539,0.0137 c -2.386268,1.31245 -4.415071,3.13531 -5.90039,5.36328 -1.409462,2.1142 -2.408606,4.50637 -3.005859,7.08204 a 4.0004,4.0004 0 0 0 -0.0098,0.041 c -0.53272,2.415 -0.796875,4.89605 -0.796875,7.42383 0,2.52778 0.265346,5.031905 0.792969,7.494145 a 4.0004,4.0004 0 0 0 0.01367,0.0664 c 0.598214,2.579788 1.601817,4.966678 3.02539,7.062498 1.488547,2.19146 3.509546,3.98483 5.880859,5.28906 a 4.0004,4.0004 0 0 0 0.02539,0.0117 c 2.54478,1.37668 5.493925,1.95969 8.671875,1.99804 h -2.78512 c -3.17569,0 -5.767501,-0.59421 -7.953125,-1.68554 -2.269295,-1.14896 -4.047891,-2.63141 -5.492188,-4.54883 -1.511229,-2.00629 -2.673453,-4.32297 -3.4882809,-7.03906 -0.822561,-2.741868 -1.238281,-5.609168 -1.238281,-8.648443 0,-3.10839 0.417829,-6.0054 1.238281,-8.74023 0.8148279,-2.7161 1.9770539,-5.03474 3.4882809,-7.04102 1.444296,-1.91743 3.222899,-3.39988 5.492188,-4.54883 2.185624,-1.09133 4.777436,-1.68555 7.953125,-1.68555 z m 39.71875,0 h 29.234374 c 0.825972,0 1.974762,0.15099 3.384772,0.52344 a 4.0004,4.0004 0 0 0 0.0684,0.0176 c 1.06922,0.26226 2.092554,0.7565 3.166024,1.60156 a 4.0004,4.0004 0 0 0 0.043,0.0332 c 0.91911,0.704 1.81019,1.76167 2.62695,3.3457 a 4.0004,4.0004 0 0 0 0.0117,0.0215 c 0.62357,1.19046 1.08984,3.11143 1.08984,5.83203 v 32.562503 h -5.720714 a 4.0004,4.0004 0 0 0 3.923844,-3.96878 V 94.599727 a 4.0004,4.0004 0 0 0 -3.962904,-3.98437 4.0004,4.0004 0 0 0 3.962904,-3.98438 v -1.54687 c 0,-4.11731 -0.72679,-7.7177 -2.88086,-10.54492 -2.154084,-2.82723 -5.744156,-4.28321 -9.369155,-4.28321 H 65.89063 Z m 56.15626,0 h 48.45312 c 5.2989,0 8.71003,1.2296 10.90235,3.22461 a 4.0004,4.0004 0 0 0 0.0137,0.0137 c 2.13315,1.92193 3.4121,4.95861 3.4121,10.15234 V 114.131 h -1.79687 V 85.787247 c 0,-1.64083 -0.19531,-3.28896 -0.56444,-4.92578 -0.39197,-1.88137 -1.17746,-3.66679 -2.31446,-5.20703 -1.19952,-1.66722 -2.84663,-2.96868 -4.71289,-3.88867 -2.19234,-1.11517 -4.65847,-1.50977 -7.37695,-1.50977 h -9.75 a 4.0004,4.0004 0 0 0 -4,4 V 114.131 h -1.79687 V 74.255997 a 4.0004,4.0004 0 0 0 -4,-4 h -20.76563 a 4.0004,4.0004 0 0 0 -4,4 V 114.131 h -1.70313 z m 95.18749,0 h 17.51563 v 0.0625 h -14.42188 c -2.78573,0 -5.37403,0.43824 -7.69139,1.4629 -2.12093,0.90825 -4.02367,2.18616 -5.57032,3.8164 -1.51887,1.60098 -2.70632,3.49998 -3.53515,5.5918 a 4.0004,4.0004 0 0 0 -0.0234,0.0606 c -0.73295,1.94236 -1.24408,3.97227 -1.53319,6.06835 a 4.0004,4.0004 0 0 0 3.77734,4.4629 4.0004,4.0004 0 0 0 -3.88867,4.351565 c 0.218,2.21634 0.69456,4.378908 1.42578,6.462888 a 4.0004,4.0004 0 0 0 0.0273,0.0801 c 0.80191,2.13846 1.92365,4.09913 3.35156,5.80468 a 4.0004,4.0004 0 0 0 0.0352,0.041 c 1.54541,1.79601 3.49183,3.22178 5.68946,4.2207 a 4.0004,4.0004 0 0 0 0.0781,0.0352 c 2.26051,0.96879 4.78399,1.37814 7.48438,1.41601 h -2.72071 c -3.17569,0 -5.7675,-0.59421 -7.95312,-1.68554 -2.26929,-1.14896 -4.04789,-2.6314 -5.49219,-4.54883 -1.51123,-2.00629 -2.67345,-4.32297 -3.48828,-7.03906 -0.82256,-2.741868 -1.23828,-5.609168 -1.23828,-8.648443 0,-3.10839 0.41783,-6.0054 1.23828,-8.74023 0.81483,-2.7161 1.97706,-5.03474 3.48828,-7.04102 1.4443,-1.91743 3.2229,-3.39988 5.49219,-4.54883 2.18562,-1.09133 4.77744,-1.68555 7.95312,-1.68555 z m 72.28125,0 h 17.51563 v 0.0625 h -14.42188 c -3.30139,0 -6.3501,0.60631 -8.98046,2.0293 a 4.0004,4.0004 0 0 0 -0.0254,0.0137 c -2.38628,1.31245 -4.41508,3.13531 -5.9004,5.36328 -1.40946,2.1142 -2.4086,4.50637 -3.00585,7.08204 a 4.0004,4.0004 0 0 0 -0.01,0.041 c -0.53272,2.415 -0.79688,4.89605 -0.79688,7.42383 0,2.52778 0.26535,5.031905 0.79297,7.494145 a 4.0004,4.0004 0 0 0 0.0137,0.0664 c 0.59821,2.579788 1.60181,4.966678 3.02539,7.062498 1.48854,2.19146 3.50953,3.98483 5.88086,5.28906 a 4.0004,4.0004 0 0 0 0.0254,0.0117 c 2.54477,1.37668 5.49392,1.95969 8.67187,1.99804 h -2.78516 c -3.17569,0 -5.7675,-0.59421 -7.95313,-1.68554 -2.26929,-1.14896 -4.04789,-2.6314 -5.49219,-4.54883 -1.51123,-2.00629 -2.67345,-4.32297 -3.48827,-7.03906 -0.82256,-2.741868 -1.23829,-5.609168 -1.23829,-8.648443 0,-3.10839 0.41784,-6.0054 1.23829,-8.74023 0.81482,-2.7161 1.97706,-5.03474 3.48827,-7.04102 1.4443,-1.91743 3.22291,-3.39988 5.49219,-4.54883 2.18563,-1.09133 4.77745,-1.68555 7.95313,-1.68555 z m 91.84375,0 h 48.45313 c 5.2989,0 8.71003,1.2296 10.90234,3.22461 a 4.0004,4.0004 0 0 0 0.0137,0.0137 c 2.13314,1.92193 3.4121,4.95861 3.4121,10.15234 V 114.131 h -1.79689 V 85.787247 c 0,-1.64083 -0.19532,-3.28896 -0.56445,-4.92578 -0.39197,-1.88137 -1.17745,-3.66679 -2.31446,-5.20703 -1.19952,-1.66722 -2.84663,-2.96868 -4.71289,-3.88867 -2.19234,-1.11517 -4.65847,-1.50977 -7.37695,-1.50977 h -9.75 a 4.0004,4.0004 0 0 0 -4,4 V 114.131 h -1.79688 V 74.255997 a 4.0004,4.0004 0 0 0 -4,-4 h -20.76562 a 4.0004,4.0004 0 0 0 -4,4 V 114.131 h -1.70313 z m -38.35937,6.70313 c 2.89741,0 5.01962,0.47167 6.41016,1.14648 a 4.0004,4.0004 0 0 0 0.0195,0.01 c 1.63316,0.78108 2.74832,1.72148 3.58203,2.88867 a 4.0004,4.0004 0 0 0 0.0195,0.0273 c 0.8812,1.21164 1.51909,2.66773 1.89062,4.52539 a 4.0004,4.0004 0 0 0 0.0117,0.0605 c 0.43237,1.99966 0.66017,4.21486 0.66017,6.6543 0,2.43944 -0.2272,4.674245 -0.66211,6.712895 a 4.0004,4.0004 0 0 0 -0.01,0.0488 c -0.37153,1.857648 -1.00942,3.315698 -1.89062,4.527338 -0.83033,1.14171 -1.95423,2.08128 -3.60156,2.86914 a 4.0004,4.0004 0 0 0 -0.0195,0.01 c -1.39054,0.67482 -3.51276,1.14453 -6.41017,1.14453 -2.92835,0 -5.08535,-0.4699 -6.51562,-1.15234 -1.60938,-0.7833 -2.72526,-1.71988 -3.5625,-2.8711 -0.88637,-1.21876 -1.5392,-2.69144 -1.93946,-4.552728 -0.40807,-2.0492 -0.62304,-4.290605 -0.62304,-6.736335 0,-2.44779 0.2146,-4.67336 0.6211,-6.68555 0.40016,-1.86345 1.05431,-3.33493 1.9414,-4.55468 a 4.0004,4.0004 0 0 0 0.0215,-0.0273 c 0.84043,-1.17661 1.94589,-2.1142 3.541,-2.89062 1.43027,-0.68244 3.58727,-1.1543 6.51563,-1.1543 z M 29.26563,78.255977 H 39.937505 V 106.16223 H 29.26563 c -2.31955,0 -3.984246,-0.42485 -5.166016,-1.0625 -1.368975,-0.7561 -2.345463,-1.64765 -3.103515,-2.76367 -0.821249,-1.20906 -1.435887,-2.627678 -1.837891,-4.345698 -0.40466,-1.90082 -0.611328,-3.821615 -0.611328,-5.781255 0,-1.9628 0.206481,-3.84704 0.607422,-5.67383 0.402897,-1.72853 1.023825,-3.17929 1.861328,-4.43555 0.762677,-1.14401 1.731737,-2.03631 3.089844,-2.78515 1.181451,-0.63606 2.844072,-1.0586 5.160156,-1.0586 z m 47.90625,12.375 h 2.496094 c -3.658979,0.0332 -6.933477,0.68463 -9.423828,2.9043 -2.474535,2.205565 -3.494141,5.538785 -3.494141,8.939453 0,3.37104 1.090138,6.71369 3.611328,8.85938 2.5497,2.16996 5.828307,2.76472 9.566406,2.79687 H 77.17188 c -4.788545,0 -7.964495,-1.10872 -10.138672,-2.96875 -2.040204,-1.771 -3.158203,-4.28516 -3.158203,-8.6875 0,-4.406898 1.125243,-6.976568 3.199219,-8.816403 6.94e-4,-6.2e-4 0.0013,-0.001 0.002,-0.002 2.179836,-1.90575 5.327653,-3.0254 10.095703,-3.0254 z m 2.765625,7.968755 h 15.781251 v 7.562498 H 80.218755 c -2.881173,0 -4.356684,-0.65196 -4.673828,-0.92187 -0.41631,-0.35431 -0.794922,-0.88666 -0.794922,-2.76563 0,-1.97432 0.417894,-2.609858 0.818359,-2.966788 0.31973,-0.28498 1.644783,-0.90821 4.369141,-0.90821 z" id="path36"/><g id="g2" transform="translate(2.8315734,-19.349085)"><path style="font-size:96px;font-family:CƏLAL;-inkscape-font-specification:CƏLAL;baseline-shift:baseline;display:inline;overflow:visible;fill:url(#linearGradient2);fill-rule:evenodd;stroke-width:0.5;stroke-linecap:round;stroke-linejoin:round;stroke-dasharray:none;paint-order:markers stroke fill;enable-background:accumulate;stop-color:#000000" d="m 25.974092,128.96631 q -4.21875,0 -7.078125,-1.54687 -2.8125,-1.54688 -4.5,-4.03125 -1.6875,-2.48438 -2.4375,-5.71875 -0.703125,-3.28125 -0.703125,-6.65625 0,-3.375 0.703125,-6.5625 0.75,-3.23438 2.4375,-5.765634 1.6875,-2.53125 4.5,-4.07812 2.859375,-1.54688 7.078125,-1.54688 h 14.671875 v 35.906254 z m -3.09375,7.96875 h 17.765625 v 2.76563 q 0,2.8125 -1.96875,3.98437 -1.96875,1.21875 -5.109375,1.21875 H 6.5678421 v 7.96875 H 36.708467 q 4.640625,0 7.359375,-1.40625 2.71875,-1.35937 4.125,-3.51562 1.40625,-2.10938 1.828125,-4.54688 0.421875,-2.4375 0.421875,-4.54687 V 84.997551 h -27.5625 q -5.53125,0 -9.75,2.109385 -4.1718749,2.10937 -6.8906249,5.71875 -2.7187499,3.60937 -4.1249997,8.296874 -1.40625026,4.6875 -1.40625026,9.89063 0,5.10937 1.40625026,9.79687 1.4062498,4.6875 4.1249997,8.29688 2.71875,3.60937 6.8906249,5.71875 4.21875,2.10937 9.75,2.10937 z m 35.71875,-51.937509 v 8.062505 h 29.578125 q 8.250004,0 8.250004,10.828134 v 1.54687 H 73.880342 q -8.15625,0 -12.75,4.03125 -4.546875,4.03125 -4.546875,11.8125 0,7.78125 4.546875,11.71875 4.59375,3.9375 12.75,3.9375 H 106.2241 v -36.5625 q 0,-4.734374 -1.54687,-7.687504 -1.54688,-3 -3.75,-4.6875 -2.203129,-1.734375 -4.687509,-2.343755 -2.48437,-0.65625 -4.406256,-0.65625 z m 37.828129,28.406259 v 15.5625 H 76.927217 q -5.0625,0 -7.265625,-1.875 -2.203125,-1.875 -2.203125,-5.8125 0,-4.03125 2.15625,-5.95312 2.15625,-1.92188 7.03125,-1.92188 z M 167.20847,84.997551 h -52.45312 v 51.937509 h 9.70313 V 93.060056 h 20.76562 v 43.875004 h 9.79687 V 93.060056 h 9.75 q 3.46875,0 5.57813,1.07813 2.10937,1.03125 3.28125,2.67187 1.21875,1.64063 1.64062,3.703134 0.46875,2.0625 0.46875,4.07812 v 32.34375 h 9.79688 v -34.54687 q 0,-8.859384 -4.73438,-13.125004 -4.6875,-4.265635 -13.59375,-4.265635 z m 35.4375,21.609389 q 0.375,-2.71875 1.3125,-5.20313 0.98438,-2.484374 2.71875,-4.312504 1.73438,-1.82812 4.26563,-2.90625 2.53125,-1.125 6.09375,-1.125 h 18.42187 v -8.062505 h -21.51562 q -5.53125,0 -9.75,2.109385 -4.17188,2.10937 -6.89063,5.71875 -2.71875,3.60937 -4.125,8.296874 -1.40625,4.6875 -1.40625,9.89063 0,5.10937 1.40625,9.79687 1.40625,4.6875 4.125,8.29688 2.71875,3.60937 6.89063,5.71875 4.21875,2.10937 9.75,2.10937 h 21.51562 v -7.96875 H 217.0366 q -3.65625,0 -6.28125,-1.125 -2.57813,-1.17187 -4.3125,-3.1875 -1.6875,-2.01562 -2.67188,-4.64062 -0.9375,-2.67188 -1.21875,-5.53125 h 31.73438 v -7.875 z M 307.73972,93.060056 V 84.997551 H 286.2241 q -5.53125,0 -9.75,2.109385 -4.17188,2.10937 -6.89063,5.71875 -2.71875,3.60937 -4.125,8.296874 -1.40625,4.6875 -1.40625,9.89063 0,5.10937 1.40625,9.79687 1.40625,4.6875 4.125,8.29688 2.71875,3.60937 6.89063,5.71875 4.21875,2.10937 9.75,2.10937 h 21.51562 v -7.96875 h -18.42187 q -4.21875,0 -7.07813,-1.54687 -2.8125,-1.54688 -4.5,-4.03125 -1.6875,-2.48438 -2.4375,-5.71875 -0.70312,-3.28125 -0.70312,-6.65625 0,-3.375 0.70312,-6.5625 0.75,-3.23438 2.4375,-5.765634 1.6875,-2.53125 4.5,-4.07812 2.85938,-1.54688 7.07813,-1.54688 z m 31.96875,45.234384 q 7.875,0 13.125,-2.01563 5.29688,-2.01562 8.34375,-5.67187 3.09375,-3.65625 4.35938,-8.625 1.3125,-5.01563 1.3125,-10.96875 0,-5.95313 -1.3125,-10.96875 -1.26563,-5.062504 -4.35938,-8.671884 -3.04687,-3.60937 -8.34375,-5.625005 -5.25,-2.01562 -13.125,-2.01562 -7.96875,0 -13.21875,2.01562 -5.20312,2.015635 -8.29687,5.625005 -3.09375,3.60938 -4.40625,8.671884 -1.26563,5.01562 -1.26563,10.96875 0,5.95312 1.26563,10.96875 1.3125,4.96875 4.40625,8.625 3.09375,3.65625 8.29687,5.67187 5.25,2.01563 13.21875,2.01563 z m 16.59375,-27.28125 q 0,4.03125 -0.75,7.54687 -0.70312,3.51563 -2.57812,6.09375 -1.875,2.57813 -5.10938,4.125 -3.1875,1.54688 -8.15625,1.54688 -5.01562,0 -8.25,-1.54688 -3.1875,-1.54687 -5.0625,-4.125 -1.875,-2.57812 -2.625,-6.09375 -0.70312,-3.51562 -0.70312,-7.54687 0,-4.03125 0.70312,-7.5 0.75,-3.515634 2.625,-6.093754 1.875,-2.625 5.0625,-4.17188 3.23438,-1.54687 8.25,-1.54687 4.96875,0 8.15625,1.54687 3.23438,1.54688 5.10938,4.17188 1.875,2.57812 2.57812,6.093754 0.75,3.46875 0.75,7.5 z m 70.21875,-26.015639 h -52.45312 v 51.937509 h 9.70312 V 93.060056 h 20.76563 v 43.875004 h 9.79687 V 93.060056 h 9.75 q 3.46875,0 5.57813,1.07813 2.10937,1.03125 3.28125,2.67187 1.21875,1.64063 1.64062,3.703134 0.46875,2.0625 0.46875,4.07812 v 32.34375 h 9.79688 v -34.54687 q 0,-8.859384 -4.73438,-13.125004 -4.6875,-4.265635 -13.59375,-4.265635 z" id="path35" inkscape:label="path35"/><path style="font-size:96px;font-family:CƏLAL;-inkscape-font-specification:CƏLAL;baseline-shift:baseline;display:inline;overflow:visible;fill:url(#linearGradient44);fill-rule:evenodd;stroke-width:0.5;stroke-linecap:round;stroke-linejoin:round;stroke-dasharray:none;paint-order:markers stroke fill;enable-background:accumulate;stop-color:#000000" d="m 26.516728,129.28711 q -4.21875,0 -7.078125,-1.54687 -2.8125,-1.54688 -4.5,-4.03125 -1.6875,-2.48438 -2.4375,-5.71874 -0.703125,-3.28125 -0.703125,-6.65625 0,-3.375 0.703125,-6.5625 0.75,-3.23438 2.4375,-5.765633 1.6875,-2.53125 4.5,-4.07812 2.859375,-1.54688 7.078125,-1.54688 h 14.671875 v 35.906243 z m -3.09375,7.96875 h 17.765625 v 2.76563 q 0,2.8125 -1.96875,3.98437 -1.96875,1.21875 -5.109375,1.21875 H 7.1104768 v 7.96875 H 37.251103 q 4.640625,0 7.359375,-1.40625 2.71875,-1.35937 4.125,-3.51562 1.40625,-2.10938 1.828125,-4.54688 0.421875,-2.4375 0.421875,-4.54687 V 85.318357 h -27.5625 q -5.53125,0 -9.75,2.10939 -4.1718752,2.10937 -6.8906252,5.71875 -2.7187504,3.60937 -4.1250004,8.296873 -1.4062499,4.6875 -1.4062499,9.89063 0,5.10937 1.4062499,9.79686 1.40625,4.6875 4.1250004,8.29688 2.71875,3.60937 6.8906252,5.71875 4.21875,2.10937 9.75,2.10937 z m 35.71875,-51.937503 v 8.06251 h 29.578127 q 8.250004,0 8.250004,10.828133 v 1.54687 H 74.422975 q -8.156247,0 -12.749997,4.03125 -4.546875,4.03125 -4.546875,11.81249 0,7.78125 4.546875,11.71875 4.59375,3.9375 12.749997,3.9375 h 32.343765 v -36.56249 q 0,-4.734373 -1.54687,-7.687503 -1.54688,-3 -3.75,-4.6875 -2.203131,-1.73438 -4.687511,-2.34376 -2.484382,-0.65625 -4.406262,-0.65625 z m 37.828131,28.406263 v 15.56249 H 77.469855 q -5.062502,0 -7.265627,-1.875 -2.203125,-1.875 -2.203125,-5.8125 0,-4.03124 2.15625,-5.95311 2.15625,-1.92188 7.031252,-1.92188 z M 167.75111,85.318357 h -52.45312 v 51.937503 h 9.70313 V 93.380867 h 20.76562 v 43.874993 h 9.79687 V 93.380867 h 9.75 q 3.46875,0 5.57813,1.07813 2.10937,1.03125 3.28125,2.67187 1.21875,1.64063 1.64062,3.703133 0.46875,2.0625 0.46875,4.07812 v 32.34374 h 9.79688 V 102.709 q 0,-8.859383 -4.73438,-13.125003 -4.6875,-4.26564 -13.59375,-4.26564 z m 35.4375,21.609393 q 0.375,-2.71875 1.3125,-5.20313 0.98438,-2.484373 2.71875,-4.312503 1.73438,-1.82812 4.26563,-2.90625 2.53125,-1.125 6.09375,-1.125 h 18.42187 v -8.06251 h -21.51562 q -5.53125,0 -9.75,2.10939 -4.17188,2.10937 -6.89063,5.71875 -2.71875,3.60937 -4.125,8.296873 -1.40625,4.6875 -1.40625,9.89063 0,5.10937 1.40625,9.79686 1.40625,4.6875 4.125,8.29688 2.71875,3.60937 6.89063,5.71875 4.21875,2.10937 9.75,2.10937 h 21.51562 v -7.96875 h -18.42187 q -3.65625,0 -6.28125,-1.125 -2.57813,-1.17187 -4.3125,-3.1875 -1.6875,-2.01562 -2.67188,-4.64062 -0.9375,-2.67187 -1.21875,-5.53124 h 31.73438 v -7.875 z M 308.28236,93.380867 v -8.06251 h -21.51562 q -5.53125,0 -9.75,2.10939 -4.17188,2.10937 -6.89063,5.71875 -2.71875,3.60937 -4.125,8.296873 -1.40625,4.6875 -1.40625,9.89063 0,5.10937 1.40625,9.79686 1.40625,4.6875 4.125,8.29688 2.71875,3.60937 6.89063,5.71875 4.21875,2.10937 9.75,2.10937 h 21.51562 v -7.96875 h -18.42187 q -4.21875,0 -7.07813,-1.54687 -2.8125,-1.54688 -4.5,-4.03125 -1.6875,-2.48438 -2.4375,-5.71874 -0.70312,-3.28125 -0.70312,-6.65625 0,-3.375 0.70312,-6.5625 0.75,-3.23438 2.4375,-5.765633 1.6875,-2.53125 4.5,-4.07812 2.85938,-1.54688 7.07813,-1.54688 z m 31.96875,45.234373 q 7.875,0 13.125,-2.01563 5.29688,-2.01562 8.34375,-5.67187 3.09375,-3.65625 4.35938,-8.625 1.3125,-5.01562 1.3125,-10.96874 0,-5.95313 -1.3125,-10.96875 -1.26563,-5.062503 -4.35938,-8.671883 -3.04687,-3.60937 -8.34375,-5.62501 -5.25,-2.01562 -13.125,-2.01562 -7.96875,0 -13.21875,2.01562 -5.20312,2.01564 -8.29687,5.62501 -3.09375,3.60938 -4.40625,8.671883 -1.26563,5.01562 -1.26563,10.96875 0,5.95312 1.26563,10.96874 1.3125,4.96875 4.40625,8.625 3.09375,3.65625 8.29687,5.67187 5.25,2.01563 13.21875,2.01563 z M 356.84486,111.334 q 0,4.03125 -0.75,7.54687 -0.70312,3.51562 -2.57812,6.09374 -1.875,2.57813 -5.10938,4.125 -3.1875,1.54688 -8.15625,1.54688 -5.01562,0 -8.25,-1.54688 -3.1875,-1.54687 -5.0625,-4.125 -1.875,-2.57812 -2.625,-6.09374 -0.70312,-3.51562 -0.70312,-7.54687 0,-4.03125 0.70312,-7.5 0.75,-3.51563 2.625,-6.093753 1.875,-2.625 5.0625,-4.17188 3.23438,-1.54687 8.25,-1.54687 4.96875,0 8.15625,1.54687 3.23438,1.54688 5.10938,4.17188 1.875,2.578123 2.57812,6.093753 0.75,3.46875 0.75,7.5 z m 70.21875,-26.015643 h -52.45312 v 51.937503 h 9.70312 V 93.380867 h 20.76563 v 43.874993 h 9.79687 V 93.380867 h 9.75 q 3.46875,0 5.57813,1.07813 2.10937,1.03125 3.28125,2.67187 1.21875,1.64063 1.64062,3.703133 0.46875,2.0625 0.46875,4.07812 v 32.34374 h 9.79688 V 102.709 q 0,-8.859383 -4.73438,-13.125003 -4.6875,-4.26564 -13.59375,-4.26564 z" id="path35-9"/></g><g id="g1"><g id="path38" style="stroke-width:0.5;stroke-dasharray:none" transform="translate(-42.046719,142.15796)"><circle style="fill:#9fa2a6;fill-opacity:1;fill-rule:evenodd;stroke:none;stroke-width:0.5;stroke-linecap:round;stroke-linejoin:round;stroke-dasharray:none;stroke-opacity:1;paint-order:markers stroke fill" id="path38-8" cx="253.96211" cy="112.2506" r="6.4003525" transform="translate(42.046719,-142.15796)"/><path style="baseline-shift:baseline;display:inline;overflow:visible;fill:#353d42;fill-rule:evenodd;stroke-width:0.5;stroke-linecap:round;stroke-linejoin:round;stroke-dasharray:none;paint-order:markers stroke fill;enable-background:accumulate;stop-color:#000000;stop-opacity:1" d="m 296.80859,-36.414062 c -3.96448,0 -7.19531,3.230823 -7.19531,7.195312 0,3.964489 3.23083,7.195312 7.19531,7.195313 3.96449,0 7.19532,-3.230824 7.19532,-7.195313 0,-3.964489 -3.23083,-7.195312 -7.19532,-7.195312 z m 0,1.589843 c 3.10515,0 5.60547,2.500323 5.60547,5.605469 0,3.105146 -2.50032,5.605469 -5.60547,5.605469 -3.10514,0 -5.60547,-2.500323 -5.60547,-5.605469 0,-3.105146 2.50033,-5.605469 5.60547,-5.605469 z" id="path89"/><path style="baseline-shift:baseline;display:inline;overflow:visible;fill:url(#linearGradient39);fill-rule:evenodd;stroke-width:0.5;stroke-linecap:round;stroke-linejoin:round;stroke-dasharray:none;paint-order:markers stroke fill;enable-background:accumulate;stop-color:#000000;stop-opacity:1" d="m 303.20931,-29.218699 a 6.4003525,6.4003525 0 0 1 -6.40035,6.400353 6.4003525,6.4003525 0 0 1 -6.40035,-6.400353 6.4003525,6.4003525 0 0 1 6.40035,-6.400352 6.4003525,6.4003525 0 0 1 6.40035,6.400352 z" id="path90"/></g><path style="fill:url(#linearGradient80);fill-opacity:1;stroke:url(#linearGradient78);stroke-width:0.5;stroke-dasharray:none;stroke-opacity:1" d="m 247.536,118.06595 c 0.19479,-0.005 0.72044,-0.0388 0.86706,-0.0555 0.27328,-0.0311 0.44675,-0.0521 0.52019,-0.0633 0.0441,-0.007 0.14017,-0.0212 0.21343,-0.0322 0.31759,-0.0477 0.97063,-0.17 1.54734,-0.2897 0.0514,-0.0107 0.13524,-0.0275 0.18675,-0.0375 0.0515,-0.01 0.16532,-0.0327 0.25341,-0.0505 0.0879,-0.0178 0.23211,-0.0463 0.32016,-0.0632 0.0879,-0.017 0.23512,-0.0458 0.3268,-0.0642 0.0917,-0.0184 0.24777,-0.0493 0.34683,-0.0687 0.1983,-0.0389 0.58985,-0.11986 0.6736,-0.13935 0.0292,-0.007 0.11047,-0.0241 0.18009,-0.0384 0.0698,-0.0143 0.20177,-0.043 0.29348,-0.0638 0.0917,-0.0208 0.21774,-0.0491 0.28014,-0.063 0.0623,-0.0139 0.17934,-0.04 0.26009,-0.058 0.17553,-0.0393 1.137,-0.26866 1.30721,-0.3119 0.13196,-0.0335 0.38433,-0.0972 0.54027,-0.13632 0.13907,-0.0349 0.80592,-0.20918 0.88703,-0.23182 0.0727,-0.0202 0.60923,-0.16858 0.76035,-0.21014 0.13962,-0.0384 0.30783,-0.086 0.42013,-0.11876 0.0552,-0.0161 0.17953,-0.0524 0.27681,-0.0806 0.41215,-0.1199 0.54758,-0.16074 0.86372,-0.26037 0.48709,-0.15353 0.89802,-0.2916 1.22053,-0.4101 0.099,-0.0364 0.20706,-0.0761 0.24008,-0.0882 0.0331,-0.0121 0.15912,-0.0603 0.28011,-0.10701 0.19396,-0.0749 0.25943,-0.1009 0.36683,-0.14573 0.0146,-0.006 0.1048,-0.0433 0.2001,-0.0825 0.40936,-0.16853 1.18051,-0.52198 1.44727,-0.66338 0.048,-0.0253 0.13178,-0.069 0.18677,-0.0971 0.40232,-0.20562 0.80003,-0.43757 1.45396,-0.84801 0.77693,-0.48765 1.13552,-0.73926 1.47736,-1.03666 0.62249,-0.54158 0.90401,-1.07414 0.81108,-1.53425 -0.045,-0.22222 -0.1398,-0.40099 -0.30237,-0.56943 -0.0757,-0.0783 -0.24373,-0.20623 -0.35371,-0.26914 -0.17607,-0.10067 -0.48064,-0.21854 -0.73866,-0.28584 -0.47329,-0.12346 -1.48984,-0.22266 -2.2831,-0.22279 -0.34338,-5e-5 -0.9111,0.0246 -1.14501,0.0497 -0.0624,0.007 -0.14946,0.0156 -0.19343,0.0197 -0.10116,0.01 -0.52513,0.0665 -0.61362,0.0825 -0.36332,0.0657 -0.36473,0.0661 -0.44361,0.12188 -0.0435,0.0308 -0.0966,0.1124 -0.0966,0.14868 0,0.0107 0.0468,0.072 0.10388,0.13631 0.0571,0.0643 0.12668,0.14964 0.15475,0.18959 0.0616,0.088 0.0511,0.0869 0.3551,0.0352 0.56404,-0.096 0.98462,-0.14896 1.52069,-0.19142 0.25539,-0.0202 1.00459,-0.0203 1.21384,-1.2e-4 0.39073,0.0377 0.67305,0.083 0.95372,0.15322 0.14016,0.035 0.32997,0.0906 0.38685,0.11322 0.0146,0.006 0.0805,0.0319 0.14672,0.0578 0.35461,0.13938 0.47008,0.22021 0.55836,0.39091 0.10462,0.2025 0.0656,0.4107 -0.12048,0.64064 -0.0593,0.0733 -0.28578,0.27876 -0.41799,0.37917 -0.0403,0.0306 -0.13379,0.10168 -0.20757,0.15785 -0.43665,0.33228 -1.20693,0.82037 -1.72317,1.0919 -0.0425,0.0222 -0.0977,0.0517 -0.12339,0.0656 -0.41808,0.22556 -1.33112,0.6511 -1.78076,0.82995 -0.10809,0.043 -0.20019,0.0811 -0.32219,0.13336 -0.023,0.01 -0.0454,0.018 -0.0495,0.018 -0.007,0 -0.10792,0.041 -0.18846,0.0763 -0.10097,0.0442 -0.96374,0.36212 -1.23386,0.45462 -0.0771,0.0264 -0.2091,0.0716 -0.29347,0.1005 -0.33937,0.11624 -1.09485,0.35709 -1.42731,0.45504 -0.099,0.0292 -0.22508,0.0663 -0.28009,0.0825 -0.055,0.0162 -0.16313,0.0475 -0.24013,0.0696 -0.0771,0.0221 -0.16715,0.0485 -0.20008,0.0586 -0.0329,0.0102 -0.11993,0.0346 -0.1934,0.0544 -0.23062,0.0621 -0.46431,0.12564 -0.53356,0.14509 -0.0768,0.0216 -0.59558,0.15754 -0.74982,0.19653 -0.23769,0.0601 -1.03688,0.25547 -1.67121,0.40859 -0.18709,0.0452 -0.43621,0.1056 -0.5536,0.13432 -0.77115,0.18866 -1.60727,0.38631 -1.97416,0.46667 -0.066,0.0145 -0.14418,0.0316 -0.17334,0.0382 -0.0292,0.007 -0.0955,0.0208 -0.14673,0.0317 -0.0513,0.0109 -0.11738,0.0255 -0.14672,0.0324 -0.11137,0.0262 -0.94384,0.18945 -1.12715,0.22103 -0.40885,0.0704 -0.56163,0.0953 -0.81368,0.13227 -0.20353,0.0299 -0.62603,0.0816 -0.92705,0.11353 -0.45161,0.0479 -1.14393,0.0704 -1.59718,0.0519 -0.60612,-0.0247 -1.13319,-0.068 -1.49084,-0.12248 -0.55341,-0.0843 -0.96059,-0.28386 -1.05217,-0.51568 -0.0357,-0.0904 -0.0353,-0.1442 9.6e-4,-0.24825 0.10063,-0.27911 0.4592,-0.61233 1.08332,-1.00631 0.63645,-0.40176 1.65874,-0.92503 2.91117,-1.49008 l 0.25667,-0.1158 -0.007,-0.0547 c -0.004,-0.0306 0.004,-0.13484 0.0206,-0.23598 0.0164,-0.0997 0.0246,-0.19176 0.0204,-0.20461 -0.0146,-0.0448 -0.13724,-0.0447 -0.27326,9e-5 -0.0186,0.006 -0.0963,0.0289 -0.17334,0.0508 -0.0771,0.0219 -0.16695,0.0486 -0.2001,0.0594 -0.13687,0.0446 -0.2518,0.0838 -0.33344,0.1138 -0.048,0.0175 -0.11065,0.0404 -0.14017,0.0509 -0.0647,0.0232 -0.0885,0.0324 -0.16933,0.0659 -0.0345,0.0143 -0.0656,0.026 -0.0698,0.026 -0.002,0 -0.0446,0.0163 -0.0908,0.0362 -0.0459,0.0199 -0.11647,0.0494 -0.15711,0.0654 -0.11264,0.0448 -0.74778,0.35128 -0.92213,0.44492 -0.58042,0.31174 -1.40544,0.85145 -1.88574,1.2336 -0.45473,0.36178 -0.69873,0.69898 -0.7733,1.06853 -0.0859,0.42659 0.13088,0.81256 0.59965,1.06653 0.36336,0.1969 0.77762,0.3171 1.52756,0.44322 0.18209,0.0306 0.54515,0.0706 0.86702,0.0954 0.23863,0.0184 1.09459,0.0322 1.43392,0.0231 z" id="path73"/><circle style="fill:url(#radialGradient83);fill-rule:evenodd;stroke:#989fa5;stroke-width:0.720763;stroke-linecap:round;stroke-linejoin:round;stroke-dasharray:none;stroke-opacity:1;paint-order:markers stroke fill" id="path80" cx="246.36081" cy="117.60753" r="2.7211919"/></g></svg>