<svg height="60.919998" viewBox="0 0 560.65278 60.919997" width="560.65277" xmlns="http://www.w3.org/2000/svg"><g fill="#d70000" transform="matrix(1.9133916 0 0 1.9133916 -20.357702 -18.942079)"><g transform="translate(-473.24219 -349.43433)"><path d="m508.86523 368.85907c-2.0075-2.84625-5.31875-4.7025-9.065-4.7025-6.13125 0-11.09625 4.9675-11.09625 11.095 0 6.12625 4.965 11.09375 11.09625 11.09375 4.4475 0 8.285-2.62125 10.05625-6.40125h-9.79375v-5.045h15.64125c.005.11875.009.235.009.3525 0 1.63125-.24375 3.20875-.70125 4.6925-2.0012 6.49875-8.0537 11.22875-15.2112 11.22875-8.79125 0-15.91875-7.13125-15.91875-15.92125 0-8.7925 7.1275-15.9175 15.91875-15.9175 6.515 0 12.1125 3.91875 14.57625 9.525h-5.51125z"/><path d="m532.59898 359.64907v.001l-20.1125 30.2875h6.22625l4.29625-6.46875h9.59v6.48125h5.1875v-30.30125h-5.1875zm-6.14625 18.63125 6.14625-9.2525v9.2525z"/><path d="m578.40773 359.64907v.001l-13.87 20.87875v-20.88h-5.1875v.001l-20.11375 30.2875h6.2325l13.88125-20.91v20.9225h5.1875v-.0362l13.87-20.88625v20.9225h5.18625v-30.30125h-5.18625z"/><path d="m603.54773 364.83782v-5.18875h-15.7575v30.30875l5.18625-.02h10.57125v-5.18875h-10.57125v-7.0625h10.57125v-5.18625h-10.57125v-7.6625z"/></g><path d="m163.33335 30.546615c1.6625-3.7425 4.16-9.36875 4.16-9.36875h-5.08875l-2.67875 6.03875-3.98875-3.68375c1.82625-1.4675 3.43-3.32375 3.43-6.42 0-1.66125-.6575-3.23125-1.84125-4.42125-1.355-1.35125-3.26125-2.12625-5.2375-2.12625-3.42375 0-6.96875 2.44875-6.96875 6.5475 0 2.855 1.5725 4.7 3.13375 6.06625-2.89125 2.0475-5.40875 4.2275-5.40875 8.72375 0 2.55125.92375 4.8725 2.59875 6.5475 1.68875 1.69125 4.0475 2.6225 6.645 2.6225 4.9175 0 7.3575-2.38 9.22625-6.06l6.0325 5.57625 3.16-3.415zm-13.07375-14.61875c.43875-.44 1.1425-.71 1.82875-.71.73125 0 1.475.2925 1.94625.7625.32625.325.485.69375.485 1.1325 0 1.30625-.62625 2.0175-2.3375 3.2825-1.49625-1.1975-2.41125-2.0325-2.41125-3.2825 0-.465.16-.855.48875-1.185m7.37875 15.9875c-1.605 3.57625-2.745 4.5025-5.55 4.5025-1.3775 0-2.535-.43625-3.3575-1.2525-.80875-.81125-1.23375-1.93875-1.23375-3.2625 0-2.445 1.25625-3.41375 4.35-5.5575.0163-.01.0338-.0238.045-.0338l5.83875 5.39375-.0925.21z"/><g transform="translate(-473.24219 -346.60938)"><path d="m702.97319 357.571-20.11125 30.28875h6.22625l4.29625-6.4675h9.58875v6.4825h5.19v-30.30375zm-6.14625 18.635 6.14625-9.25125v9.25125z"/><path d="m660.53569 387.87475v-.001l13.86375-20.885v20.88625h5.1875v-.001l20.11375-30.28875h-6.22875l-13.885 20.90625v-20.92h-5.1875v.04l-13.86375 20.88v-20.92h-5.19v30.30375h5.19z"/><path d="m771.70819 357.571v12.2h-9.36625v-12.2h-5.18625v30.29875h5.18625v-12.9075h9.36625v12.9075h5.18875v-30.29875z"/><path d="m727.12319 357.571h-16.9325v5.18625h5.87375v25.1125h5.18875v-25.1125h5.87z"/><path d="m749.82444 379.7035c-1.9925 2.21375-4.87375 3.6025-8.08625 3.6025-6.0125 0-10.885-4.87125-10.885-10.87875 0-6.01 4.8725-10.88125 10.885-10.88125 3.16125 0 6.01 1.42125 7.995 3.605h6.0775c-2.65625-5.0525-7.9625-8.6225-14.0725-8.6225-8.78 0-15.8975 7.11875-15.8975 15.89875 0 8.77875 7.1175 15.90125 15.8975 15.90125 6.15375 0 11.48875-3.51 14.13125-8.625z"/></g></g></svg>