<?xml version="1.0" encoding="UTF-8" standalone="no"?>
<svg
   height="512.79352"
   viewBox="0 0 991.53437 135.677"
   width="3747.5298"
   version="1.1"
   id="svg10"
   sodipodi:docname="gb-msu1.svg"
   inkscape:version="1.4-beta (62f545ba5e, 2024-04-22)"
   xml:space="preserve"
   xmlns:inkscape="http://www.inkscape.org/namespaces/inkscape"
   xmlns:sodipodi="http://sodipodi.sourceforge.net/DTD/sodipodi-0.dtd"
   xmlns="http://www.w3.org/2000/svg"
   xmlns:svg="http://www.w3.org/2000/svg"><defs
     id="defs14"><linearGradient
       id="a"
       gradientUnits="userSpaceOnUse"
       x1="527.771"
       y1="-0.713"
       x2="527.771"
       y2="98.787003"
       gradientTransform="matrix(1.3613277,0,0,1.3613277,-0.00217987,-8.7852219e-4)">
        <stop
   offset=".005"
   style="stop-color:#2e5c92"
   id="stop1" />
        <stop
   offset="1"
   style="stop-color:#2e3192"
   id="stop2" />
    </linearGradient><linearGradient
       id="b"
       gradientUnits="userSpaceOnUse"
       x1="290.73801"
       y1="-0.713"
       x2="290.73801"
       y2="98.787003"
       gradientTransform="matrix(1.3613277,0,0,1.3613277,-0.00217987,-8.7852219e-4)">
        <stop
   offset=".005"
   style="stop-color:#2e5c92"
   id="stop3" />
        <stop
   offset="1"
   style="stop-color:#2e3192"
   id="stop4" />
    </linearGradient><linearGradient
       id="c"
       gradientUnits="userSpaceOnUse"
       x1="127.571"
       y1="-0.713"
       x2="127.571"
       y2="98.787003"
       gradientTransform="matrix(1.3613277,0,0,1.3613277,-0.00217987,-8.7852219e-4)">
        <stop
   offset=".005"
   style="stop-color:#2e5c92"
   id="stop5" />
        <stop
   offset="1"
   style="stop-color:#2e3192"
   id="stop6" />
    </linearGradient><linearGradient
       id="d"
       gradientUnits="userSpaceOnUse"
       x1="458.99399"
       y1="-0.713"
       x2="458.99399"
       y2="98.787003"
       gradientTransform="matrix(1.3613277,0,0,1.3613277,-0.00217987,-8.7852219e-4)">
        <stop
   offset=".005"
   style="stop-color:#2e5c92"
   id="stop7" />
        <stop
   offset="1"
   style="stop-color:#2e3192"
   id="stop8" />
    </linearGradient><linearGradient
       id="e"
       gradientUnits="userSpaceOnUse"
       x1="378.92099"
       y1="-0.713"
       x2="378.92099"
       y2="98.787003"
       gradientTransform="matrix(1.3613277,0,0,1.3613277,-0.00217987,-8.7852219e-4)">
        <stop
   offset=".005"
   style="stop-color:#2e5c92"
   id="stop9" />
        <stop
   offset="1"
   style="stop-color:#2e3192"
   id="stop10" />
    </linearGradient><linearGradient
       id="f"
       gradientUnits="userSpaceOnUse"
       x1="538.59802"
       y1="-0.713"
       x2="538.59802"
       y2="98.787003"
       gradientTransform="matrix(1.3613277,0,0,1.3613277,-0.00217987,-8.7852219e-4)">
        <stop
   offset=".005"
   style="stop-color:#2e5c92"
   id="stop11" />
        <stop
   offset="1"
   style="stop-color:#2e3192"
   id="stop12" />
    </linearGradient><linearGradient
       id="g"
       gradientUnits="userSpaceOnUse"
       x1="539.14398"
       y1="-0.713"
       x2="539.14398"
       y2="98.787003"
       gradientTransform="matrix(1.3613277,0,0,1.3613277,-0.00217987,-8.7852219e-4)">
        <stop
   offset=".005"
   style="stop-color:#2e5c92"
   id="stop13" />
        <stop
   offset="1"
   style="stop-color:#2e3192"
   id="stop14" />
    </linearGradient></defs><sodipodi:namedview
     id="namedview12"
     pagecolor="#ffffff"
     bordercolor="#666666"
     borderopacity="1.0"
     inkscape:pageshadow="2"
     inkscape:pageopacity="0.0"
     inkscape:pagecheckerboard="0"
     showgrid="false"
     inkscape:zoom="0.2799099"
     inkscape:cx="1523.7046"
     inkscape:cy="208.99583"
     inkscape:window-width="1920"
     inkscape:window-height="1009"
     inkscape:window-x="-8"
     inkscape:window-y="-8"
     inkscape:window-maximized="1"
     inkscape:current-layer="svg10"
     inkscape:showpageshadow="2"
     inkscape:deskcolor="#d1d1d1" /><g
     stroke-width="1.624"
     id="g8"
     style="fill:#666666;fill-opacity:1"
     transform="translate(-2.1163967,-24.307451)"><path
       d="M 148,296 376,68 h 28 V 224 L 560,68 h 28 V 296 H 548 V 136 L 388,296 H 360 V 136 L 200,296 Z M 1132,68 h -24 l -64,64 v 24 h 48 v 140 h 40 z M 804,68 H 656 c -25,0 -44,31 -44,56 v 24 c 0,25 19,56 44,56 h 84 c 20,0 24,14 24,24 0,10 -4,24 -24,24 H 612 v 44 h 148 c 25,0 44,-31 44,-56 v -24 c 0,-25 -19,-56 -44,-56 h -84 c -20,0 -24,-14 -24,-24 0,-10 4,-24 24,-24 h 128 z m 64,155 c 0,25 15,33 30,33 h 52 c 15,0 30,-8 30,-33 V 68 h 44 v 172 c 0,30 -13,56 -48,56 H 872 c -35,0 -48,-26 -48,-56 V 68 h 44 z m 266,93 v 28 H 140 V 316 Z M 827,421 c 0,10 -8,19 -18,19 h -19 c -10,0 -18,-9 -18,-19 v -39 c 0,-10 8,-19 18,-19 h 19 c 10,0 18,9 18,19 0,0 -0.17,7.88 0,10 h -22 c 0,-10 0,-13 -4.5,-13 -4.5,0 -4.5,3 -4.5,13 v 18 c 0,10 0,13 4.53,13 4.47,0 4.47,-3 4.47,-13 h 22 z m -654,-58 9.48,39 9.52,-39 h 30 v 76 h -22 v -46 l -13,46 h -9 l -13,-46 v 46 h -22 v -76 z m 101,0 v 17 h -21 v 12 h 18 v 17 h -18 v 13 h 21 v 17 h -45 v -76 z m 6,76 v -76 h 29 c 26,0 26,18 26,18 v 40 c 0,0 0,18 -20,18 z m 86,-76 v 76 h -24 v -76 z m 20,0 h 33 l 15,76 h -24 l -2,-14 h -11 l -2,14 h -24 z m 99,46 v 13 h 21 v 17 h -45 v -76 h 45 v 17 h -21 v 12 h 18 v 17 z m 50,-46 13,38 v -38 h 22 v 76 h -22 l -15,-41 v 41 h -22 v -76 z m 66,76 h -24 v -76 h 24 v 29 h 10 v -29 h 24 v 76 h -24 v -30 h -10 z m 54,-76 h 33 l 15,76 h -24 l -2,-14 h -11 l -2,14 h -24 z m 74,35 v 41 h -22 v -76 h 24 l 13,38 v -38 h 22 v 76 h -22 z m 128,11 v 13 h 21 v 17 h -45 v -76 h 45 v 17 h -21 v 12 h 18 v 17 z m 55,-46 10.53,39 10.47,-39 h 29 v 76 h -22 v -46 l -13,46 h -9 l -13,-45 v 45 h -22 v -76 z m 102,0 v 17 h -21 v 12 h 18 v 17 h -18 v 13 h 21 v 17 h -45 v -76 z m 29,0 13,38 v -38 h 22 v 76 h -22 l -15,-41 v 41 h -22 v -76 z m 90,0 v 17 h -13 v 59 h -24 v -59 h -13 v -17 z m -820,29 c 0.04,-10.02 -2,-12 -10,-12 v 42 c 8,0 10,-2 10,-12 z m 86,16 h 7 l -3.53,-29 z m 269,0 h 7 l -3.49,-29 z"
       fill="#fff"
       stroke="#ffffff"
       transform="matrix(0.23569,0,0,0.23553,726.071,56.16)"
       id="path4"
       style="fill:#666666;fill-opacity:1" /><path
       d="m 140,330 v -14 h 994 v 28 H 140 Z"
       fill="#e4000f"
       stroke="#ff0000"
       stroke-width="2.62"
       transform="matrix(0.23569,0,0,0.23553,726.071,56.16)"
       id="path6"
       style="fill:#ff0000;fill-opacity:1" /></g><path
     fill="url(#a)"
     d="m 665.16297,1.2474365 h 32.71134 L 714.03192,38.408982 738.26218,1.2474365 h 33.5091 l -47.2476,73.5062925 -7.67108,57.349981 h -30.28684 l 8.88404,-65.436266 z"
     id="path2"
     style="fill:url(#a);stroke-width:1.36133" /><path
     fill="url(#b)"
     d="m 424.45708,132.10371 4.03906,-29.09157 h -46.03196 l 2.82614,-22.604851 h 39.97538 l 4.04451,-29.077932 h -39.57653 l 2.82885,-21.005327 h 46.02919 L 443.03786,1.2474365 H 366.71088 L 348.53719,132.10371 Z"
     id="path4-4"
     style="fill:url(#b);stroke-width:1.36133" /><path
     fill="url(#c)"
     d="m 152.66527,67.473331 10.09557,-27.055009 3.23317,27.055009 z m -10.90291,25.847538 h 27.46071 l 4.85044,38.770601 h 49.67211 l 23.02007,-71.079022 11.31128,71.079022 h 26.25046 l 29.0766,-75.116687 4.84771,75.116687 h 29.0766 L 339.25018,1.2420345 H 304.5173 L 277.4609,70.299464 266.95824,1.2420345 H 235.86278 L 200.32532,108.66709 186.99656,1.2420345 h -38.77059 l -43.214,108.6339155 5.65494,-42.403957 H 58.165947 l -3.637475,25.847486 h 23.022797 l -1.617279,8.884051 c -4.039055,2.42044 -13.326019,2.82475 -16.960767,2.82475 -3.634748,0 -30.691146,-2.42044 -29.480901,-31.499763 C 30.702515,44.451923 69.473159,17.394188 115.5119,32.336097 L 119.95799,4.4696975 C 89.262788,-6.0274615 8.6476783,-0.15199552 0.41300143,71.915354 -4.4319912,114.31796 34.338652,134.5119 60.183468,134.11171 c 14.943297,0.80861 31.906793,-4.84772 37.963315,-8.07949 l -2.017465,6.05925 h 30.693862 z"
     id="path6-8"
     style="fill:url(#c);stroke-width:1.36133" /><path
     fill="url(#d)"
     d="m 632.44618,0.03724348 c -21.00256,-0.808613 -51.29213,11.30716052 -61.3877,60.17611052 -10.09563,48.863496 16.96077,68.653126 41.99964,71.883566 25.043,3.23044 60.1775,-12.51875 66.63838,-59.366161 C 686.16011,25.882058 663.13459,1.2501635 632.44618,0.03724348 Z M 629.21439,27.903591 c 8.4797,0 26.65209,5.654997 22.20868,39.575193 -4.44336,33.924266 -25.44184,37.963326 -33.11565,37.153376 -7.67652,-0.80867 -23.42437,-6.053861 -18.98101,-37.153376 4.44068,-31.094114 20.99714,-39.979499 29.88798,-39.575193 z"
     id="path8"
     style="fill:url(#d);stroke-width:1.36133" /><path
     fill="url(#e)"
     d="m 504.82307,51.329357 h 16.96349 c 12.52013,0 14.9433,-8.078109 15.34354,-11.305823 0.40441,-3.233168 -3.22771,-9.695388 -9.6886,-9.695388 h -19.78962 z m -7.26816,51.690963 h 23.0228 c 12.51467,0 15.34215,-9.689921 15.74238,-12.923091 0.40699,-3.23045 -3.22771,-9.68856 -9.68854,-9.68856 H 500.78808 Z M 463.63337,132.09965 481.80711,1.2515525 h 55.73002 c 13.33148,0 32.71407,15.3476055 30.29224,35.9431205 -2.42177,20.596905 -8.88538,21.808487 -13.32874,25.038928 6.86791,6.053797 13.73305,15.747798 10.90697,33.921538 -2.82886,18.177801 -17.77216,35.943161 -44.02262,35.943161 z"
     id="path10"
     style="fill:url(#e);stroke-width:1.36133" /><path
     fill="url(#f)"
     d="m 733.23479,112.30596 c -4.98247,0 -9.00516,4.01728 -9.00516,8.97521 a 8.9956542,8.9956542 0 0 0 9.00516,9.03104 c 4.95659,0 8.97388,-4.02001 8.97388,-9.03104 a 8.9793183,8.9793183 0 0 0 -8.97388,-8.97521 v -1.23474 a 10.209959,10.209959 0 0 1 10.20723,10.20995 c 0,5.68083 -4.56041,10.26172 -10.20723,10.26172 a 10.245353,10.245353 0 0 1 -10.26305,-10.26172 c 0,-5.62906 4.58089,-10.20861 10.26305,-10.20861 z"
     id="path12"
     style="fill:url(#f);stroke-width:1.36133" /><path
     fill="url(#g)"
     d="m 730.81162,116.5819 h 3.26991 c 1.42258,0 2.97046,0.21249 2.97046,1.98345 0,2.32922 -2.48852,2.06372 -4.09761,2.06372 l -2.14276,-0.003 v 1.10126 h 2.57701 l 3.26717,5.27925 h 1.65948 l -3.45642,-5.27925 c 2.03656,-0.0514 3.61571,-0.88213 3.61571,-3.13376 0,-0.96652 -0.42601,-1.98346 -1.28376,-2.46808 -0.85627,-0.50783 -1.82417,-0.56088 -2.78936,-0.56088 h -4.97701 v 11.43925 h 1.38858 v -10.4223 z"
     id="path14"
     style="fill:url(#g);stroke-width:1.36133" /></svg>
