<svg height="187.41783" viewBox="0 0 1337.5042 187.41783" width="1337.5042" xmlns="http://www.w3.org/2000/svg"><path d="m206.84346 81.525221q-1.82934 9.375388-3.88735 18.29344-1.82935 8.689389-5.0307 17.150099-3.20135 8.46072-8.00338 16.69276-4.57336 8.00338-11.66207 16.00676-15.54942 17.83611-35.21487 25.83949-19.43678 8.00338-41.16024 8.00338-20.35145 0-36.129541-6.63137-15.778092-6.63138-26.068152-18.52211-10.29006-12.11941-14.406084-28.81217-4.116024-16.69276-.914672-37.044215 3.43002-21.037456 12.805408-38.187556 9.604056-17.1501 23.781472-29.269504 14.177416-12.119404 32.470855-18.7507756 18.293444-6.63137198 39.102224-6.63137198 26.75416 0 44.81893 12.11940358 18.06477 11.890736 25.38215 36.129544l-45.27626 17.836104q-2.74402-12.348072-10.97607-19.894116-8.23205-7.546044-21.95213-7.546044-10.97606 0-20.35145 4.802028-9.146718 4.802028-16.006758 12.57674-6.86004 7.774712-11.204731 17.607436-4.344692 9.604056-5.945368 19.43678-1.600676 10.061397-.228668 19.894117 1.372008 9.60406 5.945368 17.1501 4.802027 7.54604 12.576739 12.34807 7.774712 4.57336 18.750778 4.57336 14.63475 0 25.83948-7.31738 11.20473-7.54604 14.86342-22.63813h-36.58688l5.7167-35.214869z" fill="#ff004f" stroke-width=".999995" transform="matrix(.98814111 0 -.19153424 1.0120012 12.455208 .341978)"/><path d="m237.4857 76.160409h5.30332q4.58014 0 9.16028-.48212 4.8212-.72318 8.67816-2.4106 3.85696-1.92848 6.50862-5.30332 2.89272-3.6159 3.85696-9.40134.96424-6.26756-.96424-9.6424-1.92848-3.6159-5.54438-5.30332-3.6159-1.92848-8.4371-2.16954-4.8212-.48212-9.6424-.48212h-3.37484zm-64.84514 110.405481 28.68614-181.7592407h67.4968q12.053 0 21.6954 2.65166 9.6424 2.4105999 15.6689 7.9549797 6.26756 5.54438 8.67816 14.70466 2.65166 8.91922.48212 21.93646-1.92848 12.29406-7.95498 21.93646-5.78544 9.642399-17.83844 15.186779v.48212q19.04374 2.65166 25.79342 14.945722 6.99074 12.29406 3.85696 31.3378-2.16954 14.22254-9.40134 24.106-7.2318 9.6424-17.35632 15.6689-10.12452 5.78544-22.41858 8.4371-12.053 2.4106-24.58812 2.4106zm53.0332-36.159h6.0265q5.30332 0 11.81194-.24106 6.50862-.24106 12.53512-1.92848 6.0265-1.68742 10.36558-5.54438 4.58014-4.09802 5.78544-11.57088 1.44636-8.19604-1.92848-12.29406-3.13378-4.09802-8.91922-5.78544-5.54438-1.68742-12.29406-1.68742-6.74968 0-12.53512 0h-4.8212z" fill="#7942ba" stroke-width=".999996" transform="matrix(1.0416949 0 -.1695058 .95997397 12.455208 .341978)"/><path d="m448.50076 64.414289q-5.42805-9.676082-15.57613-14.632123-9.91209-4.956042-21.94819-4.956042-10.62009 0-20.06017 3.776032-9.20408 3.776031-16.52014 10.620089-7.31606 6.608056-12.2721 15.576132-4.72004 8.968076-6.37206 19.352164-1.65201 10.620089.47201 19.588169 2.12401 8.73207 7.31606 15.10413 5.42804 6.37205 13.68811 10.14808 8.26007 3.54003 19.11617 3.54003 11.32809 0 22.65619-4.95604 11.5641-5.19204 20.29617-13.92412l-8.96808 55.46047q-12.0361 3.54003-21.71218 5.90005-9.44008 2.36002-20.29617 2.36002-18.64416 0-34.6923-6.60806-16.04813-6.84405-28.08423-19.58816-12.74411-13.45211-16.99215-30.20826-4.01203-16.99214-.708-37.052311 2.83202-18.408156 12.0361-35.164298 9.44008-16.756141 24.3082-29.972253 15.34013-13.452114 34.4563-21.0041783 19.11616-7.78806596 37.99632-7.78806596 11.32809 0 21.00418 2.36001996 9.91208 2.36002 19.82416 6.608056z" fill="#aae000" stroke-width=".999997" transform="matrix(1.0198377 0 -.16594918 .98054822 12.455208 .341978)"/><path d="m592.54892 138.02709-5.59583 35.72718h-130.42574l77.69586-72.10004q4.08926-3.874029 8.17851-8.393733 4.08926-4.734928 7.53284-9.68508 3.44359-5.165376 5.81105-10.545976 2.36747-5.595824 3.22836-11.191648.64567-3.874032-.21522-7.53284-.64567-3.874032-2.58269-6.887168-1.93702-3.013136-5.16538-4.734928-3.01313-1.937016-7.10239-1.937016-8.60896 0-14.20478 5.811048-5.3806 5.811048-6.67195 13.98956-.21522 1.721792-.43044 3.443584 0 1.721792 0 3.443584h-46.48839q2.79792-13.98956 9.03941-25.396432 6.45672-11.622096 15.92658-19.800608 9.46985-8.178512 21.5224-12.6982158 12.26776-4.519704 26.68777-4.519704 12.69822 0 23.45942 4.089256 10.7612 4.0892558 18.07881 11.6220958 7.53284 7.317616 10.7612 18.078816 3.44359 10.7612 1.29135 23.889864-1.29135 8.824184-4.30448 15.926576-2.79791 6.887168-7.31762 13.128664-4.30448 6.026272-10.11553 11.622091-5.59582 5.59583-12.69821 11.19165l-29.05524 23.45942z" fill="#808080" stroke-width=".999989" transform="matrix(.9594014 0 -.25870746 1.0423166 12.455208 .341978)"/><g fill="#3c3f8b"><g stroke-width=".999988"><path d="m637.30055 81.950282h7.29498q5.96862 0 11.49512-.22106 5.74756-.44212 10.38982-2.2106 4.64226-1.98954 7.95816-5.96862 3.3159-4.20014 4.4212-11.93724 1.32636-7.958159-.66318-12.158299-1.76848-4.4212-5.74756-6.41074-3.97908-1.98954-9.72664-2.2106-5.5265-.44212-11.71618-.44212h-7.29498zm-31.39052-76.4867589h66.318q13.48466 0 24.09554 3.3158999 10.61088 3.09484 17.46374 9.72664 7.07392 6.6318 9.72664 17.02162 2.87378 10.38982.66318 24.758719-4.64226 29.62204-22.106 43.106698-17.24268 13.48466-45.75942 13.48466h-24.53766l-8.8424 55.265h-43.32776z" transform="matrix(.9552633 0 -.21422361 1.0468318 12.455208 .341978)"/><path d="m696.31346 142.27088h54.47323l-6.02683 38.47897h-99.90622l27.58431-174.7779527h45.433z" transform="matrix(1.0016751 0 -.1826449 .9983277 12.455208 .341978)"/><path d="m828.70222 60.299587h-.46605l-27.73022 55.926473h37.9834zm-46.37237 90.880523-17.01097 30.52654h-48.46962l95.30804-175.7023528h49.86778l38.44945 175.7023528h-48.70264l-6.52475-30.52654z" transform="matrix(1.0069776 0 -.17664656 .99307075 12.455208 .341978)"/></g><path d="m892.25506 5.8004896h52.8985l24.5359 46.1455014 38.94234-46.1455014h52.8985l-76.53404 88.2392024-12.8307 81.486198h-44.1196l12.8307-81.486198z" stroke-width=".999991" transform="matrix(.97272517 0 -.18882687 1.0280396 12.455208 .341978)"/><path d="m1048.1715 43.964212-4.5852 28.886508h50.666l-5.9607 38.05683h-50.666l-4.8144 29.80354h53.4171l-5.9607 38.05682h-98.35168l27.28168-172.8605249h98.3517l-5.9607 38.0568269z" stroke-width=".999995" transform="matrix(.99069165 0 -.20615906 1.0093958 12.455208 .341978)"/><path d="m1138.1675 83.283116h4.35q5.4947 0 11.2184-.686841 5.7237-.686841 10.5315-2.976311 4.8079-2.289471 8.2421-6.410517 3.4342-4.349993 4.579-11.44735 1.1447-7.097357-1.1448-11.218403-2.0605-4.349993-6.1815-6.639463-4.1211-2.289471-9.6158-2.976312-5.2658-.686841-10.7605-.686841h-4.35zm83.5656 95.241954h-55.863l-31.8237-66.39463h-.4579l-10.5315 66.39463h-44.8736l27.2447-172.6260425h67.0814q12.8211 0 23.1237 3.2052581 10.5315 2.9763114 17.6289 9.6157744 7.0974 6.410516 10.0737 16.484184 2.9763 10.073669.9158 23.810489-1.3737 8.928933-5.2658 17.171025-3.6632 8.013146-9.6158 14.652609-5.7237 6.410516-13.5079 10.989453-7.7842 4.35-17.171 5.95263z" stroke-width=".999991" transform="matrix(.98934574 0 -.20591841 1.010769 12.455208 .341978)"/><path d="m1310.3254 52.536928q-5.5203-5.290322-12.6508-8.280504-7.1304-3.220196-15.4109-3.220196-3.2202 0-6.9004.920056-3.4502.920056-6.6704 2.760168-2.9902 1.840112-5.2903 4.60028-2.3002 2.530154-2.7602 6.210378-.6901 3.910238.92 6.670406 1.6101 2.530155 4.3703 4.600281 2.7602 1.840112 5.9804 3.220196 3.2202 1.15007 5.9803 2.070126l11.0407 3.45021q8.5105 2.760168 15.641 6.670406 7.3604 3.680224 12.1907 9.20056 5.0603 5.520337 6.9004 13.340815 2.0702 7.59046.4601 18.1711-2.0702 13.1108-7.8205 25.53156-5.7504 12.42076-17.4811 21.16129-11.7307 8.74053-25.3015 12.42075-13.3408 3.91024-26.4516 3.91024-16.561 0-31.2819-5.06031-14.7209-5.29032-26.6817-14.72089l25.0716-36.34222q7.3604 7.36045 16.331 12.65078 9.2005 5.29032 20.9312 5.29032 3.9103 0 8.0505-.92006 4.1403-1.15007 7.5905-3.22019 3.4502-2.07013 5.7503-5.29033 2.5302-3.45021 3.2202-8.05049.6901-4.83029-1.6101-8.05049-2.3001-3.22019-6.2104-5.52033-3.9102-2.30014-8.5105-3.68023-4.3702-1.38008-7.8204-2.53015-10.1207-2.99018-18.4012-6.21038-8.0505-3.45021-13.3408-8.740532-5.2903-5.290323-7.3604-13.340813-2.0702-8.05049 0-20.701261 2.0701-13.110798 8.2805-23.921456 6.2104-10.810659 15.1809-18.401121 9.2006-7.590462 20.7013-11.7307144 11.7307-4.1402521 24.8415-4.1402521 13.1108 0 27.1416 3.9102381 14.2609 3.6802244 24.8415 10.3506304z" stroke-width=".999991" transform="matrix(.99395535 0 -.20388283 1.0060814 12.455208 .341978)"/></g></svg>