<svg height="35.060467mm" viewBox="0 0 566.93 124.23" width="160.00024mm" xmlns="http://www.w3.org/2000/svg" xmlns:xlink="http://www.w3.org/1999/xlink"><linearGradient id="a" gradientUnits="userSpaceOnUse" x1="24.4097" x2="104.7385" y1="91.44603" y2="78.08317"><stop offset=".0368" stop-color="#fff"/><stop offset=".8957" stop-color="#898cbf"/></linearGradient><linearGradient id="b"><stop offset="0" stop-color="#6e70a9"/><stop offset=".9693" stop-color="#514a8e"/></linearGradient><linearGradient id="c" gradientTransform="matrix(1 0 0 -1 -.0449 123.9897)" gradientUnits="userSpaceOnUse" x1="28.460899" x2="54.048801" xlink:href="#b" y1="68.8367" y2="68.8367"/><linearGradient id="d" gradientTransform="matrix(1 0 0 -1 -.0449 123.9897)" gradientUnits="userSpaceOnUse" x1="53.857399" x2="54.185001" xlink:href="#b" y1="61.680901" y2="61.680901"/><linearGradient id="e" gradientUnits="userSpaceOnUse" x1="64.079603" x2="108.7214" y1="66.90013" y2="96.20567"><stop offset="0" stop-color="#4c5284"/><stop offset="1" stop-color="#8789bc"/></linearGradient><linearGradient id="f" gradientUnits="userSpaceOnUse" x1="53.459002" x2="53.148001" y1="123.57298" y2="103.66972"><stop offset=".1104" stop-color="#4c407e"/><stop offset=".8896" stop-color="#669"/><stop offset="1" stop-color="#a7b3d9"/><stop offset="1" stop-color="#9ba5cd"/></linearGradient><linearGradient id="g" gradientUnits="userSpaceOnUse" x1="4.8188" x2="66.021002" y1="79.70683" y2="62.69767"><stop offset=".2331" stop-color="#669"/><stop offset=".7239" stop-color="#a7b3d9"/></linearGradient><linearGradient id="h" gradientUnits="userSpaceOnUse" x1="5.8774" x2="67.0753" y1="83.5056" y2="66.49772"><stop offset=".2331" stop-color="#669"/><stop offset=".9907" stop-color="#a7b3d9"/></linearGradient><linearGradient id="i" gradientUnits="userSpaceOnUse" x1="19.580999" x2="43.915899" xlink:href="#b" y1="86.38841" y2="99.41002"/><linearGradient id="j" gradientUnits="userSpaceOnUse" x1="55.730001" x2="71.180403" y1="22.22831" y2="29.74479"><stop offset=".0368" stop-color="#9ea5d3"/><stop offset=".9018" stop-color="#7675ae"/></linearGradient><linearGradient id="k" gradientUnits="userSpaceOnUse" x1="49.3808" x2="45.736299" y1="4.52119" y2="45.01622"><stop offset="0" stop-color="#aaacd2"/><stop offset=".6258" stop-color="#fcfafb"/></linearGradient><linearGradient id="l" gradientUnits="userSpaceOnUse" x1="71.7749" x2="68.130301" y1="-.16039" y2="40.33543"><stop offset=".6743" stop-color="#aaacd2"/><stop offset="1" stop-color="#fcfafb"/></linearGradient><path d="m29.247999 99.123001-1.127998-.841003" fill="none"/><g><path d="m53.699 103.224-35.477-20.616-1.594 1.083 37.071 21.736 37.366-21.603v-22.319l-1.614.933v20.17z" fill="url(#a)"/><path d="m89.308 82.69.143-.082v-.088l1.614 1.165v.139l-.102.076z" fill="#7a7eae"/><g><path d="m28.416 47.853 25.283 14.998.305-.646-25.19-14.75z" fill="url(#c)"/><path d="m54.14 62.413h-.327l.109-.208h.185z" fill="url(#d)"/></g><path d="m107.627 31.206.158.441-53.781 31.204v-.646z" fill="#120f22"/><path d="m91.582 84.28.138-22.968h-.655v22.512l-37.366 21.603-.134 18.803h.439l.359-18.501z" fill="#453d76"/><path d="m54.004 91.212v-28.361l53.781-31.204v61.55l-53.781 31.033v-18.657l37.357-21.511v-22.73l-12.511 7.234v8.029z" fill="url(#e)"/><path d="m53.402 124.23h.297v-18.803l-1.057-.621z" fill="url(#f)"/><path d="m16.542 40.703.229.194.091 42.635-.234.159-.142-.09z" fill="#2d2868"/><path d="m54.004 21.3-35.744 20.687-.038 40.621-1.594 1.083v-42.936l37.376-21.581z" fill="#453d76"/><path d="m54.004 62.094v29.118l-.305.205v-28.566-.823z" fill="#453d76"/><g><path d="m53.699 91.417v-28.566l-25.283-14.998v28.949z" fill="url(#g)"/><path d="m16.628 40.964-16.628-9.758v62.096l53.402 30.928v-.304-18.675l-36.774-21.56z" fill="url(#h)"/></g><g fill="#2d2868"><path d="m16.343 40.755001h.285v42.938h-.285z"/><path d="m0 31.206 16.486 9.691.142-.142-16.414-9.763z"/></g><path d="m53.402 105.251v.352l-37.059-21.588v-.324h.285z" fill="url(#i)"/><path d="m77.901 35.231-23.897-13.931v-2.126l23.897 13.968z" fill="url(#j)"/><path d="m94.454 25.524v-1.972l-16.553 9.59v2.089z" fill="#484592"/><g><path d="m16.628 40.755-16.414-9.763 53.619-30.992 40.621 23.552-16.553 9.59-23.897-13.968z" fill="url(#k)"/><path d="m107.627 31.206-53.623 30.999-25.19-14.75 24.866-14.046 23.689 13.372 28.863-16.589z" fill="url(#l)"/></g><g fill="#fff"><path d="m373.52 21.158v-4.949h-14.143c-1.816 0-3.533.404-5.054 1.11-1.513.71-2.726 1.718-3.634 2.932-.908 1.209-1.314 2.529-1.416 4.04v15.252c.1 1.417.508 2.729 1.313 3.944.912 1.21 2.121 2.116 3.537 2.924 1.516.71 3.127 1.115 5.053 1.115h14.34v-4.949h-13.739c-1.11 0-2.118-.306-3.022-.911-.815-.604-1.318-1.312-1.318-2.319v-5.657h18.082v-5.053h-18.082v-4.142c0-1.013.503-1.817 1.318-2.427.904-.606 1.912-.91 3.022-.91h13.739"/><path d="m457.952 16.21v31.317h15.102c1.916-.098 3.625-.405 5.139-1.107 1.609-.804 2.818-1.712 3.723-2.921.908-1.203 1.307-2.615 1.408-4.127v-15.106c-.102-1.507-.5-2.821-1.408-4.028-.904-1.208-2.111-2.213-3.723-2.921-1.514-.705-3.225-1.107-5.139-1.107zm17.826 5.842c.898.604 1.303 1.407 1.404 2.418v14.803c-.104 1.006-.506 1.812-1.404 2.416-.809.703-1.82 1.005-2.928 1.005h-8.758v-21.648h8.758c1.108 0 2.119.301 2.928 1.006"/><path d="m531.958 17.302c-1.488-.692-3.172-.993-5.053-1.093h-5.453c-1.885.099-3.566.4-5.057 1.093-1.584.794-2.775 1.68-3.666 2.874-.895 1.186-1.389 2.576-1.389 4.063v15.359c0 1.486.494 2.777 1.389 3.967.891 1.19 2.082 2.179 3.666 2.874 1.49.693 3.172 1.089 5.057 1.089h5.453c1.881 0 3.563-.396 5.053-1.089 1.584-.694 2.773-1.684 3.666-2.874.893-1.191 1.387-2.577 1.387-3.967v-15.36c-.096-1.487-.494-2.877-1.387-4.063-.893-1.194-2.082-2.08-3.666-2.873zm-2.379 4.656c.891.694 1.387 1.484 1.387 2.382v15.059c0 .892-.496 1.686-1.387 2.379-.793.597-1.787.994-2.873.994h-5.055c-1.094 0-2.084-.396-2.977-.994-.789-.694-1.285-1.487-1.285-2.379v-15.059c0-.897.496-1.688 1.285-2.382.893-.596 1.883-.893 2.977-.992h5.055c1.087.101 2.08.397 2.873.992"/><path d="m169.301 16.21h-6.163v20.003l-10.504-20.003h-8.385v31.317h6.163v-24.444l12.828 24.444h6.061z"/><path d="m269.711 16.21h-6.163v20.003l-10.505-20.003h-8.385v31.317h6.163v-24.444l12.828 24.444h6.062z"/><path d="m428.299 16.21h-6.162v20.003l-10.504-20.003h-8.387v31.317h6.163v-24.444l12.828 24.444h6.062z"/><path d="m210.526 47.527v-31.317h-7.07v31.317z"/><path d="m296.922 16.21v4.949h10.401v26.369h6.671v-26.37h10.504v-4.949h-27.578"/></g><g fill="#fff"><path d="m543.92 69.03v-8.463h-42.717v40.229h43.113v-9.062h-31.855v-7.57h18.316v-8.457h-18.316v-6.677z"/><path d="m496.374 68.755c.096-2.785-.697-4.977-2.393-6.274-1.596-1.394-4.08-2.09-7.467-2.09h-35.148v40.325h32.658c8.563-.099 12.744-2.887 12.744-8.562v-4.883c0-3.382-1.492-5.87-4.582-7.262 2.789-1.298 4.188-3.487 4.188-6.576zm-10.854.2c.398.399.602.8.496 1.396v3.685c.104.495-.098.995-.496 1.293l-2.795.495h-20.107v-7.266h20.107c1.502 0 2.496.199 2.795.397zm-22.902 22.9v-7.867h20.211c1.496 0 2.393.201 2.889.5.402.401.596.998.596 1.993v2.886c0 .897-.191 1.594-.596 1.891-.496.4-1.393.597-2.889.597z"/><path d="m446.614 60.458h-11.25v31.167h-24.396v-31.167h-11.248v30.271c-.106 2.486.295 4.484.99 5.975.6 1.395 1.797 2.49 3.389 3.089 1.597.695 3.684.993 6.47.896h25.093c2.789.097 4.977-.201 6.57-.896 1.59-.599 2.689-1.694 3.389-3.089.695-1.491.996-3.487.996-5.975v-30.271"/><path d="m394.09 64.607c-.705-1.489-1.896-2.488-3.388-3.186-1.596-.602-3.784-.898-6.473-.898h-24.591c-2.789 0-4.881.298-6.478.898-1.591.697-2.786 1.696-3.382 3.186-.697 1.494-1.096 3.484-.993 5.974v20.214c-.103 2.484.296 4.48.993 5.971.596 1.396 1.791 2.491 3.382 3.093 1.597.693 3.688.991 6.478.893h24.592c2.688.098 4.877-.199 6.473-.893 1.492-.602 2.684-1.697 3.387-3.093.597-1.489.996-3.485.996-5.971v-7.371l-11.256.105v8.162h-23.893v-22.301h23.893v7.165h11.256v-5.974c0-2.585-.399-4.574-.996-5.974"/><path d="m340.461 69.03v-8.463h-42.718v40.229h43.116v-9.062h-31.861v-7.57h18.321v-8.457h-18.321v-6.677z"/><path d="m282.411 60.458-17.127 28.48-17.025-28.48h-10.254v33.159l-20.016-33.159h-10.056l-23.994 40.228h30.068v-9.061h-13.442l12.447-20.013 16.828 29.072h18.519v-21.505l12.842 21.505h8.266l12.942-21.505v21.505h10.354v-40.227h-10.354"/><path d="m184.83 69.307v-8.77h-37.938c-2.685 0-4.879.3-6.474.899-1.59.696-2.686 1.698-3.381 3.187-.7 1.493-.998 3.483-.998 5.975v20.21c0 2.486.298 4.483.998 5.975.696 1.395 1.792 2.49 3.381 3.091 1.594.692 3.789.991 6.474.895h27.584c3.978.097 6.768-.599 8.458-2.091 1.595-1.595 2.391-4.183 2.294-7.868v-14.24h-26.088v8.47h15.135v6.667h-26.985v-22.4z"/></g><g fill="#fff"><path d="m566.93 91.979h-1.693l-2.041 6.45c-.334.513-.51 1.024-.51 1.362-.172-.338-.346-.682-.512-1.188l-2.211-6.626h-1.699v9.17h1.027v-7.813l2.717 7.813h1.012l2.721-7.642v7.642h1.189z"/><path d="m554.016 93.167h2.893v-1.188h-7.139v1.188h3.063v7.982h1.186v-7.982"/></g></g></svg>