<?xml version="1.0" encoding="utf-8"?>
<!-- Generator: Adobe Illustrator 16.0.0, SVG Export Plug-In . SVG Version: 6.00 Build 0)  -->
<!DOCTYPE svg PUBLIC "-//W3C//DTD SVG 1.1//EN" "http://www.w3.org/Graphics/SVG/1.1/DTD/svg11.dtd">
<svg version="1.1"
	 id="svg2" xmlns:dc="http://purl.org/dc/elements/1.1/" xmlns:cc="http://creativecommons.org/ns#" xmlns:rdf="http://www.w3.org/1999/02/22-rdf-syntax-ns#" xmlns:svg="http://www.w3.org/2000/svg" xmlns:sodipodi="http://sodipodi.sourceforge.net/DTD/sodipodi-0.dtd" xmlns:inkscape="http://www.inkscape.org/namespaces/inkscape" inkscape:version="0.48.2 r9819" sodipodi:docname="GP32_logo.svg"
	 xmlns="http://www.w3.org/2000/svg" xmlns:xlink="http://www.w3.org/1999/xlink" x="0px" y="0px" width="381.402px"
	 height="95.656px" viewBox="0 0 381.402 95.656" enable-background="new 0 0 381.402 95.656" xml:space="preserve">
<sodipodi:namedview  inkscape:window-maximized="1" inkscape:window-y="24" inkscape:window-x="0" inkscape:window-height="1000" inkscape:window-width="1280" inkscape:showpageshadow="false" fit-margin-left="0" fit-margin-top="0" showgrid="false" inkscape:cy="30.239859" inkscape:cx="161.86886" inkscape:zoom="1.4142136" borderopacity="1.0" bordercolor="#666666" pagecolor="#ffffff" id="base" fit-margin-bottom="0" inkscape:current-layer="layer1" inkscape:document-units="px" inkscape:pageopacity="0" fit-margin-right="0" inkscape:pageshadow="2">
	</sodipodi:namedview>
<g id="layer1" transform="translate(-188.5625,-442.53111)" inkscape:groupmode="layer" inkscape:label="Capa 1">
	<g id="g3130">
		
			<linearGradient id="path3009-4_1_" gradientUnits="userSpaceOnUse" x1="511.772" y1="-120.8815" x2="455.7005" y2="-121.5958" gradientTransform="matrix(1 0 0 -1 -244.5625 393.1873)">
			<stop  offset="0" style="stop-color:#1A00CA"/>
			<stop  offset="1" style="stop-color:#FFFFFF"/>
		</linearGradient>
		<path id="path3009-4" inkscape:connector-curvature="0" sodipodi:nodetypes="cccsc" fill="url(#path3009-4_1_)" d="
			M278.281,514.719l-41.285-24l-42.246,23c8.256,14.591,23.962,24.469,42.031,24.469
			C254.438,538.187,269.881,528.762,278.281,514.719z"/>
		
			<linearGradient id="path3009-4-7_1_" gradientUnits="userSpaceOnUse" x1="485.0806" y1="-58.7042" x2="519.1877" y2="-111.3828" gradientTransform="matrix(1 0 0 -1 -244.5625 393.1873)">
			<stop  offset="0" style="stop-color:#DC0000"/>
			<stop  offset="1" style="stop-color:#FFFFFF"/>
		</linearGradient>
		<path id="path3009-4-7" inkscape:connector-curvature="0" sodipodi:nodetypes="cccsc" fill="url(#path3009-4-7_1_)" d="
			M237,442.531v48.191l41.281,23.996c4.269-7.136,6.719-15.444,6.719-24.344C285,464.035,263.528,442.648,237,442.531z"/>
		
			<linearGradient id="path3009-4-70_1_" gradientUnits="userSpaceOnUse" x1="442.1694" y1="-108.6329" x2="481.4542" y2="-58.277" gradientTransform="matrix(1 0 0 -1 -244.5625 393.1873)">
			<stop  offset="0" style="stop-color:#23AB00"/>
			<stop  offset="1" style="stop-color:#FFFFFF"/>
		</linearGradient>
		<path id="path3009-4-70" inkscape:connector-curvature="0" sodipodi:nodetypes="sscccs" fill="url(#path3009-4-70_1_)" d="
			M236.781,442.531c-26.628,0-48.219,21.432-48.219,47.844c0,8.489,2.277,16.433,6.188,23.344l42.246-23L237,442.531
			C236.927,442.531,236.854,442.531,236.781,442.531L236.781,442.531z"/>
		<path id="path2996" inkscape:connector-curvature="0" sodipodi:nodetypes="ccccccccccc" fill="#FFFFFF" d="M366.875,508.97h17.143
			l10.179-29.197h25.893c1.629,2.498,0.99,4.883-2.143,7.143h-17.768l-2.5,8.393h27.678c13.42-7.098,16.463-20.75,7.768-24.553
			h-52.678L366.875,508.97z"/>
		<path id="path2998" inkscape:connector-curvature="0" sodipodi:nodetypes="cccccccccccccc" fill="#FFFFFF" d="M307.411,509.058
			h44.732c8.276-3.095,11.383-12.299,14.553-21.428H342.5c-1.175,1.646-2.157,3.383-2.143,5.268h9.286l-2.857,7.053h-28.125
			c-0.863-1.25,5.607-18.731,7.054-20.089h43.303l3.75-8.929h-52.411c-7.716,2.822-10.855,10.002-13.661,17.5
			C305.476,495.813,297.478,505.539,307.411,509.058L307.411,509.058z"/>
		<path id="path3000" inkscape:connector-curvature="0" sodipodi:nodetypes="cccccccccccccc" fill="#FFFFFF" d="M434.107,509.058
			h50.982c8.338-3.656,14.564-8.961,13.215-20.178c5.934-7.069,8.596-13.567-0.357-18.036h-50.625l-3.304,9.107h42.679
			c0.109,1.817,0.738,3.687-1.414,5.278H447.5l-3.393,7.758h37.947c-0.054,2.923-0.354,5.633-2.055,7.144h-42.32L434.107,509.058z"
			/>
		<path id="path3002" inkscape:connector-curvature="0" sodipodi:nodetypes="ccccccccccccc" fill="#FFFFFF" d="M500.179,508.97
			h59.643l2.41-8.394h-42.59c-1.146-2.072,0.918-5.022,2.232-7.768h36.16c9.65-3.37,17.252-15.876,7.145-22.053h-49.645
			c-3.242,1.184-3.666,5.422-4.463,9.286h40.982c2.121,1.07,0.699,3.704-0.537,4.821h-36.25
			C504.363,490.221,503.144,500.269,500.179,508.97L500.179,508.97z"/>
		
			<path id="path3009" sodipodi:type="arc" sodipodi:cx="236.96428" sodipodi:cy="491.46933" sodipodi:rx="38.214287" sodipodi:ry="38.92857" d="
			M276.071,490.22c0,21.696-17.668,39.285-39.464,39.285c-21.795,0-39.464-17.589-39.464-39.285
			c0-21.697,17.668-39.286,39.464-39.286C258.403,450.933,276.071,468.522,276.071,490.22L276.071,490.22z"/>
		
			<radialGradient id="path3797_1_" cx="414.1997" cy="45.2001" r="36.2284" gradientTransform="matrix(1.8578 -0.0092 -0.0079 -1.5965 -545.5681 553.6742)" gradientUnits="userSpaceOnUse">
			<stop  offset="0" style="stop-color:#FFFFFF"/>
			<stop  offset="0.1508" style="stop-color:#FFFFFF"/>
			<stop  offset="0.5373" style="stop-color:#6E60D1"/>
			<stop  offset="0.7932" style="stop-color:#2A2070"/>
			<stop  offset="1" style="stop-color:#FFFFFF"/>
		</radialGradient>
		<path id="path3797" inkscape:connector-curvature="0" fill="url(#path3797_1_)" stroke="#000000" stroke-width="1.0177" d="
			M236.781,455.031c-19.725,0-35.719,15.759-35.719,35.188s15.994,35.188,35.719,35.188c19.448,0,35.279-15.322,35.719-34.375
			c-6.013-0.016-12.376-0.062-18.688-0.062h-12.875v8.969h12.156c-3.398,5.561-9.562,9.312-16.625,9.312
			c-10.725,0-19.406-8.579-19.406-19.156s8.681-19.156,19.406-19.156c7.907,0,14.715,4.655,17.75,11.344h17.344
			C267.905,466.681,253.73,455.031,236.781,455.031z"/>
		
			<radialGradient id="path4004_1_" cx="513.021" cy="-226.4459" r="9.2175" gradientTransform="matrix(0.726 0 0 -0.7123 -147.0768 315.7767)" gradientUnits="userSpaceOnUse">
			<stop  offset="0" style="stop-color:#FFFFFF"/>
			<stop  offset="0.7328" style="stop-color:#FFFFFF"/>
			<stop  offset="1" style="stop-color:#FFFFFF;stop-opacity:0"/>
		</radialGradient>
		
			<path id="path4004" sodipodi:type="arc" sodipodi:cx="225.13776" sodipodi:cy="479.22687" sodipodi:rx="9.2176418" sodipodi:ry="8.7125654" fill="url(#path4004_1_)" d="
			M232.083,477.08c0,3.626-2.996,6.566-6.692,6.566c-3.696,0-6.692-2.94-6.692-6.566l0,0c0-3.626,2.996-6.566,6.692-6.566
			C229.086,470.515,232.083,473.454,232.083,477.08z"/>
	</g>
</g>
</svg>
