<svg height="158.338" viewBox="0 0 458.9205 110.8366" width="655.60071" xmlns="http://www.w3.org/2000/svg" xmlns:xlink="http://www.w3.org/1999/xlink"><filter id="a" color-interpolation-filters="sRGB" height="1.127966" width="1.030232" x="-.012115" y="-.057913"><feOffset dx="3" dy="3"/><feGaussianBlur result="blur" stdDeviation="3"/><feFlood result="flood"/><feComposite in="flood" in2="SourceGraphic" operator="in" result="composite"/><feBlend in="blur" in2="composite" mode="normal"/></filter><linearGradient id="b" gradientUnits="userSpaceOnUse" x1="4.195579" x2="653.465561" y1="195.629742" y2="-229.841793"><stop offset="0" stop-color="#3cb200"/><stop offset=".13002832" stop-color="#3cb200"/><stop offset=".21639141" stop-color="#dbec4d" stop-opacity="0"/><stop offset=".29247087" stop-color="#87cd24" stop-opacity="0"/><stop offset=".37815478" stop-color="#3cb300"/><stop offset=".47616729" stop-color="#3aaf00"/><stop offset=".54729474" stop-color="#3cb300"/><stop offset=".66125804" stop-color="#b6e100" stop-opacity="0"/><stop offset="1" stop-color="#ff0" stop-opacity="0"/></linearGradient><path d="m399.34274 61.475983q0 .0658-.07.1764-.0448.07-.147.2016-.1022.1302-.1274.1708.004.0014.105.0336.1022.0308.1022.112-.042.007-.0826.0126l-.0154-.0014v-.0112q-.0224-.0056-.0364-.0056-.0266 0-.084.0084-.0574.0084-.0868.0084-.0378 0-.0616-.014-.0238-.014-.0238-.0504 0-.0294.1078-.1666.2016-.2562.203-.259.1092-.1484.1092-.1988 0-.0196-.014-.0294-.0126-.0098-.0518-.0098-.0266 0-.1106.0518-.0406.0252-.0658.0252l-.0238-.0042q-.008-.0056-.0182-.021-.01-.0168-.01-.0266 0-.0588.1134-.1078.0966-.042.168-.042.0602 0 .0924.0448.028.0392.028.1022zm-.644 0q0 .0658-.07.1764-.0448.07-.147.2016-.1022.1302-.1274.1708.004.0014.105.0336.1022.0308.1022.112-.042.007-.0826.0126l-.0154-.0014v-.0112q-.0224-.0056-.0364-.0056-.0266 0-.084.0084-.0574.0084-.0868.0084-.0378 0-.0616-.014-.0238-.014-.0238-.0504 0-.0294.1078-.1666.2016-.2562.203-.259.1092-.1484.1092-.1988 0-.0196-.014-.0294-.0126-.0098-.0518-.0098-.0266 0-.1106.0518-.0406.0252-.0658.0252l-.0238-.0042q-.008-.0056-.0182-.021-.01-.0168-.01-.0266 0-.0588.1134-.1078.0966-.042.168-.042.0602 0 .0924.0448.028.0392.028.1022zm-.6412.252q0 .1694-.1834.2996-.168.119-.3458.119-.0882 0-.14-.0448-.0518-.0448-.0518-.1302 0-.1904.1666-.3304.1582-.133.3542-.133.0994 0 .1498.0588.0504.0588.0504.161zm-.0854.0322q0-.0644-.0728-.0966-.0546-.0238-.1302-.0238-.1106 0-.231.1078-.1204.1078-.1204.217 0 .0448.0224.0644.0238.0182.0714.0182.1372 0 .2856-.0756.175-.0896.175-.2114zm-.756-.2842q0 .0658-.07.1764-.0448.07-.147.2016-.1022.1302-.1274.1708.004.0014.105.0336.1022.0308.1022.112-.042.007-.0826.0126l-.0154-.0014v-.0112q-.0224-.0056-.0364-.0056-.0266 0-.084.0084-.0574.0084-.0868.0084-.0378 0-.0616-.014-.0238-.014-.0238-.0504 0-.0294.1078-.1666.2016-.2562.203-.259.1092-.1484.1092-.1988 0-.0196-.014-.0294-.0126-.0098-.0518-.0098-.0266 0-.1106.0518-.0406.0252-.0658.0252l-.0238-.0042q-.008-.0056-.0182-.021-.01-.0168-.01-.0266 0-.0588.1134-.1078.0966-.042.168-.042.0602 0 .0924.0448.028.0392.028.1022zm-1.1494.4564q0 .0686-.0518.154-.0588.0966-.1218.0966-.0182 0-.0308-.0196-.0112-.021-.0112-.0406 0-.0252.0532-.0784.0546-.0546.0546-.0742 0-.0126-.004-.0252-.004-.0126-.006-.0168-.105.0238-.2142.1204-.1078.0966-.1638.1092-.0112-.0308-.0112-.063 0-.0392.0182-.0826.0126-.0308.042-.0742.049-.0742.1036-.168.028-.049.0966-.1694.07-.1204.1022-.1708.0168-.0252.0294-.0378.0182-.0168.0434-.0224.0168.0056.0238.021.008.0154.008.0364 0 .0476-.0616.1288-.112.1456-.1148.1512-.063.0952-.063.1722l.003.014q.077-.0378.091-.0434.0574-.0238.098-.0238.0448 0 .0658.0308.021.0294.021.0756zm-.5166-.4998q0 .0308-.0742.1288-.0742.098-.0742.1498 0 .0266.0308.0532.07.0616.07.0756 0 .0182-.0126.035-.0112.0168-.0294.0168-.0154 0-.0434-.0168-.0196-.0112-.0756-.0546-.021.0406-.0322.0616-.0392.0742-.0532.1078-.021.0644-.042.1288-.0364.0868-.091.0868l-.001-.0322q0-.0994.0644-.2352.0126-.0252.07-.1302-.1106-.0602-.2436-.0602 0-.0518.021-.0756.0224-.0252.0742-.0252.0476 0 .119.0168.035.0084.07.0168.0266-.0084.0728-.091.1134-.1988.154-.2282.0112.0182.0182.0364.008.0182.008.035zm-.5572.2506q0 .0588-.1568.1554-.1512.0924-.2198.0924-.0322 0-.0434-.0224-.01-.0224-.01-.063 0-.0266 0-.0378.0938 0 .1708-.028.077-.028.1344-.0924-.042-.0154-.0854-.0154-.1022 0-.217.0784-.126.0854-.126.182 0 .0924.126.1288.0196.0056.2366.0392.1274.0196.1274.0686 0 .021-.0462.0336-.0462.014-.1176.014-.1792 0-.2828-.0546-.1372-.0728-.1372-.2338 0-.168.168-.2674.1428-.084.3248-.084.0546 0 .0994.0252.0546.0308.0546.0812zm-.6874.1624q0 .0448-.0238.0952-.0224.0504-.0574.084l-.001-.0196q0-.0168.004-.0518.004-.035.004-.0518 0-.0238-.007-.035-.007-.0126-.0294-.0126-.0658 0-.1638.1022-.1064.112-.2114.2226-.008 0-.0168-.0014-.021-.0056-.028-.007.004-.0504.035-.112.0826-.1666.0854-.1778.0112-.0448.0168-.0658.006-.021.0154-.0434.0112-.0238.0252-.042.0154-.0196.0392-.0294l.014.168q.0602-.049.0924-.0756.0616-.049.1064-.049.0448 0 .0728.0294.028.0294.028.0728zm-.5894.0294q0 .1428-.0826.224-.0826.0812-.2282.0812-.0798 0-.1232-.0378-.0434-.0378-.0434-.1162 0-.1106.1442-.2226.1372-.1064.2534-.1064.0532 0 .07.0658.01.0378.01.112zm-.0854.0392q0-.0168-.004-.0322-.003-.0168-.0112-.0378-.0224.0154-.0742.0756-.0266.0308-.0462.0448 0-.0266.006-.0434.0112-.0238.0182-.0406-.0616 0-.1288.0518-.0658.0518-.0658.112 0 .0406.0448.0406.0854 0 .1652-.042.0966-.0504.0966-.1288zm-.4354.2072q0 .0252-.0224.0392-.021.0126-.0476.0126-.0238 0-.0602-.0056-.0826-.0126-.1064-.0126-.042 0-.1652.0098-.07.0056-.1008.0056-.0854 0-.0854-.0854 0-.0812.0532-.2324.0294-.0854.1106-.28.0728-.175.0924-.2464.007-.0224.0112-.0294.0112-.0168.028-.0168.0266 0 .0448.0392.0182.0378.0182.0686 0 .049-.0574.1652-.0574.1148-.112.2254-.0602.1316-.0602.2002 0 .035.0294.049.021.0098.0616.0098.0308 0 .1064-.007.0756-.0084.1008-.0084.063 0 .1036.0182.0574.0252.0574.0812zm-1.2166-.2716q0 .0952-.0462.203-.0504.119-.1246.1638-.0154-.0182-.0266-.0406-.01-.0224-.01-.0448 0-.0238.07-.1414.0308-.0518.028-.091l-.001-.0182q-.0518.0154-.1792.0938-.126.077-.2548.1568-.0196 0-.0364-.014-.0154-.0154-.0154-.0336 0-.0294.0938-.1974.028-.0504.1008-.175.0224.0294.0294.0658.007.035.007.084 0 .021 0 .0322.1288-.077.2016-.1162.0798-.0434.1092-.0434.0196 0 .0364.0448.0182.0448.0182.0714zm-.6496.0826q0 .0686-.0518.154-.0588.0966-.1218.0966-.0182 0-.0308-.0196-.0112-.021-.0112-.0406 0-.0252.0532-.0784.0546-.0546.0546-.0742 0-.0126-.004-.0252-.004-.0126-.006-.0168-.105.0238-.2142.1204-.1078.0966-.1638.1092-.0112-.0308-.0112-.063 0-.0392.0182-.0826.0126-.0308.042-.0742.049-.0742.1036-.168.028-.049.0966-.1694.07-.1204.1022-.1708.0168-.0252.0294-.0378.0182-.0168.0434-.0224.0168.0056.0238.021.008.0154.008.0364 0 .0476-.0616.1288-.112.1456-.1148.1512-.063.0952-.063.1722l.003.014q.077-.0378.091-.0434.0574-.0238.098-.0238.0448 0 .0658.0308.021.0294.021.0756zm-.5768-.0574q0 .1428-.0826.224-.0826.0812-.2282.0812-.0798 0-.1232-.0378-.0434-.0378-.0434-.1162 0-.1106.1442-.2226.1372-.1064.2534-.1064.0532 0 .07.0658.01.0378.01.112zm-.0854.0392q0-.0168-.004-.0322-.003-.0168-.0112-.0378-.0224.0154-.0742.0756-.0266.0308-.0462.0448 0-.0266.006-.0434.0112-.0238.0182-.0406-.0616 0-.1288.0518-.0658.0518-.0658.112 0 .0406.0448.0406.0854 0 .1652-.042.0966-.0504.0966-.1288zm-.4536-.182q0 .168-.0406.2828-.0602.1708-.1932.1708-.0882 0-.1848-.0406-.1162-.049-.1274-.1204.0392 0 .0924.014.1232.0322.154.0322.119 0 .1792-.119.0476-.0952.0476-.2282 0-.0938-.0616-.2674-.0602-.175-.0602-.2436 0-.021.0112-.0336.0126-.014.0336-.014.0546 0 .1064.252.0434.2128.0434.315z" fill="#fff" fill-opacity=".5" stroke-width="1.75"/><g fill="#000005" transform="translate(-8.303838 .953792)"><path d="m39.215069 92.642204h1.047235.233956v2.700021h2.974591v-2.700021h1.54857v7.100838h-1.54857v-3.018917h-2.974591v3.018917h-1.537429v-4.911057-2.189781z"/><path d="m53.865212 95.671755q.01114.11693.01114.244491.01114.116929.01114.233859 0 2.487417-2.139033 3.454748-.824419.287015-1.537429.287015-1.281191 0-2.295002-.903556-1.169783-1.243709-1.169783-2.763797 0-.66969.233956-1.39253.813277-2.2323 3.108281-2.39175 3.308814.02125 3.776728 3.23152zm-5.436706.775991q.06684 1.350005 1.147501 1.90277h.0557q.04456.02129.07799.03194.04456.01065.08913.02129l.04456.0213.233956.05314q2.049906-.01065 2.139032-2.009073.01114-.09567.01114-.180709 0-.09567 0-.18071 0-2.17915-2.094468-2.26419-1.715682.3189-1.715682 2.274819 0 .08504 0 .170081 0 .07441.01114.15945z"/><path d="m55.747998 92.620945h1.882793l.07799.11693.03343.05315.04456.05315.07799.116929q.08913.08504.133688.170081.0557.07441.07799.12756.04456.04252.0557.09567l.14483.13819.03343.07441.06684.09567.03343.04252.01114.05315q.122548.08504.167112.18071l.03342.07441.07799.08504.06684.09567.01114.04252q.133689.12756.155971.19134l.02229.04252q.03343.04252.0557.08504.02229.03189.04456.05315l.03342.04252.07799.12756.04456.02126.02229.05315q.0557.08504.100266.14882.04456.05315.06684.09567l.0557-.02126.02229-.06378.311942-.40394.0557-.08504.200534-.28701q.111407-.1063.14483-.22323l.06684-.07441.0557-.05315.06684-.1063.0557-.03189.04456-.08504q.0557-.1063.122549-.17008l.04456-.09567q.04456-.05315.07799-.08504.03343-.03189.0557-.05315l.02228-.05315.04456-.06377.03343-.03189.02229-.06378q.02228-.02126.04456-.04252.02229-.03189.04456-.06378l.04456-.05315.178254-.26575h1.98306v7.100844h-1.459443q-.08913-.02129-.08913-.07443 0-.04249.01114-.05314v-4.730353q0-.06378-.01114-.1063 0-.05315-.01114-.1063l-.100266.1063q-.02228.06378-.07799.11693-.0557.08504-.100265.15945-.04456.06378-.08913.11693l-.07799.11693-.389928.5315-.178252.26575-.0557.07441q-.04456.06378-.08913.11693-.04456.04252-.08913.08504l-.03343.07441q-.0557.08504-.122548.17008-.0557.07441-.122549.13819l-.03343.08504-.0557.05315-.02229.05315q-.04456.07441-.08913.12756-.04456.04252-.08913.07441-.02229.07441-.0557.12756-.03343.04252-.0557.08504-.08913.11693-.167112.2126-.07799.09567-.14483.159443-.04456-.07439-.08913-.116923-.03343-.05315-.0557-.07441l-.01114-.06378-.0557-.05315-.03343-.04252-.02229-.06378-.06684-.07441-.07799-.11693-.03343-.03189q-.08913-.09567-.13369-.15945l-.0557-.11693-.08913-.11693q-.02229-.02126-.02229-.03189l.01114-.01063q-.04456-.04252-.08913-.08504-.03342-.04252-.07799-.09567-.0557-.08504-.111407-.15945-.04456-.07441-.07799-.12756l-.07799-.09567-.0557-.07441-.04456-.07441q-.100265-.07441-.14483-.20197l-.0557-.06378-.100265-.17008-.06684-.05315q-.04456-.05315-.07799-.09567-.03343-.05315-.0557-.08504l-.02228-.05315-.0557-.06378-.01114-.05315q-.03342-.03189-.04456-.06378-.04456-.01063-.04456-.02126-.02228-.02126-.02228-.03189l.01114-.01063-.267379-.3189v5.091768h-.02229.02229-.04456.02229-.04456.02228-.04456.02228-.03343.01114-.03342.02229-.04456.02228-.04456.02229-.04456.02228-.03343.01114-.03343.02229-.04456.02228-.04456.02229-.04456.02229-.03342.01114-.03343.02228-.04456.02229-.04456.02228-.03343.01114-.03343.02229-.03343.01114-.03343.02228-.04456.02229-.04456.02228-.03343.01114-.03343.02228-.04456.02228-.04456.02228-.03343.01114-.03343.02228-.04456.02228-.04456.02229-.04456.02229-.03342.01114-.03343.02228-.04456.02229-.04456.02229-.04456.02228-.03343.01114-.03342.02229-.04456.02228-.04456.02229-.03343.01114-.02229.01114-.03342.02228-.04456.02229-.04456.02228-.04456.02229-.03343.01114-.03343.02228-.04456.02228-.04456.02229-.04456.02229-.03343.01114-.03343.02229-.04456.02229-.04456.02228-.03343.01114-.03342.02229-.04456.02229-.04456.02228-.04456.02229-.03343.01114-.02228.01114-.03342.02229-.04456.02229-.04456.02228-.03343.01114-.03343.02229-.04456.02228-.04456.02229-.04456.02229-.03343.01114-.03343.02229-.04456.02229-.04456.02229-.04456.02228-.02228v-7.100824z"/><path d="m65.551902 92.620945h4.823962v1.41379h-3.353378v1.42442h3.041435v1.32875h-3.041435v1.47757q.03342.06379.111407.06379h3.542772v1.413791h-5.180467v-5.314997-1.8071z"/><path d="m72.971675 92.620945h3.308814l.06685.02125h.0557l.155971.02126.311942.07441q.835559.350789 1.192065 1.04174.200534.44646.200534.829139 0 .754731-.768714 1.264971.824418.37205 1.013811 1.12678.02228.14882.03343.29764.01114.13819.01114.27638 0 1.424421-1.392599 1.998431h-.0557q-.233957.106306-.434491.116934l-.13369.03194-.0557.02129h-3.776738v-5.314993-1.8071zm1.247768 2.85947h1.793668l.111408-.02126q.534757-.25512.534757-.71221 0-.05315-.01114-.09567 0-.05315-.01114-.1063-.122549-.27638-.334224-.43583-.0557-.01063-.100265-.03189-.03343-.02126-.07799-.04252l-.06685-.02126h-.122548q-.04456-.01063-.08913-.01063-.03342 0-.06684 0h-1.559711zm0 2.870101h1.637696q.345364 0 .42335-.04249.601603-.297643.601603-.850401 0-.04252-.01114-.07441 0-.03189 0-.07441-.14483-.45709-.545898-.659061-.0557-.01063-.12255-.02126-.06684-.01063-.122548-.03189h-1.860512z"/><path d="m80.536271 92.610315h3.331097q.0557.01063.08913.02126.04456 0 .07799 0 .02228 0 .02228 0 .01114-.01063.03343-.01063l.245096.04252.03343.01063h.0557l.03343.02126.3008.09567q.891264.44646 1.192065 1.24371.13369.44646.13369.83977 0 1.31812-1.481725 1.96655l.04456.02125q.04456.08504.07799.17008.04456.07441.08913.12756l.0557.1063q.04456.06379.0557.1063l.08913.116931q.0557.08504.08913.15945.04456.06378.08913.138184.111408.138188.14483.26575.0557.07443.100265.138189.0557.06379.07799.116933.06684.116934.100266.191337l.03343.05314.03342.06379.06684.06378.13369.244495q.06684.09563.100265.159444l.06684.09573.02229.04249.02228.05314q.08913.127562.144831.244485.06684.106306.111408.201975h-1.77139l-.02229-.03194-.03343-.04249-.02229-.04249-.13369-.22323-.01114-.04249q-.100266-.08508-.122548-.212602-.12255-.116923-.155972-.244485-.0557-.07443-.100265-.138189-.03343-.06378-.0557-.127561l-.0557-.06378-.06685-.116924-.03342-.07443q-.0557-.07443-.111408-.127561-.04456-.05314-.06684-.106296-.04456-.08508-.07799-.138189-.03342-.06378-.0557-.106306l-.02229-.06379q-.111434-.106305-.155997-.233866l-.04456-.05315-.01114-.06378-.04456-.02126-.04456-.11693q-.03343-.01063-.03343-.03189l.01114-.01063q-.15595-.180725-.222796-.329545h-.980389v2.763802h-1.526289v-7.111472zm1.370317 3.00829h1.882794l.222816-.06378q.523616-.28701.523616-.786621 0-.03189-.01114-.06378 0-.03189 0-.07441-.14483-.4252-.512476-.61654h-.04456l-.04456-.01063-.256239-.06379h-1.760245z"/><path d="m88.234566 92.620945h4.823962v1.41379h-3.353379v1.42442h3.041436v1.32875h-3.041436v1.47757q.03343.06379.111408.06379h3.542772v1.413791h-5.180467v-5.314997-1.8071z"/><path d="m94.82992 92.642204h1.192065q.08913 0 .167111.01063.07799 0 .14483.01063v.05315l.07799.30827.02229.11693q0 .02126 0 .03189.01114.01063.01114.02127 0 .01063.01114.01063l.02229.05315.03343.127559.0557.297641.02229.04252v.05315q.07799.13819.07799.3189l.03342.09567v.06378q.04456.08504.0557.170081.02229.07441.03343.148819l.03342.08504.02228.09567.02228.11693q.04456.11693.0557.23386.02228.1063.03342.19134.02229.06378.04456.12756.02229.06379.03343.12756.02228.05315.02228.1063.01114.05315.02229.1063.02229.08504.04456.15945.02229.07441.03342.15945.04456.11693.0557.2126.02228.08504.04456.17008.0557.15945.06684.297641l.02228.09567.0557.180711.02229.12756.07799.26575.02229-.08504.02229-.06378v-.05315l.01114-.06378q.02229-.09567.04456-.170081.02228-.08504.04456-.15945v-.07441l.01114-.05315.06684-.244491v-.05315l.01114-.07441.01114-.06378.02229-.05315v-.04252l.04456-.138191v-.05315q.01114-.1063.03342-.19134.04456-.07441.04456-.15945.02229-.11693.04456-.20197.02228-.09567.03343-.17008l.02229-.09567.02228-.06377.111408-.5315.01114-.09567.02229-.05315q.02228-.07441.03343-.12756.01114-.05315.02229-.1063v-.06378l.04456-.148819.07799-.37205.02229-.04252.03343-.2126.02229-.05315v-.06378l.06684-.191339q.01114-.08504.02229-.15945.01114-.07441.03342-.127561l.01114-.11693h1.793666l.0223.12756.0334.13819v.07441q.078.24449.10027.41457l.0669.26575.0557.22323.0111.09567.0223.12756.0111.1063.0223.116929.0446.09567.0223.116929.0111.08504v.05315q.0668.148821.0668.26575 0 .02126 0 .03189.0111 0 .0111.01063 0 .01063.0111.01063l.0111.03189v.06378l.0446.148819.0334.2126.0446.116931.0223.11693v.05315l.0334.14882.0111.1063q.0668.15945.0668.27638l.0111.08504q.0668.148821.0668.233861l.0223.05315.0111.15945.0446.14882.0223.1063q.078.13819.078.37205l.0557-.1063v-.07441l.0334-.15945.0446-.1063q.0111-.08504.0223-.14882.0111-.06378.0334-.11693l.0446-.14882.0111-.1063.0223-.03189.0223-.13819.078-.25512.0223-.12756.0334-.13819.0223-.12756.0446-.12756.0111-.07441.0334-.14882.12255-.46772.0223-.1063.0334-.14882.0446-.127561.0223-.116929.0334-.11693.0223-.06377v-.07441l.0223-.07441.0334-.09567.0334-.22323.0446-.14882.0334-.13819v-.04252l.0223-.05315.0223-.06378v-.05315l.0334-.13819.0223-.04252v-.06378q.078-.138191.078-.297641h1.58199v.05315l-.0223.116931-.0557.148819-.0223.12756-.0669.26575-.0112.04252q-.0223.116929-.0445.201969-.0223.08504-.0445.15945-.0112.05315-.0223.1063-.0112.04252-.0223.07441l-.12255.488981-.0223.05315v.06378l-.0112.1063-.0445.14882q-.0223.06378-.0334.11693-.0112.05315-.0223.09567l-.0223.04252-.0223.138189q-.0223.07441-.0335.138191 0 .06378-.0112.11693-.0557.116929-.0668.19134l-.0112.07441-.0223.05315q-.0112.05315-.0223.1063-.0112.04252-.0223.07441l-.0223.11693-.0112.07441-.0223.04252-.0223.11693-.078.26575-.0669.3189-.0223.13819-.0445.13819-.0223.1063-.0112.08504-.0445.08504-.0445.22323-.0557.233867-.0223.06378q-.0335.212602-.10022.350791v.07443q-.0445.07443-.0445.233857l-.0223.06379-.0223.05314-.0334.148816-.0223.127562-.078.26575-.0223.127561-.078.340153h-1.49284q-.0334 0-.078 0-.0334.01065-.0668.01065-.17825 0-.31194-.03194v-.05314l-.0111-.04249v-.05314l-.0223-.05314-.0446-.22323-.10026-.425194-.0111-.138189q-.0446-.127561-.0669-.233867-.0111-.106296-.0223-.191337l-.0891-.297643-.0111-.127561-.0223-.127561-.0446-.116929v-.07441l-.05571-.2126v-.06377q-.08913-.255121-.100266-.425201l-.04456-.116929v-.09567q-.01114-.01063-.01114-.05315l-.02229-.03189-.07799-.40394-.01114-.07441-.06684-.308271-.03343-.13819-.02229-.08504v-.07441l-.02229-.07441-.03342-.127559v-.05315l-.04456-.14882-.04456-.127561-.01114.05315-.02229.1063-.02228.08504-.01114.1063-.07799.350791-.04456.127559v.05315l-.07799.308271-.02229.13819-.03342.15945-.04456.138189-.01114.148821-.04456.15945-.04456.2126q-.0557.2126-.06684.35079l-.03343.116929-.02228.09567v.05316q-.04456.07443-.04456.180709-.03342.09563-.03342.180709l-.04456.08508-.04456.26575-.01114.09563-.02229.06379-.07799.340163-.0557.255122-.02228.116924-.03342.138189-.06684.30827h-1.504007q-.03343 0-.06684 0-.03342.01065-.06685.01065-.167112 0-.300802-.03194l-.02228-.148826q-.08913-.244485-.100266-.425194-.02229-.03194-.03343-.138189l-.04456-.138189-.03343-.159454-.04456-.127561-.02228-.148817-.02229-.07443q-.02228-.06379-.03343-.106296 0-.05314-.01114-.08508-.01114-.01065-.01114-.06379l-.02228-.07443-.08913-.318899v-.07441q-.07799-.13819-.07799-.329529-.02229-.08504-.04456-.15945-.02228-.07441-.03343-.148821l-.04456-.09567-.01114-.15945q-.02228-.02126-.02228-.05315l-.08913-.37205-.04456-.13819v-.06378q-.02229-.116929-.04456-.17008-.01114-.06378-.01114-.07441-.01114-.02126-.02229-.05315-.01114-.03189-.02229-.07441l-.03343-.12756-.02229-.13819q-.0557-.12756-.06684-.23386-.02229-.11693-.04456-.19134-.01114-.07441-.02229-.11693-.01114-.02126-.01114-.05315 0-.03189-.01114-.05315l-.04458-.09567-.01114-.08504-.02228-.1063-.02228-.09567q-.01114-.01063-.01114-.09567l-.04456-.07441-.0557-.29764q-.0557-.12756-.06684-.23386-.03342-.1063-.03342-.19134-.08913-.22323-.100266-.39331-.0557-.11693-.06685-.20197v-.11693q-.04456-.1063-.06684-.201971z"/><path d="m132.54709 92.610285h5.95423v1.403165h-2.2109v5.708332h-1.62601v-5.708332h-2.19921v-1.403165z"/><path d="m140.23261 92.642174h1.33356v7.100866h-1.60262v-4.911077-2.189789z"/><path d="m144.1982 92.610285h3.38069l.0468.01063h.0585l.14038.02126.0585.02126.29245.05315q1.6494.733472 1.6494 2.179159 0 .23386-.0351.467725-.61999 1.881515-2.59694 1.881515-.24565 0-.5264-.03193h-1.02942v2.487429h-1.61431v-7.090242zm1.43884 3.263426h1.71959q.22226-.04251.22226-.05319.64339-.350792.64339-.892924 0-.07441-.0234-.15945-.0117-.09567-.0351-.212601-.18717-.393311-.59659-.552762h-.0702q-.26904-.06378-.49131-.06378h-1.36868z"/><path d="m151.71994 92.620915h1.33357v5.687071h3.45088v1.413796h-5.0652v-7.100867z"/><path d="m158.02512 92.620915h5.06519v1.413795h-3.52106v1.424426h3.19353v1.328756h-3.19353v1.477579q.035.06377.11697.06377h3.71994v1.413796h-5.43953v-5.315018-1.807107z"/><path d="m118.80411 92.663432h1.40104v4.475251l.1204.403942q.49256.818513 1.36821.882294.93038-.07441 1.37916-.797254v-.06378q.0547-.138191.0876-.276381.0438-.138191.0547-.287012.011-.07441.011-.13819.0109-.07441.0109-.138191v-4.060679h1.49955v4.570921q-.011.05315-.0219.08504 0 .03189 0 .05315l-.0219.04252q-.0219.116931-.0437.223231-.011.09567-.0329.180711-.43783 1.169312-1.43388 1.700809-.75525.382681-1.47766.382681-.48161 0-.94133-.159451-2.11251-.775994-2.11251-3.114605 0-.287011.0329-.605913v-3.380355z" stroke-width=".999997"/><path d="m127.22132 92.620911h1.2478v5.687077h3.22897v1.413797h-4.73947v-7.100874z" stroke-width=".999997"/><path d="m109.98126 92.620947h1.69216l.0701.116929.0301.05315.0401.05315.0701.11693q.0801.08505.12015.170081.0501.07441.0701.12756.0401.04252.0501.09567l.13017.138189.03.07441.0601.09567.0301.04252.01.05315q.11015.08504.15019.180711l.03.07441.0701.08504.0601.09567.01.04252q.12015.12756.14017.191341l.02.04252q.0301.04252.0501.08503.02.03189.0401.05315l.0301.04252.0701.12756.0401.02126.02.05315q.0501.08504.0901.14882.0401.05315.0601.09567l.0501-.02126.02-.06378.28036-.40394.0501-.08504.18023-.28701q.10013-.1063.13016-.22323l.0601-.07441.0501-.05315.0601-.1063.0501-.03189.0401-.08504q.0501-.106299.11013-.17008l.0401-.09567q.0401-.05315.0701-.08504.03-.03189.0501-.05315l.02-.05315.0401-.06378.0301-.03189.02-.06378q.02-.02126.0401-.04252.02-.03189.0401-.06378l.0401-.05315.1602-.26575h1.78229v7.100838h-1.31168q-.0801-.02126-.0801-.07441 0-.04252.01-.05315v-4.73035q0-.06378-.01-.1063 0-.05315-.01-.106299l-.0901.106299q-.02.06378-.0701.116931-.0501.08503-.0901.15945-.0401.06378-.0801.11693l-.0701.11693-.35044.5315-.1602.26575-.0501.07441q-.0401.06378-.0801.116931-.0401.04252-.0801.08504l-.0301.07441q-.0501.08504-.11014.170081-.0501.07441-.11014.138189l-.0301.08505-.0501.05315-.02.05315q-.0401.07441-.0801.127559-.0401.04252-.0801.07441-.02.07441-.0501.12756-.03.04252-.0501.08504-.0801.116931-.15019.2126-.0701.09567-.13017.15945-.0401-.07441-.0801-.11693-.0301-.05315-.0501-.07441l-.01-.06378-.0501-.05315-.0301-.04252-.02-.06378-.0601-.07441-.0701-.11693-.0301-.03189q-.0801-.09567-.12015-.15945l-.0501-.11693-.0801-.11693q-.02-.02126-.02-.03189l.01-.01063q-.0401-.04252-.0801-.08504-.0301-.04252-.0701-.09567-.0501-.08504-.10013-.15945-.0401-.07441-.0701-.12756l-.0701-.09567-.0501-.07441-.0401-.07441q-.0901-.07441-.13016-.201971l-.0501-.06378-.0901-.17008-.0601-.05315q-.0401-.05315-.0701-.09567-.0301-.05315-.0501-.08504l-.02-.05315-.0501-.06378-.01-.05315q-.0301-.03189-.0401-.06378-.0401-.01063-.0401-.02126-.02-.02126-.02-.03189l.01-.01063-.24031-.3189v5.09177h-.02.02-.0401.02-.0401.02-.0401.02-.03.01-.03.02-.0401.02-.0401.02-.0401.02-.03.01-.03.02-.0401.02-.0401.02-.0401.02-.03.01-.03.02-.0401.02-.0401.02-.03.01-.03.02-.0301.01-.0301.02-.0401.02-.0401.02-.0301.01-.0301.02-.0401.02-.0401.02-.0301.01-.0301.02-.0401.02-.0401.02-.0401.02-.0301.01-.0301.02-.0401.02-.0401.02-.0401.02-.0301.01-.03.02-.0401.02-.0401.02-.0301.01-.02.01-.0301.02-.0401.02-.0401.02-.0401.02-.0301.01-.0301.02-.0401.02-.0401.02-.0401.02-.0301.01-.0301.02-.0401.02-.0401.02-.0301.01-.0301.02-.0401.02-.0401.02-.0401.02-.0301.01-.02.01-.03.02-.0401.02-.0401.02-.03.01-.03.02-.0401.02-.0401.02-.0401.02-.03.01-.0301.02-.0401.02-.0401.02-.0401.02-.02v-7.100839z"/><g stroke-width=".999992"><path d="m270.18612 92.620951h1.85333l.0768.11693.0329.05315.0439.05315.0768.11693q.0878.08505.13161.170081.0548.07441.0768.127559.0439.04252.0548.09567l.14257.138189.0329.07441.0658.09567.0329.04252.011.05315q.12063.08504.16449.180709l.0329.07441.0768.08503.0658.09567.011.04252q.13159.12756.15353.19134l.0219.04252q.0329.04252.0548.08504.0219.03189.0439.05315l.0329.04252.0768.12756.0439.02126.0219.05315q.0548.08505.0987.14882.0439.05315.0658.09567l.0548-.02126.0219-.06378.30705-.403939.0549-.08505.1974-.28701q.10967-.1063.14257-.22323l.0658-.07441.0548-.05315.0658-.1063.0549-.03189.0439-.08504q.0548-.1063.12062-.170081l.0439-.09567q.0439-.05315.0768-.08504.0329-.03189.0548-.05315l.0219-.05315.0439-.06378.0329-.03189.0219-.06378q.0219-.02126.0439-.04252.0219-.03189.0439-.06378l.0439-.05315.17547-.26575h1.95202v7.100838h-1.4366q-.0877-.02127-.0877-.07443 0-.04253.011-.05316v-4.73035q0-.06378-.011-.1063 0-.05315-.011-.1063l-.0987.1063q-.0219.06378-.0768.11693-.0548.08504-.0987.15945-.0439.06378-.0878.11693l-.0768.116929-.38382.5315-.17546.265751-.0548.07441q-.0439.06378-.0878.11693-.0439.04252-.0877.08504l-.0329.07441q-.0548.08504-.12064.17008-.0548.07441-.12062.13819l-.0329.08504-.0548.05315-.0219.05315q-.0439.07441-.0878.12756-.0439.04252-.0878.07441-.0219.07441-.0548.12756-.0329.04252-.0548.08504-.0878.11693-.1645.2126-.0768.09567-.14256.15945-.0439-.07441-.0878-.11693-.0329-.05315-.0548-.07441l-.011-.06378-.0548-.05315-.0329-.04252-.0219-.06378-.0658-.07441-.0768-.11693-.0329-.03189q-.0878-.09567-.1316-.15945l-.0548-.11693-.0878-.11693q-.0219-.02126-.0219-.03189l.011-.01063q-.0439-.04252-.0878-.08504-.0329-.04252-.0768-.09567-.0548-.08504-.10966-.15945-.0439-.07441-.0768-.12756l-.0768-.09567-.0548-.07441-.0439-.07441q-.0987-.07441-.14256-.20197l-.0548-.06378-.0987-.170081-.0658-.05315q-.0439-.05315-.0768-.09567-.0329-.05315-.0548-.08504l-.0219-.05315-.0549-.06378-.011-.05315q-.0329-.03189-.0439-.06378-.0439-.01063-.0439-.02126-.0219-.02126-.0219-.03189l.011-.01063-.26319-.3189v5.091765h-.0219.0219-.0439.0219-.0439.0219-.0439.0219-.0329.011-.0329.0219-.0439.0219-.0439.0219-.0439.0219-.0329.011-.0329.0219-.0439.0219-.0439.0219-.0439.0219-.0329.011-.0329.0219-.0439.0219-.0439.0219-.0329.011-.0329.0219-.0329.011-.0329.0219-.0439.0219-.0439.0219-.0329.011-.0329.0219-.0439.0219-.0439.0219-.0329.011-.0329.0219-.0439.0219-.0439.0219-.0439.0219-.0329.011-.0329.0219-.0439.0219-.0439.0219-.0439.0219-.0329.011-.0329.0219-.0439.0219-.0439.0219-.0329.011-.0219.011-.0329.0219-.0439.0219-.0439.0219-.0439.0219-.0329.011-.0329.0219-.0439.0219-.0439.0219-.0439.0219-.0329.011-.0329.0219-.0439.0219-.0439.0219-.0329.011-.0329.0219-.0439.0219-.0439.0219-.0439.0219-.0329.011-.0219.011-.0329.0219-.0439.0219-.0439.0219-.0329.011-.0329.0219-.0439.0219-.0439.0219-.0439.0219-.0329.011-.0329.0219-.0439.0219-.0439.0219-.0439.0219-.0219v-7.100835z"/><path d="m281.48155 92.620951h1.84236v.05315q.0439.08504.0658.15945.0329.07441.0439.14882l.0439.12756.0219.07441q.011.01063.011.05316.0219.08504.0329.08504.011-.01063.011.03189.0549.08504.0549.138189l.12062.30827v.04252q.0439.08504.0658.17008.0329.07441.0439.15945.0548.11693.0768.20197.0329.08504.0439.14882.011.02126.011.05315.011.03189.0219.05315l.0439.07441q.0219.05315.0329.09567.011.03189.0219.05315v.06378q.0219.02126.0219.05315.0439.06378.0548.13819l.10967.29764.0219.07441.0219.04252.0329.17008.0439.07441.0439.08504.011.06378.0219.07441.0439.1063q.011.04252.0219.08504.011.03189.0219.06378v.05315q.0219.06378.0329.106301.0219.04252.0439.1063l.12062.297639.0219.1063.0548.1063.0439.11693v.05315l.0329.06378.0219.07441.0219.08505q.0768.170081.12063.30827.0439.13819.0658.25512.0219.02126.0219.05315.15353.3189.19739.552761l.0219.05316.0219.07443.0219.08506.0219.05317.011.07443q.0219.05317.0329.0638.011.01063.011.04253 0 .02127 0 .0319.011 0 .011.01063 0 .01063.011.01063l.0329.0638v.05316q0 .02127 0 .0319.011 0 .011.01063 0 .01063.011.01063.0548.08507.0658.148824.0219.07443.0439.127557.0219.05316.0329.0957l.0329.116934h-1.6669l-.0329-.116934v-.07443l-.0439-.05317v-.0638q-.0219-.04253-.0329-.07443 0-.04253-.011-.0638-.011-.01063-.011-.04253l-.0439-.05317v-.05316l-.0219-.08506-.0548-.116934-.13159-.467717h-2.74161l-.0219.08507-.0219.0957-.0329.07443q-.011.05317-.0219.106301-.011.04253-.0329.08507l-.0329.127557-.0658.191336-.011.07443-.0219.04253q-.0329.116924-.0658.159446l-.0548.223235h-1.64496l.0329-.148823.0658-.191336.011-.0638.0219-.04253.0219-.05316.0219-.04253.0987-.297647.0219-.05316v-.05317l.0219-.08507.0439-.07443.0548-.201966.0439-.1063.0329-.09567q.0329-.1063.0658-.191341.0329-.08505.0548-.148819l.0548-.159451q.0219-.1063.0548-.19134.0329-.08504.0548-.14882.0219-.05315.0329-.08504.0219-.03189.0329-.05315l.0329-.159451.0658-.12756.0329-.148819.0219-.03189q.0219-.1063.0439-.180709.0329-.08504.0768-.159451l.0219-.148819.16449-.40394.0329-.12756.0219-.05315.0219-.06378q.0549-.18071.12062-.28701l.0219-.11693.0219-.05315v-.06378l.0219-.05315.13161-.34016.0219-.1063.0439-.08503.0329-.07441q.0439-.20197.0987-.29764l.0219-.09567.0329-.09567q.0219-.1063.0548-.19134.0329-.08505.0548-.13819l.0219-.08504.0219-.07441q.0219-.05315.0439-.09567.0219-.05315.0329-.09567l.0658-.19134.011-.06378.15354-.4252zm.82248 1.63702-.0548.2126-.0219.03189-.0987.32953-.0987.3189-.0219.04252-.12063.40394-.0219.07441-.12063.3189-.0329.09567q-.0219.14882-.0658.25512-.011.1063-.0658.20197l-.0219.07441q-.0329.14882-.0768.19134l-.10967.40394h1.94106l-.0439-.14882-.12063-.35079-.0987-.3189q-.0329-.08505-.0548-.15945-.0219-.08504-.0439-.13819l-.011-.03189q-.0219-.09567-.0439-.14882-.0219-.06378-.0329-.08504l-.011-.06378-.0219-.07441-.0439-.09567-.0219-.11693-.011-.07441-.0439-.04252-.0219-.116931-.011-.07441q-.0219-.03189-.0329-.06378 0-.03189-.011-.05315l-.0219-.06378q-.0219-.06378-.0548-.12756-.0219-.06378-.0439-.13819l-.011-.06378-.011-.03189-.0439-.159449-.0219-.06378-.0987-.23386z"/><path d="m293.34722 94.683171-.0768.05315-.32899.11693-.0768.04252-.0768.02126q-.1316.08505-.24127.09567l-.0987.02126-.0439.04252h-.0549l-.0329.03189h-.0549l-.0439.04252h-.0548l-.0439.04252-.0768.01063-.20836.07441q-.39479-1.40316-1.68883-1.40316-.12063 0-.25223.02126-.1316.01063-.28512.03189-1.31597.47835-1.31597 1.88151v.06378q-.0329.25512-.0329.47835 0 1.137411.77861 1.79647.50445.32953 1.05278.32953.39479 0 .53735-.07441 1.04181-.32953 1.19534-1.31812.18643.03189.2961.1063.0878.02126.16449.05315.0878.02126.1645.06378l.0768.04252.12064.02126.0548.02126.1316.05315.0768.02126.0548.04252q.0439.01063.0768.02126.0439.01063.0878.03189l.21933.07441q-.76765 2.051596-2.85128 2.232308-.0878.01063-.18642.01063-.0878 0-.17546 0-1.87526 0-2.84031-1.403159-.67992-1.169312-.67992-2.317352 0-.403939.0878-.797249.0878-.403941.25223-.807881.82247-1.82836 2.71967-2.072849.0878 0 .15352 0 .0768-.01063.1645-.01063 2.53324 0 3.35573 2.21104z"/><path d="m295.31019 92.642211h1.03085.2303v2.70002h2.92803v-2.70002h1.52433v7.100843h-1.52433v-3.018923h-2.92803v3.018923h-1.51338v-4.911063-2.18978z"/><path d="m303.53501 92.642211h1.25018v7.100843h-1.50241v-4.911063-2.18978z"/><path d="m307.15393 92.610321h1.62303l.0768.12756.0768.1063.0768.11693.0768.1063.0768.11693.0548.05315.0219.06378q.0219.02126.0219.03189.13161.15945.18644.27638.14256.15945.19739.27638l.0768.09567.0658.11693q.0329.04252.0548.07441.0219.02126.0439.04252l.0219.06378q.0768.07441.0987.14882.18644.19134.2632.39331l.0768.1063q.0219.02126.0219.03189v.01063q.0768.07441.12063.14882.0548.06378.0987.12756l.0658.11693.0548.09567.0768.11693.0878.07441.0548.09567.0439.08504q.10967.12756.1645.25512l.0548.07441.0439.06378.0548.05316q.0439.07441.0768.12756.0329.05315.0548.1063l.0548.05315.0439.05315.011.05315.0439.02126q.0548.12756.14256.2126l.011.05315q.0219.02126.0219.03189.0878.08505.14257.180711.0658.09567.10966.18071l.011-.138191v-4.602789h1.51337v7.090207h-1.26114.0329-.48252l-.0219-.0319q-.0878-.08507-.0987-.148824-.0329-.01063-.0329-.0319l.011-.01063q-.17547-.17008-.25223-.350782-.0219-.02127-.0219-.0319l.011-.01063-.0768-.106301q-.12064-.106301-.1645-.223225l-.0987-.116934-.0658-.116934-.0768-.138183q-.1316-.138191-.1974-.25512l-.0329-.04252q-.0439-.08504-.0878-.14882-.0439-.06378-.0878-.116931l-.011-.03189-.0439-.05315-.17547-.26575q-.0329-.04252-.0548-.07441-.0219-.04252-.0439-.06378-.0219-.02126-.0219-.03189l.011-.01063-.0439-.02126-.0768-.12756-.0219-.04252q-.0658-.08504-.0878-.13819-.0548-.04252-.0658-.09567l-.0768-.07441-.0658-.116931-.0439-.09567-.0329-.01063-.2632-.38268-.0219-.06378-.0439-.07441-.0549-.05315-.0439-.06378-.0219-.05314q-.0548-.05315-.0987-.09567-.0329-.04252-.0548-.08505l-.0439-.07441q-.0878-.1063-.0987-.191339-.0439-.01063-.0439-.04252l-.0439-.02126-.011-.04252-.0768-.127561-.18643-.24449v4.751611h-1.50239v-.946066-6.144144z"/><path d="m315.85031 92.620951h4.74847v1.41379h-3.3009v1.42442h2.99383v1.32875h-2.99383v1.47757q.0329.06378.10967.06378h3.48731v1.413794h-5.09938v-5.315005-1.8071z"/></g><g stroke-width=".999993"><path d="m326.14162 92.620953h4.69136v1.413791h-3.26121v1.424422h2.95783v1.328752h-2.95783v1.477572q.0325.06378.10835.06378h3.44539v1.413789h-5.03807v-5.315004-1.807102z"/><path d="m333.17325 92.620953h1.83104l.0758.11693.0325.05315.0433.05315.0758.11693q.0867.08504.13002.17008.0542.07441.0758.12756.0433.04252.0542.09567l.14086.138191.0325.07441.065.09567.0325.04252.0108.05315q.11918.08504.16252.18071l.0325.07441.0758.08504.065.09567.0108.04252q.13001.127559.15168.19134l.0217.04252q.0325.04252.0542.08504.0217.03189.0433.05315l.0325.04252.0758.12756.0433.02126.0217.05315q.0542.08504.0975.14882.0433.05315.065.09567l.0542-.02126.0217-.06378.30337-.40394.0542-.08504.19502-.28701q.10834-.1063.14085-.223231l.065-.07441.0542-.05315.065-.1063.0542-.03189.0433-.08505q.0542-.1063.11918-.170079l.0433-.09567q.0433-.05315.0758-.08504.0325-.03189.0542-.05315l.0217-.05315.0433-.06378.0325-.03189.0217-.06378q.0217-.02126.0433-.04252.0217-.03189.0433-.06378l.0433-.05315.17336-.26575h1.92855v7.100852h-1.41932q-.0867-.0213-.0867-.07439 0-.04249.0108-.05319v-4.73036q0-.06378-.0108-.1063 0-.05315-.0108-.106301l-.0975.106301q-.0217.06378-.0758.11693-.0542.08504-.0975.15945-.0433.06378-.0867.116929l-.0758.116931-.37921.5315-.17335.265751-.0542.07441q-.0433.06378-.0867.116931-.0433.04252-.0866.08504l-.0325.07441q-.0542.08504-.11918.170079-.0542.07441-.11918.138191l-.0325.08504-.0542.05315-.0217.05315q-.0433.07441-.0867.12756-.0433.04252-.0866.07441-.0217.07441-.0542.127561-.0325.04252-.0542.08504-.0866.116931-.16252.212601-.0758.09567-.14085.15945-.0433-.07441-.0866-.11693-.0325-.05315-.0542-.07441l-.0108-.06378-.0542-.05315-.0325-.04252-.0217-.06378-.065-.07441-.0758-.11693-.0325-.03189q-.0867-.09567-.13001-.15945l-.0542-.11693-.0867-.11693q-.0217-.02126-.0217-.0319l.0108-.01063q-.0433-.04252-.0866-.08504-.0325-.04252-.0758-.09567-.0542-.08504-.10834-.159451-.0433-.07441-.0758-.12756l-.0758-.09567-.0542-.07441-.0433-.07441q-.0975-.07441-.14085-.20197l-.0542-.06378-.0975-.170081-.065-.05315q-.0433-.05315-.0758-.09567-.0325-.05315-.0542-.08504l-.0217-.05315-.0542-.06378-.0108-.05315q-.0325-.03189-.0433-.06378-.0433-.01063-.0433-.02126-.0217-.02126-.0217-.03189l.0108-.01063-.26003-.318901v5.091779h-.0217.0217-.0433.0217-.0433.0217-.0433.0217-.0325.0108-.0325.0217-.0433.0217-.0433.0217-.0433.0217-.0325.0108-.0325.0217-.0433.0217-.0433.0217-.0433.0217-.0325.0108-.0325.0217-.0433.0217-.0433.0217-.0325.0108-.0325.0217-.0325.0108-.0325.0217-.0433.0217-.0433.0217-.0325.0108-.0325.0217-.0433.0217-.0433.0217-.0325.0108-.0325.0217-.0433.0217-.0433.0217-.0433.0217-.0325.0108-.0325.0217-.0433.0217-.0433.0217-.0433.0217-.0325.0108-.0325.0217-.0433.0217-.0433.0217-.0325.0108-.0217.0108-.0325.0217-.0433.0217-.0433.0217-.0433.0217-.0325.0108-.0325.0217-.0433.0217-.0433.0217-.0433.0217-.0325.0108-.0325.0217-.0433.0217-.0433.0217-.0325.0108-.0325.0217-.0433.0217-.0433.0217-.0433.0217-.0325.0108-.0217.0108-.0325.0217-.0433.0217-.0433.0217-.0325.0108-.0325.0217-.0433.0217-.0433.0217-.0433.0217-.0325.0108-.0325.0217-.0433.0217-.0433.0217-.0433.0217-.0217v-7.100851z"/><path d="m342.65349 92.663472h1.38683v4.475236l.11918.40394q.48755.818512 1.35432.882292.92094-.07441 1.36515-.797251v-.06378q.0542-.13819.0867-.276381.0433-.13819.0542-.28701.0108-.07441.0108-.13819.0108-.07441.0108-.13819v-4.060666h1.48434v4.570906q-.0108.05315-.0217.08505 0 .03189 0 .05315l-.0217.04252q-.0217.11693-.0433.22323-.0108.09567-.0325.18071-.43338 1.169301-1.41933 1.700807-.74758.382675-1.46266.382675-.47673 0-.93178-.159453-2.09106-.775987-2.09106-3.11459 0-.287011.0325-.605911v-3.380344z"/><path d="m350.98527 92.620953h1.23514v5.687057h3.1962v1.413792h-4.69137v-7.100849z"/><path d="m359.41754 92.620954h1.82021v.05315q.0433.08504.065.15945.0325.07441.0433.14882l.0433.12756.0217.07441q.0108.01063.0108.05315.0217.08505.0325.08505.0108-.01063.0108.03188.0542.08505.0542.138191l.11918.30827v.04252q.0433.08504.065.17008.0325.07441.0433.159451.0542.11693.0758.20197.0325.08503.0433.14882.0108.02126.0108.05315.0108.03189.0217.05315l.0433.07441q.0217.05315.0325.09567.0108.03189.0217.05315v.06378q.0217.02126.0217.05315.0433.06378.0542.138189l.10835.297641.0217.07441.0217.04252.0325.17008.0433.07441.0433.08504.0108.06378.0217.07441.0433.1063q.0108.04252.0217.08504.0108.0319.0217.06378v.05315q.0217.06378.0325.1063.0217.04252.0433.106301l.11918.29764.0217.1063.0542.1063.0433.11693v.05315l.0325.06378.0217.07441.0217.08505q.0758.17008.11918.30827.0433.13819.065.25512.0217.02126.0217.05315.15168.3189.19502.552761l.0217.05315.0217.07441.0217.08505.0217.05315.0108.07441q.0217.05315.0325.06378.0108.01063.0108.04252 0 .02127 0 .0319.0108 0 .0108.0106 0 .0106.0108.0106l.0325.06379v.05319q0 .0213 0 .03189.0108 0 .0108.0106 0 .0106.0108.0106.0542.08499.065.148825.0217.07439.0433.127559.0217.05319.0325.09568l.0325.11693h-1.64685l-.0325-.11693v-.07439l-.0433-.05319v-.06379q-.0217-.04249-.0325-.07439 0-.04249-.0108-.06379-.0108-.0106-.0108-.04249l-.0433-.05319v-.05319l-.0217-.08509-.0542-.116884-.13001-.467721h-2.70864l-.0217.08504-.0217.09567-.0325.07441q-.0108.05315-.0217.1063-.0108.04252-.0325.08504l-.0325.127524-.065.191338-.0108.07439-.0217.04249q-.0325.11693-.065.159453l-.0542.223222h-1.62519l.0325-.148815.065-.191337.0108-.06379.0217-.04249.0217-.05319.0217-.04249.0975-.297598.0217-.05315v-.05315l.0217-.08505.0433-.07441.0542-.20197.0433-.1063.0325-.09567q.0325-.1063.065-.19134.0325-.08504.0542-.14882l.0542-.15945q.0217-.1063.0542-.191341.0325-.08504.0542-.14882.0217-.05315.0325-.08504.0217-.03189.0325-.05315l.0325-.15945.065-.127561.0325-.14882.0217-.03189q.0217-.1063.0433-.180711.0325-.08504.0758-.15945l.0217-.14882.16252-.403941.0325-.12756.0217-.05315.0217-.06378q.0542-.180711.11918-.287011l.0217-.116929.0217-.05315v-.06378l.0217-.05315.13001-.34016.0217-.106301.0433-.08504.0325-.07441q.0433-.20197.0975-.29764l.0217-.09567.0325-.09567q.0217-.1063.0542-.191339.0325-.08504.0542-.13819l.0217-.08504.0217-.07441q.0217-.05315.0433-.09567.0217-.05315.0325-.09567l.065-.19134.0108-.06378.15169-.425201zm.8126 1.637021-.0542.212601-.0217.03189-.0975.32953-.0975.3189-.0217.04252-.11918.40394-.0217.07441-.11918.3189-.0325.09567q-.0217.14882-.065.25512-.0108.1063-.065.20197l-.0217.07441q-.0325.14882-.0758.191339l-.10834.403942h1.91771l-.0433-.148821-.11918-.35079-.0975-.318901q-.0325-.08504-.0542-.15945-.0217-.08504-.0433-.13819l-.0108-.03189q-.0217-.09567-.0433-.14882-.0217-.06378-.0325-.08504l-.0108-.06378-.0217-.07441-.0433-.09567-.0217-.11693-.0108-.07441-.0433-.04252-.0217-.116929-.0108-.07441q-.0217-.03188-.0325-.06378 0-.03188-.0108-.05315l-.0217-.06378q-.0217-.06378-.0542-.12756-.0217-.06378-.0433-.13819l-.0108-.06378-.0108-.03189-.0433-.15945-.0217-.06378-.0975-.233859z"/><path d="m364.91065 92.610315h6.00797v1.403164h-2.23086v5.708323h-1.64068v-5.708323h-2.21905v-1.403164z"/><path d="m379.33449 95.671764q.0118.116934.0118.244488.0118.116935.0118.23386 0 2.487429-2.26627 3.454764-.87346.287013-1.62888.287013-1.3574 0-2.43152-.903553-1.23937-1.24372-1.23937-2.763814 0-.669684.24788-1.39253.86166-2.232306 3.29317-2.391757 3.50564.02126 4.00138 3.231529zm-5.76009.77599q.0708 1.350015 1.21575 1.902774h.059q.0472.02126.0826.03189.0472.01063.0944.02126l.0472.02126.24787.05314q2.17185-.01063 2.26627-2.009071.0118-.09568.0118-.180717 0-.09567 0-.180707 0-2.179158-2.21906-2.264198-1.81774.318901-1.81774 2.274827 0 .08503 0 .170078 0 .0744.0118.15945z"/><path d="m381.38829 92.610315h3.52924q.059.01063.0944.02126.0472 0 .0826 0 .0236 0 .0236 0 .0118-.01063.0354-.01063l.25967.04252.0354.01063h.059l.0354.02126.31868.09567q.94429.446461 1.26297 1.243713.14165.446462.14165.839773 0 1.318126-1.56987 1.966553l.0472.02126q.0472.08503.0826.170078.0472.0744.0944.127564l.059.106296q.0472.06377.059.106297l.0944.116934q.059.08503.0944.15945.0472.06377.0944.138192.11803.138192.15345.265746.059.0744.10622.138192.059.06377.0826.116935.0708.116925.10623.191335l.0354.05314.0354.06377.0708.06377.14165.244489q.0708.09567.10623.159449l.0708.09567.0236.04251.0236.05314q.0944.127554.15344.244489.0708.106296.11803.201964h-1.87675l-.0236-.03189-.0354-.04251-.0236-.04251-.14165-.223231-.0118-.04251q-.10623-.08503-.12983-.212593-.12984-.116934-.16525-.244498-.059-.0744-.10623-.138182-.0354-.06377-.059-.127564l-.059-.06377-.0708-.116935-.0354-.0744q-.059-.0744-.11803-.127554-.0472-.05314-.0708-.106306-.0472-.08503-.0826-.138183-.0354-.06377-.059-.106306l-.0236-.06377q-.11804-.106297-.16525-.23386l-.0472-.05314-.0118-.06377-.0472-.02126-.0472-.116925q-.0354-.01063-.0354-.03189l.0118-.01063q-.16525-.180707-.23607-.329528h-1.0387v2.763804h-1.61709v-7.111488zm1.45183 3.008296h1.99478l.23608-.06377q.55476-.287012.55476-.786626 0-.03189-.0118-.06378 0-.03189 0-.07441-.15344-.425201-.54295-.616542h-.0472l-.0472-.01063-.27148-.06378h-1.86495z"/></g><path d="m221.63749 92.620956h1.90611v.05315q.0454.08504.0681.15945.034.07442.0453.14882l.0454.12756.0227.07442q.0114.01063.0114.05315.0227.08504.034.08504.0114-.01063.0114.03189.0567.08504.0567.138189l.12481.30827v.04252q.0454.08504.0681.17008.034.07442.0454.159449.0567.11693.0795.20197.034.08504.0453.14882.0114.02126.0114.05315.0114.03189.0227.05315l.0454.07441q.0227.05315.034.09567.0114.03189.0227.05315v.06378q.0227.02125.0227.05315.0454.06378.0567.13819l.11346.297639.0227.07442.0227.04252.034.17008.0454.07441.0454.08504.0114.06378.0227.07441.0454.1063q.0114.04252.0227.08504.0114.03189.0227.06378v.05315q.0227.06378.034.1063.0227.04252.0454.1063l.1248.297639.0227.106299.0567.106299.0454.116927v.05314l.034.06379.0227.07444.0227.08508q.0794.170076.1248.308268.0454.138183.0681.25512.0227.02129.0227.05314.15884.318896.20423.55276l.0227.05314.0227.07443.0227.08508.0227.05314.0114.07444q.0227.05314.034.06379.0114.01065.0114.04249 0 .02129 0 .03185.0114 0 .0114.01065 0 .01065.0114.01065l.034.06379v.05314q0 .02129 0 .03184.0114 0 .0114.01065 0 .01065.0114.01065.0567.08508.0681.14882.0227.07443.0454.127555.0227.05314.034.09563l.034.116937h-1.72457l-.034-.116937v-.07443l-.0454-.05314v-.06379q-.0227-.04249-.034-.07443 0-.04249-.0114-.06379-.0114-.01065-.0114-.04249l-.0454-.05314v-.05314l-.0227-.08508-.0567-.116927-.13616-.467717h-2.83646l-.0227.08508-.0227.09563-.034.07443q-.0114.05314-.0227.106299-.0114.04249-.034.08508l-.034.127564-.0681.191342-.0114.07443-.0227.04249q-.034.116927-.0681.159449l-.0567.223235h-1.70187l.034-.14882.0681-.191342.0114-.06379.0227-.04249.0227-.05314.0227-.04249.10207-.297641.0227-.05314v-.05314l.0227-.08508.0454-.07443.0567-.20197.0454-.106299.034-.09563q.034-.106299.0681-.191342.034-.08508.0567-.14882l.0567-.159449q.0227-.106298.0567-.191341.034-.08499.0567-.148821.0227-.05314.034-.08499.0227-.03185.034-.05314l.034-.159458.0681-.127554.034-.148821.0227-.03189q.0227-.1063.0453-.180711.034-.08504.0795-.159449l.0227-.14882.17018-.403939.034-.127561.0227-.05315.0227-.06378q.0567-.180709.12481-.287009l.0227-.11693.0227-.05315v-.06378l.0227-.05315.13614-.340159.0227-.1063.0454-.08504.034-.07442q.0453-.20197.10207-.29764l.0227-.09567.034-.09567q.0227-.1063.0567-.19134.034-.08504.0567-.13819l.0227-.08504.0227-.0744q.0227-.05315.0454-.09567.0227-.05315.034-.09567l.0681-.19134.0114-.06378.15885-.4252zm.85094 1.637018-.0567.212599-.0227.03189-.10207.32953-.10207.3189-.0227.04252-.12481.403939-.0227.07441-.1248.318899-.034.09567q-.0227.148821-.0681.255121-.0114.1063-.0681.20197l-.0227.0744q-.034.14882-.0794.191344l-.11346.40394h2.00823l-.0454-.148821-.12481-.350793-.10207-.3189q-.034-.08504-.0567-.159449-.0227-.08504-.0453-.138191l-.0114-.03189q-.0227-.09567-.0454-.14882-.0227-.06378-.034-.08504l-.0114-.06378-.0227-.0744-.0454-.09567-.0227-.11693-.0114-.07442-.0454-.04252-.0227-.11693-.0114-.07441q-.0227-.03189-.034-.06378 0-.03189-.0114-.05315l-.0227-.06378q-.0227-.06378-.0567-.12756-.0227-.06378-.0454-.138189l-.0114-.06378-.0114-.03189-.0454-.159451-.0227-.06378-.10207-.233861z" stroke-width=".999992"/><path d="m227.67351 92.610326h3.39241q.0567.01063.0908.02126.0453 0 .0794 0 .0227 0 .0227 0 .0114-.01063.034-.01063l.24961.04252.034.01063h.0567l.034.02126.30635.09567q.90767.44646 1.21401 1.243709.13614.446459.13614.839769 0 1.318119-1.509 1.96655l.0454.02129q.0453.08508.0794.170077.0454.07443.0908.127564l.0567.106299q.0454.06379.0567.106299l.0908.116927q.0567.08508.0908.159448.0454.06379.0908.138193.11346.138192.1475.265747.0567.07444.10207.138193.0567.06379.0795.116926.0681.116937.10207.191342l.034.05314.034.06379.0681.06379.13615.244482q.0681.09563.10207.159458l.0681.09563.0227.04249.0227.05314q.0908.127564.1475.244491.0681.106299.11346.20197h-1.80399l-.0227-.03184-.034-.04249-.0227-.04249-.13615-.223226-.0114-.04249q-.10207-.08508-.12481-.212608-.1248-.116927-.15884-.244482-.0567-.07443-.10208-.138192-.034-.06379-.0567-.127565l-.0567-.06379-.0681-.116927-.034-.07443q-.0567-.07443-.11345-.127555-.0454-.05314-.0681-.106299-.0453-.08508-.0794-.138192-.034-.06379-.0567-.106299l-.0227-.06379q-.11346-.106299-.15884-.233864l-.0454-.05314-.0114-.06379-.0454-.02129-.0453-.116927q-.034-.01065-.034-.03185l.0114-.01065q-.15884-.180704-.22691-.329524h-.99844v2.763791h-1.55438v-7.111465zm1.39553 3.008286h1.91746l.22691-.06378q.53326-.287009.53326-.786619 0-.03189-.0114-.06378 0-.03189 0-.07441-.1475-.425199-.52192-.616539h-.0454l-.0453-.01063-.26095-.06378h-1.79266z" stroke-width=".999992"/><path d="m241.85586 94.683173-.0795.05315-.34038.116929-.0794.04252-.0795.02126q-.13614.08504-.2496.09567l-.10208.02126-.0453.04252h-.0567l-.034.03189h-.0567l-.0453.04252h-.0567l-.0453.04252-.0795.01063-.21557.07442q-.40846-1.403159-1.74726-1.403159-.12481 0-.26096.02126-.13616.01063-.295.03189-1.3615.47835-1.3615 1.881508v.06378q-.034.25512-.034.47835 0 1.137404.80556 1.796463.52191.329534 1.08921.329534.40845 0 .55594-.07443 1.07786-.329525 1.23671-1.318118.19287.03184.30633.106299.0908.02129.17018.05314.0908.02129.1702.06379l.0795.04249.1248.02129.0567.02129.13615.05314.0795.02129.0567.04249q.0454.01065.0795.0213.0454.01065.0908.03184l.22691.07443q-.79421 2.051593-2.94993 2.232297-.0908.01065-.19287.01065-.0908 0-.18154 0-1.94015 0-2.93858-1.403151-.70344-1.169298-.70344-2.317338 0-.40394.0908-.797249.0908-.403939.26094-.807879.85095-1.828358 2.81379-2.072848.0907 0 .15883 0 .0794-.01063.1702-.01063 2.62089 0 3.47184 2.211038z" stroke-width=".999992"/><path d="m245.35038 92.620956h1.9061v.05315q.0454.08504.0681.15945.034.07442.0454.14882l.0453.12756.0227.07442q.0114.01063.0114.05315.0227.08504.034.08504.0114-.01063.0114.03189.0567.08504.0567.138189l.12481.30827v.04252q.0453.08504.0681.17008.034.07442.0454.159449.0567.11693.0794.20197.034.08504.0454.14882.0114.02126.0114.05315.0114.03189.0227.05315l.0454.07441q.0227.05315.034.09567.0114.03189.0227.05315v.06378q.0227.02125.0227.05315.0454.06378.0567.13819l.11346.297639.0227.07442.0227.04252.034.17008.0453.07441.0454.08504.0114.06378.0227.07441.0453.1063q.0114.04252.0227.08504.0114.03189.0227.06378v.05315q.0227.06378.034.1063.0227.04252.0454.1063l.12481.297639.0227.106299.0567.106299.0454.116927v.05314l.034.06379.0227.07444.0227.08508q.0794.170076.12481.308268.0453.138183.0681.25512.0227.02129.0227.05314.15884.318896.20422.55276l.0227.05314.0227.07443.0227.08508.0227.05314.0114.07444q.0227.05314.034.06379.0114.01065.0114.04249 0 .02129 0 .03185.0114 0 .0114.01065 0 .01065.0114.01065l.034.06379v.05314q0 .02129 0 .03184.0114 0 .0114.01065 0 .01065.0114.01065.0567.08508.0681.14882.0227.07443.0453.127555.0227.05314.034.09563l.034.116937h-1.72456l-.034-.116937v-.07443l-.0454-.05314v-.06379q-.0227-.04249-.034-.07443 0-.04249-.0114-.06379-.0114-.01065-.0114-.04249l-.0454-.05314v-.05314l-.0227-.08508-.0567-.116927-.13616-.467717h-2.83646l-.0227.08508-.0227.09563-.034.07443q-.0114.05314-.0227.106299-.0114.04249-.034.08508l-.034.127564-.0681.191342-.0114.07443-.0227.04249q-.034.116927-.0681.159449l-.0567.223235h-1.70187l.034-.14882.0681-.191342.0114-.06379.0227-.04249.0227-.05314.0227-.04249.10207-.297641.0227-.05314v-.05314l.0227-.08508.0454-.07443.0567-.20197.0454-.106299.034-.09563q.034-.106299.0681-.191342.034-.08508.0567-.14882l.0567-.159449q.0227-.106298.0567-.191341.034-.08499.0567-.148821.0227-.05314.034-.08499.0227-.03185.034-.05314l.034-.159458.0681-.127554.034-.148821.0227-.03189q.0227-.1063.0454-.180711.034-.08504.0795-.159449l.0227-.14882.17018-.403939.034-.127561.0227-.05315.0227-.06378q.0567-.180709.12481-.287009l.0227-.11693.0227-.05315v-.06378l.0227-.05315.13614-.340159.0227-.1063.0454-.08504.034-.07442q.0454-.20197.10208-.29764l.0227-.09567.034-.09567q.0227-.1063.0567-.19134.034-.08504.0567-.13819l.0227-.08504.0227-.0744q.0227-.05315.0454-.09567.0227-.05315.034-.09567l.0681-.19134.0114-.06378.15884-.4252zm.85093 1.637018-.0567.212599-.0227.03189-.10207.32953-.10207.3189-.0227.04252-.12481.403939-.0227.07441-.1248.318899-.034.09567q-.0227.148821-.0681.255121-.0114.1063-.0681.20197l-.0227.0744q-.034.14882-.0794.191344l-.11347.40394h2.00823l-.0454-.148821-.1248-.350793-.10207-.3189q-.034-.08504-.0567-.159449-.0227-.08504-.0454-.138191l-.0114-.03189q-.0227-.09567-.0453-.14882-.0227-.06378-.034-.08504l-.0114-.06378-.0227-.0744-.0454-.09567-.0227-.11693-.0114-.07442-.0454-.04252-.0227-.11693-.0114-.07441q-.0227-.03189-.034-.06378 0-.03189-.0114-.05315l-.0227-.06378q-.0227-.06378-.0567-.12756-.0227-.06378-.0454-.138189l-.0114-.06378-.0114-.03189-.0454-.159451-.0227-.06378-.10207-.233861z" stroke-width=".999992"/><path d="m251.341 92.620956h2.96128l.0567.02126h.14749l.0454.02126.32903.03189q2.65493.829138 2.65493 3.412226 0 .17008-.0114.35079-.0114.170079-.034.350797-.54461 2.965761-3.94837 2.965761-.37441 0-.76017-.03185h-.54461-.97575v-7.1221zm1.46362 5.665785h1.41823l.13615-.0213q.0908-.01065.17019-.03185.0908-.02129.1475-.04249l.1248-.02129q1.16862-.584654 1.16862-1.828362 0-.07442 0-.138191 0-.0744-.0114-.159449-.17019-1.977178-2.06495-1.977178-.0795 0-.17019 0-.0794 0-.17018.01063h-.12482-.62401z" stroke-width=".999992"/><path d="m259.35119 92.620956h4.91276v1.413788h-3.41511v1.424418h3.09743v1.328749h-3.09743v1.477564q.034.06379.11346.06379h3.60799v1.413789h-5.27583v-5.314997-1.807098z" stroke-width=".999992"/></g><g stroke="#000" transform="scale(.70000001)"><g stroke-width="1.42857"><path d="m368.0625 1.8222656-76.21094 82.3183594v-81.8554688l-47.36328 50.6953128v-50.6953128l-65.64258 71.1874998-.008-1.421875c-2.48096-2.619698-5.85178-4.112934-9.45898-5.302734 10.99114-6.319516 15.85697-13.736873 15.32421-22.121094.40713-9.901138-3.79037-22.862847-27.4414-26.771484h-59.095514l.01367 102.378911h80.953124l-.006-.7461h.34375l44.34975-47.439452v49.296872l40.04297-42.322262v35.347652l-40.04297 43.25196h43.05664l72.76758-78.599612v40.464842h49.08789l43.91602-47.439452v49.296872l40.04492-42.322262v32.089842l-6.88867 8.375h111.94726l27.98828-29.765624h-73.19726l12.48633-13.488281h22.39062l27.98633-30.228516h-21.95898l12.05664-13.021484h41.76562l26.69727-28.8378906h-82.24219l-71.04492 76.7382816v-78.5996098l-47.36328 50.6953128v-50.6953128l-85.25391 91.6210938zm-301.511719 16.0332034v38.529297h-38.097656v-38.345704l-27.73828125.140626v137.894532l27.36523425-27.36524v-47.503902h38.34375v38.765622h27.382813v-102.115231zm81.982419 21.302734c16.65532 3.15304 10.16939 21.941659 0 20.607422l-24.05468.05859-.0117-20.636719zm3.36328 38.298828c18.86166 3.293372 11.51653 22.919009 0 21.525391l-27.24218.0625-.0137-21.556641z" filter="url(#a)"/><path d="m368.0625 1.8222656-76.21094 82.3183594v-81.8554688l-47.36328 50.6953128v-50.6953128l-65.64258 71.1874998-.008-1.421875c-2.48096-2.619698-5.85178-4.112934-9.45898-5.302734 10.99114-6.319516 15.85697-13.736873 15.32421-22.121094.40713-9.901138-3.79037-22.862847-27.4414-26.771484h-59.095514l.01367 102.378911h80.953124l-.006-.7461h.34375l44.34975-47.439452v49.296872l40.04297-42.322262v35.347652l-40.04297 43.25196h43.05664l72.76758-78.599612v40.464842h49.08789l43.91602-47.439452v49.296872l40.04492-42.322262v32.089842l-6.88867 8.375h111.94726l27.98828-29.765624h-73.19726l12.48633-13.488281h22.39062l27.98633-30.228516h-21.95898l12.05664-13.021484h41.76562l26.69727-28.8378906h-82.24219l-71.04492 76.7382816v-78.5996098l-47.36328 50.6953128v-50.6953128l-85.25391 91.6210938zm-301.511719 16.0332034v38.529297h-38.097656v-38.345704l-27.73828125.140626v137.894532l27.36523425-27.36524v-47.503902h38.34375v38.765622h27.382813v-102.115231zm81.982419 21.302734c16.65532 3.15304 10.16939 21.941659 0 20.607422l-24.05468.05859-.0117-20.636719zm3.36328 38.298828c18.86166 3.293372 11.51653 22.919009 0 21.525391l-27.24218.0625-.0137-21.556641z" fill="#dced4d"/><path d="m368.0625 1.8222656-76.21094 82.3183594v-81.8554688l-47.36328 50.6953128v-50.6953128l-65.64258 71.1874998-.008-1.421875c-2.48096-2.619698-5.85178-4.112934-9.45898-5.302734 10.99114-6.319516 15.85697-13.736873 15.32421-22.121094.40713-9.901138-3.79037-22.862847-27.4414-26.771484h-59.095514l.01367 102.378911h80.953124l-.006-.7461h.34375l44.34975-47.439452v49.296872l40.04297-42.322262v35.347652l-40.04297 43.25196h43.05664l72.76758-78.599612v40.464842h49.08789l43.91602-47.439452v49.296872l40.04492-42.322262v32.089842l-6.88867 8.375h111.94726l27.98828-29.765624h-73.19726l12.48633-13.488281h22.39062l27.98633-30.228516h-21.95898l12.05664-13.021484h41.76562l26.69727-28.8378906h-82.24219l-71.04492 76.7382816v-78.5996098l-47.36328 50.6953128v-50.6953128l-85.25391 91.6210938zm-301.511719 16.0332034v38.529297h-38.097656v-38.345704l-27.73828125.140626v137.894532l27.36523425-27.36524v-47.503902h38.34375v38.765622h27.382813v-102.115231zm81.982419 21.302734c16.65532 3.15304 10.16939 21.941659 0 20.607422l-24.05468.05859-.0117-20.636719zm3.36328 38.298828c18.86166 3.293372 11.51653 22.919009 0 21.525391l-27.24218.0625-.0137-21.556641z" fill="url(#b)"/></g><path d="m368.0625 1.8222656-34.61328 37.3867184 28.72851-2.238281 5.88477-.173828zm-123.57422.4628906-45.80273 49.6718748 45.80273-4.724609zm47.36328 0-41.41992 44.3339848 37.35352-3.853516 4.0664-.316406zm161.46485 0-30.61133 32.8964848 26.45508-.78125 4.15625.189453zm47.36328 0-30.87891 33.0527348 26.99219 1.224609 3.88672.279297zm71.04492 1.8613282-32.81836 35.4472656 35.98633 2.591797c.7273.01403 1.38352-.01241 2.09765-.0059l8.51368-9.195313h41.63476c.0825-.04189.16593-.08287.24805-.125l26.58008-28.7128496zm-505.173829 13.7089846v24.542969l24.363281-2.570313 2.892579.359375v-22.332031zm31.615235 0 .0039 22.871093 26.298824 3.261719-.002-4.800781 24.0664-.0293c6.69478 1.267397 9.60543 5.064909 10.08594 9.0625l25.22852 3.126953c.69299-2.166944 1.00272-4.403256.85546-6.720703.40713-9.901137-3.79037-22.862847-27.4414-26.771484zm-69.712891.183593-27.73828125.140626.46875005 31.113281 27.2695312-2.876953z" fill="#fff" fill-opacity=".25" stroke="none"/></g></svg>