<svg height="164.01248" viewBox="0 0 369.95925 311.62372" width="194.71539" xmlns="http://www.w3.org/2000/svg" xmlns:xlink="http://www.w3.org/1999/xlink"><linearGradient id="a" gradientUnits="userSpaceOnUse" x1="194.73721" x2="171.09724" y1="216.99675" y2="204.80321"><stop offset="0" stop-color="#fff"/><stop offset="1" stop-color="#fff" stop-opacity="0"/></linearGradient><filter id="b" color-interpolation-filters="sRGB" height="1.071824" width="1.164622" x="-.082311" y="-.035912"><feGaussianBlur in="SourceGraphic" result="blur" stdDeviation="2.32212"/><feDiffuseLighting diffuseConstant="1" result="diffuse" surfaceScale="10"><feDistantLight azimuth="122" elevation="13"/></feDiffuseLighting><feComposite in="diffuse" in2="diffuse" k1="1" k2="0" k3="0" k4="0" operator="arithmetic" result="composite1"/><feComposite in="composite1" in2="SourceGraphic" k1="1" k2="0" k3="1" k4="0" operator="arithmetic" result="composite2"/></filter><linearGradient id="c" gradientUnits="userSpaceOnUse" x1="378.02588" x2="378.02588" y1="22.158789" y2="224.60327"><stop offset="0" stop-color="#fff"/><stop offset=".92357403" stop-color="#fff" stop-opacity=".000832"/><stop offset="1" stop-color="#fff" stop-opacity="0"/></linearGradient><radialGradient id="d" cx="417.44257" cy="210.11809" gradientTransform="matrix(0 -1.019037 1.8161309 .00000007 35.840606 628.26912)" gradientUnits="userSpaceOnUse" r="43.74741"><stop offset="0" stop-color="#fff"/><stop offset=".67000633" stop-color="#fff"/><stop offset="1" stop-color="#e60002" stop-opacity="0"/></radialGradient><linearGradient id="e" gradientUnits="userSpaceOnUse" x1="449.77615" x2="289.93265" y1="82.32933" y2="123.38917"><stop offset="0" stop-color="#fff"/><stop offset=".64039129" stop-color="#fff"/><stop offset=".81668311" stop-color="#fff" stop-opacity="0"/><stop offset=".85350877" stop-color="#fff" stop-opacity="0"/><stop offset="1" stop-color="#fff"/></linearGradient><linearGradient id="f" gradientUnits="userSpaceOnUse" x1="443.78659" x2="409.83334" y1="222.14496" y2="212.28656"><stop offset="0" stop-color="#fff"/><stop offset="1" stop-color="#e60002" stop-opacity="0"/></linearGradient><filter id="g" color-interpolation-filters="sRGB" height="1.07352" width="1.063145" x="-.031573" y="-.03676"><feGaussianBlur in="SourceGraphic" result="blur" stdDeviation="1.75985"/><feDiffuseLighting diffuseConstant="1" result="diffuse" surfaceScale="10"><feDistantLight azimuth="122" elevation="13"/></feDiffuseLighting><feComposite in="diffuse" in2="diffuse" k1="1" k2="0" k3="0" k4="0" operator="arithmetic" result="composite1"/><feComposite in="composite1" in2="SourceGraphic" k1="1" k2="0" k3="1" k4="0" operator="arithmetic" result="composite2"/></filter><clipPath id="h"><path d="m370.25654.3054255h102.575v190.3609045h-102.575zm90.7737 5.1858949c-.36063.2182541-2.70104-.5447262-2.85889.2814731-.85709 4.4859315-4.08255 13.1627125-9.33049 10.3384765-9.78224-5.681819-17.8379-8.9560139-24.64936-10.4531696-16.55645-3.4875303-33.64786 2.5044365-45.15558 18.2225016-7.95367 13.687471-9.9066 32.941948-6.62303 48.899003 17.17583 8.66276 17.29116 8.78682 24.64945 7.477809-8.89825-10.06691-12.62046-19.560024-13.79033-26.658245-3.64931-11.610501.22737-27.540898 10.43264-35.465988 13.01395-10.1062263 34.47803-15.5255181 58.44137 7.388614 5.38439-4.579376 7.61715-10.680831 8.88422-20.0304746z"/></clipPath><filter id="i" color-interpolation-filters="sRGB" height="1.053917" width="1.093425" x="-.046711" y="-.026958"><feGaussianBlur in="SourceGraphic" result="blur" stdDeviation="1.75985"/><feDiffuseLighting diffuseConstant="1" result="diffuse" surfaceScale="10"><feDistantLight azimuth="122" elevation="13"/></feDiffuseLighting><feComposite in="diffuse" in2="diffuse" k1="1" k2="0" k3="0" k4="0" operator="arithmetic" result="composite1"/><feComposite in="composite1" in2="SourceGraphic" k1="1" k2="0" k3="1" k4="0" operator="arithmetic" result="composite2"/></filter><linearGradient id="j" gradientUnits="userSpaceOnUse" x1="432.34949" x2="432.34949" y1="-8.390698" y2="197.27339"><stop offset="0" stop-color="#fff"/><stop offset=".72840703" stop-color="#fff" stop-opacity="0"/><stop offset="1" stop-color="#fff"/></linearGradient><linearGradient id="k" gradientUnits="userSpaceOnUse" x1="418.26257" x2="418.26257" y1="-12.571827" y2="79.248016"><stop offset="0" stop-color="#fff"/><stop offset=".71633315" stop-color="#fff" stop-opacity=".823387"/><stop offset="1" stop-color="#fff" stop-opacity="0"/></linearGradient><g transform="translate(-113.41253 4.061957)"><text fill="#ef00eb" font-family="TrasksHand" font-size="2" stroke="#0105ff" stroke-width="2.5" x="181.36787" y="228.38474"><tspan fill="#fafafa" fill-opacity=".4" font-size="2" stroke="none" stroke-width="2.5" x="181.36787" y="228.38474">John Loreth 2022</tspan></text><g filter="url(#i)"><path d="m478.14777 135.954c-.663 37.56698-18.51303 58.73936-54.77276 58.19905-9.23463 0-18.88281-2.54173-26.89435-8.25543-7.41177-5.28595-9.4854-6.91125-10.5048-6.91125-3.65787 0-4.54294 8.46668-6.52179 15.943h-10.83665v-78.93675h11.19644c4.6015 19.12549 10.25968 34.50327 18.26075 45.34739 7.61557 7.99794 11.01812 11.98317 19.54375 14.22769 6.95869 1.832 11.0165 2.05906 17.17999-1.01497 13.22891-11.2527 13.37667-23.62289 8.28986-34.5563-5.40971-11.1527-20.91551-17.61164-30.36524-21.83831-14.85834-7.50536-26.83875-14.5436-33.31498-23.932478-6.47623-9.38888-13.08954-21.211914-13.08954-35.469103 0-14.083319 4.0122-28.882007 10.72828-38.705558 8.09528-11.8230336 23.72143-18.889298 39.13247-18.889298 9.35455 0 12.10265.8348228 20.16992 4.4022623 8.11213 3.5872742 13.79562 7.4998927 14.50427 7.0497987 2.11674-1.344408 3.40014-3.9762473 3.93983-11.104841h11.0204l.15264 63.586746h-11.0204c-3.39368-13.782116-8.7594-24.734062-15.1453-33.688272-8.97456-7.981676-9.18823-7.926192-18.49435-11.292-13.33426-.331261-23.63391 3.711413-23.85728 18.168188 0 4.955242.82424 10.50118 3.75015 14.510765 18.40074 17.078053 41.65597 22.05883 59.17588 40.518505 11.39712 12.251415 17.07086 25.790565 17.77281 42.641165z" fill="#d40101" stroke="#8b0000" stroke-opacity=".941176" stroke-width="2"/><path clip-path="url(#h)" d="m458.94996 131.63348c-13.46641 6.73428-13.41973 6.68106-13.41973 6.68106 8.7383 20.55333-4.10937 43.99993-25.14622 38.96711-23.28879-2.02917-36.87626-40.29089-42.85699-58.61914l-2.26824 3.90503c-.0802 8.85123 1.98847 21.31569 7.65808 42.62594 5.00029 1.69748 8.33095 2.8664 11.55177 5.73774 40.47071 36.07941 75.79978-.68268 64.34323-39.63161l-8.26481-18.65078 17.28449-8.03686c-11.03999-18.615368-30.20467-28.329396-50.86477-36.997818-5.56947-2.336799-10.54477-6.701189-16.08697-11.010176-17.45946-15.680835-6.27203-44.067794 20.79274-40.416279 21.03645 1.936889 29.98932 25.564405 34.26905 46.164484l5.54814-.850016-.55102-56.1967395c.12053 6.0988035-8.79269 20.2163695-9.22899 19.5643375-6.41744-9.590491-25.727-16.3918117-34.44087-15.8307341-22.97644 2.5701321-36.64789 16.2197091-35.30921 39.4202261.93617 9.439571 8.20377 26.079565 14.54348 31.716075 5.3093 4.016208 10.80971 6.952665 19.15888 11.321897 12.00727 6.283561 26.24177 12.698033 34.91569 21.096953" fill="url(#j)" opacity=".715232"/><g fill="#fff"><path d="m377.82133 118.09669-2.56255 4.47085c.57763 13.74516 3.56457 28.05571 7.65808 42.62594-9.17377 9.90908-7.40265 15.941-8.65498 22.97961l-3.8877 4.39789-.23532-74.05138z" fill-opacity=".576907"/><path d="m461.03024 5.4913204c-1.26707 9.3496436-4.07106 15.5918916-9.45545 20.1712676-28.73252-21.7267869-68.65504-9.286861-57.33941 22.078581.4481 1.688235-2.92384 11.470829 41.13026 31.362405-22.12031 1.56218-44.73574 4.723875-62.95275-6.323969-5.63883-27.402857 4.22149-64.1774346 33.33877-66.1358514 9.76872-3.4161377 22.62144-2.4207753 43.0892 9.4675164 5.24794 2.824236 8.4734-5.852545 9.33049-10.3384765.15785-.8261993 2.49826-.063219 2.85889-.2814731z" fill-opacity=".032565"/><path d="m435.4414 79.37576c-21.42244-.861233-44.91572 7.217246-63.24639-6.991026-2.87289-3.744143-5.11864-9.046475-3.44523-24.086456 3.4545-27.379143 15.9124-37.518551 30.79658-43.0121027 16.85676-7.1443108 34.22194.7800714 51.5806 8.5115127 2.31291-1.798771 4.26668-4.9123017 5.56439-10.4275418l6.38297-.4947618-2.09168 2.3893378.61745 56.6053168-3.50788-1.443495c-8.52382-27.666445-20.6485-44.554384-40.61241-44.624333-16.49303 1.585361-33.23411 11.131451-20.33619 38.675228 5.92555 9.894724 23.26818 17.126806 38.29779 24.898321z" fill-opacity=".435933" opacity=".145524"/></g><path d="m461.03024 5.4913204c-1.26707 9.3496436-3.49983 15.4510986-8.88422 20.0304746-23.96334-22.9141321-45.42742-17.4948403-58.44137-7.388614-10.20527 7.92509-14.08195 23.855487-10.43264 35.465988 1.16987 7.098221 4.89208 16.591335 13.79033 26.658245-7.35829 1.309011-7.47362 1.184951-24.64945-7.477809-3.28357-15.957055-1.33064-35.211532 6.62303-48.899003 11.50772-15.7180651 28.59913-21.7100319 45.15558-18.2225016 6.81146 1.4971557 14.86712 4.7713506 24.64936 10.4531696 5.24794 2.824236 8.4734-5.852545 9.33049-10.3384765.15785-.8261993 2.49826-.063219 2.85889-.2814731z" fill="url(#k)" opacity=".88005"/></g><g fill="#2800eb" fill-opacity=".451365" filter="url(#g)" stroke-width="2.5" transform="scale(.75171473 1.3302919)"><g fill-opacity="1"><path d="m434.43603 83.971949v50.216781h-13.21156c-4.52599-13.01385-8.41114-21.80287-17.46313-28.57538-19.17014-10.745945-34.22692-7.431235-42.7957-1.86567-6.82276 5.64376-11.81951 11.2989-14.65671 21.45767-2.83718 10.15877-4.52912 19.38724-4.52912 30.07718 2.3101 17.65335 2.06916 38.70095 21.45292 51.66804 3.2059 1.76757 8.61879 3.79445 18.14364 3.79445 22.16392-.55739 27.84201-14.63648 30.25488-25.16697-.34026-9.63556 3.87184-19.86945-11.83841-20.96199h-6.20706v-8.19533h70.70403v8.19533c-5.06641.33199-9.88109 1.02916-11.90765 2.09152-1.95901.99596-3.47894 2.68909-4.55977 5.07938-.60797 1.26155-1.00454 8.85959-.91196 13.7727l.72661 38.56125c1.63436 2.42625-14.64707 2.69031-16.3807-.52606-1.7091-3.17086-4.79692-10.45312-6.79762-13.24388 0 0-15.1022 8.30397-18.31113 8.95268-9.54737 3.85151-19.28612 5.99473-29.48649 5.99473-13.03756 0-23.87967-1.72633-32.52634-5.17898-8.57912-3.51905-16.17873-8.10046-22.79884-13.74422-6.55255-5.71016-11.68651-12.11749-15.40187-19.22199-4.72865-9.16281-7.09298-19.42118-7.09298-30.7751 0-20.31755 7.26185-37.48122 21.78556-51.49103 14.5237-14.009804 32.79654-21.014706 54.81853-21.014706 6.82276 0 12.97.531177 18.44172 1.593532 2.97229.531177 7.76849 2.058313 14.3886 4.581406 5.10404 1.8312 9.23723 4.538973 10.44702 1.94813 1.62125-1.39434 1.89405-6.139503 3.27229-7.768471z" fill="#e60002" stroke="#8b0000" stroke-opacity=".941176" stroke-width="2"/><path d="m431.55855 85.459864-2.59079 1.788589c-2.71265 5.490308-3.01965 11.638434-10.65925 14.656057-9.59597-2.250281-24.28006-11.345934-42.04223-11.079481-71.53579 4.205392-61.72199 94.729091-38.26973 112.559661l-11.88287 5.66699c-32.18269-29.96662-30.52249-66.37486-11.97473-95.52241 13.21477-16.184533 30.25789-28.997972 62.14071-28.744156 12.16521-1.208491 23.97284 3.299049 35.74493 8.374741 2.37103.313857 4.14026 1.933166 7.65377-.23131 2.75184-1.908952 3.01342-4.930733 3.65165-7.475944" fill="url(#c)"/><path d="m428.11427 166.84835-.1962 32.42405c-1.73212.46017-2.29225-.0969-10.47554 3.60732-23.70922 17.82855-48.99525 21.64535-76.82308 2.87557l12.87282-3.88449c28.21056 25.48538 72.83832-1.03689 57.28018-34.82212l8.03058-3.60077" fill="url(#d)" opacity=".623461"/><path d="m433.11304 222.6852 4.39231-3.47124c-1.11329-3.38506-2.23351-6.74477-2.96448-11.52952l-8.08809 2.58882c2.87608 4.57508 4.75686 8.48596 6.66026 12.41194z" fill="url(#f)"/></g><path d="m396.20782 162.59798 5.56686-2.78738c23.09288 4.34622 20.86192 5.15333 26.33959 7.03775 9.79709-3.20499 19.87958-7.06565 28.22406-6.93342l4.95239-2.87256h-65.7821z" fill="#fff" fill-opacity=".844916" opacity=".791456"/><path d="m431.55856 85.459861-.099 44.220199-8.27628 2.31215c-16.14086-66.077919-93.4892-31.00713-83.81866 2.83324l-33.82927-6.80743c-.92093-12.94907 43.67455-61.131205 103.01691-36.418129 4.28442 1.784245 9.86553 3.389625 10.17967 2.182483 3.37963-3.13634 5.92967-6.608044 12.82663-8.322513z" style="opacity:.449094;fill-opacity:1;stroke:#fff;stroke-width:2;stroke-linecap:round;stroke-linejoin:round;stroke-opacity:.000832;fill:url(#e)"/></g><g filter="url(#b)"><path d="m199.19403 213.31546v12.28787h-79.20841v-12.28787c7.87403.3484 13.00208-2.95805 15.38413-5.91935 2.38206-2.96129 3.5731-8.97095 3.5731-18.02903v-111.035251c0-9.319351-1.19104-15.372574-3.5731-18.159669-2.31589-2.787096-7.44393-6.049999-15.38413-5.788708v-11.81391h79.85692v11.81391c-7.54319-.348389-13.85402 2.870967-16.23608 5.658063-2.3159 2.787095-3.47384 8.883865-3.47384 18.290314v111.035251c0 9.23225 1.15794 15.28548 3.47384 18.15969 2.38206 2.87419 8.04439 6.13709 15.58757 5.78869z" fill="#e60002" stroke="#8b0000" stroke-opacity=".941176" stroke-width="2"/><path d="m122.4251 222.75745 3.59181-4.45674c9.23541-.42079 18.80653-1.64578 33.09182-14.1637 11.6741 7.33734 23.24241 14.0368 33.78806 14.56986l6.29724-5.39141v12.28787h-79.20841z" fill="#d61a20"/><g fill="#fff"><path d="m125.339 50.040671-3.77641-6.405758h75.54035l-2.77885 3.952061c-17.85485 2.309076-27.49327 8.513825-34.49692 15.967803-11.21825-7.063904-21.81688-11.837806-34.48817-13.514106z" fill-opacity=".7"/><path d="m122.44552 51.227296-.3999-7.263212h75.24906c-1.70943 1.687754-2.55208 3.406156-1.63312 6.243184-9.62155 1.469136-17.1254 5.658659-19.41236 16.549718l-.18872 75.447494c-.22405 1.91745-.0117 1.78329-1.8024.11263l-31.24039-19.90042v-57.226785c-3.59925-12.72364-11.15923-15.63774-20.57217-13.962609z" fill-opacity=".6"/><path d="m122.44552 51.227296-.3999-7.263212 37.78155.337216c0 43.593294 0 130.21444-.71844 159.83571-6.49996 6.32711-19.60097 14.85101-33.09182 14.1637l-3.59181 4.45674.15606-7.92657c6.9758-2.25681 14.90851-1.59769 18.24966-11.74847l-.28694-137.892505c.0987-10.767386-8.68542-15.63774-18.09836-13.962609z" fill-opacity=".501522"/></g><path d="m196.76371 215.46075-3.86692 3.24612c-11.48662-1.24107-16.14055-4.80037-22.13154-7.62188l9.07332-6.51369c4.5193 7.19722 10.67486 9.19385 16.92514 10.88945z" fill="url(#a)" opacity=".70252"/></g></g></svg>