<?xml version="1.0" encoding="UTF-8" standalone="no"?>
<svg
   id="svg112"
   version="1.1"
   width="241"
   height="88"
   sodipodi:docname="RtCW-wordmark-2-w.svg"
   inkscape:version="1.1.2 (0a00cf5339, 2022-02-04)"
   xmlns:inkscape="http://www.inkscape.org/namespaces/inkscape"
   xmlns:sodipodi="http://sodipodi.sourceforge.net/DTD/sodipodi-0.dtd"
   xmlns="http://www.w3.org/2000/svg"
   xmlns:svg="http://www.w3.org/2000/svg"
   xmlns:rdf="http://www.w3.org/1999/02/22-rdf-syntax-ns#"
   xmlns:cc="http://creativecommons.org/ns#"
   xmlns:dc="http://purl.org/dc/elements/1.1/">
  <sodipodi:namedview
     id="namedview43"
     pagecolor="#ffffff"
     bordercolor="#666666"
     borderopacity="1.0"
     inkscape:pageshadow="2"
     inkscape:pageopacity="0.0"
     inkscape:pagecheckerboard="0"
     showgrid="false"
     inkscape:zoom="5.3195021"
     inkscape:cx="101.88924"
     inkscape:cy="72.75117"
     inkscape:window-width="1920"
     inkscape:window-height="1011"
     inkscape:window-x="0"
     inkscape:window-y="32"
     inkscape:window-maximized="1"
     inkscape:current-layer="svg112" />
  <defs
     id="defs116" />
  <metadata
     id="metadata2">
    <rdf:RDF>
      <cc:Work
         rdf:about="">
        <dc:format>image/svg+xml</dc:format>
        <dc:type
           rdf:resource="http://purl.org/dc/dcmitype/StillImage" />
      </cc:Work>
    </rdf:RDF>
  </metadata>
  <path
     id="path4"
     d="m 78.3858,35.935 v 38.5299 l 7.1255,-7.126 V 28.8105 l -7.1255,7.1245 m 17.6816,-2.46237 v 9.94 h 8.53174 l -4.398,4.3105 H 96.0674 v 19.8794 l -6.774,6.774 v -26.6534 h -2.02288 v -4.3105 h 2.02288 v -7.30125 l 6.86137,-6.86088 h 8.09275 l -4.22213,4.22213 h -3.958 m -29.2051,9.94 h 8.09275 v 15.2188 l -8.88425,8.88375 h -8.79687 v -14.5141 l 9.58837,-9.58837 m 93.9468,-7.30125 v 7.30125 h -1.84625 l -4.31125,4.3105 h 6.1575 v 26.4771 l 6.95,-6.94925 v -19.5279 h 3.51875 l 4.31,-4.3105 h -7.82875 v -14.1621 l -6.95,6.86088 m -22.6075,11.5239 4.31,-4.22262 h 12.315 l -4.31,4.3105 h -5.98125 l 12.2275,12.2275 v 3.78125 l -3.7825,3.78325 h -14.7788 v -4.3105 h 11.875 l -11.875,-11.7876 v -3.78175 m 59.465,-11.084 -6.5975,6.50925 v -6.86025 l 6.5975,-6.50987 v 6.86087 m -75.3868,6.86138 h 13.8118 v 24.1025 h -7.39 v -19.792 h -3.16625 v 19.5279 l -7.38875,7.38913 v -27.0928 l 4.13325,-4.13475 m -108.02,-4.399 h 18.9126 v 24.191 h 3.07863 v -16.9771 l 7.21337,-7.126 v 24.1031 h 3.07863 v -24.191 h 19.7919 l -4.48526,4.399 h -8.00537 v 23.9262 l -7.30125,7.30125 v -7.125 h -3.16663 l -7.30124,7.38912 0.17587,-7.38912 h -3.07863 l -7.30124,7.30075 0.17624,-31.4032 h -7.38875 l -4.39887,-4.399 m 183.407,1.84725 v 26.6542 h -6.5975 v -20.0566 l 6.5975,-6.59762 m 10.8188,6.86225 v 19.5279 l -7.3,7.38913 v -27.0928 l 4.13375,-4.13475 h 13.8112 v 24.1025 h -7.38875 v -19.792 h -3.25625 m -20.8475,-4.3105 v 4.48575 l -8.88375,8.7965 v 6.50975 h 8.88375 v 4.3105 h -16.185 v -14.7792 l 9.4125,-9.32325 h 6.7725 m -72.131,0 v 4.48575 l -8.88375,8.7965 v 6.50975 h 8.88375 v 4.3105 h -16.0971 v -14.7792 l 9.32425,-9.32325 h 6.77288"
     style="fill:none" />
  <path
     style="fill:none"
     id="path6"
     d="M 0,88 H 241 V 0 H 0" />
  <path
     id="path8"
     d="m 85.5113,28.8105 -7.1255,7.1245 v 38.5299 l 7.1255,-7.126 V 28.8105 m 10.5561,4.66213 h 3.95799 l 4.22213,-4.22213 h -8.09275 l -6.86137,6.86088 v 7.30125 h -2.02288 v 4.3105 h 2.02288 v 26.6534 l 6.774,-6.774 v -19.8794 h 4.13374 l 4.398,-4.3105 H 96.0674 v -9.94 m -29.2051,9.94 -9.58837,9.58837 v 14.5141 h 8.79687 l 8.88425,-8.88375 V 43.41255 H 66.8623 Z m -2.19875,5.27775 2.90287,-2.90225 v 16.6245 l -2.90287,2.90325 v -16.6255 m 103.096,-19.4399 -6.95,6.86088 v 7.30125 h -1.84625 l -4.31125,4.3105 h 6.1575 v 26.4771 l 6.95,-6.94925 v -19.5279 h 3.51875 l 4.31,-4.3105 h -7.82875 v -14.1621 m -29.5575,18.3847 v 3.78175 l 11.875,11.7876 h -11.875 v 4.3105 h 14.7788 l 3.7825,-3.78325 v -3.78125 l -12.2275,-12.2275 h 5.98125 l 4.31,-4.3105 h -12.315 l -4.31,4.22262 m -22.6948,-4.22262 h -6.77288 l -9.32425,9.32325 v 14.7792 h 16.0971 v -4.3105 h -8.88375 v -6.50975 l 8.88375,-8.7965 v -4.48575 z m -4.57362,4.3105 -4.31013,4.3985 v -4.3985 h 4.31013 m 11.3466,-4.3105 -4.13325,4.13475 v 27.0928 l 7.38875,-7.38913 v -19.5279 h 3.16625 v 19.792 h 7.39 v -24.1025 h -13.8118 m -108.02,-4.399 4.39887,4.399 h 7.38875 l -0.17624,31.4032 7.30124,-7.30075 h 3.07863 l -0.17587,7.38912 7.30124,-7.38912 h 3.16663 v 7.125 l 7.30125,-7.30125 v -23.9262 h 8.00537 l 4.48525,-4.399 h -19.7919 v 24.191 h -3.07863 v -24.1031 l -7.21337,7.126 v 16.9771 h -3.07863 v -24.191 h -18.9126 m 183.407,1.84725 -6.5975,6.59762 V 67.515 h 6.5975 V 40.8608 m 10.8188,6.86225 h 3.25625 v 19.792 h 7.38875 v -24.1025 h -13.8112 l -4.13375,4.13475 v 27.0928 l 7.3,-7.38913 v -19.5279 m -20.8475,-4.3105 h -6.7725 l -9.4125,9.32325 v 14.7792 h 16.185 v -4.3105 h -8.88375 v -6.50975 l 8.88375,-8.7965 v -4.48575 z m -8.88375,4.3105 h 4.31 l -4.31,4.3985 v -4.3985 m 18.9125,-11.1719 V 29.6903 l -6.5975,6.50987 v 6.86025 l 6.5975,-6.50925"
     style="fill:#9a1d11" />
  <path
     style="fill:#ffffff"
     id="path10"
     d="m 229.6343,45.56785 h -0.51 v -3.30663 l -1.0675,2.25 h -0.30375 l -1.06,-2.25 v 3.30663 h -0.47625 v -3.83688 h 0.69625 l 1.0225,2.13663 0.99,-2.13663 h 0.70875 v 3.83688 m -3.9525,-3.38325 h -1.37125 v 3.38325 h -0.51 V 42.1846 h -1.37125 v -0.45363 h 3.2525 v 0.45363" />
  <path
     id="path12"
     d="m 77.4179,15.0879 h -2.99013 v 5.71825 H 72.58002 V 15.0879 h -2.81488 v 6.59812 h 7.65275 V 15.0879 m 11.524,4.66162 -1.31988,-1.231 1.31988,-1.31925 v -2.11138 h -7.56501 v 9.1485 l 2.55088,-2.55038 v -2.63912 h 2.11175 v 2.55075 h 2.90238 z m -5.01413,-3.78175 h 2.11175 v 2.11138 h -2.11175 v -2.11138 m 15.8335,-0.96775 h -2.815 v 1.935 l -1.935,-1.935 h -2.90238 v 9.67625 l 2.90238,-2.90288 v -5.98188 l 1.935,1.84712 v 4.04738 h 2.815 v -6.686 m -57.7925,3.43012 1.31925,-1.23088 v -2.11138 h -7.56538 v 9.06012 l 2.55075,-2.462 v -2.63912 h 2.11138 v 2.46188 h 2.90325 V 19.7495 l -1.31925,-1.31938 z m -3.69538,-2.46238 h 2.11138 v 2.11138 h -2.11138 v -2.11138 m 11.0845,-0.08837 h 4.66163 v -0.7915 h -7.565 V 21.686 h 7.565 v -0.7925 h -4.66163 v -1.935 h 4.66163 v -0.879375 h -4.66163 v -2.19975 m 8.708,0 h 2.28713 v 8.53275 l 2.99075,-2.99075 v -5.542 h 2.3755 v -0.7915 h -7.65338 v 0.7915 m 87.7894,0.08837 V 15.08787 h -7.65375 v 6.59812 h 7.65375 v -0.96825 h -4.6625 v -4.75 h 4.6625 m 8.79625,2.90188 V 21.686 h 2.99125 v -6.59812 h -7.74125 V 21.686 h 2.90375 v -2.81638 z m 0,-2.99025 v 2.3755 h -1.84625 v -2.3755 h 1.84625 m 8.9725,0 h 4.75 v -0.7915 h -7.6525 v 3.78175 h 4.75 v 1.9365 h -4.75 v 0.96725 h 7.6525 v -3.69425 h -4.75 v -2.19975 m -52.3394,0.08837 v 8.44438 l 2.99075,-2.90338 v -5.541 h 2.46338 v -0.7925 h -7.65338 v 0.7925 h 2.19925 m 16.1856,-0.879875 h -7.5645 v 6.59812 h 7.5645 z m -3.07875,0.879875 v 4.75 h -1.58337 v -4.75 h 1.58337 m 55.6825,-0.7925 h -7.65375 v 0.7925 h 2.2875 v 8.44438 l 2.99,-2.90338 v -5.541 h 2.37625 v -0.7925 m 10.7312,6.51075 v -0.96825 h -4.6625 v -5.5425 h -2.99 v 6.51075 h 7.6525 m 11.6112,-5.80662 v -0.7915 h -7.4775 v 6.59812 h 7.4775 v -0.7925 h -4.57375 v -1.935 h 4.57375 v -0.879375 h -4.57375 v -2.19975 h 4.57375"
     style="fill:#ffffff" />
  <g
     id="g16"
     transform="matrix(0.125,0,0,-0.125,-0.32471,137.41648)">
    <path
       id="path14"
       d="m 1503.7,752.031 v -35.887 l -71.07,-70.371 v -52.078 h 71.07 v -34.484 h -129.48 v 118.234 l 75.3,74.586 z"
       style="fill:none;stroke:#ffffff;stroke-width:7.03763008;stroke-linecap:round;stroke-linejoin:round;stroke-miterlimit:2.61310005" />
  </g>
  <path
     id="path18"
     d="m 178.754,47.723 v 4.3985 l 4.31,-4.3985 h -4.31"
     style="fill:none" />
  <g
     id="g22"
     transform="matrix(0.125,0,0,-0.125,-0.32471,137.41648)">
    <path
       id="path20"
       d="m 1432.63,717.547 v -35.188 l 34.48,35.188 z"
       style="fill:none;stroke:#ffffff;stroke-width:7.03763008;stroke-linecap:round;stroke-linejoin:round;stroke-miterlimit:2.61310005" />
  </g>
  <g
     id="g26"
     transform="matrix(0.125,0,0,-0.125,-0.32471,137.41648)">
    <path
       id="path24"
       d="M 1670.48,717.547 V 561.324 l -58.4,-59.113 v 216.742 l 33.07,33.078 h 110.49 v -192.82 h -59.11 v 158.336 z"
       style="fill:none;stroke:#ffffff;stroke-width:7.03763008;stroke-linecap:round;stroke-linejoin:round;stroke-miterlimit:2.61310005" />
  </g>
  <g
     id="g30"
     transform="matrix(0.125,0,0,-0.125,-0.32471,137.41648)">
    <path
       id="path28"
       d="M 1583.93,772.445 V 559.211 h -52.78 v 160.453 z"
       style="fill:none;stroke:#ffffff;stroke-width:7.03763008;stroke-linecap:round;stroke-linejoin:round;stroke-miterlimit:2.61310005" />
  </g>
  <g
     id="g34"
     transform="matrix(0.125,0,0,-0.125,-0.32471,137.41648)">
    <path
       id="path32"
       d="M 116.672,787.222 H 267.973 V 593.695 h 24.629 v 135.816 l 57.707,57.008 V 593.695 h 24.629 v 193.527 h 158.336 l -35.883,-35.191 h -64.043 v -191.41 l -58.41,-58.41 v 57 h -25.332 l -58.411,-59.114 1.407,59.114 h -24.629 l -58.41,-58.406 1.41,251.226 h -59.11 z"
       style="fill:none;stroke:#ffffff;stroke-width:7.03763008;stroke-linecap:round;stroke-linejoin:round;stroke-miterlimit:2.61310005" />
  </g>
  <g
     id="g38"
     transform="matrix(0.125,0,0,-0.125,-0.32471,137.41648)">
    <path
       id="path36"
       d="m 980.836,752.031 h 110.494 v -192.82 h -59.11 v 158.336 h -25.34 V 561.324 l -59.11,-59.113 v 216.742 z"
       style="fill:none;stroke:#ffffff;stroke-width:7.03763008;stroke-linecap:round;stroke-linejoin:round;stroke-miterlimit:2.61310005" />
  </g>
  <g
     id="g42"
     transform="matrix(0.125,0,0,-0.125,-0.32471,137.41648)">
    <path
       id="path40"
       d="m 1583.93,806.922 -52.78,-52.075 v 54.883 l 52.78,52.078 z"
       style="fill:none;stroke:#ffffff;stroke-width:7.03763008;stroke-linecap:round;stroke-linejoin:round;stroke-miterlimit:2.61310005" />
  </g>
  <path
     id="path44"
     d="m 110.933,47.723 h -4.31013 v 4.3985 L 110.933,47.723"
     style="fill:none" />
  <g
     id="g48"
     transform="matrix(0.125,0,0,-0.125,-0.32471,137.41648)">
    <path
       id="path46"
       d="M 890.063,717.547 H 855.582 V 682.359 Z"
       style="fill:none;stroke:#ffffff;stroke-width:7.03763008;stroke-linecap:round;stroke-linejoin:round;stroke-miterlimit:2.61310005" />
  </g>
  <g
     id="g52"
     transform="matrix(0.125,0,0,-0.125,-0.32471,137.41648)">
    <path
       id="path50"
       d="m 1108.22,718.25 34.47,33.781 h 98.53 l -34.49,-34.484 h -47.85 l 97.82,-97.821 v -30.25 l -30.26,-30.265 h -118.22 v 34.484 h 95 l -95,94.301 z"
       style="fill:none;stroke:#ffffff;stroke-width:7.03763008;stroke-linecap:round;stroke-linejoin:round;stroke-miterlimit:2.61310005" />
  </g>
  <g
     id="g56"
     transform="matrix(0.125,0,0,-0.125,-0.32471,137.41648)">
    <path
       id="path54"
       d="m 1289.07,810.441 v -58.41 h -14.77 l -34.49,-34.484 h 49.26 V 505.73 l 55.6,55.594 v 156.223 h 28.15 l 34.48,34.484 h -62.63 v 113.297 z"
       style="fill:none;stroke:#ffffff;stroke-width:7.03763008;stroke-linecap:round;stroke-linejoin:round;stroke-miterlimit:2.61310005" />
  </g>
  <g
     id="g60"
     transform="matrix(0.125,0,0,-0.125,-0.32471,137.41648)">
    <path
       id="path58"
       d="m 537.496,752.031 h 64.742 v -121.75 l -71.074,-71.07 h -70.375 v 116.113 z"
       style="fill:none;stroke:#ffffff;stroke-width:7.03763008;stroke-linecap:round;stroke-linejoin:round;stroke-miterlimit:2.61310005" />
  </g>
  <path
     id="path62"
     d="m 64.6635,48.69 v 16.6255 l 2.90287,-2.90325 V 45.78775 L 64.6635,48.69"
     style="fill:none" />
  <g
     id="g66"
     transform="matrix(0.125,0,0,-0.125,-0.32471,137.41648)"
     style="fill:none">
    <path
       id="path64"
       d="M 519.906,709.808 V 576.804 l 23.223,23.227 v 132.996 z"
       style="fill:none;stroke:#ffffff;stroke-width:7.03763008;stroke-linecap:round;stroke-linejoin:round;stroke-miterlimit:2.61310005" />
  </g>
  <g
     id="g70"
     transform="matrix(0.125,0,0,-0.125,-0.32471,137.41648)">
    <path
       id="path68"
       d="m 771.137,831.55 v -79.519 h 68.254 l -35.184,-34.484 h -33.07 V 558.512 L 716.946,504.32 v 213.227 h -16.184 v 34.484 h 16.184 v 58.41 l 54.89,54.887 h 64.742 L 802.801,831.55 Z"
       style="fill:none;stroke:#ffffff;stroke-width:7.03763008;stroke-linecap:round;stroke-linejoin:round;stroke-miterlimit:2.61310005" />
  </g>
  <g
     id="g74"
     transform="matrix(0.125,0,0,-0.125,-0.32471,137.41648)">
    <path
       id="path72"
       d="M 629.684,811.851 V 503.613 l 57.004,57.008 v 308.226 z"
       style="fill:none;stroke:#ffffff;stroke-width:7.03763008;stroke-linecap:round;stroke-linejoin:round;stroke-miterlimit:2.61310005" />
  </g>
  <g
     id="g110"
     transform="matrix(0.125,0,0,-0.125,-0.32471,137.41648)">
    <path
       id="path108"
       d="m 926.653,752.031 v -35.887 l -71.071,-70.371 v -52.078 h 71.071 V 559.211 H 797.875 v 118.234 l 74.594,74.586 z"
       style="fill:none;stroke:#ffffff;stroke-width:7.03763008;stroke-linecap:round;stroke-linejoin:round;stroke-miterlimit:2.61310005" />
  </g>
</svg>
