<svg height="159.44882" width="620.07874" xmlns="http://www.w3.org/2000/svg"><g transform="translate(0 -17.716565)"><path d="m72.070639 47.611637v95.000003l448.000001-1v-94.000003z" fill="#f80000"/><g fill="#fff"><path d="m99.070639 61.611637h16.000001v67.000003h-16.000001z"/><path d="m378.07064 61.611637v14h-61v-14z"/><path d="m201.07064 86.611637-12 27.000003h28l-26-52.000003h17l33 67.000003h-72v-5l19-37.000003z"/><path d="m263.07064 128.61164h-17v-67.000003h38c14.39203.33064 22 10.96857 22 22v45.000003h-16v-37.000003c0-8.445292-2.61512-16-16-16h-11z"/><path d="m317.07064 87.610907c-.0706 18.554483-.0557 24.444253 0 41.000003h61v-14h-44v-13h44v-14.000003z"/><path d="m412.07064 61.611637h19l-30 32 33 35.000003h-21l-27-27v-14.000003z"/></g><path d="m525.6864 125.73298c0-3.86977 1.50292-7.49693 4.24252-10.23654 2.73962-2.73369 6.3668-4.23071 10.24248-4.23071 3.86978 0 7.49694 1.49702 10.23654 4.23071 2.7396 2.73961 4.24255 6.36677 4.24255 10.23654 0 7.98807-6.49695 14.48501-14.47909 14.48501-3.87568 0-7.50286-1.50295-10.24248-4.24255-2.7396-2.72777-4.24252-6.36678-4.24252-10.24246m14.485 16.84c4.49106 0 8.72177-1.75146 11.89924-4.923 3.17747-3.18931 4.93484-7.42003 4.93484-11.917 0-4.48515-1.75737-8.70993-4.93484-11.89924-3.17747-3.18339-7.40818-4.92893-11.89924-4.92893-9.29573 0-16.83409 7.5502-16.83409 16.82817 0 4.49697 1.75146 8.72769 4.92893 11.917 3.18338 3.17154 7.40818 4.923 11.90516 4.923" fill="#f80000"/><path d="m535.84483 125.08862h4.93484c.79881 0 1.54435 0 2.28401-.18934 1.71595-.42011 2.32539-1.6627 2.32539-3.0118 0-.47336-.0534-1.74553-1.11241-2.61536-.97631-.81654-2.18932-.79288-3.62125-.79288h-4.81058zm0 2.06505v7.92296h-2.43783v-18.66835h6.9348c2.58578.0356 4.12421.0356 5.56796 1.14199 1.38462 1.02955 1.96448 2.59168 1.96448 4.30761 0 4.3609-3.52065 4.97627-4.42596 5.13602l5.24253 8.08273h-2.95855l-5.07685-7.92296z" fill="#f80000"/><g fill="#fff"><path d="m144.07064 61.611637h19l-30 32 33 35.000003h-21l-27-27v-14.000003z"/><path d="m40 641.59448c0 1.38071-1.119288 2.5-2.5 2.5s-2.5-1.11929-2.5-2.5 1.119288-2.5 2.5-2.5 2.5 1.11929 2.5 2.5z" fill-rule="evenodd" transform="matrix(4.4 0 0 5.1999961 -92.929361 -3241.677)"/><path d="m450 661.59448c0 1.38071-1.11929 2.5-2.5 2.5s-2.5-1.11929-2.5-2.5 1.11929-2.5 2.5-2.5 2.5 1.11929 2.5 2.5z" fill-rule="evenodd" transform="matrix(14.199933 0 0 14.199933 -5885.8416 -9299.4137)"/></g><path d="m450 661.59448c0 1.38071-1.11929 2.5-2.5 2.5s-2.5-1.11929-2.5-2.5 1.11929-2.5 2.5-2.5 2.5 1.11929 2.5 2.5z" fill="#f80000" fill-rule="evenodd" transform="matrix(7.3999987 0 0 7.8000009 -2842.9288 -5065.3258)"/></g></svg>