<svg height="1000" viewBox="0 0 920.66302 1000" width="920.66302" xmlns="http://www.w3.org/2000/svg"><g transform="translate(0 -52.362122)"><g fill="#00f" fill-rule="evenodd" transform="matrix(2.3182223 0 0 2.3182223 -743.36683 -2214.5792)"><path d="m637.96998 977.8792-16.864 47.0075c-28.13595 72.6787-77.85015 58.2231-115.84632 70.0639-26.13605 8.1448-40.88182 35.687-51.88554 65.0164l-13.45269 41.8982h-119.25898l19.38353-53.8633c26.73975-67.6894 83.40155-50.6262 120.58358-68.3656 24.24736-11.5683 37.53582-35.4825 44.21696-60.4168l14.25706-41.3403z" fill="#ff7b18"/><path d="m399.73896 1311.1509 16.864-47.0075c28.13595-72.6787 76.78234-58.1843 114.26982-71.5485 26.38859-9.4075 39.16713-25.43 53.46204-63.5318l13.45269-41.8982h120.01659l-19.40148 52.9323c-35.08513 73.042-83.21828 49.6561-120.43038 67.3323-22.22705 10.5581-39.32154 40.3039-46.00268 65.2382l-13.3642 38.4832z" fill="#ff0018"/></g><path d="m24.330073 897.28038v152.99892h42.719935v-78.15286l49.735832 76.29536h49.141l-54.4354-82.98793 52.27281-68.15349h-46.6602l-50.054042 65.25245v-65.25245z"/><path d="m322.07805 897.28038v152.99892h39.9346v-111.99753l50.14621 111.99753h58.20597v-152.99892h-39.93437v113.62872l-49.37422-113.62872z"/><path d="m538.46991 897.28038-59.97853 152.99892h39.55483l10.6043-30.5306h61.4151l10.59674 30.5306h45.97015l-59.8632-152.99892zm20.90101 34.03707 20.70082 59.64257h-41.4198z"/><path d="m655.99166 897.28038v152.99872h35.75488v-123.23062l34.35894 123.23012h34.91303l34.29419-123.23012v123.23012h36.89507v-152.99871h-62.19719l-25.16668 101.73274-26.39195-101.73274z"/><path d="m853.06099 897.28038v152.99872h42.72017v-152.99872z"/><path d="m237.06367 896.11826c-40.37704 0-79.50967 22.40243-79.50967 73.83304 0 65.6149 37.8103 82.4108 82.13638 82.4108 31.19248 0 72.7787-16.1389 72.7787-81.75427 0-51.75882-43.89352-74.48957-75.40541-74.48957zm.65676 29.46075c25.89221 0 31.0947 27.76511 31.0947 49.0793 0 21.3143-6.66866 48.33259-31.0947 48.33259-22.85864 0-36.01993-13.8846-36.01993-48.33259 0-34.4478 10.12772-49.0793 36.01993-49.0793z"/></g></svg>