<svg enable-background="new 3 136.909 270 82.35" height="82.35" viewBox="3 136.909 270 82.35" width="270" xmlns="http://www.w3.org/2000/svg" xmlns:xlink="http://www.w3.org/1999/xlink"><linearGradient id="a" gradientUnits="userSpaceOnUse" x1="134.21683" x2="134.61504" y1="137.42271" y2="218.86076"><stop offset="0" stop-color="#abdfff"/><stop offset=".50858116" stop-color="#66d2ff"/><stop offset="1" stop-color="#00d3ff"/></linearGradient><linearGradient id="b" gradientUnits="userSpaceOnUse" x1="134.21683" x2="134.61504" y1="137.42271" y2="218.86076"><stop offset="0" stop-color="#abdfff"/><stop offset="1" stop-color="#00d3ff"/></linearGradient><g fill="url(#b)"><path d="m30.09546 204.46515c-6.309-7.225-9.388-16.951-9.387-27.437.002-7.001 1.363-14.389 4.107-21.802 1.076-2.91 4.309-4.396 7.218-3.319 2.91 1.076 4.397 4.309 3.319 7.219-2.32 6.266-3.409 12.366-3.407 17.902.002 8.335 2.439 15.287 6.605 20.039 4.195 4.729 10.087 7.654 18.639 7.703 2.787 0 5.846-.332 9.18-1.07 3.029-.668 6.028 1.246 6.697 4.275.668 3.031-1.244 6.029-4.274 6.697-4.05.895-7.92 1.334-11.602 1.334-.063 0-.124.002-.186.002-11.194-.002-20.664-4.336-26.909-11.543z"/><path d="m68.97846 184.63115c.004-17.6 14.265-31.862 31.867-31.865 17.599.003 31.861 14.265 31.866 31.865h-.001c-.004 17.604-14.266 31.863-31.865 31.867-17.602-.004-31.863-14.264-31.867-31.867zm11.237 0c.02 11.393 9.237 20.609 20.63 20.631 11.389-.021 20.608-9.238 20.629-20.631h-.002c-.019-11.389-9.238-20.606-20.627-20.628-11.391.022-20.61 9.239-20.63 20.628z"/><path d="m157.58746 213.74615c-1.918-1.084-3.554-2.5-5.073-4.129-3.017-3.268-5.636-7.445-8.307-12.416-5.301-9.924-10.676-23.086-16.948-37.551v.002c-1.234-2.847.073-6.156 2.92-7.391 2.848-1.234 6.156.074 7.391 2.921 4.144 9.565 7.874 18.474 11.334 26.044 3.448 7.564 6.672 13.811 9.539 17.854 1.889 2.709 3.645 4.34 4.65 4.869.503.277.76.328.936.34.013-.004.028-.01.049-.018.141-.053.438-.197.833-.48.798-.555 1.95-1.652 3.189-3.174 2.507-3.047 5.378-7.713 8.17-12.971 5.617-10.551 11.023-23.438 14.884-32.047 1.271-2.83 4.596-4.094 7.427-2.824 2.831 1.271 4.096 4.595 2.825 7.427-2.473 5.502-5.698 13.068-9.292 20.76-3.604 7.701-7.552 15.523-11.687 21.791-2.793 4.184-5.555 7.707-9.017 10.205-1.979 1.396-4.386 2.555-7.306 2.572-.009 0-.019 0-.026 0-2.356.001-4.598-.71-6.491-1.784z"/></g><path d="m204.36646 205.73415c-5.375-6.164-7.414-14.008-7.416-21.465.014-8.898 4.037-16.559 9.321-22.019 5.346-5.448 11.925-9.059 18.738-9.476.485-.027.965-.037 1.438-.038 4.446.011 9.197.956 13.684 2.808 4.463 1.871 8.738 4.648 11.726 8.875 1.979 2.799 3.274 6.342 3.26 10.174.007 3.309-.54 6.424-1.873 9.209-1.32 2.791-3.396 5.066-5.755 6.797-4.765 3.455-10.533 5.348-17.933 7.934h.002c-2.936 1.01-6.133-.549-7.144-3.482-1.01-2.934.55-6.135 3.485-7.143 5.511-1.891 9.784-3.43 12.586-4.916 2.853-1.527 3.962-2.691 4.618-4.031.442-.934.773-2.235.776-4.368-.013-1.402-.393-2.506-1.23-3.73-.837-1.206-2.204-2.443-3.965-3.502-3.494-2.149-8.521-3.418-12.237-3.387-.301 0-.585.008-.858.023-2.845.063-7.637 2.258-11.242 6.066-3.665 3.79-6.174 8.829-6.159 14.206-.003 5.463 1.525 10.541 4.633 14.064 3.124 3.498 7.903 6.1 16.539 6.156 1.799 0 3.758-.125 5.885-.393 3.079-.391 5.891 1.787 6.282 4.865.39 3.078-1.788 5.891-4.865 6.281-2.557.324-4.987.484-7.302.484-.082 0-.163 0-.245 0-10.903.003-19.431-3.843-24.749-9.992z" fill="url(#a)"/><circle cx="93.587463" cy="146.41016" fill="url(#b)" r="6.411"/><circle cx="109.31246" cy="146.41016" fill="url(#b)" r="6.411"/></svg>