<svg enable-background="new 0 -0.001 566.929 157.78" height="161.47675" viewBox="0 -.001 640.08208 129.1814" width="800.1026" xmlns="http://www.w3.org/2000/svg" xmlns:xlink="http://www.w3.org/1999/xlink"><linearGradient id="a" gradientTransform="translate(-.1797 -875.4102)" gradientUnits="userSpaceOnUse" x1="376.41641" x2="11.77" xlink:href="#w" y1="955.59772" y2="955.59772"/><linearGradient id="b"><stop offset="0" stop-color="#08406f"/><stop offset="1" stop-color="#60c5f5"/></linearGradient><linearGradient id="c" gradientUnits="userSpaceOnUse" x1="82.364246" x2="79.396043" xlink:href="#b" y1="295.712991" y2="292.744788"/><linearGradient id="d" gradientUnits="userSpaceOnUse" x1="121.0058" x2="121.0058" xlink:href="#b" y1="157.7714" y2="153.3144"/><linearGradient id="e" gradientTransform="matrix(1.5084505 0 0 .81874674 -173.69458 -534.42368)" gradientUnits="userSpaceOnUse" x1="251.0645" x2="251.0645" xlink:href="#b" y1="994.89447" y2="990.41602"/><linearGradient id="f" gradientUnits="userSpaceOnUse" x1="191.006125" x2="186.099212" xlink:href="#b" y1="223.093756" y2="223.093756"/><linearGradient id="g" gradientTransform="matrix(.81874674 0 0 .81874674 -18.583461 -534.42368)" gradientUnits="userSpaceOnUse" x1="349.27689" x2="343.57571" xlink:href="#h" y1="904.625" y2="904.625"/><linearGradient id="h" gradientTransform="matrix(.81874674 0 0 .81874674 -18.583461 -534.42368)" gradientUnits="userSpaceOnUse" x1="349.27689" x2="343.57571" xlink:href="#b" y1="904.625" y2="904.625"/><linearGradient id="i" gradientTransform="matrix(.81874674 0 0 .81874674 -18.583461 -534.42368)" gradientUnits="userSpaceOnUse" x1="304.31589" x2="299.9317" xlink:href="#j" y1="927.81049" y2="923.42627"/><linearGradient id="j" gradientTransform="matrix(.81874674 0 0 .81874674 -18.583461 -534.42368)" gradientUnits="userSpaceOnUse" x1="304.31589" x2="299.9317" xlink:href="#b" y1="927.81049" y2="923.42627"/><linearGradient id="k" gradientUnits="userSpaceOnUse" x1="133.684683" x2="130.702898" xlink:href="#b" y1="278.043338" y2="275.061536"/><linearGradient id="l" gradientUnits="userSpaceOnUse" x1="169.28371" x2="164.340035" xlink:href="#b" y1="261.20871" y2="261.20871"/><linearGradient id="m" gradientTransform="matrix(.81874674 0 0 .81874674 86.715785 -562.89414)" gradientUnits="userSpaceOnUse" x1="185.9771" x2="182.33521" xlink:href="#n" y1="992.33008" y2="988.68817"/><linearGradient id="n" gradientTransform="matrix(.81874674 0 0 .81874674 86.715785 -562.89414)" gradientUnits="userSpaceOnUse" x1="185.9771" x2="182.33521" xlink:href="#b" y1="992.33008" y2="988.68817"/><linearGradient id="o" gradientTransform="matrix(.81874674 0 0 .81874674 -152.58346 -533.72197)" gradientUnits="userSpaceOnUse" x1="472.92041" x2="472.92041" xlink:href="#p" y1="969.50983" y2="963.70801"/><linearGradient id="p" gradientTransform="matrix(.81874674 0 0 .81874674 -152.58346 -533.72197)" gradientUnits="userSpaceOnUse" x1="472.92041" x2="472.92041" xlink:href="#b" y1="969.50983" y2="963.70801"/><linearGradient id="q" gradientTransform="matrix(.81874674 0 0 .81874674 48.498419 -534.42368)" gradientUnits="userSpaceOnUse" x1="349.27689" x2="343.57571" xlink:href="#h" y1="904.625" y2="904.625"/><linearGradient id="r" gradientTransform="matrix(.81874674 0 0 .81874674 48.498419 -534.42368)" gradientUnits="userSpaceOnUse" x1="304.31589" x2="299.9317" xlink:href="#j" y1="927.81049" y2="923.42627"/><linearGradient id="s" gradientTransform="matrix(.81874674 0 0 .81874674 153.79768 -562.89414)" gradientUnits="userSpaceOnUse" x1="185.9771" x2="182.33521" xlink:href="#n" y1="992.33008" y2="988.68817"/><linearGradient id="t" gradientUnits="userSpaceOnUse" x1="323.714681" x2="320.472771" xlink:href="#b" y1="268.139764" y2="264.897912"/><linearGradient id="u" gradientTransform="matrix(.81874674 0 0 .81874674 -85.50158 -533.72197)" gradientUnits="userSpaceOnUse" x1="472.92041" x2="472.92041" xlink:href="#p" y1="969.50983" y2="963.70801"/><linearGradient id="v" gradientTransform="translate(-.1797 -875.4102)" gradientUnits="userSpaceOnUse" x1="558.12842" x2="11.77" xlink:href="#w" y1="955.59772" y2="955.59772"/><linearGradient id="w" gradientTransform="translate(-.1797 -875.4102)" gradientUnits="userSpaceOnUse" x1="558.12842" x2="11.77" y1="955.59772" y2="955.59772"><stop offset="0" stop-color="#013a67"/><stop offset="1" stop-color="#6cd1ff"/></linearGradient><linearGradient id="x" gradientUnits="userSpaceOnUse" x1="64.529803" x2="60.585299" xlink:href="#b" y1="63.37892" y2="59.43459"/><linearGradient id="y" gradientUnits="userSpaceOnUse" x1="123.1157" x2="119.4904" xlink:href="#b" y1="138.5" y2="134.8747"/><linearGradient id="z" gradientUnits="userSpaceOnUse" x1="25.5439" x2="25.5439" xlink:href="#b" y1="118.64058" y2="114.32808"/><linearGradient id="A" gradientUnits="userSpaceOnUse" x1="427.51409" x2="427.51409" xlink:href="#b" y1="118.61318" y2="114.14638"/><linearGradient id="B" gradientUnits="userSpaceOnUse" x1="250.8848" x2="250.8848" xlink:href="#b" y1="119.48427" y2="115.00582"/><linearGradient id="C" gradientUnits="userSpaceOnUse" x1="522.10112" x2="522.10112" xlink:href="#b" y1="6.7773" y2="1.91402"/><linearGradient id="D" gradientUnits="userSpaceOnUse" x1="514.83348" x2="514.83348" xlink:href="#b" y1="31.30458" y2="27.09468"/><linearGradient id="E" gradientUnits="userSpaceOnUse" x1="459.1899" x2="459.1899" xlink:href="#b" y1="74.82033" y2="71.10152"/><linearGradient id="F" gradientUnits="userSpaceOnUse" x1="489.98091" x2="489.98091" xlink:href="#b" y1="49.70113" y2="44.14638"/><linearGradient id="G" gradientUnits="userSpaceOnUse" x1="74.209498" x2="70.666301" xlink:href="#b" y1="93.415" y2="89.87178"/><linearGradient id="H" gradientUnits="userSpaceOnUse" x1="120.0757" x2="114.7095" xlink:href="#b" y1="28.95888" y2="28.95888"/><linearGradient id="I" gradientUnits="userSpaceOnUse" x1="172.9014" x2="166.2412" xlink:href="#b" y1="44.55068" y2="44.55068"/><linearGradient id="J" gradientUnits="userSpaceOnUse" x1="255.8086" x2="249.8154" xlink:href="#b" y1="49.80562" y2="49.80562"/><linearGradient id="K" gradientUnits="userSpaceOnUse" x1="349.09719" x2="343.39601" xlink:href="#b" y1="29.2148" y2="29.2148"/><linearGradient id="L" gradientUnits="userSpaceOnUse" x1="400.78069" x2="394.9839" xlink:href="#b" y1="43.03609" y2="43.03609"/><linearGradient id="M" gradientUnits="userSpaceOnUse" x1="101.5854" x2="96.474597" xlink:href="#b" y1="93.52828" y2="93.52828"/><linearGradient id="N" gradientUnits="userSpaceOnUse" x1="121.0688" x2="117.5167" xlink:href="#b" y1="98.42769" y2="94.87563"/><linearGradient id="O" gradientUnits="userSpaceOnUse" x1="553.25627" x2="549.58757" xlink:href="#b" y1="17.0898" y2="13.42092"/><linearGradient id="P" gradientUnits="userSpaceOnUse" x1="145.81439" x2="140.416" xlink:href="#b" y1="94.46871" y2="94.46871"/><linearGradient id="Q" gradientUnits="userSpaceOnUse" x1="148.5972" x2="144.10939" xlink:href="#b" y1="31.59963" y2="27.11177"/><linearGradient id="R" gradientUnits="userSpaceOnUse" x1="215.666" x2="211.5083" xlink:href="#b" y1="46.91109" y2="42.75337"/><linearGradient id="S" gradientUnits="userSpaceOnUse" x1="304.13619" x2="299.752" xlink:href="#b" y1="52.40029" y2="48.01607"/><linearGradient id="T" gradientUnits="userSpaceOnUse" x1="376.79149" x2="372.58361" xlink:href="#b" y1="31.45113" y2="27.24282"/><linearGradient id="U" gradientUnits="userSpaceOnUse" x1="488.55809" x2="485.10189" xlink:href="#b" y1="59.85439" y2="56.39839"/><linearGradient id="V" gradientUnits="userSpaceOnUse" x1="499.62841" x2="495.66881" xlink:href="#b" y1="103.96681" y2="100.00728"/><linearGradient id="W" gradientUnits="userSpaceOnUse" x1="441.6577" x2="437.37499" xlink:href="#b" y1="46.20308" y2="41.92043"/><linearGradient id="X" gradientUnits="userSpaceOnUse" x1="486.67919" x2="481.56511" xlink:href="#b" y1="41.23921" y2="36.12508"/><linearGradient id="Y" gradientUnits="userSpaceOnUse" x1="185.7974" x2="182.15551" xlink:href="#b" y1="116.91988" y2="113.27797"/><linearGradient id="Z" gradientUnits="userSpaceOnUse" x1="302.8481" x2="299.2076" xlink:href="#b" y1="93.72939" y2="90.08888"/><linearGradient id="aa" gradientUnits="userSpaceOnUse" x1="349.70949" x2="346.20021" xlink:href="#b" y1="97.67482" y2="94.16542"/><linearGradient id="ab" gradientUnits="userSpaceOnUse" x1="370.6245" x2="366.20159" xlink:href="#b" y1="118.22939" y2="113.80672"/><linearGradient id="ac" gradientUnits="userSpaceOnUse" x1="229.2773" x2="223.2392" xlink:href="#b" y1="96.35842" y2="96.35842"/><linearGradient id="ad" gradientUnits="userSpaceOnUse" x1="330.1245" x2="324.91259" xlink:href="#b" y1="93.10842" y2="93.10842"/><linearGradient id="ae" gradientUnits="userSpaceOnUse" x1="374.79051" x2="368.5454" xlink:href="#b" y1="92.39638" y2="92.39638"/><linearGradient id="af" gradientUnits="userSpaceOnUse" x1="440.45751" x2="436.03939" xlink:href="#b" y1="84.2646" y2="79.84657"/><linearGradient id="ag" gradientUnits="userSpaceOnUse" x1="472.74071" x2="472.74071" xlink:href="#b" y1="94.09963" y2="88.29781"/><g transform="translate(-100.58394 -26.423824)"><g transform="matrix(.81874674 0 0 .81874674 100.58394 26.423976)"><path d="m104.892 154.73 38.127-.565 75.017-75.866h10.104v37.271l46.757.284 45.218-45.501 8.728-.567-.135 43.013 36.131-36.132h8.536l.566 36.435-.738 1.896h109.175l20.901-21.183-67.881-1.154-.617-9.852 10.576-11.139 25.611-.003 22.248-22.534-13.447-.568v-9.483l11.422-11.42 45.586.284 21.172-22.019-77.998-.285-73.289 73.575-10.262.567.286-70.783-41.205 42.054-9.856 1.169v-42.85l-84.361 83.468-10.489 1.116.892-85.881-73.73 74.863-9.682.047-1.135-71.898-39.778 40.061-11.064.567.419-42.778-105.106 105.956 34.618-.567 45.389-44.052h8.705l-.42 44.264 36.152-36.997h8.644v37.687z" fill="url(#v)"/><path d="m114.692 13.213-101.115 101.115-11.471 4.313s-.604.039-.271-.445c0 0 117.26-117.292 117.472-117.471.212-.181.467-.028.467-.028z" fill="url(#x)"/><path d="m145.814 115.797-37.518 37.521-11.065 4.457s-.576.065-.236-.407l43.929-43.749z" fill="url(#y)"/><path d="m46.209 114.328 2.773 4.313h-46.876l11.497-4.313z" fill="url(#z)"/><path d="m142.168 153.314 2.613 4.457h-47.551l11.066-4.457z" fill="url(#d)"/><path d="m481.529 114.146 3.258 4.467-114.545-.029 3.81-4.436z" fill="url(#A)"/><path d="m277.053 119.484-51.527-.029c-.333.005-.81-.335-.81-.335l4.561-4.115h45.054z" fill="url(#B)"/><path d="m477.382 1.913h88.652c.785 0 .785.313.785.313l-10.572 4.55h-75.164z" fill="url(#C)"/><path d="m535.927 27.094 3.115 4.21h-46.345l-2.072-4.21z" fill="url(#D)"/><path d="m470.402 71.1 3.187 3.72h-24.679l-4.119-3.718z" fill="url(#E)"/><path d="m491.8 49.7h-13.58l-1.193-5.548h25.467c.346-.043.441.146.441.146z" fill="url(#F)"/><path d="m96.872 70.634-47.89 48.009-2.773-4.313 46.601-46.365c2-2.313 4.675-1.731 4.675-1.731z" fill="url(#G)"/><path d="m114.71 51.669v-38.476l5.063-12.499s.303.075.303.571v53.647l-.315 2.311c0 .001-4.496.025-5.051-5.554z" fill="url(#H)"/><path d="m172.902 88.843s-6.539 1.95-6.621-5.625c-.08-7.313-.013-69.291-.013-69.291l5.214-13.896s.182-.027.182.725l-.017 81.793z" fill="url(#I)"/><path d="m255.809 98.91s-5.889.577-5.96-6.088l-.033-80.063 4.651-12.071s.583.153.583.907l-.016 91.14z" fill="url(#J)"/><path d="m349.097 57.425s-4.868.452-5.701-4.563v-39.723l4.393-12.147s.563.134.563.886v49.667z" fill="url(#K)"/><path d="m400.781 85.333s-4.938.643-5.797-4.373v-67.706l4.85-12.544s.268.221.268 1.708v77.226z" fill="url(#L)"/><path d="m97.759 120.82s-.833-.069-.809-1.149c-.001-.917-.078-49.036-.078-49.036s-1.218-1.577.613-4.4c.547.131 3.495.727 4.101 4.256v40.37z" fill="url(#M)"/><path d="m140.843 78.598s-41.489 41.548-41.883 41.938c-.346.379-1.202.282-1.202.282l3.827-9.963 36.059-36.088s1.34-1.727 3.831-1.637z" fill="url(#N)"/><path d="m566.609 3.639-27.566 27.665-3.115-4.211 20.312-20.324 10.582-4.542c0 .001.349.847-.213 1.412z" fill="url(#O)"/><path d="m140.924 113.616-.079-35.025s-1.301-2.633.631-5.456c.593-.007 3.7.421 4.339 4.146l-.001 38.52z" fill="url(#P)"/><path d="m166.269 13.926-41.462 41.463c-1.987 1.986-5.045 1.836-5.045 1.836-1.795-3.531.315-6.065.315-6.065s50.503-50.49 50.867-50.87c.331-.417.541-.264.541-.264z" fill="url(#Q)"/><path d="m249.815 12.762-74.376 74.375c-1.55 1.551-2.537 1.703-2.537 1.703-3.781-1.878-1.213-6.255-1.213-6.255s80.652-80.635 81.016-81.015c.943-1.093 1.761-.883 1.761-.883z" fill="url(#R)"/><path d="m343.396 13.139-84.163 84.161c-1.429 1.432-3.424 1.608-3.424 1.608-3.115-1.556-.776-6.175-.776-6.175s90.61-90.5 90.974-90.881c.941-1.098 1.781-.862 1.781-.862z" fill="url(#S)"/><path d="m394.984 13.254-42.513 42.514c-1.429 1.432-3.374 1.657-3.374 1.657-2.932-1.908-.588-5.983-.588-5.983s49.584-49.69 49.947-50.07c1.047-1.033 1.377-.66 1.377-.66z" fill="url(#T)"/><path d="m502.958 45.453-29.369 29.367-3.188-3.722 21.399-21.398 11.135-5.401s.414.294.023 1.154z" fill="url(#U)"/><path d="m513.634 89.96-28.848 28.651-3.258-4.465 20.049-20.049 12.289-5.38c.001.003.397.435-.232 1.243z" fill="url(#V)"/><path d="m481.083 6.777-76.912 76.913c-1.43 1.432-3.395 1.644-3.395 1.644-2.449-3.092-.686-5.979-.686-5.979l77.289-77.44z" fill="url(#W)"/><path d="m492.697 31.304-12.676 12.786c-2.771 2.282-1.801 5.608-1.801 5.608-2.25-.21-3.125-2.065-3.412-3.695-.285-1.63.303-3.422 1.348-4.467l14.469-14.44z" fill="url(#X)"/><path d="m142.17 153.316 77.913-77.943s1.437-1.873 4.267-1.771l-.456 5.223s-78.666 78.506-79.113 78.948z" fill="url(#Y)"/><path d="m274.33 115.004 47.643-47.659s1.437-1.871 4.267-1.771l-.857 5.621-48.325 48.29z" fill="url(#Z)"/><path d="m330.125 110.25 36.779-36.789c.842-.843 1.779-1.771 3.396-1.771l-.107 5.501-43.081 43.043c-.569.563-1.019.399-1.019.399z" fill="url(#aa)"/><path d="m361.984 118.057 7.25-7.281 5.557 2.326-.734 1.047-3.813 4.437-.272.3h-7.72c-.34.014-.521-.271-.521-.271s-.155-.147.253-.558z" fill="url(#ab)"/><path d="m223.983 117.338-.09-38.515s-1.738-2.016.457-5.223c.673-.01 4.202.478 4.928 4.707l-.001 36.694-4.561 4.115c0 .003-.73-.475-.733-1.778z" fill="url(#ac)"/><path d="m325.449 119.945-.08-48.75s-1.472-2.681.871-5.621c.596-.009 3.243.472 3.885 4.702v39.975l-4.028 10.39c-.004-.002-.605-.143-.648-.696z" fill="url(#ad)"/><path d="m369.234 110.775v-32.629s-2.113-3.379 1.064-6.456c.693-.008 4.132.24 4.492 4.323v37.088z" fill="url(#ae)"/><path d="m448.91 74.82-13.451 13.479-3.844 4.809c-3.896-2.458-1.953-6.874-.912-7.925l14.088-14.079z" fill="url(#af)"/><path d="m501.58 94.098h-66.391c-2.502-.196-3.574-.992-3.574-.992-.012-3.571 3.844-4.809 3.844-4.809l77.746.001c.543-.001.662.422.662.422z" fill="url(#ag)"/><path d="m0 142.055v-9.521h2.876l1.728 6.494 1.708-6.494h2.883v9.521h-1.785v-7.496l-1.89 7.496h-1.851l-1.883-7.496v7.496z"/><path d="m17.224 132.532h1.922v5.155c0 .816.024 1.35.071 1.592.083.391.278.701.588.938s.732.354 1.27.354c.545 0 .957-.11 1.234-.334.277-.223.443-.496.5-.821.056-.324.084-.863.084-1.616v-5.268h1.922v5.001c0 1.144-.052 1.95-.155 2.423-.104.472-.296.87-.575 1.193-.279.324-.652.582-1.12.773-.468.192-1.078.289-1.832.289-.909 0-1.599-.104-2.068-.313-.47-.211-.841-.482-1.114-.818-.273-.335-.452-.688-.539-1.057-.125-.545-.188-1.353-.188-2.416z"/><path d="m33.025 142.055v-9.443h1.922v7.84h4.78v1.604h-6.702z"/><path d="m48.385 142.055v-7.91h-2.825v-1.61h7.566v1.61h-2.819v7.91z"/><path d="m60.438 142.055v-9.521h1.922v9.521z"/><path d="m70.324 142.055v-9.521h3.085c1.169 0 1.931.048 2.286.144.545.146 1.002.453 1.37.935.368.479.552 1.098.552 1.854 0 .584-.106 1.075-.318 1.477-.212.396-.482.711-.809.938-.327.229-.659.378-.997.452-.459.09-1.124.136-1.994.136h-1.253v3.594zm1.922-7.91v2.701h1.052c.757 0 1.264-.053 1.52-.15.256-.098.456-.254.601-.467s.217-.459.217-.74c0-.346-.102-.633-.305-.856-.204-.225-.461-.362-.773-.422-.229-.043-.691-.063-1.383-.063z"/><path d="m85.378 142.055v-9.443h1.922v7.84h4.78v1.604h-6.702z"/><path d="m99.582 142.055v-9.521h7.059v1.609h-5.137v2.108h4.78v1.604h-4.78v2.592h5.319v1.604z"/><path d="m189.966 142.055h-2.091l-.831-2.164h-3.806l-.786 2.164h-2.039l3.708-9.521h2.032zm-3.539-3.769-1.313-3.532-1.286 3.532z"/><path d="m197.124 142.055v-9.521h4.046c1.018 0 1.757.086 2.218.258.461.171.83.477 1.107.912.277.438.416.938.416 1.5 0 .714-.21 1.304-.63 1.771-.419.465-1.047.758-1.883.879.416.242.758.51 1.029.799.271.291.635.808 1.094 1.548l1.162 1.856h-2.299l-1.39-2.072c-.493-.739-.832-1.207-1.013-1.398-.181-.189-.375-.322-.578-.396-.203-.069-.526-.104-.968-.104h-.389v3.978h-1.922zm1.922-5.496h1.422c.922 0 1.498-.037 1.727-.115.23-.077.409-.213.539-.402.13-.188.195-.43.195-.714 0-.32-.085-.579-.256-.776-.171-.193-.412-.318-.724-.371-.156-.021-.623-.031-1.403-.031h-1.5z"/><path d="m218.945 138.552 1.864.593c-.286 1.041-.761 1.813-1.425 2.313-.664.504-1.508.757-2.53.757-1.264 0-2.303-.433-3.117-1.296-.814-.86-1.221-2.044-1.221-3.542 0-1.585.409-2.813 1.228-3.689.818-.877 1.894-1.313 3.228-1.313 1.165 0 2.11.344 2.838 1.03.433.406.757.992.974 1.755l-1.903.452c-.113-.491-.347-.881-.705-1.168-.358-.284-.791-.428-1.302-.428-.706 0-1.278.252-1.718.76-.44.507-.66 1.326-.66 2.461 0 1.203.217 2.062.65 2.572s.996.767 1.688.767c.511 0 .95-.162 1.318-.486.369-.33.633-.84.793-1.538z"/><path d="m237.175 142.055h-2.091l-.832-2.164h-3.806l-.786 2.164h-2.039l3.708-9.521h2.033zm-3.539-3.769-1.313-3.532-1.286 3.532z"/><path d="m244.32 132.532h3.514c.792 0 1.396.062 1.812.183.559.165 1.037.457 1.435.877.398.419.702.936.91 1.542.208.608.312 1.358.312 2.251 0 .782-.098 1.458-.292 2.025-.238.691-.578 1.254-1.02 1.682-.333.325-.784.578-1.351.762-.424.136-.991.203-1.701.203h-3.617v-9.521zm1.922 1.613v6.307h1.435c.537 0 .924-.03 1.163-.092.312-.077.57-.211.776-.396.206-.188.374-.49.503-.92.13-.426.195-1.007.195-1.743 0-.733-.065-1.301-.195-1.692-.13-.396-.312-.701-.545-.924-.234-.223-.53-.369-.89-.447-.269-.063-.795-.09-1.578-.09z"/><path d="m260.063 142.055v-9.521h7.059v1.609h-5.137v2.108h4.78v1.604h-4.78v2.592h5.319v1.604z"/><path d="m283.18 142.055v-9.521h2.877l1.729 6.494 1.707-6.494h2.883v9.521h-1.785v-7.496l-1.891 7.496h-1.854l-1.887-7.496v7.496z"/><path d="m309.001 142.055h-2.09l-.832-2.164h-3.809l-.782 2.164h-2.04l3.709-9.521h2.029zm-3.539-3.769-1.313-3.532-1.286 3.532z"/><path d="m322.246 138.552 1.863.593c-.285 1.041-.761 1.813-1.425 2.313-.665.505-1.509.757-2.53.757-1.264 0-2.303-.433-3.115-1.296-.813-.86-1.223-2.044-1.223-3.542 0-1.585.409-2.813 1.229-3.689.818-.877 1.896-1.313 3.229-1.313 1.165 0 2.108.344 2.839 1.03.434.406.76.992.977 1.755l-1.902.452c-.111-.491-.35-.881-.704-1.168-.356-.284-.791-.428-1.303-.428-.705 0-1.277.252-1.718.76-.439.507-.66 1.326-.66 2.461 0 1.203.218 2.062.648 2.572.434.51.994.767 1.688.767.51 0 .946-.162 1.313-.486.369-.33.633-.84.794-1.538z"/><path d="m331.897 142.055v-9.521h1.923v3.748h3.766v-3.748h1.924v9.521h-1.924v-4.164h-3.766v4.164z"/><path d="m347.569 142.055v-9.521h1.923v9.521z"/><path d="m357.472 142.055v-9.521h1.871l3.896 6.357v-6.357h1.786v9.521h-1.929l-3.839-6.209v6.209z"/><path d="m373.19 142.055v-9.521h7.06v1.609h-5.138v2.108h4.78v1.604h-4.78v2.592h5.319v1.604z"/><path d="m397.091 142.055v-9.521h7.06v1.609h-5.137v2.108h4.78v1.604h-4.78v2.592h5.319v1.604z"/><path d="m412.069 142.055v-9.521h2.877l1.728 6.494 1.709-6.494h2.883v9.521h-1.783v-7.496l-1.893 7.496h-1.852l-1.884-7.496v7.496z"/><path d="m429.292 132.532h1.922v5.155c0 .816.023 1.35.07 1.592.082.391.273.701.588.938.311.236.729.354 1.27.354.547 0 .957-.11 1.234-.334.277-.223.443-.496.5-.821.057-.324.084-.863.084-1.616v-5.268h1.924v5.001c0 1.144-.053 1.95-.156 2.423-.104.472-.297.87-.574 1.193-.279.324-.652.582-1.121.773-.467.192-1.078.289-1.83.289-.91 0-1.6-.104-2.068-.313-.471-.211-.842-.482-1.109-.818-.271-.335-.451-.688-.537-1.057-.127-.545-.189-1.353-.189-2.416v-5.077z"/><path d="m445.093 142.055v-9.443h1.922v7.84h4.781v1.604h-6.703z"/><path d="m467.882 142.055h-2.092l-.83-2.164h-3.807l-.785 2.164h-2.039l3.707-9.521h2.033zm-3.539-3.769-1.313-3.532-1.285 3.532z"/><path d="m476.191 142.055v-7.91h-2.826v-1.61h7.564v1.61h-2.816v7.91z"/><path d="m487.671 137.352c0-.972.146-1.783.438-2.44.215-.484.51-.92.885-1.308.375-.387.785-.67 1.23-.854.594-.251 1.277-.376 2.053-.376 1.402 0 2.525.438 3.367 1.305.842.87 1.264 2.081 1.264 3.633 0 1.535-.418 2.737-1.254 3.605-.836.867-1.953 1.302-3.352 1.302-1.416 0-2.541-.433-3.377-1.296s-1.254-2.057-1.254-3.571zm1.983-.066c0 1.078.248 1.896.746 2.45.498.558 1.131.834 1.896.834.768 0 1.396-.273 1.887-.825.492-.554.736-1.381.736-2.485 0-1.09-.238-1.902-.717-2.439-.48-.535-1.113-.805-1.906-.805s-1.43.271-1.916.813-.726 1.362-.726 2.457z"/><path d="m504.544 142.055v-9.521h4.047c1.018 0 1.756.086 2.217.258.461.171.83.477 1.107.912.277.438.416.938.416 1.5 0 .714-.211 1.304-.631 1.771-.42.465-1.047.758-1.883.879.416.242.76.51 1.021.799.271.291.645.808 1.102 1.548l1.156 1.856h-2.296l-1.391-2.072c-.492-.739-.83-1.207-1.012-1.398-.186-.189-.375-.322-.578-.396-.203-.069-.525-.104-.971-.104h-.391v3.978h-1.92v-.006h.004v-.002h.003zm1.922-5.496h1.424c.922 0 1.498-.037 1.727-.115.23-.077.41-.213.541-.402.129-.188.193-.43.193-.714 0-.32-.086-.579-.258-.776-.17-.193-.41-.318-.723-.371-.156-.021-.623-.031-1.402-.031h-1.502z"/></g><g transform="matrix(.62570547 0 0 .62570547 531.52428 -70.80895)"><path d="m184.57895 191.13345c-38.5263 38.46511-76.86682 76.8964-115.572131 115.18167 9.114078.0141 19.234063 1.02938 28.348138 1.04548l64.200333-63.90534c8.38773-4.6273 5.11663 5.88275 5.70771 11.94353l.7931 19.54726 139.57661.1283c5.34607-5.3868 11.10909-11.15843 16.4562-16.5442l-31.78282-.1391 36.69337-40.30648c-.14105-8.84702-.28211-17.69405-.42318-26.54107l-65.60871 65.60716-38.79803-.18981 39.59036-37.54774-2.26548-27.8696-70.04264 69.80297c-3.4687-.29237-4.86552-.49605-6.54871-4.56276-.0696-20.67723.0444-44.87411-.027-65.55133z" fill="url(#a)"/><g transform="translate(-1.22365 -1.529562)"><path d="m186.09961 192.76562 3.80664-9.88671s-.0404-.0115-.11523-.0137c-.22456-.006-.74712.0652-1.32618.73633-42.45038 42.56459-84.96215 85.06777-127.486324 127.5586-.27837.38643.193359.33398.193359.33398l9.058594-3.64844c39.108411-38.9542 81.660071-80.85365 115.869141-115.08006z" fill="url(#c)" transform="translate(0 -.001)"/><path d="m142.168 153.314 2.613 4.457h-47.551l11.066-4.457z" fill="url(#d)" transform="matrix(.81874674 0 0 .81874674 -18.436331 182.31556)"/><path d="m308.89538 276.47361-68.50307.002h-71.11256l-3.73092 3.36914s.72113.27744 1.22346.27344l77.72581.0254-.036-.0332 67.09954.018c-1.51422-2.31092-.004-3.65466-2.66626-3.65482z" fill="url(#e)"/><path d="m191.00645 263.29781s-4.82159.47241-4.87973-4.98453l-.027-65.55133 3.80799-9.88309s.47733.12527.47733.7426l-.0131 74.62058.63452 5.05577z" fill="url(#f)"/><path d="m266.73188 221.65767s-3.09928 2.69566-3.78129-1.41036l-.23256-27.17424 3.59675-9.94531s.4171.10971.4171.72541v33.45539z" fill="url(#g)"/><path d="m262.71803 193.07307-68.90819 68.90655c-1.16999 1.17245-2.80339 1.31655-2.80339 1.31655-2.55039-1.27397-.63534-5.05576-.63534-5.05576s74.18664-74.09659 74.48466-74.40853c.77044-.89898 1.45819-.70576 1.45819-.70576z" fill="url(#i)"/><path d="m97.964889 307.84254 63.791021-63.81558s1.17654-1.53351 3.49359-1.45l-.37335 4.27631s-64.40753 64.27654-64.77351 64.63843z" fill="url(#k)"/><path d="m164.94902 278.38567-.0737-31.53403s-1.42298-1.6506.37417-4.27632c.55102-.008 3.44037.39136 4.03479 3.85384l-.00082 30.0431-3.73431 3.36914c0 .002-.59768-.3889-.60014-1.45573z" fill="url(#l)"/><path d="m225.8379 257.54952 1.75483-2.2875 35.35786-35.01471 2.03296.69536 1.74833.715s-21.10573 21.16297-37.92672 38.02845z" fill="url(#m)"/><path d="m258.23066 260.05971h-31.50407c-1.45365.0153-1.3334-1.5693-1.3334-1.5693-.0823-1.52288 2.19954-3.22839 2.19954-3.22839l38.74101.0489c.44458-.00082.88134.34551.88134.34551z" fill="url(#o)"/><path d="m333.81378 221.65767s-3.09928 2.69566-3.78129-1.41036l-.23256-27.17424 3.59675-9.94531s.4171.10971.4171.72541v33.45539z" fill="url(#q)"/><path d="m329.79993 193.07307-65.60871 65.60715c-1.86968 1.8608-3.5227 1.36234-5.88656 1.39829-.25139-1.98379.63159-3.31955 2.05597-4.74221 13.7178-13.70133 71.31452-71.22964 71.57704-71.50442.77044-.89898 1.45819-.70576 1.45819-.70576z" fill="url(#r)"/><path d="m293.14964 257.52248 1.52499-2.26046 35.35786-35.01471 2.03296.69536 1.74833.715s-21.10573 21.16297-37.92672 38.02845z" fill="url(#s)"/><path d="m335.18173 256.67173-23.6192 23.45792-2.66748-3.65571 16.41505-16.41505 10.06158-4.40486c.00082.003.32504.35615-.18995 1.0177z" fill="url(#t)"/><path d="m325.31256 260.05971h-31.50407c-.85879-.29568-.96838-1.24483-.96838-1.24483-.25807-2.1583 1.83452-3.55286 1.83452-3.55286l40.15586.0489c.44458-.00082.54201.34551.54201.34551z" fill="url(#u)"/></g></g><path d="m572.83463 56.511956-37.09943 37.14915h26.84914v14.355414h10.25029v-14.355414h9.63976l9.6579-9.66075h-19.29766zm-10.25029 20.58387v6.90453h-6.91881z" fill="#ed7c31" stroke="#a40" stroke-linecap="round" stroke-linejoin="round" stroke-width="1.06709"/></g></svg>