<svg enable-background="new -54.704 -17.335 641.883 266.225" height="266.225" viewBox="-54.704 -17.335 641.883 266.225" width="641.883" xmlns="http://www.w3.org/2000/svg" xmlns:xlink="http://www.w3.org/1999/xlink"><linearGradient id="a"><stop offset=".0051" stop-color="#cbecfc"/><stop offset=".401" stop-color="#bbe3f7"/><stop offset=".5431" stop-color="#2793c8"/><stop offset="1" stop-color="#1e8ec5"/></linearGradient><linearGradient id="b" gradientTransform="matrix(1 0 0 -1 654 409.2251)" gradientUnits="userSpaceOnUse" x1="-387.7031" x2="-387.7031" xlink:href="#a" y1="422.8821" y2="243.8304"/><linearGradient id="c"><stop offset="0" stop-color="#2a76a0"/><stop offset="1" stop-color="#223756"/></linearGradient><linearGradient id="d" gradientUnits="userSpaceOnUse" x1="266.2378" x2="266.2378" xlink:href="#c" y1="-17.7209" y2="163.6125"/><linearGradient id="e" gradientUnits="userSpaceOnUse" x1="171.582" x2="171.582" y1="106.7791" y2="197.1125"><stop offset=".0051" stop-color="#9ca3a6"/><stop offset="1" stop-color="#454547"/></linearGradient><linearGradient id="f" gradientTransform="matrix(1 0 0 -1 654 409.2251)" gradientUnits="userSpaceOnUse" x1="-429.7236" x2="-429.7236" xlink:href="#a" y1="284.8176" y2="154.6304"/><linearGradient id="g" gradientUnits="userSpaceOnUse" x1="223.1924" x2="223.1924" xlink:href="#c" y1="122.2791" y2="219.6125"/><linearGradient id="h" gradientTransform="matrix(1 0 0 -1 654 409.2251)" gradientUnits="userSpaceOnUse" x1="-296.2861" x2="-296.2861" xlink:href="#a" y1="284.8352" y2="153.8352"/><linearGradient id="i" gradientUnits="userSpaceOnUse" x1="358.8892" x2="358.8892" xlink:href="#c" y1="122.2791" y2="219.6125"/><path d="m583.629-13.657h-96.273l-88.943 91.048v-91.048l-56.885 58.048v-58.048l-105.105 105.381v-105.381l-98.209 98.381v-98.381l-60.083 58.381v-58.381l-129.167 127.048h47.333l58.167-60.167v60.167l51.917-51.917v51.917l-48.708 48.708h49.291l97.187-97.187v48.479h52.813l58.834-58.833v58.833l50.583-50.583v50.583h122.25l32-32h-91.668l20.5-19.5h30.834l30.416-30.417h-28.082l20.707-18.708h54.625z" fill="url(#b)"/><path d="m54.048 163.599 50.833-50.83v-47.674l-51.917 51.914-.002-60.075-56.028 57.956h-51.638l134.335-132.129v58.412l60.083-58.38v98.302l98.209-98.378-.002 105.377 105.105-105.381v58.002l56.887-58.05v91.042l86.811-88.866h96.908v1.502-1.502h3.549l-28.582 29.423h-54.684l-17.385 15.708h27.807l-33.419 33.418-30.855-.002-17.35 16.504h91.537l-34.998 34.998h-124.373v-48.461l-50.583 50.583v-58.833l-56.712 56.711h-54.934l-.002-46.355-95.063 95.064zm53.833-49.588-46.585 46.586h45.046l99.309-99.312v50.602h50.69l60.957-60.954v58.833l50.582-50.578v52.702h120.129l28.998-29h-91.795l23.65-22.5h30.813l27.416-27.417h-28.357l24.025-21.707h54.568l22.752-23.422-92.094-.003-91.074 93.229v-91.052l-56.887 58.05v-58.098l-105.103 105.383v-105.383l-98.208 98.382v-98.461l-60.082 58.378v-58.348l-124.002 121.966h43.033l60.303-62.376v60.257l51.917-51.914z" fill="url(#d)"/><path d="m186.131 157.056v-47.333l-65.833 64h48.999v22.334h16.834v-22.334h18.833l17.834-16.667zm-16.834 0h-9.999l9.999-10.999z" fill="#e2e2e2"/><path d="m168.296 197.057v-22.334h-50.464l69.299-67.368v48.7h38.201l-19.975 18.668-18.226-.002v22.336zm-45.535-24.336h47.536v22.335h14.833v-22.335h19.438l15.692-14.666h-34.13v-.999h1.001-1.001v.999h-1v-45.966zm34.275-14.666 13.262-14.586v13.587.999zm12.261-.999v-1.001zm-7.738-1.001h6.737v-7.413z" fill="url(#e)"/><path d="m163.214 247.39 122.125-120.125v90.125h-21.875v-34l-62.25 64z" fill="url(#f)"/><path d="m163.215 248.89v-1.5l1.05 1.068-1.05-1.068v1.5h-3.667l127.289-125.209v95.208h-24.873v-31.807l-60.118 61.808zm3.661-3 33.701-.002 64.384-66.194v36.195h18.877v-85.046z" fill="url(#g)"/><path d="m314.464 127.265-18.5 19.875v70.25h123.499l-18.5-17h-53.5v-73.125l-19.25 19.875v53.25h-13.749z" fill="url(#h)"/><path d="m294.464 218.889v-72.342l18.899-20.307 2.6-2.789v75.437h10.75v-52.357l22.248-22.97v75.329h52.586l21.768 19.999zm2.998-71.16v68.16h118.15l-15.234-14.001h-54.414l-.002-70.919-16.248 16.777v54.142h-16.75v-70.813z" fill="url(#i)"/></svg>