<svg enable-background="new 0 -0.001 566.929 157.78" height="157.78" viewBox="0 -.001 566.929 157.78" width="566.929" xmlns="http://www.w3.org/2000/svg" xmlns:xlink="http://www.w3.org/1999/xlink"><linearGradient id="a" gradientUnits="userSpaceOnUse" x1="557.9487" x2="11.5903" y1="80.1875" y2="80.1875"><stop offset="0" stop-color="#013a67"/><stop offset="1" stop-color="#6cd1ff"/></linearGradient><linearGradient id="b"><stop offset="0" stop-color="#08406f"/><stop offset="1" stop-color="#60c5f5"/></linearGradient><linearGradient id="c" gradientUnits="userSpaceOnUse" x1="64.5298" x2="60.5853" xlink:href="#b" y1="63.3789" y2="59.4346"/><linearGradient id="d" gradientUnits="userSpaceOnUse" x1="123.1157" x2="119.4904" xlink:href="#b" y1="138.5" y2="134.8747"/><linearGradient id="e" gradientUnits="userSpaceOnUse" x1="25.5439" x2="25.5439" xlink:href="#b" y1="118.6406" y2="114.3281"/><linearGradient id="f" gradientUnits="userSpaceOnUse" x1="121.0058" x2="121.0058" xlink:href="#b" y1="157.7714" y2="153.3144"/><linearGradient id="g" gradientUnits="userSpaceOnUse" x1="427.5141" x2="427.5141" xlink:href="#b" y1="118.6132" y2="114.1464"/><linearGradient id="h" gradientUnits="userSpaceOnUse" x1="250.8848" x2="250.8848" xlink:href="#b" y1="119.4843" y2="115.0058"/><linearGradient id="i" gradientUnits="userSpaceOnUse" x1="522.1011" x2="522.1011" xlink:href="#b" y1="6.7773" y2="1.914"/><linearGradient id="j" gradientUnits="userSpaceOnUse" x1="514.8335" x2="514.8335" xlink:href="#b" y1="31.3046" y2="27.0947"/><linearGradient id="k" gradientUnits="userSpaceOnUse" x1="459.1899" x2="459.1899" xlink:href="#b" y1="74.8203" y2="71.1015"/><linearGradient id="l" gradientUnits="userSpaceOnUse" x1="489.9809" x2="489.9809" xlink:href="#b" y1="49.7011" y2="44.1464"/><linearGradient id="m" gradientUnits="userSpaceOnUse" x1="74.2095" x2="70.6663" xlink:href="#b" y1="93.415" y2="89.8718"/><linearGradient id="n" gradientUnits="userSpaceOnUse" x1="120.0757" x2="114.7095" xlink:href="#b" y1="28.9589" y2="28.9589"/><linearGradient id="o" gradientUnits="userSpaceOnUse" x1="172.9014" x2="166.2412" xlink:href="#b" y1="44.5507" y2="44.5507"/><linearGradient id="p" gradientUnits="userSpaceOnUse" x1="255.8086" x2="249.8154" xlink:href="#b" y1="49.8056" y2="49.8056"/><linearGradient id="q" gradientUnits="userSpaceOnUse" x1="349.0972" x2="343.396" xlink:href="#b" y1="29.2148" y2="29.2148"/><linearGradient id="r" gradientUnits="userSpaceOnUse" x1="400.7807" x2="394.9839" xlink:href="#b" y1="43.0361" y2="43.0361"/><linearGradient id="s" gradientUnits="userSpaceOnUse" x1="101.5854" x2="96.4746" xlink:href="#b" y1="93.5283" y2="93.5283"/><linearGradient id="t" gradientUnits="userSpaceOnUse" x1="121.0688" x2="117.5167" xlink:href="#b" y1="98.4277" y2="94.8756"/><linearGradient id="u" gradientUnits="userSpaceOnUse" x1="553.2563" x2="549.5876" xlink:href="#b" y1="17.0898" y2="13.4209"/><linearGradient id="v" gradientUnits="userSpaceOnUse" x1="145.8144" x2="140.416" xlink:href="#b" y1="94.4687" y2="94.4687"/><linearGradient id="w" gradientUnits="userSpaceOnUse" x1="148.5972" x2="144.1094" xlink:href="#b" y1="31.5996" y2="27.1118"/><linearGradient id="x" gradientUnits="userSpaceOnUse" x1="215.666" x2="211.5083" xlink:href="#b" y1="46.9111" y2="42.7534"/><linearGradient id="y" gradientUnits="userSpaceOnUse" x1="304.1362" x2="299.752" xlink:href="#b" y1="52.4003" y2="48.0161"/><linearGradient id="z" gradientUnits="userSpaceOnUse" x1="376.7915" x2="372.5836" xlink:href="#b" y1="31.4511" y2="27.2428"/><linearGradient id="A" gradientUnits="userSpaceOnUse" x1="488.5581" x2="485.1019" xlink:href="#b" y1="59.8544" y2="56.3984"/><linearGradient id="B" gradientUnits="userSpaceOnUse" x1="499.6284" x2="495.6688" xlink:href="#b" y1="103.9668" y2="100.0073"/><linearGradient id="C" gradientUnits="userSpaceOnUse" x1="441.6577" x2="437.375" xlink:href="#b" y1="46.2031" y2="41.9204"/><linearGradient id="D" gradientUnits="userSpaceOnUse" x1="486.6792" x2="481.5651" xlink:href="#b" y1="41.2392" y2="36.1251"/><linearGradient id="E" gradientUnits="userSpaceOnUse" x1="185.7974" x2="182.1555" xlink:href="#b" y1="116.9199" y2="113.278"/><linearGradient id="F" gradientUnits="userSpaceOnUse" x1="302.8481" x2="299.2076" xlink:href="#b" y1="93.7294" y2="90.0889"/><linearGradient id="G" gradientUnits="userSpaceOnUse" x1="349.7095" x2="346.2002" xlink:href="#b" y1="97.6748" y2="94.1654"/><linearGradient id="H" gradientUnits="userSpaceOnUse" x1="370.6245" x2="366.2016" xlink:href="#b" y1="118.2294" y2="113.8067"/><linearGradient id="I" gradientUnits="userSpaceOnUse" x1="229.2773" x2="223.2392" xlink:href="#b" y1="96.3584" y2="96.3584"/><linearGradient id="J" gradientUnits="userSpaceOnUse" x1="330.1245" x2="324.9126" xlink:href="#b" y1="93.1084" y2="93.1084"/><linearGradient id="K" gradientUnits="userSpaceOnUse" x1="374.7905" x2="368.5454" xlink:href="#b" y1="92.3964" y2="92.3964"/><linearGradient id="L" gradientUnits="userSpaceOnUse" x1="440.4575" x2="436.0394" xlink:href="#b" y1="84.2646" y2="79.8466"/><linearGradient id="M" gradientUnits="userSpaceOnUse" x1="472.7407" x2="472.7407" xlink:href="#b" y1="94.0996" y2="88.2978"/><path d="m491.191 27.662 45.586.284 21.172-22.019-77.998-.285-73.289 73.575-10.262.567.286-70.783-41.205 42.054-9.856 1.169v-42.85l-84.361 83.468-10.489 1.116.892-85.881-73.73 74.863-9.682.047-1.135-71.898-39.778 40.061-11.064.567.419-42.778-105.106 105.956 34.618-.567 45.389-44.052h8.705l-.42 44.264 36.152-36.997h8.644v37.687l-39.787 39.5 38.127-.565 75.017-75.866h10.104v37.271l46.757.284 45.218-45.501 8.728-.567-.135 43.013 36.131-36.132h8.536l.566 36.435-.738 1.896h109.175l20.901-21.183-67.881-1.154-.617-9.852 10.576-11.139 25.611-.003 22.248-22.534-13.447-.568v-9.483z" fill="url(#a)"/><path d="m114.692 13.213-101.115 101.115-11.471 4.313s-.604.039-.271-.445c0 0 117.26-117.292 117.472-117.471.212-.181.467-.028.467-.028z" fill="url(#c)"/><path d="m145.814 115.797-37.518 37.521-11.065 4.457s-.576.065-.236-.407l43.929-43.749z" fill="url(#d)"/><path d="m48.982 118.641h-46.876l11.497-4.313h32.606z" fill="url(#e)"/><path d="m144.781 157.771h-47.551l11.066-4.457h33.872z" fill="url(#f)"/><path d="m484.787 118.613-114.545-.029 3.81-4.436 107.477-.002z" fill="url(#g)"/><path d="m277.053 119.484-51.527-.029c-.333.005-.81-.335-.81-.335l4.561-4.115h45.054z" fill="url(#h)"/><path d="m477.382 1.913h88.652c.785 0 .785.313.785.313l-10.572 4.55h-75.164z" fill="url(#i)"/><path d="m539.042 31.304h-46.345l-2.072-4.21h45.302z" fill="url(#j)"/><path d="m473.589 74.82h-24.679l-4.119-3.718 25.611-.002z" fill="url(#k)"/><path d="m491.8 49.7h-13.58l-1.193-5.548h25.467c.346-.043.441.146.441.146z" fill="url(#l)"/><path d="m96.872 70.634-47.89 48.009-2.773-4.313 46.601-46.365c2-2.313 4.675-1.731 4.675-1.731z" fill="url(#m)"/><path d="m114.71 51.669v-38.476l5.063-12.499s.303.075.303.571v53.647l-.315 2.311c0 .001-4.496.025-5.051-5.554z" fill="url(#n)"/><path d="m172.902 88.843s-6.539 1.95-6.621-5.625c-.08-7.313-.013-69.291-.013-69.291l5.214-13.896s.182-.027.182.725l-.017 81.793z" fill="url(#o)"/><path d="m255.809 98.91s-5.889.577-5.96-6.088l-.033-80.063 4.651-12.071s.583.153.583.907l-.016 91.14z" fill="url(#p)"/><path d="m349.097 57.425s-4.868.452-5.701-4.563v-39.723l4.393-12.147s.563.134.563.886v49.667z" fill="url(#q)"/><path d="m400.781 85.333s-4.938.643-5.797-4.373v-67.706l4.85-12.544s.268.221.268 1.708v77.226z" fill="url(#r)"/><path d="m97.759 120.82s-.833-.069-.809-1.149c-.001-.917-.078-49.036-.078-49.036s-1.218-1.577.613-4.4c.547.131 3.495.727 4.101 4.256v40.37z" fill="url(#s)"/><path d="m140.843 78.598s-41.489 41.548-41.883 41.938c-.346.379-1.202.282-1.202.282l3.827-9.963 36.059-36.088s1.34-1.727 3.831-1.637z" fill="url(#t)"/><path d="m566.609 3.639-27.566 27.665-3.115-4.211 20.312-20.324 10.582-4.542c0 .001.349.847-.213 1.412z" fill="url(#u)"/><path d="m140.924 113.616-.079-35.025s-1.301-2.633.631-5.456c.593-.007 3.7.421 4.339 4.146l-.001 38.52z" fill="url(#v)"/><path d="m166.269 13.926-41.462 41.463c-1.987 1.986-5.045 1.836-5.045 1.836-1.795-3.531.315-6.065.315-6.065s50.503-50.49 50.867-50.87c.331-.417.541-.264.541-.264z" fill="url(#w)"/><path d="m249.815 12.762-74.376 74.375c-1.55 1.551-2.537 1.703-2.537 1.703-3.781-1.878-1.213-6.255-1.213-6.255s80.652-80.635 81.016-81.015c.943-1.093 1.761-.883 1.761-.883z" fill="url(#x)"/><path d="m343.396 13.139-84.163 84.161c-1.429 1.432-3.424 1.608-3.424 1.608-3.115-1.556-.776-6.175-.776-6.175s90.61-90.5 90.974-90.881c.941-1.098 1.781-.862 1.781-.862z" fill="url(#y)"/><path d="m394.984 13.254-42.513 42.514c-1.429 1.432-3.374 1.657-3.374 1.657-2.932-1.908-.588-5.983-.588-5.983s49.584-49.69 49.947-50.07c1.047-1.033 1.377-.66 1.377-.66z" fill="url(#z)"/><path d="m502.958 45.453-29.369 29.367-3.188-3.722 21.399-21.398 11.135-5.401s.414.294.023 1.154z" fill="url(#A)"/><path d="m513.634 89.96-28.848 28.651-3.258-4.465 20.049-20.049 12.289-5.38c.001.003.397.435-.232 1.243z" fill="url(#B)"/><path d="m481.083 6.777-76.912 76.913c-1.43 1.432-3.395 1.644-3.395 1.644-2.449-3.092-.686-5.979-.686-5.979l77.289-77.44z" fill="url(#C)"/><path d="m492.697 31.304-12.676 12.786c-2.771 2.282-1.801 5.608-1.801 5.608-2.25-.21-3.125-2.065-3.412-3.695-.285-1.63.303-3.422 1.348-4.467l14.469-14.44z" fill="url(#D)"/><path d="m142.17 153.316 77.913-77.943s1.437-1.873 4.267-1.771l-.456 5.223s-78.666 78.506-79.113 78.948z" fill="url(#E)"/><path d="m274.33 115.004 47.643-47.659s1.437-1.871 4.267-1.771l-.857 5.621-48.325 48.29z" fill="url(#F)"/><path d="m330.125 110.25 36.779-36.789c.842-.843 1.779-1.771 3.396-1.771l-.107 5.501-43.081 43.043c-.569.563-1.019.399-1.019.399z" fill="url(#G)"/><path d="m361.984 118.057 7.25-7.281 5.557 2.326-.734 1.047-3.813 4.437-.272.3h-7.72c-.34.014-.521-.271-.521-.271s-.155-.147.253-.558z" fill="url(#H)"/><path d="m223.983 117.338-.09-38.515s-1.738-2.016.457-5.223c.673-.01 4.202.478 4.928 4.707l-.001 36.694-4.561 4.115c0 .003-.73-.475-.733-1.778z" fill="url(#I)"/><path d="m325.449 119.945-.08-48.75s-1.472-2.681.871-5.621c.596-.009 3.243.472 3.885 4.702v39.975l-4.028 10.39c-.004-.002-.605-.143-.648-.696z" fill="url(#J)"/><path d="m369.234 110.775v-32.629s-2.113-3.379 1.064-6.456c.693-.008 4.132.24 4.492 4.323v37.088z" fill="url(#K)"/><path d="m448.91 74.82-13.451 13.479-3.844 4.809c-3.896-2.458-1.953-6.874-.912-7.925l14.088-14.079z" fill="url(#L)"/><path d="m501.58 94.098h-66.391c-2.502-.196-3.574-.992-3.574-.992-.012-3.571 3.844-4.809 3.844-4.809l77.746.001c.543-.001.662.422.662.422z" fill="url(#M)"/><g fill="#f2f2f2"><path d="m0 142.055v-9.521h2.876l1.728 6.494 1.708-6.494h2.883v9.521h-1.785v-7.496l-1.89 7.496h-1.851l-1.883-7.496v7.496z"/><path d="m17.224 132.532h1.922v5.155c0 .816.024 1.35.071 1.592.083.391.278.701.588.938s.732.354 1.27.354c.545 0 .957-.11 1.234-.334.277-.223.443-.496.5-.821.056-.324.084-.863.084-1.616v-5.268h1.922v5.001c0 1.144-.052 1.95-.155 2.423-.104.472-.296.87-.575 1.193-.279.324-.652.582-1.12.773-.468.192-1.078.289-1.832.289-.909 0-1.599-.104-2.068-.313-.47-.211-.841-.482-1.114-.818-.273-.335-.452-.688-.539-1.057-.125-.545-.188-1.353-.188-2.416z"/><path d="m33.025 142.055v-9.443h1.922v7.84h4.78v1.604h-6.702z"/><path d="m48.385 142.055v-7.91h-2.825v-1.61h7.566v1.61h-2.819v7.91z"/><path d="m60.438 142.055v-9.521h1.922v9.521z"/><path d="m70.324 142.055v-9.521h3.085c1.169 0 1.931.048 2.286.144.545.146 1.002.453 1.37.935.368.479.552 1.098.552 1.854 0 .584-.106 1.075-.318 1.477-.212.396-.482.711-.809.938-.327.229-.659.378-.997.452-.459.09-1.124.136-1.994.136h-1.253v3.594zm1.922-7.91v2.701h1.052c.757 0 1.264-.053 1.52-.15.256-.098.456-.254.601-.467s.217-.459.217-.74c0-.346-.102-.633-.305-.856-.204-.225-.461-.362-.773-.422-.229-.043-.691-.063-1.383-.063z"/><path d="m85.378 142.055v-9.443h1.922v7.84h4.78v1.604h-6.702z"/><path d="m99.582 142.055v-9.521h7.059v1.609h-5.137v2.108h4.78v1.604h-4.78v2.592h5.319v1.604z"/><path d="m189.966 142.055h-2.091l-.831-2.164h-3.806l-.786 2.164h-2.039l3.708-9.521h2.032zm-3.539-3.769-1.313-3.532-1.286 3.532z"/><path d="m197.124 142.055v-9.521h4.046c1.018 0 1.757.086 2.218.258.461.171.83.477 1.107.912.277.438.416.938.416 1.5 0 .714-.21 1.304-.63 1.771-.419.465-1.047.758-1.883.879.416.242.758.51 1.029.799.271.291.635.808 1.094 1.548l1.162 1.856h-2.299l-1.39-2.072c-.493-.739-.832-1.207-1.013-1.398-.181-.189-.375-.322-.578-.396-.203-.069-.526-.104-.968-.104h-.389v3.978h-1.922zm1.922-5.496h1.422c.922 0 1.498-.037 1.727-.115.23-.077.409-.213.539-.402.13-.188.195-.43.195-.714 0-.32-.085-.579-.256-.776-.171-.193-.412-.318-.724-.371-.156-.021-.623-.031-1.403-.031h-1.5z"/><path d="m218.945 138.552 1.864.593c-.286 1.041-.761 1.813-1.425 2.313-.664.504-1.508.757-2.53.757-1.264 0-2.303-.433-3.117-1.296-.814-.86-1.221-2.044-1.221-3.542 0-1.585.409-2.813 1.228-3.689.818-.877 1.894-1.313 3.228-1.313 1.165 0 2.11.344 2.838 1.03.433.406.757.992.974 1.755l-1.903.452c-.113-.491-.347-.881-.705-1.168-.358-.284-.791-.428-1.302-.428-.706 0-1.278.252-1.718.76-.44.507-.66 1.326-.66 2.461 0 1.203.217 2.062.65 2.572s.996.767 1.688.767c.511 0 .95-.162 1.318-.486.369-.33.633-.84.793-1.538z"/><path d="m237.175 142.055h-2.091l-.832-2.164h-3.806l-.786 2.164h-2.039l3.708-9.521h2.033zm-3.539-3.769-1.313-3.532-1.286 3.532z"/><path d="m244.32 132.532h3.514c.792 0 1.396.062 1.812.183.559.165 1.037.457 1.435.877.398.419.702.936.91 1.542.208.608.312 1.358.312 2.251 0 .782-.098 1.458-.292 2.025-.238.691-.578 1.254-1.02 1.682-.333.325-.784.578-1.351.762-.424.136-.991.203-1.701.203h-3.617v-9.521zm1.922 1.613v6.307h1.435c.537 0 .924-.03 1.163-.092.312-.077.57-.211.776-.396.206-.188.374-.49.503-.92.13-.426.195-1.007.195-1.743 0-.733-.065-1.301-.195-1.692-.13-.396-.312-.701-.545-.924-.234-.223-.53-.369-.89-.447-.269-.063-.795-.09-1.578-.09z"/><path d="m260.063 142.055v-9.521h7.059v1.609h-5.137v2.108h4.78v1.604h-4.78v2.592h5.319v1.604z"/><path d="m283.18 142.055v-9.521h2.877l1.729 6.494 1.707-6.494h2.883v9.521h-1.785v-7.496l-1.891 7.496h-1.854l-1.887-7.496v7.496z"/><path d="m309.001 142.055h-2.09l-.832-2.164h-3.809l-.782 2.164h-2.04l3.709-9.521h2.029zm-3.539-3.769-1.313-3.532-1.286 3.532z"/><path d="m322.246 138.552 1.863.593c-.285 1.041-.761 1.813-1.425 2.313-.665.505-1.509.757-2.53.757-1.264 0-2.303-.433-3.115-1.296-.813-.86-1.223-2.044-1.223-3.542 0-1.585.409-2.813 1.229-3.689.818-.877 1.896-1.313 3.229-1.313 1.165 0 2.108.344 2.839 1.03.434.406.76.992.977 1.755l-1.902.452c-.111-.491-.35-.881-.704-1.168-.356-.284-.791-.428-1.303-.428-.705 0-1.277.252-1.718.76-.439.507-.66 1.326-.66 2.461 0 1.203.218 2.062.648 2.572.434.51.994.767 1.688.767.51 0 .946-.162 1.313-.486.369-.33.633-.84.794-1.538z"/><path d="m331.897 142.055v-9.521h1.923v3.748h3.766v-3.748h1.924v9.521h-1.924v-4.164h-3.766v4.164z"/><path d="m347.569 142.055v-9.521h1.923v9.521z"/><path d="m357.472 142.055v-9.521h1.871l3.896 6.357v-6.357h1.786v9.521h-1.929l-3.839-6.209v6.209z"/><path d="m373.19 142.055v-9.521h7.06v1.609h-5.138v2.108h4.78v1.604h-4.78v2.592h5.319v1.604z"/><path d="m397.091 142.055v-9.521h7.06v1.609h-5.137v2.108h4.78v1.604h-4.78v2.592h5.319v1.604z"/><path d="m412.069 142.055v-9.521h2.877l1.728 6.494 1.709-6.494h2.883v9.521h-1.783v-7.496l-1.893 7.496h-1.852l-1.884-7.496v7.496z"/><path d="m429.292 132.532h1.922v5.155c0 .816.023 1.35.07 1.592.082.391.273.701.588.938.311.236.729.354 1.27.354.547 0 .957-.11 1.234-.334.277-.223.443-.496.5-.821.057-.324.084-.863.084-1.616v-5.268h1.924v5.001c0 1.144-.053 1.95-.156 2.423-.104.472-.297.87-.574 1.193-.279.324-.652.582-1.121.773-.467.192-1.078.289-1.83.289-.91 0-1.6-.104-2.068-.313-.471-.211-.842-.482-1.109-.818-.271-.335-.451-.688-.537-1.057-.127-.545-.189-1.353-.189-2.416v-5.077z"/><path d="m445.093 142.055v-9.443h1.922v7.84h4.781v1.604h-6.703z"/><path d="m467.882 142.055h-2.092l-.83-2.164h-3.807l-.785 2.164h-2.039l3.707-9.521h2.033zm-3.539-3.769-1.313-3.532-1.285 3.532z"/><path d="m476.191 142.055v-7.91h-2.826v-1.61h7.564v1.61h-2.816v7.91z"/><path d="m487.671 137.352c0-.972.146-1.783.438-2.44.215-.484.51-.92.885-1.308.375-.387.785-.67 1.23-.854.594-.251 1.277-.376 2.053-.376 1.402 0 2.525.438 3.367 1.305.842.87 1.264 2.081 1.264 3.633 0 1.535-.418 2.737-1.254 3.605-.836.867-1.953 1.302-3.352 1.302-1.416 0-2.541-.433-3.377-1.296s-1.254-2.057-1.254-3.571zm1.983-.066c0 1.078.248 1.896.746 2.45.498.558 1.131.834 1.896.834.768 0 1.396-.273 1.887-.825.492-.554.736-1.381.736-2.485 0-1.09-.238-1.902-.717-2.439-.48-.535-1.113-.805-1.906-.805s-1.43.271-1.916.813-.726 1.362-.726 2.457z"/><path d="m504.544 142.055v-9.521h4.047c1.018 0 1.756.086 2.217.258.461.171.83.477 1.107.912.277.438.416.938.416 1.5 0 .714-.211 1.304-.631 1.771-.42.465-1.047.758-1.883.879.416.242.76.51 1.021.799.271.291.645.808 1.102 1.548l1.156 1.856h-2.296l-1.391-2.072c-.492-.739-.83-1.207-1.012-1.398-.186-.189-.375-.322-.578-.396-.203-.069-.525-.104-.971-.104h-.391v3.978h-1.92v-.006h.004v-.002h.003zm1.922-5.496h1.424c.922 0 1.498-.037 1.727-.115.23-.077.41-.213.541-.402.129-.188.193-.43.193-.714 0-.32-.086-.579-.258-.776-.17-.193-.41-.318-.723-.371-.156-.021-.623-.031-1.402-.031h-1.502z"/></g></svg>