<svg height="592.5" preserveAspectRatio="xMidYMid meet" viewBox="0 0 923 592.5" width="923" xmlns="http://www.w3.org/2000/svg"><g transform="translate(-127 -48.6)"><g fill="#fff"><path d="m129.7 640.3-.7-.6v-9.4-9.3h6 6v9.4 9.4l-1.6.6c-2.1.8-8.9.8-9.7-.1z"/><path d="m158.7 640.4-.7-.7v-9.4-9.3h6 6.1l-.3 9.8-.3 9.7-5 .3-5.1.3z"/><path d="m187.7 640.3-.7-.6v-9.4-9.3h6 6v9.4 9.4l-1.6.6c-2.1.8-8.9.8-9.7-.1z"/><path d="m208.5 640.3c-1.1-.3-2.6-1.2-3.2-2.1l-1.3-1.6v-7.8-7.8h6.5 6.5v1 1h15.6 15.5l-.3 3.8-.3 3.7-15.5.5-15.5.5 1.5.7 1.5.8 15.5.2 15.5.3.3 2.9.4 2.9-1.4.8-1.3.9-19-.1c-10.4-.1-19.9-.3-21-.6z"/><path d="m255.7 640.4-.7-.7v-9.4-9.3h6 6.1l-.3 9.8-.3 9.7-5 .3-5.1.3z"/><path d="m270.7 640.3c-.4-.3-.7-2.1-.7-4v-3.3h12 12v-6-6h6 6.1l-.3 8.7-.3 8.7-2.5 1.3-2.5 1.3h-14.6-14.6z"/><path d="m313.7 640.3-.7-.6v-14.4-14.3h6.5 6.5v14.4 14.4l-1.6.6c-.9.3-3.5.6-5.8.6h-4.3z"/><path d="m336.3 640.3-1.3-.5v-9.4-9.5l6.3.3 6.2.3.3 8.9.3 8.9-1.3.9-1.3.8-4-.1c-2.2 0-4.6-.3-5.2-.6z"/><path d="m374.7 640.4c-.4-.4-.7-1.6-.7-2.6v-1.8h-12-12v-4-4h12 12v-3.5-3.5h6 6.1l-.3 9.8-.3 9.7-5 .3-5.1.3z"/><path d="m415 639.7-2.5-1.3-.3-8.7-.3-8.7h5.9 5.8l1 1 .9.9 15 .3 15 .3v3.5 3.5l-15.8.3-15.8.3.6.9.6 1h16.5 16.4v3.4 3.4l-1.6.6-1.6.6h-18.6-18.7z"/><path d="m465.4 639.7c-.3-.8-.4-5.2-.2-9.8l.3-8.4 6.3-.3 6.2-.3v9.4 9.5l-1.6.6c-.9.3-3.6.6-6 .6h-4.5z"/><path d="m505.3 640.3-1.3-.5v-9.4-9.4h6.5 6.5v9.4 9.4l-1.6.6c-1.8.7-8.3.7-10.1-.1z"/><path d="m524.7 640.4-.7-.7v-9.4-9.3h6 6.1l-.3 9.8-.3 9.7-5 .3-5.1.3z"/><path d="m563 638.5-.9-2.4-11.8-.3-11.8-.3-.3-3.7-.3-3.7 12.3-.3 12.3-.3.3-3.2.3-3.3h6 5.9v9.4 9.4l-1.6.6c-.9.3-3.3.6-5.5.6h-3.9z"/><path d="m582.7 640.4-.7-.7v-9.4-9.3h6 6.1l-.3 9.8-.3 9.7-5 .3-5.1.3z"/><path d="m622.3 640.4-1.3-.6v-1.9-1.9h-12-12l-.6-2.5-.6-2.5.5-1.5.6-1.4 11.8-.3 11.8-.3.3-3.2.3-3.3h6 6l-.3 9.8-.3 9.7-4.5.2c-2.5.1-5.1 0-5.7-.3z"/><path d="m640.7 640.3-.7-.6v-9.4-9.3h6.5 6.5v9.4 9.4l-1.6.6c-.9.3-3.5.6-5.8.6h-4.3z"/><path d="m679.7 640.4-.7-.7v-9.4-9.3h6 6.1l-.3 9.8-.3 9.7-5 .3-5.1.3z"/><path d="m702.1 639.7-2.5-1.2-.8-3.3-.9-3.4.3-5.1.3-5.2 6.2-.3 6.2-.3.3 5.8.3 5.8 19.3.3 19.2.2v3.4 3.4l-1.6.6-1.6.6h-21.1-21.2z"/><path d="m760 639.7-2.5-1.3-.3-8.7-.3-8.7h5.9 5.8l1 1 .9.9 15 .3 15 .3v3.5 3.5l-15.8.3-15.8.3.6.9.6 1h16.5 16.4v3.4 3.4l-1.6.6-1.6.6h-18.6-18.7z"/><path d="m811.3 640.3-1.3-.5v-9.4-9.4h6.5 6.5v9.4 9.4l-1.6.6c-1.8.7-8.3.7-10.1-.1z"/><path d="m840.7 640.3-.7-.6v-9.4-9.3h6 6v9.4 9.4l-1.6.6c-2.1.8-8.9.8-9.7-.1z"/><path d="m872.3 640.4-1.3-.6v-9.4-9.4h6 6.1l-.3 9.8-.3 9.7-4.5.2c-2.5.1-5.1 0-5.7-.3z"/><path d="m894 639.7-2.5-1.3-.3-8.7-.3-8.7h6 6l.6 1 .6 1h15 14.9v4 4h-15.6-15.5l.6 1 .6 1h16.5 16.4v3.4 3.4l-1.6.6-1.6.6h-18.6-18.7z"/><path d="m945.3 640.3-1.3-.5v-9.4-9.4h6.5 6.5v9.4 9.4l-1.6.6c-1.8.7-8.3.7-10.1-.1z"/><path d="m984.3 640.4-1.3-.6v-9.4-9.4h6 6.1l-.3 9.8-.3 9.7-4.5.2c-2.5.1-5.1 0-5.7-.3z"/><path d="m1020.7 640.4-.7-.7v-9.4-9.3h6 6.1l-.3 9.8-.3 9.7-5 .3-5.1.3z"/><path d="m129 614.5v-3.5h34 33.9l1.1 1.9c.5 1.1 1 2.7 1 3.5v1.6h-35-35z"/><path d="m204 614.5v-3.5h23.5 23.5v3.5 3.5h-23.5-23.5z"/><path d="m255 614.5v-3.5h24.3 24.3l1.2 1.2 1.2 1.2v2.3 2.3h-25.5-25.5z"/><path d="m335 616.7c0-.7.7-2.3 1.6-3.5l1.5-2.2h22.8 22.7l1.2 1.2 1.2 1.2v2.3 2.3h-25.5-25.5z"/><path d="m412 614.5v-3.5h23 23v3.5 3.5h-23-23z"/><path d="m465.4 616.6c-.3-.8-.4-2.3-.2-3.3l.3-1.8 24.1-.3 24.1-.2 1 1.2c.6.7 1.4 2.3 1.7 3.6l.7 2.2h-25.6-25.6z"/><path d="m524 614.5v-3.5h6 6v3.5 3.5h-6-6z"/><path d="m563 614.5v-3.5h6 6v3.5 3.5h-6-6z"/><path d="m582 616.4c0-.8.5-2.4 1-3.5l1.1-1.9h23.4 23.4l1.1 1.9c.5 1.1 1 2.7 1 3.5v1.6h-25.5-25.5z"/><path d="m640 614.5v-3.5h24.3 24.3l1.2 1.2 1.2 1.2v2.3 2.3h-25.5-25.5z"/><path d="m699 615.7v-2.3l1.2-1.2 1.2-1.2h24.3 24.3v3.5 3.5h-25.5-25.5z"/><path d="m757 614.5v-3.5h23 23v3.5 3.5h-23-23z"/><path d="m810 614.5v-3.5h35.3 35.3l1.2 1.2 1.2 1.2v2.3 2.3h-36.5-36.5z"/><path d="m891 614.5v-3.5h23 23v3.5 3.5h-23-23z"/><path d="m944 614.5v-3.5h24.3 24.3l1.2 1.2 1.2 1.2v2.3 2.3h-25.5-25.5z"/><path d="m1003 614.5v-3.5h23 23v3.5 3.5h-23-23z"/><path d="m128 465v-51h30.5 30.5l-.2 50.8-.3 50.7-30.2.3-30.3.2z"/><path d="m274.5 514.8c-.3-.7-.4-23.6-.3-50.8l.3-49.5h30.5 30.5v50.5 50.5l-30.3.3-30.3.2z"/><path d="m421.7 515.3-.7-.6v-50.4-50.3h30.5 30.5l-.2 50.8-.3 50.7-29.6.3-29.5.2z"/><path d="m507.5 514.7c-.3-.7-.4-9.4-.3-19.2l.3-18 95.6-.5 95.6-.5 1.6-1.4 1.7-1.3v-3-2.9l-3.5-1.5-3.4-1.4h-83.7-83.7l-4.1-1.2-4.1-1.3-3.6-3.6-3.7-3.7-2.2-5.8-2.3-5.9-.5-14.7-.4-14.8h30.4 30.4l1.2 4.5 1.2 4.4 2.7 1.8 2.7 1.8 82.1.5 82 .5 5.5 2.6 5.5 2.6 3.3 3.3 3.3 3.2 2.4 4.8 2.5 4.9 1.1 7.3 1.2 7.3-.6 14-.6 14-1.5 5-1.5 5-3 4.7-3 4.7-4.3 2.3-4.3 2.3-118.8.3-118.7.2z"/><path d="m806.9 515.1-3.6-.7-3.6-2.3-3.7-2.3-2.5-4.1-2.4-4.2-1.5-6-1.6-5.9v-37.8-37.8l30.3.2 30.2.3.5 28 .5 28 1.3 2.2c.7 1.3 2.1 2.7 3.2 3.3l1.9 1h59.6 59.6l2.8-1.5 2.9-1.4 1.1-3.2 1.1-3.2v-26.8-26.9h30.6 30.5l-.3 40.3-.3 40.2-2.3 5.5-2.2 5.6-3.7 3.6c-2.1 1.9-4.9 4.2-6.3 4.9l-2.5 1.4-108 .1-108 .2z"/><path d="m128 383v-19h168 168.1l3.2 1.3 3.2 1.4 3.7 4.1 3.7 4.1 1.6 5.3 1.7 5.3.5 8.3.6 8.2h-177.2-177.1z"/><path d="m507.3 393.8.5-8.3 1.7-5.2 1.8-5.2 2.9-3.6 3-3.6 3.9-1.9 3.8-2h113.1 113v19 19h-122.1-122.2z"/><path d="m788 383v-19h30.5 30.5l-.2 18.8-.3 18.7-30.2.3-30.3.2z"/><path d="m983 383v-19h30.5 30.5v19 19h-30.5-30.5z"/><path d="m127 304.9c0-.6 5.9-11.1 13.1-23.2 7.3-12.2 18-30.3 23.9-40.2l10.6-18 3.5-1.7 3.4-1.8h15.3 15.2v5.8 5.9l.6.6.7.6 2.7-4.2c1.5-2.3 3.7-5.1 5-6.2l2.2-2 20.9-.3 20.9-.3v43 43.1h-12-12v-33.1-33.1l-1.1.4-1.2.4-19.2 32.4-19.3 32.5-14.6.3-14.6.3v-.9c0-.4 8.1-14.5 18-31.2s18-30.7 18-31.2v-.8h-6.3-6.4l-1.5 1.8c-.8.9-9.5 15.3-19.4 32l-17.8 30.2h-14.3-14.3z"/><path d="m281 274.5v-31.6l6.2-10.5 6.2-10.5 1.8-1 1.7-.9 31.8.2 31.8.3.3 9.3.3 9.2h-23.4-23.4l-2 2.3c-2.6 3-6.3 9.5-6.3 11.2v1.5l27.4.2 27.5.3-5 8.8-5.1 8.7h-22.4-22.4v7.5 7.5l27.3.2 27.2.3.3 9.3.3 9.2h-40.1-40z"/><path d="m372.1 303.4-3.1-2.6v-26.7-26.7l7.5-12.7 7.5-12.6 2-1.1 1.9-1 32.8.2 32.8.3v9 9l-24.7.5-24.7.5-.9 1c-.5.6-3 4.6-5.6 9l-4.6 8v14.7 14.8h20.5 20.5v-7-7h-9-9v-1.1c0-.6 2.3-4.9 5.1-9.5l5-8.4h16 15.9v23.3l-.1 23.2-1.2 1.6c-.7.9-2.2 2.1-3.4 2.7l-2.2 1.2h-38-37.9z"/><path d="m471 263v-43h23.4 23.3l3.4 2.3 3.4 2.3 12.1 20.4c6.6 11.3 17.2 29 23.4 39.4 6.1 10.5 11.4 19.6 11.7 20.3l.5 1.4-14.8-.3-14.8-.3-4.4-7.2-4.3-7.3h-13.9-13.9l-4.7-8c-2.6-4.4-5.1-8-5.6-8h-.8v15.5 15.5h-12-12zm51 8.4c0-1.3-16.9-29-18.7-30.6l-2-1.8h-3.1-3.2v15.8 15.9l.7.6.6.7h12.9 12.8z"/><path d="m611 263v-43h34.3 34.4l4.2 2.3 4.3 2.2 5.2 8.5c2.8 4.7 7.5 12.6 10.4 17.5l5.2 9.1v3.8 3.7l-10 16.9-10.1 16.9-3.2 2.3-3.2 2.3-35.7.3-35.8.3zm62.8 13.3 6.2-10.8v-2.5-2.5l-6.3-10.5-6.3-10.5-16.2-.3-16.2-.2v24 24h16.3 16.2z"/><path d="m712 263v-43.1l35.8.3 35.9.3 3.5 2.7 3.6 2.7 4.6 7.9 4.6 7.9v3.6 3.6l-7.4 12.5-7.4 12.5 8.9 15.1c4.9 8.3 8.9 15.5 8.9 16v1h-14.4-14.3l-12.6-21.2-12.6-21.3 6.5-.5 6.5-.5 5.1-8.7 5-8.7-1.8-3-1.8-3.1h-16.3-16.3v33.5 33.5h-12-12z"/><path d="m819 263v-43h12 12v43 43h-12-12z"/><path d="m866.7 281.1-14.7-24.8.2-17.9.3-17.9h12 12l.5 14.2.5 14.1 11.5 19.6c6.3 10.7 11.8 19.6 12.1 19.6s5.7-8.7 12-19.2l11.4-19.3.5-14.5.5-14.5h12 12l.3 18.1.2 18.1-12.6 21.4c-7 11.8-13.6 22.9-14.7 24.7l-1.9 3.2h-19.7-19.7z"/><path d="m964 274.4v-31.6l6.5-10.8 6.5-10.8 1.6-.6 1.6-.6h31.9 31.9v9.5 9.5l-23.7.2-23.8.3-3.7 5.5-3.7 5.5-.1 1.7v1.8l27.5.2 27.5.3-5.1 8.8-5.1 8.7h-22.4-22.4v7.5 7.5l27.3.2 27.2.3.3 9.3.3 9.2h-40.1-40z"/><path d="m401.2 158.8.3-8.3 29-.5 29-.5 3.1-1.7c1.7-.9 4.5-3.3 6.1-5.2l3.1-3.4 1.2-3.7 1.2-3.7-.4-4.8-.5-4.8-2.7-4.6-2.7-4.5-4.7-2.8-4.6-2.8-12.6-.5-12.5-.5-3-1.7c-3.6-1.9-5.7-4.2-7.9-8.5l-1.6-3.2v-4.1-4.1l1.4-3.2 1.3-3.2 3.6-3.2 3.7-3.2 3.9-1.1 3.9-1 25.9.2 25.8.3.3 8.2.3 8.3-26.3.2-26.3.3v1.5 1.5l12.5.5 12.5.6 5.7 2.8 5.7 2.7 4.6 4.5 4.6 4.5 3.2 6.7 3.2 6.7v9.5 9.5l-3.2 6.6-3.3 6.6-5 4.7-5.1 4.7-5.7 2.7-5.7 2.7-30.8.3-30.8.3z"/><path d="m520.2 165.1-5.3-1.8-3.7-3-3.7-2.9-3.2-4.8-3.3-4.8-1-3.9-1.1-3.9.3-33.2.3-33.3 2.5-4.9 2.5-4.8 5.2-4.8 5.2-4.8 4.7-1.6 4.8-1.6h31.3 31.4l-.3 7.8-.3 7.7-30.5.5-30.5.5-2.8 1.9c-1.5 1-3.8 3.3-5 5l-2.2 3.1-.3 29.8-.3 29.8 2.1 4.4 2.1 4.3 2.7 1.9 2.7 1.8 31 .5 31 .5v8 8l-30.5.2-30.5.2z"/><path d="m615.3 165.6c-2.3-.8-5.7-2.3-7.7-3.5l-3.5-2.2-4.1-4.6-4-4.6-2.1-6.8-2-6.7.3-30.8.3-30.9 2.6-5.6 2.7-5.7 3.9-3.9 4-4 4.9-2.4 4.9-2.4 31.8-.3 31.7-.3v8.1 8h-28.3-28.3l-4.4 2.3-4.5 2.2-2.2 4.5-2.3 4.4v28.3 28.4l1.4 3.2 1.4 3.2 3.1 3 3.2 3 22 .3 21.9.3v-21.5-21.5l-14.7-.3-14.8-.3v-7.5-7.5l22.8-.3 22.7-.2v30.7 30.7l.9-.9c.4-.6 5.1-13.8 10.4-29.5 5.4-15.7 12.1-35.6 15.1-44.3l5.3-15.8 3-3.7 3-3.7 5.2-2.9 5.3-2.9h6.4l6.3-.1 5.8 3 5.7 2.9 3.1 4.1 3.1 4.1 17.2 50.9c9.5 28 17.2 51.5 17.2 52.2v1.2l-32.2-.2-32.3-.3v-8-8l21.2-.3 21.2-.2-13.9-41.3-13.9-41.2-2.2-1.7-2.1-1.8h-3.2-3.2l-2.1 1.5-2.1 1.5-2.6 6.7c-1.4 3.8-9 25.8-17 49-8 23.3-14.8 42.7-15.1 43.3l-.6 1-35.7-.1h-35.7z"/><path d="m696 165.7c0-.8 3.9-12.6 8.6-26.3s11-31.9 13.9-40.4 6.3-18.4 7.5-22l2.2-6.5 2-1.8c2.4-2 3.8-2.1 6.1-.4l1.7 1.2 13 38.4c7.1 21.1 13 38.5 13 38.7s-8.5.4-19 .4h-19v-5.7l-.1-5.8-1.3 2.5c-.7 1.4-3.3 8.5-5.7 15.8l-4.3 13.2h-9.3-9.3zm41.3-37.3.5-.6-1.9-5.6c-1.1-3.2-2.2-6.4-2.5-7.2l-.6-1.5-2.4 6.9c-1.3 3.9-2.4 7.4-2.4 7.8v.8h4.3c2.4 0 4.6-.3 5-.6z"/><path d="m525.3 145.9-4.1-2-1.6-3.4-1.6-3.3v-13.1-13.1h28.5 28.5v8 8h-19.4-19.5l-.5.9-.6.9 1.3 1.1 1.4 1.1 24.4.2 24.4.3.3 7.4.3 7.4-1.3.8-1.3.9h-27.5-27.5z"/><path d="m401 139v-8l26.2-.2 26.3-.3.3-1.7.3-1.8h-9.8-9.8l-5.3-1.4-5.2-1.4-4.4-2.6-4.4-2.5-4.5-5.1-4.6-5.1-2.2-5.7-2.3-5.7v-9l-.1-9 3.1-6.5 3.1-6.5 4.6-4.7 4.7-4.7 5.8-2.8 5.7-2.8 31.3-.3 31.2-.3v8 8l-28.7.3-28.8.3-4.7 2.8-4.7 2.8-2.7 4.5-2.7 4.6-.5 4.8-.4 4.8 1.2 3.7 1.2 3.7 3.1 3.4 3 3.5 4.1 2.1 4.1 2.1 11.5.4 11.5.4 2.7 1.1 2.8 1 3.4 3.9 3.5 3.8.7 3.6.6 3.6-.5 4.1-.5 4-2.9 3.6-2.9 3.5-3.4 1.8-3.5 1.9h-28.2-28.3z"/><path d="m617.5 144.8-2.7-2.1-1.4-3.3-1.4-3.3v-27.7-27.6l1.7-3.5 1.7-3.6 4.2-1.9 4.3-1.8 27.3.2 27.3.3v8 8l-23.4.3-23.4.2-1.4 1.1-1.3 1.1v18.8 18.8l.6 1.6.6 1.6h5.9 5.9v-1.4-1.5l-4.7-.3-4.8-.3-.3-7.7-.3-7.7 2.3-.6 2.3-.6 10.5.3 10.5.3.3 18.3.2 18.2h-18.8-18.9z"/><path d="m518.7 106.3-.7-.6v-12.7-12.7l2.3-3.4 2.2-3.4 3.5-1.7 3.5-1.8h28.3 28.2v8.5 8.5h-24.3-24.3l-1.2 1.2c-.7.7-1.2 1.6-1.2 2v.8h20 20v8 8h-27.8-27.9z"/></g><path d="m129.4 578.7c-.2-.7-.3-6.7-.2-13.3l.3-11.9 460.2-.3 460.3-.2v13.5 13.5h-460-460.1z" fill="#f00"/></g></svg>