<svg height="135" viewBox="0 0 272.67 135" width="272.67" xmlns="http://www.w3.org/2000/svg"><path d="m9.5 9.1667h253.17v116.83h-253.17z"/><path d="m0 0h272.67v135h-272.67zm262.67 9.0829h-253.25v116.92h253.25zm-90.275 112.98c-2.5357-1.7749-3.7662-4.1983-3.9525-9.4624-.16732-4.7276.46384-7.0857 1.8145-9.2154 1.3268-2.0921 3.192-2.822 5.6954-2.6409 1.2353.0893 2.2824.37321 2.9606.85614 1.0831.77125 2.1574 2.7341 2.6951 4.4958.10103.33102.29409 1.0463.29409 1.0463s-.80492.35708-1.9479.78589l-1.7844.66946-.29349-.88331c-.43224-1.3009-1.2972-2.0345-2.2061-2.0345-2.2168 0-2.9419 1.5085-2.9419 6.3174 0 3.8404.69012 5.2724 2.1199 5.7712 1.5502.54075 2.3391-.67375 2.916-1.9094.28697-.61469.39515-1.3972.46049-2.0723l3.8389 1.7099c-.588 3.7894-1.5114 4.9494-2.5202 5.916-.87167.83512-1.6372 1.24-3.7477 1.3191-1.8558.0695-2.6251-.12604-3.4007-.66894zm-158.73-21.088h5.628l2.2696 12.543 2.2001-12.543h5.569v21.331h-3.3886v-15.557l-2.7533 15.557h-3.1312l-2.6926-15.809v15.809h-3.7009zm18.667 0h11.333v4.4279h-7.1667v3.5229h6.8333v4.747h-6.8333v3.919h7.5v4.7145h-11.667zm14 0 4.6856-.0296c3.8612.0998 3.9175.2922 4.9405 1.0219.66532.47451 1.4837 1.5657 2 2.6667.82891 1.7676 1.2659 2.138 1.2659 7.1968 0 5.1821-.76596 6.2687-1.3369 7.2576-1.3773 2.3856-1.8497 3.1901-6.9973 3.2178h-4.5577zm7.2169 16.2c1.8427-1.2907 1.9322-9.0341.12338-10.671-.32501-.29413-1.1345-.62299-1.7989-.73081l-1.208-.0218v11.913h1.0925c.60088 0 1.4069-.22019 1.7911-.4893zm8.1164-16.2h4.3333v21.331h-4.3333zm11.359 0h4.5843l5.1656 21.331h-4.368l-.83696-3.332-4.7341.0181-.68605 3.3139h-4.4026zm3.6278 13.214-1.3987-7.2877-1.4818 7.2877zm28.346-13.224 3.9933.0142 5.3123 11.597.0278-11.58h3.6666v21.333l-3.8333-.01-5-11.482-.1824 11.492h-3.9843zm16.333.0318h4.1339v7.5979h4.8662v-7.5979h4.3334v21.333h-4.3334v-8.598h-4.8662v8.5979h-4.1339zm129.33 5.3333h-4.3333v-5.3333h13v5.3333h-4.6667v16h-4zm-159.68-5.3639h11.333v4.4279h-7.1667v3.5229h6.8333v4.747h-6.8333v3.919h7.5v4.7145h-11.667zm50.408.0727h4.5843l5.1656 21.331h-4.368l-.83695-3.332-4.7341.0181-.68605 3.3139h-4.4026zm3.6278 13.214-1.3987-7.2877-1.4818 7.2877zm7.7201-13.295 3.9933.0142 5.3123 11.597.0278-11.58h3.6666v21.333l-3.8333-.01-5-11.482-.1824 11.492h-3.9843zm31.649-.0533h11.333v4.4279h-7.1667v3.5229h6.8333v4.747h-6.8333v3.919h7.5v4.7145h-11.667zm32.394.14531h11.333v4.4279h-7.1667v3.5229h6.8333v4.747h-6.8333v3.919h7.5v4.7145h-11.667zm-18.504.001h5.628l2.2696 12.543 2.2001-12.543h5.569v21.331h-3.3886v-15.557l-2.7533 15.557h-3.1312l-2.6926-15.809v15.809h-3.7009zm32.54-.0364 3.9933.0142 5.3123 11.597.0278-11.58h3.6666v21.333l-3.8333-.01-5-11.482-.1824 11.492h-3.9843z" fill="#fdfdfd"/><path d="m114.67 73.358h34.704c3.668 0 5.4352-.9225 6.5944-1.5924 4.7261-2.7312 6.975-6.7979 6.9538-11.734-.0211-4.9337-2.6877-9.8955-7.8466-12.301-1.8611-.86787-1.9922-1.0636-10.073-1.0636-1.5492 0-3.5873.02965-5.1476 0-6.4629-.12283-11.716-5.0959-11.676-10.282.0437-5.6015 2.4675-10.908 12.784-10.908h32.373v9.1887h-33.49c-1.8543 0-2.0796.67625-2.0796 1.2971 0 .68335.25732 1.7219 2.0202 1.7219h6.1975c7.6131 0 9.116.18604 13.001 1.7551 6.0406 2.4399 11.515 8.2996 13.445 14.392.97855 3.0884 1.0417 8.7597.12806 11.5-2.4725 7.416-8.1954 13.289-14.953 15.943-1.7094.67154-5.1564 1.0685-8.825 1.0706h-34.11zm0-12.348h33.529c1.1224 0 2.0991-.30683 2.0991-1.4964 0-.93342-.91527-1.5068-1.9515-1.5068h-6.751c-7.7782 0-9.4204-.25533-13.151-1.9916-6.5962-3.0698-11.775-9.0789-13.262-15.387-.65417-2.7752-.64641-6.8445.018-9.4139.62436-2.4146 2.4035-6.0802 4.0198-8.282 1.7952-2.4456 5.5416-5.7234 8.0247-7.0211 4.3626-2.2799 9.1638-2.6374 13.601-2.6434h32.491v8.7318h-32.354c-9.9584 0-15.397 6.4609-15.438 13.605.16422 6.4098 4.5496 13.395 13.806 13.395 1.6603 0 7.9384-.02755 9.702 0 4.2604.06656 8.1736 2.5413 10.173 5.9164 1.5466 2.6109 1.5255 6.3554.23243 9.1006-1.3714 2.9118-4.1456 5.3305-7.5988 5.9573-.3613.06559-1.2184.26557-2.5254.26557h-34.664z" fill="#1d57a1"/><path d="m209.83 83.297c-7.7715-.99235-15.354-4.7666-21.009-10.457-4.5073-4.5359-10.483-14.005-10.492-24.318v-35.529l27.107.17418v30.88c0 4.6626 3.4304 10.585 11.568 12.034l-.174 27.449-2.3333.01732c-1.2836.0095-3.3833-.08642-4.6667-.25029zm9.5-27.244c.52344-.03857 1.7467-.20522 2.1765-.32092l6.0611 27.475c-2.3298.26134-6.0002.32349-8.0428.32349zm3.0905-.61358c.78241-.23692 1.9176-.78881 2.3877-1.0878l14.986 24.72c-2.0467 1.2641-6.2654 2.9484-8.9666 3.5946zm3.5053-1.8534c.42977-.35263 1.4566-1.2978 1.7484-1.6395l21.156 20.093c-1.7205 1.9165-4.896 4.5651-7.1174 5.9589zm2.6915-2.8095c.46663-.569 1.017-1.4735 1.1818-1.9308l25.159 14.015c-.47912 1.2849-3.5647 6.2316-4.8278 7.6472zm1.7444-3.5888c.17635-.4585.3876-1.5778.44188-2.0413l26.943 7.572c-.26134 2.1778-1.2888 6.3404-2.1381 8.3001zm.51683-3.9918c.0386-.37713.0671-.99643.0709-1.3417l27.297-.02092-.0396 2.5c-.0321 2.0272-.15251 5.1121-.26572 6.0309zm.11809-30.196h27.25v27.333h-27.25z" fill="#13ae16"/><path d="m13.333 87h246v9.6667h-246zm.0618-4.5833 52.508-68.417v56l43.283-56v68.417z" fill="#fc0100"/></svg>