<svg height="122.02368" width="400" xmlns="http://www.w3.org/2000/svg"><g fill-rule="evenodd" transform="matrix(2.162182875 0 0 -2.162182875 -8.38651225 269.39924375)"><path d="m50.3586 107.836-13.7016-16.8106 4.1629 16.4556-20.5504-19.0962c-3.5152 1.7613-5.6199 4.1164-5.6199 6.8019 0 6.3223 11.6668 12.1363 25.9723 12.9413 3.4402.193 6.7273.08 9.7367-.292zm.9574-21.045 5.3266 19.784c6.0527-1.765 9.9512-4.811 9.9512-8.4656 0-4.6406-6.2821-9.0051-15.2778-11.3184zm-25.9601-14.0055 5.9476 21.6102-11.982-12.2125c-6.7492 2.4856-10.85314 6.3715-10.81759 10.8934 0 8.3194 14.29409 15.7194 31.82069 16.4734 3.8824.167 7.6059-.007 11.0504-.467l8.8742 10.888-3.2203-11.961c9.0598-2.278 15.1164-6.782 15.1164-12.1963 0-7.9942-13.2-15.1395-29.7828-16.3543l5.3969 19.298z" fill="#d63647"/><path d="m85.8086 105.203h-7.327l-5.9222-20.3233h5.5933l2.3215 7.9664.961 4.6418-.57-12.6082h4.3629l6.7422 12.3879-1.7363-4.4215-2.3207-7.9664h5.5652l5.9223 20.3233h-7.2988l-6.7895-12.3569z"/><path d="m101.778 105.203-5.9225-20.3233h6.0695l5.921 20.3233z"/><path d="m114.886 100.373c1.54.042 2.7-.298 3.477-1.0195.778-.7215.896-2.075.355-4.0613-.341-1.1707-.75-2.1277-1.227-2.8699-.478-.7422-1.015-1.3227-1.612-1.7403-.598-.4183-1.238-.6953-1.921-.8312-.683-.1356-1.409-.1832-2.18-.1414zm-4.55 4.83-5.923-20.3233h7.915c1.417 0 2.772.1879 4.066.5641 1.293.3761 2.483.9878 3.569 1.8347 1.085.8465 2.049 1.9449 2.889 3.2934.84 1.3484 1.513 2.9844 2.017 4.909.511 1.9437.586 3.5433.224 4.7981-.361 1.255-.938 2.248-1.732 2.98-.793.731-1.7 1.239-2.717 1.521-1.018.282-1.937.423-2.757.423z"/><path d="m127.423 105.203-1.223-20.3233h5.873l5.394 11.6984-1.228-11.6984h5.901l10.286 20.3233h-5.678l-5.614-12.3569 1.615 12.3569h-5.509l-5.335-12.3569 1.559 12.3569z"/><path d="m154.405 91.7477 3.691 6.6175-.138-6.6175zm2.607 13.4553-12.466-20.3233h6.124l1.355 2.6344h5.902l-.181-2.6344h6.124l-.565 20.3233z"/><path d="m164.704 105.203 2.928-12.9842-2.139-7.3391h5.901l2.138 7.3391 10.72 12.9842h-6.936l-4.856-6.5866-1.045 6.5866z"/></g></svg>