<svg height="155.76596" viewBox="0 0 602.16531 280.37873" width="334.53629" xmlns="http://www.w3.org/2000/svg" xmlns:xlink="http://www.w3.org/1999/xlink"><linearGradient id="a" gradientUnits="userSpaceOnUse" x1=".563391" x2="532.58771" y1="141.07684" y2="141.07684"><stop offset="0" stop-color="#3c409a"/><stop offset=".25224191" stop-color="#3d469e"/><stop offset=".45872644" stop-color="#55beed"/><stop offset=".72193927" stop-color="#55beed"/><stop offset="1" stop-color="#fff"/></linearGradient><g transform="translate(-.563391 -.887472)"><text fill="#ef00eb" font-family="TrasksHand" font-size="3.6" stroke="#0105ff" stroke-width="4.5" x="489.59573" y="226.33107"><tspan fill="#fafafa" fill-opacity=".4" font-size="3.6" stroke="none" stroke-width="4.5" x="489.59573" y="226.33107">John Loreth 2022</tspan></text><path d="m80.77264 181.90777c61.26601-23.42709 139.17475-84.480915 205.95455-169.015447 20.63136-25.443346 68.22292-9.0135231 56.03071 35.780518-1.04344 9.03075-21.3764 37.693578-25.37825 55.692059-5.06667 62.97295 49.42078 47.1706 62.41538 25.01641l25.26418-38.270571c33.60978-39.342671 64.37893 7.521232 42.95152 48.458691-5.37959 29.81637 13.62486 41.3967 32.92566 26.71755 25.93343-44.67886 59.12201-33.17604 50.15495 4.15441-6.17582 21.07471-22.45827 44.79919-37.81596 54.17656-33.38997 20.38786-66.88287 7.37524-83.75653-18.60815-18.88554-27.33997-27.3736-6.21853-38.59141 2.17991-30.38577 39.27324-103.69624 46.352-122.78988-6.27059-11.58858-62.59338-28.94315-24.62608-71.69474 21.21798-26.62248 32.49969-72.96755 59.59538-103.143022 57.82927-75.951164 6.63046-96.570082-98.83519-42.033286-105.49406 15.25443-.51225 22.129961 8.49908 49.506128 6.43546z" fill="url(#a)"/><g stroke-width="2.5"><path d="m600.194 199.18179-2.13542 24.37579h-50.41253v-1.89476h1.8842q2.47038 0 3.97772-1.07539 1.08864-.71694 1.67484-2.45807.46058-1.22903.46058-6.45242v-45.67899q0-5.32581-.46058-6.65726-.46058-1.33145-1.88419-2.30443-1.38173-1.02419-3.76837-1.02419h-1.8842v-1.89476h30.27264v1.89476h-2.47038q-2.47038 0-3.97773 1.0754-1.08864.71694-1.7167 2.45806-.46058 1.22903-.46058 6.45242v44.24512q0 5.3258.50244 6.81088.50246 1.43387 1.96794 2.15081 1.04676.46089 5.06637.46089h4.7314q4.52206 0 7.53676-1.94597 3.01471-1.94596 5.19199-6.14516 2.21916-4.19918 4.18708-12.39273zm-65.99916 0-2.13542 24.37579h-50.41252v-1.89476h1.88419q2.47038 0 3.97774-1.07539 1.08864-.71694 1.67483-2.45807.46058-1.22903.46058-6.45242v-45.67899q0-5.32581-.46058-6.65726-.46058-1.33145-1.88419-2.30443-1.38174-1.02419-3.76838-1.02419h-1.88419v-1.89476h30.27264v1.89476h-2.47038q-2.47038 0-3.97774 1.0754-1.08864.71694-1.7167 2.45806-.46058 1.22903-.46058 6.45242v44.24512q0 5.3258.50245 6.81088.50245 1.43387 1.96793 2.15081 1.04678.46089 5.06638.46089h4.73141q4.52205 0 7.53675-1.94597 3.0147-1.94596 5.19199-6.14516 2.21915-4.19918 4.18709-12.39273zm-95.42653-41.07013v28.26772h1.13051q5.40135 0 7.82986-4.14797 2.42851-4.14798 3.09844-12.23911h1.5911v36.35884h-1.5911q-.50245-5.94032-2.13541-9.72983-1.59109-3.78951-3.72651-5.06976-2.13542-1.33145-6.19689-1.33145v19.56208q0 5.73549.37684 7.01573.41871 1.28024 1.50735 2.0996 1.08864.81934 3.51716.81934h3.39154q7.95546 0 12.72874-4.50644 4.81515-4.50645 6.90869-13.72419h1.54923l-2.55413 22.07136h-49.07265v-1.89476h1.88418q2.47039 0 3.97773-1.07539 1.08865-.71694 1.67484-2.45807.46058-1.22903.46058-6.45242v-45.67899q0-4.71129-.20936-5.7867-.4187-1.79233-1.54922-2.76531-1.59109-1.43387-4.35457-1.43387h-1.88418v-1.89476h47.52343v20.53506h-1.5911q-1.21424-7.52781-3.4334-10.80523-2.17729-3.27742-6.19689-4.8137-2.34477-.92178-8.79288-.92178zm-73.91632 32.05724v21.50804q0 5.32581.46058 6.65726.50244 1.33145 1.88418 2.35564 1.42361.97298 3.81025.97298h1.88419v1.89476h-29.68645v-1.89476h1.8842q2.47038 0 3.97773-1.07539 1.08864-.71694 1.67483-2.45807.46058-1.22903.46058-6.45242v-45.67899q0-5.32581-.46058-6.65726-.46058-1.33145-1.88418-2.30443-1.38174-1.02419-3.76838-1.02419h-1.8842v-1.89476h29.68645v1.89476h-1.88419q-2.47038 0-3.97773 1.0754-1.08864.71694-1.7167 2.45806-.46058 1.22903-.46058 6.45242v19.6645h20.05614v-19.6645q0-5.32581-.46058-6.65726-.46058-1.33145-1.88419-2.30443-1.4236-1.02419-3.81024-1.02419h-1.84232v-1.89476h29.64457v1.89476h-1.84232q-2.51225 0-3.97773 1.0754-1.08864.71694-1.71671 2.45806-.46058 1.22903-.46058 6.45242v45.67899q0 5.32581.46058 6.65726.46058 1.33145 1.88419 2.35564 1.42361.97298 3.81025.97298h1.84232v1.89476h-29.64457v-1.89476h1.84232q2.51224 0 3.97773-1.07539 1.08864-.71694 1.7167-2.45807.46058-1.22903.46058-6.45242v-21.50804zm-36.1712-37.63909v24.06853h-1.63296q-1.84232-9.42257-6.86683-14.44112-5.0245-5.01854-11.38888-5.01854-5.3176 0-9.75591 3.7383-4.43832 3.73831-6.48998 9.78104-2.63787 7.73266-2.63787 17.20644 0 9.32016 1.92606 17.0016 1.92606 7.63024 6.02941 11.57338 4.10334 3.89193 10.63519 3.89193 5.35948 0 9.79779-2.86773 4.48018-2.86775 9.42094-9.88347v5.99153q-4.77328 6.09395-9.96526 8.85927-5.15012 2.71411-12.05881 2.71411-9.08598 0-16.16216-4.45524-7.0343-4.45523-10.88642-12.80241-3.81026-8.34717-3.81026-17.76974 0-9.93467 4.22896-18.84515 4.27083-8.91048 11.47263-13.8266 7.24366-4.91613 15.3666-4.91613 5.98753 0 12.645 3.175 3.85212 1.84354 4.8989 1.84354 1.33986 0 2.3029-1.17781 1.0049-1.22903 1.298-3.84073zm-68.57699 1.5875v18.79394h-1.50735q-1.33987-6.50363-2.97283-9.32016-1.63296-2.86773-4.48018-4.55765-1.5911-.92178-5.56883-.92178h-4.22896v53.56528q0 5.32581.46058 6.65726.50246 1.33145 1.88419 2.35564 1.42361.97298 3.85212.97298h1.88419v1.89476h-29.72832v-1.89476h1.88419q2.47038 0 3.97774-1.07539 1.08864-.71694 1.7167-2.45807.46058-1.22903.46058-6.45242v-53.56528h-4.10334q-5.73632 0-8.33231 2.97017-3.64276 4.14798-4.6058 11.82942h-1.59108v-18.79394zm-63.40742 67.54551v1.89476h-29.68645v-1.89476h1.8842q2.47038 0 3.97773-1.07539 1.08864-.71694 1.67483-2.45807.46058-1.22903.46058-6.45242v-45.67899q0-5.32581-.46058-6.65726-.46058-1.33145-1.88419-2.30443-1.38174-1.02419-3.76837-1.02419h-1.8842v-1.89476h29.68645v1.89476h-1.88419q-2.47038 0-3.97773 1.0754-1.08864.71694-1.71671 2.45806-.46058 1.22903-.46058 6.45242v45.67899q0 5.32581.46058 6.65726.50245 1.33145 1.88419 2.35564 1.42361.97298 3.81025.97298zm-79.79366-21.76409 15.40848-45.78142h23.11272v1.89476h-1.84232q-2.51225 0-4.0196 1.0754-1.04677.71694-1.67484 2.40685-.46058 1.22904-.46058 6.40121v45.78141q0 5.32581.46058 6.65726.46058 1.33145 1.88419 2.35564 1.42361.97298 3.81025.97298h1.84232v1.89476h-29.64458v-1.89476h1.84232q2.51226 0 4.01961-1.07539 1.04677-.71694 1.67483-2.45807.46058-1.22903.46058-6.45242v-51.46569l-21.77285 63.34633h-1.0049l-22.107823-62.88544v48.90521q0 5.12096.209354 6.29879.544322 2.56048 2.344775 4.19918 1.84231 1.5875 5.736306 1.5875v1.89476h-19.428086v-1.89476h.586192q1.884189.0512 3.517153-.71694 1.632964-.81934 2.470381-2.15079.837418-1.33145 1.297997-3.73831.08374-.56331.08374-5.22338v-43.93787q0-5.27459-.460579-6.55484-.46058-1.33145-1.884189-2.30443-1.42361-1.02419-3.81025-1.02419h-1.800447v-1.89476h23.196466z" fill="#fff" transform="translate(2.534729 3.085613)"/><path d="m129.28391 180.75494 17.0404-41.39705h25.56059v1.7133h-2.03744q-2.77832 0-4.44532.97241-1.15763.64828-1.85222 2.17636-.50936 1.11133-.50936 5.78818v41.39704q0 4.81577.50936 6.01971.50936 1.20394 2.08375 2.13005 1.57438.8798 4.21379.8798h2.03744v1.7133h-32.78424v-1.7133h2.03744q2.77833 0 4.44532-.97241 1.15764-.64828 1.85222-2.22266.50936-1.11133.50936-5.83449v-46.53695l-24.07882 57.27981h-1.11133l-24.449265-56.86306v44.22168q0 4.63054.231527 5.69557.601971 2.31527 2.593108 3.79704 2.03743 1.43547 6.34384 1.43547v1.7133h-21.485717v-1.7133h.648276q2.083744.0463 3.889655-.64828 1.805912-.74088 2.73202-1.94482.926109-1.20394 1.435468-3.3803.09261-.50936.09261-4.72315v-39.73005q0-4.76946-.509359-5.9271-.50936-1.20394-2.083744-2.08374-1.574385-.92611-4.213794-.92611h-1.991133v-1.7133h25.653208z" transform="scale(.90423252 1.1059102)"/><g transform="scale(.90423254 1.1059102)"><path d="m217.52854 200.43474v1.7133h-32.83055v-1.7133h2.08375q2.73202 0 4.39901-.97241 1.20394-.64828 1.85222-2.22266.50936-1.11133.50936-5.83449v-41.30443q0-4.81577-.50936-6.01971-.50936-1.20394-2.08375-2.08374-1.52808-.92611-4.16748-.92611h-2.08375v-1.7133h32.83055v1.7133h-2.08375q-2.73202 0-4.39901.97241-1.20394.64828-1.89853 2.22266-.50936 1.11133-.50936 5.83449v41.30443q0 4.81577.50936 6.01971.55567 1.20394 2.08375 2.13005 1.57438.8798 4.21379.8798z"/><path d="m287.65145 139.35789v16.99409h-1.667q-1.48177-5.88079-3.28768-8.42759-1.80591-2.5931-4.95468-4.12118-1.75961-.8335-6.15862-.8335h-4.67685v48.43547q0 4.81577.50936 6.01971.55567 1.20394 2.08374 2.13005 1.57439.8798 4.2601.8798h2.08375v1.7133h-32.87685v-1.7133h2.08374q2.73202 0 4.39902-.97241 1.20394-.64828 1.89852-2.22266.50936-1.11133.50936-5.83449v-48.43547h-4.53793q-6.34385 0-9.21478 2.68572-4.02857 3.75074-5.0936 10.69655h-1.7596v-16.99409z"/><path d="m363.49144 137.92242v21.76355h-1.80591q-2.03744-8.5202-7.59409-13.05813-5.55665-4.53793-12.59508-4.53793-5.88079 0-10.78916 3.38029-4.90838 3.3803-7.17734 8.84434-2.91724 6.99212-2.91724 15.55862 0 8.42759 2.13005 15.3734 2.13004 6.89951 6.66798 10.46503 4.53793 3.51921 11.76157 3.51921 5.9271 0 10.83547-2.5931 4.95468-2.59311 10.41872-8.93695v5.41773q-5.27882 5.51035-11.02069 8.01084-5.69557 2.45419-13.33596 2.45419-10.04828 0-17.87389-4.02857-7.77931-4.02857-12.03941-11.57636-4.2138-7.54778-4.2138-16.06798 0-8.98325 4.67685-17.04039 4.72315-8.05715 12.68769-12.50247 8.01084-4.44532 16.99409-4.44532 6.62167 0 13.98423 2.87094 4.2601 1.66699 5.41774 1.66699 1.48177 0 2.5468-1.06502 1.11133-1.11133 1.43547-3.47291z"/><path d="m403.49354 171.95691v19.44827q0 4.81577.50936 6.01971.55566 1.20394 2.08374 2.13005 1.57438.8798 4.21379.8798h2.08375v1.7133h-32.83055v-1.7133h2.08375q2.73202 0 4.39901-.97241 1.20394-.64828 1.85222-2.22266.50936-1.11133.50936-5.83449v-41.30443q0-4.81577-.50936-6.01971-.50936-1.20394-2.08374-2.08374-1.52808-.92611-4.16749-.92611h-2.08375v-1.7133h32.83055v1.7133h-2.08375q-2.73202 0-4.39901.97241-1.20394.64828-1.89852 2.22266-.50936 1.11133-.50936 5.83449v17.78128h22.18029v-17.78128q0-4.81577-.50936-6.01971-.50936-1.20394-2.08374-2.08374-1.57438-.92611-4.21379-.92611h-2.03744v-1.7133h32.78424v1.7133h-2.03744q-2.77833 0-4.39902.97241-1.20394.64828-1.89852 2.22266-.50936 1.11133-.50936 5.83449v41.30443q0 4.81577.50936 6.01971.50936 1.20394 2.08374 2.13005 1.57439.8798 4.2138.8798h2.03744v1.7133h-32.78424v-1.7133h2.03744q2.77832 0 4.39901-.97241 1.20394-.64828 1.89852-2.22266.50936-1.11133.50936-5.83449v-19.44827z"/><path d="m485.23836 142.96971v25.56059h1.25024q5.9734 0 8.65912-3.75073 2.68571-3.75074 3.4266-11.067h1.75961v32.87685h-1.75961q-.55567-5.37143-2.36158-8.79803-1.7596-3.4266-4.12118-4.58424-2.36158-1.20394-6.8532-1.20394v17.68867q0 5.18621.41675 6.34385.46305 1.15763 1.66699 1.89852 1.20394.74088 3.88966.74088h3.75074q8.79803 0 14.07684-4.07487 5.32513-4.07488 7.6404-12.40986h1.7133l-2.82463 19.95764h-54.26995v-1.7133h2.08374q2.73202 0 4.39901-.97241 1.20395-.64828 1.85222-2.22266.50936-1.11133.50936-5.83449v-41.30443q0-4.2601-.23153-5.23252-.46305-1.62069-1.7133-2.50049-1.7596-1.29655-4.81576-1.29655h-2.08374v-1.7133h52.55665v18.56847h-1.75961q-1.34285-6.80689-3.79704-9.77044-2.40788-2.96355-6.8532-4.35271-2.59311-.8335-9.72414-.8335z"/><path d="m590.77153 180.10666-2.36158 22.04138h-55.75172v-1.7133h2.08374q2.73202 0 4.39902-.97241 1.20394-.64828 1.85221-2.22266.50936-1.11133.50936-5.83449v-41.30443q0-4.81577-.50936-6.01971-.50936-1.20394-2.08374-2.08374-1.52808-.92611-4.16749-.92611h-2.08374v-1.7133h33.47882v1.7133h-2.73202q-2.73202 0-4.39902.97241-1.20394.64828-1.89852 2.22266-.50936 1.11133-.50936 5.83449v40.00788q0 4.81576.55566 6.15862.55567 1.29655 2.17636 1.94483 1.15764.41675 5.60296.41675h5.23251q5.00098 0 8.33497-1.75961 3.33399-1.7596 5.74188-5.55665 2.45418-3.79704 4.63054-11.20591z"/><path d="m663.76067 180.10666-2.36158 22.04138h-55.75173v-1.7133h2.08375q2.73202 0 4.39901-.97241 1.20394-.64828 1.85222-2.22266.50936-1.11133.50936-5.83449v-41.30443q0-4.81577-.50936-6.01971-.50936-1.20394-2.08375-2.08374-1.52807-.92611-4.16748-.92611h-2.08375v-1.7133h33.47882v1.7133h-2.73202q-2.73202 0-4.39901.97241-1.20394.64828-1.89852 2.22266-.50936 1.11133-.50936 5.83449v40.00788q0 4.81576.55566 6.15862.55567 1.29655 2.17636 1.94483 1.15763.41675 5.60295.41675h5.23251q5.00099 0 8.33498-1.75961 3.33399-1.7596 5.74187-5.55665 2.45419-3.79704 4.63054-11.20591z"/></g><path d="m164.83434 322.89456-1.25922-1.04935c-2.39252 2.56041-3.69371 3.52581-5.75044 4.36529-1.21724.46172-2.51844.71356-3.69371.71356-2.72831 0-5.28872-1.42711-6.50597-3.56779-1.21724-2.18265-1.76291-5.12083-1.76291-9.27625 0-8.5627 2.60239-13.05391 7.55532-13.05391 1.93081 0 3.69372.75553 5.45662 2.30857 1.80489 1.59501 2.77029 2.98015 4.1974 6.08623h1.00738v-9.61205h-1.09132c-.62961 1.46909-1.00738 1.88883-1.84686 1.88883-.37777 0-.9654-.1679-1.88883-.54566-2.35054-1.00738-4.3653-1.46909-6.33807-1.46909-8.18493 0-14.31314 6.2961-14.31314 14.77485 0 8.47874 6.00228 14.43905 14.56498 14.43905 4.70109 0 7.51335-1.46909 11.66877-6.00228z" transform="scale(1.2133119 .8241904)"/><path d="m183.47209 298.10094c-8.55924 0-14.61334 6.05409-14.61334 14.57158 0 8.47574 6.01234 14.48809 14.48808 14.48809 8.43399 0 14.44633-6.01235 14.44633-14.52984 0-8.35048-6.0541-14.52983-14.32107-14.52983zm-.0418 1.33607c4.50926 0 7.13966 4.96854 7.13966 13.48603 0 8.43398-2.50515 12.90149-7.26492 12.90149-4.67627 0-7.22317-4.46751-7.22317-12.77624 0-8.8515 2.5469-13.61128 7.34843-13.61128z" transform="scale(1.2069068 .82856439)"/><path d="m233.57288 318.85962v-1.0278c-.77084 0-1.32757-.25695-1.71299-.81367l-8.43651-11.94815c2.48385-.81367 3.55447-1.32757 4.71074-2.39819 1.1991-1.11345 1.8843-2.82645 1.8843-4.71074 0-4.83922-4.11119-7.45154-11.81968-7.45154h-13.53266v1.0278c2.99774.1713 3.59729.77085 3.68294 3.85424v18.54319c-.0856 3.12621-.47108 3.55446-3.68294 3.89706v1.0278h14.17504v-1.0278c-3.21187-.42825-3.59729-.8565-3.68294-3.89706v-8.22239h1.11344l8.69346 13.14725zm-18.4147-14.47482v-10.70622c0-.25695.1713-.8565.29977-1.11345.25695-.42825.89932-.64237 1.96995-.64237 3.85424 0 5.43876 1.79864 5.43876 6.20961 0 2.69797-.59955 4.32531-1.96995 5.22463-1.11344.72803-2.52667.98498-5.73853 1.0278z" transform="scale(1.1766809 .84984809)"/><path d="m243.98597 306.52646v.99124h13.50562v-.99124c-3.13892-.37171-3.46933-.74343-3.55194-3.75844v-7.5169c5.49312-.0413 6.85607-.1652 8.63204-.86733 3.26282-1.28035 5.03879-3.71714 5.03879-6.89737 0-4.66708-3.79974-7.31038-10.61451-7.31038h-13.01v.99124c2.7672.20651 3.30412.82603 3.38673 3.71714v17.8836c-.0413 2.51939-.61953 3.38673-2.4368 3.59324-.1239 0-.53692.0826-.94993.1652zm9.95368-12.67959v-10.86232c0-.94994.66083-1.40426 2.02378-1.40426 3.34543 0 4.70838 1.77597 4.70838 6.11264 0 2.602-.45431 4.13016-1.56946 5.0388-.94993.82603-2.27159 1.11514-5.1627 1.11514z" transform="scale(1.1348261 .88119231)"/><path d="m268.89905 298.10094c-8.55925 0-14.61334 6.05409-14.61334 14.57158 0 8.47574 6.01234 14.48809 14.48808 14.48809 8.43398 0 14.44633-6.01235 14.44633-14.52984 0-8.35048-6.0541-14.52983-14.32107-14.52983zm-.0418 1.33607c4.50926 0 7.13966 4.96854 7.13966 13.48603 0 8.43398-2.50514 12.90149-7.26491 12.90149-4.67627 0-7.22317-4.46751-7.22317-12.77624 0-8.8515 2.5469-13.61128 7.34842-13.61128z" transform="scale(1.2069068 .82856439)"/><path d="m322.28442 318.85962v-1.0278c-.77085 0-1.32758-.25695-1.713-.81367l-8.43651-11.94815c2.48385-.81367 3.55447-1.32757 4.71074-2.39819 1.1991-1.11345 1.8843-2.82645 1.8843-4.71074 0-4.83922-4.11119-7.45154-11.81967-7.45154h-13.53267v1.0278c2.99774.1713 3.59729.77085 3.68294 3.85424v18.54319c-.0856 3.12621-.47107 3.55446-3.68294 3.89706v1.0278h14.17504v-1.0278c-3.21187-.42825-3.59729-.8565-3.68294-3.89706v-8.22239h1.11345l8.69345 13.14725zm-18.41471-14.47482v-10.70622c0-.25695.1713-.8565.29977-1.11345.25695-.42825.89933-.64237 1.96995-.64237 3.85424 0 5.43876 1.79864 5.43876 6.20961 0 2.69797-.59955 4.32531-1.96994 5.22463-1.11345.72803-2.52667.98498-5.73854 1.0278z" transform="scale(1.1766809 .84984808)"/><path d="m348.61754 321.84531v-1.03743c-1.85871 0-2.33419-.60516-4.62517-5.92194l-9.42324-22.26134h-1.21033l-9.38002 23.21231c-1.59936 3.97678-2.11807 4.58194-4.14968 4.97097v1.03743h8.60195v-1.03743c-2.5071-.1729-3.45807-.64838-3.45807-1.77226 0-.56193.34581-1.72903 1.21032-3.8471l.64839-1.68581h9.5097c1.42645 3.28517 1.94516 4.8413 1.94516 5.79227 0 .86452-.56193 1.25355-2.03161 1.38323-.21613 0-.73484.0432-1.34001.12967v1.03743zm-12.92454-9.98519h-8.25615l3.97679-10.28776z" transform="scale(1.187699 .84196419)"/><path d="m374.28709 315.91479v-1.0183c-3.52164-.21215-3.98837-.63644-4.07323-3.86108v-21.89357c5.09153.16972 7.29786 2.07904 7.97673 7.04328h1.18802l-.0424-8.35859h-24.99092l-.0849 8.35859h1.18802c.67887-4.96424 2.8852-6.87356 8.01916-7.04328v21.89357c-.0849 3.18221-.55158 3.6065-4.03079 3.86108v1.0183z" transform="scale(1.1658138 .85776994)"/><path d="m396.11984 315.91479v-1.0183c-3.09735-.16972-3.90351-.80616-3.94594-2.97006v-20.11154c.0424-2.20632.93345-2.88519 3.94594-2.97005v-1.01831h-14.55329v1.01831c2.92763.16971 3.77622.80616 3.86108 2.97005v20.11154c-.0424 2.12147-.84859 2.71548-3.86108 2.97006v1.0183z" transform="scale(1.1658138 .85776992)"/><path d="m399.81271 298.10094c-8.55924 0-14.61334 6.05409-14.61334 14.57158 0 8.47574 6.01235 14.48809 14.48808 14.48809 8.43399 0 14.44633-6.01235 14.44633-14.52984 0-8.35048-6.05409-14.52983-14.32107-14.52983zm-.0417 1.33607c4.50926 0 7.13966 4.96854 7.13966 13.48603 0 8.43398-2.50515 12.90149-7.26492 12.90149-4.67627 0-7.22316-4.46751-7.22316-12.77624 0-8.8515 2.54689-13.61128 7.34842-13.61128z" transform="scale(1.2069068 .82856439)"/><path d="m431.54402 314.19445v1.01499h9.38867v-1.01499c-3.12956-.38062-3.8908-1.14186-3.93309-4.10226v-16.70506l18.56588 22.58356h1.14186v-24.40209c0-2.36831.54979-2.9181 3.21414-3.34101v-1.01499h-8.88117v1.01499c3.00268.29604 3.84851 1.18416 3.84851 4.10226v12.68739l-14.50592-17.80464h-8.71201v1.01499c.80354 0 1.56478.63437 3.51018 3.00268v19.62317c-.0423 2.45289-.67666 3.00268-3.63705 3.34101z" transform="scale(1.1634816 .85948933)"/></g></g></svg>