<svg height="234.744" viewBox="-.463 -70.905 566.928 234.744" width="566.928" xmlns="http://www.w3.org/2000/svg"><g stroke-width=".851919"><path d="m34.473743-48.672527h503.40662v191.8671h-503.40662z" fill="#003e99"/><path d="m67.49679 115.99574 38.23891-138.549158h35.45782l18.42419 60.476255 19.11856-60.476255h33.37202l31.28532 102.072633 76.33307-.132409c8.01113-.07192 8.50395-15.323605-.59405-15.320337l-44.45369-.545987c-19.08837.169191-39.21832-18.839827-38.23801-44.155488.20333-23.222437 22.20242-41.50974 50.34528-41.5032l113.38211-.09318 28.85321 36.157757 28.15617-36.477339 46.92843.320399-51.44635 66.554859 55.61886 72.16513-46.68159-.13077-32.37129-41.410036-30.79517 41.408396-47.62371-.0401 54.2292-71.353503-23.63913-31.677884-98.56214.132411c-10.75669.09072-10.36155 15.667707.0844 15.375915l41.52877.585219c17.55222.103803 42.27022 16.89291 41.65398 43.102747.26728 30.469855-29.54582 44.392525-43.9005 43.647115l-108.70263.13327-18.07611-62.339812-18.07611 62.206582h-34.31413l-18.87349-61.887818-16.58434 61.981818z" fill="#fff"/></g></svg>