<svg height="306.79376" viewBox="241 249.1 602.27939 306.79376" width="602.27942" xmlns="http://www.w3.org/2000/svg"><g stroke-width="1.230585"><path d="m296.58864 301.58562h492.23416v199.23763h-492.23416z" fill="#231f20"/><path d="m749.91286 329.4454-46.7455 68.31005 50.89768 74.73922h-47.21429l-27.92676-39.98146-28.32858 39.98146h-46.41065c1.07153-2.61185 50.89769-74.73922 50.89769-74.73922l-21.16273-29.46708h-90.14247c-4.15218.33485-9.37589-1.07153-11.38501 3.81732-.73667 1.54033-1.07153 3.81733-.33485 5.22372.73668 1.87517 2.277 3.4155 4.15218 4.15218l3.08065.33485h36.29808c16.60872.33486 32.07894 10.91622 39.24479 25.9846 6.42918 12.45654 5.69251 29.80193-1.54033 41.92362-9.04102 15.06839-25.31489 23.77458-42.59331 23.0379h-100.45595l-15.47022-55.45169-15.53719 55.51866h-36.63294l-14.73354-55.8535-15.87204 55.51864h-40.71814s37.36961-134.00824 39.64661-142.64745h34.28897l15.87204 59.67084 16.27387-59.67084h33.61926l28.79737 104.20632h66.76972c4.48703-.33486 10.91621 1.07152 12.79139-4.48704.73668-2.61185 0-5.22371-1.54032-6.76403-1.54033-1.54033-3.81733-1.87518-6.02736-1.87518h-35.8293c-16.94357-.33486-33.95411-11.71986-40.38329-27.92676-6.76403-16.27386-3.08065-36.2311 9.84468-48.68764 8.63921-8.63922 19.22058-13.19322 31.67711-13.99687h118.20317l23.77458 34.28896 24.57822-34.28896z" fill="#fff"/></g></svg>