<svg height="149.29025" viewBox="0 0 718.13145 119.4322" width="897.66431" xmlns="http://www.w3.org/2000/svg"><g transform="translate(-13.917969 -11.857422)"><text fill="#ef00eb" font-family="TrasksHand" font-size="1.6" stroke="#0105ff" stroke-width="2" x="214.81737" y="93.099739"><tspan fill="#fafafa" fill-opacity=".4" font-size="1.6" stroke="none" stroke-width="2" x="214.81737" y="93.099739">John Loreth 2022</tspan></text><rect fill="#fff" height="37.985916" rx="4.678134" stroke-linecap="round" stroke-linejoin="round" stroke-width="5.99999" width="483.68204" x="130.99388" y="93.303711"/><path d="m136.02661 97.727997h474v29h-474z" fill="#ebe427" stroke-linecap="round" stroke-linejoin="round" stroke-width="5.99999"/><g transform="translate(19.478379 -152)"><g fill="none" stroke="#000" stroke-linecap="round" stroke-linejoin="round" stroke-width="2"><g><path d="m153.46865 260.43579 16.83874.0931"/><path d="m163.75611 272.76669v-16.82355c-1.10223 8.9498-5.40436 11.3864-9.23725 14.75859"/></g><g><path d="m179.74848 256.41095.16775 13.82866c0 1.75501.10701 1.87442 2.10295 1.87442h7.32232"/><path d="m174.51836 263.61604 15.13661-2.33906-3.65999 5.4205"/></g><g><path d="m202.00983 271.75154v-12.99558h11.28728v12.94321"/><path d="m202.08637 269.64083h10.83247"/></g><g><path d="m222.9698 265.56969c2.32241-2.43651 3.92587-6.00989 4.7475-9.11809"/><path d="m238.16528 260.71387h-11.62568"/><path d="m227.66492 273.05261c2.86496-2.26855 5.47577-5.39997 6.08724-12.43632"/><path d="m235.59413 255.65617 1.44672 2.10025"/><path d="m238.73201 254.78867 1.44672 2.10025"/></g><path d="m244.91052 264.47883h17.5822"/><path d="m511.99724 264.44259h17.5822"/><g><path d="m268.10235 270.96579c5.56692-.13584 11.26089-.2685 14.93047-1.85987"/><path d="m270.69006 270.97161c2.09955-4.12876 4.3513-9.73979 5.57023-14.32172"/><path d="m280.0427 265.38259 4.94759 6.2421"/></g><g><path d="m292.7852 274.57006v-15.93406h17.06073v13.39827c.00011 1.04813-.19333 1.88229-1.24664 1.76587h-3.30659"/><path d="m301.70231 254.86925c-.2206 6.14369-2.0327 11.53339-5.31195 14.98465"/><path d="m306.82357 269.79346c-1.15751-2.60136-3.95657-6.65141-5.92027-8.45918"/></g></g><g stroke="#ef00e7"><g fill="none" stroke="#000009" stroke-linejoin="round"><g stroke-linecap="round"><path d="m314.91079 273.74061 1.56802-4.14902v-8.73761l17.69993-.21531" stroke-width="2"/><path d="m327.64702 259.41576c.54616 10.13781 2.56937 13.40409 4.55591 14.51598 1.48705-.2294 1.90572-1.04458 1.97805-2.62038" stroke-width="2"/><path d="m332.62549 263.99987c-1.51856 4.22253-3.71584 7.00312-5.79091 10.04333" stroke-width="2"/><path d="m324.97561 272.09192h-5.72463v-8.62875h5.86459"/><path d="m319.59911 266.24998h5.392v2.9907h-5.65213"/></g><path d="m322.56377 266.24117v-2.69761" stroke-width="2"/><path d="m322.56377 271.85332v-2.69761" stroke-width="2"/><path d="m334.24902 255.30165h-8.45695" stroke-linecap="round" stroke-width="2"/><path d="m322.9066 255.30165h-8.2788" stroke-linecap="round" stroke-width="2"/><path d="m331.81306 257.96188 2.39434 2.66783" stroke-linecap="round" stroke-width="2"/></g><g stroke="none"><circle cx="328.70084" cy="255.21515" r="2"/><circle cx="320.21494" cy="255.47919" r="2.25"/><path d="m324.99023 265.79128a1 .86781221 0 0 0 -1 .86782v2.18648a1 .86781221 0 0 0 1 .86781 1 .86781221 0 0 0 1-.86781v-2.18648a1 .86781221 0 0 0 -1-.86782z"/></g></g><g fill="none" stroke-linecap="round" stroke-linejoin="round" stroke-width="2"><g stroke="#050000"><path d="m423.03724 257.04336h10.02982"/><path d="m419.7347 261.76643h15.62268"/><path d="m427.6622 261.47081c1.1471 7.81892-1.45259 9.53305-4.05776 11.23827"/></g><path d="m445.40238 257.21364.0886 14.20848c5.88935-1.02016 9.84729-4.04467 12.70691-7.98954" stroke="#050000"/><g stroke="#050000"><path d="m468.59205 257.03418.29436 12.68856c.0105 1.44736.68041 2.11418 1.69084 2.11275l9.7231-.29183"/><path d="m468.76614 263.26895c3.54079-.0962 7.05556-.88342 10.19566-1.93804"/><path d="m478.94843 256.48396 1.44672 2.10025"/><path d="m482.08631 255.61646 1.44672 2.10025"/></g><g stroke="#050000"><path d="m502.68789 255.84554 1.44672 2.10025"/><path d="m505.82577 254.97804 1.44672 2.10025"/><path d="m489.90161 265.55447c1.91861-2.61094 3.9589-5.41413 4.59217-9.44933"/><path d="m494.68536 273.2818c3.45507-3.24261 5.83889-7.12042 5.74257-12.36158"/><path d="m505.42475 260.75147h-12.13105"/></g><g stroke="#050000"><path d="m542.85548 257.18167c-1.23495 5.03443-3.32649 9.32029-5.35985 13.48243"/><path d="m546.8447 265.37005 4.74033 6.23853"/><path d="m535.00864 270.87537c8.28841-.28593 12.30301.0351 14.44257-1.84197"/></g></g><g stroke="#ef00e7"><path d="m390.88593 256.68078h-17.18919v11.21834c.15497 2.51969-.8223 4.77132-1.63517 6.12573" fill="none" stroke="#0e0000" stroke-linecap="round" stroke-linejoin="round" stroke-width="2"/><path d="m381.60352 253.73828a1.2070259.83588185 0 0 0 -1.20702.83588v2.12072a1.2070259.83588185 0 0 0 1.20702.83588 1.2070259.83588185 0 0 0 1.20703-.83588v-2.12072a1.2070259.83588185 0 0 0 -1.20703-.83588z" stroke="none"/><g stroke-linecap="round" stroke-linejoin="round"><g fill="none" stroke="#0e0000" stroke-width="1.5"><path d="m376.63584 260.25192 3.65932.15577-3.598 4.9552 3.44715.16875-.0542 3.09621c-1.06992 2.5013-2.17976 3.961-4.25287 5.47041"/><path d="m376.71104 268.42642c5.0882 7.67491 8.94741 4.83066 14.5603 5.32001"/><path d="m383.36586 260.85263 6.4507-1.10831"/></g><path d="m386.78711 260.15818a.75.64745192 0 0 0 -.75.64745v8.62764a.75.64745192 0 0 0 .75.64745.75.64745192 0 0 0 .75-.64745v-8.62764a.75.64745192 0 0 0 -.75-.64745z" stroke="#000" stroke-width=".999999"/><path d="m382.46972 270.00251h8.49097" fill="none" stroke="#0e0000" stroke-width="1.5"/><path d="m383.54938 264.82842h6.52367" fill="none" stroke="#0e0000" stroke-width="1.5"/></g></g><g stroke="#ef00e7"><path d="m357.60352 253.73828a1.2070259.77979439 0 0 0 -1.20702.77979v1.97843a1.2070259.77979439 0 0 0 1.20702.77978 1.2070259.77979439 0 0 0 1.20703-.77978v-1.97843a1.2070259.77979439 0 0 0 -1.20703-.77979z" stroke="none"/><g fill="none" stroke="#180000" stroke-linecap="round" stroke-linejoin="round"><path d="m348.74327 259.30899v-2.5888h18.00479v3.09048" stroke-width="2"/><g stroke-width="1.5"><path d="m356.96165 259.77174c1.62865 6.73169 5.1908 8.9485 10.03836 13.0228"/><path d="m364.36405 259.8015h-13.03325"/><path d="m358.43029 259.85308c-1.93293 2.60196-5.29521 3.77788-9.03404 4.57812"/><path d="m358.67274 264.16089c-3.04828 2.13813-5.74502 3.8932-9.60662 4.45277"/><path d="m365.33797 263.26071c-4.83316 3.81434-11.36058 8.69313-16.42283 9.84623"/><path d="m359.99073 267.23459-.19245 5.07473c-.0185 1.33732-1.26878 1.97917-3.319 1.57499"/></g></g></g><g fill="none" stroke="#000" stroke-linecap="round" stroke-linejoin="round" stroke-width="2"><path d="m409.74252 273.91294c2.68171.35992 3.19356-.55128 3.07652-1.83257v-16.46314h-15.68607l-.22381 13.05673c.00083 2.12513-.68388 3.88123-1.5076 5.06127"/><path d="m397.10969 260.93634h15.60595"/><path d="m396.94228 266.95911h15.76933"/><path d="m404.8021 273.96935v-18.34317"/></g></g><g transform="matrix(.8 0 0 .8 13.917969 11.857422)"><path d="m49.814453 0c-27.356998-.00093375-49.813988 21.558888-49.814453 48.244141.000465 26.685252 22.457455 48.247027 49.814453 48.246093 18.5582-.000343 34.667204-10.040246 43.234375-24.753906.04075 2.086349-.04986 4.453923.07422 6.341797a5.0358718 5.0358718 0 0 0 .05664.488281c.479871 2.918252 1.913992 6.472649 5.101562 9.3125 3.18757 2.839853 7.968 4.672169 14.07031 4.707032l28.65821.164062a5.0358718 5.0358718 0 0 0 .0312 0c1.0661 0 1.94266.03045 3.08984-.113281 1.14716-.143727 3.02422-.631909 4.39453-2.160157 1.37033-1.528247 1.61738-3.136854 1.73828-4.246093.12089-1.109239.11228-2.069416.125-3.271485.0757-7.165717-.0119-21.128489-.0508-28.11914.0678-5.91389 3.62806-8.124195 6.88086-8.306641 1.6264-.09122 3.06755.386129 4.21875 1.501953 1.1512 1.115825 2.21936 3.027578 2.31055 6.658203a5.0358718 5.0358718 0 0 0 .0195.322266c.13891 1.55118.19913 7.776486.18164 14.039063-.0175 6.262577-.0694 12.860286.006 16.726562.01.48828-.0411.958316.14844 1.982422.1895 1.024107 1.19725 3.065677 2.68554 3.970703 2.97658 1.810051 3.76561.969136 5.34961.996094a5.0358718 5.0358718 0 0 0 .0762 0l10.19922.01953-.2539-.0059c.93731.0493 1.70786.107105 2.75.01563 1.04213-.09148 2.83805-.44926 4.23828-1.9375 1.40022-1.48824 1.60623-3.091218 1.6914-4.013672.0852-.922455.0574-1.581104.0625-2.367188l.0137-1.835937c7.18997 7.682214 16.72993 11.744107 26.21875 12.195312 10.18876.484489 20.4183-3.050523 27.9707-9.93164-.14781 1.467507-.20562 2.912929 1.37695 5.201171 1.09516 1.583507 3.12648 2.436032 4.29883 2.63086 1.17234.194827 1.93617.147123 2.80078.138672l11.30469-.113282c.78026-.0076 1.4672.03676 2.58203-.140624.5619-.08941 1.35533-.345378 2.15039-.773438.81828.468959 1.64723.770548 2.25586.873047 1.17368.19766 1.92719.149218 2.77539.142578l10.04679-.078088c.95106 0 1.75585.03219 2.87109-.115234 1.11522-.147429 2.99748-.684312 4.30859-2.203125 1.31112-1.518814 1.52908-3.058026 1.64063-4.134766.0968-.934286.0868-1.791764.0859-2.753906 7.27382 7.129551 17.47641 11.48156 28.5332 11.507812a5.0358718 5.0358718 0 0 0 .0117 0c21.49994-.00064 39.44698-16.182364 39.44726-36.568359.001-20.387099-17.94615-36.571627-39.44726-36.572266a5.0358718 5.0358718 0 0 0 -.0117 0c-11.05056.02622-21.24841 4.373739-28.52149 11.496094v-21.589844c0-1.044341.026-1.8905635-.0625-2.9140622-.0885-1.0234988-.25921-2.55793-1.55664-4.109375-1.29741-1.5514438-3.19077-2.1089807-4.32812-2.2636719-1.13734-.15469-1.98767-.1203275-3.01172-.109375l-10.06641.109375c-.8312 0-1.5429-.04211-2.6582.125-.62106.093055-1.50653.4260412-2.38867.9296875-1.26295-.6703988-2.41137-.8896438-3.23828-.9453125-1.03322-.069556-1.94472-.047617-3.11328-.056641a5.0358718 5.0358718 0 0 0 -.002 0l-7.20507-.052734a5.0358718 5.0358718 0 0 0 -.0371 0c-1.41053 0-2.50183-.023411-3.64258.050781s-2.59306.1244588-4.31055 1.3671875c-1.71749 1.2427288-2.47644 3.4151644-2.64453 4.6582032-.1681 1.2430375-.11876 2.1353004-.11328 3.2343754-.0127 11.822592-.0103 15.314811-.0137 20.835937-8.99567-8.976755-20.48838-12.616814-31.2793-11.072265-10.0849 1.443491-19.40421 7.175453-25.75781 15.93164-.0583-.124591-.0859-.254715-.14649-.378906-2.63677-5.401304-7.64598-9.893275-15.09961-12.824219-3.8004-1.494405-8.47712-1.99148-13.46093-1.353515-3.06284.392067-6.24269 1.350439-9.16602 2.982422l.0508-13.853516a5.0358718 5.0358718 0 0 0 0-.04687c-.013-2.2632691.77204-3.5771972-1.1543-6.6582034-.96317-1.5405038-3.01764-2.5801063-4.21484-2.8046876-1.19719-.2245825-1.91065-.1643675-2.67773-.15625l-11.10352.1191407c-.84201.00891-1.55601-.023519-2.64062.1308593-1.08462.1543776-3.04814.7913757-4.27539 2.3574219-1.22726 1.5660475-1.34295 2.9786506-1.42969 3.9863281-.0867 1.007677-.0723 1.894521-.0723 3.017578-.0351 4.760265-.0103 8.901572-.0137 13.337891-.1028-.000759-.24237-.01603-.34766-.01758a5.0358718 5.0358718 0 0 0 -.26953.002s-1.19068.01644-2.01953.03906c-.008-3.009455-.0135-7.330764-.0586-11.925781a5.0358718 5.0358718 0 0 0 -.0352-.550781c-.14459-1.202646-.55159-2.9851946-2.07422-4.4628908-1.52262-1.4776975-3.58011-1.9146669-5.07812-1.9238282-3.46792-.021336-8.96316.081826-10.89063.066406-1.05254-.00842-2.024153.00848-3.181638.2578125-1.157486.2493288-2.671819.8689775-3.798828 2.09375-2.254017 2.4495465-1.936188 4.7468815-1.941406 6.4765625l-.02734 9.125c-8.793336-15.0750938-25.22997-24.56398875-43.242002-24.57036a5.0358718 5.0358718 0 0 0 -.002 0zm492.539067 3.8984375c-.82318 0-1.49989-.018682-2.39258.068359s-2.34987.2640156-3.80664 1.5410156c-1.45679 1.277-1.9136 3.0483787-2.03516 4.0078125-.12156.9594344-.0918 1.5803964-.0918 2.3007814v11.064453c-.13315-.02423-.33306-.103557-.44336-.117187-.88528-.109388-1.42114-.08008-2.03515-.08008h-12.80469c-.82252 0-1.49181-.01763-2.36133.0625-.86951.08013-2.25165.212803-3.72656 1.433594-1.47491 1.220788-2.01027 3.047123-2.14063 4.015624-.13035.968503-.0957 1.564599-.0957 2.246094 0 28.504699.001 28.482483-.0234 33.462891a5.0358718 5.0358718 0 0 0 0 .02344c0 1.710944-.4795 2.374426-1.46093 3.13086-.98145.756434-2.68592 1.325378-4.45313 1.326172-1.76722.000793-3.47269-.568061-4.45312-1.322266-.98045-.754204-1.45703-1.411368-1.45703-3.115234v-16.748048-16.757813c0-.669332.0549-1.292678-.14063-2.414062-.19555-1.121384-1.14711-3.158221-2.6582-4.150391-3.02217-1.984339-4.25165-1.193863-6.36719-1.232422a5.0358718 5.0358718 0 0 0 -.0918 0h-9.89062c-1.72586 0-2.998-.489339-5.12891.550781-.0341-1.154505.045-4.464383-.0215-5.412109.10679-4.881416-2.32624-9.5261367-6.79688-12.1035155-4.50179-2.5953325-11.04143-2.07136-16.49023 2.1796875a5.0358718 5.0358718 0 0 0 -.29102.2460938l-19.8965 18.1093752-19.58399-17.980469a5.0358718 5.0358718 0 0 0 -.0625-.058594c-3.38415-3.00159-7.4803-4.4389806-11.33984-4.2207031-6.43208.36377-12.13771 5.7822025-12.09961 12.6679691l-.0391 68.589844a5.0358718 5.0358718 0 0 0 0 .002c0 .62542-.0328 1.174959.082 2.080078.11487.90512.55886 2.627894 1.96484 3.876953 1.40599 1.249058 2.81157 1.432089 3.64063 1.523437.82907.09135 1.4216.08067 2.13476.08984a5.0358718 5.0358718 0 0 0 .082 0l11.13487-.035199c.79153 0 1.43806.01647 2.27149-.05664.83342-.07311 2.14189-.170185 3.62109-1.33789 1.47921-1.167704 2.07529-3.028846 2.21094-3.992188.13566-.963342.0976-1.523303.0976-2.148437v-37.132814l1.64063 1.466797.008.0059c.18909.190113 2.17618 2.195173 4.68555 4.43164 1.3128 1.170044 2.70919 2.358601 4.0957 3.363281.69325.50234 1.3737.961047 2.16602 1.378907.79231.41786 1.57075.958984 3.48242.958984 1.98571 0 2.72768-.573696 3.50195-.998047.77429-.424351 1.43536-.885372 2.10742-1.388672 1.34412-1.006601 2.69701-2.189735 3.97266-3.359375 2.4195-2.21843 4.31082-4.175403 4.52344-4.394531.0205-.01779 1.12975-.964201 1.53515-1.314453.00033 1.35088.001 2.543779.002 3.99414.003 5.482293.0117 10.955079.0117 10.955079l-.0254 24.529297a5.0358718 5.0358718 0 0 0 5.035 5.039022h8.69531 9.06641a5.0358718 5.0358718 0 0 0 5.03515-5.039062l-.008-8.041016c4.3339 7.547799 11.46414 12.241865 18.62305 12.986328 8.60569.894919 13.84959-1.109876 18.10156-3.392578.2108.382004.4854.740144.8086 1.095703a5.0358718 5.0358718 0 0 0 2.10546 1.660156c.14449.0682.32293.245517.45313.28711 2.44249.78032 3.32641.428192 5.67969.425781l11.12695-.01172c1.31191-.0014 1.93775.809099 4.83398-.855469.17244-.09911.2742-.317719.43555-.447265.0662.04975.0953.137736.16406.183593 3.05379 2.036549 4.32427 1.193922 6.37696 1.179688l10.17578-.06641a5.0358718 5.0358718 0 0 0 .002 0c.77005-.0051 1.39498.0099 2.2207-.0625s2.1619-.169353 3.65235-1.371094c1.49045-1.20174 2.04331-3.051491 2.17187-4.005859.12857-.954368.0937-1.523912.0937-2.177735v-.859375c.45023.863267.78509 1.770156 1.36719 2.578125 2.19945 3.052867 5.68023 5.93406 10.36719 5.966797 9.47196.06615 27.66055.07407 36.5664-.0098.63998-.006 1.26622.06024 2.4629-.189454 1.19667-.24969 3.28548-1.469097 4.13281-2.996093 1.69464-3.053994.95301-4.168218.95312-6.464844 0-6.500249.002-11.244466.002-16.542969l4.00195 11.722656a5.0358718 5.0358718 0 0 0 .14844.38086c2.3933 5.504807 3.47026 9.128046 7.27734 11.773437 3.79049 2.633873 7.62668 2.242647 13.17578 2.1875 2.50061.02623 4.48079.0711 6.45117-.138672 1.98083-.210886 4.15439-.802361 5.96875-2.123047 3.62873-2.641368 4.77477-6.119826 7.3418-11.673828a5.0358718 5.0358718 0 0 0 .12109-.289062c.81159-2.087403 1.95831-6.133569 2.97461-9.220703-.00037 4.697514-.002 9.263116-.002 13.945312 0 1.14269-.0283 2.072368.10937 3.234375.13766 1.162007.56335 3.007901 2.08985 4.439453s3.22305 1.714825 4.36719 1.833985c1.14413.119159 2.12163.09767 3.33984.09766 16.34646-.0007 30.13543-.01062 45.26367-.09766 7.66774.05163 14.35652-1.067122 19.66602-4.603516 1.83605-1.222907 3.31935-2.843367 4.63281-4.623047v4.289063a5.0358718 5.0358718 0 0 0 5.03536 5.035196h18.30078a5.0358718 5.0358718 0 0 0 5.0332-5.035156v-2.851563c1.26503 1.25233 2.56939 2.472552 4.00781 3.541016 6.9152 5.1366 15.65858 7.979229 24.42969 8a5.0358718 5.0358718 0 0 0 .0195 0c8.55448-.01392 17.08949-2.707801 23.92383-7.605469 1.5246-1.092567 2.9271-2.32934 4.26562-3.625v2.541016a5.0358718 5.0358718 0 0 0 5.03324 5.035156h17.94336a5.0358718 5.0358718 0 0 0 5.0332-5.035156c0-16.216292.0498-17.80342.57813-36.378906 1.62795-2.313188 4.03281-3.69631 6.25-3.775391 2.24538-.08009 4.01009.646277 5.31836 3.189453.10783 11.12982.11522 24.443495.11523 36.964844a5.0358718 5.0358718 0 0 0 5.0332 5.035156h18.0586a5.0358718 5.0358718 0 0 0 5.03515-5.107422c-.19231-13.325092-.13965-26.596058 0-39.96289v-.0078c.0159-1.334621-.21945-3.538702-1.14258-5.916016-1.00388-3.075146-2.96607-7.275832-6.87695-10.964843-3.96166-3.73692-9.97481-6.719505-17.87695-7.019532-5.39664-.284265-10.14344 1.21859-14.55274 3.796875a5.0358718 5.0358718 0 0 0 -4.95117-4.884765l-9.01367-.039076a5.0358718 5.0358718 0 0 0 -.0449 0l-8.92774.03906a5.0358718 5.0358718 0 0 0 -5.01172 5.033203v6.080078c-1.35597-1.306989-2.78274-2.551334-4.32812-3.650391-6.83028-4.857618-15.34114-7.519439-23.86719-7.521484a5.0358718 5.0358718 0 0 0 -.0137 0c-8.76865.02064-17.51143 2.862269-24.42578 7.996094-1.43863 1.068155-2.7406 2.287022-4.00586 3.539062l-.006-5.779297a5.0358718 5.0358718 0 0 0 -1.82226-3.701171 5.0358718 5.0358718 0 0 0 1.05468-2.626954v-4.375-4.375a5.0358718 5.0358718 0 0 0 -4.8125-5.0292965l-8.35727-.3671845-8.35742-.3710938a5.0358718 5.0358718 0 0 0 -5.25586 5.0273438v5.115234 5.115235a5.0358718 5.0358718 0 0 0 .23047.537109c-7.50558-.0057-16.34534-.002-24.56836-.02539-6.54528-.01862-12.26802.308026-19.02149 3.597656a5.0358718 5.0358718 0 0 0 -.0293.01172c-3.86022 1.910161-6.71158 4.779133-8.68946 8.058594v-4.464844c0-.697137.0448-1.31929-.11328-2.365234-.0796-.526652-.30632-1.283622-.70312-2.050781.44059-.793251.72399-1.566546.79492-2.052735.12744-.873686.0859-1.286493.0859-1.71289v-9.53125c0-.218758.12646-.619891-.2168-1.853516-.34326-1.2336248-2.00662-3.0947066-3.2168-3.5800779-2.4203-.9707457-2.68726-.4707051-3.77534-.4707051h-12.8164c-1.55917 0-2.18526-.666125-4.97266.7226562-1.3937.6943901-2.75391 2.7224528-3.00976 3.8691408-.25586 1.146687-.16797 1.606112-.16797 1.99414v8.929688c0 .06319.0171.211631.0156.277344h-8.96875c-2.2816 0-4.96072 2.138443-5.67187 3.509765-.71115 1.371323-.79848 2.097933-.97657 2.615235a5.0358718 5.0358718 0 0 0 -.0703.222656c-2.94096 10.043688-7.08672 23.921771-7.79297 26.287109-.81671-2.34338-6.23015-17.86367-9.0625-26.488281a5.0358718 5.0358718 0 0 0 -.1914-.486328c-1.13502-2.5338-3.51683-4.396937-5.57032-5.072266-2.05348-.675327-3.70885-.58789-4.6875-.58789-1.69433.000001-3.06289-.000002-4.60742 0-.002-.122918.0215-.349285.0215-.464844v-9.533203c0-.216793.1272-.61353-.21485-1.847656-.34205-1.2341266-2.01097-3.1055916-3.22265-3.5898441-2.42337-.968505-2.68355-.4667969-3.76953-.4667969h-12.81446c-1.55917-.0000013-2.18525-.6661275-4.97265.7226562-1.3937.6943926-2.75392 2.7244078-3.00977 3.8710938-.25585 1.146688-.16992 1.606113-.16992 1.994141v8.93164c0 .407043-.0531.825956.10742 1.777344.0807.478244.34104 1.205961.75977 1.933594-.0531.100989-.10337.173067-.15039.273437-.37958.05466-.75699.112704-1.18555.113282-.16705.000223-.75055-.02244-.97071-.02734v-12.054692c0-.624971.0703-1.235567-.16601-2.425781-.23633-1.190215-1.44114-3.301435-2.96875-4.15625-3.05524-1.7096288-4.13326-.953125-6.36719-.953125h-9.68359c-2.08083 0-3.17229-.8062038-6.23242 1.03125-.42743.2566463-.71518.7187869-1.0625 1.1113281-.2027-.99741-.63771-2.3390531-1.86914-3.4199219-1.46327-1.284355-2.92812-1.4568156-3.81446-1.5410156-.88634-.084201-1.54874-.064453-2.35742-.064453zm-491.783208 21.0761715c10.203772-.000001 18.47461 10.367432 18.47461 23.158203 0 12.790773-8.270838 23.160157-18.47461 23.160157-10.20377 0-18.476562-10.369384-18.476562-23.160157 0-12.79077 8.272792-23.158203 18.476562-23.158203zm71.025388 17.482422c.005 1.521595 2.40065 3.90201 1.16016 3.908203.016 7.860843.0366 15.705581-.0273 24.34961a5.0358718 5.0358718 0 0 0 0 .04297c.00063.596457.017.255722 0 .742188l-.72071.02539c-1.05232.03931-1.35563-.07-1.55859-.121094-.0141-.19629-.31705-1.806728-.32227-4.748047l-.0371-20.316406c.44288.0029 1.50678.0049 1.7461.0078.35562.0043.52311.0091.54101.0098.009.000311-.004.0013-.14257-.0098-.0694-.0055-.14508-.0051-.43555-.05469-.14524-.02478-.8283-.214908-.82813-.214844l-.1582-.05859-.17969-.07422-.38281-.185546s-.0909-.05263-.16211-.09375l-.002-1.501954v-.002c.002-.05496.016-.05612.0195-.109375.57363-.614968.9475-1.014563 1.49023-1.595703zm96.99219 1.947266c1.24453-.0085 2.68256.3547 4.25781 1.707031l-8.75195.166016c1.4986-1.103894 3.0924-1.863481 4.49414-1.873047zm103.54688.431641c5.72628.000001 10.36914 6.223134 10.36914 13.898437 0 7.675306-4.64286 13.896484-10.36914 13.896484-5.72629 0-10.36719-6.221178-10.36719-13.896484 0-7.675303 4.6409-13.898436 10.36719-13.898437zm480.26953.662109c5.78215.484414 9.03906 5.411975 9.03906 13.916015 0 6.466236-1.76215 10.745164-5.23438 12.714844-7.45173 4.227105-14.84859-.874953-15.5957-10.757812-.70127-9.276514 2.61292-14.997115 9.16016-15.806641.92704-.114623 1.80483-.135608 2.63086-.06641zm-58.1543.429687v10.822266c-1.12065-1.549536-2.38116-2.986677-3.87305-4.203125-5.2567-4.286191-12.36678-6.365234-20.38672-6.365234-.35775 0-.32775-.100153-.60742-.128907.23702-.01637.14234-.08008.41992-.08008 8.50867.238102 16.41906.02869 24.44727-.04492zm-156.54688 1.857422c1.49521.05863-.31842-.12168 1.43946.04492v23.699219c-.98175-.03685-1.01623-.03411-1.43946-.101563.0127-7.73916.004-15.782519 0-23.642578zm104.29102 7.517578c.006.01279.019.02238.0254.03516.008.01629.0111.03451.0195.05078zm.99609 1.427735c2.31287 3.995285 5.43189 7.395277 9.66211 9.402343 4.62845 2.196004 10.11587 2.962574 16.77539 2.90625.31576.04765.38426.07594.39844.09766.0177.02713.17529.419845.11524 1.007812-.0571.558742-.33136 1.148986-.50977 1.400391-10.09501-.224896-17.86442-.05802-26.44141 0zm-466.08398 12.533203c-2.6003 2.021015-5.88575 3.085962-8.82227 2.734375-1.97826-.236855-3.87925-1.006374-5.58203-2.615235z" fill="#fff"/><g fill="#003869"><path d="m542.35352 8.9335938c-3.29169 0-3.29102.0004874-3.29102 2.8828122v73.28125c0 2.616775.00073 2.675162 4.06055 2.648438l10.17578-.06445c3.13837-.02066 3.13672.0328 3.13672-2.583985 0-14.345117-.00083-25.672803-.0274-39.919922.0265-2.410625.0281-2.465675 1.74805-2.5h2.59961 2.37305c1.22657.02022 1.22851.01281 1.22851 2.5v31.402344c0 4.592786 3.87919 11.134972 8.88281 11.169922 9.42938.06585 27.64654.07343 36.48438-.0098 2.56017-.0241 2.56033-.0244 2.56055-4.617187 0-16.451069.00074-27.085569.006-41.871094-.005-2.69804-.43128-2.746814 1.88476 1.458985l5.92774 16.429687 5.98632 17.537109c4.79902 11.03819 4.67586 11.036404 15.85352 10.931641 10.07795.104763 10.03528.106051 15.17383-11.011719 1.771-4.55507 4.48232-12.914172 6.79687-21.089844 2.96543-10.474728 5.62438-18.81116 5.91016-18.52539-.009 14.917411-.01 30.662392-.01 46.162109-.00001 4.570795-.00006 4.570385 4.87305 4.570313 16.36753-.0007 30.15915-.01037 45.29688-.09766 14.23981.09588 22.76938-4.495797 23.6914-16.871094 0-12.088807-9.39378-19.53125-23.68555-19.53125-9.93115 0-11.43222-10.277344-.1875-10.277344 9.55322.272884 18.49707-.01719 27.81641-.05078 1.6653-.0031 1.66602-.0059 1.66602 1.849609v44.978516h18.30078l.004-21.212891a34.404965 31.856205 0 0 0 33.47852 24.867188 34.404965 31.856205 0 0 0 33.23047-23.8125v20.158203h17.9414c0-16.961898.00072-16.96127.60547-38.195313 4.86012-8.720507 17.47947-9.914746 21.60547-.02734.11913 11.376253.11914 25.293473.11914 38.222656h18.0586c-.19325-13.389874-.13995-26.705991 0-40.097656.0164-1.298631-.001-2.107235-.83008-4.16211-1.58571-4.951439-6.62267-14.165023-20.27149-14.658203-7.60796-.410049-13.04867 2.630921-19.28711 8.958984v-10.039031l-9.01171-.03906-8.92969.03906v23.574219a34.404965 31.856205 0 0 0 -33.22848-23.632813 34.404965 31.856205 0 0 0 -33.47656 24.857422l.002-11.734375-.01-12.394531c-21.36553-.0007-31.18253-.0022-46.8711-.04687-6.4318-.0183-10.84349.186083-16.80078 3.08789-8.57632 4.243855-10.8848 14.952445-7.4082 21.638672 3.92014 7.909989 10.41736 11.155173 23.42383 10.949219 7.92827.953439 5.4665 12.564453-.008 12.564453-12.25048-.291731-20.91474 0-31.96485 0v-46.072271c0-2.788626-.00092-2.791015-3.79492-2.791015h-28.23633c-1.2087 0-1.36287 1.208815-1.88672 2.730469-3.19427 10.908772-8.45117 28.5-8.45117 28.5-4.88619 15.528765-2.45256 15.759031-8.25391 0 0 0-6.68489-19.158011-9.76757-28.544922-1.20207-2.68346-3.71037-2.685548-5.66407-2.685547-8.87667.000005-15.20718.000029-24.13672 0-3.58813-.000011-3.58789.000883-3.58789 2.724609v46.138672l-4.65625.0078c-5.74473.008-6.83064-1.06536-6.85351-2.9375.0229-10.014484 0-20.876083 0-30.972657l6.17773.08789c2.65079.000001 2.65039.0024 2.65039-1.585937v-8.117174c0-1.633546.0006-1.632706-2.81445-1.628906-1.30734.0018-3.21747-.10845-6.01367-.15625v-16.960938c0-2.5.001-2.5-4.4668-2.5h-9.68359c-4.16165 0-4.16211 0-4.16211 2.5v14.611328c0 2.5-.00004 2.5-3.58008 2.5h-.68555c-3.63976 0-3.655.0023-3.64062-3.46289l-.0137-16.148438c.009-2.9026248.00072-2.8828122-3.25391-2.8828122zm-142.25782.0488281c-4.09416.2315475-7.37358 3.2805551-7.34961 7.6132811l-.0391 68.619141c0 2.5.003 2.500434 2.85547 2.537109l11.15234-.03711c3.16612 0 3.16602 0 3.16602-2.5v-43.923827c0-2.105494-.40224-4.923797 1.4375-3.185547l8.60156 7.697265s8.78867 8.851563 11.07227 8.851563c2.16531 0 10.73437-8.851563 10.73437-8.851563s2.72026-2.363279 5.31055-4.541015c4.6199-4.388943 4.62037-5.321772 4.64062-.04687-.0201.07491.002 21.960937.002 21.960937l-.0234 24.539063h8.69531 9.06836l-.0351-36.134766c-.0177-18.847522.255-28.571386-.13672-33.84375.17253-5.92088-6.54908-12.6294568-15.16407-5.908203l-21.65625 19.714844c-1.61227 1.371364-1.59932 1.340177-3.23632.0332l-21.38095-19.632815c-2.50778-2.2242796-5.25835-3.0998659-7.71485-2.9609371zm197.19922 2.8339841c-3.11769-.000004-3.11719.000595-3.11719 1.552735v8.929687c0 1.625618.001 1.624406 2.46094 1.628906l13.41211-.05664c2.23134.05353 2.23242.05305 2.23242-1.652344v-9.533203c0-.870209-.00019-.869141-2.17382-.869141zm75.73438.107422c-3.11769.000001-3.11719.000594-3.11719 1.552734v8.929688c0 1.625618.001 1.628312 2.46094 1.632812l13.41601-.05859c2.23134.05353 2.23047.0511 2.23047-1.654297v-9.53125c0-.870209.00021-.871094-2.17383-.871094zm77.07422.638672v5.115234 5.115235l8.35546-.371094 8.35743-.369141v-4.375-4.375l-8.35743-.36914zm-270.67969 15.115234c-4.07714 0-4.07813.05844-4.07813 2.763672v31.423828c0 8.886633 1.96769 12.698276 3.11133 14.814454 3.4811 6.44139 9.83614 10.418144 15.13086 10.96875 9.94505 1.034201 13.11513-1.555602 18.33399-4.583985 2.18073-1.328849 3.54882-3.632812 3.54882-3.632812l-.0137 6.730468c.0005 1.541315.0487 1.53998 4.75586 1.535157l11.125-.01172c2.66413-.0028 2.66403.02924 2.66406-1.5625v-55.68164c0-2.723726.002-2.724609-2.45312-2.724609h-12.80274c-3.2892 0-3.29102.000883-3.29101 2.724609 0 28.504665-.00068 28.505716-.0254 33.486328 0 12.652224-21.89258 12.652362-21.89258.01953v-16.748045-16.757813c0-2.676952.00068-2.686697-4.22266-2.763672zm36.0332 58.484375c0-.01655-.004-.02215-.004-.03906v1.591797zm285.77539-45.783203c9.91815-.227624 15.55274 6.650143 15.55274 19.173828 0 8.887818-2.65721 14.771198-7.89258 17.478516-11.23558 5.810141-22.38719-1.201206-23.51367-14.785156-1.05737-12.750535 3.9427-20.613873 13.81445-21.726563.69889-.07877 1.37785-.12545 2.03906-.140625z"/><path d="m49.814453 5.0351562c-24.730913-.0008437-44.7808349 19.3437978-44.7812499 43.2089848.000415 23.865186 20.0503369 43.211781 44.7812499 43.210937 24.729959-.000457 44.776929-19.346671 44.777344-43.210937-.0028-1.966682-.143754-3.930883-.423828-5.878907-.364194-1.305503 3.996101-1.38839 4.035156.07031.0914 10.977215-.712803 25.328967-.05664 35.3125.654043 3.97744 3.895785 9.74367 14.234375 9.802734l28.66016.164063c4.26377 0 4.26162.000165 4.3125-4.808594.0747-7.075559-.012-21.151524-.0508-28.125.18882-16.47225 23.01038-18.854389 23.47852-.214844.4111 4.590758.0648 23.710724.20898 31.117188.0395 2.030451-.009 1.956518 3.23438 2.011718l10.19922.01953c3.57981.188269 3.42406-.000399 3.44531-3.304688l.13477-20.515625c10.26588 34.310554 52.33094 32.381019 63.16797 6.933594l-16.49805-.07617c-7.54474 8.886311-23.34348 9.875629-28.83985-6.332031l46.41603-.384763v19.148438c-.0486 4.530936-.0512 4.653682 3.2832 4.621094l11.30664-.111329c3.17754-.03105 3.17735.02248 3.1836-4.570312l.0176-71.486328c-.01-4.2540003-.0259-3.9819815-4.88868-4.0195315l-7.20507-.052734c-5.74828 0-5.69791-.1827969-5.67579 4.2519525-.0224 20.828379-.0248 25.149824-.0273 36.65625-16.41585-34.787651-57.06893-25.463171-64.24023 5.6875 0-11.13368-1.66586-19.937325-14.90821-25.144531-5.36953-2.111428-16.54435-2.076838-22.08203 4.224609-3.11407 4.354742-3.77047 2.880399-3.76172.458985l.0781-21.609375c-.026-4.5271349-.0259-4.6443186-2.95899-4.6132811l-11.10351.1191406c-3.4357.036363-3.4375-.033851-3.4375 4.4570305-.1545 20.896142.0881 37.803078-.0664 58.699219.006 5.827086.006 5.597247-1.52148 5.654297l-4.04688.152344c-7.03311.262726-7.09031-3.544418-7.10156-9.892578l-.043-22.642578c.0771-2.733719-.0483-2.733922 1.60156-2.732422 5.99425.0053 5.99414.03906 5.99414.03906 2.07433-.04116 2.03082-.03258 2.10157-2.060547.0601-1.720402-.041-6.371093-.041-6.371093.035-2.455372.0155-2.455472-2.3457-2.490235 0 0-3.71664.144765-5.36133.09375-1.94975-.06048-1.81459.161671-1.87109-1.162109 0 0-.0186-9.741578-.0781-15.802735-.15296-1.272241-.67102-1.943875-2.18359-1.953125-3.32985-.02049-8.74221.08366-10.89844.06641-3.510149-.02809-3.838281.701346-3.847656 3.808593l-.03516 11.482422c.07937 3.500377.07842 3.5-2.324219 3.5l-5.146485.0059.01953.07031c-7.227516-15.503621-23.203556-25.4762295-40.820367-25.4824608zm234.894527 2.4179688-10.11914.109375c-3.32597 0-3.26398-.0006769-3.24023 4.431641.1283 23.989871-.66354 47.935444-.0234 71.128906 0 4.592782-.002 4.695659 3.28516 4.669922l10.08594-.07813c3.8047 0 3.88476.000989 3.88476-4.591797v-18.054683c3.38451 14.520149 17.36326 24.910749 33.56641 24.949219 19.00636-.000565 34.41381-14.118834 34.41406-31.535156.001-17.417276-15.40665-31.538498-34.41406-31.539063-16.20317.03845-30.1819 10.429058-33.56641 24.949219v-40.076172c0-4.2540048.0961-4.405731-3.87305-4.363281zm-234.138668 11.5625a24.329109 29.251058 0 0 1 24.328126 29.251953 24.329109 29.251058 0 0 1 -24.328126 29.25 24.329109 29.251058 0 0 1 -24.330078-29.25 24.329109 29.251058 0 0 1 24.330078-29.251953zm271.779298 19.869141a16.148101 19.860856 0 0 1 16.14844 19.859375 16.148101 19.860856 0 0 1 -16.14844 19.861328 16.148101 19.860856 0 0 1 -16.14649-19.861328 16.148101 19.860856 0 0 1 16.14649-19.859375zm-103.79492.486328c4.62846-.03159 9.60887 3.012191 13.57031 11.601562l-27.33398.515625c.98603-5.460544 6.99898-12.071026 13.76367-12.117187z"/></g></g></g></svg>