<svg height="183.47061" viewBox="0 0 566.9295 183.47061" width="566.9295" xmlns="http://www.w3.org/2000/svg"><g transform="translate(-33.488207 -16.007093)"><g stroke-width=".306452" transform="matrix(1.842197 0 0 1.7840047 33.488207 16.007093)"><g fill="#1747ce"><path d="m62.829 32.113 3.036-3.406v-23.154l-14.374 5.574-11.878 21.197 11.878-4.552z"/><path d="m88.391 25.369 14.589-5.627v61.419l-14.589 6.127-21.453-27.998v37.017l-15.447 6.535v-63.236l15.447-5.916 21.453 30.664z"/><path d="m14.589 87.288 13.688-6.061-13.688-26.575z"/></g><path d="m39.613 32.324 11.878-21.197-14.374-5.592-7.939 14.207 6.866 13.947z" fill="#069330"/><path d="m88.391 25.369v38.985l-21.453-30.664-4.109-1.577 10.978-12.371z" fill="#069330"/><path d="m51.491 39.606-15.447-5.917v32.103l-21.455-40.423-14.589-5.627v61.419l14.589 6.127v-32.636l21.455 41.655 15.447 6.535z" fill="#069330"/><path d="m36.044 65.792-21.455-40.423 14.589-5.627 6.866 13.947z" fill="#cc130e"/><path d="m66.938 59.29v15.296l4.383 6.144 17.07 6.558z" fill="#cc130e"/><g fill="#ffc001"><path d="m51.491 39.606-15.447-5.917 15.447-5.917 15.447 5.917z"/><path d="m88.391 14.129 14.589 5.613-14.589 5.627-14.589-5.627z"/><path d="m14.589 14.129 14.589 5.613-14.589 5.627-14.589-5.627z"/><path d="m51.491 0-14.374 5.535 14.374 5.592 14.374-5.574z"/></g></g><g stroke-width="5.37894" transform="matrix(.37779196 0 0 .36594239 197.15361 9.521395)"><g fill="#1747ce"><path d="m154.07 81.252h21.377v-47.5h-14.463v27.237h-.125l-9.536-27.237h-21.375v47.5h14.455v-27.418h.13z"/><path d="m234.714 81.252h21.375v-47.5h-14.453v27.237h-.131l-9.537-27.237h-21.373v47.5h14.461v-27.418h.125z"/><path d="m373.578 81.252h21.379v-47.5h-14.459v27.237h-.129l-9.536-27.237h-21.376v47.5h14.457v-27.418h.127z"/><path d="m184.179 33.752h17.83v47.5h-17.83z"/><path d="m272.591 46.655h-11.33v-12.903h40.524v12.903h-11.369v34.597h-17.825z"/><path d="m324.597 68.777h18.278v12.459h-35.825v-47.497h35.26v12.564h-17.713v4.967h16.309v12.178h-16.309z"/><path d="m402.63 33.752h21.123c18.016 0 23.75 10.197 23.75 24.275 0 14.343-8.848 23.226-22.684 23.226h-22.189zm17.453 36.707h1.738c2.867 0 4.789-.879 5.912-2.787 1.184-1.975 1.316-5.572 1.316-10.172 0-4.604-.135-8.194-1.316-10.172-1.123-1.91-3.045-2.789-5.912-2.789h-1.738z"/><path d="m475.451 32.506c15.521 0 23.244 10.193 23.244 24.995 0 14.806-7.725 25.002-23.244 25.002-15.523 0-23.246-10.196-23.246-25.002 0-14.802 7.72-24.995 23.246-24.995zm0 37.959c2.738 0 4.801-1.346 4.801-12.965 0-11.357-1.939-12.961-4.801-12.961-2.865 0-4.801 1.604-4.801 12.961 0 11.62 2.058 12.965 4.801 12.965z"/><path d="m129.948 81.252h14.455v-27.418h.13l9.537 27.418h21.377v-47.5h-14.463v27.237h-.125l-9.536-27.237h-21.375z"/><path d="m210.595 81.252h14.461v-27.418h.125l9.533 27.418h21.375v-47.5h-14.453v27.237h-.131l-9.537-27.237h-21.373z"/><path d="m349.457 81.252h14.457v-27.418h.127l9.537 27.418h21.379v-47.5h-14.459v27.237h-.129l-9.536-27.237h-21.376z"/><path d="m184.179 33.752h17.83v47.5h-17.83z"/><path d="m301.785 46.655h-11.369v34.597h-17.825v-34.597h-11.33v-12.903h40.524z"/><path d="m324.597 68.777h18.278v12.459h-35.825v-47.497h35.26v12.564h-17.713v4.967h16.309v12.178h-16.309z"/></g><g fill="#cc130e"><path d="m530.583 27.436c-.949-.083-1.871-.044-3.158.014-7.521.348-10.563 3.553-11.594 7.174h.182c1.873-1.637 4.188-2.401 7.289-2.401 5.965 0 11.414 4.338 11.414 12.476 0 7.787-5.986 13.852-14.02 13.852-10.584 0-15.188-8.083-15.188-16.75 0-7.041 2.498-13.004 6.598-16.85 3.902-3.615 8.934-5.441 15.092-5.582 1.631-.094 2.6 0 3.385.071zm-10.021 23.456c2.439 0 3.918-2.491 3.918-5.673-.02-2.686-1.25-5.613-4.52-5.613-1.998 0-3.555 1.266-4.143 2.795-.229.469-.314 1.137-.314 2.27.209 3.035 1.672 6.222 4.998 6.222z"/><path d="m553.365 57.911v-8.524h-15.846v-6.811l12.723-22.671h12.66v21.673h4.027v7.809h-4.027v8.524zm0-16.333v-6.531c0-2.414.145-4.922.268-7.565h-.207c-1.178 2.565-2.203 5.007-3.543 7.657l-3.113 6.326-.033.115z"/></g></g><g fill="#fdfffb" stroke-width="1.00157"><path d="m315.91977 51.108262c-2.33573-.166838-5.33881-.500514-10.17712-.166838-18.18534.333676-33.03392 5.672492-44.71258 15.84961-12.01234 11.011308-19.52005 28.028784-19.52005 48.049346 0 24.85886 13.68072 47.8825 45.04626 47.8825 23.85784 0 41.54267-17.35115 41.54267-39.5406 0-23.190484-16.18329-35.536496-33.86812-35.536496-9.17609 0-16.01645 2.168894-21.5221 6.840358h-.50051c3.00308-10.343956 12.01233-19.520046 34.20179-20.521074 3.83727-.166838 6.67352-.166838 9.50976 0zm-29.864 89.758848c-9.84344 0-14.18123-9.00926-14.84858-17.85167 0-3.16992.16684-5.00514.83419-6.33984 1.83522-4.50463 6.50668-8.00823 12.34601-8.00823 9.6766 0 13.34704 8.3419 13.34704 16.01645 0 9.17609-4.33779 16.18329-11.51182 16.18329z" transform="scale(1.0087415 .99133429)"/><path d="m393.81896 159.86403v-24.4166h12.04106v-22.40976h-12.04106v-61.877691h-37.79557l-37.79556 64.720721v19.56673h47.16084v24.4166zm-48.16426-46.82636.16724-.33447 9.19803-18.061601c4.01369-7.525665 7.02396-14.549619 10.53593-21.908047h.66895c-.33447 7.692902-.83618 14.716856-.83618 21.74081v18.563308z" transform="scale(1.0063339 .99370599)"/><g transform="scale(.95487464 1.0472579)"><path d="m564.39675 129.18921v-57.453739c1.32927-.147696 2.65853-.147696 3.8401-.147696 13.29264 0 18.01891 8.418672 18.01891 28.357632 0 20.529743-5.02166 29.391503-19.34818 29.391503-.73848 0-1.62465-.1477-2.51083-.1477zm-41.05949 24.81293h47.85351c38.25326 0 57.60144-18.16661 57.60144-53.76134 0-35.890129-18.75739-52.727473-57.89683-52.727473h-47.55812z"/><path d="m468.04916 129.18921v-57.453739c1.32926-.147696 2.65852-.147696 3.84009-.147696 13.29264 0 18.01891 8.418672 18.01891 28.357632 0 20.529743-5.02166 29.391503-19.34817 29.391503-.73848 0-1.62466-.1477-2.51083-.1477zm-41.05949 24.81293h47.8535c38.25327 0 57.60144-18.16661 57.60144-53.76134 0-35.890129-18.75739-52.727473-57.89683-52.727473h-47.55811z"/></g></g></g></svg>