<svg height="197.82344" viewBox="0 0 600.03241 197.82344" width="600.03241" xmlns="http://www.w3.org/2000/svg"><g fill="#a51e23"><g stroke-width="2.5" transform="matrix(1.0020212 0 0 .99798283 -.417848 -49.860048)"><path d="m486.34723 227.27141v16.41101h-61.93427q1.00604-9.30586 6.03623-17.60568 5.0302-8.3627 19.86927-22.13286 11.94671-11.12931 14.65044-15.09059 3.6469-5.47034 3.6469-10.81492 0-5.91048-3.20675-9.05435-3.14388-3.20675-8.73997-3.20675-5.53321 0-8.80284 3.33251-3.26963 3.3325-3.77264 11.06643l-17.60569-1.76057q1.57194-14.58757 9.87176-20.93819 8.29982-6.35062 20.74955-6.35062 13.64441 0 21.44121 7.35666 7.7968 7.35666 7.7968 18.29733 0 6.22487-2.26358 11.88384-2.20071 5.59609-7.04228 11.75808-3.20675 4.08703-11.56945 11.75808-8.3627 7.67105-10.62628 10.18615-2.20071 2.51509-3.58402 4.90444z"/><path d="m557.96464 227.27141v16.41101h-61.93428q1.00604-9.30586 6.03623-17.60568 5.0302-8.3627 19.86927-22.13286 11.94672-11.12931 14.65045-15.09059 3.64689-5.47034 3.64689-10.81492 0-5.91048-3.20675-9.05435-3.14387-3.20675-8.73997-3.20675-5.53321 0-8.80284 3.33251-3.26962 3.3325-3.77264 11.06643l-17.60569-1.76057q1.57194-14.58757 9.87176-20.93819 8.29982-6.35062 20.74956-6.35062 13.6444 0 21.4412 7.35666 7.79681 7.35666 7.79681 18.29733 0 6.22487-2.26359 11.88384-2.20071 5.59609-7.04228 11.75808-3.20675 4.08703-11.56944 11.75808-8.3627 7.67105-10.62629 10.18615-2.20071 2.51509-3.58402 4.90444z"/></g><g stroke-width="2.50001" transform="matrix(.99705261 0 0 1.0029561 -.417848 -49.860048)"><path d="m108.01739 149.82973q-.93441 10.27852-2.41848 17.09422-.65958.49469-1.75889.71455-1.0993.16489-2.14365.16489-1.04434-.055-1.813852-.32979-.10993-2.14365-.329792-3.79261-.219861-1.64896-.714549-3.62771-.439723-2.03371-1.264203-3.40785-.769514-1.4291-1.978752-2.6933-1.154272-1.2642-2.968128-1.92379-1.75889-.65958-4.067434-.65958-4.342261 0-7.530251 2.74827-3.187989 2.6933-4.23233 7.42032-.934411 4.28729 2.253578 8.2448 3.18799 3.9575 7.200459 6.26604 9.17921 5.27668 12.806922 10.55335 4.452192 6.48591 2.968132 13.52147-1.86883 8.84942-10.99307 15.72008-8.134869 6.15612-18.303456 6.10116-8.904384 0-14.345951-1.09931-5.386603-1.09931-7.42032-1.09931-.604619-7.20045 1.75889-18.57828 4.067435-.98937 5.716395-.38476.05497 7.47529 4.1224 11.98245 4.067434 4.45219 9.948725 4.45219 3.40785 0 6.321013-1.15427 2.913163-1.15428 4.836949-3.29792 1.978752-2.14365 2.528406-4.89192.93441-4.28729-1.154272-7.69514-2.033718-3.40786-5.991222-6.70578-.989376-.82448-4.891914-3.29792-3.847573-2.47344-6.815701-5.11177-2.968128-2.63834-4.672054-5.77136-2.638336-4.94688-.93441-13.02678.549653-2.63834 2.088682-5.27668 1.53903-2.6933 3.627712-4.89191 2.088683-2.19861 4.617088-3.90254 3.902539-2.6933 8.629557-4.06743 4.781984-1.37414 8.95935-1.37414 6.211082 0 11.982443 1.48407 5.82632 1.48406 6.37598 1.59399z"/><path d="m125.4414 239.75301q-1.2642 1.64896-3.68268 3.40786-2.36351 1.81385-4.34226 2.6933-2.63834 1.0993-6.6508 1.0993-2.69331 0-3.95751-2.03371-.98937-1.594-.38476-4.50716.38476-1.86882 2.58337-3.51778 2.25358-1.64896 5.27668-1.64896.71455 0 1.70392.21986 1.04434.21986 2.14365.21986 2.19861 0 3.73764-1.31917 1.53903-1.2642 3.40785-4.17736l4.01247-6.21109q.38476-.60461.43972-1.20923.10994-.54966-.10993-1.31917-.21986-.71455-.49468-1.20924-.21987-.49469-.76952-1.48406-.54965-.98938-.82448-1.53903l-7.42032-33.30899q-1.20924-5.27667-2.36351-6.59584-1.0993-1.37414-4.78198-1.70393-.38476-.49469-.10993-1.92378.32979-1.4291.93441-1.92379 4.45219.21986 12.47713.21986 6.6508 0 15.00553-.21986.21987.43972.1649 1.15427 0 .71455-.32979 1.53903-.27483.82448-.65959 1.15427-3.35288.27483-4.67205 1.09931-1.31917.82448-1.20924 2.30854.10993 1.48407.65959 3.79261l5.44157 23.52516q.055.27483.055.43973.055-.10994.10993-.21987l17.14919-25.9986q.76951-1.15427.87944-2.03372.10993-.87944-.21986-1.37413-.32979-.49469-1.20924-.82448-.87944-.32979-1.70392-.43972-.82448-.1649-2.08869-.27483-.38475-.49469-.10993-1.92378.27483-1.4291.93441-1.92379 8.29977.21986 11.87252.21986 2.36351 0 8.02493-.21986.38476.49469.055 1.92379-.27483 1.37413-.87945 1.92378-2.03371.1649-4.1224 1.2642-2.08868 1.09931-3.68267 2.58338-1.594 1.48406-2.80323 3.24295-14.23603 20.72193-30.39583 46.50067-4.17737 6.8157-7.09053 10.55334z"/><path d="m174.14068 204.41031q2.58337-.60462 4.56212-.21987.43973 6.10116 3.24296 9.78383 2.80323 3.62772 6.70577 3.62772 2.5284 0 4.89191-1.48407 2.41848-1.53903 2.91317-4.06743.54965-2.47344-.27483-4.89192-.82448-2.47344-3.57275-3.84757-2.58337-1.2642-5.88129-3.9575-3.29792-2.74827-5.16674-5.38661-2.6933-3.84757-1.70392-8.46466 1.04434-4.89191 5.66143-8.79445 6.98059-5.82633 16.43463-5.82633 2.91316 0 5.22171.38476 2.30854.38476 3.57274.87945 1.26421.43972 3.24296 1.42909.38475 5.22171-1.04434 11.92748-1.70393 1.04434-4.50716.54965-.98938-5.11177-3.18799-7.75011-2.19861-2.6933-5.16674-2.6933-2.41848 0-4.23233 1.37414-1.75889 1.37413-2.19862 3.35288-1.31916 6.15612 4.23233 8.73949 7.96998 3.79261 11.2679 8.68452 2.63833 3.84757 1.37413 9.6739-.98937 4.61709-4.83695 8.0799-3.84757 3.40785-8.51962 4.94688-4.61709 1.48407-9.23418 1.48407-4.17737 0-8.62956-.87945-4.45219-.82448-6.48591-1.59399-.055-4.72702 1.31917-15.0605z"/><path d="m230.75498 171.98076h3.13302q2.41848-11.37782 4.01247-13.02678.43972-.43973 1.53903-.87945 1.09931-.43972 2.6933-.87944 1.59399-.49469 2.25358-.76952 1.48406-.54965 4.06743-1.2642 2.58337-.71455 3.18799-.71455.87945 0 .65959.98937-1.4291 5.22171-3.29792 12.75196l-.93441 3.79261h13.19168q.43972 0 .60461.1649.21987.16489.1649.49468l-.76951 3.51779q-.3298 1.48406-3.0231 1.48406h-11.32286q-1.31916 6.32101-3.46281 16.59953-2.14365 10.22355-2.58337 12.31223-.82448 3.90254.16489 5.7164 1.04435 1.81385 3.18799 1.81385 4.34226 0 6.76074-1.59399 1.64896 1.70392 1.31917 3.18799-2.25358 2.47344-7.20046 4.39723-4.89192 1.86882-9.45404 1.86882-2.25358 0-4.72702-.82448-2.47344-.76952-3.90254-2.30855-2.74826-2.91316-1.31916-9.78383 3.51778-16.59953 7.03556-31.3852h-7.36536q-.54965 0-.38475-.71455l.65958-3.24295q2.30854-1.70393 5.11178-1.70393z"/><path d="m279.50923 189.89946h15.28037q.27482-.21986.76951-2.36351 1.31917-6.10115-.32979-9.01432-1.594-2.91316-4.34226-2.91316-1.20924 0-3.29792.98938-2.03372.98937-3.62771 2.80323-2.63834 3.07806-4.4522 10.49838zm25.11916 16.43463q.76952 0 .98938 1.20924.21986 1.15427-.055 2.25358-5.3866 6.04618-11.54272 9.12424-6.10115 3.0231-12.09237 3.0231-10.99307 0-16.04988-5.60647-2.8582-3.18799-3.73764-8.02494-.82448-4.89191.32979-9.78382 1.75889-8.2448 6.87067-14.67575 5.16674-6.48591 11.43279-9.72886 6.26604-3.24296 12.3672-3.24296 4.01247 0 7.03556.82448 3.07806.76952 4.89191 2.25358 1.86883 1.48407 3.0231 3.35289 1.15427 1.81385 1.48406 4.17736.32979 2.30855.21986 4.61709-.10993 2.25358-.65958 4.78198-.71455 3.46282-4.01247 3.51779h-27.04294q-.055.27482-.21987.82448-.16489.54965-.27482.93441-1.70393 8.0799 1.15427 12.09237 2.8582 4.01247 9.61893 4.01247 9.17921.055 16.26974-5.93626z"/><path d="m336.61821 207.10361q-.49469 2.41847-.76951 4.01247-.21986 1.53903-.1649 2.6933.10993 1.0993.27483 1.70392.21986.60462.93441.98938.71455.38476 1.37413.49469.65959.10993 2.03372.21986.38476.49469.10993 1.92378-.27483 1.4291-.87945 1.92379-9.61893-.21986-13.13671-.21986-5.99122 0-15.50022.21986-.38476-.49469-.10993-1.86882.32979-1.4291.93441-1.97875 3.07806-.27483 4.34226-.49469 1.2642-.21986 2.58337-1.2642 1.31917-1.04434 1.92379-2.8582.65958-1.86882 1.42909-5.49653l4.4522-21.05173q.54965-2.5284.54965-3.84757.055-1.37413-.65958-2.25358-.65959-.87944-1.86883-1.20923-1.20923-.3298-3.62771-.54966-.055-.32979 0-1.04434.055-.76951.1649-1.48406.16489-.76952.32979-1.09931 9.83879-1.2642 19.51269-3.68268 2.47344 0 2.14365 1.92379-.1649 2.58337-.60462 5.93626 15.55519-7.86005 20.28221-7.86005 4.83695 0 7.69515 2.19862 2.85819 2.19861 3.40785 5.93625 6.32101-3.18799 12.64202-5.66143 6.37598-2.47344 9.23418-2.47344 7.25542 0 9.78383 4.39723 2.5284 4.34226.60462 13.57644l-3.73765 17.5889q-.76951 3.62772-.87944 5.66143-.055 1.97875.76951 3.13303.87945 1.15427 2.25358 1.53903 1.37414.32979 4.23233.43972.1649.21986.1649.60462.055.38475 0 .87944-.055.43972-.21986.93441-.10993.43973-.32979.87945-.21987.38476-.43973.54965-9.61893-.21986-15.93994-.21986-4.2873 0-13.7963.21986-.38476-.49469-.10993-1.86882.32979-1.4291.93441-1.97875 3.79261-.27483 5.49653-2.14365 1.75889-1.92379 3.18799-8.62956l4.01247-18.79814q1.81386-8.46466-5.88129-8.46466-1.48406 0-4.89192.98937-3.40785.98938-6.70577 2.52841 0 1.97875-.87944 6.15612l-3.73764 17.5889q-.76952 3.51778-.87945 5.60647-.10993 2.08868.54965 3.24295.65959 1.09931 1.594 1.48407.98937.32979 2.8582.43972.16489.21986.16489.60462.055.38475 0 .87944-.055.43972-.21986.93441-.10993.43973-.32979.87945-.21986.38476-.43972.54965-9.61894-.21986-13.68637-.21986-4.2873 0-13.7963.21986-.38476-.49469-.10993-1.86882.32979-1.4291.93441-1.97875 3.79261-.27483 5.49653-2.14365 1.75889-1.92379 3.18799-8.62956l4.01247-18.79814q1.81386-8.46466-6.10115-8.46466-3.9575 0-11.04803 3.84757-.21986 1.09931-.32979 1.64896z"/></g><g stroke-width="1.21632" transform="matrix(.79698051 0 0 .84811412 -6.534103 -5.328518)"><path d="m649.08982 6.2827844c-14.6543 0-26.88228 12.2279806-26.88228 26.8822816v46.960336c0 14.654303 12.22798 26.882318 26.88228 26.882288h85.10864c14.6543 0 26.88221-12.228021 26.88228-26.882288v-46.960336c0-14.654301-12.22798-26.8822816-26.88228-26.8822816zm6.09013 28.5554526h72.29741v43.613994h-72.29741z"/><path d="m8.1985733 8.2905898v98.8286402h32.9724107v-70.273188h62.248536v70.273188h32.34141v-71.946359c0-14.654302-12.22799-26.8822812-26.88229-26.8822812z"/><path d="m158.06987 8.2905898v25.9899232h89.57043v7.027319h-69.93855c-14.6543 0-26.88228 12.339526-26.88228 26.993828v11.935287c0 14.654302 12.22798 26.882283 26.88228 26.882283h69.93855 14.61236 17.73562v-71.946359c-.00004-14.654302-12.22798-26.8822812-26.88229-26.8822812zm26.43611 59.3418012h63.13432v14.054638h-63.13432z"/><path d="m300.28942 8.2905898v98.8286402h33.01724v-70.273188h33.9096v70.273188h33.01724v-70.273188h34.57887v70.273188h32.34797v-71.946359c.00004-14.654302-12.22798-26.8822812-26.88228-26.8822812z"/><path d="m513.22832 6.2827844c-14.6543 0-26.88228 12.2279806-26.88228 26.8822816v46.960336c0 14.654303 12.22798 26.882318 26.88228 26.882288h90.35124v-28.555459h-83.63014v-43.613994h83.63014v-28.5554526z"/></g></g></svg>