<svg height="110" width="800" xmlns="http://www.w3.org/2000/svg"><g fill="#a51e23"><path d="m649.08982 6.2827844c-14.6543 0-26.88228 12.2279806-26.88228 26.8822816v46.960336c0 14.654303 12.22798 26.882318 26.88228 26.882288h85.10864c14.6543 0 26.88221-12.228021 26.88228-26.882288v-46.960336c0-14.654301-12.22798-26.8822816-26.88228-26.8822816zm6.09013 28.5554526h72.29741v43.613994h-72.29741z"/><path d="m8.1985733 8.2905898v98.8286402h32.9724107v-70.273188h62.248536v70.273188h32.34141v-71.946359c0-14.654302-12.22799-26.8822812-26.88229-26.8822812z"/><path d="m158.06987 8.2905898v25.9899232h89.57043v7.027319h-69.93855c-14.6543 0-26.88228 12.339526-26.88228 26.993828v11.935287c0 14.654302 12.22798 26.882283 26.88228 26.882283h69.93855 14.61236 17.73562v-71.946359c-.00004-14.654302-12.22798-26.8822812-26.88229-26.8822812zm26.43611 59.3418012h63.13432v14.054638h-63.13432z"/><path d="m300.28942 8.2905898v98.8286402h33.01724v-70.273188h33.9096v70.273188h33.01724v-70.273188h34.57887v70.273188h32.34797v-71.946359c.00004-14.654302-12.22798-26.8822812-26.88228-26.8822812z"/><path d="m513.22832 6.2827844c-14.6543 0-26.88228 12.2279806-26.88228 26.8822816v46.960336c0 14.654303 12.22798 26.882318 26.88228 26.882288h90.35124v-28.555459h-83.63014v-43.613994h83.63014v-28.5554526z"/><path d="m782.22423 7.1951312c4.30842.0000357 8.01031 1.5442432 11.10568 4.6325868 3.09534 3.088415 4.64301 6.800767 4.64305 11.137054-.00004 4.336324-1.54075 8.052138-4.62213 11.147514-3.08145 3.09534-6.79031 4.643045-11.1266 4.643045-4.35024 0-8.07305-1.544207-11.16839-4.632587-3.09538-3.088415-4.64308-6.807727-4.64308-11.157972 0-4.350243 1.55117-8.066058 4.65354-11.147512 3.1023-3.0813836 6.82165-4.6220931 11.15793-4.6221288zm-.04183 28.9667578c3.61127 0 6.7101-1.293205 9.29659-3.879651 2.58641-2.586446 3.87961-5.692244 3.87965-9.317466-.00004-3.625185-1.28978-6.724023-3.8692-9.296548-2.57952-2.572489-5.68185-3.8587339-9.30704-3.8587696-3.62519.0000357-6.72406 1.2862806-9.29655 3.8587696-2.57249 2.572525-3.85873 5.671363-3.85873 9.296548 0 3.625222 1.28624 6.73102 3.85873 9.317466s5.67136 3.879651 9.29655 3.879651zm7.11099-4.454793h-3.13721l-1.31762-3.701894c-.79477-2.216938-2.29365-3.325425-4.49663-3.325425h-2.15422v7.027319h-2.73983v-16.961796h6.37897c4.48967.000036 6.73452 1.554702 6.73452 4.663963 0 2.997785-1.471 4.608206-4.413 4.831295 1.50584.460136 2.62129 1.53375 3.34634 3.220841zm-11.10568-9.390675h3.43001c2.69099 0 4.03649-.885362 4.03652-2.656157-.00003-1.742881-1.38736-2.614322-4.16203-2.614322h-3.3045z"/></g></svg>