<svg fill-rule="evenodd" height="115.2" stroke-linejoin="bevel" stroke-width=".501" viewBox="0 0 417.6 86.4" width="556.8" xmlns="http://www.w3.org/2000/svg"><g fill="none" transform="matrix(1 0 0 -1 0 86.4)"><path d="m72.677 6.953v76.061h-12.644l.208-48.91-58.443 48.288.206-76.267h10.985v49.324zm8.081-1.242 9.74 16.579h-8.912v11.606h14.715l26.736 48.496 42.692-76.681h-15.129l-8.704 16.579h-37.925l-9.121-16.579zm28.393 28.393h27.356l-13.678 25.075zm164.761-28.393h-12.436v76.473l42.28-49.117 42.691 50.153v-77.509h-13.264l-.206 41.657-29.43-35.44-29.635 35.232zm96.576 0 .208 78.34h12.642l-.208-78.34z" fill="#fff"/><path d="m165.315 43.222c0 23.004 18.652 41.657 41.657 41.657 23.004 0 41.657-18.653 41.657-41.657 0-23.005-18.653-41.657-41.657-41.657-23.005 0-41.657 18.652-41.657 41.657m41.657-29.221c16.165 0 29.221 13.056 29.221 29.221 0 15.957-13.056 29.015-29.221 29.015-15.958 0-29.016-13.058-29.016-29.015 0-16.165 13.058-29.221 29.016-29.221" fill="#f00"/></g></svg>