<svg viewBox="0 0 3839.12777 1208.80005" xmlns="http://www.w3.org/2000/svg"><g fill="#fff"><path d="m3160.617 575.4v12.8h26.4v88.1h17.4v-87.9l31.1-.2v-12.8z"/><path d="m3350.2 676.3h-16.2v-55.9l-37.2 47.1-37.3-47.1s-.1001 55.8.1001 55.9c.19995.1-14.8999 0-14.8999 0v-100.8l52.3999 65.1 53-65.1v100.8z" transform="translate(.0168)"/><path d="m2994.5168 575.40002h96.69995v582h-96.69995z"/><path d="m2789.517 575.4-343 397.2-342.9-397.2v582h96.7v-322l246.2 285.2 246.3-285.2v322h96.7z"/><path d="m475.84602 575.46228h96.70001v483.5h-96.70001z"/><path d="m0 668.33484h96.7v489.09998h-96.7z"/><path d="m675.55728 947.96638h492.20001v96.70001h-492.20001z"/><path d="m572.517 1032.5v124.9l-572.5-469v-125z"/></g><path d="m1674.5 536.2c-185.69995 0-336.30005 150.6-336.30005 336.3s150.6 336.30005 336.30005 336.30005c185.69995 0 336.30005-150.6 336.30005-336.3s-150.60005-336.30005-336.30005-336.30005zm0 96.7c-132.30005 0-239.6 107.3-239.6 239.6s107.30005 239.6 239.6 239.6c132.30005 0 239.6-107.3 239.6-239.6s-107.29995-239.6-239.6-239.6zm0 461.9c-122.6 0-222.30005-99.7-222.30005-222.3s99.69995-222.3 222.30005-222.3c122.6 0 222.30005 99.7 222.30005 222.3s-99.80005 222.30005-222.30005 222.30005zm0 17.3999c-132.30005 0-239.6-107.3-239.6-239.6s107.30007-239.5999 239.6-239.5999 239.6 107.3 239.6 239.6-107.29995 239.6-239.6 239.6z" fill="#f05100" transform="translate(.0168)"/><path d="m785.217 1157.4 215.5-393.6 215.4 393.6h110.2l-325.6-595-325.7 595z" fill="#fff"/><path d="m3504.56228 1060.75421h334.5v96.69995h-334.5z" fill="#f05100"/><g transform="translate(.0168)"><path d="m3796 638.4c-42.2-47.9-96.3999-73.2-156.7-73.2-71.8999 0-134.8 36.8-174.69995 67.4l68.3999 68.7c47.1001-33.3 128-71.1 191.2.5 94.3999 106.9-189.80005 335.9-268.8999 392.69995v62.9h76.30005c78.3999-58.9 289-230 306.3-382.5 5.7-51.69995-8.8-98.99995-41.9001-136.49995z" fill="#f05100"/><path d="m2491.6001 83.9a120.3535 120.3535 0 0 0 -229.4001 0l-40.6001 120.3v-197.2h-212.5999c-37.8 0-72.69995 15.4-99.3 40.6v-40.6h-218.2c-40.6 0-76.9 16.8-103.5 44.8v-44.8h-207c-88.1 0-160.9 72.7-160.9 160.9a159.28646 159.28646 0 0 0 43.4 109.1h-43.4v187.4h207c58.69995 0 109.1-30.8 138.5-78.3 23.8 46.2 71.3 78.3 127.3 78.3h219.6v-40.6c25.19995 25.2 60.1 40.6 99.30005 40.6h607.09985z" fill="#fff"/><g fill="#1281c4"><path d="m1427.1 310.5h-174.80007v54.6h174.80007c33.6 0 61.5-28 61.5-61.5s-28-61.5-61.5-61.5h-44.80005c-40.6 0-74.1-33.6-74.1-74.1s33.6-74.1 74.1-74.1h173.4v-54.7h-174.69995a128.7 128.7 0 0 0 0 257.4h44.80005a6.61343 6.61343 0 0 1 7 7c-.10005 4.1-2.90005 6.9-5.70005 6.9z"/><path d="m1381 162.3h174.80005v-55.9h-174.80005c-33.6 0-61.5 28-61.5 61.5s28 61.5 61.5 61.5h44.80005c40.6 0 74.1 33.6 74.1 74.1s-33.6 74.1-74.1 74.1h-173.40005v54.6h174.80005a128.7 128.7 0 0 0 0-257.4h-44.80005a6.61344 6.61344 0 0 1 -7-7 6.01026 6.01026 0 0 1 5.6-5.5z"/><path d="m2009 106.3c-23.80005 0-42 18.2-42 42v174.8c0 23.8 18.19995 42 42 42h113.3v-123.1h-86.6999v54.6h32.19995v12.6h-32.19995a12.54759 12.54759 0 0 1 -12.6-12.6v-123.2a12.54759 12.54759 0 0 1 12.6-12.6h155.3v-54.6h-181.9001z"/><path d="m2353.1001 365.1h127.3l-86.6999-257.4c-2.80005-7-8.39991-12.6-16.80005-12.6-7 0-14 5.6-16.8 11.2l-111.89995 325.9h64.3l39.2-116.1v49zm22.3999-117.5 18.2 55.9h-37.8001z"/><path d="m2460.80005 96.5c-11.19995-36.4-44.8-64.3-85.3-64.3-40.6001 0-74.1001 26.6-83.8999 62.9l-102.10015 299.3v-219.6h-153.9v54.6h100.70007v148.3h-125.90007a54.66715 54.66715 0 0 1 -54.6-54.6v-174.8a54.66715 54.66715 0 0 1 54.6-54.6h180.4v-54.5h-181.8a109.29812 109.29812 0 0 0 -109.1 109.1v174.8a109.29812 109.29812 0 0 0 109.1 109.1h225.2l113.3-328.7a31.07986 31.07986 0 0 1 58.7998 0l92.30005 274.2h-145.5v54.6h221z"/><path d="m1691.5 377.7a54.66715 54.66715 0 0 1 -54.6-54.6v-174.8a54.66716 54.66716 0 0 1 54.6-54.6h187.4v-54.5h-187.4a109.29812 109.29812 0 0 0 -109.1 109.1v174.8a109.29812 109.29812 0 0 0 109.1 109.1h187.4v-54.6h-187.4z"/><path d="m1704.1 297.9h135.69995v-54.6h-190.19995v81.1c0 23.8 18.19995 42 42 42h187.4v-54.6h-162.3c-7-1.3-12.6-6.9-12.6-13.9z"/><path d="m1839.80005 174.8h-135.69995a12.54758 12.54758 0 0 1 12.6-12.6h160.9v-55.9h-186c-23.80005 0-42 18.2-42 42v81.1h190.19995z"/></g><path d="m2541.2 0a42.6 42.6 0 1 0 42.6001 42.6 42.57107 42.57107 0 0 0 -42.6001-42.6zm0 80.3a37.7 37.7 0 1 1 37.69995-37.7 37.59951 37.59951 0 0 1 -37.69995 37.7z" fill="#fff"/><path d="m2524 18.3h14.3c10.80005 0 22.30005 1.4 22.30005 13.4 0 7.1-5.30005 11.7-14 12.8l15.89995 22.3h-8.1001l-15.09985-21.8h-8.60005v21.8h-6.6001zm6.6001 21.4h5.8999c7.3 0 16.8 0 16.8-8 0-7-7-8-13.3999-8h-9.3z" fill="#fff"/></g></svg>