<svg height="78.275" viewBox="0 0 566.929 78.275" width="566.929" xmlns="http://www.w3.org/2000/svg"><path d="m347.884 70.38c0 .83-.682 1.578-1.521 1.578h-29.102c-.848 0-1.527-.748-1.527-1.578v-21.022c0-.832.682-1.496 1.527-1.496h29.102c.84 0 1.521.664 1.521 1.496zm-1.263-28.834h-29.621c-4.287 0-7.787 3.49-7.787 7.813v21.104c0 4.236 3.5 7.813 7.787 7.813h29.621c4.297 0 7.787-3.574 7.787-7.813v-21.105c0-4.322-3.491-7.812-7.787-7.812" fill="#999"/><g fill="#c91818"><path d="m6.797 9.969v27.174c-.357 0-6.433 0-6.797 0 0-.416 0-36.314 0-36.729h5.808l27.529 26.756s0-26.341 0-26.756h5.442s.964 0 1.264 0v36.729c-.366 0-5.127 0-5.311 0z"/><path d="m74.943 9.969v27.174c-.366 0-6.423 0-6.797 0 0-.416 0-36.313 0-36.729h5.8l27.529 26.756s0-26.341 0-26.756h5.451s.972 0 1.263 0v36.729c-.374 0-5.127 0-5.31 0z"/><path d="m216.179 9.969v27.174c-.375 0-6.424 0-6.797 0 0-.416 0-36.313 0-36.729h5.8l27.529 26.756s0-26.341 0-26.756h5.45s.973 0 1.264 0v36.729c-.374 0-5.127 0-5.301 0z"/><path d="m56.23.414h1.255v36.729c-.356 0-6.431 0-6.797 0 0-.416 0-36.313 0-36.729.374 0 5.542 0 5.542 0"/><path d="m154.482.414h1.246v6.315c-.398 0-16.386 0-16.386 0s0 29.997 0 30.413c-.366 0-6.697 0-7.063 0 0-.416 0-30.413 0-30.413s-15.986 0-16.386 0c0-.332 0-5.983 0-6.315.406 0 38.589 0 38.589 0"/><path d="m198.023.414h1.271v6.315c-.391 0-29.134 0-29.134 0v8.226h22.536v6.316c-.383 0-22.536 0-22.536 0v9.555h29.134v6.315c-.391 0-35.474 0-35.863 0 0-.416 0-36.313 0-36.729.39.002 34.592.002 34.592.002"/><path d="m287.216 30.827h-20.874v-24.096h20.874c6.531 0 8.852 6.479 8.852 12.049-.002 5.482-2.318 12.047-8.852 12.047zm11.153-25.01c-2.658-3.573-6.59-5.401-11.344-5.401 0 0-26.838 0-27.238 0v36.729h27.238c4.754 0 8.686-1.911 11.344-5.401 2.492-3.24 3.813-7.728 3.813-12.962-.001-5.239-1.321-9.725-3.813-12.965"/><path d="m347.884 29.331c0 .748-.682 1.496-1.521 1.496h-29.102c-.848 0-1.527-.748-1.527-1.496v-21.105c0-.831.682-1.496 1.527-1.496h29.102c.84 0 1.521.665 1.521 1.496zm-1.263-28.917h-29.621c-4.287 0-7.787 3.49-7.787 7.813v21.104c0 4.321 3.5 7.813 7.787 7.813h29.621c4.297 0 7.787-3.49 7.787-7.813v-21.105c0-4.32-3.491-7.812-7.787-7.812"/><path d="m470.017 62.737c7.045 2.824 21.928 5.066 33.545 5.066 12.713 0 17.973-4.32 17.973-9.806 0-4.985-4.887-7.811-18.92-12.963-18.771-6.896-32.541-12.38-32.541-24.762 0-12.713 16.57-20.274 41.822-20.274 13.561 0 18.215.831 26.822 2.41l.066 12.131c-8.459-1.578-15.955-4.321-27.598-4.321-12.479 0-17.799 3.988-17.799 8.063 0 5.9 8.191 8.725 22.563 13.876 20 7.146 31.127 12.629 31.127 24.68 0 12.463-13.938 21.438-45.361 21.438-12.904 0-21.805-.832-31.699-2.492z"/><path d="m403.125 10.719h-14.955v56.671h14.955c22.961 0 37.443-9.89 37.443-28.252 0-18.365-14.483-28.419-37.443-28.419zm40.144 61.905c-7.396 3.324-21.391 5.484-33.621 5.484h-46.748v-77.943h46.748c12.23 0 26.225 2.16 33.637 5.484 18.008 8.143 23.873 21.188 23.873 33.485 0 12.302-5.817 25.347-23.889 33.49"/><path d="m551.773 66.475h-3v-1.08h7.305v1.08h-3.016v8.725h-1.289z"/><path d="m565.443 70.878c-.076-1.328-.158-2.989-.158-4.235h-.033c-.35 1.162-.748 2.407-1.246 3.737l-1.736 4.82h-.965l-1.609-4.736c-.467-1.414-.85-2.659-1.121-3.821h-.033c-.025 1.246-.104 2.907-.186 4.319l-.268 4.238h-1.213l.689-9.807h1.621l1.68 4.735c.406 1.246.73 2.326.996 3.324h.025c.266-.998.613-2.078 1.055-3.324l1.754-4.735h1.619l.615 9.807h-1.254z"/></g></svg>