<svg height="681.31122" viewBox="0 0 3168.7796 681.31122" width="3168.7795" xmlns="http://www.w3.org/2000/svg" xmlns:xlink="http://www.w3.org/1999/xlink"><clipPath id="a"><path d="m0 618.062h1949.984v-618.062h-1949.984z"/></clipPath><g transform="matrix(1.25 0 0 -1.25 267.2957 717.4956)"><g clip-path="url(#a)" fill="#231f20"><path d="m0 0h-.394z" transform="translate(1372.3838 146.5197)"/><path d="m0 0v-70.281h-5.512c-6.497 19.293-16.34 33.861-29.527 43.702-12.996 10.042-20.871 15.161-36.423 15.161-14.765 0-27.167-4.331-37.01-12.599-10.043-8.468-16.931-20.081-21.065-35.042-4.134-14.962-6.1-30.317-6.1-46.067 0-19.095 2.166-35.829 6.691-50.203 4.528-14.565 11.812-22.24 21.852-28.939 10.04-6.691 18.111-10.037 31.892-10.037 4.921 0 9.843.393 14.764 1.375 5.122 1.184 9.056 2.562 14.369 4.531v50.791c0 7.874-.588 12.993-1.572 15.355-1.182 2.166-3.347 4.331-6.694 6.103-3.349 1.969-7.481 2.953-12.402 2.953h-5.119v5.315h96.858v-5.315c-7.284-.591-12.403-1.578-15.358-3.15-2.953-1.381-5.119-3.937-6.691-7.481-.788-1.968-1.184-6.496-1.378-13.78l-.394-49.216c-12.602-5.513-24.214-10.237-37.995-13.19-13.78-2.756-28.154-5.116-42.916-5.116-18.899 0-30.908 1.375-43.31 6.494-12.597 5.118-23.427 9.843-33.076 18.114-9.45 8.462-16.928 17.909-22.44 28.346-6.694 13.583-10.237 28.545-10.237 45.478 0 29.921 10.631 55.12 31.695 75.788 20.868 20.673 47.444 30.91 79.336 30.91 14.568 0 27.561-3.74 41.145-8.859 9.647-3.74 15.356-5.512 17.127-5.512 2.756 0 5.119.984 7.481 2.953 2.363 1.969 4.528 5.709 6.497 11.418z" transform="translate(1496.2117 471.5432)"/><path d="m0 0h-.394v11.022c32.483.787 59.257-8.463 79.73-27.364 20.868-19.487 31.299-43.704 31.299-72.838 0-25.001-7.869-46.853-23.424-65.949-20.671-25.005-49.807-37.601-87.605-37.601v15.158c10.434 0 19.49 2.756 26.38 7.478 8.859 5.906 14.568 15.555 19.49 28.745 4.921 12.993 8.268 29.727 8.268 50.791 0 25.199-2.559 43.901-7.678 56.304-4.921 12.599-11.418 21.261-19.096 26.574-7.874 5.118-16.93 7.68-26.97 7.68m-.394 0c-18.702-.197-32.679-9.059-42.326-26.776-8.071-14.371-12.008-35.433-12.008-62.6 0-32.483 5.709-56.894 17.914-72.25 8.662-10.827 21.065-15.946 36.42-15.946v-15.158h-.197c-37.798 0-67.13 12.006-87.801 36.023-16.34 18.902-24.608 41.344-24.608 67.331 0 29.135 10.63 53.547 31.892 72.837 21.261 19.492 47.444 28.745 78.549 27.561h2.165z" transform="translate(1139.0996 458.7479)"/><path d="m0 0v-78.549h4.331c13.584 0 18.899 3.937 25.002 12.009 6.103 7.874 10.04 19.492 11.615 35.042h6.103v-104.339h-6.103c-1.181 11.419-3.937 20.674-7.875 27.955-4.134 7.284-8.859 12.206-14.174 14.568-5.315 2.562-8.662 3.741-18.899 3.741v-58.469c0-11.025.591-17.718 1.575-20.08.984-2.56 2.756-4.528 5.512-6.103s7.087-2.362 13.387-2.362h12.796c19.883 0 25.592 4.331 37.601 12.993 12.009 8.465 20.277 18.308 25.593 36.026h5.906l-9.253-60.041h-175.013v5.509h7.284c6.103 0 11.222.985 14.962 2.953 2.756 1.378 4.922 3.741 6.3 7.087 1.181 2.363 1.772 8.466 1.772 18.506v131.114c0 8.856-.197 14.371-.788 16.534-.984 3.347-2.953 6.103-5.906 7.877-3.937 2.756-9.449 4.132-16.34 4.132h-7.284v5.512h179.541v-58.86h-5.906c-3.15 14.371-7.284 24.608-12.993 30.902-5.512 6.303-13.19 10.831-23.427 13.784-5.906 1.772-16.93 2.559-33.27 2.559z" transform="translate(921.3666 455.3996)"/><path d="m0 0 110.441-123.631v85.639c0 12.006-1.772 20.077-5.709 24.214-5.315 5.707-11.615 8.465-24.214 8.266v5.512h66.737v-5.512c-9.45-.985-11.025-2.559-14.175-4.132-3.346-1.774-5.906-4.53-7.677-8.468-1.772-3.74-2.756-10.431-2.756-19.88v-165.76h-5.513l-151.585 165.76v-126.584c0-11.418 2.953-19.099 8.859-23.23 5.906-3.94 12.599-5.909 20.277-5.909h5.315v-5.509h-79.533v5.509c12.402 0 20.867 2.363 25.789 6.694 4.725 4.331 7.284 11.812 7.284 22.445v140.561l-4.922 5.313c-4.724 5.318-8.859 8.662-12.402 10.436-3.741 1.575-.394 2.557-7.087 2.754v5.512z" transform="translate(688.6728 467.0146)"/><path d="m0 0h-.394v11.022c32.483.787 59.254-8.463 79.728-27.364 21.064-19.487 31.498-43.704 31.498-72.838 0-25.001-7.872-46.853-23.427-65.949-20.868-25.005-50.004-37.601-87.799-37.601v15.158c10.431 0 19.49 2.756 26.377 7.478 8.862 5.906 14.571 15.555 19.49 28.745 4.922 12.993 8.271 29.727 8.271 50.791 0 25.199-2.562 43.901-7.68 56.304-4.922 12.599-11.419 21.261-19.094 26.574-7.874 5.118-16.933 7.68-26.97 7.68m-.394 0c-18.705-.197-32.679-9.059-42.326-26.776-8.074-14.371-12.008-35.433-12.008-62.6 0-32.483 5.709-56.894 17.912-72.25 8.662-10.827 21.064-15.946 36.422-15.946v-15.158h-.199c-37.798 0-67.131 12.006-87.802 36.023-16.337 18.902-24.608 41.344-24.608 67.331 0 29.135 10.631 53.547 31.892 72.837 21.261 19.492 47.444 28.745 78.552 27.561h2.165z" transform="translate(1808.2435 458.7479)"/><path d="m0 0v-78.549h4.334c13.583 0 18.899 3.937 25.002 12.009 6.1 7.874 10.037 19.492 11.615 35.042h6.102v-104.339h-6.102c-1.184 11.419-3.938 20.674-7.875 27.955-4.134 7.284-8.859 12.206-14.174 14.568-5.316 2.562-8.665 3.741-18.902 3.741v-58.469c0-11.025.593-17.718 1.578-20.08.984-2.56 2.756-4.528 5.512-6.103s7.087-2.362 13.387-2.362h12.793c19.886 0 25.595 4.331 37.601 12.993 12.012 8.465 20.277 18.308 25.595 36.026h5.906l-9.252-60.041h-175.013v5.509h7.284c6.1 0 11.221.985 14.962 2.953 2.753 1.378 4.919 3.741 6.299 7.087 1.179 2.363 1.772 8.466 1.772 18.506v131.114c0 8.856-.197 14.371-.787 16.534-.985 3.347-2.953 6.103-5.906 7.877-3.94 2.756-9.45 4.132-16.34 4.132h-7.284v5.512h179.541v-58.86h-5.906c-3.153 14.371-7.284 24.608-12.993 30.902-5.513 6.303-13.19 10.831-23.427 13.784-5.909 1.772-16.933 2.559-33.27 2.559z" transform="translate(1590.5078 455.3996)"/><path d="m0 0h1.184c11.218 0 20.277-8.856 20.277-19.49 0-10.63-9.059-19.292-20.277-19.292h-1.184c-11.219 0-20.274 8.662-20.274 19.292 0 10.634 9.055 19.49 20.274 19.49" transform="translate(1277.2972 388.0716)"/></g><path d="m2231.2634 451.40238c-6.5219 3.00994-17.0568 4.01329-32.1065 4.01329v-147.48863c0-7.52496.5026-12.03998 1.0052-14.04657.5026-1.50496 2.0071-3.01004 3.5117-4.01328 2.5087-1.50497 6.0203-2.00669 10.535-2.00669 15.0508 0 26.5889 5.01663 34.6151 15.55152 10.535 14.04655 16.0528 37.12302 16.0528 66.7211 0 23.57808-3.5117 42.13954-11.0366 56.68782-6.0191 10.53489-13.544 20.56816-22.5745 24.58144zm11.0365-142.97373c-6.5218-8.52831-15.5512-12.54159-28.0933-12.54159-4.5148 0-6.0193 1.00302-6.5207 1.00302 0 1.00302-.5027 3.51166-.5027 11.03661v139.46208c12.0407-.50152 18.0599-2.00671 21.07-3.51167 7.5249-3.51167 13.5452-12.03986 18.5614-21.57151 6.5218-13.0432 10.0335-30.60131 10.0335-52.67454 0-26.58803-5.0162-48.66115-14.5482-61.20273zm65.7175 116.88732c-9.0293 16.05314-23.076 31.10305-40.6343 39.12961-14.5482 6.52161-33.1095 9.53155-56.1856 9.53155h-82.7744-20.0669l-1.0052-7.02322c-.5027-4.01329-1.5057-5.01664-2.0072-5.51826-.5026-.5015-1.0052-1.00301-2.006-1.00301-.5026 0-3.0102.50151-13.0437 4.5149-15.0497 6.01998-30.0993 9.02992-43.6445 9.02992-18.5614 0-36.6211-4.51491-53.1765-14.04655-16.5541-9.53154-30.0993-22.57474-40.1328-39.63124-10.0336-17.05648-15.0498-35.11632-15.0498-53.67788 0-18.05985 4.5148-35.11633 13.5452-50.66785 9.0294-16.05326 22.0731-28.59473 38.6273-37.12303 16.0538-8.52819 35.1166-12.54159 55.6851-12.54159 16.0527 0 30.0994 2.50832 42.1389 8.02668 12.0406 5.01664 23.5787 13.54483 34.6151 25.08306l2.0072 2.50832v40.63458l-14.0467-16.55476c-10.0335-11.53824-19.5654-19.56492-28.0933-24.07982-8.5278-4.51501-17.5583-6.5216-28.0933-6.5216-12.0395 0-22.073 3.00994-29.0964 8.5283-7.5249 6.01987-13.0425 14.54817-16.5542 26.58803-4.0143 12.54158-6.0203 27.08975-6.0203 42.64127s2.5086 29.59808 8.0263 42.13967c4.0132 9.53153 9.532 16.55486 18.0599 22.07312 8.0264 5.51825 17.0568 8.52829 27.0903 8.52829 12.0395 0 22.073-3.51166 31.6039-11.53822 9.5319-7.52496 16.0538-19.06319 19.5655-34.1131l1.5045-6.01987h19.5654v59.19604h6.5207c4.5158 0 7.0234-1.00302 8.0275-1.50497 2.0061-1.00302 2.5075-2.00659 2.5075-2.50832 0-.50151 1.0053-8.02657 1.0053-19.06318v-120.90051c0-10.03327-.5026-13.0432-.5026-14.04655-.5027-1.00301-1.5046-2.0067-3.0091-3.00993-1.0052-.50152-3.0102-1.50509-8.0274-1.50509h-14.0456v-20.56804h89.7965c12.5423 0 21.5716.50151 27.5919 2.00659 13.0437 2.50831 24.5816 6.01999 33.6111 10.53489 9.5319 4.51501 18.0598 11.03661 25.0831 18.56156 7.0233 8.02657 13.0437 17.55811 17.5583 29.59808 4.5147 11.53812 6.5219 26.58802 6.5219 40.13296 1.0052 20.06643-4.0132 38.12626-13.0437 54.17951zm-187.1191-23.5782h-5.0173c-4.0131 16.55487-11.5379 29.59807-22.0729 38.12637-11.0366 9.02993-23.0761 13.04321-36.6213 13.04321-11.5379 0-22.0729-3.51166-31.605-10.03327-9.5319-6.5216-16.5542-15.04978-21.07-25.58479-5.5176-13.54482-8.5278-28.59472-8.5278-45.6512 0-16.55488 2.006-31.10305 6.0203-44.64798 4.0132-13.54483 10.535-23.57809 19.5644-30.60131 9.0305-7.02333 20.0669-10.53489 34.1125-10.53489 11.5391 0 22.0741 2.50831 31.605 7.52484 9.532 5.01663 19.5655 13.54493 30.1005 26.08651v-16.05324c-10.0335-10.53489-21.07-18.56146-32.1066-23.5781-11.0364-5.01663-24.0801-7.02333-39.1298-7.02333-19.5654 0-37.1227 4.0134-52.1734 11.53824-15.0498 8.02668-27.0893 19.06319-35.1156 33.61136-8.0275 14.54827-12.5422 30.0998-12.5422 47.15629 0 17.55822 4.5147 34.11298 13.5452 49.6645 9.0294 15.55152 21.5716 28.0931 37.1227 36.6214 15.5523 8.5282 32.1065 13.0432 49.6648 13.0432 13.0437 0 26.5878-3.00993 40.6344-8.5283 8.529-3.00993 13.5452-5.01663 16.0538-5.01663 3.0091 0 5.5177 1.00302 7.5248 3.01006 2.0061 2.00657 3.5117 5.51824 4.0133 10.03325h5.0161v-62.20619zm186.6176-68.22606c-4.0131-11.0365-9.5309-20.06643-16.0526-27.08976-6.5219-7.02322-14.0468-12.54148-22.5757-17.05648-8.5278-4.51491-19.0628-7.52496-31.6039-10.03317-5.5188-1.003-14.0467-1.50507-26.0862-1.50507h-81.7713v4.51501h6.0203c5.5177 0 9.5309 1.00302 12.0395 2.50832 3.0102 1.50497 5.0162 4.01329 6.0204 7.02322 1.0052 2.00669 1.0052 7.52495 1.0052 17.05649v120.90061c0 9.53154-.5026 19.56481-1.5057 22.07312-1.0052 2.50832-3.009 4.51502-6.0192 6.01999-3.0101 2.00659-7.0233 2.50831-12.0406 2.50831h-6.0192v5.51825h81.7702c22.073 0 39.6313-3.00993 52.6751-9.02991 16.5552-7.52495 28.5947-20.56816 37.1226-35.61807 8.529-14.54817 12.5421-31.60465 12.5421-50.1661 1.0053-13.04321-1.5055-26.58815-5.5188-37.62476z" stroke-width=".8"/></g><g fill="#231f20"><path d="m2776.1465 573.68365h-245.9405c-8.7317 0-17.1461-.32382-25.5589-1.61747-8.0906-.97146-15.5336-2.58893-22.329-4.53022-9.708-2.26511-16.8273-7.11916-21.3575-10.99845-3.8826-3.56369-5.8255-7.44791-5.8255-11.33049v-42.71494c.9715-3.5604 3.5604-8.09063 7.7669-11.32556 4.203-3.23658 10.0318-6.14934 16.8271-8.09063 7.1193-1.94129 14.886-3.5604 23.6227-4.53022 9.0604-.97147 18.4464-1.61747 28.8004-1.61747h243.9943v12.94303h-243.9943c-10.354 0-19.4162.32382-27.5051 1.29529-7.7717.96982-15.5336 2.58729-22.6528 4.52529-9.7081 2.91604-11.6494 6.47644-13.5907 11.33049l-.3238 10.02698h307.7428l.3239 13.27178h-307.7429v13.91449c0 3.56041 2.589 7.11916 15.5286 10.67956 6.4766 1.6224 13.5957 2.91276 21.6847 3.88751 8.0856 1.29036 16.1813 1.61418 24.2702 1.61418h246.2594z"/><path d="m2416.3061 490.51904h-155.004v83.16478h-13.5955v-83.16478h-154.6802v-13.59067h323.2797z"/><path d="m1643.2232 533.5588h-89.6363v40.12601h-13.5923v-40.12601h-115.8478c-17.4749 0-39.1512-2.27005-39.1512-28.15774v-28.47663h14.2333v27.18627c0 17.15107 16.5034 15.52867 27.183 15.52867h215.8399 27.8305c11.0018 0 27.5053 1.6224 27.5053-15.52867v-27.18627h13.5906v28.47663c0 25.88769-21.6797 28.15774-39.1545 28.15774z"/><path d="m1350.0424 490.83958h-258.8802c-12.9431 0-24.5925 2.27004-33.0069 5.8288-6.4716 2.58893-10.3542 5.50169-10.3542 8.09062 0 2.58894 3.8826 5.49676 10.3542 8.0857 8.4144 3.23986 20.0638 5.50497 33.0069 5.50497h112.289 89.638c9.7081 0 19.0923.96654 26.8591 2.90783 4.2064.97146 7.7652 2.26511 11.3256 3.56533 3.5587 1.61254 6.7953 3.23493 9.3842 4.8524 6.1477 4.52694 9.7081 10.03192 9.7081 16.17632v.32875c0 8.73663-7.443 16.17468-19.0923 21.02872-10.032 3.88258-23.6226 6.47645-38.1847 6.47645h-255.3199v-13.91943h255.3199c12.943 0 24.594-2.26511 33.0068-5.49676 6.1477-2.91275 10.3558-5.8288 10.3558-8.08898v-.32875c0-1.29036-1.6192-2.90783-3.8843-4.53022-1.9412-1.29529-4.2064-2.26018-6.4715-3.5604-2.9127-.96654-5.8255-1.93636-9.3843-2.90783-6.7953-1.61747-14.886-2.58893-23.6225-2.58893h-89.638-112.289c-14.5622 0-28.1529-2.26512-38.1848-6.47645-11.6494-4.84911-19.0924-12.29209-19.0924-21.02872 0-9.06538 7.443-16.50342 19.0924-21.35747 10.0319-3.88751 23.6226-6.47644 38.1848-6.47644h258.8802z"/><path d="m2060.3412 490.83958h-258.5515c-12.9446 0-24.5941 2.27004-33.0069 5.8288-6.4714 2.58893-10.3557 5.50169-10.3557 8.09062 0 2.58894 3.8843 5.49676 10.3557 8.0857 8.4128 3.23986 20.0623 5.50497 33.0069 5.50497h112.289 89.6331c9.7114 0 19.0973.96654 26.5386 2.90783 4.2031.97146 7.7668 2.26511 11.3222 3.56533 3.5637 1.61254 6.7954 3.23493 9.3892 4.8524h-.3237c6.4714 4.52694 10.027 10.03192 10.027 16.17632v.32875c0 8.73663-7.443 16.17468-19.0925 21.02872-10.027 3.88258-23.2954 6.47645-37.8608 6.47645h-255.3166v-13.91943h255.3166c12.9479 0 24.2734-2.26511 32.3641-5.49676 6.4665-2.91275 10.6779-5.8288 10.6779-8.08898v-.32875c0-1.29036-1.6175-2.90783-3.8826-4.53022-1.9412-1.29529-4.2063-2.26018-6.4714-3.5604-2.9128-.96654-5.8256-1.93636-9.0605-2.90783-6.797-1.61747-14.886-2.58893-23.6275-2.58893h-89.6331-112.289c-14.5621 0-28.1528-2.26512-38.1848-6.47645-11.6493-4.84911-19.0922-12.29209-19.0922-21.02872 0-9.06538 7.119-16.50342 19.0922-21.35747 10.032-3.88751 23.6227-6.47644 38.1848-6.47644h258.5515z"/><path d="m3139.2259 476.92623c3.5604 0 7.1191 2.58893 7.1191 6.79533v89.96012h-13.2667v-77.98691l-146.9151 74.10433-1.9413.65258c-8.0906 3.23-10.3557 2.58729-16.1845 0l-1.9381-.9764-145.6229-74.0994v78.30744h-13.9146v-90.28558c0-4.2064 3.5589-6.47151 6.7954-6.47151 1.9462 0 2.9111.32382 4.5352 1.29364l151.4386 77.99349c5.8256 2.58729 6.8003 3.87765 13.9195.32218l133.9654-68.27882 19.0973-10.35574c.9714-.65093 2.2618-.97475 2.9127-.97475"/></g><path d="m65.4 45.3c11.8-11.6 23.3-23.5 35.2-34.9 14.6 14.8 29.4 29.4 44.1 44.1-.7 1.2-2.2 2.1-1.9 3.6.1 11.1-.1 22.2-.1 33.2h38.4c10.6 10.5 21 21.3 31.7 31.8-12.3 12.5-24.7 24.9-37.2 37.1-21.4-.1-42.8 0-64.3 0-1.6.3-2.5-1.2-3.6-2.1-14.9-15-30.1-29.7-44.8-44.9.3-21.4 0-42.8.1-64.2-.2-1.6 1.5-2.6 2.4-3.7z" fill="#ffe700" transform="matrix(4.2146515 0 0 4.2146515 -244.02832485 -15.754178)"/><g transform="matrix(4.2146515 0 0 4.2146515 -244.44979 -15.754178)"><path d="m97.3 6.2c1.2-1 2.9-3.8 4.6-1.7 15.6 15.4 30.9 31 46.6 46.4 1.3-.7 2.3-1.8 3.4-2.9 11-11.2 22.2-22 33.2-33.2 1-.8 1.9-2.2 3.3-1.9 20.3-.1 40.6.1 60.8.1 14.7 14.6 29.3 29.3 44 43.9-.2 20.7-.2 41.3 0 62-14.1 14.1-28.2 28.3-42.4 42.2-11.4-11.4-22.9-22.7-34-34.4-13.2 12.6-25.7 26-39 38.4-22.5.4-45 0-67.5.2-2.8.6-4.4-1.9-6.2-3.6-15.3-15.5-31-30.6-46.1-46.3.2-23.3.2-46.5 0-69.8 12.9-13.3 26.3-26.2 39.3-39.4zm-31.9 39.1c-.9 1.1-2.5 2.1-2.3 3.7-.1 21.4.1 42.8-.1 64.2 14.8 15.1 29.9 29.8 44.8 44.9 1.1.9 2 2.3 3.6 2.1h64.3c12.5-12.2 24.9-24.6 37.2-37.1-10.7-10.4-21.1-21.2-31.7-31.8-12.8-.1-25.6 0-38.4 0 0-11.1.2-22.1.1-33.2-.3-1.5 1.2-2.5 1.9-3.6-14.7-14.7-29.5-29.3-44.1-44.1-12 11.4-23.5 23.3-35.3 34.9z"/><path d="m110.5 64.7c1.9-2.7 3.7-5.5 5.6-8.2h6.7c2.1 3.1 4.4 6.2 5.9 9.7-.7 3-2.8 5.4-4.4 8-3-.1-6-.2-8.9-.3-1.7-3-3.3-6.1-4.9-9.2z"/><path d="m83.9 85.6c.8-3.1 2.9-5.5 5.7-7.1 1.9.5 3.9.6 5.6 1.6 1.4 1.5 2 3.6 2.8 5.5-1.6 1.4-3.2 2.9-4.9 4.2-3.6.4-6.5-2.3-9.2-4.2z"/><path d="m144.5 124.5c7.3-7 6.1-18.5 12.4-26 1.3 8.8 2.3 18.7-2.7 26.6-3.3 5.2-7.3 10.7-13.4 12.7-6.2 1.3-12.8 1.6-19 .3-5-1.1-8.8-4.8-11.5-8.9 10.9 4.9 25.3 3.6 34.2-4.7z"/></g><g fill="#00a2e7" transform="matrix(4.2146515 0 0 4.2146515 -244.02832485 -15.754178)"><path d="m220.2 45.5c-.3-3.6 2.1-6.7 3.3-9.9 2 .4 4.1.7 6.1 1 1.1 2.2 2.2 4.4 3.2 6.7-1.9 1.9-3.8 3.8-5.6 5.8-2.4-1.1-6.7-.3-7-3.6z"/><path d="m192.8 54.6c3.6-.6 7.8-3.5 11.1-.8 2.5 1.5 4.9 3 7.2 4.8.3 4.4-.7 8.8-1.2 13.1-2.6 2-6.1 2.7-9 4.1-3.3-2.6-6.6-5.2-9.7-8.1.7-4.3 1.2-8.7 1.6-13.1z"/><path d="m247.3 76.3c6.3-1.5 12.6-3 19-4.1 1.3 6.1 2.7 12.2 4.3 18.3 1.4 4.4-.4 8.8-1.3 13.1-2.9.7-5.7 1.3-8.6 2-1 4.4-2.1 8.9-2.7 13.4-5.2.7-10.4 1.8-15.6 2.1-2.5-1.4-4.8-3.3-6-5.8-1.4-4.1-1.8-8.4-2.9-12.5 4.7-2.3 9.3-4.5 14-6.8 2.1-6.5 1.1-13.2-.2-19.7z"/></g></svg>