<svg enable-background="new -0.501 0 341.155 127.229" height="127.229" viewBox="-.501 0 341.155 127.229" width="341.155" xmlns="http://www.w3.org/2000/svg"><g fill="#f00"><path d="m270.51191 75.075771h-196.049984c-17.698881 0-32.100921-13.651078-32.100921-30.430077s14.402951-30.428348 32.100921-30.428348h196.048164c17.70162 0 32.10183 13.650213 32.10183 30.429212-.00091 16.778135-14.3993 30.429213-32.10001 30.429213zm-196.049984-53.660145c-13.512676 0-24.507615 10.421224-24.507615 23.23266 0 12.808845 10.994028 23.231796 24.507615 23.231796h196.048164c13.51085 0 24.50853-10.422088 24.50853-23.231796 0-12.810572-10.99585-23.23266-24.50853-23.23266z" stroke-width=".887214"/><path d="m99.64112 58.758056v-28.087374h-8.91095v19.639134l-13.142714-19.639134h-9.578883v28.087374h8.910949v-20.273184l13.809738 20.273184z" stroke-width=".887214"/><path d="m114.12153 58.758056v-19.005948h-8.91004v19.005948z" stroke-width=".887214"/><path d="m114.12153 35.738762v-5.06808h-8.91004v5.06808z" stroke-width=".887214"/><path d="m145.30848 58.758056v-13.094772c0-2.745246-5.56946-6.54609-8.46444-6.54609h-2.67447c-2.00381 0-4.23268 1.689648-6.23739 2.534472v-1.899558h-8.91095v19.005948h8.91095v-13.094772c0-1.267236 3.11824-2.745246 4.45593-2.745246 1.33677 0 3.78617 1.47801 3.78617 2.745246v13.093908z" stroke-width=".887214"/><path d="m219.86558 59.411974v-13.093044c0-2.74611-5.56673-6.546091-8.46809-6.546091h-2.67174c-2.00562 0-4.23359 1.689648-6.24012 2.533609v-1.899559h-8.90913v19.005949h8.90913v-13.093908c0-1.266373 3.12006-2.74611 4.45684-2.74611s3.78526 1.479737 3.78526 2.74611v13.093044z" stroke-width=".887214"/><path d="m159.78889 58.758056v-19.005948h4.67827v-2.534472h-4.67827v-4.012482h-9.13147v4.012482h-4.67918v2.534472h4.67918v19.005948z" stroke-width=".887214"/><path d="m176.94103 39.118058c-7.12767 0-13.14181 4.645668-13.14181 10.347798 0 5.913768 6.01414 10.558572 13.14181 10.558572 6.2383 0 11.36216-3.378432 12.69894-7.813326h-9.13146v2.534472c0 2.11206-1.5573 2.746973-3.56293 2.746973-2.00471 0-3.3424-.634049-3.3424-2.746973v-5.278854h16.48694c-.004-5.70213-5.79544-10.348662-13.14909-10.348662zm0 1.900422c2.00562 0 3.56474 1.267236 3.56474 3.379296v1.899558h-6.90532v-1.899558c0-2.11206 1.33678-3.379296 3.34058-3.379296z" stroke-width=".887214"/><path d="m264.71647 39.118058c-7.35274 0-13.14545 4.645668-13.14545 10.347798 0 5.913768 5.78998 10.558572 13.14545 10.558572 7.12402 0 13.1418-4.644804 13.1418-10.558572-.004-5.701266-6.01687-10.347798-13.1418-10.347798zm0 1.900422c2.00016 0 3.34058 1.267236 3.34058 3.379296v10.346934c0 2.111196-1.34042 2.74611-3.34058 2.74611-2.22705 0-3.56657-.63405-3.56657-2.74611v-10.346934c-.002-2.11206 1.33678-3.379296 3.56657-3.379296z" stroke-width=".887214"/><path d="m239.09533 30.670682v10.347798s-2.67538-1.900422-6.24013-1.900422c-5.56854 0-10.2459 4.645668-10.2459 9.714612 0 5.279718 4.67918 10.559436 10.2459 10.559436 3.56475 0 6.24013-1.267236 6.24013-1.267236v.632322h8.91095v-28.08651zm-3.3424 11.615034c2.0038 0 3.3424 1.478874 3.3424 3.379296v7.813326c0 1.901286-1.3386 2.534472-3.3424 2.534472-2.22615 0-3.56475-.632322-3.56475-2.534472v-7.813326c0-1.900422 1.3386-3.379296 3.56475-3.379296z" stroke-width=".887214"/><path d="m287.006 29.216c-2.774 0-5.036-2.258-5.036-5.035 0-2.959 2.213-5.28 5.036-5.28 2.729 0 5.036 2.417 5.036 5.28 0 2.681-2.35 5.035-5.036 5.035zm0-9.533c-2.427 0-4.253 1.934-4.253 4.5 0 2.344 1.908 4.254 4.253 4.254 2.229 0 4.254-2.028 4.254-4.254 0-2.399-1.984-4.5-4.254-4.5zm.884 6.647-.863-1.515h-1.096v1.321h-.779v-4.546h2.104c.979 0 1.488.813 1.488 1.613 0 .615-.303 1.238-.885 1.492l.711 1.248zm-1.959-2.294h1.321c.22 0 .396-.079.521-.235.119-.149.188-.368.188-.597 0-.311-.151-.832-.709-.832h-1.321z" transform="matrix(.91123314 0 0 .86382821 17.440601 14.217346)"/></g><g transform="matrix(.85649224 0 0 .73535221 28.324524 24.350661)"><path d="m51.827 99.231v-14.18c0-2.688-2.689-5.379-5.378-5.379h-20.535v19.56h6.357v-13.2c0-.979.732-1.957 1.711-1.957h9.777c.979 0 1.957.979 1.957 1.957v13.199z"/><path d="m221.469 99.231v-14.18c0-2.688-2.688-5.379-5.376-5.379h-20.535v19.56h6.354v-13.2c0-.979.736-1.957 1.713-1.957h9.779c.979 0 1.953.979 1.953 1.957v13.199z"/><path d="m314.327 99.231v-14.18c0-2.688-2.688-5.379-5.379-5.379h-20.535v19.56h6.354v-13.2c0-.979.732-1.957 1.715-1.957h9.775c.979 0 1.955.979 1.955 1.957v13.199z"/><path d="m258.892 99.231v-14.18c0-2.688-2.688-5.379-5.379-5.379h-27.625v19.56h6.357v-13.2c0-.979.73-1.957 1.709-1.957h3.668c.734 0 1.712.979 1.712 1.957v13.199h6.358v-13.199c0-.979.73-1.957 1.709-1.957h3.668c.732 0 1.711.979 1.711 1.957v13.199z"/><path d="m21.514 99.231h-16.135c-2.688 0-5.379-1.71-5.379-4.398v-15.4h21.513v4.646h-14.424c-.732 0-1.711.733-1.711 1.712s.979 1.712 1.711 1.712h13.446v3.911h-13.446c-.732 0-1.711.979-1.711 1.712 0 .979.979 1.955 1.711 1.955h14.424z"/><path d="m100.979 99.478h-16.136c-2.688 0-5.379-1.711-5.379-4.397v-15.404h21.515v4.645h-14.426c-.731 0-1.71.734-1.71 1.715s.979 1.711 1.71 1.711h13.446v3.91h-13.446c-.731 0-1.71.979-1.71 1.714 0 .979.979 1.954 1.71 1.954h14.426z"/><path d="m284.907 99.231h-16.137c-2.688 0-5.381-1.711-5.381-4.398v-15.4h21.516v4.646h-14.424c-.732 0-1.715.733-1.715 1.712s.979 1.712 1.715 1.712h13.442v3.911h-13.442c-.732 0-1.715.979-1.715 1.712 0 .979.979 1.955 1.715 1.955h14.424v4.153h.002z"/><path d="m54.517 79.675v4.4h6.355c1.712 0 1.712 0 1.712 1.957v13.199h6.111v-13.199c0-1.957 0-1.957 1.956-1.957h6.111v-4.4z"/><path d="m132.197 79.675v4.4h6.355c1.71 0 1.71 0 1.71 1.957v13.199h6.112v-13.199c0-1.957 0-1.957 1.957-1.957h6.112v-4.4z"/><path d="m139.761 99.73v-13.699c0-.55-.002-.938-.033-1.163-.035-.221-.056-.217-.056-.219s-.054-.031-.196-.048c-.186-.026-.498-.028-.925-.026h-6.856v-4.9-.502h23.246v5.402l-6.61-.002c-.731-.005-1.183.019-1.311.074-.081.058-.045-.063-.12.308-.024.227-.026.589-.026 1.076v13.699zm-7.064-16.157h5.854c.834.027 1.361-.082 1.873.417.409.546.312 1.065.336 2.041v12.697h5.113v-12.697c.027-.967-.079-1.519.39-2.065.549-.471 1.101-.365 2.067-.393h5.611v-3.398h-21.245v3.398zm-.5-3.398v-.5z"/><path d="m317.909 79.675v4.4h6.354c1.713 0 1.713 0 1.713 1.957v13.199h6.11v-13.199c0-1.957 0-1.957 1.955-1.957h6.111v-4.4z"/><path d="m105.366 79.675v19.559h6.356v-3.42c0-.979.733-1.959 1.711-1.959h8.068c.979 0 1.711.979 1.711 1.959v3.42h5.379v-5.379c0-.73-.732-1.709-.732-2.688 0-.73 1.711-2.441 1.711-4.396v-1.713c0-1.714-2.689-5.381-4.4-5.381zm8.067 4.4h8.068c.979 0 1.71.979 1.71 1.957v1.71c0 .979-.732 1.713-1.71 1.713h-8.068c-.978 0-1.711-.733-1.711-1.713v-1.71c.001-.976.733-1.957 1.711-1.957z"/><path d="m161.594 79.675c-1.712 0-4.399 3.667-4.399 5.381v14.178h6.354v-5.379h11.489v5.379h6.355v-14.178c0-1.714-2.688-5.381-4.646-5.381zm3.667 4.4h8.066c.73 0 1.711.979 1.711 1.957v3.422h-11.489v-3.422c0-.976.734-1.957 1.712-1.957z"/><path d="m191.907 99.231v-19.558h-6.11v19.559h6.11z"/></g><path d="m243.5771 117.78932v-10.63777c0-2.01653-2.32591-4.03531-4.65441-4.03531h-23.89314v14.67308h5.49604v-9.90333c0-.73444.63316-1.46813 1.4791-1.46813h3.17185c.6349 0 1.48257.73444 1.48257 1.46813v9.90183h5.49603v-9.90183c0-.73444.63143-1.46813 1.47824-1.46813h3.17272c.63315 0 1.48343.73444 1.48343 1.46813v9.90183h5.28584z" transform="matrix(.99019608 0 0 .98021376 1.995078 1.561768)"/><path d="m213.479 126.021h-16.137c-2.688 0-5.377-1.713-5.377-4.397v-15.404h21.512v4.646h-14.422c-.732 0-1.713.732-1.713 1.711s.979 1.712 1.713 1.712h13.443v3.911h-13.443c-.732 0-1.713.979-1.713 1.713 0 .979.979 1.954 1.713 1.954h14.422z" transform="matrix(.85649224 0 0 .73535221 28.324524 24.350661)"/><path d="m167.017 106.462v4.398h6.355c1.711 0 1.711 0 1.711 1.957v13.199h6.111v-13.199c0-1.957 0-1.957 1.959-1.957h6.109v-4.398z" transform="matrix(.85649224 0 0 .73535221 28.324524 24.350661)"/><path d="m94.611 106.565c-1.712 0-5.379 2.689-5.379 4.397v2.69c0 1.713 3.667 4.4 5.379 4.4h10.756c.978 0 1.956.979 1.956 1.711 0 .978-.979 1.954-1.956 1.954h-16.135v4.399h18.09c1.712 0 5.134-2.688 5.134-4.399v-2.688c0-1.957-3.422-4.646-5.134-4.646h-10.756c-.979 0-1.955-.733-1.955-1.713 0-.978.977-1.713 1.955-1.713h15.89v-4.397h-17.845z" transform="matrix(.85649224 0 0 .73535221 28.324524 24.350661)"/><path d="m146.397 106.565c-1.713 0-5.38 2.689-5.38 4.397v2.69c0 1.713 3.667 4.4 5.38 4.4h10.756c.978 0 1.956.979 1.956 1.711 0 .978-.979 1.954-1.956 1.954h-16.136v4.399h18.091c1.712 0 5.134-2.688 5.134-4.399v-2.688c0-1.957-3.422-4.646-5.134-4.646h-10.757c-.978 0-1.955-.733-1.955-1.713 0-.978.978-1.713 1.955-1.713h15.891v-4.397h-17.845z" transform="matrix(.85649224 0 0 .73535221 28.324524 24.350661)"/><path d="m114.412 106.565v8.804c0 1.71 2.688 4.399 4.4 4.399h4.398v6.354h6.357v-6.354h4.4c1.71 0 4.4-2.689 4.4-4.399v-8.804h-6.112v7.092c0 .732-.978 1.712-1.956 1.712h-7.822c-.979 0-1.956-.979-1.956-1.712v-7.092z" transform="matrix(.85649224 0 0 .73535221 28.324524 24.350661)"/></svg>