<svg height="124.854" viewBox="0 0 566.926 124.854" width="566.926" xmlns="http://www.w3.org/2000/svg"><g fill="#5b5b59"><path d="m33.98 108.929-.068-41.587h5.384v49.797h-5.384l-28.663-41.924.135 41.924h-5.384v-49.797h5.652z"/><path d="m45.31 67.342h26.419v4.912h-20.902v17.294h20.767v4.912h-20.767v17.767h20.902v4.912h-26.419z"/><path d="m74.242 92.375c0-15.341 11.911-25.908 25.976-25.908 14.602 0 25.975 11.171 25.975 25.773 0 14.604-11.305 25.773-25.975 25.773-14.738 0-25.976-11.373-25.976-25.572zm5.585-.135c0 11.709 8.815 20.86 20.458 20.86 11.776 0 20.39-9.485 20.39-20.86 0-11.373-8.613-20.861-20.457-20.861-11.709 0-20.391 9.286-20.391 20.792z"/><path d="m172.16 80.262c-1.548-2.153-3.433-3.97-5.586-5.383-3.23-2.221-7.133-3.5-11.574-3.5-10.902 0-20.39 8.344-20.39 20.792 0 12.652 9.556 20.996 20.457 20.996 5.249 0 9.892-1.815 13.324-4.508 3.5-2.761 5.922-6.527 6.73-10.433h-27.104v-4.576h33.564c-.067 2.896-.74 6.527-2.221 9.624-4.307 9.354-14.267 14.805-24.293 14.805-14.535 0-26.042-11.17-26.042-25.908 0-14.938 11.709-25.706 26.109-25.706 10.094 0 19.448 5.653 23.351 13.795h-6.325z"/><path d="m184.25 67.342h27.59v4.912h-22.071v17.294h21.937v4.912h-21.937v17.767h22.071v4.912h-27.59z"/><path d="m214.061 92.375c0-15.341 11.911-25.908 25.975-25.908 14.603 0 25.975 11.171 25.975 25.773 0 14.604-11.305 25.773-25.975 25.773-14.737 0-25.975-11.373-25.975-25.572zm5.585-.135c0 11.709 8.815 20.86 20.457 20.86 11.777 0 20.39-9.485 20.39-20.86 0-11.373-8.613-20.861-20.457-20.861-11.709 0-20.39 9.286-20.39 20.792z"/><path d="m327.465 92.375c0-15.341 11.91-25.908 25.977-25.908 14.604 0 25.977 11.171 25.977 25.773 0 14.604-11.305 25.773-25.977 25.773-14.736 0-25.977-11.373-25.977-25.572zm5.584-.135c0 11.709 8.816 20.86 20.459 20.86 11.777 0 20.393-9.485 20.393-20.86 0-11.373-8.613-20.861-20.459-20.861-11.707 0-20.393 9.286-20.393 20.792z"/><path d="m435 103.748c-3.229 7.672-11.91 14.268-22.879 14.268-14.736 0-25.975-11.373-25.975-25.772 0-14.2 10.969-25.774 25.906-25.774 12.314 0 20.053 8.21 22.947 14.535h-5.99c-1.684-2.96-7.334-9.623-16.957-9.623-11.641 0-20.389 9.219-20.389 20.793 0 11.777 8.813 20.929 20.389 20.929 10.432 0 15.746-7.47 16.957-9.354z"/><path d="m489.643 67.342h27.594v4.912h-22.072v17.294h21.935v4.912h-21.936v17.767h22.072v4.912h-27.594v-49.797z"/><path d="m545.229 72.254h-16.049v-4.912h37.746v4.912h-16.111v44.885h-5.586z"/><path d="m475.575 117.139h6.932l-25.871-24.968 23.783-24.83h-6.055l-26.105 26.998v-6.396-20.601h-5.518v49.797h5.518v-16.228l5.08-5.307z"/></g><path d="m302.793 120.945c-10.838-21.554-21.646-43.05-32.46-64.561.06-.042.108-.083.163-.11 2.697-1.38 5.395-2.76 8.091-4.138 3.812-1.946 7.625-3.883 11.433-5.839 4.003-2.056 8.21-3.293 12.751-3.146 3.091.101 5.925.999 8.411 2.896 2.193 1.674 3.746 3.848 4.938 6.306 1.129 2.332 1.932 4.759 1.979 7.377.063 3.637-1.035 6.924-2.984 9.978-1.307 2.042-2.797 3.921-4.545 5.584-1.203 1.146-2.49 2.204-3.738 3.299-4.57-3.241-9.041-6.41-13.531-9.593.852-3.113 1.693-6.198 2.539-9.291h12.939c0-3.277 0-6.527 0-9.823-6.682.063-13.289.127-19.896.193-2.408 6.801-4.803 13.564-7.201 20.342 7.736 6.397 15.445 12.773 23.16 19.157 3.066-1.17 5.975-2.609 8.711-4.388 4.365-2.835 8-6.396 10.672-10.881 2.482-4.169 3.727-8.71 3.797-13.559.041-3.005-.414-5.943-1.299-8.823-1.172-3.816-2.986-7.271-5.754-10.165-5.189-5.433-11.553-8.353-19.082-8.621-4.45-.158-8.66.847-12.631 2.842-1.789.9-3.541 1.872-5.342 2.744-4.01 1.939-8.04 3.837-12.062 5.748-3.547 1.687-7.095 3.366-10.642 5.047-1.199.569-2.399 1.141-3.6 1.71 12.046 24.562 24.078 49.094 36.104 73.624 3.048-1.313 6.035-2.599 9.079-3.909z" fill="none"/><path d="m302.793 120.945c-3.047 1.312-6.031 2.597-9.086 3.909-12.024-24.529-24.058-49.063-36.104-73.624 1.201-.569 2.4-1.141 3.6-1.71 3.547-1.682 7.095-3.361 10.642-5.047 4.022-1.911 8.052-3.809 12.062-5.748 1.801-.872 3.553-1.844 5.342-2.744 3.971-1.996 8.181-3 12.631-2.842 7.529.269 13.893 3.188 19.082 8.621 2.768 2.895 4.582 6.348 5.754 10.165.883 2.879 1.34 5.818 1.297 8.823-.068 4.849-1.313 9.39-3.795 13.559-2.672 4.484-6.307 8.045-10.672 10.881-2.736 1.776-5.645 3.217-8.711 4.387-7.715-6.383-15.424-12.759-23.16-19.156 2.398-6.777 4.793-13.541 7.201-20.342 6.606-.065 13.217-.13 19.896-.193v9.823c-4.277 0-8.579 0-12.939 0-.846 3.093-1.688 6.178-2.539 9.291 4.49 3.183 8.961 6.352 13.531 9.593 1.248-1.095 2.535-2.153 3.738-3.299 1.748-1.663 3.238-3.542 4.543-5.584 1.949-3.054 3.051-6.341 2.986-9.978-.049-2.618-.852-5.045-1.979-7.377-1.189-2.458-2.742-4.632-4.938-6.306-2.486-1.896-5.32-2.794-8.411-2.896-4.541-.146-8.748 1.09-12.751 3.146-3.807 1.956-7.621 3.893-11.433 5.839-2.697 1.378-5.395 2.758-8.091 4.138-.055.028-.104.069-.163.11 10.823 21.511 21.632 43.007 32.467 64.561z" fill="#f10000"/><path d="m310.44 26.526c-2.162-.444-4.266-.879-6.424-1.323 1.257-8.396 2.514-16.789 3.774-25.203 3.936.574 7.832 1.145 11.791 1.724-3.055 8.288-6.092 16.529-9.141 24.802z" fill="#f10000"/><path d="m345.54 19.679c2.088 3.381 4.146 6.72 6.24 10.112-6.818 4.222-13.635 8.439-20.473 12.671-1.434-2.141-2.84-4.241-4.277-6.392 6.166-5.458 12.316-10.907 18.51-16.391z" fill="#f10000"/><path d="m329.069 6.482c3.018 2.085 5.979 4.135 8.955 6.19-5.377 6.412-10.738 12.805-16.137 19.239-1.889-1.165-3.76-2.319-5.684-3.508 4.272-7.274 8.549-14.566 12.866-21.921z" fill="#f10000"/></svg>