<svg height="246.342" width="1000" xmlns="http://www.w3.org/2000/svg"><path d="m130.79847 246.34197c-78.390286-.0355-130.79847-55.56936-130.79847-122.96654 0-67.361644 52.514757-123.58810524 130.6919-123.37498524h738.6517c78.14165-.21309 130.6564 56.01334124 130.6564 123.37498524 0 67.39718-52.39045 122.93102-130.78071 122.96654z" fill="#ed1c24"/><path d="m131.02933 30.280335c-62.087092.10654-100.163365 41.628185-100.163365 92.935275 0 51.32484 37.880924 93.13063 100.163365 92.91751h737.92359c62.3357.21311 100.18112-41.59267 100.18112-92.91751 0-51.30709-38.09405-92.828735-100.18112-92.935275z" fill="#fff"/><g fill="#ed1c24"><path d="m99.18662 64.964566h36.15829l49.99289 80.876584-.0185-80.876584h35.8386v115.987054h-35.80309l-50.24152-80.87659v80.87659h-35.927399v-115.987054z"/><path d="m416.06877 76.89892h34.9151v15.610579h18.87831v11.472611h-18.87831l.0355 76.96951h-34.95063l.0172-76.96951h-18.94935v-11.437109l18.94935-.03542-.0172-15.610576z"/><path d="m241.12028 103.82226h34.87959v77.14712h-34.87959z"/><path d="m241.03148 64.929031h34.96839v23.726659h-34.96839z"/><path d="m852.27674 98.583217c-28.14873 0-50.96967 19.357813-50.96967 43.279823 0 23.90424 22.82094 43.29757 50.96967 43.29757 28.16652 0 50.95193-19.39333 50.95193-43.29757 0-23.92201-22.78541-43.279823-50.95193-43.279823m14.01224 43.173273s-.0355 11.6502-.0355 16.33871c0 12.28954-7.24588 17.35099-14.26087 17.35099-6.99722 0-14.29634-5.06145-14.29634-17.35099 0-4.68851.0172-16.64063.0172-16.64063s.0197-11.38381.0197-16.05455c0-12.25404 7.33464-17.27998 14.26085-17.27998 6.96173 0 14.26087 5.02594 14.26087 17.27998 0 4.67074-.0172 13.3196.0355 16.39198v-.0354z"/><path d="m755.77181 142.00511v-13.7991c0-11.93435-8.24039-14.95346-13.65704-14.95346-5.55871 0-13.67477 3.01911-13.67477 14.95346v13.72806 13.72807c0 11.95212 8.11609 15.02451 13.67477 15.02451 5.41665 0 13.65704-3.07239 13.65704-15.02451zm-.23082-77.040544h34.40008v115.969294h-34.47113s-.0172-3.74724-.0172-4.43986c-13.33736 8.34695-28.39737 8.34695-40.15414 2.91255-3.14345-1.4918-23.83321-11.41934-23.83321-38.27164 0-20.35236 19.1802-42.587196 44.32762-40.36729 8.27594.72816 14.1543 3.74727 19.74853 6.90845v-42.711504z"/><path d="m357.64013 100.27038c13.0532-.372957 39.47928 8.15159 39.30169 38.68012-.0355 5.45214-.0172 41.98336-.0172 41.98336h-34.63098v-50.64998c0-6.73084-6.42891-14.18983-15.94799-14.18983-9.50129 0-16.55183 7.45899-16.55183 14.18983 0 3.28549.0355 50.64998.0355 50.64998h-34.6132l-.0355-77.1116 34.64874-.0354s-.0355 6.19806 0 8.11609c6.67757-6.35788 16.30319-11.31277 27.81131-11.63243"/><path d="m641.04569 100.27038c13.03544-.372957 39.49704 8.15159 39.31943 38.68012-.0355 5.45214 0 41.98336 0 41.98336h-34.66647v-50.64998c0-6.73084-6.42892-14.18983-15.948-14.18983-9.50129 0-16.53406 7.45899-16.53406 14.18983 0 3.28549.0355 50.64998.0355 50.64998h-34.61322v-77.1116l34.61322-.0354s-.0355 6.19806 0 8.11609c6.65979-6.35788 16.2677-11.31277 27.79358-11.63243"/><path d="m531.32768 153.95723s.0172.3552.0172 4.68851c0 14.10101-9.27042 17.24444-14.42067 17.24444-5.13249 0-14.59831-3.14343-14.59831-17.24444 0-4.22677.0355-15.9125.0355-15.9125s65.69228.0354 65.69228-.0354c0-23.90424-23.08731-43.706044-51.44917-43.706044s-51.34263 19.357804-51.34263 43.297584c0 23.93975 22.98077 43.27982 51.34263 43.27982 23.53127 0 43.42187-13.42616 49.47785-31.64736l-34.75528.0354zm-28.96568-23.26489c-.0712-6.7486.0712-11.2595 2.29098-15.1133 2.71718-4.75955 7.72537-7.015 12.27179-7.05053 4.52865.0354 9.53684 2.29098 12.23628 7.05053 2.21991 3.8538 2.34424 8.3647 2.29096 15.1133z"/><path d="m910.42125 77.698083c3.39206 0 6.42891-.213086 6.42891-4.297776 0-3.267761-2.96583-3.853809-5.75406-3.853809h-5.4344v8.151585zm-4.75953 14.846918h-3.99589v-26.390573h10.01632c6.25135 0 9.34149 2.290982 9.34149 7.512266 0 4.724012-2.96581 6.766341-6.83737 7.263615l7.49449 11.614692h-4.4754l-6.97946-11.454848h-4.5642v11.454848z"/><path d="m910.47453 98.441142c10.37152 0 18.54087-8.116082 18.54087-19.144697 0-10.851035-8.16935-19.002617-18.54087-19.002617-10.46035 0-18.64743 8.151585-18.64743 19.002617 0 11.028615 8.18708 19.144697 18.64743 19.144697m-23.2294-19.144697c0-13.142014 10.63792-22.82092 23.2294-22.82092 12.48489 0 23.14057 9.678903 23.14057 22.82092 0 13.248559-10.65568 22.962995-23.14057 22.962995-12.59148 0-23.2294-9.714439-23.2294-22.962995"/></g></svg>