<svg height="41.50647mm" viewBox="0 0 157.24139 57.193432" width="114.11337mm" xmlns="http://www.w3.org/2000/svg"><g transform="translate(-33.058094 -45.007072)"><text fill="#ef00eb" font-family="TrasksHand" font-size=".72916" stroke="#0105ff" stroke-width=".91145" x="85.712479" y="67.095551"><tspan fill="#fafafa" fill-opacity=".4" font-size=".72916" stroke="none" stroke-width=".91145" x="85.712479" y="67.095551">John Loreth 2022</tspan></text><g stroke-linejoin="round"><path d="m145.44164 45.007332h16.481131v57.192612h-16.481131z" fill="#fff" stroke-width=".79375"/><path d="m719.24219 170.10547-.74024.002h-93.77148v92.67383 30.81055 92.67578h93.77148l.74024.002-82.72071-108.08203z" fill="#fff" stroke-width="3" transform="scale(.26458333)"/><rect fill="#000080" height="15.302733" rx=".240874" stroke-width=".793751" width="12.692972" x="147.3082" y="46.672058"/><rect fill="#00f" height="14.048033" rx=".240874" stroke-width=".793751" width="11.428181" x="147.3082" y="47.926758"/><g stroke-width=".79375"><rect fill="#000080" height="9.086484" rx=".240874" width="12.692972" x="147.3082" y="65.378189"/><rect fill="#00f" height="7.339253" rx=".240874" ry=".240873" width="11.407765" x="147.3082" y="67.12542"/><rect fill="#000080" height="9.086484" rx=".240874" width="12.692972" x="147.3082" y="81.469208"/><rect fill="#00f" height="6.977297" rx=".240874" width="11.407765" x="147.3082" y="83.578392"/></g><path d="m657.54083 337.94061-45.51779 26.027v-57.27403z" fill="#000080" stroke-width="3.02157" transform="matrix(.25805033 .15291133 0 .26742163 9.23138 -100.44182)"/><path d="m647.19625 343.85562-35.17321 20.11199v-44.79086z" fill="#00f" stroke-width="3.02157" transform="matrix(.25805033 .15291133 0 .26742163 9.23138 -100.44182)"/><path d="m186.25673 46.845949-19.0926.000833v15.110898l6.75711-.0064z" fill="#000080" stroke-width=".793749"/><path d="m183.87568 47.936585-16.71155.0096v13.952401l5.22101-.01783z" fill="#00f" stroke-width=".793749"/><g stroke-width=".79375"><path d="m167.27919 65.396977v4.641009l3.88765-4.66072z" fill="#000080"/><g fill="#fff"><path d="m79.953573 102.19994h16.81574l-7.461681-35.044338h-1.880557z"/><path d="m118.66945 102.19994-13.13033-57.192609h-12.536885l-2.025212 8.154106 11.181437 49.038503h16.54127"/><path d="m140.36542 102.19994-13.13033-57.192608h-12.53693l-2.02522 8.154106 11.18149 49.038502h16.54127"/></g><path d="m84.307536 90.476249h8.079445l-1.851571-9.009785h-4.322379z" fill="#007e00"/><path d="m84.326866 90.476251 6.445072-.000002-1.544608-6.929983h-3.404806z" fill="#0f0"/><path d="m87.760127 74.429946h1.147879l-.361845-2.498973h-.303519z" fill="#007e00"/><path d="m99.630041 81.496666h12.144079c.13344 0 .24087.240873.24087.240873l1.93892 8.497841c.0297.130101-.10743.240874-.24087.240874h-12.0889c-.13345 0-.21039-.110959-.24088-.240874l-1.994099-8.497841c-.03049-.129914.10743-.240873.24088-.240873z" fill="#007e00"/><path d="m100.15921 83.613333h10.55658c.13344 0 .24087.240873.24087.240873l1.24698 6.381174c.0256.130972-.10743.240874-.24087.240874h-10.33863c-.13345 0-.21102-.110813-.24088-.240874l-1.464932-6.381174c-.02986-.13006.107432-.240873.240882-.240873z" fill="#0f0"/><path d="m95.917442 65.411445h12.144078c.13344 0 .24087.240873.24087.240873l1.93892 8.497841c.0297.130101-.10743.240874-.24087.240874h-12.088899c-.13345 0-.21039-.110959-.24088-.240874l-1.994099-8.497841c-.03049-.129914.10743-.240873.24088-.240873z" fill="#007e00"/><path d="m96.446611 67.528112h10.556579c.13344 0 .24087.240873.24087.240873l1.24698 6.381174c.0256.130972-.10743.240874-.24087.240874h-10.338629c-.13345 0-.21102-.110813-.24088-.240874l-1.464932-6.381174c-.02986-.13006.107432-.240873.240882-.240873z" fill="#0f0"/><path d="m94.80771 46.738766h9.04508c.13344 0 .21235.11051.24087.240873l3.22411 14.741321c.0285.130369-.10743.240874-.24087.240874h-11.89121c-.133444 0-.240873-.10743-.240873-.240874l-2.035583-8.726609 1.657603-6.014712c.03545-.128648.107429-.240873.240873-.240873z" fill="#007e00"/><path d="m94.417286 47.797099h7.801184c.13344 0 .21036.110961.24087.240873l3.21311 13.682988c.0305.129914-.10743.240874-.24087.240874h-10.24589c-.133444 0-.240873-.10743-.240873-.240874l-2.035583-8.726609 1.267179-4.956379c.03305-.129284.107429-.240873.240873-.240873z" fill="#0f0"/><path d="m121.4697 81.496666h12.14408c.13344 0 .24087.240873.24087.240873l1.93892 8.497841c.0297.130101-.10743.240874-.24087.240874h-12.0889c-.13345 0-.21039-.110959-.24088-.240874l-1.99411-8.497841c-.0305-.129914.10744-.240873.24089-.240873z" fill="#007e00"/><path d="m121.99887 83.613333h10.55658c.13344 0 .24087.240873.24087.240873l1.24698 6.381174c.0256.130972-.10743.240874-.24087.240874h-10.33863c-.13345 0-.21102-.110813-.24088-.240874l-1.46494-6.381174c-.0299-.13006.10744-.240873.24089-.240873z" fill="#0f0"/><path d="m117.75708 65.411445h12.1441c.13344 0 .24087.240873.24087.240873l1.93892 8.497841c.0297.130101-.10743.240874-.24087.240874h-12.08891c-.13345 0-.21039-.110959-.24088-.240874l-1.99412-8.497841c-.0305-.129914.10744-.240873.24089-.240873z" fill="#007e00"/><path d="m118.28625 67.528112h10.5566c.13344 0 .24087.240873.24087.240873l1.24698 6.381174c.0256.130972-.10743.240874-.24087.240874h-10.33864c-.13345 0-.21102-.110813-.24088-.240874l-1.46495-6.381174c-.0299-.13006.10744-.240873.24089-.240873z" fill="#0f0"/><path d="m116.64734 46.738766h9.04511c.13344 0 .21235.11051.24087.240873l3.22411 14.741321c.0285.130369-.10743.240874-.24087.240874h-11.89124c-.13344 0-.24087-.10743-.24087-.240874l-2.0356-8.726609 1.65761-6.014712c.0354-.128648.10743-.240873.24088-.240873z" fill="#007e00"/><path d="m116.25691 47.797099h7.80122c.13344 0 .21036.110961.24087.240873l3.21311 13.682988c.0305.129914-.10743.240874-.24087.240874h-10.24592c-.13344 0-.24087-.10743-.24087-.240874l-2.0356-8.726609 1.26719-4.956379c.0331-.129284.10743-.240873.24087-.240873z" fill="#0f0"/><g fill="#fff"><path d="m33.074289 102.19994h18.807256l-17.000763-35.382711-1.822685.37357v35.009141"/><path d="m33.058094 45.007331v8.374126l23.900733 48.818483h17.930984v-8.207871l-23.882344-48.984738z"/><path d="m74.921511 45.007331v34.673434l-1.728959.634169-17.098201-35.307603z"/></g><path d="m34.846637 90.476251h9.173877l-4.209386-8.972475h-4.878277z" fill="#7f0404"/><path d="m34.889198 90.476251h7.054002l-3.41434-6.929983h-3.631013z" fill="#f00"/><path d="m34.923186 74.429948h1.384573l-1.13979-2.933036h-.303519z" fill="#7f0404"/><path d="m49.147226 81.496666h17.443406c.133444 0 .18137.12143.240873.240873l4.233333 8.497837c.0595.119443-.107429.240874-.240873.240874h-17.443406c-.133443 0-.18137-.121431-.240873-.240874l-4.233333-8.497837c-.0595-.119443.10743-.240873.240873-.240873z" fill="#7f0404"/><path d="m50.239643 83.613333h15.035943c.133444 0 .181506.121362.240873.240873l3.169818 6.38117c.05937.119511-.107429.240874-.240873.240874h-15.015705c-.133443 0-.181203-.121514-.240873-.240874l-3.190056-6.38117c-.05967-.119359.10743-.240873.240873-.240873z" fill="#f00"/><path d="m41.239513 65.361003h17.443406c.133444 0 .18137.12143.240873.240873l4.233333 8.497837c.0595.119443-.107429.240874-.240873.240874h-17.443406c-.133443 0-.18137-.121431-.240873-.240874l-4.233333-8.497837c-.0595-.119443.10743-.240873.240873-.240873z" fill="#7f0404"/><path d="m42.33193 67.47767h15.035943c.133444 0 .181506.121362.240873.240873l3.169818 6.38117c.05937.119511-.107429.240874-.240873.240874h-15.015705c-.133443 0-.181203-.121514-.240873-.240874l-3.190056-6.38117c-.05967-.119359.10743-.240873.240873-.240873z" fill="#f00"/><path d="m35.147163 46.816753h14.432171c.133444 0 .182643.120805.240874.240874l7.131647 14.70489c.05823.120069-.10743.240873-.240874.240873h-17.262405c-.133444 0-.203408-.112795-.240873-.240873l-4.303743-8.767347.0023-5.937543c.000052-.133445.107429-.240874.240873-.240874z" fill="#7f0404"/><path d="m35.147163 47.875086h12.844671c.133444 0 .182756.120751.240874.240874l6.60248 13.646557c.05812.120123-.10743.240873-.240874.240873h-15.145738c-.133444 0-.203408-.112795-.240873-.240873l-4.303743-8.767347.0023-4.87921c.000063-.133445.107429-.240874.240873-.240874z" fill="#f00"/><path d="m72.968124 46.858285v15.074243h-6.749502l-7.193235-15.067909z" fill="#7f0404"/><path d="m71.668507 47.916618v14.01591h-5.449885l-6.717237-14.009576z" fill="#f00"/><path d="m72.952456 65.411108v8.899123h-.690171l-4.395716-8.908663z" fill="#7f0404"/><path d="m71.683618 67.181873.02439 5.956006-2.946185-5.965546z" fill="#f00"/></g></g></g></svg>