<svg height="110.4" viewBox="0 0 400 110.4" width="400" xmlns="http://www.w3.org/2000/svg"><g fill-rule="evenodd"><path d="m127.216 9.104c-.202.046-.583.33-.848.632l-.481.548-.118 11.743c-.124 12.283-.125 12.258.63 12.96.539.501.539.503-.043 1.154l-.477.535-.086 32.037-.086 32.037.347.526c.714 1.081.534 1.057 8.187 1.057h6.939l.701-.655.702-.656v-11.719c0-6.446.061-11.813.135-11.928.099-.153.871-.208 2.898-.208 2.792 0 3.487-.072 6.801-.699 9.103-1.724 15.36-7.969 16.252-16.218.33-3.06.068-9.585-.448-11.167-1.019-3.117-1.55-4.119-3.18-6-3.341-3.856-7.227-5.806-13.783-6.916-1.66-.281-1.395-.45.856-.545 5.001-.211 5.39-.582 5.334-5.099l-.031-2.561-.75-.666-.75-.667-1.25.117c-2.039.191-2.222.171-3.357-.36-4.343-2.032-2.105-9.68 2.512-8.586 2.951.698 3.742-.127 3.814-3.978l.053-2.818-.72-.761c-.917-.97-1.346-1.067-4.72-1.072-3.932-.006-5.772.614-8.007 2.702-1.464 1.367-1.239 1.37-2.655-.031-2.234-2.209-3.883-2.664-10.004-2.759-2.2-.035-4.165-.025-4.367.021m95.034.385c-.55.165-1.285.424-1.632.577-.729.32-3.197 2.615-3.553 3.303-.345.666-.603.582-1.38-.448-3.5-4.635-10.44-5.023-14.643-.82-1.677 1.677-1.315 1.668-2.818.071-2.135-2.27-3.546-2.84-7.024-2.837-3.278.003-4.722.542-6.545 2.44-1.248 1.3-1.146 1.303-2.612-.088-1.988-1.888-3.275-2.355-6.479-2.352-5.303.005-8.621 2.851-8.832 7.574-.047 1.055-.148 1.707-.278 1.79-.112.071-2.744.13-5.849.132l-5.644.002-.647.647-.647.647v2.456 2.456l.647.647.647.647h5.403c6.096 0 5.802-.067 5.805 1.325.015 6.99 10.629 10.706 16.091 5.634 1.26-1.17 1.205-1.169 2.454-.039 3.651 3.304 9.991 3.133 13.63-.367l1.427-1.373 1.323 1.343c.727.738 1.604 1.524 1.948 1.745 1.125.726.879.827-1.834.754-9.203-.247-16.304 2.49-22.319 8.602-4.957 5.037-7.462 10.129-9.039 18.376-.62 3.242-.54 11.065.148 14.409.543 2.638 1.612 6.493 2.011 7.251.074.141.509 1.044.966 2.007 3.397 7.152 9.946 12.87 17.275 15.083 6.533 1.974 18.837 1.426 20.815-.925l.435-.517v-6.737-6.736l-.603-.668-.602-.667h-1.269c-.698 0-1.833.11-2.522.243-4.255.824-6.754.623-10.18-.821-9.216-3.882-12.207-17.162-5.915-26.259 3.483-5.035 10.793-7.39 17.09-5.504 1.436.431 3.043.233 3.717-.457l.617-.632v-6.835-6.836l-.68-.687c-.459-.463-.881-.721-1.295-.791-.931-.157-1.198-.377-.599-.494 3.362-.657 5.552-2.009 6.966-4.302.155-.252.385-.458.51-.458s.361.206.526.458c3.299 5.059 11.065 5.679 15.107 1.206 1.324-1.466 1.465-1.473 1.465-.074 0 1.038.031 1.123.656 1.791l.655.702 6.72-.009c8.518-.011 8.827-.079 11.458-2.514 1.36-1.259 1.511-1.242 1.511.177 0 1.195.292 1.715 1.204 2.145.873.412 11.202.307 12.38-.126 2.549-.936 5.17-3.752 5.766-6.194.376-1.541-.449-1.395 7.896-1.395 7.98 0 7.881-.013 7.07.911l-.525.598.024 2.703.024 2.704.672.639.672.638 2.95-.056c3.648-.069 3.737-.107 6.236-2.652 2.241-2.283 2.045-2.309 3.382.436.313.644.803 1.394 1.087 1.666l.517.496 3.082.052 3.082.052.675-.675.675-.675-.061-1.294c-.081-1.693-.536-2.655-3.571-7.543-.716-1.154-.76-.958.539-2.374 1.26-1.373 1.537-1.922 1.696-3.36l.112-1.016 1.333-.128c.733-.071 1.596-.117 1.917-.103.32.015 1.349.035 2.285.045l1.701.019.77-.75c1.09-1.061 1.244-1.432 1.244-3 0-2.67-1.428-3.953-4.19-3.765-1.694.116-1.961.116-4.022 0-1.806-.101-2.244.049-3.172 1.091-.555.623-.634.625-1.503.033-1.595-1.085-1.661-1.093-9.413-1.154-9.173-.072-8.675-.306-8.709 4.097-.02 2.672.075 3.227.587 3.423.14.054.255.25.255.436 0 .413-14.391.548-14.8.139-.142-.142-.2-1.151-.2-3.479v-3.279l-.746-.687-.747-.688h-2.678c-4.522 0-4.223-.545-4.334 7.892-.118 8.922.364 8.165-5.246 8.248-4.392.065-4.303.091-4.217-1.252l.051-.805 2.667-.086c4.316-.138 4.085.257 4.078-6.978-.006-6.156.053-5.782-1.059-6.646-.454-.353-.634-.373-3.25-.372l-2.769.002-.732.582-.732.581h-2.698-2.699l-.486.496c-.629.641-1.012.646-1.151.014-.059-.27-.403-.758-.764-1.084l-.656-.592h-5.521-5.522l-.728.728c-.592.592-.728.841-.728 1.333 0 .785-.32.79-.912.013-2.397-3.142-6.675-4.446-10.671-3.252m-85.84 2.082c4.567 1.126 6.462 5.043 4.522 9.347-1.055 2.34-6.613 4.78-7.426 3.26-.636-1.188-.1-4.011.761-4.011 1.922 0 3.169-2.319 1.96-3.642-.539-.589-2.119-1.082-3.187-.993l-.623.051-.084 8.75c-.046 4.813-.144 8.844-.218 8.959-.184.284-3.798.292-4.082.008-.297-.297-.288-21.899.009-22.032.5-.225 7.215.018 8.368.303m18.548-.037c.455.218.459.234.506 2.068.056 2.236-.004 2.332-1.289 2.035-4.529-1.045-8.461 3.583-7.237 8.519.821 3.311 2.702 4.752 6.229 4.774l2.083.012v1.987 1.986l-.667.22c-2.02.664-5.258.321-7.304-.776-7.448-3.99-6.888-17.074.872-20.344 1.977-.833 5.544-1.085 6.807-.481m22.075-.019c4.83.995 6.995 6.033 4.198 9.766-.54.721-.51.891.328 1.826 2.291 2.556 1.79 6.599-1.09 8.795-6.586 5.02-15.962-2.822-10.71-8.958.718-.838.719-.804-.134-2.474-2.535-4.962 1.735-10.123 7.408-8.955m15.953.075c4.44 1.047 6.525 5.676 4.181 9.283-.824 1.268-.843 1.077.249 2.418 2.956 3.63.583 8.971-4.425 9.96-6.575 1.299-11.511-5.166-7.706-10.095.825-1.07.856-1.272.324-2.118-3.244-5.153 1.239-10.895 7.377-9.448m16.739-.007c3.352.778 4.751 2.559 5.956 7.584.645 2.691.087 8.029-1.09 10.426-2.938 5.986-11.407 5.153-13.658-1.343-3.295-9.51 1.386-18.384 8.792-16.667m17.795-.012c3.692 1.12 5.44 4.401 5.603 10.512.179 6.703-1.91 10.281-6.532 11.189-6.494 1.276-10.618-5.401-9.086-14.712.875-5.311 5.32-8.414 10.015-6.989m84.938 1.849c.862.915.591 2.201-.567 2.685-2.086.871-3.383-2.292-1.316-3.208.697-.308 1.243-.156 1.883.523m4.177-.416c1.232.751 1.185 2.313-.091 3.047-1.629.937-3.303-1.46-1.919-2.749.773-.72 1.211-.785 2.01-.298m-71.004 1.722c.031 1.191-.019 1.889-.146 2.042-.297.358-9.02.34-9.379-.02-.258-.257-.277-3.336-.024-3.745.072-.117 1.668-.16 4.804-.131l4.697.045zm15.502-1.693c.285.285.285 8.982 0 9.267-.131.132-.833.2-2.05.2-1.216 0-1.918-.068-2.05-.2-.211-.212-.302-8.673-.099-9.203.13-.337 3.869-.394 4.199-.064m11.21.152c.365.681.115 13.536-.284 14.664-1.491 4.208-3.384 5.151-10.343 5.151-5.271 0-4.883.159-4.883-2.001 0-2.312-.373-2.139 4.75-2.199 6.671-.077 6.407.304 6.413-9.245.002-3.407.05-6.313.105-6.458.177-.462 3.99-.383 4.242.088m31.906-.019c2.344.807 3.911 2.969 3.916 5.406.002 1.171-.492 2.061-2.061 3.71-1.686 1.772-1.662 1.555-.388 3.5 3.133 4.783 4.259 7.167 3.52 7.45-.382.147-3.616.12-3.855-.032-.111-.071-.474-.651-.806-1.289-1.263-2.428-2.712-4.578-3.084-4.578-.085 0-1.374 1.232-2.864 2.738-3.041 3.072-2.925 3.006-5.638 3.196-2.291.16-2.322.134-2.322-1.906 0-1.92.07-2.028 1.314-2.028 1.195 0 2.087-.441 3.118-1.544.448-.48 2.28-2.41 4.071-4.289 5.154-5.408 5.071-5.285 4.176-6.179l-.487-.488h-5.896c-4.364 0-5.948-.052-6.096-.2-.21-.209-.289-3.042-.099-3.536.173-.452 12.146-.39 13.481.069m-49.951 7.084c.041 5.302.009 6.305-.226 7.156-.653 2.365-2.914 4.598-5.394 5.328-1.132.333-12.406.404-12.607.079-.154-.249-.158-3.704-.005-3.952.088-.141 1.538-.194 5.325-.194 5.768 0 6.782-.128 7.666-.967.948-.901.943-.864.945-7.15.003-7.332-.257-6.571 2.227-6.513l2.021.046zm-79.703-4.426c-1.558 1.027-1.107 3.383.694 3.624 1.347.181 2.267-.575 2.267-1.865 0-1.578-1.702-2.589-2.961-1.759m15.694-.018c-1.761 1.161-1.021 3.696 1.078 3.693.787-.001 1.563-.531 1.792-1.225.583-1.768-1.376-3.453-2.87-2.468m34.114.022c-3.094 1.252-2.929 11.8.205 13.11 2.241.936 3.85-2.146 3.683-7.056-.155-4.561-1.686-6.945-3.888-6.054m-17.558.366c-3.019 2.056-2.345 12.709.822 12.988 2.21.195 3.4-2.081 3.407-6.515.008-5.097-1.919-8.047-4.229-6.473m18.996 3.412c.888 2.669-.001 8.047-.989 5.985-.798-1.665-.483-7.091.411-7.091.115 0 .376.498.578 1.106m-17.543-.731c1.119 1.354.64 8.463-.494 7.329-.559-.559-.987-4.246-.639-5.518.09-.331.243-.921.339-1.311.176-.709.469-.894.794-.5m91.667.271c.07.21-.307.639-3.73 4.229-2.533 2.657-2.402 2.673-2.402-.3 0-2.371-.198-3.408-.653-3.408-.171 0-.378-.481-.278-.644.135-.218 6.989-.099 7.063.123m-54.574.231c.248.182.281.465.24 2.042l-.048 1.831-4.711.044-4.712.045-.131-.378c-.245-.703-.141-3.455.138-3.631.399-.253 8.873-.21 9.224.047m-79.091 1.656c.267.268.267 2.666 0 2.934-.286.285-10.148.285-10.433 0-.248-.248-.268-2.362-.028-2.811.213-.397 10.071-.512 10.461-.123m125.186.2c.126.152.176.829.145 1.958l-.048 1.726-8.49.043c-4.915.025-8.553-.02-8.641-.108-.261-.261-.253-3.361.01-3.623.343-.343 16.739-.339 17.024.004m-43.576 3.412c.146.46-.166 1.13-.687 1.471-.419.275-.949.301-6.215.301h-5.758v-.417-.417l5.622-.083 5.622-.083.542-.542c.626-.626.739-.656.874-.23m-73.243.112c-.963.431-1.321 1.008-1.328 2.144-.015 2.456 3.286 3.274 4.414 1.094 1.008-1.951-1.076-4.138-3.086-3.238m15.535.089c-2.188 1.108-1.334 4.383 1.144 4.384 1.307.001 2.321-1.01 2.321-2.313 0-1.775-1.858-2.885-3.465-2.071m-50.237.862c.094.115.228.509.296.875.686 3.676 4.873 8.112 8.185 8.672 2.446.413 1.171.581-2.451.322-1.785-.127-5.247-.235-7.693-.238-4.691-.006-4.963-.052-4.323-.734.328-.349.35-.581.393-4.112l.045-3.743.5-.046c1.056-.097 3.836-.745 4.155-.969.414-.29.669-.298.893-.027m232.556 10.372-.688.746v31.888 31.888l.402.545c.783 1.061.367 1.009 8.076 1.014l7.062.006.647-.647.647-.647v-32.096-32.096l-.641-.674-.641-.674h-7.088-7.088zm-329.971-.472c-.721.157-1.293 1.064-1.617 2.566-.168.775-.439 2.009-.603 2.743-.164.733-.423 1.933-.577 2.666-.154.734-.383 1.784-.508 2.334-.126.55-.568 2.621-.983 4.602-.784 3.743-.889 4.148-1.077 4.148-.198 0-1.872-1.803-6.19-6.667-2.319-2.613-4.792-5.388-5.495-6.167s-1.943-2.166-2.757-3.083c-3.868-4.358-3.851-4.362-9.665 2.403-1.372 1.597-3.064 3.547-3.761 4.333-2.456 2.775-2.334 4.274.459 5.637 1.732.845 2.208 1.614 1.923 3.109-.106.56-.304 1.601-.438 2.312-.135.712-.283 1.357-.33 1.432-.047.076-.155.544-.24 1.039-.139.812-.481 2.459-1.518 7.318-.186.871-.528 2.521-.759 3.667-.232 1.146-.533 2.571-.669 3.167-1.338 5.843-1.393 6.791-.446 7.716.975.952 2.042.897 4.558-.234 1.041-.468 2.793-1.248 3.893-1.734 5.291-2.336 5.583-2.558 5.583-4.241 0-1.355.023-1.322-2.107-3.108-2.48-2.078-2.435-2.002-2.125-3.566.546-2.758.779-3.987 1.045-5.5.342-1.948.585-2.078 1.604-.857.763.914 3.396 3.895 5.833 6.603.917 1.019 2.717 3.045 4 4.503 1.284 1.458 2.934 3.324 3.667 4.147s1.844 2.083 2.467 2.8c1.787 2.056 3.007 2.385 4.315 1.165.732-.683.741-.712 1.54-4.861.132-.687.625-3.088 1.096-5.333.47-2.246.956-4.609 1.08-5.25.123-.642.352-1.729.507-2.417.155-.687.318-1.437.36-1.667.043-.229.421-2.104.839-4.166.419-2.063.815-4.05.881-4.417.284-1.592.717-3.521.846-3.769.077-.148 1.474-1.069 3.104-2.046 1.631-.977 3.093-1.866 3.249-1.975.498-.348.522-.013.147 2.078-.343 1.912-.464 2.556-1.088 5.795-.133.688-.293 1.647-.356 2.131-.133 1.018-.293 1.148-1.698 1.377-1.026.166-2.33 1.206-2.394 1.909-.162 1.749.762 3.411 1.9 3.419.948.007.951.417.029 5.248-.14.733-.36 1.933-.488 2.666-.805 4.581-.642 4.265-2.586 4.997-.98.369-1.457.675-2.208 1.419l-.959.948.006 1.068c.006 1.135.136 1.395 1.058 2.111l.481.374h17.234 17.234l.671-.626c.716-.667 1.026-1.828 1.483-5.541.18-1.463.598-4.07.931-5.809.583-3.036-.063-4.357-2.13-4.357-1.164 0-1.632.374-3.19 2.552-3.569 4.986-5.489 6.363-9.286 6.658-3.342.261-3.227.392-2.582-2.96.123-.642.386-2.104.584-3.25.434-2.512.782-4.165.902-4.285.538-.538 2.468 1.377 3.517 3.49 1.171 2.355 1.48 2.628 2.98 2.628 1.525 0 2.187-.737 2.546-2.833.118-.688.331-1.85.474-2.584.473-2.436.95-4.989 1.09-5.833.076-.458.341-1.808.59-3 .248-1.192.46-2.753.471-3.469l.02-1.303-.702-.656c-1.301-1.215-2.445-.942-4.148.992-2.678 3.04-5.658 4.735-5.098 2.899.106-.346.315-1.455.465-2.463.274-1.85.348-2.308.801-4.962.344-2.013.013-1.855 3.637-1.734 4.436.149 5.591 1.081 6.96 5.614.91 3.016 1.592 3.767 3.276 3.61 1.252-.117 1.261-.095.712 1.805-.998 3.458-1.07 9.837-.146 13.084 1.739 6.11 6.806 11.255 12.817 13.014 1.468.429 5.676.877 6.926.737.55-.062 1.611-.176 2.358-.253 4.035-.419 5.781-1.263 6.718-3.248 1.074-2.274 1.754-3.768 2.619-5.75.43-.986.805-1.81 2.163-4.75 1.654-3.582 1.782-4.675.666-5.698-.82-.751-2.372-.764-3.524-.029-4.273 2.726-9.491 4.3-11.787 3.555-3.486-1.131-5.293-3.371-6.285-7.789-.832-3.706 3.659-10.234 8.647-12.569 1.606-.752 1.533-.808 4.472 3.405.576.825 1.375 1.847 1.775 2.271l.728.77 1.225-.001c.798 0 1.399-.093 1.725-.266.275-.146 1.133-.522 1.906-.837 3.314-1.346 3.605-2.215 2.185-6.538-1.15-3.502-2.539-6.618-3.307-7.417l-.618-.644-3.666.092c-10.932.272-20.641 5.443-25.321 13.486-.762 1.31-1.021.719-.533-1.215.127-.5.279-1.322.338-1.826s.18-1.292.269-1.75c1.07-5.55 1.083-5.992.205-6.934l-.626-.67-17.083.004c-9.395.002-17.178.006-17.294.01-.288.009-1.372 1.145-1.372 1.437 0 .564-1.181.027-4.246-1.931-1.959-1.251-2.866-1.515-4.204-1.225m299.283.148c-2.707.334-6.228 1.548-8.3 2.861-2.789 1.768-6.325 5.413-7.69 7.926-1.579 2.91-2.549 5.414-3.244 8.374-1.015 4.324-1.173 6.103-1.178 13.291-.002 3.461-.055 6.292-.117 6.292s-.396-.469-.741-1.042c-.762-1.265-2.01-2.943-2.95-3.965-.383-.416-.877-.958-1.097-1.205l-.401-.448 1.338-1.961c1.546-2.268 2.135-3.474 2.454-5.022 1.682-8.16-.107-14.492-5.501-19.472-4.372-4.036-8.172-5.515-14.573-5.672-3.957-.097-6.329.193-9.169 1.121-6.172 2.017-10.866 6.948-12.534 13.166-.576 2.147-.559 8.866.027 10.5.595 1.66 2.461 5.425 3.218 6.495.446.631.383.783-.935 2.236-1.666 1.837-3.188 4.279-3.753 6.019-.346 1.067-.685 1.083-.949.046-.343-1.341-1.469-3.065-3.692-5.651-1.666-1.938-1.657-1.692-.15-3.947 2.394-3.583 2.822-5.136 2.812-10.198-.013-7.142-2.566-12.064-8.375-16.151-3.816-2.685-7.058-3.58-13-3.587-11.519-.013-19.467 5.86-21.094 15.587-.897 5.365-.164 9.121 2.854 14.625 1.1 2.005 1.154 1.565-.41 3.34-3.546 4.028-4.459 6.79-4.305 13.019.355 14.272 16.204 23.395 32.014 18.427 6.107-1.919 11.893-8.068 13.39-14.231.197-.813.429-.689.773.411 3.206 10.262 13.966 16.299 26.581 14.914 7.013-.769 13.444-5.067 16.742-11.187 1.285-2.385 2.29-6.727 2.05-8.852-.124-1.092.008-1.815.33-1.815.139 0 .259.294.321.792.482 3.811 3.045 9.657 5.802 13.226 5.088 6.588 11.452 8.994 21.101 7.978 13.806-1.454 21.176-12.708 21.183-32.345.003-8.714-1.203-15.464-3.776-21.124-.306-.673-.556-1.255-.556-1.294s-.503-.914-1.118-1.944c-4.48-7.5-12.699-10.851-23.382-9.533m-196.416 1.919c14.28 1.081 20.47 5.859 21.258 16.408.808 10.816-4.21 17.835-14.412 20.162-2.683.612-7.945 1.105-8.404.788-.294-.204-.289-11.704.005-11.885.1-.062.753-.163 1.451-.225 5.112-.448 7.685-2.62 7.685-6.486 0-3.195-1.289-4.903-4.417-5.851-2.558-.775-7.47-1.208-7.895-.695-.136.164-.198 7.08-.229 25.209l-.042 24.983h-6.25-6.25l-.03-30.833c-.031-31.966-.037-31.538.457-31.722.485-.179 14.335-.061 17.073.147m59.75.092c2.733.299 4.176.626 4.456 1.009.16.218.21 1.647.21 5.914 0 6.244.025 6.109-1.069 5.786-13.555-4.004-25.525 6.492-23.721 20.798 1.557 12.353 11.509 18.967 23.54 15.647.732-.202.742-.122.755 5.987.006 3.195-.048 5.868-.122 5.939-.537.524-6.294 1.313-9.633 1.32-12.49.024-22.091-7.021-26.194-19.224-3.556-10.578-1.949-23.235 4.037-31.782 6.223-8.885 15.573-12.725 27.741-11.394m181.096-.202c.324.125.361 62.078.037 62.402-.212.211-11.501.304-12.036.099-.457-.176-.398-62.361.06-62.53.369-.136 11.578-.109 11.939.029m-35.818.364c10.269 1.769 15.991 9.799 17.807 24.988 1.933 16.173-2.81 30.19-11.736 34.685-10.348 5.211-22.296 2.284-27.634-6.769-2.891-4.902-4.515-10.125-5.136-16.516-.786-8.091-.148-15.894 1.746-21.353 3.332-9.603 9.319-14.378 19.258-15.361 1.082-.107 4.227.073 5.695.326m-303.847 1.485c4.868 2.985 5.584 3.457 5.522 3.641-.033.101-1.551 1.063-3.372 2.138-3.642 2.149-3.591 2.097-3.972 4.057-.249 1.278-1.141 5.632-2.39 11.667-.323 1.558-.642 3.133-.711 3.5-.068.366-.558 2.766-1.087 5.333s-1.16 5.642-1.402 6.833c-.433 2.133-.579 2.584-.835 2.584-.112 0-2.344-2.477-7.429-8.244-.731-.829-1.564-1.769-1.852-2.09s-2.683-3.02-5.321-6c-2.639-2.979-5.083-5.735-5.431-6.125-.522-.585-1.151-.933-1.151-.636 0 .065-.538 2.805-2.167 11.041-.718 3.629-.881 3.151 1.837 5.386 2.96 2.435 2.974 2.15-.17 3.5-1.146.492-2.778 1.219-3.626 1.615-.849.395-1.582.719-1.629.719s-.574.238-1.17.529c-1.702.83-1.675 1.149-.404-4.862.281-1.329.731-3.467 1-4.75.268-1.283.609-2.896.755-3.583.147-.688.521-2.45.83-3.917.31-1.467.797-3.754 1.083-5.083.945-4.396.387-6.112-2.421-7.448-1.569-.747-1.861-.215 3.498-6.393 1.375-1.585 2.815-3.258 3.2-3.718 1.015-1.211 1.163-1.26 1.782-.586.948 1.033 3.166 3.511 4.685 5.234.825.935 3.9 4.382 6.833 7.659 2.934 3.278 5.701 6.381 6.149 6.897.906 1.042 1.48 1.232 1.572.521.047-.361.615-3.053 1.45-6.875.268-1.225.534-2.472 1.074-5.041.193-.917.418-1.967.501-2.334.083-.366.308-1.416.501-2.333.432-2.056.84-3.9.951-4.307.123-.447.363-.34 3.317 1.471m208.626-1.578c11.866.983 19.668 11.117 16.935 21.997-.527 2.101-1.68 4.198-3.914 7.125-.778 1.019-.775 1.031.805 2.681 3.039 3.175 4.462 5.468 4.877 7.862 2.67 15.381-12.233 26.416-28.372 21.008-8.046-2.695-12.799-8.823-13.009-16.77-.147-5.549.867-7.876 5.659-12.989.776-.828.787-.69-.187-2.31-3.271-5.446-4.231-8.456-3.937-12.357.721-9.583 7.954-15.933 18.669-16.39.275-.011 1.388.053 2.474.143m45.811.005c9.879.867 17.313 8.34 17.295 17.385-.009 4.635-1.117 7.576-4.404 11.691-.293.366-.59.763-.66.881-.083.141.323.683 1.189 1.583 4.967 5.166 6.151 8.596 5.133 14.873-2.286 14.092-20.268 20.422-33.421 11.765-9.302-6.122-10.942-19.306-3.268-26.27.842-.764 1.583-1.77 1.487-2.019-.06-.156-.594-1.115-1.187-2.132-3.042-5.216-3.816-7.976-3.381-12.054.335-3.143 1.093-5.379 2.641-7.786 3.108-4.835 8.999-7.797 16.041-8.066.321-.012 1.462.055 2.535.149m-185.799.701c.701 1.077 3.431 8.299 3.431 9.075 0 .23-.465.47-2.821 1.46-1.908.801-1.818.83-3.138-1.035-4.264-6.026-3.867-5.602-5.125-5.475-3.749.377-8.912 4.777-11.396 9.709-2.907 5.773.268 13.641 6.247 15.476 3.307 1.015 8.932-.335 13.649-3.276.367-.229.761-.472.877-.54.724-.428.451.347-2.048 5.814-.715 1.565-1.108 2.428-1.78 3.917-2.384 5.275-1.934 4.734-4.492 5.396-14.278 3.692-25.547-8.023-21.802-22.665 1.849-7.231 7.092-12.776 15.079-15.95 4.491-1.784 12.64-2.951 13.319-1.906m-29.497 1.458c-.005.321-.324 2.333-.708 4.471-.384 2.139-.746 4.295-.804 4.791-.183 1.554-.757 1.872-.982.544-.31-1.835-1.825-4.748-3.22-6.191-1.522-1.574-1.316-1.524-6.554-1.587-5.3-.063-4.849-.21-5.121 1.667-.241 1.661-1.836 10.96-2.045 11.924-.274 1.262-.079 1.442 1.454 1.344 2.068-.133 4.238-1.439 7.041-4.236 2.096-2.092 2.219-2.105 1.797-.191-.147.668-.485 2.377-.751 3.797-.706 3.768-1.674 8.981-1.812 9.75-.122.683-.471.889-.705.417-.068-.138-.414-.848-.768-1.578-1.415-2.919-5.303-5.607-6.884-4.761-.38.204-.374.184-.839 2.839-.184 1.054-.407 2.292-.495 2.75s-.32 1.733-.516 2.833-.539 2.984-.762 4.186c-.553 2.979-.837 2.731 3.129 2.731 4.821 0 5.814-.198 7.865-1.57 1.273-.851 4.467-4.455 6.269-7.074.388-.563.734-.46.621.186-.303 1.738-.971 5.875-1.286 7.958-.202 1.329-.42 2.604-.487 2.833l-.12.417-16.528.042c-17.965.047-17.145.09-16.031-.847.273-.23 1.117-.653 1.875-.939 2.481-.936 2.355-.788 2.818-3.317.302-1.655.418-2.306 1.053-5.897.134-.757.433-2.388.665-3.625.677-3.606.566-4-1.123-4-2.174 0-1.952-.961.31-1.341 1.571-.265 1.841-.464 2.061-1.53.262-1.266 2.169-11.836 2.377-13.176.213-1.375.16-1.454-1.721-2.539-1.26-.727-1.77-1.245-1.559-1.585.065-.107 5.806-.149 16.299-.122l16.198.043zm165.648 9.73c-4.676 1.528-5.178 8.245-.781 10.444 2.88 1.441 6.441.413 7.714-2.226 2.23-4.624-2.126-9.788-6.933-8.218m45.835-.08c-3.922 1.005-5.314 6.601-2.368 9.518 2.272 2.249 6.656 2.137 8.527-.218 3.43-4.318-.782-10.677-6.159-9.3m47.361.458c-9.314 2.469-9.83 32.852-.632 37.242 7.436 3.549 13.308-10.98 10.449-25.85-1.552-8.067-5.421-12.557-9.817-11.392m-89.631 2.164c3.701 2.292.887 7.852-3.035 5.997-3.161-1.494-2.822-5.274.583-6.503.54-.196 1.709.046 2.452.506m45.505-.127c.735.375 1.407 1.257 1.794 2.355 1.097 3.115-3.211 5.459-5.726 3.115-2.87-2.676.425-7.259 3.932-5.47m-155.442-.071c5.107.837 6.847 2.756 5.422 5.978-.746 1.689-3.583 2.868-6.606 2.748l-1.248-.05-.044-4.194c-.056-5.24-.229-4.926 2.476-4.482m202.204.49c4.905 2.256 7.398 16.483 4.5 25.686-1.908 6.059-4.071 8.285-6.798 6.995-4.062-1.922-6.716-14.356-4.907-22.995 1.687-8.061 3.994-11.162 7.205-9.686m-136.309 9.747c-1.082.659-1.077.625-1.077 6.516v5.339l.603.667.603.667h8.25 8.25l.647-.647.647-.647v-5.375-5.375l-.728-.728-.728-.728-7.98.001c-7.479 0-8.012.02-8.487.31m15.673 6.522v4.584l-6.916.046c-3.805.025-7.086.005-7.292-.045l-.375-.091v-4.469c0-2.458.051-4.52.113-4.582s3.343-.093 7.292-.069l7.178.043zm24.917 6.221c-6.973 1.635-6.396 11.867.731 12.975 2.997.466 5.934-.866 7.066-3.204 2.699-5.576-1.774-11.183-7.797-9.771m45.583.01c-5.596 1.361-6.592 9.345-1.518 12.182 3.406 1.904 7.953.637 9.504-2.65 2.569-5.442-2.064-10.972-7.986-9.532m-41.734 2.458c2.53 1.089 3.319 4.396 1.596 6.69-1.864 2.483-6.142 2.13-7.569-.625-2.028-3.915 1.839-7.843 5.973-6.065m44.518-.335c5.077 1.075 4.834 7.971-.308 8.742-5.503.825-7.024-7.471-1.603-8.748.87-.205.917-.204 1.911.006" fill="#edecec"/><path d="m126.402 7.478c-.665.175-.902.327-.902.578 0 .112-.281.493-.625.847l-.625.644.008 12.685c.004 6.976.014 12.872.022 13.101.008.23-.015 15.249-.051 33.377l-.066 32.961.669.725c.367.398.668.806.668.905 0 .665.424.699 8.667.699 8.301 0 8.666-.031 8.666-.727 0-.114.263-.462.584-.773l.583-.565v-11.551-11.551l1.958-.007c1.077-.004 2.296-.086 2.709-.183.412-.097 1.494-.228 2.404-.29 1.062-.074 1.679-.187 1.723-.317.042-.127.419-.203 1.012-.204.519 0 1.159-.113 1.421-.25.263-.137.6-.249.75-.25.15 0 .465-.101.701-.224.235-.123.638-.276.895-.34.257-.065.576-.227.709-.36s.377-.241.543-.241c.165 0 .394-.113.508-.25.114-.138.344-.25.511-.25s.35-.076.408-.17c.057-.093.343-.273.634-.401.292-.128.749-.427 1.015-.664.266-.238.546-.432.621-.432.255 0 3.523-3.247 3.941-3.917.229-.366.521-.779.648-.916.128-.138.38-.431.561-.651l.328-.4v3.864c0 3.058.052 3.989.25 4.462.137.329.25.908.251 1.287.001.378.113.902.25 1.165s.249.739.249 1.058c0 .32.108.817.24 1.106s.322.841.421 1.227c.1.385.254.746.344.801.089.055.162.312.162.57s.112.563.25.677c.137.114.25.377.25.584 0 .206.112.469.25.583.137.114.25.305.25.424 0 .319 1.356 2.909 1.523 2.909.079 0 .143.139.143.308s.132.466.292.659c.631.758.875 1.107.875 1.249 0 .081.206.376.458.654.252.279.571.633.709.787 3.243 3.636 3.187 3.577 4.166 4.375.413.335 1.125.952 1.584 1.37.458.418.911.761 1.007.762.096.002.321.118.5.258.981.769 2.254 1.48 4.243 2.368.32.144.782.362 1.025.486.244.123.661.224.927.224s.63.11.807.245c.178.135.586.25.907.255.321.006.729.121.907.256.178.134.537.244.798.244.26 0 .674.132.919.292.405.265 1.032.292 6.869.292 5.85 0 6.461-.026 6.836-.292.227-.16.639-.292.917-.293.277 0 .719-.113.982-.25.262-.137.789-.249 1.171-.249.785 0 1.18-.224 2.31-1.309l.791-.761v-7.793-7.792l-.777-.881c-.428-.484-.897-.931-1.042-.994-.517-.221-4.086-.15-4.435.089-.181.124-.914.273-1.629.332s-1.441.182-1.614.275c-.393.21-1.617.22-1.745.014-.052-.084-.592-.207-1.199-.272-.608-.065-1.301-.22-1.54-.345-.24-.125-.561-.228-.713-.228-.456-.002-2.354-.971-3.884-1.983-1.328-.878-1.681-1.193-1.823-1.627-.056-.169-.326-.562-.6-.872-.274-.311-.499-.641-.499-.735 0-.093-.177-.402-.394-.687s-.447-.755-.511-1.046c-.064-.29-.224-.618-.355-.727-.132-.109-.24-.4-.24-.646s-.11-.594-.244-.771c-.135-.178-.247-.551-.25-.829-.003-.277-.126-.676-.273-.886-.389-.556-.387-6.15.002-7.062.146-.341.268-.828.271-1.083s.115-.61.25-.788c.134-.177.244-.527.244-.777s.057-.48.127-.51c.069-.031.462-.731.873-1.556s.886-1.65 1.056-1.833.526-.645.791-1.027c.265-.381.764-.864 1.109-1.074s.665-.427.711-.482c.166-.2 1.778-1.127 2.176-1.251.224-.07.555-.23.736-.355s.49-.228.688-.228.453-.112.567-.25c.134-.162.506-.25 1.062-.251.47 0 1.069-.113 1.332-.25.56-.292 2.943-.344 3.217-.071.098.098.768.223 1.489.277.747.057 1.407.195 1.534.322.16.16.753.223 2.093.223h1.87l1.041-1.012 1.041-1.011-.048-7.986-.048-7.985.491-.203c.27-.112 1.042-.751 1.715-1.42 1.424-1.414 1.28-1.365 1.961-.674 1.86 1.886 3.267 2.791 4.337 2.791.308 0 .606.075.663.167.138.223 5.195.223 5.333 0 .057-.092.406-.167.776-.167s.872-.103 1.115-.228c.243-.126.715-.346 1.048-.489.333-.142.878-.498 1.21-.79.689-.604.668-.612 1.878.674l.706.75 3.038.083 3.038.084-.571.421c-.314.232-.871.618-1.238.858-1.175.77-5.083 4.788-5.083 5.225 0 .126-.107.289-.238.362-.351.197-1.929 3.317-1.929 3.814 0 .235-.108.535-.24.667s-.285.595-.34 1.03c-.055.434-.191 1.089-.302 1.456-.288.952-.282 8.82.007 9.108.115.115.208.422.208.682s.15.767.334 1.127c.183.359.333.802.333.983 0 .182.07.374.156.427.182.112 1.011 1.818 1.011 2.079 0 .098.07.177.155.177.086 0 .207.162.269.359.063.197.319.707.57 1.132l.456.773-1.229 1.311c-.675.721-1.272 1.486-1.326 1.701s-.164.391-.244.391c-.081 0-.279.281-.441.625-.289.617-.294.561-.377-4.241l-.083-4.866-.584-.613c-.321-.337-.876-.829-1.233-1.092l-.65-.48h-8.621c-7.46 0-8.649.034-8.829.25-.114.138-.287.25-.384.25s-.5.348-.896.773l-.72.774v6.416 6.417l1.003.97c1.289 1.245.643 1.176 10.355 1.117 7.864-.048 8.291-.066 8.625-.367l.35-.318.006 4.568c.005 3.645.054 4.651.244 4.984.131.229.241.664.244.966.004.303.109.753.234 1 .125.248.279.732.341 1.075.062.344.185.625.272.625.088 0 .161.094.162.209.003.228.642 1.481 1.396 2.738 1.051 1.751 7.164 7.387 8.013 7.387.13 0 .28.072.335.161.115.186 1.7 1.005 1.946 1.005.09 0 .277.113.414.25.138.138.414.253.614.256.199.003.508.115.686.25.178.134.553.247.834.25.28.003.655.115.833.25.178.134.632.244 1.008.244.377 0 .756.071.843.158.188.187 2.024.622 3.659.867 1.728.259 6.971.073 7.452-.264.204-.143.599-.263.876-.267.278-.003.693-.113.922-.244s.683-.241 1.009-.244c.327-.003.739-.116.917-.25.178-.135.5-.247.715-.25s.59-.109.833-.235c.784-.406 1.975-.937 2.103-.937.068 0 .458-.225.865-.5.408-.275.801-.5.874-.5.117 0 .38-.193 1.138-.834.113-.095.526-.39.917-.656.795-.539 3.456-3.231 4.212-4.26.27-.367.552-.742.628-.834.289-.349 1.214-1.853 1.41-2.291.222-.496.545-.617.545-.203 0 .14.113.298.25.351.138.052.25.193.25.311 0 .643 5.422 6.749 5.993 6.749.076 0 .427.261.781.579.353.319.745.582.869.584s.499.212.833.467c.759.579 3.03 1.702 3.456 1.709.175.003.464.115.642.25.178.134.553.247.833.25.281.003.656.115.834.25.177.134.632.244 1.009.244.378 0 .832.11 1.01.245s.528.247.779.25c.25.003.775.137 1.166.297 1.051.431 8.356.425 9.015-.007.24-.156.649-.285.909-.285.261 0 .62-.11.798-.244.178-.135.628-.247 1-.25s.822-.116 1-.25c.178-.135.499-.247.715-.25.658-.009 4.092-1.648 4.786-2.284.217-.2.566-.416.775-.482s1.583-1.313 3.052-2.771c2.378-2.362 3.036-3.168 3.899-4.775.13-.242.336-.541.458-.663.122-.121.222-.357.222-.522 0-.166.112-.395.25-.509.137-.114.25-.339.25-.501s.112-.509.249-.771c.137-.263.249-.682.25-.931 0-.334.066-.428.251-.357.137.053.25.257.25.453 0 .38 1.092 2.604 1.763 3.592.222.326.403.65.403.72 0 .919 6.177 7.483 7.743 8.228.279.132 1.032.535 1.674.894s1.317.659 1.5.668.479.126.657.261c.178.134.553.247.833.25.281.003.656.115.834.25.177.134.48.244.671.244s.533.132.76.292c.602.426 10.451.444 11.341.02.907-.431 1.677-.675 2.533-.802.438-.064.884-.206.992-.314.107-.107.391-.196.63-.196.24 0 .581-.11.759-.244.178-.135.487-.247.686-.25.2-.003.476-.118.614-.256.137-.137.297-.25.355-.25.288 0 1.927-.886 2.273-1.23.218-.215.558-.442.756-.504.391-.122 4.889-4.545 4.889-4.808 0-.088.225-.444.5-.791s.5-.69.5-.761.104-.248.23-.393c.354-.405 1.437-2.491 1.437-2.767 0-.135.072-.246.16-.246s.252-.318.364-.708.303-.856.423-1.037c.121-.181.222-.481.225-.667s.113-.48.245-.654c.21-.278.245.618.286 7.188l.047 7.505.792.846c.435.466.791.964.791 1.108 0 .527.848.586 8.42.586 7.65 0 8.414-.055 8.414-.61 0-.122.281-.534.625-.914l.625-.692v-33.08-33.079l-1.065-.979-1.064-.979h-7.557-7.558l-1.128 1.019c-1.475 1.334-1.353.485-1.37 9.481-.014 6.726-.049 7.841-.237 7.416-.646-1.46-.771-1.777-.771-1.945 0-.102-.15-.512-.334-.911-.183-.4-.488-1.083-.678-1.519-.459-1.055-.778-1.649-1.347-2.508-.261-.394-.475-.761-.475-.816 0-.098-1.038-1.421-1.455-1.854-.116-.121-.211-.275-.211-.343 0-.337-3.642-3.624-4.64-4.187-.244-.138-.706-.438-1.026-.667-.717-.513-1.997-1.152-2.334-1.166-.138-.006-.396-.121-.574-.256-.178-.134-.515-.247-.75-.25-.234-.003-.572-.115-.75-.25-.178-.134-.592-.244-.921-.244s-.749-.106-.934-.236c-.966-.676-11.613-.683-12.966-.009-.269.135-.727.245-1.016.245s-.671.11-.849.244c-.178.135-.562.247-.853.25-.292.003-.643.118-.78.256-.138.137-.361.25-.496.25-.371 0-1.849.72-2.506 1.222-.321.244-.684.444-.807.444s-.45.207-.726.459-.698.586-.936.742c-.643.421-4.302 3.989-4.308 4.201-.002.1-.31.519-.684.932-.374.412-.786.975-.917 1.25-.13.275-.533.967-.895 1.538-.361.571-.708 1.246-.77 1.5s-.213.61-.337.79c-.124.181-.225.453-.225.605s-.109.366-.241.476c-.132.109-.264.469-.292.799-.076.897-.467.908-.468.014-.002-.641-.549-2.583-.964-3.417-.084-.168-.332-.68-.552-1.137-1.096-2.282-4.821-6.457-7.233-8.108-1.728-1.183-1.683-1.056-.697-1.997l.863-.824v-2.394c0-2.046-.042-2.441-.291-2.716-.161-.177-.292-.443-.292-.591s-.065-.309-.145-.358c-.08-.05-.358-.523-.619-1.052s-.673-1.224-.916-1.545-.495-.752-.559-.958c-.064-.207-.175-.375-.245-.375-.549 0-.486-.875.11-1.547.685-.773.949-1.157 1.226-1.787.101-.229.241-.531.311-.672.071-.14.183-.507.251-.815l.123-.559 2.356.114c3.387.164 3.884.031 5.32-1.425.621-.63 1.202-1.337 1.292-1.571.227-.598.206-4.508-.027-4.958-.228-.44-2.004-2.28-2.202-2.28-.077 0-.329-.149-.559-.33-.391-.308-.687-.33-4.443-.33-4.66-.001-4.888.027-5.596.674-.629.575-.826.594-1.549.153-.3-.183-.699-.333-.887-.333-.188-.001-.436-.095-.55-.209-.161-.161-2.01-.209-8.104-.209h-7.895l-1.096 1.147-1.097 1.146v3.062 3.062h-5.417-5.416v-3.083c0-2.985-.012-3.095-.375-3.428-.207-.19-.729-.696-1.162-1.125l-.787-.781-3.286-.052c-3.913-.061-3.754-.093-4.884.963-1.088 1.016-.897 1.02-1.965-.036l-.886-.875h-3.703-3.702l-.568.532-.567.531-2.933.052-2.932.052-.633-.583-.633-.584-6.034-.048c-6.848-.055-6.599-.082-7.423.81l-.614.665-.999-.926c-.549-.51-1.185-.973-1.414-1.031-.229-.057-.454-.152-.5-.211-.554-.71-1.303-.842-4.764-.842h-3.412l-1.218.625c-1.402.719-1.963 1.119-3.27 2.328l-.94.871-.911-.871c-.502-.478-1.086-.982-1.298-1.12-.212-.137-.54-.381-.728-.541-.189-.161-.463-.294-.61-.297-.146-.003-.412-.116-.59-.25-.177-.135-.427-.245-.553-.245-.127 0-.343-.112-.48-.25-.363-.363-6.007-.368-6.486-.005-.178.134-.455.247-.616.25-.54.009-2.659 1.248-3.521 2.057-.469.441-.942.877-1.051.97-.141.119-.394-.036-.883-.539-.807-.832-2.312-1.983-2.593-1.983-.108 0-.618-.225-1.133-.5l-.937-.5h-2.923c-2.897 0-2.931.004-3.817.477-.491.262-1.09.526-1.33.587-.24.06-.436.183-.436.273 0 .089-.118.163-.261.163-.144 0-.645.372-1.113.826l-.853.826-.637-.576c-.35-.317-.693-.577-.762-.579-.068-.001-.378-.226-.689-.5-.31-.273-.685-.499-.833-.502s-.415-.116-.593-.25c-.177-.135-.45-.245-.604-.245-.155 0-.375-.113-.489-.25-.307-.37-6.359-.37-6.666 0-.114.138-.292.253-.396.256-.103.003-.488.15-.854.327-.367.177-.729.325-.804.328-.167.007-.164.004-2.35 2.161-.97.956-1.763 1.82-1.763 1.919s-.15.46-.333.803c-.263.489-.334.94-.334 2.122v1.501h-3.041-3.042l-.028-2.375c-.041-3.505-.048-3.641-.237-4.476-.139-.616-.385-.973-1.253-1.821l-1.08-1.054-4.201-.011-4.201-.011-.833.512c-.459.282-1.047.567-1.309.632-.496.124-1.533.812-2.592 1.721l-.622.534-.409-.466c-.225-.257-.59-.563-.812-.682s-.596-.394-.83-.612c-.235-.217-.576-.438-.76-.49-.463-.132-1.409-.537-1.97-.844-.532-.291-10.728-.505-11.711-.246m10.598 1.95c1.978.396 3.192 1.035 4.587 2.414 1.416 1.401 1.191 1.398 2.655.031 2.235-2.088 4.075-2.708 8.007-2.702 3.374.005 3.803.102 4.72 1.072l.72.761-.053 2.818c-.072 3.851-.863 4.676-3.814 3.978-4.617-1.094-6.855 6.554-2.512 8.586 1.135.531 1.318.551 3.357.36l1.25-.117.75.667.75.666.031 2.561c.056 4.517-.333 4.888-5.334 5.099-2.251.095-2.516.264-.856.545 6.556 1.11 10.442 3.06 13.783 6.916 1.63 1.881 2.161 2.883 3.18 6 .516 1.582.778 8.107.448 11.167-.892 8.249-7.149 14.494-16.252 16.218-3.314.627-4.009.699-6.801.699-2.027 0-2.799.055-2.898.208-.074.115-.135 5.482-.135 11.928v11.719l-.702.656-.701.655h-6.939c-7.653 0-7.473.024-8.187-1.057l-.347-.526.086-32.037.086-32.037.477-.535c.582-.651.582-.653.043-1.154-.755-.702-.754-.677-.63-12.96l.118-11.743.481-.548c.265-.302.646-.586.848-.632.89-.203 8.391.046 9.784.324m91.357.044c1.755.486 3.269 1.571 4.564 3.269.592.777.912.772.912-.013 0-.492.136-.741.728-1.333l.728-.728h5.522 5.521l.656.592c.361.326.705.814.764 1.084.139.632.522.627 1.151-.014l.486-.496h2.699 2.698l.732-.581.732-.582 2.769-.002c2.616-.001 2.796.019 3.25.372 1.112.864 1.053.49 1.059 6.646.007 7.235.238 6.84-4.078 6.978l-2.667.086-.051.805c-.086 1.343-.175 1.317 4.217 1.252 5.61-.083 5.128.674 5.246-8.248.111-8.437-.188-7.892 4.334-7.892h2.678l.747.688.746.687v3.279c0 2.328.058 3.337.2 3.479.409.409 14.8.274 14.8-.139 0-.186-.115-.382-.255-.436-.512-.196-.607-.751-.587-3.423.034-4.403-.464-4.169 8.709-4.097 7.752.061 7.818.069 9.413 1.154.869.592.948.59 1.503-.033.928-1.042 1.366-1.192 3.172-1.091 2.061.116 2.328.116 4.022 0 2.762-.188 4.19 1.095 4.19 3.765 0 1.568-.154 1.939-1.244 3l-.77.75-1.701-.019c-.936-.01-1.965-.03-2.285-.045-.321-.014-1.184.032-1.917.103l-1.333.128-.112 1.016c-.159 1.438-.436 1.987-1.696 3.36-1.299 1.416-1.255 1.22-.539 2.374 3.035 4.888 3.49 5.85 3.571 7.543l.061 1.294-.675.675-.675.675-3.082-.052-3.082-.052-.517-.496c-.284-.272-.774-1.022-1.087-1.666-1.337-2.745-1.141-2.719-3.382-.436-2.499 2.545-2.588 2.583-6.236 2.652l-2.95.056-.672-.638-.672-.639-.024-2.704-.024-2.703.525-.598c.811-.924.91-.911-7.07-.911-8.345 0-7.52-.146-7.896 1.395-.596 2.442-3.217 5.258-5.766 6.194-1.178.433-11.507.538-12.38.126-.912-.43-1.204-.95-1.204-2.145 0-1.419-.151-1.436-1.511-.177-2.631 2.435-2.94 2.503-11.458 2.514l-6.72.009-.655-.702c-.625-.668-.656-.753-.656-1.791 0-1.399-.141-1.392-1.465.074-4.042 4.473-11.808 3.853-15.107-1.206-.165-.252-.401-.458-.526-.458s-.355.206-.51.458c-1.414 2.293-3.604 3.645-6.966 4.302-.599.117-.332.337.599.494.414.07.836.328 1.295.791l.68.687v6.836 6.835l-.617.632c-.674.69-2.281.888-3.717.457-6.297-1.886-13.607.469-17.09 5.504-6.292 9.097-3.301 22.377 5.915 26.259 3.426 1.444 5.925 1.645 10.18.821.689-.133 1.824-.243 2.522-.243h1.269l.602.667.603.668v6.736 6.737l-.435.517c-1.978 2.351-14.282 2.899-20.815.925-7.329-2.213-13.878-7.931-17.275-15.083-.457-.963-.892-1.866-.966-2.007-.399-.758-1.468-4.613-2.011-7.251-.688-3.344-.768-11.167-.148-14.409 3.331-17.42 14.953-27.418 31.358-26.978 2.713.073 2.959-.028 1.834-.754-.344-.221-1.221-1.007-1.948-1.745l-1.323-1.343-1.427 1.373c-3.639 3.5-9.979 3.671-13.63.367-1.249-1.13-1.194-1.131-2.454.039-5.462 5.072-16.076 1.356-16.091-5.634-.003-1.392.291-1.325-5.805-1.325h-5.403l-.647-.647-.647-.647v-2.456-2.456l.647-.647.647-.647 5.644-.002c3.105-.002 5.737-.061 5.849-.132.13-.083.231-.735.278-1.79.211-4.723 3.529-7.569 8.832-7.574 3.204-.003 4.491.464 6.479 2.352 1.466 1.391 1.364 1.388 2.612.088 1.823-1.898 3.267-2.437 6.545-2.44 3.478-.003 4.889.567 7.024 2.837 1.503 1.597 1.141 1.606 2.818-.071 4.203-4.203 11.143-3.815 14.643.82.777 1.03 1.035 1.114 1.38.448 1.662-3.214 7.05-5.074 11.292-3.897m-100.315 1.796c-.297.133-.306 21.735-.009 22.032.284.284 3.898.276 4.082-.008.074-.115.172-4.146.218-8.959l.084-8.75.623-.051c1.068-.089 2.648.404 3.187.993 1.209 1.323-.038 3.642-1.96 3.642-.861 0-1.397 2.823-.761 4.011.327.61 3.421.162 4.991-.724 4.219-2.38 4.182-9.18-.06-11.187-1.753-.829-9.182-1.544-10.395-.999m22.025.135c-10.665 2.441-10.85 19.707-.234 21.852 1.561.315 3.581.264 4.75-.12l.667-.22v-1.986-1.987l-2.083-.012c-3.527-.022-5.408-1.463-6.229-4.774-1.224-4.936 2.708-9.564 7.237-8.519 1.285.297 1.345.201 1.289-2.035-.047-1.834-.051-1.85-.506-2.068-.688-.329-3.677-.409-4.891-.131m23.516.245c-4.158 1.211-5.883 5.055-3.958 8.822.853 1.67.852 1.636.134 2.474-3.518 4.11-.896 9.474 5.083 10.402 6.15.954 10.629-5.874 6.717-10.239-.838-.935-.868-1.105-.328-1.826 2.797-3.733.632-8.771-4.198-9.766-1.217-.251-2.271-.21-3.45.133m15.667 0c-4.426 1.289-6.071 5.531-3.641 9.39.532.846.501 1.048-.324 2.118-2.507 3.249-1.382 7.584 2.437 9.393 6.847 3.241 14.174-3.755 9.694-9.258-1.092-1.341-1.073-1.15-.249-2.418 3.189-4.908-1.996-10.949-7.917-9.225m16.917-.004c-4.195 1.09-6.167 4.457-6.167 10.528 0 7.699 3.514 12.105 9.029 11.324 4.635-.657 6.83-4.121 6.86-10.829.011-2.584-.058-3.099-.756-5.584-1.217-4.34-4.81-6.519-8.966-5.439m16.833-.043c-3.73 1.168-5.44 4.041-5.779 9.709-.544 9.082 5.326 14.616 11.827 11.151 5.587-2.978 5.549-17.439-.054-20.297-1.651-.842-4.306-1.092-5.994-.563m87.575 1.296c-2.067.916-.77 4.079 1.316 3.208 1.158-.484 1.429-1.77.567-2.685-.64-.679-1.186-.831-1.883-.523m4.758-.113c-1.653.602-1.523 3.095.182 3.469 1.176.259 2.386-1.204 1.919-2.32-.366-.876-1.359-1.419-2.101-1.149m-79.251.219c-.253.409-.234 3.488.024 3.745.359.36 9.082.378 9.379.02.127-.153.177-.851.146-2.042l-.048-1.809-4.697-.045c-3.136-.029-4.732.014-4.804.131m20.852.094c-.203.53-.112 8.991.099 9.203.132.132.834.2 2.05.2 1.217 0 1.919-.068 2.05-.2.285-.285.285-8.982 0-9.267-.33-.33-4.069-.273-4.199.064m11.167 0c-.055.145-.103 3.051-.105 6.458-.006 9.549.258 9.168-6.413 9.245-5.123.06-4.75-.113-4.75 2.199 0 2.16-.388 2.001 4.883 2.001 6.959 0 8.852-.943 10.343-5.151.399-1.128.649-13.983.284-14.664-.252-.471-4.065-.55-4.242-.088m22.667 0c-.19.494-.111 3.327.099 3.536.148.148 1.732.2 6.096.2h5.896l.487.488c.895.894.978.771-4.176 6.179-1.791 1.879-3.623 3.809-4.071 4.289-1.031 1.103-1.923 1.544-3.118 1.544-1.244 0-1.314.108-1.314 2.028 0 2.04.031 2.066 2.322 1.906 2.713-.19 2.597-.124 5.638-3.196 1.49-1.506 2.779-2.738 2.864-2.738.372 0 1.821 2.15 3.084 4.578.332.638.695 1.218.806 1.289.239.152 3.473.179 3.855.032.739-.283-.387-2.667-3.52-7.45-1.274-1.945-1.298-1.728.388-3.5 1.569-1.649 2.063-2.539 2.061-3.71-.005-2.437-1.572-4.599-3.916-5.406-1.335-.459-13.308-.521-13.481-.069m-40.662 1.273c-.056.209-.102 2.99-.104 6.18-.003 8.428.327 8.117-8.611 8.117-3.787 0-5.237.053-5.325.194-.153.248-.149 3.703.005 3.952.201.325 11.475.254 12.607-.079 2.48-.73 4.741-2.963 5.394-5.328.235-.851.267-1.854.226-7.156l-.048-6.167-2.021-.046c-1.981-.046-2.023-.039-2.123.333m-73.683 1.394c1.493.708 1.534 2.966.066 3.574-1.342.556-2.828-.349-2.816-1.716.013-1.633 1.338-2.528 2.75-1.858m15.949.155c1.61 1.094.912 3.578-1.005 3.58-1.221.002-2.037-.8-2.028-1.994.011-1.664 1.655-2.523 3.033-1.586m33.706-.015c2.664 1.113 3.161 9.799.707 12.385-2.275 2.397-4.612-.716-4.617-6.149-.004-4.561 1.641-7.184 3.91-6.236m-16.716.535c2.792 2.651 2.087 12.543-.909 12.754-1.76.123-2.824-1.233-3.356-4.278-1.022-5.841 1.584-11.02 4.265-8.476m15.486 2.512c-.605 1.327-.602 5.375.004 6.64.988 2.062 1.877-3.316.989-5.985-.396-1.19-.668-1.369-.993-.655m-17.344.424c-.096.39-.249.98-.339 1.311-.348 1.272.08 4.959.639 5.518.876.876 1.504-3.06.931-5.836-.387-1.877-.908-2.298-1.231-.993m85.398-.352c-.1.163.107.644.278.644.455 0 .653 1.037.653 3.408 0 2.973-.131 2.957 2.402.3 3.423-3.59 3.8-4.019 3.73-4.229-.074-.222-6.928-.341-7.063-.123m-56.735.307c-.279.176-.383 2.928-.138 3.631l.131.378 4.712-.045 4.711-.044.048-1.831c.041-1.577.008-1.86-.24-2.042-.351-.257-8.825-.3-9.224-.047m-84.167 3.005v2.668l-.491-.438c-.27-.241-.538-.653-.596-.916s-.175-.521-.259-.574c-.197-.121-.202-1.359-.006-1.48.082-.051.2-.299.262-.552.093-.377.847-1.376 1.038-1.376.029 0 .052 1.2.052 2.668m144.667-1.868c0 .074-.263.389-.584.7l-.583.565v-.436c0-.239-.046-.554-.101-.699-.082-.214.027-.264.583-.264.377 0 .685.061.685.134m-140.828.689c-.24.449-.22 2.563.028 2.811.285.285 10.147.285 10.433 0 .267-.268.267-2.666 0-2.934-.39-.389-10.248-.274-10.461.123m118.623.073c-.263.262-.271 3.362-.01 3.623.088.088 3.726.133 8.641.108l8.49-.043.048-1.726c.031-1.129-.019-1.806-.145-1.958-.285-.343-16.681-.347-17.024-.004m-27.426 3.646-.542.542-5.622.083-5.622.083v.417.417h5.758c6.32 0 6.453-.02 6.837-1.031.381-1.002-.048-1.273-.809-.511m-70.105.036c1.356.888 1.417 2.973.113 3.885-1.042.729-2.093.628-3.063-.295-1.998-1.9.636-5.106 2.95-3.59m15.762.108c1.839 1.309.91 4.213-1.347 4.211-2.478-.001-3.332-3.276-1.144-4.384.84-.425 1.739-.363 2.491.173m-53.621.716c-.319.224-3.099.872-4.155.969l-.5.046-.045 3.743c-.043 3.531-.065 3.763-.393 4.112-.64.682-.368.728 4.323.734 2.446.003 5.908.111 7.693.238 3.622.259 4.897.091 2.451-.322-3.312-.56-7.499-4.996-8.185-8.672-.199-1.067-.534-1.307-1.189-.848m-.103 2.39c.096.252.226.637.288.856.162.57 1.144 2.173 1.737 2.833.278.311.506.611.507.667 0 .056.229.346.508.644l.508.542h-3.259-3.258v-2.75-2.75h.55c.302 0 .621-.07.708-.154.137-.133.399-.195 1.347-.321.103-.014.267.181.364.433m25.685.167c.004 1.606.409 2.918 1.136 3.678.115.121.21.299.21.395 0 .448 2.522 2.731 4.055 3.671.66.404 1.855.797 2.426.797.366 0 .712.075.769.167.061.099 1.082.167 2.5.167s2.439-.068 2.5-.167c.057-.092.417-.169.802-.172.384-.003.998-.151 1.365-.328.366-.177.745-.325.84-.328.096-.003.621-.416 1.167-.917 1.187-1.09 1.014-1.063 1.828-.291.365.347 1.022.816 1.458 1.042.816.422.776.827-.08.827-.169 0-.35.113-.403.25-.053.138-.233.25-.4.25s-.416.113-.553.25c-.138.138-.313.25-.391.25-.448 0-4.124 2.867-5.257 4.1-.16.174-.406.429-.546.567-1.548 1.521-3.578 3.844-3.583 4.1-.001.083-.18.318-.396.523-.383.362-1.609 2.33-1.82 2.919-.057.16-.181.291-.276.291-.094 0-.172.086-.172.19 0 .184-.461 1.251-.937 2.169-.126.244-.229.562-.229.709 0 .146-.113.266-.25.266-.208 0-.25-.325-.25-1.922 0-1.332-.077-2.106-.25-2.521-.138-.329-.251-.795-.251-1.036-.001-.241-.113-.653-.25-.915-.137-.263-.249-.556-.249-.651 0-.221-.84-2.011-.995-2.122-.065-.046-.333-.458-.597-.917-.513-.891-4.636-5.083-5-5.083-.12 0-.318-.1-.439-.222-.246-.245-.766-.536-2.136-1.194-.504-.242-1.116-.547-1.359-.679-.243-.131-.562-.238-.708-.238-.398 0-.33-.151.359-.8l.625-.589.051-3.472.051-3.473h2.817 2.817zm122.346 3.44v2.898l.579.643c.664.737.712.894.277.894-.171 0-.502.15-.735.333s-.539.333-.681.333c-.141 0-.317.094-.39.209-.073.114-.408.358-.743.541-1.125.615-3.48 2.78-4.974 4.572-.412.495-.826.982-.92 1.081-.233.247-1.448 2.371-1.796 3.139-.667 1.471-.765 1.738-.841 2.292-.255 1.848-.74 2.215-1.027.777-.105-.523-.279-1.04-.386-1.148-.108-.108-.201-.35-.206-.538-.016-.594-1.701-3.543-2.74-4.797-1.965-2.37-5.538-5.628-6.173-5.628-.792 0-.269-.467.628-.561.556-.058 1.093-.171 1.194-.251s.534-.196.962-.258.868-.221.979-.355c.11-.133.267-.241.348-.241.636 0 3.942-3.097 4.211-3.945.062-.197.223-.45.357-.561s.244-.333.244-.494.104-.38.232-.486.282-.453.341-.77l.108-.578h5.576 5.576zm13.984 1.976c.202.264.171.292-.323.292-.536 0-.54-.006-.243-.334.166-.184.311-.316.323-.292.011.023.12.174.243.334m-259.317.409c-.811.294-2.167 2.126-2.167 2.928 0 .44-.112.971-.249 1.181-.138.209-.298.863-.357 1.452-.058.59-.176 1.161-.261 1.269s-.198.633-.25 1.166c-.053.534-.198 1.173-.323 1.42-.125.248-.227.745-.227 1.105s-.112.924-.25 1.253c-.137.329-.25.967-.25 1.417 0 .524-.09.892-.25 1.025-.155.129-.25.495-.25.965 0 1.494-.614 2.36-1.121 1.58-.162-.251-.408-.576-.545-.724-2.768-2.966-3.612-3.896-3.75-4.134-.201-.344-.853-1.08-2.084-2.348-.504-.52-1.441-1.571-2.083-2.335-.642-.765-1.392-1.629-1.667-1.92-1.396-1.48-2.412-2.594-3.147-3.452-1.367-1.596-1.771-1.798-3.592-1.798h-1.555l-1.269 1.295c-1.771 1.807-4.087 4.368-4.187 4.629-.069.182-1.908 2.265-2.845 3.224-.144.148-.443.531-.664.852-.222.32-.704.891-1.072 1.268-1.072 1.099-1.252 1.56-1.252 3.212v1.453l.826.926c.589.662 1.184 1.104 2.083 1.548 1.386.685 1.621 1.241 1.017 2.408-.133.256-.291.871-.351 1.367-.061.496-.215 1.222-.343 1.615-.127.393-.232.966-.232 1.273s-.112.773-.249 1.036c-.137.262-.249.825-.25 1.25s-.113.987-.25 1.25c-.137.262-.252.814-.255 1.227-.004.412-.117.896-.251 1.074-.145.19-.245.689-.245 1.214 0 .51-.107 1.053-.249 1.271-.138.209-.298.863-.357 1.452-.058.59-.174 1.158-.256 1.263s-.191.592-.241 1.083c-.051.491-.198 1.176-.328 1.521-.13.346-.236.968-.236 1.384 0 .415-.117.982-.261 1.259-.213.412-.251 1.008-.208 3.24l.053 2.736.793.793.794.793 1.805.056c1.478.046 1.854.008 2.07-.208.145-.146.348-.264.452-.264.209 0 1.512-.549 2.195-.924.243-.134.553-.243.688-.243s.339-.113.453-.25c.114-.138.343-.25.508-.25.166 0 .414-.112.551-.25.138-.137.375-.25.528-.25.275 0 .492-.094 1.862-.804.385-.199.807-.363.938-.363s.332-.112.446-.25c.114-.137.388-.25.609-.25s.445-.112.497-.25c.053-.137.2-.25.326-.25s.625-.37 1.107-.823l.878-.824.046-1.801c.049-1.875-.084-2.422-.679-2.785-.165-.101-.792-.654-1.392-1.229-.601-.576-1.347-1.241-1.659-1.478-.639-.488-.797-1.657-.311-2.3.143-.189.245-.687.245-1.195 0-.509.115-1.073.278-1.356.329-.573.302-.592 1.746 1.218.511.639 1.393 1.635 1.961 2.211.567.577 1.3 1.401 1.628 1.831.327.43 1.374 1.612 2.326 2.627s1.899 2.066 2.104 2.337c.569.75 1.085 1.331 2.54 2.859.733.77 1.371 1.498 1.417 1.618.142.374 2.717 3.08 3.342 3.513.518.359.773.411 2.038.411h1.447l1.086-1.022c.598-.562 1.087-1.158 1.087-1.324 0-.616.389-.504 1.272.367l.906.895h18.129 18.129l1.032-1.051c.568-.578 1.032-1.2 1.032-1.383s.103-.535.229-.782c.126-.248.263-1.101.303-1.896.04-.796.16-1.551.267-1.68.106-.128.237-.789.291-1.47.153-1.943.362-2.497.638-1.696.056.16.252.517.437.792.184.275.438.717.563.983.365.769 2.235 2.756 5.188 5.51.459.428 1.209 1 1.667 1.273.458.272.946.562 1.083.644.517.309 1.781.84 2.011.845.132.003.385.115.563.25s.565.245.861.245.568.091.605.202c.123.368 8.01.814 8.351.473.097-.097.851-.176 1.684-.176.93-.001 1.672-.087 1.934-.223.233-.122.788-.272 1.233-.333.444-.061.891-.175.992-.254.1-.079.406-.197.679-.262.655-.157 2.117-1.684 2.587-2.702.205-.445.439-.921.52-1.059.081-.137.215-.4.297-.583s.387-.858.678-1.5c.582-1.284.869-1.933 1.274-2.875.147-.344.335-.738.417-.875.083-.138.198-.363.257-.5.058-.138.25-.588.425-1 .413-.97.793-1.805 1.074-2.359.124-.243.225-.553.225-.688s.112-.339.25-.453.25-.386.25-.604.069-.396.154-.396c.288 0 .494-1.08.54-2.833l.046-1.75-1.042-1.042-1.042-1.042h-1.485c-.816 0-1.526.067-1.576.149-.051.081-.278.194-.506.252-.227.057-.697.298-1.043.535s-.798.497-1.004.577c-.207.08-.375.223-.375.317 0 .093-.145.17-.322.17s-.434.113-.571.25c-.138.138-.354.25-.48.25-.127 0-.376.11-.554.245s-.436.248-.573.251c-.138.004-.452.111-.697.24-.246.128-.696.287-1 .353-.305.066-.701.224-.882.349-.181.126-.682.229-1.113.229-.475 0-.883.099-1.035.25-.316.316-1.092.314-1.514-.005-.177-.135-.447-.245-.598-.245-.152 0-.606-.187-1.01-.415-.404-.227-.847-.463-.985-.524-.333-.146-1.166-.923-1.166-1.086 0-.072-.225-.485-.5-.919-.275-.433-.5-.914-.5-1.068s-.113-.374-.25-.488c-.157-.13-.25-.498-.25-.989 0-.429-.11-.926-.245-1.104-.318-.421-.32-.979-.005-1.24.137-.114.25-.457.25-.761s.07-.596.156-.649c.086-.054.348-.503.583-.999 1.139-2.408 3.699-5.214 5.747-6.3 1.485-.787 1.343-.817 2.168.459.385.595.763 1.083.838 1.083.076 0 .181.169.234.375s.27.563.482.792c.211.229.563.679.781 1 .218.32.754.939 1.193 1.375l.796.791h2.082c1.629 0 2.137-.054 2.333-.25.137-.137.349-.252.47-.255s.52-.151.887-.328c.366-.177.8-.325.963-.328.164-.003.34-.118.393-.255.053-.138.257-.25.454-.25.457 0 2.146-1.6 2.519-2.384.428-.902.153-4.284-.393-4.83-.102-.102-.187-.34-.187-.528-.001-.188-.106-.543-.235-.789-.128-.246-.286-.696-.351-1-.064-.304-.211-.665-.327-.803-.115-.137-.248-.437-.295-.666-.117-.571-1.178-3.071-1.333-3.139-.069-.031-.125-.197-.125-.369 0-.173-.464-.804-1.032-1.403l-1.031-1.089-4.427.001c-3.601.001-4.516.047-4.904.25-.263.137-.905.249-1.427.249-.576 0-1.076.096-1.272.244-.178.135-.586.248-.907.251-.321.004-.798.119-1.061.256-.262.137-.637.251-.833.254s-.656.151-1.023.328c-.366.177-.759.325-.872.328s-.676.238-1.25.522c-.574.283-1.378.677-1.786.875-.408.197-1.057.565-1.441.817s-.778.458-.875.458-.236.098-.309.217c-.073.12-.433.398-.8.619s-.998.704-1.404 1.074-.864.786-1.018.923c-.155.138-.742.699-1.306 1.247l-1.025.996.108-1.08c.059-.594.191-1.185.293-1.313.113-.143.185-1.031.185-2.286v-2.053l-1.078-1.088-1.079-1.089h-17.962-17.963l-.646.583c-.854.772-.818.781-3.057-.77-.248-.172-.535-.313-.636-.313-.102 0-.29-.094-.418-.209-.564-.505-.761-.639-1.167-.794-.448-.17-3.47-.207-3.91-.047m346.359 1.89.641.674v32.096 32.096l-.647.647-.647.647-7.062-.006c-7.709-.005-7.293.047-8.076-1.014l-.402-.545v-31.888-31.888l.688-.746.688-.747h7.088 7.088zm-342.47.085c.444.27.983.604 1.198.741 3.065 1.958 4.246 2.495 4.246 1.931 0-.292 1.084-1.428 1.372-1.437.116-.004 7.899-.008 17.294-.01l17.083-.004.626.67c.878.942.865 1.384-.205 6.934-.089.458-.21 1.246-.269 1.75s-.211 1.326-.338 1.826c-.488 1.934-.229 2.525.533 1.215 2.888-4.963 9.358-9.993 15.237-11.844 3.882-1.222 5.808-1.536 10.084-1.642l3.666-.092.618.644c.768.799 2.157 3.915 3.307 7.417 1.42 4.323 1.129 5.192-2.185 6.538-.773.315-1.631.691-1.906.837-.326.173-.927.266-1.725.266l-1.225.001-.728-.77c-.4-.424-1.199-1.446-1.775-2.271-2.939-4.213-2.866-4.157-4.472-3.405-4.988 2.335-9.479 8.863-8.647 12.569.992 4.418 2.799 6.658 6.285 7.789 2.296.745 7.514-.829 11.787-3.555 1.152-.735 2.704-.722 3.524.029 1.116 1.023.988 2.116-.666 5.698-1.358 2.94-1.733 3.764-2.163 4.75-.865 1.982-1.545 3.476-2.619 5.75-.937 1.985-2.683 2.829-6.718 3.248-.747.077-1.808.191-2.358.253-8.44.947-17.321-5.239-19.743-13.751-.924-3.247-.852-9.626.146-13.084.549-1.9.54-1.922-.712-1.805-1.684.157-2.366-.594-3.276-3.61-1.369-4.533-2.524-5.465-6.96-5.614-3.624-.121-3.293-.279-3.637 1.734-.453 2.654-.527 3.112-.801 4.962-.15 1.008-.359 2.117-.465 2.463-.56 1.836 2.42.141 5.098-2.899 1.703-1.934 2.847-2.207 4.148-.992l.702.656-.02 1.303c-.011.716-.223 2.277-.471 3.469-.249 1.192-.514 2.542-.59 3-.14.844-.617 3.397-1.09 5.833-.143.734-.356 1.896-.474 2.584-.359 2.096-1.021 2.833-2.546 2.833-1.5 0-1.809-.273-2.98-2.628-1.049-2.113-2.979-4.028-3.517-3.49-.12.12-.468 1.773-.902 4.285-.198 1.146-.461 2.608-.584 3.25-.645 3.352-.76 3.221 2.582 2.96 3.797-.295 5.717-1.672 9.286-6.658 1.558-2.178 2.026-2.552 3.19-2.552 2.067 0 2.713 1.321 2.13 4.357-.333 1.739-.751 4.346-.931 5.809-.457 3.713-.767 4.874-1.483 5.541l-.671.626h-17.234-17.234l-.481-.374c-.922-.716-1.052-.976-1.058-2.111l-.006-1.068.959-.948c.751-.744 1.228-1.05 2.208-1.419 1.944-.732 1.781-.416 2.586-4.997.128-.733.348-1.933.488-2.666.922-4.831.919-5.241-.029-5.248-1.138-.008-2.062-1.67-1.9-3.419.064-.703 1.368-1.743 2.394-1.909 1.405-.229 1.565-.359 1.698-1.377.063-.484.223-1.443.356-2.131 1.555-8.07 1.585-8.324.941-7.873-.156.109-1.618.998-3.249 1.975-1.63.977-3.027 1.898-3.104 2.046-.129.248-.562 2.177-.846 3.769-.066.367-.462 2.354-.881 4.417-.418 2.062-.796 3.937-.839 4.166-.042.23-.205.98-.36 1.667-.155.688-.384 1.775-.507 2.417-.124.641-.61 3.004-1.08 5.25-.471 2.245-.964 4.646-1.096 5.333-.799 4.149-.808 4.178-1.54 4.861-1.308 1.22-2.528.891-4.315-1.165-.623-.717-1.734-1.977-2.467-2.8s-2.383-2.689-3.667-4.147c-1.283-1.458-3.083-3.484-4-4.503-2.437-2.708-5.07-5.689-5.833-6.603-1.019-1.221-1.262-1.091-1.604.857-.266 1.513-.499 2.742-1.045 5.5-.31 1.564-.355 1.488 2.125 3.566 2.13 1.786 2.107 1.753 2.107 3.108 0 1.683-.292 1.905-5.583 4.241-1.1.486-2.852 1.266-3.893 1.734-2.516 1.131-3.583 1.186-4.558.234-.947-.925-.892-1.873.446-7.716.136-.596.437-2.021.669-3.167.231-1.146.573-2.796.759-3.667 1.037-4.859 1.379-6.506 1.518-7.318.085-.495.193-.963.24-1.039.047-.075.195-.72.33-1.432.134-.711.332-1.752.438-2.312.285-1.495-.191-2.264-1.923-3.109-2.793-1.363-2.915-2.862-.459-5.637.697-.786 2.389-2.736 3.761-4.333 5.814-6.765 5.797-6.761 9.665-2.403.814.917 2.054 2.304 2.757 3.083s3.176 3.554 5.495 6.167c4.318 4.864 5.992 6.667 6.19 6.667.188 0 .293-.405 1.077-4.148.415-1.981.857-4.052.983-4.602.125-.55.354-1.6.508-2.334.154-.733.413-1.933.577-2.666.164-.734.435-1.968.603-2.743.324-1.502.896-2.409 1.617-2.566.948-.206 2.206-.003 3.006.484m304.468-.417c6.267.634 11.991 4.257 15.191 9.614.615 1.03 1.118 1.905 1.118 1.944s.25.621.556 1.294c2.573 5.66 3.779 12.41 3.776 21.124-.007 19.637-7.377 30.891-21.183 32.345-9.649 1.016-16.013-1.39-21.101-7.978-2.757-3.569-5.32-9.415-5.802-13.226-.062-.498-.182-.792-.321-.792-.322 0-.454.723-.33 1.815.24 2.125-.765 6.467-2.05 8.852-3.298 6.12-9.729 10.418-16.742 11.187-12.615 1.385-23.375-4.652-26.581-14.914-.344-1.1-.576-1.224-.773-.411-2.26 9.304-11.007 15.468-21.949 15.468-13.431 0-23.169-8.164-23.455-19.664-.154-6.229.759-8.991 4.305-13.019 1.564-1.775 1.51-1.335.41-3.34-2.61-4.76-2.953-5.865-3.056-9.831-.217-8.429 3.077-14.385 9.983-18.047 5.896-3.127 15.508-3.296 21.516-.378 3.733 1.813 7.67 5.573 9.391 8.97 1.407 2.776 1.773 4.586 1.781 8.812.01 5.062-.418 6.615-2.812 10.198-1.507 2.255-1.516 2.009.15 3.947 2.223 2.586 3.349 4.31 3.692 5.651.264 1.037.603 1.021.949-.046.565-1.74 2.087-4.182 3.753-6.019 1.318-1.453 1.381-1.605.935-2.236-.757-1.07-2.623-4.835-3.218-6.495-.586-1.634-.603-8.353-.027-10.5 1.668-6.218 6.362-11.149 12.534-13.166 2.84-.928 5.212-1.218 9.169-1.121 13.184.323 22.158 10.16 20.51 22.484-.501 3.749-.861 4.705-2.89 7.682l-1.338 1.961.401.448c.22.247.714.789 1.097 1.205.94 1.022 2.188 2.7 2.95 3.965.345.573.679 1.042.741 1.042s.115-2.831.117-6.292c.005-7.188.163-8.967 1.178-13.291.695-2.96 1.665-5.464 3.244-8.374 1.021-1.881 3.579-4.759 5.907-6.648 4.302-3.49 10.757-4.981 18.274-4.22m-221.68 1.853c-.494.184-.488-.244-.457 31.722l.03 30.833h6.25 6.25l.042-24.983c.031-18.129.093-25.045.229-25.209.425-.513 5.337-.08 7.895.695 3.128.948 4.417 2.656 4.417 5.851 0 3.866-2.573 6.038-7.685 6.486-.698.062-1.351.163-1.451.225-.294.181-.299 11.681-.005 11.885.459.317 5.721-.176 8.404-.788 10.202-2.327 15.22-9.346 14.412-20.162-.788-10.549-6.978-15.327-21.258-16.408-2.738-.208-16.588-.326-17.073-.147m70.989-.079c-16.699.833-27.728 13.479-27.734 31.801-.007 20.254 14.013 33.289 32.901 30.59 2.424-.346 4.502-.784 4.716-.993.074-.071.128-2.744.122-5.939-.013-6.109-.023-6.189-.755-5.987-13.566 3.744-24.958-5.901-23.599-19.98 1.227-12.711 11.771-20.012 23.78-16.465 1.094.323 1.069.458 1.069-5.786 0-4.267-.05-5.696-.21-5.914-.484-.661-6.94-1.494-10.29-1.327m174.991.087c-.458.169-.517 62.354-.06 62.53.535.205 11.824.112 12.036-.099.324-.324.287-62.277-.037-62.402-.361-.138-11.57-.165-11.939-.029m-29.574.067c-13.113 1.297-19.907 9.603-21.184 25.897-.538 6.867.185 14.106 1.99 19.917.808 2.6 1.83 4.878 3.326 7.416 4.37 7.411 12.538 10.672 21.89 8.74 7.677-1.585 12.232-5.669 15.235-13.656 5.11-13.595 2.379-35.306-5.406-42.976-3.69-3.636-10.356-5.881-15.851-5.338m-301.469.34c-.111.407-.519 2.251-.951 4.307-.193.917-.418 1.967-.501 2.333-.083.367-.308 1.417-.501 2.334-.54 2.569-.806 3.816-1.074 5.041-.835 3.822-1.403 6.514-1.45 6.875-.092.711-.666.521-1.572-.521-.448-.516-3.215-3.619-6.149-6.897-2.933-3.277-6.008-6.724-6.833-7.659-1.519-1.723-3.737-4.201-4.685-5.234-.619-.674-.767-.625-1.782.586-.385.46-1.825 2.133-3.2 3.718-5.359 6.178-5.067 5.646-3.498 6.393 2.808 1.336 3.366 3.052 2.421 7.448-.286 1.329-.773 3.616-1.083 5.083-.309 1.467-.683 3.229-.83 3.917-.146.687-.487 2.3-.755 3.583-.269 1.283-.719 3.421-1 4.75-1.271 6.011-1.298 5.692.404 4.862.596-.291 1.123-.529 1.17-.529s.78-.324 1.629-.719c.848-.396 2.48-1.123 3.626-1.615 3.144-1.35 3.13-1.065.17-3.5-2.718-2.235-2.555-1.757-1.837-5.386 1.629-8.236 2.167-10.976 2.167-11.041 0-.297.629.051 1.151.636.348.39 2.792 3.146 5.431 6.125 2.638 2.98 5.033 5.679 5.321 6s1.121 1.261 1.852 2.09c5.085 5.767 7.317 8.244 7.429 8.244.256 0 .402-.451.835-2.584.242-1.191.873-4.266 1.402-6.833s1.019-4.967 1.087-5.333c.069-.367.388-1.942.711-3.5 1.249-6.035 2.141-10.389 2.39-11.667.381-1.96.33-1.908 3.972-4.057 1.821-1.075 3.339-2.037 3.372-2.138.062-.184-.654-.656-5.522-3.641-2.954-1.811-3.194-1.918-3.317-1.471m207.636-.102c-9.561.907-16.161 7.274-16.836 16.242-.294 3.901.666 6.911 3.937 12.357.974 1.62.963 1.482.187 2.31-4.792 5.113-5.806 7.44-5.659 12.989.21 7.947 4.963 14.075 13.009 16.77 16.139 5.408 31.042-5.627 28.372-21.008-.415-2.394-1.838-4.687-4.877-7.862-1.58-1.65-1.583-1.662-.805-2.681 2.234-2.927 3.387-5.024 3.914-7.125 2.733-10.88-5.069-21.014-16.935-21.997-2.164-.18-2.361-.18-4.307.005m45.666-.008c-8.058.715-14.342 5.642-16.259 12.75-1.386 5.137-.653 8.966 2.875 15.015.593 1.017 1.127 1.976 1.187 2.132.096.249-.645 1.255-1.487 2.019-7.674 6.964-6.034 20.148 3.268 26.27 13.153 8.657 31.135 2.327 33.421-11.765 1.018-6.277-.166-9.707-5.133-14.873-.866-.9-1.272-1.442-1.189-1.583.07-.118.367-.515.66-.881 1.809-2.266 3.407-5.058 3.814-6.667 2.492-9.84-2.933-18.941-12.955-21.736-2.567-.716-5.275-.941-8.202-.681m-185.25.443c-12.576 1.202-21.939 8.129-24.495 18.122-3.745 14.642 7.524 26.357 21.802 22.665 2.297-.594 2.334-.624 3.185-2.506.408-.902.996-2.203 1.307-2.89.672-1.489 1.065-2.352 1.78-3.917 2.499-5.467 2.772-6.242 2.048-5.814-.116.068-.51.311-.877.54-4.717 2.941-10.342 4.291-13.649 3.276-5.979-1.835-9.154-9.703-6.247-15.476 2.484-4.932 7.647-9.332 11.396-9.709 1.258-.127.861-.551 5.125 5.475 1.32 1.865 1.23 1.836 3.138 1.035 2.356-.99 2.821-1.23 2.821-1.46 0-.776-2.73-7.998-3.431-9.075-.245-.378-1.699-.477-3.903-.266m-58.08 1.22c-.211.34.299.858 1.559 1.585 1.881 1.085 1.934 1.164 1.721 2.539-.208 1.34-2.115 11.91-2.377 13.176-.22 1.066-.49 1.265-2.061 1.53-2.262.38-2.484 1.341-.31 1.341 1.689 0 1.8.394 1.123 4-.232 1.237-.531 2.868-.665 3.625-1.515 8.571-1.411 8.15-2.105 8.499-.213.108-1.008.429-1.766.715s-1.602.709-1.875.939c-1.114.937-1.934.894 16.031.847l16.528-.042.12-.417c.067-.229.285-1.504.487-2.833.315-2.083.983-6.22 1.286-7.958.113-.646-.233-.749-.621-.186-1.802 2.619-4.996 6.223-6.269 7.074-2.051 1.372-3.044 1.57-7.865 1.57-3.966 0-3.682.248-3.129-2.731.223-1.202.566-3.086.762-4.186s.428-2.375.516-2.833.311-1.696.495-2.75c.465-2.655.459-2.635.839-2.839 1.581-.846 5.469 1.842 6.884 4.761.354.73.7 1.44.768 1.578.234.472.583.266.705-.417.138-.769 1.106-5.982 1.812-9.75.266-1.42.604-3.129.751-3.797.422-1.914.299-1.901-1.797.191-2.803 2.797-4.973 4.103-7.041 4.236-1.533.098-1.728-.082-1.454-1.344.209-.964 1.804-10.263 2.045-11.924.272-1.877-.179-1.73 5.121-1.667 5.238.063 5.032.013 6.554 1.587 1.395 1.443 2.91 4.356 3.22 6.191.225 1.328.799 1.01.982-.544.058-.496.42-2.652.804-4.791.384-2.138.703-4.15.708-4.471l.011-.583-16.198-.043c-10.493-.027-16.234.015-16.299.122m23.994 6.852.497.485h-.851c-1.752 0-1.715-.024-4.81 3.166-.869.897-1.007.985-1.054.674-.03-.197.032-.462.137-.589s.23-.816.278-1.532.192-1.538.321-1.827.235-.654.235-.811c0-.566 4.613-.184 5.247.434m-25.765 3.591c-.113.135-.24.861-.282 1.612-.043.759-.179 1.512-.306 1.694-.125.181-.227.612-.227.959v.629h-.797c-.67 0-.888.087-1.375.544-1.113 1.047-1.101 1.047-.985-.012.057-.522.191-1.159.297-1.418.106-.258.193-.769.193-1.135 0-.367.09-.831.201-1.031.11-.201.241-.694.291-1.098.094-.754.91-1.456 2.591-2.23l.5-.229.052.734c.028.411-.039.843-.153.981m204.047.017c2.955 1.319 4.238 4.992 2.791 7.992-1.656 3.434-7.164 3.898-9.502.801-3.61-4.782 1.296-11.211 6.711-8.793m45.85.123c4.134 1.992 4.334 8.149.328 10.121-4.011 1.975-8.37-.647-8.37-5.033 0-4.393 4.1-6.987 8.042-5.088m46.965.474c8.845 4.213 8.991 32.517.19 36.799-6.049 2.943-11.196-5.593-11.2-18.573-.004-13.122 4.851-21.159 11.01-18.226m-95.844 1.213c-2.163.781-3.173 2.439-2.586 4.247 1.11 3.418 5.752 3.451 6.757.049.631-2.136-2.168-5.02-4.171-4.296m44.833.35c-2.659 1.393-2.469 4.933.334 6.203 2.522 1.144 5.468-1.31 4.584-3.819-.852-2.417-2.931-3.425-4.918-2.384m-154.574-.018c-.23.23-.259.81-.22 4.458l.044 4.194 1.248.05c3.023.12 5.86-1.059 6.606-2.748 1.425-3.222-.315-5.141-5.422-5.978-1.815-.298-1.935-.296-2.256.024m201.824.473c-1.996.941-3.332 3.772-4.569 9.679-1.809 8.639.845 21.073 4.907 22.995 2.727 1.29 4.89-.936 6.798-6.995 3.624-11.51-1.103-28.522-7.136-25.679m-261.88 2.596c.531 0 .561.108.215.772-.194.371-.25 1.138-.25 3.436l-.001 2.958-1.625.001c-1.086.001-1.777.081-2.084.24-.527.275-.537.243-.213-.657.132-.367.245-.967.25-1.334.006-.366.118-.966.25-1.333s.244-1.014.248-1.439.119-.988.256-1.25c.137-.263.249-.912.25-1.442.001-.589.102-1.118.26-1.359l.258-.394.861.9c.639.667.982.901 1.325.901m171.283-1.542c1.624.924 1.123 3.375-.69 3.375-.346 0-.629-.063-.629-.14s-.186-.224-.412-.328c-.663-.301-.958-1.205-.65-1.99.424-1.078 1.422-1.462 2.381-.917m45.754.058c.327.193.593.446.593.563s.117.31.259.428c.735.61-.389 2.303-1.541 2.32-.461.007-1.508-.602-1.722-1.002-.846-1.581.866-3.22 2.411-2.309m-152.995.425c.181.124.438.225.571.225.865 0 2.017 1.153 2.017 2.02 0 .94-1.421 2.285-2.438 2.306-.195.004-.448.12-.562.258-.144.174-.529.25-1.27.25h-1.063v-2.741-2.74l1.208.098c.665.054 1.357.2 1.537.324m200.081.137c.837.529 1.335 1.055 1.542 1.63.09.252.232.458.315.458s.15.179.15.397.113.489.25.603c.138.114.251.33.251.479.001.149.113.486.25.749.137.262.25.637.25.833.001.196.113.571.25.833.137.263.249.655.249.872s.107.677.238 1.023c.13.345.285 1.251.345 2.012s.215 1.64.346 1.953c.327.783.332 4.978.006 5.768-.127.309-.285 1.256-.351 2.104-.065.849-.182 1.582-.258 1.629-.077.048-.188.441-.247.874s-.213 1.024-.343 1.313-.238.739-.241 1-.115.621-.25.799c-.135.177-.245.464-.245.636 0 .173-.112.426-.25.564-.137.137-.25.394-.25.571s-.067.322-.15.322-.225.206-.315.458c-.384 1.068-2.017 2.25-2.476 1.791-.137-.137-.359-.249-.494-.249-.429 0-1.898-1.95-1.898-2.519 0-.099-.102-.379-.227-.622-.339-.662-.625-1.507-.839-2.48-.106-.479-.284-.963-.396-1.075-.113-.112-.205-.569-.205-1.015s-.092-.975-.206-1.175c-.113-.201-.248-1.246-.3-2.323-.056-1.18-.173-2.037-.294-2.158-.279-.279-.249-2.399.046-3.217.143-.397.243-1.31.247-2.258.004-.911.085-1.669.188-1.772.099-.1.223-.659.276-1.242.052-.584.188-1.211.303-1.394.114-.184.261-.659.325-1.056s.22-.922.348-1.166c.128-.245.232-.53.233-.634s.113-.404.25-.667.249-.609.25-.769.059-.292.129-.292c.071 0 .313-.337.539-.75.229-.42.53-.75.684-.75.151 0 .368-.112.482-.25.298-.358.746-.309 1.493.162m-69.993 7.352c0 .396 1.197 2.963 2.355 5.049l.497.896-.343.365c-.188.2-.342.425-.342.498 0 .074-.423.59-.939 1.148-.517.559-1.047 1.244-1.177 1.523-.131.279-.338.686-.462.904l-.224.396-.416-.659c-.229-.363-.724-1.015-1.099-1.449-.376-.433-.683-.848-.683-.921 0-.072-.344-.486-.765-.919-.632-.651-.724-.82-.532-.982.393-.331 1.361-1.891 2.109-3.399.218-.438.492-.984.609-1.214.118-.229.268-.791.334-1.25.19-1.315 1.078-1.304 1.078.014m-227.836 2.203c-.001.247-.11.75-.242 1.117-.132.366-.244 1.045-.248 1.508s-.092.926-.195 1.03c-.104.103-.222.737-.264 1.408s-.183 1.457-.312 1.746c-.13.288-.236.823-.236 1.189 0 .679-.465 1.202-1.069 1.202-.372 0-1.785.791-2.321 1.301l-.474.449.119-1c.066-.55.179-1.076.253-1.168.073-.093.182-.655.243-1.25.06-.595.216-1.365.346-1.71.13-.346.236-.956.236-1.356s.112-.943.249-1.205c.137-.263.25-.825.25-1.25.001-.425.113-.988.25-1.25.137-.263.25-.831.25-1.264.001-.432.108-1.032.239-1.333s.278-.678.327-.837c.143-.46 2.603 2.07 2.599 2.673m179.108-1.072.728.728v5.375 5.375l-.647.647-.647.647h-8.25-8.25l-.603-.667-.603-.667v-5.339c0-7.571-1.045-6.826 9.564-6.826l7.98-.001zm-15.992 1.548c-.062.062-.113 2.124-.113 4.582v4.469l.375.091c.206.05 3.487.07 7.292.045l6.916-.046v-4.584-4.583l-7.178-.043c-3.949-.024-7.23.007-7.292.069m107.547 3.182-.006 1.959-.726-.824c-.797-.904-.802-1.067-.059-1.84.262-.273.52-.666.572-.875.179-.712.226-.376.219 1.58m-250.432-.407c.333.673.605 1.308.605 1.412 0 .383.394 1.034.68 1.125 1.177.373 1.027 1.618-.22 1.833-.344.06-.667.176-.719.26-.051.084-.614.152-1.251.152h-1.156v-.505c0-.278.116-.784.259-1.125s.303-1.107.356-1.703c.054-.596.153-1.158.222-1.25s.178-.486.242-.876c.147-.892.238-.829.982.677m186.82 8.284c4.227 1.581 5.463 7.684 2.209 10.911-3.498 3.469-10.033 1.945-11.317-2.64-1.636-5.838 3.397-10.408 9.108-8.271m44.783-.242c6.842 1.613 6.462 11.78-.483 12.927-4.401.727-7.845-2-7.989-6.324-.159-4.812 3.609-7.749 8.472-6.603m-48.542 2.08c-4.196 1.042-4.74 6.477-.83 8.29 4.58 2.124 8.563-3.48 5.09-7.159-.859-.91-2.933-1.46-4.26-1.131m45.667.008c-5.421 1.277-3.9 9.573 1.603 8.748 5.142-.771 5.385-7.667.308-8.742-.994-.21-1.041-.211-1.911-.006m-43.123 1.944c.73.442 1.167.923 1.167 1.284 0 .192.112.511.25.707.217.31.219.419.014.829-.129.259-.362.734-.517 1.055-.515 1.063-2.928 1.658-3.742.921-.155-.14-.407-.254-.56-.254s-.278-.107-.278-.238-.102-.34-.226-.464c-.571-.571-.537-2.717.052-3.277 1.025-.974 2.745-1.226 3.84-.563m45.779.069c1.667 1 1.626 3.641-.072 4.643-1.109.654-3.439.248-3.877-.676-.064-.134-.239-.481-.389-.77-1.174-2.256 2.004-4.598 4.338-3.197" fill="#040404"/></g></svg>