<svg height="110.4" viewBox="0 0 400 110.4" width="400" xmlns="http://www.w3.org/2000/svg"><g fill-rule="evenodd" transform="translate(-6.582633 -1.260504)"><path d="m137.29944 14.699536c-.297.133-.306 21.735001-.009 22.032.284.284 3.898.276 4.082-.008.074-.115001.172-4.146.218-8.959l.084-8.750001.623-.051c1.068-.089 2.648.404 3.187.993 1.209 1.323-.038 3.642001-1.96 3.642001-.861 0-1.397 2.823-.761 4.011.327.61 3.421.162 4.991-.724 4.219-2.38 4.182-9.180001-.06-11.187001-1.753-.829-9.182-1.544-10.395-.999m22.025.135c-10.665 2.441-10.85 19.707001-.234 21.852 1.561.315 3.581.264 4.75-.119999l.667-.220001v-1.985999-1.987l-2.083-.012c-3.527-.022-5.408-1.463-6.229-4.774-1.224-4.936001 2.708-9.564001 7.237-8.519001 1.285.297 1.345.201 1.289-2.035-.047-1.834-.051-1.85-.506-2.068-.688-.329-3.677-.409-4.891-.131m23.516.245c-4.158 1.211-5.883 5.055-3.958 8.822.853 1.670001.852 1.636001.134 2.474001-3.518 4.11-.896 9.473999 5.083 10.401999 6.15.954 10.629-5.873999 6.717-10.238999-.838-.935-.868-1.105001-.328-1.826001 2.797-3.733.632-8.771-4.198-9.766-1.217-.251-2.271-.21-3.45.133m15.667 0c-4.426 1.289-6.071 5.531-3.641 9.39.532.846.501 1.048001-.324 2.118001-2.507 3.249-1.382 7.583999 2.437 9.392999 6.847 3.241 14.174-3.755 9.694-9.257999-1.092-1.341001-1.073-1.15-.249-2.418001 3.189-4.908-1.996-10.949-7.917-9.225m16.917-.004c-4.195 1.09-6.167 4.457-6.167 10.528 0 7.699 3.514 12.105 9.029 11.324 4.635-.657 6.83-4.121 6.86-10.829.011-2.584-.058-3.099-.756-5.584-1.217-4.34-4.81-6.519-8.966-5.439m16.833-.043c-3.73 1.168-5.44 4.041-5.779 9.709-.544 9.082 5.326 14.616 11.827 11.151 5.587-2.978 5.549-17.439-.054-20.297-1.651-.842-4.306-1.092-5.994-.563m87.575 1.296c-2.067.916-.77 4.079 1.316 3.208 1.158-.484 1.429-1.77.567-2.685-.64-.679-1.186-.831-1.883-.523m4.758-.113c-1.653.602-1.523 3.095.182 3.469 1.176.259 2.386-1.204 1.919-2.32-.366-.876-1.359-1.419-2.101-1.149m-79.251.219c-.253.409-.234 3.488.024 3.745.359.36 9.082.378 9.379.02.127-.153.177-.851.146-2.042l-.048-1.809-4.697-.045c-3.136-.029-4.732.014-4.804.131m20.852.094c-.203.53-.112 8.991.099 9.203.132.132.834.2 2.05.2 1.217 0 1.919-.068 2.05-.2.285-.285.285-8.982 0-9.267-.33-.33-4.069-.273-4.199.064m11.167 0c-.055.145-.103 3.051-.105 6.458-.006 9.549001.258 9.168001-6.413 9.245-5.123.06-4.75-.113-4.75 2.199 0 2.16-.388 2.001 4.883 2.001 6.959 0 8.852-.943 10.343-5.151.399-1.128.649-13.983.284-14.664-.252-.471-4.065-.55-4.242-.088m22.667 0c-.19.494-.111 3.327.099 3.536.148.148 1.732.2 6.096.2h5.896l.487.488c.895.894.978.771-4.176 6.179-1.791 1.879001-3.623 3.809-4.071 4.289-1.031 1.103-1.923 1.544-3.118 1.544-1.244 0-1.314.108-1.314 2.028 0 2.04.031 2.066 2.322 1.906 2.713-.19 2.597-.124 5.638-3.196 1.49-1.506 2.779-2.738 2.864-2.738.372 0 1.821 2.15 3.084 4.578.332.638.695 1.218.806 1.289.239.152 3.473.179 3.855.032.739-.283-.387-2.667-3.52-7.449999-1.274-1.945001-1.298-1.728.388-3.500001 1.569-1.649 2.063-2.539 2.061-3.71-.005-2.437-1.572-4.599-3.916-5.406-1.335-.459-13.308-.521-13.481-.069m-40.662 1.273c-.056.209-.102 2.99-.104 6.18-.003 8.428.327 8.117-8.611 8.117-3.787 0-5.237.053-5.325.194-.153.248-.149 3.703.005 3.952.201.325 11.475.254 12.607-.079 2.48-.73 4.741-2.963 5.394-5.328.235-.850999.267-1.853999.226-7.156l-.048-6.167-2.021-.046c-1.981-.046-2.023-.039-2.123.333m-73.683 1.394c1.493.708 1.534 2.966.066 3.574-1.342.556001-2.828-.349-2.816-1.716.013-1.633 1.338-2.528 2.75-1.858m15.949.155c1.61 1.094.912 3.578-1.005 3.58-1.221.002-2.037-.8-2.028-1.994.011-1.664 1.655-2.523 3.033-1.586m33.706-.015c2.664 1.113 3.161 9.799001.707 12.385-2.275 2.397-4.612-.716-4.617-6.149-.004-4.561 1.641-7.184 3.91-6.236m-16.716.535c2.792 2.651 2.087 12.543-.909 12.754-1.76.123-2.824-1.233-3.356-4.277999-1.022-5.841001 1.584-11.020001 4.265-8.476001m26.805 2.891c-.279.176-.383 2.928-.138 3.631l.131.378 4.712-.045 4.711-.044.048-1.831c.041-1.576999.008-1.86-.24-2.042-.351-.257-8.825-.3-9.224-.047m-80.328 1.826c-.24.449-.22 2.563.028 2.811.285.285001 10.147.285001 10.433 0 .267-.268.267-2.666 0-2.934-.39-.389-10.248-.274-10.461.123m118.623.073c-.263.262-.271 3.362001-.01 3.623001.088.088 3.726.133 8.641.108l8.49-.043.048-1.726001c.031-1.129-.019-1.806-.145-1.958-.285-.343-16.681-.347-17.024-.004m-97.531 3.682001c1.356.888 1.417 2.972999.113 3.884999-1.042.729-2.093.628-3.063-.295-1.998-1.9.636-5.106 2.95-3.589999m15.762.108c1.839 1.308999.91 4.212999-1.347 4.210999-2.478-.001-3.332-3.275999-1.144-4.383999.84-.425 1.739-.363 2.491.173m-64.349 12.508999c-.494.184-.488-.244-.457 31.722001l.03 30.833004h6.25 6.25l.042-24.983004c.031-18.129.093-25.045.229-25.209.425-.513 5.337-.08 7.895.695 3.128.948 4.417 2.656 4.417 5.851 0 3.866-2.573 6.038-7.685 6.486-.698.062-1.351.163-1.451.225-.294.181-.299 11.681-.005 11.885.459.317 5.721-.176 8.404-.788 10.202-2.327 15.22-9.346 14.412-20.162-.788-10.549-6.978-15.327-21.258-16.408001-2.738-.208-16.588-.326-17.073-.147m70.989-.079c-16.699.833001-27.728 13.479001-27.734 31.801001-.007 20.254 14.013 33.289004 32.901 30.590004 2.424-.346 4.502-.784 4.716-.993.074-.071.128-2.744004.122-5.939004-.013-6.109-.023-6.189-.755-5.987-13.566 3.744-24.958-5.901-23.599-19.98 1.227-12.711 11.771-20.012 23.78-16.465 1.094.323 1.069.458 1.069-5.786 0-4.267-.05-5.696-.21-5.914-.484-.661-6.94-1.494001-10.29-1.327001m174.991.087c-.458.169-.517 62.354005-.06 62.530005.535.205 11.824.112 12.036-.099.324-.324.287-62.277005-.037-62.402005-.361-.138-11.57-.165-11.939-.029m-29.574.067c-13.113 1.297001-19.907 9.603001-21.184 25.897001-.538 6.867.185 14.106 1.99 19.917.808 2.6 1.83 4.878 3.326 7.416 4.37 7.411004 12.538 10.672004 21.89 8.740004 7.677-1.585 12.232-5.669004 15.235-13.656004 5.11-13.595 2.379-35.306-5.406-42.976-3.69-3.636-10.356-5.881001-15.851-5.338001m-301.46901.34c-.111.407001-.519 2.251001-.951 4.307001-.193.917-.418 1.967-.501 2.333-.083.367-.308 1.417-.501 2.334-.54 2.569-.806 3.816-1.074 5.041-.835 3.822-1.403 6.514-1.45 6.875-.092.711-.666.521-1.572-.521-.448-.516-3.215-3.619-6.149-6.897-2.933-3.277-6.008-6.724-6.833-7.659-1.519-1.723-3.737-4.201-4.685-5.234-.619-.674001-.767-.625001-1.782.586-.385.46-1.825 2.133-3.2 3.718-5.358999 6.178-5.066999 5.646-3.497999 6.393 2.807999 1.336 3.365999 3.052 2.420999 7.448-.286 1.329-.773 3.616-1.083 5.083-.308999 1.467-.682999 3.229-.829999 3.917-.146.687-.487 2.3-.755 3.583-.269 1.283-.719 3.421-1 4.75-1.271 6.011-1.298 5.692.404 4.862.596-.291 1.123-.529 1.17-.529s.78-.324 1.628999-.719c.848-.396 2.48-1.123 3.626-1.615 3.144-1.35 3.13-1.065.17-3.5-2.718-2.235-2.555-1.757-1.837-5.386 1.629-8.236 2.167-10.976 2.167-11.041 0-.297.629.051 1.151.636.348.39 2.792 3.146 5.431 6.125 2.638 2.98 5.033 5.679 5.321 6s1.121 1.261 1.852 2.09c5.085 5.767 7.317 8.244 7.429 8.244.256 0 .402-.451.835-2.584.242-1.191.873-4.266 1.402-6.833s1.019-4.967 1.087-5.333c.069-.367.388-1.942.711-3.5 1.249-6.035 2.141-10.389 2.39-11.667.381-1.96.33-1.908 3.972-4.057 1.821-1.075 3.339-2.037 3.372-2.138.062-.184-.654-.656-5.522-3.641-2.954-1.811001-3.194-1.918001-3.317-1.471001m207.63601-.102c-9.561.907001-16.161 7.274001-16.836 16.242001-.294 3.901.666 6.911 3.937 12.357.974 1.62.963 1.482.187 2.31-4.792 5.113-5.806 7.44-5.659 12.989.21 7.947 4.963 14.075 13.009 16.770004 16.139 5.408 31.042-5.627004 28.372-21.008004-.415-2.394-1.838-4.687-4.877-7.862-1.58-1.65-1.583-1.662-.805-2.681 2.234-2.927 3.387-5.024 3.914-7.125 2.733-10.88-5.069-21.014-16.935-21.997001-2.164-.18-2.361-.18-4.307.005m45.666-.008c-8.058.715001-14.342 5.642001-16.259 12.750001-1.386 5.137-.653 8.966 2.875 15.015.593 1.017 1.127 1.976 1.187 2.132.096.249-.645 1.255-1.487 2.019-7.674 6.964-6.034 20.148 3.268 26.27 13.153 8.657004 31.135 2.327004 33.421-11.765 1.018-6.277-.166-9.707-5.133-14.873-.866-.9-1.272-1.442-1.189-1.583.07-.118.367-.515.66-.881 1.809-2.266 3.407-5.058 3.814-6.667 2.492-9.84-2.933-18.941-12.955-21.736-2.567-.716001-5.275-.941001-8.202-.681001m-185.25.443001c-12.576 1.202-21.93901 8.129-24.49501 18.122-3.745 14.642 7.52401 26.357 21.80201 22.665 2.297-.594 2.334-.624 3.185-2.506.408-.902.996-2.203 1.307-2.89.672-1.489 1.065-2.352 1.78-3.917 2.499-5.467 2.772-6.242 2.048-5.814-.116.068-.51.311-.877.54-4.717 2.941-10.342 4.291-13.649 3.276-5.979-1.835-9.154-9.703-6.247-15.476 2.484-4.932 7.647-9.332 11.396-9.709 1.258-.127.861-.551 5.125 5.475 1.32 1.865 1.23 1.836 3.138 1.035 2.356-.99 2.821-1.23 2.821-1.46 0-.776-2.73-7.998-3.431-9.075-.245-.378-1.699-.477-3.903-.266m-58.08001 1.22c-.211.34.299.858 1.559 1.585 1.881 1.085 1.934 1.164 1.721 2.539-.208 1.34-2.115 11.91-2.377 13.176-.22 1.066-.49 1.265-2.061 1.53-2.262.38-2.484 1.341-.31 1.341 1.689 0 1.8.394 1.123 4-.232 1.237-.531 2.868-.665 3.625-1.515 8.571-1.411 8.15-2.105 8.499-.213.108-1.008.429-1.766.715s-1.602.709-1.875.939c-1.114.937-1.934.894 16.031.847l16.528-.042.12-.417c.067-.229.285-1.504.487-2.833.315-2.083.983-6.22 1.286-7.958.113-.646-.233-.749-.621-.186-3.790265 6.371774-9.098759 8.634535-14.134 8.644-3.966 0-3.682.248-3.129-2.731.223-1.202.566-3.086.762-4.186s.428-2.375.516-2.833.311-1.696.495-2.75c.465-2.655.459-2.635.839-2.839 1.581-.846 5.469 1.842 6.884 4.761.354.73.7 1.44.768 1.578.234.472.583.266.705-.417.138-.769 1.106-5.982 1.812-9.75.266-1.42.604-3.129.751-3.797.422-1.914.299-1.901-1.797.191-2.803 2.797-4.973 4.103-7.041 4.236-1.533.098-1.728-.082-1.454-1.344.209-.964 1.804-10.263 2.045-11.924.272-1.877-.179-1.73 5.121-1.667 5.238.063 5.032.013 6.554 1.587 1.395 1.443 2.91 4.356 3.22 6.191.225 1.328.799 1.01.982-.544.058-.496.42-2.652.804-4.791.384-2.138.703-4.15.708-4.471l.011-.583-16.198-.043c-10.493-.027-16.234.015-16.299.122m202.27601 10.46c2.955 1.319 4.238 4.992 2.791 7.992-1.656 3.434-7.164 3.898-9.502.801-3.61-4.782 1.296-11.211 6.711-8.793m45.85.123c4.134 1.992 4.334 8.149.328 10.121-4.011 1.975-8.37-.647-8.37-5.033 0-4.393 4.1-6.987 8.042-5.088m46.965.474c8.845 4.213 8.991 32.517.19 36.799-6.049 2.943-11.196-5.593-11.2-18.573-.004-13.122 4.851-21.159 11.01-18.226m-136.231 13.723c-.062.062-.113 2.124-.113 4.582v4.469l.375.091c.206.05 3.487.07 7.292.045l6.916-.046v-4.584-4.583l-7.178-.043c-3.949-.024-7.23.007-7.292.069m43.935 11.059c4.227 1.581 5.463 7.684 2.209 10.911-3.498 3.469-10.033 1.945-11.317-2.64-1.636-5.838 3.397-10.408 9.108-8.271m44.783-.242c6.842 1.613 6.462 11.78-.483 12.927-4.401.727-7.845-2-7.989-6.324-.159-4.812 3.609-7.749 8.472-6.603"/><path d="m135.55697 12.81857c-.297.133-.306 21.735-.009 22.032.284.284 3.898.276 4.082-.008.074-.115.172-4.146.218-8.959l.084-8.75.623-.051c1.068-.089 2.648.404 3.187.993 1.209 1.323-.038 3.642-1.96 3.642-.861 0-1.397 2.823-.761 4.011.327.61 3.421.162 4.991-.724 4.219-2.38 4.182-9.18-.06-11.187-1.753-.829-9.182-1.544-10.395-.999m22.025.135c-10.665 2.441-10.85 19.707-.234 21.852 1.561.315 3.581.264 4.75-.12l.667-.22v-1.986-1.987l-2.083-.012c-3.527-.022-5.408-1.463-6.229-4.774-1.224-4.936 2.708-9.564 7.237-8.519 1.285.297 1.345.201 1.289-2.035-.047-1.834-.051-1.85-.506-2.068-.688-.329-3.677-.409-4.891-.131m23.516.245c-4.158 1.211-5.883 5.055-3.958 8.822.853 1.67.852 1.636.134 2.474-3.518 4.11-.896 9.474 5.083 10.402 6.15.954 10.629-5.874 6.717-10.239-.838-.935-.868-1.105-.328-1.826 2.797-3.733.632-8.771-4.198-9.766-1.217-.251-2.271-.21-3.45.133m15.667 0c-4.426 1.289-6.071 5.531-3.641 9.39.532.846.501 1.048-.324 2.118-2.507 3.249-1.382 7.584 2.437 9.393 6.847 3.241 14.174-3.755 9.694-9.258-1.092-1.341-1.073-1.15-.249-2.418 3.189-4.908-1.996-10.949-7.917-9.225m16.917-.004c-4.195 1.09-6.167 4.457-6.167 10.528 0 7.699 3.514 12.105 9.029 11.324 4.635-.657 6.83-4.121 6.86-10.829.011-2.584-.058-3.099-.756-5.584-1.217-4.34-4.81-6.519-8.966-5.439m16.833-.043c-3.73 1.168-5.44 4.041-5.779 9.709-.544 9.082 5.326 14.616 11.827 11.151 5.587-2.978 5.549-17.439-.054-20.297-1.651-.842-4.306-1.092-5.994-.563m87.575 1.296c-2.067.916-.77 4.079 1.316 3.208 1.158-.484 1.429-1.77.567-2.685-.64-.679-1.186-.831-1.883-.523m4.758-.113c-1.653.602-1.523 3.095.182 3.469 1.176.259 2.386-1.204 1.919-2.32-.366-.876-1.359-1.419-2.101-1.149m-79.251.219c-.253.409-.234 3.488.024 3.745.359.36 9.082.378 9.379.02.127-.153.177-.851.146-2.042l-.048-1.809-4.697-.045c-3.136-.029-4.732.014-4.804.131m20.852.094c-.203.53-.112 8.991.099 9.203.132.132.834.2 2.05.2 1.217 0 1.919-.068 2.05-.2.285-.285.285-8.982 0-9.267-.33-.33-4.069-.273-4.199.064m11.167 0c-.055.145-.103 3.051-.105 6.458-.006 9.549.258 9.168-6.413 9.245-5.123.06-4.75-.113-4.75 2.199 0 2.16-.388 2.001 4.883 2.001 6.959 0 8.852-.943 10.343-5.151.399-1.128.649-13.983.284-14.664-.252-.471-4.065-.55-4.242-.088m22.667 0c-.19.494-.111 3.327.099 3.536.148.148 1.732.2 6.096.2h5.896l.487.488c.895.894.978.771-4.176 6.179-1.791 1.879-3.623 3.809-4.071 4.289-1.031 1.103-1.923 1.544-3.118 1.544-1.244 0-1.314.108-1.314 2.028 0 2.04.031 2.066 2.322 1.906 2.713-.19 2.597-.124 5.638-3.196 1.49-1.506 2.779-2.738 2.864-2.738.372 0 1.821 2.15 3.084 4.578.332.638.695 1.218.806 1.289.239.152 3.473.179 3.855.032.739-.283-.387-2.667-3.52-7.45-1.274-1.945-1.298-1.728.388-3.5 1.569-1.649 2.063-2.539 2.061-3.71-.005-2.437-1.572-4.599-3.916-5.406-1.335-.459-13.308-.521-13.481-.069m-40.662 1.273c-.056.209-.102 2.99-.104 6.18-.003 8.428.327 8.117-8.611 8.117-3.787 0-5.237.053-5.325.194-.153.248-.149 3.703.005 3.952.201.325 11.475.254 12.607-.079 2.48-.73 4.741-2.963 5.394-5.328.235-.851.267-1.854.226-7.156l-.048-6.167-2.021-.046c-1.981-.046-2.023-.039-2.123.333m-73.683 1.394c1.493.708 1.534 2.966.066 3.574-1.342.556-2.828-.349-2.816-1.716.013-1.633 1.338-2.528 2.75-1.858m15.949.155c1.61 1.094.912 3.578-1.005 3.58-1.221.002-2.037-.8-2.028-1.994.011-1.664 1.655-2.523 3.033-1.586m33.706-.015c2.664 1.113 3.161 9.799.707 12.385-2.275 2.397-4.612-.716-4.617-6.149-.004-4.561 1.641-7.184 3.91-6.236m-16.716.535c2.792 2.651 2.087 12.543-.909 12.754-1.76.123-2.824-1.233-3.356-4.278-1.022-5.841 1.584-11.02 4.265-8.476m26.805 2.891c-.279.176-.383 2.928-.138 3.631l.131.378 4.712-.045 4.711-.044.048-1.831c.041-1.577.008-1.86-.24-2.042-.351-.257-8.825-.3-9.224-.047m-80.328 1.826c-.24.449-.22 2.563.028 2.811.285.285 10.147.285 10.433 0 .267-.268.267-2.666 0-2.934-.39-.389-10.248-.274-10.461.123m118.623.073c-.263.262-.271 3.362-.01 3.623.088.088 3.726.133 8.641.108l8.49-.043.048-1.726c.031-1.129-.019-1.806-.145-1.958-.285-.343-16.681-.347-17.024-.004m-97.531 3.682c1.356.888 1.417 2.973.113 3.885-1.042.729-2.093.628-3.063-.295-1.998-1.9.636-5.106 2.95-3.59m15.762.108c1.839 1.309.91 4.213-1.347 4.211-2.478-.001-3.332-3.276-1.144-4.384.84-.425 1.739-.363 2.491.173m-64.349 12.509c-.494.184-.488-.244-.457 31.722l.03 30.833h6.25 6.25l.042-24.983c.031-18.129.093-25.045.229-25.209.425-.513 5.337-.08 7.895.695 3.128.948 4.417 2.656 4.417 5.851 0 3.866-2.573 6.038-7.685 6.486-.698.062-1.351.163-1.451.225-.294.181-.299 11.681-.005 11.885.459.317 5.721-.176 8.404-.788 10.202-2.327 15.22-9.346 14.412-20.162-.788-10.549-6.978-15.327-21.258-16.408-2.738-.208-16.588-.326-17.073-.147m70.989-.079c-16.699.833-27.728 13.479-27.734 31.801-.007 20.254 14.013 33.289 32.901 30.59 2.424-.346 4.502-.784 4.716-.993.074-.071.128-2.744.122-5.939-.013-6.109-.023-6.189-.755-5.987-13.566 3.744-24.958-5.901-23.599-19.98 1.227-12.711 11.771-20.012 23.78-16.465 1.094.323 1.069.458 1.069-5.786 0-4.267-.05-5.696-.21-5.914-.484-.661-6.94-1.494-10.29-1.327m174.991.087c-.458.169-.517 62.354-.06 62.53.535.205 11.824.112 12.036-.099.324-.324.287-62.277-.037-62.402-.361-.138-11.57-.165-11.939-.029m-29.574.067c-13.113 1.297-19.907 9.603-21.184 25.897-.538 6.867.185 14.106 1.99 19.917.808 2.6 1.83 4.878 3.326 7.416 4.37 7.411 12.538 10.672 21.89 8.74 7.677-1.585 12.232-5.669 15.235-13.656 5.11-13.595 2.379-35.306-5.406-42.976-3.69-3.636-10.356-5.881-15.851-5.338m-301.469004.34c-.111.407-.519 2.251-.951 4.307-.193.917-.418 1.967-.501 2.333-.083.367-.308 1.417-.501 2.334-.54 2.569-.806 3.816-1.074 5.041-.835 3.822-1.403 6.514-1.45 6.875-.092.711-.666.521-1.572-.521-.448-.516-3.215-3.619-6.149-6.897-2.933-3.277-6.008-6.724-6.833-7.659-1.519-1.723-3.737-4.201-4.685-5.234-.619-.674-.767-.625-1.782.586-.385.46-1.825 2.133-3.2 3.718-5.359 6.178-5.067 5.646-3.498 6.393 2.808 1.336 3.366 3.052 2.421 7.448-.286 1.329-.773 3.616-1.083 5.083-.309 1.467-.683 3.229-.83 3.917-.146.687-.487 2.3-.755 3.583-.269 1.283-.719 3.421-1 4.75-1.271 6.011-1.298 5.692.404 4.862.596-.291 1.123-.529 1.17-.529s.78-.324 1.629-.719c.848-.396 2.48-1.123 3.626-1.615 3.144-1.35 3.13-1.065.17-3.5-2.718-2.235-2.555-1.757-1.837-5.386 1.629-8.236 2.167-10.976 2.167-11.041 0-.297.629.051 1.151.636.348.39 2.792 3.146 5.431 6.125 2.638 2.98 5.033 5.679 5.321 6s1.121 1.261 1.852 2.09c5.085 5.767 7.317 8.244 7.429 8.244.256 0 .402-.451.835-2.584.242-1.191.873-4.266 1.402-6.833s1.019-4.967 1.087-5.333c.069-.367.388-1.942.711-3.5 1.249-6.035 2.141-10.389 2.39-11.667.381-1.96.33-1.908 3.972-4.057 1.821-1.075 3.339-2.037 3.372-2.138.062-.184-.654-.656-5.522-3.641-2.954-1.811-3.194-1.918-3.317-1.471m207.636004-.102c-9.561.907-16.161 7.274-16.836 16.242-.294 3.901.666 6.911 3.937 12.357.974 1.62.963 1.482.187 2.31-4.792 5.113-5.806 7.44-5.659 12.989.21 7.947 4.963 14.075 13.009 16.77 16.139 5.408 31.042-5.627 28.372-21.008-.415-2.394-1.838-4.687-4.877-7.862-1.58-1.65-1.583-1.662-.805-2.681 2.234-2.927 3.387-5.024 3.914-7.125 2.733-10.88-5.069-21.014-16.935-21.997-2.164-.18-2.361-.18-4.307.005m45.666-.008c-8.058.715-14.342 5.642-16.259 12.75-1.386 5.137-.653 8.966 2.875 15.015.593 1.017 1.127 1.976 1.187 2.132.096.249-.645 1.255-1.487 2.019-7.674 6.964-6.034 20.148 3.268 26.27 13.153 8.657 31.135 2.327 33.421-11.765 1.018-6.277-.166-9.707-5.133-14.873-.866-.9-1.272-1.442-1.189-1.583.07-.118.367-.515.66-.881 1.809-2.266 3.407-5.058 3.814-6.667 2.492-9.84-2.933-18.941-12.955-21.736-2.567-.716-5.275-.941-8.202-.681m-185.25.443c-12.576 1.202-21.939004 8.129-24.495004 18.122-3.745 14.642 7.524004 26.357 21.802004 22.665 2.297-.594 2.334-.624 3.185-2.506.408-.902.996-2.203 1.307-2.89.672-1.489 1.065-2.352 1.78-3.917 2.499-5.467 2.772-6.242 2.048-5.814-.116.068-.51.311-.877.54-4.717 2.941-10.342 4.291-13.649 3.276-5.979-1.835-9.154-9.703-6.247-15.476 2.484-4.932 7.647-9.332 11.396-9.709 1.258-.127.861-.551 5.125 5.475 1.32 1.865 1.23 1.836 3.138 1.035 2.356-.99 2.821-1.23 2.821-1.46 0-.776-2.73-7.998-3.431-9.075-.245-.378-1.699-.477-3.903-.266m-58.080004 1.22c-.211.34.299.858 1.559 1.585 1.881 1.085 1.934 1.164 1.721 2.539-.208 1.34-2.115 11.91-2.377 13.176-.22 1.066-.49 1.265-2.061 1.53-2.262.38-2.484 1.341-.31 1.341 1.689 0 1.8.394 1.123 4-.232 1.237-.531 2.868-.665 3.625-1.515 8.571-1.411 8.15-2.105 8.499-.213.108-1.008.429-1.766.715s-1.602.709-1.875.939c-1.114.937-1.934.894 16.031.847l16.528-.042.12-.417c.067-.229.285-1.504.487-2.833.315-2.083.983-6.22 1.286-7.958.113-.646-.233-.749-.621-.186-3.790265 6.371774-9.098759 8.634535-14.134 8.644-3.966 0-3.682.248-3.129-2.731.223-1.202.566-3.086.762-4.186s.428-2.375.516-2.833.311-1.696.495-2.75c.465-2.655.459-2.635.839-2.839 1.581-.846 5.469 1.842 6.884 4.761.354.73.7 1.44.768 1.578.234.472.583.266.705-.417.138-.769 1.106-5.982 1.812-9.75.266-1.42.604-3.129.751-3.797.422-1.914.299-1.901-1.797.191-2.803 2.797-4.973 4.103-7.041 4.236-1.533.098-1.728-.082-1.454-1.344.209-.964 1.804-10.263 2.045-11.924.272-1.877-.179-1.73 5.121-1.667 5.238.063 5.032.013 6.554 1.587 1.395 1.443 2.91 4.356 3.22 6.191.225 1.328.799 1.01.982-.544.058-.496.42-2.652.804-4.791.384-2.138.703-4.15.708-4.471l.011-.583-16.198-.043c-10.493-.027-16.234.015-16.299.122m202.276004 10.46c2.955 1.319 4.238 4.992 2.791 7.992-1.656 3.434-7.164 3.898-9.502.801-3.61-4.782 1.296-11.211 6.711-8.793m45.85.123c4.134 1.992 4.334 8.149.328 10.121-4.011 1.975-8.37-.647-8.37-5.033 0-4.393 4.1-6.987 8.042-5.088m46.965.474c8.845 4.213 8.991 32.517.19 36.799-6.049 2.943-11.196-5.593-11.2-18.573-.004-13.122 4.851-21.159 11.01-18.226m-136.231 13.723c-.062.062-.113 2.124-.113 4.582v4.469l.375.091c.206.05 3.487.07 7.292.045l6.916-.046v-4.584-4.583l-7.178-.043c-3.949-.024-7.23.007-7.292.069m43.935 11.059c4.227 1.581 5.463 7.684 2.209 10.911-3.498 3.469-10.033 1.945-11.317-2.64-1.636-5.838 3.397-10.408 9.108-8.271m44.783-.242c6.842 1.613 6.462 11.78-.483 12.927-4.401.727-7.845-2-7.989-6.324-.159-4.812 3.609-7.749 8.472-6.603" fill="#f2f2f2"/></g></svg>