<svg height="31.500059mm" viewBox="0 0 84.718475 31.500059" width="84.718475mm" xmlns="http://www.w3.org/2000/svg"><g fill="#656565"><g transform="matrix(.71908477 0 0 .71908477 -9.024352 -111.603542)"><path d="m35.360669 187.41809v-.24341c.01058-.52917.05292-.71967.232832-.78317.22225-.0953.783164-.127 2.14841-.127 1.12183 0 1.407579.0106 1.598078.0741.264583.0741.338666.22225.338666.635 0 .57149-.09525.62441-1.344079.71966-1.947327.15875-2.952741.23283-3.037407.24342-1.100663.14816-1.555745.41274-1.777994 1.06891-.116417.32808-.15875.86783-.15875 2.04258 0 .33866 0 .45508.03175.80433h8.413723v-1.61925h-6.445229v-.0741c.01058-.34925.08467-.48683.349249-.59267.137582-.0635.550331-.0952 3.513655-.28575 1.195913-.0635 1.852077-.29633 2.158993-.75141.222249-.33866.306916-.75141.306916-1.58749 0-1.12183-.148166-1.5875-.624415-1.89441-.465665-.30692-.814914-.33867-3.757071-.33867-3.577155 0-4.021654.26458-4.021654 2.40241v.30691z"/><path d="m47.11871 184.70877c-1.291162 0-2.317742.0423-2.846907.127-.836081.11642-1.365246.60325-1.502829 1.36524-.07408.40217-.08467.59267-.08467 2.02142 0 1.68274 0 1.79916.08467 2.22249.137583.762.666748 1.24883 1.502829 1.36524.518581.0847 1.555745.127 2.846907.127 1.28058 0 2.317743-.0423 2.836325-.127.83608-.11641 1.365245-.60324 1.502828-1.36524.07408-.41275.08467-.5715.08467-2.12725 0-1.54516-.01058-1.70391-.08467-2.11666-.137583-.76199-.666748-1.24882-1.502828-1.36524-.529165-.0847-1.555745-.127-2.836325-.127zm-.137582 1.83091c2.370659 0 2.412992.0317 2.412992 1.77799 0 1.75683-.03175 1.78858-2.423576 1.78858-2.063743 0-2.137826-.0635-2.137826-1.82033 0-1.67216.09525-1.74624 2.14841-1.74624z"/><path d="m56.717759 184.70877c-1.291163 0-2.317743.0423-2.846908.127-.83608.11642-1.365245.60325-1.502828 1.36524-.07408.40217-.08467.59267-.08467 2.02142 0 1.68274 0 1.79916.08467 2.22249.137583.762.666748 1.24883 1.502828 1.36524.518582.0847 1.555745.127 2.846908.127 1.280579 0 2.317743-.0423 2.836324-.127.836081-.11641 1.365246-.60324 1.502829-1.36524.07408-.41275.08467-.5715.08467-2.12725 0-1.54516-.01058-1.70391-.08467-2.11666-.137583-.76199-.666748-1.24882-1.502829-1.36524-.529165-.0847-1.555745-.127-2.836324-.127zm-.137583 1.83091c2.370659 0 2.412992.0317 2.412992 1.77799 0 1.75683-.03175 1.78858-2.423575 1.78858-2.063744 0-2.137827-.0635-2.137827-1.82033 0-1.67216.09525-1.74624 2.14841-1.74624z"/><path d="m64.803388 184.79344-2.582325 2.21191 1.185329 1.38641 2.08491-1.75683h.560915v5.21757h2.14841v-7.05906z"/><path d="m73.608669 189.51359v.33866c0 .97367.15875 1.38642.645582 1.69333.497415.3175 1.354662.41275 3.545405.41275 2.106077 0 2.995074-.0529 3.418406-.21167.730247-.27516 1.02658-.87841 1.02658-2.10607 0-.98425-.179916-1.4605-.666748-1.778-.455082-.28575-.910164-.33866-3.23849-.41275-1.492245-.0423-2.074326-.0741-2.264826-.127-.222249-.0529-.317499-.19049-.317499-.45508 0-.51858.148166-.56091 1.968494-.56091 1.523995 0 1.788578.0212 1.968494.127.158749.0952.190499.1905.211666.58208h2.074326c.01058-.13758.01058-.28575.01058-.32808 0-.83608-.169333-1.28058-.592665-1.56633-.497415-.33867-1.238246-.43392-3.291406-.43392-1.693328 0-2.666992.0423-3.079741.127-.973663.21167-1.354662.81492-1.354662 2.159 0 1.55574.486832 2.00024 2.233076 2.05316l.571499.0212 1.142996.0529 1.693328.0635c.687914.0106.846664.11641.846664.53975 0 .62441 0 .62441-2.30716.62441-1.513411 0-1.746244-.0212-1.947327-.14816-.169332-.10584-.211666-.24342-.211666-.66675z"/><path d="m87.652697 190.25442c-.07408.4445-.296332.52916-1.492245.52916-.677331 0-1.068913-.0635-1.269996-.21166-.179916-.13759-.232832-.30692-.232832-.81492h4.889484c.01058-.21166.01058-.4445.01058-.50799 0-1.13242-.169332-1.69333-.613831-2.06375-.455082-.37041-1.047747-.47625-2.741075-.47625-1.629828 0-2.254242.10584-2.741074.4445-.529165.37042-.677331.86783-.677331 2.21191 0 1.28058.148166 1.778.634998 2.14841.455081.33867 1.142996.46567 2.592908.46567 2.677575 0 3.365489-.33867 3.503072-1.72508zm-2.995073-1.524c.02117-.69849.317499-.85724 1.576911-.85724.740831 0 1.12183.0741 1.291163.254.116416.11641.137583.21166.148166.60324z"/><path d="m90.256176 186.8466v5.0059h1.873244v-2.07433c0-.77258.05292-1.04775.232832-1.29116.179916-.23284.529165-.35983.952497-.35983.772581 0 .984247.20108.984247.94191h1.767411v-.33867c0-1.50283-.507998-2.01082-2.02141-2.01082-1.047747 0-1.576912.24341-1.92616.87841h-.09525v-.75141z"/><path d="m96.595543 186.8466v5.0059h1.873244v-5.0059zm0-2.05316v1.40757h1.873244v-1.40757z"/><path d="m104.04619 190.25442c-.0741.4445-.29634.52916-1.49225.52916-.67733 0-1.06891-.0635-1.26999-.21166-.17992-.13759-.23284-.30692-.23284-.81492h4.88949c.0106-.21166.0106-.4445.0106-.50799 0-1.13242-.16933-1.69333-.61383-2.06375-.45508-.37041-1.04775-.47625-2.74107-.47625-1.62983 0-2.25425.10584-2.741079.4445-.529165.37042-.677332.86783-.677332 2.21191 0 1.28058.148167 1.778.634998 2.14841.455083.33867 1.142993.46567 2.592913.46567 2.67757 0 3.36549-.33867 3.50307-1.72508zm-2.99508-1.524c.0212-.69849.3175-.85724 1.57692-.85724.74083 0 1.12182.0741 1.29116.254.11641.11641.13758.21166.14816.60324z"/><path d="m106.49092 190.25442c.0106.58208.13758.93133.44449 1.20649.4445.41275 1.06892.51859 2.88925.51859 2.89982 0 3.57715-.32809 3.57715-1.75683 0-1.12183-.55033-1.54516-2.00024-1.55575-1.92616-.0106-2.25425-.0212-2.56116-.0423-.29633-.0212-.4445-.127-.4445-.32808 0-.3175.35983-.41275 1.53458-.41275.635 0 1.016.0423 1.17474.14817.0635.0423.0847.0741.127.23283h1.905c-.0423-.60325-.13758-.86783-.40217-1.0795-.42333-.35983-1.04774-.46566-2.75166-.46566-1.31232 0-2.19074.0741-2.5929.23283-.59267.22225-.86783.68791-.86783 1.46049 0 1.06892.59266 1.51342 2.01082 1.53458 1.8415 0 2.30716.0106 2.56116.0318.27517.0317.43392.16934.43392.37042 0 .35983-.34925.46566-1.56633.46566-1.17475 0-1.53458-.127-1.56633-.56091z"/></g><g stroke-width=".36352" transform="matrix(.75876221 0 0 .71908477 -10.347769 -112.084095)"><path d="m33.354391 182.3119h6.297161v-5.05634h7.941248c4.466952 0 5.862875-.12408 7.258797-.58939 2.48164-.89959 3.319194-2.69878 3.319194-7.28981 0-5.30451-1.116738-6.97962-5.025321-7.56901-1.147759-.1551-1.706128-.18612-5.614711-.18612h-14.176368zm6.297161-10.23676v-5.27349h7.879207c2.760825.031 2.822866.031 3.257153.18613.806533.27918 1.085717.89959 1.085717 2.38858 0 1.42694-.186123 1.98531-.775512 2.35755-.527349.31021-.651431.31021-3.567358.34123z"/><path d="m60.249124 161.62123v20.69067h23.017211v-4.96328h-16.813111v-3.28817h15.851476v-4.56001h-15.851476v-3.00899h16.689029v-4.87022z"/><path d="m83.793674 161.62123v5.27349h9.213089v15.41718h6.607367v-15.41718h9.21309v-5.27349z"/></g></g></svg>