<svg height="82" preserveAspectRatio="xMidYMid meet" viewBox="0 0 2900 820" width="290" xmlns="http://www.w3.org/2000/svg"><path d="m12 808c-17-17-17-379 0-396 7-7 25-12 40-12 24 0 28-4 28-29 0-16 6-34 13-40 19-15 775-15 794 0 7 6 13 24 13 40 0 26 4 29 30 29s30-4 30-28c0-48 12-52 170-52s170 4 170 52c0 24 4 28 30 28s30-4 30-28c0-15 5-33 12-40 17-17 379-17 396 0 7 7 12 40 12 79v68l118 3c64 2 132 1 150-1l32-3v-67c0-39 5-72 12-79 8-8 58-12 160-12h148v-68c0-75 9-92 52-92 24 0 28-4 28-28 0-36 16-52 52-52 24 0 28-4 28-28 0-42 17-52 90-52s90 10 90 52c0 24 4 28 28 28 36 0 52 16 52 52 0 24 4 28 28 28 42 0 52 17 52 90s-10 90-52 90c-24 0-28 4-28 28 0 36-16 52-52 52-24 0-28 4-28 28 0 42-17 52-90 52s-90-10-90-52c0-24-4-28-30-28h-30v188c0 133-4 192-12 200-17 17-459 17-476 0-7-7-12-40-12-80v-68h-110-110v28c0 36-16 52-52 52-24 0-28 4-28 29 0 16-6 33-13 40-19 15-1175 15-1194 0-17-15-18-140-1-157 7-7 25-12 40-12h28v-70-70h-30-30v68c0 40-5 73-12 80-8 8-49 12-120 12h-108v68c0 40-5 73-12 80-16 16-220 16-236 0zm868-238v-70h-30-30v70 70h30 30zm400 0v-70h-70-70v70 70h70 70z"/><path d="m2610 410v-40h-40-40v-40-40h-40-40v-40-40h40 40v-40-40h40 40v-40-40h40 40v40 40h40 40v40 40h40 40v40 40h-40-40v40 40h-40-40v40 40h-40-40z" fill="#00e756"/><path d="m2610 370v-80h-80-80v-40-40h40 40v-40-40h40 40v-40-40h40 40v40 40h40 40v40 40h40 40v40 40h-40-40v40 40h-40-40v40 40h-40-40z" fill="#ff004d"/><path d="m2610 370v-80h-80-80v-40-40h40 40v-40-40h120 120v40 40h40 40v40 40h-40-40v40 40h-40-40v40 40h-40-40z" fill="#83769c"/><path d="m2610 370v-80h-80-80v-40-40h40 40v-40-40h120 120v40 40h40 40v40 40h-80-80v80 80h-40-40z" fill="#ffa300"/><path d="m2610 370v-80h-80-80v-40-40h80 80v-40-40h80 80v40 40h40 40v40 40h-80-80v80 80h-40-40z" fill="#29adff"/><path d="m2610 330v-40h-80-80v-40-40h80 80v-40-40h80 80v40 40h40 40v40 40h-80-80v40 40h-40-40z" fill="#ff77a8"/><path d="m2610 330v-40h-80-80v-40-40h80 80v-40-40h80 80v80 80h-40-40v40 40h-40-40z" fill="#ffff27"/><path d="m2610 330v-40h-40-40v-40-40h40 40v-40-40h80 80v80 80h-40-40v40 40h-40-40z" fill="#fca"/><g fill="#fff1e8"><path d="m50 610v-160h40 40v-40-40h160 160v120 120h-120-120v80 80h-80-80zm240-120v-40h-40-40v40 40h40 40z"/><path d="m530 730v-40h40 40v-120-120h-40-40v-40-40h160 160v40 40h-40-40v120 120h40 40v40 40h-160-160z"/><path d="m930 610v-160h40 40v-40-40h120 120v40 40h-80-80v120 120h80 80v40 40h-160-160z"/><path d="m1330 610v-160h40 40v-40-40h160 160v160 160h-40-40v40 40h-160-160zm240-40v-120h-40-40v120 120h40 40z"/><path d="m2050 650v-120h40 40v-80-80h160 160v200 200h-200-200zm320 0v-40h-80-80v40 40h80 80zm0-160v-40h-80-80v40 40h80 80z"/><path d="m1810 570v-40h80 80v40 40h-80-80z"/><path d="m2610 330v-40h-40-40v-40-40h40 40v-40-40h40 40v40 40h40 40v40 40h-40-40v40 40h-40-40z"/></g></svg>