<svg height="129.104" viewBox="48.598 9.613 354.746 129.104" width="354.746" xmlns="http://www.w3.org/2000/svg" xmlns:xlink="http://www.w3.org/1999/xlink"><linearGradient id="a"><stop offset="0" stop-color="#9b9b9b"/><stop offset="1" stop-color="#5b5c60"/></linearGradient><linearGradient id="b" gradientTransform="matrix(.93518886 0 0 .88389915 -46.230842 8.005966)" gradientUnits="userSpaceOnUse" x1="200.2363" x2="200.2363" xlink:href="#a" y1="91.4241" y2="23.4241"/><linearGradient id="c" gradientTransform="matrix(.93518886 0 0 .88389915 -46.230842 8.005966)" gradientUnits="userSpaceOnUse" x1="246.4277" x2="246.4277" xlink:href="#a" y1="91.4241" y2="23.4241"/><linearGradient id="d" gradientTransform="matrix(.93518886 0 0 .88389915 -46.230842 8.005966)" gradientUnits="userSpaceOnUse" x1="290.7935" x2="290.7935" xlink:href="#a" y1="91.4241" y2="23.4241"/><linearGradient id="e" gradientTransform="matrix(.93518886 0 0 .88389915 -46.230842 8.005966)" gradientUnits="userSpaceOnUse" x1="336.7144" x2="336.7144" xlink:href="#a" y1="91.4241" y2="23.4241"/><linearGradient id="f" gradientTransform="matrix(.93518886 0 0 .88389915 -46.230842 8.005966)" gradientUnits="userSpaceOnUse" x1="380.4038" x2="380.4038" xlink:href="#a" y1="91.4241" y2="23.4241"/><linearGradient id="g"><stop offset="0" stop-color="#f9da55"/><stop offset="1" stop-color="#e04305"/></linearGradient><linearGradient id="h" gradientTransform="matrix(.93518886 0 0 .88389915 -46.230842 8.005966)" gradientUnits="userSpaceOnUse" x1="201.0303" x2="201.0303" xlink:href="#g" y1="132.3713" y2="61.6219"/><linearGradient id="i" gradientTransform="matrix(.93518886 0 0 .88389915 -46.230842 8.005966)" gradientUnits="userSpaceOnUse" x1="246.4106" x2="246.4106" xlink:href="#g" y1="132.3713" y2="61.6219"/><linearGradient id="j" gradientTransform="matrix(.93518886 0 0 .88389915 -46.230842 8.005966)" gradientUnits="userSpaceOnUse" x1="291.3853" x2="291.3853" xlink:href="#g" y1="132.3713" y2="61.6219"/><linearGradient id="k" gradientTransform="matrix(.93518886 0 0 .88389915 -46.230842 8.005966)" gradientUnits="userSpaceOnUse" x1="336.4272" x2="336.4272" xlink:href="#g" y1="132.3713" y2="61.6219"/><linearGradient id="l" gradientTransform="matrix(.93518886 0 0 .88389915 -46.230842 8.005966)" gradientUnits="userSpaceOnUse" x1="381.1987" x2="381.1987" xlink:href="#g" y1="132.3713" y2="61.6219"/><g stroke-width=".909182"><path d="m122.49593 120.82862 1.01188-2.27073v-87.637722l-2.52969-2.989347h31.4981l8.60186 4.902105v40.769848l-23.40216 12.314484v20.803452h3.1628zm14.92655-49.856329 10.11968-5.739158v-23.194397h-10.11968z" fill="url(#b)"/><path d="m197.63461 27.930821 5.56625 6.098021v69.584078l-20.61905 16.49886-17.32998-15.1845v-70.420249l5.31281-6.57621zm-18.08935 12.912883v53.801174l8.47561 7.054402v-60.85646h-8.47561z" fill="url(#c)"/><path d="m207.75336 118.79654v-87.876372l-2.52969-2.989347h31.49716l8.60187 4.902105v25.227366l-13.28249 7.173726 13.28249 6.695536v23.075071l.88562.717726-14.67404 10.162189v-28.33604l-9.61281-4.782778v35.987958l1.8975 2.63048-17.45717 12.19516zm13.91374-60.975785 10.11968-5.739157v-10.042862h-10.11968z" fill="url(#d)"/><path d="m261.13394 42.038736h-11.25781v-11.119451l-2.52968-2.989348h42.62965l-2.52969 2.989348v11.119451h-12.27155v68.267954l2.02375 2.87002-17.58342 11.95562 1.51781-6.45688v-76.636714z" fill="url(#e)"/><path d="m320.96639 27.930821 8.60186 4.902105v12.075831h-15.17998v-2.869138h-8.47562v17.814104l23.6556 12.075831v19.727745l-38.58215 29.172211 1.01188-2.27074v-39.217722h13.91467v8.488968l8.47562-5.858484v-4.902105l-22.38936-11.95562v-34.193639l-2.52969-2.989347z" fill="url(#f)"/><path d="m161.06125 65.640611v7.915317l-23.40217 12.314483v20.803449h3.16281l-18.34186 14.10792 1.01188-2.27074v-32.540748" fill="url(#h)"/><path d="m203.18403 85.086393v18.478797l-20.61905 16.49886-17.32998-15.1845v-39.607525l14.29342 7.365532v21.959591l8.47562 7.054402v-24.446002z" fill="url(#i)"/><path d="m221.90464 79.193437v29.513393l1.89749 2.63049-17.45623 12.19427 1.39062-4.7819v-33.221348m33.91463-15.488565 3.65565 1.84293v23.074187l.88563.717727-14.67405 10.162189v-28.335156l-2.84672-1.416007" fill="url(#j)"/><path d="m275.1599 76.983689v33.276151l2.02375 2.87002-17.58342 11.95563 1.51781-6.45689v-49.967706" fill="url(#k)"/><path d="m321.02904 67.531271 8.52331 4.351436v19.726862l-38.58215 29.172211 1.01188-2.27074v-39.215955h13.91467v8.488967l8.47562-5.858483v-4.902104l-7.20096-3.845846" fill="url(#l)"/></g><g fill="#542209" transform="matrix(.93518886 0 0 .88389916 -46.230842 8.005966)"><path d="m181.962 87.057 38.251-22.125 1.001 1.732-38.249 22.125z"/><path d="m226.737 66.302.954-1.758 14.189 7.699-.951 1.757z"/><path d="m250.956 79.409 1.016-1.723 14.625 8.627-1.017 1.722z"/><path d="m271.639 86.906 14.374-7.25.903 1.786-14.375 7.249z"/><path d="m294.122 75.663 11.374-6 .933 1.771-11.375 6z"/><path d="m329.037 69.633 1.102-1.669 12.501 8.249-1.103 1.67z"/><path d="m377.924 72.513 12.873-5.875.832 1.82-12.875 5.876z"/></g><path d="m122.10315 117.849v-86.907618l-4.04282-4.77836h34.80492l9.61375 5.478408v42.298994l-23.40217 12.313599v18.698007h5.70465l-21.40086 16.46173-4.36359 3.35528zm1.68428 3.05122-1.29337-.51443zm1.12222-90.8887v86.80686l11.97977-9.21466h-.61722v-22.908011l23.39936-12.315367v-39.242471l-7.58625-4.323151-28.19127-.0017zm11.10818 10.259417h12.92618v25.270677l-10.80237 6.124538-.72103-1.136694.72103 1.136694-2.12381 1.207405zm2.80556 27.916188 7.31318-4.146372v-21.118118l-7.31318-.0017z" stroke-width=".909182"/><path d="m163.84718 105.06163v-71.445569l6.02074-7.453039h27.76482v1.325849-1.325849h.64061l6.32936 6.928887v70.691601l-22.06578 17.65678zm2.80463-70.548411v69.393151l15.97022 13.99213 19.17417-15.34096v-68.480084l-4.80687-5.26362h-25.73265zm11.48973 60.288109v-54.399573-1.325849h11.28118v65.118614zm2.80556-1.197684 5.66912 4.719141v-56.595182h-5.66912zm-1.40278-51.876041v-1.325848z" stroke-width=".909182"/><path d="m206.3487 118.17162-.002-87.230238-4.04375-4.779243h34.80586l9.61654 5.479291v26.745904l-11.78525 6.36319 11.78525 5.940686-.002 23.260692 1.74039 1.408051-18.33344 12.692797v-30.147154l-6.80724-3.386218v33.383102l2.41465 3.34556-21.80673 15.23223zm2.80557.36151-.36753 1.25868 13.11135-9.15807-1.38127-1.91631v-38.590147l12.4193 6.176688-.002 26.520509 11.01653-7.628932-.0337-.02563v-22.887689l-14.78066-7.450386 14.78066-7.983377v-23.709711l-7.58906-4.324919h-28.18752l1.01468 1.198568v88.340416.18031zm11.10911-78.262193h12.92524v12.117374l-10.80049 6.127189-.72197-1.137579.72197 1.137579-2.12475 1.204754zm2.80463 14.765536 7.31411-4.148139v-7.966583h-7.31411z" stroke-width=".909182"/><path d="m259.72928 118.08942v-75.167669h-11.2578v-11.980369l-4.04282-4.77836h48.46523l-4.04563 4.780128v11.978601h-12.27155v66.541699l2.53997 3.59924-21.67113 14.73725zm2.80651-77.818483v78.107513l-.7547 3.20591 13.49758-9.17841-1.50659-2.13992v-69.995093h12.26968v-10.258533l1.01374-1.197684h-36.79313l1.01561 1.197684v10.258533h9.85502v1.325849-1.325849z" stroke-width=".909182"/><path d="m290.59426 117.84811v-40.275745h16.72024v7.201127l5.66911-3.91744v-3.457815l-22.38842-11.952967v-34.503005l-4.04375-4.780126h34.41495v1.325849-1.325849h.38997l9.61655 5.478407v14.151225h-17.98556v-2.869136h-5.67098v15.697165l23.65747 12.076714v21.156127l-43.42643 32.828019zm2.8065-.98643 34.7619-26.284506v-18.300248l-23.65466-12.07583v-19.931042h11.28118l-.002 2.869136h12.37629v-10.001319l-7.58625-4.323151-28.19314-.0017 1.01655 1.200334-.002 33.884275 22.39029 11.95562v6.34728l-11.28118 7.799526v-9.775068h-11.10724z" stroke-width=".909182"/></svg>