<?xml version="1.0" encoding="utf-8"?>
<!-- Generator: Adobe Illustrator 16.0.0, SVG Export Plug-In . SVG Version: 6.00 Build 0)  -->
<!DOCTYPE svg PUBLIC "-//W3C//DTD SVG 1.1//EN" "http://www.w3.org/Graphics/SVG/1.1/DTD/svg11.dtd">
<svg version="1.1" id="Layer_1" xmlns="http://www.w3.org/2000/svg" xmlns:xlink="http://www.w3.org/1999/xlink" x="0px" y="0px"
	 width="600px" height="244px" viewBox="0 0 600 244" enable-background="new 0 0 600 244" xml:space="preserve">
<g>
	<path fill="#FFCC00" d="M311.8,20.87c6.58-3.31,14-4.17,21.23-4.91c8.85,0.24,17.72,2.33,25.609,6.38
		c6.021,3.25,9.17,10.05,9.57,16.65c-0.07,5.59-2.55,10.91-6.14,15.11c-5.011,4.74-12.44,6.46-19.11,4.84
		c-4.71-0.49-9.06-4.36-13.91-2.5c-4.18,1.09-4.319,8.78,0.26,9.27c11.44,2.55,23.351,5.6,32.351,13.58
		c6.729,5.25,10.32,13.17,15.18,19.96c0.46-1.71,0.97-3.44,0.99-5.22c-0.16-18.35-0.04-36.7-0.07-55.05
		c0.061-9.46,6.931-18.66,16.32-20.62c10.95-2.62,23.35,5.15,24.85,16.52c0.73,9.36,0.21,18.77,0.44,28.14
		c0.03,2.43,0.83,4.75,1.36,7.1c5.069-11.34,10.64-22.85,19.869-31.44c9.83-10.28,22.881-17.22,36.67-20.48
		c5.461-1.39,11.131-1.51,16.711-2.21c16.34,0.28,32.939,4.96,46.109,14.89c22.29,16.1,34.45,45.03,30.561,72.22
		c-2.141,14.79-9.061,28.61-18.69,39.94c-14.28,15.45-34.62,25.75-55.87,25.84c-30.43,1.3-60.399-18.01-71.88-46.19
		c-0.88-2.399-2.08-4.669-3.5-6.79c-0.47,1.03-1.2,1.98-1.3,3.13c-0.29,10.031,0.13,20.07-0.37,30.09
		c-1.28,5.42-3.79,11.22-8.87,14.069c-6.09,3.83-14.109,4.521-20.609,1.311c-7.881-3.35-11.921-12.33-11.761-20.52
		c0.181-3.75-0.489-7.44-0.77-11.15c-1.44,3.68-3.96,6.76-5.891,10.17c-3.09,5.46-8.079,9.439-12.609,13.65
		c-17.28,13.09-42.66,13.34-60.69,1.58c-3.4-2.23-6.18-5.4-10.06-6.851c-2.03,3.67-3.44,7.851-6.74,10.63
		c-7.84,7.21-21.11,6.99-28.74-0.39c-4.18-4.65-5.73-10.931-8.97-16.16c-1.21-0.99-2.95-0.54-4.38-0.71
		c-15.33,0.061-30.67-0.07-46.01,0.141c-1.09,0.109-2.17,0.25-3.24,0.43c-3.43,6.649-5.49,14.899-12.37,18.939
		c-6.87,4.74-16.45,4.18-23.31-0.25c-2.13-1.25-3.55-3.79-6.05-4.29c-3.86,0.72-7.06,3.24-10.78,4.4
		c-8.83,2.7-17.92,4.93-27.21,4.97c-10.25,0.42-20.42-1.68-30.15-4.76c-10.26-3.43-18.95-10.2-27.15-17.051
		c-7.75-8.119-14.22-17.639-17.87-28.319c-4.29-12.01-6.85-25.22-3.97-37.87C33.9,63.58,43.33,47.24,57.02,35.9
		c11-9.19,24.73-15.03,38.96-16.68c16.28-2.34,32.89,0.97,47.94,7.23c8.32,3.82,16.19,11.01,17.14,20.59
		c1.5,11.38-8.39,22.77-20.04,22.09c-6.95,0.81-12.28-4.33-18.44-6.47c-10.19-3.56-21.83-3.41-31.58,1.42
		c-8.62,4.69-16.31,12.19-18.63,22.01c-5.15,18.72,9.84,39.42,28.8,41.75c1.9,0.391,3.83,0.801,5.78,0.61
		c6.13-0.54,12.48-0.62,18.19-3.171c4.27-1.489,7.8-4.649,12.23-5.679c4.3-0.69,8.94-0.75,12.93,1.22c1.72,0.64,4.42,2.52,5.42-0.06
		c12.74-27.99,25.68-55.89,38.35-83.9c2.85-6.48,7.21-13.22,14.34-15.42c8.74-3.23,20.08,0.42,24.02,9.2
		c10.93,22.36,21.3,44.99,32.73,67.11c3.97,8.83,8.74,17.29,12.45,26.23c2.53,0.06,3.02-2.621,4.13-4.34
		c4.76-8.56,16.7-12.24,25.45-7.83c7.89,3.12,11.479,12.25,19.659,14.879c7.301,1.561,14.83-7.489,10.53-14.109
		c-4.18-7.03-13.06-7.13-20.12-8.82c-10.68-2.16-20.32-9.05-25.43-18.71c-6.27-10.39-8.41-23.3-5.18-35.06
		C289.37,36.81,299.78,26.25,311.8,20.87 M486.16,59.22c-9.4,2.6-17.811,9.02-22.25,17.77c-4.4,7.74-4.68,17.26-2.59,25.75
		c4.63,17.71,25.399,28.87,42.77,23.21c8.34-2.11,15.17-8.08,20.07-14.95c5.12-8.31,6.84-18.77,3.97-28.17
		c-2.99-9.18-9.7-17.22-18.479-21.35C502.45,57.8,493.94,57.51,486.16,59.22 M213.64,87.79c-1.86,6.74-5.8,12.71-7.44,19.5
		c6.49,0.21,13,0.49,19.49-0.01c-1.71-7.03-5.63-13.27-8.33-19.94C216.86,85.46,213.55,85.68,213.64,87.79z"/>
	<path fill="#FFCC00" d="M301.76,184.74c5.63-3.91,12.42-6.59,19.34-6.42c6.19,1.08,12.66,2.84,17.37,7.24
		c2.15,1.879,3.7,4.33,5.771,6.299c1.399,0.551,2.399-0.409,2.96-1.619c2.92-5.74,8.95-9.02,14.78-11.12
		c11.22-4.11,24.46,1.17,31.01,10.86c0.75,0.99,1.439,2.3,2.92,2.029c2.96-3.06,5.34-6.8,9.149-8.93
		c6.771-3.93,15.131-7.02,22.851-3.939c9.59,2.59,18.26,10.18,20,20.26c4.149,14.22-5.65,30.34-19.97,33.689
		c-11.29,3.54-24.131-1.91-30.561-11.58c-0.79-1.859-3.22-1.96-4.01-0.039c-4.78,7.569-13.69,11.699-22.351,12.709
		c-10.029,0-20.489-5.209-25.359-14.229c-1.17,0.239-2.46,0.38-3.01,1.6c-4.15,6.23-10.631,11.011-18.12,12.16
		c-8.41,1.931-17.261-1.04-23.761-6.45c-2.189-1.859-3.83-4.279-6.08-6.06c-0.27,0.08-0.82,0.25-1.09,0.33
		c-0.91,3.61,0.01,8.19-3.15,10.87c-4.01,2.779-10.98,0.74-11.75-4.49c-1.5-8.91,0.11-18.061-0.84-27.03
		c-1.87-0.989-4.11-0.229-6.12-0.69c-4.48-1.89-6.31-8.52-2.46-11.939c3.88-2.84,7.96-5.46,12.06-7.98
		c3.33-2.189,8.21-1.319,10.37,2.101c2.54,2.94,1.04,7.01,1.83,10.489C296.87,190.78,298.58,187,301.76,184.74 M366.44,192.75
		c-3.5,1.359-6.99,3.65-8.46,7.26c-2.08,3.83-1.48,8.37-0.271,12.37c2.44,3.78,6.34,7.53,11.23,7.101
		c8.35,1.05,15.63-7.351,14.489-15.44C382.94,196,374.03,190.189,366.44,192.75 M315.32,193.57c-5.61,1.92-9.98,7.32-9.271,13.449
		c-0.28,5.521,3.91,10.311,8.83,12.19c3.89,0.59,8.4,1.011,11.73-1.55c5.14-3.17,7.439-9.84,5.989-15.61
		C330.04,195.52,322.22,190.49,315.32,193.57 M416.38,193.43c-4.87,2.26-9.3,6.801-8.86,12.561c-0.56,6.04,3.79,11.59,9.44,13.27
		c3.32,0.211,7.06,0.74,10-1.21c3.97-2.659,7.65-6.95,7.03-12.06C435.09,197.109,424.35,189.84,416.38,193.43z"/>
	<path fill="#FFCC00" d="M225.5,184.37c1.24-2.649,3.51-4.979,6.45-5.63c3.51-0.26,6.32,2.49,8.08,5.229
		c0.28,6.011-3.8,10.95-5.57,16.45c-5.04,10.01-9.66,20.26-14.85,30.2c-1.98,4.71-9.48,5.19-12.08,0.85
		c-2.47-3.479-4.07-7.45-5.92-11.26c-3.13-6.729-6.61-13.3-9.8-20c-0.53-0.03-1.58-0.069-2.11-0.09
		c-1.4,4.851-4.73,9.25-9.54,11.101c-4.17,1.93-8.84,0.85-13.25,1.359c-2.32,1.72-1.25,4.949-1.54,7.4
		c-0.36,4.369,1.01,9.629-2.43,13.09c-4.54,3.789-12.28-0.08-11.78-6c-1.52-12.311-1.23-24.721-1.11-37.09
		c0.3-3.44,0.37-8.11,4.12-9.681c3.86-0.989,7.93-0.56,11.88-0.62c5.07,0.25,10.6-0.689,15.16,2.11c1.57,0.68,2.92,2.17,4.7,2.16
		c2.58-1.06,3.93-4.511,7.09-4.29c3.13-0.7,5.87,1.33,7.29,3.98c4.01,7.859,7.62,15.939,11.43,23.899
		c1.21,1.83,2.76,0.021,3.41-1.28C218.69,199.01,222.02,191.66,225.5,184.37 M165.23,193.27c-0.32,1.98-0.23,3.99,0.06,5.971
		c3.2,0.25,6.45,0.52,9.63-0.021c2.03-1.19,1.12-4.079,0.86-5.979C172.28,192.62,168.72,192.67,165.23,193.27z"/>
	<path fill="#FFCC00" d="M241.41,199.6c6.19-0.72,12.5-0.31,18.73-0.119c4.12,0.1,6.66,4.789,5.82,8.52
		c-1.02,2.891-3.79,5.54-6.99,5.471c-5.31,0.029-10.62,0.06-15.92-0.061c-3.93-0.051-6.39-3.939-6.95-7.439
		C236.14,203,238.69,200.439,241.41,199.6L241.41,199.6z"/>
</g>
</svg>
