<svg enable-background="new 0 0 600 244" height="244" viewBox="0 0 600 244" width="600" xmlns="http://www.w3.org/2000/svg"><g fill="#fc0"><path d="m311.8 20.87c6.58-3.31 14-4.17 21.23-4.91 8.85.24 17.72 2.33 25.609 6.38 6.021 3.25 9.17 10.05 9.57 16.65-.07 5.59-2.55 10.91-6.14 15.11-5.011 4.74-12.44 6.46-19.11 4.84-4.71-.49-9.06-4.36-13.91-2.5-4.18 1.09-4.319 8.78.26 9.27 11.44 2.55 23.351 5.6 32.351 13.58 6.729 5.25 10.32 13.17 15.18 19.96.46-1.71.97-3.44.99-5.22-.16-18.35-.04-36.7-.07-55.05.061-9.46 6.931-18.66 16.32-20.62 10.95-2.62 23.35 5.15 24.85 16.52.73 9.36.21 18.77.44 28.14.03 2.43.83 4.75 1.36 7.1 5.069-11.34 10.64-22.85 19.869-31.44 9.83-10.28 22.881-17.22 36.67-20.48 5.461-1.39 11.131-1.51 16.711-2.21 16.34.28 32.939 4.96 46.109 14.89 22.29 16.1 34.45 45.03 30.561 72.22-2.141 14.79-9.061 28.61-18.69 39.94-14.28 15.45-34.62 25.75-55.87 25.84-30.43 1.3-60.399-18.01-71.88-46.19-.88-2.399-2.08-4.669-3.5-6.79-.47 1.03-1.2 1.98-1.3 3.13-.29 10.031.13 20.07-.37 30.09-1.28 5.42-3.79 11.22-8.87 14.069-6.09 3.83-14.109 4.521-20.609 1.311-7.881-3.35-11.921-12.33-11.761-20.52.181-3.75-.489-7.44-.77-11.15-1.44 3.68-3.96 6.76-5.891 10.17-3.09 5.46-8.079 9.439-12.609 13.65-17.28 13.09-42.66 13.34-60.69 1.58-3.4-2.23-6.18-5.4-10.06-6.851-2.03 3.67-3.44 7.851-6.74 10.63-7.84 7.21-21.11 6.99-28.74-.39-4.18-4.65-5.73-10.931-8.97-16.16-1.21-.99-2.95-.54-4.38-.71-15.33.061-30.67-.07-46.01.141-1.09.109-2.17.25-3.24.43-3.43 6.649-5.49 14.899-12.37 18.939-6.87 4.74-16.45 4.18-23.31-.25-2.13-1.25-3.55-3.79-6.05-4.29-3.86.72-7.06 3.24-10.78 4.4-8.83 2.7-17.92 4.93-27.21 4.97-10.25.42-20.42-1.68-30.15-4.76-10.26-3.43-18.95-10.2-27.15-17.051-7.75-8.119-14.22-17.639-17.87-28.319-4.29-12.01-6.85-25.22-3.97-37.87 3.06-17.509 12.49-33.849 26.18-45.189 11-9.19 24.73-15.03 38.96-16.68 16.28-2.34 32.89.97 47.94 7.23 8.32 3.82 16.19 11.01 17.14 20.59 1.5 11.38-8.39 22.77-20.04 22.09-6.95.81-12.28-4.33-18.44-6.47-10.19-3.56-21.83-3.41-31.58 1.42-8.62 4.69-16.31 12.19-18.63 22.01-5.15 18.72 9.84 39.42 28.8 41.75 1.9.391 3.83.801 5.78.61 6.13-.54 12.48-.62 18.19-3.171 4.27-1.489 7.8-4.649 12.23-5.679 4.3-.69 8.94-.75 12.93 1.22 1.72.64 4.42 2.52 5.42-.06 12.74-27.99 25.68-55.89 38.35-83.9 2.85-6.48 7.21-13.22 14.34-15.42 8.74-3.23 20.08.42 24.02 9.2 10.93 22.36 21.3 44.99 32.73 67.11 3.97 8.83 8.74 17.29 12.45 26.23 2.53.06 3.02-2.621 4.13-4.34 4.76-8.56 16.7-12.24 25.45-7.83 7.89 3.12 11.479 12.25 19.659 14.879 7.301 1.561 14.83-7.489 10.53-14.109-4.18-7.03-13.06-7.13-20.12-8.82-10.68-2.16-20.32-9.05-25.43-18.71-6.27-10.39-8.41-23.3-5.18-35.06 2.721-13.18 13.131-23.74 25.151-29.12m174.36 38.35c-9.4 2.6-17.811 9.02-22.25 17.77-4.4 7.74-4.68 17.26-2.59 25.75 4.63 17.71 25.399 28.87 42.77 23.21 8.34-2.11 15.17-8.08 20.07-14.95 5.12-8.31 6.84-18.77 3.97-28.17-2.99-9.18-9.7-17.22-18.479-21.35-7.201-3.68-15.711-3.97-23.491-2.26m-272.52 28.57c-1.86 6.74-5.8 12.71-7.44 19.5 6.49.21 13 .49 19.49-.01-1.71-7.03-5.63-13.27-8.33-19.94-.5-1.88-3.81-1.66-3.72.45z"/><path d="m301.76 184.74c5.63-3.91 12.42-6.59 19.34-6.42 6.19 1.08 12.66 2.84 17.37 7.24 2.15 1.879 3.7 4.33 5.771 6.299 1.399.551 2.399-.409 2.96-1.619 2.92-5.74 8.95-9.02 14.78-11.12 11.22-4.11 24.46 1.17 31.01 10.86.75.99 1.439 2.3 2.92 2.029 2.96-3.06 5.34-6.8 9.149-8.93 6.771-3.93 15.131-7.02 22.851-3.939 9.59 2.59 18.26 10.18 20 20.26 4.149 14.22-5.65 30.34-19.97 33.689-11.29 3.54-24.131-1.91-30.561-11.58-.79-1.859-3.22-1.96-4.01-.039-4.78 7.569-13.69 11.699-22.351 12.709-10.029 0-20.489-5.209-25.359-14.229-1.17.239-2.46.38-3.01 1.6-4.15 6.23-10.631 11.011-18.12 12.16-8.41 1.931-17.261-1.04-23.761-6.45-2.189-1.859-3.83-4.279-6.08-6.06-.27.08-.82.25-1.09.33-.91 3.61.01 8.19-3.15 10.87-4.01 2.779-10.98.74-11.75-4.49-1.5-8.91.11-18.061-.84-27.03-1.87-.989-4.11-.229-6.12-.69-4.48-1.89-6.31-8.52-2.46-11.939 3.88-2.84 7.96-5.46 12.06-7.98 3.33-2.189 8.21-1.319 10.37 2.101 2.54 2.94 1.04 7.01 1.83 10.489 3.331-2.081 5.041-5.861 8.221-8.121m64.68 8.01c-3.5 1.359-6.99 3.65-8.46 7.26-2.08 3.83-1.48 8.37-.271 12.37 2.44 3.78 6.34 7.53 11.23 7.101 8.35 1.05 15.63-7.351 14.489-15.44-.488-8.041-9.398-13.852-16.988-11.291m-51.12.82c-5.61 1.92-9.98 7.32-9.271 13.449-.28 5.521 3.91 10.311 8.83 12.19 3.89.59 8.4 1.011 11.73-1.55 5.14-3.17 7.439-9.84 5.989-15.61-2.558-6.529-10.378-11.559-17.278-8.479m101.06-.14c-4.87 2.26-9.3 6.801-8.86 12.561-.56 6.04 3.79 11.59 9.44 13.27 3.32.211 7.06.74 10-1.21 3.97-2.659 7.65-6.95 7.03-12.06 1.1-8.882-9.64-16.151-17.61-12.561z"/><path d="m225.5 184.37c1.24-2.649 3.51-4.979 6.45-5.63 3.51-.26 6.32 2.49 8.08 5.229.28 6.011-3.8 10.95-5.57 16.45-5.04 10.01-9.66 20.26-14.85 30.2-1.98 4.71-9.48 5.19-12.08.85-2.47-3.479-4.07-7.45-5.92-11.26-3.13-6.729-6.61-13.3-9.8-20-.53-.03-1.58-.069-2.11-.09-1.4 4.851-4.73 9.25-9.54 11.101-4.17 1.93-8.84.85-13.25 1.359-2.32 1.72-1.25 4.949-1.54 7.4-.36 4.369 1.01 9.629-2.43 13.09-4.54 3.789-12.28-.08-11.78-6-1.52-12.311-1.23-24.721-1.11-37.09.3-3.44.37-8.11 4.12-9.681 3.86-.989 7.93-.56 11.88-.62 5.07.25 10.6-.689 15.16 2.11 1.57.68 2.92 2.17 4.7 2.16 2.58-1.06 3.93-4.511 7.09-4.29 3.13-.7 5.87 1.33 7.29 3.98 4.01 7.859 7.62 15.939 11.43 23.899 1.21 1.83 2.76.021 3.41-1.28 3.56-7.247 6.89-14.597 10.37-21.887m-60.27 8.9c-.32 1.98-.23 3.99.06 5.971 3.2.25 6.45.52 9.63-.021 2.03-1.19 1.12-4.079.86-5.979-3.5-.621-7.06-.571-10.55.029z"/><path d="m241.41 199.6c6.19-.72 12.5-.31 18.73-.119 4.12.1 6.66 4.789 5.82 8.52-1.02 2.891-3.79 5.54-6.99 5.471-5.31.029-10.62.06-15.92-.061-3.93-.051-6.39-3.939-6.95-7.439.04-2.972 2.59-5.533 5.31-6.372z"/></g></svg>