<svg height="152.11125" viewBox="0 0 755.40596 212.95575" width="539.57568" xmlns="http://www.w3.org/2000/svg"><g transform="translate(-22.965756 -50.156918)"><text fill="#ef00eb" font-family="TrasksHand" font-size="2.8" stroke="#0105ff" stroke-width="3.5" x="226.95737" y="255.62752"><tspan fill="#fafafa" fill-opacity=".4" font-size="2.8" stroke="none" stroke-width="3.5" x="226.95737" y="255.62752">John Loreth 2022</tspan></text><path d="m214.27612 123.70517c-6.07187.28634-11.61498 3.27252-16.41754 6.8007-3.48075 2.59821-7.09419 5.50032-8.70205 9.67952-1.14688 3.17293-.3693 6.6524.75436 9.71509 1.17129 2.92925 2.99644 5.56606 4.04101 8.54492-.0974.80359-.76352 1.45405-1.27095 2.05601-3.00254 3.02146-7.43556 3.95888-11.55436 4.05419-1.82444.0397-3.62587-.0522-5.36871-.24188-.70282-.0753-1.67695-.21611-2.21223-.298-1.03126-.17193-1.8362-.32548-2.85922-.62161-1.86582-.58248-3.88173-1.3343-5.07711-2.96746-.74067-.91953-.4131-2.11397-.0955-3.12831 1.33376-4.7322 3.37763-9.29783 3.92076-14.22535.58687-3.94635-.97849-7.99318-3.71347-10.83171-3.49532-3.95183-8.57008-6.7043-13.92624-6.65017-5.92327-.0416-11.48446 2.62072-16.26957 5.91094-2.94428 1.93125-5.7791 4.23092-7.5011 7.36514-.42398.72431-.80512 1.47367-1.14652 2.24032-3.99968-5.15203-9.90297-8.39136-15.90893-10.65461-7.2176-2.70013-14.836944-4.17003-22.465874-5.11404-10.736583-1.23592-21.629936-1.12031-32.340818.30876-8.734308 1.32205-17.353222 4.87851-23.681433 11.17495-2.695835 2.54453-4.996616 5.6025-6.145578 9.16317-2.290201 6.42899-2.818012 13.3097-3.121422 20.0771-.805316 19.73713.405734 39.51717 2.848674 59.10453 1.067338 8.13918 2.304495 16.27287 4.202799 24.26477.680002 2.60302 1.40522 5.27282 2.878206 7.55233 1.72552 2.24831 4.536346 3.22169 7.136719 4.05859 4.923253 1.44394 10.078129 1.8714 15.18354 2.06201 5.965263.11234 12.220616-1.00323 17.119502-4.60326 2.558581-1.83297 4.50517-4.61998 4.913211-7.78344.520289-3.44903-.363283-6.8965-1.02237-10.26342-1.014949-4.5384-2.563495-8.94303-3.461461-13.50955 4.731919-1.34532 9.703282-1.3742 14.58436-1.32005 6.711131-.0214 13.436105-1.10878 19.766865-3.35006 7.56449-2.71821 13.94841-8.15736 18.55893-14.66778 3.21124-4.84203 5.07164-10.44147 6.24415-16.0957 2.03544 3.26209 4.60506 6.23324 7.76953 8.44531-4.15122 1.17461-7.58099 4.13314-9.93512 7.68191-1.93497 2.94155-3.52844 6.13407-4.58043 9.49829-1.62611 5.28972-1.55724 11.18344.74771 16.26567 2.18747 4.94369 5.93525 9.0058 9.93986 12.55268 7.99097 6.86003 17.9772 10.97574 28.13822 13.39356 10.61196 2.47355 21.65821 2.98896 32.47432 1.74822 9.42282-1.2051 11.53276-1.97341 19.15969-6.2198 27.88519-10.11772 26.78996 1.37208 48.40536 5.54925 5.78952 1.05369 11.68768 1.47228 17.56834 1.46601 6.29203-.0596 12.61477-.5701 18.75587-1.98852 5.32928-1.33186 11.28786-3.05988 15.64071-6.43102 16.74994-1.85932 13.17139-.38334 29.76158-.75605 7.75453 3.98914 16.20891 6.63108 24.77329 8.19602 7.00851 1.21979 14.16444 1.76516 21.26974 1.2762 5.85118-.4389 11.68294-1.94187 16.77119-4.92294 1.78857-1.01996 3.47215-2.19748 5.04597-3.50564 24.89023-2.46342 13.7529-1.97916 30.63907-.39482 2.34617 2.35682 5.06358 4.31604 8.17463 5.57536 5.81812 2.33173 12.50495 1.8478 18.23047-.51953 4.43145-1.88738 8.1744-5.26944 10.54554-9.45776 18.31147 7.69041 48.24659 4.50334 60.04989.95984 13.82416-4.15019 25.21633-4.43165 33.16758-.68189 12.02334 8.3121 26.81945 12.16094 41.35913 11.82284 5.04233-.11705 10.10331-.61458 15.01067-1.80724 6.13994-1.67555 5.42824-.33587 9.98536-4.67954 6.6506 1.01604 55.80396 5.0308 59.77257-2.93598 2.08186-4.28171-34-32.34743-33.48027-37.11914.30561-3.26071-.82269-6.85665-3.63899-8.74385-3.21108-2.23436-7.36502-2.18923-11.07897-1.62616-4.06292.57401-8.0646 1.06267-12.17511 1.45173-1.64405.15469-3.23447.29139-4.81821.39507-1.65189.11919-3.25142.21419-4.95701.28131-3.5026.21232-6.83097 2.39954-8.27587 5.62122-1.3489 2.43115-2.56328 4.99979-4.44092 7.078-1.47644 1.45515-3.46281 2.68891-5.61663 2.46294-3.14309-.20887-6.11131-1.41987-9.00879-2.57059-3.82072-1.6171-7.66268-3.7555-10.08341-7.23177-1.47033-2.27048-1.85526-5.0497-1.91234-7.69987-.17916-.8366.49679-.66597 1.07324-.55624 8.91798 1.02765 17.89851 1.37571 26.8677 1.59815 11.51929.21514 23.09067.11039 34.52712-1.41697 2.84943-.44975 5.76756-1.05047 8.28486-2.51899 1.93555-1.17154 3.33-3.32875 3.19149-5.63827.51668-11.58973-1.32213-23.47909-6.6285-33.88459-4.3256-8.56574-10.93604-15.80485-18.41702-21.73311-7.47296-5.85122-16.28124-10.08554-25.65112-11.76336-8.23252-1.55016-16.8713-1.13843-24.8286 1.54847-7.95761 2.64906-15.23821 7.17321-21.40272 12.83228-6.06051 5.78599-10.33079 13.2174-13.22732 21.027-2.85792-9.72944-7.58579-19.11722-14.86619-26.29332-4.77807-4.78443-10.78857-8.45919-17.43662-9.90362-7.76176-1.74239-15.90155-.67262-23.38751 1.78512-3.24285.96181-6.4698 2.39621-8.78287 4.94528-2.75132 2.88961-4.13196 6.75961-4.94119 10.59613-.15581.59804-.30691 1.19761-.4821 1.79033-3.07283-3.90509-6.69387-7.47399-11.07422-9.88867-3.63104-2.14075-7.99017-2.83346-12.14149-2.26406-5.37995.65113-10.62584 2.59367-15.09133 5.67082-6.02761 4.15963-10.40097 10.35992-13.16243 17.07937-1.58843 3.76212-2.76376 7.68356-3.80006 11.6291-2.6581-10.47417-6.78564-20.79861-13.63395-29.26678-2.04738-2.47532-4.25833-4.86393-6.84684-6.78129-4.97713-3.41577-11.17789-4.34689-17.09418-4.36323-14.17632-.0155-28.23824 3.41921-41.15103 9.1725-6.74057 3.05171-13.43024 6.66455-18.5853 12.07534-2.69146 2.83384-4.80602 6.40144-5.1555 10.36073-.15471 1.32617-.184 2.66498-.11914 3.99805-1.26765-11.21173-3.37485-22.41225-7.44336-32.97266-3.3734-3.20803-8.1421-4.63053-12.73633-4.39453-3.32535.0953-6.72912.29901-9.88077 1.44415-2.15452.88533-3.98424 2.8057-4.34383 5.15936-4.6715-.82301-9.30276-1.86419-13.99599-2.56705-5.93392-.94206-11.91921-1.70991-17.9337-1.79037-5.63123.0177-11.42629 1.79306-15.56362 5.7309-2.13317 1.95923-3.69191 4.43809-4.96097 7.01977-.74127 1.38679-1.50885 2.76091-2.35432 4.08722-2.6532-6.4654-6.35753-12.632-11.53766-17.38835-3.37399-2.92691-7.8467-4.62547-12.33148-4.40071zm69.54102 34.00977c1.2913.0379 2.70045.6294 3.15051 1.93779 1.78766 3.58938 2.06177 7.80108 1.32842 11.69965-.61294 2.75322-2.60743 5.32221-5.43597 6.00123-2.90177.79208-6.05884.58642-8.88476-.40625-1.55302-.58936-3.21896-1.60068-3.56836-3.35938-.64694-2.70069-.23194-5.52106.20645-8.22208.41543-2.22233 1.04093-4.55703 2.59238-6.27011 1.20342-1.15068 2.97215-.93383 4.49233-1.1644 2.03453-.17261 4.07802-.22264 6.119-.21645zm-201.898445 4.43554c.582923.0166.923704.0205 1.537225.0759 2.968925.20746 5.975976 1.25147 8.059306 3.45134 1.26128 1.19471 1.79315 2.92855 1.81658 4.62957.15839 3.3303-.62661 6.66389-1.8868 9.72957-1.47789 3.39341-4.274358 6.2234-7.772133 7.50668-2.704025 1.06-5.848581.89423-8.389267-.53397-2.5533-1.34389-4.816054-3.28774-6.499677-5.63061-1.538846-2.42915-1.566018-5.47858-.879651-8.19048.669607-3.0398 1.757878-6.15861 3.972987-8.42265 2.027258-1.41564 4.516939-1.93965 6.904711-2.39859 1.038249-.15315 2.087392-.22255 3.136719-.2168zm526.927735 2.63086c4.29554.54402 8.05234 2.92892 11.58604 5.27385.96825.66623 1.93348 1.36474 2.7167 2.24764-2.57699 1.39401-5.58073 1.60038-8.44176 1.88029-4.77857.33873-9.6683.31116-14.32575-.92709-1.25302-.362-2.50552-.8402-3.52741-1.67195 1.81995-2.32655 4.36035-3.97874 6.9171-5.40041 1.55699-.81112 3.29127-1.47939 5.07508-1.40233zm-225.13086.91797c1.89026.9285 3.46357 2.39469 4.96573 3.84754 2.66676 2.77243 5.02052 6.192 5.3956 10.11926.13268 1.18304-.10548 2.4844-1.10198 3.25014-.86266.76758-1.92655 1.2567-2.98591 1.68931-5.62747-2.15317-11.12248-4.64828-16.70778-6.91031-2.81844-1.14196-5.85195-1.71138-8.88597-1.81039 1.78772-1.71346 3.56822-3.4437 5.52149-4.97071.30866-.24269.84878-.64144 1.28965-.96598 2.29425-1.71796 4.76942-3.38814 7.66462-3.83338 1.5608-.29413 3.17405-.51341 4.75401-.45112zm-55.93945 1.69727c.57736 2.93883 1.26585 5.90087 2.55859 8.61718 1.86999 3.81542 5.25185 6.93751 9.37397 8.11911.69657.10087.61501.29695.0323.62113-4.03823 3.0583-7.60666 6.73217-10.56445 10.84375.0154-9.53384-.46181-19.06907-1.45703-28.55078.0189.11653.0378.23307.0566.34961zm-138.26172 34.91796c1.87306.14781 3.76974.52867 5.42578 1.45118-.92146 1.81504-2.29678 3.37938-3.77561 4.76307-2.53033 2.23237-5.83779 3.19097-8.90475 4.43331-3.42396 1.2222-7.14219 2.39498-10.79229 1.51651-2.389-.51394-3.88674-2.67577-4.89822-4.7364-.60308-1.25689-1.32871-2.46053-2.25217-3.5097 5.84328.003 11.63932-1.03026 17.27487-2.51798 2.61815-.55592 5.19617-1.6767 7.92239-1.39999zm106.77539 6.1211c-.0602 1.01527-.14135 2.1547-.23114 3.03063-.28904 3.16816-.82884 6.51006-2.90769 9.04717-1.66311 2.13139-4.32526 3.03902-6.74047 4.0194-2.31179.78166-4.64865 1.63565-7.09357 1.86175-1.00809.11592-2.06713-.16499-2.71934-.98039-1.36792-1.33564-1.70273-3.42595-1.15544-5.21294.5722-2.92771.3329-6.1581-1.42969-8.6582-.38348-.55225-.8196-1.06902-1.31055-1.5293 6.73456-.37041 13.48555-.80765 20.1459-1.9096 1.19046-.21701 2.36922-.51566 3.50059-.94782-.0195.42643-.0391.85287-.0586 1.2793zm77.51758 5.72656c3.12592.36955 5.68261 2.43782 8.02588 4.37764 1.47983 1.35671 2.99116 2.81918 3.80268 4.68724.20352.45478.31945 1.05275-.21137 1.33551-1.81513 1.48686-4.29425 1.09966-6.43195.77726-3.12739-.61516-6.24976-1.50171-9.07123-3.00928-1.43247-.87379-2.97525-2.20624-3.01581-4.0098.36753-1.443 1.793-2.26141 2.9311-3.06677 1.19365-.70802 2.56915-1.17171 3.9707-1.0918z" stroke-width="2.5"/><path d="m674.86914 107.32337c23.65308 20.91357 46.38218 36.71211 93.33452 14.77975-8.64741 14.11522-15.2678 30.19949-21.25821 46.66246-8.90761 21.28427-15.36867 48.68076-25.71404 64.25358-4.29823 7.02143-14.56693 15.53368-22.52074 17.41419-17.90299 2.07522-25.20101 2.1724-36.72411-10.91962-2.69239-4.6416-.57374-12.41343-.57374-12.41343 8.62119-10.28511 10.40392-17.88579 17.28783-31.04771 1.96804-6.93856 5.06772-16.50625 3.81634-33.6073-.75028-10.25312-.99378-23.76673-4.70228-41.72744-.86848-4.20616-1.84684-8.66454-2.94557-13.39448z" fill="#dcbc00" stroke="#000" stroke-linecap="round" stroke-opacity=".956489" stroke-width="1.5"/><path d="m682.24414 158.15039c.0885 1.43429.17662 2.97178.27344 4.29492 1.25138 17.10105-1.84837 26.66886-3.81641 33.60742-6.88391 13.16192-8.66787 20.76177-17.28906 31.04688 0 0-2.11817 7.77246.57422 12.41406 3.16949 3.60103 6.01862 6.17697 8.85742 8.01563 9.55593 2.96807 22.58423-2.78594 30.06402-11.52951 12.94377-18.75885 23.60328-43.03663 27.56684-60.22831z" fill-opacity=".274782"/><path d="m226.25977 109.53711c-6.42748.29314-12.34691 3.3666-17.44087 7.10714-3.78531 2.79343-7.63832 5.97705-9.42272 10.47154-1.51269 3.88792-.58163 8.218.9339 11.95257 1.05851 2.45223 2.50226 4.71906 3.50781 7.19531-2.16862 2.77355-5.82315 3.75995-9.18717 4.04483-3.80672.2342-7.67307-.0504-11.37142-1.00186-1.47521-.49454-3.12746-.99087-4.08008-2.30859.14936-1.3776.72654-2.6799 1.09805-4.01225 1.4943-4.61249 3.28719-9.2769 3.27917-14.19315-.11072-4.07317-2.08709-7.92412-4.97253-10.74078-4.02442-4.22172-9.80436-6.95324-15.70255-6.61159-6.23913.22606-12.02145 3.10846-17.0457 6.62955-2.89171 1.9458-5.61698 4.30239-7.37324 7.35595-5.15622-5.25551-12.08115-8.29701-19.01172-10.45117-8.17242-2.47028-16.66439-3.78568-25.170555-4.37144-9.077112-.57754-18.22341-.27811-27.225928 1.03647-8.987505 1.47788-17.781154 5.32015-24.243541 11.85622-3.058951 2.91874-5.503493 6.5426-6.679872 10.62933-2.605437 7.99651-2.817595 16.49409-3.064638 24.82525-.44231 19.08256.890743 38.17828 3.396501 57.09045 1.061383 7.62102 2.252957 15.24409 4.141451 22.70965.733599 2.66937 1.556419 5.42604 3.2636 7.64951 2.309789 2.69828 5.839747 3.82288 9.147213 4.74793 5.1294 1.30208 10.444139 1.7175 15.721297 1.7933 6.332778-.0517 12.922203-1.58446 17.90847-5.66962 2.925427-2.39388 4.849751-6.00343 4.985645-9.80327.196551-3.72823-.735846-7.39103-1.524051-11.00447-.837295-3.42036-1.911359-6.77877-2.714183-10.20806 4.777742-1.0431 9.690441-.71988 14.540431-.8505 6.86099-.28044 13.72483-1.58841 20.09135-4.19529 6.0957-2.61148 11.38232-6.90529 15.56549-12.01866-2.28412 4.63121-3.62175 9.8181-3.20146 15.00394.33959 5.56815 2.93832 10.75999 6.45182 15.00497 5.2031 6.33318 12.00835 11.22836 19.43187 14.64022 12.62311 5.78479 26.66791 8.12186 40.49971 7.68064 6.18845-.19912 12.40013-.9174 18.3284-2.76989 9.51313-2.86994 18.4281-8.329 24.53083-16.26532 1.46825-1.89044 2.78742-3.89497 3.96859-5.9762 1.96305 6.45769 5.75659 12.45574 11.20334 16.5205 5.94265 4.56517 13.324 6.82094 20.67764 7.75695 9.14884 1.23635 18.47235 1.25491 27.62097.008 4.83946-.66352 9.63121-1.86433 14.0629-3.95177 4.76795-2.2362 9.22547-5.3274 12.59345-9.40865 2.17957-2.80465 3.54118-6.14348 4.54678-9.52434 4.05977 5.05665 9.38251 8.92311 14.8928 12.25643 9.857 5.81887 20.96284 9.33287 32.24993 11.02592 7.13135 1.01329 14.40437 1.39886 21.57159.53018 6.70189-.84907 13.23453-3.30904 18.63486-7.4023 6.29328-4.70112 10.96895-11.30903 14.04536-18.48748.9572-2.15526 1.81216-4.35582 2.57616-6.58682 2.05534 6.09835 4.63881 12.06148 8.10936 17.4952 3.59539 5.48794 8.64936 10.34589 14.99718 12.40158 6.45426 2.07314 13.66454 1.24727 19.71502-1.69785 4.60053-2.29951 8.33698-6.15195 10.7076-10.69774 3.39817-6.22455 4.97962-13.38422 4.82218-20.4555-.32499-5.98078-3.14794-11.41404-5.93649-16.58273-1.18175-2.17193-2.41036-4.31823-3.66094-6.45124 2.5269 3.79098 5.34237 7.66218 9.47785 9.81868 3.38691 1.87737 7.64271 2.13507 11.16864.48174 3.06276-1.32105 5.44931-3.85202 7.02655-6.74982 2.38708-4.26506 3.33301-9.1152 4.70196-13.75763.28418-1.05949.53632-2.12698.79297-3.19336-1.08298 6.90692-2.6858 13.72365-3.69611 20.64166-.90845 6.568-.75627 13.51755 2.0188 19.65015 2.36044 5.34897 6.27783 9.95224 10.97418 13.40155 3.48278 2.49831 7.80324 3.92105 12.10742 3.52149 5.52945-.46605 10.56943-3.3582 14.62696-7.01194 3.30001-2.99738 5.50549-6.97504 7.09961-11.09158 5.12234 8.87926 12.49259 16.45336 21.28554 21.73454 12.71904 7.76113 27.92836 10.99458 42.73329 10.05901 4.54874-.29155 9.12182-.82372 13.5046-2.11777 6.99125-2.24597 12.86956-6.9446 17.92346-12.14316 6.99653-7.21766 12.55834-15.82826 16.28683-25.16171 1.24857-3.29482 2.28577-6.75714 2.32096-10.30646-.0392-3.75753-1.8657-7.61814-5.21875-9.49804-.37224-.29538-1.22867-.53658-1.3461-.77695 2.79813-1.50024 4.69351-4.62899 4.46887-7.8315.50037-12.14756-1.58532-24.60019-7.33618-35.40539-4.85436-9.1102-12.12102-16.77461-20.37634-22.893-8.46698-6.18834-18.51268-10.29218-28.9703-11.36713-8.57026-.93585-17.37782.29793-25.31323 3.68894-7.06153 2.95138-13.54957 7.26667-19.0602 12.57159-4.60386 4.592-8.19236 10.13086-10.89855 16.02516-3.4854-9.48616-8.99789-18.42776-16.87257-24.88513-5.36746-4.43296-11.97307-7.41199-18.91422-8.17348-8.05502-.94555-16.21705.67137-23.74311 3.52153-3.51305 1.37478-6.61952 3.80423-8.63416 7.01168-1.35418 2.11948-2.27831 4.48764-2.92773 6.91016-3.43347-3.73925-7.52128-7.03121-12.29688-8.86523-4.03156-1.48169-8.45485-1.49158-12.62447-.63173-7.61883 1.43212-14.75858 5.40349-19.85656 11.26379-4.47323 5.01595-7.43182 11.18264-9.48967 17.53395-3.33052-10.35819-8.47012-20.39678-16.38477-28.00781-2.0644-2.01063-4.46127-3.68291-7.14167-4.76258-6.3663-2.66653-13.42936-2.68037-20.20523-2.25552-14.33498.97014-28.37483 5.17382-41.1426 11.70496-5.77429 3.00245-11.35483 6.70018-15.49097 11.79751-.66289.84762-1.26939 1.73943-1.80664 2.67188-1.34537-7.80287-3.30807-15.5172-6.17383-22.90625-3.84179-3.78707-9.3736-5.5472-14.70574-5.2236-3.72291.13482-7.57329.3521-11.0236 1.88302-1.87779.93885-3.47037 2.50239-4.32534 4.42652-6.81674-1.34234-13.65046-2.63554-20.5605-3.39986-3.90183-.40403-7.83133-.79137-11.75708-.6075-6.17254.36007-12.36546 2.87843-16.49632 7.57871-1.81376 2.02098-3.14176 4.40802-4.36579 6.81537-2.74336-5.64614-6.34455-10.98943-11.14649-15.08594-3.65238-2.89788-8.329-4.54201-13.00585-4.32422zm69.80273 38.03516c.6747.0102 1.13227.50635 1.2946 1.12203 1.49686 3.27778 1.68583 7.074.88193 10.55719-.59383 2.07386-2.31536 3.8759-4.51502 4.15594-2.7179.54129-5.6721.25612-8.14393-1.03438-.8222-.39954-1.30029-1.2255-1.33571-2.12579-.37684-2.75155.12209-5.54078.69899-8.22968.39127-1.36462.82266-2.88027 1.93945-3.82617 1.26627-.41483 2.63914-.3325 3.95245-.50101 1.73866-.10591 3.48673-.1767 5.22724-.11813zm-201.445312 4.43359c3.01347.0888 6.291432 1.08717 8.102772 3.64987.9254 1.66417.67042 3.67065.52507 5.49032-.36922 2.64338-1.10884 5.29185-2.48929 7.59189-1.940319 3.08986-5.42624 5.48648-9.177615 5.30698-2.609393-.14966-4.854777-1.73112-6.776732-3.37534-1.484593-1.36264-3.000039-2.96996-3.204418-5.07711-.347867-2.52894.450362-5.03398 1.229606-7.40859.582098-1.50946 1.324414-3.03859 2.526935-4.14482 2.022298-1.19935 4.391422-1.65975 6.693388-1.9724.853912-.0784 1.713625-.10308 2.570284-.0608zm526.091792 2.60547c3.88428.53464 7.2602 2.71306 10.4668 4.82422-4.40921.75369-8.92442.95508-13.38265.57545-1.91055-.20158-3.85314-.49958-5.66227-1.11647 1.88547-1.57365 3.98473-2.94388 6.27246-3.85234.73807-.26372 1.51688-.4537 2.30566-.43086zm-225.54687.875c2.34274 1.35299 4.28834 3.32018 5.96453 5.42357 1.65527 2.17345 3.07272 4.79289 2.98078 7.59596-.18198.9518-1.28518 1.29856-2.02704 1.72791-.53489-.006-1.08511-.40491-1.62318-.55688-5.26467-2.0842-10.40635-4.47058-15.69697-6.48668-1.24277-.41733-2.51269-.75657-3.8032-.98904 2.16561-1.91474 4.46792-3.71134 6.98961-5.13392 2.12084-1.16891 4.59199-1.45289 6.97277-1.57916.0809-.00043.16179-.007.2427-.002zm-52.1875 12.94336c1.49027 1.77342 3.3139 3.27942 5.38281 4.33008-1.84579 1.56755-3.58865 3.2574-5.20312 5.0625-.0558-3.20236-.172-6.40371-.34766-9.60157.056.0697.11198.13933.16797.20899zm-197.82031 15.6875c.88978 1.09622 1.90427 2.14834 2.90625 3.09961-2.22579 1.18727-4.20377 2.81681-5.84961 4.72461 1.20734-2.52847 2.14975-5.17792 2.90234-7.875zm55.78711 7.99414c1.02597.0585 2.051.18922 3.04687.44726-1.43671 1.91136-3.31553 3.49242-5.53368 4.41664-3.21745 1.31952-6.44503 2.71825-9.87062 3.40368-1.8682.29914-3.94444.4653-5.67187-.44336-1.41891-.93565-2.1556-2.53418-2.90234-3.99805 6.18142-.37364 12.20323-1.91581 18.16613-3.49174.90571-.21232 1.8315-.37491 2.76551-.33443zm404.93554 1.27929c9.89966 1.01871 19.8562 1.35065 29.80274 1.48829-1.59148 1.25368-2.63613 3.01599-3.51605 4.80664-1.28474 2.25314-2.37756 4.75658-4.42857 6.43386-1.08967.9166-2.54105 1.40221-3.95505 1.09241-3.23338-.44595-6.26701-1.75968-9.23597-3.05564-3.09928-1.47734-6.24391-3.39964-7.99522-6.45501-.68144-1.35241-.97772-2.86118-1.10938-4.35937.14584.0163.29167.0325.4375.0488zm-299.77734 5.70313c-.29081 3.10214-.78577 6.54844-3.20615 8.76648-1.759 1.46092-3.99313 2.16688-6.10458 2.95187-2.00184.64687-4.04644 1.41866-6.17169 1.40665-1.04805-.4303-1.48108-1.75474-1.3789-2.82235.73346-3.12349.7797-6.54283-.60192-9.50411-.28926-.53668.9085-.20232 1.2816-.34932 5.45467-.38289 10.92356-.82507 16.30273-1.83789-.0404.46289-.0807.92578-.12109 1.38867zm79.58398 4.89844c2.85089.43455 5.10942 2.42522 7.23106 4.22756.96867.90613 1.92174 1.86004 2.59902 3.01072-1.73171.53117-3.57629.0515-5.3044-.27276-2.67281-.62727-5.38203-1.39182-7.73311-2.84519-.60755-.44916-1.26289-.96244-1.49374-1.71408.95826-1.10246 2.26763-1.9759 3.70117-2.32032.32938-.0641.66425-.0988 1-.0859z" stroke-width="2.5"/><path d="m498.8746 214.87091c.32068 3.64374.65777 7.61342-.15144 10.99519-3.62017 2.48439-.59529 3.74549 1.30153 3.93072 2.23987.43155 4.3588.61173 9.34249-.79162 1.95738-.31465 1.12269-1.81536 1.06289-2.9869-1.38224-5.04786-.75752-9.98832-.0462-14.92414.0542-.37646.20041-.7249.16342-1.12935-.27482-.82314-.0695-1.47746.14926-2.12705 1.39454-2.60541-1.29444-3.86786-2.49944-1.84792-2.20062 3.52463-5.64373 6.77501-9.3225 8.88107z" fill="#ac9300"/><path d="m622.24571 208.25712c-3.02489-.67179-8.93187-2.99534-8.93187-3.51341 0-.19905 2.65077-.25691 9.04545-.19744l9.04546.0841-.51845.55207c-.28515.30364-.98665.62694-1.5589.71844-1.22339.19563-3.18971 1.14735-4.29903 2.08079-.89169.7503-.72066.73337-2.78266.27543z" fill="#a28b02"/><path d="m289.79221 212.20251c-1.14985-1.14985-1.12761-3.48413.0366-3.84294.50343-.15515 2.31579-.47822 4.02746-.71793l3.11213-.43584v2.48618c0 1.95925-.34919 2.57975-1.6476 2.92771-2.57725.69068-4.5712.54022-5.5286-.41718z" fill="#ac9300"/><path d="m128.19774 230.60914c-15.089 8.86433-16.87718 15.45446-18.14389 23.13672-.58118 3.08152 5.03465 5.49034 5.22442 2.83874.6212-5.26097 10.48809-12.51 16.50657-15.77742z" stroke="#000" stroke-linecap="round" stroke-width="1.5"/><path d="m126.70379 227.95698c-15.089 8.86433-16.87718 15.45446-18.14389 23.13672-.58118 3.08152 5.03465 5.49034 5.22442 2.83874.6212-5.26097 10.48809-12.51 16.50657-15.77742z" fill="#ac9300" stroke="#000" stroke-linecap="round" stroke-width="1.5"/><path d="m686.16562 116.70695c-5.56054-4.23055-9.29123-8.4611-13.61914-12.69165-3.2322-6.09314.60013-14.470995 3.4728-19.528351 4.91114-8.046385 9.44035-17.098691 13.79575-24.881234 5.32697-10.409181 18.95867-10.247163 26.6747-5.889767 2.82343 1.616163 4.82344 4.275303 7.43729 5.82686 5.84848 3.427546 12.30099 2.193901 20.44618-1.690332 2.57849-1.602524 5.38898-2.026821 7.98374-1.657733 5.71993.84961 14.00843 4.560746 17.17038 13.20529l1.26788 5.204454c.98492 2.184279.68227 4.762752.92401 6.782771.12938 5.057524 3.08465 10.511418 4.13033 13.964577 1.65306 6.519565 3.88557 18.541995-2.44279 22.520015-5.8051 4.04082-9.48212 5.75476-16.22232 8.71838z" fill="#fee32d" stroke="#000" stroke-linecap="round" stroke-opacity=".968245" stroke-width="1.5"/><path d="m750.37695 56.072266c-2.00598.03874-4.07004.577404-6.0039 1.779296-4.37853 2.088008-3.91195 3.184313-7.48132 3.428112-4.887 1.12365-10.34486 18.135756-6.77931 37.940194 11.56679-1.339384 10.95437-9.255595 17.0575-14.596821l.2461-19.677735c-.9088-4.827468 3.28944-6.364145 6.73242-8.386718-.61238-.143227-1.22191-.278749-1.79102-.363282-.64869-.09227-1.31181-.135961-1.98047-.123046z" fill-opacity=".106353"/><path d="m706.0625 50.919922c-6.34565-.196414-12.91869 2.179809-16.24805 8.685547-4.3554 7.782543-8.88378 16.834474-13.79492 24.880859-2.87267 5.057356-6.70486 13.436157-3.47265 19.529292 4.32791 4.23056 8.0586 8.46086 13.61914 12.69141l.51562.0723c-.84012-7.51814-4.60406-14.30621 1.28119-19.046932 4.03133-1.909737 2.74312-3.70073 1.64742-6.698364-5.63419-19.126655 2.96504-33.238404 19.99126-39.733223-1.15635-.209309-2.3433-.343847-3.53906-.380859z" fill-opacity=".11"/><g stroke-linecap="square"><path d="m685.22669 117.04448c-24.83066 2.83469-28.71525 44.83266 4.5974 45.01716l37.25686-2.34697c4.92444 4.95647 10.12802 9.64618 19.86342 10.00501 29.71508-1.99066 27.34744-37.41818 9.15689-42.751z" fill="#cbd0cd" stroke="#000" stroke-opacity=".96777" stroke-width="1.35"/><circle cx="747.12231" cy="147.45755" fill="#405759" r="19" stroke="#405759" stroke-width="1.35"/><g fill="#cbd0cd" stroke="#cbd0cd" stroke-width="1.35001" transform="matrix(.86288232 -.50540488 .50540488 .86288232 0 0)"><rect height="10.355247" rx="5.5" width="22.593264" x="559.42419" y="506.35074"/><rect height="10.355247" rx="5.5" width="22.593264" x="557.02649" y="494.05133"/></g></g><g fill="#c50402"><circle cx="755.91022" cy="149.84979" r="4.5"/><circle cx="746.03174" cy="155.92574" r="4.5"/><circle cx="747.95984" cy="140.33289" r="4.5"/><circle cx="737.47705" cy="146.3441" r="4.5"/></g><rect fill="#282d31" height="8.5" rx="1.75" transform="matrix(.52611025 .85041637 -.85041637 .52611025 0 0)" width="3.5" x="495.15601" y="-528.50684"/><rect fill="#282d31" height="8.5" rx="1.75" transform="matrix(.52611025 .85041637 -.85041637 .52611025 0 0)" width="3.5" x="501.94785" y="-537.58539"/><path d="m686.9725 131.3662c-1.20836-.0921-2.25534.80653-2.34746 2.01488l-.30883 4.05074-4.05074-.30882c-1.20835-.0921-2.25534.80653-2.34746 2.01488l-.16154 2.11885c-.0921 1.20835.80653 2.25534 2.01488 2.34746l4.05074.30883-.30882 4.05074c-.0921 1.20834.80653 2.25534 2.01488 2.34746l2.11885.16154c1.20835.0921 2.25534-.80654 2.34746-2.01488l.30883-4.05074 4.05074.30882c1.20834.0921 2.25534-.80654 2.34746-2.01488l.16154-2.11885c.0921-1.20836-.80654-2.25534-2.01488-2.34746l-4.05074-.30883.30882-4.05074c.0921-1.20835-.80654-2.25534-2.01488-2.34746z" fill="#353737"/><g stroke-width="2.5"><g fill="#405759" transform="translate(1.741726 1.056059)"><path d="m699.87232 151.61506.023-.28031 1.04338.0855q.0545.004.0759-.0173.0214-.0218.0252-.0685l.003-.0311q.004-.0467-.0137-.0717-.0176-.025-.072-.0294l-.63849-.0523q-.23359-.0191-.32651-.12867-.0929-.10952-.0814-.24967l.005-.0623q.0128-.15573.12164-.24087.10889-.0851.34248-.066l1.05895.0868-.023.28031-1.04338-.0855q-.0428-.004-.0619.0145-.019.0161-.021.0414l-.005.0623q-.002.0273.0138.0462.0161.019.0589.0225l.62292.0511q.23359.0191.34145.13773.10786.11858.0951.27431l-.004.0467q-.014.1713-.13849.25516-.12446.0839-.35805.0647z"/><path d="m701.92794 151.78355q-.38932-.0319-.35741-.42123l.0319-.38932q.0255-.31146.41485-.27954l.70078.0574q.31145.0255.28592.33698l-.005.0623q-.0243.29589-.33571.27036l-.63849-.0523q-.0623-.005-.0674.0572l-.001.0156q-.003.0311.0117.048.0143.0168.0454.0194l.93436.0766-.023.28031zm.61168-.57696q.0253.002.0443-.014.0209-.0159.0231-.0432l.005-.0623q.002-.0253-.016-.0444-.0159-.0209-.0412-.023l-.49833-.0409q-.0273-.002-.0464.0158-.019.0161-.021.0414l-.005.0623q-.002.0272.0138.0462.0161.0189.0433.0212z"/><path d="m703.35282 151.90035q-.31146-.0255-.28593-.33698l.0766-.93437.38932.0319-.074.90322q-.002.0272.0139.0462.0161.019.0433.0212l.0467.004-.023.28031z"/><path d="m704.03023 151.95588q-.38932-.0319-.3574-.42123l.0319-.38932q.0255-.31145.41485-.27954l.70077.0574q.31146.0255.28593.33699l-.005.0623q-.0243.29588-.33571.27035l-.63848-.0523q-.0623-.005-.0674.0572l-.001.0156q-.003.0311.0117.048.0143.0169.0454.0194l.93437.0766-.023.28031zm.61168-.57695q.0253.002.0443-.014.0209-.0159.0231-.0432l.005-.0623q.002-.0253-.016-.0444-.0159-.0209-.0412-.023l-.49833-.0409q-.0272-.002-.0464.0158-.019.0161-.021.0414l-.005.0623q-.002.0273.0138.0462.0161.0189.0433.0212z"/><path d="m705.58754 152.08352q-.38931-.0319-.3574-.42123l.0255-.31146q.0319-.38931.42123-.3574l.8565.0702-.0204.24916-.7475-.0613q-.0467-.004-.0804.0248-.0337.0286-.0375.0753l-.0306.37375q-.004.0467.0248.0804.0286.0337.0753.0375l.74749.0613-.0204.24917z"/><path d="m706.98909 152.19842q-.38931-.0319-.3574-.42123l.0702-.8565.38931.0319-.0128.15573.63848.0523-.0204.24917-.57619-.0472q-.0273-.002-.0464.0158-.019.0161-.021.0414l-.0383.46719q-.002.0273.0138.0462.0161.019.0433.0212l.60734.0498-.0204.24916z"/></g><g fill="#405759" transform="translate(.130964 1.056059)"><path d="m712.79889 152.62713.023-.28031 1.04337.0855q.0545.004.0759-.0173.0214-.0218.0252-.0685l.003-.0312q.004-.0467-.0137-.0717-.0175-.025-.0721-.0294l-.63848-.0523q-.23359-.0191-.32652-.12867-.0929-.10952-.0814-.24967l.005-.0623q.0128-.15573.12165-.24087.10888-.0851.34247-.066l1.05895.0868-.023.28031-1.04337-.0855q-.0428-.004-.0619.0145-.019.0161-.021.0414l-.005.0623q-.002.0273.0139.0462.0161.019.0589.0225l.62291.0511q.23359.0191.34145.13773.10786.11858.0951.27431l-.004.0467q-.014.1713-.1385.25516-.12445.0839-.35804.0647z"/><path d="m714.85445 152.79562q-.38932-.0319-.35741-.42123l.0702-.8565.38932.0319-.0128.15573.63848.0523-.0204.24917-.5762-.0472q-.0272-.002-.0464.0158-.019.0161-.021.0414l-.0383.46718q-.002.0273.0138.0462.0161.019.0433.0212l.60733.0498-.0204.24917z"/><path d="m716.69687 152.6958q.0253.002.0443-.014.0209-.0159.0231-.0432l.005-.0623q.002-.0253-.016-.0444-.0159-.0209-.0412-.023l-.54505-.0447q-.0272-.002-.0464.0158-.019.0161-.021.0414l-.005.0623q-.002.0273.0138.0462.0161.0189.0433.0212zm-.70562.193q-.31146-.0255-.28593-.33699l.004-.0467q.0255-.31146.33699-.28593l.6852.0562q.0234.002.0444-.016.0211-.0179.023-.0412l.001-.0156q.003-.0312-.0117-.048-.0143-.0169-.0454-.0194l-.96551-.0791.023-.28031 1.10762.0908q.3095.0254.28398.33683l-.0638.77863z"/><path d="m717.26822 152.99348.0894-1.0901.70077.0574-.0204.24916-.24917-.0204q-.0272-.002-.0464.0158-.019.0161-.021.0414l-.0638.77864z"/><path d="m718.49849 153.09433q-.38932-.0319-.3574-.42124l.0702-.8565.38932.0319-.0128.15573.63848.0523-.0204.24916-.57619-.0472q-.0273-.002-.0464.0158-.019.0161-.021.0414l-.0383.46718q-.002.0273.0139.0462.0161.0189.0433.0212l.60734.0498-.0204.24916z"/></g><g fill="#cbd0cd"><path d="m762.83402 146.51971.13597-.56059 1.13321-.0951.23144.52974.87407-.0733-1.33675-2.69985-.94369.0793-.86778 2.88497zm.28776-1.11861.28159-1.1921.0117-.00097.45325 1.13038z"/><path d="m754.74646 137.47705 1.07184-1.368-1.15395-1.05938.90646-.0761.66012.61399.5485-.71549.90647-.076-.96115 1.237 1.28498 1.17009-.90647.0761-.79113-.7247-.6592.84649z"/><path d="m738.48551 161.26286q.0491-.004.0803-.041.0348-.0371.0305-.0901l-.0203-.24171q-.008-.045-.0447-.08-.0371-.0348-.0862-.0308l-1.35969.11416q-.053.005-.0837.045-.0312.0368-.0269.0859l.0203.24173q.005.053.0414.0839.0368.0312.0898.0266zm-.14163-.96182q.0491-.004.0803-.041.0349-.0371.0305-.0901l-.0203-.24173q-.004-.0491-.0448-.08-.0371-.0349-.0862-.0308l-1.29927.10911q-.0529.005-.0837.0449-.0312.0368-.0269.0859l.0203.24172q.005.0529.0414.084.0368.0312.0898.0266zm-2.05373 1.63303-.20298-2.41724 2.47767-.20806q.21151-.0177.39037.11936.17888.13713.20426.43928l.008.0907q.0229.27192-.11431.40516-.13715.13323-.20514.13895.18128-.0152.31485.12569.13354.14094.1513.35244l.008.0907q.0253.30215-.0828.46338-.10817.16122-.38011.18406z"/><path d="m730.09944 152.72546-.0557-.66475q-.004-.0491-.0371-.0806-.0334-.0352-.0937-.0302l-.30216.0253q-.24173.0203-.49614-.11047-.2544-.13079-.27725-.40272l-.0888-1.05754.75538-.0635.0659.78561q.0128.15107.0946.22027.0819.0692.1952.0597l1.05753-.0888q.11331-.01.14473-.0882.0315-.0787.0187-.22979l-.0659-.78561.75539-.0635.0888 1.05755q.0229.27193-.20619.44331-.22904.17137-.47076.19168l-.30217.0253q-.0605.005-.0874.0453-.0273.0365-.0234.0856l.0557.66474z"/></g></g><g stroke-linecap="square"><g stroke="#000"><path d="m745.39743 155.28328-2.34126-24.13069 7 .3132c-2.44113 7.86569-3.59921 15.83752-4.65874 23.81749z" stroke-width="1.35"/><path d="m689.83809 142.79216.87949-24.22805 6.89663 1.23874c-3.46266 7.4725-5.6677 15.22033-7.77612 22.98931z" stroke-width="1.35"/><g fill="#fff"><path d="m690.15131 142.88721.87949-24.22805 6.89663 1.23874c-3.46266 7.4725-5.6677 15.22033-7.77612 22.98931z"/><path d="m791.18291 127.54014-15.90925-27.555626h31.8185c-9.34788 9.146526-12.85296 18.348936-15.90925 27.555626z" stroke-width="3.08241" transform="matrix(.21999783 .00984342 -.04205112 .87002531 577.05126 35.968329)"/></g></g><g fill="#fff" stroke="#000004" stroke-width="1.35" transform="matrix(.99568042 .09284669 -.09284669 .99568042 0 0)"><ellipse cx="753.00714" cy="13.976454" rx="14.735413" ry="20.234554"/><ellipse cx="709.45911" cy="12.492526" rx="14.735413" ry="20.234554"/></g></g><circle cx="742.92535" cy="90.515762" r="4"/><circle cx="710.06842" cy="87.260468" r="4"/><ellipse cx="731.0061" cy="11.198062" fill="#fee32d" rx="36.576797" ry="20.893879" stroke="#000004" stroke-linecap="square" stroke-width="1.35" transform="matrix(.98982451 .14229352 -.14229352 .98982451 0 0)"/><path d="m711.62695 93.964844c-14.34841 1.087922-24.61381 7.412786-25.85742 15.931636-.44755 3.29106.48379 6.72853 2.7168 10.02735l.26758.16211 8.60827 8.21709c-14.38529-15.39646-3.22022-28.842865 14.26477-34.338186z" fill-opacity=".11"/><path d="m707.2168 109.5625c-1.73142-.12029-3.67663.0508-5.70313.57422-.53441.13871-.85528.68428-.7168 1.21875.13874.53345.68297.85404 1.2168.7168 3.04371-.53419 6.52912-1.23311 8.30626 1.49467.51198.76909.52016.84092.44569 1.84712-.44052.33415-.52626.96237-.1914 1.40235.33402.43927.96074.52492 1.40039.1914 1.30083-.98754 2.03413-2.19949 1.90039-3.44531s-1.05598-2.19231-2.23242-2.83008c-1.17645-.63777-2.69437-1.04963-4.42578-1.16992zm28.73228 4.31829c-1.73142-.12029-3.67663.0508-5.70313.57422-.53441.13871-.85528.68428-.7168 1.21875.13874.53345.68297.85404 1.2168.7168 3.04371-.53419 6.52912-1.23311 8.30626 1.49467.51198.76909.52016.84092.44569 1.84712-.44052.33415-.52626.96237-.1914 1.40235.33402.43927.96074.52492 1.40039.1914 1.30083-.98754 2.03413-2.19949 1.90039-3.44531s-1.05598-2.19231-2.23242-2.83008c-1.17645-.63777-2.69437-1.04963-4.42578-1.16992z" fill-opacity=".515959" stroke-linecap="round"/><path d="m715.8268 13.167016c7.44754.906357 17.40231 1.7104 26.84496-1.492071 3.58408-1.215537 7.32366 4.770998 7.32366 8.32345v4.337242c0 3.784584-3.38802 6.432711-6.95854 7.687495-9.50073 3.338834-19.45342 5.056784-28.15506.112445-3.29049-1.869685-5.8864-4.015356-5.8864-7.79994v-4.337242c0-3.784584 3.07452-7.288585 6.83138-6.831379z" fill="#fee32d" stroke="#000004" stroke-linecap="square" stroke-width="1.34999" transform="matrix(.97982422 .19986117 -.19986117 .97982422 0 0)"/><path d="m696.74023 155.69531c-2.86616.16073-5.4323 2.58668-6.04687 5.59961l-.86719 4.25c-.75639 3.70823 1.35856 6.33071 4.20899 8.82031 4.59555 4.01383 10.14498 5.68495 16.03515 6.07422-14.85825-2.41135-25.05174-22.6207-3.42383-22.12304-2.85207-.71874-5.51497-1.55492-7.89453-2.34961-.67306-.22478-1.35029-.30858-2.01172-.27149z" fill-opacity=".097285"/><g stroke-width="2.5"><path d="m48.950288 243.03006q-2.195897-1.52926-4.893713-17.1404-2.697816-15.61115-4.140834-34.85428-1.380278-19.24313-.690139-37.02071.690139-17.77759 5.458372-23.63974 9.473726-11.66057 27.605559-13.38098 18.194573-1.78413 34.569697 1.14693 23.71568 4.26918 30.11515 15.03768 6.4622 10.70479 5.01919 32.36923-1.38028 20.26264-8.46989 29.1833-7.08961 8.85693-16.31237 11.91544-9.22277 2.99479-18.759235 2.80363-9.473726-.19115-15.559498 1.78413-2.572336.82835-1.693977 4.77893.878358 3.95058 2.321377 8.92065 1.443017 4.90636 2.070417 9.81273.627398 4.84264-2.321377 7.51884-6.023031 5.35239-18.006354 4.58776-11.983321-.76463-16.312375-3.82314zm31.495433-92.64738q-3.638914 4.39661-4.768233 11.66058-1.066578 7.20024 4.078094 12.1066 8.720848 8.53834 17.818134 4.77892 9.160024-3.82313 11.355924-15.35627 1.56849-8.47462-2.07041-12.36148-3.57618-3.95057-8.846335-4.84264-5.270153-.95579-10.540304.44604-5.270153 1.40181-7.02687 3.56825z" fill="#ed00df"/><path d="m146.64767 124.95545q17.90242-14.1826 28.5677-1.7095 2.79328 3.29239 2.28541 7.02798-.44438 3.7356-1.77754 7.40787-1.26968 3.67228-2.22194 7.02799-.95225 3.3557.88878 5.8883 3.61857 5.12854 15.87094 5.76169 12.31585.56984 17.90242-5.88831 2.7298-3.16577 1.39665-6.14158-1.33316-3.03912-3.04722-6.20488-1.71407-3.16576-1.90452-6.71141-.12697-3.54564 5.07871-7.85107 17.585-14.49918 28.12331-2.84919 10.5383 11.58667 13.64901 33.43041 3.17419 21.78041-1.2062 45.84018-4.31689 23.99644-16.50578 34.2535-12.12539 10.25705-30.91659 11.20678-18.72772.94973-34.59866-4.81195-15.87094-5.76168-24.06035-16.96846-8.12592-11.2701.88878-25.51602 4.76128-7.5345 13.07765-7.09129 8.37986.37988 13.14114 3.73559 2.53936 1.83614 3.87252 4.81196 1.39663 2.97581 3.93599 5.00189 2.60284 2.02608 7.55457 2.02608 4.95173-.0633 14.66474-4.36874 5.07871-2.21603 8.69728-7.85108 3.68206-5.69836-5.01521-7.78776-4.38038-1.01305-7.99896-.0633-3.61857.94973-8.12592 2.02608-4.50735 1.07636-10.66527 1.45626-6.15793.31657-15.6805-1.89946-9.52256-2.15271-14.91868-10.89021-5.39613-8.8008-7.11018-19.1845-1.77755-10.38368-.12697-19.88095 1.65057-9.49728 6.28489-13.23288z" fill="#00f0ff"/><path d="m251.49539 138.37827q2.09496-2.46929 5.4596-8.92744 3.42813-6.52146 11.17315-8.42091 3.80902-.88641 9.96695-.31658 6.22141.50652 12.31585 1.51957 6.15793 1.01304 10.98269 2.02608 4.82477.94973 6.03097.94973 2.34889 0 1.65057-2.21604-.69832-2.27934 1.39664-3.41902 2.03148-1.07635 8.25289-1.32962 6.22141-.31657 9.83999 2.78588 4.63432 12.21983 6.72928 29.88475 2.09496 17.66494 1.90451 34.88666-.19045 17.15841-2.47587 30.8978-2.28542 13.67607-6.34838 17.85487-8.1894 8.48424-22.15583 10.32038-13.90294 1.83613-27.48847-.25326-17.20411-2.65924-23.42551-15.0057-6.15793-12.40977-1.52362-28.68176 1.26968-4.36875 11.55406-3.98887 10.34785.31658 14.72823 2.4693 4.6978 2.34266 3.42812 8.04103-1.20619 5.63504 3.04722 9.30732 2.66631 2.40598 8.44334.88641 5.77703-1.58287 9.3956-3.54565 6.53883-3.54564 7.55457-13.04291 1.01573-9.5606.0635-15.70217-.7618-4.55869-.88877.3799-.12697 4.93857-6.34838 6.14156-6.28489 1.26631-21.20357 2.02609-14.9187.75978-21.45752-.50652-6.66579-1.20299-7.8085-4.55869-1.14271-3.35571-2.41239-4.49538-.63483-.56983-1.14271-7.34456-.50786-6.77472-.63483-14.94238-.19045-8.16766.0635-15.25895.25393-7.15461 1.33316-8.42092zm34.91607 3.73559q-6.09444.88641-7.8085 10.89021-1.65058 9.94048 2.15844 13.23287 3.74555 3.29239 10.09393 3.41902 6.41186.12664 10.03044-3.41902 3.74553-3.79891 3.80902-10.25706.12697-6.45814-2.53936-11.08014-2.09496-3.41903-6.98321-3.35571-4.82477 0-8.76076.56983z" fill="#c2ffbf"/><path d="m345.16075 143.12494q3.68207-6.00399 14.09345-11.56558 10.15743-5.372 22.09242-8.53199 11.80803-3.0336 22.85424-3.0336 11.04621 0 16.31538 4.67679 10.72879 9.73279 16.2519 27.93437 5.45962 18.13838 4.82479 37.03516-.57136 18.64397-7.68157 34.50715-7.04672 15.61039-21.39411 20.28718-7.93549 2.4648-19.807 1.5168-11.8715-.8216-23.48907-4.92959-11.74453-4.1712-20.50533-11.24959-8.95124-7.01519-11.04621-16.81118-1.968-9.73279 2.03148-18.95998 4.18995-9.22719 11.55409-15.79998 7.11021-6.44639 16.31538-9.29039 9.07822-2.65439 16.75978.50561 17.26764 7.39439 17.71203 7.20478.38091 0 1.39665-.4424 6.22143-2.40159 6.66582-7.07839.25393-4.42399-2.22195-8.84798-2.53935-4.3608-6.28491-7.5208-3.93601-3.28639-5.77704-3.28639-7.61807.12639-11.93499 3.03359-4.18995 2.6544-8.12595 6.31999-4.06297 4.0448-7.23717 6.63599-3.80904 3.0336-9.39564 3.3496-11.42711.6952-14.34737-9.85918-3.04724-10.49119.3809-15.79999zm40.4393 54.85754q-4.25343 0-8.06247 3.34959-3.80903 3.3496-2.09497 7.4576 1.84104 4.29759 8.06246 6.44639 6.15796 2.21199 10.28441 2.21199 3.61859.18961 6.3484-2.0856 2.66633-2.27519 1.2062-5.94079-1.65059-3.66559-6.53886-7.45759-5.20568-3.98159-9.20517-3.98159z" fill="#bfc0ff"/><path d="m474.97655 244.1816q-13.7361 1.5168-22.329-15.54717-8.53019-17.12717-9.78462-38.80472-1.31717-21.74076 5.64497-41.07992 7.02485-19.40237 24.64972-22.56236 6.14674-1.0744 10.41183 1.264 4.26509 2.27519 7.1503 5.37199 2.94793 3.03359 4.70414 5.62479 1.81894 2.59119 2.94794 2.08559 1.81893-.8848 3.63786-8.78478 1.81894-7.89999 8.21658-10.23838 22.51716-8.34238 37.13137 4.36079 14.61421 12.63998 18.75386 39.18392 1.00354 6.76239 1.06626 15.86318.0628 9.03758-1.12898 17.94876-1.129 8.84798-3.7006 16.30557-2.50888 7.39438-6.52308 10.80717-11.03905 9.29039-19.94557 1.83281-8.90651-7.4576-9.7219-17.50638-.50177-5.24558.81539-12.19757 1.31716-7.01518 2.63432-14.09357 1.31716-7.14159 1.69349-13.52478.37633-6.38318-1.88165-10.36477-3.88876-6.636-5.83315-1.8328-1.88165 4.80319-3.70059 13.46157-1.75621 8.59518-4.39053 17.25357-2.5716 8.59518-7.7148 9.54318-5.20591 1.0112-10.66272-7.01519-5.39409-8.08958-9.97279-15.86316-4.5787-7.77359-7.7148-10.61759-3.07337-2.84399-3.57514 8.53198-.2509 4.3608 2.75976 10.04878 3.07338 5.62479 6.71124 11.75519 3.7006 6.06718 6.64853 12.13437 3.01065 6.0672 2.69704 11.18638-.62722 10.23838-5.45681 17.37996-4.82958 7.07839-14.23787 8.08959z" fill="#ffbfbf"/><path d="m602.02493 186.85932q-4.01421 1.51679-2.00711 10.36477 2.00711 8.84798 15.93137 14.03038 8.15384 3.09679 12.10533 1.51679 3.95148-1.64319 6.14674-4.80318 2.19527-3.22321 3.76332-6.4464 1.63077-3.22319 5.1432-3.41279 10.78816-.5056 21.88995-2.1488 11.10178-1.70639 10.34912 6.32-.43906 4.10799-3.44971 10.61757-3.01065 6.50959-7.90296 13.01917-4.82959 6.4464-11.1645 11.56558-6.33492 5.11919-13.35977 6.31999-14.86509 2.528-28.85208-.632-13.98699-3.22319-24.587-11.56558-10.6-8.34238-16.43314-21.42475-5.77042-13.08238-4.32782-30.20954 3.01066-35.39194 20.76096-49.35911 17.75031-14.03037 37.57043-11.18638 19.88285 2.7808 35.43789 20.03436 15.55503 17.25357 14.23787 44.23992-.12544 2.71759-9.28284 3.91839-9.09468 1.1376-21.13729 1.264-11.97989.1264-23.7716-.5056-11.72901-.632-17.06036-1.51679zm4.64141-24.07916q4.82959 3.53919 16.37043 3.41279 11.54083-.1896 15.36686-3.41279 3.76332-3.09679-3.70059-8.21598-7.4639-5.1192-12.85799-5.87759-5.39409-.75841-12.73255 4.92958-7.33847 5.68799-2.44616 9.16399z" fill="#fffebf"/></g><path d="m616.24219 118.95117c-10.52569.17331-20.59619 4.06037-30.21094 11.66016-11.83353 9.31144-18.75461 25.76475-20.76172 49.35937-.0358.42489-.0451.83471-.0742 1.25586h108.1543c.34049-16.87079-4.42093-30.79806-14.31055-41.76758-10.37002-11.50237-22.18226-18.17933-35.4375-20.0332-2.47751-.3555-4.93037-.5146-7.35937-.47461zm4.22461 29.64649c.46976-.004.9294.0266 1.3789.0898 3.59606.50559 7.88149 2.46415 12.85742 5.87695 4.97595 3.4128 6.21006 6.15032 3.70118 8.21485-2.55069 2.14879-7.6733 3.28766-15.36719 3.41406-7.69389.0843-13.15137-1.0546-16.37109-3.41406-3.26154-2.31734-2.44505-5.37207 2.44726-9.16407 4.28077-3.31799 8.06519-4.98993 11.35352-5.01757z" fill="#94936f"/><path d="m526.00195 118.21289c-4.88839.11258-10.1461 1.21128-15.77539 3.29688-4.26509 1.55892-7.00417 4.97162-8.21679 10.23828-1.21262 5.26665-2.42606 8.19529-3.63868 8.78515-.75266.33707-1.73464-.35847-2.94726-2.08593-1.17081-1.72747-2.73784-3.60066-4.70313-5.62305-1.92347-2.06453-4.30699-3.85625-7.15039-5.37305-2.84339-1.55893-6.31428-1.97994-10.41211-1.26367-11.74991 2.10666-19.96715 9.62759-24.65039 22.5625-3.71186 10.31067-5.6268 21.14192-5.80859 32.47656h34.7793c-1.19834-2.81377-1.75383-5.36573-1.62305-7.63867.33451-7.58398 1.5253-10.4292 3.57422-8.5332 2.09073 1.896 4.66237 5.43674 7.71484 10.61914 1.07938 1.83254 2.23546 3.69385 3.38281 5.55273h27.15235c.8208-3.16358 1.56128-6.32181 2.20508-9.47265 1.21262-5.77226 2.44673-10.25881 3.70117-13.46094 1.29626-3.20213 3.24148-2.59197 5.83398 1.83203 1.50532 2.65439 2.13175 6.10978 1.88086 10.36523-.20124 3.41334-.61397 6.99771-1.21875 10.73633h37.0918c-.00047-.103.005-.20556.004-.30859-.0418-6.06719-.39738-11.35502-1.0664-15.86328-2.75977-17.69596-9.0111-30.75694-18.75391-39.1836-6.08925-5.29298-13.20815-7.84582-21.35547-7.6582z" fill="#957070"/><path d="m404.20117 119.99414c-7.36414 0-14.98345 1.0108-22.85547 3.0332-7.95666 2.10666-15.32017 4.94992-22.09179 8.53125-6.94092 3.70773-11.63904 7.56375-14.09375 11.56641-2.28543 3.5392-2.41236 8.80665-.38086 15.80078 1.94684 7.03625 6.72958 10.32089 14.34765 9.85742 3.7244-.21066 6.85713-1.32721 9.39649-3.34961 2.11613-1.72746 4.52768-3.93823 7.23633-6.63476 2.624-2.44373 5.33365-4.55071 8.12695-6.32031 2.87795-1.93814 6.85488-2.94895 11.93359-3.03321 1.22736 0 3.15334 1.09423 5.77735 3.28516 2.49704 2.10667 4.59225 4.61428 6.28515 7.52148 1.65059 2.94933 2.39195 5.89833 2.22266 8.84766-.29626 3.11787-2.5184 5.47706-6.66602 7.07812-.67716.29494-1.14254.44336-1.39648.44336-.29626.12641-6.20113-2.27548-17.71289-7.20507-5.12104-2.10667-10.70762-2.27546-16.75977-.50586-6.13678 1.896-11.57431 4.99342-16.31445 9.29101-1.0794.96341-2.09907 1.97645-3.07617 3.02539h93.37695c-.37691-9.69247-1.96337-19.23335-4.78906-28.62109-3.68208-12.13439-9.09943-21.44702-16.25196-27.93555-3.51277-3.11786-8.95031-4.67578-16.31445-4.67578z" fill="#68698b"/><path d="m320.24023 118.21875c-.49133-.009-.99717-.00099-1.51562.0254-4.14761.16885-6.89763.61251-8.25195 1.33008-1.39664.75979-1.86399 1.89841-1.39844 3.41797.46555 1.47736-.0845 2.21679-1.65039 2.21679-.80414 0-2.81279-.31606-6.0293-.94921-3.21651-.67536-6.87909-1.35199-10.98437-2.02735-4.06296-.67536-8.16685-1.18185-12.31446-1.51953-4.10528-.37989-7.42745-.27453-9.96679.31641-5.16335 1.2663-8.88841 4.07423-11.17383 8.42187-2.2431 4.30544-4.06235 7.28154-5.45899 8.92774-.71948.8442-1.16469 3.65018-1.33398 8.41992-.1693 4.72752-.18947 9.81466-.0625 15.25976.0846 5.44511.29619 10.42493.63477 14.94141.13131 1.75164.27001 3.09713.41406 4.22656h86.02539c-.0648-9.99525-.66715-20.09482-1.87891-30.3125-1.39664-11.77661-3.64092-21.73821-6.73047-29.88476-2.11084-1.80977-4.88485-2.74591-8.32422-2.81055zm-25.06835 23.32617c3.25883-.0422 5.58773 1.07612 6.98437 3.35547 1.77755 3.08133 2.62371 6.77465 2.53906 11.08008-.0423 4.30543-1.31157 7.72325-3.80859 10.25586-2.41239 2.36377-5.75668 3.50435-10.03125 3.41992-4.23225-.0844-7.59672-1.225-10.09375-3.41992-2.53935-2.19493-3.25859-6.60544-2.1582-13.23242 1.1427-6.6692 3.74563-10.29969 7.80859-10.89063 2.62399-.37989 5.54325-.56836 8.75977-.56836z" fill="#6a8b68"/><path d="m227.24023 115.52539c-5.10796-.0786-10.95836 2.59992-17.55273 8.03711-3.47045 2.87029-5.16472 5.4878-5.08008 7.85156.12697 2.36377.76354 4.60043 1.90625 6.71094s2.1581 4.179 3.04688 6.20508c.88876 1.98387.42338 4.03011-1.39649 6.14062-3.72438 4.30544-9.69177 6.26857-17.90234 5.88868-8.16825-.4221-13.45871-2.3427-15.8711-5.76172-1.22735-1.6884-1.5235-3.65154-.88867-5.88868.63484-2.23714 1.37425-4.57915 2.22071-7.02734.88877-2.44818 1.48109-4.9178 1.77734-7.4082.33858-2.4904-.42297-4.83242-2.28516-7.02735-7.11018-8.3154-16.63146-7.74608-28.5664 1.70899-3.08955 2.4904-5.18478 6.9009-6.28516 13.23242-1.10039 6.33151-1.05808 12.95841.12695 19.88086 1.1427 6.92247 3.51196 13.31835 7.10938 19.18555.90356 1.46306 1.89555 2.78653 2.97266 3.97265h101.95312c.55367-9.3017.20877-18.33213-1.06641-27.08203-2.0738-14.56249-6.6229-25.70719-13.64843-33.43164-3.07368-3.39791-6.59745-5.12633-10.57032-5.1875z" fill="#00818a"/><path d="m85.679688 116.31836c-4.37807.004-8.841982.22975-13.390626.67578-12.087888 1.14694-21.289651 5.60715-27.605468 13.38086-3.178822 3.9081-4.996939 11.7889-5.457032 23.64062-.341632 8.80026-.300243 17.872.119141 27.21094h100.283207c1.15403-4.49941 1.95771-9.69727 2.36523-15.67968.96201-14.44296-.7114-25.23262-5.01953-32.36915-4.26631-7.179-14.30478-12.19099-30.11523-15.03711-6.82297-1.22127-13.882909-1.8289-21.179692-1.82226zm7.0625 29.68359c1.756717-.0743 3.514766.0486 5.271484.36719 3.513438.59471 6.461588 2.20808 8.845708 4.8418 2.42593 2.59124 3.11597 6.71158 2.07031 12.36133-1.46394 7.68876-5.24879 12.80866-11.355471 15.35742-6.064858 2.50628-12.004461.91293-17.81836-4.7793-3.429781-3.27091-4.789177-7.30726-4.078125-12.10742.75288-4.84265 2.341636-8.72908 4.767578-11.66016 1.171145-1.44429 3.513909-2.63382 7.027344-3.56836 1.756717-.46727 3.512814-.73816 5.269532-.8125z" fill="#98008f"/><g stroke-width="2.5"><path d="m109.75781 155.39062-.7207.16602c.49843 2.20103.47642 4.86111-.10742 8.01563-1.46394 7.68876-5.24879 12.80866-11.355471 15.35742-6.064858 2.50628-12.004461.91293-17.81836-4.7793-3.170065-3.02322-4.549033-6.70942-4.18164-11.03906-1.213493-.22591-2.12558-.53952-2.703125-.95117-.311601-.22211-.536746-.46945-.681641-.74024s-.210102-.56514-.201172-.88086c.223452-1.10962.266866-1.88153.13086-2.31836-.068-.21841-.181007-.35224-.337891-.40429-.156884-.0521-.358408-.0213-.603516.0918-.490216.22615-1.154963.78087-1.99414 1.66016s-1.852267 2.08285-3.035156 3.60547c-2.020927 1.06674-3.47743 1.7162-4.509766 2.02148-.516168.15264-.926225.2197-1.248047.20899-.321822-.0107-.554122-.0998-.716797-.25586-.162675-.15607-.256192-.3787-.294922-.66211-.03873-.28342-.02267-.62677.02734-1.01953.100031-.78552.342128-1.77186.585938-2.88672.442839-.16099 1.227246-.76256 2.005859-1.48242.778613-.71987 1.551083-1.55829 1.964844-2.19141.20688-.31656.324294-.58204.308593-.75586-.0157-.17382-.164376-.2547-.490234-.20508-.325858.0496-.829139.23022-1.552734.58399-.723595.35376-1.668044.88053-2.876954 1.61914-.813017.49673-1.67505 1.20956-2.810546 1.79101-.642171.32884-1.460506.52683-2.216797.88867-.378146.18093-.74105.40237-1.058594.70118-.317544.2988-.589588.67623-.787109 1.16601-1.515329.33851-3.041675.70081-4.542969.85742-.750647.0783-1.494847.1043-2.228516.0508s-1.458304-.18677-2.166015-.42969l-4.402344-5.48047c-.03944 1.4787-.08911 2.94971-.107422 4.44336l2.236328 42.91406 3.839844-3.32617c.698145-.27118 1.411394-.9338 2.162109-1.67773.750715-.74396 1.53959-1.56962 2.386719-2.16797.423565-.29918.860517-.54067 1.316406-.6875.455889-.14684.930135-.19804 1.423828-.11524.493694.0828 1.007943.29972 1.544922.68945.536979.38974 1.095896.95065 1.681641 1.72461.690529.52917 1.340965.96231 2.005859 1.25391.664895.29161 1.344597.44278 2.09375.40625.749153-.0365 1.568414-.25961 2.511719-.71484.943305-.45524 2.010462-1.14291 3.257813-2.10743 1.907101-1.47466 3.485268-2.54961 4.779296-3.19531.647014-.32285 1.222809-.53783 1.734375-.64258.511567-.10474.957703-.0991 1.345703.0215.388002.12061.717827.35577.994141.70898s.499272.82492.675781 1.41797c.353019 1.1861.517885 2.85795.542969 5.04688-.01961.48596.02091.87252.113281 1.17187.09237.29935.237518.5115.423828.6543.186313.1428.415526.2161.677735.23242.262209.0163.556888-.0234.876953-.10352 1.28026-.32036 2.951278-1.29277 4.435547-1.95312 1.002552-.89509 1.868129-1.60093 2.617187-2.14844.749059-.54751 1.380741-.9363 1.917969-1.19336s.980596-.38251 1.347656-.40625c.367061-.0237.657928.0546.896485.20703.238556.15247.424456.37886.576172.6504.151715.27153.270416.58839.376953.92187.213074.66696.377816 1.40067.660156 1.97266.348265.32206.706533.60323 1.085937.81445.379406.21122.779591.35233 1.207032.39258.42744.0402.882626-.0201 1.375-.21094s1.021498-.51209 1.595703-.99414c1.116996-1.613 2.071999-2.67593 2.898437-3.29883.413219-.31145.793788-.51197 1.146485-.61719.352705-.10521.678265-.11451.978515-.041.30026.0735.57615.22845.83204.45312.25588.22467.49133.51887.71093.86719.4392.69664.81374 1.61259 1.15625 2.63867l7.77539 1.44727c2.566-2.50788 4.39651-4.08185 5.69727-4.98242.65038-.45029 1.16965-.73344 1.58008-.87891s.7122-.15326.93359-.0586c.22139.0947.36205.29234.44531.5625.0833.27015.10943.61123.10547.99218-.008.76191-.14005 1.68097-.1914 2.49805-.19061.70319-.13938 1.19789.0898 1.53711.22926.33922.63792.5236 1.16406.60547.52615.0819 1.1691.0613 1.86914-.008.42743-.0421.89239-.11559 1.34766-.18164 3.33074-2.14777 6.41303-4.97095 9.23633-8.49805 4.7264-5.94711 7.55051-15.67517 8.4707-29.18359.14708-2.20817.21048-4.30052.23438-6.3379-.61077.36503-1.22585.7383-1.95118 1.34571l.82618 2.61914c-1.20698-.38522-2.72483-.37501-4.0879-.54102-.68153-.083-1.32494-.21055-1.87109-.45312s-.99457-.59948-1.28906-1.14453c-.23085-.42725-.54837-.76614-.93359-1.02735-.38524-.26121-.8377-.44601-1.33985-.5625-.50215-.11648-1.05315-.16513-1.63476-.1582-.58162.007-1.19474.0707-1.81836.17969-1.37312.24005-2.66387.36705-3.79688.83398-.5665.23347-1.09431.55165-1.57226 1.01172-.47796.46007-.90697 1.0614-1.27735 1.86133-1.06149 1.03819-2.02101 1.80979-2.88086 2.32031-.85984.51052-1.61912.75881-2.28125.75195-.33106-.003-.63755-.0703-.91992-.20117-.28237-.13084-.54122-.32506-.77539-.58203-.46834-.51395-.84065-1.27831-1.11914-2.28906-.006-.95336-.10949-1.80558-.29492-2.57422s-.45189-1.45345-.78516-2.07617c-.33327-.62273-.73382-1.1836-1.18359-1.69922-.44978-.51562-.94943-.98627-1.48438-1.4336z" fill="#bf00b3"/><path d="m219.95898 157.33398c-1.26284.65615-1.9673 1.02475-2.75586 1.61914-.78854.59441-1.66128 1.41494-3.26367 2.97461-.25554.16496-.51161.17968-.77148.0977-.25988-.0821-.52325-.26213-.79688-.49023-.54725-.45621-1.13224-1.10252-1.79101-1.53711-.32939-.2173-.67744-.38292-1.04883-.44336-.37139-.0605-.76469-.0157-1.1875.18164-.42281.19738-.87377.54734-1.35742 1.10351s-1.00078 1.31806-1.55469 2.33399c-1.15326.73234-2.11078 1.1893-2.92187 1.43945-.8111.25015-1.47525.29399-2.04297.20117-.56772-.0928-1.03975-.32258-1.46289-.61914s-.79842-.6604-1.17579-1.02148c-.3068-.85903-.65839-1.55786-1.02148-2.13867-.36309-.58082-.73784-1.04481-1.0918-1.43555-.38946-.42993-.67739-.74497-.92773-.95899-.25034-.21399-.4628-.32512-.69922-.3496-.47284-.049-1.04258.25407-2.21094.80468-.8065.38008-1.672.92795-2.56836 1.61719-.89635.68924-1.82345 1.51983-2.75586 2.46094h-2.64062c-.81226-.0971-1.53008-.48624-2.31836-.65625-.39414-.085-.80483-.11532-1.25586-.0274-.45103.088-.94235.29504-1.49219.6836-.43977.78806-.86543 1.2748-1.28125 1.53906s-.82171.30499-1.2207.20117c-.39899-.10381-.79041-.3518-1.17969-.66797s-.77542-.69946-1.16211-1.07226c-.90193-1.13427-1.72455-2.07812-2.48437-2.84961-.75983-.77149-1.45704-1.37172-2.10547-1.81836-.64843-.44665-1.24865-.73871-1.81641-.89844s-1.10328-.18696-1.62109-.0976c-.51781.0893-1.019.29343-1.51758.59375-.49858.30031-.99382.69648-1.50391 1.16992-1.02013.94688-2.09525 2.20343-3.3457 3.61523-.35881.37238-.73227.65039-1.11133.85352-.37906.20312-.76382.33145-1.14453.40039-.76142.13787-1.50764.0421-2.16406-.14649-.65642-.18855-1.22239-.47057-1.625-.70507-.40261-.23451-.64062-.42188-.64062-.42188-.52904-.10997-1.00699-.32608-1.45118-.60937-.44418-.2833-.85566-.63274-1.2539-1.00782-.7965-.75014-1.53858-1.60255-2.38477-2.23047-.4231-.31396-.8733-.5733-1.36719-.73437-.49388-.16107-1.03118-.22377-1.63476-.15039-.60358.0734-1.27321.28445-2.02539.67383-.57264.29642-1.24542.8069-1.92383 1.32812 1.24985 6.13059 3.48323 11.83828 6.71875 17.11524 3.59741 5.825 8.57155 9.45548 14.91992 10.89062 6.34838 1.47735 11.5744 2.10949 15.67969 1.89844 4.10528-.25327 7.66111-.73751 10.66601-1.45508s5.71262-1.39419 8.125-2.02734c2.41239-.63317 5.07975-.61092 8 .0644 5.79818 1.39293 7.46838 3.9882 5.01368 7.78711-.10573.16464-.21858.31435-.32618.47461.85403-.27452 1.67829-.51259 2.39649-.62695.85994-.13694 1.62736-.16485 2.3125-.0957.68514.0691 1.28821.23483 1.82031.48438.5321.24954.9937.58398 1.39453.98828.40084.40429.74187.87873 1.03321 1.41211.29134.53337.53271 1.12492.73632 1.76172.40723 1.27358.6607 2.72845.84766 4.26172.11128.50266.24024.96622.50977 1.32617.26952.35995.67976.61561 1.35351.70117.67375.0856 1.6116.002 2.93555-.31836 1.32395-.32051 3.03377-.87807 5.2539-1.73633 1.47094-1.38689 2.82595-2.67607 4.07227-3.68359.62316-.50376 1.21953-.93683 1.78906-1.27539.56954-.33857 1.11326-.58448 1.63086-.71094s1.00922-.13445 1.47656-.002c.46735.13254.90934.40724 1.32813.8457.41878.43846.81364 1.04076 1.18555 1.83203.3719.79127.72211 1.76995 1.04882 2.96094.19166.37111.40514.70924.67383.99609s.59245.52425 1.00196.69531c.4095.17107.90542.27508 1.51953.29883.61411.0238 1.34602-.0344 2.22851-.18945l1.02344-.008c.35683-1.5674.70405-3.15348 1.00391-4.82031 2.38915-13.1227 3.06197-25.7284 2.08007-37.83399-.47584.28987-.90741.63261-1.40429.88867 0 0-.2791.0504-.59375.1543-.31466.10393-.66506.26096-.8125.47461-.72177 1.04586-1.48613 1.84865-2.24219 2.38672-.37803.26903-.75376.47338-1.12109.60742s-.72653.19773-1.07032.19141c-.34378-.006-.67309-.0843-.98046-.23633-.30739-.15205-.59343-.3785-.85157-.68164s-.48754-.68299-.68359-1.14258c-.19605-.4596-.35936-.99773-.48047-1.61914-.32278-.86419-.69382-1.58703-1.10156-2.1836-.40775-.59656-.85096-1.06651-1.31836-1.42968-.4674-.36318-.95919-.61918-1.46094-.78321s-1.01459-.23721-1.52539-.23632c-.5108.00088-1.01914.0755-1.51367.20703-.49454.13155-.97477.32083-1.42774.54883-.90593.45598-1.70317 1.07073-2.29101 1.70703-.99816 1.08046-2.10987 1.7668-2.5918 2.16992-1.19464.7118-2.11345 1.10429-2.85547 1.27344-.74202.16914-1.3075.11497-1.79492-.0703-.48742-.1853-.89729-.50197-1.32812-.85351s-.88282-.73879-1.45508-1.06836c.20358-.94053.26726-1.75794.23437-2.44922-.0329-.69128-.16246-1.25653-.34375-1.68945s-.41463-.73299-.65625-.89844c-.24161-.16546-.49121-.19509-.70508-.084zm-61.82031 33.72266c-5.54424-.29547-9.90394 2.0688-13.07812 7.0918-.33411.52799-.64457 1.0504-.94336 1.57226l.9414-.16797c.79405-.2855 1.57865-.65492 2.37305-.9375.79441-.28257 1.59868-.47863 2.43555-.41601.41843.0313.8443.12876 1.28125.31055.43694.18178.88499.44917 1.3457.82421.46072.37504.93408.85767 1.42383 1.46875s.99548 1.35034 1.51953 2.24024c.56492.82576 1.13344 1.39509 1.71094 1.74609s1.16472.48393 1.76758.4336c.60286-.0503 1.22032-.28387 1.86132-.66211.641-.37825 1.30418-.90244 1.9961-1.53516.71315-.43595 1.61061-.69019 2.42187-1.02148.40563-.16565.79049-.35048 1.11914-.58594s.60116-.52137.78516-.89063c.17483-.35085.402-.64341.67383-.87695s.58995-.40829.94336-.52539c.70682-.23421 1.56134-.23584 2.50195-.01.94061.22631 1.96656.67957 3.01758 1.35938s2.126 1.58462 3.16406 2.71094l.14649-.0371c-.96413-1.044-1.77151-2.21744-2.39454-3.54492-.88877-1.98388-2.18014-3.58646-3.87304-4.81055-3.17419-2.23714-7.55405-3.48308-13.14063-3.73633z" fill="#00c4d0"/><path d="m304.68555 154.64453c.0117.43977.0187.8826.01 1.33594-.0423 4.30543-1.31157 7.72325-3.80859 10.25586-2.41239 2.36377-5.75668 3.50435-10.03125 3.41992-4.23225-.0844-7.59672-1.225-10.09375-3.41992-1.7904-1.54757-2.65569-4.2199-2.63672-7.97071-.8725.16944-1.61146.39249-2.15039.69922-.60164.34244-1.03291.75517-1.37305 1.20508-.68026.89982-1.00074 1.94849-1.61133 2.87696-.57934 1.07983-1.12264 1.88362-1.63476 2.46289-.51213.57926-.9918.93352-1.44141 1.11523-.4496.18171-.86993.19095-1.26172.0781-.39179-.11279-.75507-.34804-1.09375-.65234-.67735-.6086-1.25297-1.49559-1.74609-2.25195-.49312-.75637-.90349-1.38105-1.25-1.46094-1.70964-.69445-2.75416-1.35443-3.6543-2.05273-.90013-.6983-1.65655-1.43581-2.79297-2.28321-1.04186.83043-2.16161 1.74193-3.35937 2.61914-1.19777.87722-2.47288 1.72057-3.82617 2.41797 0 0-.2791.0504-.59375.1543-.0779.0257-.12256.0849-.20117.11719.0966 4.94075.28814 9.53458.59961 13.68945.33858 4.51649.71935 6.96582 1.14257 7.3457.84646.75978 1.65031 2.257 2.41211 4.49414.76181 2.23714 3.36474 3.7566 7.8086 4.5586 4.35921.8442 11.51123 1.01433 21.45703.50781 9.94578-.50652 17.0132-1.18314 21.20312-2.02734 4.14761-.802 6.26497-2.84825 6.34961-6.14063.0847-3.29239.38081-3.41998.88867-.38086.63482 4.09438.6127 9.32939-.0644 15.70313-.12646 1.18238-.33889 2.27239-.59375 3.3164l4.51953-.0332c.94136-1.28126 1.86894-2.28742 2.70313-3.14063.83418-.85319 1.57533-1.55249 2.14062-2.21679.87611-1.02954 1.56427-1.92118 2.16016-2.64258s1.09794-1.27263 1.60351-1.625c.41872-.29183.8109-.48127 1.17383-.58594s.69683-.12383 1-.0742c.30317.0496.57503.16694.81445.33789.23945.17096.44742.39488.61915.6543.34344.51884.54694 1.18213.5957 1.85742.0487.6753-.0582 1.36309-.33594 1.93164-.16031.32817-.13726.65231.0996.91993.23689.26761.6891.47763 1.38281.58007.49226.0727.84287.34525 1.16407.69922.32119.35397.61148.78956.98437 1.19336.36565.39596.59646.80108.83594 1.13477.23948.33368.48746.59684.88867.70508l2.50391-.0176.10547-.0645c.51373-5.71534.83089-11.75228.90234-18.18945.0838-7.58126-.19685-15.23326-.77734-22.94336l-.28516.21094-5.20703-.52734c-.35026-.17191-.86775-.15103-1.33399-.26368-.23312-.0563-.45355-.14482-.63281-.30859s-.3185-.40313-.38867-.75586c-.3131-.84302-.62142-1.4618-1.04883-1.71484-.2137-.12652-.45826-.16128-.74609-.0859-.28784.0753-.61939.25893-1.01172.57227-.23864.43279-.54075.84197-.87891 1.20312-.33815.36115-.71179.67507-1.09765.92188-.38587.2468-.78425.42585-1.16602.51562-.38177.0898-.74836.0904-1.07422-.0195-1.02671-.45417-1.81281-.82187-2.44531-1.07617s-1.11129-.39554-1.52344-.39453c-.41214.001-.7574.14333-1.12305.45507-.36564.31175-.75114.7928-1.24414 1.47071-.54869.63039-1.08731 1.19457-1.60546 1.62304-.51817.42848-1.01534.72198-1.48243.8125-.23354.0453-.46081.0393-.67773-.0254s-.42337-.18913-.6211-.38086c-.39544-.38346-.74949-1.03776-1.05273-2.03125-.68297-1.59827-1.40777-3.14888-2.23437-4.57617-.82661-1.42729-1.75626-2.73049-2.85157-3.83789zm-41.78125 42.2793c-5.3419.12466-8.3824 1.46133-9.12305 4.00976-.37077 1.30186-.68402 2.58289-.95117 3.84766l4.125-.0293c1.97869-1.79941 3.67438-3.22352 5.12695-4.33398 1.45258-1.11046 2.66219-1.90586 3.67188-2.44922.9411-.50646 1.67459-.75311 2.30078-.86914-.89719-.0544-1.74372-.12441-2.72071-.1543-.85703-.0317-1.66655-.0393-2.42968-.0215zm6.13867.23242c.22507.0421.52391-.002.69531.10156.37359.22527.62822.58101.8086 1.00781.18036.42681.28507.92517.35546 1.43165.14078 1.01295.14552 2.06352.34571 2.66406-.0119.41818.0951.81045.4375 1.15234.34236.34189.9207.63319 1.8457.84961.925.21643 2.19761.35665 3.93359.39844 1.61925.039 3.74113-.0294 6.25782-.1836-.18107-2.30533-1.39142-4.0327-3.66016-5.16406-2.35645-1.15807-6.07263-1.8968-11.01953-2.25781z" fill="#97c795"/><path d="m344.58984 156.82422-.29882.2207c.15092.61711.30046 1.23423.48828 1.88086 1.94684 7.03625 6.72958 10.32089 14.34765 9.85742 3.7244-.21066 6.85713-1.32721 9.39649-3.34961 2.11613-1.72746 4.52768-3.93823 7.23633-6.63476.0263-.0245.0538-.0459.0801-.0703-.53266.0644-1.06661.12793-1.52929.24218-.62936.15542-1.20102.34905-1.73633.56055-1.07062.423-1.99426.91554-2.93555 1.31055-1.35805.5699-3.88086 2.23437-3.88086 2.23437h-3.16406c-.43635-.37238-.82869-.58304-1.19141-.68359-.36272-.10056-.69477-.0919-1.01172-.0234-.63387.13691-1.20443.50897-1.82226.70508-.47042.35172-.92074.57425-1.35547.69726-.43473.12302-.85474.14785-1.26367.10547-.81787-.0847-1.59326-.43827-2.36719-.80468-.86295-.26259-1.86956-.43453-2.76172-.73047-.44608-.14798-.86476-.3265-1.2207-.5625-.35594-.23601-.65072-.53104-.85156-.90821-.38206-.7175-.93772-1.43021-1.64063-2.11328-.70291-.68306-1.55306-1.33604-2.51758-1.93359zm92.49414.17773c-1.20539.82621-2.44503 1.44177-3.64453 2.30469-.59974.43146-1.18918.92438-1.75976 1.53711s-1.12158 1.34519-1.64453 2.25391c-.68049 1.06216-1.36579 2.06977-2.06641 2.86523-.35031.39773-.70462.74213-1.06445 1.01367s-.72531.4705-1.09766.57617c-.37235.10568-.75081.11743-1.13867.0176-.38786-.0999-.78504-.31117-1.19141-.65625-.40636-.34508-.82213-.82316-1.25-1.45312-.42786-.62997-.86795-1.41266-1.32031-2.36719-.79414-1.18634-1.52693-2.11435-2.21094-2.82617-.684-.71183-1.31828-1.20604-1.91211-1.5293-.59382-.32325-1.14829-.47546-1.67187-.49609-.52359-.0206-1.01694.0891-1.49024.28515-.94659.39209-1.81261 1.13189-2.67773 1.875-.71793.61669-1.44483 1.19198-2.20703 1.61719 1.03012 2.36035 1.50462 4.71973 1.36914 7.08008-.29626 3.11787-2.5184 5.47706-6.66602 7.07812-.67716.29494-1.14254.44336-1.39648.44336-.29626.12641-6.20113-2.27548-17.71289-7.20507-5.12104-2.10667-10.70762-2.27546-16.75977-.50586-6.13678 1.896-11.57431 4.99342-16.31445 9.29101-4.90943 4.38186-8.76139 9.64737-11.55469 15.79883-1.34656 3.10665-2.18179 6.2566-2.51367 9.44922l.61133-.3711c.74247-.27132 1.58277-.38804 2.30273-.5625.35998-.0872.69011-.18857.96289-.33203.27279-.14345.48793-.32872.61914-.58203.58194-1.12339 1.20307-2.09354 1.81641-2.8164s1.22003-1.1987 1.77148-1.33008c.27573-.0657.53654-.0457.7793.0723.24276.11798.46593.33464.66406.66016.19814.32552.37183.75947.51368 1.31641.14184.55693.25227 1.23661.32617 2.04882.0224.24616.1685.47007.36328.6543.19477.18423.43792.32837.65625.41602 1.21441.48748 2.35396 1.04393 3.79297 1.32812 1.28122.31501 2.57921.49904 3.90039.50586 1.32117.007 2.66595-.16478 4.03906-.55859.69948-.24225 1.31794-.55969 1.85352-.92383.53557-.36414.98767-.77484 1.35742-1.20313 1.2221-1.41556 2.27451-2.50225 3.18164-3.31445.90712-.81219 1.66931-1.34993 2.31055-1.66406.64123-.31413 1.16151-.40479 1.58593-.32617.42443.0786.75306.32729 1.00977.69336.2567.36606.44201.85023.58008 1.39843.13806.54821.22836 1.16012.29687 1.78516.13702 1.25007.18459 2.54906.33789 3.47461l2.23438 1.3457c.29925-1.35001 1.11416-2.6288 2.48242-3.83203 2.53936-2.23306 5.22688-3.34961 8.0625-3.34961 2.66633 0 5.73462 1.32803 9.20508 3.98242.74032.57429 1.40818 1.14491 2.03711 1.71485l.2539-.0195c.65751.43779 1.34808.76167 2.07032.97265.72223.21098 1.47658.31017 2.26171.30078.78513-.009 1.60109-.12826 2.44727-.35156.84618-.22329 1.72157-.55166 2.62695-.98242.63414-.56745 1.31013-1.35977 2.01367-2.27344.70356-.91366 1.43616-1.94812 2.1836-3.00195s1.50958-2.12729 2.27539-3.11524c.76581-.98794 1.53429-1.89141 2.29297-2.60742.75867-.71601 1.50835-1.24439 2.23437-1.48242.36301-.11901.72025-.16607 1.07032-.12695.35006.0391.69146.16371 1.02539.38672.33392.223.66001.54586.97461.97851s.61807.97649.91015 1.64453c.58417 1.3361 1.12073 3.16738 1.5957 5.59961.0389.33359.13814.63784.28321.91016s.33579.51373.56055.7207c.4495.41395 1.03096.69219 1.64062.82031.60966.12813 1.24829.10633 1.80664-.084.55835-.19029 1.03646-.54855 1.33203-1.08984.45802-.48915.9263-.90294 1.39844-1.25.47214-.34707.94884-.62797 1.42969-.84961.96169-.44328 1.93637-.65191 2.90039-.69336.96402-.0415 1.91682.0853 2.83984.3125.92302.22719 1.81561.5553 2.6543.91797l.78906.73437c.46405-3.39739.77211-6.86167.88086-10.41016.37057-11.03054-.81816-21.86683-3.5625-32.50976z" fill="#9596c7"/><path d="m445.65625 158.16016c-2.52341 10.09486-3.46065 20.6494-2.79297 31.66992.27344 4.72527.833 9.27092 1.625 13.67187.55121.30825.9251.78905 1.57617 1 .37317.12091.84562.14522 1.51367-.0215.66807-.16669 1.53166-.52356 2.68555-1.16406 1.18498-1.81597 2.25461-3.13184 3.21875-3.98243.48207-.42529.93724-.73421 1.36719-.93164.42995-.19742.83496-.28317 1.21484-.26172.37988.0215.73455.14951 1.06641.38086.33186.23136.63988.56578.92578.99805.57181.86455 1.05478 2.12202 1.45508 3.73633.54019.81433 1.05879 1.27985 1.56445 1.50586s.99865.21324 1.48242.0664c.96755-.29366 1.90349-1.11905 2.85938-1.61132.55944-.75298 1.06229-1.356 1.56641-1.82227.50409-.46627 1.01027-.79574 1.57617-1.00195.56589-.20622 1.19073-.28892 1.93554-.26172s1.60955.16448 2.65039.39844c.6304.14169 1.27809.11119 1.92774-.0274.64965-.13848 1.3012-.38536 1.93555-.67383 1.0187-.46324 1.89366-1.06979 2.68554-1.58789.79188-.51809 1.50001-.94788 2.1836-1.05078.34179-.0514.67672-.0213 1.01367.11914.33694.14049.67652.39203 1.02344.78321.34691.39117.70251.92243 1.07421 1.62304.37171.70062.75862 1.57181 1.16993 2.64063.11768.30582.33126.50294.60351.62695s.60278.17345.95703.18555c.65474.0224 1.36738-.0817 1.94922-.10156-1.35971-2.5584-2.78329-5.11739-4.34375-7.67579-2.42524-4.08693-4.66202-8.00404-6.71094-11.7539-2.0071-3.79199-2.92703-7.14163-2.75976-10.04883.33451-7.58398 1.5253-10.4292 3.57422-8.5332 2.09073 1.896 4.66237 5.43674 7.71484 10.61914 3.05247 5.18238 6.3766 10.46827 9.97266 15.86133 3.63787 5.35092 7.1915 7.68975 10.66211 7.01562 3.4288-.632 6.00044-3.81285 7.71484-9.54297 1.75621-5.77226 3.21982-11.52378 4.39063-17.2539 1.10329-5.25182 2.22538-9.38357 3.36328-12.50782l-.53321-.16992c-.49841-.0339-1.02862.032-1.56054.16797-.53193.13599-1.06573.3419-1.56836.58594-1.00527.48807-1.88914 1.13056-2.40039 1.67969-.6646.55202-1.31647.87886-1.95899 1.03711-.64252.15824-1.2753.14726-1.90234.0293-.81772-.42112-1.4144-.82998-1.89649-1.30664-.48208-.47666-.84902-1.01998-1.21093-1.71094-.0922.67728-.18244 1.35673-.33985 1.97266s-.38245 1.16818-.74414 1.5918c-.63388.47325-1.25223 1.01541-1.95508 1.16797-.35142.0763-.72522.0546-1.13085-.1211-.40565-.17571-.84364-.50659-1.32813-1.04883-.81536-.86551-1.62355-1.59353-2.41992-2.19726-.79638-.60373-1.58131-1.08239-2.34961-1.44531-.76831-.36293-1.5208-.61081-2.25195-.75391-.73116-.1431-1.44009-.18074-2.125-.125-.68492.0557-1.34501.20585-1.97461.43945-.6296.23361-1.22973.55093-1.79493.94141s-1.09617.85253-1.58789 1.37891c-.49171.52636-.94436 1.11651-1.35351 1.75781-.1437 1.17498-.34726 2.08611-.59766 2.77734-.25039.69123-.54822 1.16187-.88086 1.45703s-.69941.41558-1.08984.40235c-.39043-.0132-.80279-.1606-1.22656-.39453-.84754-.4679-1.73812-1.28865-2.57227-2.11329-.83415-.82463-1.61316-1.65287-2.23828-2.13281-1.13181-.74886-2.30197-1.70978-3.45703-2.58398-1.15507-.8742-2.29423-1.66054-3.36133-2.06055-.53355-.20001-1.05031-.30439-1.54102-.27344-.4907.0309-.95472.19636-1.38867.53321-.43395.33684-.83787.84676-1.20117 1.56445-.3633.71768-.6861 1.64293-.96484 2.81641-.43582 1.41257-.89198 2.50279-1.36133 3.32421s-.95273 1.37476-1.44336 1.71485-.98863.46695-1.48828.43554c-.49966-.0314-1.00162-.2206-1.49805-.51367-.99285-.58612-1.96666-1.5868-2.87305-2.56054-.90638-.97375-1.74491-1.92163-2.46679-2.4043-.77111-.589-1.52613-1.1829-2.3086-1.74414s-1.59125-1.0886-2.46875-1.54688c-.87749-.45828-1.82467-.84682-2.88086-1.12695-1.05618-.28013-2.22247-.45173-3.54101-.47852zm98.75195 1.14453c-.46079-.0258-.87255.0172-1.24804.10937-.75098.18445-1.35822.56764-1.92578 1.00586-.56758.43822-1.0949.93116-1.68946 1.33203-1.33863 1.12732-2.29224 1.85781-3.03515 2.27735-.37146.20977-.69057.34188-.97852.40625-.28795.0644-.54491.0619-.79297.002-.49611-.12001-.95645-.46764-1.55469-.95898-.59823-.49135-1.33353-1.12781-2.38281-1.82227l-.75586-.24023c1.04462 2.45416 1.4681 5.47422 1.25586 9.07421-.25089 4.25546-.81525 8.76433-1.69336 13.52539-.8781 4.71893-1.75666 9.41697-2.63476 14.09376-.0536.28277-.0838.54372-.13282.82226l4.87305 3.85547 3.78516-.0234c1.01748-.74942 2.08647-1.87847 3.25781-2.96289.58567-.54221 1.19693-1.07365 1.83984-1.54101.64292-.46737 1.31661-.87142 2.0293-1.15821.71269-.28678 1.46283-.45655 2.25781-.45703.79499-.00048 1.63559.16899 2.52539.56055.88981.39156 1.82903 1.0052 2.82618 1.89453.99713.88932 2.05095 2.05405 3.16796 3.54687.31815.31033.54873.67875.82422 1.00196.2755.3232.5959.60064 1.09766.73242s1.18469.11744 2.18164-.14648c.99695-.26394 2.30926-.77667 4.07031-1.64063l4.21485-2.01563c.0836-.5726.18359-1.12931.25781-1.71093.79452-5.94079 1.17077-11.92417 1.1289-17.94922-.0418-6.06719-.39738-11.35502-1.0664-15.86328-.17249-1.106-.35883-2.19389-.5586-3.26367-.00011-.00064.00012-.001 0-.002l-.77148-2.02539c-.74777.1009-1.3549.36525-1.85352.75-.49861.38475-.88991.88949-1.21093 1.47656-.14239 1.18066-.3209 2.19806-.5293 3.06641s-.44589 1.58738-.70703 2.17383-.5451 1.04004-.8457 1.375c-.30061.33495-.61851.55215-.94532.66601-.3268.11387-.66417.12568-1.0039.0488-.33974-.0768-.6821-.24141-1.02149-.47851-.67878-.47421-1.34362-1.23898-1.9414-2.17188-.68525-1.06938-1.42693-2.03315-2.1875-2.84765-.76058-.81451-1.53893-1.47985-2.29493-1.95508-.8745-.59821-1.66079-1.07431-2.37109-1.44531-.7103-.37102-1.34557-.63815-1.91797-.81836-.57239-.18022-1.08217-.27303-1.54297-.29883z" fill="#c39292"/><path d="m590.58008 159.14453c-.35075-.0422-.71538-.0205-1.10156.0703-.38619.0908-.79395.2512-1.23243.48633-.87695.47027-1.87524 1.23987-3.0625 2.35547-1.08263 1.04608-2.32332 3.17321-3.62109 4.60938-.32444.35904-.65234.67482-.98242.91992s-.66155.42026-.99414.49609c-.3326.0758-.66606.0531-.99805-.0957-.33199-.14877-.66393-.42482-.99219-.85352-.89909-1.59295-1.59991-2.71097-2.16406-3.49023s-.99084-1.21948-1.33984-1.45703c-.34901-.23756-.61939-.2724-.87305-.24024-.25366.0322-.49142.13222-.76953.16211-1.00452.29271-1.98725.64923-2.91211 1.18164-.46243.26621-.90932.57526-1.33789.94336-.27962.24017-.53651.55012-.79883.84375-.95664 4.6059-1.6769 9.55796-2.13086 14.89453-.61738 7.32978-.22947 14.09589 1.13477 20.31446l.5957-.28515c.71998-.36616 1.63102-.95583 2.56641-1.66406.93538-.70824 1.89558-1.53465 2.71484-2.37891.74723-.77003 1.40911-1.28661 2.00195-1.58984.59285-.30323 1.11592-.3935 1.58594-.31446.47002.079.88687.32831 1.26563.70508.37875.37678.72002.88073 1.03906 1.47071.57185 1.05748 1.16759 2.23915 2.15429 3.94336.25154.27419.61266.5602 1.07813.79101s1.03488.40603 1.70313.46484c.66822.0588 1.43506-.0004 2.29492-.24218.85985-.24179 1.8132-.66496 2.85351-1.33594.72294-.44512 1.28869-1.01977 1.88281-1.53906.59413-.5193 1.2169-.98333 2.05665-1.20508.41987-.11088.89382-.16211 1.44531-.12891.55148.0332 1.18025.15125 1.91015.375.72991.22375 1.56051.55291 2.51563 1.01367.85333.41167 1.84558.96935 2.91406 1.60547-.42036-.88501-.74976-1.79793-.96484-2.74609-1.33807-5.89865-.66833-9.35404 2.00781-10.36523 3.55423.58985 9.24121 1.09624 17.06055 1.51757 7.86114.42134 15.78489.58818 23.77148.50391 8.02841-.0843 15.0736-.50527 21.13672-1.26367 6.10493-.80054 9.19958-2.10624 9.2832-3.91797.35707-7.31573-.23349-14.08529-1.73632-20.32813-.0751-.0612-.11808-.13696-.19532-.19726-.91969-.78959-1.80282-1.43185-2.65429-1.94727-.85148-.51541-1.6706-.90405-2.46289-1.18164-.7923-.27758-1.55863-.44344-2.30079-.51953-.74215-.0761-1.46104-.0617-2.16211.0273-.70105.0891-1.38373.25282-2.05273.47071s-1.32472.49041-1.9707.80078c-1.29198.62074-2.54661 1.38945-3.80078 2.16211-1.26917.38908-2.76532 1.38455-4.03516 1.77539-.31746.0977-.62043.15676-.90234.16016-.28191.003-.54327-.049-.77539-.17774-.23213-.1287-.43542-.33424-.60352-.63281s-.30079-.69105-.39062-1.19727c-.0155-.57269-.31075-1.11855-.72657-1.65234-.41581-.53379-.95259-1.05452-1.45312-1.58008.006.86575-.1073 1.48236-.28125 1.97461-.17396.49225-.40727.85945-.64258 1.22461-.87678-.18784-1.75048-.39006-2.65625-.45117-.90577-.0611-1.84457.0197-2.84961.39258l-.27734-.004c-2.56738 2.12168-7.66683 3.24942-15.31055 3.375-7.69389.0843-13.15137-1.0546-16.37109-3.41406-.13836-.0983-.22593-.20569-.34961-.30664l-1.62891-.0176c-.99797.84065-1.94778 1.44756-2.85547 1.83594-.90769.38837-1.77422.55831-2.60156.52734-.82734-.031-1.61613-.26428-2.37305-.68164s-1.48131-1.01825-2.17773-1.78906c-.75511-.92234-1.42897-1.68177-2.08985-2.23047s-1.30827-.88816-2.00976-.97266zm77.00781 36.54102c-.80166.0408-1.66469.13319-2.58984.27539-7.4012 1.09546-14.69852 1.81137-21.89063 2.14844-2.34162.1264-4.0554 1.26331-5.14258 3.4121-.57836 1.18885-1.23505 2.37756-1.9414 3.56641l.082.0117 12.60547-4.89258c.54123-.39285 1.03203-.68396 1.48242-.89062.45039-.20667.8597-.3293 1.23633-.38477.37663-.0555.72108-.0432 1.04101.0176.31993.0607.61618.17053.89649.3125.56061.28393 1.05798.69484 1.5625 1.09375.50451.39891 1.01658.78555 1.60156 1.01953.80067.12056 1.7099.29613 2.72852.38477 1.01861.0886 2.14672.0914 3.3789-.13282.61609-.11211 1.25712-.28238 1.92578-.52539.66867-.24301 1.3633-.55972 2.08399-.96875.72069-.40902 1.46807-.90937 2.24023-1.51953.77217-.61016 1.56948-1.32937 2.39258-2.17578l.3125-.40234c-1.09831-.31108-2.431-.4298-4.00586-.34961z" fill="#c7c695"/></g></g></svg>