<?xml version="1.0" encoding="utf-8"?>
<!-- Generator: Adobe Illustrator 16.0.0, SVG Export Plug-In . SVG Version: 6.00 Build 0)  -->
<!DOCTYPE svg PUBLIC "-//W3C//DTD SVG 1.1//EN" "http://www.w3.org/Graphics/SVG/1.1/DTD/svg11.dtd">
<svg version="1.1" id="svg8" xmlns:svg="http://www.w3.org/2000/svg"
	 xmlns="http://www.w3.org/2000/svg" xmlns:xlink="http://www.w3.org/1999/xlink" x="0px" y="0px" width="315.062px"
	 height="162.906px" viewBox="0 0 315.062 162.906" enable-background="new 0 0 315.062 162.906" xml:space="preserve">
<path id="path1" fill="#FF0000" d="M89.781,49.203c9.302,7.647,15.19,16.708,16.688,28.875c0.505,11.03-3.055,20.879-9.688,29.703
	c-6.524,7.121-15.85,12.207-25.535,12.91c-13.522,0.266-23.02-2.881-32.844-12.273c-7.731-8.072-11.297-17.412-11.082-28.633
	c0.814-9.006,3.508-16.332,9.211-23.332c0.502-0.626,1.005-1.253,1.523-1.898C51.199,39.871,73.937,38.116,89.781,49.203z"/>
<path id="path2" fill="#FFFFFF" d="M115.531,46.453c41.099,0,41.099,0,50,8c4.631,6.008,5.853,12.599,5,20
	c-1.801,6.035-4.514,9.604-9,14c0.424,0.742,0.848,1.483,1.285,2.248c1.57,2.753,3.135,5.51,4.696,8.269
	c0.677,1.193,1.355,2.386,2.037,3.576c0.979,1.712,1.948,3.429,2.919,5.146c0.879,1.547,0.879,1.547,1.777,3.127
	c1.285,2.635,1.285,2.635,1.285,5.635c-6.6,0-13.2,0-20,0c-1.838-3.455-3.671-6.914-5.5-10.375c-0.525-0.984-1.049-1.97-1.59-2.984
	c-0.497-0.941-0.993-1.882-1.504-2.852c-0.461-0.869-0.922-1.738-1.396-2.635c-1.01-2.154-1.01-2.154-1.01-4.154
	c-3.63,0-7.26,0-11,0c0,7.59,0,15.18,0,23c-5.94,0-11.88,0-18,0C115.531,93.354,115.531,70.253,115.531,46.453z M133.531,61.453
	c0,5.61,0,11.22,0,17c2.815,0.093,2.815,0.093,5.688,0.188c1.583,0.052,1.583,0.052,3.199,0.105c3.504-0.33,5.311-1.207,8.114-3.293
	c1.545-3.092,1.293-5.594,1-9c-2.219-2.907-3.52-3.84-7-5c-1.895-0.068-3.792-0.085-5.688-0.062
	C137.09,61.411,135.337,61.432,133.531,61.453z"/>
<path id="path3" fill="#FFFFFF" d="M269.531,0.453c5.017-0.099,10.033-0.171,15.051-0.22c1.705-0.02,3.41-0.047,5.115-0.082
	c2.458-0.049,4.914-0.071,7.373-0.089c0.756-0.021,1.513-0.041,2.292-0.062c5.147-0.002,8.217,0.867,12.169,4.453
	c3.833,6.555,3.43,13.082,3.404,20.52c0.006,1.367,0.012,2.734,0.021,4.102c0.018,3.698,0.017,7.396,0.011,11.095
	c-0.003,3.094,0.003,6.188,0.009,9.282c0.015,7.302,0.013,14.604,0.001,21.905c-0.011,7.519,0.004,15.038,0.03,22.558
	c0.021,6.469,0.028,12.938,0.022,19.406c-0.003,3.857-0.001,7.716,0.017,11.574c0.016,3.629,0.011,7.257-0.007,10.886
	c-0.006,1.957,0.009,3.914,0.023,5.87c-0.06,7.072-0.67,11.812-4.531,17.803c-4.02,3.576-8.221,3.397-13.363,3.293
	c-0.792-0.004-1.584-0.008-2.4-0.013c-2.516-0.017-5.032-0.055-7.549-0.093c-1.711-0.016-3.423-0.029-5.135-0.041
	c-4.185-0.033-8.368-0.084-12.553-0.146c0-3.96,0-7.92,0-12c10.891,0,21.78,0,33,0c0-45.54,0-91.08,0-138c-10.891,0-21.779,0-33,0
	C269.531,8.493,269.531,4.533,269.531,0.453L269.531,0.453z"/>
<path id="path4" fill="#FFFFFF" d="M17.895,0.16c0.792,0.004,1.583,0.009,2.4,0.013c2.517,0.017,5.033,0.055,7.549,0.093
	c1.711,0.015,3.423,0.029,5.135,0.041c4.184,0.033,8.368,0.085,12.553,0.146c0,3.96,0,7.92,0,12c-10.89,0-21.78,0-33,0
	c0,45.54,0,91.08,0,138c10.89,0,21.78,0,33,0c0,3.96,0,7.92,0,12c-4.856,0.1-9.712,0.172-14.569,0.22
	c-1.65,0.021-3.3,0.048-4.949,0.082c-2.381,0.049-4.761,0.071-7.142,0.089c-0.729,0.021-1.459,0.041-2.211,0.062
	c-5.478,0.002-8.734-1.104-13.129-4.453c-3.88-6.508-3.431-13.111-3.404-20.52c-0.006-1.367-0.013-2.734-0.021-4.102
	c-0.018-3.699-0.017-7.396-0.011-11.096c0.003-3.094-0.003-6.188-0.009-9.281c-0.014-7.302-0.012-14.604-0.001-21.904
	c0.012-7.52-0.002-15.039-0.029-22.558c-0.022-6.469-0.029-12.938-0.023-19.407c0.003-3.858,0.001-7.716-0.016-11.573
	c-0.016-3.629-0.012-7.257,0.007-10.887C0.029,25.169,0.015,23.212,0,21.255C0.059,14.184,0.67,9.444,4.531,3.453
	C8.551-0.124,12.752,0.056,17.895,0.16z"/>
<path id="path5" fill="#FFFFFF" d="M180.531,46.453c14.85,0,29.699,0,45,0c2,11,2,11,2,15c-9.57,0-19.141,0-29,0c0,4.29,0,8.58,0,13
	c6.6,0,13.199,0,20,0c0.66,4.62,1.32,9.24,2,14c-7.26,0-14.52,0-22,0c0,4.29,0,8.58,0,13c10.23,0,20.46,0,31,0
	c0.66,4.62,1.32,9.24,2,14c-1,1-1,1-3.019,1.12c-0.886-0.002-1.772-0.004-2.685-0.007c-1.016,0-2.031,0-3.076,0
	c-1.074-0.006-2.148-0.011-3.256-0.016c-0.982-0.001-1.964-0.002-2.976-0.003c-3.685-0.005-7.368-0.02-11.052-0.032
	c-8.229-0.021-16.459-0.041-24.938-0.062C180.531,93.354,180.531,70.253,180.531,46.453L180.531,46.453z"/>
<path id="path6" fill="#FFFFFF" d="M285.531,49.453c0.984,1.812,0.984,1.812,1,4c-0.777,2.578-0.777,2.578-1.938,5.25
	c-0.57,1.338-0.57,1.338-1.152,2.703c-0.301,0.676-0.602,1.351-0.91,2.047c-0.928-0.145-1.856-0.289-2.812-0.438
	c-0.636-0.085-1.271-0.17-1.926-0.258c-1.646-0.222-3.289-0.47-4.93-0.734c-6.346-0.867-6.346-0.867-12.332,0.992
	c-4.504,3.659-6.352,7.734-7,13.438c-0.596,8.25,0.268,15.144,5.125,22c3.958,2.754,7.094,3.285,11.875,3
	c3.75-0.77,7.367-1.798,11-3c1.033,1.932,2.051,3.87,3.062,5.812c0.568,1.079,1.137,2.158,1.723,3.27
	c1.215,2.918,1.215,2.918,0.215,5.918c-10.533,4.952-22.712,5.9-33.723,2.027c-7.992-3.605-12.629-9.113-16.277-17.027
	c-2.02-5.672-2.387-10.859-2.375-16.812c0.002-0.886,0.003-1.772,0.005-2.686c0.122-6.525,0.989-11.816,4.37-17.501
	c0.598-1.072,1.196-2.145,1.812-3.25C251.441,44.251,269.635,41.468,285.531,49.453L285.531,49.453z"/>
</svg>
