<svg height="239.99527" preserveAspectRatio="xMidYMid meet" viewBox="0 0 7312.9163 2399.9527" width="731.29163" xmlns="http://www.w3.org/2000/svg" xmlns:xlink="http://www.w3.org/1999/xlink"><linearGradient id="a"><stop offset="0" stop-color="#101010"/><stop offset="1" stop-color="#b3b3b3"/></linearGradient><filter id="b" color-interpolation-filters="sRGB"><feFlood flood-opacity=".498039" result="flood"/><feComposite in="flood" in2="SourceGraphic" operator="in" result="composite1"/><feGaussianBlur in="composite1" result="blur" stdDeviation="3"/><feOffset dx="6" dy="6" result="offset"/><feComposite in="SourceGraphic" in2="offset" operator="over" result="composite2"/></filter><filter id="c" color-interpolation-filters="sRGB" height="1.016929" width="1.005007" x="-.002504" y="-.008464"><feFlood flood-opacity=".498039" result="flood"/><feComposite in="flood" in2="SourceGraphic" operator="in" result="composite1"/><feGaussianBlur in="composite1" result="blur" stdDeviation="4.5252686"/><feOffset dx="6" dy="6" result="offset"/><feComposite in="SourceGraphic" in2="offset" operator="over" result="composite2"/></filter><filter id="d" color-interpolation-filters="sRGB" height="1.042259" width="1.002565" x="-.001282" y="-.021129"><feGaussianBlur stdDeviation="2.6576966"/></filter><filter id="e" color-interpolation-filters="sRGB" height="1.00463" width="1.005114" x="-.002557" y="-.002315"><feGaussianBlur stdDeviation="2.2286584"/></filter><filter id="f" color-interpolation-filters="sRGB" height="1.060766" width="1.002487" x="-.001244" y="-.030383"><feGaussianBlur stdDeviation="2.3264616"/></filter><linearGradient id="g" gradientUnits="userSpaceOnUse" x1="2106.5538" x2="2166.338" xlink:href="#a" y1="1905.904099" y2="1569.667999"/><linearGradient id="h" gradientUnits="userSpaceOnUse" x1="1616.5576" x2="1691.5482" xlink:href="#a" y1="2336.7412" y2="1675.6899"/><filter id="i" color-interpolation-filters="sRGB" height="1.018369" width="1.005433" x="-.002716" y="-.009184"><feFlood flood-opacity=".498039" result="flood"/><feComposite in="flood" in2="SourceGraphic" operator="in" result="composite1"/><feGaussianBlur in="composite1" result="blur" stdDeviation="4.9102306"/><feOffset dx="6" dy="6" result="offset"/><feComposite in="SourceGraphic" in2="offset" operator="over" result="composite2"/></filter><filter id="j" color-interpolation-filters="sRGB" height="1.020576" width="1.020576" x="-.010288" y="-.010288"><feGaussianBlur stdDeviation="3.4079218"/></filter><g fill="#3a719a" fill-rule="evenodd" transform="translate(-759.84355 -98.51553)"><path d="m2773.3823 1823.9081h4881.7896v301.87814h-4881.7896z" fill="#000" fill-opacity=".439216" fill-rule="nonzero" filter="url(#d)" stroke-width="13.2939" transform="matrix(1 0 -.1414171 .9899501 379.76327 49.419381)"/><path d="m2773.3823 1823.9081h4881.7896v301.87814h-4881.7896z" fill="#3ca9fd" fill-rule="nonzero" filter="url(#d)" stroke-width="13.2939" transform="matrix(1 0 -.1414171 .9899501 360 24.999999)"/><path d="m3035.1226 157.65088c-32.0879.898-135.668 32.48162-210.918 66.28906-243 110.11565-458.9961 321.65548-585.9961 576.66018l-40.9961 81.1328 45.9961 51.1914c84 92.72898 108 210.56788 65 320.68358-103 264.6639-442.0119 280.1235-572.0119 27.0508-28-56.0239-31.9922-73.4168-31.9922-137.168 1-88.8653 27-154.54088 85-208.63278 22-20.2845 40-42.4963 40-49.2578s-16.0039-43.4723-34.0039-82.1094c-119-250.175-373-493.58484-615-592.10937-87-35.73929-177.9883-59.88475-187.98825-51.19141-3 3.86371 9.99995 28.00201 29.99995 54.08203 139 182.56015 163.9922 435.64125 61.9922 616.26955-20 33.8074-35 65.6782-35 70.5078 0 3.8637 15.9961 10.6285 35.9961 14.4922 100 18.3526 186.0078 89.82238 223.0078 185.44918 27 67.6149 35.9883 198.0219 22.9883 300.4102-5 39.6029-5.9922 72.4537-1.9922 75.3515 3 1.9319 30.0078-4.8435 58.0078-15.4687 66-24.1482 152.9883-24.1482 207.9883 0 31.6999 13.4428 93.7381 60.8619 120.7812 88.8672h-278.1835v.02a466.79687 458.98437 0 0 0 -1.9532-.02 466.79687 458.98437 0 0 0 -.547 0 466.79687 458.98437 0 0 0 -466.24998 458.9843 466.79687 458.98437 0 0 0 466.79678 458.9844 466.79687 458.98437 0 0 0 400.1563-222.6563h357.8908a466.79687 458.98437 0 0 0 400.1563 222.6563 466.79687 458.98437 0 0 0 466.7968-458.9844 466.79687 458.98437 0 0 0 -458.0078-458.8867v-.1h-279.5896l26.9531-25.1172c94-85.9675 205.0078-104.3103 308.0078-54.0821 23 11.5911 43.9961 19.3147 45.9961 17.3828 3-1.9318 0-47.3338-5-101.4257-19-188.3556 13.0039-314.8939 99.0039-392.16798 42-38.6371 136.9961-83.0664 175.9961-83.0664 20 0 19-4.8213-20-66.6406-53-83.0697-69.0078-158.4103-63.0078-290.7422 7-145.85496 40.0078-238.59007 123.0078-342.91017 20-25.11409 33-48.30426 30-52.16797-1.375-1.20741-4.498-1.69079-9.082-1.5625z" fill="#000" fill-opacity=".439216" filter="url(#e)"/><path d="m3015.918 128.59375c-32.0879.898-135.668 32.48162-210.918 66.28906-243 110.11565-458.9961 321.6555-585.9961 576.66016l-40.9961 81.13281 45.9961 51.19141c84 92.72897 108 210.56791 65 320.68361-103 264.6639-442.0117 280.1235-572.0117 27.0508-28-56.0239-31.9922-73.4168-31.9922-137.168 1-88.8653 27-154.54092 85-208.63282 22-20.28447 40-42.49633 40-49.25781 0-6.76149-16.0039-43.47231-34.0039-82.10938-119-250.17503-373-493.58484-615-592.10937-87-35.73929-177.98829-59.88475-187.98829-51.19141-3 3.86371 10 28.00201 29.99999 54.08203 139 182.56015 163.9922 435.64123 61.9922 616.26954-20 33.80744-35 65.67818-35 70.50781 0 3.86371 15.9961 10.62848 35.9961 14.49219 100 18.3526 186.0078 89.82246 223.0078 185.44922 27 67.6149 35.9883 198.0219 22.9883 300.4102-5 39.6029-5.9922 72.4537-1.9922 75.3515 3 1.9319 30.0078-4.8435 58.0078-15.4687 66-24.1482 152.9883-24.1482 207.9883 0 31.6999 13.4428 93.7381 60.8619 120.7812 88.8672h-278.1835v.02a466.79687 458.98437 0 0 0 -1.9532-.02 466.79687 458.98437 0 0 0 -.547 0 466.79687 458.98437 0 0 0 -466.25005 458.9843 466.79687 458.98437 0 0 0 466.79685 458.9844 466.79687 458.98437 0 0 0 400.1563-222.6563h357.8906a466.79687 458.98437 0 0 0 400.1563 222.6563 466.79687 458.98437 0 0 0 466.7968-458.9844 466.79687 458.98437 0 0 0 -458.0078-458.8867v-.1h-279.5896l26.9531-25.1172c94-85.9675 205.0078-104.3103 308.0078-54.0821 23 11.5911 43.9961 19.3147 45.9961 17.3828 3-1.9318 0-47.3338-5-101.4257-19-188.3556 13.0039-314.8939 99.0039-392.16801 42-38.63707 136.9961-83.0664 175.9961-83.0664 20 0 19-4.82132-20-66.64063-53-83.0697-69.0078-158.41023-63.0078-290.74218 7-145.85495 40.0078-238.59006 123.0078-342.91016 20-25.11409 33-48.30426 30-52.16797-1.375-1.20741-4.498-1.69079-9.082-1.5625z" fill="#000" stroke="#fff" stroke-width="10"/><g fill="#000" fill-opacity=".439216" filter="url(#i)" stroke-width="0" transform="matrix(1.0781694 0 .0311088 .927498 389.9399 80.040041)"><path d="m2867.749 1102.7069q19.6851 0 34.8963-13.4216 15.2111-12.5269 17.8955-31.3172l60.8447-331.96163v-5.36865q0-16.10596-10.7373-26.84326-11.6321-9.84253-27.738-9.84253h-123.479l-76.056 418.75487zm8.9478 189.6924q0-15.2112-10.7373-25.9485-10.7373-10.7373-25.9485-10.7373h-124.3738l-100.2148 566.3928h-156.5857l229.9572-1283.10789h344.4886q46.5283 0 80.5298 34.00147 34.0014 33.10669 35.791 81.42456 0 4.47388-3.5791 21.47461l-71.5821 404.43845q-17.0007 84.1089-99.32 107.3731 31.3171 11.6321 47.4231 41.1596 12.5268 23.2642 12.5268 51.897 0 6.2634-.8948 13.4216 0 13.4217-.8947 20.5799l-93.0567 507.3376h-157.4804l93.9514-525.2331z"/><path d="m3280.2405 538.99841h348.0676l-25.0537 144.95362h-193.2715l-72.4768 405.33327h192.3767l-26.8432 143.164h-191.482l-79.635 446.493h189.6924l-25.9485 143.164h-348.0676z"/><path d="m4052.4316 683.95203h-106.4782l-205.7984 1138.15427h-156.5857l207.5879-1138.15427h-110.0573l25.9484-144.95362h373.1214z"/><path d="m4334.2859 1102.7069q19.685 0 34.8962-13.4216 15.2112-12.5269 17.8955-31.3172l60.8448-331.96163v-5.36865q0-16.10596-10.7373-26.84326-11.6321-9.84253-27.7381-9.84253h-123.479l-76.0559 418.75487zm8.9477 189.6924q0-15.2112-10.7373-25.9485-10.7373-10.7373-25.9484-10.7373h-124.3738l-100.2149 566.3928h-156.5857l229.9573-1283.10789h344.4885q46.5284 0 80.5298 34.00147 34.0015 33.10669 35.791 81.42456 0 4.47388-3.5791 21.47461l-71.582 404.43845q-17.0007 84.1089-99.3201 107.3731 31.3172 11.6321 47.4231 41.1596 12.5269 23.2642 12.5269 51.897 0 6.2634-.8948 13.4216 0 13.4217-.8948 20.5799l-93.0566 507.3376h-157.4805l93.9514-525.2331z"/><path d="m4671.6162 1640.4669q0 15.2112 10.7373 26.8433 10.7373 11.6321 26.8433 11.6321h82.3193q43.844 0 54.5813-44.7388l163.7439-908.19703v-5.36865q0-16.10596-10.7373-26.84326-10.7373-9.84253-26.8433-9.84253h-83.2141q-18.7903 0-34.8962 12.52685-15.2112 11.63208-18.7903 29.52759l-163.7439 909.98653zm383.8587-1101.46849q46.5283 0 79.635 34.00147 34.0014 34.00146 34.0014 82.31933 0 13.42163-1.7895 20.57984l-184.3238 1030.78125q-9.8425 49.2126-50.1074 82.3193-40.2649 33.1067-91.2671 33.1067h-213.8513q-47.4231 0-80.5298-34.0014-33.1067-34.0015-33.1067-81.4246v-22.3694l184.3238-1028.99169q9.8425-50.10742 49.2126-83.21411 40.2649-33.10669 90.3723-33.10669z"/><path d="m5585.1819 1705.7855q-8.9478 50.1074-48.3179 83.2141-39.3701 33.1067-90.3723 33.1067h-356.1206l232.6416-1283.10789h337.3303q47.4231 0 80.5298 34.00147 34.0015 34.00146 34.0015 82.31933 0 6.26343-2.6844 20.57984l-75.1611 404.43845q-17.0007 84.1089-99.3201 107.3731 31.3172 11.6321 47.4231 41.1596 12.5269 23.2642 12.5269 51.897 0 6.2634-.8948 13.4216 0 13.4217-.8948 20.5799zm30.4223-979.77903v-5.36865q0-16.10596-10.7373-26.84326-10.7373-9.84253-25.9484-9.84253h-127.9529l-76.0559 418.75487h124.3737q19.6851 0 34.8963-13.4216 15.2112-12.5269 17.8955-31.3172zm-268.4326 529.70703-76.0559 422.334h123.479q19.6851 0 34.8963-12.5269 15.2111-11.6321 17.8955-30.4223l60.8447-338.2251v-4.4739q0-15.2112-10.7373-25.9485-10.7373-10.7373-25.9485-10.7373z"/><path d="m6056.7285 1465.9857 56.3709-568.18236-195.9558 568.18236zm-189.6924 144.9536-72.4768 211.167h-163.7439l483.1787-1283.10789h153.9014l-100.2148 1283.10789h-145.8484l20.5798-211.167z"/><path d="m6803.866 683.95203h-106.4783l-205.7983 1138.15427h-156.5857l207.5879-1138.15427h-110.0574l25.9485-144.95362h373.1213z"/></g><g fill="#3ca9fd" filter="url(#c)" stroke-width="0" transform="matrix(1.0781694 0 .0311088 .927498 372.57871 54.876511)"><path d="m2867.749 1102.7069q19.6851 0 34.8963-13.4216 15.2111-12.5269 17.8955-31.3172l60.8447-331.96163v-5.36865q0-16.10596-10.7373-26.84326-11.6321-9.84253-27.738-9.84253h-123.479l-76.056 418.75487zm8.9478 189.6924q0-15.2112-10.7373-25.9485-10.7373-10.7373-25.9485-10.7373h-124.3738l-100.2148 566.3928h-156.5857l229.9572-1283.10789h344.4886q46.5283 0 80.5298 34.00147 34.0014 33.10669 35.791 81.42456 0 4.47388-3.5791 21.47461l-71.5821 404.43845q-17.0007 84.1089-99.32 107.3731 31.3171 11.6321 47.4231 41.1596 12.5268 23.2642 12.5268 51.897 0 6.2634-.8948 13.4216 0 13.4217-.8947 20.5799l-93.0567 507.3376h-157.4804l93.9514-525.2331z"/><path d="m3280.2405 538.99841h348.0676l-25.0537 144.95362h-193.2715l-72.4768 405.33327h192.3767l-26.8432 143.164h-191.482l-79.635 446.493h189.6924l-25.9485 143.164h-348.0676z"/><path d="m4052.4316 683.95203h-106.4782l-205.7984 1138.15427h-156.5857l207.5879-1138.15427h-110.0573l25.9484-144.95362h373.1214z"/><path d="m4334.2859 1102.7069q19.685 0 34.8962-13.4216 15.2112-12.5269 17.8955-31.3172l60.8448-331.96163v-5.36865q0-16.10596-10.7373-26.84326-11.6321-9.84253-27.7381-9.84253h-123.479l-76.0559 418.75487zm8.9477 189.6924q0-15.2112-10.7373-25.9485-10.7373-10.7373-25.9484-10.7373h-124.3738l-100.2149 566.3928h-156.5857l229.9573-1283.10789h344.4885q46.5284 0 80.5298 34.00147 34.0015 33.10669 35.791 81.42456 0 4.47388-3.5791 21.47461l-71.582 404.43845q-17.0007 84.1089-99.3201 107.3731 31.3172 11.6321 47.4231 41.1596 12.5269 23.2642 12.5269 51.897 0 6.2634-.8948 13.4216 0 13.4217-.8948 20.5799l-93.0566 507.3376h-157.4805l93.9514-525.2331z"/><path d="m4671.6162 1640.4669q0 15.2112 10.7373 26.8433 10.7373 11.6321 26.8433 11.6321h82.3193q43.844 0 54.5813-44.7388l163.7439-908.19703v-5.36865q0-16.10596-10.7373-26.84326-10.7373-9.84253-26.8433-9.84253h-83.2141q-18.7903 0-34.8962 12.52685-15.2112 11.63208-18.7903 29.52759l-163.7439 909.98653zm383.8587-1101.46849q46.5283 0 79.635 34.00147 34.0014 34.00146 34.0014 82.31933 0 13.42163-1.7895 20.57984l-184.3238 1030.78125q-9.8425 49.2126-50.1074 82.3193-40.2649 33.1067-91.2671 33.1067h-213.8513q-47.4231 0-80.5298-34.0014-33.1067-34.0015-33.1067-81.4246v-22.3694l184.3238-1028.99169q9.8425-50.10742 49.2126-83.21411 40.2649-33.10669 90.3723-33.10669z"/><path d="m5585.1819 1705.7855q-8.9478 50.1074-48.3179 83.2141-39.3701 33.1067-90.3723 33.1067h-356.1206l232.6416-1283.10789h337.3303q47.4231 0 80.5298 34.00147 34.0015 34.00146 34.0015 82.31933 0 6.26343-2.6844 20.57984l-75.1611 404.43845q-17.0007 84.1089-99.3201 107.3731 31.3172 11.6321 47.4231 41.1596 12.5269 23.2642 12.5269 51.897 0 6.2634-.8948 13.4216 0 13.4217-.8948 20.5799zm30.4223-979.77903v-5.36865q0-16.10596-10.7373-26.84326-10.7373-9.84253-25.9484-9.84253h-127.9529l-76.0559 418.75487h124.3737q19.6851 0 34.8963-13.4216 15.2112-12.5269 17.8955-31.3172zm-268.4326 529.70703-76.0559 422.334h123.479q19.6851 0 34.8963-12.5269 15.2111-11.6321 17.8955-30.4223l60.8447-338.2251v-4.4739q0-15.2112-10.7373-25.9485-10.7373-10.7373-25.9485-10.7373z"/><path d="m6056.7285 1465.9857 56.3709-568.18236-195.9558 568.18236zm-189.6924 144.9536-72.4768 211.167h-163.7439l483.1787-1283.10789h153.9014l-100.2148 1283.10789h-145.8484l20.5798-211.167z"/><path d="m6803.866 683.95203h-106.4783l-205.7983 1138.15427h-156.5857l207.5879-1138.15427h-110.0574l25.9485-144.95362h373.1213z"/></g><path d="m3121.9368 1822.9319h4881.7896v301.87814h-4881.7896z" fill="none" stroke-width="13.2939" transform="matrix(1 0 -.14141713 .9899501 0 0)"/><circle cx="2579.9851" cy="1981.8864" fill="#303030" filter="url(#j)" opacity=".354167" r="397.5"/><g fill="none" fill-opacity=".25098" filter="url(#b)" stroke-width="0" transform="matrix(1.0781694 0 .03110881 .92749804 360 24.999999)"><path d="m2867.749 1102.7069q19.6851 0 34.8963-13.4216 15.2111-12.5269 17.8955-31.3172l60.8447-331.96163v-5.36865q0-16.10596-10.7373-26.84326-11.6321-9.84253-27.738-9.84253h-123.479l-76.056 418.75487zm8.9478 189.6924q0-15.2112-10.7373-25.9485-10.7373-10.7373-25.9485-10.7373h-124.3738l-100.2148 566.3928h-156.5857l229.9572-1283.10789h344.4886q46.5283 0 80.5298 34.00147 34.0014 33.10669 35.791 81.42456 0 4.47388-3.5791 21.47461l-71.5821 404.43845q-17.0007 84.1089-99.32 107.3731 31.3171 11.6321 47.4231 41.1596 12.5268 23.2642 12.5268 51.897 0 6.2634-.8948 13.4216 0 13.4217-.8947 20.5799l-93.0567 507.3376h-157.4804l93.9514-525.2331z"/><path d="m3280.2405 538.99841h348.0676l-25.0537 144.95362h-193.2715l-72.4768 405.33327h192.3767l-26.8432 143.164h-191.482l-79.635 446.493h189.6924l-25.9485 143.164h-348.0676z"/><path d="m4052.4316 683.95203h-106.4782l-205.7984 1138.15427h-156.5857l207.5879-1138.15427h-110.0573l25.9484-144.95362h373.1214z"/><path d="m4334.2859 1102.7069q19.685 0 34.8962-13.4216 15.2112-12.5269 17.8955-31.3172l60.8448-331.96163v-5.36865q0-16.10596-10.7373-26.84326-11.6321-9.84253-27.7381-9.84253h-123.479l-76.0559 418.75487zm8.9477 189.6924q0-15.2112-10.7373-25.9485-10.7373-10.7373-25.9484-10.7373h-124.3738l-100.2149 566.3928h-156.5857l229.9573-1283.10789h344.4885q46.5284 0 80.5298 34.00147 34.0015 33.10669 35.791 81.42456 0 4.47388-3.5791 21.47461l-71.582 404.43845q-17.0007 84.1089-99.3201 107.3731 31.3172 11.6321 47.4231 41.1596 12.5269 23.2642 12.5269 51.897 0 6.2634-.8948 13.4216 0 13.4217-.8948 20.5799l-93.0566 507.3376h-157.4805l93.9514-525.2331z"/><path d="m4671.6162 1640.4669q0 15.2112 10.7373 26.8433 10.7373 11.6321 26.8433 11.6321h82.3193q43.844 0 54.5813-44.7388l163.7439-908.19703v-5.36865q0-16.10596-10.7373-26.84326-10.7373-9.84253-26.8433-9.84253h-83.2141q-18.7903 0-34.8962 12.52685-15.2112 11.63208-18.7903 29.52759l-163.7439 909.98653zm383.8587-1101.46849q46.5283 0 79.635 34.00147 34.0014 34.00146 34.0014 82.31933 0 13.42163-1.7895 20.57984l-184.3238 1030.78125q-9.8425 49.2126-50.1074 82.3193-40.2649 33.1067-91.2671 33.1067h-213.8513q-47.4231 0-80.5298-34.0014-33.1067-34.0015-33.1067-81.4246v-22.3694l184.3238-1028.99169q9.8425-50.10742 49.2126-83.21411 40.2649-33.10669 90.3723-33.10669z"/><path d="m5585.1819 1705.7855q-8.9478 50.1074-48.3179 83.2141-39.3701 33.1067-90.3723 33.1067h-356.1206l232.6416-1283.10789h337.3303q47.4231 0 80.5298 34.00147 34.0015 34.00146 34.0015 82.31933 0 6.26343-2.6844 20.57984l-75.1611 404.43845q-17.0007 84.1089-99.3201 107.3731 31.3172 11.6321 47.4231 41.1596 12.5269 23.2642 12.5269 51.897 0 6.2634-.8948 13.4216 0 13.4217-.8948 20.5799zm30.4223-979.77903v-5.36865q0-16.10596-10.7373-26.84326-10.7373-9.84253-25.9484-9.84253h-127.9529l-76.0559 418.75487h124.3737q19.6851 0 34.8963-13.4216 15.2112-12.5269 17.8955-31.3172zm-268.4326 529.70703-76.0559 422.334h123.479q19.6851 0 34.8963-12.5269 15.2111-11.6321 17.8955-30.4223l60.8447-338.2251v-4.4739q0-15.2112-10.7373-25.9485-10.7373-10.7373-25.9485-10.7373z"/><path d="m6056.7285 1465.9857 56.3709-568.18236-195.9558 568.18236zm-189.6924 144.9536-72.4768 211.167h-163.7439l483.1787-1283.10789h153.9014l-100.2148 1283.10789h-145.8484l20.5798-211.167z"/><path d="m6803.866 683.95203h-106.4783l-205.7983 1138.15427h-156.5857l207.5879-1138.15427h-110.0574l25.9485-144.95362h373.1213z"/></g><g fill="#000" fill-opacity=".25098" filter="url(#f)" stroke-width="0" transform="matrix(1.0000117 0 -.1886337 .9999883 416.46837 68.389949)"><path d="m3322.6541 2013.6211h-127.6087v-176.4247h127.6087v34.1238h-82.3473v30.4507h76.4231v34.1238h-76.4231v43.6026h82.3473z"/><path d="m3545.7621 2013.6211h-45.2614v-118.1299l-32.702 76.66h-31.3986l-32.702-76.66v118.1299h-42.8917v-176.4247h52.8445l39.6926 88.5086 39.5741-88.5086h52.8445z"/><path d="m3745.2914 1949.7575q0 32.7019-19.9055 50.1193-19.9056 17.4173-58.6503 17.4173-38.7447 0-58.6502-17.4173-19.7871-17.4174-19.7871-50.0008v-112.6796h45.7354v110.0729q0 18.3652 7.7015 27.3701 7.7016 9.0049 25.0004 9.0049 17.0619 0 24.8819-8.6494 7.9386-8.6495 7.9386-27.7256v-110.0729h45.7353z"/><path d="m3915.0809 2013.6211h-127.2533v-176.4247h45.4984v142.3009h81.7549z"/><path d="m4105.4869 2013.6211h-47.0387l-12.204-35.6641h-65.4039l-12.204 35.6641h-45.8538l65.1669-176.4247h52.3706zm-70.2618-68.0106-21.6828-63.2712-21.6828 63.2712z"/><path d="m4268.8782 1871.3202h-55.0957v142.3009h-45.4984v-142.3009h-55.0957v-34.1238h155.6898z"/><path d="m4391.629 2013.6211h-103.3192v-31.2801h28.9104v-113.8645h-28.9104v-31.2801h103.3192v31.2801h-28.9104v113.8645h28.9104z"/><path d="m4600.2816 1925.468q0 42.1808-24.171 67.0627-24.171 24.7634-66.8257 24.7634-42.5362 0-66.7073-24.7634-24.171-24.8819-24.171-67.0627 0-42.5363 24.171-67.1812 24.1711-24.7634 66.7073-24.7634 42.4178 0 66.7072 24.7634 24.2895 24.6449 24.2895 67.1812zm-60.309 44.669q6.6352-8.057 9.8343-18.9577 3.1991-11.0191 3.1991-25.8298 0-15.877-3.6731-27.0147-3.673-11.1376-9.5973-18.0097-6.0427-7.1092-13.9812-10.3083-7.8201-3.1991-16.351-3.1991-8.6495 0-16.351 3.0807-7.5831 3.0806-13.9813 10.1897-5.9242 6.6352-9.7158 18.3652-3.673 11.6116-3.673 27.0147 0 15.7585 3.5545 26.8962 3.6731 11.0191 9.5974 18.0097 5.9242 6.9907 13.8627 10.3083 7.9386 3.3176 16.7065 3.3176 8.7679 0 16.7064-3.3176 7.9385-3.4361 13.8628-10.5452z"/><path d="m4795.4271 2013.6211h-43.8396l-74.8827-121.092v121.092h-41.7069v-176.4247h54.3848l64.3376 101.068v-101.068h41.7068z"/><path d="m5064.6258 1958.1699q0 26.0668-22.1568 42.4178-22.0382 16.2325-59.9536 16.2325-21.9198 0-38.2707-3.7915-16.2325-3.91-30.4508-9.8343v-42.2993h4.9764q14.0998 11.2561 31.5171 17.2989 17.5359 6.0427 33.6499 6.0427 4.1469 0 10.9006-.7109 6.7537-.7109 11.0192-2.3697 5.2133-2.1327 8.5309-5.3318 3.4361-3.1991 3.4361-9.4789 0-5.8057-4.9764-9.9527-4.8579-4.2655-14.3367-6.5167-9.9528-2.3697-21.0904-4.384-11.0192-2.1327-20.735-5.3318-22.2752-7.2276-32.1095-19.5501-9.7158-12.441-9.7158-30.8062 0-24.645 22.0383-40.1665 22.1567-15.6401 56.8729-15.6401 17.4174 0 34.3608 3.4361 17.0619 3.3176 29.5029 8.4124v40.6405h-4.8579q-10.6637-8.5309-26.1853-14.2182-15.4031-5.8058-31.5171-5.8058-5.6873 0-11.3746.8294-5.5688.7109-10.7822 2.8436-4.6209 1.7773-7.9385 5.4504-3.3176 3.5545-3.3176 8.1754 0 6.9907 5.3319 10.7822 5.3318 3.6731 20.1425 6.7537 9.7158 2.0142 18.6022 3.91 9.0049 1.8958 19.3131 5.2134 20.261 6.6351 29.8583 18.1282 9.7158 11.3746 9.7158 29.6213z"/><path d="m5233.8229 1871.3202h-55.0957v142.3009h-45.4983v-142.3009h-55.0957v-34.1238h155.6897z"/><path d="m5424.229 2013.6211h-47.0387l-12.204-35.6641h-65.4039l-12.204 35.6641h-45.8538l65.1669-176.4247h52.3705zm-70.2618-68.0106-21.6829-63.2712-21.6828 63.2712z"/><path d="m5587.6202 1871.3202h-55.0957v142.3009h-45.4984v-142.3009h-55.0957v-34.1238h155.6898z"/><path d="m5710.371 2013.6211h-103.3193v-31.2801h28.9105v-113.8645h-28.9105v-31.2801h103.3193v31.2801h-28.9105v113.8645h28.9105z"/><path d="m5919.0236 1925.468q0 42.1808-24.171 67.0627-24.171 24.7634-66.8258 24.7634-42.5362 0-66.7072-24.7634-24.171-24.8819-24.171-67.0627 0-42.5363 24.171-67.1812 24.171-24.7634 66.7072-24.7634 42.4178 0 66.7073 24.7634 24.2895 24.6449 24.2895 67.1812zm-60.3091 44.669q6.6352-8.057 9.8343-18.9577 3.1991-11.0191 3.1991-25.8298 0-15.877-3.673-27.0147-3.6731-11.1376-9.5973-18.0097-6.0428-7.1092-13.9813-10.3083-7.82-3.1991-16.351-3.1991-8.6494 0-16.351 3.0807-7.583 3.0806-13.9812 10.1897-5.9243 6.6352-9.7158 18.3652-3.6731 11.6116-3.6731 27.0147 0 15.7585 3.5546 26.8962 3.673 11.0191 9.5973 18.0097 5.9243 6.9907 13.8628 10.3083 7.9385 3.3176 16.7064 3.3176 8.7679 0 16.7065-3.3176 7.9385-3.4361 13.8627-10.5452z"/><path d="m6114.1692 2013.6211h-43.8396l-74.8828-121.092v121.092h-41.7068v-176.4247h54.3848l64.3375 101.068v-101.068h41.7069z"/><path d="m6387.7518 1892.8845q0 11.8486-4.147 23.2231-4.147 11.2562-11.8485 18.9577-10.5452 10.4267-23.5786 15.7586-12.9149 5.3318-32.228 5.3318h-28.318v57.4654h-45.4984v-176.4247h74.8828q16.8249 0 28.318 2.9621 11.6115 2.8437 20.4979 8.6495 10.6637 6.9906 16.2325 17.8913 5.6873 10.9006 5.6873 26.1852zm-47.0387 1.0664q0-7.4646-4.0285-12.7964-4.0285-5.4504-9.3603-7.5831-7.1091-2.8436-13.8628-3.0806-6.7537-.3555-18.0098-.3555h-7.82v52.8445h13.0334q11.6115 0 19.0761-1.4218 7.5831-1.4219 12.678-5.6873 4.3839-3.7916 6.2797-9.0049 2.0142-5.3319 2.0142-12.9149z"/><path d="m6591.5465 1925.468q0 42.1808-24.171 67.0627-24.171 24.7634-66.8257 24.7634-42.5363 0-66.7073-24.7634-24.171-24.8819-24.171-67.0627 0-42.5363 24.171-67.1812 24.171-24.7634 66.7073-24.7634 42.4177 0 66.7072 24.7634 24.2895 24.6449 24.2895 67.1812zm-60.309 44.669q6.6352-8.057 9.8343-18.9577 3.1991-11.0191 3.1991-25.8298 0-15.877-3.6731-27.0147-3.673-11.1376-9.5973-18.0097-6.0427-7.1092-13.9812-10.3083-7.8201-3.1991-16.351-3.1991-8.6495 0-16.351 3.0807-7.5831 3.0806-13.9813 10.1897-5.9242 6.6352-9.7158 18.3652-3.673 11.6116-3.673 27.0147 0 15.7585 3.5545 26.8962 3.6731 11.0191 9.5974 18.0097 5.9242 6.9907 13.8627 10.3083 7.9386 3.3176 16.7065 3.3176 8.7679 0 16.7064-3.3176 7.9385-3.4361 13.8628-10.5452z"/><path d="m6869.7501 1837.1964-47.5126 176.4247h-50.3563l-31.6356-114.9308-30.8062 114.9308h-50.3563l-47.5126-176.4247h47.5126l27.1332 121.4475 32.465-121.4475h45.3799l30.9246 121.4475 28.4365-121.4475z"/><path d="m7027.6913 2013.6211h-127.6088v-176.4247h127.6088v34.1238h-82.3474v30.4507h76.4231v34.1238h-76.4231v43.6026h82.3474z"/><path d="m7164.7788 1891.2257q0-6.6352-2.7252-11.3746-2.7251-4.7394-9.3603-7.4645-4.6209-1.8958-10.7822-2.2513-6.1612-.4739-14.3367-.4739h-16.4695v47.5126h13.9813q10.9006 0 18.2467-1.0664 7.3461-1.0663 12.3225-4.8579 4.7394-3.673 6.8722-8.057 2.2512-4.5024 2.2512-11.967zm70.9727 122.3954h-55.5696l-48.1051-64.693h-20.9719v64.693h-45.2614v-176.4247h76.3046q15.6401 0 26.8962 1.7773 11.2561 1.7773 21.0904 7.7015 9.9527 5.9243 15.7585 15.4031 5.9243 9.3604 5.9243 23.5786 0 19.5501-9.1234 31.8726-9.0049 12.3224-25.8298 20.4979z"/><path d="m7383.2657 2013.6211h-127.6087v-176.4247h127.6087v34.1238h-82.3473v30.4507h76.4231v34.1238h-76.4231v43.6026h82.3473z"/><path d="m7588.1269 1925.5865q0 24.6449-11.2561 44.195-11.2561 19.4316-28.4365 29.8583-12.9149 7.8201-28.318 10.9007-15.4031 3.0806-36.4935 3.0806h-62.2048v-176.4247h63.9821q21.5643 0 37.2044 3.673 15.64 3.5546 26.3037 10.1898 18.2468 11.1376 28.6735 30.0953 10.5452 18.8391 10.5452 44.432zm-47.0387-.3555q0-17.4173-6.3982-29.7398-6.2797-12.441-20.024-19.4316-6.9907-3.4361-14.3368-4.6209-7.2276-1.3034-21.9198-1.3034h-11.493v110.4284h11.493q16.2325 0 23.8156-1.4218 7.5831-1.5404 14.8107-5.4504 12.4409-7.1091 18.2467-18.9576 5.8058-11.967 5.8058-29.5029z"/></g><g fill="#fff" stroke-width="0" transform="matrix(1.0000117 0 -.18863367 .99998833 404.13682 44.184717)"><path d="m3322.6541 2013.6211h-127.6087v-176.4247h127.6087v34.1238h-82.3473v30.4507h76.4231v34.1238h-76.4231v43.6026h82.3473z"/><path d="m3545.7621 2013.6211h-45.2614v-118.1299l-32.702 76.66h-31.3986l-32.702-76.66v118.1299h-42.8917v-176.4247h52.8445l39.6926 88.5086 39.5741-88.5086h52.8445z"/><path d="m3745.2914 1949.7575q0 32.7019-19.9055 50.1193-19.9056 17.4173-58.6503 17.4173-38.7447 0-58.6502-17.4173-19.7871-17.4174-19.7871-50.0008v-112.6796h45.7354v110.0729q0 18.3652 7.7015 27.3701 7.7016 9.0049 25.0004 9.0049 17.0619 0 24.8819-8.6494 7.9386-8.6495 7.9386-27.7256v-110.0729h45.7353z"/><path d="m3915.0809 2013.6211h-127.2533v-176.4247h45.4984v142.3009h81.7549z"/><path d="m4105.4869 2013.6211h-47.0387l-12.204-35.6641h-65.4039l-12.204 35.6641h-45.8538l65.1669-176.4247h52.3706zm-70.2618-68.0106-21.6828-63.2712-21.6828 63.2712z"/><path d="m4268.8782 1871.3202h-55.0957v142.3009h-45.4984v-142.3009h-55.0957v-34.1238h155.6898z"/><path d="m4391.629 2013.6211h-103.3192v-31.2801h28.9104v-113.8645h-28.9104v-31.2801h103.3192v31.2801h-28.9104v113.8645h28.9104z"/><path d="m4600.2816 1925.468q0 42.1808-24.171 67.0627-24.171 24.7634-66.8257 24.7634-42.5362 0-66.7073-24.7634-24.171-24.8819-24.171-67.0627 0-42.5363 24.171-67.1812 24.1711-24.7634 66.7073-24.7634 42.4178 0 66.7072 24.7634 24.2895 24.6449 24.2895 67.1812zm-60.309 44.669q6.6352-8.057 9.8343-18.9577 3.1991-11.0191 3.1991-25.8298 0-15.877-3.6731-27.0147-3.673-11.1376-9.5973-18.0097-6.0427-7.1092-13.9812-10.3083-7.8201-3.1991-16.351-3.1991-8.6495 0-16.351 3.0807-7.5831 3.0806-13.9813 10.1897-5.9242 6.6352-9.7158 18.3652-3.673 11.6116-3.673 27.0147 0 15.7585 3.5545 26.8962 3.6731 11.0191 9.5974 18.0097 5.9242 6.9907 13.8627 10.3083 7.9386 3.3176 16.7065 3.3176 8.7679 0 16.7064-3.3176 7.9385-3.4361 13.8628-10.5452z"/><path d="m4795.4271 2013.6211h-43.8396l-74.8827-121.092v121.092h-41.7069v-176.4247h54.3848l64.3376 101.068v-101.068h41.7068z"/><path d="m5064.6258 1958.1699q0 26.0668-22.1568 42.4178-22.0382 16.2325-59.9536 16.2325-21.9198 0-38.2707-3.7915-16.2325-3.91-30.4508-9.8343v-42.2993h4.9764q14.0998 11.2561 31.5171 17.2989 17.5359 6.0427 33.6499 6.0427 4.1469 0 10.9006-.7109 6.7537-.7109 11.0192-2.3697 5.2133-2.1327 8.5309-5.3318 3.4361-3.1991 3.4361-9.4789 0-5.8057-4.9764-9.9527-4.8579-4.2655-14.3367-6.5167-9.9528-2.3697-21.0904-4.384-11.0192-2.1327-20.735-5.3318-22.2752-7.2276-32.1095-19.5501-9.7158-12.441-9.7158-30.8062 0-24.645 22.0383-40.1665 22.1567-15.6401 56.8729-15.6401 17.4174 0 34.3608 3.4361 17.0619 3.3176 29.5029 8.4124v40.6405h-4.8579q-10.6637-8.5309-26.1853-14.2182-15.4031-5.8058-31.5171-5.8058-5.6873 0-11.3746.8294-5.5688.7109-10.7822 2.8436-4.6209 1.7773-7.9385 5.4504-3.3176 3.5545-3.3176 8.1754 0 6.9907 5.3319 10.7822 5.3318 3.6731 20.1425 6.7537 9.7158 2.0142 18.6022 3.91 9.0049 1.8958 19.3131 5.2134 20.261 6.6351 29.8583 18.1282 9.7158 11.3746 9.7158 29.6213z"/><path d="m5233.8229 1871.3202h-55.0957v142.3009h-45.4983v-142.3009h-55.0957v-34.1238h155.6897z"/><path d="m5424.229 2013.6211h-47.0387l-12.204-35.6641h-65.4039l-12.204 35.6641h-45.8538l65.1669-176.4247h52.3705zm-70.2618-68.0106-21.6829-63.2712-21.6828 63.2712z"/><path d="m5587.6202 1871.3202h-55.0957v142.3009h-45.4984v-142.3009h-55.0957v-34.1238h155.6898z"/><path d="m5710.371 2013.6211h-103.3193v-31.2801h28.9105v-113.8645h-28.9105v-31.2801h103.3193v31.2801h-28.9105v113.8645h28.9105z"/><path d="m5919.0236 1925.468q0 42.1808-24.171 67.0627-24.171 24.7634-66.8258 24.7634-42.5362 0-66.7072-24.7634-24.171-24.8819-24.171-67.0627 0-42.5363 24.171-67.1812 24.171-24.7634 66.7072-24.7634 42.4178 0 66.7073 24.7634 24.2895 24.6449 24.2895 67.1812zm-60.3091 44.669q6.6352-8.057 9.8343-18.9577 3.1991-11.0191 3.1991-25.8298 0-15.877-3.673-27.0147-3.6731-11.1376-9.5973-18.0097-6.0428-7.1092-13.9813-10.3083-7.82-3.1991-16.351-3.1991-8.6494 0-16.351 3.0807-7.583 3.0806-13.9812 10.1897-5.9243 6.6352-9.7158 18.3652-3.6731 11.6116-3.6731 27.0147 0 15.7585 3.5546 26.8962 3.673 11.0191 9.5973 18.0097 5.9243 6.9907 13.8628 10.3083 7.9385 3.3176 16.7064 3.3176 8.7679 0 16.7065-3.3176 7.9385-3.4361 13.8627-10.5452z"/><path d="m6114.1692 2013.6211h-43.8396l-74.8828-121.092v121.092h-41.7068v-176.4247h54.3848l64.3375 101.068v-101.068h41.7069z"/><path d="m6387.7518 1892.8845q0 11.8486-4.147 23.2231-4.147 11.2562-11.8485 18.9577-10.5452 10.4267-23.5786 15.7586-12.9149 5.3318-32.228 5.3318h-28.318v57.4654h-45.4984v-176.4247h74.8828q16.8249 0 28.318 2.9621 11.6115 2.8437 20.4979 8.6495 10.6637 6.9906 16.2325 17.8913 5.6873 10.9006 5.6873 26.1852zm-47.0387 1.0664q0-7.4646-4.0285-12.7964-4.0285-5.4504-9.3603-7.5831-7.1091-2.8436-13.8628-3.0806-6.7537-.3555-18.0098-.3555h-7.82v52.8445h13.0334q11.6115 0 19.0761-1.4218 7.5831-1.4219 12.678-5.6873 4.3839-3.7916 6.2797-9.0049 2.0142-5.3319 2.0142-12.9149z"/><path d="m6591.5465 1925.468q0 42.1808-24.171 67.0627-24.171 24.7634-66.8257 24.7634-42.5363 0-66.7073-24.7634-24.171-24.8819-24.171-67.0627 0-42.5363 24.171-67.1812 24.171-24.7634 66.7073-24.7634 42.4177 0 66.7072 24.7634 24.2895 24.6449 24.2895 67.1812zm-60.309 44.669q6.6352-8.057 9.8343-18.9577 3.1991-11.0191 3.1991-25.8298 0-15.877-3.6731-27.0147-3.673-11.1376-9.5973-18.0097-6.0427-7.1092-13.9812-10.3083-7.8201-3.1991-16.351-3.1991-8.6495 0-16.351 3.0807-7.5831 3.0806-13.9813 10.1897-5.9242 6.6352-9.7158 18.3652-3.673 11.6116-3.673 27.0147 0 15.7585 3.5545 26.8962 3.6731 11.0191 9.5974 18.0097 5.9242 6.9907 13.8627 10.3083 7.9386 3.3176 16.7065 3.3176 8.7679 0 16.7064-3.3176 7.9385-3.4361 13.8628-10.5452z"/><path d="m6869.7501 1837.1964-47.5126 176.4247h-50.3563l-31.6356-114.9308-30.8062 114.9308h-50.3563l-47.5126-176.4247h47.5126l27.1332 121.4475 32.465-121.4475h45.3799l30.9246 121.4475 28.4365-121.4475z"/><path d="m7027.6913 2013.6211h-127.6088v-176.4247h127.6088v34.1238h-82.3474v30.4507h76.4231v34.1238h-76.4231v43.6026h82.3474z"/><path d="m7164.7788 1891.2257q0-6.6352-2.7252-11.3746-2.7251-4.7394-9.3603-7.4645-4.6209-1.8958-10.7822-2.2513-6.1612-.4739-14.3367-.4739h-16.4695v47.5126h13.9813q10.9006 0 18.2467-1.0664 7.3461-1.0663 12.3225-4.8579 4.7394-3.673 6.8722-8.057 2.2512-4.5024 2.2512-11.967zm70.9727 122.3954h-55.5696l-48.1051-64.693h-20.9719v64.693h-45.2614v-176.4247h76.3046q15.6401 0 26.8962 1.7773 11.2561 1.7773 21.0904 7.7015 9.9527 5.9243 15.7585 15.4031 5.9243 9.3604 5.9243 23.5786 0 19.5501-9.1234 31.8726-9.0049 12.3224-25.8298 20.4979z"/><path d="m7383.2657 2013.6211h-127.6087v-176.4247h127.6087v34.1238h-82.3473v30.4507h76.4231v34.1238h-76.4231v43.6026h82.3473z"/><path d="m7588.1269 1925.5865q0 24.6449-11.2561 44.195-11.2561 19.4316-28.4365 29.8583-12.9149 7.8201-28.318 10.9007-15.4031 3.0806-36.4935 3.0806h-62.2048v-176.4247h63.9821q21.5643 0 37.2044 3.673 15.64 3.5546 26.3037 10.1898 18.2468 11.1376 28.6735 30.0953 10.5452 18.8391 10.5452 44.432zm-47.0387-.3555q0-17.4173-6.3982-29.7398-6.2797-12.441-20.024-19.4316-6.9907-3.4361-14.3368-4.6209-7.2276-1.3034-21.9198-1.3034h-11.493v110.4284h11.493q16.2325 0 23.8156-1.4218 7.5831-1.5404 14.8107-5.4504 12.4409-7.1091 18.2467-18.9576 5.8058-11.967 5.8058-29.5029z"/></g><path d="m316.49094 3085.7627h272.18195v24.626631h-272.18195z" style="fill:#101010;fill-opacity:.313725;stroke:#101010;stroke-width:180.946;stroke-linecap:round;stroke-linejoin:round;stroke-opacity:.313725" transform="matrix(.70471262 -.70949286 .69998676 .71415582 0 0)"/><circle cx="2575" cy="1805" fill="#fff" r="80"/><path d="m321.69373 3333.1335h272.18195v24.626631h-272.18195z" style="fill:#101010;fill-opacity:.313725;stroke:#101010;stroke-width:180.946;stroke-linecap:round;stroke-linejoin:round;stroke-opacity:.313725" transform="matrix(.70471259 -.70949289 .69998679 .71415579 0 0)"/><g fill="#fff"><circle cx="2575" cy="2155" r="80"/><circle cx="2750" cy="1980" r="80"/><circle cx="2400" cy="1980" r="80"/><path d="m1348.1836 1773.3203v137.8906h-137.8906v137.8907h137.8906v137.8711h137.8906v-137.8711h137.8711v-137.8907h-137.8711v-137.8906z"/></g><path d="m1417.5 1702.5a275 275 0 0 0 -275 275 275 275 0 0 0 275 275 275 275 0 0 0 275-275 275 275 0 0 0 -275-275zm-1.6016 15.4688a260.85788 260.85788 0 0 1 1.7578 0 260.85788 260.85788 0 0 1 260.8399 260.8398 260.85788 260.85788 0 0 1 -260.8399 260.8594 260.85788 260.85788 0 0 1 -260.8593-260.8594 260.85788 260.85788 0 0 1 259.1015-260.8398z" fill="#303030"/><g fill="url(#h)" opacity=".69213" stroke="none" stroke-width="0" transform="matrix(.79722317 0 0 .50863839 817.79661 717.34773)"><path d="m1268.6387 1745.804q2.4484 0 4.3403-1.6694 1.892-1.5581 2.2259-3.8952l7.5678-41.2894v-.6677q0-2.0033-1.3355-3.3388-1.4468-1.2242-3.45-1.2242h-15.3583l-9.4598 52.0847zm1.1129 23.5939q0-1.892-1.3355-3.2275-1.3355-1.3355-3.2275-1.3355h-15.4696l-12.4647 70.4478h-19.4761l28.6021-159.5927h42.8474q5.7872 0 10.0163 4.2291 4.229 4.1178 4.4516 10.1276 0 .5564-.4451 2.671l-8.9034 50.304q-2.1145 10.4614-12.3534 13.355 3.8952 1.4468 5.8985 5.1194 1.5581 2.8936 1.5581 6.455 0 .779-.1113 1.6693 0 1.6694-.1113 2.5598l-11.5744 63.1025h-19.5874l11.6857-65.3284z"/><path d="m1319.9443 1675.69h43.2925l-3.1161 18.0293h-24.0391l-9.0147 50.4153h23.9278l-3.3387 17.8067h-23.8165l-9.905 55.5347h23.5939l-3.2275 17.8067h-43.2926z"/><path d="m1415.9892 1693.7193h-13.2437l-25.5972 141.5634h-19.4761l25.8198-141.5634h-13.6889l3.2274-18.0293h46.4088z"/><path d="m1451.0462 1745.804q2.4484 0 4.3404-1.6694 1.892-1.5581 2.2258-3.8952l7.5679-41.2894v-.6677q0-2.0033-1.3355-3.3388-1.4468-1.2242-3.4501-1.2242h-15.3582l-9.4599 52.0847zm1.1129 23.5939q0-1.892-1.3355-3.2275-1.3355-1.3355-3.2274-1.3355h-15.4696l-12.4647 70.4478h-19.4761l28.602-159.5927h42.8474q5.7872 0 10.0163 4.2291 4.2291 4.1178 4.4517 10.1276 0 .5564-.4452 2.671l-8.9033 50.304q-2.1146 10.4614-12.3534 13.355 3.8952 1.4468 5.8984 5.1194 1.5581 2.8936 1.5581 6.455 0 .779-.1113 1.6693 0 1.6694-.1113 2.5598l-11.5743 63.1025h-19.5874l11.6856-65.3284z"/><path d="m1493.0033 1812.6904q0 1.892 1.3355 3.3388 1.3355 1.4468 3.3388 1.4468h10.2388q5.4533 0 6.7888-5.5646l20.3665-112.9614v-.6677q0-2.0033-1.3355-3.3388-1.3355-1.2242-3.3388-1.2242h-10.3501q-2.3372 0-4.3404 1.5581-1.892 1.4468-2.3372 3.6726l-20.3664 113.184zm47.7443-137.0004q5.7872 0 9.905 4.2291 4.229 4.2291 4.229 10.2389 0 1.6693-.2225 2.5597l-22.9262 128.2083q-1.2242 6.1211-6.2323 10.2389-5.0082 4.1178-11.3518 4.1178h-26.5988q-5.8985 0-10.0163-4.2291-4.1178-4.2291-4.1178-10.1276v-2.7823l22.9262-127.9857q1.2242-6.2324 6.121-10.3502 5.0082-4.1178 11.2405-4.1178z"/><path d="m1606.6324 1820.8148q-1.1129 6.2323-6.0098 10.3501-4.8968 4.1178-11.2404 4.1178h-44.2943l28.936-159.5927h41.957q5.8985 0 10.0163 4.2291 4.2291 4.2291 4.2291 10.2389 0 .779-.3339 2.5597l-9.3485 50.304q-2.1145 10.4614-12.3534 13.355 3.8952 1.4468 5.8985 5.1194 1.5581 2.8936 1.5581 6.455 0 .779-.1113 1.6693 0 1.6694-.1113 2.5598zm3.7839-121.8648v-.6677q0-2.0033-1.3355-3.3388-1.3355-1.2242-3.2274-1.2242h-15.9148l-9.4598 52.0847h15.4696q2.4484 0 4.3404-1.6694 1.8919-1.5581 2.2258-3.8952zm-33.3876 65.8849-9.4598 52.5298h15.3583q2.4484 0 4.3404-1.5581 1.892-1.4468 2.2258-3.7839l7.5679-42.0684v-.5564q0-1.892-1.3355-3.2275-1.3355-1.3355-3.2275-1.3355z"/><path d="m1665.2833 1790.9885 7.0114-70.6704-24.3729 70.6704zm-23.5939 18.0293-9.0146 26.2649h-20.3665l60.0977-159.5927h19.1422l-12.4647 159.5927h-18.1406l2.5597-26.2649z"/><path d="m1758.2121 1693.7193h-13.2437l-25.5972 141.5634h-19.4761l25.8198-141.5634h-13.689l3.2275-18.0293h46.4088z"/></g><path d="m1780.6182 1676.2427h439.9903v33.849915h-439.9903z" fill="url(#g)" opacity=".69213"/><path d="m98.037964-2782.6721h143.22385v.210398h-143.22385z" fill="#202020" stroke="#202020" stroke-linecap="round" stroke-linejoin="round" stroke-width="35.4061" transform="matrix(.78108927 -.62441937 -.62441937 -.78108927 0 0)"/><path d="m240.58676-2896.6279h143.22385v.210398h-143.22385z" fill="#202020" stroke="#202020" stroke-linecap="round" stroke-linejoin="round" stroke-width="35.4061" transform="matrix(.78108927 -.62441937 -.62441937 -.78108927 0 0)"/><g fill="#000" stroke-width="8.28156" transform="matrix(1.31079 0 0 .76289872 360 24.999999)"><path d="m1100.208 2171.2007h8.3894l-.6038 3.4938h-4.6584l-1.7469 9.7697h4.6368l-.647 3.4506h-4.6153l-1.9194 10.7617h4.5721l-.6254 3.4507h-8.3894z"/><path d="m1112.7813 2182.5879-3.4722 19.5393h-3.731l5.6289-30.9265h4.6799l-.4744 22.2783 7.462-22.2783h5.1329l-5.6073 30.9265h-3.7311l3.4291-19.3021-6.2759 19.3021h-3.2781z"/><path d="m1128.8053 2197.6413v.1079q0 .3666.2373.647.2803.2803.647.2803h1.9841q1.0568 0 1.3156-1.0783l4.7877-26.3975h3.6664l-5.1545 28.1444q-.2372 1.1862-1.1861 1.9841-.9705.798-2.2214.798h-5.1975q-1.0999 0-1.8979-.8195-.798-.8196-.798-1.9626v-.5392l4.9819-27.6052h3.5801z"/><path d="m1143.3197 2198.6765h4.5721l-.6255 3.4507h-8.3894l5.6073-30.9265h3.7526z"/><path d="m1159.1064 2193.5437 1.3587-13.6948-4.7231 13.6948zm-4.5721 3.4938-1.7469 5.0897h-3.9467l11.646-30.9265h3.7094l-2.4154 30.9265h-3.5154l.496-5.0897z"/><path d="m1177.1145 2174.6945h-2.5664l-4.9603 27.4327h-3.7742l5.0035-27.4327h-2.6527l.6254-3.4938h8.9933z"/><path d="m1177.7831 2202.1272h-3.731l5.6288-30.9265h3.7095z"/><path d="m1184.1668 2197.7492q0 .3666.2588.647.2588.2803.647.2803h1.9841q1.0568 0 1.3156-1.0783l3.9467-21.8901v-.1294q0-.3882-.2588-.647-.2588-.2372-.647-.2372h-2.0057q-.4529 0-.8411.3019-.3667.2804-.4529.7117l-3.9467 21.9332zm9.2521-26.5485q1.1214 0 1.9194.8195.8195.8196.8195 1.9841 0 .3235-.043.4961l-4.4427 24.8447q-.2373 1.1862-1.2078 1.9841-.9705.798-2.1998.798h-5.1544q-1.143 0-1.941-.8195-.7979-.8196-.7979-1.9626v-.5392l4.4427-24.8016q.2372-1.2077 1.1862-2.0056.9705-.798 2.1782-.798z"/><path d="m1194.26 2202.1272 5.6073-30.9265h3.731q1.6175 16.7357 1.6822 23.6154.2157-6.0818 3.3644-23.6154h3.731l-5.6073 30.9265h-3.731q-1.596-16.671-1.6607-23.0547-.2156 5.3485-3.3643 23.0547z"/><path d="m1223.8709 2183.0839q3.5585 6.1033 3.8604 6.815.5608 1.0352.5608 2.243 0 .6038-.1294 1.2293l-1.0999 5.9739q-.2588 1.1862-1.1862 1.9841-.9705.798-2.2214.798h-5.1544q-1.143 0-1.9194-.8195-.7548-.798-.7548-1.9626v-.496l1.3587-7.8503h3.58l-1.1646 6.6425v.1079q0 .3666.2588.647.2588.2803.6254.2803h1.9842q.4744 0 .8626-.3019.3882-.3235.4961-.7764l.7764-4.3564q.043-.1941.043-.4098 0-.8842-.7548-2.2214-.3451-.6254-1.8548-3.4506-1.6822-3.1703-1.941-3.6663-.8195-1.6175-.8195-3.1919 0-.4745.065-.9489l.9274-5.3486q.2372-1.2077 1.2077-2.0056.9489-.798 2.1782-.798h5.176q1.1215 0 1.941.8195.8411.8196.8411 1.9841 0 .3235-.043.4961l-1.3587 7.613h-3.6232l1.143-6.4053q.043-.065.043-.1294 0-.3666-.2804-.647-.2804-.2372-.647-.2372h-1.9841q-.4745 0-.8411.3019-.3667.2804-.4529.7117l-.6255 3.4291q-.065.3882-.065.798 0 1.5528.9921 3.1487z"/><path d="m1242.8926 2174.6945h-2.5664l-4.9603 27.4327h-3.7742l5.0035-27.4327h-2.6527l.6254-3.4938h8.9933z"/><path d="m1249.0823 2193.5437 1.3587-13.6948-4.7231 13.6948zm-4.5722 3.4938-1.7468 5.0897h-3.9467l11.6459-30.9265h3.7095l-2.4155 30.9265h-3.5153l.496-5.0897z"/><path d="m1267.0904 2174.6945h-2.5664l-4.9604 27.4327h-3.7741l5.0034-27.4327h-2.6527l.6255-3.4938h8.9932z"/><path d="m1267.7589 2202.1272h-3.731l5.6289-30.9265h3.7095z"/><path d="m1274.1427 2197.7492q0 .3666.2588.647.2588.2803.647.2803h1.9841q1.0567 0 1.3155-1.0783l3.9467-21.8901v-.1294q0-.3882-.2588-.647-.2588-.2372-.647-.2372h-2.0057q-.4529 0-.8411.3019-.3666.2804-.4529.7117l-3.9466 21.9332zm9.252-26.5485q1.1215 0 1.9195.8195.8195.8196.8195 1.9841 0 .3235-.043.4961l-4.4428 24.8447q-.2372 1.1862-1.2077 1.9841-.9705.798-2.1998.798h-5.1544q-1.143 0-1.941-.8195-.798-.8196-.798-1.9626v-.5392l4.4428-24.8016q.2372-1.2077 1.1861-2.0056.9705-.798 2.1782-.798z"/><path d="m1284.2358 2202.1272 5.6073-30.9265h3.7311q1.6175 16.7357 1.6822 23.6154.2156-6.0818 3.3643-23.6154h3.7311l-5.6074 30.9265h-3.731q-1.5959-16.671-1.6606-23.0547-.2157 5.3485-3.3644 23.0547z"/><path d="m1315.6584 2184.7876q.4744 0 .8411-.3019.3666-.2803.4313-.7332l1.5312-8.0444v-.1294q0-.3882-.2588-.647-.2588-.2372-.6254-.2372h-3.084l-1.8763 10.0931zm-9.856 17.3396 5.6073-30.9265h8.1306q1.1431 0 1.941.8195.8196.8196.8196 1.9841 0 .151-.065.4961l-1.9842 10.9558q-.2156 1.2077-1.1646 2.0057-.9489.798-2.1782.798h-4.8525l-2.5233 13.8673z"/><path d="m1323.5949 2197.7492q0 .3666.2588.647.2588.2803.647.2803h1.9841q1.0568 0 1.3156-1.0783l3.9466-21.8901v-.1294q0-.3882-.2588-.647-.2588-.2372-.647-.2372h-2.0057q-.4529 0-.841.3019-.3667.2804-.4529.7117l-3.9467 21.9332zm9.252-26.5485q1.1215 0 1.9195.8195.8195.8196.8195 1.9841 0 .3235-.043.4961l-4.4428 24.8447q-.2372 1.1862-1.2077 1.9841-.9705.798-2.1998.798h-5.1544q-1.143 0-1.941-.8195-.798-.8196-.798-1.9626v-.5392l4.4428-24.8016q.2372-1.2077 1.1861-2.0056.9705-.798 2.1783-.798z"/><path d="m1350.4669 2171.2007-1.7685 20.1216 7.2464-20.1216h3.9467l-11.646 30.9265h-3.7095l1.7254-18.6335-6.6425 18.6335h-3.7095l2.4155-30.9265h3.5153l-1.7684 20.1216 7.2463-20.1216z"/><path d="m1361.9403 2171.2007h8.3894l-.6039 3.4938h-4.6584l-1.7469 9.7697h4.6369l-.647 3.4506h-4.6153l-1.9194 10.7617h4.5721l-.6254 3.4507h-8.3894z"/><path d="m1377.1663 2184.7876q.4745 0 .8411-.3234.3666-.302.4313-.7549l1.4666-8.0012v-.1294q0-.3882-.2588-.647-.2804-.2372-.6686-.2372h-2.9762l-1.8332 10.0931zm.2157 4.5722q0-.3667-.2588-.6255-.2588-.2588-.6255-.2588h-2.9977l-2.4155 13.6517h-3.7741l5.5426-30.9265h8.3031q1.1215 0 1.941.8195.8195.798.8627 1.9626 0 .1078-.086.5176l-1.7253 9.7481q-.4098 2.0272-2.3939 2.588.7548.2803 1.143.992.3019.5608.3019 1.2509 0 .151-.022.3235 0 .3235-.022.496l-2.2429 12.2283h-3.7957l2.2645-12.6596z"/><path d="m1387.1085 2171.2007h8.3894l-.6039 3.4938h-4.6583l-1.7469 9.7697h4.6368l-.647 3.4506h-4.6153l-1.9194 10.7617h4.5721l-.6254 3.4507h-8.3894z"/><path d="m1400.1132 2198.6765q.4744 0 .8411-.3019.3666-.3019.4313-.7764l3.9898-21.8901q.022-.065.022-.1294 0-.3882-.2588-.647-.2588-.2372-.647-.2372h-3.3428l-4.378 23.982zm6.3621-27.4758q1.1431 0 1.9626.8195.8195.8196.8195 1.9841 0 .1294-.086.4961l-4.4642 24.8447q-.2157 1.1862-1.1646 1.9841-.949.798-2.1783.798h-8.8854l5.6073-30.9265z"/></g></g></svg>