<svg height="175.932888" viewBox="0 0 744.09449 230.31484" width="568.39856" xmlns="http://www.w3.org/2000/svg"><g transform="translate(0 -822.04784)"><path d="m12.757338 947.0368 51.298679-43.54164c4.102069 15.30913 14.94105 19.0747 30.413063 19.0747 14.68247.21984 28.68538-8.82161 28.68538-24.21744-.29084-14.35994-13.20534-21.49708-25.92789-23.74223l16.79956-15.08532c32.62587 5.49964 62.61264 35.0143 62.61264 71.05528 0 47.87817-44.79936 75.76955-82.626408 75.76955-39.837829 0-75.260718-25.34514-81.255024-59.3129z" fill="#217821" fill-rule="evenodd" stroke="#217821" stroke-width="1.91995"/><path d="m95.298038 875.16732-30.770616 26.61358c-12.427552-5.0147-26.056469-12.04053-26.056469-26.39932 0-24.93997 27.102362-34.62766 56.22712-34.62766 16.473287 0 31.846847 7.35906 31.846847 7.35906l-12.99021 10.46904c-8.43876-5.14642-17.182998-6.02125-18.89951-5.82841-2.662721-.29999-20.485175 3.25278-20.485175 11.99969 0 11.4132 19.116059 10.41402 21.128013 10.41402z" fill="#55d400" fill-rule="evenodd"/><g transform="matrix(1.91995 0 0 1.91995 -138.78157 -235.5249)"><path d="m219.36943 595.15424v-.79818q0-4.29018-.49886-7.88197-.49886-3.59178-2.59407-7.28334-1.99544-3.69155-6.58494-6.08608-4.48973-2.49429-12.07238-2.49429-10.9749 0-16.46235 5.08836-5.48744 4.98859-5.48744 14.66645 0 6.18585 3.59178 11.47376 2.59407 3.29247 5.78676 5.88653 3.29247 2.59407 8.68015 6.08608 5.18813 3.39224 7.58265 5.2879 2.79361 1.89567 4.19042 4.29019 1.3968 2.39452 1.3968 5.58722 0 8.77992-8.68014 8.77992-4.68928 0-6.78448-3.1927-1.99544-3.1927-1.99544-9.37855v-4.38995h-13.96805v5.48744q0 5.18814 1.19726 9.37855 1.29704 4.09064 3.99087 7.0838 2.69384 2.99315 7.0838 4.5895 4.38996 1.69612 10.47604 1.69612 10.47603 0 16.76166-5.58722 6.28562-5.58722 6.28562-15.96349 0-4.98858-1.39681-8.58037-1.3968-3.69155-4.88881-7.0838-1.39681-1.3968-3.69156-3.09292-2.19498-1.69612-4.38996-3.1927-2.19498-1.59635-4.29018-2.99315-2.09521-1.39681-4.58951-2.99315l-.19954-.0998q-4.09064-2.69383-5.98631-4.68927-1.79589-2.09521-1.79589-5.88654 0-3.69155 1.99544-5.2879 1.99543-1.69612 5.68699-1.69612 4.98859 0 6.58494 3.39224 1.59634 3.39224 1.59634 9.87741h13.4692z"/><path d="m264.01763 647.23511q-1.09749-4.09065-1.09749-7.88197v-33.22401q0-3.69155-.6984-6.48516-.59863-2.89338-2.49429-5.18814-1.89567-2.29475-5.68699-3.59178-3.69156-1.3968-9.67787-1.3968-5.78676 0-9.67786 1.29703-3.8911 1.19726-6.08608 3.59178-2.19498 2.39453-3.09292 5.68699-.79818 3.1927-.79818 7.58266h12.3717q0-4.29019 1.39681-6.18585 1.3968-1.99544 5.38767-1.99544 2.89339 0 4.29019.59863 1.39681.49886 1.79589 2.29476.29932 1.19726.29932 2.19497 0 2.39453-1.59635 4.09065-1.59635 1.59635-5.08836 3.09292-.89795.39909-1.39681.59863-4.68927 1.89567-7.48288 3.29247-2.79361 1.39681-5.2879 3.49201-2.39453 2.09521-3.79133 5.28791-1.29704 3.09292-1.29704 7.48288 0 8.68015 3.59179 12.77079 3.59178 4.09064 11.47375 4.09064 3.1927 0 6.18585-1.89566 2.79361-1.69612 5.18814-5.38768h.19954q0 .29932 0 .79818-.0998.6984-.0998.79817 0 2.39453.89794 4.19042h12.27193zm-14.06782-23.54614q0 .6984-.0998 2.79361 0 2.69383-.19954 4.68927-.0998 1.89566-.69841 3.69156-.59863 1.69612-1.99543 2.79361-1.29703 1.09749-3.59179 1.09749-3.39224 0-4.78904-1.7959-1.29703-1.89566-1.29703-5.38767 0-2.19498.39908-3.8911.49886-1.79589 1.7959-2.89338 2.39452-1.89567 7.18356-4.98859 2.09521-1.39681 3.29247-2.19498v6.08608z"/><path d="m282.19499 590.96382h-12.97034v56.27129h12.97034v-37.01533q0-5.58722 1.09749-8.08152 1.19726-2.59406 5.2879-2.69384 4.09064 0 5.18813 2.29475 1.19726 2.29476 1.19726 6.78449v38.71145h12.97034v-37.01533q0-5.38768 1.29703-7.98175 1.3968-2.59406 5.2879-2.79361 3.8911 0 4.98859 2.59407 1.19726 2.49429 1.19726 7.18357v38.01305h12.97034v-45.79525q0-4.98859-3.49202-8.4806-3.49201-3.49201-10.27649-3.49201-9.27878 0-12.97033 7.28334h-.19955q-.49885-3.59179-4.09064-5.38768-3.59178-1.89566-7.88197-1.89566-4.09064.19954-7.28334 1.69612-3.09292 1.3968-5.08836 5.58722h-.19954z"/><path d="m353.11618 590.96382h-12.97033v56.27129h12.97033v-37.01533q0-5.58722 1.09749-8.08152 1.19726-2.59406 5.28791-2.69384 4.09064 0 5.18813 2.29475 1.19726 2.29476 1.19726 6.78449v38.71145h12.97033v-37.01533q0-5.38768 1.29704-7.98175 1.3968-2.59406 5.2879-2.79361 3.8911 0 4.98859 2.59407 1.19726 2.49429 1.19726 7.18357v38.01305h12.97033v-45.79525q0-4.98859-3.49201-8.4806-3.49201-3.49201-10.27649-3.49201-9.27878 0-12.97034 7.28334h-.19954q-.49886-3.59179-4.09064-5.38768-3.59179-1.89566-7.88197-1.89566-4.09065.19954-7.28334 1.69612-3.09293 1.3968-5.08836 5.58722h-.19955z"/><path d="m411.61675 590.96382 13.56896 55.47311q.49886 1.89567.79817 3.79133.39909 1.99544.39909 3.39224 0 1.49658-1.19726 2.09521-1.19726.59863-3.09292.59863-.69841 0-2.09521-.0998-1.19726-.0998-1.29704-.0998v10.07695q3.39225.49885 6.08608.49885 3.8911 0 6.3854-1.09748 2.59406-.99772 3.99087-2.99316 1.49658-1.99543 2.29475-4.38996.89795-2.39452 1.99544-7.08379.19954-.79818.79817-3.09293l13.66873-57.06946h-13.16987l-5.68699 30.23085q-1.39681 7.58266-1.99544 14.56668h-.19954q-.99772-9.97718-1.89567-14.96576l-5.68699-29.83177h-13.66873z"/></g></g></svg>