<svg enable-background="new -110.047 5.731 566.93 64.168" height="64.168" viewBox="-110.047 5.731 566.93 64.168" width="566.93" xmlns="http://www.w3.org/2000/svg" xmlns:xlink="http://www.w3.org/1999/xlink"><linearGradient id="a"><stop offset="0" stop-color="#fff"/><stop offset="1"/></linearGradient><radialGradient id="b" cx="-90.5518" cy="191.2813" gradientTransform="matrix(1 0 0 -1 -.0449 199.7598)" gradientUnits="userSpaceOnUse" r="110.8008" xlink:href="#a"/><radialGradient id="c" cx="-54.9644" cy="24.4366" gradientUnits="userSpaceOnUse" r="28.2786"><stop offset=".04" stop-color="#fff"/><stop offset=".23" stop-color="#6e93e1"/><stop offset="1" stop-color="#363499"/></radialGradient><radialGradient id="d" cx="-140.1176" cy="117.2685" gradientUnits="userSpaceOnUse" r="244.9883" xlink:href="#a"/><linearGradient id="e"><stop offset="0" stop-color="#999"/><stop offset=".98" stop-color="#f3f3f3"/></linearGradient><linearGradient id="f" gradientTransform="matrix(1 0 0 -1 -.1348 -195.7207)" gradientUnits="userSpaceOnUse" x1="5.563" x2="46.1876" xlink:href="#e" y1="-255.8076" y2="-215.1834"/><linearGradient id="g" gradientTransform="matrix(1 0 0 -1 -.1348 -195.7207)" gradientUnits="userSpaceOnUse" x1="48.7212" x2="88.2732" xlink:href="#e" y1="-252.3672" y2="-212.815"/><linearGradient id="h" gradientTransform="matrix(1 0 0 -1 -.1348 -195.7207)" gradientUnits="userSpaceOnUse" x1="86.3301" x2="129.8642" xlink:href="#e" y1="-256.5576" y2="-213.0234"/><linearGradient id="i" gradientTransform="matrix(1 0 0 -1 -.1348 -195.7207)" gradientUnits="userSpaceOnUse" x1="136.4551" x2="179.0757" xlink:href="#e" y1="-258.2441" y2="-215.6239"/><linearGradient id="j" gradientTransform="matrix(1 0 0 -1 -.1348 -195.7207)" gradientUnits="userSpaceOnUse" x1="196.2188" x2="237.9565" xlink:href="#e" y1="-256.54" y2="-214.8022"/><linearGradient id="k" gradientTransform="matrix(1 0 0 -1 -.1348 -195.7207)" gradientUnits="userSpaceOnUse" x1="244.29" x2="289.4305" xlink:href="#e" y1="-261.6377" y2="-216.4974"/><linearGradient id="l" gradientTransform="matrix(1 0 0 -1 -.1348 -195.7207)" gradientUnits="userSpaceOnUse" x1="275.2559" x2="317.46" xlink:href="#e" y1="-251.4844" y2="-209.2802"/><linearGradient id="m" gradientTransform="matrix(1 0 0 -1 -.1348 -195.7207)" gradientUnits="userSpaceOnUse" x1="319.3594" x2="362.0286" xlink:href="#e" y1="-255.396" y2="-212.7266"/><linearGradient id="n" gradientTransform="matrix(1 0 0 -1 -.1348 -195.7207)" gradientUnits="userSpaceOnUse" x1="367.9365" x2="410.9108" xlink:href="#e" y1="-257.2793" y2="-214.3048"/><linearGradient id="o" gradientTransform="matrix(1 0 0 -1 -.1348 -195.7207)" gradientUnits="userSpaceOnUse" x1="414.8984" x2="456.6366" xlink:href="#e" y1="-256.9341" y2="-215.1959"/><path d="m-96.884 37.078c2.093-1.583 5.084-3.551 8.511-5.267 3.43-1.837 7.289-3.489 11.575-5.143v.062c4.225-1.592 8.694-3.062 13.348-4.348 4.716-1.348 9.368-2.45 14.022-3.245 4.714-.918 9.245-1.471 13.533-1.716 4.409-.367 9.435-.025 10.701.062 1.267.087 3.075-.183 3.871-.795.797-.673 1.225-1.471 1.347-2.449.123-1.042-.183-1.96-.794-2.696-.674-.795-2.143-1.284-3.123-1.346-3.92-.43-7.654-.43-12.491-.124-4.533.306-9.309.918-14.39 1.837-4.838.857-9.738 2.021-14.636 3.368-4.899 1.348-9.55 2.879-13.96 4.53-4.592 1.778-9.555 4.026-12.37 5.452-2.815 1.425-6.441 3.472-9.506 6-3.064 2.527-4.362 3.736-6.415 6.918s-2.524 6.79-1.26 8.951c3.253 5.562 14.854 3.739 19.264 2.882 3.551-.733 7.898-1.731 13.104-3.199 3.795-1.163 8.634-2.694 14.511-4.654l14.574-4.775c5.327-1.775 9.673-3.124 13.043-4.042 4.103-1.225 11.39-2.961 15.14-2.281-.188 2.35-3.106 8.643-16.123 14.466-4.838 2.205-10.225 4.226-16.166 6.185h-.061c-4.59 1.469-9.305 2.756-14.144 3.919-4.715 1.104-9.125 1.899-13.35 2.573l.062-.062c-6.645.927-16.2.102-18.088.349-3.737.238-4.646 2.591-4.686 3.612-.04 1.018-.09 3.406 4.887 3.715 4.978.309 9.625.721 18.929-.39 5.774-.851 9.062-1.53 13.899-2.632h.062c5.022-1.225 9.92-2.573 14.696-4.104 6.246-1.958 11.941-4.163 17.021-6.489 11.423-5.124 15.536-9.808 18.213-13.834 2.678-4.026 3.654-9.559.876-12.157-3.182-2.977-9.235-2.445-11.314-2.248-2.971.283-7.407.991-11.876 2.276-3.428.98-7.839 2.328-13.35 4.166l-14.572 4.775c-5.817 1.899-10.533 3.43-14.267 4.531-4.96 1.472-9.063 2.573-12.494 3.247-7.83 1.803-10.348.794-10.348.794-.105-2.243 2.502-5.092 4.595-6.674z" fill="url(#b)"/><path d="m-89.039 66.582c-2.612 0-4.834-.14-6.982-.277l-.958-.06c-5.437-.338-5.325-3.213-5.288-4.158.05-1.282 1.178-3.774 5.086-4.023.244-.033.653-.049 1.261-.049.772 0 1.793.027 2.976.058 1.584.042 3.554.094 5.569.094 3.388 0 6.086-.147 8.25-.449.07-.009.137-.001.2.02 4.92-.79 9.074-1.593 13.05-2.524 5.12-1.231 9.737-2.51 14.11-3.91.04-.013.082-.02.123-.021 6.267-2.067 11.52-4.079 16.057-6.146 11.518-5.152 15.31-10.859 15.822-13.718-.443-.056-.946-.084-1.499-.084-3.648 0-9.128 1.248-13.042 2.416-3.333.908-7.713 2.266-13.029 4.037l-14.577 4.777c-5.071 1.692-9.957 3.259-14.519 4.657-4.407 1.243-8.703 2.291-13.142 3.208-3.388.658-6.46.992-9.137.992-5.439 0-9-1.372-10.583-4.077-1.363-2.331-.854-6.107 1.27-9.398 2.082-3.228 3.438-4.488 6.502-7.016 2.497-2.059 5.721-4.095 9.584-6.052 2.685-1.359 7.712-3.65 12.409-5.468 4.615-1.729 9.324-3.256 14.001-4.544 5.355-1.472 10.155-2.576 14.674-3.377 5.152-.931 9.875-1.534 14.437-1.842 2.309-.146 4.304-.217 6.101-.217 2.25 0 4.365.112 6.466.342 1.083.068 2.658.615 3.402 1.494.717.863 1.025 1.907.893 3.022-.138 1.102-.627 1.993-1.496 2.726-.941.726-2.879.985-4.175.896-.822-.057-3.321-.228-6.196-.228-1.632 0-3.126.056-4.441.165-4.425.253-8.958.828-13.487 1.709-4.464.763-9.036 1.821-13.986 3.236-4.498 1.243-8.976 2.701-13.315 4.337-.07.026-.145.035-.217.022-4.686 1.814-8.283 3.417-11.306 5.036-3.961 1.983-6.997 4.128-8.455 5.231-2.085 1.577-4.284 4.076-4.419 6.008.336.074 1.003.178 2.087.178 2.064 0 4.666-.359 7.733-1.064 3.173-.624 7.014-1.622 12.468-3.24 3.711-1.095 8.448-2.632 14.255-4.527l14.573-4.774c4.874-1.625 9.371-3.028 13.366-4.17 5.406-1.554 10.16-2.119 11.953-2.291.577-.055 1.774-.168 3.149-.168 3.845 0 6.704.851 8.499 2.529 3.058 2.862 1.864 8.683-.813 12.707-2.825 4.246-7.008 8.88-18.395 13.987-5.313 2.432-11.056 4.622-17.068 6.507-4.572 1.465-9.389 2.81-14.724 4.11-.033.009-.067.013-.101.013h-.015c-5.003 1.14-8.206 1.791-13.885 2.627-4.183.499-7.699.731-11.076.731zm-6.881-7.713c-.562 0-.948.015-1.179.045-3.328.213-4.274 2.189-4.314 3.206-.037.969-.116 2.985 4.486 3.27l.959.062c2.135.136 4.342.276 6.928.276 3.342 0 6.827-.231 10.964-.725 5.657-.833 8.847-1.484 13.854-2.625.031-.007.063-.01.095-.01h.011c5.295-1.292 10.076-2.627 14.618-4.083 5.981-1.875 11.691-4.052 16.974-6.471 11.192-5.02 15.282-9.542 18.035-13.682 2.517-3.784 3.557-9.16.941-11.608-1.631-1.525-4.293-2.299-7.914-2.299-1.335 0-2.506.112-3.068.165-1.769.169-6.461.727-11.798 2.261-3.984 1.139-8.47 2.538-13.333 4.16l-14.575 4.776c-5.814 1.898-10.557 3.438-14.279 4.535-5.48 1.626-9.345 2.63-12.532 3.256-3.117.717-5.784 1.083-7.912 1.083-1.845 0-2.597-.279-2.677-.312-.155-.063-.26-.21-.268-.376-.125-2.616 2.934-5.653 4.762-7.036 1.481-1.12 4.565-3.299 8.578-5.308 3.092-1.656 6.785-3.297 11.612-5.16.073-.028.151-.035.225-.023 4.293-1.61 8.721-3.049 13.164-4.276 4.978-1.423 9.578-2.487 14.064-3.254 4.557-.887 9.128-1.467 13.581-1.721 1.327-.111 2.844-.167 4.501-.167 2.904 0 5.425.173 6.253.229.146.01.298.015.456.015 1.267 0 2.581-.304 3.124-.722.691-.584 1.073-1.276 1.185-2.164.103-.874-.138-1.695-.7-2.37-.56-.661-1.901-1.134-2.82-1.192-3.794-.416-7.257-.452-12.438-.124-4.528.306-9.219.904-14.341 1.831-4.495.796-9.269 1.895-14.598 3.359-4.652 1.281-9.337 2.8-13.924 4.519-4.665 1.806-9.66 4.082-12.326 5.432-3.807 1.928-6.979 3.93-9.427 5.949-3.053 2.519-4.302 3.68-6.328 6.82-1.922 2.98-2.436 6.476-1.25 8.503 1.418 2.425 4.73 3.654 9.844 3.654 2.622 0 5.639-.328 8.969-.975 4.414-.912 8.69-1.955 13.069-3.191 4.546-1.393 9.425-2.958 14.492-4.648l14.576-4.776c5.329-1.776 9.726-3.139 13.063-4.048 1.917-.572 8.57-2.449 13.276-2.449.778 0 1.469.053 2.053.16.216.04.368.236.35.455-.063.796-1.062 7.972-16.374 14.822-4.579 2.086-9.88 4.116-16.206 6.2-.042.014-.084.021-.129.021-4.375 1.398-8.991 2.677-14.109 3.907-4.071.953-8.324 1.772-13.383 2.58-.075.013-.152.004-.222-.023-2.155.282-4.807.42-8.093.42-2.026 0-4.003-.052-5.593-.095-1.173-.031-2.185-.058-2.952-.058z" fill="#333"/><circle cx="-60.065" cy="37.815" fill="url(#c)" r="31.229"/><path d="m-60.065 69.899c-17.691 0-32.083-14.393-32.083-32.084 0-17.692 14.393-32.084 32.083-32.084s32.085 14.393 32.085 32.084-14.394 32.084-32.085 32.084zm0-62.457c-16.748 0-30.373 13.625-30.373 30.374 0 16.748 13.625 30.373 30.373 30.373s30.373-13.625 30.373-30.373c0-16.75-13.625-30.374-30.373-30.374z" fill="#33317a"/><path d="m-89.657 50.012c3.551-.733 7.898-1.731 13.104-3.199 3.795-1.163 14.511-4.654 14.511-4.654l14.574-4.775c5.327-1.775 9.673-3.124 13.043-4.042 0 0 5.039-1.327 5.895-1.48-.306-3.179-2.131-7.001-2.131-7.001-1.84.356-3.809.811-5.785 1.379-3.428.98-7.839 2.328-13.35 4.165l-14.572 4.775c-5.817 1.899-10.533 3.43-14.267 4.531-7.69 2.397-12.921 3.343-13.128 3.389-.001 0 .693 4.555 2.106 6.912z" fill="url(#d)"/><path d="m-98.956 44.459c-1.863 0-2.623-.288-2.68-.311-.219-.088-.326-.337-.238-.556.087-.22.337-.326.556-.238.021.007 2.563.919 10.093-.813 3.173-.623 7.014-1.622 12.468-3.24 3.712-1.095 8.448-2.632 14.255-4.528l14.571-4.774c4.874-1.625 9.372-3.029 13.367-4.17 5.406-1.554 10.16-2.119 11.953-2.29.232-.019.444.15.466.385s-.15.444-.385.466c-1.769.168-6.461.727-11.798 2.261-3.984 1.138-8.47 2.538-13.333 4.16l-14.575 4.776c-5.814 1.898-10.557 3.437-14.279 4.535-5.48 1.626-9.345 2.63-12.532 3.256-3.704.852-6.245 1.081-7.909 1.081z" fill="#333"/><path d="m-98.664 51.409c-4.477 0-8.793-.929-10.627-4.063-.119-.204-.05-.466.153-.585s.466-.05.585.153c2.895 4.95 13.029 3.802 18.813 2.679 4.415-.912 8.691-1.956 13.069-3.191 3.739-1.146 14.388-4.615 14.495-4.649l14.573-4.775c5.329-1.776 9.725-3.139 13.063-4.048.017-.005 2.057-.577 5.91-1.483 3.625-.854 6.6-1.168 8.604-.911.235.03.4.245.37.479s-.244.4-.479.37c-1.327-.172-3.844-.154-8.299.895-3.833.902-5.858 1.47-5.878 1.475-3.327.906-7.708 2.264-13.024 4.036l-14.574 4.777c-.108.035-10.763 3.506-14.519 4.657-4.407 1.243-8.703 2.291-13.142 3.208-2.524.488-5.851.976-9.093.976z" fill="#333"/><path d="m44.927 22.673c-.573-.956-1.348-1.531-2.308-1.849-17.517-4.916-28.813-4.21-33.816 2.236-1.798 2.107-2.889 4.15-3.21 6.255-.387 2.105-.13 4.085.832 6.002h-.066c.708 1.465 1.798 2.805 3.211 4.02h.064c1.155.956 2.373 1.724 3.785 2.364.96.509 3.209.828 6.801.891.708.065 2.056.065 4.107.065 1.797.065 3.211.065 4.235.127h.065c3.209.066 6.467.377 7.51.7 1.039.326 2.868 2.22 3.011 3.07.148.842 0 0 0 0 .194.508.387.645.204 1.937-.188 1.292-.584 1.062-1.099 1.701v-.068c-.58.511-1.541.893-2.888 1.279-1.922.451-4.236.767-6.93.831-2.696.064-5.39 0-8.149-.319-2.631-.321-4.94-.771-6.867-1.342-.961-.316-1.987-.254-2.889.258-.96.447-1.604 1.212-1.923 2.233-.321.956-.192 1.977.253 2.934.516.892 1.288 1.529 2.249 1.853 2.309.762 5.068 1.271 8.277 1.659 3.147.318 6.223.447 9.305.381 3.339-.129 6.227-.508 8.6-1.083 3.335-.833 5.648-2.109 6.866-3.768h.064c1.025-1.28 1.794-2.431 2.244-3.453v-.065c.516-1.272.772-2.552.772-3.889v-.131c-.064-.956.017-2.356-.497-3.698-.193-.7-.381-1.087-1.413-3.317-1.035-2.223-3.42-3.646-7.592-4.537h-.063c-2.054-.386-5.005-.705-8.79-.831-1.09-.066-2.567-.066-4.492-.131-1.923 0-3.27 0-3.979-.064-2.052-.06-3.399-.127-3.913-.252-.708-.321-1.348-.703-1.863-1.15-.574-.511-1.025-1.021-1.283-1.529v-.066c-.259-.382-.323-.831-.194-1.28.194-.829.644-1.719 1.477-2.551 3.849-3.701 12.449-3.701 25.86.129 1.031.253 1.992.192 2.888-.382.966-.508 1.605-1.277 1.863-2.298.325-.952.198-1.913-.319-2.872z" fill="url(#f)"/><path d="m82.685 19.437c-.772-.703-1.669-1.086-2.759-1.086h-25.67c-1.026 0-1.988.384-2.696 1.086-.769.763-1.153 1.662-1.153 2.745v31.921c0 1.021.386 1.982 1.153 2.682.708.772 1.668 1.151 2.696 1.151h25.67c1.09 0 1.987-.381 2.759-1.151.705-.7 1.091-1.661 1.091-2.682 0-1.088-.386-1.978-1.091-2.749-.772-.7-1.669-1.086-2.759-1.086h-21.817v-8.295h16.04c1.09 0 1.987-.381 2.759-1.149.704-.706 1.092-1.662 1.092-2.683 0-1.084-.387-1.978-1.092-2.745-.772-.709-1.669-1.09-2.759-1.09h-16.04v-8.296h21.816c1.09 0 1.987-.387 2.759-1.151.705-.705 1.091-1.593 1.091-2.682 0-1.079-.386-1.977-1.09-2.74z" fill="url(#g)"/><path d="m127 23.954c-.189-1.109-.768-2.009-1.598-2.63-7.044-5.06-14.765-6.021-22.228-4.71-2.943.69-3.896.621-7.111 2.215-3.209 1.588-5.445 4.54-5.445 4.54-1.536 1.666-2.369 3.699-3.395 6.394s-1.021 4.032-1.149 7.357c-.128 3.329.317 6.38 1.277 9.286.96 2.915 2.433 5.481 4.421 7.629v-.075c1.921 2.222 4.291 3.947 7.044 5.058 2.754 1.18 5.765 1.805 9.029 1.805 7.684 0 13.262-1.739 16.72-5.2 4.035-3.533 5.698-8.865 5.059-16.001-.064-1.109-.509-1.946-1.218-2.704-.767-.695-1.599-1.042-2.627-1.042h-16.651c-1.021 0-1.981.412-2.695 1.177-.767.831-1.151 1.797-1.151 2.979 0 1.109.384 2.147 1.151 2.908.714.831 1.675 1.245 2.695 1.245h12.813c-.258 2.08-1.092 3.818-2.374 5.129-2.496 2.148-6.401 3.187-11.718 3.187-2.244 0-4.358-.414-6.213-1.177l-.065-.068c-1.668-.695-3.074-1.666-4.294-3.051-1.214-1.315-2.115-2.911-2.689-4.64-.64-1.871-.897-3.949-.831-6.167.063-2.354.321-3.633.766-5.224.324-1.182.833-2.148 1.538-2.911 0 0 1.146-1.779 3.077-2.74 1.932-.966 3.33-1.247 5.7-1.872h.065c5.64-1.385 11.018-.208 16.208 3.601.893.625 1.854.831 2.875.625 1.028-.276 1.858-.833 2.437-1.802.577-.901.77-1.94.577-3.121z" fill="url(#h)"/><path d="m175.494 57.627c.642-.893.895-1.784.769-2.871-4.042-26.623-11.292-39.648-21.816-39.008-10.519-.64-17.839 11.939-21.755 37.729-.131 1.021.066 1.979.71 2.813.64.891 1.473 1.4 2.499 1.531 1.029.187 1.99-.069 2.888-.709.832-.637 1.351-1.465 1.542-2.491.481-3.203 1.011-6.163 1.58-8.874h.021 24.894c.647 3.069 1.25 6.45 1.803 10.146.192 1.021.643 1.854 1.539 2.494.832.64 1.797.891 2.824.698 1.025-.115 1.858-.625 2.502-1.458zm-31.676-19.532c2.808-9.447 6.36-14.34 10.625-14.684 4.137.339 7.647 5.237 10.461 14.684z" fill="url(#i)"/><path d="m27.128 60.833c-2.597 0-5.159-.132-7.835-.402-3.583-.432-6.271-.974-8.474-1.702-1.18-.396-2.131-1.18-2.759-2.268-.61-1.301-.712-2.552-.33-3.691.393-1.261 1.229-2.228 2.411-2.778.986-.566 2.328-.708 3.567-.297 1.839.544 4.099.986 6.69 1.303 2.465.285 5.179.377 8.014.313 2.437-.058 4.705-.329 6.742-.807 1.293-.372 2.073-.705 2.487-1.073.052-.046.11-.085.168-.118.126-.119.24-.206.333-.277.173-.132.221-.167.293-.676.063-.432.076-.677.059-.848-.021-.026-.041-.054-.059-.083-.002 0-.002-.003-.002-.003v-.001s0 0-.002-.001c.002 0-.001-.001-.001-.001 0-.001 0-.001 0-.001v-.002s0 0-.001-.001c0 0 0 0 0-.001-.06-.098-.104-.208-.126-.327l-.062-.354c-.002-.01-.003-.02-.006-.029-.115-.484-1.614-2.1-2.375-2.34-.845-.262-3.861-.588-7.253-.657-.662-.035-1.342-.05-2.14-.069-.648-.014-1.373-.03-2.172-.059-2.031.005-3.408.001-4.159-.069-3.644-.062-6.005-.388-7.15-.995-1.348-.608-2.605-1.384-3.789-2.344-.086-.035-.166-.08-.229-.135-1.537-1.32-2.694-2.774-3.441-4.318-.049-.102-.078-.209-.088-.317-.917-1.985-1.164-4.033-.755-6.254.333-2.192 1.454-4.389 3.417-6.689 2.964-3.82 8.083-5.774 15.188-5.774 5.311 0 11.9 1.093 19.581 3.248 1.267.419 2.186 1.156 2.851 2.264.678 1.254.805 2.469.401 3.647-.294 1.182-1.1 2.182-2.306 2.818-.627.404-1.401.63-2.229.63-.415 0-.855-.058-1.312-.169-12.916-3.688-21.432-3.79-24.998-.361-.626.626-1.041 1.335-1.217 2.094-.067.236-.043.401.058.55.062.093.106.195.133.302.2.333.535.711.998 1.123.395.343.915.667 1.543.96.649.122 2.734.183 3.645.209.724.064 2.079.064 3.953.064.848.028 1.583.044 2.241.058.907.02 1.672.037 2.309.075 3.462.114 6.527.403 8.837.833.057.002.116.009.153.016 4.46.953 7.079 2.559 8.237 5.052l.197.428c.884 1.909 1.069 2.307 1.269 3.034.433 1.118.47 2.302.501 3.251.006.226.014.438.027.63l.002.193c0 1.414-.26 2.764-.793 4.12-.014.077-.032.151-.057.208-.465 1.05-1.239 2.246-2.369 3.657-.063.077-.133.143-.214.194-1.39 1.735-3.814 3.043-7.215 3.893-2.509.609-5.464.982-8.789 1.111-.543.008-1.071.013-1.598.013zm-14.887-9.528c-.444 0-.867.112-1.253.332-.782.367-1.25.913-1.497 1.705-.294.877-.049 1.715.209 2.266.368.631.955 1.116 1.706 1.368 2.079.688 4.652 1.202 8.092 1.618 3.121.315 6.127.442 9.174.375 3.185-.123 6.017-.479 8.4-1.058 3.112-.778 5.246-1.928 6.34-3.417.069-.094.152-.172.247-.232.896-1.14 1.523-2.101 1.906-2.927.012-.059.026-.114.044-.159.474-1.171.704-2.33.704-3.542v-.131c-.011-.15-.019-.383-.028-.632-.026-.854-.059-1.823-.408-2.735-.183-.648-.331-.973-1.192-2.834l-.195-.426c-.888-1.909-3.071-3.182-6.871-4.003-.045-.003-.091-.007-.12-.012-1.552-.293-4.314-.672-8.648-.815-.641-.039-1.382-.055-2.26-.074-.666-.013-1.409-.03-2.233-.058-1.955.008-3.279.001-4.03-.068-2.434-.069-3.508-.142-4.05-.274-.056-.014-.111-.033-.163-.057-.831-.376-1.533-.812-2.087-1.294-.718-.638-1.207-1.227-1.501-1.808-.029-.057-.051-.114-.068-.173-.305-.562-.374-1.209-.19-1.848.244-1.055.826-2.063 1.712-2.949 4.162-4.001 13.081-4.014 26.768-.105.777.189 1.516.124 2.136-.271.817-.434 1.274-.992 1.463-1.745.256-.754.17-1.452-.235-2.206-.413-.687-.986-1.146-1.785-1.411-7.478-2.097-13.897-3.167-19.041-3.167-6.504 0-11.131 1.714-13.753 5.092-1.76 2.064-2.742 3.959-3.026 5.828-.36 1.962-.116 3.735.743 5.449.05.098.081.203.093.31.613 1.158 1.514 2.263 2.682 3.293.074.031.144.071.2.118 1.116.925 2.253 1.634 3.577 2.233.542.285 2.021.731 6.436.809.734.065 2.069.065 4.091.065.824.029 1.54.045 2.18.059.827.019 1.53.035 2.113.07 3.304.066 6.642.384 7.791.74 1.219.383 3.3 2.373 3.624 3.679l.053.125c.226.524.358.962.181 2.217-.168 1.165-.555 1.542-1.002 1.883-.115.088-.198.152-.29.268-.115.142-.263.242-.429.297-.633.452-1.523.821-2.926 1.224-2.206.517-4.602.806-7.164.865-.614.015-1.228.023-1.842.023-2.309 0-4.413-.113-6.435-.348-2.701-.329-5.062-.792-7.025-1.374-.326-.108-.624-.158-.918-.158z" fill="#484848"/><path d="m79.925 58.861h-25.67c-1.32 0-2.519-.515-3.377-1.45-.88-.799-1.397-1.995-1.397-3.308v-31.921c0-1.317.48-2.461 1.428-3.401.882-.875 2.069-1.354 3.347-1.354h25.67c1.275 0 2.413.446 3.382 1.326.944 1.019 1.395 2.151 1.395 3.425 0 1.309-.459 2.432-1.363 3.336-.956.945-2.103 1.421-3.414 1.421h-20.892v6.446h15.115c1.281 0 2.419.448 3.384 1.333.943 1.022 1.393 2.157 1.393 3.428s-.484 2.455-1.363 3.336c-.952.943-2.099 1.42-3.415 1.42h-15.114v6.446h20.892c1.271 0 2.408.445 3.382 1.325.946 1.033 1.395 2.167 1.395 3.436 0 1.278-.484 2.464-1.365 3.339-.947.94-2.096 1.417-3.413 1.417zm-25.67-39.586c-.786 0-1.511.291-2.045.819-.6.595-.879 1.259-.879 2.088v31.921c0 .788.302 1.498.852 1.999.569.615 1.265.91 2.073.91h25.67c.833 0 1.502-.281 2.107-.882.528-.524.818-1.245.818-2.026 0-.816-.269-1.491-.848-2.125-.577-.516-1.256-.785-2.077-.785h-21.817c-.512 0-.926-.414-.926-.925v-8.295c0-.511.414-.925.926-.925h16.04c.833 0 1.502-.279 2.108-.881.525-.528.816-1.249.816-2.026 0-.816-.268-1.489-.846-2.121-.573-.521-1.252-.79-2.078-.79h-16.04c-.512 0-.926-.414-.926-.925v-8.296c0-.511.414-.925.926-.925h21.816c.83 0 1.5-.281 2.109-.885.549-.548.816-1.211.816-2.023 0-.806-.276-1.496-.846-2.113-.577-.519-1.256-.789-2.079-.789z" fill="#484848"/><path d="m107.847 61.746c-3.322 0-6.482-.633-9.393-1.878-2.737-1.104-5.148-2.802-7.152-5.043-.075-.042-.146-.095-.207-.162-2.054-2.221-3.61-4.902-4.621-7.968-1.021-3.09-1.453-6.233-1.322-9.61l.02-.542c.11-2.946.166-4.424 1.189-7.11 1.067-2.801 1.947-4.922 3.579-6.691.039-.059 2.348-3.075 5.714-4.741 2.6-1.29 3.795-1.538 5.606-1.915.5-.104 1.053-.219 1.705-.373 2.104-.372 4.136-.555 6.092-.555 6.203 0 11.885 1.822 16.884 5.414 1.071.799 1.747 1.913 1.972 3.226.23 1.414-.009 2.681-.711 3.775-.652 1.094-1.659 1.842-2.976 2.194-.369.077-.685.109-.992.109-.936 0-1.829-.292-2.653-.87-4.944-3.631-10.092-4.776-15.456-3.46-.053.012-.106.021-.161.025l-.871.226c-1.792.463-2.978.768-4.541 1.55-1.686.839-2.704 2.398-2.714 2.414-.028.045-.063.088-.099.127-.605.655-1.039 1.482-1.325 2.528-.44 1.576-.674 2.78-.733 5.005-.065 2.172.199 4.137.781 5.844.557 1.671 1.395 3.12 2.496 4.311 1.1 1.25 2.393 2.168 3.969 2.824.079.034.153.078.221.13 1.723.684 3.689 1.044 5.701 1.044 5.09 0 8.83-.998 11.114-2.963.903-.926 1.54-2.11 1.874-3.503h-11.709c-1.323 0-2.529-.556-3.397-1.567-.868-.855-1.374-2.122-1.374-3.51 0-1.409.457-2.59 1.398-3.606.885-.953 2.082-1.474 3.373-1.474h16.651c1.233 0 2.295.419 3.248 1.281.983 1.046 1.448 2.089 1.521 3.337.663 7.401-1.144 13.046-5.373 16.75-3.58 3.587-9.425 5.427-17.328 5.427zm-15.615-8.583c.089.048.17.111.241.192 1.854 2.146 4.106 3.763 6.69 4.804 2.698 1.156 5.613 1.738 8.683 1.738 7.394 0 12.799-1.659 16.064-4.928 3.859-3.381 5.411-8.361 4.793-15.265-.049-.832-.348-1.488-.972-2.154-.56-.502-1.178-.75-1.952-.75h-16.651c-.771 0-1.488.314-2.018.882-.615.667-.904 1.414-.904 2.349 0 .891.313 1.689.878 2.25.569.658 1.258.978 2.044.978h12.813c.265 0 .517.113.692.312.176.198.259.463.226.726-.275 2.227-1.186 4.184-2.631 5.663-2.725 2.349-6.756 3.464-12.379 3.464-2.346 0-4.554-.419-6.564-1.246-.085-.035-.164-.082-.233-.139-1.768-.763-3.231-1.818-4.468-3.224-1.266-1.369-2.236-3.042-2.874-4.958-.652-1.911-.948-4.097-.877-6.488.064-2.4.33-3.767.799-5.445.353-1.288.925-2.377 1.698-3.234.254-.37 1.466-2.036 3.395-2.996 1.739-.87 3.068-1.212 4.906-1.686l.972-.252c.06-.016.121-.025.184-.029 5.858-1.409 11.536-.139 16.872 3.779.498.348 1.019.522 1.575.522.188 0 .378-.02.57-.059.801-.217 1.399-.656 1.825-1.369.47-.733.614-1.541.458-2.496-.143-.832-.571-1.538-1.239-2.039-6.149-4.416-13.442-5.957-21.512-4.54-.619.147-1.186.265-1.7.372-1.729.36-2.774.578-5.161 1.762-2.967 1.469-5.099 4.243-5.122 4.271-1.463 1.596-2.241 3.474-3.264 6.163-.916 2.401-.961 3.607-1.07 6.521l-.021.543c-.121 3.153.282 6.084 1.231 8.96.893 2.7 2.238 5.07 4.003 7.046z" fill="#484848"/><path d="m172.32 60.074c-.969 0-1.908-.33-2.718-.953-1.008-.718-1.634-1.724-1.885-3.056-.505-3.376-1.056-6.522-1.646-9.393h-23.409c-.513 2.517-.989 5.232-1.419 8.087-.236 1.276-.871 2.305-1.894 3.086-1.151.823-2.348 1.116-3.615.884-1.238-.155-2.292-.797-3.086-1.9-.745-.963-1.047-2.139-.876-3.469 3.983-26.239 11.606-39.203 22.73-38.536.152-.016.415-.024.677-.024 10.735 0 17.929 13.024 21.996 39.816.155 1.333-.142 2.452-.931 3.55-.841 1.086-1.895 1.696-3.153 1.838-.214.043-.494.07-.771.07zm-30.41-15.252h24.914c.438 0 .814.307.904.734.656 3.101 1.265 6.533 1.813 10.2.158.828.519 1.417 1.162 1.878.67.515 1.369.687 2.116.541.819-.095 1.433-.456 1.943-1.114.498-.695.679-1.36.581-2.198-3.939-25.943-10.973-38.811-20.84-38.192-.349-.014-.583-.021-.814-.021-9.602 0-16.359 12.437-20.084 36.966-.104.815.067 1.513.527 2.108.507.704 1.116 1.082 1.885 1.18.213.036.375.051.534.051.581 0 1.137-.194 1.7-.597.631-.482 1.021-1.113 1.169-1.906.471-3.138 1.006-6.141 1.584-8.895.091-.428.469-.735.906-.735zm22.994-5.802h-21.086c-.294 0-.568-.138-.742-.372-.176-.234-.229-.537-.146-.816 2.955-9.942 6.696-14.96 11.438-15.343.047-.003.099-.003.149 0 4.623.379 8.311 5.397 11.273 15.343.083.28.028.582-.146.816-.171.234-.446.372-.74.372zm-19.836-1.85h18.584c-2.563-8.062-5.737-12.487-9.212-12.831-3.63.349-6.781 4.663-9.372 12.831z" fill="#484848"/><path d="m236.675 22.332c-.578-.964-1.358-1.543-2.328-1.865-17.665-4.957-29.056-4.249-34.102 2.255-1.813 2.123-2.913 4.183-3.238 6.308-.39 2.123-.13 4.117.84 6.05h-.065c.714 1.48 1.814 2.829 3.238 4.054h.064c1.163.964 2.394 1.738 3.818 2.383.969.517 3.236.838 6.857.901.716.063 2.075.063 4.141.063 1.815.066 3.239.066 4.272.132h.065c3.236.067 6.521.379 7.574.703 1.047.333 2.895 2.241 3.038 3.099.149.853 0 0 0 0 .193.513.391.648.202 1.951-.188 1.309-.589 1.073-1.107 1.718v-.065c-.585.512-1.555.895-2.913 1.287-1.938.452-4.271.773-6.99.836-2.719.069-5.435 0-8.218-.319-2.65-.323-4.979-.774-6.922-1.354-.972-.321-2.005-.252-2.913.258-.972.455-1.619 1.221-1.94 2.251-.323.964-.193 1.994.255 2.958.521.901 1.299 1.546 2.269 1.87 2.326.77 5.11 1.286 8.349 1.675 3.171.319 6.273.45 9.381.385 3.368-.129 6.28-.517 8.674-1.096 3.36-.84 5.695-2.123 6.924-3.798h.065c1.035-1.288 1.81-2.451 2.265-3.48v-.066c.52-1.286.778-2.572.778-3.924v-.129c-.064-.964.02-2.374-.5-3.731-.195-.707-.386-1.096-1.424-3.341-1.046-2.245-3.452-3.681-7.657-4.578h-.066c-2.068-.39-5.046-.708-8.861-.836-1.101-.063-2.588-.063-4.531-.133-1.939 0-3.298 0-4.013-.065-2.068-.058-3.428-.128-3.946-.253-.714-.327-1.358-.711-1.879-1.16-.58-.514-1.034-1.03-1.294-1.542v-.066c-.261-.386-.323-.836-.194-1.288.194-.836.649-1.736 1.488-2.572 3.883-3.736 12.555-3.736 26.077.131 1.041.253 2.01.192 2.913-.387.975-.513 1.619-1.291 1.88-2.32.323-.967.194-1.936-.326-2.9z" fill="url(#j)"/><path d="m247.19 59.911c.842-.646 1.362-1.483 1.554-2.513.49-3.229 1.023-6.215 1.594-8.944h25.132c.654 3.095 1.257 6.504 1.813 10.232.194 1.03.645 1.87 1.553 2.511.841.643 1.81.902 2.848.708 1.035-.13 1.875-.646 2.522-1.479.645-.905.906-1.807.776-2.898-4.075-26.844-11.391-39.977-22.002-39.332-10.612-.645-17.925 12.04-21.938 38.046-.193 1.03.065 1.994.71 2.833.65.904 1.488 1.42 2.528 1.543 1.101.194 2.004-.061 2.91-.707zm5.074-19.186c2.835-9.525 6.42-14.456 10.72-14.803 4.21.336 7.739 5.277 10.559 14.803z" fill="url(#k)"/><path d="m318.18 21.218c-.775-.706-1.684-1.093-2.782-1.093h-33.648c-1.038 0-2.008.387-2.722 1.093-.774.774-1.163 1.675-1.163 2.769 0 1.03.39 1.994 1.163 2.705.714.778 1.684 1.161 2.722 1.161h12.939v29.609c0 1.033.39 1.999 1.164 2.708.714.774 1.684 1.16 2.719 1.16 1.104 0 2.009-.387 2.781-1.16.715-.709 1.104-1.675 1.104-2.708v-29.611h12.94c1.099 0 2.007-.385 2.781-1.159.714-.711 1.1-1.675 1.1-2.705.002-1.093-.384-1.994-1.098-2.769z" fill="url(#l)"/><path d="m363.52 20.449c-.775-.774-1.682-1.158-2.783-1.158-1.035 0-2.004.384-2.717 1.158-.776.704-1.166 1.673-1.166 2.703v19.117c0 1.485-.258 2.9-.836 4.188-.52 1.349-1.361 2.445-2.334 3.475-1.035.964-2.134 1.804-3.491 2.318-1.293.58-2.719.834-4.207.834h-5.76c-1.487 0-2.847-.251-4.205-.834-1.359-.514-2.456-1.354-3.492-2.318-.974-1.03-1.749-2.125-2.333-3.414v-.061c-.512-1.288-.836-2.703-.836-4.188v-19.118c0-1.03-.391-1.999-1.102-2.703-.781-.774-1.68-1.158-2.782-1.158-1.032 0-2.008.384-2.717 1.158-.78.704-1.165 1.673-1.165 2.703v19.117c0 2.516.515 4.895 1.425 7.212h.063c.906 2.255 2.265 4.183 3.948 5.924 1.744 1.673 3.688 3.024 5.949 3.993 2.27.964 4.663 1.415 7.252 1.415h5.759c2.588 0 4.983-.451 7.313-1.415h-.066c2.263-.969 4.205-2.32 5.957-3.993 1.678-1.741 3.038-3.669 4.012-5.924v.066c.97-2.32 1.427-4.699 1.427-7.278v-19.117c-.011-1.029-.4-1.999-1.113-2.702z" fill="url(#m)"/><path d="m368.735 20.487c-.686.704-1.099 1.534-1.099 2.554v33.25c0 1.02.413 1.979 1.168 2.685.828.764 1.861 1.149 2.961 1.149 1.168 0 2.131-.385 2.89-1.149.829-.706 1.238-1.665 1.238-2.685v-29.67c8.881-.508 15.687-.061 20.435 1.281 3.579 1.085 5.506 2.875 5.709 5.37.07 1.981-.754 3.39-2.476 4.225-2.755 1.151-6.814 1.47-12.176.892-.964-.066-1.792.065-2.619.574-.826.445-1.377 1.085-1.721 1.92-.345.767-.345 1.593-.136 2.427.273.835.828 1.47 1.586 1.98l20.647 14.067c.894.631 1.923.892 3.027.701 1.169-.13 2.064-.64 2.751-1.54.621-.83.896-1.789.761-2.811-.209-1.088-.761-1.916-1.655-2.558l-10.941-7.417c1.586-.379 2.958-.834 4.131-1.404 4.681-2.18 7.022-5.881 7.095-11.063.272-6.134-3.583-10.354-11.422-12.66-6.127-1.916-15.282-2.366-27.462-1.404-1.034.069-1.929.514-2.692 1.286z" fill="url(#n)"/><path d="m416.539 21.152c-.456.646-.71 1.356-.71 2.189v33.478c0 1.032.385 1.999 1.162 2.703.711.774 1.681 1.159 2.718 1.159 1.101 0 2.005-.384 2.779-1.159.713-.704 1.103-1.67 1.103-2.703v-23.88l25.688 26.521c.585.577 1.227.966 2.01 1.156.774.129 1.485.063 2.262-.19.716-.327 1.293-.774 1.75-1.48.454-.645.648-1.354.648-2.128v-33.477c0-1.093-.39-1.994-1.105-2.768-.775-.704-1.677-1.097-2.78-1.097-1.034 0-2.003.394-2.718 1.097-.775.774-1.164 1.675-1.164 2.768v23.885l-25.623-26.587c-.585-.512-1.23-.897-2.01-1.095-.773-.125-1.553-.063-2.262.26-.715.256-1.358.708-1.748 1.348z" fill="url(#o)"/><g fill="#484848"><path d="m218.742 60.814c-2.61 0-5.198-.133-7.915-.405-3.6-.434-6.31-.979-8.548-1.718-1.186-.396-2.146-1.188-2.782-2.29-.615-1.311-.718-2.572-.331-3.721.391-1.265 1.234-2.239 2.427-2.798 1.014-.571 2.363-.71 3.602-.299 1.838.548 4.116.993 6.744 1.313 2.522.29 5.25.382 8.08.313 2.445-.057 4.733-.33 6.802-.812.864-.251 1.978-.613 2.51-1.08.052-.044.104-.081.159-.112.131-.125.248-.215.347-.289.173-.131.221-.167.294-.683.063-.434.076-.681.062-.853-.097-.119-.165-.263-.193-.425l-.063-.359c-.002-.01-.003-.019-.004-.028-.12-.487-1.633-2.118-2.4-2.362-.85-.261-3.891-.59-7.312-.661-.682-.038-1.38-.053-2.202-.072-.643-.015-1.358-.032-2.148-.06-2.052.005-3.434.001-4.19-.067-3.68-.062-6.063-.392-7.215-1.005-1.361-.615-2.628-1.397-3.822-2.364-.086-.037-.165-.083-.229-.137-1.553-1.334-2.719-2.8-3.47-4.356-.049-.101-.079-.208-.089-.317-.924-2.002-1.174-4.069-.763-6.306.337-2.211 1.466-4.427 3.445-6.746 2.988-3.853 8.15-5.824 15.314-5.824 5.356 0 12.001 1.104 19.749 3.277 1.278.423 2.204 1.166 2.877 2.282.679 1.261.811 2.485.408 3.677-.3 1.197-1.111 2.206-2.328 2.847-.633.409-1.412.636-2.25.636-.422 0-.853-.054-1.318-.168-13.027-3.722-21.615-3.825-25.21-.365-.633.63-1.048 1.344-1.228 2.112-.066.236-.043.403.061.555.06.091.106.192.131.298.204.34.543.72 1.008 1.132.397.345.924.672 1.558.968.677.126 2.84.187 3.676.211.73.066 2.095.066 3.985.066.911.031 1.694.049 2.392.064.854.018 1.583.035 2.193.07 3.508.118 6.597.407 8.915.839.056.002.115.009.154.017 4.495.959 7.135 2.578 8.307 5.096l.205.444c.888 1.914 1.071 2.312 1.272 3.043.438 1.132.476 2.326.506 3.284.009.227.013.439.025.633.003.021.003.171.003.191 0 1.424-.263 2.786-.8 4.157-.014.077-.032.151-.058.21-.471 1.063-1.253 2.27-2.391 3.687-.062.078-.135.143-.215.196-1.399 1.748-3.846 3.067-7.275 3.923-2.552.619-5.532.996-8.864 1.124-.544.012-1.07.017-1.598.017zm-15.025-9.607c-.45 0-.877.112-1.272.333-.786.371-1.257.921-1.506 1.715-.296.885-.048 1.73.211 2.286.373.639.964 1.127 1.719 1.38 2.112.698 4.708 1.217 8.164 1.634 3.167.318 6.193.438 9.251.378 3.191-.123 6.049-.482 8.473-1.07 3.139-.785 5.291-1.944 6.393-3.443.069-.095.154-.174.251-.235.903-1.144 1.534-2.112 1.92-2.949.012-.06.027-.116.046-.16.478-1.186.711-2.354.711-3.575-.013-.28-.021-.516-.028-.765-.027-.862-.059-1.838-.413-2.763-.183-.651-.331-.977-1.194-2.839l-.204-.442c-.896-1.928-3.1-3.214-6.928-4.041-.045-.003-.091-.007-.119-.012-1.559-.293-4.336-.674-8.722-.821-.613-.036-1.32-.051-2.149-.068-.705-.015-1.499-.033-2.385-.064-1.97.001-3.307.001-4.063-.07-2.404-.066-3.528-.142-4.082-.274-.058-.014-.114-.034-.168-.059-.834-.382-1.54-.82-2.101-1.303-.723-.639-1.216-1.233-1.516-1.826-.029-.056-.052-.114-.067-.175-.309-.566-.377-1.217-.191-1.858.242-1.052.843-2.097 1.725-2.976 4.196-4.039 13.193-4.054 26.994-.105.783.19 1.525.125 2.152-.276.824-.438 1.285-1.002 1.478-1.763.254-.761.169-1.467-.24-2.227-.418-.692-.995-1.155-1.802-1.422-7.542-2.116-14.017-3.195-19.203-3.195-6.558 0-11.224 1.727-13.867 5.136-1.775 2.08-2.764 3.992-3.053 5.876-.363 1.977-.115 3.763.749 5.493.051.099.081.204.094.311.616 1.166 1.525 2.281 2.706 3.322.075.033.145.072.201.119 1.123.932 2.27 1.647 3.606 2.252.546.29 2.037.74 6.491.819.738.063 2.084.063 4.123.063.816.029 1.523.044 2.158.059.852.019 1.577.036 2.175.074 1.092.021 7.316.577 7.853.742 1.234.393 3.33 2.4 3.658 3.714l.054.127c.226.528.36.968.179 2.233-.168 1.177-.56 1.558-1.012 1.903-.116.087-.199.151-.291.267-.113.14-.264.243-.427.298-.636.452-1.534.824-2.956 1.234-2.24.523-4.656.813-7.227.873-.629.017-1.26.025-1.892.025-2.292 0-4.402-.115-6.454-.351-2.737-.334-5.119-.8-7.084-1.385-.323-.104-.623-.154-.919-.154z"/><path d="m281.018 62.902c-.99 0-1.913-.324-2.748-.964-1.018-.716-1.648-1.731-1.904-3.079-.516-3.455-1.069-6.628-1.654-9.472h-23.612c-.513 2.525-.993 5.263-1.434 8.152-.238 1.287-.878 2.324-1.907 3.113-.916.653-1.819.962-2.782.962-.274 0-.56-.026-.856-.077-1.249-.146-2.317-.793-3.124-1.917-.802-1.042-1.109-2.277-.869-3.55 4.128-26.772 11.639-39.488 22.909-38.804.154-.016.422-.023.684-.023 10.825 0 18.083 13.131 22.185 40.146.159 1.335-.141 2.463-.939 3.58-.845 1.088-1.901 1.705-3.164 1.863-.232.044-.512.07-.785.07zm-30.68-15.38h25.132c.44 0 .82.309.913.739.648 3.067 1.261 6.529 1.822 10.288.159.837.522 1.43 1.17 1.888.682.521 1.379.693 2.138.553.82-.105 1.442-.474 1.956-1.135.504-.707.687-1.378.586-2.216-3.973-26.159-11.016-39.134-21.02-38.51-.35-.014-.587-.021-.82-.021-9.621 0-16.434 12.542-20.25 37.278-.146.777.033 1.48.526 2.122.514.715 1.129 1.094 1.897 1.186.238.04.416.057.587.057.577 0 1.093-.185 1.673-.598.636-.486 1.03-1.122 1.177-1.922.483-3.178 1.022-6.204 1.6-8.965.091-.434.471-.744.913-.744zm23.204-5.864h-21.278c-.295 0-.571-.139-.747-.374-.177-.237-.231-.542-.146-.824 2.981-10.021 6.756-15.081 11.536-15.467.052-.001.099-.006.15 0 4.688.374 8.411 5.434 11.38 15.468.083.282.028.587-.147.823-.177.236-.455.374-.748.374zm-20.016-1.865h18.756c-2.599-8.243-5.726-12.593-9.299-12.934-3.665.35-6.842 4.7-9.457 12.934z"/><path d="m298.571 62.263c-1.326 0-2.536-.519-3.404-1.459-.89-.811-1.411-2.017-1.411-3.341v-28.677h-12.007c-1.331 0-2.543-.52-3.409-1.462-.889-.813-1.409-2.018-1.409-3.336 0-1.322.484-2.476 1.437-3.429.894-.881 2.093-1.365 3.382-1.365h33.648c1.291 0 2.437.449 3.411 1.336.951 1.027 1.404 2.172 1.401 3.459 0 1.287-.488 2.482-1.373 3.364-.948.949-2.105 1.431-3.439 1.431h-12.007v28.679c0 1.291-.49 2.487-1.382 3.37-.948.948-2.106 1.43-3.438 1.43zm-16.822-41.205c-.796 0-1.528.293-2.065.824-.604.604-.886 1.274-.886 2.105 0 .802.297 1.499.861 2.018.57.618 1.274.916 2.09.916h12.939c.517 0 .934.418.934.933v29.609c0 .806.298 1.504.86 2.021.574.618 1.277.916 2.089.916.842 0 1.519-.282 2.122-.887.536-.534.831-1.26.831-2.049v-29.613c0-.515.419-.933.933-.933h12.94c.843 0 1.519-.282 2.12-.885.535-.532.828-1.258.828-2.046 0-.826-.271-1.504-.852-2.136-.578-.522-1.264-.793-2.097-.793z"/><path d="m345.99 61.744h-5.759c-2.767 0-5.259-.487-7.616-1.488-2.279-.977-4.316-2.343-6.23-4.179-1.841-1.903-3.163-3.857-4.059-5.987-.076-.079-.137-.168-.177-.269-1-2.552-1.488-5.022-1.488-7.553v-19.117c0-1.333.523-2.539 1.473-3.395.803-.88 2.012-1.399 3.342-1.399 1.345 0 2.47.467 3.438 1.43.889.878 1.378 2.073 1.378 3.364v19.117c0 1.266.259 2.559.771 3.843.021.053.036.107.048.162.51 1.084 1.179 2.047 2.097 3.016 1.13 1.05 2.082 1.687 3.143 2.086 1.246.534 2.467.775 3.876.775h5.76c1.422 0 2.711-.254 3.824-.754 1.101-.417 2.085-1.074 3.236-2.148 1.034-1.096 1.695-2.073 2.102-3.127.52-1.161.773-2.442.773-3.853v-19.117c0-1.327.523-2.532 1.472-3.393.808-.883 2.017-1.401 3.344-1.401 1.334 0 2.491.482 3.441 1.433.88.865 1.374 2.057 1.387 3.353v19.126c0 2.726-.49 5.225-1.498 7.637-.032.076-.071.146-.12.209-.963 2.144-2.3 4.089-4.08 5.937-1.877 1.793-3.835 3.125-6.005 4.091-.06.047-.127.086-.201.116-2.419.999-4.928 1.485-7.672 1.485zm-22.202-12.862c.069.074.124.159.161.251.804 2.005 2.031 3.844 3.751 5.624 1.725 1.652 3.58 2.897 5.647 3.783 2.119.901 4.372 1.34 6.884 1.34h5.759c2.403 0 4.602-.407 6.714-1.245.05-.037.105-.068.167-.095 2.062-.883 3.92-2.129 5.68-3.81 1.667-1.732 2.919-3.578 3.799-5.619.027-.062.06-.12.098-.174.842-2.104 1.253-4.289 1.253-6.669v-19.117c-.009-.788-.306-1.516-.835-2.037-.61-.609-1.284-.892-2.129-.892-.813 0-1.514.298-2.031.859-.613.561-.919 1.276-.919 2.07v19.117c0 1.675-.309 3.213-.918 4.57-.478 1.245-1.257 2.412-2.507 3.733-.943.881-2.191 1.926-3.838 2.55-1.307.587-2.851.895-4.538.895h-5.76c-1.648 0-3.145-.297-4.573-.91-1.606-.605-2.855-1.651-3.758-2.492-1.133-1.193-1.951-2.394-2.549-3.712-.034-.077-.059-.158-.071-.241-.563-1.46-.848-2.937-.848-4.393v-19.117c0-.788-.294-1.513-.826-2.04-.611-.607-1.287-.889-2.125-.889-.802 0-1.523.305-2.03.856-.77.7-.917 1.507-.917 2.072v19.117c-.001 2.21.412 4.376 1.259 6.615z"/><path d="m371.766 61.056c-1.361 0-2.604-.482-3.594-1.396-.949-.888-1.467-2.084-1.467-3.371v-33.25c0-1.198.459-2.276 1.363-3.205.943-.957 2.053-1.481 3.297-1.567 12.286-.968 21.616-.487 27.803 1.444 8.301 2.442 12.367 7.016 12.076 13.592-.078 5.542-2.646 9.544-7.633 11.867-.691.337-1.464.642-2.331.92l9.271 6.284c1.117.802 1.799 1.858 2.048 3.154.171 1.301-.152 2.507-.931 3.546-.85 1.111-1.989 1.751-3.394 1.909-.236.041-.525.066-.807.066-1.022 0-1.986-.313-2.863-.934l-20.633-14.055c-.984-.663-1.622-1.469-1.948-2.461-.296-1.177-.231-2.198.172-3.099.423-1.025 1.143-1.827 2.129-2.359.888-.546 1.908-.764 3.125-.685 5.223.563 9.133.273 11.755-.821 1.34-.651 1.959-1.717 1.901-3.331-.167-2.042-1.819-3.53-5.048-4.509-4.49-1.271-10.979-1.713-19.23-1.289v28.784c0 1.33-.557 2.536-1.566 3.396-.882.89-2.076 1.37-3.495 1.37zm10.987-41.413c-3.38 0-7.166.163-11.251.486-.799.054-1.482.386-2.102 1.014-.564.58-.832 1.184-.832 1.898v33.25c0 .765.312 1.477.874 2.004.635.585 1.438.897 2.323.897.915 0 1.644-.286 2.228-.873.653-.561.968-1.244.968-2.028v-29.67c0-.495.386-.903.88-.931 8.863-.507 15.862-.063 20.74 1.313 4.008 1.216 6.15 3.297 6.385 6.192.086 2.386-.951 4.149-2.996 5.139-2.999 1.256-7.235 1.57-12.684.98-.093-.005-.218-.01-.341-.01-.66 0-1.182.139-1.69.451-.66.358-1.074.82-1.346 1.482-.245.543-.271 1.138-.094 1.845.174.526.563 1.002 1.201 1.434l20.651 14.069c.729.515 1.515.699 2.345.553.96-.108 1.631-.484 2.168-1.187.481-.644.677-1.36.577-2.124-.151-.781-.559-1.408-1.274-1.922l-10.921-7.403c-.305-.208-.46-.576-.393-.938.064-.365.34-.655.699-.741 1.582-.378 2.871-.815 3.939-1.335 4.358-2.03 6.502-5.376 6.57-10.237.254-5.715-3.264-9.55-10.751-11.752-3.942-1.233-9.28-1.856-15.873-1.856z"/><path d="m452.047 61.614c-.299 0-.601-.026-.911-.077-.982-.236-1.783-.693-2.512-1.412l-24.101-24.882v21.576c0 1.292-.49 2.487-1.38 3.367-.947.946-2.104 1.427-3.435 1.427s-2.539-.519-3.404-1.46c-.888-.796-1.408-2.002-1.408-3.334v-33.478c0-.996.287-1.888.881-2.727.438-.726 1.231-1.345 2.196-1.689.73-.34 1.736-.462 2.724-.304.949.238 1.73.663 2.476 1.316l24.077 24.977v-21.573c0-1.321.482-2.475 1.437-3.427.899-.886 2.097-1.37 3.377-1.37 1.281 0 2.427.45 3.406 1.338.957 1.029 1.413 2.173 1.413 3.459v33.478c0 .996-.276 1.893-.819 2.665-.507.786-1.189 1.365-2.125 1.793-.72.24-1.306.337-1.892.337zm-28.456-29.607c.248 0 .49.099.671.284l25.688 26.521c.472.467.974.756 1.559.898.414.064 1.098.044 1.754-.17.507-.238.925-.589 1.256-1.099.346-.495.499-1 .499-1.622v-33.478c0-.823-.274-1.501-.857-2.134-.586-.526-1.271-.798-2.097-.798-.787 0-1.52.294-2.063.83-.604.602-.887 1.271-.887 2.103v23.885c0 .381-.229.723-.582.865-.354.141-.758.056-1.021-.217l-25.623-26.587c-.469-.407-.986-.69-1.567-.84-.111-.014-.307-.031-.5-.031-.417 0-.802.08-1.144.237-.64.232-1.089.57-1.34.984-.403.574-.574 1.099-.574 1.704v33.478c0 .81.295 1.504.854 2.01.578.622 1.279.918 2.093.918.841 0 1.514-.282 2.121-.887.535-.529.829-1.252.829-2.042v-23.88c0-.38.229-.723.581-.864.113-.047.233-.068.35-.068z"/></g></svg>