<svg enable-background="new 0 0 288.411 75.415" viewBox="0 0 288.411 75.415" xmlns="http://www.w3.org/2000/svg"><g fill="#666" transform="matrix(.81232492 0 0 .75361858 29.891337 10.502362)"><path d="m26.048 6.682v-3.787h35.342c1.684 0 2.524 1.262 2.524 3.787zm0 11.36v-10.098h6.311v10.098zm15.146 0v-10.098h6.311v10.098zm16.409 0v-10.098h6.311v10.098z"/><path d="m67.701 6.682v-3.787h23.982v3.787zm0 7.573v-6.311h6.311c0 .843.421 1.262 1.262 1.262h15.147v3.787h-16.409c0 .843.421 1.262 1.262 1.262h16.409v3.787h-21.457c-1.684 0-2.525-1.262-2.525-3.787z"/><path d="m95.47 6.682c0-2.524.841-3.787 2.524-3.787h23.982v3.787zm0 7.573v-6.311h6.311v6.311h12.622c.841 0 1.262-.212 1.262-.631s-.422-.631-1.262-.631h-6.311v-3.787h11.36c2.524 0 3.787 1.262 3.787 3.787v1.262c0 2.524-.841 3.787-2.524 3.787h-22.72c-1.684 0-2.525-1.262-2.525-3.787z"/><path d="m127.026 6.682c0-2.524.841-3.787 2.524-3.787h21.458c1.684 0 2.524 1.262 2.524 3.787zm0 11.36v-10.098h6.311v10.098zm20.196 0v-2.524h-12.622v-3.787h12.622v-3.787h6.311v10.098z"/><path d="m157.32 6.682v-3.787h23.982c1.684 0 2.524 1.262 2.524 3.787zm0 11.36v-10.098h6.311v10.098zm23.982 0h-16.409v-3.787h12.622v-6.311h6.311v6.311c0 2.525-.84 3.787-2.524 3.787z"/><path d="m187.613 6.682c0-2.524.841-3.787 2.524-3.787h21.458c1.684 0 2.524 1.262 2.524 3.787zm0 11.36v-10.098h6.311v10.098zm7.574-2.525v-3.787h11.36c.841 0 1.262-.419 1.262-1.262v-2.524h6.311v3.787c0 2.524-.841 3.787-2.524 3.787l3.787 2.524h-6.311l-3.787-2.524h-10.098z"/><path d="m219.169 18.042v-15.147h6.311v15.147z"/><path d="m233.053 6.682-2.524-3.787h7.573l2.524 3.787zm7.574 11.36-6.311-10.098h7.573l3.787 6.059 3.787-6.059h7.573l-6.311 10.098zm9.917-11.36 2.524-3.787h7.573l-2.524 3.787z"/><path d="m264.429 6.682v-3.787h23.982v3.787zm0 7.573v-6.311h6.311c0 .843.421 1.262 1.262 1.262h15.147v3.787h-16.409c0 .843.421 1.262 1.262 1.262h16.409v3.787h-21.458c-1.683 0-2.524-1.262-2.524-3.787z"/><path d="m26.048 34.667v-12.306h64.538c7.436 0 11.155 4.102 11.155 12.307h-75.693zm0 36.921v-12.307h51.79c2.655 0 3.984-.685 3.984-2.051s-1.329-2.051-3.984-2.051h-35.855v-12.307h35.058c3.187 0 4.781-1.366 4.781-4.102h19.919v20.511c0 8.205-3.719 12.307-11.155 12.307z"/><path d="m109.708 34.667v-12.306h63.741c7.968 0 11.951 4.102 11.951 12.307h-75.692zm0 20.512c0-8.205 3.984-12.307 11.951-12.307h39.838c2.655 0 3.984-1.366 3.984-4.102h19.919v4.102c0 8.205-3.984 12.307-11.951 12.307h-43.822c-2.655 0-3.984 1.366-3.984 4.102h59.757v12.307h-75.693v-16.409z"/><path d="m211.125 34.667-17.757-12.307h23.903l17.7 12.307zm53.156 36.921-23.391-16.234-23.391 16.233h-23.903l35.342-24.555-11.895-8.263h47.692l-11.895 8.263 35.342 24.555h-23.901zm.227-49.227h23.903l-17.757 12.307h-23.846z"/></g><g fill="#002e82" stroke-width=".782421"><path d="m35.770133 67.336507c-1.609216 0-2.990981-.532808-4.146107-1.597672-1.155126-1.064863-1.732689-2.254826-1.732689-3.569137v-7.463085h2.475154v6.888828c0 1.058834.336303 1.897611 1.010533 2.516332.674229.618721 1.47112.928458 2.393109.928458.934173 0 1.735938-.308984 2.403669-.928458.666107-.618721.999972-1.457498.999972-2.516332v-1.148515c0-.90585.271317-1.610483.815574-2.114654.542633-.504171 1.199804-.755879 1.969076-.755879.757087 0 1.408571.251708 1.959327.755879.550757.504171.825323 1.208804.825323 2.114654v6.888827h-2.475154v-6.888827c0-.382838-.103166-.574258-.309496-.574258-.206331 0-.309496.19142-.309496.574258v1.722018c0 1.313557-.574314 2.503521-1.722941 3.569138-1.147815 1.065617-2.532829 1.598425-4.155854 1.598425zm0-2.870533c-.757087 0-1.408572-.251709-1.959328-.75588s-.825322-1.20805-.825322-2.1139v-6.888827h2.475154v6.888827c0 .382838.103165.574258.309496.574258.20633 0 .309496-.19142.309496-.574258v-1.722018c0-1.313557.574313-2.503521 1.722941-3.569138 1.147003-1.064863 2.532016-1.597671 4.155854-1.597671 1.609215 0 2.99098.532808 4.146106 1.597671s1.732689 2.254827 1.732689 3.569138v7.463084h-2.475154v-6.888827c0-1.058834-.336302-1.897612-1.010532-2.516332-.67423-.618721-1.47112-.928458-2.393109-.928458-.934174 0-1.735939.308983-2.403669.928458-.666107.61872-.999972 1.457498-.999972 2.516332v1.148515c0 .905849-.271317 1.610483-.815575 2.114654-.542633.502663-1.199803.754372-1.969075.754372z"/><path d="m35.460637 53.558852c-3.713137 0-5.5693-1.722772-5.5693-5.166809v-6.888827h2.475154v6.888827c0 1.913438 1.031653 2.870533 3.094146 2.870533h6.80647c2.062493 0 3.094146-.957095 3.094146-2.870533v-6.888827h2.475154v6.888827c0 3.444791-1.856163 5.166809-5.5693 5.166809zm3.094146-2.870533h-3.094146c-1.649832 0-2.475154-.765677-2.475154-2.296276v-6.888827h2.475154v6.31457c0 .382838.206331.574257.618992.574257v-5.166809h2.475154zm.618991 0v-7.463085h2.475154v5.166809c.412661 0 .618992-.191419.618992-.574257v-6.31457h2.475154v6.888827c0 1.530599-.825323 2.296276-2.475154 2.296276z"/><path d="m35.460637 40.354701c-3.713137 0-5.5693-1.722018-5.5693-5.166809v-6.888827h2.475154v6.888827c0 1.913438 1.031653 2.870533 3.094146 2.870533h6.80647c2.062493 0 3.094146-.957095 3.094146-2.870533v-4.592552h-6.80647v4.018295h-2.475154v-6.31457h11.75759v6.888827c0 3.444791-1.856162 5.166809-5.569299 5.166809zm0-2.870533c-1.649832 0-2.475154-.765677-2.475154-2.296276v-6.888827h2.475154v6.31457c0 .382838.206331.574257.618992.574257h5.569299c.412661 0 .618992-.191419.618992-.574257v-1.148515h-.618992v1.148515h-2.475154v-3.444791h5.5693v4.018294c0 1.5306-.825323 2.296276-2.475154 2.296276h-6.807283z"/><path d="m45.361253 20.357432v-6.793118l-12.582101 4.592552c-.274565.127361-.412661.382838-.412661.765676 0 .318781.138096.574257.412661.765677l15.057255 5.166809v2.296276l-15.882577-5.358229c-1.375266-.638314-2.062493-1.59541-2.062493-2.870533 0-1.466542.687227-2.423637 2.062493-2.870533l15.882577-5.549647v9.85507zm-.618992 0h-1.341148l4.434482 1.626309v2.296276l-14.437451-4.97539c-.274566-.06406-.412661-.191419-.412661-.382839 0-.191419.138095-.31878.412661-.382838l11.34493-4.018294v5.836776zm-5.362969-1.43489 2.887815 1.052805v-2.10561z"/></g></svg>