<svg height="164.58464" viewBox="0 0 430.94893 246.87696" width="287.29929" xmlns="http://www.w3.org/2000/svg"><g transform="translate(-78.87367 -1.611328)"><text fill="#ef00eb" font-family="TrasksHand" font-size="3" stroke="#0105ff" stroke-width="3.75" x="437.7005" y="47.42598"><tspan fill="#fafafa" fill-opacity=".4" font-size="3" stroke="none" stroke-width="3.75" x="437.7005" y="47.42598">John Loreth 2022</tspan></text><g stroke-linecap="round" stroke-linejoin="round"><path d="m287.26758 4.6113281c-12.78247.0000636-25.4828 5.2787623-34.51172 14.3339839-9.02892 9.055223-14.27929 21.772025-14.2793 34.564454.00001 12.792428 5.25038 25.509231 14.2793 34.564453.68779.689796 1.52704 1.200397 2.25586 1.845703-.81369.551866-1.62356 1.114467-2.30469 1.824219-.49106.511699-.83236 1.078789-1.23242 1.625-3.32447-2.67858-7.26178-4.94941-11.81641-6.322266a11.916959 11.916959 0 0 0 -3.62109-.505859l-23.76953.363281a11.916959 11.916959 0 0 0 -1.54883.125c-5.2228.766259-9.65936 2.920673-13.32617 5.646484v-17.365234a11.916959 11.916959 0 0 0 -.23242-2.337891c-.97788-4.886773-2.99741-10.079988-6.97657-14.371094-3.97915-4.291105-9.72726-7.124017-15.78125-8.132812a11.916959 11.916959 0 0 0 -2.4707-.150391c-23.01241.988337-44.23645.980532-64.5332.423829l.18359.0078c-5.01302-.214413-9.778865 1.053456-14.726561 4.667969-4.947696 3.614512-9.203055 10.169902-10.16211 17.998047a11.916959 11.916959 0 0 0 -.08203 1.8125c.715623 23.508809 1.145196 46.942164.361328 70.636714a11.916959 11.916959 0 0 0 .002.83789c.161329 4.32836 1.102963 9.75702 5.152344 15.05079 1.14046 1.49092 2.638091 2.81856 4.306641 4.01757-1.843081.76406-3.651264 1.75194-5.335938 3.33594-5.258686 4.94445-5.717356 12.18572-4.894531 16.88477l-.03906-.23242c1.646869 10.647 1.963513 21.4351 2.189454 32.72656a11.916959 11.916959 0 0 0 .164062 1.74414c.534652 3.16915.924687 8.40363 5.171875 13.93359 4.247189 5.52997 12.231297 8.57316 20.068357 8.47461l-.27539.002 63.77539.66993a11.916959 11.916959 0 0 0 3.03125-.35938c4.13972-1.04096 8.39509-2.96848 12.36524-6.9375.32818-.32809.6055-.79019.92187-1.1582 1.25023 1.83122 2.68442 3.56966 4.54297 5.00391 5.17445 3.99311 11.79941 5.17092 17.95313 4.65624l-.99219.041h33.74023a11.916959 11.916959 0 0 0 .19336-.002c3.28428-.0533 6.84279-.91493 10.00391-2.66602 2.84284 2.2323 6.36461 3.59961 10.08984 3.59961h40.10938c4.04005 0 7.49122-1.25845 10.5625-3.67969 3.76634 2.00429 7.70299 2.33483 11.32812 1.96875h36.34766a11.916959 11.916959 0 0 0 2.75976-.32422c6.51169-1.55015 9.16322-4.44014 12.15235-8.52148.45107.52445.83851 1.11918 1.32812 1.5957 4.67839 4.55334 10.31043 6.86457 15.81641 8.26954a11.916959 11.916959 0 0 0 3.01562.37109l52.77344-.31445c7.75306.0148 13.31648-2.37635 16.63672-3.96875 4.06579 2.45701 8.3567 3.13657 11.64453 3.32421 4.21382.2405 7.63305-.0918 10.14844-.0918a11.916959 11.916959 0 0 0 .74609-.0234c4.93111-.309 11.14372-4.02929 13.48633-8.33789 2.34262-4.3086 2.25025-7.52835 2.32422-9.78516a11.916959 11.916959 0 0 0 .006-.33398l.26562-56.4082c.36674-3.09135 1.20098-7.36267-2.94336-13.10938-2.18137-3.02479-6.23276-5.37176-9.66992-5.95703-2.52326-.42965-4.63546-.19535-6.63672.19727h-2.54687v-81.0918a11.916959 11.916959 0 0 0 -3.91211-8.828125l-6.85547-6.214844a11.916959 11.916959 0 0 0 -8.00391-3.08789h-24.65429l1.35351.07813c-1.57324-.17992-3.20346-.232614-4.92968-.05664-3.21649.327892-6.5631 2.087319-9.32032 4.40625-.45677-.449912-.83704-.960214-1.36914-1.34375-4.29642-3.096845-8.16409-2.898967-10.16797-2.826172-9.76294.241272-17.9179 1.186344-24.6289.134766a11.916959 11.916959 0 0 0 -.69141-.08789c-3.46582-.336883-6.74497-.312652-10.25976.738282-3.5148 1.050933-7.24974 3.636712-9.33985 6.796874-4.18021 6.320325-3.01348 11.092716-3.01172 13.132813a11.916959 11.916959 0 0 0 .002.212891l.93359 49.857424c-2.13839-1.07005-4.28829-1.75319-6.25586-1.99414a11.916959 11.916959 0 0 0 -1.44922-.0879h-1.97656c.29504-4.89371.57119-9.73249.94141-14.84375a11.916959 11.916959 0 0 0 .0273-1.17383c-.0571-2.17922.14727-6.302485-3.57227-10.974611-3.71953-4.672126-10.36494-6.15946-14.96484-5.775391l.99219-.04102h-20.740431l1.8086.138672c-.71726-.110126-1.59197-.01245-2.37891-.04102 8.64833-9.009318 13.72069-21.38056 13.7207-33.876953-.00001-12.792417-5.25037-25.509219-14.27929-34.564442-9.02892-9.0552216-21.72925-14.3339203-34.51172-14.3339839zm177.30664 233.7910119c.0227.0214.0476.0315.0703.0527.00004.00018-.0278-.0141-.0273-.0137z" fill="#fffff8" stroke="#2546a0" stroke-width="6"/><g fill="#2546a0"><path d="m94.882991 146.25912c.797193-24.09735.356479-47.791214-.362021-71.394543 1.196425-9.765644 8.92171-12.365441 12.55224-12.210159 20.52212.562885 42.04196.56951 65.37074-.432414 7.99775 1.33269 11.66557 6.256775 13.03276 13.089066v38.83814c.65874 5.54533-1.91298 4.50869-3.55451 5.36729h-33.30995c-6.66227-1.22382-4.41076-4.54932-4.61107-7.29673.70953-7.7405 2.00808-16.407166 2.02799-23.259173-2.49173-9.421646-12.94516-9.627968-14.68799-.513532l.74214 43.982185c-.86112 4.57947 5.75346 7.30825 7.81703 6.76582l31.47022-1.36633c5.129-.32379 12.52625 4.91781 12.4874 13.30627-1.43676 23.16952-1.79577 43.93751-.74805 68.19721.92101 7.02736-5.35565 10.96374-9.72676 12.06289l-63.77665-.67116c-11.190639.14072-12.273344-6.16152-13.338454-12.47497-.227042-11.3465-.532521-22.70596-2.32766-34.31153-.9363-5.34709 1.369907-8.466 9.252984-7.75261h24.01539c2.63852-.0717 5.80172-1.15311 5.36409 4.69466l-.39754 12.29357c-.59104 4.61314-1.44821 8.79678-1.22164 13.73795 2.10633 12.29228 13.39326 10.14973 14.27837 0l-.7998-37.82582c-.10414-6.49045-1.59693-11.14575-10.33234-10.87403l-26.4235.43241c-10.025512.41302-12.603766-7.29617-12.793419-12.38446z" stroke-width="5"/><path d="m104.89648 64.5625-15.847652.242188c-9.461793 1.388175-10.946784 11.220063-10.835937 13.880859-.32882 19.176105.280619 37.941083.443359 57.117183-.2565 3.8296-.440496 7.63997.08789 11.25977.890546 4.87122 3.816458 7.4234 9.392578 6.95703h22.494142c7.89285-.12804 3.47525-8.63786 1.45312-8.46484l-20.755856-.26367c-2.623347-.16964-3.80045-5.35759.472656-6.11524 3.60046-.95052 7.594871-.0455 11.39453.23438 2.61246.19245 5.40963-.33751 7.90235.10546 3.87404.1169 3.88411-1.9548 3.70312-4.13476l.14844-54.261719c-.59263-6.529628.0513-13.511077-10.05274-16.556641zm-8.345699 16.060547c2.526094 0 4.680229 2.037393 4.558599 4.560547-.54421 11.288986-1.589305 22.518206 0 34.068356.34434 2.50251-2.032505 4.5586-4.558599 4.5586-2.526093 0-4.680233-2.03535-4.560547-4.5586.53868-11.35632.740554-22.712043 0-34.068356-.16438-2.520734 2.034454-4.560547 4.560547-4.560547z" stroke-width="3.33333" transform="matrix(1.5 0 0 1.5 78.87367 1.611328)"/><path d="m265.10811 98.838402c13.74361 1.323068 27.47815 1.880168 40.1079 0 3.60562-.536761 4.81702 1.554348 4.84859 4.383078-.19785 1.93648-.0477 4.03182-.19828 6.12176-.77199 10.71189-1.10183 23.09859-.83836 34.60672.55399 24.19768-2.02617 48.12128.62616 71.85377.51113 4.57352-.0101 9.06632.33487 13.5026.1981 2.42014-2.34476 4.26552-4.77298 4.26552h-40.1079c-2.42822 0-4.50913-1.95812-4.38307-4.38308 2.14966-41.3531 2.29212-83.1554-.4889-125.96729-.1574-2.42312 1.38155-4.719094 4.87197-4.383078z" stroke-width="5"/></g><ellipse cx="287.26764" cy="53.509369" fill="#f3419f" rx="36.875183" ry="36.982449" stroke-width="5.00001"/><path d="m162.06641 65.003906c-2.91279-.07863-2.8847 2.997666-2.65235 6.935547 2.49136 18.09968.892 35.877757 1.0586 53.794927.813 8.19588.0986 16.25087-.32813 24.27929-.19507 2.41258 1.15685 4.06752 5.17969 3.48633h24.39648c2.00404-.47707 6.68912-4.68325 6.43555-11.32227-1.96625-16.37699-1.3093-32.26835-1.05469-48.234371-.6837-5.11746-4.10089-6.750652-6.21679-7.009765h-4.24415c-3.19714.18454-5.29909-.618808-5.32617-3.300782.30351-4.981473.57668-9.862067.95703-15.113281-.052-1.984693-.44204-3.733556-3.7539-3.457031h-13.82813c-.22113-.03395-.42886-.05335-.62304-.05859zm16.33398 33.136719c2.41771 0 4.6067 1.957645 4.36523 4.363285-1.19274 11.88287-.63978 23.76556 0 35.64843.12999 2.41422-1.94752 4.36524-4.36523 4.36524-2.41772 0-4.61822-1.961-4.36328-4.36524 1.21875-11.49348.27961-23.67622 0-35.64843-.0565-2.41706 1.94556-4.363285 4.36328-4.363285z" fill="#2546a0" stroke-width="3.33333" transform="matrix(1.5 0 0 1.5 78.87367 1.611328)"/><path d="m417.3122 63.301362c-8.9609.215052-17.92278 1.403873-26.88207 0-9.96223-.968343-9.54672 4.033385-9.5426 8.798449l.9533 51.029069c2.41983 31.55042 1.17547 62.92177 1.7632 94.38265.45392 9.12482 6.33731 13.5681 14.85358 15.74121l52.86644-.31509c13.34597.0255 15.52955-8.70061 21.41735-3.21107 3.81833 3.59421 10.57156 2.47495 16.98838 2.47495 3.95411-.24778 4.53654-3.24224 4.64728-6.62096l.2695-57.03974c.45785-4.49504-.19259-7.9563-6.3662-6.26564h-8.24872c-5.84377.95095-7.85925-1.81356-7.18678-7.18679v-85.820397l-6.8556-6.216033h-24.65363c-7.04522-.805708-8.04323 4.148197-7.2498 10.808335.55959 8.83298 1.09891 17.662928 1.17892 26.498935.31904 35.22944-.11201 70.60367.27587 105.90551.0886 12.93217-14.25065 13.70467-14.82275 0-.11168-46.19391-1.72074-91.58615.6865-139.128648-.13591-3.476675-1.97116-3.911465-4.09217-3.83474z" fill="#2546a0" stroke-width="5"/></g></g></svg>