<svg height="186" width="500" xmlns="http://www.w3.org/2000/svg"><path d="m380.012 153.59364c.12141 2.85175-.12121 5.58215-.7279 8.19118-1.15284 5.03605-3.61022 9.49569-7.37206 13.37893-6.31025 6.12821-14.1823 10.79027-22.89004 10.79025s-15.63884-4.66202-21.52436-10.79025c-4.12592-3.88324-6.88664-8.34288-8.2822-13.37893-.78877-2.60903-1.16189-5.33951-1.18344-8.19118v-90.28464h-30.67c-8.49453-.12141-15.65426-3.2465-21.4791-9.37472-6.18889-6.37092-9.34402-14.01602-9.46536-22.93531.12141-8.49458 3.27651-15.6846 9.46536-21.5701 5.82484-6.1889 12.98457-9.34378 21.4791-9.46512h121.95529c8.91928.12141 16.53399 3.27624 22.84429 9.46512 5.76411 5.8855 8.46418 13.07552 8.10017 21.5701.36401 8.91929-2.33606 16.56439-8.10017 22.93531-6.31023 6.12822-13.92497 9.25336-22.84429 9.37472h-29.30529zm119.9555 10.83057c.30336 5.82483-1.5169 10.76989-5.46079 14.83513-4.55066 4.42932-9.92043 6.63401-16.10932 6.69466-5.64282.12142-10.58789-1.65859-14.83514-5.42047-4.12592-4.06525-6.37092-9.51071-6.73497-15.33553 0 0-7.44703.52241-10.83056.50039-3.38353-.022-9.37435-.50039-9.37435-.50039-.42471 5.82482-2.66971 11.27028-6.73497 15.33553-4.67202 3.76188-10.07215 5.54183-16.20034 5.42047-5.82484-.0606-10.73955-2.26536-14.74413-6.69466-4.48998-4.06524-6.73497-9.0103-6.73497-14.83513v-35.04006c.0608-14.74412 5.4305-28.34442 16.10933-38.78059 10.43618-10.73955 22.99597-16.02236 37.67943-16.08304 15.1689.0606 28.21406 5.34349 39.13564 16.08304 10.1935 10.3755 15.13857 23.9758 14.83514 38.78059zm-44.50542-43.23124c-2.66969-2.6697-5.82484-4.00457-9.46536-4.00457-3.70122 0-6.82602 1.33487-9.37435 4.00457-2.66971 2.60904-4.00458 5.7945-4.00458 9.55638v3.91357l1.3652 2.8214c2.12362 1.69891 6.12822 2.57871 12.01373 2.63938 9.34402-.12141 13.83403-1.9416 13.46994-5.46078v-3.91357c0-3.76188-1.33485-6.94734-4.00458-9.55638zm-419.02439-59.24954c-.12142-16.80708 5.73382-31.15681 17.56553-43.0492 11.89237-12.25645 26.2421-18.56593 43.0492-18.92998h90.28502c8.85859.12141 16.5037 3.27574 22.9353 9.46462 6.12819 5.8855 9.253 13.07552 9.37435 21.5701-.12141 8.91929-3.24616 16.56439-9.37435 22.93531-6.4316 5.70348-14.07671 8.37319-22.9353 8.00915h-49.78418c17.2638 6.34473 26.29456 13.94813 34.03027 25.48713 7.23074 10.91121 11.38529 22.23409 11.74933 35.21862-.3034 15.04749-5.33945 28.09271-15.10818 39.13564l-3.73154 3.91357c-11.89239 12.25643-26.30281 19.95223-43.23123 20.25561h-90.194c-8.97995-.12141-16.62506-4.66202-22.9353-10.79025-3.82255-3.88324-6.27989-8.34288-7.37207-13.37893-.60673-2.60903-.84942-5.33943-.7281-8.19118-.36405-8.9193 2.33601-16.53406 8.10017-22.84429 6.31024-5.76417 13.95535-8.46424 22.9353-8.10017h49.87519c-16.5028-6.54195-25.3193-13.06832-33.67485-24.3005-7.34172-10.8609-10.95192-22.99599-10.83056-36.40525zm158.99991 35.04005c.12141-5.76418 2.36634-10.70922 6.73497-14.83513 4.55066-4.4293 9.95076-7.56716 16.20034-7.62783h69.97759c4.73268.0606 8.76761 2.77381 12.10475 6.35364 3.51918 3.33714 5.3091 7.34172 5.36977 12.01373-.0606 4.79337-1.85059 8.85864-5.36977 12.19576-3.3372 3.51919-7.46141 6.46984-12.19404 6.53049-3.1744-.0206-11.88596-.34012-8.83121.74886 1.7058 0 11.55988 6.94925 11.55988 17.02115s-9.91839 17.47452-11.55988 17.47452c-2.87935.80899 5.08881 1.03673 9.66728 1.03673 4.98721 0 8.02083 2.6038 11.35797 5.69824 2.24498 2.42701 3.7922 5.15741 4.64167 8.19118l.7281 5.27877c-.0606 4.79337-1.85059 8.85863-5.36977 12.19575-3.3372 3.4585-7.37212 6.63398-12.10475 6.69466h-69.97759c-6.24958-.12141-11.64968-3.78224-16.20034-8.15087-4.36864-4.4293-6.61365-9.76874-6.73497-16.01831zm0 64.80134v-.091z" fill="#0b4199"/></svg>