<svg height="200" viewBox="0 0 320 200" width="320" xmlns="http://www.w3.org/2000/svg"><g fill-rule="evenodd" transform="matrix(.87781571 0 0 .88955963 -15.05894 10.32337)"><path d="m243.731 2.474c-.083.315-.103.62-.045.678.161.161.357-.483.272-.89-.056-.267-.116-.211-.227.212m-109.983 14.592c-.232.574-.19 1.056.069.797.119-.119.186-.43.148-.69-.06-.416-.086-.429-.217-.107m22.398-.145c-.08.08-.143.333-.14.562.006.385.022.39.214.059.224-.384.167-.862-.074-.621m90 0c-.08.08-.143.333-.14.562.006.385.022.39.214.059.224-.384.167-.862-.074-.621m-176.046 2.879-3.2.115 3.438.043c2.123.026 3.486-.034 3.562-.158.068-.11-.039-.181-.238-.158-.199.024-1.802.094-3.562.158m108.046 1.721c-.08.08-.14.378-.133.662l.012.517.193-.483c.208-.52.165-.934-.072-.696m-68.29 2.026c.526.042 1.336.041 1.8-.001s.034-.076-.956-.075-1.37.035-.844.076m41.694-.002c.357.044.943.044 1.3 0 .358-.045.065-.081-.65-.081s-1.008.036-.65.081m-61.404 1.376c-.08.08-.143.333-.14.562.006.385.022.39.214.059.224-.384.167-.862-.074-.621m154 3.2c-.08.08-.137.513-.126.962l.02.817.185-.787c.195-.832.163-1.234-.079-.992m-.7 4.679c0 .385.042.543.092.35.05-.192.05-.507 0-.7-.05-.192-.092-.035-.092.35m22.298 1.666c-.223.567-.186.856.075.595.12-.12.185-.386.144-.59-.072-.358-.08-.358-.219-.005m-44 3.4c-.223.567-.186.856.075.595.12-.12.185-.386.144-.59-.072-.358-.08-.358-.219-.005m-22.013 2.008c-.083.315-.103.62-.045.678.161.161.357-.483.272-.89-.056-.267-.116-.211-.227.212m-151.581 2.241c-.082.084-.147.384-.144.668.005.454.032.473.214.161.227-.392.17-1.071-.07-.829m151.996 3.406c-.08.08-.14.378-.133.662l.012.517.193-.483c.208-.52.165-.934-.072-.696m-77.768 21.199c-1.473 1.83-3.128 3.887-3.678 4.571-2.847 3.543-4.209 5.219-4.313 5.309-.063.055-2.177 2.665-4.697 5.8-6.148 7.649-8.062 10.024-8.462 10.5-.185.22-1.535 1.885-3.002 3.7-1.466 1.815-2.994 3.697-3.396 4.182-.401.485-1.135 1.395-1.63 2.021-.495.627-1.62 2.03-2.5 3.118-3.025 3.743-7.595 9.38-7.928 9.779-.856 1.026-9.872 12.205-11.372 14.099-.495.626-1.228 1.534-1.63 2.019-.686.83-4.72 5.79-6.099 7.502-.346.429-1.494 1.847-2.55 3.152-1.057 1.305-1.921 2.45-1.921 2.546 0 .356 1.08.396 8.966.34l8.065-.058.635-.713c.609-.685 7.795-9.548 14.74-18.178 5.778-7.18 6.688-8.307 6.794-8.409.056-.055.822-.994 1.701-2.087 2.227-2.766 3.618-4.487 6.801-8.413 1.516-1.87 3.95-4.885 5.408-6.7s3.166-3.93 3.795-4.7 1.734-2.146 2.456-3.058c2.142-2.706 1.933-5.366 1.981 25.244.034 21.616.092 26.812.3 26.944.297.189 7.429.226 8.114.042.276-.073 1.675-1.636 3.535-3.947 1.694-2.104 4.355-5.4 5.913-7.325 1.559-1.925 3.514-4.347 4.345-5.383.831-1.035 1.671-2.07 1.868-2.3.196-.229 1.555-1.908 3.02-3.731 1.464-1.822 4.374-5.422 6.466-8 5.492-6.769 9.182-11.336 10.897-13.487 6.877-8.625 7.698-9.586 8.021-9.386.104.064.179 11.282.179 26.777 0 24.133.03 26.679.316 26.789.533.204 12.218.136 12.771-.074l.514-.195-.051-40.755-.05-40.755h-4.394-4.395l-3.805 4.724c-2.093 2.598-4.568 5.658-5.498 6.8-1.619 1.986-7.808 9.648-9.908 12.267-1.297 1.618-4.722 5.848-6 7.412-.55.673-2.593 3.198-4.541 5.61-1.947 2.413-4.996 6.187-6.774 8.387-1.779 2.2-4.046 5.016-5.039 6.257s-1.905 2.223-2.026 2.183c-.201-.067-.248-31.385-.072-48.54l.052-5.1-4.622-.054-4.622-.053zm77.809-2.826c-11.664 6.083-11.352 42.86.413 48.663l1.1.543 14.4.1 14.4.1 1.045.473c4.434 2.004 5.355 9.903 1.563 13.398l-.899.829h-19.89c-17.816 0-19.923.033-20.205.314-.548.549-.467 16.59.085 16.886.279.149 7.461.196 23.75.157l23.351-.057.824-.441c11.932-6.383 11.939-41.819.01-48.29l-1.234-.669-14.7-.1c-12.897-.088-14.786-.139-15.401-.419-4.721-2.151-4.87-11.541-.23-14.427l.731-.454 19.146-.055c18.684-.053 19.15-.064 19.352-.441.135-.252.188-3.18.154-8.445l-.052-8.059-23.4-.041-23.4-.041zm52.949-.363c-.232.231-.162 68.047.071 69.382.959 5.484 4.976 9.958 10.693 11.909l1.4.478h16.4 16.4l1.739-.622c5.277-1.889 9.126-6.161 10.199-11.32.21-1.008.262-8.082.262-35.558v-34.3h-6.75-6.749l-.051 29.4-.05 29.4-.559 1.12c-2.073 4.152-4.473 4.973-14.541 4.974-9.865 0-12.099-.728-14.215-4.631l-.685-1.263-.1-29.5-.1-29.5-6.614-.053c-3.638-.029-6.675.009-6.75.084m77.816 2.429c-1.128 1.412-2.744 3.416-3.59 4.454-.845 1.037-4.019 4.943-7.053 8.68l-5.516 6.794.054 5.006.053 5.006 6.434.1c3.538.055 6.489.156 6.557.224.069.069.119 11.073.113 24.454l-.011 24.329.516.197c.68.258 12.299.259 12.978.001l.514-.195-.051-40.755-.05-40.755-4.448-.054-4.447-.054zm-87.611 100.317c-2.28.848-3.769 2.826-4.916 6.527-1.35 4.36-.976 12.335.808 17.196 2.549 6.946 11.176 5.96 12.765-1.459.111-.517.295-1.368.408-1.891.237-1.096.294-1.031-2.04-2.3-1.893-1.029-2.095-1.003-2.268.3-.592 4.437-3.731 5.337-5.082 1.457-.63-1.806-.623-9.402.009-11.318 1.221-3.697 4.182-3.536 4.96.269.145.706.606.911 1.291.572.233-.115.919-.408 1.524-.651 1.863-.749 1.935-1.698.368-4.879-1.74-3.532-4.71-4.983-7.827-3.823m-184.192.461c-.332.087-.349.859-.3 13.627l.051 13.535h1.9 1.9l.052-8.45c.05-8.072.23-10.355.539-6.82.078.897.229 1.86.336 2.141s.324 1.55.482 2.82c.525 4.211.712 5.496 1.005 6.909.16.77.29 1.818.289 2.329-.004 1.123.086 1.171 2.2 1.171 1.827 0 1.638.261 2.093-2.9.174-1.21.448-2.973.61-3.917.162-.945.294-2.102.294-2.571 0-.47.126-1.362.281-1.983.154-.621.341-1.883.416-2.804.074-.922.188-1.815.254-1.986.322-.839.422 1.021.435 8.087.016 8.84-.186 8.117 2.245 8.032l1.669-.058v-13.6-13.6l-2.753-.056c-3.362-.068-3.48-.019-3.634 1.505-.064.633-.215 1.71-.335 2.393-.301 1.711-1.333 9.404-1.376 10.258-.074 1.475-1.002-1.88-1.411-5.1-1.007-7.931-1.177-8.849-1.669-8.981-.491-.132-5.055-.116-5.573.019m20.6 0c-.332.087-.349.859-.3 13.627l.051 13.535 6.1.056c7.861.072 7 .433 7-2.938 0-3.33.423-3.018-4.1-3.018-4.499 0-4.1.265-4.1-2.721 0-1.364.023-2.496.05-2.517.028-.021 1.67-.089 3.65-.15l3.6-.112.056-2.684c.07-3.341.362-3.095-3.815-3.216l-3.441-.1-.058-1.85c-.068-2.218-.657-1.907 3.858-2.039l3.8-.111.056-2.785c.042-2.093-.008-2.824-.2-2.947-.263-.166-11.577-.195-12.207-.03m16.8-.007c-.332.093-.349.869-.3 13.634l.051 13.535 4.032.054c4.566.061 5.394-.114 6.839-1.451 2.701-2.499 3.91-9.877 2.869-17.503-.505-3.695-2.13-6.784-4.14-7.868-.779-.421-8.158-.737-9.351-.401m17.401.085c-.328.191-.35 1.052-.35 13.59v13.386l.45.113c.247.061 1.35.086 2.45.053l2-.058.051-13.526.052-13.527-.452-.121c-.735-.197-3.822-.131-4.201.09m13.354-.033c-.391.152-.579.745-1.117 3.517-.107.55-.321 1.585-.477 2.3s-.421 1.975-.59 2.8c-.168.825-.496 2.4-.728 3.5-.231 1.1-.554 2.675-.717 3.5s-.386 1.86-.497 2.3-.327 1.475-.48 2.3c-.265 1.423-.595 3.007-1.116 5.341-.363 1.634-.33 1.659 2.187 1.659 2.606 0 2.578.022 2.828-2.174.288-2.526.189-2.448 3.041-2.382l2.417.056.251 1c.138.55.317 1.495.397 2.1.185 1.399.173 1.393 2.835 1.397 2.577.003 2.586-.003 2.192-1.547-.161-.632-.353-1.6-.426-2.15s-.216-1.225-.318-1.5c-.173-.469-.578-2.487-1.003-5-.102-.605-.312-1.64-.466-2.3s-.418-1.875-.586-2.7-.412-1.995-.542-2.6c-.317-1.477-.684-3.333-1.079-5.459-.179-.967-.413-1.985-.518-2.263-.106-.277-.192-.725-.192-.996 0-.792-3.78-1.292-5.296-.699m21.146.023-.45.181v13.267c0 10.051.058 13.324.24 13.506.254.254 12.004.364 12.644.119.473-.182.473-5.576 0-5.758-.174-.066-1.877-.121-3.784-.121-4.488 0-4.1.247-4.1-2.61 0-2.891-.314-2.666 3.9-2.79l3.4-.1.055-2.85c.031-1.567.031-2.865 0-2.884-.03-.018-1.675-.086-3.655-.15l-3.6-.116-.059-1.696c-.079-2.281-.225-2.204 4.197-2.204h3.562v-2.879c0-2.44-.048-2.897-.316-3-.504-.193-11.536-.115-12.034.085m16.7-.068c-.329.086-.35.901-.35 13.573v13.481l.45.113c.248.062 1.26.086 2.25.054l1.8-.059.1-6.634c.055-3.648.167-6.701.25-6.783s.151-.022.151.134c.001.156.141.551.312.879s.536 1.183.81 1.9.629 1.6.788 1.961.289.748.289.861c0 .112.164.582.365 1.043.2.461.524 1.244.72 1.739.195.495.481 1.196.635 1.557s.283.766.287.9.18.603.393 1.043.389.903.393 1.029c.011.369.532.471 2.407.471.972 0 1.91-.055 2.084-.121.544-.209.475-26.78-.071-27.072-.416-.223-3.024-.279-3.763-.081l-.45.121v5.96c0 3.278-.055 6.103-.121 6.277-.219.568-.635.333-.945-.534-.167-.467-.495-1.345-.728-1.95-.473-1.224-.558-1.449-1.883-5-.513-1.375-1.011-2.68-1.108-2.9-.096-.22-.286-.696-.422-1.058-.136-.361-.41-.744-.607-.85-.356-.19-3.361-.231-4.036-.054m18.7.068-.45.181v13.385c0 12.021.032 13.398.316 13.507.174.066 1.157.121 2.184.121 2.766 0 2.5.594 2.5-5.581 0-6.297-.204-5.82 2.49-5.816 2.74.004 2.495-.553 2.557 5.807l.053 5.49 2 .058c1.1.033 2.203.008 2.45-.053l.45-.113v-13.389c0-15.523.328-13.805-2.637-13.8-2.548.004-2.347-.397-2.409 4.806l-.054 4.491-2 .058c-3.211.094-2.9.592-2.9-4.638 0-4.47 0-4.473-.45-4.594-.68-.182-3.588-.125-4.1.08m22.707-.069c-.216.056-.386.363-.457.826-.062.406-.245 1.195-.406 1.755-.162.559-.294 1.219-.294 1.467 0 .247-.134 1.004-.297 1.682s-.484 2.133-.712 3.233c-.229 1.1-.547 2.63-.707 3.4-.428 2.065-.849 4.068-1.093 5.2-.118.55-.332 1.63-.475 2.4s-.356 1.805-.473 2.3c-.634 2.669-.846 3.764-.845 4.35l.002.65h2.186c2.669 0 2.685-.013 2.981-2.31.307-2.375.22-2.313 3.109-2.246l2.418.056.154.8c.085.44.237 1.373.337 2.074.239 1.674.194 1.649 2.832 1.583l2.283-.057-.03-.9c-.016-.495-.225-1.755-.465-2.8-.239-1.045-.556-2.575-.706-3.4-.149-.825-.368-1.95-.488-2.5-.119-.55-.349-1.63-.511-2.4s-.428-2.03-.592-2.8-.392-1.895-.507-2.5c-.461-2.434-.767-3.944-.974-4.8-.341-1.411-.652-3.021-.766-3.963-.082-.683-.206-.902-.595-1.05-.488-.185-4.249-.224-4.909-.05m13.293.069-.45.181v13.385c0 12.021.032 13.398.316 13.507.594.227 3.993.132 4.244-.119.177-.177.242-1.983.246-6.85l.007-6.61.443.911c.451.924.997 2.26 1.774 4.339.236.633.551 1.434.7 1.78.148.347.27.722.27.834s.131.458.291.77c.159.311.485 1.106.722 1.766.238.66.558 1.496.71 1.857s.277.787.277.946c0 .417.648.522 2.8.456l1.9-.059.051-13.487c.041-10.658-.001-13.521-.2-13.647-.414-.263-3.635-.195-4.011.084-.302.223-.343.9-.389 6.347-.046 5.451-.086 6.104-.377 6.16-.215.042-.373-.126-.465-.497-.077-.308-.258-.83-.402-1.16-.145-.33-.493-1.23-.774-2-.282-.77-1.018-2.705-1.636-4.3-.619-1.595-1.206-3.16-1.305-3.478-.393-1.259-2.911-1.852-4.742-1.116m36.6 0-.45.181v13.267c0 10.051.058 13.324.24 13.506.254.254 12.004.364 12.644.119.473-.182.473-5.576 0-5.758-.174-.066-1.877-.121-3.784-.121-4.488 0-4.1.247-4.1-2.61 0-2.891-.314-2.666 3.9-2.79l3.4-.1.055-2.85c.031-1.567.031-2.865 0-2.884-.03-.018-1.675-.086-3.655-.15l-3.6-.116-.059-1.696c-.079-2.281-.225-2.204 4.197-2.204h3.562v-2.879c0-2.44-.048-2.897-.316-3-.504-.193-11.536-.115-12.034.085m16 0-.45.181v13.267c0 15.144-.214 13.746 2.1 13.746 2.284 0 2.1.779 2.1-8.873 0-4.617.054-8.339.121-8.273.066.066.198.824.293 1.683.095.86.305 2.103.466 2.763s.39 2.055.51 3.1c.229 1.996.605 4.748 1.036 7.6.307 2.028.267 1.993 2.229 1.997 1.814.004 1.748.081 2.119-2.497.127-.88.326-2.23.443-3s.331-2.3.475-3.4.36-2.675.479-3.5.271-2.017.337-2.65c.1-.951.305-1.373.534-1.1.023.028.091 3.65.15 8.05l.108 8h1.9 1.9l.051-13.378c.039-10.102-.006-13.448-.186-13.664-.25-.302-5.771-.32-6.07-.021-.075.076-.217.886-.315 1.8-.099.915-.272 2.068-.384 2.563-.113.495-.289 1.71-.39 2.7-.102.99-.285 2.475-.407 3.3s-.285 1.95-.361 2.5c-.272 1.968-.984.309-1.417-3.3-.394-3.289-.649-5.116-.934-6.7-.158-.88-.287-1.85-.287-2.155 0-.412-.132-.605-.513-.75-.639-.243-5.026-.234-5.637.011m21.299-.068c-.332.087-.349.859-.3 13.627l.051 13.535 6.1.056c7.861.072 7 .433 7-2.938 0-3.33.423-3.018-4.1-3.018-4.499 0-4.1.265-4.1-2.721 0-1.364.023-2.496.05-2.517.028-.021 1.67-.089 3.65-.15l3.6-.112.056-2.684c.07-3.341.362-3.095-3.815-3.216l-3.441-.1-.058-1.85c-.068-2.218-.657-1.907 3.858-2.039l3.8-.111.056-2.785c.042-2.093-.008-2.824-.2-2.947-.263-.166-11.577-.195-12.207-.03m16.101.068-.45.181v13.385c0 12.021.032 13.398.316 13.507.594.227 3.993.132 4.244-.119.177-.177.242-1.983.246-6.85l.007-6.61.443.911c.451.924.997 2.26 1.774 4.339.236.633.551 1.434.7 1.78.148.347.27.722.27.834s.131.458.291.77c.159.311.485 1.106.722 1.766.238.66.558 1.496.71 1.857s.277.787.277.946c0 .417.648.522 2.8.456l1.9-.059.051-13.487c.041-10.658-.001-13.521-.2-13.647-.414-.263-3.635-.195-4.011.084-.302.223-.343.9-.389 6.347-.046 5.451-.086 6.104-.377 6.16-.215.042-.373-.126-.465-.497-.077-.308-.258-.83-.402-1.16-.145-.33-.493-1.23-.774-2-.282-.77-1.018-2.705-1.636-4.3-.619-1.595-1.206-3.16-1.305-3.478-.393-1.259-2.911-1.852-4.742-1.116m17.6-.074c-.184.075-.25.865-.25 2.985v2.883l1.85.003c1.018.001 2.053.057 2.3.123l.45.121v10.352c0 12.043-.294 10.839 2.629 10.758l2.071-.057.052-10.382c.035-7.108.12-10.464.269-10.643.15-.181.912-.28 2.448-.319l2.231-.056.056-2.698c.049-2.363.013-2.73-.288-2.95-.343-.251-13.216-.362-13.818-.12m-223.59 6.551c1.283.979 1.44 1.765 1.44 7.217 0 6.278-.577 7.647-3.143 7.462l-.857-.062-.052-7.487c-.041-5.852.002-7.524.2-7.658.434-.295 1.694-.019 2.412.528m26.155 2.846c.105.754.316 1.956.47 2.671.851 3.954.882 3.8-.785 3.8-1.534 0-1.539-.007-1.285-1.62 1.057-6.7 1.258-7.311 1.6-4.851m79.26-.679c.051.358.198 1.235.326 1.95 1.036 5.797 1.105 5.2-.601 5.2-1.035 0-1.4-.07-1.4-.267 0-.368.529-3.81.774-5.033.11-.55.255-1.337.322-1.75.15-.922.454-.975.579-.1" fill="#f7f7f7"/><path d="m46.4 128.8v71.2h153.6 153.6v-71.2-71.2h-153.6-153.6zm87.895-60.2c-.002 2.805-.03 14.852-.061 26.772s-.029 21.7.005 21.733c.169.168 1.286-1.137 6.061-7.082 2.86-3.561 6.415-7.977 7.9-9.815 4.141-5.124 8.794-10.863 9.169-11.308.185-.22 1.818-2.245 3.628-4.5 4.371-5.444 15.23-18.851 16.242-20.054l.803-.954 4.329.054 4.329.054.05 40.679c.038 29.902-.009 40.751-.174 40.95-.284.342-12.558.402-13.19.064-.38-.204-.387-.695-.379-26.748.006-18.222-.056-26.561-.199-26.609-.225-.075-.418.131-2.122 2.264-2.969 3.715-4.175 5.208-4.279 5.3-.062.055-1.051 1.27-2.197 2.7s-3.529 4.39-5.297 6.579c-1.767 2.188-3.663 4.539-4.213 5.224s-1.9 2.351-3 3.703c-1.1 1.351-2.433 3.001-2.963 3.666s-1.264 1.573-1.632 2.019c-1.198 1.451-6.797 8.395-7.206 8.937-.22.291-.979 1.236-1.687 2.1-3.21 3.916-4.027 4.922-5.836 7.182-1.06 1.326-2.242 2.743-2.626 3.15l-.697.74h-3.94c-2.356 0-4.096-.084-4.33-.209-.384-.206-.39-.628-.379-26.926.005-14.695-.031-26.759-.082-26.81-.197-.196-.726.303-1.848 1.745-.965 1.239-3.897 4.871-5.249 6.5-.307.371-2.886 3.567-4.019 4.983-.272.339-3.334 4.127-6.805 8.417-3.47 4.29-6.533 8.08-6.805 8.423-.667.838-6.897 8.539-10.437 12.901-1.572 1.938-4.164 5.148-5.759 7.133s-3.08 3.66-3.3 3.723c-.538.154-16.182.153-16.584-.001-.478-.184-.393-.43.534-1.548 1.203-1.45 1.066-1.282 5.884-7.231 2.405-2.97 6.256-7.74 8.558-10.6s5.9-7.31 7.997-9.889c5.011-6.165 8.558-10.551 11.89-14.701 1.496-1.865 3.273-4.07 3.947-4.9.674-.831 2.474-3.052 4-4.937 10.379-12.82 10.434-12.888 13.56-16.792.872-1.09 1.642-2.026 1.71-2.081.069-.055.66-.775 1.314-1.6.655-.825 2.3-2.874 3.656-4.554l2.466-3.053 4.634.053 4.634.054zm113.653 3.1c.027 4.51-.024 8.313-.113 8.452-.127.199-4.157.262-19.248.3l-19.087.048-.8.432c-4.762 2.575-4.696 12.103.1 14.429.633.306 2.112.349 15.4.439 16.451.112 15.148-.008 17.2 1.582 10.832 8.395 10.1 41.157-1.058 47.341l-1.042.577-23.3.057c-12.815.031-23.502.006-23.75-.054l-.45-.111v-8.356c0-6.232.061-8.417.24-8.596.183-.183 4.913-.24 20.07-.24h19.83l.793-.574c3.232-2.341 3.645-8.983.758-12.194-1.645-1.829-.608-1.718-17.091-1.833-16.446-.114-14.935.048-17.388-1.858-6.238-4.844-9.292-20.756-6.514-33.941.563-2.671 1.939-6.532 2.944-8.259.307-.527.558-.995.558-1.04 0-.596 2.665-3.491 3.99-4.336l.891-.567 23.509.051 23.51.051zm18.652 21.2.1 29.4.589 1.2c1.976 4.029 4.552 4.898 14.511 4.895 9.624-.003 12.114-.844 14.228-4.81l.472-.885.1-29.6.1-29.6h6.8 6.8v34.6c0 38.833.127 35.53-1.497 38.8-1.852 3.728-5.175 6.579-9.286 7.968-1.409.476-30.179.775-33.654.35-6.042-.739-11.563-6.019-12.649-12.096-.154-.863-.334-58.879-.216-69.575.001-.084 3.04-.129 6.752-.1l6.75.053zm75.351 11.3c.048 38.088.03 40.716-.288 40.95-.437.322-12.681.362-13.276.043-.379-.203-.387-.687-.387-24.505v-24.298l-.55-.209c-.349-.133-2.674-.191-6.361-.159-3.196.027-5.919-.017-6.05-.098-.175-.108-.239-1.482-.239-5.121v-4.972l3.45-4.252c1.898-2.339 4.028-4.978 4.734-5.865.705-.888 1.336-1.659 1.401-1.714.12-.102 2.596-3.156 4.215-5.2.495-.625 1.228-1.533 1.628-2.018.401-.485 1.193-1.446 1.761-2.136l1.032-1.254 4.439.054 4.44.054.051 40.7m-93.796 62.35c.968.487 2.445 1.909 2.445 2.355 0 .09.121.306.268.479.255.301.798 1.743 1.337 3.551.137.459.195.977.128 1.15-.109.286-2.057 1.315-2.489 1.315-.101 0-.465.141-.811.313-.74.37-1.033.248-1.033-.431 0-1.255-1.601-3.282-2.591-3.282-3.084 0-4.177 12.957-1.346 15.95 1.541 1.629 3.583-.093 4.032-3.4.159-1.17.37-1.198 2.129-.292 2.568 1.324 2.666 1.471 2.076 3.142-.165.468-.3 1.032-.3 1.253 0 .652-1.505 3.586-2.231 4.352-1.648 1.737-4.887 2.208-7.183 1.045-6.477-3.281-6.84-23.094-.497-27.152 1.753-1.121 4.243-1.264 6.066-.348m-183.208.213c.254.161.483 1.367.861 4.537.119.99.301 2.205.405 2.7s.276 1.755.382 2.8c.231 2.268 1.174 5.198 1.212 3.762.004-.144.143-1.297.31-2.562.168-1.265.385-2.975.484-3.8.098-.825.319-2.31.489-3.3s.361-2.315.423-2.943c.139-1.392.177-1.405 3.887-1.317l2.5.06v13.6 13.6h-1.9-1.9l-.106-8c-.058-4.4-.127-8.045-.153-8.1-.162-.342-.418.701-.535 2.177-.075.948-.264 2.231-.421 2.852s-.285 1.521-.285 2-.13 1.591-.289 2.471-.395 2.365-.523 3.3-.291 2.06-.361 2.5l-.127.8h-1.9-1.9l-.128-1.434c-.071-.788-.186-1.526-.256-1.64-.122-.198-.5-2.916-.934-6.726-.112-.99-.334-2.258-.493-2.817s-.347-1.706-.418-2.55c-.291-3.435-.469-1.084-.519 6.817l-.052 8.35h-1.9-1.9l-.051-13.487c-.041-10.658.001-13.521.2-13.647.325-.207 5.574-.209 5.898-.003m27.009.005c.192.123.242.854.2 2.947l-.056 2.785-3.641.1c-4.281.118-4.094.014-4.018 2.219l.059 1.681 3.6.116c1.98.064 3.625.132 3.655.15.031.019.031 1.317 0 2.884l-.055 2.85-3.4.1c-1.87.055-3.512.173-3.65.262-.213.138-.401 4.819-.2 4.977.028.022 1.85.089 4.05.15l4 .111v2.9 2.9h-6.5-6.5l-.051-13.487c-.041-10.658.001-13.521.2-13.647.331-.21 11.975-.208 12.307.002m14.152.458c3.359 2.187 5.074 9.582 4.098 17.674-.878 7.277-2.897 9.144-9.79 9.054l-4.116-.054-.051-13.487c-.041-10.654.001-13.523.2-13.657.702-.472 8.819-.077 9.659.47m12.243-.46c.199.126.241 2.989.2 13.647l-.051 13.487-2 .058c-1.1.033-2.203.008-2.45-.053l-.45-.113v-13.481c0-12.672.021-13.487.35-13.573.614-.16 4.14-.138 4.401.028m13.756-.051c.419.112.509.412 1.199 3.985.148.77.365 1.85.482 2.4.116.55.34 1.63.496 2.4.709 3.489.919 4.496 1.229 5.887.183.819.408 1.944.501 2.5.229 1.371.567 3.044.809 4.013.11.44.321 1.475.469 2.3s.372 1.898.497 2.384c.126.485.182 1.003.126 1.15-.142.37-4.883.386-5.02.016-.051-.137-.18-.79-.285-1.45-.106-.66-.266-1.56-.355-2l-.161-.8-2.45-.056-2.449-.056-.212.556c-.116.306-.293 1.269-.393 2.141-.222 1.947-.191 1.927-2.89 1.865-2.586-.059-2.564-.033-2-2.427.801-3.399.907-3.88 1.088-4.923.104-.605.289-1.55.41-2.1s.348-1.63.504-2.4c.157-.77.471-2.3.698-3.4s.551-2.675.719-3.5.402-1.905.519-2.4.294-1.395.392-2 .26-1.325.36-1.6c.099-.275.237-.922.306-1.437.086-.643.231-.966.464-1.027.5-.132 4.472-.149 4.947-.021m28.561.137c.301.22.337.587.288 2.95l-.056 2.698-3.7.1c-4.452.12-4.2-.005-4.2 2.09 0 2.031-.228 1.909 3.566 1.913 4.23.004 3.855-.3 3.789 3.072l-.055 2.825-3.4.1c-4.203.124-3.9-.085-3.9 2.687 0 2.881-.296 2.692 4.315 2.758l3.785.055v2.9 2.9h-6.5-6.5l-.052-13.4c-.048-12.42-.027-13.418.288-13.65.491-.36 11.839-.359 12.332.002m9.271 1.148c.352.715.645 1.421.65 1.57.006.148.133.553.281.9.149.346.47 1.17.714 1.83s.525 1.352.623 1.537c.099.185.371.905.605 1.6s.59 1.626.792 2.07.429 1.055.505 1.359c.163.648.523.608.716-.081.074-.267.144-3.063.155-6.214.018-5.027.059-5.743.336-5.85.465-.178 3.742-.142 4.035.045.199.126.241 2.989.2 13.647l-.051 13.487h-2.3-2.3l-.914-2.4c-.503-1.32-1.02-2.653-1.15-2.963s-.236-.674-.236-.81-.078-.332-.173-.437c-.096-.104-.404-.865-.684-1.69-.281-.825-.652-1.77-.826-2.1-.173-.33-.315-.746-.316-.926 0-.179-.125-.428-.277-.554s-.333-.514-.402-.862c-.346-1.728-.52.182-.569 6.249l-.053 6.493h-2.2-2.2l-.051-13.535c-.049-12.767-.032-13.541.3-13.63.193-.053 1.206-.082 2.251-.065l1.9.03zm18.011-1.274c.449.12.45.129.45 4.473 0 5.206-.213 4.835 2.729 4.758l2.171-.057.1-4.6.1-4.6 1.8-.061c.99-.033 2.093-.006 2.45.059l.65.12v13.487 13.487l-.45.113c-.247.061-1.35.086-2.45.053l-2-.058-.053-5.384c-.063-6.368.123-5.916-2.433-5.916-2.819 0-2.602-.481-2.662 5.9l-.052 5.4h-2.4-2.4l-.052-13.4c-.048-12.42-.027-13.418.288-13.65.354-.26 3.374-.349 4.214-.124m23.663.081c.223.119.387.417.387.703 0 .273.128 1.012.284 1.643.292 1.178.512 2.23 1.017 4.847.159.825.476 2.355.703 3.4.228 1.045.493 2.414.589 3.043.096.628.235 1.24.308 1.359.074.119.267.955.428 1.857.528 2.945.817 4.426 1.041 5.341.37 1.51.662 3.051.768 4.05l.101.95h-2.38c-2.673 0-2.859-.081-2.859-1.249 0-.423-.146-1.35-.324-2.06l-.325-1.291h-2.351c-2.812 0-2.734-.06-3.024 2.326-.288 2.372-.188 2.297-2.956 2.23l-2.32-.056.07-.883c.039-.485.197-1.239.35-1.675.154-.436.28-1.102.28-1.48 0-.379.085-.847.188-1.04.174-.325.561-2.155 1.018-4.822.104-.605.317-1.595.473-2.2s.39-1.64.519-2.3c.13-.66.366-1.83.526-2.6.284-1.368.604-2.985 1.07-5.4.127-.66.361-1.617.519-2.127s.288-1.185.29-1.5c.004-.654.167-.964.597-1.127.532-.203 4.614-.153 5.013.061m12.329-.047c.133.085.385.511.559.947s.391.973.481 1.193c.091.22.364.94.608 1.6.708 1.919 1.029 2.759 1.3 3.4.14.33.454 1.14.698 1.8.245.66.571 1.515.725 1.9s.373.957.487 1.272c.172.476.256.53.503.325.251-.207.297-1.192.297-6.298v-6.052l.45-.121c.659-.177 3.608-.147 3.901.04.199.126.241 2.989.2 13.647l-.051 13.487-2.252.057-2.253.056-.202-.556c-.111-.307-.281-.737-.378-.957-.098-.22-.422-1.075-.721-1.9s-.72-1.95-.935-2.5c-.216-.55-.637-1.675-.936-2.5-.3-.825-.642-1.68-.76-1.9-.119-.22-.277-.686-.352-1.036s-.266-.744-.424-.875-.287-.402-.287-.602-.089-.418-.197-.485c-.128-.079-.216 2.223-.25 6.538l-.053 6.66h-2.3-2.3l-.052-13.4c-.048-12.42-.027-13.418.288-13.65.377-.277 3.797-.35 4.206-.09m44.726.092c.301.22.337.587.288 2.95l-.056 2.698-3.7.1c-4.452.12-4.2-.005-4.2 2.09 0 2.031-.228 1.909 3.566 1.913 4.23.004 3.855-.3 3.789 3.072l-.055 2.825-3.4.1c-4.203.124-3.9-.085-3.9 2.687 0 2.881-.296 2.692 4.315 2.758l3.785.055v2.9 2.9h-6.5-6.5l-.052-13.4c-.048-12.42-.027-13.418.288-13.65.491-.36 11.839-.359 12.332.002m9.482-.126c.361.097.451.265.455.847.002.4.093 1.087.201 1.527s.332 1.835.497 3.1c.166 1.265.385 2.75.487 3.3s.192 1.373.198 1.829c.015 1.01.764 3.524 1.006 3.375.096-.06.229-.715.296-1.456.068-.741.25-2.158.406-3.148.331-2.105.646-4.424.971-7.158.158-1.323.33-2.019.533-2.147.497-.313 5.709-.246 5.977.077.164.198.212 3.935.174 13.65l-.051 13.378h-1.9-1.9l-.108-8c-.059-4.4-.127-8.04-.15-8.09-.194-.416-.504.682-.64 2.266-.091 1.057-.258 2.35-.372 2.873-.113.523-.304 1.761-.422 2.751-.518 4.319-1.017 7.503-1.248 7.958-.158.309-.417.349-1.921.3l-1.739-.058-.245-1.6c-.134-.88-.342-2.365-.462-3.3-.119-.935-.347-2.355-.505-3.156-.158-.8-.29-1.88-.293-2.4-.002-.519-.182-1.613-.4-2.43-.217-.818-.396-1.898-.398-2.4-.001-.503-.069-1.139-.15-1.414s-.192 3.37-.247 8.1l-.1 8.6h-2-2l-.052-13.4c-.048-12.42-.027-13.418.288-13.65.357-.262 4.935-.359 5.814-.124m27.806.042c.192.123.242.854.2 2.947l-.056 2.785-3.641.1c-4.281.118-4.094.014-4.018 2.219l.059 1.681 3.6.116c1.98.064 3.625.132 3.655.15.031.019.031 1.317 0 2.884l-.055 2.85-3.4.1c-1.87.055-3.512.173-3.65.262-.213.138-.401 4.819-.2 4.977.028.022 1.85.089 4.05.15l4 .111v2.9 2.9h-6.5-6.5l-.051-13.487c-.041-10.658.001-13.521.2-13.647.331-.21 11.975-.208 12.307.002m7.986-.008c.133.085.385.511.559.947s.391.973.481 1.193c.091.22.364.94.608 1.6.708 1.919 1.029 2.759 1.3 3.4.14.33.454 1.14.698 1.8.245.66.571 1.515.725 1.9s.373.957.487 1.272c.172.476.256.53.503.325.251-.207.297-1.192.297-6.298v-6.052l.45-.121c.659-.177 3.608-.147 3.901.04.199.126.241 2.989.2 13.647l-.051 13.487-2.252.057-2.253.056-.202-.556c-.111-.307-.281-.737-.378-.957-.098-.22-.422-1.075-.721-1.9s-.72-1.95-.935-2.5c-.216-.55-.637-1.675-.936-2.5-.3-.825-.642-1.68-.76-1.9-.119-.22-.277-.686-.352-1.036s-.266-.744-.424-.875-.287-.402-.287-.602-.089-.418-.197-.485c-.128-.079-.216 2.223-.25 6.538l-.053 6.66h-2.3-2.3l-.052-13.4c-.048-12.42-.027-13.418.288-13.65.377-.277 3.797-.35 4.206-.09m27.414.008c.192.123.242.854.2 2.947l-.056 2.785-2.188.057c-3.02.079-2.712-1.169-2.712 10.974v10.482l-2.35-.057-2.35-.056-.052-10.55c-.028-5.802-.073-10.562-.1-10.576-.026-.015-1.083-.082-2.348-.15l-2.3-.124-.056-2.698c-.049-2.363-.013-2.73.288-2.95.397-.29 13.575-.368 14.024-.084m-239.908 5.988c-.198.133-.241 1.805-.2 7.657l.052 7.487.857.062c1.182.085 2.155-.541 2.703-1.74.616-1.348.765-8.945.211-10.81-.573-1.932-2.549-3.38-3.623-2.656m27.963 2.514c-.116.306-.211.753-.21.993 0 .24-.139 1.202-.31 2.137-.621 3.389-.685 3.886-.519 4.052.284.284 2.737.089 2.675-.212-.03-.144-.15-.954-.267-1.8-.117-.847-.341-2.031-.497-2.632-.155-.601-.284-1.411-.286-1.8-.005-1.05-.317-1.444-.586-.738m79.293.28c-.063.413-.244 1.425-.401 2.25-.464 2.432-.719 4.412-.595 4.613.15.242 2.433.245 2.582.003.144-.233-.231-2.794-.605-4.134-.157-.559-.285-1.29-.285-1.625 0-1.661-.492-2.444-.696-1.107" fill="#040404"/><path d="m58.503862 149.92865c-.093.15-.176 8.569-.115 11.656l.011.55h141.490998 141.491l.12-.65c.273-1.473.014-11.355-.302-11.554-.415-.263-282.533998-.264-282.695998-.002" fill="#fa0914"/></g><path d="m62.1745 19.570868c-3.781656 0-7.456858 3.630126-8.132081 8.12871v.242087l-.06894.07991v.242087l-.06894.161v.160999l-.06894.161v.240911l-.06894.160999v.242087l-.06894.240912-.06894.242087-.06894.481823-.137884.564086-.06894.562911-.137884.564085-.06894.642822-.137884.643999-.137883.725085-.137884.643998-.206825 1.367908-.137883.72391-.137884.643998-.06894.643997-.137884.643999-.136869.643997-.06894.643998-.06894.562911-.137883.482998-.06894.56291v.242087l-.06894.161v.401911l-.06894.242087v.320824l-.06894.160999v.160999c-.07198 1.96725.16323 4.653708.688403 5.151984.668127 4.334058 13.036067 24.393183 12.680206 27.447472-.33457 3.063691-1.792484 12.07379-1.792484 12.07379-.448121 3.039016-2.222357 5.473987-4.823893 5.473987-2.601535 0-4.375771-2.426751-3.928663-5.473987l2.343004-14.97178h-9.234134l-3.101389 20.76658c-.632642 4.217697 1.812761 7.565785 5.444367 7.565785h13.161784c3.6458 0 7.119246-3.348088 7.787373-7.565785 0 0 3.391323-19.397494 3.376116-20.766577-.01419-1.377309-.344709-1.528908-.344709-1.528908 0-1.577089-11.005328-22.794939-12.128672-23.583484-.483606-.332576-.882049-2.43262-.895229-3.701813-.02129-1.262142 1.446763-9.73988 1.446763-9.73988.448121-3.037838 2.911773-5.473983 5.512295-5.473983 2.601536 0 3.687368 2.434971 3.239247 5.473983l-1.998296 13.441691h9.304089l3.238233-20.203671c.731999-4.499759-1.731653-8.128711-5.512295-8.128711h-13.642348zm25.359397 0-11.026618 74.212521c-.632642 4.217697 1.812761 7.565781 5.444367 7.565781h13.161785c3.6458 0 7.181089-3.348084 7.856309-7.565781l11.78396-74.212521h-8.26996l-11.23344 72.119537c-.163229 1.045901-1.034126 1.931986-1.929354 1.931986h-6.546421c-.917533 0-1.52787-.877857-1.378835-1.931986l10.957678-72.119537zm31.701013 0-13.30067 81.778302h8.82048l6.06484-37.02515h11.23344c3.65289 0 7.11924-3.373938 7.78635-7.566975l4.82389-29.057467c.7249-4.507985-1.73165-8.12871-5.51229-8.12871zm31.49317 0-13.78327 81.778302h19.8471l1.37883-10.141766h-9.78566l3.99659-27.608469h9.78566l1.37884-8.531797h-9.78567l4.34232-25.354479h9.78566l1.37883-10.141791zm23.70581 0-13.23073 81.778302h8.82049l5.99589-37.02515h6.27066c.82426.895486.91956 2.550138 1.03311 3.379814.16323 1.203383.33457 2.740516.20682 3.943899-.11355 1.195157-4.82389 29.700267-4.82389 29.700267h8.82049s4.96177-31.054073 4.96177-31.552349c.0142-.506501.001-2.098869-.48259-2.977902-.32038-.564085-.87698-1.861483-1.51672-2.333905-1.2298-.92134-2.61877-1.528907-2.61877-1.528907h-.62047c2.52347-1.162251 7.28348-3.076618 7.78737-6.197892l4.82389-29.057467c.732-4.507985-1.73165-8.12871-5.51331-8.12871zm47.20682 0-13.30068 81.778302h10.13037l8.20001-47.409028 3.23925 47.409028h8.8215l13.30068-81.778302h-10.13038l-6.89113 42.740071-4.54812-42.740071zm35.00819 0-13.30068 81.778302h8.82049l13.29966-81.778302zm13.43756 0-13.29967 81.778302h10.19932l8.2-47.409028 3.23925 47.409028h8.82049l13.29966-81.778302h-10.19931l-6.82219 42.740071-4.54813-42.740071zm34.18191 0-1.65461 10.141791h5.51331l-10.88873 71.636511h10.06143l11.09556-71.636511h5.30649l1.37883-10.141791zm24.25734 0-13.78327 81.778302h19.8471l1.37782-10.141766h-9.78567l4.06554-27.608469h9.78566l1.37884-8.531797h-9.78567l4.27236-25.354479h9.78567l1.37782-10.141791zm22.39693 0-13.30068 81.778302h10.19932l8.20001-47.409028 3.23924 47.409028h8.8215l13.29967-81.778302h-10.19932l-6.82219 42.740071-4.54812-42.740071zm35.07714 0-13.30068 81.778302h20.12287c3.6529 0 7.18109-3.348084 7.85631-7.565781l10.68191-66.083811c.7249-4.507985-1.73165-8.12871-5.51331-8.12871zm37.83379 0c-3.78165 0-7.38791 3.630126-8.06314 8.12871l-9.8546 66.083811c-.63974 4.217697 1.7499 7.565781 5.37441 7.565781h14.54163c3.6458 0 7.18109-3.348084 7.85631-7.565781l10.68191-66.083811c.732-4.499759-1.73875-8.12871-5.51331-8.12871zm-30.32218 9.416706h4.06553c2.60154 0 4.37577 2.434969 3.92866 5.473981l-8.68361 53.527034c-.45522 3.039016-2.98072 5.553894-5.58225 5.553894h-3.99659zm35.49078 0h.27577c2.60154 0 4.30683 2.434969 3.85871 5.473981l-8.26996 53.527034c-.44813 3.029615-2.84284 5.553894-5.44437 5.553894-2.60154 0-3.68737-2.516051-3.23925-5.553894l8.20001-53.527034.0689-.240911.0689-.242087.069-.321999.0689-.240911.0689-.321999.0689-.242087.0689-.240912.13789-.240911.0689-.242087.13788-.240911.0689-.242087.13789-.240912.13788-.161.13788-.242086.13789-.240912.20682-.161.13788-.160999.13789-.160999.20682-.161.20683-.160999.13788-.161.20683-.160999.20682-.07991.20683-.160999.13788-.08109.27577-.07991.20682-.08109h.20683l.20682-.07991h.27577zm-301.29149.321999h4.27236c.93781 0 2.92698 2.509006 2.75665 3.6219l-3.65289 20.202496c-.17033 1.045909-1.37883 3.460902-2.27406 3.460902h-5.30648l-.0689-.07991h-.27577v-.08109h-.13789l-.0689-.07991h-.0689l-.0689-.08109-.0689-.07991h-.0689v-.08109l-.0689-.07991-.0689-.08109v-.07992l-.0689-.08109-.0689-.07991v-.161l-.0689-.07991v-.160981l-.0689-.08109v-.07992c0-.132796-.0142-.333751 0-.482999l4.13448-24.710481c.37918-.365481.8425-.643998 1.3109-.643998zm54.92422 0h4.27236c.93781 0 2.94118 2.509006 2.75666 3.6219l-3.65189 20.122584c-.16323 1.054135-2.40586 3.540814-3.30818 3.540814h-3.78977c-.78168 0-1.32104-.601692-1.37883-1.447821 0-.132795-.0142-.325525 0-.482999l4.06654-24.710481.0689-.07991.0689-.08109.13789-.07991h.0689l.0689-.08109.0689-.07991h.0689l.0689-.08109h.0689l.13788-.07991h.20682v-.08109z" fill="#e60012" stroke-width="1.091537" transform="matrix(.66890185 0 0 .56100371 -2.773438 .030438)"/></svg>