<svg height="159.98466mm" viewBox="0 0 993.64956 159.98467" width="993.64954mm" xmlns="http://www.w3.org/2000/svg"><g transform="translate(324.33938 -118.30175)"><path d="m-289.82139 118.30175c-7.21644 0-14.23121 5.9319-15.51984 13.28395v.13168.13169.13169l-.13149.13168v.26338.13168l-.13149.26338v.26337l-.13149.26337v.39506l-.13149.26338v.39506l-.13149.39407-.13149.39506-.13149.78914-.26308.92083-.13149.92082-.26308.92082-.13159 1.05222-.26298 1.05212-.26308 1.1837-.26308 1.05222-.39457 2.23592-.26308 1.18371-.26307 1.05221-.13149 1.05222-.26308 1.05222-.26308 1.05211-.13149 1.05222-.13159.92083-.26308.78913-.13159.92083v.39407l-.13149.26338v.39407.26338l-.13149.39506v.26337.26338l-.13149.26337v.13169.13168c-.13571 3.21483.31143 7.60373 1.31524 8.41753 1.27507 7.08082 24.87871 39.85793 24.20046 44.84974-.6375 5.00547-3.41965 19.72864-3.41965 19.72864-.85458 4.96478-4.24196 8.94369-9.20668 8.94369-4.96466 0-8.35143-3.96544-7.4969-8.94369l4.47183-24.46346h-17.62423l-5.9186 33.93321c-1.20725 6.89094 3.45884 12.36331 10.39041 12.36331h25.12114c6.95869 0 13.58716-5.47237 14.86224-12.36331 0 0 6.47183-31.69503 6.44469-33.93321-.0275-2.25175-.65765-2.499-.65765-2.499 0-2.57723-21.00503-37.24788-23.14825-38.53654-.92239-.54247-1.68268-3.97468-1.70982-6.05012-.0403-2.06188 2.762-15.91444 2.762-15.91444.85459-4.96469 5.55726-8.94359 10.52193-8.94359 4.96468 0 7.03621 3.9789 6.18166 8.94359l-3.81422 21.96456h17.75577l6.18163-33.01258c1.39718-7.35205-3.3055-13.28395-10.52194-13.28395zm48.40089 0-21.04385 121.26527c-1.20729 6.89095 3.45883 12.36332 10.3904 12.36332h25.12115c6.95868 0 13.70509-5.47237 14.99374-12.36332l22.49064-121.26527h-15.7829l-21.43844 117.84574c-.31201 1.70908-1.97355 3.15655-3.68269 3.15655h-12.49481c-1.74986 0-2.91535-1.43381-2.63048-3.15655l20.91236-117.84574zm60.50114 0-25.38415 133.62859h16.83509l11.57413-60.5011h21.43844c6.97228 0 13.58714-5.51315 14.86224-12.36331l9.20668-47.48023c1.38363-7.36561-3.30549-13.28395-10.52193-13.28395h-21.1754zm60.10656 0-26.30484 133.62859h37.87898l2.63048-16.57198h-18.67644l7.6284-45.11282h18.676444l2.63048-13.94159h-18.676434l8.28603-41.43012h18.676434l2.63048-16.57208zm45.244334 0-25.252644 133.62859h16.835094l11.4426-60.5011h11.96871c1.57349 1.46497 1.75582 4.1675 1.97285 5.52397.31202 1.96685.63878 4.47784.39457 6.44468-.21699 1.95339-9.2067 48.53245-9.2067 48.53245h16.83511s9.46973-50.7436 9.46973-51.55751c.0275-.82746.002-3.42847-.92062-4.86631-.61048-.92279-1.6727-3.04108-2.89353-3.8143-2.34674-1.50565-4.99793-2.4989-4.99793-2.4989h-1.18371c4.81547-1.89904 13.89913-5.02709 14.86224-10.12739l9.20669-47.48023c1.39718-7.36561-3.3055-13.28395-10.52194-13.28395zm90.09402 0-25.38413 133.62859h19.3340704l15.6513796-77.46775 6.18161 77.46775h16.83506l25.38419-133.62859h-19.33407l-13.15235 69.83936-8.68061-69.83936zm66.814276 0-25.384086 133.62859h16.83507l25.384176-133.62859zm25.64726 0-25.38418 133.62859h19.46555l15.65146-77.46775 6.18161 77.46775h16.83506l25.38418-133.62859h-19.46555l-13.02087 69.83936-8.68061-69.83936zm65.23602 0-3.15665 16.57208h10.52196l-20.78085 117.05651h19.20258l21.17542-117.05651h10.12729l2.63049-16.57208zm46.29652 0-26.30491 133.62859h37.87899l2.63049-16.57198h-18.67641l7.75988-45.11282h18.67642l2.63049-13.94159h-18.67642l8.15455-41.43012h18.67642l2.63049-16.57208zm42.74531 0-25.38419 133.62859h19.46565l15.65136-77.46775 6.18161 77.46775h16.83506l25.38419-133.62859h-19.46556l-13.02086 69.83936-8.68061-69.83936zm66.94578 0-25.38419 133.62859h38.40515c6.97222 0 13.70505-5.47237 14.99371-12.36332l20.38628-107.98132c1.3835-7.36561-3.30553-13.28395-10.52196-13.28395zm72.20686 0c-7.21643 0-14.09971 5.9319-15.38838 13.28395l-18.808 107.98132c-1.22085 6.89095 3.34101 12.36332 10.25888 12.36332h27.7517c6.95866 0 13.70505-5.47237 14.99371-12.36332l20.38628-107.98132c1.39715-7.35205-3.3191-13.28395-10.52197-13.28395zm-57.8707 15.38838h7.75998c4.96469 0 8.35139 3.9789 7.49681 8.94359l-16.57199 87.46365c-.86775 4.96469-5.68886 9.07518-10.65345 9.07518h-7.6284zm67.73502 0h.52576c4.96469 0 8.21981 3.9789 7.36532 8.94359l-15.78285 87.46365c-.85498 4.95113-5.42569 9.07518-10.39047 9.07518-4.96449 0-7.0362-4.11049-6.18161-9.07518l15.65145-87.46365.13169-.39408.13169-.39506.13168-.52576.13169-.39506.13169-.52577.13168-.39407.13169-.39506.26337-.39408.13169-.39506.26337-.39506.13169-.39408.26337-.39506.26338-.26337.26337-.39506.26337-.39408.39408-.26337.26337-.26338.26338-.26337.39506-.26337.39506-.26338.26337-.26337.39408-.26337.39506-.13169.39506-.26337.26337-.13169.52577-.13169.39407-.13168h.39506l.39506-.13169h.52577zm-575.02378.52576h8.15451c1.79056 0 5.58653 4.10096 5.26097 5.91863l-6.97079 33.01258c-.32558 1.70918-2.63114 5.65555-4.34029 5.65555h-9.86432-.13149-.13149l-.13149-.13169h-.13149-.13149-.13149-.13149v-.13168h-.13149-.13149l-.13149-.13169h-.13149l-.13149-.13169-.13149-.13168h-.13149v-.13169l-.13149-.13169-.13149-.13168v-.13169l-.13149-.13169-.13149-.13168v-.13169-.13169l-.13149-.13168v-.13169-.13169l-.13149-.13168v-.13169c-.00002-.21718-.0275-.54542 0-.78914l7.89144-40.37789c.71897-.59652 1.60369-1.05222 2.49896-1.05222zm104.824794 0h.13149.13149.13149.13149 7.6284c1.79054 0 5.61366 4.10096 5.26096 5.91863l-6.97077 32.88099c-.31192 1.72274-4.59046 5.78714-6.31316 5.78714h-7.23383c-1.49211 0-2.52196-.98391-2.63048-2.36751 0-.21718-.0275-.53166 0-.78914l7.75993-40.37789.13149-.13169.13149-.13169.26308-.13168h.13149l.13149-.13169.13149-.13169h.13149l.13149-.13168h.13158l.26308-.13169h.13149.13149.13149z" fill="#e4000f"/><g stroke-width="1.62367" transform="matrix(.2356877 0 0 .23553141 401.73159 174.46138)"><path d="m148 296s228-228 228-228h28v156s156-156 156-156h28v228h-40v-160s-160 160-160 160h-28v-160s-160 160-160 160zm984-228h-24s-64 64-64 64v24h48v140h40zm-328 0h-148c-25 0-44 31-44 56v24c0 25 19 56 44 56h84c20 0 24 14 24 24s-4 24-24 24h-128v44h148c25 0 44-31 44-56v-24c0-25-19-56-44-56h-84c-20 0-24-14-24-24s4-24 24-24h128zm64 155c0 25 15 33 30 33h52c15 0 30-8 30-33v-155h44v172c0 30-13 56-48 56h-104c-35 0-48-26-48-56v-172h44zm266 93v28h-994v-28zm-307 105c0 10-8 19-18 19h-19c-10 0-18-9-18-19v-39c0-10 8-19 18-19h19c10 0 18 9 18 19 0 0-.17 7.88 0 10h-22c0-10 0-13-4.5-13s-4.5 3-4.5 13v18c0 10 0 13 4.53 13 4.47 0 4.47-3 4.47-13h22zm-654-58s9.48 39 9.48 39 9.52-39 9.52-39h30v76h-22v-46s-13 46-13 46h-9s-13-46-13-46v46h-22v-76zm101 0v17h-21v12h18v17h-18v13h21v17h-45v-76zm6 76v-76h29c26 0 26 18 26 18v40s0 18-20 18zm86-76v76h-24v-76zm20 0h33s15 76 15 76h-24s-2-14-2-14h-11s-2 14-2 14h-24s15-76 15-76zm99 46v13h21v17h-45v-76h45v17h-21v12h18v17zm50-46s13 38 13 38v-38h22v76h-22s-15-41-15-41v41h-22v-76zm66 76h-24v-76h24v29h10v-29h24v76h-24v-30h-10zm54-76h33s15 76 15 76h-24s-2-14-2-14h-11s-2 14-2 14h-24s15-76 15-76zm74 35v41h-22v-76h24s13 38 13 38v-38h22v76h-22s-15-41-15-41zm128 11v13h21v17h-45v-76h45v17h-21v12h18v17zm55-46s10.53 39 10.53 39 10.47-39 10.47-39h29v76h-22v-46s-13 46-13 46h-9s-13-45-13-45v45h-22v-76zm102 0v17h-21v12h18v17h-18v13h21v17h-45v-76zm29 0s13 38 13 38v-38h22v76h-22s-15-41-15-41v41h-22v-76zm90 0v17h-13v59h-24v-59h-13v-17zm-820 29c.04-10.02-2-12-10-12v42c8 0 10-2 10-12zm86 16h7s-3.53-29-3.53-29-3.47 29-3.47 29zm269 0h7s-3.49-29-3.49-29-3.51 29-3.51 29z" fill="#fff" stroke="#fff" stroke-width="1.62367"/><path d="m140 330v-14h496.99999 497.00001v14 14h-497.00001-496.99999z" fill="#e4000f" stroke="#f00" stroke-width="2.61954"/></g></g></svg>