<svg height="229.18181" width="1000.4202" xmlns="http://www.w3.org/2000/svg"><g fill="#0090bf" transform="scale(7.9164701)"><path d="m41.6603.009h10.874l19.0868 17.94v-17.949h10.1223v28.95h-10.1223s-19.2577-16.944-19.2187-16.944v16.944h-10.7421zm0 0"/><path d="m83.2859 0h10.455v12.753c1.4062-1.123 16.0791-12.753 16.0791-12.753h12.587l-16.962 13.994 17.148 14.956h-12.476l-16.3761-14.043v14.043h-10.455zm0 0"/><path d="m11.46 8.037h28.5694v-8.018h-32.2266c-1.1279 0-7.749.942-7.749 9.146 0 8.076 5.918 9.199 7.749 9.199h21.1475c1.2891 0 1.4502 2.373 0 2.373h-28.9503v8.213h32.2804c1.2939 0 7.6952-.576 7.6952-9.273 0-8.911-7.8515-9.341-7.8515-9.341h-20.7178c-1.5625 0-1.5039-2.299.054-2.299"/><path d="m124.175 2.441h.307v-.674h.235c.161 0 .274.03.336.05.113.07.162.2.162.4v.137.06.02.01h.277v-.01c0-.02-.01-.05-.01-.09 0-.05 0-.09 0-.127v-.127c0-.08-.03-.171-.1-.273-.06-.08-.157-.137-.298-.161.113-.02.195-.05.254-.09.112-.07.165-.175.165-.332 0-.215-.09-.361-.263-.439-.102-.03-.26-.06-.47-.06h-.607zm.868-.918c-.06.03-.165.03-.287.03h-.274v-.62h.254c.166 0 .294.03.366.07.08.03.113.123.113.254 0 .132-.05.215-.172.264m.87-1.03c-.302-.303-.668-.459-1.108-.459-.425 0-.797.156-1.099.459-.303.302-.459.673-.459 1.103 0 .435.156.801.459 1.099.302.312.669.468 1.099.468.44 0 .806-.156 1.108-.468.313-.298.459-.669.459-1.099 0-.434-.146-.801-.459-1.103m-.151.146c.259.264.39.586.39.957s-.131.693-.39.952c-.264.274-.586.401-.957.401-.372 0-.689-.127-.948-.401-.254-.259-.39-.581-.39-.952s.136-.693.39-.957c.264-.264.576-.395.948-.395.371 0 .693.131.957.395"/></g></svg>