<svg height="152.04668" viewBox="0 0 797.55375 136.84201" width="886.17084" xmlns="http://www.w3.org/2000/svg"><g fill="#636365"><g transform="matrix(1.0021109 0 0 .99789352 -.359169 .020202)"><path d="m93.141643 20.396503h-53.602731q-8.629759 0-12.699076 3.227389-3.999157 3.22739-3.999157 10.243454 0 5.612851 3.437872 8.419277 3.437871 2.806426 10.243453 2.806426h28.695703q17.820803 0 25.327992 6.735421 7.577349 6.735422 7.577349 22.451406 0 15.926466-8.699919 23.433654-8.69992 7.43703-27.362651 7.43703h-57.7422085v-18.38209h54.3043375q9.261204 0 13.049879-2.666104 3.788675-2.736265 3.788675-8.980562 0-6.45478-3.508032-9.191045-3.437872-2.736265-11.857149-2.736265h-25.608634q-17.820803 0-26.0997592-7.086224-8.20879519-7.156386-8.20879519-22.521567 0-16.41759 8.62975899-23.9949393 8.6999194-7.5773494 27.5731324-7.5773494h56.75996z"/><path d="m107.73506 52.530077q0-26.590884 12.69907-39.570602 12.76924-12.97971929 38.79884-12.97971929 26.24008 0 38.79883 13.12004029 12.62892 13.12004 12.62892 40.48269 0 27.362651-12.62892 40.552852-12.55875 13.190202-38.79883 13.190202-26.52072 0-39.00932-13.260363-12.48859-13.260361-12.48859-41.5351zm51.49791-34.869839q-13.96197 0-20.90787 8.699919-6.87575 8.69992-6.87575 26.310241 0 19.083695 6.66526 27.994096 6.73543 8.840241 21.11836 8.840241 14.17245 0 20.97803-8.77008 6.87574-8.840241 6.87574-27.152169 0-18.382088-6.87574-27.152168-6.80558-8.77008-20.97803-8.77008z"/><path d="m267.98197 19.624736q-13.47085 0-19.4345 8.559598-5.89349 8.559598-5.89349 28.134417 0 16.978876 5.68301 23.924779 5.68301 6.945904 19.64498 6.945904h35.6416v17.961126h-36.69401q-12.13779 0-19.0837-2.03466-6.9459-2.10482-13.04988-7.016064-7.92815-6.314458-11.92731-16.417591-3.92899-10.173293-3.92899-24.275582 0-27.36265 11.85715-40.342369 11.85715-13.0498797 36.76417-13.0498797h36.06257v17.6103217z"/><path d="m367.82056 20.396503h-26.59088v25.959437h26.59088q10.80474 0 15.01438-2.946747 4.20963-2.946747 4.20963-10.103132 0-7.086225-4.13947-9.962811-4.06932-2.946747-15.08454-2.946747zm-48.27052-18.3820887h53.39225q18.66273 0 27.36265 7.5071888 8.69992 7.5071889 8.69992 23.5038149 0 11.857149-5.40237 19.364337-5.33221 7.507189-15.43535 9.682169l25.74896 43.078636h-24.4159l-22.73205-40.552853h-25.53847v40.552853h-21.67964z"/><path d="m467.51884 22.501322-15.08454 39.710923h30.73036zm-10.66442-20.4869077h23.01269l43.99072 103.1361457h-24.13526l-9.47168-24.556226h-44.83265l-9.19105 24.556226h-23.01269z"/><path d="m540.41575 20.11586h-33.32631v-17.9611244h89.24434v17.9611244h-33.46662v85.0347h-22.45141z"/><path d="m649.37522 19.975539q-11.78699 0-17.82081 5.893494-5.96365 5.893494-6.5951 18.031285l60.05751.07016v17.961125h-60.19783q.0702 13.470843 5.68301 19.364337 5.68302 5.893494 18.87322 5.893494h35.6416v17.961126h-36.69401q-12.13779 0-19.0837-2.03466-6.9459-2.10482-13.04988-7.016064-7.92815-6.314458-11.92731-16.417591-3.92899-10.173293-3.92899-24.275582 0-27.36265 11.85715-40.342369 11.85714-13.0498797 36.76417-13.0498797h36.06257v17.9611247z"/><path d="m791.16984 20.396503h-53.60273q-8.62976 0-12.69908 3.227389-3.99915 3.22739-3.99915 10.243454 0 5.612851 3.43787 8.419277 3.43787 2.806426 10.24345 2.806426h28.69571q17.8208 0 25.32799 6.735421 7.57735 6.735422 7.57735 22.451406 0 15.926466-8.69992 23.433654-8.69992 7.43703-27.36265 7.43703h-57.74221v-18.38209h54.30433q9.26121 0 13.04988-2.666104 3.78868-2.736265 3.78868-8.980562 0-6.45478-3.50803-9.191045-3.43787-2.736265-11.85715-2.736265h-25.60864q-17.8208 0-26.09976-7.086224-8.20879-7.156386-8.20879-22.521567 0-16.41759 8.62976-23.9949393 8.69992-7.5773494 27.57313-7.5773494h56.75996z"/></g><g transform="matrix(1.0018589 0 0 .99814453 -.359169 .020202)"><path d="m4.1276976 137.07613v-23.09587h23.6421224v3.93307h-18.2669264v5.1567h10.6629904v3.93307h-10.6629904v5.7248h18.4854304v4.34823z"/><path d="m43.283598 132.7279h6.948424q5.549999 0 7.866141-1.72618 2.316141-1.72618 2.316141-5.70295 0-3.53977-1.922834-5.35335-1.922835-1.83543-5.681102-1.83543h-9.52677zm-5.375196 4.34823v-23.09587h14.858266q6.358463 0 9.767124 2.97166 3.430511 2.97165 3.430511 8.43425 0 3.23386-1.332874 5.83405-1.332873 2.57835-3.758267 4.06417-1.507677.93957-3.758267 1.37658-2.22874.41516-5.724802.41516z"/><path d="m81.194025 113.98026v18.74764h15.317124v-18.74764h5.353341v17.63327q0 3.16831-1.17992 4.32638-1.179918 1.13622-4.544878 1.13622h-14.596061q-3.343109 0-4.544881-1.13622-1.179921-1.15807-1.179921-4.32638v-17.63327z"/><path d="m133.06686 118.10999h-14.48681v14.61791h14.48681v-4.96004l5.37519 1.11437v2.7313q0 3.16831-1.20177 4.32638-1.17992 1.13622-4.52303 1.13622h-13.7876q-3.36496 0-4.54488-1.13622-1.17992-1.15807-1.17992-4.32638v-12.17067q0-3.14646 1.17992-4.30453 1.17992-1.15807 4.54488-1.15807h13.7876q3.34311 0 4.52303 1.15807 1.20177 1.15807 1.20177 4.30453v2.18504l-5.37519.85217z"/><path d="m154.65503 127.85526h10.11673l-4.98188-9.39567zm-10.33523 9.22087 13.06653-23.09587h5.17855l13.24133 23.09587h-6.03071l-2.775-5.04744h-14.63976l-2.68759 5.04744z"/><path d="m190.94854 118.10999v18.96614h-5.3752v-18.96614h-10.59744v-4.12973h26.61378v4.12973z"/><path d="m208.16664 137.07613v-23.09587h5.37519v23.09587z"/><path d="m224.86034 119.44286q0-3.14646 1.17992-4.30453 1.17992-1.15807 4.54488-1.15807h16.9996q3.36496 0 4.54488 1.15807 1.17993 1.15807 1.17993 4.30453v12.17067q0 3.16831-1.17993 4.32638-1.17992 1.13622-4.54488 1.13622h-16.9996q-3.36496 0-4.54488-1.13622-1.17992-1.15807-1.17992-4.32638zm5.37519 13.28504h17.72067v-14.61791h-17.72067z"/><path d="m264.58436 137.07613v-23.09587h3.67087l16.25669 13.6128q.83031.67736 1.46398 1.28917.63366.58996 1.15807 1.22362-.13111-1.94468-.17481-2.75315-.0437-.80846-.0437-1.24547v-12.12697h4.82894v23.09587h-3.67087l-16.9559-14.26831q-.61181-.54626-1.07067-.98327-.45886-.437-.85216-.89586.10925 1.07067.15295 2.03208.0655.93957.0655 1.63878v12.47658z"/><path d="m309.4432 127.85526h10.11673l-4.98189-9.39567zm-10.33524 9.22087 13.06654-23.09587h5.17854l13.24133 23.09587h-6.0307l-2.775-5.04744h-14.63976l-2.6876 5.04744z"/><path d="m338.02351 137.07613v-23.09587h5.3752v18.74764h17.32736v4.34823z"/></g><g transform="matrix(1.0044595 0 0 .99556031 -.359169 .020202)"><path d="m412.92739 137.43196-13.38526-23.15583h6.15591l9.37625 16.73704 8.93811-16.73704h5.36724l-12.72804 23.15583z"/><path d="m435.66699 137.43196v-23.15583h5.38915v23.15583z"/><path d="m458.27515 133.07244h6.96646q5.56442 0 7.88657-1.73066 2.32216-1.73066 2.32216-5.71776 0-3.54896-1.92783-5.36725-1.92783-1.8402-5.69585-1.8402h-9.55151zm-5.38916 4.35952v-23.15583h14.89685q6.37498 0 9.79249 2.97937 3.43942 2.97937 3.43942 8.45615 0 3.24225-1.33634 5.8492-1.33633 2.58504-3.76802 4.07473-1.5116.942-3.76803 1.38015-2.23453.41623-5.73967.41623z"/><path d="m490.89486 137.43196v-23.15583h23.70351v3.94328h-18.31436v5.17008h10.69068v3.94328h-10.69068v5.73967h18.53343v4.35952z"/><path d="m524.28133 119.75291q0-3.15463 1.18298-4.31571 1.18299-1.16107 4.55668-1.16107h17.04375q3.3737 0 4.55668 1.16107 1.18299 1.16108 1.18299 4.31571v12.20227q0 3.17653-1.18299 4.33761-1.18298 1.13917-4.55668 1.13917h-17.04375q-3.37369 0-4.55668-1.13917-1.18298-1.16108-1.18298-4.33761zm5.38915 13.31953h17.76668v-14.65587h-17.76668z"/></g><g stroke-width=".999999" transform="matrix(.9989987 0 0 1.0010023 -.359169 .020202)"><path d="m624.86594 117.68563h-15.07732v4.94589h14.35832q3.37714 0 4.5537 1.15476 1.19834 1.15477 1.19834 4.29224v3.15927q0 3.13748-1.19834 4.29224-1.17656 1.15477-4.5537 1.15477h-14.22759q-3.37715 0-4.57549-1.15477-1.17655-1.15476-1.17655-4.29224v-.63185l4.728-.98046v2.7235h16.27566v-5.25092h-14.35831q-3.35536 0-4.53191-1.15476-1.17656-1.15477-1.17656-4.29225v-2.5492q0-3.13747 1.17656-4.29224 1.17655-1.15477 4.53191-1.15477h13.07282q3.24642 0 4.46655 1.11119 1.24191 1.11119 1.24191 3.94364v.47934l-4.728 1.11119z"/><path d="m647.43835 136.6848v-10.30574l-11.96164-12.72422h7.14648l7.90906 8.84595 7.93084-8.84595h6.29674l-11.91805 12.59349v10.43647z"/><path d="m690.94906 117.68563h-15.07733v4.94589h14.35832q3.37715 0 4.5537 1.15476 1.19834 1.15477 1.19834 4.29224v3.15927q0 3.13748-1.19834 4.29224-1.17655 1.15477-4.5537 1.15477h-14.22759q-3.37714 0-4.57549-1.15477-1.17655-1.15476-1.17655-4.29224v-.63185l4.728-.98046v2.7235h16.27567v-5.25092h-14.35832q-3.35536 0-4.53191-1.15476-1.17655-1.15477-1.17655-4.29225v-2.5492q0-3.13747 1.17655-4.29224 1.17655-1.15477 4.53191-1.15477h13.07282q3.24642 0 4.46655 1.11119 1.24192 1.11119 1.24192 3.94364v.47934l-4.728 1.11119z"/><path d="m717.8137 117.77278v18.91202h-5.35985v-18.91202h-10.5672v-4.11794h26.53783v4.11794z"/><path d="m734.98268 136.6848v-23.02996h23.57466v3.92185h-18.2148v5.14198h10.63256v3.92184h-10.63256v5.70847h18.43268v4.33582z"/><path d="m768.6234 136.6848v-23.02996h4.33582l10.85045 13.92256 10.61077-13.92256h4.29224v23.02996h-4.96767v-14.22759q0-.41397.0436-1.04582.0654-.63186.15251-1.41623-.43576.89331-.76258 1.48159-.32682.56649-.58828.93689l-8.64985 11.50408h-1.06761l-8.67164-11.54766q-.47934-.65364-.82794-1.22013-.32682-.58828-.5447-1.13298.0654.71901.0872 1.30728.0436.58828.0436 1.13298v14.22759z"/></g></g></svg>