<svg viewBox="0 0 282.731 50.071" xmlns="http://www.w3.org/2000/svg"><text fill="#c23334" font-family="ArialMT" font-size="1" transform="translate(251.129 34.972)">I don’t like bugs!</text><path d="m251.383 46.161h-219.381l3.232 3.877 212.61.033z" fill="#e9e439"/><path d="m256.491 40.037-114.837.022-114.754-.022 3.749 4.497 110.951-.024 111.144.024 3.749-4.497z" fill="#d17733"/><path d="m261.565 33.952h-239.744l3.717 4.458 116.113-.018 116.196.018z" fill="#c23435"/><g fill="#666"><g transform="translate(0 2)"><path d="m35.656 22.216s-3.329-5.555-3.347-5.538c-2.648-3.89-5.328-5.6-9.844-5.6h-10.581l-3.698-4.96h17.226l-2.967-5.584s-12.467-.2-18.434 0c-3.483.016-4.736 3.4-3.608 5.539-.045.043 5.226 7.213 5.226 7.213 2.31 2.528 3.931 3.235 9.317 3.379l10.279-.005 3.604 5.583h-16.763l5.611 6.73s14.461 0 14.513-.062c4.303-.012 4.42-5.12 3.469-6.695zm-9.331-21.682 16.16 28.377h6.538l-6.539-12.251s5.475.08 8.225-.101c4.763.1 6.506-1.283 5.114-5.447l-2.23-5.002c-2.09-4.171-2.994-5.275-9.278-5.577h-17.99zm10.636 5.583h9.35l2.197 4.962h-9.265zm47.192 22.795-1.997-6.615s-7.812-.123-11.75-.053c-.582-1.358-2.241-5.583-2.241-5.583h11.759l-1.534-5.527h-12.203l-2.255-5.018h12.627l-1.515-5.633-13.789.05c-3.421 0-5.415 3.495-4.772 5.62l7.047 16.174c2.205 4.204 4.294 5.94 8.317 6.438 4.505.549 12.306.147 12.306.147zm9.114-28.378s-5.446-.074-8.995.072c-3.447.06-5.776 2.629-5.224 5.552-.013-.042 4.653 16.085 4.639 16.015 1.461 3.57 4.441 6.738 8.573 6.687l7.338.05-1.243-6.667h-7.768l-4.743-16.127h8.506zm2.499 5.582h5.356l4.567 22.795h5.475l-3.707-22.795h4.181l-.709-5.551-16.247-.031zm36.862 10.544c2.542 0 5.521-2.95 5.48-5.307-.128-1.73-.117-3.581-.309-5.25-.55-3.583-4.354-5.506-7.21-5.57-5.842.127-17.593 0-17.593 0l3.698 28.378h6.111l-2.366-22.794h10.601l.057 4.962h-2.678c-3.802 0-4.138 2.819-2.484 5.53 2.86 4.434 8.97 12.36 8.97 12.36l7.518.004c.001 0-5.578-6.73-9.795-12.312z"/><path d="m142.494.009-1.23 28.91 6.238.057-.022-6.733h8.57l-.299 6.743 5.68-.01s2.127-10.873 2.086-17.835c.167-6.141-4.329-10.608-10.599-11.063-3.446-.114-10.424-.07-10.424-.07zm14.266 11.07.105 4.988-8.727-.052-.18-9.897c6.231-.002 8.609 1.354 8.802 4.96zm17.898 17.349c3.535-.826 5.752-3.564 8.135-8.59 6.026-12.7 9.053-19.304 9.053-19.304h-6.761l-9.415 19.889c-.854 1.41-2.348 1.94-3.914 1.82 1.206-7.605 3.891-21.71 3.891-21.71h-6.684s-4.477 26.984-4.477 28.44c0 .04 7.318.123 10.172-.544zm26.968-27.894-7.694.03-8.208 28.409 7.246-.04 8.656-28.4zm3.935.031-8.992 28.408h15.093c4.466 0 9.829-6.826 9.829-6.826l7.777-16.16c1.767-4.004-1.026-5.453-5.37-5.375-6.254-.08-18.339-.047-18.339-.047zm15.748 5.55-6.282 16.128s-5.905-.064-8.859 0l5.058-16.127h10.083zm22.878 16.128h-12.299l2.691-5.583h13.267l2.692-5.583h-13.084l2.622-4.962 14.046.012 2.841-5.594s-9.93-.206-15.655.175c-4.556.422-7.722 2.858-8.836 5.46l-7.502 16.12c-2.08 4.3.669 6.487 3.068 6.56 4.419.14 12.82.085 12.82.085zm22.8-21.569c-4.849.226-7.487 2.116-9.929 5.355-3.225 4.29-10.074 16.299-10.074 16.299-2.854 5.513 1.196 6.41 4.4 6.55.155.095 7.953.095 8.062.028 3.607-.078 4.365-.364 6.089-1.38.898-.53 2.818-2.603 5.066-5.304l11.685-16.078c1.606-2.2-1.432-5.61-4.486-5.517.001 0-10.642-.093-10.813.047zm-2.383 5.442h10.6l-11.41 16.127h-9.749z"/></g><path d="m271.392 23.823v.747h1.434v3.793h.829v-3.793h1.451v-.745zm5.251 0-.387 4.54h.777l.387-2.959 1.105 2.958h.605l1.071-2.924.387 2.924h.795l-.387-4.54h-.967l-1.192 3.271-1.209-3.271z"/></g></svg>