<svg height="120" width="400" xmlns="http://www.w3.org/2000/svg"><path d="m163.29998 37.018991-23.00826 34.022874 18.84719 17.378611 39.89733-29.861808z" fill="#fefefe" fill-rule="evenodd"/><g transform="matrix(.97292764 0 0 .97292764 3.418325 1.244185)"><circle cx="191.33121" cy="36.523861" fill="#fff" r="29.549988"/><g fill-rule="evenodd"><path d="m213.95448 36.523861a22.623291 22.623323 0 1 1 -45.24655 0 22.623291 22.623323 0 1 1 45.24655 0z" fill="#070707"/><path d="m209.37491 36.535875a18.043704 18.043704 0 0 1 -36.0874 0 18.043704 18.043704 0 1 1 36.0874 0z" fill="#fefefe"/></g></g><g fill-rule="evenodd"><path d="m161.10529 85.015903a17.623371 17.623371 0 1 1 -35.24674 0 17.623371 17.623371 0 1 1 35.24674 0z" fill="#fff"/><path d="m156.63935 85.015903a13.157435 13.557435 0 0 1 -26.31487 0 13.157435 13.557435 0 1 1 26.31487 0z" fill="#070707"/><path d="m48.258612 38.977203a17.623371 17.623371 0 1 1 -35.246741 0 17.623371 17.623371 0 1 1 35.246741 0z" fill="#fff"/><path d="m43.865761 38.977203a13.23052 12.83052 0 1 1 -26.461039 0 13.23052 12.83052 0 1 1 26.461039 0z" fill="#070707"/><rect fill="#fefefe" height="22.776436" rx="13.68118" transform="matrix(.92586714 .37784924 -.37784924 .92586714 0 0)" width="141.70076" x="33.120049" y="13.313908"/></g><path d="m250.74663 26.722788v6.824703q-2.40235-1.187844-4.6875-1.792565-2.28516-.60472-4.3164-.60472-2.69532 0-3.98439.820693-1.28905.820691-1.28905 2.548464 0 1.29583.85937 2.030133.8789.712706 3.16406 1.231038l3.20313.712707q4.86328 1.079857 6.91406 3.282767 2.05079 2.202911 2.05079 6.263176 0 5.334499-2.8711 7.947756-2.85156 2.591658-8.73047 2.591658-2.77343 0-5.56641-.583123-2.79297-.583123-5.58594-1.727773v-7.019077q2.79297 1.641385 5.39063 2.483674 2.61719.820692 5.03906.820692 2.46094 0 3.76953-.907081 1.3086-.907081 1.3086-2.591659 0-1.511801-.89844-2.332493-.8789-.820692-3.53516-1.468607l-2.91016-.712706q-4.37499-1.036664-6.40624-3.304366-2.01172-2.267701-2.01172-6.111995 0-4.816167 2.8125-7.407826 2.8125-2.591659 8.08593-2.591659 2.40235 0 4.94141.410346 2.53907.388748 5.25391 1.187843z" fill="#fff"/><path d="m258.46523 25.707722h26.87501v6.284773h-9.66797v25.959785h-7.51954v-25.959785h-9.6875z" fill="#fff"/><path d="m291.86743 25.707722h20.29297v6.284773h-12.77344v6.004011h12.01173v6.284773h-12.01173v7.386228h13.20313v6.284773h-20.72266z" fill="#fff"/><path d="m339.5665 52.077854h-11.75782l-1.85547 5.874426h-7.55859l10.80078-32.244558h8.96485l10.80079 32.244558h-7.5586zm-9.88281-5.982414h7.98828l-3.98438-12.828712z" fill="#fff"/><path d="m355.46868 25.707722h9.57033l6.64062 17.25613 6.67969-17.25613h9.55078v32.244558h-7.10938v-23.584097l-6.71875 17.385713h-4.76562l-6.71876-17.385713v23.584097h-7.12891z" fill="#fff"/></svg>