<svg enable-background="new -0.003 -0.001 566.931 154.093" height="154.093" viewBox="-.003 -.001 566.931 154.093" width="566.931" xmlns="http://www.w3.org/2000/svg" xmlns:xlink="http://www.w3.org/1999/xlink"><filter id="a" color-interpolation-filters="sRGB" height="1.37094" width="1.17739" x="-.088693" y="-.185468"><feGaussianBlur stdDeviation=".756603"/></filter><path d="m-2847.2025 1179.2075c-.6868-.4057-2.3567-1.8086-3.7099-3.12-2.9446-2.8535-3.8764-3.1689-5.5315-1.8707-1.0299.8071-1.1934 1.1901-1.1085 2.5864.054.9012-.058 1.6385-.2443 1.6385-.7351 0-2.9603-2.6788-3.9521-4.7586-2.0263-4.2484-2.3567-8.3066-.7799-9.5745.4409-.3561 1.612-.5058 3.4877-.4508 3.974.1159 6.0388 1.3081 10.6347 6.1383 3.8321 4.0274 4.4021 4.3283 6.6396 3.5042 1.4691-.5411 1.6078-1.6915.6942-5.7641-.8851-3.9451-1.7329-6.1598-2.6365-6.8863-.4877-.3932-.7448-.2442-1.4274.8246-.4574.7166-1.386 1.817-2.0632 2.4445l-1.2311 1.1413-4.2072-2.5194c-2.3141-1.3855-5.6597-3.0869-7.4348-3.7807-1.7746-.6934-3.3903-1.4195-3.5907-1.6133-.5266-.5104-.4897-1.7436.2071-6.861.8456-6.2322.8646-22.932.041-25.1814-.3229-.8723-.5925-1.7126-.5962-1.8674-.041-.4537 1.9225-2.129 7.1512-6.2008 4.5615-3.5518 9.7295-8.2229 11.3319-10.2431 1.0949-1.3789 2.2371-.7629 3.6297 1.9564 1.7779 3.4728 3.7782 6.0348 8.2672 10.5884 2.194 2.2262 3.9898 4.3698 3.9898 4.7626 0 .3933-.4889 1.025-1.0866 1.4046l-1.0871.6901.2773 8.3774c.1532 4.6074.4513 10.1616.6628 12.3427.6226 6.4247.5108 14.0094-.2401 16.4841-2.3223 7.6301-8.2371 14.783-13.3578 16.1528-1.1939.3188-1.6944.2567-2.7131-.3435zm3.426-40.2232c0-14.1278-.041-14.2955-.9489-16.1421-.9164-1.8028-3.3485-4.2804-4.2017-4.2804-.2277 0-.7194.6689-1.0895 1.4869-.5725 1.2635-.6972 3.5759-.8297 15.3664l-.1572 13.8794 1.0697 1.3851c1.3258 1.7172 3.3125 2.7942 4.9278 2.6729l1.2278-.095zm-226.8205 30.1204c-.4967-.3352-1.4948-1.4522-2.2184-2.4783-1.9261-2.7302-6.3452-6.9323-8.9288-8.4909-3.6188-2.1824-9.4565-3.8611-11.6083-3.3378-2.3485.5713-3.2249 2.6932-2.3431 5.6738.4624 1.5615-.2028 1.9373-1.7171.9737-3.4243-2.1767-7.2482-9.6537-7.2489-14.1734 0-3.9011.5265-4.8383 3.4408-6.1188 4.718-2.0727 8.3302-2.343 15.9591-1.1925 3.4252.5162 4.0541.3518 5.134-1.341 1.5392-2.4142 1.3045-2.7172-3.5609-4.5929-13.2328-5.102-21.6159-11.6066-23.5868-18.3021-.9074-3.0824-.8342-4.3388.4314-7.4058 2.6452-6.4103 7.7394-13.4568 22.123-30.6023l2.8278-3.3705 2.7078-.1201c2.2064-.095 3.4897.1366 6.9288 1.249 2.322.7509 5.0533 1.7158 6.0696 2.1443 5.9755 2.5202 11.4208 3.5505 13.3834 2.5331.4819-.2485 3.4538-4.3872 3.9347-5.0422 1.1993-1.6318 3.0626-2.0338 4.7118-.2152 2.9781 4.5229-3.6176 19.597-8.7267 26.5967-1.2754 1.6754-1.3052 2.5675-.1119 3.3759 8.053 5.4578 10.3686 7.1877 13.0031 9.7137 1.7117 1.6414 3.89 4.2547 4.8397 5.807 2.3633 3.862 2.8132 6.3842 2.1679 12.1578-.895 8.0081-2.8808 13.0552-6.2806 15.9629-9.6214 8.2279-22.7304 17.8083-27.6334 20.1948-2.435 1.1848-2.5223 1.1943-3.6975.3974zm18.8338-17.054c1.7022-1.2105 3.2015-2.4711 3.332-2.801.3104-.7873-.7791-2.7933-2.1465-3.9479-.5985-.505-2.1964-1.4456-3.5509-2.0901-2.3481-1.1169-4.2436-1.718-13.4435-4.2613l-4.0382-1.1165-1.5884 1.6501c-1.6223 1.6852-2.0359 3.2111-1.0776 3.9744.2816.2236 1.487.7149 2.6793 1.0912 3.1741 1.0022 10.7303 6.0166 13.3445 8.8555 1.3474 1.463 3.0182 1.1144 6.4893-1.3544zm11.1054-13.6994c.6383-3.868-1.0337-7.2659-5.8406-11.8695-3.9903-3.8218-8.8543-6.8491-12.1536-7.5648-2.6639-.5775-3.1498-.4016-4.4551 1.6004-1.472 2.2602-1.3702 3.2967.4057 4.1172.7956.3684 1.7858.6686 2.2006.6686 1.6546 0 9.5741 3.7149 12.5216 5.8737 1.5888 1.1633 2.4581 2.2785 4.0088 5.1423 1.0887 2.011 2.2192 3.6561 2.512 3.6561.3063 0 .6461-.6884.8006-1.624zm-30.6507-16.9208c1.2207-.8676 3.0687-3.4185 3.0687-4.2352 0-1.2324-2.5794-2.4705-6.6421-3.1888-3.948-.6971-6.0232-1.3698-9.8449-3.1895-3.9476-1.8803-9.6068-6.2282-10.6716-8.1986-1.0605-1.9626-2.0838-1.4961-2.4539 1.1185-.3478 2.4499.7086 4.2163 4.7312 7.9183 2.6709 2.4586 8.9784 6.5096 10.1355 6.5096.24 0 .7534.1698 1.1446.3767 2.2589 1.1996 7.6326 2.9362 9.7132 3.1395.2236.041.594-.091.8193-.2525zm11.1389-20.0201c1.1802-1.2439 2.5699-3.8892 2.5699-4.8922 0-.7907-.2691-.8532-4.6042-1.0812-5.3661-.2815-6.3886-.5622-13.9625-3.8243-6.7207-2.8944-8.9346-3.298-11.0715-2.0185-2.6055 1.5607-2.4921 3.9828.2608 5.6216 3.1035 1.8468 9.2707 3.6218 20.5173 5.9048 1.9928.4058 3.7269.8363 3.8532.9592.503.4868 1.6318.178 2.4353-.6694zm140.3048 65.3041c-.3353-.3229-2.1489-2.5028-4.0311-4.8409-6.4099-7.9606-7.2378-9.5692-5.647-10.9643.8371-.7339.8512-1.0279.8512-18.1593 0-11.2449-.149-17.6846-.4239-18.18-.2733-.4939-.8566-.7672-1.6369-.7672-2.4713 0-1.5437-1.5469 7.1703-11.954 1.5785-1.8856 3.4049-4.1827 4.0581-5.105l1.1881-1.6765.7103.9123c.9062 1.1641 1.2104 3.3701 1.2104 8.7719 0 4.7755.05 4.872 3.2741 6.8126 2.0491 1.232 2.8729 3.159 3.1552 7.3773.2815 4.2208.05 4.3897-3.2268 2.3517-3.3486-2.0826-3.2492-2.545-3.1138 14.4151l.1159 14.6473 1.1483.9566c.6313.5262 1.5983.9567 2.1481.9567.6188 0 1.0005.2276 1.0005.5982 0 .5253-1.5958 4.1413-5.1977 11.7752-1.1678 2.4763-1.8256 2.9714-2.7533 2.0723zm-98.6857-1.2601c-.6338-.818-1.2592-1.576-1.39-1.6852-.5428-.453-5.6486-7.047-6.4517-8.3323-1.7283-2.7649-1.8438-3.4848-.7133-4.4373l1.0163-.8565v-16.6831c0-10.3409-.1655-17.2483-.4285-18.1702-.3891-1.3516-.5546-1.487-1.8392-1.487-.7775 0-1.4129-.1117-1.4129-.2483 0-.8143 2.9711-4.9742 6.6322-9.286 2.3227-2.736 4.8541-5.9268 5.6249-7.0908l1.4021-2.1167.9455 1.0656c.8962 1.0097.9463 1.3743.9463 6.9227 0 6.5506-.087 6.3329 3.4281 8.3741 2.047 1.1881 2.9478 3.2144 3.3071 7.4381.3436 4.0461-.054 4.3582-3.1631 2.4854-3.5096-2.1145-3.3672-2.6949-3.3672 13.7557 0 11.3952.1159 14.4787.5659 15.2967.5104.924 1.186 1.3222 3.4226 2.0186.6719.2069.664.3559-.1241 2.4055-.4633 1.2005-1.5362 3.5704-2.384 5.2669-.8479 1.6964-1.8956 3.9313-2.3282 4.9667-.998 2.3902-2.0511 2.5037-3.683.3974zm244.9615-.8548c-2.9325-2.9595-4.7515-3.5796-7.0671-2.4098-.8561.4327-1.7279.7861-1.937.7861-.6123 0-2.0984-1.6777-2.7118-3.0612-.5523-1.2451-.4774-1.4484 3.0459-8.3277 1.9866-3.878 3.7203-7.4583 3.8528-7.956.3146-1.1769-.7175-1.8367-4.196-2.6845-3.8275-.9331-3.8685-1.0006-2.9971-4.975.7903-3.6044 1.0499-14.168.4057-16.4654-.4057-1.4411-.3684-1.4825 3.416-3.816 3.1805-1.9605 8.1928-6.7318 8.9615-8.5305.7195-1.6832 1.3346-1.6244 2.8883.2731.8962 1.0975 1.965 1.8132 3.5824 2.3998 2.7934 1.0126 4.27.9194 4.8243-.3064.6438-1.4223 1.5077-.88 2.9744 1.865 1.0494 1.9647 1.2969 2.8199 1.0879 3.7637-.2029.9212-4.5818 10.1898-5.7728 12.2202-.095.1615.4372.6504 1.1794 1.0892 1.0242.6048 2.0666.7981 4.3172.799h2.9665l-.041 1.2887c-.041.7087-.2815 1.6352-.6139 2.0586-.4566.5853-.6011 2.0057-.6011 5.9218 0 2.8332-.207 6.736-.4657 8.6725-.3478 2.6333-.3478 3.635 0 3.9728 1.391 1.3479-.2608 3.6971-4.8239 6.8636-1.9022 1.3197-4.4179 3.6022-6.1342 5.5661-1.6003 1.831-3.1208 3.3287-3.3783 3.3287-.2567 0-1.513-1.054-2.7897-2.3422zm5.5521-12.9394c.4559-1.0559.5767-2.7333.491-6.798-.095-4.6335-.2153-5.4581-.83-5.8336-.5025-.3064-.9182-.3146-1.3947-.041-.6325.3849-3.0178 4.4289-3.5484 6.0148-.1283.385-.8884 1.8641-1.6857 3.2819-.7973 1.4175-1.4505 2.9711-1.4517 3.4526 0 .8093.2193.8849 2.9652 1.0116 1.6318.075 3.3904.1698 3.9086.2153.7257.062 1.0804-.2442 1.5457-1.323zm-2.6013-21.3013c1.1119-.8399 4.8198-7.5354 4.8198-8.7036 0-.9757-.3147-1.241-2.716-2.2967-2.7844-1.2232-3.6441-1.4174-3.9683-.8961-.099.1614-.3146 2.7184-.4785 5.6779-.2609 4.7535-.2153 5.4581.3932 6.0475.8234.7977 1.0883.8209 1.9485.1698zm-190.5361 33.9943c-1.2506-.9868-2.4187-2.0404-2.5951-2.3405-.178-.3022-1.2953-1.5582-2.4858-2.7947-2.7467-2.8526-2.95-3.8208-2.9532-14.0421-.0009-4.2779-.1947-8.4407-.4244-9.2504-.2773-.9769-1.037-1.9609-2.2482-2.923-1.8194-1.4447-2.4755-3.1896-1.3148-3.498.2815-.075 1.5238-.3602 2.7624-.6342 4.4257-.9798 4.6493-1.8756.7559-3.034-1.8186-.541-2.6088-1.005-3.029-1.7808-.5191-.9583-.4636-1.2523.6417-3.3709 3.1975-6.1354 12.5419-16.0026 15.1539-16.0026 1.5446 0 5.5207 2.7098 8.7807 5.9834 2.9979 3.0108 7.0216 5.8207 8.8485 6.1785 1.5266.298 3.0024 2.9226 2.5988 4.6202-.1656.6938-.4297 7.061-.5887 14.1492-.1572 7.0888-.4326 13.29-.6085 13.7805-.2774.7708-.1821.8921.7075.8921 2.483 0 1.5672 2.4043-3.3242 8.7243-3.6623 4.7329-5.5082 6.5622-6.202 6.1466-.2607-.1573-1.1114-1.2473-1.8873-2.423-.8151-1.2341-1.7083-2.1352-2.1149-2.1331-.385 0-2.2486 1.2514-4.1371 2.776-1.8885 1.5242-3.5754 2.7715-3.7476 2.7715-.1739 0-1.3376-.8076-2.5886-1.795zm9.7278-10.6335 1.2696-1.5229.1201-12.5187c.066-6.885-.041-12.6673-.2236-12.8494-.4715-.4571-5.5724 1.5068-6.5038 2.5036-.6826.7294-.7725 1.7167-.8962 9.7857-.1781 11.4332-.041 12.5865 1.8487 14.7136 1.7743 2.0093 2.6362 1.9869 4.3852-.1119zm-4.8135-31.3656c2.2577-1.037 3.8324-1.9973 3.8324-2.3385-1.5491-3.1647-8.0189-6.0215-10.6286-4.2378-1.5598 1.076-1.8843 2.3158-1.2261 4.6837.6304 2.2714 1.8339 3.6515 3.1829 3.6515.5535 0 2.7314-.7914 4.8394-1.7589zm63.165 42.8097c-.7857-.5419-2.9747-2.6104-4.8653-4.5963-2.7168-2.855-3.5055-3.957-3.7666-5.2611-.1822-.9073-.3396-5.2184-.3478-9.5807-.041-4.3619-.2111-8.598-.445-9.4131-.2608-.9087-1.2207-2.2416-2.4817-3.4442-1.7966-1.7138-1.9995-2.0662-1.6049-2.781.2483-.4504.832-.8188 1.2957-.8188.464 0 1.8388-.2815 3.055-.6231 3.142-.8851 3.0427-1.826-.2939-2.7951-1.6174-.4693-2.7281-1.0543-3.13-1.6488-.5717-.8453-.5423-1.0887.3602-2.9722 1.9556-4.0888 9.1229-12.6545 12.7439-15.2306 1.6376-1.1644 2.2072-1.3652 3.2835-1.1566 1.9336.3767 4.1624 1.9754 8.3704 6.0116 3.4677 3.3262 7.6575 6.1217 9.1751 6.1217.9016 0 2.5566 3.3862 2.1745 4.4501-.178.4968-.4566 6.7029-.6189 13.7912-.1614 7.0888-.4255 13.364-.5857 13.9461-.2484.9077-.1532 1.0763.6698 1.1897 1.7925.2483 1.4795 1.9679-1.0172 5.598-2.8563 4.1533-7.5569 9.4955-8.1811 9.2985-.2608-.083-1.1778-1.1199-2.0317-2.303-.8541-1.1834-1.8199-2.2088-2.146-2.2788-.6835-.149-2.0781.7613-5.4039 3.52-1.2961 1.0746-2.4502 1.9559-2.5658 1.9576-.1159 0-.8519-.4397-1.638-.9811zm8.071-10.6149c2.1176-2.2437 2.1655-2.5889 2.1655-15.5215 0-6.6504-.1532-12.1859-.3519-12.301-.4057-.2443-5.237 1.5221-6.2946 2.2987-1.0665.7829-1.7007 7.4626-1.398 14.7182.298 7.1901.6267 8.6232 2.3624 10.3586 1.5698 1.5693 2.3613 1.6703 3.5151.447zm-7.3432-30.7939c.3891-.1987 2.0396-.9451 3.664-1.6621 1.624-.7165 3.0372-1.5164 3.1403-1.7767-1.0478-3.6483-8.4221-6.2166-10.7689-4.2969-1.4083 1.1487-1.6152 2.5445-.7289 4.9216.9678 2.5959 1.4707 3.1721 2.764 3.1721.6706 0 1.5387-.1614 1.9295-.3602zm-102.5 41.1045c-1.121-1.1889-8.7144-12.2268-8.7144-12.6669 0-.1904.3933-1.4551.8743-2.8112.8052-2.2714.8901-3.5158 1.0776-15.7799l.2028-13.3135-1.0772-.8213c-.5923-.4516-1.077-1.0374-1.077-1.3019 0-.4491 3.4499-5.449 7.0365-10.1976.89-1.1786 1.7887-1.9846 2.0876-1.8732.2898.1076.8864 1.1069 1.3276 2.2214.9629 2.4328 3.4624 5.3276 4.3234 5.0077.8313-.3105 2.7943-3.1366 3.4384-4.9523.294-.8291.7477-1.5081 1.0072-1.5081.5055 0 7.342 12.306 7.3653 13.2577.041.3104-1.0395 1.8996-2.3265 3.5282-3.6234 4.5842-3.9049 4.7605-4.7047 2.9432-.2608-.5998-1.3905-2.3061-2.5032-3.7915-1.4448-1.9273-2.1502-2.5781-2.4644-2.2739-.298.2898-.445 5.5981-.455 16.5801l-.041 16.1537 1.1257 1.5793c1.5631 2.1936 1.4476 3.0261-.6525 4.6935-1.3321 1.0578-2.0048 2.0144-2.6821 3.8152-1.0039 2.6675-1.7663 3.028-3.1954 1.5113zm181.1685-2.2263c-1.6882-1.6654-4.7002-4.4555-6.693-6.2007l-3.6239-3.1723.063-15.069c.041-8.288.2318-15.7833.4355-16.6555.3146-1.3251.2484-1.7076-.3809-2.324-.6354-.621-.6904-.9679-.3435-2.1816 1.28-4.4977 6.5025-12.0191 7.8375-11.2871.8677.4756 4.1442 3.0377 5.6768 4.4385 1.8602 1.7006 1.9423 2.7582.4056 5.2077l-1.1206 1.7841-.1159 15.7576c-.087 11.0297.041 16.0051.3353 16.583.5485.9927 3.9492 3.1515 4.9647 3.1515.3974 0 .9149-.3436 1.1479-.7671.2733-.4959.4198-6.9024.414-18.1424l-.041-17.3757-1.2167-1.1566c-1.9522-1.8566-1.6662-2.7574 2.0256-6.3775 1.7792-1.7453 3.4255-3.1726 3.6573-3.1726.4173 0 5.0321 5.3785 7.7246 9.0033 1.0701 1.4401 1.2957 2.0271.9922 2.5772-.7699 1.3951-1.2927 9.5345-1.2927 20.1291 0 9.8424.066 10.8797.7902 12.2549.7803 1.4825.7803 1.5259 0 3.2782-1.032 2.3332-3.8333 6.9381-5.8687 9.6471l-1.6261 2.1646-1.3516-2.7595c-.7439-1.518-1.7242-3.0058-2.1791-3.3068-.7497-.4951-.9522-.4181-2.153.8173-.7291.75-1.8782 2.4588-2.5534 3.7972-.9091 1.8016-1.4402 2.4267-2.0462 2.4089-.4583-.041-2.1708-1.3579-3.8884-3.0518z" fill="#a40000" fill-rule="evenodd" transform="matrix(1.3923927 0 0 1.3923927 4398.4306 -1491.80289)"/><g transform="matrix(.90626 0 0 .90626 1125.9226 -410.49041)"><g transform="matrix(1.62811 0 0 1.62811 -1394.9758 577.91639)"><path d="m-1218.76 674.127-27.3008.60157c-4.8012 6.61837-34.1946 2.38157-20.5156 53.9785 2.6044 9.82391-4.9572 8.86237-6.5 17.4648-.2665 1.48573-4.3295 2.60654-6.9453.14453-.9874 2.8531-.9557 6.78562 2.0547 9.13476l5.8398-4.95312c4.9664.52923-.5234 6.93164-.5234 6.93164l78.7734.375c2.0599-31.8513-16.232-53.9627-24.8828-83.6777z" fill="#c00" transform="matrix(.629957 0 0 .629957 906.64 -453.228)"/><path d="m118.289-18.8752c-2.20946.743914-7.77056 2.96406-8.93475 4.8404-1.63393 7.54507 2.53176 15.5894 1.88081 23.616-.26759 1.90548-1.61202 3.35028-2.81159 4.74805 1.08405-.54479 2.35003-1.72715 3.46673-2.56606 1.43742-1.09635 2.0703-3.04556 1.47017-4.76612-.27725-1.82425 1.32125-3.20875 2.42597-4.43467 2.74122-2.61081 5.85022-4.8721 9.24712-6.553-2.32398-4.40002-3.24906-9.41414-5.68823-13.7636-.28049-.424888-.55739-.925888-1.05623-1.12098zm-11.1257 32.3591c-.92197 2.34474-2.76175 4.46056-5.23102 5.29179-1.58046.278705.0845 2.89524 1.28914 1.60786 2.53949-1.24231 3.69808-4.2832 3.94188-6.89965z" opacity=".2"/><path d="m139.062-28.5562-17.1973.3789c-3.02453 4.16929-20.791 1.18754-12.1738 33.6914 1.64067 6.18864-3.78002 6.45776-4.75195 11.002-.10094.471958 1.28752-1.7159 1.39453-2.3125 1.65943-3.38795 5.84438-1.90706 4.20371-8.0957-8.61716-32.5039 9.01004-30.1159 12.0346-34.2852l16.4941-.36328c-.002-.0052-.002-.01043-.004-.01562z" fill="#fff" opacity=".4"/></g><g transform="matrix(1.57836 0 0 1.57836 -1287.0358 100.04139)"><path d="m16.0938-96.9297c-.370027-.0126-.911539.110254-.996094.470704l-8.20898 33.4453c-.054192.230253 2.09843 2.40462 3.00977 3.31836h5.21289l.748808-3.15335-.417033-1.75707.956759-.9315.788403-3.57444-1.25621-1.30002 1.50127-.654872 5.18972-24.7069c.112872-.476928-.238694-.936595-.728516-.953124z" fill="#2d3c50" transform="matrix(1.03152 0 0 1.03152 78.9655 389.26)"/><path d="m16.8809-96.1543-8.31445 35.0918 1.33398 1.36719h3.59375l.907722-3.8013-.459219-1.41809.972473-1.11472.659561-2.94005-1.32173-1.84072 1.8861-1.01156 5.298413-23.24075z" fill="#618599" transform="matrix(1.03152 0 0 1.03152 78.9655 389.26)"/><path d="m101.74 272.355c-2.08654-.00045-3.79537 1.70837-3.79492 3.79492.000509 1.14321.603854 2.13296 1.46875 2.8457l-2.53531 8.04875c-2.55035-.38628-4.79154-.75846-7.30462-1.12697-.324591-.0481-.645056.10979-.804687.39648l-2.55284 4.85572c-.282865.5105.06749 1.14073.650391 1.16993l8.00983.42967c-.399954 2.06177-1.97838 15.1252-.953261 17.1102 1.88308-.80574 6.05786-14.8572 6.698937-16.2426l1.05668.40784.23686.0914 6.41217 2.24642c.56583.20796 1.14631-.27002 1.05078-.86524l-.49212-5.22085c-.0488-.30223-.26807-.54893-.5625-.63281 0 0-4.04252-1.31194-6.66797-1.88287l1.44518-8.15227c1.42908-.56221 2.43089-1.90587 2.4336-3.47657v-.002c.00045-2.08655-1.70838-3.79537-3.79493-3.79492z" fill="#2d3c50"/><path d="m101.74 273.145c-1.66024-.00036-3.00623 1.34562-3.00586 3.00586.000484 1.08897.590036 2.09248 1.54101 2.62305l-2.21289 9.4746c-2.78841-.44065-5.51167-.75794-8.28125-1.16406l-2.16448 3.88871 8.51214.72262c-1.04795 4.89757-2.34159 18.3527-2.10253 17.6992.0636.67326 5.68719-15.4784 6.07783-17.1795l8.23916 2.91054-.75084-4.64002s-5.00948-1.52774-7.39526-1.96543l2.954-9.94936c1.35915-.31621 1.59243-1.02496 1.59483-2.42041.00036-1.66024-1.34562-3.00622-3.00586-3.00586z" fill="#425b68"/></g><path d="m-1136.9158 561.24939-12.7127 52.56 1.8484 1.97058c1.5955-7.05274 8.3439-29.0486 8.3439-29.0486 1.1234-17.1041 2.5204-25.482 2.5204-25.482z" fill="#fff" fill-rule="evenodd"/><path d="m-1130.1158 547.87539c-.6838.0116-1.1242.16734-1.1684.41309-.075.3981.8957.91058 2.1672 1.1437 1.2708.23349 2.3604.0995 2.4323-.29904.075-.39809-.8957-.91058-2.1672-1.14369-.4406-.081-.8794-.12061-1.2639-.11412zm-.8355 3.07041c-.6837.0116-1.1241.16734-1.1683.41309-.07.39783.8996.90813 2.1672 1.14062 1.269.23263 2.3564.0988 2.4291-.29903.07-.39783-.8996-.90812-2.1671-1.14061-.4394-.0808-.877-.12037-1.2609-.11411zm-13.934 1.84966-.3946 1.18377 28.312 4.7351c-3.8705-1.568-7.8405-2.57462-11.8501-3.35403.3934-.0627.63-.19308.6659-.36686.076-.39776-.8932-.91014-2.1641-1.14368-.4406-.081-.8794-.12061-1.264-.11412-.6837.0116-1.1241.16734-1.1683.41309-.031.18456.1646.40295.5456.61039-4.2196-.70018-8.4653-1.24929-12.6824-1.96371z" fill="#fff" opacity=".4"/><path d="m-1123.1758 523.20139c-4.4305.1616-9.1185 1.18158-9.1185 1.18158l-18.9639-.51345c-3.2262 11.7514 1.6794 17.5761 5.453 27.4069.3613-.43507 9.1322-8.99916 12.1589-12.1843 0 0 1.7444 5.36896 2.5193 5.95019 1.2593.64578 5.3334 2.3911 8.6966-.94082l.628-1.17877 9.3993-3.19937c1.3274-7.64011-4.1426-15.4831-4.1426-15.4831-1.4065-.92375-3.9716-1.13582-6.6301-1.03888z" fill="#2d3c50"/><path d="m-1174.8758 525.42939c-1.8522.0329-3.843.59781-6.1118.59781-4.3658 0-8.4199 2.32428-11.772 6.28033-5.1767-.4115-9.8283-2.28324-13.5366-.69624-19.1988 6.37751-24.6261 19.4346-25.8084 26.9982 7.0287-.47912 10.6287-1.2785 19.341-2.53711l10.7606-5.75043c2.8297 13.0177-1.5245 33.5575-3.5589 42.7727-1.2016 2.6346-2.2153 4.24682-1.7267 5.2691 1.8528 2.15674 4.5397 1.25842 8.1279 1.32602-.8368 2.84999-1.4023 6.18084-1.0558 8.87512-4.9278 1.32215-9.4518 4.89877-10.3983 9.30615h63.0544c-5.4264-5.27603-13.6634-9.19543-20.4118-9.92623 2.3535-3.06141 3.449-6.05938 4.1688-9.48566 5.3211-.76188 11.5089-1.56269 12.5486-3.36741-.3793-13.3043-3.5757-33.3404-4.8446-41.915-.078-.52889-.739-5.22055-.819-5.66089l1.2163 3.97653 10.1766-4.57484c1.9381 1.00524-1.356-17.9671-3.8969-17.8973-2.7175.75323-12.3187 1.66148-14.9152 2.37788-1.4888.41076-3.8681-3.77857-5.2595-3.38024-1.7131-2.1224-3.4265-2.62139-5.2787-2.58844zm-1.8157 74.1046v.003c-.6474 2.81802-.6703 5.54122-.067 7.62859-4.455-.29154-8.6541.54035-12.7769.35933-.095-.003-.1853-.006-.2798-.01 1.1588-2.47759 1.8902-5.18562 2.1051-7.73672 3.5647-.0169 7.3166-.0901 11.0184-.24486z"/><path d="m-1178.1858 482.62639c-5.242-.0211-12.4828 1.03073-18.4286 2.73747-2.9723.8532-5.6107 1.85669-7.5682 3.0735-.9766.60713-1.8088 1.26971-2.4045 2.09933-.5374.7485-.7922 1.70112-.6844 2.66659 1.489 12.716 3.181 25.5119 4.7988 38.2476.067.52283.403.976.8847 1.18994 6.1343 2.71882 12.0668 4.15371 17.1401 4.58403 5.0707.43011 9.2743-.0857 12.1213-1.58144.6073-.31827.9264-1.01236.7707-1.68009l-.01-.0462 2.7005.74294c.1153.0315.2386.0124.3391-.0524l7.8518-5.07729c.3694-.21001.548-.58374.6288-.94331.081-.35958.071-.72907-.032-1.06047-.1488-.48522-.9576-3.60134-1.9853-7.68835-1.0278-4.08748-2.3197-9.28472-3.5852-14.3933-2.5311-10.2172-4.954-20.0903-4.954-20.0903-.013-.0467-.026-.0949-.043-.14174-.2388-.67751-.6971-1.16494-1.2361-1.49204-.5402-.3278-1.159-.51557-1.7788-.66588-1.2567-.3048-2.779-.42146-4.5254-.4285zm4.917 21.6501.5117 2.51244-2.5093 1.49822c-.5565.33202-.8387.98548-.6998 1.61844l-.01-.0246 2.5679 16.1104-3.6191-15.5894c-.1683-.72288-.8445-1.219-1.5846-1.1622l-6.819.52099-.7152-3.03651c3.4243.16602 6.5134-.18457 8.9338-.87549 1.6932-.48334 2.9132-1.03285 3.9397-1.57221z" fill="#2c3e46"/><path d="m-1194.8958 501.30139 5.7674 33.4965 8.5591.50005c3.0089-1.82431 6.1541-2.33736 9.5447-2.9244l2.5355-1.06423-1.8872-35.3209z" fill-rule="evenodd"/><path d="m-1178.1858 484.13339c-10.0592-.0405-28.7524 4.15497-27.6152 9.0972l4.8313 38.0294c11.9683 5.30457 23.133 5.57601 27.9506 3.04503l-5.1537-23.1787-8.4187.23847-3.4279-6.18205c8.233 1.00568 18.3288-3.32705 19.8799-4.54335l-.1117.71059.1932 5.98477-4.4301 2.24689 5.4361 23.3111c1.2765-1.05332 7.5407-4.92267 7.5407-4.92267-.8462-2.75835-10.5492-42.2552-10.5492-42.2552-.3804-1.08361-2.7723-1.56792-6.1254-1.58146z" fill="#425b68"/><path d="m-1170.2158 501.31839-1.131.7055-.113 4.65408-4.3204 2.04116 4.577 23.6563 2.2251.49324-4.4963-23.1626 3.5916-2.24388zm-9.0053 8.17811-7.5678 1.01751.3407 1.53842 8.243-.87531z" fill="#70979f"/><path d="m-1171.6758 484.84339c.3426 1.69254-6.8757 5.59842-15.7526 7.23113-8.8768 1.63272-18.2507 1.39076-18.5932-.30169-.3426-1.69252 7.6845-5.05812 16.5613-6.69082 8.8769-1.63275 17.442-1.93107 17.7845-.23854z" fill="#2c3e46"/><path d="m-1198.4958 531.90439c-3.7636-36.5957 4.9008-44.6579 10.6576-47.1669-6.0237.39336-14.7785 2.58401-18.3667 7.41172.3624 1.63086 5.6453 38.5024 5.6453 38.5024z" opacity=".3"/><path d="m-1148.7158 526.22839c2.3317 2.92658 5.7525 12.6455 4.9994 20.6334 3.2654-4.30965 5.4327-6.20643 9.8372-10.3534 2.3126.69447 4.07 6.28709 4.07 6.28709 1.9272 1.08581 4.946 1.74434 6.5337-1.58459 0 0-2.8452-5.03568-3.4702-7.28944 2.1875 1.40574 8.1533-1.50328 8.1533-1.50328.1926.18283-3.5231 2.29691-3.7908 2.86416-.051.10573 2.9025-.11817 2.8712.0393-.038.19088-2.7783 1.0061-2.8018 1.23142-.1538 1.47526 1.1629 2.95755 1.4851 2.82859l6.2643-2.5075c1.04-1.3307-2.9972-11.2338-2.9972-11.2338-.1652-.82599-8.3021-.95249-14.1888.9577-4.6287.0941-16.4621-.97367-16.9654-.36971z" fill="#618599"/><path d="m-1148.8058 526.02839 2.5053 4.0338 15.1004-1.47889s2.3507-1.60315 13.1367-2.97564l-13.9111 1.05907z" fill="#fff" fill-rule="evenodd" opacity=".6"/><g fill-rule="evenodd" transform="matrix(1.62811 0 0 1.62811 -1350.510742281 578.9236150372)"><path d="m189.055-32.2099c-3.30908-.242547-7.65142.310977-8.53219 2.54119-.006.02516 1.01349-.108714 1.72377-.137918-.91854.07454-4.65166 1.09177-4.77189 3.36362-.16274.126338 1.69776-.279874 1.69776-.279874-3.45957 1.97288-4.4954 3.07665-3.82032 5.40165.008.198658.47749-.37786 1.46582-1.04212-3.17815 4.07644 2.40874 9.20837 6.33987 11.0976.49486.289501-.73314-1.28009.32786-3.88807.13853-.340501-1.28459-1.14032-1.36456-1.45337-.14661-.789726 1.92089-.88538.37999-2.75249.83206-1.10276 2.55456-.83331 3.7568-1.61296.63792-.424084.97114-.95032 1.19531-1.34375.22418-.393431.34334-.623754.625-.826172.28167-.202418.7962-.41411 1.85352-.517578.50828-.04974.77946-.278695 1.00977-.386719.2303-.108024.25394-.0822.21875-.101563.20861.11433.46227.109124.66601-.01367 4.77143-1.82554.92405-7.5945-2.77127-8.0478z" fill="#800000" transform="matrix(1.96133 0 0 1.96133 -274.664 -10.4743)"/><path d="m100.896-58.9852c4.90496-.02871 4.8311-8.07347-.83677-11.8999-3.44136-2.32332-11.1547-1.9867-18.8582 1.53862-.202616.09272 6.93062-1.39099 10.1457.582854-4.95508-1.42377-14.3194 1.80403-16.4341 5.31695 3.46241-.962805 8.95528-2.54653 9.83339-2.80562-6.5679 2.98136-13.0398 6.91377-13.999 11.1235-.254609.483309 5.41237-2.58172 9.99646-4.66687-5.52208 4.02178-9.03298 3.51445-8.95402 10.5526.18727 8.37133 12.3436 15.907 12.3436 15.907s-2.0544-4.14931-.965956-6.24144c.892325-1.71517-1.77959-1.98499-2.07963-3.46007-.119189-1.04973.835791-1.91774.835791-1.91774-.639474.569106-3.65713.404513-3.5587.147451.109662-.235658 1.89752-.504443 2.82719-3.70775-.787467 1.12787-2.26996.80777-2.26996.80777-.119944-1.78067 1.65677-1.85362 4.06934-3.33023 11.523 7.00007 14.694-3.90439 15.1348-7.23167.904224-.148935 1.76483-1.26825 2.770125-.715341z" fill="#c00"/><path d="m-47.8125-154.357c.63234 1.00622 1.95134 1.83729 3.19336 2.90039-1.88021-1.13881-11.392.41009-13.1738-.19922 2.30272 2.09603 15.7812.27028 15.1328 8.41602l.251953-.0899c.42939-3.2166.126041-5.10355-.605469-6.44922 1.14862 1.58705 1.94982 3.0077.712891 6.38868l.253906-.13868c5.98498-10.3866-2.20167-8.98103-5.76563-10.8281zm-2.89844 6.08594c-4.35348-.14824-9.81952 1.15027-14.707 3.63671 3.02148.75262 19.2549-6.03874 22.5488 1.43946l.189453-.0332c-.436944-3.30057-3.67777-4.89473-8.03125-5.04296z" opacity=".2" transform="translate(142.851 83.852)"/><path d="m-49.4023-156.215c-3.57737.0593-7.91479 1.03263-12.248 3.01562-.131097.06 2.80686-.52746 5.76953-.42383 2.79238-.80617 5.42597-1.62086 9.80078-2.34375-1.00288-.18365-2.11847-.26798-3.32227-.24804zm-9.54883 3.88476c-3.92396.97148-7.73161 2.94684-8.98633 5.03125.796418-.22146 1.77326-.42523 2.70366-.68872zm-5.54431 5.64967c-4.62644 2.21767-7.17322 5.79169-7.60803 7.69994-.118247.22446 1.11112-.35635 2.8457-1.20898.123016-2.11709 3.8685-4.98668 4.76232-6.49096zm-4.73889 7.66674c-1.20874 1.20199-1.86269 2.83714-1.82813 5.91797.06887 3.07852 1.76083 6.04126 3.86719 8.56054-2.57334-4.51576-2.82129-9.61727-2.03906-14.4785z" fill="#fff" opacity=".3" transform="translate(142.851 83.852)"/><path d="m83.3968-51.6112c.0818-.106293 8.48039 3.85674 13.9388-4.56185-.32871 1.13958-4.40216 11.2812-13.9388 4.56185z" opacity=".3"/><path d="m94.9758-55.9003c-1.97222 4.56787-7.63175 3.32119-11.415 2.63088-2.41038 1.60204-6.9662 5.30175-8.21072.365881-.4091-3.98051 4.75493-3.58657 6.22726-6.69233 3.18068-2.18968 6.43461 2.21268 10.0394.808537 1.95739-.51581 5.89365.231756 3.35909 2.88703z" fill="#fff" filter="url(#a)" opacity=".3"/></g><g transform="matrix(1.62811 0 0 1.62811 -1393.9703221007 577.6284698133)"><path d="m124.828-55.6393.0459-3.11532 2.66074-.553212 1.63416 2.9071c-1.24721.913486-2.82311 1.33703-4.34078.761436z" fill="#888a85"/><path d="m127.783-60.1028c1.00017.421313.6989 1.42337.4011 1.71273-1.27771 1.06833-2.90082.869151-3.66007.468359l-.20697-1.1004c.46218-.570182 2.34976.30469 3.46594-1.08069z" fill="#d3d7cf"/></g><ellipse cx="-157.45935" cy="1273.2422" fill="#fff" rx="1.32284" ry="1.119326" transform="matrix(.50380542 .86381717 -.86381717 .50380542 0 0)"/><ellipse cx="360.12006" cy="1227.7344" fill="#fff" rx="1.322841" ry="1.119327" transform="matrix(.11978108 .99280033 -.99280033 .11978108 0 0)"/><g transform="matrix(.996776 .0802333 -.0802333 .996776 126.54489 14.616291)"><g transform="matrix(.856124 -.163821 .163821 .856124 -301.288 -120.176)"><path d="m-1279.52 637.103c-10.0834-2.21012-22.9776 7.10793-30.2761 12.581 6.7242 3.71907 5.2015 13.6918 21.423 12.2943 0 0 .2641.40834.6156 1.12312-1.3454-.80858-5.0581 3.15545-5.0581 3.15545-1.3301 4.13254 4.2638 8.16364 4.2638 8.16364 1.2494 3.49229 5.3965 4.77157 6.1999 4.73241 2.5164-.12265 6.2159-.67289 9.2466-1.68208.3167-.10547.377-1.21705.6935-1.31356 1.6302-.49705 3.4899-.38133 4.932-1.02789.3616-.16212.1722-1.12862.5186-1.29707 2.0331-.98877 3.7044-1.27961 5.052-2.34017l1.2376-10.7945c-3.5159-4.28628-13.2555-8.87095-13.2555-8.87095z" fill="#2d3c50"/><path d="m-1305.92 649.854c2.413-2.10868 8.4629-10.0707 25.4497-10.7482 0 0 3.0045 11.4569 5.9583 14.0457 7.3207 4.76706 10.742 7.11333 12.0433 8.04899l-1.158 8.84694c-.1597 1.22012-1.598 1.7706-3.3196 2.17802l.4956-5.09932c-.5757 1.83039-1.9145 4.48709-2.4026 6.12173-1.2867 1.1746-3.2165 1.3099-4.1313 1.31674-.2864.11131 1.7253-3.58376.3676-5.45835-.4115.91244-1.9952 5.79507-2.4589 6.02645-4.7565 2.23371-11.1398 1.34721-11.7019-2.5294-2.1928-1.40419-3.9182-3.76349-3.5207-5.17381 0 0 2.0508-2.05907 4.0732-1.73197.327-.17328.4405 3.46796 2.427 5.05866 1.9916-6.92583-3.7291-5.74355-3.8646-14.2212l-.609 3.55917c-15.1996-1.44647-12.4965-7.29962-17.6481-10.2401z" fill="#618599"/><path d="m-1281.03 639.308c-8.0581-.91114-18.4552 5.43495-23.858 10.166 2.5834 2.94284 2.3624 6.15653 8.0403 8.42742 4.6362-6.02228-4.1352-14.0625 15.9856-17.1273.5942-.76857.1931-.65092-.1679-1.46612z" fill="#fff" fill-rule="evenodd" opacity=".4"/></g><path d="m-1302.58 640.319c.1802.33467-7.9387 5.43324-9.671 9.2564 5.1691 6.12814 9.1852 6.45461 16.0404 6.40554.1951-.001-.1381-3.47178.063-3.4735 0 0 .8303 3.3997 1.2142 3.3967l2.0322 2.58293c2.3269 2.27223 2.7546 3.29643 2.4349 6.30593l-3.1037-4.26026c-1.7568.48671-2.0065 1.22461-2.8708 1.86007.3995 1.12559-.3513 2.14058 3.891 4.14097 1.5624 2.21904 3.2738 2.34544 4.2813 2.25002 1.4837-.14051 1.1414-1.33084 2.2111-2.4914l.8964-8.29264c-5.4311-2.99592-3.4349-3.91219-6.7331-6.19639-.2911-.2016 5.9911-3.70224 5.9911-3.70224s-8.9205 2.64776-9.1552 2.60024c-9.6426.4826-17.1928-1.12597-7.5218-10.3824z" fill="#fff" fill-rule="evenodd" opacity=".3"/><path d="m-1284.5 657.911c3.1322.57279 9.4548-1.80428 10.6265-5.51038l1.2313 9.52552c-4.4282 3.5461-10.6152 5.52241-15.0434 7.45727.3863-.45531 1.7594-1.43156 2.0324-2.424.7907-2.87388 1.1532-9.04841 1.1532-9.04841z" fill="#2d3c50" opacity=".7"/></g></g><path d="m-1914.8972 442.16598-.513.0642-.4442.70639c-2.2802 3.57107-3.0628 5.02192-3.3944 6.31179-.1584.61724-.1352.86669.1212 1.45091.5563 1.269 2.329 2.39147 4.9896 3.16465.978.28423 1.0269.3419.7984.83667-.1601.34697-.2755.39002-.9423.34623-1.4855-.0975-2.1666.0103-3.0101.49245-.5212.29702-.595.48748-.4899 1.24595.1226.8786 1.0529 2.27099 1.7644 2.63752.315.1623.428.0784.2977-.21757-.2484-.56482-.1355-.99339.2966-1.14323.3962-.13725 1.5561.0904 2.3049.45479.5348.26027 1.4878 1.00678 1.9286 1.50575.1659.18756.3867.38954.4903.44684.2455.13569.2645.13088.6968-.13967.8705-.54502 3.1066-2.62469 4.7192-4.38338.5697-.62146.8118-1.63584.7665-3.20747-.032-1.13311-.1834-1.6181-.738-2.32977-.2231-.28616-.711-.7528-1.0817-1.04359-.5702-.4475-1.0525-.746-2.7348-1.67389-.2492-.13746-.2697-.31486-.072-.66167.4667-.81736.9002-2.70338.8439-3.66382-.034-.57892-.039-.59252-.3255-.85124-.3637-.32663-.603-.3217-.7875.0154-.075.13527-.2079.2929-.2928.34941-.3469.23035-1.4133.12238-2.6204-.26874-.2054-.0665-.7524-.21019-1.2153-.31781-.6858-.15942-.938-.18204-1.3561-.12715zm-.629 2.94424c.3375-.0164.8298.10111 1.6793.38342 1.532.50902 1.7308.54827 2.7616.51438.8329-.0272.8871-.0208.9084.13284.029.19505-.1654.73504-.3571.99639-.1303.1778-.3357.25726-.4446.17082-.029-.0218-.3761-.0794-.767-.12534-2.2056-.25799-3.4258-.50344-4.0674-.81116-.5696-.27313-.6591-.74013-.2044-1.08659.1401-.10626.2887-.16443.4911-.17484zm-1.9773 2.63136c.075-.0154.1722.0542.2838.21344.256.36548 1.4544 1.11751 2.2576 1.41769.7779.29066 1.192.38103 1.9633.45137.794.0726 1.3158.27166 1.349.51122.022.15886-.2584.68495-.4677.87376-.04.0349-.1083.0667-.1514.066-.4022-.005-1.4736-.25778-1.9365-.45366-.08-.034-.1829-.0569-.2284-.053-.2205.0192-1.5314-.66641-2.1068-1.10019-.8665-.65327-1.1187-.97499-1.1187-1.45693 0-.28935.061-.44937.1558-.46977zm7.2946 2.75314c.1019-.0192.2352-.004.4313.022.6483.0845 1.6609.59187 2.525 1.26893 1.0403.81549 1.4481 1.44774 1.4307 2.2102-.013.18443-.051.32176-.1083.32682-.056.005-.313-.29796-.5749-.67093-.3728-.53105-.5715-.73329-.9057-.93322-.62-.37092-2.2293-.95729-2.5448-.92992-.08.007-.2731-.0362-.4347-.0945-.3607-.13018-.4106-.33313-.1906-.79681.1213-.2569.2019-.37085.3724-.40262zm-1.526 3.90813.7978.15563c1.8226.34242 2.2022.42249 2.6799.60083.2756.1029.6038.26487.7316.35316.2919.20182.5542.57073.5159.72896-.015.0665-.2677.33385-.5597.59734-.5952.53737-.9032.63728-1.1993.37514-.5749-.50871-2.1529-1.36191-2.785-1.50425-.2375-.0535-.4786-.12611-.5382-.16495-.2033-.13248-.1666-.44092.097-.79532l.2597-.34654z" fill="#f57900" transform="matrix(1.33811616058 0 0 1.33811616058 2619.6066077204 -510.8132984563)"/></svg>