<svg height="154.868" viewBox="122.277 6.458 316.575 154.868" width="316.575" xmlns="http://www.w3.org/2000/svg"><g fill="#008fa9"><g transform="matrix(.89915966 0 0 .83394777 30.253985 14.788543)"><path d="m151.589 70.946v-21.496h-5.862v-23.45h15.633v15.634h21.496v-19.542l-15.633-15.634h-31.267l-13.679 15.634v33.221l15.633 15.633z"/><path d="m155.498 49.45v21.496h5.862v23.45h-15.633v-15.634h-23.45v21.497l15.633 15.633h33.221l13.679-15.633v-35.175l-15.633-15.634z"/><path d="m212.168 96.351v-89.893h-23.45v93.801l16.611 15.633h12.702v-19.541z"/><path d="m227.801 96.351v-89.893h23.45v93.801l-16.609 15.633h-12.703v-19.541z"/><path d="m315.739 23.069-16.61-16.611h-14.656v19.542h7.816v33.221h-7.816v21.496h15.632l15.634-15.633z"/></g><path d="m261.44052 20.174179h21.085295v91.261406h-21.085295z" stroke-width=".86594"/><path d="m370.456 6.458h-46.9v109.434h46.9v-19.541h-25.405v-68.396h25.405z" transform="matrix(.89915966 0 0 .83394777 30.253985 14.788543)"/><path d="m344.02472 56.02726h14.057462v16.297007h-14.057462z" stroke-width=".86594"/><path d="m428.104 62.152 10.748 10.748v42.992h-21.497v-42.992h-11.724v-21.496h9.77v-25.404h-9.77v-19.542h17.588l15.633 15.634v29.312z" transform="matrix(.89915966 0 0 .83394777 30.253985 14.788543)"/><path d="m370.38181 20.174179h21.083496v91.261406h-21.083496z" stroke-width=".86594"/><g transform="matrix(.89915966 0 0 .83394777 30.253985 14.788543)"><path d="m206.306 161.326v-20.03h-19.541v5.863h13.678v7.817h-27.358v-21.497h33.221v-5.863h-37.129l-4.886 4.886v22.474l6.351 6.35z"/><path d="m253.206 142.273v-8.794l-5.862-5.863h-33.221v33.221h7.816v-13.678h13.679l9.771 13.678h7.817l-9.771-13.678h3.909zm-7.817-.977h-23.45v-7.816h23.45z"/><path d="m288.381 127.616 17.588 33.221h-9.772l-13.678-25.403h-3.909l-11.725 25.403h-9.771l15.634-33.221z"/><path d="m345.051 133.479v-5.863h-37.129v33.221h7.817v-13.678h25.404v-5.863h-25.404v-7.817z"/><path d="m393.905 160.837-17.587-17.587 17.587-15.634h-11.724l-11.725 11.726-11.726-11.726h-9.77l15.634 15.634-17.588 17.587h11.724l11.726-11.725 11.725 11.725z"/></g></g></svg>