<svg enable-background="new 0 0 777.6 108.8" height="108.8" viewBox="0 0 777.6 108.8" width="777.6" xmlns="http://www.w3.org/2000/svg"><path d="m632.328 33.576 36.456 69.696h-72.904z" fill="#09ffbe"/><path d="m581.928 54.4c0 13.056 4.225 25.032 11.265 34.407l12.695-24.271c-1.256-3.672-1.936-7.655-1.936-11.84 0-17.832 12.512-32.296 27.952-32.296 15.439 0 27.951 14.464 27.951 32.296 0 3.801-.56 7.448-1.607 10.832l12.871 24.607c6.736-9.271 10.761-20.991 10.761-33.735 0-30.048-22.376-54.4-49.976-54.4-27.6 0-49.976 24.352-49.976 54.4z"/><path d="m552.28 3.4h20.327v100.296h-20.327z"/><path d="m689.504 103.696h20.328v-66.696l52.52 68.4h15.248v-102h-20.329v66.696l-52.519-68.4h-15.248z"/><path d="m448.944 3.4h20.327v100.296h-20.327z"/><path d="m445.552 3.4h-22.024l-22.872 65.568-22.864-65.568h-22.024l38.96 102h11.864z"/><path d="m228.704 3.4v100.296h52.52v-17h-32.192v-27.199h30.496v-17.001h-30.496v-22.096h30.496v-17z"/><path d="m159.248 3.4v100.296h20.328v-37.4h14.512c11.92 0 23.408-10.249 25.72-21.977.28-1.4 1.185-6.136 1.185-9.472s-.912-7.984-1.208-9.352c-2.545-11.775-15.433-22.095-27.393-22.095zm20.328 45.896v-28.896h6.776c8.416 0 15.248 5.152 15.248 13.6s-6.832 15.296-15.248 15.296z"/><path d="m293.08 3.4v100.296h20.328v-37.4h1.944l21.776 37.399h25.416l-27.352-38.64c9.008-3.063 16.616-11.433 18.456-20.736.28-1.4 1.176-6.136 1.176-9.472s-.912-7.984-1.208-9.352c-2.544-11.775-15.432-22.095-27.384-22.095zm20.328 45.896v-28.896h6.784c8.416 0 15.24 5.152 15.24 13.6s-6.824 15.296-15.24 15.296z"/><path d="m71.152 3.4v70.376c0 4.624-.336 9.728 1.864 14.472 3.592 7.736 11.288 14.48 18.448 16.521 1.352.384 8.184 3.6 16.328 3.992.225.023 1.145.04 1.145.04s.872-.008 1.08-.032c8.16-.376 15.024-3.607 16.375-4 7.16-2.04 14.856-8.784 18.448-16.521 2.2-4.744 1.864-9.848 1.864-14.472v-70.376h-20.328v68.848c0 9.745-7.784 17.664-17.448 17.849-9.664-.185-17.448-8.104-17.448-17.849v-68.848zm37.784 105.4 1.08-.032c-.208.024-1.08.032-1.08.032z"/><path d="m11.856 75.696-11.856 12.704c20.88 29.681 63.48 23.6 63.48-13.6 0-20.248-13-26.904-29.664-33.497-24.512-9.695-4.912-34.943 15.312-15.807l9.992-12.864c-6.792-6.656-17.408-11.432-26.928-10.936-17.808.944-29.6 11.104-29.6 30.6 0 32.104 42.256 25.304 42.256 44.201 0 17.903-22.544 16.063-32.992-.801z"/><path d="m491.056 75.696-11.856 12.704c20.88 29.681 63.48 23.6 63.48-13.6 0-20.248-13-26.904-29.664-33.497-24.512-9.696-4.912-34.944 15.312-15.808l9.991-12.864c-6.791-6.655-17.407-11.431-26.927-10.935-17.808.944-29.6 11.104-29.6 30.6 0 32.104 42.256 25.304 42.256 44.201 0 17.903-22.544 16.063-32.992-.801z"/></svg>