<svg height="159.70381" viewBox="0 0 319.64243 111.79267" width="456.63205" xmlns="http://www.w3.org/2000/svg"><g transform="translate(-.297482 -1.000293)"><g fill="#fff" fill-opacity=".5" stroke-width="1.75"><path d="m234.24301 57.000338q0 .168-.0406.2828-.0602.1708-.1932.1708-.0882 0-.1848-.0406-.1162-.049-.1274-.1204.0392 0 .0924.014.1232.0322.154.0322.119 0 .1792-.119.0476-.0952.0476-.2282 0-.0938-.0616-.2674-.0602-.175-.0602-.2436 0-.021.0112-.0336.0126-.014.0336-.014.0546 0 .1064.252.0434.2128.0434.315z"/><path d="m234.78202 57.143138q0 .1428-.0826.224-.0826.0812-.2282.0812-.0798 0-.1232-.0378-.0434-.0378-.0434-.1162 0-.1106.1442-.2226.1372-.1064.2534-.1064.0532 0 .07.0658.01.0378.01.112zm-.0854.0392q0-.0168-.004-.0322-.003-.0168-.0112-.0378-.0224.0154-.0742.0756-.0266.0308-.0462.0448 0-.0266.006-.0434.0112-.0238.0182-.0406-.0616 0-.1288.0518-.0658.0518-.0658.112 0 .0406.0448.0406.0854 0 .1652-.042.0966-.0504.0966-.1288z"/><path d="m235.35882 57.200538q0 .0686-.0518.154-.0588.0966-.1218.0966-.0182 0-.0308-.0196-.0112-.021-.0112-.0406 0-.0252.0532-.0784.0546-.0546.0546-.0742 0-.0126-.004-.0252-.004-.0126-.006-.0168-.105.0238-.2142.1204-.1078.0966-.1638.1092-.0112-.0308-.0112-.063 0-.0392.0182-.0826.0126-.0308.042-.0742.049-.0742.1036-.168.028-.049.0966-.1694.07-.1204.1022-.1708.0168-.0252.0294-.0378.0182-.0168.0434-.0224.0168.0056.0238.021.008.0154.008.0364 0 .0476-.0616.1288-.112.1456-.1148.1512-.063.0952-.063.1722l.003.014q.077-.0378.091-.0434.0574-.0238.098-.0238.0448 0 .0658.0308.021.0294.021.0756z"/><path d="m236.00842 57.117938q0 .0952-.0462.203-.0504.119-.1246.1638-.0154-.0182-.0266-.0406-.01-.0224-.01-.0448 0-.0238.07-.1414.0308-.0518.028-.091l-.001-.0182q-.0518.0154-.1792.0938-.126.077-.2548.1568-.0196 0-.0364-.014-.0154-.0154-.0154-.0336 0-.0294.0938-.1974.028-.0504.1008-.175.0224.0294.0294.0658.007.035.007.084 0 .021 0 .0322.1288-.077.2016-.1162.0798-.0434.1092-.0434.0196 0 .0364.0448.0182.0448.0182.0714z"/><path d="m237.22502 57.389538q0 .0252-.0224.0392-.021.0126-.0476.0126-.0238 0-.0602-.0056-.0826-.0126-.1064-.0126-.042 0-.1652.0098-.07.0056-.1008.0056-.0854 0-.0854-.0854 0-.0812.0532-.2324.0294-.0854.1106-.28.0728-.175.0924-.2464.007-.0224.0112-.0294.0112-.0168.028-.0168.0266 0 .0448.0392.0182.0378.0182.0686 0 .049-.0574.1652-.0574.1148-.112.2254-.0602.1316-.0602.2002 0 .035.0294.049.021.0098.0616.0098.0308 0 .1064-.007.0756-.0084.1008-.0084.063 0 .1036.0182.0574.0252.0574.0812z"/><path d="m237.74582 57.143138q0 .1428-.0826.224-.0826.0812-.2282.0812-.0798 0-.1232-.0378-.0434-.0378-.0434-.1162 0-.1106.1442-.2226.1372-.1064.2534-.1064.0532 0 .07.0658.01.0378.01.112zm-.0854.0392q0-.0168-.004-.0322-.003-.0168-.0112-.0378-.0224.0154-.0742.0756-.0266.0308-.0462.0448 0-.0266.006-.0434.0112-.0238.0182-.0406-.0616 0-.1288.0518-.0658.0518-.0658.112 0 .0406.0448.0406.0854 0 .1652-.042.0966-.0504.0966-.1288z"/><path d="m238.33522 57.113738q0 .0448-.0238.0952-.0224.0504-.0574.084l-.001-.0196q0-.0168.004-.0518.004-.035.004-.0518 0-.0238-.007-.035-.007-.0126-.0294-.0126-.0658 0-.1638.1022-.1064.112-.2114.2226-.008 0-.0168-.0014-.021-.0056-.028-.007.004-.0504.035-.112.0826-.1666.0854-.1778.0112-.0448.0168-.0658.006-.021.0154-.0434.0112-.0238.0252-.042.0154-.0196.0392-.0294l.014.168q.0602-.049.0924-.0756.0616-.049.1064-.049.0448 0 .0728.0294.028.0294.028.0728z"/><path d="m239.02262 56.951338q0 .0588-.1568.1554-.1512.0924-.2198.0924-.0322 0-.0434-.0224-.01-.0224-.01-.063 0-.0266 0-.0378.0938 0 .1708-.028.077-.028.1344-.0924-.042-.0154-.0854-.0154-.1022 0-.217.0784-.126.0854-.126.182 0 .0924.126.1288.0196.0056.2366.0392.1274.0196.1274.0686 0 .021-.0462.0336-.0462.014-.1176.014-.1792 0-.2828-.0546-.1372-.0728-.1372-.2338 0-.168.168-.2674.1428-.084.3248-.084.0546 0 .0994.0252.0546.0308.0546.0812z"/><path d="m239.57982 56.700738q0 .0308-.0742.1288-.0742.098-.0742.1498 0 .0266.0308.0532.07.0616.07.0756 0 .0182-.0126.035-.0112.0168-.0294.0168-.0154 0-.0434-.0168-.0196-.0112-.0756-.0546-.021.0406-.0322.0616-.0392.0742-.0532.1078-.021.0644-.042.1288-.0364.0868-.091.0868l-.001-.0322q0-.0994.0644-.2352.0126-.0252.07-.1302-.1106-.0602-.2436-.0602 0-.0518.021-.0756.0224-.0252.0742-.0252.0476 0 .119.0168.035.0084.07.0168.0266-.0084.0728-.091.1134-.1988.154-.2282.0112.0182.0182.0364.008.0182.008.035z"/><path d="m240.09642 57.200538q0 .0686-.0518.154-.0588.0966-.1218.0966-.0182 0-.0308-.0196-.0112-.021-.0112-.0406 0-.0252.0532-.0784.0546-.0546.0546-.0742 0-.0126-.004-.0252-.004-.0126-.006-.0168-.105.0238-.2142.1204-.1078.0966-.1638.1092-.0112-.0308-.0112-.063 0-.0392.0182-.0826.0126-.0308.042-.0742.049-.0742.1036-.168.028-.049.0966-.1694.07-.1204.1022-.1708.0168-.0252.0294-.0378.0182-.0168.0434-.0224.0168.0056.0238.021.008.0154.008.0364 0 .0476-.0616.1288-.112.1456-.1148.1512-.063.0952-.063.1722l.003.014q.077-.0378.091-.0434.0574-.0238.098-.0238.0448 0 .0658.0308.021.0294.021.0756z"/><path d="m241.24582 56.744138q0 .0658-.07.1764-.0448.07-.147.2016-.1022.1302-.1274.1708.004.0014.105.0336.1022.0308.1022.112-.042.007-.0826.0126l-.0154-.0014v-.0112q-.0224-.0056-.0364-.0056-.0266 0-.084.0084-.0574.0084-.0868.0084-.0378 0-.0616-.014-.0238-.014-.0238-.0504 0-.0294.1078-.1666.2016-.2562.203-.259.1092-.1484.1092-.1988 0-.0196-.014-.0294-.0126-.0098-.0518-.0098-.0266 0-.1106.0518-.0406.0252-.0658.0252l-.0238-.0042q-.008-.0056-.0182-.021-.01-.0168-.01-.0266 0-.0588.1134-.1078.0966-.042.168-.042.0602 0 .0924.0448.028.0392.028.1022z"/><path d="m242.08722 56.996138q0 .1694-.1834.2996-.168.119-.3458.119-.0882 0-.14-.0448-.0518-.0448-.0518-.1302 0-.1904.1666-.3304.1582-.133.3542-.133.0994 0 .1498.0588.0504.0588.0504.161zm-.0854.0322q0-.0644-.0728-.0966-.0546-.0238-.1302-.0238-.1106 0-.231.1078-.1204.1078-.1204.217 0 .0448.0224.0644.0238.0182.0714.0182.1372 0 .2856-.0756.175-.0896.175-.2114z"/><path d="m242.72842 56.744138q0 .0658-.07.1764-.0448.07-.147.2016-.1022.1302-.1274.1708.004.0014.105.0336.1022.0308.1022.112-.042.007-.0826.0126l-.0154-.0014v-.0112q-.0224-.0056-.0364-.0056-.0266 0-.084.0084-.0574.0084-.0868.0084-.0378 0-.0616-.014-.0238-.014-.0238-.0504 0-.0294.1078-.1666.2016-.2562.203-.259.1092-.1484.1092-.1988 0-.0196-.014-.0294-.0126-.0098-.0518-.0098-.0266 0-.1106.0518-.0406.0252-.0658.0252l-.0238-.0042q-.008-.0056-.0182-.021-.01-.0168-.01-.0266 0-.0588.1134-.1078.0966-.042.168-.042.0602 0 .0924.0448.028.0392.028.1022z"/><path d="m243.37242 56.744138q0 .0658-.07.1764-.0448.07-.147.2016-.1022.1302-.1274.1708.004.0014.105.0336.1022.0308.1022.112-.042.007-.0826.0126l-.0154-.0014v-.0112q-.0224-.0056-.0364-.0056-.0266 0-.084.0084-.0574.0084-.0868.0084-.0378 0-.0616-.014-.0238-.014-.0238-.0504 0-.0294.1078-.1666.2016-.2562.203-.259.1092-.1484.1092-.1988 0-.0196-.014-.0294-.0126-.0098-.0518-.0098-.0266 0-.1106.0518-.0406.0252-.0658.0252l-.0238-.0042q-.008-.0056-.0182-.021-.01-.0168-.01-.0266 0-.0588.1134-.1078.0966-.042.168-.042.0602 0 .0924.0448.028.0392.028.1022z"/></g><path d="m194.40988 112.31211c-13.14412-2.04592-21.34682-10.61202-21.27444-22.264546-.11129-5.715471 2.43507-10.94155 6.09526-15.04909 7.28734-8.084893 17.77452-14.098108 27.35089-13.972442 6.83101-.139753 13.38243.880414 19.43337 3.113057.90261.271205 1.01732.297032 1.1898-.381412.14595-1.017652.39504-1.808527.6752-2.81735 7.01271.148989 14.12286-.000001 21.09663-.000001-4.06113 15.519617-6.10824 21.88979-10.04762 37.457214-.33004 1.77049 1.27535 1.478482 2.34055 1.238542.38815-.167.41495.1491.31847.317593-.88106 3.258015-1.64337 5.857175-2.61707 9.247905-8.17494 4.87192-16.46282 3.24336-20.4095-2.84619-7.92119 6.12883-15.71156 7.2565-24.15156 5.95672zm23.95745-16.670082c1.68703-6.66062 3.86918-13.248991 5.248-19.96847-8.91636-6.078483-22.85938 1.921523-24.66906 11.343223-1.19342 5.16901-.40463 10.522879 5.26657 11.754878 4.6735.694313 9.65731.144057 14.15449-3.129631zm-204.175035 2.651213c18.029527-25.392951 36.643761-41.070765 54.297588-45.732064 8.657153-2.224687 18.653431-1.784091 24.795949 3.023235 3.811606 2.870259 6.20568 6.777488 7.731888 12.618781 3.51774 13.381994-.79029 29.646725-4.785712 43.617147h-6.225299c-5.805725 0-6.209341-.0377-5.988512-.56.710774-1.68099 2.82806-8.73679 3.802944-12.673218 4.054982-16.373363 2.291152-25.011664-5.091258-24.934249-6.62344.06946-15.126045 7.593606-24.326931 21.527459-3.389409 5.437428-6.754795 10.888048-9.566394 16.640008h-43.4091927c2.7258761-4.63201 5.6825347-9.16306 8.7649297-13.527099zm96.352565-.710499c-2.55814-5.199405-2.70025-11.611143-.38441-17.344576 4.33011-10.720279 19.56652-19.106698 34.64943-19.071725 8.30609-.354995 21.46721 4.469124 30.08 10.946281-1.5581 1.572389-3.1162 3.144784-4.67429 4.717178-5.2463-1.008217-10.87458-2.224501-16.10281-1.547821-10.45578 1.554024-22.68125 8.703236-14.0909 19.825539 5.36295 7.324042 19.99352 2.468635 27.66207.142298.70939 2.877044 1.43215 5.810714 1.87722 8.705934-7.88054 3.56083-16.08671 7.0181-25.82141 7.77708-13.76012.91124-28.12646-4.32351-33.1949-14.150188zm148.03033-36.566873c7.49841-.137518 13.2729.0032 21.28225-.06962-.37587 1.329682-.64762 2.439348-.87068 3.771226 5.75607-1.4401 13.65909-2.497555 18.13309-2.185413 8.19484-.15929 17.5183 2.330357 20.76469 9.998629 1.04634 2.200051 1.76877 3.967677 1.98367 6.369663.73551 12.34522-4.27174 23.318856-11.10748 32.919986h-18.2038c3.35761-6.03749 6.60325-12.491256 8.5163-18.745793 1.42933-6.192083 2.78019-15.749908-3.60005-18.579277-6.33565-2.304649-14.16786-.03818-20.01111 2.678101-3.51751 12.434517-6.60261 23.620079-9.60563 34.646969h-21.11594c4.62919-17.699828 9.17429-32.887934 13.83469-50.804471zm-198.940581 37.873113c4.010319-3.839552 24.566172-3.306495 25.175274.46852-1.494598 3.876688-25.950139 3.984208-25.175274-.46852zm41.336861-45.657646c3.22024-1.778459 8.07498-2.412779 11.99841-1.446956 4.09914 1.079897 7.07954 2.501372 10.90894 6.945783-5.35332 2.431615-10.53847 5.84588-14.15622 10.635882-1.26243-5.982445-2.37896-8.680493-4.1466-10.894791-1.20853-1.513905-2.2715-3.174664-4.60453-5.239918z" stroke-width=".32"/><g fill="#f1001d"><path d="m189.28 108.97177c-13.14412-2.04592-21.34682-10.612017-21.27444-22.264538-.11129-5.715471 2.43507-10.94155 6.09526-15.04909 7.28734-8.084893 17.77452-14.098108 27.35089-13.972442 6.83101-.139753 13.38243.880414 19.43337 3.113057.90261.271205 1.01732.297032 1.1898-.381412.14595-1.017652.39504-1.808527.6752-2.81735 7.01271.148989 14.12286-.000001 21.09663-.000001-4.06113 15.519617-6.10824 21.88979-10.04762 37.457214-.33004 1.770478 1.27535 1.478478 2.34055 1.238539.38815-.167001.41495.149107.31847.31759-.88106 3.258016-1.64337 5.857173-2.61707 9.247903-8.17494 4.87192-16.46282 3.24336-20.4095-2.84619-7.92119 6.12883-15.71156 7.2565-24.15156 5.95672zm23.95745-16.670074c1.68703-6.66062 3.86918-13.248991 5.248-19.96847-8.91636-6.078483-22.85938 1.921523-24.66906 11.343223-1.19342 5.16901-.40463 10.522879 5.26657 11.754878 4.6735.694317 9.65731.144057 14.15449-3.129631zm-204.1750385 2.651213c18.0295275-25.392951 36.6437615-41.070765 54.2975885-45.732064 8.657153-2.224687 18.653431-1.784091 24.795949 3.023235 3.811606 2.870259 6.20568 6.777488 7.731891 12.618781 3.517743 13.381994-.790292 29.646725-4.785715 43.617139h-6.225299c-5.805725 0-6.209341-.0377-5.988512-.56.710774-1.68099 2.82806-8.736794 3.802944-12.67321 4.054982-16.373363 2.291152-25.011664-5.091258-24.934249-6.62344.069456-15.126045 7.593606-24.326931 21.527459-3.389409 5.437424-6.754795 10.88804-9.566394 16.64h-43.40919261c2.72587611-4.63201 5.68253451-9.163058 8.76492911-13.527091zm96.3525685-.710499c-2.55814-5.199405-2.70025-11.611143-.38441-17.344576 4.33011-10.720279 19.56652-19.106698 34.64943-19.071725 8.30609-.354995 21.46721 4.469124 30.08 10.946281-1.5581 1.572389-3.1162 3.144784-4.67429 4.717178-5.2463-1.008217-10.87458-2.224501-16.10281-1.547821-10.45578 1.554024-22.68125 8.703236-14.0909 19.825539 5.36295 7.324035 19.99352 2.468635 27.66207.142298.70939 2.877044 1.43215 5.810708 1.87722 8.705926-7.88054 3.56083-16.08671 7.0181-25.82141 7.77708-13.76012.91124-28.12646-4.32351-33.1949-14.15018zm148.03033-36.566873c7.49841-.137518 13.2729.0032 21.28225-.06962-.37587 1.329682-.64762 2.439348-.87068 3.771226 5.75607-1.4401 13.65909-2.497555 18.13309-2.185413 8.19484-.15929 17.5183 2.330357 20.76469 9.998629 1.04634 2.200051 1.76877 3.967677 1.98367 6.369663.73551 12.34522-4.27174 23.318849-11.10748 32.919978h-18.2038c3.35761-6.03749 6.60325-12.491248 8.5163-18.745785 1.42933-6.192083 2.78019-15.749908-3.60005-18.579277-6.33565-2.304649-14.16786-.03818-20.01111 2.678101-3.51751 12.434517-6.60261 23.620076-9.60563 34.646961h-21.11594c4.62919-17.69982 9.17429-32.887926 13.83469-50.804463zm-198.940584 37.873113c4.010319-3.839552 24.566172-3.306495 25.175274.468518-1.494598 3.876682-25.950139 3.984202-25.175274-.468518zm41.336857-45.657646c3.220242-1.778459 8.074987-2.412779 11.998417-1.446956 4.09914 1.079897 7.07954 2.501372 10.90894 6.945783-5.35332 2.431615-10.53847 5.84588-14.15622 10.635882-1.26243-5.982445-2.37896-8.680493-4.1466-10.894791-1.208526-1.513905-2.271501-3.174664-4.604537-5.239918z" stroke-width=".32"/><path d="m171.10208 51.513814-3.45792-5.113814 1.53792-.0022c3.88001-.0057 10.23655-2.335795 12.93747-4.742534 2.42977-2.165124 3.28523-5.023917 1.88306-6.292855-.70824-.640953-4.01645-1.064675-8.64261-1.106966-9.42986-.0862-13.48579-4.317847-11.66983-12.175405.6635-2.870932 3.55923-8.554869 6.09722-11.968035 2.7977-3.7624399 7.85579-8.99953 8.15657-8.445226.33511.6175534 3.49604 9.538824 3.49604 9.867044 0 .155925-1.18799 1.044611-2.63998 1.974859-4.88645 3.1306-9.01877 7.01461-10.04466 9.44108-.53253 1.259551-.56057 2.985349-.0661 4.070499.7426 1.629831 2.50581 2.099268 8.95777 2.384919 6.71264.297192 8.37619.768889 10.327 2.928198 1.32013 1.461228 1.64224 3.08358 1.35754 6.837433-.38661 5.097555-1.66524 8.267876-5.42607 12.026155-2.16925 2.167776-3.5088 3.023087-5.6774 4.093983-1.50257.742-3.10467 1.474574-3.3621 1.471172-.25743-.0034-1.86201-2.435668-3.76387-5.248267zm127.18252-3.567228-3.32245-.926624c1.38849-3.868782 1.22755-7.766199-1.87223-10.980374-5.32503.911939-9.84978-1.107094-14.03888-3.712026-.68822 4.016238-.94157 7.594879-1.75922 11.801975-1.58893-.145006-2.98119-.429578-4.66086-.697946-.0899-10.441378.26215-21.091185.34009-31.512328 2.77656.221904 5.55928.838431 8.29946 1.355043-.0119.751367.11295 1.741261.11295 1.741261 4.3649-1.736661 8.04865-2.310547 12.5187-1.154224 5.84543 1.782853 9.71655 6.348248 9.26454 11.394989-.33655 4.517784-2.31785 6.262533-5.16426 8.869312l1.03954 1.717294c2.95724 4.547786 2.88571 8.381164 2.84388 13.218893-1.26385-.349557-2.57795-.790427-3.60126-1.115245zm-2.75711-18.03636c2.1465-1.106096 3.03251-2.443325 3.03251-4.576872 0-1.866338-.74476-3.329503-2.46589-4.844497-2.09678-1.84566-3.96543-2.361175-7.8972-2.178638-2.6367.122412-3.65227.324224-5.47691 1.088365l-2.24.938087-.42901 3.294414c-.49726 3.818495-.48764 3.841215 2.25846 5.335826 2.98959 1.62714 4.89659 2.083375 8.29229 1.983858 2.68872-.0788 3.3169-.211498 4.92575-1.040543zm-92.00749 17.41843c-3.73148-.728736-7.92407-3.990771-9.10382-7.08321-.2865-.750995-1.79002-5.940054-3.34116-11.531243l-2.80107-10.168544c1.88633-.40046 3.86682-.954937 5.46894-1.203593.0397.05386 1.04574 4.561934 2.23576 10.017934 1.49154 6.8384 2.40056 10.332 2.92624 11.246272 2.54417 4.424918 8.1299 5.590349 12.13871 2.532675 1.57805-1.203635 2.3964-2.965129 2.3964-5.15824-1.34035-6.551985-3.06752-12.726531-4.73849-18.212712 1.72504-.80001 3.04692-1.18662 5.0415-1.686424.12035.131807 1.17219 4.286429 2.28303 9.038429 1.5877 6.791952 2.181 9.171343 2.18246 11.183772.003 4.743078-1.94039 8.018798-5.48747 9.753972-3.07884 1.506112-5.95937 1.90399-9.20105 1.270912zm15.95695-2.885482.22382-15.101586c.1231-8.305873-.14046-15.444246-.0814-15.511952 2.8214.495039 5.10997.855951 8.07636 1.297653 0 .594474-.17578 1.171126-.17578 1.7656l1.91951-.597418c3.05798-.951748 6.47324-1.269148 8.79847-1.053613 2.22402.206154 6.45331 2.18606 6.95403 3.084933 1.30297 4.701388 1.86799 8.136786 3.05976 13.177061-1.61871 2.969462-4.58515 5.254974-7.54551 5.941831-5.49146 1.879133-9.37178.192109-15.26195-3.283893-.68072 3.524755-.94553 6.808544-1.45368 10.579529-1.59827-.05659-2.98326-.178281-4.51368-.298145zm21.64305-12.257888c5.38936-2.264047 5.02482-8.300383-.6706-11.104227-1.93635-.953264-2.51242-.757443-4.89946-1.047356-3.40936.15876-6.08291.896251-8.86645 2.316303-.25731 2.193078-.51461 4.386155-.77192 6.579233 2.01645 1.609679 4.46708 2.962981 6.83575 3.595849 2.15267.548544 6.69708.364112 8.37268-.339802zm3.91945-19.872265c.32911-.308044 17.735-8.0926568 17.84869-7.9789675.33057.3305673 2.26504 7.6698615 2.05704 7.8552375-4.66982 1.373341-8.50766 2.134334-13.39981 3.573541-.23844.147366 1.38992 7.639021 1.73375 7.982843 3.41649-1.216169 6.36977-2.403432 9.91576-3.568591 0 0 1.44621 3.809199 1.62297 4.261712-3.53765 1.710721-6.84318 2.587034-10.39509 4.473114.4906 2.701554 1.14608 4.593568 1.82899 7.410051 5.18065-2.321499 10.31338-4.745602 15.44951-7.16318-.0553 2.263871-.0768 4.483021-.049 6.725926-6.36446 2.505371-12.90923 5.202149-19.27876 7.688723-2.25454-10.170875-5.92766-20.776886-7.334-31.260409z" stroke="#ffe600" stroke-width="1.25"/></g></g></svg>