<svg height="175" viewBox="0 0 400 175" width="400" xmlns="http://www.w3.org/2000/svg"><g fill-rule="evenodd"><path d="m152.41016 53.099609c-25.31157.02735-50.64097-.02371-75.94141.03125-1.866841.843174-2.772686 2.817186-4.072534 4.288812-3.12483 4.155796-5.737372 8.734305-7.646216 13.56861-2.089082 5.512919-3.220828 11.402446-3.088118 17.311304.110471 5.081029.934012 10.225476 2.886946 14.932835.32855.86321 1.073591 1.15109 1.971484.94883 89.163148-.0292 178.326298-.0584 267.489458-.0875 1.73798-3.32576 2.32608-7.118282 3.03711-10.765625.24926-3.98859.33657-8.025378-.0693-12.004002-1.10857-6.586227-3.33726-13.02866-6.8702-18.708889-2.0324-3.127437-4.05128-6.349885-6.71875-8.984375-1.65968-.365301-3.53421-.06046-5.27335-.177945-55.23433-.382581-110.4698-.38478-165.70516-.353305z" fill="#e29918"/><path d="m193.19141 8.6445312c-20.64167.7774622-41.32261 3.5611668-61.04883 9.8203128-16.94859 5.400706-33.358451 13.174251-47.251955 24.388672-2.55773 2.141003-5.068603 4.411423-7.212891 6.951172-.420181 1.293189 1.362841 1.714523 2.314454 1.701171 5.791923-.157248 11.599984.01677 17.400384-.03776 73.714818.07595 147.429768.09502 221.144538-.03451 1.13838.703426 2.81809-1.016095 1.63672-1.980469-5.01017-5.865852-11.45607-10.260034-17.83008-14.501948-22.79298-14.274486-49.27178-21.657554-75.82239-24.731978-10.49216-1.1064474-21.04054-1.7495198-31.5944-1.5772467-.57852.0008613-1.15704.00172-1.73555.00258z" fill="#f5efab"/><path d="m199.28906 105.67969c-44.21994.0378-88.44112-.004-132.660154.18554-1.325381.18847-.716671 1.83778-.1875 2.53711 6.717399 13.32737 18.230323 23.57898 30.714355 31.41297 19.310699 12.00664 41.361289 18.98213 63.690159 22.70656 11.80071 1.89748 23.73978 3.06256 35.70168 2.99922 10.7112.19802 21.43034-.30876 32.06347-1.62838 22.76819-2.81234 45.37148-8.81742 65.66451-19.69635 13.43207-7.22224 26.08142-16.71776 34.65506-29.5207 1.41196-2.2405 2.81709-4.50928 3.94027-6.90665.43436-.77189.39298-2.03636-.74591-2.03268-16.54378.0349-33.1224-.0665-49.67969-.048-27.71874-.0202-55.4375-.005-83.15625-.009z" fill="#b194bf"/><path d="m161.21094 18.822266c-3.17117.0064-7.07603-.146911-9.24219 2.628906-1.54901 1.876073-2.24058 4.318223-2.70117 6.658203-.24888 2.308923 1.72054 4.09446 3.78195 4.667117 2.98794.834452 6.13406.287533 9.18944.577108 1.26696.09122 2.86742.01815 3.82744.917884.56687 2.541411-2.10748 4.568313-4.4375 4.605469-2.60883.234521-5.32736.185187-7.86077-.461866-1.17354-.449671-1.24493-1.951178-2.44587-2.389696-1.08665-.69898-2.77324-.90367-3.48579.421659-1.38987 2.211585-.57689 5.706872 2.09125 6.515841 1.94801.580421 4.0185.03966 6.02028.269406 3.56545.0094 7.28192.262559 10.71472-.81493 3.34777-1.87919 4.57568-6.156158 4.17713-9.779554-.13875-2.26807-1.93251-4.293409-4.25197-4.422969-2.54381-.128729-5.09473.0086-7.64255-.112997-1.22728-.09954-2.64763.146342-3.74222-.379191-.7619-.988785.32282-2.006065.76172-2.853515.93053-1.241012 2.55898-1.382037 3.97298-1.186734 2.35089-.01918 4.73985-.176291 7.03874.327359.88923 1.751814 3.32402 2.019132 4.95508 1.28125 1.50738-.848966 1.06614-2.98707.44141-4.267578-.76139-1.566825-2.5551-2.104182-4.17557-1.979264-2.32302-.195456-4.65607-.247835-6.98654-.221908zm81.85742 6.09375c-1.26256-.162147-2.63174.507984-2.78125 1.875-.36652 2.53687-1.42265 4.910388-1.86914 7.441406-.59008 2.408781-.91372 4.903538-1.94141 7.169922-.26501 1.610814 1.84541 1.996353 3.03759 1.912828 1.58239.201759 2.41838-1.378537 2.54718-2.727231.62419-2.277889 1.06334-4.607182 1.70429-6.886769.71318-2.728294 3.2442-4.875237 6.09571-4.857422 1.50351.129 3.28811-1.24074 2.73633-2.849609-.97146-1.610306-3.19255-.993141-4.72015-.851255-1.01778-.03454-2.08238.87924-2.95563.155942-.58182-.261396-1.2189-.373654-1.85352-.382812zm-51.49805.05273c-1.71773-.21331-2.50158 1.64108-2.38493 3.065144-.58961 1.655603-.89172 3.434671-1.32264 5.126219-.67214 1.767792-.43052 4.212704-2.31977 5.218793-2.00758 1.257134-5.15977.937671-6.49805-1.146484-.15917-1.186793.81312-2.196899.75485-3.407763.46432-2.498646 1.21876-4.956227 1.79398-7.400831-.1-1.613994-2.18183-1.67063-3.36328-1.316406-1.5967.467541-2.06455 2.258612-1.98556 3.735821-.0786 1.033526-.44634 1.993097-.7227 2.972871-.19805.702129-.34915 1.414634-.31323 2.172167-.16966 1.52432-1.1523 2.723368-.96127 4.31322-.0154.966312.0451 2.059602-.0797 3.020765 1.39142.0257 2.06591 1.664167 3.47596 1.692292 2.76999 1.12548 5.77983.203975 8.56546-.198004 1.34207.32705 3.33055.950153 4.2535-.531398 1.42637-4.800339 2.45382-9.719063 3.73633-14.546875.63984-.772544.77524-2.163971-.39844-2.503906-.69736-.306713-1.48276-.323987-2.23047-.265625zm8.30469-.0098c-2.03537.242225-2.17255 2.679045-2.5983 4.229429-1.15059 4.664751-2.21411 9.370355-3.49936 13.987368-.1986 1.133037.95143 1.73438 1.93561 1.608808 1.52333.26582 3.84781-.09391 3.94347-2.027871-.0198-.605371.33405-1.427107 1.03219-.908933 3.76475 1.355865 8.48736.645374 11.29579-2.31248 2.0432-2.654344 2.5303-6.099315 3.22228-9.283014.40377-2.254014-1.22689-4.533677-3.5016-4.859713-3.62565-.869772-7.3586.207646-11.00578-.431913-.27447-.0093-.5499-.0034-.8243-.0017zm24.56836.16211c-1.42397.206206-2.85003.905393-3.8967 1.84056-2.04846 2.798225-2.75217 6.330011-3.2784 9.686307-.34166 2.109765.0313 4.845291 2.29333 5.722842 2.9987 1.372679 6.41152.718115 9.57112.47259 2.33377-.315381 4.90657-1.613294 5.49424-4.075815-.0305-1.41853-1.64673-1.988171-2.77539-2.304687-1.47679.114472-2.23057 1.782122-3.69975 2.036634-1.9694.804425-4.836.793364-6.12251-1.181166-.1885-1.368177 1.62584-.967504 2.47615-1.067823 3.27189-.0072 7.17079.562113 9.75041-1.93413 1.89294-1.94422 2.86939-5.446655.89258-7.658203-3.14432-2.177923-7.15095-1.209262-10.70508-1.537109zm-18.07031 4.021484c1.88064-.144712 4.35617 1.423077 3.58023 3.554965-.60539 2.102616-1.33462 4.753883-3.78726 5.314176-1.79042.483499-4.62269.239151-5.05469-1.964844.48272-1.476441.6855-3.053032 1.14062-4.523437.66172-1.555316 2.49987-2.402017 4.1211-2.38086zm22.65234.136719c.86107.05611 2.5163.491092 2.15039 1.595703-1.52497 1.464506-3.82549.601714-5.71094.958984-.74515.03432-1.60872.171509-2.24023-.324218.9577-2.030054 3.82459-2.416391 5.80078-2.230469z" fill="#fef80d"/><path d="m176.04416 3.26719c-32.95398 2.7116649-66.26343 12.426432-92.881666 32.575347-17.448376 12.87334-30.79578 33.770411-28.405318 56.182661.66471 17.166472 11.456076 32.135722 23.729009 43.280702 15.843772 13.04662 34.684965 22.66456 54.523815 28.09528 10.6434 3.37164 22.1574 5.86961 33.42914 7.13746 18.9174 2.08348 38.06338 1.24845 57.07184.93953 24.23695-1.6554 48.18867-8.33932 69.97794-18.70038 21.43583-10.78577 42.3923-27.08145 49.16918-51.1037 2.03564-9.512108 2.25331-20.137312-.36855-29.757132-7.32967-23.460598-27.7794-39.480943-49.04468-50.008529-14.6864-6.986999-30.17984-12.4636053-46.20535-15.1523623-19.77352-5.2084033-40.63272-3.4462235-60.95469-3.7152184-3.34747.0454-6.69464.1175453-10.04067.2263417zm37.61484 4.7936966c38.38359 2.5395484 78.6776 12.9148104 107.22007 40.0956984 15.18013 14.591952 23.4817 38.257823 13.94725 58.177875-12.82929 28.0064-42.52121 42.89193-70.54982 51.69849-46.74116 13.52561-98.14667 12.37492-143.77885-4.85553-25.063694-10.08893-51.261373-26.69747-59.06512-54.191209-6.708754-24.541366 9.857231-48.627894 29.57658-61.746951 35.62921-24.150102 80.34547-31.36488 122.64989-29.1783734z" fill="#fff"/><path d="m188.534 5.969c-5.194.167-9.817.458-10.766.676-.385.089-2.315.284-4.289.435-1.974.15-4.14.391-4.814.536s-2.131.348-3.238.451c-2.053.191-3.579.43-3.86.604-.086.053-1.351.254-2.811.446s-2.8.427-2.978.522c-.178.096-1.212.297-2.296.448-1.085.15-2.237.384-2.56.519-.324.135-1.348.36-2.276.499s-1.976.374-2.329.522-1.219.358-1.926.468c-.706.109-1.638.337-2.072.505-.433.168-1.339.406-2.013.529-.674.122-1.434.328-1.689.457s-1.121.386-1.925.572-1.817.461-2.25.611c-1.399.484-3.032.991-4.376 1.358-.722.197-1.398.428-1.501.514s-.694.283-1.313.438c-.619.156-1.292.389-1.497.519-.204.13-.834.357-1.4.504-.566.148-1.341.428-1.722.624-.382.195-.815.355-.963.356-.148 0-.742.236-1.32.524s-1.176.524-1.33.525c-.155 0-.651.197-1.104.438s-.919.438-1.037.438-.685.233-1.26.519-1.124.523-1.221.526c-.096.003-.722.281-1.39.618-.669.337-1.348.612-1.51.612-.163 0-.39.114-.506.254-.116.139-.499.348-.853.464-.614.201-2.251.964-3.181 1.483-.24.134-.713.365-1.05.514-.337.148-.731.348-.875.445-.145.096-.657.376-1.138.623-.481.246-1.348.713-1.926 1.039-.577.325-1.404.763-1.838.973-.433.21-.827.439-.875.509-.048.069-.403.298-.788.509-.385.21-1.133.65-1.663.977-.529.328-1.322.791-1.761 1.028-.44.238-.902.557-1.028.709s-.318.277-.427.277c-.108 0-.473.237-.81.526s-.77.574-.963.634c-.192.06-.468.219-.612.354-.28.261-1.15.886-2.014 1.446-.288.187-.643.453-.787.591-.145.138-.438.343-.653.454-.214.112-.58.379-.813.594-.232.214-.795.665-1.25 1.002-4.017 2.976-9.697 8.348-14.051 13.289-.729.828-3.111 3.983-3.473 4.601-.108.184-.364.491-.569.682s-.373.46-.373.597c0 .138-.236.519-.525.848s-.525.68-.525.781c0 .1-.186.404-.414.677-.228.272-.469.672-.537.889s-.304.611-.524.876c-.22.264-.494.769-.61 1.122-.115.354-.319.734-.454.846-.134.112-.336.492-.447.845-.112.354-.383.919-.603 1.256s-.449.897-.51 1.245c-.06.348-.26.768-.443.934-.184.167-.387.63-.451 1.031-.065.401-.266.987-.448 1.303s-.45 1.087-.595 1.714c-.146.626-.378 1.359-.518 1.628-.139.269-.376 1.192-.527 2.05s-.396 1.907-.544 2.33c-.943 2.698-.943 15.895 0 18.593.148.423.389 1.451.536 2.284s.415 1.858.597 2.276c.181.418.385 1.115.451 1.548.067.433.272 1.048.456 1.367.183.318.423.948.532 1.4.11.452.341.979.515 1.172.173.192.387.665.474 1.05s.368 1.007.623 1.381c.256.375.466.808.468.963s.238.629.525 1.052c.287.424.522.903.522 1.064s.19.472.423.69c.232.219.474.602.536.851.063.249.306.681.54.959.235.279.427.589.427.689s.236.452.525.781.525.688.525.799.169.381.374.6c.206.219.462.551.569.736 2.354 4.082 11.474 13.388 17.525 17.882.454.337.994.778 1.2.98.207.202.573.468.813.593.241.124.556.335.701.469.325.301 1.32 1.007 1.995 1.415.279.168.631.444.783.613.151.168.37.306.486.306.115 0 .433.188.706.417.473.398.816.626 2.138 1.421.32.193.83.524 1.132.736.302.213.786.51 1.075.66.289.151.958.545 1.488.877.529.331 1.356.805 1.838 1.054.481.248 1.348.718 1.925 1.044.578.326 1.405.762 1.838.968.434.207.906.477 1.051.601.144.124.533.316.864.427.33.111.728.317.884.458.155.14.629.378 1.053.527.423.15.892.378 1.041.508s.587.336.972.457c.385.122.902.363 1.148.536.247.173.68.37.963.438s.83.301 1.215.517c.385.217 1.015.491 1.4.611.385.119.819.317.963.44.144.122.657.343 1.138.489s1.187.43 1.569.63c.381.2.815.363.964.363s.624.187 1.057.416c.432.228 1.235.544 1.784.702s1.041.357 1.093.443c.053.085.51.252 1.016.371s1.204.36 1.552.535c.349.174 1.018.412 1.488.527.471.115 1.131.342 1.468.504.337.163 1.085.395 1.663.516s1.226.332 1.441.468c.214.137.946.365 1.626.508.679.143 1.467.38 1.749.526.283.146 1.116.38 1.852.521s1.434.336 1.552.434.988.337 1.933.532c.946.194 1.81.429 1.921.521s.946.296 1.854.452c.909.157 1.923.398 2.255.536.331.138 1.328.368 2.216.511.887.143 1.937.374 2.334.514.396.14 1.565.375 2.598.522 1.032.147 2.192.378 2.577.513s1.548.336 2.584.446c1.036.111 2.458.348 3.161.528s2.021.381 2.931.448c.909.067 2.44.27 3.403.452s2.814.414 4.114.514c2.655.205 4.792.431 6.477.684 6.259.939 37.854.818 42.672-.163.456-.093 2.365-.287 4.243-.431 1.877-.145 4.24-.415 5.251-.601 1.011-.185 2.744-.424 3.851-.53 1.108-.105 2.387-.305 2.843-.444s1.638-.339 2.626-.444c.988-.104 2.348-.341 3.022-.526.673-.185 1.879-.423 2.678-.53.799-.106 1.774-.306 2.166-.445.392-.138 1.51-.378 2.485-.533.976-.154 1.97-.382 2.211-.506s1.068-.323 1.838-.442c.77-.12 1.755-.361 2.188-.537.434-.176 1.291-.408 1.906-.514.615-.107 1.482-.337 1.926-.511s1.162-.375 1.595-.446c.433-.07 1.221-.307 1.75-.526.53-.219 1.318-.456 1.751-.525.433-.07 1.118-.276 1.521-.457.404-.182 1.152-.419 1.663-.527.512-.109 1.206-.336 1.543-.504.336-.169 1.016-.393 1.511-.498.494-.105 1.163-.341 1.488-.525.324-.184.983-.428 1.464-.543.482-.114 1.033-.31 1.226-.434.192-.125.814-.361 1.381-.526s1.197-.403 1.4-.53c.204-.128.685-.327 1.07-.444s1.09-.401 1.566-.632.961-.42 1.076-.42c.116 0 .66-.236 1.209-.525s1.137-.525 1.307-.525.497-.146.726-.325c.23-.178.825-.458 1.324-.622.498-.164.998-.41 1.111-.546.114-.137.475-.299.803-.36.328-.062.788-.263 1.021-.446.234-.184.75-.449 1.148-.59.398-.14.925-.414 1.173-.609.247-.194.586-.353.752-.353s.594-.198.95-.44c.357-.242.924-.555 1.26-.696.337-.141.815-.415 1.063-.61s.588-.355.756-.355.413-.131.545-.291c.133-.16.635-.478 1.116-.707s1.308-.688 1.838-1.021 1.258-.736 1.619-.895c.361-.16.657-.356.657-.436s.374-.346.831-.592c.458-.245 1.154-.66 1.548-.922.394-.261.985-.647 1.313-.857.602-.385.86-.564 2.61-1.815.529-.378 1.222-.866 1.539-1.083.317-.218 1.077-.79 1.689-1.272.611-.481 1.494-1.167 1.961-1.524 1.074-.819 1.677-1.314 2.409-1.977.319-.289 1.623-1.47 2.9-2.626 1.276-1.155 3.227-3.085 4.335-4.288 1.109-1.204 2.4-2.597 2.869-3.096s.853-.989.853-1.09c0-.1.197-.312.438-.469.241-.158.438-.386.438-.506s.186-.406.413-.636.542-.67.7-.978.395-.623.526-.7.37-.396.53-.709.366-.569.459-.569c.092 0 .286-.283.43-.629.145-.345.461-.863.703-1.151.242-.287.44-.604.44-.703s.197-.414.438-.7c.24-.286.437-.621.437-.745s.237-.523.525-.886c.289-.364.526-.802.526-.974s.189-.537.42-.812.507-.82.612-1.211.34-.846.521-1.01c.182-.164.378-.598.437-.964.058-.366.254-.855.435-1.086.18-.231.458-.869.617-1.418.158-.549.361-1.042.45-1.097s.297-.709.462-1.453c.165-.745.441-1.629.613-1.966s.395-1.218.495-1.958c.1-.739.296-1.645.434-2.013 1.115-2.955 1.115-16.062 0-19.018-.138-.367-.334-1.273-.434-2.013-.1-.739-.327-1.626-.503-1.97s-.416-1.093-.532-1.663-.357-1.276-.535-1.568c-.177-.292-.408-.913-.513-1.381-.105-.467-.346-1.047-.537-1.289-.19-.242-.394-.74-.452-1.106-.059-.367-.255-.8-.437-.965-.181-.164-.416-.618-.521-1.009-.105-.392-.381-.937-.612-1.211-.231-.275-.42-.646-.42-.823 0-.178-.199-.56-.443-.849-.243-.289-.532-.787-.642-1.108-.11-.32-.345-.685-.521-.81-.176-.126-.32-.337-.32-.468 0-.132-.198-.475-.44-.762-.242-.288-.558-.806-.703-1.152-.144-.345-.338-.628-.43-.628-.093 0-.299-.256-.459-.569s-.399-.632-.531-.71c-.132-.077-.389-.432-.571-.787-.181-.356-.496-.798-.699-.981-.202-.183-.368-.43-.368-.549 0-.118-.197-.344-.438-.502s-.438-.371-.438-.475c0-.103-.216-.4-.481-.659s-1.387-1.479-2.494-2.712c-1.797-1.999-4.547-4.669-7.615-7.392-.578-.512-1.217-1.092-1.419-1.288-.203-.196-.418-.356-.478-.356-.113 0-2.725-2.034-3.37-2.624-.201-.183-.575-.429-.831-.546-.257-.117-.467-.271-.467-.343s-.335-.337-.744-.589-1.098-.732-1.532-1.066c-.433-.334-.945-.678-1.137-.765-.193-.086-.641-.382-.995-.657-.355-.275-1.05-.736-1.546-1.025-.495-.289-1.15-.699-1.455-.912-.306-.212-.792-.509-1.081-.66-.289-.15-.958-.544-1.488-.876-.53-.331-1.357-.806-1.838-1.054s-1.269-.681-1.751-.962c-.481-.281-1.302-.716-1.824-.967-.523-.251-1.144-.609-1.381-.795s-.567-.339-.733-.339c-.167 0-.506-.159-.753-.354-.248-.194-.775-.468-1.173-.609-.398-.14-.914-.405-1.148-.589-.233-.184-.693-.384-1.021-.446-.328-.061-.689-.224-.803-.36-.113-.137-.613-.381-1.111-.543-.499-.162-1.024-.393-1.169-.513-.144-.12-.577-.315-.962-.434-.386-.119-.942-.354-1.238-.523-.295-.168-.965-.446-1.488-.616-.523-.171-1.031-.374-1.13-.451-.202-.159-2.028-.873-3.831-1.498-.665-.231-1.296-.492-1.403-.58-.106-.088-.586-.257-1.066-.374-.48-.118-1.158-.356-1.506-.53s-1.017-.41-1.488-.525c-.47-.115-1.131-.346-1.467-.513-.337-.168-1.086-.399-1.664-.516-.577-.116-1.225-.323-1.44-.459-.215-.137-.924-.361-1.576-.499-.651-.137-1.539-.404-1.973-.591-.433-.188-1.18-.398-1.66-.466s-1.102-.242-1.381-.386c-.28-.145-1.259-.414-2.176-.598-.917-.185-1.758-.411-1.868-.503-.111-.092-.945-.295-1.854-.452-.908-.156-1.923-.397-2.254-.535-.331-.139-1.329-.368-2.216-.511s-1.938-.374-2.334-.514-1.565-.375-2.598-.522c-1.033-.147-2.192-.378-2.578-.513-.385-.135-1.566-.338-2.625-.45-1.059-.113-2.517-.353-3.239-.534s-2.274-.412-3.448-.514c-1.175-.102-2.639-.302-3.255-.445s-2.727-.381-4.692-.529c-1.965-.147-3.953-.346-4.419-.441-3.347-.683-21.103-1.051-32.676-.678m23.551 4.01c2.603.095 5.557.285 6.565.423 1.007.138 3.171.343 4.807.455 1.637.113 3.646.318 4.464.457.819.138 2.891.405 4.605.591 1.715.187 3.186.383 3.269.434.238.147 1.853.428 3.585.624.871.098 1.967.293 2.437.432.47.14 1.73.382 2.801.538 1.07.156 2.089.36 2.263.452s1.159.314 2.188.494c1.03.179 2.187.439 2.572.577.385.139 1.291.351 2.013.472s1.668.358 2.101.526 1.332.399 1.997.513c.666.115 1.414.313 1.663.441.25.128 1.067.358 1.817.512.75.155 1.538.375 1.751.49.213.114.938.347 1.612.515 1.329.333 2.992.874 4.377 1.423.481.191 1.271.445 1.754.565.484.12 1.114.338 1.401.484.286.146.993.401 1.571.567s1.139.374 1.247.462c.108.089.62.285 1.138.436.517.151 1.105.379 1.305.507s.784.357 1.299.51c.514.152 1.099.384 1.299.514s.679.338 1.064.462 1.054.412 1.487.639c.432.228.865.414.96.414.096 0 .609.208 1.139.461 1.63.778 3.037 1.434 3.679 1.715.337.147.731.342.875.432.145.091.578.317.963.503s.976.472 1.313.635.81.408 1.05.545c.241.136.832.449 1.313.696.482.246 1.319.702 1.862 1.013.542.311 1.734.979 2.649 1.484.914.506 1.76 1.038 1.879 1.182.12.144.315.262.435.262.119 0 .499.217.845.481.345.265.958.679 1.361.919.708.423 1.921 1.208 2.706 1.751.209.144.804.554 1.324.911.519.356 1.259.886 1.644 1.176.385.291.896.669 1.135.84s.567.43.73.574c.162.144.667.538 1.121.875 1.885 1.397 3.41 2.721 7.231 6.279 1.924 1.791 2.079 1.999 1.804 2.431-.121.191-241.889.366-242.05.175-.395-.471-.188-.837 1.187-2.1.795-.732 1.896-1.75 2.447-2.263.55-.513 1.282-1.169 1.627-1.458.344-.289.851-.722 1.126-.963 1.381-1.21 2.994-2.494 3.955-3.151.353-.241.809-.595 1.014-.788.205-.192.662-.547 1.016-.788.354-.24 1.33-.91 2.169-1.488 1.553-1.069 2.177-1.476 3.212-2.1.319-.193.86-.567 1.201-.832.341-.264.721-.481.845-.481s.448-.179.72-.398.77-.539 1.107-.712c.928-.476 1.673-.899 2.22-1.26.501-.331 1.64-.955 2.594-1.422.289-.141.644-.333.788-.426s.735-.404 1.313-.69c.578-.287 1.168-.594 1.313-.682.622-.379 3.226-1.587 3.42-1.587.117 0 .311-.118.43-.262.119-.143.542-.348.939-.455s.924-.339 1.172-.515c.247-.176.681-.375.964-.44.283-.066.83-.297 1.215-.514.385-.216 1.015-.492 1.4-.613s.937-.359 1.226-.53c.289-.17.801-.365 1.138-.433s.794-.239 1.017-.38c.222-.141.931-.441 1.575-.666s1.841-.659 2.659-.965c.819-.305 2-.705 2.626-.888s1.345-.451 1.598-.597c.253-.145.883-.354 1.4-.464.518-.109 1.219-.34 1.559-.512.34-.171 1.05-.392 1.579-.49.528-.097 1.353-.332 1.832-.52.48-.189 1.345-.44 1.923-.559.577-.118 1.247-.316 1.488-.44.24-.123 1.14-.355 2-.516.859-.161 1.765-.396 2.013-.523.248-.126 1.041-.327 1.763-.446.723-.118 1.747-.356 2.276-.529.53-.172 1.585-.407 2.345-.522.761-.115 1.706-.324 2.101-.464s1.348-.333 2.119-.429c.77-.096 2.188-.358 3.151-.582.962-.224 2.504-.494 3.426-.6.921-.106 2.142-.308 2.713-.448.571-.141 2.259-.379 3.751-.528 1.493-.15 2.989-.352 3.326-.45.337-.097 2.228-.296 4.202-.443 1.973-.146 4.534-.387 5.689-.536 4.189-.541 21.916-.776 31.691-.421m-54.871 8.351c-1.19386.188901-2.33124.803172-3.359 1.186-.63912.35165-1.23926.748245-1.705 1.237-.35354.375107-.70765.656571-1.007.998-.66586 1.016966-1.00074 1.984572-1.47 2.978-.858 1.091-.882 5.454-.034 6.403.259.29.707.858.996 1.261.288.404.728.942.977 1.195s.547.637.663.854c.115.217.298.394.406.394s.461.202.785.449c1.286.981 3.244 1.337 7.143 1.298 1.927-.018 3.603-.026 3.724-.015.246.021.292.857.066 1.213-.266.42-1.467.548-5.187.551-3.923.003-5.39333.06687-5.72033-.548126-.61492-.762-.61737-.926772-1.45052-1.557146-.29249-.221297-.48103-.291679-.91815-.497728-.90358-.640223-1.68344-.631592-2.3075-.611748-.49756.144418-1.06906.469661-1.3045.996748-.46101.770119-.68446 1.025765-.918 2.061-.0969.97601-.0629.94932.103 1.867.23907.677019.46778 1.354102.782 1.924.58987.937875.82525 1.208125 1.669 2.124.25476.276538 1.602 1.755 2.43 2.091 1.202.489 14.157.601 15.613.136.426-.137.984-.294 1.238-.349.382-.083 1.596-.922 2.114-1.461.637-.662 1.238-1.596 1.842-2.864.952-1.996 1.307-2.123 1.787-.635.116.362.363.739.548.838.184.099.336.256.336.35 0 .24 2.014 2.613 2.683 3.16 1.255 1.029 3.121 1.436 6.012 1.313 1.428-.061 3.817-.134 5.309-.163 1.492-.028 3.12-.115 3.616-.192l.903-.141.457.69c.896 1.354 1.165 1.452 3.989 1.451 2.98 0 3.546-.205 3.724-1.347.203-1.301.436-1.547 1.411-1.488 6.513.391 8.319 0 10.825-2.345.421-.394.867-.996.991-1.338.664-1.838 1.808-2.311 2.176-.899.099.379.337.858.53 1.063.192.206.625.753.962 1.216.639.878 1.761 2.034 2.366 2.439 2.489 1.665 11.906 1.007 14.002-.979.655-.621 1.444-.388 2.025.597.672 1.138 1.257 1.332 4.027 1.332h2.444l.245-.569c.457-1.06.955-2.839 1.215-4.333.142-.818.374-1.764.515-2.101s.311-1.046.379-1.575c.504-3.937 2.438-5.470125 7.413-5.573.64513-.121125 1.02925-1.063 1.601-2.271.20538-.512.30963-.725.44-1.308.0785-1.283875.16475-1.253375-1.112-3.049-1.022-1.268-1.62804-1.515476-3.03153-1.63633-2.90314-.236039-3.79634.288291-5.26119.772592-.90039-.695136-1.42006-.99001-2.86706-.98901-2.35403.510233-2.46195.689926-3.0325 2.040955-.21334 1.067865-.74534 2.120243-1.03258 3.160862-.718 1.74131-.74214 1.473931-3.11614-2.182069-1.092-1.68-4.98-2.391-10.725-1.961-2.519.188-2.712.229-3.473.733-.443.293-.861.533-.929.533-.259 0-1.568 1.892-1.674 2.417-.06.303-.218.641-.351.752-.133.11-.242.312-.242.449 0 .354-.84 1.151-1.066 1.011-.103-.064-.339-.442-.523-.841-.32177-.729089-.47571-.962869-1.16369-2.305018-.481-.778-.57816-1.261536-1.92024-2.26883-1.37286-.447633-2.90301-.918996-3.77131-1.135038-1.51493-.406014-3.68724-.20087-4.36624.165084-.567.305-2.40119-.07915-3.51619-.365154-1.454-.373-3.13071.213508-3.42271.563508-.57041.492379-.72494.504788-1.21484 1.015616-.84121 1.003874-1.21078.927832-1.67278-.376168-.266-.75-1.10824-1.327862-3.38324-1.328862-2.788-.001-2.99262.222452-3.46304 2.445345-.68283 2.602592-.85492 3.297079-1.389 5.436276-.4688 1.862862-.9309 3.271156-1.49375 5.034965-.45632.898-.38352 1.000517-1.17552 1.225517-2.39.679-3.11086.123-2.76645-1.423241.157-.416.405-1.347.55-2.069s.445-1.943.666-2.714c.22-.77.492-1.901.604-2.512.111-.612.262-1.273.334-1.468.234-.634-1.264-2.847-2.292-3.386-.759-.398-4.664-.351-4.818.058-.57175.152-1.043 1.704-1.509 2.293-.245.31-.578-.626-.744-2.092-.083-.737-.247-1.214-.533-1.555-.96795-1.553484-.69757-1.742497-2.032-3.42275-.105 0-1.1275-1.14575-2.118-1.17525-.544-.388-9.426-.631-13.054-.357m12.852 1.141c.385.263.779.565.875.67.096.106.378.403.626.66.26.27.575.93.744 1.56.676 2.517.297 3.022-2.267 3.022h-1.637l-.429-.679c-.639-1.012-.974-1.072-6.067-1.072-5.773 0-6.258.186-7.018 2.686l-.365 1.201.552.551.552.551 5.904-.055c6.592-.061 6.007-.158 7.556 1.248.702.637.981 1.197 1.603 3.227.113.369.116.86.007 1.4-.971 4.831-2.047 6.639-4.747 7.974l-1.134.561h-7.549-7.549l-.769-.687c-1.901-1.697-1.802-5.852.151-6.342.597-.15 1.48086.155243 1.79022.381097.10015.07312.37178.290903.60978.398903.238.109.542.46.676.781.134.32.496.794.803 1.053l.559.47 5.023-.083c5.518-.091 5.903-.131 6.173-.634.101-.189.359-.41.573-.492.35-.133 1.03-1.837 1.191-2.986.059-.42-.599-1.378-1.076-1.566-.247-.098-2.92-.195-6.127-.223l-5.689-.049-1.152-.613c-1.529-.813-2.387-1.786-2.609-2.96-.27863-1.761-.0789-2.467.49975-4.31075.41153-.778668.56458-1.10867 1.027-1.996875.71648-1.189445 1.11401-1.711116 1.66788-2.084375 1.18543-.897185 2.05156-1.203466 3.27637-1.677 1.33938-.399375.734-.429 6.918-.396 2.26665.26182 4.39366.122393 6.827.511m10.878 6.208c.294.702.0547 1.116654-.395 3.364-.136.329-.331 1.156-.431 1.838-.42497 1.877103-1.055 5.108934-1.242 5.689934-.17634 1.77017-.16124 1.82741 2.431 2.581066.64968.09939.65823.117099 1.4489.239489.70194-.01821.67313-.02582 1.1631-.09049.43694-.122116.757-.262 1.07-.263.649-.001 1.969-1.055 1.969-1.573.92427-2.985816.50002-1.573283 1.25862-4.217858.55086-2.587312.89121-3.654348 1.62738-6.686142.36807-1.241069 1.089-1.561 2.65-1.493l1.204.052.256.739c.236.686.226.832-.144 2.013-.219.701-.546 2-.726 2.886s-.415 1.775-.523 1.975c-.107.2-.307 1.006-.445 1.79-.138.785-.401 1.866-.585 2.402-.183.536-.387 1.38-.454 1.876-.135 1.013-.99 3.605-1.32 4.003-.303.364-1.94.331-3.21-.065-.967-.302-1.057-.304-1.604-.024-1.453.74-6.831.568-8.071-.259-2.074-1.383-2.725-2.623-2.374-4.525.22099-1.200009.20177-1.68047.26853-2.113291.004-.02446.0912-.213536.0688-.231124-.0645-.05053-.15562-.06842-.2458-.124729-.0788-.04921-.34072-.15122-.38977-.1522-.0989-.002-.15553.288719-.29534.395344-.507.476-.69338.059-.87538-1.031-.4111-1.080535-.38548-.976185-.69203-1.746493-.5589-.960712-.53975-1.109628-.92543-1.700014-.78515-1.483652-.79979-1.735911-1.59993-2.241908-.31749-.200779 1.13484-.127846 2.93539-.09959 3.11762.08278 2.798-.022 2.416 2.843-.5227 1.980558-.79951 2.940992-.94123 3.483991-.0177.06777.2785.19538.35933.236861.12195.06254.25191.141294.25848.106968.024-.125569.20745-.255302 1.01842-3.74482l.443-1.831c.50429-2.436133.67845-2.893118 1.02052-3.963724.201-.03.4222-.419311.71748-.556276.46979-.243207.60116-.05884 1.54376-.229931l1.16552.272345.19572.175586m21.894-.185c.514.555 2.29359.571028 3.47059-.04197.65292-.27493 1.57479-.358944 3.03264-.113014 1.08835.219028 1.55177.408521 2.52593.686591.86829.355135 1.00501.470685 1.6788.967409.26756.297619.44204.536112.60804.849112s.45101.993591.59001 1.234591c.20645.761577.17495 1.507734-.06 2.520283-.148.385-.412 1.382-.589 2.214-.176.832-.439 1.699-.582 1.925-.144.227-.318.689-.387 1.025-.28 1.379-2.422 4.023-3.562 4.396-.35.115-.808.321-1.018.457-.923.6-6.576.69-7.671.122-1.192-.619-1.838-.034-1.838 1.662 0 1.173-1.027 1.658-3.211 1.516-1.904-.124-2.254-.659-1.518-2.322.199-.451.476-1.472.615-2.269.139-.796.373-1.736.52-2.088.148-.353.35-1.163.449-1.801s.332-1.633.518-2.211c.186-.577.43-1.602.543-2.276.112-.673.349-1.595.526-2.048.36707-1.339804.40046-1.984567 1.12007-3.472972 1.20585-1.116943 2.63793-1.242747 4.23893-.932028m42.1.133.475.595 1.276-.369c1.14567-.508388 2.32674-.817269 3.304-.82l1.53375.109375.39625.640625c.821 1.22125-.253 3.101-2.358 3.101-1.481 0-2.831.314-3.42.795-1.141.931-1.915 1.827-2.12 2.452-.125.381-.335.858-.468 1.062-.132.204-.358 1.045-.502 1.869-.144.825-.371 1.761-.504 2.081s-.365 1.294-.515 2.165c-.576 3.341-.995 3.807-3.348 3.72-1.812-.067-2.081-.43-1.593-2.146.166-.581.486-1.884.713-2.895.53385-1.890405.85302-2.961257 1.123-4.321.19244-1.192083.45518-2.104934.86052-3.545759.45854-1.232079.54226-1.512497.98276-2.875.44565-1.853931 2.91372-3.185241 4.16372-1.618241m-12.63192.76879c.80647.246684 1.42473.251077 2.53195 1.067003.26384.194423.54225.612035.79625.978035 1.403 2.025-.67328 5.722172-3.80328 7.077172l-1.255.543h-4.052c-4.451 0-4.73.054-4.73.913 0 1.783.659 2.157 3.764 2.137 2.912-.02 3.398-.178 5.262-1.714.735-.607 1.231-.558 2.405.234 1.079.728 1.188 1.594.316 2.511-1.661 1.748-1.654 1.743-3.532 2.34-2.196.699-8.279.732-9.803.053-1.418-.631-2.049-1.241-2.543-2.458l-.433-1.064.369-2.307c.36923-2.130071.38139-3.008323.97009-4.530194.295-.64333.66787-1.530049 1.42659-3.190903.51452-1.290685 1.33147-1.751539 2.38438-2.470819.90721-.240888 2.5558-.178997 6.35746-.280083m-61.05752 1.696999c-.247.247-.336.243-.937-.043l-.664-.317.681-.198c.853-.249 1.397.081.92.558m36.461 1.315c-2.07.829-3.998 6.069-2.986 8.115.495 1.002 3.9382 1.733507 5.477 1.037042 1.40902-.96894 1.80721-1.30825 2.383-2.123042.32511-.584268.61562-1.163954.785-1.733.061-.464.191-1.21.289-1.658.375-1.71-.188-3.011-1.549-3.587-.648-.274-3.753-.31-4.399-.051m21.592-.06c-1.455.359-3.251 2.151-2.618 2.614.673.492 7.475.324 8.098-.201.994-.836.424-2.138-1.067-2.436-.604-.121-3.899-.104-4.413.023m-16.815 3.588c.438.626.28052 1.241594-.0729 2.099353-.34659.588717-.49807.878689-.6981 1.167647-1.09382 1.137084-2.427 2.102-3.28 1.818-.866-.289-.94145-1.152725-.509-2.387.1372-.398697.17665-.545063.42099-1.123754.44682-1.058244 1.41401-1.442246 2.40001-1.680246 1.408-.341 1.427-.339 1.739.106m28.114 5.991c-.298.359-.65.345-.862-.034-.124-.222-.094-.392.111-.619.398-.439 1.129.197.751.653m86.081 14.917c.601.367.985.799 2.545 2.856 1.358 1.792 1.524 2.022 2.284 3.162.277.415.572.839.657.943.322.395 1.379 2.067 1.379 2.181 0 .066.259.522.576 1.014 2.779 4.313 5.32 11.546 6.292 17.913.26 1.702.26 9.848.001 11.553-.524 3.434-1.836 8.469001-2.569 9.854001l-.389.737-134.284.044-134.284.044-.352-.448c-.62-.788-1.581-3.875001-2.285-7.342001-1.578-7.778-.886-16.76 1.84-23.855.232-.604.421-1.193.421-1.311 0-.117.189-.607.42-1.09s.709-1.508 1.063-2.278c.353-.771.732-1.558.842-1.751.109-.192.417-.744.683-1.225.92-1.666 1.382-2.454 1.856-3.168.261-.394.647-.984.857-1.312.517-.808 1.09-1.62 1.719-2.439.289-.375.801-1.049 1.138-1.497s.78-.983.984-1.188c.204-.206.447-.519.541-.696.093-.177.473-.492.844-.7l.675-.379 123.035.044c114.308.04 123.069.064 123.511.334m-202.94305 3.129004c-2.855.494-7.549 1.966-8.66 2.716-.241.163-.635.355-.875.427-.241.072-.69.319-.999.55-.308.231-.717.478-.907.549-1.313.487-5.7 4.372-6.81 6.03-1.172 1.752-1.459 2.224-2.033 3.348-2.546 4.98-2.729 15.529-.336 19.341.141.223.358.697.484 1.054.607 1.721 3.116 4.741 5.355 6.446 3.758 2.861 12.677 5.302 13.431 3.675.415-.895 1.105-2.896 1.276-3.697.101-.477.257-.955.345-1.062.19-.228.691-2.275.694-2.836.004-.546-.563-.852-2.185-1.181-4.39-.889-8.322-3.432-10.102-6.532-.738-1.286-.826-1.542-1.226-3.567l-.375-1.9.397-2.318c.773-4.516 2.58-7.417 6.499-10.437 3.303-2.545 8.394-3.56 14.538-2.898l.979.105.556-1.394c.306-.767.671-1.778.811-2.247.14-.468.414-1.164.609-1.545.495-.967.477-1.976-.039-2.194-2.115-.896-7.556-1.102-11.427-.433m113.667.003c-.447.242-.836 1.102-.838 1.855-.001.158-.162.809-.359 1.447-.197.637-.509 1.808-.693 2.6-.546 2.355-1.042 4.324-1.487 5.905-.231.819-.472 1.843-.537 2.276s-.227 1.064-.359 1.401c-.133.337-.389 1.282-.569 2.1-.554 2.514-1.073 4.59-1.423 5.69-.184.577-.447 1.601-.585 2.275-.139.674-.413 1.816-.61 2.539-1.105 4.048-1.295 4.871-1.425 6.161-.162 1.602.035 3.615.422 4.311.142.258.375.705.516.994.496 1.014 2.895 3.097 4.132 3.588.337.134.959.425 1.383.647 1.368.717 2.124.578 2.812-.515.589-.936 1.284-1.988 1.757-2.66.144-.205.42-.635.612-.955.193-.321.602-.891.909-1.267.741-.909.566-1.568-.529-1.99-1.253-.484-2.563-2.018-2.57-3.012-.003-.341.49-2.421 1.132-4.777.382-1.403.581-2.201 1.25-5.033.423-1.789 1.145-4.064 1.324-4.175.087-.054 1.121-.293 2.298-.53 2.703-.547 3.303-.828 3.493-1.641.156-.664.82-2.885 1.284-4.289.808-2.447.716-2.538-2.561-2.538-2.371 0-2.772-.252-2.19-1.378.138-.267.384-1.149.546-1.961.162-.811.401-1.735.532-2.054.13-.318.356-1.209.503-1.981.146-.772.385-1.573.53-1.78.351-.502.333-.755-.086-1.174-.463-.463-7.783-.53-8.614-.079m17.123-.009c-.182.137-.406.275-.497.305-.09.031-.305.723-.477 1.538-.381 1.808-.996 4.271-1.418 5.685-.173.577-.432 1.641-.577 2.363s-.354 1.549-.464 1.838-.35 1.195-.532 2.013c-.377 1.689-.85 3.571-1.476 5.864-.236.867-.546 2.088-.689 2.714-.259 1.14-.618 2.574-1.095 4.376-.14.53-.438 1.711-.662 2.626-.225.915-.583 2.323-.796 3.13-1.343 5.078.49 8.719 5.572 11.067 1.959.905 2.647.913 3.206.039.226-.353.628-.964.893-1.356.265-.393.62-.938.788-1.212s.522-.777.787-1.118.481-.685.481-.765.246-.424.546-.766c.717-.817.506-1.49-.605-1.93-2.568-1.017-2.91-2.563-1.567-7.089.157-.53.464-1.711.682-2.626s.528-2.214.689-2.888c.987-4.128 1.219-4.532 2.706-4.729 2.792-.37 4.284-.997 4.464-1.874.065-.316.348-1.253.628-2.083.281-.83.51-1.658.51-1.841s.162-.634.36-1.004c.821-1.532.325-1.861-2.806-1.861-2.274 0-2.709-.243-2.214-1.237.153-.306.4-1.158.549-1.892s.422-1.808.606-2.385c.185-.578.416-1.502.513-2.053.098-.551.3-1.24.451-1.53.338-.654.19-1.338-.319-1.475-.875-.235-7.896-.102-8.237.156m-44.883 9.993c-1.279.231-2.657.568-3.063.749-.406.182-1.053.429-1.439.549-.385.121-.818.318-.962.438-.145.121-.617.387-1.051.592-.715.338-1.222.663-2.424 1.554-1.612 1.195-4.72 4.869-5.191 6.135-.096.259-.303.708-.458.997-1.676 3.112-1.741 9.465-.131 12.779.548 1.127.876 1.773.988 1.943.07.106.355.539.635.963.702 1.063 3.705 4.012 4.659 4.576 4.333 2.561 8.055 3.532 12.307 3.211 2.248-.17 2.467-.362 3.108-2.728.625-2.306 1.094-3.789 1.513-4.784.758-1.796.387-2.211-1.222-1.365-2.355 1.239-6.53 1.197-9.101-.091-1.544-.773-1.426-1.248.543-2.187.448-.213 1.483-.756 2.302-1.207 1.333-.734 3.144-1.705 5.426-2.909.434-.228 1.261-.68 1.838-1.004.578-.324 1.799-.97 2.714-1.437.914-.466 1.781-.941 1.925-1.056.145-.114 1.077-.629 2.071-1.143 4.464-2.309 5.3-2.799 5.697-3.341l.351-.48-.756-1.446c-.779-1.487-1.137-2.023-1.994-2.984-.272-.306-.548-.639-.612-.742-.117-.184-2.192-1.933-3.13-2.638-.668-.501-3.205-1.821-3.501-1.821-.132 0-.548-.157-.925-.349-2.051-1.046-6.654-1.398-10.117-.774m69.267-.021c-3.094.559-6.237 1.832-8.187 3.317-.516.394-1.135.846-1.375 1.004-.519.345-2.385 2.309-3.084 3.246-.438.589-.724 1.016-1.325 1.98-2.36 3.783-2.733 10.644-.78 14.353.227.432.414.875.414.982 0 .108.236.494.525.857.289.364.525.768.525.899 0 .358 3.836 4.164 4.639 4.603.385.211 1.246.695 1.913 1.075.667.381 1.572.808 2.013.948.44.14 1.25.415 1.8.61 1.316.467 4.874.79 6.875.623 1.935-.161 2.387-.513 2.717-2.117.117-.571.298-1.196.401-1.389.104-.193.364-.98.579-1.75.214-.771.564-1.901.776-2.512.572-1.648.257-1.925-1.282-1.125-2.385 1.238-6.291 1.255-8.813.039-1.767-.853-1.696-1.297.373-2.313.808-.397 3.617-1.905 4.639-2.491.241-.138.832-.451 1.313-.694.481-.244 1.309-.688 1.838-.987 1.055-.595 3.957-2.162 5.339-2.882.482-.251 1.348-.722 1.926-1.047s1.444-.793 1.925-1.04c.482-.247 1.348-.715 1.926-1.04.578-.324 1.428-.767 1.89-.983 1.804-.846 1.736-1.348-.692-5.057-.718-1.097-2.231-2.525-4.388-4.141-3.525-2.642-9.46-3.863-14.42-2.968m-137.576.026c-3.05.377-4.775.842-7.265 1.962-1.313.59-1.715.817-3.225 1.821-.77.512-3.132 2.874-3.65 3.652-1.112 1.667-1.338 2.067-1.622 2.874-.17.481-.439 1.178-.598 1.549-1.125 2.621-1.129 10.2-.006 12.371.144.277.261.671.261.875 0 .491.315 1.057.802 1.44.218.171.447.54.508.819.136.618 2.69 3.356 3.68 3.944 3.134 1.862 5.026 2.601 7.701 3.006 4.364.66 7.971-.269 8.484-2.187.094-.35.367-1.345.607-2.211.24-.867.547-2.048.683-2.626.135-.578.304-1.186.374-1.353.27-.641-.616-.758-2.312-.305-7.962 2.123-14.006-3.161-12.392-10.835 1.162-5.524 7.644-8.846 13.484-6.912 4.441 1.472 6.765 6.15 5.348 10.765-.188.612-.499 1.782-.692 2.601-.192.818-.596 2.472-.897 3.676-.301 1.203-.725 2.976-.943 3.938-.217.963-.534 2.168-.703 2.678-.17.511-.26 1.121-.201 1.357l.108.429h3.829c4.596 0 4.444.062 4.83-1.974.142-.749.367-1.576.5-1.838.134-.262.337-1.023.451-1.692.115-.668.352-1.535.528-1.926.175-.39.372-.985.437-1.322s.341-1.401.614-2.364c1.74-6.141 1.667-9.535-.288-13.422-1.693-3.367-5.361-6.592-8.719-7.668-.386-.124-.79-.295-.9-.382-.649-.513-6.605-1.013-8.816-.74m36.86.36c-3.862.658-8.337 4.993-9.637 9.336-.072.241-.28.769-.461 1.173-.182.405-.443 1.274-.581 1.93-.138.657-.336 1.417-.44 1.69-.103.272-.31 1.255-.459 2.184-.37 2.304-1.603 5.632-2.475 6.683-.117.141-.457.549-.756.907-.299.357-1.032.998-1.628 1.423-1.247.89-1.646 1.795-2.14 4.85-.143.882-.337 1.748-.431 1.924-1.75 3.269 7.092 1.542 10.789-2.108 1.244-1.228 1.468-1.486 1.468-1.688 0-.104.188-.464.417-.802.229-.337.515-.913.636-1.279s.36-.909.532-1.205c.172-.297.401-.894.509-1.328.107-.433.308-1.063.446-1.4.264-.647.97-3.343 1.489-5.689 1.083-4.893 3.139-8.503 5.086-8.931.737-.162 1.682-2.302 2.007-4.549.07-.481.237-1.091.372-1.356.283-.558-.021-1.388-.59-1.614-.394-.156-3.466-.268-4.153-.151m13.906.037c-2.965.663-6.294 2.999-7.583 5.321-.21.379-.632 1.133-.937 1.677-1.03 1.833-1.542 3.121-2.085 5.244-.229.897-.456 1.694-.503 1.771-.048.078-.212.919-.364 1.871-.729 4.549-2.39 7.61-5.247 9.666-1.012.728-1.363 1.509-1.757 3.906-.164.997-.407 2.078-.539 2.403-.84 2.058 1.164 2.534 5.22 1.24 3.127-.997 7.143-3.811 7.143-5.004 0-.088.186-.433.413-.769.69-1.017 1.272-2.522 2.368-6.123.198-.651.676-2.528 1.338-5.252 1.143-4.706 2.954-7.774 4.939-8.369l.734-.22.606-1.964c1.202-3.894 1.276-4.763.447-5.206-.461-.247-3.355-.379-4.193-.192m23.161 7.56c.981.199 1.981.501 2.222.672s.727.407 1.08.523c1.133.373 1.411 1.432.495 1.889-1.16.579-1.552.778-2.363 1.199-.481.25-1.348.715-1.925 1.034-.578.318-1.445.785-1.926 1.037-1.316.688-4.435 2.379-5.427 2.942-.481.273-1.269.703-1.75.954-.482.251-1.151.605-1.488.787-1.265.68-1.752.325-1.75-1.278.007-6.511 6.078-11.128 12.832-9.759m69.074-.018c3.736.771 5.588 2.462 3.566 3.257-.362.142-.777.336-.921.429-.145.094-.618.359-1.051.589s-1.3.697-1.925 1.037c-.626.341-1.532.822-2.013 1.07-.482.248-1.27.674-1.751.947-.796.452-3.552 1.93-5.501 2.951-.426.223-.9.52-1.055.659-.543.492-1.696.541-1.941.083-.285-.533-.118-3.428.244-4.218.146-.321.387-.883.535-1.25 1.611-3.994 7.028-6.541 11.813-5.554m51.616 31.451c.675.181.491.944-.768 3.172-.64 1.132-1.283 2.294-1.431 2.582-.148.289-.432.762-.632 1.051-.437.63-.711 1.056-1.113 1.732-.165.279-.501.752-.746 1.051-.245.298-.6.771-.788 1.049-1.732 2.559-4.09 5.308-7.439 8.671-2.83 2.841-6.203 5.781-9.411 8.2-.221.167-.655.503-.963.747-.554.438-1.964 1.405-4.387 3.009-.687.455-1.486.99-1.775 1.189-.289.198-.919.606-1.4.906-.482.299-1.151.718-1.488.93-1.007.635-3.188 1.884-4.464 2.558-.385.203-1.149.616-1.697.918-1.08.596-5.83 2.967-7.669 3.828-2.265 1.062-2.328 1.089-6.302 2.763-1.808.762-3.121 1.27-4.051 1.566-.544.173-1.095.383-1.226.467-.241.156-2.186.856-4.088 1.472-1.974.639-3.851 1.264-4.726 1.574-1.053.372-3.025.948-4.814 1.405-.723.184-1.512.418-1.756.518-.445.184-2.617.728-5.859 1.468-.963.219-2.027.486-2.364.592-.337.107-1.321.319-2.188.473-.866.153-1.805.355-2.085.448s-1.501.331-2.713.529c-1.212.197-2.44.432-2.729.521s-1.667.325-3.064.524c-1.396.199-2.814.433-3.151.521s-2.063.324-3.836.524c-1.773.201-3.286.404-3.363.451-.076.047-2.407.281-5.179.519s-5.788.506-6.702.597c-5.816.576-27.176.579-33.013.006-.859-.085-3.53-.318-5.937-.519s-5.086-.48-5.952-.621c-.867-.14-2.678-.375-4.026-.521-1.348-.147-3.002-.382-3.676-.524-.674-.143-2.17-.385-3.325-.539-1.154-.154-2.162-.32-2.24-.368-.077-.048-1.181-.273-2.452-.501-3.869-.692-8.992-1.822-11.852-2.613-.819-.226-2.04-.548-2.713-.715-1.795-.443-4.076-1.07-5.077-1.395-3.17-1.029-4.659-1.485-4.854-1.486-.122 0-.457-.123-.744-.273-.287-.149-1.036-.422-1.663-.606-.628-.183-1.811-.582-2.63-.885-.818-.303-2.078-.764-2.801-1.026-.722-.261-1.565-.606-1.873-.767s-.662-.294-.787-.294c-.126-.001-.622-.196-1.103-.433-.482-.236-.951-.433-1.043-.436-.187-.006-1.751-.701-6.31-2.804-1.501-.693-5.227-2.561-6.652-3.335-.577-.314-1.404-.764-1.838-.999-.433-.236-1.181-.654-1.663-.93-.481-.276-1.229-.705-1.663-.952-1.797-1.028-6.062-3.78-7.938-5.121-.304-.217-.85-.594-1.214-.838-.365-.243-.812-.578-.995-.743s-.633-.522-1.001-.792c-1.327-.976-2.652-1.992-2.916-2.236-.147-.137-.552-.485-.899-.774-1.264-1.052-3.913-3.487-6.11-5.616-.164-.159-1.856-1.999-3.609-3.925-.241-.265-.674-.78-.963-1.146-.289-.365-.726-.907-.971-1.203s-.582-.735-.749-.976-.538-.753-.824-1.138c-1.355-1.821-3.233-4.8-4.137-6.565-.222-.433-.681-1.286-1.019-1.896-.688-1.241-.758-1.679-.309-1.941.332-.193 265.187-.272 265.908-.079m-200.04 2.508c-.333.623-.247 43.253.088 43.588.23.23 1.069.279 5.577.324 5.906.059 6.241-.002 6.773-1.24.115-.268.415-.755.667-1.082.252-.328.694-1.003.983-1.5s.692-1.113.895-1.368c.203-.256.509-.74.681-1.077.171-.337.368-.652.438-.7.07-.049.29-.408.488-.8.199-.392.485-.815.636-.94.152-.126.276-.331.276-.457 0-.125.186-.45.413-.722s.553-.771.724-1.108c.172-.337.369-.652.439-.7s.294-.417.498-.82c.205-.402.46-.786.567-.852.107-.067.309-.368.448-.669s.426-.795.638-1.097c.213-.302.544-.81.737-1.129.576-.954.693-1.14 1.16-1.847 1.157-1.751 1.098-1.657 2.332-3.68.285-.466.569-.886.632-.934.064-.049.254-.364.424-.701.169-.337.434-.756.587-.931.298-.339.824-1.177 1.436-2.288.207-.375.526-.842.71-1.04.183-.197.334-.429.334-.515 0-.087.25-.525.555-.974 1.07-1.572 1.173-1.736 1.447-2.324.287-.617.937-1.606 1.386-2.111.144-.162.357-.477.474-.701 1.178-2.249 2.067-2.585 6.856-2.59l3.979-.005.33-.656c.421-.838.704-1.718 1.084-3.366.167-.724.403-1.559.525-1.855.124-.3.17-.745.105-1.007l-.118-.468h-5.292c-8.312 0-11.611 1.227-14.285 5.313-.157.239-.645.973-1.086 1.631-.818 1.221-1.551 2.369-2.175 3.406-.461.766-.972 1.575-1.385 2.191-.183.275-.505.776-.714 1.113-.789 1.274-1.838 2.896-1.992 3.08-.088.105-.298.46-.467.788s-.459.793-.645 1.034c-.187.24-.604.871-.928 1.4-.324.53-.756 1.199-.959 1.488s-.636.958-.962 1.488c-.327.53-.759 1.199-.96 1.488s-.691 1.037-1.09 1.663-1.14 1.771-1.648 2.545-.973 1.535-1.033 1.692-.411.484-.778.728c-1.329.879-1.256 1.787-1.237-15.163.011-9.643-.046-15.124-.159-15.422l-.176-.463h-4.025c-3.815 0-4.034.018-4.208.342m65.736.061c-.394.601-.892 2.154-1.13 3.52-.115.666-.323 1.373-.462 1.571-.297.424-.326 1.044-.071 1.52.171.319.406.338 4.21.338 4.346 0 4.95-.108 5.154-.922.054-.215.203-.863.331-1.441.129-.578.415-1.72.636-2.538.253-.94.357-1.666.28-1.97l-.121-.481h-4.281c-4.277 0-4.282 0-4.546.403m18.987 10.046c-1.107.24-2.328.574-2.714.743-.385.168-.975.411-1.312.538-3.129 1.186-8.928 6.252-8.928 7.799 0 .112-.209.51-.464.884-.256.375-.576 1.105-.712 1.622-.136.518-.419 1.174-.63 1.459-1.157 1.565-.413 9.643 1.11 12.042.092.144.335.578.541.963.802 1.502 3.272 4.103 5.057 5.324 1.043.713 3.279 1.941 3.536 1.941.087 0 .524.166.97.369 5.382 2.452 14.067 1.098 19.548-3.047 1.72-1.3 4.829-4.937 4.829-5.648 0-.112.2-.498.445-.858.244-.36.563-1.167.708-1.793.145-.627.398-1.344.562-1.595.256-.39.298-.953.298-3.963v-3.509l-.577-1.663c-.318-.915-.709-1.86-.868-2.101-.16-.241-.451-.727-.648-1.08-1.473-2.649-4.247-5.186-7.272-6.652-2.302-1.116-3.018-1.368-5.138-1.812-2.806-.587-5.515-.575-8.341.037m-50.188.572c-.409.249-.611.544-.749 1.093-.104.414-.341 1.225-.527 1.803-.186.577-.495 1.72-.686 2.538-.795 3.388-1.23 5.127-1.48 5.91-.145.456-.357 1.302-.469 1.88-.113.578-.348 1.523-.522 2.101-.174.577-.489 1.759-.699 2.625-.211.867-.569 2.324-.795 3.239-.227.915-.607 2.471-.844 3.459-.238.989-.551 2.17-.696 2.626s-.349 1.263-.453 1.792c-.104.53-.361 1.456-.571 2.059-.291.839-.341 1.209-.212 1.576l.168.479 4.111.047 4.111.047.547-.5c.456-.416.583-.713.765-1.79.119-.709.36-1.704.534-2.21s.371-1.297.438-1.758c.068-.461.27-1.237.45-1.725.181-.488.479-1.552.662-2.363.515-2.273 1.073-4.487 1.519-6.028.223-.77.482-1.834.576-2.363.093-.53.261-1.199.372-1.488s.387-1.313.612-2.276c.577-2.467 1.703-6.93 2.185-8.665.39-1.404.334-2.15-.172-2.293-1.124-.316-7.593-.17-8.175.185m21.304-.157c-2.572.63-5.844 3.097-7.24 5.458-.709 1.199-2.038 3.893-2.038 4.132 0 .121-.131.472-.292.78-.376.723-1.005 3.136-1.538 5.899-.906 4.7-2.424 7.533-4.924 9.193-1.227.814-1.588 1.535-2.014 4.025-.186 1.087-.455 2.309-.599 2.716-.564 1.598-.262 1.826 2.262 1.707 3.129-.148 6.406-1.544 8.515-3.629 1.082-1.069 2.615-3.171 2.617-3.587 0-.101.236-.657.524-1.234.288-.578.524-1.186.525-1.35 0-.165.168-.748.373-1.296.424-1.133 1.036-3.416 1.563-5.83.198-.907.427-1.775.51-1.93.083-.154.281-.791.441-1.415.16-.623.408-1.316.552-1.54.144-.223.373-.721.509-1.105.443-1.256 1.838-2.775 3.114-3.39.602-.29.779-.499 1.041-1.225.173-.482.421-1.112.552-1.401s.292-1.037.36-1.663c.067-.626.237-1.319.378-1.541.452-.712.244-1.49-.465-1.731-.701-.239-3.811-.268-4.726-.043m7.561-.066c-.455.093-.63.46-.814 1.714-.071.479-.273 1.155-.45 1.501-.176.346-.375 1.136-.441 1.755-.066.618-.273 1.479-.46 1.912-.37.855-.451 1.161-2.325 8.753-.25 1.011-.602 2.35-.782 2.976-.181.626-.502 1.847-.714 2.713-.212.867-.571 2.324-.798 3.239-.226.915-.603 2.451-.838 3.413-.235.963-.606 2.353-.825 3.088-.347 1.165-.369 1.408-.173 1.882l.226.545h4.062c5.013 0 4.781.139 5.61-3.371.4-1.695.772-3.218 1.677-6.87.215-.867.534-2.088.708-2.713.175-.626.431-1.854.568-2.728.137-.875.42-1.924.628-2.332s.442-1.311.52-2.006.27-1.512.427-1.815c.157-.304.357-1.058.445-1.677s.278-1.355.423-1.636c.146-.281.387-1.099.536-1.817.149-.719.392-1.661.54-2.094.598-1.759.949-3.919.681-4.202-.246-.259-7.331-.452-8.431-.23m50.586.001c-.354.141-.904 1.546-1.254 3.205-.173.819-.475 2.079-.673 2.801-.197.722-.588 2.219-.868 3.326s-.64 2.525-.8 3.151c-.159.626-.446 1.965-.638 2.976-.191 1.011-.499 2.193-.684 2.627s-.392 1.3-.46 1.925c-.067.626-.267 1.46-.443 1.853-.175.394-.396 1.195-.491 1.78-.094.585-.286 1.287-.427 1.56s-.417 1.205-.613 2.071c-.196.867-.573 2.414-.838 3.439-.463 1.784-.47 1.882-.184 2.319l.3.457h3.65c4.407 0 4.696-.045 5.008-.769.281-.653.789-2.421 1.313-4.57.212-.867.57-2.324.796-3.239.227-.915.604-2.451.839-3.414.234-.962.588-2.341.785-3.063.481-1.759 1.197-4.554 1.525-5.952 1.212-5.165.765-4.757 5.133-4.689l3.216.05.679.788c.813.944.835 1.242.253 3.405-.748 2.78-1.327 5.052-1.586 6.223-.67 3.022-1.036 4.56-1.334 5.602-.179.626-.447 1.785-.596 2.575-.148.791-.375 1.738-.504 2.103-.129.366-.289 1.019-.355 1.451-.067.432-.249 1.21-.405 1.73l-.284.944.48.412c1.101.948 8.698.517 8.954-.507.054-.216.207-.866.339-1.444.133-.577.361-1.483.508-2.013.147-.529.395-1.475.55-2.1.547-2.204 1.129-4.477 1.457-5.69.182-.674.422-1.579.534-2.013.65-2.519 1.636-6.026 2.583-9.19 1.616-5.399-.798-9.482-5.96-10.081-1.346-.157-19.122-.192-19.505-.039m-22.945 7.585c10.276 2.094 10.459 15.763.246 18.416-2.408.625-6.283.342-7.614-.557-.241-.163-.686-.394-.989-.515-.641-.256-2.684-2.231-3.042-2.942-.135-.269-.393-.707-.573-.973-1.23-1.824-1.096-5.885.274-8.333.614-1.096 3.027-3.597 3.66-3.794.224-.069.622-.277.885-.462 1.344-.947 4.697-1.341 7.153-.84"/></g></svg>