<?xml version="1.0" encoding="utf-8"?>
<!-- Generator: Adobe Illustrator 16.0.0, SVG Export Plug-In . SVG Version: 6.00 Build 0)  -->
<!DOCTYPE svg PUBLIC "-//W3C//DTD SVG 1.1//EN" "http://www.w3.org/Graphics/SVG/1.1/DTD/svg11.dtd">
<svg version="1.1" id="Layer_1" xmlns="http://www.w3.org/2000/svg" xmlns:xlink="http://www.w3.org/1999/xlink" x="0px" y="0px"
	 width="1602.886px" height="482.979px" viewBox="-1327.379 67 1602.886 482.979"
	 enable-background="new -1327.379 67 1602.886 482.979" xml:space="preserve">
<path fill="#FFFFFF" d="M-1224,68.6c-48.1,8.6-86.8,44.2-99,91c-4.4,16.9-4.7,26.8-4.2,157.9c0.3,120.4,0.4,123.2,2.4,132.5
	c11.1,50.1,46.7,85.8,97.3,97.6c6.6,1.5,15,1.801,69.1,2.101c56,0.399,61.801,0.3,63.301-1.2s1.6-20.8,1.6-239.6
	c0-162.2-0.3-238.6-1-240c-1-1.8-2.7-1.9-61.3-1.8C-1203.4,67.2-1217.7,67.5-1224,68.6z M-1133.5,308.6v202.6l-40.7-0.5
	c-37.5-0.4-41.5-0.601-49-2.5c-32.2-8.3-56.1-33.101-62.8-65.4c-2.2-10.1-2.2-258.9-0.1-268.8c6-28.1,25.5-51.4,51.8-61.9
	c13.2-5.3,19.3-5.9,62.1-6l38.7-0.1V308.6z"/>
<path fill="#FFFFFF" d="M-1215.4,167.1c-6.3,1.2-15.9,6-21,10.5c-10.5,9.1-15.7,22-14.9,37.2c0.4,7.9,0.9,10,4.1,16.4
	c4.7,9.7,11.8,16.8,21.5,21.6c6.7,3.3,8.4,3.7,17.101,4c7.899,0.3,10.699,0,16-1.8c21.699-7.3,34.8-28.4,31.1-50
	C-1165.8,179.3-1190.2,162.1-1215.4,167.1z"/>
<path fill="#FFFFFF" d="M-1044.8,67.7c-0.4,0.3-0.7,108.7-0.7,240.9c0,218.1,0.1,240.2,1.6,240.8c2.7,1,80.301,0.6,89.9-0.4
	c40.6-4.6,76.4-29.3,95.9-66c2.5-4.7,5.8-12.6,7.5-17.5c6.3-18.8,6.1-13.8,6.1-157.5c0-114.7-0.2-131.8-1.6-139.1
	C-856,116.8-895.7,77.5-947.9,68.5c-7-1.2-17.8-1.5-52.6-1.5C-1024.5,67-1044.5,67.3-1044.8,67.7z M-938,285.5
	c15.6,4.1,28.4,16,33.6,31.2c3.301,9.4,3.2,23.2-0.1,31.8c-6.1,15.8-18.1,26.9-33.5,31c-25,6.5-51.6-8.6-58.9-33.4
	c-2.199-7.6-2.1-20.4,0.4-28.2C-989,293.4-963,279-938,285.5z"/>
<path fill="#FFFFFF" d="M214.454,175.989c-22.969,7.557-36.603,29.638-32.749,53.643c2.37,15.413,11.261,27.564,24.896,34.529
	c18.523,9.188,38.232,6.816,53.05-6.52c11.114-10.077,15.857-20.599,15.857-35.565c0-14.078-4.149-24.599-13.485-33.936
	C250.315,176.434,229.272,171.098,214.454,175.989z M240.683,197.624c8.892,4.593,13.781,12.002,14.521,22.08
	c0.891,13.188-4.742,22.673-16.448,27.563c-19.857,8.298-42.383-10.817-36.75-31.416c2.37-9.188,6.372-14.375,13.781-18.079
	C223.789,193.92,233.126,193.772,240.683,197.624z"/>
<path fill="#FFFFFF" d="M-778.85,222.075v45.345l9.335-0.444l9.188-0.444l0.74-28.6l0.742-28.6l21.487,28.896l21.488,29.045
	l8.891-0.297l8.892-0.444v-44.457v-44.456l-9.188-0.444l-9.335-0.444v29.192v29.342l-21.784-29.193l-21.931-29.194h-9.188h-9.335
	V222.075z"/>
<path fill="#FFFFFF" d="M-630.662,222.075v45.198h9.632h9.632v-45.198v-45.198h-9.632h-9.632V222.075z"/>
<path fill="#FFFFFF" d="M-543.972,178.804c-0.444,1.038-0.593,21.191-0.444,44.753l0.444,42.975l9.336,0.444l9.188,0.444v-29.933
	v-30.084l22.228,29.935l22.228,29.935h8.891h8.892v-45.198v-45.198h-9.632h-9.632l-0.297,28.453l-0.445,28.452l-21.339-28.452
	l-21.19-28.453h-8.744C-540.267,176.877-543.527,177.471-543.972,178.804z"/>
<path fill="#FFFFFF" d="M-399.933,177.916c-0.593,0.444-1.038,4.89-1.038,9.632v8.595h14.818h14.819v35.565v35.565h9.632h9.632
	v-35.565v-35.565h14.078h14.078v-9.632v-9.633h-37.491C-382.151,176.877-399.489,177.322-399.933,177.916z"/>
<path fill="#FFFFFF" d="M-258.71,222.075v45.198h34.823h34.825v-8.892v-8.891h-25.933h-25.933v-10.374v-10.374h23.71h23.71v-8.149
	v-8.151h-23.71h-23.71v-8.891v-8.892l25.636-0.296l25.489-0.444l0.444-8.595l0.445-8.447h-34.973h-34.823V222.075z"/>
<path fill="#FFFFFF" d="M-115.709,178.804c-0.444,1.038-0.593,21.191-0.444,44.753l0.444,42.975l9.335,0.444l9.188,0.444v-30.082
	v-29.935l22.228,29.935l22.229,29.935h8.891h8.891v-45.198v-45.198h-9.632h-9.632l-0.296,28.453l-0.444,28.452l-21.34-28.452
	l-21.19-28.453h-8.742C-112.004,176.877-115.265,177.471-115.709,178.804z"/>
<path fill="#FFFFFF" d="M40.629,221.927v45.346h19.709c22.821,0,33.639-2.223,43.418-9.039
	c28.897-19.857,24.451-62.388-8.001-77.355c-6.077-2.816-10.225-3.26-30.972-3.704l-24.154-0.594V221.927z M89.087,198.959
	c12.447,5.778,17.782,21.635,11.559,34.823c-4.743,9.78-14.375,14.226-31.268,14.226H58.412v-25.933v-25.933h12.299
	C79.455,196.143,84.641,197.031,89.087,198.959z"/>
<path fill="#FFFFFF" d="M-4.124,307.431c-20.597,2.669-38.973,12.301-54.089,28.453c-33.045,35.565-32.007,89.654,2.521,124.034
	c12.743,12.893,24.303,19.562,40.899,23.71c27.267,6.965,54.83,1.482,77.354-15.56c8.743-6.521,20.154-19.265,19.264-21.487
	c-0.296-0.593-6.372-6.075-13.633-12.449l-13.041-11.409l-4.001,5.187c-19.116,25.042-57.793,27.71-80.169,5.334
	c-3.26-3.26-7.706-9.336-9.929-13.634c-3.705-7.113-4.149-9.335-4.149-22.672c0-12.744,0.444-15.856,3.705-22.229
	c10.966-22.672,38.084-34.972,61.646-28.156c10.966,3.112,21.339,9.632,27.86,17.486l5.037,6.077l6.521-5.336
	c3.556-2.814,9.779-8.298,13.781-11.855l7.409-6.668l-5.78-7.112C57.819,315.73,26.7,303.578-4.124,307.431z"/>
<path fill="#FFFFFF" d="M-737.061,313.21c-35.27,9.335-53.496,32.898-45.643,59.572c5.632,19.709,24.303,29.341,73.946,38.233
	c33.342,5.927,43.123,10.817,43.123,21.34c0,7.26-4.298,12.595-13.633,16.892c-8.002,3.704-9.78,4.001-29.934,4.001
	c-23.858,0-33.194-1.926-50.829-9.928c-5.483-2.52-10.225-4.297-10.521-4.001c-1.779,2.223-15.856,28.452-15.411,28.749
	c1.482,1.629,25.191,10.226,34.972,12.893c16.301,4.296,51.125,5.334,68.907,2.074c33.194-6.224,49.643-21.487,51.125-47.125
	c1.186-21.19-4.742-32.157-22.969-41.64c-13.04-6.817-24.303-10.077-53.051-15.856c-25.043-4.89-32.157-7.262-37.344-12.152
	c-4.593-4.296-4.593-12.002,0.149-16.745c10.669-10.67,48.901-11.114,78.539-0.741c4.891,1.629,9.336,2.52,9.929,1.926
	c1.037-1.185,11.707-26.229,11.707-27.711c0-1.333-22.672-8.001-35.417-10.374C-696.605,309.358-723.279,309.653-737.061,313.21z"/>
<path fill="#FFFFFF" d="M-610.805,314.248c0.445,1.482,10.818,38.38,23.117,81.948c12.299,43.567,22.672,80.466,23.117,81.8
	c0.741,2.37,3.112,2.668,21.339,2.668h20.598l1.63-5.632c14.67-53.051,29.489-102.843,30.23-101.064
	c0.445,1.185,7.409,25.489,15.411,54.088l14.523,51.866l20.745,0.444l20.747,0.444l23.562-82.688
	c12.893-45.494,23.71-83.577,24.154-84.615c0.444-1.334-3.705-1.778-18.079-1.778h-18.523l-2.074,6.964
	c-1.185,4.001-8.299,30.675-15.856,59.276c-7.707,28.747-14.226,52.31-14.819,52.31c-0.444,0-7.41-22.525-15.411-50.087
	c-8.002-27.415-15.856-54.089-17.487-59.276l-2.815-9.335l-15.114,0.444l-15.116,0.444l-17.338,59.275
	c-9.484,32.601-17.338,59.572-17.486,60.016c-0.148,0.444-6.817-23.562-14.67-53.348c-8.002-29.786-15.411-56.905-16.301-60.46
	l-1.779-6.224h-18.523C-610.064,311.729-611.545,311.876-610.805,314.248z"/>
<path fill="#FFFFFF" d="M-329.841,396.196v84.468h19.264h19.265l-0.297-84.172l-0.444-84.022l-18.82-0.444l-18.968-0.444V396.196z"
	/>
<path fill="#FFFFFF" d="M-251.301,330.252v18.524h26.674h26.674v65.943v65.945h18.523h18.524v-65.945v-65.943l26.377-0.297
	l26.229-0.444v-17.783V312.47l-71.427-0.444l-71.574-0.296V330.252z"/>
<path fill="#FFFFFF" d="M120.651,396.196v84.468h17.783h17.782v-33.343v-33.342h39.27h39.27v33.342v33.343h17.783h17.783
	l-0.296-84.172l-0.444-84.022l-17.338-0.444l-17.486-0.444v33.49v33.342h-39.27h-39.27v-33.342v-33.342h-17.782h-17.783V396.196z"/>
</svg>
