<svg enable-background="new -1327.379 67 1602.886 482.979" height="482.979" viewBox="-1327.379 67 1602.886 482.979" width="1602.886" xmlns="http://www.w3.org/2000/svg"><g fill="#fff"><path d="m-1224 68.6c-48.1 8.6-86.8 44.2-99 91-4.4 16.9-4.7 26.8-4.2 157.9.3 120.4.4 123.2 2.4 132.5 11.1 50.1 46.7 85.8 97.3 97.6 6.6 1.5 15 1.801 69.1 2.101 56 .399 61.801.3 63.301-1.2s1.6-20.8 1.6-239.6c0-162.2-.3-238.6-1-240-1-1.8-2.7-1.9-61.3-1.8-47.601.099-61.901.399-68.201 1.499zm90.5 240v202.6l-40.7-.5c-37.5-.4-41.5-.601-49-2.5-32.2-8.3-56.1-33.101-62.8-65.4-2.2-10.1-2.2-258.9-.1-268.8 6-28.1 25.5-51.4 51.8-61.9 13.2-5.3 19.3-5.9 62.1-6l38.7-.1z"/><path d="m-1215.4 167.1c-6.3 1.2-15.9 6-21 10.5-10.5 9.1-15.7 22-14.9 37.2.4 7.9.9 10 4.1 16.4 4.7 9.7 11.8 16.8 21.5 21.6 6.7 3.3 8.4 3.7 17.101 4 7.899.3 10.699 0 16-1.8 21.699-7.3 34.8-28.4 31.1-50-4.301-25.7-28.701-42.9-53.901-37.9z"/><path d="m-1044.8 67.7c-.4.3-.7 108.7-.7 240.9 0 218.1.1 240.2 1.6 240.8 2.7 1 80.301.6 89.9-.4 40.6-4.6 76.4-29.3 95.9-66 2.5-4.7 5.8-12.6 7.5-17.5 6.3-18.8 6.1-13.8 6.1-157.5 0-114.7-.2-131.8-1.6-139.1-9.9-52.1-49.6-91.4-101.8-100.4-7-1.2-17.8-1.5-52.6-1.5-24 0-44 .3-44.3.7zm106.8 217.8c15.6 4.1 28.4 16 33.6 31.2 3.301 9.4 3.2 23.2-.1 31.8-6.1 15.8-18.1 26.9-33.5 31-25 6.5-51.6-8.6-58.9-33.4-2.199-7.6-2.1-20.4.4-28.2 7.5-24.5 33.5-38.9 58.5-32.4z"/><path d="m214.454 175.989c-22.969 7.557-36.603 29.638-32.749 53.643 2.37 15.413 11.261 27.564 24.896 34.529 18.523 9.188 38.232 6.816 53.05-6.52 11.114-10.077 15.857-20.599 15.857-35.565 0-14.078-4.149-24.599-13.485-33.936-11.708-11.706-32.751-17.042-47.569-12.151zm26.229 21.635c8.892 4.593 13.781 12.002 14.521 22.08.891 13.188-4.742 22.673-16.448 27.563-19.857 8.298-42.383-10.817-36.75-31.416 2.37-9.188 6.372-14.375 13.781-18.079 8.002-3.852 17.339-4 24.896-.148z"/><path d="m-778.85 222.075v45.345l9.335-.444 9.188-.444.74-28.6.742-28.6 21.487 28.896 21.488 29.045 8.891-.297 8.892-.444v-44.457-44.456l-9.188-.444-9.335-.444v29.192 29.342l-21.784-29.193-21.931-29.194h-9.188-9.335v45.197z"/><path d="m-630.662 222.075v45.198h9.632 9.632v-45.198-45.198h-9.632-9.632z"/><path d="m-543.972 178.804c-.444 1.038-.593 21.191-.444 44.753l.444 42.975 9.336.444 9.188.444v-29.933-30.084l22.228 29.935 22.228 29.935h8.891 8.892v-45.198-45.198h-9.632-9.632l-.297 28.453-.445 28.452-21.339-28.452-21.19-28.453h-8.744c-5.779 0-9.039.594-9.484 1.927z"/><path d="m-399.933 177.916c-.593.444-1.038 4.89-1.038 9.632v8.595h14.818 14.819v35.565 35.565h9.632 9.632v-35.565-35.565h14.078 14.078v-9.632-9.633h-37.491c-20.746-.001-38.084.444-38.528 1.038z"/><path d="m-258.71 222.075v45.198h34.823 34.825v-8.892-8.891h-25.933-25.933v-10.374-10.374h23.71 23.71v-8.149-8.151h-23.71-23.71v-8.891-8.892l25.636-.296 25.489-.444.444-8.595.445-8.447h-34.973-34.823z"/><path d="m-115.709 178.804c-.444 1.038-.593 21.191-.444 44.753l.444 42.975 9.335.444 9.188.444v-30.082-29.935l22.228 29.935 22.229 29.935h8.891 8.891v-45.198-45.198h-9.632-9.632l-.296 28.453-.444 28.452-21.34-28.452-21.19-28.453h-8.742c-5.781 0-9.042.594-9.486 1.927z"/><path d="m40.629 221.927v45.346h19.709c22.821 0 33.639-2.223 43.418-9.039 28.897-19.857 24.451-62.388-8.001-77.355-6.077-2.816-10.225-3.26-30.972-3.704l-24.154-.594zm48.458-22.968c12.447 5.778 17.782 21.635 11.559 34.823-4.743 9.78-14.375 14.226-31.268 14.226h-10.966v-25.933-25.933h12.299c8.744.001 13.93.889 18.376 2.817z"/><path d="m-4.124 307.431c-20.597 2.669-38.973 12.301-54.089 28.453-33.045 35.565-32.007 89.654 2.521 124.034 12.743 12.893 24.303 19.562 40.899 23.71 27.267 6.965 54.83 1.482 77.354-15.56 8.743-6.521 20.154-19.265 19.264-21.487-.296-.593-6.372-6.075-13.633-12.449l-13.041-11.409-4.001 5.187c-19.116 25.042-57.793 27.71-80.169 5.334-3.26-3.26-7.706-9.336-9.929-13.634-3.705-7.113-4.149-9.335-4.149-22.672 0-12.744.444-15.856 3.705-22.229 10.966-22.672 38.084-34.972 61.646-28.156 10.966 3.112 21.339 9.632 27.86 17.486l5.037 6.077 6.521-5.336c3.556-2.814 9.779-8.298 13.781-11.855l7.409-6.668-5.78-7.112c-19.263-23.415-50.382-35.567-81.206-31.714z"/><path d="m-737.061 313.21c-35.27 9.335-53.496 32.898-45.643 59.572 5.632 19.709 24.303 29.341 73.946 38.233 33.342 5.927 43.123 10.817 43.123 21.34 0 7.26-4.298 12.595-13.633 16.892-8.002 3.704-9.78 4.001-29.934 4.001-23.858 0-33.194-1.926-50.829-9.928-5.483-2.52-10.225-4.297-10.521-4.001-1.779 2.223-15.856 28.452-15.411 28.749 1.482 1.629 25.191 10.226 34.972 12.893 16.301 4.296 51.125 5.334 68.907 2.074 33.194-6.224 49.643-21.487 51.125-47.125 1.186-21.19-4.742-32.157-22.969-41.64-13.04-6.817-24.303-10.077-53.051-15.856-25.043-4.89-32.157-7.262-37.344-12.152-4.593-4.296-4.593-12.002.149-16.745 10.669-10.67 48.901-11.114 78.539-.741 4.891 1.629 9.336 2.52 9.929 1.926 1.037-1.185 11.707-26.229 11.707-27.711 0-1.333-22.672-8.001-35.417-10.374-17.189-3.259-43.863-2.964-57.645.593z"/><path d="m-610.805 314.248c.445 1.482 10.818 38.38 23.117 81.948 12.299 43.567 22.672 80.466 23.117 81.8.741 2.37 3.112 2.668 21.339 2.668h20.598l1.63-5.632c14.67-53.051 29.489-102.843 30.23-101.064.445 1.185 7.409 25.489 15.411 54.088l14.523 51.866 20.745.444 20.747.444 23.562-82.688c12.893-45.494 23.71-83.577 24.154-84.615.444-1.334-3.705-1.778-18.079-1.778h-18.523l-2.074 6.964c-1.185 4.001-8.299 30.675-15.856 59.276-7.707 28.747-14.226 52.31-14.819 52.31-.444 0-7.41-22.525-15.411-50.087-8.002-27.415-15.856-54.089-17.487-59.276l-2.815-9.335-15.114.444-15.116.444-17.338 59.275c-9.484 32.601-17.338 59.572-17.486 60.016s-6.817-23.562-14.67-53.348c-8.002-29.786-15.411-56.905-16.301-60.46l-1.779-6.224h-18.523c-17.041.001-18.522.148-17.782 2.52z"/><path d="m-329.841 396.196v84.468h19.264 19.265l-.297-84.172-.444-84.022-18.82-.444-18.968-.444z"/><path d="m-251.301 330.252v18.524h26.674 26.674v65.943 65.945h18.523 18.524v-65.945-65.943l26.377-.297 26.229-.444v-17.783-17.782l-71.427-.444-71.574-.296z"/><path d="m120.651 396.196v84.468h17.783 17.782v-33.343-33.342h39.27 39.27v33.342 33.343h17.783 17.783l-.296-84.172-.444-84.022-17.338-.444-17.486-.444v33.49 33.342h-39.27-39.27v-33.342-33.342h-17.782-17.783v84.466z"/></g></svg>