<svg height="47.6717" width="131.94724" xmlns="http://www.w3.org/2000/svg"><g transform="translate(-537.24991 -199.59776)"><path d="m571.87491 213.92596h-24.625v4.8025h9.3575v19.8225h5.91v-19.8225h9.3575z" fill="#4f4c4d"/><path d="m628.61328 213.92596h-24.62625v4.8025h9.3575v19.8225h5.91125v-19.8225h9.3575z" fill="#4f4c4d"/><path d="m596.20853 238.55146h5.91v-24.625h-5.91z" fill="#4f4c4d"/><g fill="#127bca"><path d="m579.87791 238.55116h16.00875l-10.65875-19.61c-3.96625 5.4725-6.035 12.35375-5.35 19.61"/><path d="m565.10378 238.55116h8.37125c.905-8.61375 4.845-16.1575 10.635-21.66625l-3.615-6.6525z"/><path d="m599.16378 202.59776c-2.44875 0-4.43375 1.985-4.43375 4.4325s1.985 4.4325 4.43375 4.4325c2.4475 0 4.4325-1.985 4.4325-4.4325s-1.985-4.4325-4.4325-4.4325"/><path d="m592.59641 211.85566-.39125-.71625c-2.96125 1.51875-5.6875 3.455-8.095 5.745l1.1175 2.0575c2.0075-2.7675 4.50125-5.175 7.36875-7.08625"/></g><path d="m643.38741 234.71696c-4.70625 0-8.5175-3.38875-8.5175-8.51375s3.81125-8.5125 8.5175-8.5125 8.5175 3.3875 8.5175 8.5125-3.81125 8.51375-8.5175 8.51375m0-21.58c-8.4675 0-14.775 5.25625-14.775 13.06625s6.3075 13.06625 14.775 13.06625c8.46875 0 14.775-5.25625 14.775-13.06625s-6.30625-13.06625-14.775-13.06625" fill="#4f4c4d"/><path d="m658.4909 208.74057c-1.79125.001-3.24375 1.45375-3.24375 3.245 0 1.79 1.4525 3.24125 3.245 3.24125 1.79125-.001 3.24375-1.4525 3.2425-3.2425 0-1.79125-1.4525-3.24375-3.24375-3.24375v-.4625c2.0475-.001 3.70625 1.6575 3.70625 3.70625.001 2.045-1.6575 3.70625-3.705 3.70625s-3.70625-1.66-3.7075-3.705c0-2.0475 1.65875-3.7075 3.70625-3.7075z"/><path d="m657.66202 211.79717-.001-1.04875s1.26875-.001 1.54-.001c.32375 0 .50625.28625.505.53125.001.25875-.23375.5175-.53.5175-.2975 0-1.51375.001-1.51375.001v.62l.90625-.001 1.0275 1.44375.77.006-1.035-1.4875c.55625 0 1.01875-.54375 1.01875-1.13875s-.515-1.09875-.98125-1.09875h-2.3925v3.765h.68625v-1.48875-.62z"/></g></svg>