<svg id="svg" version="1.1" xmlns="http://www.w3.org/2000/svg" xmlns:xlink="http://www.w3.org/1999/xlink" width="400" height="60.869565217391305" viewBox="0, 0, 400,60.869565217391305"><g id="svgg"><path id="path0" d="M0.000 16.083 L 0.000 19.333 4.667 19.333 L 9.333 19.333 9.333 31.500 L 9.333 43.667 13.250 43.667 L 17.167 43.667 17.167 31.500 L 17.167 19.333 20.792 19.308 C 22.785 19.294,24.522 19.275,24.650 19.265 C 24.779 19.256,24.910 19.074,24.943 18.861 C 24.975 18.649,25.114 18.362,25.251 18.225 C 25.388 18.088,25.500 17.869,25.500 17.738 C 25.500 17.607,25.575 17.500,25.667 17.500 C 25.758 17.500,25.824 17.444,25.814 17.375 C 25.754 16.995,25.859 16.667,26.042 16.665 C 26.257 16.664,26.667 15.933,26.667 15.550 C 26.667 15.431,26.779 15.333,26.917 15.333 C 27.057 15.333,27.167 15.184,27.167 14.993 C 27.167 14.675,27.260 14.516,27.792 13.923 C 27.906 13.795,28.000 13.498,28.000 13.262 L 28.000 12.833 14.000 12.833 L 0.000 12.833 0.000 16.083 M32.292 13.013 C 32.131 13.107,32.000 13.372,32.000 13.604 C 32.000 13.835,31.887 14.136,31.750 14.274 C 31.613 14.411,31.500 14.743,31.500 15.012 C 31.500 15.280,31.425 15.500,31.333 15.500 C 31.242 15.500,31.167 15.729,31.167 16.010 C 31.167 16.290,31.100 16.478,31.018 16.428 C 30.937 16.378,30.819 16.609,30.756 16.942 C 30.694 17.275,30.531 17.660,30.394 17.796 C 30.254 17.937,30.166 18.269,30.193 18.564 C 30.223 18.903,30.169 19.069,30.036 19.042 C 29.914 19.017,29.833 19.191,29.833 19.480 C 29.833 19.743,29.721 20.053,29.583 20.167 C 29.446 20.281,29.333 20.548,29.333 20.761 C 29.333 20.973,29.258 21.193,29.167 21.250 C 29.075 21.307,29.000 21.603,29.000 21.909 C 29.000 22.249,28.903 22.502,28.750 22.560 C 28.613 22.613,28.500 22.774,28.500 22.917 C 28.500 23.061,28.369 23.378,28.209 23.623 C 27.932 24.046,27.932 24.062,28.209 23.956 C 28.369 23.894,28.500 23.916,28.500 24.005 C 28.500 24.094,28.406 24.167,28.292 24.168 C 28.041 24.170,27.667 24.925,27.667 25.429 C 27.667 25.629,27.548 25.891,27.403 26.011 C 27.250 26.139,27.171 26.390,27.213 26.615 C 27.255 26.830,27.205 27.001,27.102 27.003 C 27.000 27.004,27.027 27.075,27.162 27.160 C 27.372 27.293,27.366 27.331,27.120 27.426 C 26.962 27.486,26.833 27.671,26.833 27.837 C 26.833 28.003,26.740 28.177,26.625 28.223 C 26.468 28.287,26.479 28.352,26.667 28.485 C 26.880 28.636,26.871 28.662,26.607 28.664 C 26.408 28.666,26.330 28.752,26.389 28.904 C 26.439 29.035,26.377 29.228,26.251 29.333 C 26.125 29.437,25.970 29.762,25.906 30.053 C 25.843 30.345,25.726 30.625,25.646 30.676 C 25.566 30.728,25.487 31.101,25.471 31.507 C 25.455 31.912,25.411 32.151,25.374 32.037 C 25.265 31.712,25.000 31.979,25.000 32.413 C 25.000 32.629,24.906 32.843,24.792 32.890 C 24.625 32.957,24.625 32.976,24.792 32.987 C 24.906 32.994,25.000 33.079,25.000 33.177 C 25.000 33.274,24.925 33.307,24.833 33.250 C 24.737 33.190,24.667 33.353,24.667 33.639 C 24.667 33.923,24.561 34.172,24.417 34.227 C 24.269 34.284,24.167 34.534,24.167 34.840 C 24.167 35.124,24.054 35.470,23.917 35.607 C 23.779 35.745,23.667 35.997,23.667 36.169 C 23.667 36.340,23.592 36.527,23.500 36.583 C 23.408 36.640,23.333 36.899,23.333 37.159 C 23.333 37.425,23.224 37.673,23.083 37.727 C 22.926 37.787,22.833 38.042,22.833 38.411 C 22.833 38.735,22.758 39.000,22.667 39.000 C 22.575 39.000,22.500 39.225,22.500 39.500 C 22.500 39.811,22.421 39.984,22.292 39.958 C 22.165 39.933,22.062 40.140,22.029 40.483 C 22.000 40.794,21.868 41.155,21.738 41.286 C 21.607 41.417,21.500 41.743,21.500 42.012 C 21.500 42.280,21.425 42.500,21.333 42.500 C 21.242 42.500,21.167 42.762,21.167 43.083 L 21.167 43.667 25.422 43.667 C 29.329 43.667,29.685 43.643,29.767 43.375 C 29.817 43.215,29.927 42.953,30.012 42.794 C 30.097 42.635,30.167 42.363,30.167 42.189 C 30.167 42.016,30.279 41.781,30.417 41.667 C 30.554 41.553,30.667 41.243,30.667 40.980 C 30.667 40.716,30.738 40.500,30.826 40.500 C 30.913 40.500,31.034 40.237,31.095 39.915 C 31.155 39.593,31.271 39.289,31.352 39.238 C 31.434 39.188,31.500 38.996,31.500 38.812 C 31.500 38.627,31.612 38.364,31.750 38.226 C 31.887 38.089,32.000 37.757,32.000 37.488 C 32.000 37.220,32.075 37.000,32.167 37.000 C 32.258 37.000,32.333 36.773,32.333 36.495 C 32.333 36.199,32.437 35.950,32.583 35.894 C 32.726 35.839,32.833 35.590,32.833 35.316 C 32.833 35.050,32.902 34.833,32.987 34.833 C 33.071 34.833,33.192 34.590,33.256 34.292 C 33.320 33.994,33.432 33.675,33.505 33.583 C 33.639 33.415,33.667 33.315,33.667 32.988 C 33.667 32.717,34.105 33.211,34.239 33.633 C 34.303 33.835,34.426 34.000,34.511 34.000 C 34.597 34.000,34.667 34.112,34.667 34.250 C 34.667 34.387,34.760 34.481,34.875 34.458 C 35.004 34.433,35.063 34.560,35.031 34.793 C 35.000 35.017,35.084 35.209,35.239 35.269 C 35.383 35.324,35.500 35.459,35.500 35.568 C 35.500 35.927,35.912 36.664,36.114 36.665 C 36.222 36.666,36.335 36.873,36.364 37.125 C 36.395 37.393,36.520 37.586,36.667 37.591 C 36.804 37.595,36.898 37.689,36.875 37.799 C 36.844 37.951,37.676 38.000,40.262 38.000 C 44.042 38.000,44.167 38.032,44.167 39.006 C 44.167 39.371,44.234 39.510,44.383 39.453 C 44.527 39.397,44.612 39.543,44.638 39.891 C 44.660 40.177,44.750 40.484,44.839 40.572 C 44.928 40.661,45.000 40.940,45.000 41.192 C 45.000 41.444,45.112 41.713,45.249 41.789 C 45.386 41.866,45.515 42.132,45.535 42.381 C 45.556 42.630,45.631 42.833,45.703 42.833 C 45.775 42.833,45.833 43.021,45.833 43.250 L 45.833 43.667 50.000 43.667 L 54.167 43.667 54.167 43.020 C 54.167 42.649,54.060 42.286,53.917 42.167 C 53.779 42.053,53.667 41.748,53.667 41.489 C 53.667 41.231,53.601 40.979,53.522 40.930 C 53.380 40.842,53.100 39.874,53.144 39.625 C 53.157 39.556,53.097 39.500,53.011 39.500 C 52.925 39.500,52.832 39.294,52.803 39.042 C 52.773 38.784,52.659 38.602,52.542 38.625 C 52.403 38.653,52.333 38.446,52.333 38.010 C 52.333 37.649,52.258 37.307,52.167 37.250 C 52.075 37.193,52.000 36.936,52.000 36.677 C 52.000 36.419,51.887 36.114,51.750 36.000 C 51.612 35.886,51.500 35.673,51.500 35.527 C 51.500 35.124,50.975 33.833,50.811 33.833 C 50.731 33.833,50.667 33.568,50.667 33.245 C 50.667 32.875,50.574 32.620,50.417 32.560 C 50.254 32.498,50.167 32.238,50.167 31.816 C 50.167 31.459,50.092 31.167,50.000 31.167 C 49.908 31.167,49.831 30.998,49.828 30.792 C 49.825 30.585,49.713 30.271,49.578 30.093 C 49.443 29.915,49.333 29.588,49.333 29.367 C 49.333 29.078,49.263 28.991,49.083 29.060 C 48.888 29.135,48.833 29.018,48.833 28.528 C 48.833 28.183,48.761 27.828,48.672 27.739 C 48.584 27.650,48.493 27.337,48.470 27.043 C 48.448 26.749,48.333 26.472,48.215 26.426 C 48.097 26.381,48.000 26.108,48.000 25.821 C 48.000 25.422,47.940 25.321,47.748 25.394 C 47.550 25.470,47.518 25.402,47.599 25.079 C 47.671 24.792,47.634 24.666,47.476 24.664 C 47.299 24.662,47.303 24.628,47.495 24.506 C 47.705 24.374,47.700 24.335,47.454 24.241 C 47.293 24.179,47.167 23.956,47.167 23.732 C 47.167 23.489,47.069 23.333,46.917 23.333 C 46.779 23.333,46.667 23.261,46.667 23.172 C 46.667 23.083,46.798 23.056,46.958 23.111 C 47.226 23.203,47.227 23.192,46.978 22.981 C 46.828 22.854,46.663 22.563,46.612 22.333 C 46.348 21.154,46.208 20.753,46.069 20.778 C 45.985 20.793,45.897 20.537,45.873 20.209 C 45.849 19.881,45.764 19.531,45.684 19.431 C 45.604 19.332,45.486 19.006,45.423 18.708 C 45.359 18.410,45.238 18.167,45.153 18.167 C 45.069 18.167,45.000 17.974,45.000 17.738 C 45.000 17.502,44.887 17.197,44.750 17.060 C 44.612 16.922,44.500 16.590,44.500 16.321 C 44.500 16.053,44.425 15.833,44.333 15.833 C 44.242 15.833,44.167 15.606,44.167 15.328 C 44.167 15.033,44.063 14.783,43.917 14.727 C 43.773 14.672,43.667 14.423,43.667 14.143 C 43.667 13.875,43.546 13.470,43.397 13.244 L 43.128 12.833 37.856 12.838 C 34.586 12.842,32.473 12.908,32.292 13.013 M55.934 13.097 C 55.781 13.497,55.819 43.219,55.973 43.462 C 56.076 43.625,56.933 43.663,59.679 43.628 L 63.250 43.583 63.293 32.708 C 63.319 26.151,63.397 21.833,63.491 21.833 C 63.576 21.833,63.669 22.077,63.698 22.375 C 63.726 22.673,63.828 22.903,63.924 22.887 C 64.019 22.870,64.115 23.095,64.136 23.387 C 64.157 23.678,64.285 24.000,64.420 24.102 C 64.556 24.203,64.667 24.522,64.667 24.810 C 64.667 25.098,64.742 25.333,64.833 25.333 C 64.925 25.333,65.000 25.553,65.000 25.821 C 65.000 26.090,65.106 26.416,65.236 26.546 C 65.367 26.676,65.498 27.000,65.528 27.266 C 65.558 27.532,65.669 27.734,65.775 27.714 C 65.888 27.693,65.931 27.812,65.880 28.005 C 65.833 28.185,65.916 28.518,66.064 28.744 C 66.212 28.970,66.333 29.383,66.333 29.661 C 66.333 29.999,66.416 30.167,66.583 30.167 C 66.756 30.167,66.833 30.340,66.833 30.730 C 66.833 31.039,66.938 31.379,67.066 31.486 C 67.194 31.592,67.260 31.829,67.211 32.013 C 67.163 32.197,67.190 32.335,67.270 32.321 C 67.619 32.257,67.731 32.352,67.500 32.515 C 67.312 32.648,67.302 32.713,67.458 32.777 C 67.573 32.823,67.667 33.042,67.667 33.264 C 67.667 33.485,67.760 33.668,67.875 33.669 C 68.014 33.671,68.000 33.726,67.833 33.833 C 67.679 33.933,67.660 33.996,67.784 33.997 C 67.895 33.999,68.034 34.263,68.095 34.585 C 68.155 34.907,68.271 35.211,68.352 35.262 C 68.434 35.312,68.500 35.538,68.500 35.765 C 68.500 35.992,68.612 36.220,68.750 36.273 C 68.904 36.332,69.000 36.586,69.000 36.934 C 69.000 37.246,69.075 37.500,69.167 37.500 C 69.258 37.500,69.333 37.758,69.333 38.073 C 69.333 38.738,69.608 39.017,69.715 38.461 C 69.755 38.253,69.798 38.523,69.811 39.059 C 69.828 39.817,69.885 40.016,70.064 39.947 C 70.227 39.885,70.271 39.954,70.212 40.179 C 70.166 40.355,70.249 40.684,70.397 40.911 C 70.545 41.137,70.667 41.508,70.667 41.736 C 70.667 41.964,70.773 42.210,70.903 42.283 C 71.034 42.357,71.165 42.679,71.195 43.000 L 71.250 43.583 77.458 43.627 L 83.667 43.671 83.667 28.252 L 83.667 12.833 80.000 12.833 L 76.333 12.833 76.333 24.407 C 76.333 34.927,76.269 36.776,75.936 35.907 C 75.879 35.759,75.908 35.693,76.002 35.751 C 76.093 35.807,76.167 35.774,76.167 35.677 C 76.167 35.579,76.092 35.500,76.000 35.500 C 75.908 35.500,75.833 35.313,75.833 35.083 C 75.833 34.854,75.768 34.667,75.688 34.667 C 75.608 34.667,75.495 34.367,75.436 34.000 C 75.377 33.633,75.255 33.333,75.165 33.333 C 75.074 33.333,75.000 33.068,75.000 32.745 C 75.000 32.375,74.907 32.120,74.750 32.060 C 74.609 32.006,74.500 31.758,74.500 31.492 C 74.500 31.232,74.425 30.973,74.333 30.917 C 74.242 30.860,74.167 30.640,74.167 30.427 C 74.167 30.215,74.054 29.947,73.917 29.833 C 73.779 29.719,73.667 29.414,73.667 29.156 C 73.667 28.898,73.600 28.645,73.519 28.595 C 73.438 28.545,73.318 28.222,73.254 27.877 C 73.189 27.533,73.068 27.209,72.986 27.158 C 72.903 27.107,72.818 26.864,72.798 26.620 C 72.778 26.375,72.665 26.138,72.547 26.093 C 72.430 26.047,72.333 25.825,72.333 25.598 C 72.333 25.372,72.258 25.140,72.167 25.083 C 72.075 25.027,72.000 24.835,72.000 24.657 C 72.000 24.479,71.887 24.333,71.750 24.333 C 71.612 24.333,71.500 24.212,71.500 24.063 C 71.500 23.830,71.541 23.824,71.792 24.018 C 72.069 24.233,72.069 24.228,71.792 23.901 C 71.631 23.712,71.500 23.361,71.500 23.122 C 71.500 22.882,71.435 22.646,71.355 22.597 C 71.275 22.547,71.163 22.275,71.107 21.992 C 71.050 21.709,70.943 21.516,70.869 21.562 C 70.794 21.608,70.715 21.370,70.692 21.033 C 70.669 20.697,70.542 20.360,70.409 20.286 C 70.270 20.208,70.167 19.905,70.167 19.575 C 70.167 19.259,70.092 19.000,70.000 19.000 C 69.908 19.000,69.833 18.818,69.833 18.595 C 69.833 18.373,69.721 18.078,69.583 17.940 C 69.446 17.803,69.333 17.451,69.333 17.158 C 69.333 16.724,69.291 16.661,69.103 16.817 C 68.913 16.974,68.871 16.883,68.863 16.299 C 68.858 15.909,68.774 15.563,68.677 15.531 C 68.579 15.499,68.500 15.214,68.500 14.898 C 68.500 14.540,68.405 14.287,68.250 14.227 C 68.112 14.174,68.000 13.958,68.000 13.746 C 68.000 12.787,68.308 12.833,61.917 12.833 C 56.708 12.833,56.024 12.863,55.934 13.097 M86.835 28.010 C 86.831 41.101,86.863 43.221,87.073 43.431 C 87.409 43.766,107.109 43.711,107.042 43.375 C 107.014 43.235,107.228 43.167,107.694 43.167 C 108.395 43.167,109.667 42.716,109.667 42.468 C 109.667 42.394,109.813 42.333,109.992 42.333 C 110.172 42.333,110.506 42.146,110.735 41.917 C 110.964 41.688,111.221 41.500,111.306 41.500 C 111.391 41.500,111.504 41.335,111.557 41.132 C 111.610 40.930,111.703 40.814,111.763 40.874 C 111.868 40.979,112.397 40.568,112.298 40.460 C 112.271 40.431,112.569 40.120,112.958 39.768 C 113.348 39.416,113.667 38.987,113.667 38.814 C 113.667 38.641,113.779 38.500,113.917 38.500 C 114.056 38.500,114.167 38.352,114.167 38.167 C 114.167 37.983,114.242 37.833,114.333 37.833 C 114.425 37.833,114.500 37.641,114.500 37.407 C 114.500 37.172,114.567 37.022,114.649 37.073 C 114.731 37.123,114.844 37.047,114.899 36.902 C 115.058 36.488,115.020 36.442,114.721 36.688 C 114.492 36.876,114.498 36.828,114.759 36.417 C 114.933 36.142,115.155 35.865,115.253 35.803 C 115.350 35.740,115.450 35.403,115.473 35.053 C 115.497 34.703,115.587 34.346,115.675 34.259 C 115.762 34.171,115.833 33.661,115.833 33.123 C 115.833 32.586,115.900 32.188,115.981 32.238 C 116.239 32.398,116.292 31.783,116.313 28.420 C 116.332 25.130,116.260 24.256,115.982 24.428 C 115.900 24.479,115.833 23.963,115.833 23.274 C 115.833 22.588,115.761 22.003,115.672 21.972 C 115.583 21.942,115.492 21.664,115.468 21.356 C 115.445 21.047,115.330 20.758,115.213 20.713 C 115.096 20.668,115.000 20.385,115.000 20.083 C 115.000 19.750,114.902 19.498,114.750 19.440 C 114.612 19.387,114.500 19.227,114.500 19.085 C 114.500 18.943,114.313 18.530,114.083 18.167 C 113.854 17.804,113.667 17.471,113.667 17.429 C 113.667 17.386,113.479 17.148,113.250 16.901 C 113.021 16.654,112.833 16.350,112.833 16.226 C 112.833 16.102,112.729 16.000,112.601 16.000 C 112.473 16.000,112.327 15.891,112.276 15.757 C 112.225 15.624,111.860 15.313,111.466 15.066 C 111.072 14.820,110.690 14.517,110.617 14.392 C 110.543 14.268,110.343 14.167,110.170 14.167 C 109.998 14.167,109.745 14.054,109.607 13.917 C 109.470 13.779,109.244 13.667,109.105 13.667 C 108.966 13.667,108.807 13.592,108.750 13.500 C 108.693 13.408,108.322 13.333,107.925 13.333 C 107.436 13.333,107.171 13.252,107.106 13.083 C 107.023 12.865,105.736 12.833,96.925 12.833 L 86.840 12.833 86.835 28.010 M117.667 13.307 C 117.667 13.639,117.878 13.997,118.375 14.507 C 118.765 14.906,118.990 15.176,118.875 15.107 C 118.760 15.037,118.667 15.059,118.667 15.157 C 118.667 15.254,118.742 15.333,118.833 15.333 C 118.925 15.333,119.000 15.446,119.000 15.583 C 119.000 15.721,119.075 15.833,119.167 15.833 C 119.258 15.833,119.333 15.906,119.333 15.995 C 119.333 16.186,120.360 17.725,120.542 17.806 C 120.610 17.836,120.667 17.970,120.667 18.102 C 120.667 18.235,120.779 18.387,120.917 18.440 C 121.054 18.492,121.167 18.661,121.167 18.814 C 121.167 19.059,121.378 19.353,122.398 20.528 C 122.530 20.681,122.595 20.849,122.542 20.903 C 122.488 20.956,122.532 21.000,122.639 21.000 C 122.746 21.000,122.833 21.152,122.833 21.339 C 122.833 21.525,122.946 21.720,123.083 21.773 C 123.221 21.826,123.333 21.973,123.333 22.101 C 123.333 22.229,123.403 22.333,123.489 22.333 C 123.574 22.333,123.697 22.502,123.762 22.708 C 123.827 22.915,124.057 23.249,124.273 23.450 C 124.490 23.652,124.667 23.930,124.667 24.067 C 124.667 24.204,124.774 24.377,124.905 24.450 C 125.128 24.575,125.163 24.642,125.169 24.958 C 125.171 25.027,125.244 24.971,125.333 24.833 C 125.496 24.582,125.585 24.888,125.514 25.452 C 125.487 25.661,126.070 26.327,126.292 26.341 C 126.360 26.345,126.393 26.495,126.365 26.674 C 126.336 26.853,126.383 27.000,126.470 27.000 C 126.647 27.000,127.186 27.764,127.233 28.081 C 127.279 28.397,127.777 28.833,128.092 28.833 C 128.314 28.833,128.333 28.883,128.181 29.066 C 128.032 29.246,128.055 29.365,128.286 29.595 C 128.562 29.871,128.583 30.387,128.583 36.655 C 128.583 40.970,128.644 43.461,128.750 43.539 C 128.842 43.606,130.660 43.663,132.792 43.664 L 136.667 43.667 136.667 36.768 C 136.667 30.789,136.700 29.856,136.917 29.773 C 137.054 29.720,137.167 29.570,137.167 29.440 C 137.167 29.309,137.287 29.156,137.434 29.100 C 137.581 29.043,137.661 28.892,137.611 28.762 C 137.562 28.633,137.629 28.486,137.761 28.436 C 137.892 28.385,138.005 28.135,138.012 27.880 C 138.022 27.476,138.041 27.459,138.159 27.750 C 138.284 28.057,138.305 28.047,138.416 27.625 C 138.482 27.373,138.603 27.167,138.685 27.167 C 138.766 27.167,138.833 27.054,138.833 26.917 C 138.833 26.779,138.907 26.667,138.997 26.667 C 139.087 26.667,139.207 26.479,139.265 26.250 C 139.322 26.021,139.433 25.833,139.510 25.833 C 139.588 25.833,139.782 25.552,139.942 25.208 C 140.101 24.865,140.330 24.523,140.449 24.450 C 140.569 24.377,140.667 24.206,140.667 24.070 C 140.667 23.934,140.779 23.780,140.917 23.727 C 141.054 23.674,141.167 23.527,141.167 23.399 C 141.167 23.271,141.242 23.167,141.333 23.167 C 141.425 23.167,141.500 22.979,141.500 22.750 C 141.500 22.491,141.594 22.333,141.750 22.333 C 141.887 22.333,142.000 22.221,142.000 22.083 C 142.000 21.946,142.075 21.833,142.167 21.833 C 142.258 21.833,142.333 21.646,142.333 21.417 C 142.333 21.157,142.428 21.000,142.583 21.000 C 142.721 21.000,142.833 20.894,142.833 20.764 C 142.833 20.634,142.915 20.500,143.015 20.467 C 143.115 20.434,143.209 20.212,143.224 19.974 C 143.242 19.675,143.323 19.570,143.487 19.634 C 143.659 19.700,143.693 19.643,143.610 19.427 C 143.528 19.214,143.562 19.155,143.728 19.219 C 143.884 19.278,144.061 19.064,144.264 18.570 C 144.432 18.165,144.622 17.833,144.689 17.833 C 144.755 17.833,144.922 17.607,145.060 17.331 C 145.221 17.008,145.240 16.866,145.114 16.933 C 145.005 16.992,145.123 16.853,145.375 16.625 C 145.627 16.398,145.833 16.126,145.833 16.022 C 145.833 15.918,145.952 15.833,146.097 15.833 C 146.301 15.833,146.336 15.724,146.252 15.343 C 146.158 14.916,146.210 14.820,146.656 14.589 C 146.937 14.444,147.167 14.209,147.167 14.067 C 147.167 13.925,147.276 13.700,147.410 13.567 C 148.080 12.896,147.692 12.833,142.905 12.833 C 138.040 12.833,137.882 12.861,138.119 13.667 C 138.183 13.884,138.170 13.885,138.022 13.672 C 137.883 13.472,137.821 13.510,137.680 13.881 C 137.586 14.130,137.427 14.333,137.328 14.333 C 137.228 14.333,137.190 14.402,137.242 14.487 C 137.294 14.571,137.227 14.749,137.093 14.883 C 136.959 15.017,136.884 15.161,136.926 15.203 C 136.968 15.245,136.852 15.416,136.668 15.582 C 136.484 15.749,136.333 15.988,136.333 16.114 C 136.333 16.241,136.221 16.387,136.084 16.439 C 135.947 16.492,135.872 16.594,135.917 16.667 C 135.961 16.739,135.886 16.841,135.749 16.894 C 135.612 16.947,135.500 17.142,135.500 17.328 C 135.500 17.520,135.390 17.667,135.246 17.667 C 135.055 17.667,135.008 17.811,135.057 18.251 C 135.109 18.730,135.080 18.802,134.894 18.648 C 134.718 18.502,134.667 18.520,134.667 18.730 C 134.667 18.878,134.554 19.000,134.417 19.000 C 134.261 19.000,134.167 19.157,134.167 19.417 C 134.167 19.646,134.109 19.833,134.038 19.833 C 133.967 19.833,133.761 20.114,133.580 20.458 C 133.398 20.801,133.070 21.251,132.851 21.458 C 132.435 21.848,132.245 21.944,132.408 21.680 C 132.460 21.596,132.400 21.424,132.274 21.297 C 132.147 21.171,131.992 20.903,131.927 20.701 C 131.863 20.499,131.741 20.333,131.655 20.333 C 131.570 20.333,131.500 20.237,131.500 20.120 C 131.500 20.003,131.350 19.799,131.167 19.667 C 130.983 19.535,130.833 19.330,130.833 19.213 C 130.833 19.096,130.702 18.866,130.542 18.703 C 130.381 18.540,130.140 18.184,130.005 17.912 C 129.870 17.639,129.645 17.289,129.505 17.133 C 128.981 16.550,128.833 16.343,128.833 16.191 C 128.833 16.105,128.647 15.858,128.420 15.642 C 128.192 15.427,128.004 15.119,128.003 14.958 C 128.001 14.798,127.917 14.667,127.816 14.667 C 127.714 14.667,127.676 14.783,127.730 14.925 C 127.789 15.079,127.760 15.141,127.658 15.078 C 127.564 15.020,127.532 14.828,127.588 14.652 C 127.654 14.445,127.597 14.296,127.428 14.231 C 127.284 14.176,127.167 13.987,127.167 13.810 C 127.167 13.634,127.054 13.446,126.917 13.394 C 126.779 13.341,126.667 13.193,126.667 13.066 C 126.667 12.873,125.902 12.833,122.167 12.833 L 117.667 12.833 117.667 13.307 M155.262 13.095 C 155.118 13.239,155.000 13.464,155.000 13.595 C 155.000 13.726,154.930 13.833,154.844 13.833 C 154.759 13.833,154.665 14.040,154.636 14.292 C 154.603 14.575,154.496 14.731,154.355 14.702 C 154.209 14.671,154.162 14.746,154.224 14.910 C 154.285 15.068,154.230 15.167,154.081 15.167 C 153.948 15.167,153.793 15.354,153.735 15.583 C 153.678 15.813,153.564 16.000,153.482 16.000 C 153.400 16.000,153.333 16.188,153.333 16.417 C 153.333 16.671,153.238 16.833,153.090 16.833 C 152.951 16.833,152.761 17.118,152.647 17.500 C 152.537 17.867,152.347 18.167,152.224 18.167 C 152.079 18.167,152.000 18.373,152.000 18.750 L 152.000 19.333 154.833 19.333 L 157.667 19.333 157.667 31.300 C 157.667 40.385,157.715 43.315,157.867 43.467 C 158.011 43.611,159.152 43.667,161.950 43.667 L 165.833 43.667 165.833 28.250 L 165.833 12.833 160.679 12.833 C 156.215 12.833,155.489 12.868,155.262 13.095 M180.035 13.090 C 179.915 13.226,179.530 13.333,179.160 13.333 C 178.797 13.333,178.500 13.408,178.500 13.500 C 178.500 13.592,178.284 13.667,178.020 13.667 C 177.757 13.667,177.447 13.779,177.333 13.917 C 177.219 14.054,176.948 14.167,176.730 14.167 C 176.488 14.167,176.333 14.265,176.333 14.417 C 176.333 14.561,176.183 14.667,175.977 14.667 C 175.782 14.667,175.462 14.835,175.267 15.042 C 175.072 15.248,174.771 15.441,174.598 15.471 C 174.223 15.537,173.807 15.918,173.952 16.063 C 174.009 16.120,173.964 16.167,173.851 16.167 C 173.739 16.167,173.693 16.241,173.749 16.331 C 173.809 16.429,173.734 16.451,173.563 16.386 C 173.343 16.301,173.300 16.341,173.383 16.554 C 173.478 16.803,173.404 16.865,173.062 16.820 C 172.863 16.793,172.334 17.751,172.421 17.982 C 172.492 18.172,172.461 18.175,172.254 18.003 C 172.040 17.826,172.000 17.848,172.000 18.146 C 172.000 18.341,171.906 18.501,171.792 18.503 C 171.653 18.504,171.667 18.559,171.833 18.667 C 172.058 18.812,171.954 18.905,171.625 18.853 C 171.556 18.842,171.500 18.946,171.500 19.083 C 171.500 19.221,171.425 19.333,171.333 19.333 C 171.242 19.333,171.167 19.550,171.167 19.816 C 171.167 20.090,171.059 20.339,170.917 20.394 C 170.761 20.453,170.667 20.707,170.667 21.064 C 170.667 21.380,170.579 21.668,170.471 21.704 C 170.363 21.740,170.249 22.091,170.218 22.485 C 170.186 22.878,170.095 23.324,170.015 23.475 C 169.935 23.626,169.867 25.887,169.863 28.500 C 169.859 31.295,169.915 33.113,170.000 32.917 C 170.172 32.515,170.204 32.650,170.200 33.784 C 170.198 34.330,170.284 34.723,170.432 34.846 C 170.561 34.953,170.667 35.247,170.667 35.500 C 170.667 35.753,170.779 36.053,170.917 36.167 C 171.054 36.281,171.167 36.552,171.167 36.770 C 171.167 36.988,171.242 37.167,171.333 37.167 C 171.425 37.167,171.500 37.354,171.500 37.583 C 171.500 37.828,171.596 38.000,171.732 38.000 C 171.859 38.000,172.011 38.188,172.068 38.417 C 172.126 38.646,172.247 38.833,172.337 38.833 C 172.426 38.833,172.500 38.908,172.500 39.000 C 172.500 39.202,174.318 41.000,174.522 41.000 C 174.602 41.000,174.667 41.070,174.667 41.155 C 174.667 41.241,174.835 41.364,175.042 41.428 C 175.248 41.492,175.467 41.623,175.528 41.719 C 175.590 41.815,175.776 41.913,175.942 41.938 C 176.108 41.962,176.270 42.061,176.303 42.158 C 176.335 42.254,176.647 42.333,176.996 42.333 C 177.407 42.333,177.665 42.422,177.727 42.583 C 177.780 42.721,178.013 42.833,178.245 42.833 C 178.477 42.833,178.667 42.908,178.667 43.000 C 178.667 43.092,179.105 43.167,179.649 43.167 C 180.368 43.167,180.657 43.234,180.727 43.417 C 180.809 43.631,181.494 43.667,185.481 43.667 C 190.044 43.667,190.759 43.617,190.573 43.316 C 190.522 43.234,190.855 43.167,191.314 43.167 C 191.772 43.167,192.193 43.092,192.250 43.000 C 192.307 42.908,192.576 42.833,192.848 42.833 C 193.135 42.833,193.384 42.728,193.440 42.583 C 193.494 42.441,193.743 42.333,194.018 42.333 C 194.283 42.333,194.500 42.258,194.500 42.167 C 194.500 42.075,194.621 42.000,194.768 42.000 C 194.919 42.000,194.999 41.906,194.953 41.784 C 194.902 41.653,195.009 41.558,195.223 41.542 C 195.418 41.527,195.662 41.399,195.765 41.257 C 195.869 41.116,196.007 41.000,196.072 41.000 C 196.254 41.000,196.667 40.546,196.667 40.345 C 196.667 40.247,196.779 40.167,196.917 40.167 C 197.054 40.167,197.167 40.091,197.167 39.999 C 197.167 39.907,197.354 39.668,197.583 39.469 C 197.813 39.270,198.000 39.003,198.000 38.877 C 198.000 38.750,198.068 38.689,198.150 38.740 C 198.233 38.791,198.397 38.589,198.515 38.291 C 198.632 37.994,198.758 37.675,198.794 37.583 C 198.829 37.492,198.779 37.529,198.682 37.667 C 198.585 37.804,198.504 37.836,198.503 37.737 C 198.501 37.639,198.691 37.379,198.924 37.160 C 199.157 36.941,199.336 36.609,199.322 36.422 C 199.275 35.795,199.332 35.631,199.568 35.721 C 199.828 35.821,199.949 35.140,200.104 32.708 C 200.168 31.698,200.252 31.333,200.419 31.333 C 200.602 31.333,200.648 30.838,200.648 28.833 C 200.648 26.766,200.606 26.333,200.407 26.333 C 200.215 26.333,200.167 26.020,200.167 24.764 C 200.167 23.771,200.099 23.172,199.983 23.133 C 199.882 23.100,199.802 22.775,199.804 22.411 C 199.805 22.047,199.707 21.594,199.586 21.404 C 199.464 21.214,199.337 20.877,199.303 20.654 C 199.270 20.432,199.166 20.263,199.073 20.280 C 198.980 20.296,198.889 20.109,198.870 19.863 C 198.831 19.337,198.503 18.638,198.209 18.450 C 198.094 18.377,198.000 18.208,198.000 18.075 C 198.000 17.828,197.412 17.143,197.298 17.257 C 197.264 17.292,197.096 17.061,196.925 16.743 C 196.754 16.426,196.547 16.167,196.464 16.167 C 196.381 16.167,196.367 16.253,196.433 16.359 C 196.509 16.482,196.478 16.506,196.348 16.426 C 196.236 16.356,196.184 16.195,196.233 16.066 C 196.285 15.932,196.219 15.833,196.078 15.833 C 195.943 15.833,195.833 15.758,195.833 15.667 C 195.833 15.575,195.590 15.495,195.292 15.488 C 194.868 15.479,194.820 15.449,195.072 15.350 C 195.294 15.264,195.333 15.186,195.197 15.102 C 195.089 15.035,194.926 15.026,194.835 15.082 C 194.740 15.141,194.713 15.072,194.772 14.919 C 194.828 14.772,194.809 14.665,194.729 14.680 C 194.358 14.747,194.001 14.644,193.756 14.399 C 193.608 14.251,193.342 14.169,193.161 14.217 C 192.933 14.276,192.833 14.218,192.831 14.026 C 192.829 13.787,192.807 13.783,192.667 14.000 C 192.529 14.214,192.505 14.208,192.503 13.958 C 192.501 13.746,192.364 13.667,192.000 13.667 C 191.725 13.667,191.500 13.592,191.500 13.500 C 191.500 13.408,191.139 13.333,190.699 13.333 C 190.252 13.333,189.754 13.225,189.574 13.089 C 189.166 12.780,181.687 12.713,181.385 13.015 C 181.255 13.145,181.173 13.145,181.092 13.015 C 180.933 12.756,180.289 12.802,180.035 13.090 M214.207 12.943 C 214.092 12.990,214.031 13.082,214.071 13.146 C 214.143 13.263,213.514 13.369,212.625 13.391 C 212.373 13.398,212.167 13.462,212.167 13.535 C 212.167 13.607,211.942 13.667,211.667 13.667 C 211.333 13.667,211.167 13.750,211.167 13.917 C 211.167 14.069,211.011 14.167,210.768 14.167 C 210.548 14.167,210.326 14.279,210.273 14.417 C 210.220 14.554,210.040 14.667,209.872 14.667 C 209.704 14.667,209.486 14.747,209.388 14.845 C 209.290 14.943,209.069 15.047,208.897 15.075 C 208.724 15.104,208.602 15.211,208.625 15.314 C 208.648 15.416,208.568 15.500,208.448 15.500 C 208.328 15.500,207.885 15.875,207.465 16.333 C 207.044 16.792,206.617 17.167,206.516 17.167 C 206.416 17.167,206.333 17.284,206.333 17.428 C 206.333 17.571,206.165 17.928,205.958 18.219 C 205.752 18.511,205.559 18.862,205.529 19.000 C 205.498 19.137,205.367 19.368,205.237 19.513 C 205.107 19.658,205.000 19.902,205.000 20.055 C 205.000 20.208,204.925 20.333,204.833 20.333 C 204.742 20.333,204.667 20.598,204.667 20.922 C 204.667 21.291,204.574 21.546,204.417 21.606 C 204.247 21.672,204.167 21.938,204.167 22.440 C 204.167 22.846,204.059 23.345,203.926 23.548 C 203.599 24.051,203.629 33.015,203.958 33.125 C 204.082 33.166,204.167 33.487,204.167 33.919 C 204.167 34.365,204.271 34.747,204.438 34.914 C 204.586 35.063,204.708 35.383,204.708 35.625 C 204.708 35.867,204.808 36.165,204.930 36.288 C 205.053 36.410,205.110 36.619,205.059 36.753 C 205.007 36.890,205.083 37.042,205.233 37.100 C 205.380 37.156,205.500 37.382,205.500 37.601 C 205.500 37.821,205.575 38.000,205.667 38.000 C 205.758 38.000,205.833 38.078,205.833 38.173 C 205.833 38.467,206.549 39.333,206.791 39.333 C 206.917 39.333,206.973 39.409,206.916 39.501 C 206.817 39.661,207.195 40.167,207.413 40.167 C 207.469 40.167,207.690 40.354,207.902 40.583 C 208.114 40.813,208.378 41.000,208.487 41.000 C 208.597 41.000,208.640 41.075,208.583 41.167 C 208.527 41.258,208.570 41.333,208.680 41.333 C 208.790 41.333,209.245 41.558,209.692 41.833 C 210.139 42.108,210.650 42.333,210.828 42.333 C 211.005 42.333,211.234 42.465,211.338 42.625 C 211.516 42.903,211.521 42.903,211.434 42.625 C 211.385 42.465,211.416 42.333,211.505 42.333 C 211.594 42.333,211.667 42.446,211.667 42.583 C 211.667 42.737,211.823 42.833,212.073 42.833 C 212.297 42.833,212.527 42.908,212.583 43.000 C 212.640 43.092,213.097 43.167,213.598 43.167 C 214.261 43.167,214.537 43.236,214.608 43.420 C 214.750 43.790,224.031 43.778,224.402 43.408 C 224.534 43.275,224.846 43.167,225.095 43.167 C 225.343 43.167,225.655 43.035,225.787 42.875 C 226.016 42.597,226.023 42.597,225.936 42.875 C 225.885 43.035,225.916 43.167,226.005 43.167 C 226.094 43.167,226.167 43.092,226.167 43.000 C 226.167 42.908,226.311 42.833,226.486 42.833 C 226.983 42.833,227.333 42.654,227.333 42.399 C 227.333 42.271,227.390 42.176,227.458 42.186 C 227.868 42.251,228.312 42.130,228.594 41.875 C 228.771 41.715,229.010 41.576,229.125 41.567 C 229.584 41.530,229.667 41.493,229.667 41.323 C 229.667 41.226,229.592 41.193,229.500 41.250 C 229.408 41.307,229.333 41.266,229.333 41.159 C 229.333 41.052,229.446 41.007,229.583 41.060 C 229.730 41.116,230.041 40.952,230.339 40.661 C 230.617 40.389,230.917 40.167,231.006 40.167 C 231.094 40.167,231.167 40.004,231.167 39.806 C 231.167 39.607,231.213 39.491,231.270 39.548 C 231.437 39.715,231.866 39.187,231.735 38.976 C 231.660 38.855,231.688 38.827,231.808 38.901 C 231.922 38.971,232.000 38.914,232.000 38.760 C 232.000 38.617,232.075 38.500,232.167 38.500 C 232.258 38.500,232.339 38.256,232.345 37.958 C 232.355 37.519,232.381 37.480,232.487 37.750 C 232.610 38.064,232.625 38.059,232.748 37.667 C 232.820 37.438,232.953 37.202,233.043 37.144 C 233.134 37.086,233.216 36.738,233.226 36.372 C 233.238 35.907,233.307 35.731,233.455 35.788 C 233.604 35.845,233.667 35.673,233.667 35.205 C 233.667 34.803,233.771 34.455,233.930 34.322 C 234.135 34.152,234.186 33.807,234.163 32.760 C 234.126 31.094,234.134 31.025,234.332 31.333 C 234.438 31.499,234.491 30.668,234.489 28.875 C 234.487 26.870,234.434 26.167,234.285 26.167 C 234.140 26.167,234.093 25.756,234.117 24.708 C 234.143 23.559,234.096 23.208,233.892 23.053 C 233.738 22.935,233.633 22.598,233.633 22.221 C 233.633 21.871,233.523 21.372,233.388 21.111 C 233.253 20.849,233.182 20.595,233.232 20.546 C 233.281 20.497,233.212 20.299,233.077 20.108 C 232.943 19.916,232.833 19.634,232.833 19.481 C 232.833 19.328,232.721 19.159,232.583 19.106 C 232.446 19.054,232.333 18.858,232.333 18.672 C 232.333 18.486,232.258 18.333,232.167 18.333 C 232.075 18.333,232.000 18.183,232.000 18.000 C 232.000 17.815,231.889 17.667,231.750 17.667 C 231.612 17.667,231.500 17.554,231.500 17.417 C 231.500 17.279,231.410 17.185,231.299 17.208 C 231.189 17.231,231.092 17.137,231.083 17.000 C 231.075 16.862,230.981 16.768,230.873 16.790 C 230.756 16.814,230.721 16.720,230.785 16.552 C 230.866 16.341,230.823 16.302,230.606 16.385 C 230.418 16.457,230.283 16.395,230.211 16.206 C 230.071 15.834,229.740 15.500,229.512 15.500 C 229.414 15.500,229.333 15.387,229.333 15.250 C 229.333 15.112,229.188 15.000,229.010 15.000 C 228.832 15.000,228.640 14.925,228.583 14.833 C 228.527 14.742,228.367 14.667,228.228 14.667 C 228.090 14.667,227.857 14.548,227.712 14.402 C 227.565 14.256,227.279 14.170,227.070 14.210 C 226.805 14.261,226.668 14.190,226.612 13.974 C 226.552 13.747,226.374 13.667,225.932 13.667 C 225.603 13.667,225.333 13.592,225.333 13.500 C 225.333 13.408,224.929 13.333,224.434 13.333 C 223.804 13.333,223.508 13.261,223.443 13.092 C 223.351 12.852,214.766 12.713,214.207 12.943 M247.934 13.098 C 247.875 13.253,247.585 13.333,247.089 13.333 C 246.673 13.333,246.333 13.408,246.333 13.500 C 246.333 13.592,246.079 13.667,245.768 13.667 C 245.419 13.667,245.166 13.762,245.106 13.917 C 245.054 14.054,244.821 14.167,244.589 14.167 C 244.325 14.167,244.167 14.260,244.167 14.417 C 244.167 14.572,244.009 14.667,243.750 14.667 C 243.521 14.667,243.333 14.740,243.333 14.830 C 243.333 14.920,243.146 15.041,242.918 15.098 C 242.689 15.155,242.544 15.269,242.594 15.351 C 242.645 15.433,242.564 15.500,242.414 15.500 C 242.059 15.500,241.113 16.446,241.249 16.665 C 241.343 16.817,241.134 16.895,240.910 16.792 C 240.860 16.769,240.666 16.994,240.477 17.292 C 240.288 17.590,240.066 17.833,239.984 17.833 C 239.901 17.833,239.833 17.983,239.833 18.167 C 239.833 18.350,239.740 18.501,239.625 18.503 C 239.472 18.504,239.476 18.543,239.643 18.648 C 239.800 18.748,239.813 18.826,239.684 18.906 C 239.583 18.968,239.500 18.959,239.499 18.885 C 239.496 18.520,238.974 19.813,238.962 20.214 C 238.955 20.470,238.886 20.717,238.810 20.765 C 238.733 20.812,238.720 20.722,238.780 20.565 C 238.855 20.371,238.827 20.317,238.695 20.399 C 238.588 20.465,238.500 20.771,238.500 21.079 C 238.500 21.387,238.412 21.668,238.304 21.704 C 238.197 21.740,238.082 22.103,238.050 22.510 C 238.017 22.917,237.922 23.274,237.838 23.303 C 237.749 23.333,237.681 25.418,237.676 28.219 C 237.670 31.460,237.722 33.000,237.831 32.833 C 238.021 32.543,238.037 32.618,238.033 33.784 C 238.031 34.330,238.117 34.723,238.265 34.846 C 238.394 34.953,238.500 35.224,238.500 35.448 C 238.500 35.672,238.706 36.128,238.958 36.461 C 239.210 36.794,239.323 37.010,239.208 36.940 C 239.093 36.870,239.000 36.893,239.000 36.990 C 239.000 37.087,239.075 37.167,239.167 37.167 C 239.258 37.167,239.333 37.354,239.333 37.583 C 239.333 37.828,239.429 38.000,239.565 38.000 C 239.693 38.000,239.845 38.190,239.903 38.423 C 240.007 38.836,242.064 41.000,242.353 41.000 C 242.434 41.000,242.500 41.070,242.500 41.155 C 242.500 41.241,242.669 41.364,242.875 41.428 C 243.081 41.492,243.300 41.623,243.362 41.719 C 243.423 41.815,243.609 41.913,243.775 41.938 C 243.941 41.962,244.104 42.061,244.136 42.158 C 244.168 42.254,244.369 42.333,244.583 42.333 C 244.797 42.333,245.010 42.427,245.057 42.542 C 245.123 42.705,245.175 42.702,245.297 42.528 C 245.424 42.347,245.473 42.355,245.555 42.569 C 245.611 42.715,245.846 42.833,246.078 42.833 C 246.310 42.833,246.500 42.908,246.500 43.000 C 246.500 43.092,246.939 43.167,247.482 43.167 C 248.201 43.167,248.490 43.234,248.560 43.417 C 248.642 43.631,249.328 43.667,253.314 43.667 C 257.877 43.667,258.592 43.617,258.406 43.316 C 258.355 43.234,258.712 43.161,259.198 43.154 C 259.685 43.146,259.990 43.103,259.875 43.056 C 259.418 42.872,259.708 42.725,260.405 42.787 C 261.010 42.841,261.176 42.794,261.320 42.525 C 261.435 42.311,261.608 42.226,261.820 42.282 C 262.025 42.335,262.318 42.207,262.613 41.933 C 262.870 41.695,263.177 41.500,263.295 41.500 C 263.414 41.500,263.554 41.387,263.606 41.250 C 263.659 41.112,263.775 41.000,263.863 41.000 C 264.079 41.000,264.500 40.568,264.500 40.345 C 264.500 40.247,264.576 40.167,264.669 40.167 C 264.911 40.167,265.823 39.129,265.828 38.847 C 265.831 38.717,265.886 38.663,265.949 38.727 C 266.071 38.849,266.667 37.753,266.667 37.407 C 266.667 37.297,266.783 37.111,266.925 36.993 C 267.067 36.875,267.171 36.622,267.157 36.431 C 267.110 35.833,267.160 35.667,267.383 35.667 C 267.512 35.667,267.615 35.425,267.639 35.060 C 267.662 34.726,267.752 34.318,267.840 34.154 C 267.928 33.990,268.000 33.288,268.000 32.594 C 268.000 31.607,268.052 31.333,268.240 31.333 C 268.439 31.333,268.481 30.900,268.481 28.833 C 268.481 26.766,268.439 26.333,268.240 26.333 C 268.049 26.333,267.999 26.021,267.994 24.792 C 267.990 23.816,267.905 23.100,267.762 22.842 C 267.638 22.617,267.571 22.341,267.615 22.228 C 267.658 22.116,267.580 21.774,267.441 21.470 C 267.303 21.166,267.161 20.767,267.126 20.583 C 267.092 20.400,266.989 20.264,266.898 20.281 C 266.808 20.297,266.715 20.035,266.693 19.697 C 266.670 19.360,266.580 19.058,266.493 19.028 C 266.405 18.997,266.333 18.874,266.333 18.754 C 266.333 18.634,266.221 18.492,266.083 18.440 C 265.946 18.387,265.833 18.236,265.833 18.105 C 265.833 17.974,265.590 17.612,265.292 17.301 C 264.994 16.989,264.629 16.588,264.482 16.409 C 264.014 15.840,263.508 15.500,263.123 15.497 C 262.835 15.495,262.804 15.461,262.989 15.344 C 263.169 15.229,263.017 15.100,262.372 14.818 C 261.900 14.612,261.560 14.372,261.614 14.283 C 261.674 14.187,261.503 14.153,261.190 14.199 C 260.793 14.257,260.666 14.212,260.664 14.013 C 260.662 13.782,260.642 13.781,260.500 14.000 C 260.362 14.214,260.338 14.208,260.336 13.958 C 260.334 13.746,260.197 13.667,259.833 13.667 C 259.558 13.667,259.333 13.592,259.333 13.500 C 259.333 13.408,258.930 13.333,258.437 13.333 C 257.837 13.333,257.471 13.249,257.330 13.079 C 257.027 12.714,248.075 12.732,247.934 13.098 M185.333 19.472 C 185.333 19.549,185.427 19.618,185.542 19.627 C 186.709 19.717,187.779 19.893,187.908 20.016 C 187.995 20.099,188.277 20.167,188.533 20.167 C 188.808 20.167,189.000 20.257,189.000 20.386 C 189.000 20.506,189.262 20.707,189.582 20.833 C 189.902 20.958,190.207 21.198,190.260 21.366 C 190.314 21.534,190.439 21.621,190.538 21.560 C 190.637 21.499,190.671 21.524,190.614 21.617 C 190.557 21.709,190.733 22.034,191.005 22.339 C 191.277 22.644,191.500 23.032,191.500 23.202 C 191.500 23.372,191.612 23.554,191.750 23.606 C 191.904 23.666,192.000 23.919,192.000 24.268 C 192.000 24.659,192.077 24.833,192.250 24.833 C 192.463 24.833,192.500 25.270,192.500 27.762 C 192.500 30.143,192.453 30.737,192.250 30.940 C 192.112 31.078,192.000 31.331,192.000 31.502 C 192.000 31.674,191.833 32.097,191.630 32.442 C 191.426 32.787,191.245 33.168,191.227 33.288 C 191.178 33.622,189.744 35.167,189.483 35.167 C 189.390 35.167,189.360 35.242,189.417 35.333 C 189.473 35.425,189.403 35.500,189.260 35.500 C 189.117 35.500,189.000 35.575,189.000 35.667 C 189.000 35.758,188.837 35.833,188.638 35.833 C 188.439 35.833,188.158 35.939,188.013 36.069 C 187.863 36.204,187.285 36.331,186.667 36.366 C 185.928 36.407,185.597 36.491,185.625 36.630 C 185.677 36.885,185.573 36.886,185.114 36.633 C 184.914 36.523,184.227 36.409,183.588 36.379 C 182.779 36.342,182.384 36.251,182.288 36.080 C 182.212 35.944,182.010 35.833,181.839 35.833 C 181.668 35.833,181.484 35.740,181.431 35.625 C 181.353 35.460,181.313 35.459,181.237 35.624 C 181.127 35.859,180.667 35.500,180.667 35.179 C 180.667 35.080,180.567 35.000,180.445 35.000 C 180.323 35.000,180.123 34.813,180.000 34.583 C 179.877 34.354,179.677 34.167,179.555 34.167 C 179.433 34.167,179.333 34.014,179.333 33.828 C 179.333 33.642,179.221 33.446,179.083 33.394 C 178.946 33.341,178.833 33.123,178.833 32.909 C 178.833 32.695,178.758 32.473,178.667 32.417 C 178.575 32.360,178.500 32.064,178.500 31.758 C 178.500 31.418,178.403 31.165,178.250 31.106 C 178.040 31.026,178.000 30.502,178.000 27.818 C 178.000 24.948,178.026 24.648,178.259 24.841 C 178.402 24.960,178.506 24.987,178.490 24.903 C 178.385 24.355,178.522 23.276,178.667 23.500 C 178.793 23.695,178.829 23.649,178.831 23.292 C 178.832 22.997,178.922 22.833,179.083 22.833 C 179.251 22.833,179.333 22.666,179.333 22.323 C 179.333 22.043,179.395 21.852,179.470 21.898 C 179.626 21.995,180.049 21.547,180.218 21.107 C 180.280 20.945,180.407 20.859,180.499 20.916 C 180.591 20.973,180.667 20.957,180.667 20.881 C 180.667 20.753,181.125 20.492,182.167 20.028 C 182.515 19.872,183.823 19.655,184.625 19.620 C 184.740 19.615,184.833 19.549,184.833 19.472 C 184.833 19.396,184.946 19.333,185.083 19.333 C 185.221 19.333,185.333 19.396,185.333 19.472 M219.000 19.472 C 219.000 19.549,219.094 19.616,219.208 19.623 C 220.550 19.698,221.574 19.854,221.763 20.011 C 221.891 20.117,222.102 20.163,222.231 20.114 C 222.360 20.064,222.712 20.243,223.013 20.512 C 223.314 20.780,223.640 21.001,223.738 21.003 C 224.008 21.007,224.667 21.761,224.667 22.065 C 224.667 22.213,224.742 22.333,224.833 22.333 C 224.925 22.333,225.000 22.446,225.000 22.583 C 225.000 22.721,225.112 22.833,225.250 22.833 C 225.406 22.833,225.500 22.991,225.500 23.250 C 225.500 23.479,225.568 23.667,225.652 23.667 C 225.736 23.667,225.855 23.967,225.917 24.334 C 225.979 24.701,226.092 24.963,226.167 24.916 C 226.243 24.869,226.314 26.138,226.325 27.735 C 226.337 29.413,226.279 30.681,226.187 30.737 C 226.100 30.791,225.978 31.134,225.917 31.500 C 225.855 31.866,225.736 32.207,225.652 32.259 C 225.568 32.311,225.500 32.501,225.500 32.682 C 225.500 32.863,225.383 33.055,225.240 33.110 C 225.098 33.165,225.020 33.313,225.069 33.438 C 225.118 33.568,225.050 33.667,224.911 33.667 C 224.777 33.667,224.667 33.767,224.667 33.890 C 224.667 34.146,223.274 35.500,223.010 35.500 C 222.913 35.500,222.833 35.575,222.833 35.667 C 222.833 35.758,222.698 35.833,222.532 35.833 C 222.366 35.833,222.085 35.943,221.907 36.078 C 221.729 36.213,221.260 36.325,220.865 36.328 C 220.431 36.331,220.188 36.399,220.250 36.499 C 220.317 36.609,220.210 36.611,219.934 36.507 C 219.596 36.378,219.534 36.394,219.609 36.590 C 219.668 36.743,219.599 36.833,219.425 36.833 C 219.257 36.833,219.194 36.757,219.266 36.641 C 219.343 36.516,219.311 36.494,219.174 36.579 C 219.051 36.655,218.902 36.613,218.817 36.480 C 218.694 36.286,218.671 36.286,218.669 36.479 C 218.667 36.642,218.607 36.658,218.458 36.536 C 218.344 36.442,217.843 36.362,217.345 36.358 C 216.705 36.354,216.398 36.276,216.295 36.093 C 216.215 35.950,216.019 35.833,215.858 35.833 C 215.698 35.833,215.477 35.743,215.367 35.633 C 215.211 35.478,215.167 35.483,215.167 35.657 C 215.167 35.779,214.909 35.607,214.595 35.273 C 214.280 34.940,213.942 34.667,213.845 34.667 C 213.747 34.667,213.667 34.554,213.667 34.417 C 213.667 34.279,213.600 34.167,213.518 34.167 C 213.436 34.167,213.322 33.979,213.265 33.750 C 213.207 33.521,213.087 33.333,212.997 33.333 C 212.907 33.333,212.833 33.181,212.833 32.995 C 212.833 32.809,212.721 32.613,212.583 32.560 C 212.420 32.498,212.333 32.238,212.333 31.816 C 212.333 31.407,212.256 31.167,212.125 31.167 C 211.963 31.167,211.935 30.487,212.000 28.099 C 212.046 26.412,212.027 25.066,211.958 25.109 C 211.890 25.151,211.833 25.105,211.833 25.005 C 211.833 24.905,211.930 24.786,212.047 24.741 C 212.165 24.696,212.278 24.457,212.298 24.210 C 212.319 23.964,212.448 23.699,212.584 23.623 C 212.721 23.546,212.833 23.342,212.833 23.168 C 212.833 22.995,212.908 22.807,213.000 22.750 C 213.092 22.693,213.167 22.464,213.167 22.240 C 213.167 22.016,213.252 21.833,213.355 21.833 C 213.459 21.833,213.783 21.580,214.074 21.271 C 214.366 20.962,214.762 20.659,214.954 20.598 C 215.145 20.537,215.344 20.379,215.395 20.246 C 215.446 20.114,215.589 20.045,215.713 20.092 C 215.837 20.140,216.153 20.067,216.416 19.931 C 216.678 19.795,216.954 19.722,217.030 19.768 C 217.105 19.815,217.167 19.770,217.167 19.668 C 217.167 19.546,217.259 19.535,217.440 19.637 C 217.748 19.809,218.333 19.706,218.333 19.481 C 218.333 19.400,218.483 19.333,218.667 19.333 C 218.850 19.333,219.000 19.396,219.000 19.472 M253.167 19.500 C 253.167 19.592,253.223 19.654,253.292 19.638 C 253.599 19.566,255.681 19.888,255.762 20.020 C 255.812 20.101,256.074 20.167,256.343 20.167 C 256.637 20.167,256.833 20.254,256.833 20.386 C 256.833 20.506,257.095 20.707,257.415 20.833 C 257.735 20.958,258.040 21.198,258.094 21.366 C 258.147 21.534,258.272 21.621,258.371 21.560 C 258.477 21.495,258.504 21.526,258.435 21.636 C 258.371 21.740,258.472 21.956,258.660 22.116 C 258.847 22.276,259.000 22.503,259.000 22.620 C 259.000 22.738,259.075 22.833,259.167 22.833 C 259.258 22.833,259.333 22.986,259.333 23.172 C 259.333 23.358,259.446 23.554,259.583 23.606 C 259.738 23.666,259.833 23.919,259.833 24.268 C 259.833 24.659,259.910 24.833,260.083 24.833 C 260.221 24.833,260.333 24.913,260.333 25.010 C 260.333 25.107,260.247 25.133,260.141 25.067 C 260.019 24.992,259.994 25.022,260.072 25.149 C 260.289 25.499,260.218 30.414,259.986 31.111 C 259.681 32.025,258.809 33.833,258.672 33.833 C 258.608 33.833,258.456 34.021,258.333 34.250 C 258.211 34.479,258.048 34.667,257.972 34.667 C 257.760 34.667,257.181 35.293,257.292 35.403 C 257.345 35.456,257.264 35.500,257.111 35.500 C 256.958 35.500,256.833 35.575,256.833 35.667 C 256.833 35.758,256.670 35.833,256.471 35.833 C 256.272 35.833,255.991 35.939,255.846 36.069 C 255.696 36.204,255.118 36.331,254.500 36.366 C 253.724 36.409,253.430 36.488,253.463 36.643 C 253.508 36.857,252.858 36.756,252.667 36.518 C 252.621 36.461,252.060 36.394,251.420 36.369 C 250.608 36.337,250.216 36.250,250.121 36.078 C 250.045 35.944,249.837 35.833,249.658 35.833 C 249.480 35.833,249.333 35.758,249.333 35.667 C 249.333 35.575,249.146 35.500,248.917 35.500 C 248.657 35.500,248.500 35.406,248.500 35.250 C 248.500 35.112,248.431 35.000,248.346 35.000 C 248.099 35.000,247.167 33.997,247.167 33.732 C 247.167 33.599,247.054 33.446,246.917 33.394 C 246.779 33.341,246.666 33.137,246.664 32.941 C 246.662 32.679,246.623 32.643,246.520 32.807 C 246.430 32.949,246.370 32.706,246.358 32.149 C 246.344 31.550,246.257 31.220,246.086 31.125 C 245.874 31.006,245.833 30.469,245.833 27.805 C 245.833 25.217,245.874 24.659,246.050 24.805 C 246.220 24.947,246.275 24.853,246.308 24.368 C 246.331 24.028,246.421 23.679,246.508 23.592 C 246.595 23.505,246.667 23.298,246.667 23.133 C 246.667 22.968,246.779 22.833,246.917 22.833 C 247.084 22.833,247.167 22.666,247.167 22.323 C 247.167 22.026,247.236 21.857,247.333 21.917 C 247.425 21.973,247.500 21.903,247.500 21.760 C 247.500 21.617,247.604 21.500,247.731 21.500 C 247.857 21.500,248.002 21.342,248.053 21.150 C 248.103 20.957,248.224 20.849,248.322 20.910 C 248.420 20.970,248.500 20.949,248.500 20.863 C 248.500 20.776,248.631 20.661,248.792 20.608 C 248.952 20.554,249.196 20.441,249.333 20.357 C 250.048 19.923,251.000 19.669,252.042 19.635 C 252.385 19.624,252.667 19.552,252.667 19.474 C 252.667 19.397,252.779 19.333,252.917 19.333 C 253.054 19.333,253.167 19.408,253.167 19.500 M99.299 19.958 C 99.151 20.136,99.201 20.145,99.568 20.006 C 99.887 19.884,99.987 19.887,99.908 20.013 C 99.834 20.134,100.091 20.184,100.691 20.165 C 102.338 20.115,102.808 20.165,103.060 20.417 C 103.197 20.554,103.466 20.667,103.657 20.667 C 103.848 20.667,104.135 20.736,104.294 20.821 C 104.453 20.906,104.719 21.018,104.886 21.070 C 105.052 21.122,105.151 21.224,105.106 21.297 C 105.061 21.370,105.227 21.519,105.475 21.629 C 105.722 21.738,106.059 22.054,106.222 22.331 C 106.385 22.607,106.590 22.833,106.676 22.833 C 106.763 22.833,106.833 22.968,106.833 23.133 C 106.833 23.298,106.902 23.505,106.986 23.592 C 107.069 23.679,107.163 23.975,107.194 24.250 C 107.225 24.525,107.341 24.825,107.453 24.917 C 107.590 25.029,107.664 25.748,107.680 27.125 C 107.696 28.527,107.763 29.167,107.893 29.169 C 108.024 29.171,108.019 29.213,107.879 29.302 C 107.742 29.389,107.666 30.004,107.648 31.174 C 107.634 32.133,107.588 32.823,107.547 32.708 C 107.417 32.346,107.167 32.483,107.167 32.917 C 107.167 33.146,107.092 33.333,107.000 33.333 C 106.908 33.333,106.833 33.521,106.833 33.750 C 106.833 34.009,106.739 34.167,106.583 34.167 C 106.446 34.167,106.333 34.247,106.333 34.345 C 106.333 34.443,106.224 34.633,106.090 34.767 C 105.957 34.900,105.890 35.120,105.942 35.255 C 106.003 35.414,105.932 35.500,105.741 35.500 C 105.352 35.500,104.167 36.026,104.167 36.199 C 104.167 36.273,103.909 36.333,103.593 36.333 C 103.278 36.333,102.973 36.408,102.917 36.500 C 102.860 36.592,102.462 36.667,102.032 36.668 C 101.602 36.668,101.034 36.781,100.770 36.919 C 100.343 37.142,100.313 37.142,100.499 36.918 C 100.726 36.644,99.904 36.717,99.303 37.023 C 99.148 37.102,98.117 37.167,97.011 37.167 L 95.000 37.167 95.000 28.505 L 95.000 19.844 96.958 19.797 C 98.035 19.771,99.044 19.747,99.199 19.744 C 99.414 19.740,99.438 19.791,99.299 19.958 M38.190 21.798 C 38.030 21.851,38.040 21.935,38.235 22.150 C 38.375 22.305,38.508 22.670,38.530 22.961 C 38.552 23.253,38.667 23.528,38.785 23.574 C 38.903 23.619,39.000 23.884,39.000 24.161 C 39.000 24.439,39.075 24.667,39.167 24.667 C 39.258 24.667,39.333 24.882,39.333 25.146 C 39.333 25.410,39.446 25.719,39.583 25.833 C 39.721 25.947,39.833 26.252,39.833 26.511 C 39.833 26.769,39.908 27.027,40.000 27.083 C 40.092 27.140,40.167 27.364,40.167 27.581 C 40.167 27.798,40.279 28.089,40.417 28.226 C 40.554 28.364,40.667 28.709,40.667 28.993 C 40.667 29.299,40.769 29.550,40.917 29.606 C 41.080 29.669,41.167 29.928,41.167 30.351 C 41.167 30.708,41.242 31.000,41.333 31.000 C 41.425 31.000,41.500 31.110,41.500 31.244 C 41.500 31.448,40.932 31.495,37.955 31.535 L 34.410 31.583 34.472 31.048 C 34.507 30.753,34.640 30.425,34.768 30.319 C 34.895 30.213,35.000 29.910,35.000 29.646 C 35.000 29.382,35.072 29.167,35.159 29.167 C 35.247 29.167,35.368 28.903,35.428 28.581 C 35.488 28.260,35.604 27.955,35.686 27.905 C 35.767 27.855,35.833 27.564,35.833 27.258 C 35.833 26.906,35.930 26.665,36.096 26.601 C 36.280 26.531,36.344 26.328,36.309 25.926 C 36.282 25.610,36.314 25.297,36.380 25.231 C 36.446 25.165,36.500 25.211,36.500 25.333 C 36.500 25.456,36.548 25.507,36.607 25.448 C 36.666 25.390,36.610 25.213,36.482 25.055 C 36.329 24.866,36.320 24.812,36.458 24.895 C 36.602 24.981,36.667 24.894,36.667 24.611 C 36.667 24.386,36.779 24.159,36.917 24.106 C 37.054 24.054,37.169 23.802,37.172 23.547 C 37.175 23.292,37.287 22.938,37.422 22.760 C 37.557 22.582,37.667 22.316,37.667 22.168 C 37.667 21.817,38.007 21.484,38.227 21.621 C 38.339 21.690,38.326 21.752,38.190 21.798 M128.958 40.031 C 128.931 41.893,128.909 40.417,128.909 36.750 C 128.909 33.083,128.931 31.560,128.958 33.364 C 128.985 35.168,128.985 38.168,128.958 40.031 M272.111 33.778 C 272.050 33.839,272.000 35.668,272.000 37.843 C 272.000 42.334,271.879 42.000,273.514 42.000 L 274.500 42.000 274.502 40.208 C 274.505 38.656,274.533 38.472,274.715 38.833 C 274.944 39.287,278.500 39.602,278.500 39.168 C 278.500 39.071,278.688 38.920,278.917 38.833 C 279.146 38.746,279.333 38.555,279.333 38.409 C 279.333 38.263,279.444 38.033,279.578 37.898 C 279.794 37.682,279.829 37.909,279.870 39.785 L 279.917 41.917 284.375 41.948 L 288.833 41.979 288.836 40.364 L 288.839 38.750 289.186 39.292 C 289.377 39.590,289.600 39.833,289.683 39.833 C 289.766 39.833,289.833 39.942,289.833 40.074 C 289.833 40.206,289.983 40.419,290.166 40.547 C 290.348 40.675,290.448 40.829,290.388 40.890 C 290.327 40.950,290.365 41.000,290.472 41.000 C 290.579 41.000,290.667 41.101,290.667 41.224 C 290.667 41.732,291.257 42.000,292.374 42.000 C 293.619 42.000,294.000 41.899,294.000 41.567 C 294.000 41.236,293.471 40.665,293.275 40.786 C 293.181 40.844,293.152 40.779,293.207 40.634 C 293.306 40.377,292.795 39.427,292.640 39.582 C 292.594 39.629,292.556 39.556,292.556 39.421 C 292.556 39.286,292.768 38.972,293.028 38.723 C 293.287 38.475,293.500 38.354,293.500 38.455 C 293.500 38.556,293.406 38.677,293.292 38.723 C 293.167 38.773,293.201 38.812,293.375 38.820 C 293.603 38.830,293.667 38.697,293.669 38.208 C 293.671 37.757,293.715 37.652,293.827 37.829 C 293.960 38.039,293.998 38.033,294.092 37.787 C 294.228 37.434,294.667 37.406,294.667 37.750 C 294.667 37.887,294.771 38.000,294.899 38.000 C 295.027 38.000,295.170 38.102,295.218 38.226 C 295.280 38.388,295.702 38.462,296.694 38.485 C 297.458 38.504,298.155 38.589,298.242 38.676 C 298.329 38.762,298.535 38.833,298.700 38.833 C 299.099 38.833,299.081 39.190,298.665 39.546 C 298.386 39.785,297.977 39.833,296.248 39.833 L 294.167 39.833 294.167 40.917 L 294.167 42.000 297.391 42.000 C 300.769 42.000,301.500 41.828,301.500 41.031 C 301.500 40.917,301.612 40.780,301.750 40.727 C 301.887 40.674,302.000 40.502,302.000 40.343 C 302.000 40.185,302.112 40.056,302.250 40.056 C 302.403 40.056,302.500 40.212,302.500 40.459 C 302.500 40.872,303.074 41.484,303.470 41.494 C 303.591 41.498,303.807 41.617,303.950 41.760 C 304.299 42.109,308.394 42.078,308.688 41.725 C 308.790 41.601,308.977 41.500,309.104 41.500 C 309.230 41.500,309.333 41.387,309.333 41.250 C 309.333 41.112,309.446 41.000,309.583 41.000 C 309.721 41.000,309.833 40.887,309.833 40.750 C 309.833 40.612,309.908 40.500,310.000 40.500 C 310.092 40.500,310.167 40.281,310.167 40.014 C 310.167 39.428,310.315 39.000,310.518 39.000 C 310.600 39.000,310.667 39.629,310.667 40.399 C 310.667 41.996,310.670 42.000,312.087 42.000 C 313.217 42.000,313.204 42.028,313.206 39.611 C 313.207 38.496,313.242 37.802,313.284 38.068 C 313.326 38.335,313.476 38.729,313.616 38.943 C 313.757 39.158,313.807 39.336,313.728 39.339 C 313.648 39.342,313.720 39.447,313.886 39.573 C 314.053 39.700,314.184 39.847,314.178 39.901 C 314.106 40.537,314.202 41.000,314.406 41.000 C 314.542 41.000,314.667 41.196,314.697 41.458 L 314.750 41.917 317.737 41.955 C 320.963 41.997,321.268 41.928,321.086 41.200 C 321.004 40.876,321.037 40.812,321.242 40.890 C 321.428 40.962,321.500 40.885,321.500 40.611 C 321.500 40.403,321.594 40.139,321.708 40.023 C 321.875 39.855,321.851 39.837,321.583 39.931 C 321.310 40.028,321.287 40.009,321.458 39.825 C 321.699 39.566,321.937 39.744,322.027 40.250 C 322.078 40.535,322.238 40.591,323.127 40.633 C 323.884 40.669,324.167 40.746,324.167 40.916 C 324.167 41.841,324.675 41.963,328.601 41.982 C 332.658 42.002,332.395 42.067,333.044 40.891 C 333.598 39.885,333.528 39.833,331.587 39.833 L 329.841 39.833 329.795 36.792 L 329.750 33.750 328.500 33.750 L 327.250 33.750 327.162 37.250 C 327.113 39.175,327.057 40.614,327.037 40.448 C 327.016 40.283,326.925 40.193,326.833 40.250 C 326.736 40.310,326.667 40.144,326.667 39.853 C 326.667 39.578,326.592 39.307,326.500 39.250 C 326.408 39.193,326.333 38.969,326.333 38.752 C 326.333 38.535,326.216 38.240,326.072 38.096 C 325.929 37.952,325.805 37.610,325.797 37.334 C 325.789 37.059,325.727 36.833,325.660 36.833 C 325.592 36.833,325.489 36.578,325.431 36.267 C 325.372 35.955,325.218 35.612,325.089 35.505 C 324.959 35.397,324.893 35.206,324.941 35.079 C 325.091 34.690,324.798 34.388,324.634 34.761 C 324.517 35.029,324.506 35.016,324.571 34.681 C 324.739 33.818,324.466 33.667,322.744 33.667 C 321.507 33.667,321.167 33.717,321.167 33.899 C 321.167 34.027,321.046 34.177,320.899 34.234 C 320.750 34.291,320.673 34.443,320.726 34.580 C 320.777 34.714,320.704 34.938,320.564 35.079 C 320.424 35.219,320.390 35.333,320.488 35.333 C 320.586 35.333,320.667 35.406,320.667 35.495 C 320.667 35.584,320.542 35.608,320.389 35.550 C 320.226 35.487,320.154 35.511,320.214 35.609 C 320.270 35.700,320.202 35.994,320.063 36.262 C 319.924 36.530,319.815 36.769,319.822 36.792 C 319.923 37.152,319.783 37.667,319.583 37.667 C 319.410 37.667,319.333 37.841,319.333 38.240 C 319.333 38.556,319.258 38.860,319.167 38.917 C 319.075 38.973,319.000 39.171,319.000 39.355 C 319.000 39.540,318.889 39.801,318.754 39.937 C 318.536 40.154,318.502 39.805,318.462 36.967 L 318.417 33.750 317.208 33.701 C 316.309 33.665,315.998 33.707,315.991 33.868 C 315.986 33.986,315.977 34.983,315.970 36.083 C 315.964 37.183,315.924 37.859,315.881 37.584 C 315.838 37.309,315.726 37.036,315.631 36.978 C 315.536 36.919,315.435 36.658,315.406 36.397 C 315.378 36.137,315.275 35.897,315.177 35.865 C 315.080 35.832,315.000 35.595,315.000 35.337 C 315.000 35.075,314.890 34.827,314.750 34.773 C 314.603 34.717,314.500 34.467,314.500 34.166 L 314.500 33.656 312.625 33.703 L 310.750 33.750 310.702 35.220 C 310.653 36.712,310.316 37.234,310.196 36.005 C 310.166 35.700,310.054 35.358,309.946 35.244 C 309.838 35.130,309.608 34.841,309.435 34.602 C 309.262 34.362,308.989 34.167,308.828 34.167 C 308.667 34.167,308.493 34.057,308.442 33.922 C 308.306 33.568,303.833 33.577,303.833 33.931 C 303.833 34.061,303.725 34.167,303.592 34.167 C 303.264 34.167,302.500 34.895,302.500 35.207 C 302.500 35.346,302.387 35.553,302.250 35.667 C 302.072 35.815,302.000 36.206,302.000 37.034 C 302.000 38.189,301.716 38.568,301.505 37.697 C 301.373 37.156,300.244 36.612,299.468 36.717 C 298.994 36.780,298.833 36.742,298.833 36.567 C 298.833 36.424,298.655 36.331,298.375 36.328 C 298.123 36.325,297.771 36.213,297.593 36.078 C 297.302 35.858,297.448 35.833,299.046 35.833 C 300.659 35.833,300.838 35.802,301.002 35.495 C 301.102 35.309,301.255 35.201,301.342 35.255 C 301.429 35.309,301.500 35.202,301.500 35.018 C 301.500 34.834,301.620 34.616,301.767 34.534 C 301.914 34.452,302.007 34.242,301.973 34.067 C 301.800 33.168,294.689 33.625,294.672 34.536 C 294.669 34.722,294.578 34.789,294.417 34.727 C 294.261 34.667,294.167 34.728,294.167 34.889 C 294.167 35.031,294.093 35.193,294.002 35.249 C 293.911 35.305,293.876 35.250,293.923 35.127 C 293.970 35.004,293.777 34.644,293.494 34.327 L 292.979 33.750 286.448 33.750 L 279.917 33.750 279.865 34.552 C 279.824 35.201,279.760 35.344,279.532 35.299 C 279.333 35.260,279.266 35.111,279.303 34.790 C 279.345 34.439,279.261 34.293,278.934 34.144 C 278.701 34.038,278.550 33.887,278.598 33.809 C 278.701 33.643,272.277 33.612,272.111 33.778 M337.337 33.913 C 337.221 34.052,337.037 34.167,336.927 34.167 C 336.558 34.167,335.833 35.089,335.833 35.561 C 335.833 35.837,335.764 35.977,335.659 35.912 C 335.541 35.839,335.501 36.489,335.534 37.944 C 335.567 39.359,335.644 40.072,335.763 40.051 C 335.862 40.034,335.929 40.184,335.913 40.385 C 335.894 40.610,336.109 40.973,336.475 41.333 L 337.068 41.917 339.701 41.970 L 342.333 42.023 342.333 40.928 L 342.333 39.833 340.833 39.833 C 339.964 39.833,339.333 39.765,339.333 39.670 C 339.333 39.580,339.164 39.464,338.957 39.412 C 338.173 39.215,337.584 36.982,338.249 36.727 C 338.386 36.675,338.457 36.565,338.406 36.483 C 338.355 36.400,338.543 36.324,338.823 36.313 C 339.581 36.282,339.632 36.268,339.858 36.042 C 339.977 35.923,340.482 35.833,341.033 35.833 C 341.781 35.833,342.000 35.777,342.000 35.583 C 342.000 35.446,342.075 35.333,342.167 35.333 C 342.258 35.333,342.333 35.146,342.333 34.917 C 342.333 34.649,342.427 34.500,342.595 34.500 C 342.771 34.500,342.839 34.377,342.803 34.125 C 342.734 33.635,337.729 33.440,337.337 33.913 M344.774 33.917 C 344.636 34.054,344.419 34.167,344.290 34.167 C 344.162 34.167,343.956 34.354,343.833 34.583 C 343.711 34.813,343.548 35.000,343.472 35.000 C 343.396 35.000,343.333 35.150,343.333 35.333 C 343.333 35.519,343.222 35.667,343.083 35.667 C 342.876 35.667,342.834 35.985,342.836 37.542 C 342.838 39.504,342.938 40.225,343.186 40.072 C 343.267 40.021,343.333 40.129,343.333 40.311 C 343.333 40.493,343.522 40.791,343.753 40.973 C 344.047 41.204,344.110 41.333,343.962 41.403 C 343.845 41.459,343.920 41.472,344.127 41.434 C 344.368 41.389,344.561 41.468,344.660 41.654 C 345.068 42.417,350.167 42.010,350.167 41.214 C 350.167 41.096,350.279 41.000,350.417 41.000 C 350.584 41.000,350.672 40.821,350.683 40.458 C 350.699 39.950,350.708 39.943,350.826 40.333 L 350.952 40.750 351.078 40.289 C 351.148 40.035,351.169 39.641,351.125 39.414 C 351.072 39.137,351.121 39.000,351.273 39.000 C 351.446 39.000,351.500 39.330,351.500 40.399 C 351.500 41.983,351.514 42.000,352.833 42.000 C 354.059 42.000,354.167 41.918,354.167 40.982 C 354.167 40.368,354.229 40.167,354.417 40.167 C 354.605 40.167,354.667 40.368,354.667 40.982 C 354.667 41.970,354.723 42.000,356.571 42.000 C 358.145 42.000,358.491 41.792,358.464 40.865 C 358.456 40.564,358.535 40.231,358.641 40.126 C 358.747 40.020,358.848 39.555,358.866 39.092 C 358.884 38.629,358.941 39.075,358.991 40.083 L 359.083 41.917 361.583 41.917 L 364.083 41.917 364.167 40.333 C 364.213 39.451,364.303 38.879,364.370 39.042 C 364.588 39.573,367.871 39.466,368.306 38.913 C 368.530 38.629,368.664 38.561,368.722 38.705 C 368.769 38.821,368.813 38.718,368.820 38.476 C 368.848 37.532,369.333 37.785,369.333 38.743 C 369.333 39.321,369.423 39.732,369.583 39.893 C 369.721 40.030,369.833 40.340,369.833 40.581 C 369.833 40.850,369.902 40.977,370.011 40.910 C 370.109 40.849,370.230 40.957,370.281 41.150 C 370.331 41.342,370.480 41.500,370.613 41.500 C 370.745 41.500,370.812 41.566,370.763 41.646 C 370.625 41.869,371.543 42.000,373.250 42.000 C 374.957 42.000,375.875 41.869,375.737 41.646 C 375.688 41.566,375.715 41.500,375.798 41.500 C 376.097 41.500,376.667 40.870,376.667 40.540 C 376.667 40.354,376.785 40.157,376.929 40.102 C 377.118 40.029,377.184 39.802,377.164 39.292 C 377.148 38.902,377.143 37.965,377.151 37.208 L 377.167 35.833 378.496 35.833 L 379.826 35.833 379.871 38.875 L 379.917 41.917 380.576 41.970 C 380.939 42.000,381.464 41.981,381.743 41.929 L 382.250 41.834 382.198 38.834 L 382.146 35.833 383.059 35.833 C 384.174 35.833,384.500 35.721,384.500 35.336 C 384.500 35.174,384.611 34.949,384.747 34.836 C 384.963 34.657,384.999 35.080,385.038 38.274 L 385.083 41.917 389.583 41.917 L 394.083 41.917 394.132 40.549 C 394.186 39.011,394.403 38.861,394.919 40.005 C 395.081 40.364,395.278 40.618,395.357 40.569 C 395.435 40.520,395.500 40.597,395.500 40.740 C 395.500 40.883,395.567 41.000,395.649 41.000 C 395.730 41.000,395.842 41.179,395.897 41.397 C 396.017 41.877,396.402 41.995,397.855 41.998 C 399.100 42.000,399.675 41.662,399.119 41.255 C 398.962 41.140,398.833 40.961,398.833 40.857 C 398.833 40.752,398.743 40.685,398.633 40.708 C 398.522 40.731,398.421 40.637,398.408 40.500 C 398.395 40.362,398.373 40.156,398.359 40.042 C 398.345 39.927,398.165 39.832,397.958 39.831 C 397.654 39.829,397.630 39.797,397.833 39.664 C 398.033 39.533,398.040 39.472,397.867 39.360 C 397.620 39.201,397.949 38.836,398.400 38.770 C 399.246 38.645,399.804 35.431,399.083 34.833 C 398.946 34.719,398.833 34.560,398.833 34.480 C 398.833 34.399,398.688 34.188,398.510 34.010 C 398.123 33.623,385.514 33.476,385.059 33.854 C 384.902 33.984,384.833 33.986,384.833 33.861 C 384.833 33.737,383.272 33.681,379.750 33.679 L 374.667 33.677 374.661 36.130 C 374.656 38.203,374.611 38.635,374.369 38.917 C 373.946 39.410,373.287 39.664,372.938 39.468 C 372.777 39.379,372.547 39.344,372.425 39.390 C 372.274 39.448,372.231 39.373,372.288 39.154 C 372.334 38.978,372.296 38.833,372.202 38.833 C 372.095 38.833,372.023 37.920,372.009 36.376 C 371.982 33.514,372.047 33.636,370.567 33.700 L 369.417 33.750 369.366 34.542 C 369.299 35.582,368.833 35.534,368.833 34.486 C 368.833 34.311,368.729 34.167,368.601 34.167 C 368.473 34.167,368.327 34.057,368.276 33.924 C 368.197 33.718,367.401 33.687,362.966 33.716 L 357.750 33.750 357.698 34.113 C 357.670 34.312,357.539 34.565,357.407 34.675 C 357.266 34.792,357.167 35.171,357.167 35.594 C 357.167 35.990,357.092 36.360,357.000 36.417 C 356.908 36.473,356.833 36.890,356.833 37.343 C 356.833 38.134,356.656 38.388,356.397 37.968 C 356.330 37.859,356.291 37.447,356.312 37.052 C 356.340 36.499,356.289 36.333,356.091 36.333 C 355.890 36.333,355.833 36.133,355.833 35.417 C 355.833 34.912,355.764 34.500,355.678 34.500 C 355.593 34.500,355.499 34.331,355.470 34.125 C 355.418 33.761,355.361 33.750,353.500 33.750 L 351.583 33.750 351.498 35.333 C 351.432 36.550,351.381 36.801,351.277 36.417 C 351.022 35.469,350.615 34.667,350.391 34.667 C 350.268 34.667,350.167 34.554,350.167 34.417 C 350.167 34.251,350.001 34.167,349.677 34.167 C 349.407 34.167,349.133 34.080,349.067 33.974 C 348.994 33.855,349.022 33.827,349.141 33.901 C 349.247 33.966,349.333 33.940,349.333 33.843 C 349.333 33.542,345.080 33.611,344.774 33.917 M272.458 39.708 C 272.429 40.740,272.405 39.896,272.405 37.833 C 272.405 35.771,272.429 34.927,272.458 35.958 C 272.487 36.990,272.487 38.677,272.458 39.708 M286.800 37.875 C 286.766 41.607,286.706 41.174,286.626 36.625 C 286.603 35.273,286.640 34.166,286.708 34.166 C 286.777 34.167,286.818 35.835,286.800 37.875 M286.333 35.667 L 286.333 36.333 284.333 36.333 C 282.667 36.333,282.333 36.292,282.333 36.083 C 282.333 35.877,282.639 35.833,284.083 35.833 L 285.833 35.833 285.833 35.417 C 285.833 35.157,285.928 35.000,286.083 35.000 C 286.264 35.000,286.333 35.185,286.333 35.667 M391.500 35.667 L 391.500 36.333 389.583 36.333 C 387.991 36.333,387.667 36.291,387.667 36.083 C 387.667 35.878,387.960 35.833,389.307 35.833 C 390.894 35.833,390.953 35.820,391.136 35.417 C 391.403 34.830,391.500 34.897,391.500 35.667 M276.333 36.000 C 276.333 36.092,276.413 36.167,276.510 36.167 C 276.607 36.167,276.640 36.092,276.583 36.000 C 276.420 35.736,276.770 35.806,277.000 36.083 C 277.155 36.270,277.157 36.333,277.011 36.333 C 276.902 36.333,276.852 36.396,276.900 36.473 C 277.041 36.701,275.873 37.167,275.161 37.167 C 274.501 37.167,274.500 37.166,274.500 36.500 L 274.500 35.833 275.417 35.833 C 275.921 35.833,276.333 35.908,276.333 36.000 M290.731 36.094 C 290.786 36.237,290.891 36.317,290.965 36.272 C 291.039 36.226,291.205 36.254,291.335 36.334 C 291.886 36.675,291.034 37.167,289.891 37.167 L 288.833 37.167 288.833 36.500 L 288.833 35.833 289.732 35.833 C 290.394 35.833,290.657 35.902,290.731 36.094 M347.140 36.040 C 347.305 36.205,347.379 36.197,347.504 35.999 C 347.641 35.782,347.662 35.784,347.664 36.014 C 347.666 36.158,347.854 36.377,348.083 36.500 C 348.560 36.755,348.713 38.645,348.290 39.067 C 348.052 39.305,347.168 39.583,346.917 39.499 C 346.825 39.468,346.525 39.436,346.250 39.428 C 345.822 39.415,345.755 39.354,345.787 38.998 C 345.808 38.770,345.783 38.677,345.732 38.792 C 345.681 38.906,345.584 39.000,345.517 39.000 C 345.337 39.000,345.510 37.101,345.700 36.981 C 345.789 36.925,345.855 36.832,345.848 36.773 C 345.802 36.436,345.891 36.360,346.447 36.255 C 346.901 36.170,346.998 36.101,346.822 35.989 C 346.691 35.906,346.662 35.837,346.758 35.836 C 346.855 35.834,347.026 35.926,347.140 36.040 M366.625 36.102 C 366.913 36.389,366.887 36.677,366.583 36.560 C 366.446 36.508,366.333 36.545,366.333 36.643 C 366.333 36.741,366.174 36.907,365.980 37.011 C 365.694 37.164,365.651 37.157,365.754 36.975 C 365.857 36.794,365.839 36.790,365.658 36.958 C 365.078 37.496,364.167 37.216,364.167 36.500 L 364.167 35.833 365.292 35.864 C 365.927 35.881,366.507 35.985,366.625 36.102 M396.191 36.125 C 396.824 36.416,397.022 36.667,396.620 36.667 C 396.503 36.667,396.295 36.798,396.157 36.959 C 395.963 37.186,395.710 37.239,395.037 37.193 L 394.167 37.134 394.167 36.484 L 394.167 35.833 394.862 35.833 C 395.245 35.833,395.843 35.965,396.191 36.125 M307.042 36.414 L 307.667 36.705 307.667 37.824 C 307.667 38.879,307.640 38.957,307.208 39.173 C 306.956 39.299,306.628 39.503,306.479 39.625 C 306.249 39.814,306.192 39.805,306.101 39.569 C 306.017 39.351,305.860 39.312,305.372 39.391 C 305.015 39.448,304.845 39.431,304.972 39.352 C 305.141 39.247,305.111 39.191,304.847 39.122 C 304.397 39.004,304.356 37.610,304.782 36.868 C 305.024 36.446,305.983 35.967,306.333 36.093 C 306.379 36.109,306.698 36.253,307.042 36.414 M323.133 37.700 C 323.524 38.091,323.371 38.500,322.833 38.500 C 322.389 38.500,322.333 38.444,322.333 38.000 C 322.333 37.463,322.743 37.309,323.133 37.700 M286.334 39.208 L 286.334 39.917 284.334 39.865 L 282.333 39.814 282.333 39.157 L 282.333 38.500 284.333 38.500 L 286.333 38.500 286.334 39.208 M391.500 39.167 L 391.500 39.833 389.583 39.833 L 387.667 39.833 387.667 39.167 L 387.667 38.500 389.583 38.500 L 391.500 38.500 391.500 39.167 " stroke="none" fill="#646464" fill-rule="evenodd"></path><path id="path1" d="M359.833 24.750 L 359.833 28.833 379.583 28.833 L 399.333 28.833 399.333 24.750 L 399.333 20.667 379.583 20.667 L 359.833 20.667 359.833 24.750 " stroke="none" fill="#4c8cc4" fill-rule="evenodd"></path><path id="path2" d="M272.000 24.750 L 272.000 28.833 291.750 28.833 L 311.500 28.833 311.500 24.750 L 311.500 20.667 291.750 20.667 L 272.000 20.667 272.000 24.750 " stroke="none" fill="#ac1c1c" fill-rule="evenodd"></path><path id="path3" d="M193.667 14.302 C 193.667 14.391,193.785 14.510,193.931 14.566 C 194.093 14.628,194.169 14.591,194.129 14.469 C 194.045 14.220,193.667 14.083,193.667 14.302 M209.934 14.431 C 209.872 14.593,209.909 14.669,210.031 14.629 C 210.280 14.545,210.417 14.167,210.198 14.167 C 210.109 14.167,209.990 14.285,209.934 14.431 M145.364 16.750 C 145.259 16.979,145.201 17.167,145.234 17.167 C 145.268 17.167,145.418 16.979,145.568 16.750 C 145.718 16.521,145.776 16.333,145.697 16.333 C 145.618 16.333,145.468 16.521,145.364 16.750 M25.833 16.937 C 25.833 17.159,25.879 17.170,26.083 17.000 C 26.221 16.886,26.333 16.764,26.333 16.730 C 26.333 16.695,26.221 16.667,26.083 16.667 C 25.946 16.667,25.833 16.788,25.833 16.937 M184.833 19.500 C 184.833 19.592,184.946 19.667,185.083 19.667 C 185.221 19.667,185.333 19.592,185.333 19.500 C 185.333 19.408,185.221 19.333,185.083 19.333 C 184.946 19.333,184.833 19.408,184.833 19.500 M252.667 19.500 C 252.667 19.592,252.779 19.667,252.917 19.667 C 253.054 19.667,253.167 19.592,253.167 19.500 C 253.167 19.408,253.054 19.333,252.917 19.333 C 252.779 19.333,252.667 19.408,252.667 19.500 M253.333 19.700 C 253.333 19.773,253.596 19.833,253.917 19.833 C 254.237 19.833,254.500 19.804,254.500 19.768 C 254.500 19.732,254.237 19.672,253.917 19.635 C 253.596 19.598,253.333 19.627,253.333 19.700 M315.833 24.750 L 315.833 28.833 335.667 28.833 L 355.500 28.833 355.500 24.750 L 355.500 20.667 335.667 20.667 L 315.833 20.667 315.833 24.750 M223.833 21.123 C 223.833 21.316,224.473 21.915,224.573 21.816 C 224.612 21.777,224.461 21.570,224.239 21.355 C 224.016 21.141,223.833 21.036,223.833 21.123 M36.833 24.167 C 36.701 24.248,36.648 24.371,36.716 24.438 C 36.784 24.506,36.926 24.474,37.033 24.367 C 37.285 24.115,37.145 23.974,36.833 24.167 M65.833 28.603 C 65.833 28.695,65.943 28.915,66.078 29.093 C 66.213 29.271,66.323 29.342,66.323 29.250 C 66.323 29.158,66.213 28.938,66.078 28.760 C 65.943 28.582,65.833 28.511,65.833 28.603 M136.833 29.833 C 136.701 29.915,136.648 30.037,136.716 30.105 C 136.784 30.172,136.926 30.140,137.033 30.033 C 137.285 29.782,137.145 29.641,136.833 29.833 M128.576 36.750 C 128.576 40.417,128.598 41.893,128.625 40.031 C 128.652 38.168,128.652 35.168,128.625 33.364 C 128.598 31.560,128.576 33.083,128.576 36.750 M223.802 34.686 C 223.556 34.951,223.411 35.167,223.479 35.167 C 223.548 35.167,223.820 34.942,224.083 34.667 C 224.347 34.392,224.492 34.176,224.406 34.186 C 224.320 34.197,224.049 34.422,223.802 34.686 M315.833 35.500 C 315.833 36.454,315.774 36.834,315.625 36.836 C 315.472 36.838,315.468 36.871,315.610 36.961 C 315.716 37.029,315.836 37.309,315.877 37.584 C 315.917 37.859,315.961 37.202,315.975 36.125 C 315.989 35.048,315.962 34.167,315.917 34.167 C 315.871 34.167,315.833 34.767,315.833 35.500 M343.617 34.600 C 343.453 34.820,343.378 35.000,343.452 35.000 C 343.597 35.000,344.057 34.334,343.970 34.250 C 343.941 34.222,343.782 34.379,343.617 34.600 M301.576 34.678 C 301.516 34.776,301.507 34.896,301.556 34.944 C 301.675 35.064,302.000 34.853,302.000 34.657 C 302.000 34.444,301.712 34.458,301.576 34.678 M309.557 34.747 C 309.692 34.883,309.837 35.089,309.879 35.205 C 309.920 35.322,310.008 35.368,310.072 35.308 C 310.203 35.187,309.675 34.500,309.451 34.500 C 309.373 34.500,309.421 34.611,309.557 34.747 M23.768 35.430 C 23.611 35.838,23.645 35.878,23.917 35.607 C 24.200 35.324,24.236 35.167,24.018 35.167 C 23.936 35.167,23.823 35.285,23.768 35.430 M395.740 36.089 C 395.918 36.223,396.139 36.333,396.230 36.333 C 396.322 36.333,396.251 36.223,396.074 36.089 C 395.896 35.954,395.675 35.844,395.583 35.844 C 395.492 35.844,395.562 35.954,395.740 36.089 M305.875 36.282 C 306.035 36.323,306.298 36.323,306.458 36.282 C 306.619 36.240,306.487 36.205,306.167 36.205 C 305.846 36.205,305.715 36.240,305.875 36.282 M346.708 36.282 C 346.869 36.323,347.131 36.323,347.292 36.282 C 347.452 36.240,347.321 36.205,347.000 36.205 C 346.679 36.205,346.548 36.240,346.708 36.282 M184.951 36.517 C 185.082 36.649,185.222 36.651,185.442 36.522 C 185.712 36.366,185.689 36.343,185.258 36.338 C 184.900 36.335,184.816 36.383,184.951 36.517 M218.833 36.500 C 218.833 36.709,219.010 36.709,219.333 36.500 C 219.535 36.369,219.512 36.338,219.208 36.336 C 219.002 36.334,218.833 36.408,218.833 36.500 M252.784 36.517 C 252.916 36.649,253.055 36.651,253.276 36.522 C 253.545 36.366,253.523 36.343,253.092 36.338 C 252.733 36.335,252.650 36.383,252.784 36.517 M98.750 37.000 C 98.619 37.212,99.005 37.212,99.333 37.000 C 99.537 36.869,99.515 36.838,99.218 36.836 C 99.017 36.834,98.807 36.908,98.750 37.000 M301.538 37.865 C 301.574 37.973,301.693 38.092,301.802 38.129 C 301.924 38.169,301.961 38.093,301.899 37.931 C 301.783 37.628,301.438 37.565,301.538 37.865 M313.167 39.583 C 313.167 40.668,313.203 41.519,313.248 41.475 C 313.366 41.357,313.382 37.827,313.265 37.710 C 313.211 37.656,313.167 38.499,313.167 39.583 M298.338 39.493 C 298.203 39.579,298.143 39.699,298.205 39.761 C 298.267 39.823,298.439 39.752,298.587 39.603 C 298.881 39.310,298.732 39.244,298.338 39.493 M306.106 39.583 C 306.159 39.721,306.223 39.833,306.247 39.833 C 306.272 39.833,306.386 39.721,306.500 39.583 C 306.673 39.375,306.650 39.333,306.359 39.333 C 306.118 39.333,306.040 39.410,306.106 39.583 M346.667 39.399 C 346.667 39.561,347.136 39.621,347.348 39.487 C 347.519 39.379,347.459 39.338,347.125 39.336 C 346.873 39.334,346.667 39.363,346.667 39.399 M70.167 40.770 C 70.167 40.861,70.277 41.082,70.411 41.260 C 70.546 41.438,70.656 41.508,70.656 41.417 C 70.656 41.325,70.546 41.104,70.411 40.926 C 70.277 40.749,70.167 40.678,70.167 40.770 M294.013 41.444 C 294.006 41.643,293.906 41.843,293.792 41.890 C 293.628 41.955,293.630 41.977,293.797 41.987 C 294.050 42.002,294.234 41.600,294.112 41.297 C 294.065 41.180,294.020 41.246,294.013 41.444 M228.260 42.089 C 228.078 42.226,228.029 42.333,228.147 42.333 C 228.262 42.333,228.470 42.221,228.607 42.083 C 228.927 41.764,228.684 41.768,228.260 42.089 M180.372 43.365 C 180.408 43.473,180.527 43.592,180.636 43.629 C 180.757 43.669,180.795 43.593,180.732 43.431 C 180.616 43.128,180.272 43.065,180.372 43.365 M248.205 43.365 C 248.241 43.473,248.360 43.592,248.469 43.629 C 248.591 43.669,248.628 43.593,248.566 43.431 C 248.449 43.128,248.105 43.065,248.205 43.365 " stroke="none" fill="#1c7424" fill-rule="evenodd"></path><path id="path4" d="M71.500 24.083 C 71.500 24.221,71.622 24.333,71.770 24.333 C 71.992 24.333,72.003 24.288,71.833 24.083 C 71.719 23.946,71.598 23.833,71.563 23.833 C 71.528 23.833,71.500 23.946,71.500 24.083 M211.944 24.778 C 211.742 24.980,211.829 25.158,212.083 25.060 C 212.221 25.008,212.333 24.897,212.333 24.816 C 212.333 24.641,212.104 24.618,211.944 24.778 M128.909 36.750 C 128.909 40.417,128.931 41.893,128.958 40.031 C 128.985 38.168,128.985 35.168,128.958 33.364 C 128.931 31.560,128.909 33.083,128.909 36.750 M107.336 32.198 C 107.341 32.617,107.661 32.962,107.664 32.552 C 107.666 32.351,107.592 32.140,107.500 32.083 C 107.408 32.027,107.334 32.079,107.336 32.198 M272.405 37.833 C 272.405 39.896,272.429 40.740,272.458 39.708 C 272.487 38.677,272.487 36.990,272.458 35.958 C 272.429 34.927,272.405 35.771,272.405 37.833 M286.626 36.625 C 286.706 41.174,286.766 41.607,286.800 37.875 C 286.818 35.835,286.777 34.167,286.708 34.166 C 286.640 34.166,286.603 35.273,286.626 36.625 M276.606 36.083 C 276.659 36.221,276.816 36.333,276.955 36.333 C 277.161 36.333,277.169 36.287,277.000 36.083 C 276.886 35.946,276.729 35.833,276.651 35.833 C 276.574 35.833,276.554 35.946,276.606 36.083 M365.994 35.956 C 366.129 36.008,366.370 36.209,366.530 36.401 C 366.711 36.617,366.824 36.666,366.828 36.530 C 366.836 36.210,366.406 35.831,366.054 35.846 C 365.824 35.856,365.810 35.883,365.994 35.956 M382.235 38.667 C 382.235 40.271,382.260 40.927,382.291 40.125 C 382.321 39.323,382.321 38.010,382.291 37.208 C 382.260 36.406,382.235 37.063,382.235 38.667 M304.500 38.728 C 304.500 39.002,304.799 39.256,304.948 39.108 C 304.998 39.057,304.918 38.894,304.770 38.746 C 304.537 38.513,304.500 38.511,304.500 38.728 " stroke="none" fill="#6c6c6c" fill-rule="evenodd"></path></g></svg>