<svg height="60.869565" viewBox="0 0 400 60.86956522" width="400" xmlns="http://www.w3.org/2000/svg"><g fill-rule="evenodd"><path d="m0 16.083v3.25h4.667 4.666v12.167 12.167h3.917 3.917v-12.167-12.167l3.625-.025c1.993-.014 3.73-.033 3.858-.043.129-.009.26-.191.293-.404.032-.212.171-.499.308-.636s.249-.356.249-.487.075-.238.167-.238c.091 0 .157-.056.147-.125-.06-.38.045-.708.228-.71.215-.001.625-.732.625-1.115 0-.119.112-.217.25-.217.14 0 .25-.149.25-.34 0-.318.093-.477.625-1.07.114-.128.208-.425.208-.661v-.429h-14-14zm32.292-3.07c-.161.094-.292.359-.292.591 0 .231-.113.532-.25.67-.137.137-.25.469-.25.738 0 .268-.075.488-.167.488-.091 0-.166.229-.166.51 0 .28-.067.468-.149.418-.081-.05-.199.181-.262.514-.062.333-.225.718-.362.854-.14.141-.228.473-.201.768.03.339-.024.505-.157.478-.122-.025-.203.149-.203.438 0 .263-.112.573-.25.687-.137.114-.25.381-.25.594 0 .212-.075.432-.166.489-.092.057-.167.353-.167.659 0 .34-.097.593-.25.651-.137.053-.25.214-.25.357 0 .144-.131.461-.291.706-.277.423-.277.439 0 .333.16-.062.291-.04.291.049s-.094.162-.208.163c-.251.002-.625.757-.625 1.261 0 .2-.119.462-.264.582-.153.128-.232.379-.19.604.042.215-.008.386-.111.388-.102.001-.075.072.06.157.21.133.204.171-.042.266-.158.06-.287.245-.287.411s-.093.34-.208.386c-.157.064-.146.129.042.262.213.151.204.177-.06.179-.199.002-.277.088-.218.24.05.131-.012.324-.138.429-.126.104-.281.429-.345.72-.063.292-.18.572-.26.623-.08.052-.159.425-.175.831-.016.405-.06.644-.097.53-.109-.325-.374-.058-.374.376 0 .216-.094.43-.208.477-.167.067-.167.086 0 .097.114.007.208.092.208.19 0 .097-.075.13-.167.073-.096-.06-.166.103-.166.389 0 .284-.106.533-.25.588-.148.057-.25.307-.25.613 0 .284-.113.63-.25.767-.138.138-.25.39-.25.562 0 .171-.075.358-.167.414-.092.057-.167.316-.167.576 0 .266-.109.514-.25.568-.157.06-.25.315-.25.684 0 .324-.075.589-.166.589-.092 0-.167.225-.167.5 0 .311-.079.484-.208.458-.127-.025-.23.182-.263.525-.029.311-.161.672-.291.803-.131.131-.238.457-.238.726 0 .268-.075.488-.167.488-.091 0-.166.262-.166.583v.584h4.255c3.907 0 4.263-.024 4.345-.292.05-.16.16-.422.245-.581s.155-.431.155-.605c0-.173.112-.408.25-.522.137-.114.25-.424.25-.687 0-.264.071-.48.159-.48.087 0 .208-.263.269-.585.06-.322.176-.626.257-.677.082-.05.148-.242.148-.426 0-.185.112-.448.25-.586.137-.137.25-.469.25-.738 0-.268.075-.488.167-.488.091 0 .166-.227.166-.505 0-.296.104-.545.25-.601.143-.055.25-.304.25-.578 0-.266.069-.483.154-.483.084 0 .205-.243.269-.541s.176-.617.249-.709c.134-.168.162-.268.162-.595 0-.271.438.223.572.645.064.202.187.367.272.367.086 0 .156.112.156.25 0 .137.093.231.208.208.129-.025.188.102.156.335-.031.224.053.416.208.476.144.055.261.19.261.299 0 .359.412 1.096.614 1.097.108.001.221.208.25.46.031.268.156.461.303.466.137.004.231.098.208.208-.031.152.801.201 3.387.201 3.78 0 3.905.032 3.905 1.006 0 .365.067.504.216.447.144-.056.229.09.255.438.022.286.112.593.201.681.089.089.161.368.161.62s.112.521.249.597c.137.077.266.343.286.592.021.249.096.452.168.452s.13.188.13.417v.417h4.167 4.167v-.647c0-.371-.107-.734-.25-.853-.138-.114-.25-.419-.25-.678 0-.258-.066-.51-.145-.559-.142-.088-.422-1.056-.378-1.305.013-.069-.047-.125-.133-.125s-.179-.206-.208-.458c-.03-.258-.144-.44-.261-.417-.139.028-.209-.179-.209-.615 0-.361-.075-.703-.166-.76-.092-.057-.167-.314-.167-.573 0-.258-.113-.563-.25-.677-.138-.114-.25-.327-.25-.473 0-.403-.525-1.694-.689-1.694-.08 0-.144-.265-.144-.588 0-.37-.093-.625-.25-.685-.163-.062-.25-.322-.25-.744 0-.357-.075-.649-.167-.649s-.169-.169-.172-.375c-.003-.207-.115-.521-.25-.699s-.245-.505-.245-.726c0-.289-.07-.376-.25-.307-.195.075-.25-.042-.25-.532 0-.345-.072-.7-.161-.789-.088-.089-.179-.402-.202-.696-.022-.294-.137-.571-.255-.617-.118-.045-.215-.318-.215-.605 0-.399-.06-.5-.252-.427-.198.076-.23.008-.149-.315.072-.287.035-.413-.123-.415-.177-.002-.173-.036.019-.158.21-.132.205-.171-.041-.265-.161-.062-.287-.285-.287-.509 0-.243-.098-.399-.25-.399-.138 0-.25-.072-.25-.161s.131-.116.291-.061c.268.092.269.081.02-.13-.15-.127-.315-.418-.366-.648-.264-1.179-.404-1.58-.543-1.555-.084.015-.172-.241-.196-.569s-.109-.678-.189-.778c-.08-.099-.198-.425-.261-.723-.064-.298-.185-.541-.27-.541-.084 0-.153-.193-.153-.429s-.113-.541-.25-.678c-.138-.138-.25-.47-.25-.739 0-.268-.075-.488-.167-.488-.091 0-.166-.227-.166-.505 0-.295-.104-.545-.25-.601-.144-.055-.25-.304-.25-.584 0-.268-.121-.673-.27-.899l-.269-.411-5.272.005c-3.27.004-5.383.07-5.564.175m23.642.084c-.153.4-.115 30.122.039 30.365.103.163.96.201 3.706.166l3.571-.045.043-10.875c.026-6.557.104-10.875.198-10.875.085 0 .178.244.207.542.028.298.13.528.226.512.095-.017.191.208.212.5.021.291.149.613.284.715.136.101.247.42.247.708s.075.523.166.523c.092 0 .167.22.167.488 0 .269.106.595.236.725.131.13.262.454.292.72s.141.468.247.448c.113-.021.156.098.105.291-.047.18.036.513.184.739s.269.639.269.917c0 .338.083.506.25.506.173 0 .25.173.25.563 0 .309.105.649.233.756.128.106.194.343.145.527-.048.184-.021.322.059.308.349-.064.461.031.23.194-.188.133-.198.198-.042.262.115.046.209.265.209.487 0 .221.093.404.208.405.139.002.125.057-.042.164-.154.1-.173.163-.049.164.111.002.25.266.311.588.06.322.176.626.257.677.082.05.148.276.148.503s.112.455.25.508c.154.059.25.313.25.661 0 .312.075.566.167.566.091 0 .166.258.166.573 0 .665.275.944.382.388.04-.208.083.062.096.598.017.758.074.957.253.888.163-.062.207.007.148.232-.046.176.037.505.185.732.148.226.27.597.27.825s.106.474.236.547c.131.074.262.396.292.717l.055.583 6.208.044 6.209.044v-15.419-15.419h-3.667-3.667v11.574c0 10.52-.064 12.369-.397 11.5-.057-.148-.028-.214.066-.156.091.056.165.023.165-.074 0-.098-.075-.177-.167-.177s-.167-.187-.167-.417c0-.229-.065-.416-.145-.416s-.193-.3-.252-.667-.181-.667-.271-.667c-.091 0-.165-.265-.165-.588 0-.37-.093-.625-.25-.685-.141-.054-.25-.302-.25-.568 0-.26-.075-.519-.167-.575-.091-.057-.166-.277-.166-.49 0-.212-.113-.48-.25-.594-.138-.114-.25-.419-.25-.677s-.067-.511-.148-.561-.201-.373-.265-.718c-.065-.344-.186-.668-.268-.719-.083-.051-.168-.294-.188-.538-.02-.245-.133-.482-.251-.527-.117-.046-.214-.268-.214-.495 0-.226-.075-.458-.166-.515-.092-.056-.167-.248-.167-.426s-.113-.324-.25-.324c-.138 0-.25-.121-.25-.27 0-.233.041-.239.292-.045.277.215.277.21 0-.117-.161-.189-.292-.54-.292-.779 0-.24-.065-.476-.145-.525-.08-.05-.192-.322-.248-.605-.057-.283-.164-.476-.238-.43-.075.046-.154-.192-.177-.529-.023-.336-.15-.673-.283-.747-.139-.078-.242-.381-.242-.711 0-.316-.075-.575-.167-.575s-.167-.182-.167-.405c0-.222-.112-.517-.25-.655-.137-.137-.25-.489-.25-.782 0-.434-.042-.497-.23-.341-.19.157-.232.066-.24-.518-.005-.39-.089-.736-.186-.768-.098-.032-.177-.317-.177-.633 0-.358-.095-.611-.25-.671-.138-.053-.25-.269-.25-.481 0-.959.308-.913-6.083-.913-5.209 0-5.893.03-5.983.264m30.901 14.913c-.004 13.091.028 15.211.238 15.421.336.335 20.036.28 19.969-.056-.028-.14.186-.208.652-.208.701 0 1.973-.451 1.973-.699 0-.074.146-.135.325-.135.18 0 .514-.187.743-.416s.486-.417.571-.417.198-.165.251-.368c.053-.202.146-.318.206-.258.105.105.634-.306.535-.414-.027-.029.271-.34.66-.692.39-.352.709-.781.709-.954s.112-.314.25-.314c.139 0 .25-.148.25-.333 0-.184.075-.334.166-.334.092 0 .167-.192.167-.426 0-.235.067-.385.149-.334.082.05.195-.026.25-.171.159-.414.121-.46-.178-.214-.229.188-.223.14.038-.271.174-.275.396-.552.494-.614.097-.063.197-.4.22-.75.024-.35.114-.707.202-.794.087-.088.158-.598.158-1.136 0-.537.067-.935.148-.885.258.16.311-.455.332-3.818.019-3.29-.053-4.164-.331-3.992-.082.051-.149-.465-.149-1.154 0-.686-.072-1.271-.161-1.302-.089-.03-.18-.308-.204-.616-.023-.309-.138-.598-.255-.643s-.213-.328-.213-.63c0-.333-.098-.585-.25-.643-.138-.053-.25-.213-.25-.355s-.187-.555-.417-.918c-.229-.363-.416-.696-.416-.738 0-.043-.188-.281-.417-.528s-.417-.551-.417-.675-.104-.226-.232-.226-.274-.109-.325-.243c-.051-.133-.416-.444-.81-.691-.394-.246-.776-.549-.849-.674-.074-.124-.274-.225-.447-.225-.172 0-.425-.113-.563-.25-.137-.138-.363-.25-.502-.25s-.298-.075-.355-.167-.428-.167-.825-.167c-.489 0-.754-.081-.819-.25-.083-.218-1.37-.25-10.181-.25h-10.085zm30.832-14.703c0 .332.211.69.708 1.2.39.399.615.669.5.6-.115-.07-.208-.048-.208.05 0 .097.075.176.166.176.092 0 .167.113.167.25 0 .138.075.25.167.25.091 0 .166.073.166.162 0 .191 1.027 1.73 1.209 1.811.068.03.125.164.125.296 0 .133.112.285.25.338.137.052.25.221.25.374 0 .245.211.539 1.231 1.714.132.153.197.321.144.375-.054.053-.01.097.097.097s.194.152.194.339c0 .186.113.381.25.434.138.053.25.2.25.328s.07.232.156.232c.085 0 .208.169.273.375.065.207.295.541.511.742.217.202.394.48.394.617s.107.31.238.383c.223.125.258.192.264.508.002.069.075.013.164-.125.163-.251.252.055.181.619-.027.209.556.875.778.889.068.004.101.154.073.333-.029.179.018.326.105.326.177 0 .716.764.763 1.081.046.316.544.752.859.752.222 0 .241.05.089.233-.149.18-.126.299.105.529.276.276.297.792.297 7.06 0 4.315.061 6.806.167 6.884.092.067 1.91.124 4.042.125l3.875.003v-6.899c0-5.979.033-6.912.25-6.995.137-.053.25-.203.25-.333 0-.131.12-.284.267-.34.147-.057.227-.208.177-.338-.049-.129.018-.276.15-.326.131-.051.244-.301.251-.556.01-.404.029-.421.147-.13.125.307.146.297.257-.125.066-.252.187-.458.269-.458.081 0 .148-.113.148-.25 0-.138.074-.25.164-.25s.21-.188.268-.417c.057-.229.168-.417.245-.417.078 0 .272-.281.432-.625.159-.343.388-.685.507-.758.12-.073.218-.244.218-.38s.112-.29.25-.343c.137-.053.25-.2.25-.328s.075-.232.166-.232c.092 0 .167-.188.167-.417 0-.259.094-.417.25-.417.137 0 .25-.112.25-.25 0-.137.075-.25.167-.25.091 0 .166-.187.166-.416 0-.26.095-.417.25-.417.138 0 .25-.106.25-.236s.082-.264.182-.297.194-.255.209-.493c.018-.299.099-.404.263-.34.172.066.206.009.123-.207-.082-.213-.048-.272.118-.208.156.059.333-.155.536-.649.168-.405.358-.737.425-.737.066 0 .233-.226.371-.502.161-.323.18-.465.054-.398-.109.059.009-.08.261-.308.252-.227.458-.499.458-.603s.119-.189.264-.189c.204 0 .239-.109.155-.49-.094-.427-.042-.523.404-.754.281-.145.511-.38.511-.522s.109-.367.243-.5c.67-.671.282-.734-4.505-.734-4.865 0-5.023.028-4.786.834.064.217.051.218-.097.005-.139-.2-.201-.162-.342.209-.094.249-.253.452-.352.452-.1 0-.138.069-.086.154.052.084-.015.262-.149.396s-.209.278-.167.32-.074.213-.258.379c-.184.167-.335.406-.335.532 0 .127-.112.273-.249.325-.137.053-.212.155-.167.228.044.072-.031.174-.168.227s-.249.248-.249.434c0 .192-.11.339-.254.339-.191 0-.238.144-.189.584.052.479.023.551-.163.397-.176-.146-.227-.128-.227.082 0 .148-.113.27-.25.27-.156 0-.25.157-.25.417 0 .229-.058.416-.129.416s-.277.281-.458.625c-.182.343-.51.793-.729 1-.416.39-.606.486-.443.222.052-.084-.008-.256-.134-.383-.127-.126-.282-.394-.347-.596-.064-.202-.186-.368-.272-.368-.085 0-.155-.096-.155-.213s-.15-.321-.333-.453c-.184-.132-.334-.337-.334-.454s-.131-.347-.291-.51c-.161-.163-.402-.519-.537-.791-.135-.273-.36-.623-.5-.779-.524-.583-.672-.79-.672-.942 0-.086-.186-.333-.413-.549-.228-.215-.416-.523-.417-.684-.002-.16-.086-.291-.187-.291-.102 0-.14.116-.086.258.059.154.03.216-.072.153-.094-.058-.126-.25-.07-.426.066-.207.009-.356-.16-.421-.144-.055-.261-.244-.261-.421 0-.176-.113-.364-.25-.416-.138-.053-.25-.201-.25-.328 0-.193-.765-.233-4.5-.233h-4.5zm37.595-.212c-.144.144-.262.369-.262.5s-.07.238-.156.238c-.085 0-.179.207-.208.459-.033.283-.14.439-.281.41-.146-.031-.193.044-.131.208.061.158.006.257-.143.257-.133 0-.288.187-.346.416-.057.23-.171.417-.253.417s-.149.188-.149.417c0 .254-.095.416-.243.416-.139 0-.329.285-.443.667-.11.367-.3.667-.423.667-.145 0-.224.206-.224.583v.583h2.833 2.834v11.967c0 9.085.048 12.015.2 12.167.144.144 1.285.2 4.083.2h3.883v-15.417-15.417h-5.154c-4.464 0-5.19.035-5.417.262m24.773-.005c-.12.136-.505.243-.875.243-.363 0-.66.075-.66.167s-.216.167-.48.167c-.263 0-.573.112-.687.25-.114.137-.385.25-.603.25-.242 0-.397.098-.397.25 0 .144-.15.25-.356.25-.195 0-.515.168-.71.375-.195.206-.496.399-.669.429-.375.066-.791.447-.646.592.057.057.012.104-.101.104-.112 0-.158.074-.102.164.06.098-.015.12-.186.055-.22-.085-.263-.045-.18.168.095.249.021.311-.321.266-.199-.027-.728.931-.641 1.162.071.19.04.193-.167.021-.214-.177-.254-.155-.254.143 0 .195-.094.355-.208.357-.139.001-.125.056.041.164.225.145.121.238-.208.186-.069-.011-.125.093-.125.23 0 .138-.075.25-.167.25-.091 0-.166.217-.166.483 0 .274-.108.523-.25.578-.156.059-.25.313-.25.67 0 .316-.088.604-.196.64s-.222.387-.253.781c-.032.393-.123.839-.203.99s-.148 2.412-.152 5.025c-.004 2.795.052 4.613.137 4.417.172-.402.204-.267.2.867-.002.546.084.939.232 1.062.129.107.235.401.235.654s.112.553.25.667c.137.114.25.385.25.603s.075.397.166.397c.092 0 .167.187.167.416 0 .245.096.417.232.417.127 0 .279.188.336.417.058.229.179.416.269.416.089 0 .163.075.163.167 0 .202 1.818 2 2.022 2 .08 0 .145.07.145.155 0 .086.168.209.375.273.206.064.425.195.486.291.062.096.248.194.414.219.166.024.328.123.361.22.032.096.344.175.693.175.411 0 .669.089.731.25.053.138.286.25.518.25s.422.075.422.167.438.167.982.167c.719 0 1.008.067 1.078.25.082.214.767.25 4.754.25 4.563 0 5.278-.05 5.092-.351-.051-.082.282-.149.741-.149.458 0 .879-.075.936-.167s.326-.167.598-.167c.287 0 .536-.105.592-.25.054-.142.303-.25.578-.25.265 0 .482-.075.482-.166 0-.092.121-.167.268-.167.151 0 .231-.094.185-.216-.051-.131.056-.226.27-.242.195-.015.439-.143.542-.285.104-.141.242-.257.307-.257.182 0 .595-.454.595-.655 0-.098.112-.178.25-.178.137 0 .25-.076.25-.168s.187-.331.416-.53c.23-.199.417-.466.417-.592 0-.127.068-.188.15-.137.083.051.247-.151.365-.449.117-.297.243-.616.279-.708.035-.091-.015-.054-.112.084-.097.137-.178.169-.179.07-.002-.098.188-.358.421-.577s.412-.551.398-.738c-.047-.627.01-.791.246-.701.26.1.381-.581.536-3.013.064-1.01.148-1.375.315-1.375.183 0 .229-.495.229-2.5 0-2.067-.042-2.5-.241-2.5-.192 0-.24-.313-.24-1.569 0-.993-.068-1.592-.184-1.631-.101-.033-.181-.358-.179-.722.001-.364-.097-.817-.218-1.007-.122-.19-.249-.527-.283-.75-.033-.222-.137-.391-.23-.374-.093.016-.184-.171-.203-.417-.039-.526-.367-1.225-.661-1.413-.115-.073-.209-.242-.209-.375 0-.247-.588-.932-.702-.818-.034.035-.202-.196-.373-.514-.171-.317-.378-.576-.461-.576s-.097.086-.031.192c.076.123.045.147-.085.067-.112-.07-.164-.231-.115-.36.052-.134-.014-.233-.155-.233-.135 0-.245-.075-.245-.166 0-.092-.243-.172-.541-.179-.424-.009-.472-.039-.22-.138.222-.086.261-.164.125-.248-.108-.067-.271-.076-.362-.02-.095.059-.122-.01-.063-.163.056-.147.037-.254-.043-.239-.371.067-.728-.036-.973-.281-.148-.148-.414-.23-.595-.182-.228.059-.328.001-.33-.191-.002-.239-.024-.243-.164-.026-.138.214-.162.208-.164-.042-.002-.212-.139-.291-.503-.291-.275 0-.5-.075-.5-.167s-.361-.167-.801-.167c-.447 0-.945-.108-1.125-.244-.408-.309-7.887-.376-8.189-.074-.13.13-.212.13-.293 0-.159-.259-.803-.213-1.057.075m34.172-.147c-.115.047-.176.139-.136.203.072.117-.557.223-1.446.245-.252.007-.458.071-.458.144 0 .072-.225.132-.5.132-.334 0-.5.083-.5.25 0 .152-.156.25-.399.25-.22 0-.442.112-.495.25-.053.137-.233.25-.401.25s-.386.08-.484.178-.319.202-.491.23c-.173.029-.295.136-.272.239.023.102-.057.186-.177.186s-.563.375-.983.833c-.421.459-.848.834-.949.834-.1 0-.183.117-.183.261 0 .143-.168.5-.375.791-.206.292-.399.643-.429.781-.031.137-.162.368-.292.513s-.237.389-.237.542-.075.278-.167.278c-.091 0-.166.265-.166.589 0 .369-.093.624-.25.684-.17.066-.25.332-.25.834 0 .406-.108.905-.241 1.108-.327.503-.297 9.467.032 9.577.124.041.209.362.209.794 0 .446.104.828.271.995.148.149.27.469.27.711s.1.54.222.663c.123.122.18.331.129.465-.052.137.024.289.174.347.147.056.267.282.267.501 0 .22.075.399.167.399.091 0 .166.078.166.173 0 .294.716 1.16.958 1.16.126 0 .182.076.125.168-.099.16.279.666.497.666.056 0 .277.187.489.416.212.23.476.417.585.417.11 0 .153.075.096.167-.056.091-.013.166.097.166s.565.225 1.012.5.958.5 1.136.5c.177 0 .406.132.51.292.178.278.183.278.096 0-.049-.16-.018-.292.071-.292s.162.113.162.25c0 .154.156.25.406.25.224 0 .454.075.51.167.057.092.514.167 1.015.167.663 0 .939.069 1.01.253.142.37 9.423.358 9.794-.012.132-.133.444-.241.693-.241.248 0 .56-.132.692-.292.229-.278.236-.278.149 0-.051.16-.02.292.069.292s.162-.075.162-.167.144-.167.319-.167c.497 0 .847-.179.847-.434 0-.128.057-.223.125-.213.41.065.854-.056 1.136-.311.177-.16.416-.299.531-.308.459-.037.542-.074.542-.244 0-.097-.075-.13-.167-.073s-.167.016-.167-.091.113-.152.25-.099c.147.056.458-.108.756-.399.278-.272.578-.494.667-.494.088 0 .161-.163.161-.361 0-.199.046-.315.103-.258.167.167.596-.361.465-.572-.075-.121-.047-.149.073-.075.114.07.192.013.192-.141 0-.143.075-.26.167-.26.091 0 .172-.244.178-.542.01-.439.036-.478.142-.208.123.314.138.309.261-.083.072-.229.205-.465.295-.523.091-.058.173-.406.183-.772.012-.465.081-.641.229-.584.149.057.212-.115.212-.583 0-.402.104-.75.263-.883.205-.17.256-.515.233-1.562-.037-1.666-.029-1.735.169-1.427.106.166.159-.665.157-2.458-.002-2.005-.055-2.708-.204-2.708-.145 0-.192-.411-.168-1.459.026-1.149-.021-1.5-.225-1.655-.154-.118-.259-.455-.259-.832 0-.35-.11-.849-.245-1.11-.135-.262-.206-.516-.156-.565.049-.049-.02-.247-.155-.438-.134-.192-.244-.474-.244-.627s-.112-.322-.25-.375c-.137-.052-.25-.248-.25-.434s-.075-.339-.166-.339c-.092 0-.167-.15-.167-.333 0-.185-.111-.333-.25-.333-.138 0-.25-.113-.25-.25 0-.138-.09-.232-.201-.209-.11.023-.207-.071-.216-.208-.008-.138-.102-.232-.21-.21-.117.024-.152-.07-.088-.238.081-.211.038-.25-.179-.167-.188.072-.323.01-.395-.179-.14-.372-.471-.706-.699-.706-.098 0-.179-.113-.179-.25 0-.138-.145-.25-.323-.25s-.37-.075-.427-.167c-.056-.091-.216-.166-.355-.166-.138 0-.371-.119-.516-.265-.147-.146-.433-.232-.642-.192-.265.051-.402-.02-.458-.236-.06-.227-.238-.307-.68-.307-.329 0-.599-.075-.599-.167s-.404-.167-.899-.167c-.63 0-.926-.072-.991-.241-.092-.24-8.677-.379-9.236-.149m33.727.155c-.059.155-.349.235-.845.235-.416 0-.756.075-.756.167s-.254.167-.565.167c-.349 0-.602.095-.662.25-.052.137-.285.25-.517.25-.264 0-.422.093-.422.25 0 .155-.158.25-.417.25-.229 0-.417.073-.417.163s-.187.211-.415.268c-.229.057-.374.171-.324.253.051.082-.03.149-.18.149-.355 0-1.301.946-1.165 1.165.094.152-.115.23-.339.127-.05-.023-.244.202-.433.5s-.411.541-.493.541c-.083 0-.151.15-.151.334 0 .183-.093.334-.208.336-.153.001-.149.04.018.145.157.1.17.178.041.258-.101.062-.184.053-.185-.021-.003-.365-.525.928-.537 1.329-.007.256-.076.503-.152.551-.077.047-.09-.043-.03-.2.075-.194.047-.248-.085-.166-.107.066-.195.372-.195.68s-.088.589-.196.625c-.107.036-.222.399-.254.806-.033.407-.128.764-.212.793-.089.03-.157 2.115-.162 4.916-.006 3.241.046 4.781.155 4.614.19-.29.206-.215.202.951-.002.546.084.939.232 1.062.129.107.235.378.235.602s.206.68.458 1.013.365.549.25.479-.208-.047-.208.05.075.177.167.177c.091 0 .166.187.166.416 0 .245.096.417.232.417.128 0 .28.19.338.423.104.413 2.161 2.577 2.45 2.577.081 0 .147.07.147.155 0 .086.169.209.375.273s.425.195.487.291c.061.096.247.194.413.219.166.024.329.123.361.22.032.096.233.175.447.175s.427.094.474.209c.066.163.118.16.24-.014.127-.181.176-.173.258.041.056.146.291.264.523.264s.422.075.422.167.439.167.982.167c.719 0 1.008.067 1.078.25.082.214.768.25 4.754.25 4.563 0 5.278-.05 5.092-.351-.051-.082.306-.155.792-.162.487-.008.792-.051.677-.098-.457-.184-.167-.331.53-.269.605.054.771.007.915-.262.115-.214.288-.299.5-.243.205.053.498-.075.793-.349.257-.238.564-.433.682-.433.119 0 .259-.113.311-.25.053-.138.169-.25.257-.25.216 0 .637-.432.637-.655 0-.098.076-.178.169-.178.242 0 1.154-1.038 1.159-1.32.003-.13.058-.184.121-.12.122.122.718-.974.718-1.32 0-.11.116-.296.258-.414s.246-.371.232-.562c-.047-.598.003-.764.226-.764.129 0 .232-.242.256-.607.023-.334.113-.742.201-.906s.16-.866.16-1.56c0-.987.052-1.261.24-1.261.199 0 .241-.433.241-2.5s-.042-2.5-.241-2.5c-.191 0-.241-.312-.246-1.541-.004-.976-.089-1.692-.232-1.95-.124-.225-.191-.501-.147-.614.043-.112-.035-.454-.174-.758-.138-.304-.28-.703-.315-.887-.034-.183-.137-.319-.228-.302-.09.016-.183-.246-.205-.584-.023-.337-.113-.639-.2-.669-.088-.031-.16-.154-.16-.274s-.112-.262-.25-.314c-.137-.053-.25-.204-.25-.335s-.243-.493-.541-.804c-.298-.312-.663-.713-.81-.892-.468-.569-.974-.909-1.359-.912-.288-.002-.319-.036-.134-.153.18-.115.028-.244-.617-.526-.472-.206-.812-.446-.758-.535.06-.096-.111-.13-.424-.084-.397.058-.524.013-.526-.186-.002-.231-.022-.232-.164-.013-.138.214-.162.208-.164-.042-.002-.212-.139-.291-.503-.291-.275 0-.5-.075-.5-.167s-.403-.167-.896-.167c-.6 0-.966-.084-1.107-.254-.303-.365-9.255-.347-9.396.019m-62.601 6.374c0 .077.094.146.209.155 1.167.09 2.237.266 2.366.389.087.083.369.151.625.151.275 0 .467.09.467.219 0 .12.262.321.582.447.32.125.625.365.678.533.054.168.179.255.278.194s.133-.036.076.057c-.057.092.119.417.391.722s.495.693.495.863.112.352.25.404c.154.06.25.313.25.662 0 .391.077.565.25.565.213 0 .25.437.25 2.929 0 2.381-.047 2.975-.25 3.178-.138.138-.25.391-.25.562 0 .172-.167.595-.37.94-.204.345-.385.726-.403.846-.049.334-1.483 1.879-1.744 1.879-.093 0-.123.075-.066.166.056.092-.014.167-.157.167s-.26.075-.26.167c0 .091-.163.166-.362.166s-.48.106-.625.236c-.15.135-.728.262-1.346.297-.739.041-1.07.125-1.042.264.052.255-.052.256-.511.003-.2-.11-.887-.224-1.526-.254-.809-.037-1.204-.128-1.3-.299-.076-.136-.278-.247-.449-.247s-.355-.093-.408-.208c-.078-.165-.118-.166-.194-.001-.11.235-.57-.124-.57-.445 0-.099-.1-.179-.222-.179s-.322-.187-.445-.417c-.123-.229-.323-.416-.445-.416s-.222-.153-.222-.339-.112-.382-.25-.434c-.137-.053-.25-.271-.25-.485s-.075-.436-.166-.492c-.092-.057-.167-.353-.167-.659 0-.34-.097-.593-.25-.652-.21-.08-.25-.604-.25-3.288 0-2.87.026-3.17.259-2.977.143.119.247.146.231.062-.105-.548.032-1.627.177-1.403.126.195.162.149.164-.208.001-.295.091-.459.252-.459.168 0 .25-.167.25-.51 0-.28.062-.471.137-.425.156.097.579-.351.748-.791.062-.162.189-.248.281-.191s.168.041.168-.035c0-.128.458-.389 1.5-.853.348-.156 1.656-.373 2.458-.408.115-.005.208-.071.208-.148 0-.076.113-.139.25-.139.138 0 .25.063.25.139m33.667 0c0 .077.094.144.208.151 1.342.075 2.366.231 2.555.388.128.106.339.152.468.103.129-.05.481.129.782.398.301.268.627.489.725.491.27.004.929.758.929 1.062 0 .148.075.268.166.268.092 0 .167.113.167.25 0 .138.112.25.25.25.156 0 .25.158.25.417 0 .229.068.417.152.417s.203.3.265.667.175.629.25.582c.076-.047.147 1.222.158 2.819.012 1.678-.046 2.946-.138 3.002-.087.054-.209.397-.27.763-.062.366-.181.707-.265.759s-.152.242-.152.423-.117.373-.26.428c-.142.055-.22.203-.171.328.049.13-.019.229-.158.229-.134 0-.244.1-.244.223 0 .256-1.393 1.61-1.657 1.61-.097 0-.177.075-.177.167 0 .091-.135.166-.301.166s-.447.11-.625.245-.647.247-1.042.25c-.434.003-.677.071-.615.171.067.11-.04.112-.316.008-.338-.129-.4-.113-.325.083.059.153-.01.243-.184.243-.168 0-.231-.076-.159-.192.077-.125.045-.147-.092-.062-.123.076-.272.034-.357-.099-.123-.194-.146-.194-.148-.001-.002.163-.062.179-.211.057-.114-.094-.615-.174-1.113-.178-.64-.004-.947-.082-1.05-.265-.08-.143-.276-.26-.437-.26-.16 0-.381-.09-.491-.2-.156-.155-.2-.15-.2.024 0 .122-.258-.05-.572-.384-.315-.333-.653-.606-.75-.606-.098 0-.178-.113-.178-.25 0-.138-.067-.25-.149-.25s-.196-.188-.253-.417c-.058-.229-.178-.417-.268-.417s-.164-.152-.164-.338-.112-.382-.25-.435c-.163-.062-.25-.322-.25-.744 0-.409-.077-.649-.208-.649-.162 0-.19-.68-.125-3.068.046-1.687.027-3.033-.042-2.99-.068.042-.125-.004-.125-.104s.097-.219.214-.264c.118-.045.231-.284.251-.531.021-.246.15-.511.286-.587.137-.077.249-.281.249-.455 0-.173.075-.361.167-.418s.167-.286.167-.51.085-.407.188-.407c.104 0 .428-.253.719-.562.292-.309.688-.612.88-.673.191-.061.39-.219.441-.352.051-.132.194-.201.318-.154.124.048.44-.025.703-.161.262-.136.538-.209.614-.163.075.047.137.002.137-.1 0-.122.092-.133.273-.031.308.172.893.069.893-.156 0-.081.15-.148.334-.148.183 0 .333.063.333.139m34.167.028c0 .092.056.154.125.138.307-.072 2.389.25 2.47.382.05.081.312.147.581.147.294 0 .49.087.49.219 0 .12.262.321.582.447.32.125.625.365.679.533.053.168.178.255.277.194.106-.065.133-.034.064.076-.064.104.037.32.225.48.187.16.34.387.34.504 0 .118.075.213.167.213.091 0 .166.153.166.339s.113.382.25.434c.155.06.25.313.25.662 0 .391.077.565.25.565.138 0 .25.08.25.177s-.086.123-.192.057c-.122-.075-.147-.045-.069.082.217.35.146 5.265-.086 5.962-.305.914-1.177 2.722-1.314 2.722-.064 0-.216.188-.339.417-.122.229-.285.417-.361.417-.212 0-.791.626-.68.736.053.053-.028.097-.181.097s-.278.075-.278.167c0 .091-.163.166-.362.166s-.48.106-.625.236c-.15.135-.728.262-1.346.297-.776.043-1.07.122-1.037.277.045.214-.605.113-.796-.125-.046-.057-.607-.124-1.247-.149-.812-.032-1.204-.119-1.299-.291-.076-.134-.284-.245-.463-.245-.178 0-.325-.075-.325-.166 0-.092-.187-.167-.416-.167-.26 0-.417-.094-.417-.25 0-.138-.069-.25-.154-.25-.247 0-1.179-1.003-1.179-1.268 0-.133-.113-.286-.25-.338-.138-.053-.251-.257-.253-.453-.002-.262-.041-.298-.144-.134-.09.142-.15-.101-.162-.658-.014-.599-.101-.929-.272-1.024-.212-.119-.253-.656-.253-3.32 0-2.588.041-3.146.217-3 .17.142.225.048.258-.437.023-.34.113-.689.2-.776s.159-.294.159-.459.112-.3.25-.3c.167 0 .25-.167.25-.51 0-.297.069-.466.166-.406.092.056.167-.014.167-.157s.104-.26.231-.26c.126 0 .271-.158.322-.35.05-.193.171-.301.269-.24.098.06.178.039.178-.047 0-.087.131-.202.292-.255.16-.054.404-.167.541-.251.715-.434 1.667-.688 2.709-.722.343-.011.625-.083.625-.161 0-.077.112-.141.25-.141.137 0 .25.075.25.167m-153.868.458c-.148.178-.098.187.269.048.319-.122.419-.119.34.007-.074.121.183.171.783.152 1.647-.05 2.117 0 2.369.252.137.137.406.25.597.25s.478.069.637.154.425.197.592.249c.166.052.265.154.22.227s.121.222.369.332c.247.109.584.425.747.702.163.276.368.502.454.502.087 0 .157.135.157.3s.069.372.153.459c.083.087.177.383.208.658s.147.575.259.667c.137.112.211.831.227 2.208.016 1.402.083 2.042.213 2.044.131.002.126.044-.014.133-.137.087-.213.702-.231 1.872-.014.959-.06 1.649-.101 1.534-.13-.362-.38-.225-.38.209 0 .229-.075.416-.167.416s-.167.188-.167.417c0 .259-.094.417-.25.417-.137 0-.25.08-.25.178s-.109.288-.243.422c-.133.133-.2.353-.148.488.061.159-.01.245-.201.245-.389 0-1.574.526-1.574.699 0 .074-.258.134-.574.134-.315 0-.62.075-.676.167-.057.092-.455.167-.885.168-.43 0-.998.113-1.262.251-.427.223-.457.223-.271-.001.227-.274-.595-.201-1.196.105-.155.079-1.186.144-2.292.144h-2.011v-8.662-8.661l1.958-.047c1.077-.026 2.086-.05 2.241-.053.215-.004.239.047.1.214m-61.109 1.84c-.16.053-.15.137.045.352.14.155.273.52.295.811.022.292.137.567.255.613.118.045.215.31.215.587 0 .278.075.506.167.506.091 0 .166.215.166.479s.113.573.25.687c.138.114.25.419.25.678 0 .258.075.516.167.572.092.057.167.281.167.498s.112.508.25.645c.137.138.25.483.25.767 0 .306.102.557.25.613.163.063.25.322.25.745 0 .357.075.649.166.649.092 0 .167.11.167.244 0 .204-.568.251-3.545.291l-3.545.048.062-.535c.035-.295.168-.623.296-.729.127-.106.232-.409.232-.673s.072-.479.159-.479c.088 0 .209-.264.269-.586.06-.321.176-.626.258-.676.081-.05.147-.341.147-.647 0-.352.097-.593.263-.657.184-.07.248-.273.213-.675-.027-.316.005-.629.071-.695s.12-.02.12.102c0 .123.048.174.107.115.059-.058.003-.235-.125-.393-.153-.189-.162-.243-.024-.16.144.086.209-.001.209-.284 0-.225.112-.452.25-.505.137-.052.252-.304.255-.559s.115-.609.25-.787.245-.444.245-.592c0-.351.34-.684.56-.547.112.069.099.131-.037.177m90.768 18.233c-.027 1.862-.049.386-.049-3.281s.022-5.19.049-3.386.027 4.804 0 6.667m143.153-6.253c-.061.061-.111 1.89-.111 4.065 0 4.491-.121 4.157 1.514 4.157h.986l.002-1.792c.003-1.552.031-1.736.213-1.375.229.454 3.785.769 3.785.335 0-.097.188-.248.417-.335s.416-.278.416-.424.111-.376.245-.511c.216-.216.251.011.292 1.887l.047 2.132 4.458.031 4.458.031.003-1.615.003-1.614.347.542c.191.298.414.541.497.541s.15.109.15.241.15.345.333.473c.182.128.282.282.222.343-.061.06-.023.11.084.11s.195.101.195.224c0 .508.59.776 1.707.776 1.245 0 1.626-.101 1.626-.433 0-.331-.529-.902-.725-.781-.094.058-.123-.007-.068-.152.099-.257-.412-1.207-.567-1.052-.046.047-.084-.026-.084-.161s.212-.449.472-.698c.259-.248.472-.369.472-.268s-.094.222-.208.268c-.125.05-.091.089.083.097.228.01.292-.123.294-.612.002-.451.046-.556.158-.379.133.21.171.204.265-.042.136-.353.575-.381.575-.037 0 .137.104.25.232.25s.271.102.319.226c.062.162.484.236 1.476.259.764.019 1.461.104 1.548.191.087.086.293.157.458.157.399 0 .381.357-.035.713-.279.239-.688.287-2.417.287h-2.081v1.084 1.083h3.224c3.378 0 4.109-.172 4.109-.969 0-.114.112-.251.25-.304.137-.053.25-.225.25-.384 0-.158.112-.287.25-.287.153 0 .25.156.25.403 0 .413.574 1.025.97 1.035.121.004.337.123.48.266.349.349 4.444.318 4.738-.035.102-.124.289-.225.416-.225.126 0 .229-.113.229-.25 0-.138.113-.25.25-.25.138 0 .25-.113.25-.25 0-.138.075-.25.167-.25s.167-.219.167-.486c0-.586.148-1.014.351-1.014.082 0 .149.629.149 1.399 0 1.597.003 1.601 1.42 1.601 1.13 0 1.117.028 1.119-2.389.001-1.115.036-1.809.078-1.543.042.267.192.661.332.875.141.215.191.393.112.396-.08.003-.008.108.158.234.167.127.298.274.292.328-.072.636.024 1.099.228 1.099.136 0 .261.196.291.458l.053.459 2.987.038c3.226.042 3.531-.027 3.349-.755-.082-.324-.049-.388.156-.31.186.072.258-.005.258-.279 0-.208.094-.472.208-.588.167-.168.143-.186-.125-.092-.273.097-.296.078-.125-.106.241-.259.479-.081.569.425.051.285.211.341 1.1.383.757.036 1.04.113 1.04.283 0 .925.508 1.047 4.434 1.066 4.057.02 3.794.085 4.443-1.091.554-1.006.484-1.058-1.457-1.058h-1.746l-.046-3.041-.045-3.042h-1.25-1.25l-.088 3.5c-.049 1.925-.105 3.364-.125 3.198-.021-.165-.112-.255-.204-.198-.097.06-.166-.106-.166-.397 0-.275-.075-.546-.167-.603s-.167-.281-.167-.498-.117-.512-.261-.656c-.143-.144-.267-.486-.275-.762-.008-.275-.07-.501-.137-.501-.068 0-.171-.255-.229-.566-.059-.312-.213-.655-.342-.762-.13-.108-.196-.299-.148-.426.15-.389-.143-.691-.307-.318-.117.268-.128.255-.063-.08.168-.863-.105-1.014-1.827-1.014-1.237 0-1.577.05-1.577.232 0 .128-.121.278-.268.335-.149.057-.226.209-.173.346.051.134-.022.358-.162.499-.14.14-.174.254-.076.254s.179.073.179.162-.125.113-.278.055c-.163-.063-.235-.039-.175.059.056.091-.012.385-.151.653s-.248.507-.241.53c.101.36-.039.875-.239.875-.173 0-.25.174-.25.573 0 .316-.075.62-.166.677-.092.056-.167.254-.167.438 0 .185-.111.446-.246.582-.218.217-.252-.132-.292-2.97l-.045-3.217-1.209-.049c-.899-.036-1.21.006-1.217.167-.005.118-.014 1.115-.021 2.215-.006 1.1-.046 1.776-.089 1.501s-.155-.548-.25-.606c-.095-.059-.196-.32-.225-.581-.028-.26-.131-.5-.229-.532-.097-.033-.177-.27-.177-.528 0-.262-.11-.51-.25-.564-.147-.056-.25-.306-.25-.607v-.51l-1.875.047-1.875.047-.048 1.47c-.049 1.492-.386 2.014-.506.785-.03-.305-.142-.647-.25-.761s-.338-.403-.511-.642c-.173-.24-.446-.435-.607-.435s-.335-.11-.386-.245c-.136-.354-4.609-.345-4.609.009 0 .13-.108.236-.241.236-.328 0-1.092.728-1.092 1.04 0 .139-.113.346-.25.46-.178.148-.25.539-.25 1.367 0 1.155-.284 1.534-.495.663-.132-.541-1.261-1.085-2.037-.98-.474.063-.635.025-.635-.15 0-.143-.178-.236-.458-.239-.252-.003-.604-.115-.782-.25-.291-.22-.145-.245 1.453-.245 1.613 0 1.792-.031 1.956-.338.1-.186.253-.294.34-.24s.158-.053.158-.237.12-.402.267-.484.24-.292.206-.467c-.173-.899-7.284-.442-7.301.469-.003.186-.094.253-.255.191-.156-.06-.25.001-.25.162 0 .142-.074.304-.165.36s-.126.001-.079-.122-.146-.483-.429-.8l-.515-.577h-6.531-6.531l-.052.802c-.041.649-.105.792-.333.747-.199-.039-.266-.188-.229-.509.042-.351-.042-.497-.369-.646-.233-.106-.384-.257-.336-.335.103-.166-6.321-.197-6.487-.031m65.226.135c-.116.139-.3.254-.41.254-.369 0-1.094.922-1.094 1.394 0 .276-.069.416-.174.351-.118-.073-.158.577-.125 2.032.033 1.415.11 2.128.229 2.107.099-.017.166.133.15.334-.019.225.196.588.562.948l.593.584 2.633.053 2.632.053v-1.095-1.095h-1.5c-.869 0-1.5-.068-1.5-.163 0-.09-.169-.206-.376-.258-.784-.197-1.373-2.43-.708-2.685.137-.052.208-.162.157-.244-.051-.083.137-.159.417-.17.758-.031.809-.045 1.035-.271.119-.119.624-.209 1.175-.209.748 0 .967-.056.967-.25 0-.137.075-.25.167-.25.091 0 .166-.187.166-.416 0-.268.094-.417.262-.417.176 0 .244-.123.208-.375-.069-.49-5.074-.685-5.466-.212m7.437.004c-.138.137-.355.25-.484.25-.128 0-.334.187-.457.416-.122.23-.285.417-.361.417s-.139.15-.139.333c0 .186-.111.334-.25.334-.207 0-.249.318-.247 1.875.002 1.962.102 2.683.35 2.53.081-.051.147.057.147.239s.189.48.42.662c.294.231.357.36.209.43-.117.056-.042.069.165.031.241-.045.434.034.533.22.408.763 5.507.356 5.507-.44 0-.118.112-.214.25-.214.167 0 .255-.179.266-.542.016-.508.025-.515.143-.125l.126.417.126-.461c.07-.254.091-.648.047-.875-.053-.277-.004-.414.148-.414.173 0 .227.33.227 1.399 0 1.584.014 1.601 1.333 1.601 1.226 0 1.334-.082 1.334-1.018 0-.614.062-.815.25-.815s.25.201.25.815c0 .988.056 1.018 1.904 1.018 1.574 0 1.92-.208 1.893-1.135-.008-.301.071-.634.177-.739.106-.106.207-.571.225-1.034s.075-.017.125.991l.092 1.834h2.5 2.5l.084-1.584c.046-.882.136-1.454.203-1.291.218.531 3.501.424 3.936-.129.224-.284.358-.352.416-.208.047.116.091.013.098-.229.028-.944.513-.691.513.267 0 .578.09.989.25 1.15.138.137.25.447.25.688 0 .269.069.396.178.329.098-.061.219.047.27.24.05.192.199.35.332.35.132 0 .199.066.15.146-.138.223.78.354 2.487.354s2.625-.131 2.487-.354c-.049-.08-.022-.146.061-.146.299 0 .869-.63.869-.96 0-.186.118-.383.262-.438.189-.073.255-.3.235-.81-.016-.39-.021-1.327-.013-2.084l.016-1.375h1.329 1.33l.045 3.042.046 3.042.659.053c.363.03.888.011 1.167-.041l.507-.095-.052-3-.052-3.001h.913c1.115 0 1.441-.112 1.441-.497 0-.162.111-.387.247-.5.216-.179.252.244.291 3.438l.045 3.643h4.5 4.5l.049-1.368c.054-1.538.271-1.688.787-.544.162.359.359.613.438.564.078-.049.143.028.143.171s.067.26.149.26c.081 0 .193.179.248.397.12.48.505.598 1.958.601 1.245.002 1.82-.336 1.264-.743-.157-.115-.286-.294-.286-.398 0-.105-.09-.172-.2-.149-.111.023-.212-.071-.225-.208-.013-.138-.035-.344-.049-.458-.014-.115-.194-.21-.401-.211-.304-.002-.328-.034-.125-.167.2-.131.207-.192.034-.304-.247-.159.082-.524.533-.59.846-.125 1.404-3.339.683-3.937-.137-.114-.25-.273-.25-.353 0-.081-.145-.292-.323-.47-.387-.387-12.996-.534-13.451-.156-.157.13-.226.132-.226.007 0-.124-1.561-.18-5.083-.182l-5.083-.002-.006 2.453c-.005 2.073-.05 2.505-.292 2.787-.423.493-1.082.747-1.431.551-.161-.089-.391-.124-.513-.078-.151.058-.194-.017-.137-.236.046-.176.008-.321-.086-.321-.107 0-.179-.913-.193-2.457-.027-2.862.038-2.74-1.442-2.676l-1.15.05-.051.792c-.067 1.04-.533.992-.533-.056 0-.175-.104-.319-.232-.319s-.274-.11-.325-.243c-.079-.206-.875-.237-5.31-.208l-5.216.034-.052.363c-.028.199-.159.452-.291.562-.141.117-.24.496-.24.919 0 .396-.075.766-.167.823-.092.056-.167.473-.167.926 0 .791-.177 1.045-.436.625-.067-.109-.106-.521-.085-.916.028-.553-.023-.719-.221-.719-.201 0-.258-.2-.258-.916 0-.505-.069-.917-.155-.917-.085 0-.179-.169-.208-.375-.052-.364-.109-.375-1.97-.375h-1.917l-.085 1.583c-.066 1.217-.117 1.468-.221 1.084-.255-.948-.662-1.75-.886-1.75-.123 0-.224-.113-.224-.25 0-.166-.166-.25-.49-.25-.27 0-.544-.087-.61-.193-.073-.119-.045-.147.074-.073.106.065.192.039.192-.058 0-.301-4.253-.232-4.559.074m-72.316 5.791c-.029 1.032-.053.188-.053-1.875 0-2.062.024-2.906.053-1.875.029 1.032.029 2.719 0 3.75m14.342-1.833c-.034 3.732-.094 3.299-.174-1.25-.023-1.352.014-2.459.082-2.459.069.001.11 1.669.092 3.709m-.467-2.208v.666h-2c-1.666 0-2-.041-2-.25 0-.206.306-.25 1.75-.25h1.75v-.416c0-.26.095-.417.25-.417.181 0 .25.185.25.667m105.167 0v.666h-1.917c-1.592 0-1.916-.042-1.916-.25 0-.205.293-.25 1.64-.25 1.587 0 1.646-.013 1.829-.416.267-.587.364-.52.364.25m-115.167.333c0 .092.08.167.177.167s.13-.075.073-.167c-.163-.264.187-.194.417.083.155.187.157.25.011.25-.109 0-.159.063-.111.14.141.228-1.027.694-1.739.694-.66 0-.661-.001-.661-.667v-.667h.917c.504 0 .916.075.916.167m14.398.094c.055.143.16.223.234.178.074-.046.24-.018.37.062.551.341-.301.833-1.444.833h-1.058v-.667-.667h.899c.662 0 .925.069.999.261m56.409-.054c.165.165.239.157.364-.041.137-.217.158-.215.16.015.002.144.19.363.419.486.477.255.63 2.145.207 2.567-.238.238-1.122.516-1.373.432-.092-.031-.392-.063-.667-.071-.428-.013-.495-.074-.463-.43.021-.228-.004-.321-.055-.206-.051.114-.148.208-.215.208-.18 0-.007-1.899.183-2.019.089-.056.155-.149.148-.208-.046-.337.043-.413.599-.518.454-.085.551-.154.375-.266-.131-.083-.16-.152-.064-.153.097-.002.268.09.382.204m19.485.062c.288.287.262.575-.042.458-.137-.052-.25-.015-.25.083s-.159.264-.353.368c-.286.153-.329.146-.226-.036.103-.181.085-.185-.096-.017-.58.538-1.491.258-1.491-.458v-.667l1.125.031c.635.017 1.215.121 1.333.238m29.566.023c.633.291.831.542.429.542-.117 0-.325.131-.463.292-.194.227-.447.28-1.12.234l-.87-.059v-.65-.651h.695c.383 0 .981.132 1.329.292m-89.149.289.625.291v1.119c0 1.055-.027 1.133-.459 1.349-.252.126-.58.33-.729.452-.23.189-.287.18-.378-.056-.084-.218-.241-.257-.729-.178-.357.057-.527.04-.4-.039.169-.105.139-.161-.125-.23-.45-.118-.491-1.512-.065-2.254.242-.422 1.201-.901 1.551-.775.046.016.365.16.709.321m16.091 1.286c.391.391.238.8-.3.8-.444 0-.5-.056-.5-.5 0-.537.41-.691.8-.3m-36.799 1.508v.709l-2-.052-2.001-.051v-.657-.657h2 2zm105.166-.041v.666h-1.917-1.916v-.666-.667h1.916 1.917z" fill="#646464"/><path d="m359.833 24.75v4.083h19.75 19.75v-4.083-4.083h-19.75-19.75z" fill="#4c8cc4"/><path d="m272 24.75v4.083h19.75 19.75v-4.083-4.083h-19.75-19.75z" fill="#ac1c1c"/><path d="m193.667 14.302c0 .089.118.208.264.264.162.062.238.025.198-.097-.084-.249-.462-.386-.462-.167m16.267.129c-.062.162-.025.238.097.198.249-.084.386-.462.167-.462-.089 0-.208.118-.264.264m-64.57 2.319c-.105.229-.163.417-.13.417.034 0 .184-.188.334-.417s.208-.417.129-.417-.229.188-.333.417m-119.531.187c0 .222.046.233.25.063.138-.114.25-.236.25-.27 0-.035-.112-.063-.25-.063-.137 0-.25.121-.25.27m159 2.563c0 .092.113.167.25.167.138 0 .25-.075.25-.167s-.112-.167-.25-.167c-.137 0-.25.075-.25.167m67.834 0c0 .092.112.167.25.167.137 0 .25-.075.25-.167s-.113-.167-.25-.167c-.138 0-.25.075-.25.167m.666.2c0 .073.263.133.584.133.32 0 .583-.029.583-.065s-.263-.096-.583-.133c-.321-.037-.584-.008-.584.065m62.5 5.05v4.083h19.834 19.833v-4.083-4.083h-19.833-19.834zm-92-3.627c0 .193.64.792.74.693.039-.039-.112-.246-.334-.461-.223-.214-.406-.319-.406-.232m-187 3.044c-.132.081-.185.204-.117.271.068.068.21.036.317-.071.252-.252.112-.393-.2-.2m29 4.436c0 .092.11.312.245.49s.245.249.245.157-.11-.312-.245-.49-.245-.249-.245-.157m71 1.23c-.132.082-.185.204-.117.272.068.067.21.035.317-.072.252-.251.112-.392-.2-.2m-8.257 6.917c0 3.667.022 5.143.049 3.281.027-1.863.027-4.863 0-6.667s-.049-.281-.049 3.386m95.226-2.064c-.246.265-.391.481-.323.481.069 0 .341-.225.604-.5.264-.275.409-.491.323-.481-.086.011-.357.236-.604.5m92.031.814c0 .954-.059 1.334-.208 1.336-.153.002-.157.035-.015.125.106.068.226.348.267.623.04.275.084-.382.098-1.459s-.013-1.958-.058-1.958c-.046 0-.084.6-.084 1.333m27.784-.9c-.164.22-.239.4-.165.4.145 0 .605-.666.518-.75-.029-.028-.188.129-.353.35m-42.041.078c-.06.098-.069.218-.02.266.119.12.444-.091.444-.287 0-.213-.288-.199-.424.021m7.981.069c.135.136.28.342.322.458.041.117.129.163.193.103.131-.121-.397-.808-.621-.808-.078 0-.03.111.106.247m-285.789.683c-.157.408-.123.448.149.177.283-.283.319-.44.101-.44-.082 0-.195.118-.25.263m371.972.659c.178.134.399.244.49.244.092 0 .021-.11-.156-.244-.178-.135-.399-.245-.491-.245-.091 0-.021.11.157.245m-89.865.193c.16.041.423.041.583 0 .161-.042.029-.077-.291-.077-.321 0-.452.035-.292.077m40.833 0c.161.041.423.041.584 0 .16-.042.029-.077-.292-.077s-.452.035-.292.077m-161.757.235c.131.132.271.134.491.005.27-.156.247-.179-.184-.184-.358-.003-.442.045-.307.179m33.882-.017c0 .209.177.209.5 0 .202-.131.179-.162-.125-.164-.206-.002-.375.072-.375.164m33.951.017c.132.132.271.134.492.005.269-.156.247-.179-.184-.184-.359-.003-.442.045-.308.179m-154.034.483c-.131.212.255.212.583 0 .204-.131.182-.162-.115-.164-.201-.002-.411.072-.468.164m202.788.865c.036.108.155.227.264.264.122.04.159-.036.097-.198-.116-.303-.461-.366-.361-.066m11.629 1.718c0 1.085.036 1.936.081 1.892.118-.118.134-3.648.017-3.765-.054-.054-.098.789-.098 1.873m-14.829-.09c-.135.086-.195.206-.133.268s.234-.009.382-.158c.294-.293.145-.359-.249-.11m7.768.09c.053.138.117.25.141.25.025 0 .139-.112.253-.25.173-.208.15-.25-.141-.25-.241 0-.319.077-.253.25m40.561-.184c0 .162.469.222.681.088.171-.108.111-.149-.223-.151-.252-.002-.458.027-.458.063m-276.5 1.371c0 .091.11.312.244.49.135.178.245.248.245.157 0-.092-.11-.313-.245-.491-.134-.177-.244-.248-.244-.156m223.846.674c-.007.199-.107.399-.221.446-.164.065-.162.087.005.097.253.015.437-.387.315-.69-.047-.117-.092-.051-.099.147m-65.753.645c-.182.137-.231.244-.113.244.115 0 .323-.112.46-.25.32-.319.077-.315-.347.006m-47.888 1.276c.036.108.155.227.264.264.121.04.159-.036.096-.198-.116-.303-.46-.366-.36-.066m67.833 0c.036.108.155.227.264.264.122.04.159-.036.097-.198-.117-.303-.461-.366-.361-.066" fill="#1c7424"/><path d="m71.5 24.083c0 .138.122.25.27.25.222 0 .233-.045.063-.25-.114-.137-.235-.25-.27-.25s-.063.113-.063.25m140.444.695c-.202.202-.115.38.139.282.138-.052.25-.163.25-.244 0-.175-.229-.198-.389-.038m-83.035 11.972c0 3.667.022 5.143.049 3.281.027-1.863.027-4.863 0-6.667s-.049-.281-.049 3.386m-21.573-4.552c.005.419.325.764.328.354.002-.201-.072-.412-.164-.469-.092-.056-.166-.004-.164.115m165.069 5.635c0 2.063.024 2.907.053 1.875.029-1.031.029-2.718 0-3.75-.029-1.031-.053-.187-.053 1.875m14.221-1.208c.08 4.549.14 4.982.174 1.25.018-2.04-.023-3.708-.092-3.709-.068 0-.105 1.107-.082 2.459m-10.02-.542c.053.138.21.25.349.25.206 0 .214-.046.045-.25-.114-.137-.271-.25-.349-.25-.077 0-.097.113-.045.25m89.388-.127c.135.052.376.253.536.445.181.216.294.265.298.129.008-.32-.422-.699-.774-.684-.23.01-.244.037-.06.11m16.241 2.711c0 1.604.025 2.26.056 1.458.03-.802.03-2.115 0-2.917-.031-.802-.056-.145-.056 1.459m-77.735.061c0 .274.299.528.448.38.05-.051-.03-.214-.178-.362-.233-.233-.27-.235-.27-.018" fill="#6c6c6c"/></g></svg>