<svg height="165.75563" viewBox="0 0 511.18017 215.48232" width="393.21552" xmlns="http://www.w3.org/2000/svg"><g transform="translate(-4.581085 -5.635396)"><text fill="#ef00eb" font-family="TrasksHand" font-size="2.6" stroke="#0105ff" stroke-width="3.25" transform="matrix(1 -.23852362 0 1 0 0)" x="68.843979" y="179.20901"><tspan fill="#fafafa" fill-opacity=".4" font-size="2.6" stroke="none" stroke-width="3.25" x="68.843979" y="179.20901">John Loreth 2022</tspan></text><path d="m12.665617 8.6353958-5.0845565 64.9439452c9.7312605-.02933 20.8149175-.165198 30.5461775-.194528l-6.639618 90.213137 61.648299-11.48023v66l334.039981-.0294-.20943-47.33178 8.35701.25596.48943-17.74894c10.46767 3.2112 19.63514 5.78562 26.89616 7.3157 46.03195 9.70015 50.05218-20.44253 50.05218-20.44253l-6.78949-93.912802c-.46971-14.924908-10.4171-36.349905-36.0454-37.4082638z" stroke="#f00" stroke-linejoin="round" stroke-width="6"/><g fill="#27aae1"><g fill="#27aae1" stroke-width="2.5"><path d="m128.2178 187.48288v12.06695h-16.65477v-60.33479l39.97144-.0966q3.62487 0 5.78019 1.6411 2.15532 1.64111 2.93908 5.406 0 6.17828 0 9.84664 0 3.57181 0 5.59907 0 2.02725 0 2.9926 0 .86882 0 1.54457-.68579 3.18568-2.35127 4.82678-1.56751 1.64111-4.21267 2.12379v.28961h-25.56997v14.09421zm14.49944-24.23045v-11.10161h-14.59741v11.10161z"/><path d="m161.27875 199.35676 22.33698-60.6244h17.83039l21.06339 60.6244h-34.48517v-12.83924h13.42178l-8.91519-27.22307-14.59741 40.06231z"/><path d="m240.9563 199.54983h-16.65477v-29.05723l-.0979-.0966.0979-.0966v-31.08438l39.97144-.0966q3.62486 0 5.78019 1.6411 2.15531 1.64111 2.93907 5.406 0 6.17828 0 9.84664 0 3.57181 0 5.59907 0 2.02725 0 2.9926 0 .86882 0 1.54457-.68579 3.18568-2.35126 4.82678-1.56751 1.64111-4.21267 2.12379v.28961h-6.27004l12.736 26.35423h-17.14461l-12.4421-26.16111v-10.32931h12.14819v-11.19815h-15.08726z"/><path d="m291.6051 199.54983h-16.65477v-29.05723l-.0979-.0966.0979-.0966v-31.08438l39.97144-.0966q3.62486 0 5.78018 1.6411 2.15533 1.64111 2.93908 5.406 0 6.17828 0 9.84664 0 3.57181 0 5.59907 0 2.02725 0 2.9926 0 .86882 0 1.54457-.68578 3.18568-2.35126 4.82678-1.56751 1.64111-4.21267 2.12379v.28961h-6.27004l12.736 26.35423h-17.14461l-12.4421-26.16111v-10.32931h12.14819v-11.19815h-15.08726z"/><path d="m333.66978 199.54983q-7.24972 0-8.71926-6.08175.0979-12.64617.0979-24.23045 0-11.58428-.0979-23.07202.78376-3.76489 2.93907-5.406 2.15533-1.6411 5.78019-1.6411h31.35015q3.62486 0 5.78019 1.6411 2.15532 1.64111 2.93907 5.406-.0979 11.48774-.0979 23.07202 0 11.58428.0979 24.23045-1.46954 6.08175-8.71926 6.08175zm8.81723-13.22538h13.7157v-34.17363h-13.7157z"/><path d="m375.99374 139.11843h40.91407v12.64619h-9.16742l-.0826 48.11174h-17.36934v-48.11174h-14.29465z"/></g><g fill="#1c75bc"><path d="m114.05498 171.71611-.0899 24.60958h12.03039l.18258-24.60958h-12.08886" opacity=".97"/><path d="m176.93948 196.32569h-11.63331l8.64284-24.60958h12.41024z" opacity=".97"/><path d="m219.12479 196.32569-9.08303-24.60958h-11.42082l4.6918 16.02908h-12.62027v8.5805h28.49497" opacity=".97"/><path d="m227.18439 171.71611v24.60958h10.77049v-24.60958z" opacity=".97"/><path d="m268.39196 196.32569h-11.79721l-11.86114-24.60958h12.0123z" opacity=".97"/><path d="m277.89174 171.71611v24.60958h10.77049v-24.60958z" opacity=".97"/><path d="m319.09931 196.32569h-11.79721l-11.86114-24.60958h12.0123z" opacity=".97"/><path d="m392.4519 171.71611-.0899 24.60958h12.90757l.18258-24.60958" opacity=".97"/><path d="m327.31517 171.71611.11769 21.28218c.0306 1.84801.56433 3.3274 2.52319 3.3274h37.28123c3.63733 0 3.98962-1.74489 4.0357-3.58661v-21.02297h-13.23999v14.13771c-.24771.98283-.37901 2.01975-3.16113 1.82507h-10.82853c-2.55664.28583-3.73966-.4114-3.58204-2.06809v-13.89469z" opacity=".97"/></g></g><g><g stroke-width="5"><path d="m414.83012 132.59209c-8.92448-1.62185-14.91246-5.44862-17.09281-12.03031 0 0-4.80836-79.810052-4.6886-79.828641.76848-4.074384 2.4545-7.535955 5.05807-9.311968 2.60358-1.776014 6.17239-2.66402 10.70643-2.66402h58.81999c4.53404 0 8.19519.888006 10.98346 2.66402 2.78826 1.776013 4.77848 5.237584 5.97067 9.311968 2.10195 31.028808 4.36751 62.057611 7.16817 93.086421-.11967 6.24033-4.79082 11.88162-15.84598 9.87255zm14.85206-20.97184 27.86178 4.40097-3.59972-63.72307-28.11034-1.302544zm-48.3794 8.99297-26.0187-2.78374-3.35088-65.071509-25.3783-.246087 1.69783 63.255486-26.1091-1.64303-1.60668-78.564482 78.31527.0451zm-127.43425-45.181835 42.78993 38.907935-32.62099-.60365-26.44947-22.448038.1046 22.075998-25.52081 1.34555.59217-79.294089h27.34181l-1.44087 22.196816 20.9314-22.045736 31.37624.06912zm-123.02748-39.908458 77.54386-.06756-9.20591 16.647043-43.98217.437176-1.23096 14.534335h44.6788l-.72868 16.44788-44.70764 1.866041-.51106 14.803328 52.56394-2.134797-7.91156 17.249147-70.89173 5.23064zm-100.926234-6.757014 90.698154.22655-1.65317 20.082355-30.910315.977131-4.943878 85.029351-30.853121 4.51796 6.455562-88.18946-29.797163.985094z" fill="#fa9b02"/><path d="m31.914816 29.786476 90.698154.224545-1.65317 19.90466-30.910315.968485-4.943878 84.276984-30.853121 4.47799 6.455562-87.409137-29.797163.976377z" fill="#fd001f"/><path d="m132.84105 36.483702 76.31016-.06696-7.97221 16.499745-43.98217.433308-1.23096 14.405731h44.6788l-.72868 16.302344-44.70764 1.849529-.51106 14.672341 52.56394-2.115905-7.91156 17.096515-70.89173 5.18436z" fill="#fd001f"/><path d="m255.86853 76.039037 42.78993 38.563663-32.62099-.59831-26.44947-22.249407.1046 21.880667-25.52081 1.33364.59217-78.59247h25.94984l-.0489 22.000412 20.9314-21.850669 29.98427.06851z" fill="#fd001f"/><path d="m383.30278 120.82109-26.0187-2.75911-3.35088-64.495735-25.3783-.24391 1.69783 62.695785-26.1091-1.62849-1.60668-77.869324 76.93954.216654z" fill="#fd001f"/><path d="m416.83012 132.69397c-8.92448-1.6075-14.91246-5.40041-17.09281-11.92387 0 0-4.80836-79.103863-4.6886-79.122288.76848-4.038333 2.4545-7.469274 5.05807-9.229573 2.60358-1.760299 6.17239-2.640448 10.70643-2.640448h58.81999c4.53404 0 8.19519.880149 10.98346 2.640448 2.78826 1.760299 4.77848 5.19124 5.97067 9.229573 2.10195 30.754256 4.36751 61.508508 7.16817 92.262768-.11967 6.18511-4.79082 11.77648-15.84598 9.78519zm14.85206-19.07479 27.86178 2.65054-3.59972-63.159228-28.11034-1.291018z" fill="#fd001f"/></g><g fill="#9c081b"><path d="m61.669057 84.923104-4.150026 49.017086 22.321166-4.06988 3.141054-47.446555z" opacity=".97"/><path d="m132.99031 77.942298-1.92478 37.395742 65.08655-4.76495 3.51309-7.50827-50.19123 3.07763 1.25472-24.657647 44.4327-2.213886-.52514-3.944248z" opacity=".97"/><path d="m217.49033 75.117906-.84653 34.166744 18.22834-.19442.15639-26.460461 32.34958 27.122621 17.3072-.23602-35.86124-34.426442z" opacity=".97"/><path d="m306.27967 75.260668 1.03018 34.201182 17.87251 1.96566-.71811-35.651751z" opacity=".97"/><path d="m358.44326 76.911908 1.7789 36.798762 17.74577 1.71684-2.15406-37.656609z" opacity=".97"/><path d="m401.14768 81.475975 1.24452 35.996325c1.15939 7.68928 6.58525 8.1466 12.16131 9.60451l65.7444 11.63259c5.33438.82549 8.87151-.25015 8.33543-5.63444l-4.00738-48.361153-23.65688-1.542404 2.77776 36.006867c.14266 1.4641-.0224 2.41186-2.19236 1.82219l-31.53174-4.72191c-1.34328-.52491-3.03432.0637-3.18023-2.61419l-1.35408-28.882042c-.15804-3.349381-.97107-4.407703-2.88429-4.535024l-18.59586-1.271543c-1.96159-.2552-3.05969.404958-2.8606 2.500224z" opacity=".97"/></g></g><g stroke-linecap="square" stroke-linejoin="round"><path d="m279.56683 44.263352c-3.09637 2.804995-10.82723 5.368829-13.47433 8.679001-1.2588 1.574112-4.7803 3.81819-6.54127 4.782721-.45016.246565-2.69924.999481-5.33245 1.96199-2.2524.823312-5.54569 3.333755-6.0318 4.147157-.97608 1.633269-2.51276 2.432758-4.65915 3.902484-1.59004 1.088767-4.02125 1.866886-4.86433 3.896005-.26166.629768-1.3333 1.672361-2.7158 2.454344-1.53934.870698-2.27565 2.46862-3.5031 3.261448-2.68817 1.736328-4.69182 4.135107-6.89603 5.482375-4.28056 2.616389-7.41713 4.126026-10.71798 7.031564-4.80821 3.955165-8.0855 4.670088-12.28298 7.895203l2.16743-.277635c10.64083-6.123841 17.44499-9.706427 27.26057-16.660482 1.64648-1.166481 3.09048-2.38583 4.51519-3.813495 1.55473-1.55795 1.77925-1.733242 3.11688-2.563522 1.76296-1.094292 3.29099-3.969389 6.1117-5.270369 3.65127-1.684051 4.19619-2.139586 7.23561-5.247853 1.23586-1.26386 2.55757-2.564897 4.71168-3.309865 8.42697-2.914341 17.43075-11.679476 24.93798-16.540089-1.39671.204324-2.21794-.533657-3.03782.189018z" fill="#d8001b" opacity=".97"/><path d="m276.17287 44.616509c-3.09637 2.804995-7.43327 3.015672-10.08037 6.325844-1.2588 1.574112-4.7803 3.81819-6.54127 4.782721-.45016.246565-2.69924.999481-5.33245 1.96199-2.2524.823312-5.54569 3.333755-6.0318 4.147157-.97608 1.633269-2.51276 2.432758-4.65915 3.902484-1.59004 1.088767-4.02125 1.866886-4.86433 3.896005-.26166.629768-1.3333 1.672361-2.7158 2.454344-1.53934.870698-2.27565 2.46862-3.5031 3.261448-2.68817 1.736328-4.69182 4.135107-6.89603 5.482375-4.28056 2.616389-6.89716 4.479925-10.19801 7.385463-4.80821 3.955165-10.0076 6.241743-14.62009 9.098113l1.80249.421875c10.64083-6.123841 19.62707-11.962746 29.44265-18.916801 1.64648-1.166481 3.09048-2.38583 4.51519-3.813495 1.55473-1.55795 1.77925-1.733242 3.11688-2.563522 1.76296-1.094292 3.29099-3.969389 6.1117-5.270369 3.65127-1.684051 4.19619-2.139586 7.23561-5.247853 1.23586-1.26386 2.55757-2.564897 4.71168-3.309865 8.42697-2.914341 15.09832-9.810206 22.60555-14.670819-2.50291.659646-3.27947-.04977-4.09935.672905z" fill-opacity=".961472" opacity=".97"/><path d="m308.48741 41.602167c-4.55466 4.104004-15.90911 7.836006-19.80647 12.683077-1.85335 2.304964-7.02964 5.584208-9.6175 6.992696-.66156.360053-3.96483 1.456107-7.83264 2.85822-3.30843 1.199338-8.15089 4.870342-8.86742 6.062047-1.43868 2.392878-3.69677 3.560059-6.85217 5.708374-2.33753 1.591466-5.90819 2.72379-7.15327 5.698067-.38643.923111-1.96305 2.448848-3.99482 3.590942-2.26227 1.271663-3.34899 3.613611-5.15329 4.772224-3.95146 2.537417-6.90103 6.049605-10.14081 8.017995-6.29162 3.822611-10.9002 6.025621-15.7553 10.276361-7.07113 5.78512-11.88309 6.8214-18.05519 11.53759l3.18162-.39893c15.63854-8.94467 25.63712-14.17522 40.06792-24.34139 2.42064-1.705282 4.54438-3.488939 6.64058-5.578354 2.28755-2.280092 2.61769-2.536441 4.58381-3.749582 2.59129-1.598898 4.84479-5.811904 8.98905-7.709963 5.36455-2.456937 6.16595-3.12327 10.63822-7.672526 1.81847-1.849785 3.76307-3.753788 6.92695-4.83855 12.37734-4.24362 25.62395-17.070571 36.65923-24.173791-2.05036.294368-3.25257-.791774-4.4585.265493z" fill="#d8001b" opacity=".97"/><path d="m304.47545 42.113443c-4.55463 4.104007-10.91952 4.396203-14.81688 9.243275-1.85335 2.304965-7.02966 5.584206-9.61751 6.992696-.66155.360054-3.96483 1.456106-7.83264 2.858218-3.30844 1.19934-8.1509 4.870345-8.86741 6.062048-1.43869 2.392879-3.69678 3.560058-6.85221 5.708376-2.33752 1.591463-5.90816 2.723786-7.15323 5.698066-.38644.923113-1.96306 2.448844-3.99484 3.590939-2.26226 1.271665-3.34898 3.613612-5.15328 4.772228-3.95145 2.537415-6.90105 6.049601-10.14082 8.017996-6.29162 3.822618-10.13855 6.546985-14.99368 10.797735-7.07112 5.78509-14.70975 9.12012-21.48941 13.2936l2.64337.62612c15.63854-8.94465 28.84799-17.47767 43.27877-27.643826 2.42065-1.705285 4.54435-3.488938 6.6406-5.578354 2.28754-2.280091 2.61769-2.536444 4.5838-3.749583 2.59127-1.598898 4.8448-5.811904 8.98904-7.709963 5.36454-2.456939 6.16596-3.123268 10.63822-7.672526 1.81848-1.849784 3.76307-3.753788 6.92697-4.838547 12.37733-4.24362 22.19396-14.336685 33.22926-21.439905-3.67542.958193-4.81218-.08586-6.01812.971407z" fill-opacity=".961472" opacity=".97"/><path d="m311.13789 55.358837c-4.10377 3.752681-14.37747 7.213229-17.88012 11.635498-1.66564 2.102954-6.33873 5.11171-8.67656 6.406448-.59763.330976-3.58642 1.347096-7.08521 2.644573-2.99278 1.109836-7.36047 4.471699-8.00242 5.557351-1.28897 2.179933-3.3293 3.253605-6.17696 5.223151-2.10955 1.45903-5.3406 2.509828-6.45011 5.215805-.34434.83984-1.76419 2.234186-3.59941 3.283602-2.04342 1.168467-3.01349 3.299855-4.64227 4.362744-3.56711 2.327771-6.21901 5.532981-9.14439 7.339881-5.68107 3.50902-9.84642 5.53785-14.22171 9.42563-6.37503 5.29419-10.7326 6.26615-16.29932 10.58486l2.88309-.38301c14.12466-8.21699 23.1586-13.02771 36.17971-22.34456 2.18419-1.56281 4.09855-3.19475 5.98591-5.103802 2.05963-2.083295 2.35737-2.318 4.13258-3.431419 2.33966-1.467461 4.35554-5.303685 8.10177-7.052829 4.84931-2.264174 5.57174-2.873877 9.59782-7.029855 1.63705-1.689871 3.38813-3.42976 6.25057-4.43471 11.19805-3.9314 23.12739-15.653713 33.08914-22.169849-1.85773.280647-2.95537-.696483-4.04211.270491z" fill="#d8001b" opacity=".97"/><path d="m307.30953 55.849441c-4.10376 3.752683-9.8748 4.060086-13.37744 8.482354-1.66567 2.102957-6.33876 5.111711-8.67657 6.406451-.59763.330975-3.58644 1.347095-7.08521 2.644571-2.99279 1.109837-7.36048 4.471699-8.00242 5.557351-1.28898 2.179933-3.32929 3.253607-6.17697 5.223152-2.10954 1.45903-5.34061 2.509828-6.45009 5.215804-.34436.839842-1.7642 2.234187-3.59942 3.283601-2.04342 1.168468-3.01349 3.299863-4.64227 4.362741-3.56711 2.327778-6.21901 5.532974-9.14441 7.339884-5.68106 3.50902-9.15211 6.00565-13.52742 9.89344-6.37504 5.29419-13.28111 8.36995-19.4025 12.20045l2.40173.5503c14.12467-8.21699 26.04887-16.04442 39.06999-25.36126 2.18417-1.56282 4.09851-3.194747 5.98591-5.103818 2.05963-2.083288 2.35736-2.317996 4.13256-3.431413 2.33966-1.46746 4.35556-5.303684 8.10177-7.052827 4.84931-2.264175 5.57175-2.873877 9.59783-7.029854 1.63705-1.689874 3.38812-3.429762 6.25058-4.434711 11.19803-3.931401 20.03457-13.151224 29.99635-19.667358-3.32724.893558-4.36526-.04584-5.452.921142z" fill-opacity=".961472" opacity=".97"/></g></g></svg>