<svg height="120" viewBox="0 0 420 120" width="420" xmlns="http://www.w3.org/2000/svg"><text fill="#c23334" font-family="ArialMT" font-size=".818569" stroke-width=".818569" transform="scale(.98330398 1.0169795)" x="488.80728" y="43.646767">I don’t like bugs!</text><path d="m-18.899346 99.722397v-52.622514h-11.516646v-13.161169h46.052042v13.161169h-11.5166453v52.622514zm57.554145 0v-13.159777h11.516646v-39.462737h-11.516646v-13.161169h46.052043v13.161169h-11.516647v39.462737h11.516647v13.159777zm69.070801 0v-13.159777h-11.500904v-39.462737h11.500904v-13.161169h34.5354v13.161169h-23.01876v39.462737h23.01876v13.159777zm34.5354-39.46273v-13.159784h11.51664v13.159784zm0 26.302953v-13.161169h11.51664v13.161169zm34.5354-13.161169v-13.141784h34.53539v13.141784zm69.07079 26.320946v-13.159777h-11.5009v-13.161169h11.5009v-13.141784h-11.5009v-13.159784h11.5009v-13.161169h34.53539v13.161169h-23.01876v13.159784h23.01876v13.141784h-23.01876v13.161169h23.01876v13.159777zm34.53539-39.46273v-13.159784h11.51665v13.159784zm0 26.302953v-13.161169h11.51665v13.161169zm34.5354 13.159777v-13.159777h-11.50089v-39.462737h11.50089v-13.161169h34.5354v13.161169h-23.01876v39.462737h23.01876v13.159777zm34.5354-13.159777v-39.462737h11.51664v39.462737z" fill="#f2f2f2" stroke-width="1.295331" transform="matrix(.80490191 0 0 .83246768 74.616586 6.190925)"/></svg>