<svg enable-background="new 0 0 1894 384" height="384" viewBox="0 0 1894 384" width="1894" xmlns="http://www.w3.org/2000/svg" xmlns:xlink="http://www.w3.org/1999/xlink"><linearGradient id="a" gradientUnits="userSpaceOnUse" x1="948.8057" x2="948.8057" y1="43.0977" y2="337.083"><stop offset=".0045" stop-color="#e2e3e4"/><stop offset="1" stop-color="#b3b5b8"/></linearGradient><path d="m36.907 37.907h1823.796v303.966h-1823.796z" fill="url(#a)"/><path d="m29.5 349.279v-318.779h1838.607v311.372 7.407zm1831.203-7.407v-7.405zm-1816.391-7.405h1808.984v-289.154h-1808.984z"/><g fill="#807f7f"><path d="m697.277 190.185c-7.363 0-13.332 5.969-13.332 13.333 0 7.362 5.969 13.332 13.332 13.332 7.361 0 13.332-5.97 13.332-13.332 0-7.364-5.969-13.333-13.332-13.333zm-463.948 0c-7.362 0-13.332 5.969-13.332 13.333 0 7.362 5.97 13.332 13.332 13.332 7.363 0 13.333-5.97 13.333-13.332 0-7.364-5.97-13.333-13.333-13.333zm77.325 13.333c0 7.362 5.969 13.332 13.332 13.332 7.362 0 13.332-5.97 13.332-13.332 0-7.363-5.97-13.333-13.332-13.333-7.363 0-13.332 5.969-13.332 13.333zm135.985-13.333c-7.362 0-13.332 5.969-13.332 13.333 0 7.362 5.97 13.332 13.332 13.332 7.363 0 13.332-5.97 13.332-13.332 0-7.364-5.97-13.333-13.332-13.333zm467.799-127.986h-828.945c-14.071 0-25.479 11.407-25.479 25.479v199.682c0 14.07 11.408 25.479 25.479 25.479h828.944c14.071 0 25.479-11.406 25.479-25.479v-199.682c.001-14.072-11.406-25.479-25.478-25.479zm-742.436 170.649-15.999-26.664v26.664h-31.997v-101.324h47.995c15.998 0 31.997 10.666 31.997 31.997s-15.999 26.664-21.331 26.664l26.664 42.663zm53.328 0c-10.665 0-21.331-10.666-21.331-26.664 0-18.175 15.998-21.332 21.331-21.263 1.944.026 9.087-.069 10.666-.069 10.666 0 5.333-10.666 0-10.666s-21.331 0-21.331 0v-21.331h42.662c10.666 0 14.665 10.666 14.665 21.331 0 10.666 1.333 58.66 1.333 58.66h-47.995zm138.65 0s-21.33 0-42.661 0c-31.997 0-37.329-26.664-37.329-42.663 0-9.809 5.332-37.329 37.329-37.329h10.666v-21.332h31.997v101.324zm37.331 0h-26.664v-79.992h26.664zm45.328 0c-22.089 0-39.996-17.906-39.996-39.996 0-22.088 17.906-39.996 39.996-39.996s39.995 17.906 39.995 39.996c0 22.087-17.905 39.996-39.995 39.996zm135.984-69.327c-10.665 0-15.998 5.333-15.998 15.998s0 5.333 0 21.331c0 21.332-5.333 31.998-47.995 31.998 0-21.332 0-31.998 0-31.998 10.666 0 21.331 0 21.331-15.998s0-15.998 0-26.664 5.333-26.664 42.662-26.664zm79.991 69.327h-31.996v-47.996c0-5.333-10.666-5.333-10.666 0s0 47.996 0 47.996h-26.664v-101.324h26.664v26.664c10.666-10.666 42.662-5.333 42.662 15.998zm26.664 0c-10.666 0-21.331-10.666-21.331-26.664 0-18.175 15.998-21.332 21.331-21.263 1.942.026 9.087-.069 10.666-.069 10.666 0 5.333-10.666 0-10.666s-21.332 0-21.332 0v-21.331h42.662c10.666 0 14.665 10.666 14.665 21.331 0 10.666 1.332 58.66 1.332 58.66h-47.993zm133.086-35.66-28.041-.027c-2.259-4.155-6.661-6.976-11.722-6.976-7.362 0-13.332 5.968-13.332 13.332s5.969 13.332 13.332 13.332c5.137 0 9.596-2.906 11.821-7.164l24.47-.002c-6.354 13.68-20.216 23.164-36.291 23.164-22.09 0-39.996-17.906-39.996-39.994 0-22.089 17.906-39.997 39.996-39.997 22.088 0 39.995 17.906 39.995 39.997.001 1.463-.078 2.911-.232 4.335zm42.895 35.66-10.666-31.998h-5.333v31.998h-21.331v-101.324h21.331v42.663h5.333l10.666-15.998h26.664l-15.999 26.664 21.332 47.995zm-706.589-63.994c-7.363 0-13.332 5.969-13.332 13.332 0 7.362 5.969 13.332 13.332 13.332s13.332-5.969 13.332-13.332-5.968-13.332-13.332-13.332z"/><path d="m1005.936 214.4h239.976v53.328h-239.976z"/><path d="m1267.24 214.4h239.974v53.328h-239.974z"/><path d="m1528.545 214.4h239.975v53.328h-239.975z"/><path d="m1138.662 110.022h78.117v15.623h-31.247v54.681h-15.623v-54.681h-31.247z"/><path d="m1251.73 152.986v27.34h-15.623v-70.304h54.683c15.624 0 23.435 7.135 23.435 21.403 0 6.771-1.119 11.745-3.357 14.92 2.238 3.698 3.357 8.515 3.357 14.452v19.529h-15.621v-19.529c0-5.207-2.605-7.812-7.813-7.812zm0-15.623h46.871v-11.718h-46.871z"/><path d="m1429.225 152.986v-11.718h26.99v11.718z"/><path d="m1551.415 125.646h-62.024v11.718h39.06c15.623 0 23.434 7.161 23.434 21.48 0 14.322-7.812 21.482-23.434 21.482h-31.246c-13.229 0-20.857-5.207-22.89-15.623h61.946v-11.718h-39.058c-15.625 0-23.436-7.056-23.436-21.17 0-14.529 7.811-21.794 23.436-21.794h31.246c13.332.001 20.987 5.21 22.966 15.625zm-77.101 39.058c-.366-1.875-.547-3.932-.547-6.171 0-5.52 1.196-9.973 3.592-13.358 3.75 5.209 10.363 7.812 19.844 7.812h-7.813v11.718zm73.899-19.53c2.446-3.437 3.67-7.993 3.67-13.67 0-2.083-.154-4.036-.468-5.859h-15.154v11.718h-7.812c9.425 0 16.014 2.605 19.764 7.811z"/><path d="m1564.496 156.892v-23.435c0-15.623 7.813-23.435 23.436-23.435h23.436c15.624 0 23.436 7.812 23.436 23.435v23.435c0 15.624-7.812 23.435-23.436 23.435h-23.436c-15.623 0-23.436-7.811-23.436-23.435zm46.87 7.812c5.207 0 7.813-2.604 7.813-7.812v-23.435c0-5.207-2.604-7.812-7.813-7.812h-23.436c-5.209 0-7.812 2.604-7.812 7.812v23.435c0 5.208 2.603 7.812 7.812 7.812z"/><path d="m1330.756 156.989h20.17c0 5.042 2.836 8.51 6.776 8.51h36.323c2.839 0 3.783-2.049 3.783-4.886 0-2.836 1.26-8.982-4.412-8.982-5.673 0-38.847 0-44.362 0s-18.438-4.57-18.438-20.013 10.084-21.116 17.177-21.116 47.116 0 53.576 0c6.461 0 12.449 2.994 12.449 19.541-4.729 0-19.066 0-19.066 0 0-3.625-1.892-6.184-8.509-6.184-6.619 0-23.721 0-28.446 0-4.729 0-6.462.353-6.462 7.759s4.255 6.814 7.406 6.814 37.271 0 44.992 0 14.969 7.841 14.969 19.975c0 12.133-5.829 22.458-18.276 22.458-12.449 0-47.117 0-53.421 0s-16.229-3.075-16.229-23.876z"/></g><path d="m314.505 207.665c0 7.362 5.969 13.332 13.332 13.332s13.332-5.97 13.332-13.332c0-7.363-5.969-13.332-13.332-13.332s-13.332 5.969-13.332 13.332zm135.985-13.332c-7.363 0-13.332 5.969-13.332 13.332 0 7.362 5.969 13.332 13.332 13.332s13.332-5.97 13.332-13.332c0-7.363-5.968-13.332-13.332-13.332zm250.638 0c-7.363 0-13.332 5.969-13.332 13.332 0 7.362 5.969 13.332 13.332 13.332s13.332-5.97 13.332-13.332c0-7.363-5.969-13.332-13.332-13.332zm-538.606-21.331c-7.363 0-13.332 5.969-13.332 13.332 0 7.361 5.969 13.332 13.332 13.332s13.332-5.969 13.332-13.332-5.969-13.332-13.332-13.332zm74.658 21.331c-7.363 0-13.332 5.969-13.332 13.332 0 7.362 5.969 13.332 13.332 13.332s13.332-5.97 13.332-13.332c0-7.363-5.969-13.332-13.332-13.332zm681.11-127.986h-828.945c-14.071 0-25.479 11.408-25.479 25.479v199.681c0 14.071 11.407 25.479 25.479 25.479h828.945c14.071 0 25.479-11.407 25.479-25.479v-199.681c.001-14.072-11.408-25.479-25.479-25.479zm-742.436 170.647-15.998-26.663v26.663h-31.997v-101.322h47.994c15.999 0 31.997 10.666 31.997 31.997s-15.998 26.664-21.331 26.664l26.664 42.662zm53.327 0c-10.665 0-21.331-10.665-21.331-26.663 0-18.174 15.999-21.332 21.331-21.262 1.944.025 9.087-.069 10.666-.069 10.666 0 5.333-10.665 0-10.665s-21.331 0-21.331 0v-21.331h42.662c10.665 0 14.665 10.666 14.665 21.331s1.333 58.66 1.333 58.66zm138.651 0s-21.331 0-42.661 0c-31.997 0-37.33-26.663-37.33-42.662 0-9.808 5.333-37.329 37.33-37.329h10.665v-21.331h31.996zm37.33 0h-26.664v-79.991h26.664zm45.328 0c-22.089 0-39.996-17.906-39.996-39.995s17.907-39.996 39.996-39.996 39.996 17.907 39.996 39.996-17.907 39.995-39.996 39.995zm135.985-69.325c-10.666 0-15.999 5.333-15.999 15.998v21.331c0 21.331-5.333 31.996-47.995 31.996 0-21.331 0-31.996 0-31.996 10.666 0 21.332 0 21.332-15.999 0-15.998 0-15.998 0-26.664 0-10.665 5.334-26.664 42.662-26.664zm79.991 69.325h-31.997v-47.994c0-5.333-10.666-5.333-10.666 0s0 47.995 0 47.995h-26.663v-101.323h26.664v26.664c10.666-10.665 42.662-5.333 42.662 15.999s0 58.659 0 58.659zm26.663 0c-10.665 0-21.331-10.665-21.331-26.663 0-18.174 15.999-21.332 21.331-21.262 1.943.025 9.087-.069 10.666-.069 10.666 0 5.333-10.665 0-10.665s-21.331 0-21.331 0v-21.331h42.662c10.666 0 14.665 10.666 14.665 21.331s1.333 58.66 1.333 58.66zm133.086-35.658-28.041-.027c-2.258-4.156-6.661-6.977-11.723-6.977-7.362 0-13.332 5.969-13.332 13.332 0 7.361 5.969 13.332 13.332 13.332 5.137 0 9.596-2.906 11.822-7.164l24.47-.002c-6.355 13.679-20.216 23.164-36.292 23.164-22.088 0-39.995-17.906-39.995-39.995s17.907-39.996 39.995-39.996c22.089 0 39.996 17.907 39.996 39.996.001 1.466-.077 2.913-.232 4.337zm42.895 35.658-10.666-31.996h-5.333v31.996h-21.331v-101.322h21.331v42.663h5.333l10.666-15.999h26.663l-15.998 26.664 21.33 47.995z" fill="#e5e5e5"/><path d="m1009.787 218.548h239.975v53.328h-239.975z" fill="#e5e5e5"/><path d="m1271.092 218.548h239.975v53.328h-239.975z" fill="#e5e5e5"/><path d="m1532.396 218.548h239.973v53.328h-239.973z" fill="#e5e5e5"/><path d="m1142.514 114.17h78.116v15.623h-31.246v54.682h-15.624v-54.682h-31.246z" fill="#e5e5e5"/><path d="m1255.583 157.134v27.341h-15.622v-70.305h54.68c15.625 0 23.437 7.135 23.437 21.403 0 6.771-1.12 11.744-3.357 14.92 2.237 3.698 3.357 8.515 3.357 14.451v19.529h-15.623v-19.529c0-5.207-2.604-7.812-7.813-7.812h-39.058v.002zm0-15.623h46.87v-11.718h-46.87z" fill="#e5e5e5"/><path d="m1433.076 157.134v-11.717h26.988v11.717z" fill="#e5e5e5"/><path d="m1555.266 129.793h-62.023v11.718h39.06c15.623 0 23.436 7.161 23.436 21.482 0 14.322-7.813 21.482-23.436 21.482h-31.247c-13.229 0-20.855-5.207-22.888-15.624h61.944v-11.717h-39.058c-15.624 0-23.435-7.056-23.435-21.169 0-14.53 7.811-21.794 23.435-21.794h31.247c13.331-.001 20.986 5.207 22.965 15.622zm-77.1 39.058c-.366-1.875-.547-3.931-.547-6.17 0-5.52 1.195-9.973 3.593-13.358 3.75 5.208 10.363 7.812 19.843 7.812h-7.813v11.717zm73.898-19.529c2.445-3.438 3.67-7.994 3.67-13.67 0-2.083-.155-4.035-.469-5.859h-15.154v11.718h-7.812c9.428 0 16.015 2.604 19.765 7.811z" fill="#e5e5e5"/><path d="m1568.348 161.04v-23.435c0-15.624 7.813-23.435 23.437-23.435h23.437c15.623 0 23.434 7.811 23.434 23.435v23.435c0 15.623-7.812 23.435-23.434 23.435h-23.437c-15.625 0-23.437-7.812-23.437-23.435zm46.871 7.811c5.206 0 7.812-2.603 7.812-7.811v-23.435c0-5.208-2.604-7.812-7.812-7.812h-23.436c-5.209 0-7.813 2.604-7.813 7.812v23.435c0 5.208 2.604 7.811 7.813 7.811z" fill="#e5e5e5"/><path d="m1334.605 161.137h20.172c0 5.042 2.836 8.509 6.774 8.509h36.325c2.837 0 3.782-2.049 3.782-4.886 0-2.836 1.261-8.981-4.412-8.981-5.672 0-38.846 0-44.362 0s-18.437-4.57-18.437-20.013 10.084-21.116 17.177-21.116h53.576c6.461 0 12.447 2.994 12.447 19.54-4.727 0-19.065 0-19.065 0 0-3.625-1.892-6.183-8.509-6.183-6.618 0-23.721 0-28.447 0s-6.46.353-6.46 7.759 4.255 6.813 7.405 6.813 37.271 0 44.992 0 14.97 7.841 14.97 19.975c0 12.133-5.83 22.458-18.278 22.458-12.449 0-47.115 0-53.42 0-6.303 0-16.23-3.074-16.23-23.875z" fill="#e5e5e5"/><path d="m313.024 205.889c0 7.362 5.969 13.331 13.331 13.331 7.363 0 13.332-5.969 13.332-13.331 0-7.363-5.969-13.332-13.332-13.332-7.362 0-13.331 5.968-13.331 13.332zm386.622-13.332c-7.361 0-13.332 5.969-13.332 13.332 0 7.362 5.97 13.331 13.332 13.331 7.363 0 13.332-5.969 13.332-13.331.001-7.364-5.968-13.332-13.332-13.332zm-463.947 0c-7.363 0-13.332 5.969-13.332 13.332 0 7.362 5.969 13.331 13.332 13.331s13.332-5.969 13.332-13.331c0-7.364-5.969-13.332-13.332-13.332zm681.11-127.987h-828.945c-14.071 0-25.479 11.408-25.479 25.479v199.681c0 14.071 11.407 25.479 25.479 25.479h828.944c14.071 0 25.479-11.406 25.479-25.479v-199.681c0-14.071-11.407-25.479-25.478-25.479zm-742.436 170.649-15.999-26.664v26.664h-31.997v-101.323h47.995c15.998 0 31.996 10.666 31.996 31.997s-15.998 26.664-21.331 26.664l26.664 42.663zm53.327 0c-10.666 0-21.331-10.666-21.331-26.664 0-18.174 15.998-21.331 21.331-21.262 1.943.025 9.087-.069 10.666-.069 10.665 0 5.333-10.666 0-10.666s-21.331 0-21.331 0v-21.332h42.662c10.666 0 14.665 10.666 14.665 21.332s1.333 58.661 1.333 58.661zm138.652 0s-21.332 0-42.661 0c-31.998 0-37.33-26.664-37.33-42.662 0-9.81 5.333-37.331 37.33-37.331h10.666v-21.331h31.997v101.324zm37.329 0h-26.664v-79.992h26.664zm45.328 0c-22.089 0-39.996-17.906-39.996-39.996 0-22.089 17.907-39.996 39.996-39.996s39.996 17.907 39.996 39.996c0 22.09-17.907 39.996-39.996 39.996zm135.985-69.326c-10.666 0-15.999 5.333-15.999 15.999v21.331c0 21.331-5.332 31.997-47.994 31.997 0-21.331 0-31.997 0-31.997 10.666 0 21.331 0 21.331-15.998 0-15.999 0-15.999 0-26.664s5.333-26.664 42.662-26.664zm79.99 69.326h-31.996v-47.995c0-5.333-10.666-5.333-10.666 0v47.995h-26.664v-101.323h26.664v26.664c10.666-10.665 42.662-5.333 42.662 15.999zm26.664 0c-10.666 0-21.331-10.666-21.331-26.664 0-18.174 15.999-21.331 21.331-21.262 1.942.025 9.087-.069 10.666-.069 10.666 0 5.332-10.666 0-10.666-5.334 0-21.331 0-21.331 0v-21.332h42.661c10.666 0 14.666 10.666 14.666 21.332s1.332 58.661 1.332 58.661zm133.086-35.658-28.041-.028c-2.258-4.155-6.661-6.976-11.723-6.976-7.362 0-13.332 5.969-13.332 13.332 0 7.362 5.97 13.331 13.332 13.331 5.138 0 9.597-2.905 11.822-7.163l24.47-.002c-6.354 13.678-20.216 23.164-36.292 23.164-22.089 0-39.996-17.906-39.996-39.996 0-22.089 17.906-39.996 39.996-39.996 22.088 0 39.996 17.907 39.996 39.996.001 1.465-.078 2.912-.232 4.338zm42.895 35.658-10.666-31.996h-5.333v31.996h-21.33v-101.323h21.331v42.663h5.333l10.666-15.999h26.664l-15.999 26.664 21.331 47.995zm-706.588-63.994c-7.363 0-13.332 5.969-13.332 13.332s5.969 13.332 13.332 13.332c7.362 0 13.332-5.969 13.332-13.332s-5.97-13.332-13.332-13.332zm287.968 21.332c-7.362 0-13.332 5.969-13.332 13.332 0 7.362 5.97 13.331 13.332 13.331 7.363 0 13.332-5.969 13.332-13.331 0-7.364-5.969-13.332-13.332-13.332z"/><path d="m1008.307 216.771h239.975v53.328h-239.975z" fill="#ce2027"/><path d="m1269.61 216.771h239.974v53.328h-239.974z" fill="#0f7c3e"/><path d="m1530.915 216.771h239.974v53.328h-239.974z" fill="#233d98"/><path d="m1141.032 112.394h78.116v15.623h-31.246v54.682h-15.624v-54.682h-31.246z"/><path d="m1254.104 155.357v27.341h-15.623v-70.305h54.681c15.624 0 23.436 7.135 23.436 21.404 0 6.771-1.12 11.744-3.358 14.92 2.238 3.698 3.358 8.515 3.358 14.452v19.529h-15.623v-19.529c0-5.208-2.604-7.812-7.813-7.812zm0-15.623h46.869v-11.718h-46.869z"/><path d="m1431.596 155.357v-11.717h26.988v11.717z"/><path d="m1553.785 128.017h-62.025v11.718h39.061c15.623 0 23.435 7.161 23.435 21.482 0 14.322-7.812 21.482-23.435 21.482h-31.247c-13.228 0-20.856-5.207-22.888-15.624h61.945v-11.717h-39.059c-15.623 0-23.436-7.056-23.436-21.169 0-14.53 7.813-21.794 23.436-21.794h31.247c13.331-.001 20.988 5.207 22.966 15.622zm-77.099 39.058c-.366-1.875-.547-3.931-.547-6.171 0-5.52 1.196-9.972 3.592-13.358 3.75 5.208 10.363 7.812 19.843 7.812h-7.813v11.717zm73.897-19.529c2.446-3.437 3.671-7.993 3.671-13.67 0-2.083-.156-4.036-.469-5.859h-15.154v11.718h-7.813c9.427-.001 16.015 2.603 19.765 7.811z"/><path d="m1566.867 159.264v-23.435c0-15.624 7.812-23.435 23.435-23.435h23.437c15.623 0 23.435 7.812 23.435 23.435v23.435c0 15.623-7.812 23.435-23.435 23.435h-23.437c-15.623-.001-23.435-7.812-23.435-23.435zm46.87 7.811c5.204 0 7.811-2.603 7.811-7.811v-23.435c0-5.208-2.604-7.812-7.811-7.812h-23.437c-5.209 0-7.812 2.604-7.812 7.812v23.435c0 5.208 2.603 7.811 7.812 7.811z"/><path d="m1333.125 159.36h20.171c0 5.042 2.837 8.51 6.775 8.51h36.327c2.836 0 3.781-2.049 3.781-4.886 0-2.836 1.26-8.981-4.412-8.981-5.674 0-38.848 0-44.363 0s-18.437-4.57-18.437-20.013 10.085-21.116 17.177-21.116h53.576s12.447 2.994 12.447 19.54c-4.727 0-19.064 0-19.064 0 0-3.624-1.893-6.183-8.511-6.183-6.616 0-23.719 0-28.445 0-4.728 0-6.46.353-6.46 7.759s4.254 6.813 7.404 6.813h44.992s14.971 7.841 14.971 19.975c0 12.133-5.832 22.458-18.278 22.458-12.449 0-47.116 0-53.421 0-6.301.001-16.23-3.075-16.23-23.876z"/></svg>