<svg enable-background="new 0 -26.707 566.93 300" height="300" viewBox="0 -26.707 566.93 300" width="566.93" xmlns="http://www.w3.org/2000/svg"><g fill="#f2f2f2" transform="matrix(.89075631 0 0 .86475839 33.933529 21.348823)"><path d="m355.764 28.076c0 15.479 13.033 28.043 29.076 28.043 16.676 0 29.77-12.304 29.77-28.043-.001-15.743-13.094-28.076-29.77-28.076-16.043 0-29.076 12.582-29.076 28.076"/><path d="m360.59 84.226997h49.639v160.606h-49.639z"/><path d="m456.672 28.076c0 15.479 13.059 28.043 29.092 28.043 16.686 0 29.754-12.304 29.754-28.043 0-15.743-13.069-28.076-29.754-28.076-16.034 0-29.092 12.582-29.092 28.076"/><path d="m461.48199 84.226997h49.652v160.606h-49.652z"/><path d="m281.654 13.507-43.528 170.654s-33.281-128.097-38.695-146.266c-5.414-18.199-16.558-26.172-32.36-26.172-15.809 0-26.971 7.973-32.384 26.172-5.394 18.169-38.683 146.266-38.683 146.266l-43.557-170.654h-52.447s50.371 182.08 57.219 203.164c5.327 16.459 17.944 29.916 36.648 29.916 21.384 0 31.385-15.592 36.016-29.916 4.582-14.24 37.188-134.498 37.188-134.498s32.604 120.258 37.175 134.498c4.629 14.324 14.63 29.916 36.009 29.916 18.719 0 31.313-13.457 36.673-29.916 6.831-21.084 57.17-203.164 57.17-203.164z"/><path d="m526.229 223.076h17.033v3.211h-6.69v18.546h-3.634v-18.546h-6.709z"/><path d="m549.199 244.833h-3.332v-21.757h5.225l5.242 17.408 5.328-17.408h5.268v21.757h-3.457v-17.978l-5.409 17.978h-3.552l-5.313-17.978z"/></g></svg>