<svg enable-background="new 0 0 489 106.941" height="106.941" viewBox="0 0 489 106.941" width="489" xmlns="http://www.w3.org/2000/svg"><g fill="#0077db" transform="matrix(.04824549 0 0 .04824549 9.077495 9.10999999999)"><path d="m-177.77 123.652 900.474-123.768v868.967h-900.413zm900.474 856.408v859.14l-900.362-123.596-.051-735.504h900.413zm99.609-993.839 1198.219-164.707v1047.337h-1198.219zm1198.22 993.839v1037.348l-1198.22-164.545v-872.803z"/><g><path d="m4400.789 327.142-346.305 1262.274h-237.041l-240.563-882.894c-10-37.538-16.163-78.629-18.511-123.232h-3.522c-2.945 41.678-9.989 82.161-21.142 121.471l-241.454 884.655h-242.324l-353.36-1262.274h229.997l229.106 924.258c9.392 38.743 15.272 79.226 17.62 121.471h4.413c2.338-29.917 10.576-70.421 24.675-121.471l259.064-924.258h215.888l239.693 931.302c8.218 31.699 14.382 69.247 18.501 112.666h3.522c1.761-29.33 8.512-68.073 20.272-116.208l224.703-927.76z"/><path d="m4602.194 498.792c-33.49 0-62.122-10.85-85.916-32.579-23.794-21.709-35.686-49.299-35.686-82.738 0-33.449 11.892-61.322 35.686-83.629 23.794-22.296 52.426-33.449 85.916-33.449 34.654 0 64.025 11.153 88.112 33.449 24.088 22.306 36.132 50.179 36.132 83.629 0 31.678-12.044 58.843-36.132 81.422-24.087 22.6-53.458 33.895-88.112 33.895zm101.33 1090.625h-204.431v-901.375h204.431z"/><path d="m5720.023 1589.417h-204.421v-507.906c0-168.411-59.632-252.627-178.896-252.627-62.263 0-113.657 23.329-154.201 69.976-40.524 46.647-60.806 105.49-60.806 176.498v514.059h-205.312v-901.375h205.312v149.637h3.522c67.546-113.84 165.071-170.769 292.554-170.769 98.112 0 173.006 31.85 224.704 95.511 51.697 63.68 77.546 155.659 77.546 275.956v551.04z"/><path d="m6735.652 1589.417h-204.441v-153.169h-3.522c-65.806 116.208-167.136 174.302-304.011 174.302-111.026 0-199.887-40.342-266.563-121.046-66.676-80.684-100.014-190.576-100.014-329.657 0-149.06 36.86-268.466 110.601-358.248 73.721-89.792 171.974-134.688 294.76-134.688 121.592 0 210.008 48.722 265.228 146.125h3.522v-558.086h204.441v1334.467zm-201.789-411.96v-117.949c0-63.964-20.869-118.232-62.567-162.845-41.718-44.593-94.873-66.909-159.505-66.909-76.372 0-136.429 28.48-180.192 85.39-43.763 56.94-65.644 135.883-65.644 236.808 0 91.513 20.991 163.877 62.992 216.971 42.002 53.114 98.557 79.651 169.626 79.651 69.915 0 126.592-25.667 170.071-77.02 43.479-51.352 65.219-116.045 65.219-194.097z"/><path d="m7348.572 1610.549c-139.243 0-250.411-42.103-333.543-126.308-83.133-84.206-124.689-195.859-124.689-334.96 0-151.388 43.317-269.63 129.972-354.726 86.655-85.086 203.409-127.644 350.283-127.644 140.984 0 250.835 41.374 329.556 124.122s118.09 197.468 118.09 344.18c0 143.797-42.447 258.932-127.341 345.506-84.894 86.553-198.996 129.83-342.328 129.83zm9.676-780.794c-79.894 0-143.048 27.883-189.442 83.639-46.414 55.756-69.611 132.614-69.611 230.604 0 94.488 23.48 168.877 70.482 223.165s109.852 81.412 188.572 81.412c80.481 0 142.32-26.699 185.496-80.076 43.175-53.418 64.773-129.405 64.773-228.023 0-99.144-21.598-175.739-64.773-229.723-43.178-54.006-105.016-80.998-185.497-80.998z"/><path d="m9185.469 688.042-266.118 901.374h-214.137l-163.897-610.895c-6.478-23.46-10.566-49.866-12.327-79.216h-3.542c-1.175 19.958-6.458 45.756-15.85 77.455l-178.006 612.656h-209.725l-265.227-901.374h211.486l163.897 649.608c5.283 19.371 8.806 45.22 10.566 77.465h6.174c1.761-24.654 6.457-51.05 14.088-79.206l182.419-647.867h192.094l162.137 652.259c5.283 20.545 9.108 46.374 11.456 77.465h6.174c1.175-21.679 5.566-47.548 13.218-77.465l160.376-652.259z"/><path d="m9226.479 1561.26v-189.28c76.372 58.114 160.679 87.161 252.9 87.161 123.373 0 185.05-36.354 185.05-109.143 0-20.545-5.283-37.994-15.849-52.386-10.587-14.372-24.837-27.124-42.751-38.297-17.914-11.133-39.066-21.132-63.438-29.917-24.392-8.805-51.556-18.784-81.514-29.938-37.002-14.655-70.36-30.201-100.015-46.637-29.674-16.436-54.349-35.038-74.023-55.908-19.675-20.829-34.513-44.451-44.491-70.846-10-26.415-14.979-57.244-14.979-92.444 0-43.408 10.263-81.706 30.849-114.882 20.546-33.126 48.155-61.009 82.829-83.608 34.654-22.59 74.024-39.613 118.07-51.06 44.066-11.437 89.59-17.165 136.591-17.165 83.416 0 158.027 12.631 223.813 37.852v178.704c-63.438-43.429-136.288-65.148-218.53-65.148-25.849 0-49.208 2.631-70.057 7.914s-38.642 12.631-53.316 22.013c-14.676 9.392-26.132 20.687-34.351 33.885-8.238 13.208-12.348 27.741-12.348 43.581 0 19.351 4.109 35.808 12.348 49.289 8.219 13.501 20.404 25.383 36.557 35.666 16.153 10.263 35.545 19.655 58.154 28.156 22.61 8.502 48.621 17.752 77.992 27.711 38.782 15.849 73.578 32.022 104.427 48.438 30.828 16.416 57.122 35.079 78.861 55.908 21.72 20.829 38.46 44.876 50.22 72.162 11.761 27.286 17.631 59.713 17.631 97.261 0 45.787-10.566 85.703-31.719 119.73-21.152 34.006-49.35 62.203-84.59 84.489-35.262 22.306-75.947 38.864-122.058 49.734s-94.731 16.295-145.822 16.295c-98.697-.001-184.178-16.437-256.441-49.29z"/></g></g></svg>