<svg height="178" viewBox="0 0 312.5 89" width="625" xmlns="http://www.w3.org/2000/svg"><g transform="translate(1.981984 -.212184)"><g fill="#fff" fill-opacity=".5" stroke-width="1.25"><path d="m190.08438 65.683379q0 .12-.029.202-.043.122-.138.122-.063 0-.132-.029-.083-.035-.091-.086.028 0 .066.01.088.023.11.023.085 0 .128-.085.034-.068.034-.163 0-.067-.044-.191-.043-.125-.043-.174 0-.015.008-.024.009-.01.024-.01.039 0 .076.18.031.152.031.225z"/><path d="m190.46938 65.785379q0 .102-.059.16-.059.058-.163.058-.057 0-.088-.027-.031-.027-.031-.083 0-.079.103-.159.098-.076.181-.076.038 0 .05.047.007.027.007.08zm-.061.028q0-.012-.003-.023-.002-.012-.008-.027-.016.011-.053.054-.019.022-.033.032 0-.019.004-.031.008-.017.013-.029-.044 0-.092.037-.047.037-.047.08 0 .029.032.029.061 0 .118-.03.069-.036.069-.092z"/><path d="m190.88138 65.826379q0 .049-.037.11-.042.069-.087.069-.013 0-.022-.014-.008-.015-.008-.029 0-.018.038-.056.039-.039.039-.053 0-.009-.003-.018-.003-.009-.004-.012-.075.017-.153.086-.077.069-.117.078-.008-.022-.008-.045 0-.028.013-.059.009-.022.03-.053.035-.053.074-.12.02-.035.069-.121.05-.086.073-.122.012-.018.021-.027.013-.012.031-.016.012.004.017.015.006.011.006.026 0 .034-.044.092-.08.104-.082.108-.045.068-.045.123l.002.01q.055-.027.065-.031.041-.017.07-.017.032 0 .047.022.015.021.015.054z"/><path d="m191.34538 65.767379q0 .068-.033.145-.036.085-.089.117-.011-.013-.019-.029-.007-.016-.007-.032 0-.017.05-.101.022-.037.02-.065l-.001-.013q-.037.011-.128.067-.09.055-.182.112-.014 0-.026-.01-.011-.011-.011-.024 0-.021.067-.141.02-.036.072-.125.016.021.021.047.005.025.005.06 0 .015 0 .023.092-.055.144-.083.057-.031.078-.031.014 0 .026.032.013.032.013.051z"/><path d="m192.21438 65.961379q0 .018-.016.028-.015.009-.034.009-.017 0-.043-.004-.059-.009-.076-.009-.03 0-.118.007-.05.004-.072.004-.061 0-.061-.061 0-.058.038-.166.021-.061.079-.2.052-.125.066-.176.005-.016.008-.021.008-.012.02-.012.019 0 .032.028.013.027.013.049 0 .035-.041.118-.041.082-.08.161-.043.094-.043.143 0 .025.021.035.015.007.044.007.022 0 .076-.005.054-.006.072-.006.045 0 .074.013.041.018.041.058z"/><path d="m192.58638 65.785379q0 .102-.059.16-.059.058-.163.058-.057 0-.088-.027-.031-.027-.031-.083 0-.079.103-.159.098-.076.181-.076.038 0 .05.047.007.027.007.08zm-.061.028q0-.012-.003-.023-.002-.012-.008-.027-.016.011-.053.054-.019.022-.033.032 0-.019.004-.031.008-.017.013-.029-.044 0-.092.037-.047.037-.047.08 0 .029.032.029.061 0 .118-.03.069-.036.069-.092z"/><path d="m193.00738 65.764379q0 .032-.017.068-.016.036-.041.06l-.001-.014q0-.012.003-.037.003-.025.003-.037 0-.017-.005-.025-.005-.009-.021-.009-.047 0-.117.073-.076.08-.151.159-.006 0-.012-.001-.015-.004-.02-.005.003-.036.025-.08.059-.119.061-.127.008-.032.012-.047.004-.015.011-.031.008-.017.018-.03.011-.014.028-.021l.01.12q.043-.035.066-.054.044-.035.076-.035.032 0 .052.021.02.021.02.052z"/><path d="m193.49838 65.648379q0 .042-.112.111-.108.066-.157.066-.023 0-.031-.016-.007-.016-.007-.045 0-.019 0-.027.067 0 .122-.02.055-.02.096-.066-.03-.011-.061-.011-.073 0-.155.056-.09.061-.09.13 0 .066.09.092.014.004.169.028.091.014.091.049 0 .015-.033.024-.033.01-.084.01-.128 0-.202-.039-.098-.052-.098-.167 0-.12.12-.191.102-.06.232-.06.039 0 .071.018.039.022.039.058z"/><path d="m193.89638 65.469379q0 .022-.053.092-.053.07-.053.107 0 .019.022.038.05.044.05.054 0 .013-.009.025-.008.012-.021.012-.011 0-.031-.012-.014-.008-.054-.039-.015.029-.023.044-.028.053-.038.077-.015.046-.03.092-.026.062-.065.062l-.001-.023q0-.071.046-.168.009-.018.05-.093-.079-.043-.174-.043 0-.037.015-.054.016-.018.053-.018.034 0 .085.012.025.006.05.012.019-.006.052-.065.081-.142.11-.163.008.013.013.026.006.013.006.025z"/><path d="m194.26538 65.826379q0 .049-.037.11-.042.069-.087.069-.013 0-.022-.014-.008-.015-.008-.029 0-.018.038-.056.039-.039.039-.053 0-.009-.003-.018-.003-.009-.004-.012-.075.017-.153.086-.077.069-.117.078-.008-.022-.008-.045 0-.028.013-.059.009-.022.03-.053.035-.053.074-.12.02-.035.069-.121.05-.086.073-.122.012-.018.021-.027.013-.012.031-.016.012.004.017.015.006.011.006.026 0 .034-.044.092-.08.104-.082.108-.045.068-.045.123l.002.01q.055-.027.065-.031.041-.017.07-.017.032 0 .047.022.015.021.015.054z"/><path d="m195.08638 65.500379q0 .047-.05.126-.032.05-.105.144-.073.093-.091.122.003.001.075.024.073.022.073.08-.03.005-.059.009l-.011-.001v-.008q-.016-.004-.026-.004-.019 0-.06.006-.041.006-.062.006-.027 0-.044-.01-.017-.01-.017-.036 0-.021.077-.119.144-.183.145-.185.078-.106.078-.142 0-.014-.01-.021-.009-.007-.037-.007-.019 0-.079.037-.029.018-.047.018l-.017-.003q-.006-.004-.013-.015-.007-.012-.007-.019 0-.042.081-.077.069-.03.12-.03.043 0 .066.032.02.028.02.073z"/><path d="m195.68738 65.680379q0 .121-.131.214-.12.085-.247.085-.063 0-.1-.032-.037-.032-.037-.093 0-.136.119-.236.113-.095.253-.095.071 0 .107.042.036.042.036.115zm-.061.023q0-.046-.052-.069-.039-.017-.093-.017-.079 0-.165.077-.086.077-.086.155 0 .032.016.046.017.013.051.013.098 0 .204-.054.125-.064.125-.151z"/><path d="m196.14538 65.500379q0 .047-.05.126-.032.05-.105.144-.073.093-.091.122.003.001.075.024.073.022.073.08-.03.005-.059.009l-.011-.001v-.008q-.016-.004-.026-.004-.019 0-.06.006-.041.006-.062.006-.027 0-.044-.01-.017-.01-.017-.036 0-.021.077-.119.144-.183.145-.185.078-.106.078-.142 0-.014-.01-.021-.009-.007-.037-.007-.019 0-.079.037-.029.018-.047.018l-.017-.003q-.006-.004-.013-.015-.007-.012-.007-.019 0-.042.081-.077.069-.03.12-.03.043 0 .066.032.02.028.02.073z"/><path d="m196.60538 65.500379q0 .047-.05.126-.032.05-.105.144-.073.093-.091.122.003.001.075.024.073.022.073.08-.03.005-.059.009l-.011-.001v-.008q-.016-.004-.026-.004-.019 0-.06.006-.041.006-.062.006-.027 0-.044-.01-.017-.01-.017-.036 0-.021.077-.119.144-.183.145-.185.078-.106.078-.142 0-.014-.01-.021-.009-.007-.037-.007-.019 0-.079.037-.029.018-.047.018l-.017-.003q-.006-.004-.013-.015-.007-.012-.007-.019 0-.042.081-.077.069-.03.12-.03.043 0 .066.032.02.028.02.073z"/></g><path d="m93.673359 81.689362h-18.27673l28.845691-38.982709-26.27076-35.5028906 17.184154-.0837722 17.709676 23.9332508 17.64768-23.8494789 18.27673.0000003-26.78605 36.1992696 24.43621 33.023644v-25.626674h-10.88282l32.25952-43.5962396h34.66651l-11.06994 14.3028126h-24.97328v15.693426h35.61747l-10.49664 14.080001h-25.12083v15.839999h35.43526l-10.78076 14.569361h-58.00645l-19.70732-26.632918z" style="opacity:.98;fill:#d03c3b;stroke:#efd828;stroke-width:2;stroke-linecap:round;stroke-linejoin:round"/><g fill="#324cab" stroke="#fff" stroke-width="1.5"><g transform="scale(1.0795133 .92634338)"><path d="m21.610554 58.527068h-5.307165l-1.832997-6.500745h-7.5664404l-1.8543108 6.500745h-5.26453747l7.45987087-26.621082q.8951846-3.15446 3.4528548-3.15446 2.536356 0 3.452854 3.15446zm-8.54688-11.594771-2.365845-8.397683-2.365845 8.397683z"/><path d="m33.311894 33.845552h-5.818699v24.681516h-5.094027v-24.681516h-5.818699v-5.094026h16.731425z"/><path d="m50.149889 58.527068h-5.307165l-1.832997-6.500745h-7.56644l-1.854311 6.500745h-5.264537l7.45987-26.621082q.895185-3.15446 3.452855-3.15446 2.536356 0 3.452855 3.15446zm-8.54688-11.594771-2.365845-8.397683-2.365845 8.397683z"/><path d="m68.692997 58.527068h-5.925269l-6.117094-9.548635q-1.342777-2.06745-1.342777-3.239715 0-2.195334 1.896938-3.580738.895185-.49022 1.747742-.98044.852556-.49022 1.747741-.98044 1.896938-1.257522 1.896938-3.090518 0-1.257522-1.001754-2.259276-1.001754-1.001754-2.280589-1.001754h-4.007016v24.681516h-5.094026v-26.514513q0-1.300148.98044-2.280589.98044-.98044 2.301903-.98044h5.818699q3.282343 0 5.8187 2.365845 2.536356 2.344531 2.536356 5.626874 0 3.04789-1.982195 5.562932-1.96088 2.493729-4.966142 3.559424z"/><path d="m75.492137 58.527068h-5.094026v-29.775542h5.094026z"/></g><g transform="scale(1.0121278 .98801752)"><path d="m224.32602 3.3816657-5.66999 19.3446993q-.61703 2.151264-1.10065 2.78497-.93388 1.234058-2.56818 1.234058-1.40082 0-2.28467-.917205-.86718-.933882-1.46753-3.051793l-5.56994-19.3947293h5.06965l4.23582 16.2762303 4.38591-16.2762303z"/><path d="m231.23008 3.3816657v22.7633753h-4.63606v-22.7633753z"/><path d="m235.44923 8.1511347q0-1.184029.11673-1.7843817.13341-.6170292.5003-1.2507349.60035-1.0005879 1.53423-1.3674701.93388-.3835587 2.85168-.3835587 3.20188 0 5.23641.8504997 3.33529 1.3841466 5.26976 4.4359397 1.7677 2.7682933 1.7677 6.1035863 0 4.736116-3.30194 8.038056-2.9017 2.901705-6.70393 3.251911-1.18403.116735-2.58486.116735-1.43417 0-2.268-.2835-.81714-.2835-1.46752-.983911-.567-.61703-.76712-1.467529-.18344-.8505-.18344-2.734941zm4.63605 13.5079363q.26683 0 .60036 0 1.65097 0 2.835-.366882 1.18403-.383559 2.16794-1.234058 1.00058-.8505 1.65097-2.067882.81714-1.567588.81714-3.218558 0-1.450852-.65038-2.868352-.65038-1.417499-1.7677-2.3680577-1.95115-1.6676465-5.08633-1.6676465-.15008 0-.567.016676z"/><path d="m267.05113 3.3816657v4.4526162h-6.72062v4.2691751h6.27035v4.335881h-6.27035v5.23641h6.72062v4.469293h-6.67059q-1.51756 0-2.3347-.266824-.80047-.2835-1.40083-.983911-.51697-.600353-.73376-1.434176-.2168-.833824-.2168-2.134588v-13.1243779q0-2.6348815 1.0673-3.7188517 1.06729-1.1006467 3.61879-1.1006467z"/><path d="m281.42624 2.998107q4.86953 0 8.33823 3.5520871 3.35197 3.4019988 3.35197 8.4049379 0 3.101823-1.701 5.903469-1.61761 2.684911-4.36923 4.202469-2.63488 1.450853-5.68667 1.450853-3.06847 0-5.73671-1.484206-2.86835-1.584264-4.48597-4.402586-1.56759-2.751617-1.56759-5.870116 0-5.2697631 4.00236-8.8385266 3.23523-2.868352 7.85461-2.9183814zm-.0333 4.5026456q-3.25191 0-5.41985 2.5014694-1.75103 2.017853-1.75103 4.752793 0 3.335293 2.45144 5.486557 2.03453 1.784382 4.70276 1.784382 3.25191 0 5.3865-2.534823 1.71768-2.067882 1.71768-4.619381 0-3.201881-2.31803-5.419851-1.95115-1.8844406-4.76947-1.9511464z"/></g><g transform="scale(1.0127197 .98744005)"><path d="m218.20663 44.263557h8.44508q1.50209 0 2.25314.734355.80111.801115.80111 2.086237 0 1.151602-.6509 2.703762-.65091 1.53547-1.68568 2.820592-1.63561 2.052857-3.93882 3.204459-2.4701 1.235053-5.25731 1.235053-3.03756 0-5.67457-1.452021-2.87066-1.56885-4.53965-4.422822-1.60223-2.753832-1.60223-5.908222 0-3.271219 1.68568-6.075121 1.63561-2.720452 4.40613-4.255922 2.6537-1.468711 5.70795-1.468711 3.00418 0 5.54104 1.385261 2.55355 1.385261 4.32268 3.988884l-3.88874 2.520174q-.70098-1.101533-1.60223-1.802508-2.00279-1.56885-4.40613-1.56885-1.88596 0-3.57164 1.001393-1.68568 1.001394-2.637 2.720453-.90126 1.63561-.90126 3.554947 0 3.371359 2.47011 5.524355 2.01947 1.752438 4.65648 1.752438 2.05285 0 3.65508-1.001393 1.61892-1.018084 2.68708-2.987491h-6.2754z"/><path d="m248.43202 56.647457h-5.04035l-1.13491-4.422821h-6.14188l-1.1516 4.422821h-4.89014l5.54104-19.844282q.38387-1.401951 1.05147-2.169687 1.03477-1.184982 2.53686-1.184982 2.60362 0 3.57164 3.388048zm-7.27679-8.795573-1.9861-7.677351-1.93603 7.677351z"/><path d="m272.09829 56.647457h-4.63979v-13.335224l-3.00418 10.714911q-.36718 1.335191-.60084 1.785818-.61752 1.168293-2.10292 1.168293-1.4854 0-2.13631-1.201672-.26704-.484007-.68429-1.785819l-3.4548-10.84843v13.502123h-4.63979v-17.991704q0-1.518781.0668-2.119617.0668-.600836.30041-1.084843.36718-.801115 1.21837-1.301811.85118-.517387 1.78581-.517387.80112 0 1.53547.367178.73436.367177 1.1683.968013.3171.467317.45062.817805.15021.333798.63422 1.902648l3.60502 11.382507 3.17108-11.332437q.40055-1.468711.55076-1.852579.15021-.383867.5007-.884564.95132-1.351881 2.70376-1.351881 1.01809 0 1.85258.517386.85118.500697 1.26843 1.385262.45063.934634.45063 3.05425z"/><path d="m287.55313 33.865753v4.456202h-6.72602v4.272612h6.2754v4.339372h-6.2754v5.240627h6.72602v4.472891h-6.67595q-1.51878 0-2.33659-.267038-.80111-.283728-1.40195-.984704-.51739-.600836-.73435-1.435331-.21697-.834494-.21697-2.136306v-13.134946q0-2.637003 1.06815-3.721846 1.06815-1.101533 3.62171-1.101533z"/></g><g transform="scale(1.0101657 .9899366)"><path d="m219.41402 64.272592v4.724028q-2.42002-1.127136-4.37594-1.127136-1.5581 0-2.42003.812201-.8122.762475-.8122 1.790158 0 1.011108.62987 1.541525.62987.530417 2.3703.977957 2.2377.580144 3.11621.994532.89507.397813 1.6244 1.193439 1.75701 1.889611 1.75701 4.674302 0 3.431136-2.48634 5.453351-2.10509 1.707281-5.50307 1.707281-2.38688 0-5.76829-1.093986v-4.806906q3.54716 1.491799 5.86774 1.491799 1.50837 0 2.33715-.729324.86193-.762475.86193-1.889611 0-1.326043-1.19344-1.939338-.49727-.248633-2.42003-.729324-3.49744-.878503-4.79033-2.917294-1.04426-1.657554-1.04426-3.646619 0-2.502906 1.54153-4.475395 1.09398-1.40892 2.56921-2.038791 1.49179-.646446 3.67976-.646446 2.12167 0 4.45882.679597z"/><path d="m232.19376 86.616417h-4.59142v-9.796143l-6.01692-12.829466h5.03896l3.36484 7.823654 3.53059-7.823654h4.88978l-6.21583 12.829466z"/><path d="m250.90754 64.272592v4.724028q-2.42002-1.127136-4.37594-1.127136-1.5581 0-2.42003.812201-.8122.762475-.8122 1.790158 0 1.011108.62987 1.541525.62987.530417 2.37031.977957 2.23769.580144 3.1162.994532.89508.397813 1.6244 1.193439 1.75701 1.889611 1.75701 4.674302 0 3.431136-2.48633 5.453351-2.1051 1.707281-5.50308 1.707281-2.38688 0-5.76829-1.093986v-4.806906q3.54716 1.491799 5.86774 1.491799 1.50837 0 2.33715-.729324.86193-.762475.86193-1.889611 0-1.326043-1.19344-1.939338-.49727-.248633-2.42003-.729324-3.49744-.878503-4.79033-2.917294-1.04426-1.657554-1.04426-3.646619 0-2.502906 1.54153-4.475395 1.09398-1.40892 2.56921-2.038791 1.49179-.646446 3.67977-.646446 2.12166 0 4.45881.679597z"/><path d="m266.588 63.990808v4.425669h-4.30964v18.19994h-4.608v-18.19994h-4.24333v-4.425669z"/><path d="m280.24625 63.990808v4.425669h-6.67995v4.243337h6.23241v4.30964h-6.23241v5.204719h6.67995v4.442244h-6.63022q-1.50837 0-2.32057-.265209-.79563-.281784-1.39235-.977956-.51384-.59672-.72932-1.425497-.21549-.828777-.21549-2.121668v-13.044949q0-2.618934 1.06084-3.696344 1.06083-1.093986 3.59689-1.093986z"/><path d="m304.99353 86.616417h-4.608v-13.243855l-2.9836 10.641496q-.36466 1.326043-.59672 1.773582-.61329 1.160288-2.08852 1.160288-1.47522 0-2.12166-1.193439-.26521-.480691-.6796-1.773583l-3.43114-10.774099v13.40961h-4.608v-17.86843q0-1.508374.0663-2.105093.0663-.596719.29836-1.07741.36467-.795626 1.21002-1.292892.84535-.513841 1.77358-.513841.79563 0 1.52495.364661.72932.364662 1.16029.961382.31493.464115.44754.812201.14918.331511.62987 1.889611l3.58031 11.304517 3.14936-11.25479q.39781-1.458648.54699-1.839885.14918-.381237.49727-.878503.9448-1.342619 2.68523-1.342619 1.01111 0 1.83989.513842.84535.497266 1.25974 1.375769.44754.92823.44754 3.033324z"/></g></g></g></svg>