<svg height="84" width="567.75757" xmlns="http://www.w3.org/2000/svg"><path d="m87.899876 579.41582c0-.60697 2.31471-3.86947 5.143796-7.25l5.1438-6.14642-4.6438-.30479-4.643796-.30479v-.94521-.94521h6.999996 6.999998v.91255c0 .50191-2.28894 3.65191-5.086538 7l-5.086552 6.08745h5.086552 5.086538v1.5 1.5h-7.499998-7.499996zm16.999994.55053c0-.30418 1.125-2.20864 2.5-4.23214 3.08915-4.54609 3.08795-4.75519-.0509-8.87042l-2.55089-3.34439h1.93588 1.93588l1.72349 2.63037 1.72348 2.63038 2.21165-2.77367 2.21164-2.77367 1.18978.3966 1.18978.39659-2.55191 3.75547-2.55191 3.75546 3.09005 4.49124 3.09005 4.49123h-2.02236-2.02236l-1.55136-3c-.85325-1.65-1.89278-3-2.31007-3s-1.55618 1.35-2.53086 3l-1.77214 3h-1.44347c-.7939 0-1.44346-.24887-1.44346-.55305zm28.24781-.13251-2.2522-.45412-1.06888-1.99722-1.06887-1.99722 1.43663-2.19258 1.43664-2.19259-1.36298-2.05276-1.36298-2.05276 1.35587-1.85426 1.35587-1.85426h4.78309 4.78309l1.35587 1.85426 1.35587 1.85426-1.36298 2.05276-1.36299 2.05276 1.43664 2.19259 1.43664 2.19258-1.10625 2.06706-1.10626 2.06706-1.21481.0136c-.66815.008-2.11482.18044-3.21482.38428s-3.01349.16627-4.25219-.0835zm6.25219-4.81444v-2l-2.36534-.33466-2.36533-.33467-1.01745 1.01745-1.01745 1.01745.6271 1.63418.6271 1.63419 2.75568-.31697 2.75569-.31697zm.5-7.5v-2h-3.5-3.5v2 2h3.5 3.5zm8 11.5v-1.5h2 2v-6-6h-2-2v-.875-.875l3.125-.625c1.71875-.34375 3.51875-.625 4-.625h.875v7.5 7.5h2 2v1.5 1.5h-6-6zm-58.999994-32.98534v-3.48533l30.249994-.26467 30.25-.26466v-4.5-4.5l-30.25-.26466-30.249994-.26467v-11.48533-11.48534h33.999994 34v3.5 3.5h-30.5-30.499998v4.5 4.5h30.499998 30.5v12 12h-34-33.999994zm73.999994-16.01466v-19.5h3.5 3.5v19.5 19.5h-3.5-3.5zm12-.5v-20h34 34v20 20h-3.5-3.5v-16.5-16.5h-26.5-26.5v16.5 16.5h-4-4zm74 .5v-19.5h34 34v2.98534 2.98533l-30.25.26467-30.25.26466-.27988 12.75-.27987 12.75h30.52987 30.52988v3.5 3.5h-34-34zm74-6.5v-26h3.5 3.5v26 26h-3.5-3.5zm13 14.5v-11.5h30 30v-5-5h-30-30v-3-3h34 34v19.5 19.5h-34-34zm60-.5v-5h-26.5-26.5v5 5h26.5 26.5zm13-7.5v-19.5h4 4v19.5 19.5h-4-4zm14 0v-19.5h34 34v2.98534 2.98533l-30.25.26467-30.25.26466-.27477 16.25-.27477 16.25h-3.47523-3.47523zm-260-29v-3.5h3.5 3.5v3.5 3.5h-3.5-3.5zm246 0v-3.5h4 4v3.5 3.5h-4-4z" transform="translate(-84.80976 -496.933618)"/><g transform="translate(-.287324 2.27353)"><path d="m369.855 62.285h34.207l60.105-60.112h-34.209z" fill="#ca2825"/><path d="m404.138 62.285h34.209l60.104-60.112h-34.207z" fill="#fdc601"/><path d="m438.398 62.285h34.207l60.105-60.112h-34.209z" fill="#009c37"/><path d="m472.617 62.285h34.209l60.103-60.112h-34.207z" fill="#02559c"/></g></svg>