<svg height="64" viewBox="0 0 64 64" width="64" xmlns="http://www.w3.org/2000/svg"><g stroke="#fff" stroke-linejoin="round"><g fill="none"><path d="m22 23.5v-17.5a4 4 90 0 1 4-4h12a4 4 90 0 1 4 4v17.5" stroke-width="3"/><path d="m40.5 22h17.5a4 4 90 0 1 4 4v12a4 4 90 0 1 -4 4h-17.5" stroke-width="3"/><path d="m22 40.5v17.5a4 4 90 0 0 4 4h12a4 4 90 0 0 4-4v-17.5" stroke-width="3"/><path d="m23.5 22h-17.5a4 4 90 0 0 -4 4v12a4 4 90 0 0 4 4h17.5" stroke-width="3"/><path d="m27 14h10l-5-7.8z" stroke-width="2"/></g><path d="m50 27v10l7.8-5z" fill="#fff" stroke-width="2"/><path d="m27 50h10l-5 7.8z" fill="none" stroke-width="2"/><path d="m14 27v10l-7.8-5z" fill="#fff" stroke-width="2"/><circle cx="32" cy="32" fill="none" r="5" stroke-width="2"/></g></svg>