<svg height="64" viewBox="0 0 64 64" width="64" xmlns="http://www.w3.org/2000/svg"><path d="m15 19h34a13 13 90 0 1 13 13 13 13 90 0 1 -13 13h-34a13 13 90 0 1 -13-13 13 13 90 0 1 13-13z" fill="none" stroke="#fff" stroke-linejoin="round" stroke-width="2"/><path d="m15 19a13 13 0 0 0 -13 13 13 13 0 0 0 13 13h34a13 13 0 0 0 13-13 13 13 0 0 0 -13-13zm12.330078 4.433594h4.546875c1.882813 0 3.273438.425781 4.171875 1.277344.898438.851562 1.347656 2.15625 1.347656 3.914062 0 2.039062-.699218 3.519531-2.097656 4.441406l3.28125 7.5h-4.324219l-2.625-6.46875h-.210937v6.46875h-4.089844zm4.089844 3.175781v4.324219h.304687c.539063 0 .929688-.183594 1.171875-.550782.25-.367187.375-.921874.375-1.664062 0-.75-.128906-1.289062-.386718-1.617188-.25-.328124-.644532-.492187-1.183594-.492187z" fill="#fff"/></svg>