<svg height="64" viewBox="0 0 64 64" width="64" xmlns="http://www.w3.org/2000/svg"><g fill="#fff"><path d="m2 42a7 7 0 0 1 7-7h46a7 7 0 0 1 7 7 7 7 0 0 1 -7 7h-46a7 7 0 0 1 -7-7z" stroke="#fff" stroke-linejoin="round" stroke-width="2"/><g><path d="m7.5908203 26.665543q.5175781 0 .7910156-.341797.2734375-.351563.2734375-.84961 0-.507812-.1464843-.859375-.1464844-.361328-.4296875-.664062-.2832032-.302735-.5371094-.498047-.2441406-.205078-.6152344-.46875-1.2792969-.898438-1.8945312-1.894531-.6054688-.996094-.6054688-2.353516 0-1.875 1.1230469-2.96875 1.1328125-1.103516 2.9199219-1.103516t3.5253904 1.044922l-1.044922 2.509766q-.05859-.0293-.302734-.15625-.244141-.136719-.3125-.166016-.06836-.03906-.283203-.136718-.2148439-.107422-.3027346-.146485l-.2636718-.09766q-.4296875-.166016-.8300782-.166016-.390625 0-.625.361328-.2246093.351563-.2246093.859375 0 .498047.1269531.830079.1269531.332031.390625.615234.4492187.46875 1.1035156.898437 1.2988282.878907 1.9531252 1.855469.664062.966797.664062 2.333985 0 2.041015-1.09375 3.134765-1.0937497 1.083985-3.1152341 1.083985-2.0117187 0-3.515625-.84961v-3.203125q2.1289063 1.396485 3.2714844 1.396485z"/><path d="m21.125977 17.505386h-3.66211v2.88086h3.398438v2.65625h-3.398438v3.417968h3.66211v2.675782h-7.080079v-14.277344h7.080079z"/><path d="m26.838867 26.460464h3.574219v2.675782h-6.992188v-14.277344h3.417969z"/><path d="m39.602539 17.505386h-3.662109v2.88086h3.398437v2.65625h-3.398437v3.417968h3.662109v2.675782h-7.080078v-14.277344h7.080078z"/><path d="m46.643555 29.321793q-1.181641 0-2.109375-.400391-.917969-.410156-1.503907-1.083984-.585937-.673829-.966796-1.63086-.69336-1.738281-.69336-4.189453 0-1.933594.488281-3.564453.488282-1.650391 1.660157-2.714844 1.210937-1.074219 3.164062-1.074219.859375 0 1.650391.253907.800781.253906 1.728515.849609l-.976562 2.412109q-.07813-.07813-.380859-.253906-.302735-.185547-.556641-.292969-.673828-.302734-1.259766-.302734-.576172 0-.947265.341797-.371094.332031-.576172.820312-.205078.488282-.322266 1.171875-.205078 1.103516-.205078 2.373047 0 4.609375 2.099609 4.609375.917969 0 2.72461-1.035156v2.880859q-1.279297.830079-3.017578.830079z"/><path d="m59.680664 17.544449h-2.65625v11.591797h-3.398437v-11.591797h-2.65625v-2.685547h8.710937z"/></g></g></svg>