<svg height="64" viewBox="0 0 64 64" width="64" xmlns="http://www.w3.org/2000/svg"><g fill="#fff"><path d="m2 42a7 7 0 0 1 7-7h46a7 7 0 0 1 7 7 7 7 0 0 1 -7 7h-46a7 7 0 0 1 -7-7z" stroke="#fff" stroke-linejoin="round" stroke-width="2"/><g><path d="m11.02832 26.665543q.517578 0 .791016-.341797.273437-.351563.273437-.84961 0-.507812-.146484-.859375-.146484-.361328-.429687-.664062-.283204-.302735-.53711-.498047-.24414-.205078-.615234-.46875-1.2792971-.898438-1.8945314-1.894531-.6054688-.996094-.6054688-2.353516 0-1.875 1.1230469-2.96875 1.1328123-1.103516 2.9199223-1.103516 1.787109 0 3.52539 1.044922l-1.044922 2.509766q-.05859-.0293-.302734-.15625-.244141-.136719-.3125-.166016-.06836-.03906-.283203-.136718-.214844-.107422-.302735-.146485l-.263671-.09766q-.429688-.166016-.830079-.166016-.390625 0-.625.361328-.224609.351563-.224609.859375 0 .498047.126953.830079.126953.332031.390625.615234.449219.46875 1.103516.898437 1.298828.878907 1.953125 1.855469.664062.966797.664062 2.333985 0 2.041015-1.09375 3.134765-1.09375 1.083985-3.115234 1.083985-2.0117188 0-3.5156251-.84961v-3.203125q2.1289063 1.396485 3.2714841 1.396485z"/><path d="m25.149414 17.544449h-2.65625v11.591797h-3.398437v-11.591797h-2.65625v-2.685547h8.710937z"/><path d="m36.760742 29.136246h-3.4375l-.791015-3.496094h-2.88086l-.791015 3.496094h-3.427735l3.544922-14.335938h4.228516zm-4.814453-6.201172-.849609-3.759766q-.15625.751953-.830078 3.759766z"/><path d="m38.108398 14.858902h3.789063q2.353516 0 3.476562 1.064453 1.123047 1.064453 1.123047 3.261719 0 2.548828-1.748047 3.701172l2.734375 6.25h-3.603515l-2.1875-5.390625h-.175781v5.390625h-3.408204zm3.408204 2.646484v3.603516h.253906q.673828 0 .976562-.458984.3125-.458985.3125-1.386719 0-.9375-.322265-1.347656-.3125-.410157-.986328-.410157z"/><path d="m56.243164 17.544449h-2.65625v11.591797h-3.398437v-11.591797h-2.65625v-2.685547h8.710937z"/></g></g></svg>