<svg enable-background="new 3 136.909 270 82.35" height="82.35" viewBox="3 136.909 270 82.35" width="270" xmlns="http://www.w3.org/2000/svg" xmlns:xlink="http://www.w3.org/1999/xlink"><radialGradient id="a" cx="49.8867" cy="-77.3159" gradientTransform="matrix(.84593838 0 0 -.79795196 15.806723 126.1501)" gradientUnits="userSpaceOnUse" r="10.654"><stop offset=".5225" stop-color="#ffe41b"/><stop offset=".8933" stop-color="#716a13"/><stop offset="1" stop-color="#49482e"/></radialGradient><g stroke-width=".821595"><path d="m23.420168 145.22833h228.40337v65.711342h-228.40337z"/><path d="m26.380953 148.3595h62.317741v58.782726h-62.317741z" fill="#fff"/><path d="m48.195165 202.93622c0-.80274 3.93023-1.45387 8.780841-1.45387 4.85061 0 8.78084.65113 8.78084 1.45387s-3.93023 1.45227-8.78084 1.45227c-4.850611 0-8.780841-.65033-8.780841-1.45227z" fill="#888"/><g fill="#fff"><path d="m110.89527 174.94645v.10693c5.08747.0894 8.84428 1.04372 11.2679 2.86305 2.42531 1.81774 3.63838 4.01769 3.63838 6.59667 0 2.87821-1.37803 5.25531-4.14086 7.12571-2.75692 1.87599-6.43083 2.81278-11.0099 2.81278-3.95814 0-7.01536-.74848-9.18096-2.23905-2.165606-1.49058-3.248407-3.18622-3.248407-5.09572 0-1.26555.484723-2.29252 1.45586-3.06893.969447-.7764 2.134297-1.16102 3.489497-1.16102 1.27229 0 2.36609.34153 3.27124 1.015.91108.68145 1.36027 1.57915 1.36027 2.6899 0 1.48419-1.05319 2.72819-3.16466 3.73281-.41281.1955-.62599.41813-.62599.6647 0 .45723.59046.85859 1.77985 1.2065 1.18347.34552 2.38978.51309 3.63162.51309 4.06473 0 6.09921-2.81757 6.09921-8.45351 0-5.58008-2.44391-8.36972-7.32329-8.36972l-4.05289.15481c-.81633 0-1.22999-.28328-1.22999-.85222 0-.65272.43143-.98148 1.28921-.98148l2.95148.10613c3.01154 0 5.02741-.63118 6.05184-1.89833 1.02782-1.26076 1.53707-3.05775 1.53707-5.38936 0-2.40024-.3849-4.1693-1.15978-5.29681-.77488-1.13309-2.10554-1.69565-3.98691-1.69565-1.02274 0-1.98711.16119-2.88719.48994-.89923.32397-1.35519.64236-1.35519.96074 0 .29365.29693.60245.88824.92004 1.54891.93201 2.33056 1.94221 2.33056 3.02982 0 1.07165-.43143 1.91828-1.3019 2.55584-.86878.62959-1.84584.94797-2.93456.94797-1.25368 0-2.37286-.36307-3.35415-1.08123-.982977-.72613-1.480388-1.61824-1.480388-2.69628 0-1.8297 1.095488-3.41443 3.283088-4.74861 2.18928-1.33896 4.99272-2.00844 8.4247-2.00844 3.79149 0 6.9866.75805 9.58787 2.27177 2.60887 1.51211 3.91077 3.44715 3.91077 5.81946.007 4.66403-4.60191 7.48399-13.81164 8.4527z"/><path d="m156.81704 159.97767v32.08485h3.3313c5.0934 0 8.16923-1.26076 9.22835-3.7775 1.05911-2.52153 1.58613-6.82967 1.58613-12.92842 0-4.77095-.32653-8.20294-.97621-10.2856-.64461-2.08505-1.63266-3.45832-2.95148-4.11025-1.32051-.65352-2.99885-.98228-5.02826-.98228h-5.18983zm-10.28661 32.08485v-32.08485h-5.33534v-1.73634h21.37771c6.18297 0 11.0801 1.65176 14.68296 4.96087 3.602 3.30432 5.40639 7.47761 5.40639 12.51667 0 2.6101-.54817 5.07258-1.64958 7.3651-1.10057 2.2989-2.79244 4.39193-5.07563 6.2711-2.28404 1.88078-4.62644 3.09127-7.02806 3.63308-2.40246.54101-5.34802.81072-8.85105.81072h-18.86358v-1.73635z"/><path d="m223.83058 176.03646c0-5.44523-.12012-9.03442-.35614-10.76278-.24109-1.73634-.85778-3.13116-1.85091-4.19244-.99398-1.05888-2.63171-1.58952-4.91067-1.58952-1.92113 0-3.45397.4301-4.59683 1.28391-1.14286.85859-1.85091 2.23187-2.13515 4.12381-.27747 1.89035-.41958 5.58566-.41958 11.08196 0 5.43964.11843 9.04478.36037 10.80267.23686 1.75789.87639 3.15909 1.91266 4.20281 1.03543 1.04373 2.66132 1.56239 4.88022 1.56239 1.83992 0 3.34146-.41732 4.50124-1.25597 1.15978-.84264 1.88644-2.20395 2.17744-4.09589.29524-1.89354.43735-5.61439.43735-11.16095zm-25.96946-.15082c0-5.31835 1.85599-9.67038 5.58573-13.05768 3.71875-3.38013 8.187-5.07099 13.39121-5.07099 4.83454 0 9.15813 1.58952 12.97331 4.77096 3.81772 3.18063 5.72193 7.70582 5.72193 13.57156 0 5.4971-1.79847 9.90418-5.40809 13.21888-3.60877 3.31309-8.01611 4.97124-13.22117 4.97124-5.62549 0-10.21048-1.76427-13.74142-5.27845-3.53264-3.51738-5.3015-7.89095-5.3015-13.12552z"/></g><path d="m49.512291 189.23538c0-3.89959 3.340611-7.05868 7.463715-7.05868 4.123103 0 7.463714 3.15909 7.463714 7.05868 0 3.898-3.341457 7.05868-7.463714 7.05868-4.12395-.00079-7.463715-3.16148-7.463715-7.05868z" fill="url(#a)"/><path d="m50.024084 170.82822c-1.098028.69103-1.390723 4.70473-1.390723 4.70473s.292695 4.0137 1.390723 4.70472c1.097182.69183 6.951922 1.10836 6.951922 1.10836s5.854739-.41573 6.951075-1.10836c1.098874-.69102 1.391569-4.70472 1.391569-4.70472s-.291849-4.0137-1.391569-4.70473c-1.096336-.69262-6.951075-1.10835-6.951075-1.10835s-5.85474.41573-6.951922 1.10835z" fill="#0000a0"/></g><path d="m32.332 156.676 10.335-10.363 10.335 10.363-10.335 10.36z" fill="#f00" transform="matrix(.84593838 0 0 .79795196 20.882353 35.981521)"/></svg>