<svg viewBox="0 0 3839 1955.26834" xmlns="http://www.w3.org/2000/svg"><g fill="#2c5aa0"><path d="m1927.2 215.4 34.6 34.6 20-20-30.1-30.1h66.9v16.4a5.37756 5.37756 0 0 1 -5.4 5.4h-17.2v28.3h32a18.9491 18.9491 0 0 0 18.9-18.9v-31.1h41.6v-21.9h-41.5v-9.7h25.8v-78.1h-65.2v-9.7h81.00012v-21.9h-81v-12.7h-28.30005v12.7h-81.1v21.9h81.1v9.7h-65.20007v78.1h104.60009v9.7h-120.5v21.9h44.4zm117.3-64.5h-36.9v-16.8h36.9zm0-43.1v8.8h-36.9v-8.8zm-65.19995 8.8h-36.9v-8.8h36.9zm-36.9 17.5h36.9v16.8h-36.9z" transform="translate(0 -.03171)"/><path d="m2155.7 189.1v-3.7h36.8v64.7h28.3v-64.7h36.9v14.6 16.4a5.37746 5.37746 0 0 1 -5.3999 5.4h-17.2v28.3h32a18.94908 18.94908 0 0 0 18.8999-18.9v-76.5-96.1h-158.69971v130.6c.1001 17.7-10.60009 32.5-23.10009 45.1 6.69995 6.6 17.19995 15.5 23.8999 22.1a94.85962 94.85962 0 0 0 27.5999-67.3zm0-32v-20.9h36.8v20.9zm102.1001-49.2h-36.8999v-21h36.8999zm-65.3 0h-36.8v-21h36.8zm28.3 49.2v-20.9h36.8999v20.9z" transform="translate(0 -.03171)"/><path d="m2500.19995 59.56829h15.1001v45.5h-15.1001z"/><path d="m2534.3999 59.56829h15.1001v45.5h-15.1001z"/><path d="m3160 160.4c29 2 56.7 13.4 83.2 27.1 5-9.7 12.1001-26.1 17.1001-35.8a224.2905 224.2905 0 0 0 -100.3001-24.8v-62.4h-32.8v185.6h32.8z" transform="translate(0 -.03171)"/><path d="m3308.6001 61.26829h122v32.8h-122z"/><path d="m3545.1001 250h32.8v-114.6a171.21137 171.21137 0 0 0 53.10009-70.9h-36a138.58586 138.58586 0 0 1 -123.60009 74.9v32.8a170.62752 170.62752 0 0 0 73.7-16.5z" transform="translate(0 -.03171)"/><path d="m2387.1001 63.06829h93v32.8h-93z"/><path d="m2552 191.3c16.5-.9 34.6001-5.9 51.8-14.3v73.1h32.80005v-94.3c18.6001-15.5 33.3-35.5 39.5-58.3h-32.80005c-14.19995 34.7-65.8999 61.2-96.8 61.2z" transform="translate(0 -.03171)"/><path d="m2698.3999 217.7c.8001 2.9 7.8001 30.3 8.3001 32.3 31.8999-3.5 63-26.3 85.3999-56 19.3 15 35.3 39.8 51.6001 63.7l23.8999-29.1c-17.3999-23.3-37.2-47.9-58.30005-62.2 10.2-20.2 16.30005-41.6 16.30005-61.3v-32.8h-119.5999v32.8h86.8c-.1 25.4-27.1 91.7-94.4001 112.6z" transform="translate(0 -.03171)"/><path d="m3209 59.56829h15.1001v45.5h-15.1001z"/><path d="m3243.19995 59.56829h15.1001v45.5h-15.1001z"/><path d="m3823.8999 59.56829h15.1001v45.4h-15.1001z"/><g transform="translate(0 -.03171)"><path d="m3341.5 217.3h-37.8999l5.1001 32.8h32.8c69.6001 0 104-50.3 104-102.5v-32.4h-160v32.8h127.2c-.2002 35.6-23.7002 69.3-71.2002 69.3z"/><path d="m2943.7 105h61.69995v10.1h.1001c0 58.4-54.1001 97.2-111.5 102.5 1.6001 11.5 3.5 22.9 5.1001 32.4 80.8-12.3 139.19995-59.7 139.19995-134.9h-.1001v-18.3-24.6h-82.2c.8-2.5 1.5-4.9 2.2-7.3l-32.30005-8c-8.3999 30.2-22.1001 67.2-44.3 89.6l13.5 31.1c20.10005-18.7 36.50015-45.2 48.60005-72.6z"/><path d="m3767.3999 118.3c0 62.4-36.69995 99.6-99 99.6h-5.1001s4.5 29 5 32.2c90.80005 0 131.89991-51.3 131.89991-131.7v-.1-13.3-45.4h-15.1001v41.9h-11.8999v-29.2h-116.3v32.8h110.5v13.2z"/></g><path d="m60.7 144.668h.5l40 115.1h89.7v-199.4h-60.7v114.4h-.5l-40-114.4h-89.7v199.4h60.7z"/><path d="m399.1 144.668h.5l40 115.1h89.7v-199.4h-60.6v114.4h-.5l-40.1-114.4h-89.7v199.4h60.7z"/><path d="m981.9 144.668h.5l40 115.1h89.7v-199.4h-60.6v114.4h-.6l-40-114.4h-89.7v199.4h60.7z"/><path d="m227.5 60.3683h74.79999v199.30001h-74.79999z"/><path d="m598.6 259.768h74.8v-145.2h47.7v-54.2h-170.1v54.2h47.6z"/><path d="m1332.6 162.2c0-59-24.1-101.8-99.7-101.8h-88.6v199.3h93.1c58.1 0 95.2-37.3 95.2-97.5zm-115.1 52.4v-108.7h7.30005c12.1 0 20.1 3.7 24.80005 11.7 4.9 8.3 5.5 23.4 5.5 42.7 0 19.2-.5 34.3-5.5 42.6-4.7 8-12.80005 11.7-24.80005 11.7z" transform="translate(0 -.03171)"/><path d="m1449.9 265.1c65.2 0 97.6-42.7 97.6-104.9s-32.5-105-97.6-105c-65.19995 0-97.6 42.8-97.6 105 .00005 62.1 32.50005 104.9 97.6 104.9zm0-159.4c12 0 20.1 6.8 20.1 54.5 0 48.8-8.6 54.4-20.1 54.4s-20.19995-5.7-20.1-54.4c.00005-47.8 8.1-54.5 20.1-54.5z" transform="translate(0 -.03171)"/></g><path d="m1639.9 164.5c33.6 0 58.80005-25.4 58.80005-58.1 0-34.1-22.9-52.3-47.9-52.3-13 0-22.80005 3.2-30.6 10.1h-.80005c4.30005-15.2 17-28.6 48.6-30.1a98.06581 98.06581 0 0 1 13.2-.1l.1999-33.5a83.71769 83.71769 0 0 0 -14.1999-.3c-25.80005.6-46.9 8.2-63.30005 23.4-17.19995 16.1-27.69995 41.1-27.69995 70.7 0 36.3 19.3 70.2 63.7 70.2zm-20.5-67.7a18.57368 18.57368 0 0 1 17.4-11.7c13.69995 0 18.80005 12.3 18.9 23.6 0 13.3-6.2 23.8-16.5 23.8-14.1.1-20.2-13.3-21.1-26.1 0-4.8.3-7.6 1.3-9.6z" fill="#f01b25" transform="translate(0 -.03171)"/><path d="m1776.9 161.9h40v-35.8h16.9v-32.8h-16.9v-91h-53.1l-53.4 95.1v28.7h66.5zm-28-68.6.2-.5 13.1-26.5c5.6-11.1 9.9-21.3 14.9-32.1h.9c-.5 11.2-1.1 21.7-1.1 31.8v27.4z" fill="#f01b25" transform="translate(0 -.03171)"/><path d="m893.5 207.468h-76.7v-22.3h68.5v-51.2h-68.5v-20.9h74.4v-52.7h-148v199.4h150.3z" fill="#2c5aa0"/><g fill="#f01b25"><path d="m2044.40002 1696.66824h20.49988v61.80005h-20.49988z"/><path d="m2090.8999 1696.66824h20.5v61.80005h-20.5z"/><path d="m1857.9 1823.5h100.2v28.6c0 25.4 6.3 40.19995-76 66.3l11.5 36.80005c60.4-15.5 109-33.30005 109-103.1v-28.6h83.50012v-44.50005h-228.2v44.5z" transform="translate(0 -.03171)"/><path d="m2334.69995 1795.76834h160.30005v44.5h-160.30005z"/><path d="m1890.80005 1701.26834h126.30005v44.5h-126.30005z"/><path d="m1251.3 1758.268h155.4v54h-147.4v44.5h147.4v53.9h-155.5v44.5h200v-44.5-152.4h.1v-44.5h-200z"/><path d="m914.3 1713.80005h-200v44.5h.1v152.4 44.5h200v-44.4-167.30005h-.1zm-155.5 44.5h111v152.4h-111z" transform="translate(0 -.03171)"/><path d="m2119.30005 1831.1 7.5 44.3c22.3999-1.19995 47-8 70.30005-19.4v99.2h44.5v-127.9c25.19995-21.1 45.19995-48.19995 53.69995-79.3h-44.5c-19.40015 47.2-89.60005 83.1-131.5 83.1z" transform="translate(0 -.03171)"/><path d="m1515.30005 1911.6s6.1 39.4 6.80005 43.69995c154.3-7.6 188.3-51.6 201.3-174l-42-12.19995c-2.8 80.69995-26.6 119.1-74.19995 134.4-22.80015 7.30005-57.9001 9.30005-91.9001 8.1z" transform="translate(0 -.03171)"/><path d="m2740.3999 1696.66824h20.5v61.80005h-20.5z"/><path d="m2786.80005 1696.66824h20.5v61.80005h-20.5z"/><path d="m2553.80005 1823.6h100.19995v28.6c0 25.4 6.3 40.19995-76 66.30005l11.5 36.80005c60.3999-15.5 109-33.30005 109-103.1v-28.6h83.5v-44.5h-228.2z" transform="translate(0 -.03171)"/><path d="m3030.69995 1795.86832h160.30005v44.5h-160.30005z"/><path d="m2586.69995 1701.26834h126.30005v44.5h-126.30005z"/><path d="m2815.30005 1831.1s7.30005 43.3 7.5 44.3c22.3999-1.19995 46.8999-8 70.2-19.3v99.1h44.5v-127.8001c25.3-21.19995 45.3-48.3 53.8-79.4h-44.5c-19.40015 47.2001-89.60005 83.1001-131.5 83.1001z" transform="translate(0 -.03171)"/><path d="m1075.1 1703.7-43.9-10.9c-11.4 41.1-30.1 91.30005-60.2 121.7.9 2 18.4 42.3 18.4 42.3 27.4-25.3 49.7-61.19995 65.99994-98.5h83.80006v13.8c0 79.19995-73.5 131.9-151.4 139.1 0 0 6.3 40.80005 6.8 44.1 109.8-16.69995 189.1-81.1 189.1-183.19995v-13.80005-44.5h-111.6c1-3.4 2-6.8 3-10.1z" transform="translate(0 -.03171)"/><path d="m1627.30005 1735.6a417.4793 417.4793 0 0 0 -101.30005-34.30007c-2.9 14.6-5.80005 29.1-8.69995 43.7a370.9184 370.9184 0 0 1 88.9 29.9z" transform="translate(0 -.03171)"/></g><path d="m3283.5 382.8h-458.5v393.2c-59-230-239.7-393.2-534.1001-393.2h-458.40014v687.50006h-181.9v-687.60006h-401.59976l-349.6 623.3c-55.9-152.4-190.7-232.1-334.9-232.1-98.7 0-172 23.9-231.2 75.8h-5.7c32.8-114.9 129-216.3 367.6-227.7 41.1-1.9 70-2.6 100.1-.5v-253.5c-24.6-2.3-55.4-5-107.2-2.3-195.5 4.8-354.8 62.6-478.8 177.1-129.9 121.9-209.2 311.1-209.2 534.6 0 274.79993 146.2 531.20008 482 531.1 200.5 0 360.8-119.30005 419.9-290.6h446.4v270.4l302.20008-.1v-270.4h181.9v270.5h458.40027c294.3999 0 475.1001-163.19995 534.1001-393.19995v393.19995h458.3999c365.3999 0 555.5-251.4 555.5-569.8v-66c.09965-318.4-190.1003-569.7-555.40035-569.7zm-2806.2 982.9h-1.6c-105.6 0-151.9-101.30005-158.5-197.6 0-35.80005 2.8-57.1 9.9-72 18.4-48.6 68-88.4 131-88.4 104 0 143 92.69995 143.5 178.1 0 101.00005-46.6 179.9-124.3 179.9zm871.1-502.6v207.3h-210.9l1.30005-3.8 99-200.8c42.19995-83.9 74.69995-161.3 112.5-242.7h6.4c-4.00005 83.9-8.30005 163.6-8.30005 240zm942.49988 476h-143.60008v-707h143.6001c113.1001 0 210.5 114.9 210.5 353.5s-97.3999 353.5-210.5 353.5zm992.6001 0h-143.60008v-707h143.6001c113.1001 0 210.5 114.9 210.5 353.5s-97.3999 353.5-210.5 353.5z" fill="#3771c8" transform="translate(0 -.03171)"/><path d="m2362.80005 120.4v32.8h73.80005v21c0 18.7 4.69995 29.6-56 48.8l8.5 27.1c44.5-11.4 80.3-24.5 80.3-75.9v-21h61.5v-32.8z" fill="#2c5aa0" transform="translate(0 -.03171)"/></svg>