<svg height="165.918" viewBox="0 0 564.703 165.918" width="564.703" xmlns="http://www.w3.org/2000/svg"><g stroke-width=".882395"><path d="m111.08612 37.06877c5.6789-5.747486 8.63825-13.818713 9.04619-24.6747l.0147-.39407-.41804.07881c-19.94461 3.763582-30.244911 15.294149-30.615174 34.270515l-.0074.369494.395988-.05678c9.500976-1.372041 16.560786-4.51104 21.583686-9.593269z" fill="#008000"/><path d="m42.447755 134.67519.366588.48645c3.296538 4.38646 7.077266 8.65343 11.235608 12.68735 3.166992 3.07035 8.211944 4.76019 14.204146 4.76019 4.391709 0 8.945121-.95255 11.884259-2.48645 6.080403-3.16951 9.302521-3.17629 11.654566-3.17968.472246 0 .913255-.002 1.337725-.0246l.384045-.0229c.508998-.0297 1.034533-.0627 1.627138-.0627 2.085602 0 5.20022.37712 10.86259 3.32883 3.95162 1.52967 7.7838 2.3034 11.38996 2.3034h.002c9.81795 0 18.4268-5.66782 26.31717-17.31449l.32249-.47543h-101.588285z" fill="#00f"/><path d="m145.20272 62.002794c1.31292-1.206786 2.72782-2.396622 4.24746-3.56612l.2545-.195763-.20948-.238137c-7.40067-8.420382-17.53468-12.961082-29.30593-13.13227l-.53932-.0025c-5.96555 0-11.24112 1.031361-15.25521 2.982218-5.20574 2.528827-9.077426 3.089846-9.115095 3.094931-.06799.0085-.494297.02373-1.662969.02373-1.418578 0-2.643295-.02119-2.790298-.04068l-.09371-.01102c-1.6694-.199154-5.924213-.84492-9.373266-2.540691-4.687556-2.305134-9.909831-3.524632-15.101786-3.524632l-.341782.0017c-13.728225.141521-25.20455 6.311891-32.335105 17.149234z" fill="#008000"/><path d="m133.6924 80.004579c1.35059-6.025454 4.99717-11.875483 10.94344-17.473816l.56045-.527969h-111.617399l-.09831.150001c-3.420569 5.235619-5.68625 11.291582-6.762127 17.850937z" fill="#ff0"/><path d="m136.30721 97.78772c-2.69934-5.114433-4.02512-11.023785-2.68188-17.408562l.0772-.370341h-106.973051l-.04226.262713c-.904989 5.687317-.904989 11.574634-.067992 17.515342h109.687983z" fill="#f60"/><path d="m31.873659 116.44375h122.249371l.71572-1.42798-.294-.1339c-5.85072-2.67204-13.69423-8.52123-18.15945-16.921268l-.0928-.17373h-109.676948l.05053.350849c.74604 5.146639 2.271194 11.398359 5.207575 18.306029z" fill="#f00"/><path d="m42.449592 134.67519h101.575268c3.87811-5.79748 7.07543-12.18057 9.8841-17.78992l.2205-.44068h-122.236507l.184672.42543c2.671776 6.15596 6.141961 12.1043 10.371967 17.80517z" fill="#800080"/><path d="m369.54003 44.650164v66.196946h17.04773v-66.196946zm112.72083 0v8.892418h10.0164c1.2431 0 2.24823.955089 2.24823 2.132214v44.162934c0 1.17882-1.01432 2.13221-2.24823 2.13221h-10.0164v8.91022h26.97961v-66.229996zm35.38725 0v20.538239 45.691757h26.98145v-8.91022h-10.01641c-1.24401 0-2.24822-.95339-2.24822-2.13221v-44.162934c0-1.177125 1.00513-2.132214 2.24822-2.132214h10.01641v-8.892418zm-347.25922 15.907707c-8.12282 0-14.72876 2.463572-20.25239 7.525462-5.56222 5.098331-8.18806 10.736495-8.18806 17.309409 0 6.479694 2.77009 12.200061 8.65755 17.546698 5.87276 5.33816 12.39601 7.90682 19.98411 7.90682h10.9903v-11.644126h-4.53044c-4.34945 0-8.2487-1.311024-11.29258-3.866969-3.04295-2.55425-4.69765-5.982233-4.69765-9.766998 0-3.823748 1.6207-7.266139 4.6315-9.721236 2.99335-2.443232 6.83655-3.642391 11.15843-3.642391h11.89621c1.24217 0 2.24822.953395 2.24822 2.130519v36.511201h17.04773v-50.288389zm48.84444 0v66.198639h17.06427v-52.421451c0-1.177124 1.00697-2.130519 2.24822-2.130519h11.07391c4.65264 0 8.82752 1.488143 12.09741 4.374598 3.02275 2.6712 4.7142 6.040709 4.7142 9.689032 0 3.772053-1.81641 7.160206-5.08446 9.495811-3.22579 2.308486-7.23805 3.439-11.72807 3.439h-3.90935v11.644129h11.49378c8.00062 0 14.57808-2.37798 20.13571-7.22123 5.55303-4.842393 8.20459-10.485641 8.20459-17.437371 0-7.203426-2.65891-13.094981-8.18897-18.135685-5.53742-5.04833-11.97063-7.494105-19.73238-7.494105zm75.15427 0v66.198639h17.04773v-52.421451c0-1.177124 1.01156-2.130519 2.24822-2.130519h11.09045c4.65172 0 8.82476 1.488143 12.09649 4.374598 3.02458 2.6712 4.71511 6.040709 4.71511 9.689032 0 3.777138-1.83569 7.163596-5.10283 9.495811-3.22212 2.305096-7.21784 3.439-11.70877 3.439h-3.9112v11.644129h11.4947c7.99971 0 14.55971-2.37629 20.11734-7.22123 5.55395-4.842393 8.21194-10.485641 8.21194-17.437371 0-7.203426-2.66075-13.094981-8.18897-18.135685-5.53374-5.049178-11.95409-7.494105-19.71492-7.494105zm134.73358 0c-9.12336 0-16.87592 2.561878-23.60681 7.749192-6.74927 5.200026-9.85011 10.768698-9.85011 17.165341 0 7.72292 3.19639 13.691594 9.98149 18.550096 6.35971 4.53985 14.05623 6.82461 23.37437 6.82461h34.16161v-11.644129h-32.41687c-4.298 0-8.17428-1.340685-11.23929-3.914426-3.0843-2.590691-4.76656-6.091556-4.76656-9.986491 0-3.718663 1.62162-7.066985 4.58097-9.482251 2.986-2.434758 6.91924-3.610188 11.4258-3.610188h11.07666c.8618.000847 1.64551.468646 2.01761 1.202548.37486.73475.27563 1.606788-.25542 2.249164l-12.30046 14.679735h18.66017l13.22199-16.701779v-13.081422z" fill="#808080"/><path d="m369.3379 44.559486v66.581694h17.45015v-66.581694zm112.71991 0v9.27547h10.21945c.54391-.000847 1.06577.202544 1.44982.566105.38404.364408.59904.860174.5972 1.37543v44.163782c.002.511867-.21316 1.006787-.5972 1.373737-.38405.36441-.90591.5678-1.44982.5661h-10.21945v9.29242h27.38663v-66.613044zm35.38909 0v20.729765 45.884129h27.38387v-9.29072h-10.21762c-.54391.002-1.06577-.2017-1.44981-.56611-.38405-.3678-.59904-.86102-.59261-1.373735v-44.165476c-.008-.515257.2104-1.011022.59261-1.375431.38404-.364408.9059-.567799 1.44981-.566104h10.21762v-9.276318zm-347.05801 15.910249c-8.16876 0-14.82707 2.477131-20.38653 7.57292-5.5953 5.127144-8.25513 10.826325-8.25513 17.450088 0 6.536473 2.78846 12.311078 8.709 17.694157 5.904 5.36613 12.49616 7.95512 20.13479 7.95512h11.19151v-12.023785h-4.73074c-4.30718 0-8.15222-1.289837-11.15843-3.818663-3.00529-2.524589-4.63151-5.889013-4.63151-9.622083 0-3.777985 1.59407-7.139866 4.56444-9.564455 2.95292-2.411876 6.741-3.61273 11.02337-3.61273h11.89621c.54391-.000847 1.06577.202544 1.44889.566952.38405.364409.59996.860174.59812 1.372889v36.706115h17.45015v-50.676525zm48.64231 0v66.579995h17.46761v-52.613823c-.002-.512714.21315-1.008479.5972-1.372888.38404-.364409.9059-.567799 1.4489-.566952h11.0739c4.60854 0 8.72921 1.474584 11.96327 4.32714 2.99059 2.643234 4.64897 5.950878 4.64897 9.545811 0 3.718663-1.79252 7.035629-5.01647 9.339878-3.18813 2.277977-7.13975 3.407644-11.59485 3.407644h-4.11149v12.02464h11.695c8.04473 0 14.69201-2.39324 20.28638-7.27292 5.58979-4.86867 8.25421-10.575478 8.25421-17.575513 0-7.253427-2.67269-13.205999-8.23859-18.278906-5.57232-5.080534-12.07444-7.541563-19.88305-7.541563l-38.59099-.0025zm75.15335 0v66.579995h17.44923v-52.613823c-.00092-.512714.21224-1.008479.59628-1.372888.38589-.364409.90315-.567799 1.45166-.566952h11.08493c4.61313 0 8.72921 1.474584 11.96327 4.32714 2.98967 2.643234 4.64896 5.950878 4.64988 9.545811-.00092 3.725443-1.81273 7.037324-5.03393 9.339878-3.1872 2.277977-7.12412 3.407644-11.58014 3.407644h-4.11516v12.02464h11.69499c8.04657 0 14.67731-2.39154 20.27077-7.27292 5.59162-4.86867 8.25329-10.575478 8.25329-17.575513 0-7.253427-2.66902-13.205999-8.23859-18.278906-5.57049-5.082229-12.05791-7.541563-19.86651-7.541563l-38.57997-.0025zm134.93663 0c-9.16287 0-16.97607 2.565268-23.74279 7.779701-6.78142 5.22545-9.91626 10.867003-9.91626 17.323815 0 7.778006 3.2212 13.821256 10.04948 18.710259 6.3983 4.56528 14.14994 6.85767 23.50943 6.85767h34.35915v-12.02803h-32.61717c-4.25665 0-8.08056-1.322888-11.1079-3.865274-3.04388-2.560182-4.69766-6.001725-4.69766-9.850049 0-3.66951 1.59315-6.939018 4.51299-9.322081 2.94465-2.401707 6.8246-3.580526 11.29257-3.580526h11.07666c.78463-.0017 1.5077.426273 1.84672 1.09831.34087.672885.24256 1.471194-.25082 2.052553l-12.55312 14.987363h19.17927l13.32397-16.832288v-13.331423z" fill="#f2f2f2"/></g></svg>