<svg height="168.99438" viewBox="0 0 720.25829 304.18989" width="400.14349" xmlns="http://www.w3.org/2000/svg" xmlns:xlink="http://www.w3.org/1999/xlink"><filter id="a" color-interpolation-filters="sRGB" height="1.233586" width="1.086923" x="-.043461" y="-.116793"><feColorMatrix in="SourceGraphic" result="result2" type="luminanceToAlpha"/><feSpecularLighting result="result10" specularConstant="1" specularExponent="15" surfaceScale="-15"><feDistantLight azimuth="225" elevation="25"/></feSpecularLighting><feComposite in="result10" in2="SourceGraphic" k1="0" k2="1" k3="1" k4="0" operator="arithmetic" result="result9"/><feComposite in="result9" in2="SourceGraphic" operator="in" result="fbSourceGraphic"/><feColorMatrix in="fbSourceGraphic" result="fbSourceGraphicAlpha" values="0 0 0 -1 0 0 0 0 -1 0 0 0 0 -1 0 0 0 0 1 0"/><feTurbulence baseFrequency=".04 .107" numOctaves="3" type="fractalNoise"/><feColorMatrix result="result0" values="1 0 0 0 0 0 1 0 0 0 0 0 1 0 0 0 0 0 5 -2.7"/><feFlood flood-color="#fff" result="result11"/><feComposite in2="result0" operator="in" result="result12"/><feComposite in2="fbSourceGraphic" operator="atop" result="fbSourceGraphic"/><feColorMatrix in="fbSourceGraphic" result="fbSourceGraphicAlpha" values="0 0 0 -1 0 0 0 0 -1 0 0 0 0 -1 0 0 0 0 1 0"/><feGaussianBlur in="fbSourceGraphic" result="result0" stdDeviation="6"/><feDiffuseLighting diffuseConstant="1" result="result5" surfaceScale="4"><feDistantLight azimuth="235" elevation="45"/></feDiffuseLighting><feComposite in="result5" in2="fbSourceGraphic" k1="1.4" k2="0" k3="0" k4="0" operator="arithmetic" result="fbSourceGraphic"/><feGaussianBlur in="fbSourceGraphic" result="result0" stdDeviation="6"/><feSpecularLighting in="result0" result="result1" specularConstant="1" specularExponent="25" surfaceScale="4"><feDistantLight azimuth="235" elevation="45"/></feSpecularLighting><feComposite in="fbSourceGraphic" in2="result1" k1="0" k2="1" k3="1" k4="0" operator="arithmetic" result="result4"/><feComposite in="result4" in2="fbSourceGraphic" operator="in" result="result2"/></filter><g transform="translate(6.559807 3.028818)"><g stroke="#000"><g stroke-width="5.75264" transform="matrix(1 0 -.23813218 .97123275 0 0)"><path d="m490.16406 14.699533h105.43021v280.17148h-105.43021z" fill="#203971" opacity=".98"/><path d="m348.16406 14.699533h105.43021v280.17148h-105.43021z" fill="#286b48" opacity=".98"/><path d="m202.16406 14.699533h105.43021v280.17148h-105.43021z" fill="#cc241d" opacity=".98"/></g><path d="m67.724609 26.779297c-7.105621 0-13.037385 1.617601-17.554687 5.283203s-7.389778 9.165828-9.058594 16.208984a3.0074862 3.0074862 0 0 0 -.0039.01367l-24.794928 106.765626a3.0074862 3.0074862 0 0 0 2.929688 3.6875h35.527343a3.0074862 3.0074862 0 0 0 2.958985-2.4707l2.697265-14.86328h13.800781l2.371094 14.80078a3.0074862 3.0074862 0 0 0 2.96875 2.5332h35.343754a3.0074862 3.0074862 0 0 0 1.8457-.7168 3.0074862 3.0074862 0 0 0 1.78711 1.78711h32.54492a3.0074862 3.0074862 0 0 0 3.00781-3.00781v-30.32226l10.23633 31.25781a3.0074862 3.0074862 0 0 0 2.85742 2.07226h35.62696a3.0074862 3.0074862 0 0 0 2.79687-4.11132l-20.46094-51.90235-.35156.20508-.0215.0117c2.88873-1.64654 7.13253-5.057344 10.84179-10.484376 3.70927-5.427033 6.77735-12.888093 6.77735-22.199219 0-11.554927-3.63059-21.590656-10.76172-28.652344-7.13114-7.061688-17.59915-10.986328-30.61328-10.986328h-23.98047c-7.34479 0-13.08658 1.930369-16.69727 6.251953-3.61068 4.321584-4.81054 10.363789-4.81054 17.896485v88.740249l-21.187484-96.259761v.0059c-1.489845-6.82931-4.433496-12.334697-8.99414-16.050821-4.560645-3.716125-10.567349-5.494141-17.628907-5.494141zm251.025391 1.228515c-7.10562 0-13.03786 1.617522-17.55469 5.283204-4.51683 3.665681-7.38786 9.165963-9.05664 16.208984a3.0074862 3.0074862 0 0 0 -.004.01367l-19.22461 82.779298v-7.10742a3.0074862 3.0074862 0 0 0 -3.00782-3.00782h-8.39257c-7.51927 0-12.54496-2.15328-16.01563-6.42187s-5.4707-11.09685-5.4707-20.792969c0-9.305874 2.06267-16.142449 5.60547-20.53125 3.54279-4.388802 8.59115-6.683594 15.88086-6.683594h8.39257a3.0074862 3.0074862 0 0 0 3.00782-3.007813v-29.328123a3.0074862 3.0074862 0 0 0 -3.00782-3.007812h-15.07422c-17.61287 0-31.57932 5.946862-40.90039 17.777344-9.21833 11.700091-13.66406 26.765992-13.66406 44.78125 0 20.545179 4.35905 36.384669 13.58985 47.175779 9.23079 10.79111 23.17701 16.09766 40.9746 16.09766h12.95313a3.0074862 3.0074862 0 0 0 2.48828 1.73047h35.52735a3.0074862 3.0074862 0 0 0 2.95898-2.47071l2.69726-14.86328h13.80079l2.37109 14.80078a3.0074862 3.0074862 0 0 0 2.96875 2.53321h35.34375a3.0074862 3.0074862 0 0 0 2.9375-3.6543l-.60156-2.73242c.34653.47816.61222 1.023 1.00586 1.46289 3.95004 4.41414 9.98983 6.32617 17.50781 6.32617h21.65039c18.63937 0 31.28916-9.3251 38.70312-22.00391 2.79771-4.78442 4.72245-10.09095 6.26758-15.52734v34.81836a3.0074862 3.0074862 0 0 0 3.00782 3.00781h35.34375a3.0074862 3.0074862 0 0 0 2.49609-2.49609 3.0074862 3.0074862 0 0 0 2.63476 2.37305h35.5293a3.0074862 3.0074862 0 0 0 2.95899-2.47071l2.69531-14.86328h13.80088l2.37109 14.80078a3.0074862 3.0074862 0 0 0 2.96875 2.53321h35.34375a3.0074862 3.0074862 0 0 0 2.9375-3.6543l-23.5-106.765626v.0059c-1.48984-6.829268-4.43349-12.334657-8.99414-16.050781-4.56064-3.716125-10.56735-5.494141-17.6289-5.494141-7.10562 0-13.03786 1.617522-17.55469 5.283203-4.51683 3.665682-7.38785 9.165965-9.05664 16.208985a3.0074862 3.0074862 0 0 0 -.004.01367l-23.99014 103.29293v-119.269532a3.0074862 3.0074862 0 0 0 -3.00781-3.007812h-35.34375a3.0074862 3.0074862 0 0 0 -3.00782 3.007812v33.767578c-2.30385-7.597479-5.64282-14.207217-10.03906-19.65625-9.10326-11.283285-22.64182-17.414062-39.1875-17.414062h-17.39453c-7.92625 0-14.01032 2.195419-17.83789 6.710937s-5.1543 10.7752-5.1543 18.240235v76.472654l-18.41992-83.685545v.0059c-1.48988-6.829452-4.43498-12.334774-8.99609-16.050822-4.56112-3.716048-10.56735-5.49414-17.62891-5.494141zm-164.6543 37.384766c2.57209.346429 4.65486.963258 5.8418 1.966797 1.63914 1.38587 2.53125 3.370501 2.53125 6.884766 0 5.514033-2.85331 9.397021-5.71875 11.683593a3.0074862 3.0074862 0 0 0 -.0586.04687c-.90177.757465-1.76797 1.728823-2.59571 2.791016zm251.0586 3.763672c3.4783.622426 5.49822 2.094308 7.12304 5.183594 2.06711 3.930191 3.14649 11.083068 3.14649 22.064453 0 10.964753-1.15791 18.198173-3.28711 22.250003-1.65648 3.15226-3.66809 4.69098-6.98242 5.3457zm-337.728519 32.17969 1.199219 7.3164h-2.496094zm251.027339 1.22851 1.19922 7.31641h-2.49609zm226.6211 1.57032 1.20117 7.32031h-2.49805zm-187.03906 76.85351c-14.03175 0-25.63234 6.84193-33.25 18.84375-7.61767 12.00183-11.54493 28.99677-11.54493 50.01172 0 20.73453 3.88292 37.46029 11.49024 49.25781 7.60732 11.79753 19.21383 18.47266 33.30469 18.47266 13.90078 0 25.15875-6.53765 33.03515-18.62695 7.90868-12.13883 11.58594-28.66664 11.58594-49.10352 0-21.46317-3.78311-38.45627-11.32617-50.36133-7.54306-11.90505-19.13754-18.49414-33.29492-18.49414zm-92.90235.23828c-14.03174 0-25.63233 6.84193-33.25 18.84375-7.61766 12.00183-11.54492 28.99677-11.54492 50.01172 0 20.73453 3.88289 37.4588 11.49023 49.25586 7.60735 11.79706 19.2139 18.47266 33.30469 18.47266 13.90049 0 25.15867-6.53558 33.03516-18.625 7.90869-12.13884 11.58594-28.66664 11.58594-49.10352 0-21.46316-3.78311-38.45627-11.32618-50.36133-7.54306-11.90505-19.13754-18.49414-33.29492-18.49414zm145.99219.53516a3.0074862 3.0074862 0 0 0 -3.00781 3.00781v31.0332a3.0074862 3.0074862 0 0 0 3.00781 3.00782h9.55859v93.52539a3.0074862 3.0074862 0 0 0 3.00782 3.00781h36.36523a3.0074862 3.0074862 0 0 0 3.00781-3.00781v-106.05274c0-8.04187-1.7189-14.30844-5.78711-18.55078-4.0682-4.24233-10.0887-5.9707-17.40234-5.9707zm-236.75977 1.04883c-13.08645 0-23.96269 4.05644-31.68359 12.41015-7.63828 8.26432-11.54882 19.08552-11.54883 32.05664a3.0074862 3.0074862 0 0 0 3.00781 3.00782h30.51563a3.0074862 3.0074862 0 0 0 3.00781-3.00782c0-3.89157.70359-6.52535 1.60352-7.88867.89993-1.36331 1.77994-1.86133 3.88476-1.86133 1.57505 0 2.57667.56305 3.40821 1.56446s1.38672 2.53115 1.38672 4.24609c0 2.91809-1.18432 5.98252-4.03125 9.57617l-38.44141 47.21289c-3.71459 4.44211-5.73047 9.87314-5.73047 15.625 0 7.08699 2.66289 12.68734 6.98047 16.21094s10.00794 4.99219 15.96875 4.99219h58.77734a3.0074862 3.0074862 0 0 0 3.00782-3.00781v-31.51563a3.0074862 3.0074862 0 0 0 -3.00782-3.00781h-27.16992l21.1875-26.2461a3.0074862 3.0074862 0 0 0 .002-.002c7.46305-9.25639 11.24219-19.40874 11.24219-30.40039 0-11.72787-3.98246-21.68791-11.6875-29.00781-7.71983-7.33395-18.15028-10.95703-30.67969-10.95703zm183.4961 34.95898c.4773 0 .65316.005 1.30273.87695.64958.87178 1.44734 2.65934 2.07617 5.3379 1.25767 5.35711 1.93555 14.14557 1.93555 26.42187 0 10.753-.71788 18.76288-1.98633 23.73828-.63422 2.4877-1.42771 4.18929-2.07617 5.03711-.64846.84783-.84774.85938-1.25195.85938-.3117 0-.47433.027-1.11524-.84766-.6409-.87471-1.42715-2.63292-2.05468-5.1875-1.25507-5.10916-1.97071-13.31198-1.97071-24.34961 0-11.51166.71442-20.09934 1.97852-25.48437.63205-2.69252 1.42731-4.56319 2.08594-5.50586.65862-.94268.81706-.89649 1.07617-.89649zm-92.90235.23828c.47731 0 .65316.005 1.30274.87696.64958.87177 1.44734 2.65933 2.07617 5.33789 1.25767 5.35712 1.93555 14.14558 1.93555 26.42187 0 10.753-.71788 18.76288-1.98633 23.73828-.63423 2.4877-1.42771 4.18929-2.07617 5.03711-.64847.84783-.84775.85938-1.25196.85938-.3117 0-.47415.0271-1.11523-.84766-.64108-.87479-1.42694-2.63295-2.05469-5.1875-1.2555-5.1091-1.97265-13.31207-1.97265-24.34961 0-11.51157.71397-20.09744 1.97851-25.48242.63227-2.69249 1.4291-4.56507 2.08789-5.50781.6588-.94275.81706-.89649 1.07617-.89649z" transform="scale(1.1558315 .86517799)"/></g><g fill="#fff" filter="url(#a)"><path d="m91.249163 49.050467c-2.770815-12.745749-10.529097-19.210984-23.644287-19.210984-13.299912 0-20.504031 5.911072-23.644288 19.210984l-24.752613 106.953453h35.466431l3.140257-17.36377h18.841541l2.770815 17.36377h35.281711zm-23.829008 34.542825 4.618024 28.262308h-9.605491z" transform="scale(1.1578624 .86366051)"/><path d="m155.84627 152.01407v-91.874645c9.89419 0 14.84129 3.887004 14.84129 11.837695 0 6.360552-3.53364 10.954284-7.06728 13.604514-3.35696 2.65023-6.8906 8.304054-6.8906 16.254746 0 3.35696.70673 7.06728 2.12019 11.13097l13.60451 39.04672h36.74986l-22.08525-52.651239 1.9435-1.060092c4.94709-2.650231 16.60811-12.367741 16.60811-29.152532 0-21.20184-13.95788-35.513083-39.57677-35.513083h-24.73548c-14.13456 0-19.08166 6.537234-19.08166 20.495113v97.881833z" stroke-width=".999997" transform="scale(1.1205442 .89242354)"/><path d="m260.37904 34.65756c-17.32688 0-30.4533 5.425589-39.37927 16.276767s-13.30144 24.852697-13.30144 42.004559c0 39.379274 17.5019 58.981404 52.68071 58.981404h15.40168v-29.40319h-8.57594c-16.6268 0-25.02771-9.80107-25.02771-29.578214 0-19.077071 8.75095-29.57821 25.02771-29.57821h8.57594v-28.703116z" stroke-width=".999996" transform="scale(1.1311935 .88402207)"/><path d="m341.83616 50.281408c-2.77082-12.745748-10.5291-19.210983-23.64429-19.210983-13.29991 0-20.50403 5.911072-23.64429 19.210983l-24.75261 106.953452h35.46643l3.14026-17.36377h18.84154l2.77082 17.36377h35.2817zm-23.82901 34.542826 4.61803 28.262316h-9.6055z" transform="scale(1.1578624 .86366049)"/><path d="m386.1095 34.876949c-14.77768 0-19.94987 7.758282-19.94987 21.981798v79.614753c0 15.33184 5.91107 22.16651 19.94987 22.16651h21.61235c35.28171 0 45.62609-34.17338 45.62609-61.881528 0-38.97613-18.28738-61.881533-49.87467-61.881533zm15.33184 31.033127c12.37631.554163 16.25545 8.312445 16.25545 30.663685 0 22.351239-4.24859 30.478959-16.25545 31.033129z" transform="scale(1.1578624 .86366049)"/><path d="m490.89651 158.93571v-123.763061h-35.28171v123.763061z" transform="scale(1.1578624 .86366049)"/><path d="m568.06016 51.858465c-2.77082-12.745748-10.5291-19.210983-23.64429-19.210983-13.29991 0-20.50403 5.911072-23.64429 19.210983l-24.75261 106.953455h35.46643l3.14026-17.36377h18.84154l2.77081 17.36377h35.28171zm-23.82901 34.542826 4.61802 28.262309h-9.60549z" transform="scale(1.1578624 .86366049)"/><path d="m171.27107 218.49939c0-8.11593 2.88567-12.26408 8.83735-12.26408 5.04991 0 8.11593 3.96779 8.11593 8.47664 0 3.60708-1.62319 7.21416-4.86956 11.0016l-40.03859 45.44921c-3.42672 3.78743-5.23026 8.29628-5.23026 13.16584 0 12.26407 9.37841 17.49434 20.74071 17.49434h61.14001v-30.29948h-34.80833l26.15133-29.93876c7.39452-8.47664 11.0016-17.49434 11.0016-27.41381 0-10.64089-3.78744-19.29788-11.18195-25.79062-7.39452-6.49275-17.31399-9.73912-29.75841-9.73912-12.98549 0-23.26567 3.60708-30.66018 11.0016-7.39452 7.39451-11.18195 16.95327-11.18195 28.85664z" transform="scale(1.1111913 .89993506)"/><path d="m275.78326 302.64526c13.52655 0 23.98708-5.59097 31.7423-16.59257 7.75523-11.00159 11.54266-26.33168 11.54266-45.62956 0-40.57965-15.6908-63.30426-43.28496-63.30426-27.23346 0-43.46532 23.62638-43.46532 63.30426 0 39.13682 16.05151 62.22213 43.46532 62.22213zm-.18035-30.29947c-5.59098 0-8.47664-10.64089-8.47664-32.10301 0-22.3639 2.88566-33.54585 8.47664-33.54585 5.95168 0 8.65699 10.46053 8.65699 34.26726 0 20.92107-2.88567 31.3816-8.65699 31.3816z" transform="scale(1.1111913 .89993506)"/><path d="m372.41812 302.41647c13.52655 0 23.98708-5.59097 31.7423-16.59257 7.75522-11.00159 11.54266-26.33168 11.54266-45.62956 0-40.57965-15.6908-63.30426-43.28496-63.30426-27.23346 0-43.46532 23.62638-43.46532 63.30426 0 39.13682 16.05151 62.22213 43.46532 62.22213zm-.18036-30.29947c-5.59097 0-8.47664-10.64089-8.47664-32.10301 0-22.3639 2.88567-33.54585 8.47664-33.54585 5.95168 0 8.65699 10.46053 8.65699 34.26726 0 20.92107-2.88566 31.3816-8.65699 31.3816z" transform="scale(1.1111913 .89993506)"/><path d="m460.05735 312.33499v-106.05113c0-15.23176-6.47349-21.51486-20.18208-21.51486h-28.74995v31.03471h12.56621v96.53128z" transform="scale(1.1558315 .86517799)"/></g></g></svg>