<svg height="169.334" viewBox="0 0 401.01376 84.667" width="802.02753" xmlns="http://www.w3.org/2000/svg"><text fill="#fff" fill-opacity=".5" font-family="TrasksHand" font-size="1" x="244.59882" y="51.862553"><tspan font-size="1" x="0" y="0">John Loreth 2022</tspan></text><g transform="translate(.990857)"><path d="m795.35938 103.73047h-63.83399c-.0257.17775-.0575.34803-.082.52734 0 16.68393 13.43129 30.11524 30.11523 30.11524h3.70508c16.68394 0 30.11524-13.43131 30.11524-30.11524-.003-.17756-.0146-.35089-.0195-.52734z" fill="#db0404" opacity=".98" transform="matrix(.5 0 0 .5 -.990857 0)"/><path d="m364.71022 50.914534c1.6631-39.163424 31.1738-37.397468 32.00278.085466" fill="#fca404" opacity=".98"/><path d="m399.93918 76.31069c.13712.196291.1473.486607-.29243.702835-.84879.417374-2.44044 1.102303-3.52651 1.370139-.3979.09813-.79946.0472-1.0151-.04371-9.90862-6.962779-19.38289-9.816102-30.43814-11.749134v-1.666c3.80789.355847 8.65998 1.454987 13.96119 2.873825.65772.145354.68863-.632858.49515-.62691l3.29366-.08874v1.62782c7.58242 1.691228 14.44776 4.854981 17.52218 7.59987z" fill="#db0404" opacity=".98"/></g><g fill="#fff" transform="matrix(.95143803 0 0 1.0510406 .990857 0)"><path d="m96.635309 37.505556h-6.393659l-4.87136 34.175634h6.469775l2.74014-19.257094c.913379-2.055105 1.902874-3.34906 2.283449-3.881865 3.120715-4.338555 5.175816-4.87136 7.002576-4.87136s3.0446.685035 3.88187 1.141725v-7.30704c-.68504-.228345-1.5223-.532805-2.81626-.532805-4.33855 0-7.230921 3.881865-9.286026 7.839845z"/><path d="m135.75844 37.048866c-1.44618-.30446-2.81625-.60892-5.48028-.60892-16.44084 0-22.53004 11.87394-22.53004 20.627165 0 6.69812 3.57741 15.679689 15.07077 15.679689 4.79525 0 7.83985-1.522299 9.51438-2.435679l.98949-6.85035c-1.82676 1.37007-4.79524 3.50129-9.51437 3.50129-8.37265 0-9.36215-7.535385-9.36215-9.971065 0-6.317545 4.64302-14.76631 15.52746-14.76631 1.75065 0 3.12072.228345 4.94748.532805z"/><path d="m151.59041 19.770762h-6.46977l-7.45927 51.910428h6.46977l3.27295-22.225579c1.82676-2.359565 3.80575-4.26244 4.11021-4.5669 1.14172-1.141725 3.5774-3.425175 6.24143-3.425175 1.06561 0 2.35956.60892 3.12071 1.67453s.83727 2.055105.83727 3.19683c0 1.446185-.0761 1.902875-.30446 3.120715l-3.12072 22.225579h6.54589l3.0446-21.692774c.30446-1.750645.38058-2.207335.38058-4.338555 0-6.69812-4.26244-9.209915-7.76373-9.209915-5.02359 0-9.05769 3.19683-12.25452 6.69812z"/><path d="m184.85265 37.505556h-6.46977l-4.87136 34.175634h6.46978z"/><path d="m199.08614 37.505556h-6.39366l-4.87136 34.175634h6.39366l3.12072-21.692774c.98949-1.293955 6.0892-7.91596 10.27552-7.91596 1.29396 0 3.95798.685035 3.95798 4.795245 0 .989495-.15223 3.272945-.5328 6.165315l-2.66403 18.648174h6.46978l3.19683-21.692774c2.35956-3.19683 6.85035-7.992075 10.65609-7.992075 1.21784 0 3.65352.685035 3.65352 5.099705 0 .837265-.15223 2.055105-.22834 2.89237l-3.12072 21.692774h6.46978l2.89237-20.246589c.22834-1.67453.45669-3.34906.45669-5.099705 0-7.76373-5.02359-9.362145-8.06819-9.362145-5.86085 0-10.57998 4.87136-12.7112 7.6115-.83727-5.860855-4.64302-7.6115-7.83985-7.6115-3.95798 0-7.83984 2.055105-11.95005 6.622005z"/><path d="m271.31924 62.166816c-3.12072 2.359565-7.53539 5.251935-11.79783 5.251935-4.18632 0-8.37265-3.729635-8.37265-10.123295 0-1.141725.0761-2.13122.15223-3.34906h21.38832c.15223-.76115.30446-1.750645.30446-3.34906 0-8.52488-5.25194-14.15739-12.40675-14.15739-9.43826 0-15.98415 9.209915-15.98415 20.09436 0 9.28603 5.48028 16.212494 14.38574 16.212494 3.19683 0 7.30704-.91338 11.34113-3.805749zm-18.95264-12.711205c.76115-2.207335 2.66403-7.76373 8.22042-7.76373 3.50129 0 6.16532 2.74014 6.0892 7.76373z"/><path d="m311.58405 19.770762h-6.54589l-2.35956 16.745299c-3.72964-.07612-6.92647-.15223-11.26502 1.37007-8.75323 3.120715-14.00516 11.645595-14.00516 19.48544 0 4.643015 1.90287 8.600995 4.5669 11.11279 2.51179 2.359565 6.0892 4.262439 13.39624 4.262439 4.79524 0 7.53538-.76115 8.75322-1.06561zm-13.32012 47.495759c-.76115.15223-1.44619.228345-2.89237.228345-8.22042 0-11.18891-5.099705-11.18891-10.427755 0-5.404165 2.89237-11.72171 9.81884-14.15739 3.0446-1.141725 6.16531-1.06561 7.91596-1.06561z"/><path d="m340.5078 62.166816c-3.12071 2.359565-7.53538 5.251935-11.79782 5.251935-4.18632 0-8.37265-3.729635-8.37265-10.123295 0-1.141725.0761-2.13122.15223-3.34906h21.38831c.15223-.76115.30446-1.750645.30446-3.34906 0-8.52488-5.25193-14.15739-12.40674-14.15739-9.43826 0-15.98415 9.209915-15.98415 20.09436 0 9.28603 5.48028 16.212494 14.38574 16.212494 3.19683 0 7.30704-.91338 11.34113-3.805749zm-18.95263-12.711205c.76115-2.207335 2.66403-7.76373 8.22042-7.76373 3.50129 0 6.16532 2.74014 6.0892 7.76373z"/><path d="m368.82256 40.245696c-1.90287-1.21784-5.63251-3.577405-10.50387-3.577405-7.07869 0-10.57998 4.5669-10.57998 9.514375 0 4.186325 2.66402 7.078695 5.70862 9.209915 5.78474 4.186325 7.68762 5.48028 7.68762 7.992075 0 2.207335-1.90288 3.729635-4.26244 3.729635-3.27295 0-6.62201-1.97899-10.73222-5.099705l-1.06561 6.24143c4.64302 3.272944 7.6115 4.490784 11.72171 4.490784 7.0787 0 10.73222-5.023589 10.73222-9.971064 0-5.32805-3.27295-7.687615-8.37265-11.26502-2.5118-1.750645-5.25194-3.65352-5.25194-5.63251 0-1.902875 1.82676-3.34906 4.49079-3.34906 3.88186 0 7.30704 2.13122 10.42775 4.490785z"/></g><path d="m67.490857 84.667c-21.379764-9.402283-40.98467-7.986339-59.511624 0l30.953444-39.599991c12.095495-7.769064 27.280177-.474286 28.547877 2.436635l.0103 37.163356" fill="#fca404" opacity=".98"/><path d="m67.073857 39.703568v-29.290504c.0432-.303932-.242808-.42509-.570842-.006-11.957718 15.27697-15.608749 18.919865-20.26579 25.903727-.260059.481763-.01219.73457.707616.707159 1.76671-.143235 3.502467-.06959 5.176208-.0783 7.360865-.03828 11.528289 1.953923 13.890159 3.11517.894819.37957 1.073166-.0088 1.062649-.351255z" fill="#db0404" opacity=".98"/><path d="m131.38867 0-131.38867 169.29492 15.988281.004 61.876953-79.166018c7.559684-4.855664 15.724701-6.767441 23.453126-6.925781 17.00253-.34836 31.90144 7.798265 33.64453 11.800781l.0195 74.322268 12.66602.004v-169.33417zm3.59375 169.33008-118.994139-.0312-.0293.0371h119.023439zm-1.12695-149.052736c.21421.03179.33617.244896.29297.548828v58.580078c.021.68491-.33732 1.462265-2.12696.703125-4.72374-2.322494-13.05756-6.307029-27.77929-6.230469-3.34748.01742-6.818145-.13022-10.351565.15625-1.439612.05482-1.936134-.450536-1.416016-1.414062 9.314081-13.967724 16.615811-21.252701 40.531251-51.806641.32803-.41909.6354-.568899.84961-.537109z" fill="#fffbff" opacity=".98" transform="scale(.5)"/></svg>