<svg enable-background="new 0 0 566.929 129.21" height="129.21" viewBox="0 0 566.929 129.21" width="566.929" xmlns="http://www.w3.org/2000/svg"><g fill="#f4b20c" transform="translate(-.794018 -11.086346)"><path d="m2.794 113.106 52.668-91.516c6.676 11.93 14.773 27.044 24.295 45.341l23.829 45.896zm55.17-35.605c.186 1.484-.062 2.813-.742 3.986-.804 1.362-1.947 2.04-3.431 2.04-1.854 0-3.277-.987-4.265-2.967-.185-1.174-.092-2.317.278-3.431.494-1.359 1.328-2.193 2.503-2.504.371-.061.742-.093 1.113-.093 1.916.002 3.431.992 4.544 2.969z"/><path d="m192.707 111.79c-14.467.252-28.935.473-43.403.663-17.313.25-31.935.313-43.867.189v-91.887c3.461.434 14.372.371 32.731-.185 14.464-.371 25.374.866 32.73 3.709 10.508 4.019 17.214 11.869 20.121 23.552.06.804.093 1.639.093 2.505 0 8.593-4.142 16.104-12.426 22.533-2.227 1.731-5.101 3.153-8.625 4.265-3.091.867-6.184 1.701-9.273 2.504zm-38.406-62.847c.123.433.186.897.186 1.391 0 1.36-.434 2.488-1.298 3.384-.866.896-1.947 1.344-3.245 1.344-1.855 0-3.308-.987-4.358-2.966-.433-2.782.371-4.759 2.411-5.934.557-.247 1.113-.371 1.669-.371 2.347 0 3.893 1.051 4.635 3.152zm21.124 56.298c-4.508.061-11.148-.126-19.919-.561v-.842c1.73-.249 4.326-.344 7.789-.279 3.461.061 6.057-.064 7.788-.373l-15.577-15.949 1.945.003zm7.619-52.681c-.185 3.029-1.298 5.98-3.337 8.854-2.041 2.875-4.513 4.96-7.418 6.259l-8.344 3.709v-2.041c11.126-3.584 17.091-9.18 17.895-16.782h1.204z"/><path d="m280.586 82.507c-3.029 8.655-8.576 15.732-16.643 21.234-8.066 5.5-16.675 8.22-25.823 8.158-8.284 0-16.01-2.21-23.181-6.629-7.171-4.42-12.765-10.4-16.783-17.941-3.152-5.935-4.729-12.825-4.729-20.677 0-7.356 1.421-13.783 4.266-19.286 4.017-7.913 9.689-14.141 17.014-18.684 7.326-4.544 15.314-6.815 23.969-6.815 2.472 0 4.945.186 7.418.556 6.675 1.052 12.918 3.679 18.729 7.88 6.058 4.39 10.538 9.676 13.444 15.856-7.85 4.761-19.626 11.868-35.326 21.326 13.6 5.999 26.149 11.006 37.645 15.022zm-13.536 4.823c0 1.608-1.02 3.37-3.06 5.285-1.608 1.483-3.462 2.75-5.563 3.802l-.835-.649c1.298-1.051 2.596-2.133 3.895-3.245 1.607-1.359 2.688-2.72 3.245-4.08-2.906-1.421-6.894-3.09-11.961-5.007-6.119-2.348-10.168-3.955-12.146-4.82v-1.486z"/><path d="m267.049 113.106 52.667-91.516c6.676 11.93 14.773 27.044 24.295 45.341l23.829 45.896zm55.17-35.605c.185 1.484-.063 2.813-.742 3.986-.805 1.362-1.947 2.04-3.432 2.04-1.854 0-3.276-.987-4.266-2.967-.186-1.174-.093-2.317.278-3.431.494-1.359 1.329-2.193 2.504-2.504.371-.061.742-.093 1.112-.093 1.917.002 3.433.992 4.546 2.969zm33.195 28.188-19.01.371v-1.206l15.857-.463c-.682-2.226-2.195-5.472-4.545-9.736-2.473-4.512-4.079-7.882-4.821-10.106l1.112-.649z"/><path d="m462.414 89.046c-4.636 9.501-11.623 16.133-20.955 19.896-7.109 2.837-16.69 4.256-28.745 4.256-3.276 0-8.283-.125-15.02-.371-6.738-.247-11.746-.371-15.022-.371-5.067 0-9.518.247-13.351.742l.278-92.443c3.709.371 7.941.557 12.701.557 3.276 0 8.314-.093 15.115-.278 6.799-.186 11.869-.278 15.205-.278 10.323 0 18.762 1.111 25.313 3.331 8.406 2.838 15.083 7.834 20.028 14.992 6.306 7.094 9.457 16.317 9.457 27.667.001 8.082-1.667 15.516-5.004 22.3zm-37.646-11.916c.124.434.186.896.186 1.392 0 1.112-.356 2.117-1.066 3.013-.711.896-1.622 1.407-2.735 1.529-2.597-.492-4.204-1.451-4.821-2.873-.063-.433-.093-.834-.093-1.205 0-2.164.988-3.74 2.967-4.73.371-.061.742-.092 1.113-.092 1.853 0 3.337.989 4.449 2.966zm35.699-9.087c-.928 7.543-3.093 14.157-6.491 19.842-3.957 6.677-9.212 11.282-15.764 13.816-3.648 1.421-6.338 2.379-8.065 2.874-3.029.866-5.874 1.328-8.531 1.392l-.464-1.113c14.525-2.535 24.603-7.82 30.228-15.855 3.832-5.501 6.306-12.485 7.418-20.955h1.669z"/><path d="m561.625 63.129h-50.44c-.557 1.498-.835 3.246-.835 5.241 0 1.997.278 3.68.835 5.053h17.895v11.589l-17.895.835v9.087l50.162.371v17.802h-89.662v-92.352h89.662zm-44.785-33.566-36.439.278-.278 30.228h-1.297v-32.174c8.529-.122 21.2.033 38.015.464v1.204z"/></g><g transform="translate(-.794018 -11.086346)"><path d="m2.794 113.106 52.668-91.516c6.676 11.93 14.773 27.044 24.295 45.341l23.829 45.896zm96.018-2.968-43.354-82.589-47.852 82.775zm-40.848-32.637c.186 1.484-.062 2.813-.742 3.986-.804 1.362-1.947 2.04-3.431 2.04-1.854 0-3.277-.987-4.265-2.967-.185-1.174-.092-2.317.278-3.431.494-1.359 1.328-2.193 2.503-2.504.371-.061.742-.093 1.113-.093 1.916.002 3.431.992 4.544 2.969zm33.195 28.188-19.009.371v-1.206l15.855-.463c-.681-2.226-2.195-5.472-4.543-9.736-2.473-4.512-4.08-7.882-4.822-10.106l1.113-.649z"/><path d="m192.707 111.79c-14.467.252-28.935.473-43.403.663-17.313.25-31.935.313-43.867.189v-91.887c3.461.434 14.372.371 32.731-.185 14.464-.371 25.374.866 32.73 3.709 10.508 4.019 17.214 11.869 20.121 23.552.06.804.093 1.639.093 2.505 0 8.593-4.142 16.104-12.426 22.533-2.227 1.731-5.101 3.153-8.625 4.265-3.091.867-6.184 1.701-9.273 2.504zm-4.562-63.988c-2.536-9.446-7.728-16.053-15.578-19.819-6.059-2.839-14.557-4.26-25.499-4.26-3.029 0-7.603.138-13.723.417s-10.632.418-13.538.418c-4.45 0-8.314-.216-11.59-.649v85.581h77.979l-29.326-29.55c-.354-.432-.529-.957-.529-1.575-.062-.803.217-1.327.835-1.573 6.551 0 12.888-2.007 19.008-6.022 8.529-5.493 12.517-13.151 11.961-22.968zm-33.844 1.141c.123.433.186.897.186 1.391 0 1.36-.434 2.488-1.298 3.384-.866.896-1.947 1.344-3.245 1.344-1.855 0-3.308-.987-4.358-2.966-.433-2.782.371-4.759 2.411-5.934.557-.247 1.113-.371 1.669-.371 2.347 0 3.893 1.051 4.635 3.152zm21.124 56.298c-4.508.061-11.148-.126-19.919-.561v-.842c1.73-.249 4.326-.344 7.789-.279 3.461.061 6.057-.064 7.788-.373l-15.577-15.949 1.945.003zm7.619-52.681c-.185 3.029-1.298 5.98-3.337 8.854-2.041 2.875-4.513 4.96-7.418 6.259l-8.344 3.709v-2.041c11.126-3.584 17.091-9.18 17.895-16.782h1.204z"/><path d="m280.586 82.507c-3.029 8.655-8.576 15.732-16.643 21.234-8.066 5.5-16.675 8.22-25.823 8.158-8.284 0-16.01-2.21-23.181-6.629-7.171-4.42-12.765-10.4-16.783-17.941-3.152-5.935-4.729-12.825-4.729-20.677 0-7.356 1.421-13.783 4.266-19.286 4.017-7.913 9.689-14.141 17.014-18.684 7.326-4.544 15.314-6.815 23.969-6.815 2.472 0 4.945.186 7.418.556 6.675 1.052 12.918 3.679 18.729 7.88 6.058 4.39 10.538 9.676 13.444 15.856-7.85 4.761-19.626 11.868-35.326 21.326 13.6 5.999 26.149 11.006 37.645 15.022zm-4.855 1.756c-14.334-5.404-27.371-10.81-39.108-16.213 4.824-2.779 11.164-6.61 19.021-11.493 9.401-5.931 15.618-9.824 18.649-11.679-2.906-5.319-7.11-9.742-12.612-13.269-5.008-3.217-10.604-5.413-16.785-6.59-1.669-.122-3.308-.185-4.915-.185-8.161 0-15.58 1.793-22.256 5.377-7.048 3.834-12.521 9.273-16.415 16.32-3.337 5.997-5.006 12.765-5.006 20.306 0 10.262 2.873 18.792 8.618 25.591 4.388 5.193 9.5 9.256 15.339 12.193 5.838 2.936 11.94 4.404 18.306 4.404 4.448 0 8.804-.74 13.067-2.219 5.623-1.908 10.628-4.773 15.015-8.593 5.004-4.309 8.029-8.961 9.082-13.95zm-8.681 3.067c0 1.608-1.02 3.37-3.06 5.285-1.608 1.483-3.462 2.75-5.563 3.802l-.835-.649c1.298-1.051 2.596-2.133 3.895-3.245 1.607-1.359 2.688-2.72 3.245-4.08-2.906-1.421-6.894-3.09-11.961-5.007-6.119-2.348-10.168-3.955-12.146-4.82v-1.486z"/><path d="m267.049 113.106 52.667-91.516c6.676 11.93 14.773 27.044 24.295 45.341l23.829 45.896zm96.018-2.968-43.355-82.589-47.852 82.775zm-40.848-32.637c.185 1.484-.063 2.813-.742 3.986-.805 1.362-1.947 2.04-3.432 2.04-1.854 0-3.276-.987-4.266-2.967-.186-1.174-.093-2.317.278-3.431.494-1.359 1.329-2.193 2.504-2.504.371-.061.742-.093 1.112-.093 1.917.002 3.433.992 4.546 2.969zm33.195 28.188-19.01.371v-1.206l15.857-.463c-.682-2.226-2.195-5.472-4.545-9.736-2.473-4.512-4.079-7.882-4.821-10.106l1.112-.649z"/><path d="m462.414 89.046c-4.636 9.501-11.623 16.133-20.955 19.896-7.109 2.837-16.69 4.256-28.745 4.256-3.276 0-8.283-.125-15.02-.371-6.738-.247-11.746-.371-15.022-.371-5.067 0-9.518.247-13.351.742l.278-92.443c5.184.078 8.987.264 13.748.264 3.275 0 7.342-.016 14.429 0 6.801.014 11.509-.264 14.845-.264 10.323 0 18.762 1.111 25.313 3.331 8.406 2.838 15.083 7.834 20.028 14.992 6.306 7.094 9.457 16.317 9.457 27.667 0 8.083-1.668 15.517-5.005 22.301zm.835-34.141c-2.165-7.463-6.538-14.048-13.12-19.753-6.584-5.705-13.709-9.238-21.373-10.595l-17.76-.747-38.894.098v86.415c3.214-.37 6.862-.556 10.94-.556 3.462 0 8.747.186 15.856.556 7.107.371 12.425.557 15.948.557 16.504 0 28.682-3.978 36.532-11.935 9.088-9.313 13.631-19.954 13.631-31.921.001-4.07-.588-8.109-1.76-12.119zm-38.481 22.225c.124.434.186.896.186 1.392 0 1.112-.356 2.117-1.066 3.013-.711.896-1.622 1.407-2.735 1.529-2.597-.492-4.204-1.451-4.821-2.873-.063-.433-.093-.834-.093-1.205 0-2.164.988-3.74 2.967-4.73.371-.061.742-.092 1.113-.092 1.853 0 3.337.989 4.449 2.966zm35.699-9.087c-.928 7.543-3.093 14.157-6.491 19.842-3.957 6.677-9.212 11.282-15.764 13.816-3.648 1.421-6.338 2.379-8.065 2.874-3.029.866-5.874 1.328-8.531 1.392l-.464-1.113c14.525-2.535 24.603-7.82 30.228-15.855 3.832-5.501 6.306-12.485 7.418-20.955h1.669z"/><path d="m561.625 63.129h-50.44c-.557 1.498-.835 3.246-.835 5.241 0 1.997.278 3.68.835 5.053h17.895v11.589l-17.895.835v9.087l50.162.371v17.802h-89.662v-92.352h89.662zm-2.874 47.288v-12.052h-49.514c-.927-3.339-1.053-8.624-.37-15.857h17.616v-6.211h-17.891c-.435-1.359-.714-2.967-.839-4.822-.126-1.174-.154-2.875-.093-5.1.061-2.472.093-4.172.093-5.1l.835-.835h50.162v-36.531h-84.471v86.508zm-41.911-80.854-36.439.278-.278 30.228h-1.297v-32.174c8.529-.122 21.2.033 38.015.464v1.204z"/></g><g fill="#f00" stroke="#000" stroke-width="1.594492" transform="matrix(.94075822 0 0 .89192271 -7.389315 -81.933182)"><path d="m221.07088 189.96538h13.45352v6.9759h-2.98967l3.48795 13.95181 3.48795-13.95181h-2.98967v-6.9759h13.45353v6.9759h-3.48795l-6.97591 27.90361h-6.9759l-6.9759-27.90361h-3.48795z"/><path d="m253.95728 224.84489v-34.87951h20.9277v6.9759h-13.9518v6.97591h10.46385v6.9759h-10.46385v6.9759h13.9518v6.9759z"/><path d="m279.86777 224.84489v-34.87951h15.34699l5.58072 5.58072v9.76627l-2.09277 2.09277 2.09277 2.09277v15.34698h-6.9759v-13.9518h-6.97591v13.9518zm6.9759-20.9277h6.97591v-6.97591h-6.97591z"/><path d="m316.24212 224.84489v-27.90361h-10.46385v-6.9759h27.90361v6.9759h-10.46386v27.90361z"/><path d="m338.66467 224.84489v-34.87951h6.9759v34.87951z"/><path d="m356.20407 224.84489-5.58072-5.58072v-23.71807l5.58072-5.58072h9.76627l5.58072 5.58072v4.88313h-6.9759v-3.48795h-6.97591v20.92771h6.97591v-3.48795h6.9759v4.88313l-5.58072 5.58072z"/><path d="m376.53386 224.84489 8.71988-34.87951h6.9759l8.71988 34.87951h-6.9759l-1.74398-6.9759h-6.9759l-1.74398 6.9759zm12.20783-20.9277-1.74398 6.9759h3.48795z"/><path d="m405.9323 224.84489v-34.87951h6.9759v27.90361h13.95181v6.9759z"/><path d="m458.35123 224.84489-5.58072-5.58072v-23.71807l5.58072-5.58072h9.76626l5.58073 5.58072v4.88313h-6.97591v-3.48795h-6.9759v20.92771h6.9759v-6.9759h-3.48795v-6.9759h10.46386v15.34698l-5.58073 5.58072z"/><path d="m478.68098 224.84489v-6.9759h3.48796l6.9759-27.90361h6.9759l6.9759 27.90361h3.48796v6.9759h-13.45353v-6.9759h2.98967l-.87199-3.48795h-5.23192l-.87199 3.48795h2.98967v6.9759zm13.95181-20.9277-.87199 3.48795h1.74398z"/><path d="m511.5674 224.84489v-6.9759h3.48795v-20.92771h-3.48795v-6.9759h10.46385l6.97591 16.94148 6.9759-16.94148h9.96557v6.9759h-3.48795v20.92771h3.48795v6.9759h-13.45352v-6.9759h3.48795v-9.96557l-6.87625 17.14079-7.07556-17.14079v9.96557h3.3883v6.9759z"/><path d="m550.93141 224.84489v-6.9759h3.48795v-20.92771h-3.48795v-6.9759h24.41566v10.46385h-6.9759v-3.48795h-6.9759v6.97591h6.9759v6.9759h-6.9759v6.9759h6.9759v-3.48795h6.9759v10.46385z"/><path d="m580.32985 214.38104h6.9759v3.48795h6.9759v-6.9759h-8.37108l-5.58072-5.58072v-9.76627l5.58072-5.58072h9.76627l5.58072 5.58072v4.88313h-6.97591v-3.48795h-6.9759v6.97591h8.27143l5.68038 5.58072v9.76626l-5.58072 5.58072h-9.76627l-5.58072-5.58072z"/></g></svg>