<svg height="166.84691" viewBox="0 0 553.06195 116.79284" width="790.0885" xmlns="http://www.w3.org/2000/svg" xmlns:xlink="http://www.w3.org/1999/xlink"><linearGradient id="a" gradientUnits="userSpaceOnUse" x1="59.971493" x2="59.971493" y1="8.06725" y2="124.6757"><stop offset="0" stop-color="#009bcf"/><stop offset=".3806611" stop-color="#009ace"/><stop offset=".40140176" stop-color="#fff"/><stop offset=".524068" stop-color="#fff"/><stop offset=".53233463" stop-color="#f00"/><stop offset=".66448271" stop-color="#f00"/><stop offset=".68434376" stop-color="#fffc00"/><stop offset="1" stop-color="#fffc00"/></linearGradient><linearGradient id="b" gradientUnits="userSpaceOnUse" x1="125.03809" x2="125.03809" y1="8.06725" y2="124.6757"><stop offset="0" stop-color="#009bcf"/><stop offset=".39432314" stop-color="#009ace"/><stop offset=".41009969" stop-color="#fff"/><stop offset=".5317626" stop-color="#fff"/><stop offset=".5426597" stop-color="#f00"/><stop offset=".6677956" stop-color="#f00"/><stop offset=".6806789" stop-color="#fffc00"/><stop offset="1" stop-color="#fffc00"/></linearGradient><linearGradient id="c" gradientUnits="userSpaceOnUse" x1="177.7393" x2="177.7393" y1="8.06725" y2="124.6757"><stop offset="0" stop-color="#009bcf"/><stop offset=".40536857" stop-color="#009ace"/><stop offset=".42024797" stop-color="#fff"/><stop offset=".53888977" stop-color="#fff"/><stop offset=".55094302" stop-color="#f00"/><stop offset=".67055643" stop-color="#f00"/><stop offset=".68425715" stop-color="#fffc00"/><stop offset="1" stop-color="#fffc00"/></linearGradient><linearGradient id="d" gradientUnits="userSpaceOnUse" x1="234.38242" x2="234.38242" y1="8.06725" y2="124.6757"><stop offset="0" stop-color="#009bcf"/><stop offset=".41724017" stop-color="#009ace"/><stop offset=".43402344" stop-color="#fff"/><stop offset=".54677111" stop-color="#fff"/><stop offset=".55984592" stop-color="#f00"/><stop offset=".67352378" stop-color="#f00"/><stop offset=".6876089" stop-color="#fffc00"/><stop offset="1" stop-color="#fffc00"/></linearGradient><linearGradient id="e" gradientUnits="userSpaceOnUse" x1="291.37772" x2="291.37772" y1="8.06725" y2="124.6757"><stop offset="0" stop-color="#009bcf"/><stop offset=".42918557" stop-color="#009ace"/><stop offset=".44599992" stop-color="#fff"/><stop offset=".55668283" stop-color="#fff"/><stop offset=".5688042" stop-color="#f00"/><stop offset=".67650956" stop-color="#f00"/><stop offset=".68952316" stop-color="#fffc00"/><stop offset="1" stop-color="#fffc00"/></linearGradient><linearGradient id="f" gradientUnits="userSpaceOnUse" x1="347.12109" x2="347.12109" y1="8.06725" y2="124.6757"><stop offset="0" stop-color="#009bcf"/><stop offset=".44086859" stop-color="#009ace"/><stop offset=".45594466" stop-color="#fff"/><stop offset=".56563371" stop-color="#fff"/><stop offset=".57756573" stop-color="#f00"/><stop offset=".67942977" stop-color="#f00"/><stop offset=".69155371" stop-color="#fffc00"/><stop offset="1" stop-color="#fffc00"/></linearGradient><linearGradient id="g" gradientUnits="userSpaceOnUse" x1="411.51562" x2="411.51562" y1="8.06725" y2="124.6757"><stop offset="0" stop-color="#009bcf"/><stop offset=".45436478" stop-color="#009ace"/><stop offset=".47166324" stop-color="#fff"/><stop offset=".57700604" stop-color="#fff"/><stop offset=".58768696" stop-color="#f00"/><stop offset=".68280315" stop-color="#f00"/><stop offset=".69701153" stop-color="#fffc00"/><stop offset="1" stop-color="#fffc00"/></linearGradient><linearGradient id="h" gradientUnits="userSpaceOnUse" x1="474.51367" x2="474.51367" y1="8.06725" y2="124.6757"><stop offset="0" stop-color="#009bcf"/><stop offset=".46756825" stop-color="#009ace"/><stop offset=".48255745" stop-color="#fff"/><stop offset=".58283013" stop-color="#fff"/><stop offset=".59758872" stop-color="#f00"/><stop offset=".68610346" stop-color="#f00"/><stop offset=".69896162" stop-color="#fffc00"/><stop offset="1" stop-color="#fffc00"/></linearGradient><linearGradient id="i" gradientUnits="userSpaceOnUse" x1="516.61743" x2="516.61743" y1="8.06725" y2="124.6757"><stop offset="0" stop-color="#009bcf"/><stop offset=".47639263" stop-color="#009ace"/><stop offset=".49152219" stop-color="#fff"/><stop offset=".59359509" stop-color="#fff"/><stop offset=".60420638" stop-color="#f00"/><stop offset=".68830913" stop-color="#f00"/><stop offset=".70170343" stop-color="#fffc00"/><stop offset="1" stop-color="#fffc00"/></linearGradient><linearGradient id="j" gradientUnits="userSpaceOnUse" x1="545.72345" x2="545.72345" y1="8.06725" y2="124.6757"><stop offset="0" stop-color="#009bcf"/><stop offset=".48249283" stop-color="#009ace"/><stop offset=".49875349" stop-color="#fff"/><stop offset=".59808087" stop-color="#fff"/><stop offset=".60878116" stop-color="#f00"/><stop offset=".68983388" stop-color="#f00"/><stop offset=".70227045" stop-color="#fffc00"/><stop offset="1" stop-color="#fffc00"/></linearGradient><g transform="translate(-15.48932 -8.061671)"><g fill="#fff" fill-opacity=".5" stroke-width="1.75"><path d="m77.785068 71.55102q0 .168-.0406.2828-.0602.1708-.1932.1708-.0882 0-.1848-.0406-.1162-.049-.1274-.1204.0392 0 .0924.014.1232.0322.154.0322.119 0 .1792-.119.0476-.0952.0476-.2282 0-.0938-.0616-.2674-.0602-.175-.0602-.2436 0-.021.0112-.0336.0126-.014.0336-.014.0546 0 .1064.252.0434.2128.0434.315z"/><path d="m78.324068 71.69382q0 .1428-.0826.224-.0826.0812-.2282.0812-.0798 0-.1232-.0378-.0434-.0378-.0434-.1162 0-.1106.1442-.2226.1372-.1064.2534-.1064.0532 0 .07.0658.0098.0378.0098.112zm-.0854.0392q0-.0168-.0042-.0322-.0028-.0168-.0112-.0378-.0224.0154-.0742.0756-.0266.0308-.0462.0448 0-.0266.0056-.0434.0112-.0238.0182-.0406-.0616 0-.1288.0518-.0658.0518-.0658.112 0 .0406.0448.0406.0854 0 .1652-.042.0966-.0504.0966-.1288z"/><path d="m78.900868 71.75122q0 .0686-.0518.154-.0588.0966-.1218.0966-.0182 0-.0308-.0196-.0112-.021-.0112-.0406 0-.0252.0532-.0784.0546-.0546.0546-.0742 0-.0126-.0042-.0252-.0042-.0126-.0056-.0168-.105.0238-.2142.1204-.1078.0966-.1638.1092-.0112-.0308-.0112-.063 0-.0392.0182-.0826.0126-.0308.042-.0742.049-.0742.1036-.168.028-.049.0966-.1694.07-.1204.1022-.1708.0168-.0252.0294-.0378.0182-.0168.0434-.0224.0168.0056.0238.021.0084.0154.0084.0364 0 .0476-.0616.1288-.112.1456-.1148.1512-.063.0952-.063.1722l.0028.014q.077-.0378.091-.0434.0574-.0238.098-.0238.0448 0 .0658.0308.021.0294.021.0756z"/><path d="m79.55047 71.66862q0 .0952-.0462.203-.0504.119-.1246.1638-.0154-.0182-.0266-.0406-.0098-.0224-.0098-.0448 0-.0238.07-.1414.0308-.0518.028-.091l-.0014-.0182q-.0518.0154-.1792.0938-.126.077-.2548.1568-.0196 0-.0364-.014-.0154-.0154-.0154-.0336 0-.0294.0938-.1974.028-.0504.1008-.175.0224.0294.0294.0658.007.035.007.084 0 .021 0 .0322.1288-.077.2016-.1162.0798-.0434.1092-.0434.0196 0 .0364.0448.0182.0448.0182.0714z"/><path d="m80.767069 71.94022q0 .0252-.0224.0392-.021.0126-.0476.0126-.0238 0-.0602-.0056-.0826-.0126-.1064-.0126-.042 0-.1652.0098-.07.0056-.1008.0056-.0854 0-.0854-.0854 0-.0812.0532-.2324.0294-.0854.1106-.28.0728-.175.0924-.2464.007-.0224.0112-.0294.0112-.0168.028-.0168.0266 0 .0448.0392.0182.0378.0182.0686 0 .049-.0574.1652-.0574.1148-.112.2254-.0602.1316-.0602.2002 0 .035.0294.049.021.0098.0616.0098.0308 0 .1064-.007.0756-.0084.1008-.0084.063 0 .1036.0182.0574.0252.0574.0812z"/><path d="m81.287869 71.69382q0 .1428-.0826.224-.0826.0812-.2282.0812-.0798 0-.1232-.0378-.0434-.0378-.0434-.1162 0-.1106.1442-.2226.1372-.1064.2534-.1064.0532 0 .07.0658.0098.0378.0098.112zm-.0854.0392q0-.0168-.0042-.0322-.0028-.0168-.0112-.0378-.0224.0154-.0742.0756-.0266.0308-.0462.0448 0-.0266.0056-.0434.0112-.0238.0182-.0406-.0616 0-.1288.0518-.0658.0518-.0658.112 0 .0406.0448.0406.0854 0 .1652-.042.0966-.0504.0966-.1288z"/><path d="m81.877269 71.66442q0 .0448-.0238.0952-.0224.0504-.0574.084l-.0014-.0196q0-.0168.0042-.0518.0042-.035.0042-.0518 0-.0238-.007-.035-.007-.0126-.0294-.0126-.0658 0-.1638.1022-.1064.112-.2114.2226-.0084 0-.0168-.0014-.021-.0056-.028-.007.0042-.0504.035-.112.0826-.1666.0854-.1778.0112-.0448.0168-.0658.0056-.021.0154-.0434.0112-.0238.0252-.042.0154-.0196.0392-.0294l.014.168q.0602-.049.0924-.0756.0616-.049.1064-.049.0448 0 .0728.0294.028.0294.028.0728z"/><path d="m82.56467 71.50202q0 .0588-.1568.1554-.1512.0924-.2198.0924-.0322 0-.0434-.0224-.0098-.0224-.0098-.063 0-.0266 0-.0378.0938 0 .1708-.028.077-.028.1344-.0924-.042-.0154-.0854-.0154-.1022 0-.217.0784-.126.0854-.126.182 0 .0924.126.1288.0196.0056.2366.0392.1274.0196.1274.0686 0 .021-.0462.0336-.0462.014-.1176.014-.1792 0-.2828-.0546-.1372-.0728-.1372-.2338 0-.168.168-.2674.1428-.084.3248-.084.0546 0 .0994.0252.0546.0308.0546.0812z"/><path d="m83.121871 71.25142q0 .0308-.0742.1288-.0742.098-.0742.1498 0 .0266.0308.0532.07.0616.07.0756 0 .0182-.0126.035-.0112.0168-.0294.0168-.0154 0-.0434-.0168-.0196-.0112-.0756-.0546-.021.0406-.0322.0616-.0392.0742-.0532.1078-.021.0644-.042.1288-.0364.0868-.091.0868l-.0014-.0322q0-.0994.0644-.2352.0126-.0252.07-.1302-.1106-.0602-.2436-.0602 0-.0518.021-.0756.0224-.0252.0742-.0252.0476 0 .119.0168.035.0084.07.0168.0266-.0084.0728-.091.1134-.1988.154-.2282.0112.0182.0182.0364.0084.0182.0084.035z"/><path d="m83.638472 71.75122q0 .0686-.0518.154-.0588.0966-.1218.0966-.0182 0-.0308-.0196-.0112-.021-.0112-.0406 0-.0252.0532-.0784.0546-.0546.0546-.0742 0-.0126-.0042-.0252-.0042-.0126-.0056-.0168-.105.0238-.2142.1204-.1078.0966-.1638.1092-.0112-.0308-.0112-.063 0-.0392.0182-.0826.0126-.0308.042-.0742.049-.0742.1036-.168.028-.049.0966-.1694.07-.1204.1022-.1708.0168-.0252.0294-.0378.0182-.0168.0434-.0224.0168.0056.0238.021.0084.0154.0084.0364 0 .0476-.0616.1288-.112.1456-.1148.1512-.063.0952-.063.1722l.0028.014q.077-.0378.091-.0434.0574-.0238.098-.0238.0448 0 .0658.0308.021.0294.021.0756z"/><path d="m84.787874 71.29482q0 .0658-.07.1764-.0448.07-.147.2016-.1022.1302-.1274.1708.0042.0014.105.0336.1022.0308.1022.112-.042.007-.0826.0126l-.0154-.0014v-.0112q-.0224-.0056-.0364-.0056-.0266 0-.084.0084-.0574.0084-.0868.0084-.0378 0-.0616-.014-.0238-.014-.0238-.0504 0-.0294.1078-.1666.2016-.2562.203-.259.1092-.1484.1092-.1988 0-.0196-.014-.0294-.0126-.0098-.0518-.0098-.0266 0-.1106.0518-.0406.0252-.0658.0252l-.0238-.0042q-.0084-.0056-.0182-.021-.0098-.0168-.0098-.0266 0-.0588.1134-.1078.0966-.042.168-.042.0602 0 .0924.0448.028.0392.028.1022z"/><path d="m85.629272 71.54682q0 .1694-.1834.2996-.168.119-.3458.119-.0882 0-.14-.0448-.0518-.0448-.0518-.1302 0-.1904.1666-.3304.1582-.133.3542-.133.0994 0 .1498.0588.0504.0588.0504.161zm-.0854.0322q0-.0644-.0728-.0966-.0546-.0238-.1302-.0238-.1106 0-.231.1078-.1204.1078-.1204.217 0 .0448.0224.0644.0238.0182.0714.0182.1372 0 .2856-.0756.175-.0896.175-.2114z"/><path d="m86.270473 71.29482q0 .0658-.07.1764-.0448.07-.147.2016-.1022.1302-.1274.1708.0042.0014.105.0336.1022.0308.1022.112-.042.007-.0826.0126l-.0154-.0014v-.0112q-.0224-.0056-.0364-.0056-.0266 0-.084.0084-.0574.0084-.0868.0084-.0378 0-.0616-.014-.0238-.014-.0238-.0504 0-.0294.1078-.1666.2016-.2562.203-.259.1092-.1484.1092-.1988 0-.0196-.014-.0294-.0126-.0098-.0518-.0098-.0266 0-.1106.0518-.0406.0252-.0658.0252l-.0238-.0042q-.0084-.0056-.0182-.021-.0098-.0168-.0098-.0266 0-.0588.1134-.1078.0966-.042.168-.042.0602 0 .0924.0448.028.0392.028.1022z"/><path d="m86.914472 71.29482q0 .0658-.07.1764-.0448.07-.147.2016-.1022.1302-.1274.1708.0042.0014.105.0336.1022.0308.1022.112-.042.007-.0826.0126l-.0154-.0014v-.0112q-.0224-.0056-.0364-.0056-.0266 0-.084.0084-.0574.0084-.0868.0084-.0378 0-.0616-.014-.0238-.014-.0238-.0504 0-.0294.1078-.1666.2016-.2562.203-.259.1092-.1484.1092-.1988 0-.0196-.014-.0294-.0126-.0098-.0518-.0098-.0266 0-.1106.0518-.0406.0252-.0658.0252l-.0238-.0042q-.0084-.0056-.0182-.021-.0098-.0168-.0098-.0266 0-.0588.1134-.1078.0966-.042.168-.042.0602 0 .0924.0448.028.0392.028.1022z"/></g><g fill="none" stroke-linecap="round" stroke-linejoin="round"><path d="m81.028522 10.330124c-7.661754.424264-14.961664 3.562526-21.401658 7.590853-13.704036 8.908662-23.235303 22.737198-31.035354 36.815846-6.364411 11.58022-10.002211 24.684104-10.560304 37.883261-.185121 5.476737.226584 11.535276 4.078736 15.817596 3.734636 4.46123 9.030377 7.9322 14.893758 8.57358 5.375508-.24773 10.568156-2.09608 15.482845-4.1865 9.005023-3.9505 16.654105-10.50932 22.625746-18.260876 4.179055-5.249538 7.851986-10.906011 12.511447-15.763646.90238-.998785 2.308232-2.893971.72166-3.943556-2.441606-1.564172-5.534552-.713676-8.260232-.914632-4.545156-.165407-9.322519 1.3412-12.259315 4.967391-4.843498 5.666958-9.445555 12.305186-16.683687 14.960077-2.924533 1.028562-6.964146 1.700805-9.164832-1.092874-2.340623-3.296396-2.085355-7.591934-2.178177-11.429054-.176657-6.077554 1.760538-11.929452 4.323963-17.370925 3.607017-8.183697 7.863498-16.300294 14.472952-22.485807 3.95937-3.901667 8.243017-8.219695 13.971555-9.175164 2.101602-.394516 4.072716.922199 4.96249 2.72509 1.750893 2.415593 2.664806 5.332127 4.335534 7.787854 1.050389.658167 2.314333-.524295 3.435521-.590609 4.936613-1.572635 10.200716-2.489017 14.72854-5.107216 1.77029-.971242 2.02895-3.224389 1.32041-4.949104-1.853219-5.627878-4.47097-11.048652-7.814844-15.943593-2.783935-3.97689-7.733889-6.035009-12.506754-5.907992z" fill="url(#a)" opacity=".98" stroke-width="4.99999"/><path d="m138.3562 51.257124c-6.34388.100229-12.22103 3.122815-17.4708 6.436148-9.5792 6.539489-17.35895 15.91843-21.551015 26.767821-1.466068 4.385875-2.573105 9.647681-.123063 13.891833 1.510498 2.586804 4.663408 3.313294 7.453068 3.115724 5.48462-.0183 10.55296-2.44989 15.53624-4.433956.97166-.07397.56201 1.449825.92525 2.027738.49515 2.331478 3.18765 3.569568 5.31476 2.581458 2.40258-.78821 4.98638-1.773815 6.70126-3.703702 2.04568-4.280092 2.00494-9.28544 4.3092-13.427945 3.20941-6.544846 8.09589-12.090949 11.4944-18.515018 1.53653-2.977366.88946-6.697422-1.37596-9.120267-2.61357-3.262299-6.47727-5.822487-10.80313-5.620341l-.25929.000321zm-5.91002 14.261526c1.19461-.148957 2.07651.966615 1.7249 2.127505-.51501 5.055704-3.80843 9.291282-6.96846 13.064331-3.23412 3.379747-6.65555 7.323308-11.42248 8.430511-1.91839.56728-3.45297-1.366038-3.07706-3.160113.70459-4.738919 3.77918-8.655946 6.76082-12.228723 3.40921-3.679379 7.58838-7.121955 12.59234-8.21376.12961-.01205.25971-.02032.38994-.01975z" fill="url(#b)" opacity=".98" stroke-width="4.99999"/><g stroke-width="5.00001"><path d="m196.17013 51.915024c-6.2886.118587-11.90704 3.523337-16.64371 7.383999.30306-2.021699 2.22025-5.018223-.048-6.495914-2.8863-.716606-6.20247-.299692-8.84719 1.091485-4.43163 3.233811-6.27845 8.756058-8.84658 13.391613-4.22727 9.075195-9.08594 17.943756-12.11796 27.514737-.32939 1.521334-.77689 3.479699.13393 4.769161 5.23252.08166 10.18693-2.695532 14.01241-6.076939 1.9414-1.670409 3.48296-3.795458 3.80659-6.387767 2.441-6.724982 6.33392-13.021332 11.40545-18.078979 3.21596-2.738608 7.00141-5.303589 11.27725-5.898605 2.52409-.09816 2.38556 3.107164 1.99604 4.802822-2.33248 8.12902-7.1815 15.356735-9.5499 23.516256-.61783 2.732657-2.22231 6.196074-.33291 8.747737 1.83925 1.61288 4.28362-.47077 6.07907-1.153663 3.26376-1.715908 6.95958-3.725508 7.96986-7.580371 2.37961-7.150392 4.67936-14.322125 7.63713-21.259617 1.68041-4.763062 3.61163-10.938091-.0239-15.291532-1.89206-2.341946-5.01817-3.103237-7.90754-2.994423z" fill="url(#c)" opacity=".98"/><path d="m253.42012 51.402943c-6.70916.463934-13.05982 3.705539-17.98158 8.194734.67324-2.090939 2.46888-4.51615 1.45102-6.748015-2.3135-2.26281-5.81604-.357917-8.38453.364545-5.6775 2.22347-7.84472 8.554687-10.4912 13.508996-4.17499 9.297333-8.89156 18.447646-11.73886 28.266101-.31232 1.453095-1.07125 4.385981 1.09435 4.6825 3.96464-.516234 7.61033-2.59815 10.99507-4.635949 4.98043-3.679333 5.8499-10.342637 8.96648-15.351176 4.10319-7.780322 10.71424-14.884386 19.3842-17.253724 1.93996.04779 2.70212 2.770736 2.33123 4.408197-2.82164 9.574633-8.59462 18.120498-10.83106 27.908076-.17518 1.969623-.83827 5.000768 1.23401 6.194392 2.68064-.29118 4.98553-2.16751 7.40907-3.271737 3.80347-1.81449 6.33046-5.471104 7.21165-9.531465 1.96202-7.392803 5.3347-14.263107 7.67809-21.517706 1.46556-4.371163 1.2595-9.857616-2.52245-13.021907-1.55279-1.499209-3.63503-2.34638-5.80549-2.195862z" fill="url(#d)" opacity=".98"/><path d="m304.47642 52.079749c-13.79917.292873-26.30101 9.178262-33.59499 20.514229-3.4916 5.567281-6.23532 12.015497-5.52731 18.726245.45486 5.05531 5.07479 9.676227 10.30107 9.460257 9.6123-.0352 18.73534-4.620787 26.03092-10.629092 6.22442-5.476524 12.6086-11.462622 15.72341-19.326596 1.51928-4.727608 1.94295-10.635149-1.66803-14.55457-2.36136-3.086485-6.25099-4.453305-10.05609-4.190528-.40296-.01196-.80598-.000685-1.20898.000055zm-2.16722 10.274573c2.8926.127143 3.165 3.796218 2.68799 5.929322-1.7056 7.826175-7.0683 14.659295-13.72602 18.963562-3.36511 1.763729-7.67205 3.440548-11.27582 1.594255-2.37225-2.612997-.92517-6.489738.17833-9.34996 3.47105-7.803602 9.9146-14.839309 18.60417-16.595585 1.15551-.279881 2.33554-.553359 3.53135-.541594z" fill="url(#e)" opacity=".98"/><path d="m366.21123 51.771784c-6.28259.164421-11.91782 3.507095-16.62725 7.411214.39884-1.98759 2.19019-5.015041-.1769-6.389199-3.96099-.934844-8.61293.210335-11.28369 3.434884-3.79886 4.487547-5.68859 10.23054-8.43583 15.36423-3.66662 8.106482-7.82718 16.082822-10.37797 24.629683-.60782 1.470154.0823 3.739816 1.99031 3.46425 5.33505-.89548 10.42829-3.732299 14.08117-7.724195 2.26441-2.671338 2.06709-6.535273 4.08949-9.367865 4.38351-7.615104 9.79371-15.526813 18.14272-19.115318 1.54966-.740319 4.59252-1.37884 5.02842.863735.12211 4.846228-2.56972 9.24496-4.35768 13.588075-2.85912 6.443411-6.35231 12.976011-6.84866 20.118337.20241 1.575421 1.58687 3.570415 3.3783 2.548945 4.04961-1.889817 8.93893-3.580577 11.13616-7.790795 2.49106-6.214859 3.96608-12.80961 6.76281-18.921271 2.22126-5.522379 5.21962-12.086215 2.18393-17.895589-1.70004-3.032766-5.36103-4.335187-8.68533-4.219121z" fill="url(#f)" opacity=".98"/><path d="m437.36619 10.955676c-11.48372.115576-22.71521 3.323892-33.41564 7.266542-4.63713 2.084667-9.83944 3.790214-13.35207 7.632519-1.21643 1.340602.16962 3.020695 1.7246 2.950735 2.73523.59696 5.77884.234947 8.36089 1.22255-1.70018 5.235434-4.66967 10.083108-6.83511 15.188628-7.62714 16.938538-14.92968 34.13541-19.86826 52.075784-1.25237 3.764666-.51214 8.914856-4.35525 11.302476-2.45148 1.36132-5.91812 1.65548-7.51578 4.24562-.83863 2.6386 2.50678 3.59975 4.45976 3.95341 7.70054 1.58439 15.62083.52816 23.4056.37388 13.67448-.93611 27.1629-4.37587 39.80744-9.61784 6.70437-2.9591 11.82228-9.762279 12.32935-17.127155.32483-6.562331-3.27474-12.641694-8.1754-16.761173-3.25989-3.389537-7.86506-4.821221-11.44986-7.714881 5.29948-3.475797 11.23685-6.156794 16.31278-10.076173 8.27767-6.154355 16.52824-13.182478 21.17445-22.588174 1.64839-3.943909 1.79811-8.639046.30868-12.646619-3.25406-5.330984-9.10803-9.100808-15.41401-9.409406-2.49189-.251072-4.99964-.284635-7.50217-.270723zm-4.26066 12.410274c3.60618-.05557 8.37081.314364 9.95944 4.210527 1.07863 2.673367.51832 5.720905.10385 8.433944-2.86992 8.244327-10.76721 13.107833-17.82902 17.426522-5.86551 3.212171-12.10945 6.573812-18.77799 7.237894-2.61553.154796-2.57576-3.01896-1.98673-4.80282 2.15786-7.731562 5.43156-15.270059 9.26946-22.307633 2.60964-4.808925 7.01967-8.978063 12.63759-9.707838 2.18692-.391749 4.41474-.489799 6.6234-.490596zm-26.93691 50.363023c5.70663.679512 11.28325 2.996522 15.66109 6.750881 3.52342 3.088067 5.3386 8.748314 2.32192 12.78986-2.31956 3.438446-6.75037 4.495964-10.32256 6.017491-6.00222 1.977035-12.33444 3.654095-18.67557 3.456365-1.13691-.0454-2.8538-.36371-2.35773-1.91797.97386-7.519051 2.99591-14.947626 5.50756-22.104011 1.22042-3.29274 4.44404-5.288299 7.86529-4.992616z" fill="url(#g)" opacity=".98"/><path d="m488.46045 51.082086c-9.52351.950126-17.88907 6.563086-24.94968 12.678851-8.30513 7.624243-14.61653 18.09176-15.59356 29.477979-.57695 4.367708 3.61095 7.484494 7.55947 7.912554 6.06627.98349 11.79419-2.090742 17.15723-4.220555.93723 1.911011 1.51596 5.295775 4.33873 4.957525 3.09126-.49178 6.42785-1.80641 8.37665-4.353768 1.68768-3.791285 1.75763-8.096975 3.48502-11.898195 2.95632-7.936099 10.89999-13.193279 12.61367-21.697926 1.05335-3.613314-1.39387-6.849309-4.05296-8.983268-2.53726-2.020341-5.56945-3.955102-8.93457-3.873197zm-5.69664 14.227268c2.23679.237939 1.53296 3.113922 1.01915 4.542125-2.73521 6.949968-7.72396 12.969015-13.6937 17.395727-2.0736 1.209311-5.26721 2.962688-7.33314.970447-1.05157-3.188326 1.17323-6.376372 2.72011-9.038414 3.93352-5.667541 8.99338-11.108214 15.57874-13.619932.5531-.161016 1.12922-.285609 1.70884-.249953z" fill="url(#h)" opacity=".98"/><path d="m534.79773 38.880942c-4.37509.396105-8.39601 2.787881-11.76069 5.498966-5.29234 6.181774-8.7062 13.715439-12.41134 20.899396-4.34741 9.206018-8.33159 18.586236-12.29643 27.961126-.72202 2.335601-2.51106 5.717375-.16362 7.66467 2.38864.56315 4.5525-1.518572 6.71296-2.246821 3.85408-1.824805 8.43449-3.841827 9.61491-8.391584 4.21318-12.863262 10.05965-25.129361 16.19544-37.178125 1.91121-4.027516 5.07807-7.585108 6.02889-12.004604.0626-1.11147-.63752-2.390205-1.92012-2.203024z" fill="url(#i)" opacity=".98"/><path d="m562.9135 39.970995c-5.11916-.2161-10.02219 2.460224-12.8049 6.722948-6.63701 9.764466-11.11023 20.786106-16.29923 31.343675-2.81941 6.504555-6.4187 12.813025-7.94334 19.785678-.51202 1.729655 1.01016 4.120114 2.96291 3.139814 4.31095-1.514446 8.96051-3.157507 12.15101-6.570398 2.91036-4.622113 3.99109-10.128276 6.39883-15.005318 5.20122-12.278116 10.68577-24.416898 17.72199-35.762359.86294-1.028907 1.72145-3.525151-.42399-3.560218-.58345-.08403-1.17485-.09653-1.76328-.09382z" fill="url(#j)" opacity=".98"/></g></g><path d="m33.017591 123.04234c-7.416418-2.55993-13.273965-8.78287-15.686995-16.66555-2.842395-9.285304-2.344466-24.58194 1.15157-35.37679 4.584324-14.1552 10.427115-24.588377 21.387292-38.190206 17.285001-21.451078 41.10993-30.7908813 52.664815-20.645559 3.270966 2.871947 12.465727 19.404853 12.465727 22.414362 0 2.005868-3.52035 3.980441-12 6.730827-13.019218 4.222802-13.526716 4.247398-14.985219.726261-4.359766-10.525408-18.259742 1.441402-28.248191 24.31952-5.85472 13.409988-6.161828 23.888833-.723074 24.672024 4.897769.705288 8.898348-2.219505 14.425319-10.546239 5.089853-7.668188 7.351076-8.612224 19.798779-8.265779 9.517455.264891 10.301356.441995 11.219514 2.534789.542921 1.2375 1.482782 2.25 2.088581 2.25s4.107801-3.793585 7.782231-8.430188c10.88354-13.73346 22.9994-20.29068 35.78285-19.366009 7.8389.567015 13.78653 4.575008 15.7041 10.582699.73969 2.317424 1.74461 4.213498 2.23316 4.213498.48854 0 1.99661-2.18723 3.35127-4.86051 1.68986-3.334778 3.55272-5.377615 5.9345-6.507845 4.96339-2.355283 12.02801-3.1262 15.49357-1.690715 2.35585.975824 3.89625.912743 8.08465-.331076 7.97183-2.367379 15.70134-.133944 18.54103 5.357413.83431 1.613377 1.51693 5.46826 1.51693 8.566406 0 7.549313 1.40483 6.87671 6.85751-3.28323 4.77295-8.893395 6.78638-10.3247 16.59249-11.795216 4.04963-.607279 5.09369-.432174 6.16587 1.034116 1.21136 1.656635 1.54083 1.665116 5.35767.137922 8.35661-3.343655 18.17176-.880837 19.62901 4.925314.65129 2.594928.0388 9.879817-1.19357 14.197421-1.08642 3.806102.97145 2.562634 9.2365-5.581165 12.28678-12.106531 23.78389-16.553278 37.09552-14.347469 8.36391 1.385944 11.31613 3.527727 13.40562 9.725542.90564 2.686294 2.03064 5.01076 2.5 5.165478.46936.154719 1.97838-1.845382 3.35338-4.444668s3.98521-5.718324 5.80046-6.931195c4.11717-2.750906 13.37383-4.036879 17.7271-2.462719 2.5534.923321 3.90148.84488 6.88195-.400441 4.98082-2.081118 11.95378-2.120571 15.06013-.08521 1.37755.902603 3.43459 3.46396 4.5712 5.691904 1.13661 2.227943 2.6049 3.872898 3.26286 3.655455 1.52419-.503714 11.80244-23.182614 12.02736-26.538287.15281-2.279815-.2046-2.528932-3.74294-2.60886-4.72266-.10668-5.19478-1.080225-2.59329-5.347505 2.71407-4.451954 6.70045-6.68565 19.00517-10.649211 12.8959-4.153989 22.73263-5.862547 34.5-5.9923626 8.31083-.091684 9.42116.1382681 14.5 3.0029896 7.64107 4.309949 12 10.179877 12 16.159739 0 6.833167-3.35755 12.73776-12.42634 21.852984-7.65339 7.69258-14.55097 12.250739-20.82366 13.760996-3.66911.8834-3.47009 2.296294.5607 3.980462 1.82088.760814 4.96811 3.31962 6.99385 5.686236 2.02573 2.366616 3.86608 4.112671 4.08966 3.880122.22358-.232548 2.17336-2.781913 4.33284-5.665255 2.15949-2.883342 6.7629-7.518934 10.22982-10.301316 18.51969-14.863035 33.70298-15.660102 41.54313-2.180863 1.65 2.836774 3.33248 5.172811 3.73884 5.191195.40636.01838 2.53719-3.543321 4.73518-7.914898 6.65872-13.243545 12.89333-18.607644 22.84437-19.654719 6.44676-.678345 7.71478.427623 7.53055 6.568135-.18196 6.064965.94676 6.388508 5.58663 1.601377 4.04467-4.173037 12.07305-7.793506 16.35311-7.374575 2.70772.265031 3.26754.817903 4.00444 3.954729.76606 3.260964.12497 5.323251-6.06184 19.5-3.80518 8.719356-8.56099 20.128375-10.56848 25.353375-5.11517 13.313572-6.55585 15.33109-13.18819 18.46869-7.14757 3.38134-11.9396 4.22022-14.05914 2.46115-1.28443-1.06597-1.53356-2.92282-1.25847-9.379466.41464-9.731888-1.05178-10.633877-5.03769-3.098665-1.98389 3.750464-3.98741 5.763151-8.25881 8.296611-3.10173 1.83969-6.92673 3.43642-8.5 3.54829-2.51861.17908-3.14595-.39421-5.24877-4.79661-2.13705-4.474053-2.50521-4.801827-3.5-3.116036-3.58863 6.081376-9.25154 10.616036-13.25735 10.616036-.95972 0-2.90522-1.11161-4.32333-2.47025-2.52047-2.41476-2.68811-2.43722-7.46365-1-2.68689.80864-6.63609 1.47025-8.77599 1.47025-4.92654 0-9.9333-2.46666-9.15001-4.50789 1.18099-3.077619-2.37571-1.38488-4.72807 2.25023-3.05068 4.71424-11.16092 9.6078-21.17456 12.77632-19.09111 6.04083-59.56005 7.52368-62.86975 2.30366-1.60311-2.52843-.95612-8.43352 1.13098-10.32232 2.8588-2.58718 2.63228-4.87551-.4071-4.11267-1.3239.33228-3.0609.85503-3.85998 1.16166-.79908.30664-2.86589-.63144-4.5929-2.08463-2.70927-2.2797-3.14002-3.29438-3.14002-7.396703 0-4.757256 2.16158-12.260971 5.56768-19.32767 1.24759-2.588403 1.4902-4.082112.77859-4.793716-1.91945-1.919449-15.34627 16.911011-15.34627 21.522394 0 1.147477-.69159 3.073704-1.53686 4.280503-1.70117 2.428752-13.27226 9.250832-15.69055 9.250832-2.17448 0-6.77259-6.37939-6.77259-9.396258 0-1.391336.92074-4.865625 2.04608-7.720643 3.18276-8.074736 1.29269-8.181355-7.72851-.435966-16.04541 13.776217-32.98506 20.361777-41.30653 16.058577-5.00132-2.58628-6.01104-5.0603-6.01104-14.728216 0-13.17986-2.91023-11.189817-6.58084 4.50005-.42914 1.834338-2.53363 4.126516-6.19727 6.749996-3.05111 2.18485-5.93387 3.97246-6.40612 3.97246-.47226 0-2.649-1.1848-4.83721-2.63289-3.50219-2.31763-3.97856-3.09749-3.97856-6.513203 0-2.134177 1.74365-8.60765 3.87477-14.385496 2.28824-6.203823 3.47571-10.7518 2.90017-11.107508-2.76042-1.706028-11.00949 8.984384-14.33364 18.575728-3.28437 9.476549-6.19359 12.294679-15.7263 15.233889-3.65954 1.12834-3.90953 1.04542-7.54216-2.50175-2.06644-2.01782-4.07465-3.66877-4.46269-3.66877s-2.89781 1.575-5.57727 3.5c-5.56685 3.99939-8.75456 4.37203-12.46084 1.45667-4.41348-3.47164-4.36432-7.336779.2432-19.121294 5.509-14.090224 5.31147-15.607362-1.27873-9.82109-3.09046 2.713458-4.77046 5.643599-12.01855 20.961849-2.29125 4.842365-8.52989 9.473595-14.30167 10.616775-2.60014.51499-3.6733.14099-5.85467-2.04038-2.37705-2.37705-2.59704-3.1638-1.99929-7.149927.36942-2.463436 1.54152-7.00724 2.60467-10.09734 3.49267-10.151633 2.3446-10.73356-4.56202-2.312355-3.72307 4.539528-4.50498 6.208387-4.50498 9.615141 0 4.968501-2.58052 8.627141-8.05469 11.419851-5.06948 2.58626-6.4009 2.49046-8.66947-.62379l-1.89097-2.59588-5.37394 1.59588c-16.80532 4.99065-25.388109-2.95369-20.521754-18.995179.819046-2.699912 1.494046-5.021431 1.5-5.158931.006-.1375-.637787-.25-1.430535-.25-.792747 0-2.826558 2.5875-4.51958 5.75-8.007211 14.95716-26.533987 31.36359-40.870946 36.19337-7.485088 2.52154-11.075338 2.54112-18.150524.099zm369.478029-7.56748c10.31059-1.80037 25.3584-6.60349 30.3465-9.6863 1.87025-1.15588 4.69587-4.14426 6.27916-6.640858 6.67719-10.528836 1.18278-23.653435-12.73232-30.413914-2.41393-1.172775-4.38896-2.409304-4.38896-2.747841s1.62781-1.39177 3.61735-2.340517c17.36422-8.280419 34.64674-25.192737 35.40381-34.64543.51144-6.385805-.0968-8.310907-3.79371-12.00784-4.59524-4.595245-9.18846-5.979267-19.86797-5.986583-17.42959-.01194-50.08873 11.76938-46.90523 16.920395.36508.590716 2.88723 1.074028 5.60477 1.074028s4.94098.461234 4.94098 1.024964-1.51875 4.05123-3.375 7.75c-10.30314 20.530087-22.64078 52.735234-24.22122 63.225036-.96158 6.3823-1.76002 7.49055-6.39766 8.88002-4.224 1.26554-6.03571 3.49039-4.27555 5.25055 3.05236 3.05236 23.25447 3.22727 39.76505.34429zm-10.00222-13.63145c-.58816-1.53273 3.85157-19.705171 5.81411-23.797978 2.66777-5.56355 8.63231-6.019746 18.39066-1.406602 9.13699 4.319406 12.13052 12.916362 6.37099 18.296563-5.70519 5.329447-29.14898 10.626127-30.57576 6.908017zm17.75214-2.291764c6.54451-1.828103 12.75446-6.664196 12.75446-9.932732 0-3.160373-2.63028-6.428495-7.82556-9.72324-8.18903-5.193328-10.88271-3.522586-14.32286 8.883678-2.15892 7.785727-2.35402 11.855268-.60158 12.548368 1.41444.55942 2.0195.45191 9.99554-1.776074zm-5.57887-39.218313c-1.52896-1.528959-.40362-6.190287 4.03176-16.700157 7.16248-16.971887 11.4844-20.546672 24.91671-20.609319 6.94802-.032405 10.38486 2.609753 10.38486 7.983623 0 5.390631-1.52437 8.880446-5.80212 13.283112-8.66469 8.917698-30.30339 19.270563-33.53121 16.042741zm15.15468-5.743366c13.17013-6.632373 21.16717-14.670331 21.17491-21.283263.009-8.034536-14.58855-8.725662-20.68194-.979167-2.92589 3.719664-10.64468 22.369177-9.9777 24.107301.84474 2.201345 1.83093 2.009522 9.48473-1.844871zm-375.524544 60.920943c13.572339-3.53515 25.188238-12.40164 34.716036-26.498971 2.411755-3.568434 5.70717-7.695669 7.323144-9.171633 4.27001-3.900052 3.087104-5.841742-3.554601-5.834729-8.975607.0095-12.334246 1.479404-16.662733 7.29253-6.756068 9.073349-13.278984 13.69207-19.345599 13.698155-5.573907.0056-7.293621-3.208841-7.197983-13.454226.0665-7.123448.537008-9.093881 4.119233-17.250706 5.43676-12.379652 9.246055-18.070775 16.867601-25.200357 6.599064-6.173101 12.00639-8.434057 15.351337-6.418831.872718.525785 2.595105 3.03713 3.827527 5.580765l2.240769 4.624792 6.908787-1.914523c9.055739-2.509473 11.951526-3.889538 12.626986-6.01772.80956-2.550687-6.712316-18.167088-9.993689-20.748216-4.702983-3.699367-9.717016-4.5195232-16.697404-2.731231-18.097222 4.636293-33.331728 19.359673-47.242965 45.657935-7.654476 14.470275-11.646703 37.184464-8.146411 46.349846 2.624103 6.87112 10.43204 12.66046 18.10306 13.42286.571946.0568 3.612553-.56674 6.756905-1.38574zm71.703194-16.220794c2.475-.864148 5.02776-1.984207 5.6728-2.489021.80878-.632957 1.27436-.233055 1.5 1.288403.57296 3.863322 3.21399 4.607072 8.03635 2.263122 4.08654-1.986295 4.3463-2.37842 5.45541-8.235465 1.19649-6.318449 3.05489-9.891295 10.95329-21.058122 5.20651-7.360992 5.33721-10.408951.65591-15.295175-5.54081-5.783358-12.22091-5.855143-23.29495-.250332-13.62847 6.897664-26.97881 25.09481-26.97881 36.773387 0 9.010437 5.79433 11.264817 18 7.003203zm-2.99045-10.778607c-3.07983-3.710966 5.7138-16.964827 14.26586-21.501688 5.4503-2.891375 8.06303-2.259871 7.10881 1.71822-1.03071 4.29699-3.17173 8.030999-7.09455 12.373084-6.50993 7.205724-12.05979 10.085712-14.28012 7.410384zm13.4752-12.261509c4.84987-6.177852 5.88402-9.052909 2.62984-7.311327-1.6987.909116-9.11459 11.063848-9.11459 12.480795 0 1.880814 2.53879-.143044 6.48475-5.169468zm342.62042 21.905142 3.60516-1.760905 1.05797 2.802881c1.25054 3.313052 2.96382 3.490352 8.15189.843602 3.42217-1.745865 3.91701-2.48113 4.5428-6.750003.91231-6.22335 3.49164-11.928323 7.36534-16.290717 5.14134-5.789938 8.41656-12.608536 7.67598-15.980399-.83048-3.781115-6.48864-8.738434-10.92343-9.570406-7.04586-1.321811-20.35765 5.468971-30.01333 15.310783-5.97658 6.091795-11.77049 17.613596-12.33431 24.528077-.36631 4.492359-.1011 5.510488 1.92089 7.374283 3.88388 3.580022 10.97149 3.390332 18.95104-.507196zm-5.35517-8.918103c-5.15226-1.129632 2.80991-15.107573 12.11737-21.272577 7.96177-5.273657 10.90702-3.278315 7.03352 4.765047-1.26355 2.62377-4.49342 7.101265-7.1775 9.949989-4.88917 5.189074-8.69877 7.2755-11.97339 6.557541zm12.73475-12.987039c4.62503-5.891437 5.70641-8.644321 2.9855-7.600209-1.58173.606964-9.47025 11.030039-9.47025 12.513001 0 2.135005 2.34894.355464 6.48475-4.912792zm-287.63869 22.328008c6.20246-3.143024 6.84925-4.018682 9.17952-12.427746 1.07637-3.88423 3.31095-10.018311 4.96573-13.631291 5.66645-12.371904 3.09221-20.518971-6.4834-20.518971-4.81919 0-11.22262 2.642622-15.41804 6.362851-2.31143 2.04963-2.37756 2.055246-1.61482.137149 1.80638-4.542576 1.23256-6.009663-2.2865-5.845869-7.8917.367319-8.92531 1.49566-17.23033 18.809582-13.40019 27.936083-13.76766 30.720577-3.50445 26.555051 5.52201-2.241221 10.54623-6.826092 10.54623-9.624006 0-2.520504 5.66781-12.718401 9.60438-17.280826 4.38825-5.08592 13.05002-9.645642 15.09659-7.947138 2.24722 1.865021 1.44107 5.590348-3.21656 14.864243-5.37804 10.70833-8.00045 19.642244-6.34956 21.631444 1.4156 1.705689 1.10652 1.755639 6.71121-1.084473zm55.93718.03008c6.38466-3.237724 7.76912-5.027235 9.7095-12.550236.91388-3.543183 3.03203-9.393183 4.707-13 4.13766-8.909897 4.30883-15.000573.52788-18.783402-2.26354-2.264659-3.57239-2.742794-7.13114-2.605065-4.63423.179352-11.54634 3.167685-15.4822 6.693468l-2.38571 2.137147 1.13571-2.184259c.62465-1.201342 1.13572-3.113842 1.13572-4.25 0-2.569202-3.24562-2.751512-8.87623-.498587-4.51573 1.806835-6.23269 4.655215-16.02641 26.58729-5.83022 13.056203-7.17613 18.060803-5.1877 19.289725 1.26464.781591 10.11537-3.134096 12.83012-5.676228 1.23187-1.153548 3.14346-4.512679 4.24797-7.464734 3.71788-9.93694 10.39566-18.450326 17.1614-21.878787 5.91441-2.997057 6.62859-3.006333 7.95131-.103271.89226 1.958287.17681 4.217582-4.57655 14.452188-5.61255 12.084563-7.30485 17.749172-6.17905 20.682976.76411 1.991237.86538 1.977897 6.43838-.848227zm46.86785-2.019523c8.23376-3.910194 19.13307-13.951372 23.81436-21.93939 3.52617-6.016956 3.89615-13.341071.87922-17.40478-3.23877-4.36251-6.0788-5.391124-13.6036-4.927021-17.3657 1.071053-34.99102 17.635464-37.39023 35.139632-.72356 5.27896 2.12148 10.781686 6.43702 12.450101 4.36164 1.686243 12.01813.407073 19.86323-3.318542zm-12.57647-8.44913c-2.75606-5.149752 4.58557-18.332044 12.77223-22.9332 2.07688-1.167272 5.61803-2.416842 7.86923-2.776823 3.51706-.562401 4.25251-.356622 5.22592 1.462217 2.50689 4.684169-3.68013 16.589893-11.60065 22.323196-5.53084 4.00352-12.64081 4.962669-14.26673 1.92461zm14.76257-6.682959c2.77942-2.49894 6.0376-6.135853 7.24041-8.08203 1.94904-3.153615 2.02289-3.702523.67897-5.046441-1.34391-1.343918-1.83162-1.340551-4.48381.03095-5.78619 2.992157-12.27804 12.578938-10.91803 16.123091.89713 2.337879 2.02366 1.882362 7.48246-3.025566zm65.00887 17.121534c6.18075-3.132023 6.85067-4.02885 9.12957-12.221758 1.04891-3.770938 3.28349-9.883869 4.96574-13.584293 3.92016-8.623142 4.12379-14.797706.60408-18.317412-4.54773-4.547735-15.00222-2.731679-22.45558 3.900776-2.30581 2.051851-2.3757 2.058113-1.61482.144679 1.80638-4.542576 1.23256-6.009663-2.2865-5.845869-6.71345.312478-9.06645 2.147307-13.13605 10.243263-6.15188 12.238401-13.76275 29.506878-14.51568 32.934962-.96091 4.375002.91097 4.828882 7.64071 1.852674 5.43793-2.404911 9.82247-6.614224 9.82247-9.429913 0-2.988873 6.64635-13.823971 11.5-18.747666 4.70972-4.777692 10.43536-7.695666 13.25572-6.755547 2.39704.799015 1.20514 6.365998-3.27131 15.279131-5.37804 10.70833-8.00045 19.642244-6.34956 21.631444 1.4156 1.705689 1.10652 1.755639 6.71121-1.084473zm146.99229-.496407c6.88933-3.477723 7.61511-4.269128 9.13819-9.964421.64464-2.410552 2.22418-6.685552 3.51009-9.5 1.28591-2.814451 4.20889-9.392182 6.49552-14.617182s5.97597-12.307949 8.19855-15.739887c3.98929-6.159976 4.43072-9.260113 1.31857-9.260113-2.74484 0-8.90612 3.017892-11.84742 5.803048-2.73246 2.587398-12.70737 21.229705-16.59313 31.011215-1.02378 2.577155-3.22047 7.610737-4.88151 11.185737-3.50861 7.551422-4.62944 11.459253-3.71234 12.943165.97292 1.574205 2.03501 1.338085 8.37348-1.861564zm28.65359.465536c6.24206-2.952964 6.90714-3.693064 9.05079-10.071656.91966-2.736515 2.48086-6.775481 3.46932-8.975481.98847-2.2 3.88759-8.725 6.44249-14.5s6.42281-13.231373 8.59536-16.569718c2.17256-3.338345 3.9501-6.600845 3.9501-7.25 0-1.468239-4.92703-1.53572-8.6849-.118948-5.3653 2.022797-8.87533 6.849848-16.50339 22.695728-11.59695 24.09051-14.81171 31.586563-14.81171 34.537352 0 3.426074 1.67843 3.476024 8.49194.252721z" fill="#010000"/></g></svg>