<svg enable-background="new 0 0 371 89" height="89" viewBox="0 0 371 89" width="371" xmlns="http://www.w3.org/2000/svg"><path d="m20.419 86.36h330.984c9.288 0 16.92-7.632 16.92-16.92v-48.887c0-9.288-7.632-16.92-16.92-16.92h-330.984c-9.288 0-16.919 7.632-16.919 16.92v48.887c0 9.289 7.631 16.92 16.919 16.92z"/><path d="m20.419 13.244h330.984c3.996 0 7.308 3.276 7.308 7.309v48.887c0 4.032-3.312 7.308-7.308 7.308h-330.984c-3.996 0-7.308-3.276-7.308-7.308v-48.887c.001-4.032 3.312-7.309 7.308-7.309z" fill="#fff"/><path d="m289.627 40.316h-11.808c-.828-2.88-3.528-5.04-6.66-5.04h-18c-3.816 0-6.912 3.132-6.912 6.912v7.74c0 3.816 3.132 6.912 6.912 6.912h18c3.348 0 6.156-2.448 6.768-5.616h11.7v2.016c0 7.02-5.796 12.78-12.852 12.78h-29.232c-7.056 0-12.852-5.76-12.852-12.78v-14.327c0-7.092 5.796-12.852 12.852-12.852h29.232c7.056 0 12.852 5.796 12.852 12.852z"/><path d="m79.136 40.316h-11.808c-.828-2.88-3.492-5.04-6.66-5.04h-18c-3.78 0-6.912 3.132-6.912 6.912v7.74c0 3.816 3.132 6.912 6.912 6.912h18c3.348 0 6.192-2.448 6.804-5.616h11.664v2.016c0 7.02-5.796 12.78-12.852 12.78h-29.233c-7.056 0-12.816-5.76-12.816-12.78v-14.327c0-7.092 5.76-12.852 12.816-12.852h29.232c7.056 0 12.852 5.796 12.852 12.852v1.403z"/><path d="m304.567 26.061h30.996c7.056 0 12.852 5.76 12.852 12.852v14.328c0 7.02-5.796 12.78-12.852 12.78h-30.996c-7.055 0-12.816-5.76-12.816-12.78v-14.328c0-7.093 5.761-12.852 12.816-12.852z"/><path d="m94.363 26.061h30.996c7.056 0 12.816 5.76 12.816 12.852v14.328c0 7.02-5.76 12.78-12.816 12.78h-30.996c-7.056 0-12.851-5.76-12.851-12.78v-14.328c0-7.093 5.796-12.852 12.851-12.852z"/><path d="m200.096 42.117h30.456v7.92h-30.456v6.804h32.472v9.18c-14.976 0-29.952 0-44.964 0v-39.96h44.964v9.216h-32.472z"/><path d="m154.627 55.94h28.98v10.08c-13.824 0-27.648 0-41.472 0v-39.96h12.492z"/><g fill="#fff"><path d="m310.507 35.276h19.152c3.78 0 6.913 3.132 6.913 6.912v7.74c0 3.816-3.133 6.912-6.913 6.912h-19.152c-3.816 0-6.947-3.096-6.947-6.912v-7.74c0-3.779 3.131-6.912 6.947-6.912z"/><path d="m100.268 35.276h19.152c3.816 0 6.948 3.132 6.948 6.912v7.74c0 3.816-3.132 6.912-6.948 6.912h-19.152c-3.78 0-6.912-3.096-6.912-6.912v-7.74c-.001-3.779 3.131-6.912 6.912-6.912z"/></g></svg>