<svg height="23.535437mm" viewBox="0 0 312.81662 23.535437" width="312.81662mm" xmlns="http://www.w3.org/2000/svg"><g stroke-width=".794589" transform="matrix(1.2585122 0 0 1.2585122 1029.20996 -322.824203)"><path d="m-817.79895 256.51257h248.56065v18.701h-248.56065z" fill="#5b5652"/><path d="m-727.91817 263.31903h-1.7963v5.1534h1.8743v-2.69369c0-.70245.4299-1.05436 1.2113-1.05436.7804 0 .9763.23446 1.0148.89745h1.7577c0-1.7568-.2344-2.42071-2.1087-2.42071-1.1327 0-1.5232.23446-1.9526 1.09336v-.97545zm8.6294 4.13896c-1.7954 0-2.0689-.15646-2.0689-1.0548h4.9208c-.078-2.4978-.078-3.08416-3.3975-3.08416-2.8125 0-3.4374.50745-3.4374 2.73315 0 2.06971.8208 2.57716 3.0855 2.61662 2.5386 0 3.7494-.11746 3.7494-1.79626h-1.8362c-.078.39045-.2335.58545-1.0157.58545zm-2.1083-2.14725c.078-.5469.234-.74236 1.4838-.74236 1.3677 0 1.5623.0785 1.6402.74236zm-69.824.195h1.8743c-.1561-1.75771-.6639-2.18671-3.2796-2.18671-2.9681 0-3.632.46754-3.632 2.65515 0 2.18671.6249 2.69416 3.3975 2.69416 2.9286 0 3.5146-.39045 3.5146-2.22616h-1.8744c0 .50791-.195.74281-1.6402.74281-1.2498 0-1.5228-.31245-1.5228-1.32781 0-.97635.273-.97635 1.7577-.97635 1.0925 0 1.2875.11745 1.4049.62491zm43.5422.31155c0-2.10826-.6244-2.53726-3.6318-2.53726-3.2411 0-3.6311.54645-3.6311 2.7327 0 2.18716.546 2.65561 3.6311 2.65561 3.2809.00046 3.6318-.54599 3.6318-2.85105zm-5.3497.11835c0-1.05481.2345-1.17135 1.6013-1.17135 1.5228 0 1.7958.0385 1.7958 1.17135 0 1.05436-.1955 1.24981-1.6403 1.24981-1.5618 0-1.7568-.15691-1.7568-1.24981zm22.1804-.11835c0-2.10826-.5859-2.53726-3.5916-2.53726-3.2025 0-3.5929.50654-3.5929 2.69415 0 2.22571.5464 2.69416 3.5929 2.69416 3.2792.00046 3.5916-.54599 3.5916-2.85105zm-5.3103.11835c0-1.05481.234-1.17135 1.6008-1.17135 1.5233 0 1.7963.0385 1.7963 1.17135 0 1.05436-.195 1.24981-1.6398 1.24981-1.5614 0-1.7573-.15691-1.7573-1.24981zm-44.8701-.11835c0-2.10826-.5859-2.53726-3.5924-2.53726-3.2411 0-3.632.50654-3.632 2.69415 0 2.22571.5473 2.69416 3.632 2.69416 3.2804.00046 3.5924-.54599 3.5924-2.85105zm-5.2727.11835c0-1.05481.2346-1.17135 1.5628-1.17135 1.5228 0 1.7963.0385 1.7963 1.17135 0 1.05436-.1959 1.24981-1.6403 1.24981-1.5237 0-1.7188-.15691-1.7188-1.24981zm45.1441-4.80422v3.00706c-.4294-.5859-.8199-.89745-2.3817-.89745-2.4991 0-2.9681.66391-2.9681 2.69416 0 2.07015.6643 2.65469 3.0851 2.65469 1.5232 0 1.9917-.38999 2.3431-1.05389v.93599h1.8747v-7.34101h-1.9531zm-1.3669 3.59341c1.0539 0 1.4063.156 1.4063.97545 0 1.25026-.079 1.36817-1.5618 1.36817-1.4843 0-1.8748-.0399-1.8748-1.09381 0-1.2108.4685-1.24981 2.0303-1.24981zm-35.5368-1.40577h-1.7568v5.15341h1.8742v-2.65515c0-.78046.3905-1.05345 1.4453-1.05345.9763 0 1.2497.351 1.2497 1.32735v2.38125h1.9134v-2.7327c0-.7419.5853-.9759 1.4833-.9759.8593 0 1.2497.23445 1.2497.9759v2.7327h1.8743v-3.0456c0-1.5219-.9373-2.22571-2.6551-2.22571-1.4843 0-2.0312.5469-2.2266 1.13235-.3905-.6639-.937-1.13235-2.4212-1.13235-1.4058 0-1.7963.46845-2.0307 1.32781v-1.20991zm12.6137 0h-1.7573v5.15341h1.8742v-2.65515c0-.78046.4684-1.05345 1.4054-1.05345.9768 0 1.2498.31245 1.2498 1.32735v2.38125h1.9142v-2.7327c0-.7419.5468-.9759 1.4452-.9759.8589 0 1.2879.27299 1.2879.9759v2.7327h1.8747v-3.0456c0-1.5219-.9369-2.22571-2.6552-2.22571-1.4837 0-1.9921.50746-2.2257 1.13235-.3909-.6639-.9378-1.13235-2.4216-1.13235-1.3663 0-1.7177.46845-1.9913 1.32781v-1.20991z" fill="#fff" stroke-width=".210235"/><path d="m-801.01878 266.15058h-3.0161v2.47376h5.4214zm2.4049-2.98121h-5.4215v2.4733h2.9822zm-5.5906-.16961v-3.18483c-.6435-.16959-1.0847-.23762-1.7278-.23762-3.3548 0-6.3025 2.81296-6.3025 6.30253 0 3.59206 2.9813 6.26898 6.3361 6.26898.6099 0 .9487-.068 1.6942-.2721v-3.25238c-.7459.3723-1.1178.47389-1.7278.47389-1.8638 0-3.2877-1.55817-3.2877-3.28641 0-1.79534 1.3894-3.32086 3.2532-3.32086.6445 0 1.1864.17005 1.7623.5088z" fill="#fff" stroke-width=".210235"/><g stroke-width=".502528" transform="matrix(1.5449277 0 0 1.6182923 412.86174 .591686)"><path d="m-728.9718 161.39032h1.276307v5.060489h-1.276307z" fill="#2fabc5"/><path d="m-727.27484 161.39032h1.276307v5.060489h-1.276307z" fill="#2ba7c1"/><path d="m-725.57794 161.39032h1.276307v5.060489h-1.276307z" fill="#2c9fb9"/><path d="m-723.8811 161.39032h1.276307v5.060489h-1.276307z" fill="#2da6c0"/><path d="m-722.1842 161.39032h1.276307v5.060489h-1.276307z" fill="#28b2c3"/><path d="m-720.4873 161.39032h1.276307v5.060489h-1.276307z" fill="#28a5a8"/><path d="m-718.79047 161.39032h1.276307v5.060489h-1.276307z" fill="#269857"/><path d="m-717.09351 161.39032h1.276307v5.060489h-1.276307z" fill="#319b58"/><path d="m-715.39655 161.39032h1.276307v5.060489h-1.276307z" fill="#309a57"/><path d="m-713.69971 161.39032h1.276307v5.060489h-1.276307z" fill="#2b9850"/><path d="m-712.00281 161.39032h1.276307v5.060489h-1.276307z" fill="#34a35c"/><path d="m-710.30597 161.39032h1.276307v5.060489h-1.276307z" fill="#2d974f"/><path d="m-708.60901 161.39032h1.276307v5.060489h-1.276307z" fill="#68b057"/><path d="m-706.91205 161.39032h1.276307v5.060489h-1.276307z" fill="#6faf55"/><path d="m-705.21521 161.39032h1.276307v5.060489h-1.276307z" fill="#6cae55"/><path d="m-703.51825 161.39032h1.276307v5.060489h-1.276307z" fill="#acc249"/><path d="m-701.82147 161.39032h1.276307v5.060489h-1.276307z" fill="#bac441"/><path d="m-700.12451 161.39032h1.276307v5.060489h-1.276307z" fill="#e0d640"/><path d="m-698.42755 161.39032h1.276307v5.060489h-1.276307z" fill="#dccc3d"/><path d="m-696.73071 161.39032h1.276307v5.060489h-1.276307z" fill="#ddce45"/><path d="m-695.03381 161.39032h1.276307v5.060489h-1.276307z" fill="#e2c03e"/><path d="m-693.33698 161.39032h1.276307v5.060489h-1.276307z" fill="#dc9f2d"/><path d="m-691.64001 161.39032h1.276307v5.060489h-1.276307z" fill="#e69434"/><path d="m-689.94318 161.39032h1.276307v5.060489h-1.276307z" fill="#e98f34"/><path d="m-688.24622 161.39032h1.276307v5.060489h-1.276307z" fill="#e37c20"/><path d="m-686.54932 161.39032h1.276307v5.060489h-1.276307z" fill="#ca6627"/><path d="m-684.85248 161.39032h1.276307v5.060489h-1.276307z" fill="#dd561d"/><path d="m-683.15552 161.39032h1.276307v5.060489h-1.276307z" fill="#d55522"/><path d="m-681.45862 161.39032h1.276307v5.060489h-1.276307z" fill="#d65424"/><path d="m-679.76172 161.39032h1.276307v5.060489h-1.276307z" fill="#d6481d"/><path d="m-678.06482 161.39032h1.276307v5.060489h-1.276307z" fill="#e13e28"/><path d="m-676.36792 161.39032h1.276307v5.060489h-1.276307z" fill="#dd261a"/><path d="m-674.67102 161.39032h1.276307v5.060489h-1.276307z" fill="#e92a2a"/><path d="m-672.97418 161.39032h1.276307v5.060489h-1.276307z" fill="#e22821"/><path d="m-671.27722 161.39032h1.276307v5.060489h-1.276307z" fill="#e50e10"/><path d="m-669.58038 161.39032h1.276307v5.060489h-1.276307z" fill="#e11613"/><path d="m-667.88342 161.39032h1.276307v5.060489h-1.276307z" fill="#e11413"/></g><g fill="#fff" stroke-width=".794589"><path d="m-614.14959 266.88811v-3.60576l.87615.0184.87616.0185.0204.28102c.0114.15458.0426.28105.0697.28105s.14964-.1035.27224-.22997c.37849-.3905.71598-.46443 2.11745-.46384 1.45369.0005 1.87174.0905 2.3407.50331.44316.39008.52167.6479.55456 1.8214.0338 1.20649-.0515 1.8091-.31496 2.22454-.34286.54064-1.12697.77333-2.60601.77333-1.10054 0-1.72045-.16471-2.08339-.55359-.0871-.0934-.18382-.154-.21491-.13479-.0311.0192-.0565.6283-.0565 1.35354v1.31861h-.92576-.92576zm4.59405.0946c.15859-.04.35775-.14647.44257-.23676.14282-.15203.15422-.21956.15422-.91395 0-.70264-.0103-.76052-.16041-.92052-.22735-.24201-.51753-.30206-1.45967-.30206-1.28837 0-1.53921.12587-1.65379.82989-.13738.84406.0731 1.40201.57969 1.53658.34148.0908 1.74609.0953 2.09739.007zm7.84551 1.45724c-.765-.13655-1.33526-.5413-1.6022-1.13721-.15064-.33627-.15582-.4008-.1572-2.16506v-1.81844h1.86751v1.55708c0 1.69492.0697 1.7731.46099 2.0293.14719.0963.32805.11664 1.04056.11664.74617 0 .89358-.0181 1.09383-.1341.43203-.25031.54711-.46538.57989-2.12907v-1.47292h.87631c.76893 0 .90858.0163.94249.10464v4.93956h-1.8188v-.2996c-.0114-.17275.0205-.31409 0-.31409-.23629.85457-1.4381.74241-2.06779.76263-.47279.0133-1.01969-.005-1.21533-.0393zm7.66256.0244c-1.13005-.12024-1.6868-.52879-1.81859-1.3345-.0348-.21283-.0236-.30426.0426-.34614.0494-.0313.46856-.0574.93142-.058.82971-.001.84313.001.95211.16768.22623.34527.42334.39338 1.61178.39338 1.2629 0 1.47397-.0571 1.50806-.40739.0377-.38725-.0911-.41901-1.70462-.42049-2.1383-.002-2.73632-.13355-3.09881-.68182-.16177-.24467-.17622-.32149-.17622-.93729 0-.62084.0136-.69121.18157-.94504.3618-.54651.85528-.67382 2.79408-.72081 2.37151-.0575 3.19326.12292 3.52339.77349.0927.18273.14376.3869.13225.52901l-.0188.23144-.887.0186-.88699.0186-.19189-.18384-.19188-.18384h-1.10618c-.9476 0-1.13181.0169-1.2851.11725-.22474.14725-.24019.40739-.0309.51941.0988.0528.75655.093 1.9768.12055l1.82869.0413.38337.19607c.52729.26966.70576.60883.70258 1.3353-.006 1.18059-.45834 1.57419-1.99774 1.73504-.59084.0617-2.66584.0762-3.17403.0222zm-12.17156-.13398v-7.09808h1.83997v7.09808z"/><path d="m-576.6813 270.29587v-1.61293h-3.49201-3.57876v-3.46339l5.28988-3.78927h4.38694v5.18284h1.75797v2.06982h-1.75797v1.61293zm0-6.77412h-.29157l-4.35925 2.86869.002.22268h4.6489z"/><path d="m-589.23312 270.39594c0-.0328 1.17688-2.09942 2.61529-4.59249l2.61527-4.53288h.62013.62014l-.1119.19259c-.0615.10593-1.25568 2.17254-2.65366 4.5925l-2.54175 4.39991h-.58176c-.35069 0-.58176-.0237-.58176-.0596z"/></g></g></svg>