<svg height="66.533737" viewBox="0 0 79.994444 17.603718" width="302.34122" xmlns="http://www.w3.org/2000/svg" xmlns:xlink="http://www.w3.org/1999/xlink"><radialGradient id="a" cx="56.144241" cy="262.75497" gradientTransform="matrix(1.2359333 -.00469653 .00099852 .26276895 -12.85409 202.79627)" gradientUnits="userSpaceOnUse" r="39.814793"><stop offset="0" stop-color="#ffcf64"/><stop offset="1" stop-color="#d09236"/></radialGradient><g fill="#fbe01b" stroke-width=".511011" transform="translate(-15.591072 -266.7455)"><path d="m61.550781 286.39453c-1.770371.0412-3.55565-.013-5.324219.0274-.479594.27533-.106654.9508-.230756 1.38671.01709 2.11556-.04311 4.25448.0374 6.35547.354013.38785.961447.0617 1.416016.17618 1.492667-.0172 3.012311.0435 4.488281-.0434.372895-.3728.05798-.97442.167337-1.44206.05636-.42068.04426-1.11298-.557962-.98959-1.03117.0376-2.069533-.003-3.103516.0117-.04785-.53635.739674-.15692 1.043358-.27187.815248-.0145 1.65826.0423 2.456642-.0465.362269-.37824.0536-.97253.161478-1.4401.05704-.41922.04307-1.11352-.557962-.98763-1.031465.0368-2.069452-.003-3.103516.0117-.04666-.5386.738148-.1556 1.043359-.27266.814734-.0186 1.661014.0468 2.456641-.0476.363497-.37707.05293-.97121.161478-1.43816.01263-.44413.107998-1.09312-.554056-.98958zm14.388672 0c-2.074385.0403-4.163733-.0123-6.236328.0274-.472667.29646-.113641.97085-.231542 1.42839-.04496.42346-.06722 1.15282.555761 1.03059.572193-.0414 1.14951.006 1.724609-.0117.01952 1.76498-.04856 3.55561.04102 5.30469.377295.36969.975176.0569 1.443965.16658.420947.056 1.111608.0428.989628-.55916-.03417-1.63327.000996-3.27549-.01172-4.91211.703358-.0208 1.4348.0521 2.121094-.0469.363885-.41401.04038-1.0389.162954-1.53802.02944-.42598.03905-.99325-.559439-.88972zm-42.388672.0176c-1.729113-.002-3.472671-.0201-5.195312.0137-.418842.31521-.821412.70422-1.117188 1.12891-.05026 1.88281-.0195 3.78844-.0059 5.67969.505387.41199.866527 1.26906 1.636709 1.09298 1.714866.008 3.439708.0319 5.148447-.007.459853-.30596.102718-.96774.221776-1.42449.0455-.42297.06607-1.15446-.55576-1.03059-1.330664.036-2.669946-.002-4.003906.0117 0-1.0026-.000001-2.00521 0-3.00781 1.150582-.0118 2.324138.0313 3.460937-.0332.457372-.54169.665566-1.26747 1.014983-1.88487.28581-.4516-.247676-.6388-.604827-.53896zm9.777344.004c-.530046.0379-1.143599-.1345-1.623047.0898-.249103.47605-.0061 1.08097-.100069 1.60273.01531 2.01556-.03942 4.05449.03952 6.05547.351712.38845-.235488.0389.218383.15331 1.485839-.0131 4.193104.05 5.66443-.0126.455091-.50298.620645-1.21452.982422-1.78907.355957-.42597-.170631-.7877-.574219-.63281-1.287894-.0136-2.578341-.002-3.867188-.006-.01816-1.76416.04625-3.5553-.04297-5.30273-.151341-.23777-.462716-.18226-.697266-.1582zm7.193359 0c-.529242.0379-1.142792-.13458-1.621093.0898-.25089.47498-.0053 1.08144-.10007 1.60273.01662 2.01556-.04203 4.05449.03757 6.05547.353992.38787-.247063.0731.207495.18701 1.486494-.0131 4.205289.0163 5.67727-.0463.453768-.50435.622313-1.21491.982422-1.79102.352534-.42658-.171088-.78644-.574219-.63086-1.288531-.014-2.579663-.002-3.86914-.006-.01953-1.76416.04858-3.5553-.04102-5.30273-.151814-.23846-.46414-.18181-.699219-.1582zm18.089844-.004c-1.729113-.002-3.472671-.0201-5.195312.0137-.418425.31577-.818387.7071-1.117188 1.12891-.04965 1.88281-.02119 3.78848-.0039 5.67969.505309.41127.864326 1.26992 1.634756 1.09298 1.714866.008 3.439708.0319 5.148447-.007.457929-.30737.103955-.96744.221776-1.42449.0455-.42297.06607-1.15446-.55576-1.03059-1.330638.036-2.669948-.002-4.003907.0117v-3.00781c1.150583-.0118 2.324139.0313 3.460938-.0332.457372-.54169.665566-1.26747 1.014983-1.88487.28581-.4516-.247676-.6388-.604827-.53896zm9.777344.004c-.529801.037-1.139523-.13219-1.621094.0879-.254567.47412-.0049 1.08349-.102022 1.60468.01531 2.01556-.03942 4.05449.03952 6.05547.363943.38773.978106.0637 1.445918.17635.420047.0555 1.115282.0435.989629-.55916-.04839-2.39346.04255-4.81749-.05078-7.19922-.143923-.2458-.466608-.18977-.701172-.16601zm14.388672 0c-.528142.0295-1.113022-.1073-1.607422.0684-.285123.4819-.0077 1.09868-.113281 1.62968v1.81563c-.586519-1.14714-1.136218-2.34016-1.765625-3.44922-.752811-.18647-1.566387-.006-2.341011-.0708-.648941-.0687-.416895.71206-.452073 1.09889.01752 2.21556-.04411 4.45448.03722 6.65547.366149.38715.977557.0641 1.445919.17635.420912.0554 1.113712.0439.989628-.55916-.03797-.98499.0035-1.97706-.01172-2.96484.58788 1.14605 1.134314 2.34327 1.765625 3.44921.703361.18087 1.466281.0106 2.191407.0762.502613.15236.720454-.3462.59375-.74805.0015-2.33276.04565-4.69223-.03125-7.01172-.143923-.2458-.466608-.18977-.701172-.16601zm7.318356-.002c-1.751767-.007-3.519683-.0208-5.265622.0117-.418842.31521-.821411.70422-1.117187 1.12891-.02755.98105-.06519 2.00572.02539 2.97656.492951.4074.849453 1.23376 1.603436 1.06752.975174.0154 1.95059.002 2.925861.005-.0121.56233-.882652.13616-1.247265.27263-1.052381.0184-2.135435-.0466-3.168751.0477-.359027.37915-.05423.97095-.161477 1.43815-.05414.42087-.04428 1.11026.557962.98958 1.485605-.055 3.008923.0529 4.478515-.0586.662591-.63903 1.344578-1.28696 1.951168-1.9668.0545-.99989.073-2.03875-.0117-3.02344-.39532-.3739-1.02474-.0389-1.508208-.16015h-3.021093c-.01096-.55427.809862-.14245 1.147265-.27253.79037-.0253 1.629384.0602 2.389844-.0615.410102-.6768.759632-1.41165 1.044922-2.14843-.019-.29449-.40628-.28288-.62305-.2461zm-64.490231-.004c-.458589.27539-.861518.72044-1.173828 1.14453-.04485 1.88295-.02135 3.78855-.0039 5.67969.505722.41116.86494 1.26881 1.634752 1.09359 1.413297.002 2.847133.0416 4.248061-.0155.400537-.34073.840132-.70632 1.105469-1.15039.0209-1.88352.05647-3.80861-.02734-5.67773-.493878-.40756-.849614-1.24181-1.605435-1.07031-1.392492-.0187-2.785206-.005-4.177768-.004zm44.890625 0c-.458629.27376-.859218.72146-1.173828 1.14648-.04408 1.8828-.02189 3.78713-.0039 5.67774.505386.4122.866531 1.26855 1.636705 1.09359 1.413297.002 2.847133.0416 4.248061-.0155.390914-.38058.959174-.71484 1.121262-1.2488-.02261-1.85398.05241-3.74235-.04509-5.57932-.493397-.40794-.84905-1.24237-1.605435-1.07031-1.392492-.0187-2.785206-.005-4.177768-.004zm-41.525391 2.45898v3.00781h-2.097656v-3.00781zm44.890625 0v3.00781h-2.097656v-3.00781z" fill="#000" transform="matrix(1.0739809 0 0 1.0409275 -13.009456 -27.305019)"/><path d="m17.580536 271.18604-.979012.94888v5.6949l.979012.94887h5.875731v-1.89829h-4.896721v-3.79606h3.917155l.979566-1.8983zm7.726639 0-.979012.94888v5.6949l.979012.94887h4.896166l.979567-.94887v-5.6949l-.979567-.94888zm6.74763 0v7.59265h5.875734l.979009-1.89829h-4.896166v-5.69436zm7.726641 0v7.59265h5.875731l.979013-1.89829h-4.896166v-5.69436zm7.727195 0v7.59265h5.875178v-1.89829h-3.916599v-.94887h3.916599v-1.8983h-3.916599v-.94889h3.916599v-1.8983zm7.72664 0-.979012.94888v5.6949l.979012.94887h5.875178v-1.89829h-4.896166v-3.79606h3.917154l.979012-1.8983zm6.74763 0v1.8983h2.448082v5.69435h1.958577v-5.69435h2.448086v-1.8983zm7.726639 0v7.59265h1.958578v-7.59265zm3.810043 0-.979568.94888v5.6949l.979568.94887h4.896166l.979011-.94887v-5.6949l-.979011-.94888zm6.747629 0v7.59265h1.958024v-4.74546l2.448081 4.74546h2.448085v-7.59265h-1.958024v4.74549l-2.448082-4.74549zm8.705646 0-.979005.94888v2.84772l.979005.94889h3.917162v.94887h-4.896167v1.89829h4.896167l1.958576-1.89829v-2.84717h-4.896171v-.94889h3.917728l.978443-1.8983zm-62.686126 1.8983h2.937588v3.79606h-2.937588zm48.211861 0h2.937589v3.79606h-2.937589z" fill="url(#a)"/></g></svg>