<svg height="151.44" viewBox="0 0 79.311 8.178" width="1468.714" xmlns="http://www.w3.org/2000/svg" xmlns:xlink="http://www.w3.org/1999/xlink"><linearGradient id="a"><stop offset="0" stop-color="#ffcf64"/><stop offset="1" stop-color="#d09236"/></linearGradient><radialGradient id="b" cx="40.168" cy="-26.488" gradientTransform="matrix(1 0 0 .2704 0 12.051)" gradientUnits="userSpaceOnUse" r="39.065" xlink:href="#a"/><radialGradient id="c" cx="40.168" cy="-26.488" gradientTransform="matrix(1 0 0 .2704 -.216 12.051)" gradientUnits="userSpaceOnUse" r="39.065" xlink:href="#a"/><radialGradient id="d" cx="40.168" cy="-26.488" gradientTransform="matrix(1 0 0 .2704 -.54 12.051)" gradientUnits="userSpaceOnUse" r="39.065" xlink:href="#a"/><radialGradient id="e" cx="40.168" cy="-26.488" gradientTransform="matrix(1 0 0 .2704 -.432 12.051)" gradientUnits="userSpaceOnUse" r="39.065" xlink:href="#a"/><g stroke-width=".661"><path d="m1.129 0-1.129 1.129v5.904l1.129 1.13h6.094v-2.529h-4.698v-3.107h3.635l1.262-2.527zm7.434 0-1.13 1.129v5.904l1.13 1.13h4.966l1.13-1.13v-5.903l-1.131-1.13zm6.306 0v8.162h6.162l1.262-2.527h-4.897v-5.635zm10.174 0v8.162h6.162l1.211-2.426v2.442h6.473v-2.532h-3.871v-.292h3.87v-2.532h-3.87v-.289h3.67l.001-.002h.2v-2.531h-6.473v5.635h-4.846v-5.635zm15.168 0-1.127 1.129v5.904l1.127 1.13h6.096v-2.529h-4.698v-3.107h3.635l1.262-2.527zm7.435 0-1.128 1.129v5.904l1.128 1.13h6.096v-2.529h-4.697v-3.107h3.635l1.26-2.527zm6.307 0v8.162h2.527v-8.162zm3.867 0-1.127 1.129v5.904l1.127 1.13h4.967l1.129-1.13v-5.903l-1.129-1.13zm6.307 0v8.162h2.527v-3.646l1.823 3.646h2.875v-8.162h-2.528v3.646l-1.822-3.646zm8.63 0-1.17 1.127v3.1l1.17 1.127h3.714v.292h-4.883v2.532h5.338l2.146-2.069v-3.287h-4.882v-.29h3.809l1.312-2.532zm-62.795 2.527h2.17v3.108h-2.172zm49.258 0h2.17v3.108h-2.17zm-36.903.194v2.527h2.528v-2.527z"/><g fill="url(#b)" transform="translate(-.24 -4.146)"><path d="m72.152 12v-1.883h4.883v-.941h-3.907l-.976-.941v-2.825l.976-.94h5.89l-.977 1.882h-3.936v.94h4.883v2.824l-1.953 1.882z" fill="url(#c)"/><path d="m38.804 4.47h-5.823v7.53h5.823v-1.883h-3.87v-.941h3.87v-1.882h-3.87v-.939h3.859l.002-.002h.01zm-37.301 7.515-.94-.94v-5.635l.94-.94h5.636l-.94 1.879h-3.757v3.757h4.698v1.879zm11.192-1.879v-3.757h-2.817v3.757zm-3.757 1.879-.938-.94v-5.635l.94-.94h4.696l.939.94v5.635l-.94.94zm6.496 0v-7.515h1.879v5.636h4.696l-.94 1.879z" fill="url(#d)"/><path d="m22.88 9.07v-1.88h1.879v1.88z"/><path d="m25.608 11.985v-7.515h1.879v5.636h4.696l-.939 1.879z" fill="url(#d)"/><path d="m40.587 11.985-.94-.94v-5.635l.94-.94h5.635l-.939 1.879h-3.757v3.757h4.696v1.879zm7.435 0-.94-.94v-5.635l.94-.94h5.636l-.94 1.879h-3.757v3.757h4.697v1.879zm6.496 0v-7.515h1.879v7.515zm7.435-1.879v-3.757h-2.818v3.757zm-3.757 1.879-.939-.94v-5.635l.94-.94h4.696l.939.94v5.635l-.94.94zm6.496 0v-7.515h2.348l2.349 4.697v-4.697h1.878v7.515h-2.347l-2.35-4.697v4.697z" fill="url(#e)"/></g></g></svg>