<svg height="158.2549" viewBox="0 0 452.50148 300.68431" width="238.15868" xmlns="http://www.w3.org/2000/svg"><g transform="translate(-80.429173 1.023103)"><text fill="#ef00eb" font-family="TrasksHand" font-size="3.8" stroke="#0105ff" stroke-width="4.75" transform="matrix(.96592583 -.25881905 .25881905 .96592583 0 0)" x="140.07123" y="270.98318"><tspan fill="#fafafa" fill-opacity=".4" font-size="3.8" stroke="none" stroke-width="4.75" x="140.07123" y="270.98318">John Loreth 2022</tspan></text><path d="m119.22856 38.625183c-17.575 4.709207-37.064655 22.988341-37.049378 48.74212l.03455 60.182347c.0073 12.23393 12.184913 19.88749 22.934078 26.23956l-4.97326 3.00682c-13.421328 9.2969-16.879619 22.31514-16.707601 37.81592l.463787 41.76397c.387189 34.89009 53.334244 42.39512 70.398374 41.45783l129.80383-34.78083.27187-55.71086-102.8994 27.57182c-24.45704 6.55324-33.08278-31.51936-5.73609-38.84688l286.97807-76.89554.45141 16.80742 24.72084 13.71764 43.26103-11.59176-.37364-93.632828-23.31169-13.763596-61.85887 16.575035.1298-23.263789-23.47897-14.3577349-45.86262 12.2888499.0443 43.866038-16.20944 4.343308c-.0541-.315251-.1147-.629355-.18163-.942125.56673-12.601951-20.89071-20.510184-20.89071-20.510184s-17.07567-14.090454-27.56505-9.795642c-12.23969 1.418233-22.26255 16.927527-18.88158 29.543991 1.9837 7.316339 7.38921 13.229156 14.53647 15.900578l-150.0807 40.214009c2.36236-8.55901.63083-18.41013 18.59753-25.110418l108.73922-29.563234.14165-55.510154-24.0078-13.65997938z" stroke="#000" stroke-linecap="round" stroke-linejoin="round" stroke-width="3.5"/><g stroke="#fff" stroke-linecap="round" stroke-linejoin="round" stroke-opacity=".503134" stroke-width="1.5" transform="matrix(.96592583 -.25881905 .25881905 .96592583 -22.000667 81.884442)"><path d="m419.65991 65.295814-20.03957-20.804261"/><path d="m407.91016 107.08927-20.54249-21.21625"/><path d="m96.227472 121.32077 13.868978 13.60483" fill="none"/></g><path d="m399.76449 35.71359-.0375 44.036226-45.99016 12.205245c5.15369-6.019286 8.276-14.771861 6.69239-22.391764-2.91265-14.014957-14.67948-19.008639-25.14506-16.402559-11.86257 2.953948-22.06194 16.301372-18.8579 28.259004 2.07925 7.759864 7.41494 13.971718 14.31008 16.640368l-108.5299 28.80498.53733 56.09719 264.52278-71.24604.15393 38.41914 44.29148-11.86786-.70018-93.695356-85.32407 22.862516.36382-44.123678z" fill="#fff"/><g fill="none" stroke-linejoin="round"><path d="m282.55594 261.98506.18919-27.68247m-.24426-192.021908.17114-25.586754m-52.76199 162.541522-55.51066 14.87404c-9.57438 2.56544-19.92342 15.04896-16.90794 26.30288 3.01548 11.25393 12.61822 18.39139 23.93044 15.36028l101.19891-27.11616.0693 26.25479-111.5844 29.89895c-37.1641 6.10552-38.95639-18.23889-38.80691-28.71823l.48202-33.79231c.1036-7.26325 2.01773-23.89316 30.58655-31.54815l66.68557-17.86835zm52.73496-110.55662-109.04118 29.217495c-11.31224 3.031105-19.2171 16.980585-16.186 28.292825 3.03111 11.31225 13.5725 16.17796 24.88474 13.14685l48.80983-13.07855-.77259 26.64694-58.12814 15.57538c-38.15926 5.77782-40.05642-10.30447-39.92617-24.62934l.35065-38.56544c.13102-14.410388 13.90604-26.574161 25.9129-29.791391l123.9523-33.212917zm.31187 192.91226-118.25909 31.68743c-10.36865 4.55523-53.77915 4.10886-55.01573-30.54808l-1.7431-48.85296c-.47238-13.23901 3.39773-25.98173 15.60456-33.26226-13.06735.13286-16.52695-20.74013-15.93019-40.6469l1.46038-48.715785c.45529-15.18765.58036-28.855212 36.84968-38.573546l136.57351-36.594761" stroke="#fffffd" stroke-linecap="round" stroke-width="3.5"/><g stroke="#000" transform="matrix(.96592583 -.25881905 .25881905 .96592583 -22.000667 81.884442)"><g stroke-width="6"><path d="m255.51638 135.45447-20.41815-22.35827h29.02762l9.6872 12.39754 18.39793-13.3164 19.29487.50432-31.1342 18.81662 20.78274 22.93916-28.71404-.0727-9.75264-11.62393-19.79549 11.43969-18.00641.20762z"/><g stroke-linecap="round"><path d="m455.47266 69.949219-27.99414.333984c-1.62125.03875-3.20805.477529-3.6836 2.208985l-14.82617 53.984372c-1.29536-8.65063-5.77932-14.91406-17.43945-14.91406-14.44234 0-28.41016 9.60825-28.41016 21.46094s4.5225 21.46094 18.96484 21.46094c8.46756 0 16.39319-3.30612 21.50586-8.42774l-1.28711 4.6875c-.47553 1.73145.21951 4.003 1.83985 4.00391l27.83398.0156c1.62032.0009 3.20846-.47896 3.68555-2.21094l21.65039-78.599585c.47708-1.731978-.21896-4.023236-1.83984-4.003906z"/><path d="m366.2417 86.650263c0 9.177765-9.55435 16.324847-18.77716 16.324847s-14.62159-7.147082-14.62159-16.324847c0-9.177767 9.87999-16.871425 19.10279-16.871425 9.22281 0 14.29596 7.693658 14.29596 16.871425z"/><path d="m329.16197 112.74572 26.80368.35043c2.7603.0361 2.86743.11012 2.34325 1.95533l-10.8559 38.2149c-.23878.84057.28437 1.03382-3.2053 1.07926l-26.06871.33946c-2.23933.0292-2.6486-.78162-2.34326-1.95533l10.12092-38.90478c.21897-.84172 1.65934-1.09949 3.20532-1.07927z"/></g></g><path d="m502.55375 114.44425c.42567-1.56876 2.03386-2.05445 3.92955-2.05561v.00006l25.88324-.0159c3.38467-.002 3.82356.28033 2.8727 3.72419l-20.57106 74.50458c-.43315 1.56881.3495 2.06605-3.92952 2.05559l-25.98042-.0635c-2.74585-.007-3.49548-1.54482-2.87271-3.72419l7.66844-26.83551 3.07422-11.2652c-25.25787 13.04705-42.61548-.10609-41.16581-16.17693l5.78485-21.58937h31.199l-5.07984 19.85577c-2.70131 10.08139 11.47522 9.74523 13.66491 1.57321 2.07126-6.63605 3.70219-13.27877 5.52245-19.98719z" stroke-linecap="round" stroke-width="6.00001"/></g></g></g></svg>