<svg height="190.47619" viewBox="0 0 400 190.47619048" width="400" xmlns="http://www.w3.org/2000/svg"><g fill="#e60012" stroke-width="2.16361" transform="matrix(.45645455 0 0 .46798775 -104.36852 -327.63464)"><path d="m0 0h5.93c1.124 0 2.174-.821 2.231-1.909h.054v4.471h-8.215l-.004 7.848h7.926c1.129 0 2.18-.818 2.239-1.903h.052l-.008 4.474-16.633-.007v-.049c1.12-.061 1.96-1.247 1.96-2.355v-20.559c0-1.104-.84-2.295-1.96-2.358v-.048h8.392v.048c-1.121.063-1.968 1.254-1.968 2.358z" transform="matrix(4.2524486 0 0 -4.2524486 426.90617 839.40721)"/><path d="m0 0c0-2.638 2.2-4.919 4.915-4.919 2.712 0 4.92 2.311 4.92 4.95v16.112c0 1.108-.843 2.294-1.966 2.355v.048l8.398.008v-.056c-1.121-.061-1.97-1.247-1.97-2.355v-15.656c0-5.039-4.178-7.975-9.36-7.975-5.191 0-9.414 2.936-9.414 7.975l.011 15.656c0 1.108-.847 2.294-1.962 2.355v.056h8.386v-.056c-1.118-.067-1.962-1.254-1.962-2.355z" transform="matrix(4.2524486 0 0 -4.2524486 499.9284 863.10481)"/><path d="m0 0c-1.407 2.267-4.618 1.994-4.618 1.994-5.252 0-5.004-3.995-5.004-3.995s-.361-2.004 2.278-3.371l5.251-2.782c5.069-2.712 4.468-6.566 4.468-6.566s.229-7.2-10.372-7.2c0 0-3.08-.094-4.824.558l-1.492 4.663h.052c1.615-2.322 6.307-2.657 6.307-2.657 5.957.261 5.998 4.297 5.998 4.297s.268 1.738-2.064 2.997l-5.226 2.781c-5.456 2.907-4.831 6.822-4.831 6.822s-.129 7.083 9.25 7.083c0 0 4.21-.108 4.881-.763v-3.861z" transform="matrix(4.2524486 0 0 -4.2524486 791.71951 801.67904)"/><path d="m0 0c.93-.91 2.228-1.469 3.645-1.469 2.855 0 5.166 2.246 5.166 5.022 0 2.768-2.311 5.018-5.166 5.018 0 0-3.977.367-5.767-4.581l.006 3.714c1.332 1.695 3.394 2.927 5.761 2.927 4.028 0 7.287-3.166 7.287-7.078 0-3.906-3.259-7.084-7.287-7.084-2.012 0-3.832.789-5.147 2.076l-2.506 2.739c-.687.667-1.632 1.073-2.668 1.073-2.087 0-3.779-1.64-3.779-3.666 0-2.034 1.692-3.678 3.779-3.678 0 0 2.791-.364 4.554 2.999l.006-2.974c-1.08-1.274-2.729-2.087-4.56-2.087-3.258 0-5.904 2.57-5.904 5.74 0 3.164 2.646 5.728 5.904 5.728 1.623 0 3.097-.634 4.167-1.68z" transform="matrix(4.2524486 0 0 -4.2524486 617.71354 746.68978)"/><path d="m0 0c0 1.109-.844 2.245-1.963 2.302v.048h8.379v-.048c-1.112-.062-1.96-1.199-1.96-2.302v-20.603c0-1.106.848-2.296 1.96-2.362v-.047h-8.379v.047c1.119.066 1.963 1.256 1.963 2.362z" transform="matrix(4.2524486 0 0 -4.2524486 623.42376 794.2313)"/><path d="m0 0c0 1.108.842 2.294 1.962 2.355v.049h-8.392v-.049c1.123-.061 1.961-1.247 1.961-2.355l.007-25.757s-.094-4.548-3.758-7.165l.009-.05c.723.118 8.217 1.501 8.217 8.74z" transform="matrix(4.2524486 0 0 -4.2524486 601.04863 794.45924)"/><path d="m0 0h.05c1.136 1.977 2.888 2 2.888 2h4.543l.003-20.399c0-1.104-.845-2.286-1.964-2.352v-.047h8.403v.047c-1.128.066-1.976 1.256-1.976 2.352l.006 20.399 3.797.009c1.153 0 2.066-.894 2.099-2.009h.046l1.395 4.572h-17.891z" transform="matrix(4.2524486 0 0 -4.2524486 650.57479 803.64538)"/><path d="m0 0c0-2.638 2.2-4.919 4.916-4.919 2.709 0 4.919 2.311 4.919 4.95v16.112c0 1.108-.844 2.294-1.962 2.355v.048l8.392.008v-.056c-1.113-.061-1.961-1.247-1.961-2.355v-15.656c0-5.039-4.18-7.975-9.37-7.975-5.181 0-9.405 2.936-9.405 7.975l.006 15.656c0 1.108-.845 2.294-1.966 2.355v.056h8.394v-.056c-1.124-.067-1.969-1.254-1.969-2.355z" transform="matrix(4.2524486 0 0 -4.2524486 828.40535 863.10481)"/></g><g fill="#545454" transform="translate(4.797311 57.234099)"><g fill="#545454" stroke-width=".778237" transform="matrix(1.2757325 0 0 1.2942447 -16.632235 37.208728)"><path d="m46.5 58v10h-35v-10h8v-39h-7v-12h72v25h-15v-13h-31v15h22v12h-22v12z"/><path d="m97.5 57v-39h-7v-11h26.66l16.97 34.9 17.71-34.9h28.66v11h-7l-.01 38.99 6.01.02v10.99h-32v-11l6-.01-.04-23.44-17.3 34.45h-8.32l-18.29-35.3c-.12 7.76-.02 16.53-.05 24.29 2 .01 4 .01 6 .02v10.99h-25v-11z"/><path d="m187.5 32h31v11h-31z"/><path d="m258.63 22.05c-3.81.56-5.51 4.47-5.28 7.96l-11.85-.01v-22h69v13.67c-6.54 1.89-11.25 6.33-15.21 12.13-6.39 10.15-8.97 22.33-8.79 34.19-7.72 0-15.44.04-23.15-.02 1.32-8.64 3.25-17.28 6.85-25.28 2.8-5.19 7.76-11.52 13.26-15.71 2.37-1.83 4.415-3.48 7.46-4.91z"/></g><path d="m279.40067 42.33271h112.54645v87.666069h-112.54645z" fill="none" opacity=".98" stroke="#545454" stroke-width="3"/></g></svg>