<svg height="162.6853" viewBox="0 0 272.49212 97.611182" width="454.15353" xmlns="http://www.w3.org/2000/svg"><g transform="translate(-11.065235 -10.764701)"><path d="m13.70287 89.552705-1.177263 5.266702c-.247844 1.053341-.309806 1.796875-.309806 2.540409 0 3.345904 2.292565 4.771014 9.603987 4.771014h8.426723c7.869072 0 10.781249-2.230604 12.640085-5.514548.991379-1.858836 1.672952-4.461207 2.850215-9.108297l4.709051-20.633079c.247845-.867457.433729-1.858836.433729-2.602371 0-1.487069-.681574-2.416487-1.858836-3.09806-1.672953-.929418-3.531789-.743534-8.178879-.743534h-8.178878c-6.134159 0-7.559267.557651-9.232219 1.487069-2.664332 1.425107-3.903556 4.213361-5.576508 9.108296-1.425108 4.1514-2.54041 9.727909-2.54041 12.640085 0 2.168642.867457 3.841594 2.478448 4.585129 1.115302.557651 2.354526.681573 4.771013.681573 4.523168 0 6.134159-.557651 7.869072-2.788254l1.734914-2.168642-.681573 2.974138c-.49569 2.230603-.929418 2.912176-1.982759 3.717672-1.05334.805495-2.788254 1.177262-4.832973 1.177262h-3.965517c-3.469827 0-4.956896-.619612-5.328663-2.292564zm22.120149-21.562498-2.664332 11.648706h-.681573c-1.239224 0-1.858836-.433728-1.858836-1.301185 0-.185884.06196-.619612.123922-1.053341l1.610992-6.815732c.433728-1.858836.991379-2.478448 2.354525-2.478448z" fill="#fff" stroke="#000" transform="scale(.94674385 1.0562519)"/><g fill="#fff" stroke="#000" transform="scale(.96253663 1.0389215)"><path d="m81.668301 93.660942.362785-1.632533c-1.269748-.241857-1.632533-.604642-1.632533-1.572069 0-.42325.120928-1.330213.423249-2.599961l4.051101-17.534618c.302321-1.269748.42325-2.237175.42325-2.962746 0-3.74878-2.539496-5.925491-6.953383-5.925491h-18.502045l-.967427 4.111566c-.06046.302321-.120929.846498-.120929 1.269748 0 1.87439.846499 2.539496 3.385996 2.539496h6.469669c1.632533 0 2.237175.302321 2.237175 1.330212 0 1.209284-.846498 1.692998-2.781353 1.692998h-5.139457c-5.562706 0-7.981274 1.209284-9.976593 4.8976-1.390676 2.539496-2.781353 7.981274-2.781353 11.185877 0 4.232494 3.506924 5.199921 7.316168 5.199921 4.353423 0 5.381314-.241857 6.711526-1.87439l2.479033-3.204603c-.120929.544178-.241857.967428-.302321 1.209284-.120929.604642-.181393 1.14882-.181393 1.511605 0 1.572069 1.088356 2.358104 3.204603 2.358104h1.511604zm-12.637018-15.357906-1.511605 6.651061h-1.269748c-.846499 0-1.451141-.483713-1.451141-1.209284 0-.362785.120929-.967427.241857-1.511605l.483714-2.176711c.302321-1.269748.846499-1.753461 1.934854-1.753461z"/><path d="m116.97938 82.11228h-1.5116c-1.14882 1.572069-1.57207 1.813926-3.86971 1.995319-1.02789.06046-1.87439.120928-2.23717.120928h-3.26507c-2.96275 0-4.53482-.846499-4.53482-2.358104 0-.483713.0605-1.027891.24186-1.632533l.30232-1.451141h10.46031c3.99064 0 5.01853-.483713 6.10688-2.902281.78604-1.753462 1.693-5.381314 1.693-7.678954 0-2.962745-1.45114-5.139457-4.0511-6.04642-1.39068-.544177-2.41857-.72557-6.89292-.72557h-4.53482c-10.702158 0-13.302119 4.353422-15.660223 12.697482-.604642 1.813926-1.209284 4.353422-1.87439 7.618489-.604642 2.720889-.846499 4.413886-.846499 5.683635 0 2.781353 1.269748 4.353422 3.204603 5.381313 1.753462.906963 5.199921.846499 9.976593.846499h6.227816c5.68363 0 8.34406-.423249 9.6138-5.260385zm-13.54398-9.009166.48372-2.116247c.36278-1.572069.78603-2.055782 1.81392-2.055782.78604 0 1.33022.483713 1.33022 1.330212 0 .181393-.0605.423249-.12093.72557l-.48372 2.116247z"/><path d="m135.96512 93.660942.42325-1.632533c-1.26975-.241857-1.693-.665106-1.693-1.572069 0-.42325.12093-1.330213.42325-2.599961l6.77199-29.143744.30232-1.451141c.18139-.604642.24186-1.14882.24186-1.572069 0-1.572069-1.08836-2.358104-3.20461-2.358104h-1.5116-10.88356l-.36278 1.632534c1.26974.302321 1.69299.665106 1.69299 1.572069 0 .423249-.18139 1.330212-.48371 2.59996l-6.71153 29.143744-.30232 1.451141c-.18139.665106-.24185 1.209284-.24185 1.572069 0 1.572069 1.08835 2.358104 3.2046 2.358104h1.45114z"/><path d="m167.10414 82.051816h-1.75346c-.78604 1.511605-1.63254 1.995318-3.50693 1.995318h-2.29764c-2.23717 0-3.32553-.846498-3.32553-2.781353 0-.483713.0605-.967427.1814-1.511605l1.20928-5.199921c.78603-3.325531 1.81393-4.292958 4.71621-4.292958h2.59996c2.3581 0 3.38599-.906963 3.93017-3.385995l1.26975-5.441778h-12.3347c-5.68363 0-7.86034.604642-9.91613 2.720889-1.99532 2.116247-3.56738 6.227812-5.5627 14.632336-1.08836 4.534815-1.51161 7.134776-1.51161 8.888237 0 2.902282.96743 4.534815 3.386 5.562707.8465.302321 2.47903.423249 4.59528.423249h6.59059c3.80925 0 5.7441.181393 7.37664-.786035 1.81392-1.088355 2.3581-2.116246 2.78135-3.930172z"/><path d="m194.01071 61.433524h-7.55802c-2.78135 0-4.41389.181393-5.44178.423249-3.68832.846499-5.44178 2.720889-7.2557 7.074312-.8465 2.055782-1.87439 5.441778-2.72089 8.888237-1.08836 4.655743-1.693 7.92081-1.693 9.553343 0 2.599961 1.08836 4.111566 2.41857 5.078993 1.45114 1.027891 2.96274 1.209284 7.86034 1.209284h7.31617c4.0511-.120928 6.34874-.241857 8.58592-1.813926 3.68831-2.539496 5.19992-7.316168 7.2557-16.264869.90697-4.111566 1.39068-6.288277 1.39068-8.223132 0-1.934854-.18139-3.385995-1.87439-4.716207-1.93486-1.390677-4.47435-1.209284-8.2836-1.209284zm-7.49756 10.702163c.42325-2.116247.8465-2.59996 1.93486-2.59996.78603 0 1.20928.483713 1.20928 1.390676 0 .302321 0 .665106-.12093 1.209284l-2.23717 9.674272-.1814.786035c-.42324 1.632533-.90696 2.237175-1.87439 2.237175-.84649 0-1.26974-.483714-1.26974-1.269748 0-.42325.12092-1.027892.24185-1.753462z"/></g><path d="m233.87154 106.3807c.005-.34054 1.38847-6.22355 3.07456-13.0734 1.21837-4.9497 2.24618-9.27981 2.69573-11.32836.1146-.52223.19162-.89619.22463-1.09434.0316-.24823.079-.20816-.14815-.17184-.25815.0326-.77939.18193-1.34482.39254-2.17064.80854-8.6696.58032-12.76119-.4481-14.18933-3.56647-24.43429-13.256435-26.97672-25.515303-.84465-4.072672-1.03979-14.471449-.27156-14.471449.26383 0 .4797.706378.4797 1.569726 0 2.448929 1.7751 8.705471 3.38468 11.92972 4.75516 9.525331 15.56976 14.217001 26.79553 11.624651 1.69211-.39076 4.17412-1.28646 5.51558-1.99043 3.3662-1.766543 8.35495-6.792842 10.28264-10.360053.88287-1.63374 1.69164-2.885762 1.79728-2.782271.16866.165238-5.32249 26.028999-5.85648 28.193879-.18439.74758-.15499.92025.80758.80137.92473-.1142 2.68258-.37166 5.5325-1.18077 9.98907-2.835965 17.38947-8.649205 21.48422-16.876523 5.53689-11.12497 5.04178-25.590354-1.23636-36.121784-2.32344-3.897531-8.54277-10.410268-12.23262-12.809731-3.74458-2.435046-2.74245-2.571956 1.39478-.190556 10.55925 6.077912 18.41744 14.117978 22.72417 23.250112 7.22931 15.329231 5.23073 35.923337-4.83533 49.824982-2.71232 3.74583-9.05825 9.62929-13.25506 12.28908-6.83392 4.33109-15.73739 7.60233-22.8475 8.39443-1.51676.16898-3.13552.40991-3.59724.53539-.49462.13443-.83582-.0262-.83055-.39097z" fill="#390"/></g></svg>