<svg height="69.793884" width="629.82434" xmlns="http://www.w3.org/2000/svg"><g fill="#ececec" transform="matrix(3.1542882 0 0 1.9909569 -116.036733 -122.284356)"><path d="m69.879412 65.608006h-4.159946l-1.013833 2.119973c-.5399-.988295-1.327528-1.691619-2.362887-2.109973-1.035407-.418302-2.461197-.621632-4.277375-.609992-4.145249.05836-7.651506 1.341675-10.518783 3.84995-2.867295 2.508322-4.703895 5.891608-5.509806 10.149868-.408713 2.379146-.349811 4.530783.176706 6.454916.526509 1.924148 1.475914 3.505792 2.848218 4.744939 2.03039 1.79331 4.939483 2.686631 8.727289 2.679965 1.776038.0033 3.332653-.22333 4.669851-.679991 1.337158-.456661 2.478424-1.163317 3.423803-2.119972l.412041 2.199971h3.519954l1.163846-6.599914c.25435-1.371641.430415-2.228296.528193-2.569967.09772-.341653.234453-.578317.410199-.709991.142349-.159988.355173-.279986.638474-.359995.28324-.07999.671955-.119988 1.166147-.119998h1.199984l.641879-3.639953h-14.559811l-.641879 3.639953h1.679978c.49458-.0025.870069.03251 1.126469.104999.256358.07251.42598.197507.508866.374994.129258.131675.182522.368339.159794.709991-.02277.341671-.148836 1.198326-.378195 2.569967l-.04938.279996c-.184587 1.074991-.583892 1.86498-1.197917 2.369969-.614064.504997-1.478138.754994-2.592222.749991-.743194-.000831-1.422124-.139162-2.036793-.414995-.614699-.275826-1.146018-.684153-1.593958-1.224984-.755561-.90415-1.22952-2.015801-1.42188-3.334958-.192385-1.31914-.116416-2.940783.227905-4.864936.605721-3.392439 1.626552-5.977403 3.062496-7.754899 1.435913-1.777455 3.228715-2.672442 5.378411-2.684965 1.005896.0042 1.866988.205854 2.583278.604992.716243.399184 1.252094.970843 1.607553 1.714978.289748.568347.469825 1.191671.540231 1.869975.07035.678343.05753 1.601664-.03847 2.769964h4.159946z"/><path d="m84.883997 65.608006-10.340825 20.07974c-.600578 1.208322-1.137232 2.011644-1.609966 2.409968-.472739.398332-1.11006.581663-1.911963.549993h-1.279983l-.641879 3.639953h12.159842l.641879-3.639953h-1.719978c-.673922.0033-1.14373-.07333-1.409423-.229997-.265712-.15666-.363782-.413323-.294212-.76999.0058-.09916.05589-.250826.150234-.454995.09433-.204158.346122-.705817.755386-1.504979l1.046779-2.079973h8.199894l.313203 2.079973c.108513.797495.171126 1.302488.187839 1.51498.01667.212503.0075.3875-.02758.524993-.04791.370833-.216702.619162-.50637.74499-.289704.125835-.814983.184168-1.575838.174998h-1.55998l-.641879 3.639953h15.199803l.64188-3.639953h-1.319984c-.387231-.0017-.735761-.03833-1.045591-.109998-.309886-.07166-.537836-.168327-.68385-.289996-.142006-.154162-.288711-.465824-.440114-.934989-.151458-.469155-.267604-1.010814-.348438-1.624978l-2.659006-20.07974zm3.272409 14.559811h-6.039921l4.707022-8.999883z"/><path d="m131.93696 69.92795-2.63805 14.959806c-.25441 1.371655-.43047 2.22831-.52819 2.569967-.0978.341666-.23451.57833-.4102.709991-.14241.160002-.35523.28-.63848.359995-.28329.08-.67201.120002-1.16614.119998h-1.35998l-.64188 3.639953h15.5598l.64188-3.639953h-2.23998c-.49419.000004-.8688-.03999-1.12382-.119998-.25509-.07999-.4256-.199993-.51151-.359995-.12579-.151661-.17729-.398325-.15451-.739991.0227-.341657.14702-1.188312.37291-2.539967l2.09492-11.879846c.25434-1.371628.43041-2.228283.5282-2.569967.0977-.34164.23444-.578303.4102-.70999.14233-.159975.35516-.279974.63847-.359996.28323-.07998.67195-.119975 1.16615-.119998h2.23997l.64188-3.639953h-15.5598l-7.09666 16.19979-1.34323-16.19979h-15.5598l-.64188 3.639953h2.23997c.49415.000023.86876.04002 1.12383.119998.25504.08002.42555.200021.51151.359996.12927.131687.18253.368351.15979.709991-.0228.341683-.14882 1.198338-.37819 2.569966l-2.09493 11.879846c-.25086 1.351655-.42516 2.19831-.5229 2.539967-.0978.341666-.23625.58833-.41549.739991-.14239.160002-.35521.28-.63848.359995-.28327.08-.67199.120002-1.16614.119998h-2.23997l-.64188 3.639953h12.27984l.64188-3.639953h-1.35998c-.49418.000004-.86878-.03999-1.12383-.119998-.25507-.07999-.42557-.199993-.51151-.359995-.12929-.131661-.18255-.368325-.15979-.709992.0227-.341657.1488-1.198312.37819-2.569966l2.63806-14.959806 2.25695 22.35971h6.27991z"/><path d="m156.44649 65.608006-10.34082 20.07974c-.60058 1.208322-1.13723 2.011644-1.60997 2.409968-.47274.398332-1.11006.581663-1.91196.549993h-1.27998l-.64188 3.639953h12.15984l.64188-3.639953h-1.71998c-.67392.0033-1.14373-.07333-1.40942-.229997-.26571-.15666-.36379-.413323-.29421-.76999.006-.09916.0559-.250826.15023-.454995.0943-.204158.34612-.705817.75539-1.504979l1.04677-2.079973h8.1999l.3132 2.079973c.10851.797495.17113 1.302488.18784 1.51498.0167.212503.007.3875-.0276.524993-.0479.370833-.2167.619162-.50637.74499-.2897.125835-.81498.184168-1.57584.174998h-1.55998l-.64188 3.639953h15.19981l.64187-3.639953h-1.31998c-.38723-.0017-.73576-.03833-1.04559-.109998-.30988-.07166-.53783-.168327-.68385-.289996-.14201-.154162-.28871-.465824-.44011-.934989-.15146-.469155-.26761-1.010814-.34844-1.624978l-2.65901-20.07974zm3.27241 14.559811h-6.03992l4.70702-8.999883z"/><path d="m176.9271 65.608006-3.19661 8.584027 3.85714 1.815838c.38993-2.334117 1.11686-4.055759 2.18078-5.164932 1.0639-1.10913 2.48097-1.64079 4.25121-1.59498l-2.75796 15.639797c-.25439 1.371655-.43046 2.22831-.52819 2.569967-.0978.341666-.2345.57833-.4102.709991-.14239.160002-.35522.28-.63848.359995-.28328.08-.67199.120002-1.16614.119998h-2.23997l-.64188 3.639953h16.59978l.64188-3.639953h-2.23997c-.49418.000004-.86879-.03999-1.12383-.119998-.25507-.07999-.42557-.199993-.5115-.359995-.1293-.131661-.18257-.368325-.1598-.709992.0227-.341657.1488-1.198312.3782-2.569966l2.75796-15.639797h.83999c1.48133.0017 2.51216.488349 3.0925 1.459981.58028.971674.70184 2.418321.36467 4.339944l-.16929.959987 4.37624-1.139226-1.1942-9.391066z"/><path d="m229.82207 65.608006h-26.51609l-.64188 3.639953h2.23997c.49415.000023.86876.04002 1.12382.119998.25505.08002.42555.200021.51151.359996.12927.131687.18254.368351.1598.709991-.0228.341683-.14883 1.198338-.3782 2.569966l-2.09492 11.879846c-.25439 1.371655-.43045 2.22831-.52819 2.569967-.0978.341666-.23449.57833-.4102.709991-.14239.160002-.35521.28-.63848.359995-.28327.08-.67199.120002-1.16614.119998h-2.23997l-.64188 3.639953h26.51609l4.17393-9.493201-5.48469-1.426657c-.22645 1.080829-.41733 1.88915-.57262 2.424968-.15535.535835-.34156 1.034161-.55863 1.494981-.34634.754162-.82635 1.415819-1.44002 1.984973-.61372.569164-1.26611.960826-1.95717 1.174986-.32442.09583-.6697.154168-1.03585.174997-.36619.02084-1.19265.02917-2.47938.025h-4.39994l1.4601-8.279892h1.23998c1.1134-.01 1.87244.260008 2.27713.809989.40466.550004.49438 1.439991.26917 2.669966l-.14108.799989h3.51996l2.11608-11.999844h-3.51995c-.13233.755009-.25098 1.305001-.35596 1.649979-.10503.345013-.22783.635009-.36842.869988-.29847.558343-.70135.971671-1.20865 1.239984-.50733.268346-1.12083.401677-1.84051.399995h-1.35998l1.33313-7.559902h5.27993c.66178-.00081 1.15639.01086 1.48381.035.32738.02419.59669.06585.80795.124998.4817.122521.90064.317519 1.25682.584993.35613.267518.63215.592514.82806.974987.2921.611679.46748 1.318336.52614 2.119972.0586.801675-.008 1.748328-.20081 2.839963l5.80587-1.141326z"/></g></svg>