<svg height="98.574" viewBox="0 0 566.929 98.574" width="566.929" xmlns="http://www.w3.org/2000/svg" xmlns:xlink="http://www.w3.org/1999/xlink"><linearGradient id="a"><stop offset=".0051" stop-color="#2e5c92"/><stop offset="1" stop-color="#2e3192"/></linearGradient><linearGradient id="b" gradientUnits="userSpaceOnUse" x1="527.771" x2="527.771" xlink:href="#a" y1="-.7129" y2="98.7871"/><linearGradient id="c" gradientUnits="userSpaceOnUse" x1="290.7378" x2="290.7378" xlink:href="#a" y1="-.7129" y2="98.7871"/><linearGradient id="d" gradientUnits="userSpaceOnUse" x1="127.5713" x2="127.5713" xlink:href="#a" y1="-.7129" y2="98.7871"/><linearGradient id="e" gradientUnits="userSpaceOnUse" x1="458.9937" x2="458.9937" xlink:href="#a" y1="-.7129" y2="98.7871"/><linearGradient id="f" gradientUnits="userSpaceOnUse" x1="378.9214" x2="378.9214" xlink:href="#a" y1="-.7129" y2="98.7871"/><linearGradient id="g" gradientUnits="userSpaceOnUse" x1="538.5981" x2="538.5981" xlink:href="#a" y1="-.7129" y2="98.7871"/><linearGradient id="h" gradientUnits="userSpaceOnUse" x1="539.144" x2="539.144" xlink:href="#a" y1="-.7129" y2="98.7871"/><path d="m488.615.917h24.029l11.869 27.298 17.799-27.298h24.615l-34.707 53.996-5.635 42.128h-22.248l6.526-48.068z" fill="url(#b)"/><path d="m311.798 97.041 2.967-21.37h-33.814l2.076-16.605h29.365l2.971-21.36h-29.072l2.078-15.43h33.812l3.266-21.359h-56.068l-13.35 96.124z" fill="url(#c)"/><path d="m112.146 49.565 7.416-19.874 2.375 19.874zm-8.009 18.987h20.172l3.563 28.48h36.488l16.91-52.213 8.309 52.213h19.283l21.359-55.179 3.561 55.179h21.359l-5.934-96.119h-25.514l-19.875 50.728-7.715-50.728h-22.842l-26.105 78.912-9.791-78.912h-28.48l-31.744 79.8 4.154-31.149h-38.566l-2.672 18.987h16.912l-1.188 6.526c-2.967 1.778-9.789 2.075-12.459 2.075s-22.545-1.778-21.656-23.139c.889-21.359 29.369-41.235 63.188-30.259l3.266-20.47c-22.548-7.711-81.766-3.395-87.815 49.544-3.559 31.148 24.921 45.982 43.906 45.688 10.977.594 23.438-3.561 27.887-5.935l-1.482 4.451h22.547z" fill="url(#d)"/><path d="m464.582.028c-15.428-.594-37.678 8.306-45.094 44.204-7.416 35.894 12.459 50.431 30.852 52.804 18.396 2.373 44.205-9.196 48.951-43.609 4.748-34.414-12.166-52.508-34.709-53.399zm-2.374 20.47c6.229 0 19.578 4.154 16.314 29.071-3.264 24.92-18.689 27.887-24.326 27.292-5.639-.594-17.207-4.447-13.943-27.292 3.262-22.841 15.424-29.368 21.955-29.071z" fill="url(#e)"/><path d="m370.833 37.706h12.461c9.197 0 10.977-5.934 11.271-8.305.297-2.375-2.371-7.122-7.117-7.122h-14.537zm-5.339 37.971h16.912c9.193 0 11.27-7.118 11.564-9.493.299-2.373-2.371-7.117-7.117-7.117h-18.984zm-24.918 21.361 13.35-96.118h40.938c9.793 0 24.031 11.274 22.252 26.403-1.779 15.13-6.527 16.02-9.791 18.393 5.045 4.447 10.088 11.568 8.012 24.918-2.078 13.353-13.055 26.403-32.338 26.403z" fill="url(#f)"/><path d="m538.619 82.498c-3.66 0-6.615 2.951-6.615 6.593 0 3.681 2.953 6.634 6.615 6.634 3.641 0 6.592-2.953 6.592-6.634-.003-3.643-2.956-6.593-6.592-6.593v-.907c4.148 0 7.498 3.366 7.498 7.5 0 4.173-3.35 7.538-7.498 7.538-4.174-.001-7.539-3.365-7.539-7.538 0-4.135 3.365-7.499 7.539-7.499z" fill="url(#g)"/><path d="m536.839 85.639h2.402c1.045 0 2.182.156 2.182 1.457 0 1.711-1.828 1.516-3.01 1.516l-1.574-.002v.809h1.893l2.4 3.878h1.219l-2.539-3.878c1.496-.038 2.656-.648 2.656-2.302 0-.71-.313-1.457-.943-1.813-.629-.373-1.34-.412-2.049-.412h-3.656v8.403h1.02v-7.656z" fill="url(#h)"/></svg>