<svg enable-background="new 0 0 381.402 95.656" height="95.656" viewBox="0 0 381.402 95.656" width="381.402" xmlns="http://www.w3.org/2000/svg" xmlns:xlink="http://www.w3.org/1999/xlink"><linearGradient id="a" gradientTransform="matrix(1 0 0 -1 -244.5625 393.1873)" gradientUnits="userSpaceOnUse" x1="511.772" x2="455.7005" y1="-120.8815" y2="-121.5958"><stop offset="0" stop-color="#1a00ca"/><stop offset="1" stop-color="#fff"/></linearGradient><linearGradient id="b" gradientTransform="matrix(1 0 0 -1 -244.5625 393.1873)" gradientUnits="userSpaceOnUse" x1="485.0806" x2="519.1877" y1="-58.7042" y2="-111.3828"><stop offset="0" stop-color="#dc0000"/><stop offset="1" stop-color="#fff"/></linearGradient><linearGradient id="c" gradientTransform="matrix(1 0 0 -1 -244.5625 393.1873)" gradientUnits="userSpaceOnUse" x1="442.1694" x2="481.4542" y1="-108.6329" y2="-58.277"><stop offset="0" stop-color="#23ab00"/><stop offset="1" stop-color="#fff"/></linearGradient><radialGradient id="d" cx="414.1997" cy="45.2001" gradientTransform="matrix(1.8578 -.0092 -.0079 -1.5965 -545.5681 553.6742)" gradientUnits="userSpaceOnUse" r="36.2284"><stop offset="0" stop-color="#fff"/><stop offset=".1508" stop-color="#fff"/><stop offset=".5373" stop-color="#6e60d1"/><stop offset=".7932" stop-color="#2a2070"/><stop offset="1" stop-color="#fff"/></radialGradient><radialGradient id="e" cx="513.021" cy="-226.4459" gradientTransform="matrix(.726 0 0 -.7123 -147.0768 315.7767)" gradientUnits="userSpaceOnUse" r="9.2175"><stop offset="0" stop-color="#fff"/><stop offset=".7328" stop-color="#fff"/><stop offset="1" stop-color="#fff" stop-opacity="0"/></radialGradient><g transform="translate(-188.5625 -442.53111)"><path d="m278.281 514.719-41.285-24-42.246 23c8.256 14.591 23.962 24.469 42.031 24.469 17.657-.001 33.1-9.426 41.5-23.469z" fill="url(#a)"/><path d="m237 442.531v48.191l41.281 23.996c4.269-7.136 6.719-15.444 6.719-24.344 0-26.339-21.472-47.726-48-47.843z" fill="url(#b)"/><path d="m236.781 442.531c-26.628 0-48.219 21.432-48.219 47.844 0 8.489 2.277 16.433 6.188 23.344l42.246-23 .004-48.188c-.073 0-.146 0-.219 0z" fill="url(#c)"/><g fill="#fff"><path d="m366.875 508.97h17.143l10.179-29.197h25.893c1.629 2.498.99 4.883-2.143 7.143h-17.768l-2.5 8.393h27.678c13.42-7.098 16.463-20.75 7.768-24.553h-52.678z"/><path d="m307.411 509.058h44.732c8.276-3.095 11.383-12.299 14.553-21.428h-24.196c-1.175 1.646-2.157 3.383-2.143 5.268h9.286l-2.857 7.053h-28.125c-.863-1.25 5.607-18.731 7.054-20.089h43.303l3.75-8.929h-52.411c-7.716 2.822-10.855 10.002-13.661 17.5-1.22 7.38-9.218 17.106.715 20.625z"/><path d="m434.107 509.058h50.982c8.338-3.656 14.564-8.961 13.215-20.178 5.934-7.069 8.596-13.567-.357-18.036h-50.625l-3.304 9.107h42.679c.109 1.817.738 3.687-1.414 5.278h-37.783l-3.393 7.758h37.947c-.054 2.923-.354 5.633-2.055 7.144h-42.32z"/><path d="m500.179 508.97h59.643l2.41-8.394h-42.59c-1.146-2.072.918-5.022 2.232-7.768h36.16c9.65-3.37 17.252-15.876 7.145-22.053h-49.645c-3.242 1.184-3.666 5.422-4.463 9.286h40.982c2.121 1.07.699 3.704-.537 4.821h-36.25c-10.903 5.359-12.122 15.407-15.087 24.108z"/></g><path d="m276.071 490.22c0 21.696-17.668 39.285-39.464 39.285-21.795 0-39.464-17.589-39.464-39.285 0-21.697 17.668-39.286 39.464-39.286 21.796-.001 39.464 17.588 39.464 39.286z"/><path d="m236.781 455.031c-19.725 0-35.719 15.759-35.719 35.188s15.994 35.188 35.719 35.188c19.448 0 35.279-15.322 35.719-34.375-6.013-.016-12.376-.062-18.688-.062h-12.875v8.969h12.156c-3.398 5.561-9.562 9.312-16.625 9.312-10.725 0-19.406-8.579-19.406-19.156s8.681-19.156 19.406-19.156c7.907 0 14.715 4.655 17.75 11.344h17.344c-3.657-15.602-17.832-27.252-34.781-27.252z" fill="url(#d)" stroke="#000" stroke-width="1.0177"/><path d="m232.083 477.08c0 3.626-2.996 6.566-6.692 6.566s-6.692-2.94-6.692-6.566c0-3.626 2.996-6.566 6.692-6.566 3.695.001 6.692 2.94 6.692 6.566z" fill="url(#e)"/></g></svg>