<svg height="44.245575mm" viewBox="0 0 392.0683 94.413228" width="183.73788mm" xmlns="http://www.w3.org/2000/svg" xmlns:xlink="http://www.w3.org/1999/xlink"><linearGradient id="a" gradientUnits="userSpaceOnUse" x1="-101.57909" x2="-101.510677" y1="-66.60585" y2="25.35875"><stop offset="0" stop-color="#ff7113"/><stop offset=".25900468" stop-color="#ff7113"/><stop offset="1" stop-color="#fff601"/></linearGradient><path d="m-80.510783-34.082553c3.54977 0 18.584407.0592 21.006417.16765l-.006-14.72638.0147-17.82832 20.68175.067s.13634 53.7823.30357 65.1541997c.18571 3.83393.89044 3.90714 1.36765 4.88492 1.27159 2.60544 3.22526 3.72222 8.178 3.72222.01.025 4.86723.60469 7.51643-1.96429s2.43792-7.65706 2.43792-7.65706l.82143-47.8785997s9.6608197-.31454 19.8481997-.17857c21.2049003-.50784 24.5498003 6.29659 28.3588003 10.5954 2.87816 4.09214 3.07805 6.29131 3.31775 11.7076.56178 11.1248-1.58115 16.5638-10.1776 21.8755997l-1.59933 1 20.5825 27.9646003h-24.0982l-16.5342003-24.3866003-.30882 3.95653c-.56626005 7.25478-2.80506 11.2374003-4.90837 14.4136003-1.35699 2.04917-3.83975 3.99974-7.2331897 5.6972-5.26895 3.85044-10.3309 3.51496-15.8929 3.74278-5.14506.21075-11.2011-.39964-13.6761-.91982l.00006-.00009c-5.92333-1.24503-11.9644-5.58823-14.7296-10.5899-3.2622-5.9004903-4.40698-8.3500803-4.2506-17.9498003l-.006-12.9064297c-7.64523-.0853-14.15599-.19854-21.014167-.0255v41.50335h-20.999997l-.0684-91.96462 20.979977.0679c.0237 11.12904.0875 22.84077.0883 32.45543zm227.027203 59.76265c-8.90103-3.25027-13.3233-8.86118-16.9225-16.1162003-7.51286-15.1437-6.5115-36.1808997 2.62165-47.2989997 5.2282-6.36447 11.6331-11.4425 19.1943-13.5675 6.64562-1.86767 17.3467-1.74834 22.0718.64696l4.07494 2.06574v22.0219s-3.55384-2.98645-5.52255-4.20014c-1.44909-.89336-2.39011-1.65452-4.5881-2.24297-2.39496-.64118-6.26192-.43789-6.26192-.43789-6.69291.55503-10.8042 3.33667-13.6645 9.24513-2.46381 5.08954-2.97431 14.1722-1.11347 19.8105997 1.52702 4.62691999 7.94845 10.4485 12.4583 11.2946 8.82356 1.65531 14.6923-3.80839 38.4463-35.7925997l16.1533-21.5947h28.5253l29.2691 44.3977997.26913-44.3977997h18.9617v73.3094h-19.1461l-29.8539-44.1881v44.1881h-20v-15.4647003l-28.5.001-5.66989 6.6844803s-4.04623 4.5109-6.42882 6.28271c-1.93284 1.43735-4.09545 2.62219-6.2771 3.64311s-4.2341 2.29131-6.58959 2.79489c-3.19546.68316-6.11519 1.09022-9.29472 1.03793-2.86771-.0472-6.33642.20931-12.2127-2.12274zm74.9728-56.6255-18.5018 25.2146997 18.5018-.12105zm-208.556706 11.08162c2.03952-2.91182 1.98807-8.64336-.0983-10.9488-1.11958-1.23714-3.0606003-1.82874-5.9999903-1.82874h-4.34501v15h6.49687c2.7182303-.0749 3.0631303-.98134 3.9464303-2.22251zm88.569996 42.6872v-73.3094h19.8024l.20932 73.3094m-20.6936 0h-22.559596l-15.6959-25.0853003-.0341 25.0853003h-19.0242v-73.4647h18.895c16.3014 0 23.4228 2.16135 29.1821 11.4011 2.63896 4.23373 2.4836 17.0386.83445 22.1416-1.30747 4.04577-6.37927 9.2547697-9.21052 10.3411997l-1.7815.68358m-6.66923-19.9480997c0-5.31915-3.0848-7.47684-7.14341-7.64012l-5.12445.0286v15.9922h4.93821c4.46748 0 7.78949-2.77057 7.32965-8.38072z" fill="url(#a)" opacity=".98" transform="translate(101.57908 66.605883)"/></svg>