<svg height="250.16606" width="505.23486" xmlns="http://www.w3.org/2000/svg"><g transform="translate(-123.53955 -552.17918)"><path d="m161.61946 781.07669h45.31149v-116.91423h-45.31149z" fill="#fff" stroke="#fff" stroke-width="24.605751"/><path d="m0 0-3.487 3.414-3.516-3.414 3.516-3.413z" fill="#fff" transform="matrix(12.302876 0 0 -12.302876 227.34507 611.38677)"/><path d="m0 0-3.487 3.414-3.516-3.414 3.516-3.413z" fill="none" stroke="#fff" stroke-width="2" transform="matrix(12.302876 0 0 -12.302876 227.34507 611.38677)"/><path d="m0 0c-.044-.015-.111-.038-.198-.071-.067-.024-.132-.046-.198-.071-.199-.071-.406-.194-.623-.369-.217-.174-.395-.395-.535-.662-.14-.269-.26-.656-.364-1.165l-.048-.279-.619 1.718-3.231-1.165 3.223-8.94 3.463 1.248-1.202 3.332-.101.281c-.139.386-.198.725-.18 1.018-.023.477.057.852.238 1.122.183.272.509.492.982.662l.232.084-.529 3.276z" fill="#fff" transform="matrix(12.302876 0 0 -12.302876 288.73405 651.25055)"/><path d="m0 0c-.044-.015-.111-.038-.198-.071-.067-.024-.132-.046-.198-.071-.199-.071-.406-.194-.623-.369-.217-.174-.395-.395-.535-.662-.14-.269-.26-.656-.364-1.165l-.048-.279-.619 1.718-3.231-1.165 3.223-8.94 3.463 1.248-1.202 3.332-.101.281c-.139.386-.198.725-.18 1.018-.023.477.057.852.238 1.122.183.272.509.492.982.662l.232.084-.529 3.276z" fill="none" stroke="#fff" stroke-width="2" transform="matrix(12.302876 0 0 -12.302876 288.73405 651.25055)"/><path d="m0 0c-.538.864-1.172 1.517-1.903 1.955-.73.438-1.522.658-2.375.658-.059 0-.139-.004-.237-.009-.1-.007-.219-.015-.36-.026-1.087-.13-1.988-.546-2.7-1.253-.714-.706-1.164-1.619-1.35-2.74-.036-.268-.053-.525-.053-.771 0-.864.204-1.646.614-2.345.41-.701 1.026-1.294 1.845-1.779.82-.485 1.745-.726 2.776-.726h.326c.134 0 .266.012.395.035.668.094 1.27.246 1.81.457.539.211 1.018.48 1.441.807l-1.54 2.528-.105-.07-.124-.085c-.304-.183-.59-.321-.859-.411-.386-.138-.738-.206-1.055-.206-.175 0-.351.015-.526.049l-.474.143 4.683 3.368c-.083.14-.159.28-.229.421m-5.689-2.393-.082.348c0 .046-.012.115-.033.209v.19c0 .441.132.797.395 1.07.264.271.607.408 1.031.408.08 0 .246-.02.491-.059.247-.038.47-.168.67-.388z" fill="#fff" transform="matrix(12.302876 0 0 -12.302876 411.01106 695.66895)"/><path d="m0 0c-.538.864-1.172 1.517-1.903 1.955-.73.438-1.522.658-2.375.658-.059 0-.139-.004-.237-.009-.1-.007-.219-.015-.36-.026-1.087-.13-1.988-.546-2.7-1.253-.714-.706-1.164-1.619-1.35-2.74-.036-.268-.053-.525-.053-.771 0-.864.204-1.646.614-2.345.41-.701 1.026-1.294 1.845-1.779.82-.485 1.745-.726 2.776-.726h.326c.134 0 .266.012.395.035.668.094 1.27.246 1.81.457.539.211 1.018.48 1.441.807l-1.54 2.528-.105-.07-.124-.085c-.304-.183-.59-.321-.859-.411-.386-.138-.738-.206-1.055-.206-.175 0-.351.015-.526.049l-.474.143 4.683 3.368c-.083.14-.159.28-.229.421zm-5.689-2.393-.082.348c0 .046-.012.115-.033.209v.19c0 .441.132.797.395 1.07.264.271.607.408 1.031.408.08 0 .246-.02.491-.059.247-.038.47-.168.67-.388z" fill="none" stroke="#fff" stroke-width="2" transform="matrix(12.302876 0 0 -12.302876 411.01106 695.66895)"/><path d="m0 0c-.445.577-1.13.865-2.056.865-.503 0-.925-.094-1.265-.282-.339-.187-.685-.517-1.035-.986l-.194-.3-.123.317c-.223.377-.47.658-.738.846-.27.187-.621.311-1.055.37-.047 0-.12.006-.219.017-.099.012-.184.018-.255.018-.598 0-1.148-.2-1.651-.599-.282-.246-.51-.54-.686-.881v1.51h-3.475v-9.503h3.475v4.642.333.264c0 .632.235.948.703.948h.126c.035 0 .103-.01.199-.026.096-.019.198-.1.306-.242.107-.144.162-.317.162-.52v-.16-.084-.275-4.88h3.476v4.66.263.316c0 .573.213.889.639.948h.164c.462 0 .693-.23.693-.688v-.344-.275-4.88h3.476v4.733.422.559c0 1.352-.222 2.317-.667 2.894" fill="#fff" transform="matrix(12.302876 0 0 -12.302876 579.83978 676.32509)"/><path d="m0 0c-.445.577-1.13.865-2.056.865-.503 0-.925-.094-1.265-.282-.339-.187-.685-.517-1.035-.986l-.194-.3-.123.317c-.223.377-.47.658-.738.846-.27.187-.621.311-1.055.37-.047 0-.12.006-.219.017-.099.012-.184.018-.255.018-.598 0-1.148-.2-1.651-.599-.282-.246-.51-.54-.686-.881v1.51h-3.475v-9.503h3.475v4.642.333.264c0 .632.235.948.703.948h.126c.035 0 .103-.01.199-.026.096-.019.198-.1.306-.242.107-.144.162-.317.162-.52v-.16-.084-.275-4.88h3.476v4.66.263.316c0 .573.213.889.639.948h.164c.462 0 .693-.23.693-.688v-.344-.275-4.88h3.476v4.733.422.559c0 1.352-.222 2.317-.667 2.894z" fill="none" stroke="#fff" stroke-width="2" transform="matrix(12.302876 0 0 -12.302876 579.83978 676.32509)"/><path d="m0 0c.169 0 .335-.044.496-.131.162-.088.288-.212.378-.374.089-.162.135-.331.135-.507s-.045-.342-.134-.503-.213-.285-.373-.375c-.16-.089-.327-.132-.502-.132s-.343.043-.502.132c-.161.09-.286.214-.374.375-.09.161-.135.327-.135.503s.046.345.136.507c.091.162.217.286.378.374.162.087.327.131.497.131" fill="#fff" transform="matrix(12.302876 0 0 -12.302876 610.32011 647.17839)"/><path d="m0 0c.169 0 .335-.044.496-.131.162-.088.288-.212.378-.374.089-.162.135-.331.135-.507s-.045-.342-.134-.503-.213-.285-.373-.375c-.16-.089-.327-.132-.502-.132s-.343.043-.502.132c-.161.09-.286.214-.374.375-.09.161-.135.327-.135.503s.046.345.136.507c.091.162.217.286.378.374.162.087.327.131.497.131z" fill="none" stroke="#fff" transform="matrix(12.302876 0 0 -12.302876 610.32011 647.17839)"/><path d="m161.61946 781.48269h45.31149v-116.91423h-45.31149z" fill="#f0394a"/><g fill="#4349a6"><path d="m0 0-3.487 3.414-3.516-3.414 3.516-3.413z" transform="matrix(12.302876 0 0 -12.302876 227.34507 611.79532)"/><path d="m0 0c-.044-.015-.111-.038-.198-.071-.067-.024-.132-.046-.198-.071-.199-.071-.406-.194-.623-.369-.217-.174-.395-.395-.535-.662-.14-.269-.26-.656-.364-1.165l-.048-.279-.619 1.718-3.231-1.165 3.223-8.94 3.463 1.248-1.202 3.332-.101.281c-.139.386-.198.725-.18 1.018-.023.477.057.852.238 1.122.183.272.509.492.982.662l.232.084-.529 3.276z" transform="matrix(12.302876 0 0 -12.302876 288.73405 651.6591)"/><path d="m0 0c-.538.864-1.172 1.517-1.903 1.955-.73.438-1.522.658-2.375.658-.059 0-.139-.004-.237-.009-.1-.007-.219-.015-.36-.026-1.087-.13-1.988-.546-2.7-1.253-.714-.706-1.164-1.619-1.35-2.74-.036-.268-.053-.525-.053-.771 0-.864.204-1.646.614-2.345.41-.701 1.026-1.294 1.845-1.779.82-.485 1.745-.726 2.776-.726h.326c.134 0 .266.012.395.035.668.094 1.27.246 1.81.457.539.211 1.018.48 1.441.807l-1.54 2.528-.105-.07-.124-.085c-.304-.183-.59-.321-.859-.411-.386-.138-.738-.206-1.055-.206-.175 0-.351.015-.526.049l-.474.143 4.683 3.368c-.083.14-.159.28-.229.421m-5.689-2.393-.082.348c0 .046-.012.115-.033.209v.19c0 .441.132.797.395 1.07.264.271.607.408 1.031.408.08 0 .246-.02.491-.059.247-.038.47-.168.67-.388z" transform="matrix(12.302876 0 0 -12.302876 411.01106 696.07731)"/><path d="m0 0c-.445.577-1.13.865-2.056.865-.503 0-.925-.094-1.265-.282-.339-.187-.685-.517-1.035-.986l-.194-.3-.123.317c-.223.377-.47.658-.738.846-.27.187-.621.311-1.055.37-.047 0-.12.006-.219.017-.099.012-.184.018-.255.018-.598 0-1.148-.2-1.651-.599-.282-.246-.51-.54-.686-.881v1.51h-3.475v-9.503h3.475v4.642.333.264c0 .632.235.948.703.948h.126c.035 0 .103-.01.199-.026.096-.019.198-.1.306-.242.107-.144.162-.317.162-.52v-.16-.084-.275-4.88h3.476v4.66.263.316c0 .573.213.889.639.948h.164c.462 0 .693-.23.693-.688v-.344-.275-4.88h3.476v4.733.422.559c0 1.352-.222 2.317-.667 2.894" transform="matrix(12.302876 0 0 -12.302876 579.83978 676.73354)"/></g><path d="m0 0h.212c.102 0 .172.015.209.045s.056.07.056.121c0 .032-.01.062-.027.086-.018.025-.043.045-.075.058-.032.011-.09.017-.176.017h-.199zm-.175-.613v1.089h.373c.128 0 .22-.01.278-.03.057-.021.102-.056.136-.106.034-.049.051-.103.051-.158 0-.08-.028-.15-.086-.208-.056-.06-.132-.093-.225-.1.037-.016.068-.035.091-.059.044-.042.097-.114.16-.214l.132-.214h-.212l-.096.172c-.076.134-.137.22-.184.253-.033.026-.079.038-.14.037h-.103v-.462zm.442 1.403c-.142 0-.28-.036-.414-.109-.135-.073-.24-.177-.316-.312-.076-.137-.113-.277-.113-.423 0-.145.037-.286.111-.421.075-.132.179-.237.313-.31.133-.076.274-.112.419-.112s.284.036.419.112c.133.073.237.178.312.31.073.135.111.276.111.421 0 .146-.038.286-.113.423-.076.135-.181.239-.316.312-.134.073-.272.109-.413.109m0 .168c.17 0 .335-.044.496-.131.162-.088.288-.212.378-.374.089-.162.135-.331.135-.507 0-.175-.045-.342-.133-.503-.09-.161-.214-.285-.373-.375-.161-.089-.328-.132-.503-.132s-.343.043-.502.132c-.161.09-.286.214-.374.375-.09.161-.135.328-.135.503 0 .176.046.345.137.507.09.162.216.286.377.374.162.087.327.131.497.131" fill="#231f20" transform="matrix(12.302876 0 0 -12.302876 607.03396 659.373)"/></g></svg>