<svg enable-background="new 0 0 566.929 129.21" height="166.40001" viewBox="0 0 3813.1637 1164.8001" width="544.73767" xmlns="http://www.w3.org/2000/svg"><g fill-rule="evenodd" stroke-width=".606061" transform="matrix(1.65 0 0 1.65 -958.17378 -398.76733)"><path d="m1486.6659 442.73241h82.9478v259.2118c0 177.2037-228.2509 136.9233-224.6503-3.4561h79.4917c-.6116 47.8481 62.2108 68.4892 62.2108 3.4561z"/><path d="m1586.8945 812.54131h86.4039l20.7369-114.0532h82.9479l17.2807 114.0532h86.404l-62.2108-369.8089h-169.3518zm117.5093-197.001h58.7548l-29.5759-152.7556z"/><path d="m2098.4059 812.54131h-190.0887v-369.8089h86.4038v290.3173h103.6849z"/><path d="m2319.5999 812.54131h-207.3694v-369.8089h207.3694v76.0355h-120.9655v58.7547h120.9655v79.4916h-120.9655v79.4916h120.9655z"/><path d="m2526.9694 580.97871h82.9477c.6419-39.6674-20.6649-148.4264-133.3687-145.2848-67.2642 1.8749-127.9607 53.1758-129.2992 186.7587-1.9663 196.221 99.3008 198.3812 121.1721 197.9309 143.5491-2.9554 143.3221-137.8267 141.5495-163.2222l-83.0014-.1471c-3.5152 43.2359-9.8607 83.7214-52.4527 80.7424-41.3276-4.3947-37.1821-67.4031-37.4074-115.3039-.2195-46.5809-.078-104.3987 42.8255-106.1636 34.2586 1.3162 41.3533 34.5739 47.0346 64.6897z"/><path d="m2756.2611 434.33931c-90.2854-1.2048-133.7854 80.1765-130.7132 191.6676 4.7702 173.1102 77.9276 193.6895 133.4223 193.022 96.1966-1.143 132.3391-86.1495 132.745-182.863.4272-101.8205-28.6955-200.4019-135.4541-201.8266zm2.0318 81.9498c-43.3037 1.286-47.5858 57.5011-47.4089 103.6224.068 17.4317-2.7647 120.0451 48.0862 119.1996 47.92-.8082 46.6282-74.0467 47.4089-115.8133.8067-43.1381-2.8693-108.3516-48.0862-107.0087z"/></g><g stroke="#000"><circle cx="582.39996" cy="582.39996" fill="#fff" fill-opacity=".995203" opacity=".98" r="582.04999" stroke-width=".700001"/><path d="m83.199219.05078125a83.149997 83.149997 0 0 0 -83.14843775 83.14843775 83.149997 83.149997 0 0 0 83.14843775 83.150391 83.149997 83.149997 0 0 0 83.150391-83.150391 83.149997 83.149997 0 0 0 -83.150391-83.14843775zm-41.591797 23.44335975 10.74414 11.433593 12.742188-11.433593 11.818359 11.433593 11.521485-11.433593 11.964846 11.433593 11.97461-11.433593 23.79297 24.328125-11.66016 11.511718-12.4375-11.511718-11.20703 11.511718-11.974611-11.511718-11.513672 11.511718-12.583985-11.511718-11.816406 11.511718-23.183594-24.40625zm-23.951172 42.097656 12.4375 11.591797 11.208984-11.591797 11.353516 11.591797 12.4375-11.591797 11.669922 11.591797 11.974609-11.591797 11.660159 11.591797 12.5957-11.591797 11.51172 11.591797 11.51367-11.591797 23.94922 24.486328-11.36523 11.281255-11.66993-11.281255-12.27929 11.281255-12.12305-11.281255-11.20703 11.281255-12.585939-11.281255-11.511719 11.281255-12.132812-11.281255-11.974609 11.281255-11.355469-11.281255-11.669922 11.281255-23.328125-24.175786zm23.951172 42.025393 10.74414 11.43359 12.742188-11.43359 11.818359 11.43359 11.521485-11.43359 11.964846 11.43359 11.97461-11.43359 23.79297 24.33008-11.66016 11.51171-12.4375-11.51171-11.20703 11.51171-11.974611-11.51171-11.513672 11.51171-12.583985-11.51171-11.816406 11.51171-23.183594-24.4082z" fill="#246bbe" fill-opacity=".992157" opacity=".98" stroke-width=".1" transform="scale(7.0000001)"/></g></svg>