<svg height="157.714" viewBox="0 -.001 596.888 110.4" width="852.697" xmlns="http://www.w3.org/2000/svg"><text fill="#ef00eb" font-family="TrasksHand" font-size="1.4" stroke="#0105ff" stroke-width="1.75" transform="matrix(.98222178 -.18772419 .18772419 .98222178 -41.551235 -18.358807)" x="64.4" y="103.018"><tspan fill="#fafafa" fill-opacity=".4" stroke="none" x="64.4" y="103.018">John Loreth 2022</tspan></text><g stroke-linecap="round"><path d="m.724 18.914c12.028-11.202 31.216-17.468 42.276-18.907.548-.071.993.33.993.882v62.353c0 .552-.44 1.08-.984 1.182-18.643 3.5-30.502 8.97-42.155 16.06-.472.287-.853.074-.853-.478v-59.403c0-.552.32-1.313.724-1.69z" fill="#3362ba"/><path d="m51.092 15.394v52.487c0 .552-.44 1.08-.982 1.181-21.49 4.013-35.533 10.2-48.98 18.159a.868.868 0 0 0 .966.796l68.059-10.01c.567-.083.987-.57.986-1.144l-.217-62.92a.882.882 0 0 0 -.996-.873l-17.74 2.281c-.364.033-.73.047-1.096.043z" fill="#ef8b0f" fill-opacity=".941"/><path d="m58.023 97.826-57.705-6.082a.104.104 0 0 1 0-.207l57.705-5.916a.903.903 0 0 1 .994.898v10.412a.9.9 0 0 1 -.994.895z" fill="#4a994f"/><path d="m35.336 110.35-34.782-14.19a.126.126 0 0 1 .065-.241l34.588 4.76a1.155 1.155 0 0 1 .997 1.136l.052 7.912a.667.667 0 0 1 -.92.622zm62.909-20.263h489.085l4.14 5.104h-489.085z" fill="#3362ba"/><path d="m103.665 97.551h489.083l4.14 5.104h-489.083z" fill="#d4d0ce"/></g><path d="m158.983 67.521v-16.226h9.61v16.225zm0-24.34v-8.123h9.61v8.123zm-28.829 32.454v-48.69h28.829v8.113h-19.22v8.123h19.22v8.114h-19.22v16.225h19.22v8.114zm47.394 0v-24.34h9.61v24.34zm0-32.454v-8.123h9.61v8.123zm47.382 24.34v-8.113h-19.22v8.113zm-28.83 8.114v-40.577h9.61v16.237h28.829v24.34zm47.394 0v-40.577h9.61v40.577zm18.553 0v-24.34h9.61v24.34zm0-32.454v-8.123h9.61v8.123zm28.163 32.454v-8.115h19.22v8.114zm-9.61-8.114v-24.34h9.61v24.34zm28.83 0v-24.34h9.609v24.34zm-19.22-24.34v-8.123h19.22v8.123zm37.784 32.454v-40.577h9.61v16.237h28.828v8.113h-28.829v8.113h28.83v8.114zm47.393 0v-40.577h9.61v16.237h28.829v24.34h-9.61v-16.227h-19.219v16.227zm76.223-24.34v-8.115h-19.22v8.114zm-28.83 24.34v-40.577h38.44v24.35h-28.83v8.113h28.83v8.114zm76.223-24.34v-8.115h-19.22v8.114zm-28.829 24.34v-40.577h38.439v24.35h-28.83v8.113h28.83v8.114zm76.223 0v-8.115h9.61v8.114zm0-16.227v-8.113h9.61v8.113zm-28.83 16.227v-40.577h9.61v24.35h19.22v8.113h-19.22v8.114z" fill="#666" stroke-width="2.5"/></svg>