<svg enable-background="new 0 0 685 182" height="182" viewBox="0 0 685 182" width="685" xmlns="http://www.w3.org/2000/svg" xmlns:xlink="http://www.w3.org/1999/xlink"><linearGradient id="a"><stop offset="0" stop-color="#7ed3f7"/><stop offset="1" stop-color="#003d7e"/></linearGradient><linearGradient id="b" gradientTransform="matrix(1 0 0 -1 654 325)" gradientUnits="userSpaceOnUse" x1="-115.667" x2="-115.667" xlink:href="#a" y1="311.5" y2="238"/><linearGradient id="c" gradientTransform="matrix(1 0 0 -1 654 325)" gradientUnits="userSpaceOnUse" x1="-374.1665" x2="-374.1665" xlink:href="#a" y1="224.5" y2="151.5"/><linearGradient id="d" gradientTransform="matrix(1 0 0 -1 654 325)" gradientUnits="userSpaceOnUse" x1="-177.166" x2="-177.166" xlink:href="#a" y1="224.5" y2="151.5"/><linearGradient id="e" gradientTransform="matrix(1 0 0 -1 654 325)" gradientUnits="userSpaceOnUse" x1="-626.7495" x2="-626.7495" xlink:href="#a" y1="311.5" y2="238"/><linearGradient id="f" gradientTransform="matrix(1 0 0 -1 654 325)" gradientUnits="userSpaceOnUse" x1="-270.7495" x2="-270.7495" xlink:href="#a" y1="311.5" y2="238"/><linearGradient id="g" gradientTransform="matrix(1 0 0 -1 654 325)" gradientUnits="userSpaceOnUse" x1="-308.75" x2="-308.75" xlink:href="#a" y1="224.5" y2="151.5"/><linearGradient id="h" gradientTransform="matrix(1 0 0 -1 654 325)" gradientUnits="userSpaceOnUse" x1="-593.4165" x2="-593.4165" xlink:href="#a" y1="311.5" y2="238"/><linearGradient id="i" gradientTransform="matrix(1 0 0 -1 654 325)" gradientUnits="userSpaceOnUse" x1="-274.917" x2="-274.917" xlink:href="#a" y1="224.5" y2="151.5"/><linearGradient id="j" gradientTransform="matrix(1 0 0 -1 654 325)" gradientUnits="userSpaceOnUse" x1="-303.917" x2="-303.917" xlink:href="#a" y1="311.5" y2="238"/><linearGradient id="k" gradientTransform="matrix(1 0 0 -1 654 325)" gradientUnits="userSpaceOnUse" x1="-498.5005" x2="-498.5005" xlink:href="#a" y1="311.8467" y2="236.8366"/><linearGradient id="l" gradientTransform="matrix(1 0 0 -1 654 325)" gradientUnits="userSpaceOnUse" x1="-403" x2="-403" xlink:href="#a" y1="311.5" y2="238"/><linearGradient id="m" gradientTransform="matrix(1 0 0 -1 654 325)" gradientUnits="userSpaceOnUse" x1="-369.7495" x2="-369.7495" xlink:href="#a" y1="311.5" y2="238"/><linearGradient id="n" gradientTransform="matrix(1 0 0 -1 654 325)" gradientUnits="userSpaceOnUse" x1="-208.3335" x2="-208.3335" xlink:href="#a" y1="311.5" y2="238"/><linearGradient id="o" gradientTransform="matrix(1 0 0 -1 654 325)" gradientUnits="userSpaceOnUse" x1="-24" x2="-24" xlink:href="#a" y1="311.5" y2="238"/><linearGradient id="p" gradientTransform="matrix(1 0 0 -1 654 325)" gradientUnits="userSpaceOnUse" x1="-82" x2="-82" xlink:href="#a" y1="224.5" y2="151.5"/><path d="m503.083 14.5c-3.728 0-6.75 3.855-6.75 7.583v58.834c0 3.728 3.022 6.915 6.75 6.915h77.25v-20.5h-61v-32.665h61v-20.167z" fill="url(#b)"/><path d="m503.083 88.834c-4.317-.017-7.745-3.648-7.751-7.917v-58.833c.031-4.223 3.293-8.512 7.751-8.584v1 1c-1.508-.002-2.937.785-4.014 2.043-1.074 1.252-1.742 2.948-1.738 4.541v58.833c.006 3.188 2.611 5.908 5.751 5.915h76.249v-18.501h-61v-34.665h61v-18.166h-76.249v-1-1h78.249v22.166h-61v30.666h61v22.503z"/><path d="m235 107.084c0-3.729 3.022-7.584 6.75-7.584h83.584v73.333h-23.5v-53.167h-10.167v53.167h-23.667v-53.167h-10.5v53.167h-23.167z" fill="url(#c)"/><path d="m267 173.833v-53.17h-8.501v53.17h-25.177l.678-66.75h-.002c.031-4.224 3.294-8.513 7.752-8.585h84.583v75.333h-25.502v-53.166h-8.166v53.168zm35.834-55.168-.002 53.167h21.501v-71.332h-82.582c-1.509-.004-2.937.784-4.014 2.043-1.075 1.251-1.743 2.947-1.736 4.54h-1l.998.011-.656 64.738h21.157v-53.167h12.5v53.167h21.666v-53.167z"/><path d="m432 107.084c0-3.729 3.021-7.584 6.75-7.584h83.584v73.333h-23.5v-53.167h-10.167v53.167h-23.667v-53.167h-10.5v53.167h-23.166z" fill="url(#d)"/><path d="m463.999 173.833v-53.17h-8.499v53.17h-25.177l.677-66.761c.036-4.219 3.297-8.502 7.75-8.574h84.584v75.333h-25.5v-53.166h-8.167v53.168zm35.834-55.168v53.167h21.501v-71.332h-82.584c-1.507-.004-2.936.784-4.014 2.043-1.073 1.251-1.741 2.947-1.736 4.54h-1l1 .011-.656 64.738h21.156v-53.167h12.5l-.002 53.167h21.668v-53.167z"/><path d="m15.167 14.5h24.167v24.834h-24.167z" fill="url(#e)"/><path d="m14.166 40.334v-26.834h26.167v25.834 1zm25.167-1v-1zm-23.167-1h22.168v-22.835h-22.168z"/><path d="m371.167 14.5h24.167v24.834h-24.167z" fill="url(#f)"/><path d="m370.166 40.334v-26.834h26.167v25.834 1zm25.167-1v-1zm-23.166-1h22.166v-22.835h-22.166z"/><path d="m333.166 99.5h24.168v24.834h-24.168z" fill="url(#g)"/><path d="m332.166 125.334v-26.835h26.167v25.835 1zm25.169-1v-1.002zm-23.17-1.002h22.17v-22.832h-22.17z"/><path d="m15.5 87.833 58.667-73.333h31.5v73.333h-51l14.833-19.333h12.167v-29.167l-38.667 48.5z" fill="url(#h)"/><path d="m52.636 88.832 16.37-21.334h11.66v-25.308l-37.184 46.642h-27.983v-.999l.781.623-.781-.623v.999h-2.08l60.267-75.333h32.98v75.333zm-10.119-1.999 40.149-50.357v33.024l-12.675-.003-13.298 17.334h47.973v-71.332h-30.02l-57.067 71.334z"/><path d="m334 172.833 58.666-73.333h31.5v73.333h-51l14.834-19.333h12.166v-29.166l-38.666 48.499z" fill="url(#i)"/><path d="m371.136 173.832 16.371-21.334h11.657v-25.307l-37.183 46.641h-27.981v-1l.781.624-.781-.624v1h-2.081l60.265-75.333h32.981v75.333zm-10.118-1.999 40.148-50.356v33.023l-12.674-.002-13.3 17.332h47.973v-71.331h-30.019l-57.067 71.334z"/><path d="m395.166 87.833-58.666-73.333h-31.5v73.333h51l-14.834-19.333h-12.166v-29.167l38.666 48.5z" fill="url(#j)"/><path d="m367.183 88.832-37.185-46.64v25.306h11.66l16.37 21.334h-54.03v-75.333h32.98l58.967 73.708-.781.626v-1 1l.781-.626 1.302 1.625zm.963-1.999h24.938l-57.067-71.334h-30.02v71.332h47.973l-13.297-17.331h-12.675v-33.026z"/><path d="m190.083 13.999h-76.416v47.667h23.666v-26.166h36.333v33.166l-59.999.002v19.665h76.416c4.022-.007 7.247-3.417 7.249-7.414v-58.835c-.015-3.977-3.157-8.048-7.249-8.085z" fill="url(#k)"/><path d="m112.667 89.332v-21.664l59.999-.002v-31.167h-34.333v26.167h-25.666v-49.667h77.416v.999l.01-.999c4.793.101 8.201 4.625 8.238 9.085v58.835c-.006 4.534-3.64 8.395-8.249 8.413zm2-2h75.414c3.439-.004 6.254-2.954 6.252-6.413v-58.831c.006-3.498-2.871-7.095-6.258-7.089h-75.408v45.667h21.666v-26.167h38.333v35.167h-59.999z"/><path d="m206 14.5v73.333h32.833l57.167-73.333h-27.333l-39.5 47.834v-47.834z" fill="url(#l)"/><path d="m204.999 88.834v-74.334-1h25.169v46.049l38.027-46.049h29.853l-58.726 75.334zm2-2.002h31.346l55.606-71.332h-24.813l-40.972 49.614v-49.614h-21.166zm-.999-71.332v-1z"/><path d="m272.167 62.667h24.167v25.166h-24.167z" fill="url(#m)"/><path d="m271.166 88.834v-27.169h26.167v26.167 1.002zm25.167-1.002v-1zm-23.167-1h22.167v-23.166h-22.167z"/><path d="m403.833 87.833v-73.333h27.834l32.166 39.167v-39.167h23.667v73.333h-25.333l-35.167-42.666v42.666z" fill="url(#n)"/><path d="m461.695 88.834-33.695-40.881v40.881h-24.167v-1.002h1-1v1.002h-1v-75.334h29.305l30.695 37.372v-37.372h25.667v75.334zm-56.862-2.002 21.167-.003v-44.45l36.639 44.45h23.859v-71.329h-21.665v40.961l-33.639-40.961h-26.361z"/><path d="m588.167 14.5v73.333h83.666v-19.666h-60.166v-7.5h60.166v-20.167h-60.333v-5.667h60.333v-20.333z" fill="url(#o)"/><path d="m587.167 88.834v-74.334-1h85.667v22.333h-60.335v3.667h60.335v22.167h-60.168v5.499h60.168v21.668zm2-2.005h81.666v-17.663h-60.166v-9.501h60.166v-18.165h-60.333v-7.667h60.333v-18.333h-81.666zm-1-71.329v-1z"/><path d="m530.166 99.5v73.333h83.668v-19.666h-60.168v-7.5h60.168v-20.167h-60.334v-5.666h60.334v-20.334z" fill="url(#p)"/><path d="m529.165 173.833v-74.333-1.002h85.669v22.336l-60.334-.002v3.667h60.334v22.167l-60.169-.003v5.502h60.169v21.668zm2-2.001h81.668v-17.667h-60.167v-9.499h60.167v-18.167h-60.333v-7.667h60.332v-18.332h-81.668zm-1-71.332v-1z"/></svg>