<svg enable-background="new 1.735 -0.002 565.195 186.787" height="186.787" viewBox="1.735 -.002 565.195 186.787" width="565.195" xmlns="http://www.w3.org/2000/svg" xmlns:xlink="http://www.w3.org/1999/xlink"><linearGradient id="a" gradientUnits="userSpaceOnUse" x1="557.9487" x2="11.5908" y1="80.1865" y2="80.1865"><stop offset="0" stop-color="#013a67"/><stop offset="1" stop-color="#6cd1ff"/></linearGradient><linearGradient id="b"><stop offset="0" stop-color="#08406f"/><stop offset="1" stop-color="#60c5f5"/></linearGradient><linearGradient id="c" gradientUnits="userSpaceOnUse" x1="64.5298" x2="60.5846" xlink:href="#b" y1="63.3799" y2="59.435"/><linearGradient id="d" gradientUnits="userSpaceOnUse" x1="123.1157" x2="119.4905" xlink:href="#b" y1="138.499" y2="134.8738"/><linearGradient id="e" gradientUnits="userSpaceOnUse" x1="25.5439" x2="25.5439" xlink:href="#b" y1="118.6416" y2="114.3281"/><linearGradient id="f" gradientUnits="userSpaceOnUse" x1="121.0058" x2="121.0058" xlink:href="#b" y1="157.7705" y2="153.3135"/><linearGradient id="g" gradientUnits="userSpaceOnUse" x1="427.5141" x2="427.5141" xlink:href="#b" y1="118.6123" y2="114.1455"/><linearGradient id="h" gradientUnits="userSpaceOnUse" x1="250.8843" x2="250.8843" xlink:href="#b" y1="119.4834" y2="115.0058"/><linearGradient id="i" gradientUnits="userSpaceOnUse" x1="522.1011" x2="522.1011" xlink:href="#b" y1="6.7764" y2="1.9131"/><linearGradient id="j" gradientUnits="userSpaceOnUse" x1="514.8335" x2="514.8335" xlink:href="#b" y1="31.3047" y2="27.0937"/><linearGradient id="k" gradientUnits="userSpaceOnUse" x1="459.1899" x2="459.1899" xlink:href="#b" y1="74.8203" y2="71.1006"/><linearGradient id="l" gradientUnits="userSpaceOnUse" x1="489.9809" x2="489.9809" xlink:href="#b" y1="49.7002" y2="44.1455"/><linearGradient id="m" gradientUnits="userSpaceOnUse" x1="74.2109" x2="70.6678" xlink:href="#b" y1="93.416" y2="89.8728"/><linearGradient id="n" gradientUnits="userSpaceOnUse" x1="120.0762" x2="114.7099" xlink:href="#b" y1="28.959" y2="28.959"/><linearGradient id="o" gradientUnits="userSpaceOnUse" x1="172.9018" x2="166.2417" xlink:href="#b" y1="44.5488" y2="44.5488"/><linearGradient id="p" gradientUnits="userSpaceOnUse" x1="255.8091" x2="249.8159" xlink:href="#b" y1="49.8056" y2="49.8056"/><linearGradient id="q" gradientUnits="userSpaceOnUse" x1="349.0972" x2="343.396" xlink:href="#b" y1="29.2139" y2="29.2139"/><linearGradient id="r" gradientUnits="userSpaceOnUse" x1="400.7807" x2="394.9839" xlink:href="#b" y1="43.0342" y2="43.0342"/><linearGradient id="s" gradientUnits="userSpaceOnUse" x1="101.5859" x2="96.4751" xlink:href="#b" y1="93.5273" y2="93.5273"/><linearGradient id="t" gradientUnits="userSpaceOnUse" x1="121.0703" x2="117.5167" xlink:href="#b" y1="98.4267" y2="94.8733"/><linearGradient id="u" gradientUnits="userSpaceOnUse" x1="553.2573" x2="549.5879" xlink:href="#b" y1="17.0908" y2="13.4212"/><linearGradient id="v" gradientUnits="userSpaceOnUse" x1="145.8149" x2="140.4165" xlink:href="#b" y1="94.4678" y2="94.4678"/><linearGradient id="w" gradientUnits="userSpaceOnUse" x1="148.5976" x2="144.1099" xlink:href="#b" y1="31.5996" y2="27.1118"/><linearGradient id="x" gradientUnits="userSpaceOnUse" x1="215.6665" x2="211.508" xlink:href="#b" y1="46.9111" y2="42.7528"/><linearGradient id="y" gradientUnits="userSpaceOnUse" x1="304.1362" x2="299.7521" xlink:href="#b" y1="52.3994" y2="48.0151"/><linearGradient id="z" gradientUnits="userSpaceOnUse" x1="376.7915" x2="372.5843" xlink:href="#b" y1="31.4502" y2="27.2425"/><linearGradient id="A" gradientUnits="userSpaceOnUse" x1="488.5586" x2="485.1017" xlink:href="#b" y1="59.8545" y2="56.3978"/><linearGradient id="B" gradientUnits="userSpaceOnUse" x1="499.6299" x2="495.6696" xlink:href="#b" y1="103.9658" y2="100.0056"/><linearGradient id="C" gradientUnits="userSpaceOnUse" x1="441.6572" x2="437.3724" xlink:href="#b" y1="46.2051" y2="41.9204"/><linearGradient id="D" gradientUnits="userSpaceOnUse" x1="486.6797" x2="481.5669" xlink:href="#b" y1="41.2392" y2="36.1266"/><linearGradient id="E" gradientUnits="userSpaceOnUse" x1="185.7983" x2="182.1551" xlink:href="#b" y1="116.9199" y2="113.2766"/><linearGradient id="F" gradientUnits="userSpaceOnUse" x1="302.8491" x2="299.2079" xlink:href="#b" y1="93.7285" y2="90.0873"/><linearGradient id="G" gradientUnits="userSpaceOnUse" x1="349.7099" x2="346.2" xlink:href="#b" y1="97.6748" y2="94.1648"/><linearGradient id="H" gradientUnits="userSpaceOnUse" x1="370.6269" x2="366.2025" xlink:href="#b" y1="118.2324" y2="113.8083"/><linearGradient id="I" gradientUnits="userSpaceOnUse" x1="229.2778" x2="223.2402" xlink:href="#b" y1="96.3584" y2="96.3584"/><linearGradient id="J" gradientUnits="userSpaceOnUse" x1="330.1245" x2="324.9126" xlink:href="#b" y1="93.1084" y2="93.1084"/><linearGradient id="K" gradientUnits="userSpaceOnUse" x1="374.7905" x2="368.5454" xlink:href="#b" y1="92.3955" y2="92.3955"/><linearGradient id="L" gradientUnits="userSpaceOnUse" x1="440.4585" x2="436.0397" xlink:href="#b" y1="84.2656" y2="79.8469"/><linearGradient id="M" gradientUnits="userSpaceOnUse" x1="472.7407" x2="472.7407" xlink:href="#b" y1="94.0986" y2="88.2959"/><path d="m491.191 27.662 45.586.284 21.172-22.019-77.998-.285-73.289 73.575-10.262.568.285-70.784-41.205 42.054-9.855 1.169v-42.85l-84.361 83.467-10.489 1.117.892-85.881-73.73 74.863-9.682.047-1.135-71.898-39.778 40.061-11.064.567.419-42.778-105.106 105.957 34.618-.568 45.389-44.052h8.705l-.42 44.265 36.152-36.998h8.644v37.686l-39.787 39.5 38.127-.563 75.017-75.867h10.104v37.27l46.757.285 45.218-45.501 8.728-.567-.135 43.012 36.131-36.131h8.536l.566 36.436-.738 1.895h109.175l20.901-21.183-67.881-1.153-.617-9.853 10.576-11.139 25.611-.003 22.248-22.534-13.447-.568v-9.483z" fill="url(#a)"/><path d="m114.692 13.213-101.115 101.115-11.471 4.313s-.604.039-.271-.445c0 0 117.26-117.292 117.472-117.471.212-.181.467-.028.467-.028z" fill="url(#c)"/><path d="m145.814 115.796-37.518 37.521-11.065 4.457s-.576.063-.236-.406l43.929-43.75z" fill="url(#d)"/><path d="m48.982 118.642h-46.876l11.497-4.314h32.606z" fill="url(#e)"/><path d="m144.781 157.771h-47.551l11.066-4.458h33.872z" fill="url(#f)"/><path d="m484.787 118.612-114.545-.029 3.81-4.436 107.477-.001z" fill="url(#g)"/><path d="m277.053 119.483-51.527-.028c-.333.006-.81-.334-.81-.334l4.561-4.115h45.054z" fill="url(#h)"/><path d="m477.382 1.913h88.652c.785 0 .785.313.785.313l-10.572 4.55h-75.164z" fill="url(#i)"/><path d="m539.042 31.304h-46.345l-2.072-4.21h45.302z" fill="url(#j)"/><path d="m473.589 74.82h-24.679l-4.119-3.718 25.611-.002z" fill="url(#k)"/><path d="m491.8 49.7h-13.58l-1.193-5.548h25.467c.346-.043.441.146.441.146z" fill="url(#l)"/><path d="m96.872 70.634-47.89 48.01-2.773-4.313 46.601-46.366c2-2.313 4.675-1.731 4.675-1.731z" fill="url(#m)"/><path d="m114.71 51.669v-38.476l5.063-12.499s.303.075.303.571v53.647l-.315 2.311c0 .001-4.496.025-5.051-5.554z" fill="url(#n)"/><path d="m172.902 88.843s-6.539 1.949-6.621-5.625c-.08-7.313-.013-69.292-.013-69.292l5.214-13.896s.182-.027.182.725l-.017 81.792z" fill="url(#o)"/><path d="m255.809 98.91s-5.889.577-5.96-6.088l-.033-80.063 4.651-12.071s.583.153.583.907l-.016 91.14z" fill="url(#p)"/><path d="m349.097 57.425s-4.869.452-5.701-4.563v-39.723l4.393-12.147s.563.134.563.886v49.667z" fill="url(#q)"/><path d="m400.781 85.333s-4.938.643-5.797-4.373v-67.706l4.85-12.544s.268.221.268 1.708v77.226z" fill="url(#r)"/><path d="m97.759 120.819s-.833-.067-.809-1.147c-.001-.918-.078-49.037-.078-49.037s-1.218-1.577.613-4.4c.547.131 3.495.727 4.101 4.256v40.369z" fill="url(#s)"/><path d="m140.843 78.598s-41.489 41.547-41.883 41.938c-.346.379-1.202.281-1.202.281l3.827-9.963 36.059-36.088s1.34-1.727 3.831-1.637z" fill="url(#t)"/><path d="m566.609 3.639-27.566 27.665-3.115-4.211 20.312-20.324 10.582-4.542c0 .001.349.847-.213 1.412z" fill="url(#u)"/><path d="m140.924 113.617-.079-35.026s-1.301-2.633.631-5.456c.593-.007 3.7.421 4.339 4.146l-.001 38.519z" fill="url(#v)"/><path d="m166.269 13.926-41.462 41.463c-1.987 1.986-5.045 1.836-5.045 1.836-1.795-3.531.315-6.065.315-6.065s50.503-50.49 50.867-50.87c.331-.417.541-.264.541-.264z" fill="url(#w)"/><path d="m249.815 12.762-74.376 74.375c-1.55 1.551-2.537 1.702-2.537 1.702-3.781-1.877-1.213-6.254-1.213-6.254s80.652-80.635 81.016-81.015c.943-1.093 1.761-.883 1.761-.883z" fill="url(#x)"/><path d="m343.396 13.139-84.163 84.161c-1.429 1.432-3.424 1.607-3.424 1.607-3.115-1.557-.776-6.175-.776-6.175s90.609-90.5 90.974-90.881c.941-1.098 1.781-.862 1.781-.862z" fill="url(#y)"/><path d="m394.984 13.254-42.514 42.514c-1.428 1.432-3.373 1.657-3.373 1.657-2.932-1.908-.588-5.983-.588-5.983s49.584-49.69 49.947-50.07c1.047-1.033 1.377-.66 1.377-.66z" fill="url(#z)"/><path d="m502.958 45.453-29.369 29.367-3.188-3.722 21.399-21.398 11.135-5.401s.414.294.023 1.154z" fill="url(#A)"/><path d="m513.634 89.96-28.848 28.65-3.258-4.465 20.049-20.049 12.289-5.382c.001.006.397.438-.232 1.246z" fill="url(#B)"/><path d="m481.083 6.777-76.912 76.913c-1.43 1.433-3.395 1.644-3.395 1.644-2.449-3.092-.689-5.979-.689-5.979l77.289-77.44z" fill="url(#C)"/><path d="m492.697 31.304-12.676 12.786c-2.771 2.282-1.801 5.608-1.801 5.608-2.25-.21-3.125-2.065-3.412-3.695-.285-1.63.303-3.422 1.348-4.467l14.469-14.44z" fill="url(#D)"/><path d="m142.17 153.315 77.913-77.942s1.437-1.873 4.267-1.771l-.456 5.223s-78.666 78.506-79.113 78.947z" fill="url(#E)"/><path d="m274.33 115.003 47.642-47.659s1.438-1.871 4.268-1.771l-.857 5.621-48.323 48.29z" fill="url(#F)"/><path d="m330.125 110.25 36.779-36.789c.842-.843 1.779-1.771 3.396-1.771l-.107 5.501-43.08 43.042c-.57.563-1.02.398-1.02.398z" fill="url(#G)"/><path d="m361.984 118.058 7.25-7.281 5.557 2.326-.734 1.047-3.813 4.437-.271.301h-7.721c-.34.015-.52-.271-.52-.271s-.156-.149.252-.559z" fill="url(#H)"/><path d="m223.983 117.337-.09-38.514s-1.738-2.016.457-5.223c.673-.01 4.202.478 4.928 4.707l-.001 36.694-4.561 4.115c0 .003-.73-.474-.733-1.779z" fill="url(#I)"/><path d="m325.449 119.944-.08-48.75s-1.471-2.681.871-5.621c.596-.009 3.244.472 3.885 4.702v39.976l-4.027 10.39c-.005-.001-.606-.143-.649-.697z" fill="url(#J)"/><path d="m369.234 110.774v-32.628s-2.113-3.379 1.064-6.456c.693-.008 4.131.24 4.492 4.323v37.087z" fill="url(#K)"/><path d="m448.91 74.82-13.451 13.479-3.844 4.81c-3.896-2.458-1.953-6.874-.912-7.925l14.088-14.079z" fill="url(#L)"/><path d="m501.58 94.099h-66.391c-2.502-.197-3.574-.993-3.574-.993-.012-3.571 3.844-4.81 3.844-4.81l77.746.002c.543-.002.662.422.662.422z" fill="url(#M)"/><g fill="#c0392b"><path d="m199.027 180.485c3.235 0 5.857 2.921 5.857 6.156h-17.971v-58.281h5.958v52.125z"/><path d="m215.707 186.642c-3.235 0-6.057-2.923-6.057-6.156v-40.459h6.057z"/><path d="m233.678 140.026h-6.157v-11.666h-6.055v58.281h12.212c3.235 0 5.857-2.923 5.857-6.156v-34.75c0-3.235-2.622-5.709-5.857-5.709zm-.1 40.459h-6.057v-34.65h6.057z"/></g><path d="m246.087 128.005h48.477s2.755.446 3.648 2.085c.893 1.64 7.894 16.084 8.563 17.722.67 1.64.074 2.83-.895 4.098-.969 1.266-11.021 12.732-11.021 12.732l12.286 21.645h-18.541s-14.521-24.848-15.339-26.038c-.82-1.19-.82-3.128.967-3.128h6.33c.818 0 1.191-.148 2.159-.967.968-.82 5.957-6.853 5.957-6.853s-2.383-6.403-2.904-7.595-1.639-1.563-2.68-1.563c-1.042 0-18.689 0-18.689 0v46.143h-18.319z" fill="#231f20"/><path d="m288.318 186.786-.145-.248c-.008-.012-3.629-6.213-7.359-12.572-3.727-6.349-7.584-12.895-7.959-13.435-.387-.568-.614-1.249-.616-1.916 0-.491.129-.991.473-1.384.344-.394.887-.619 1.522-.613 1.789 0 5.511 0 6.33.002.746-.025.852-.048 1.837-.85.404-.336 1.929-2.08 3.282-3.676 1.053-1.238 2.031-2.416 2.427-2.892-.46-1.233-2.351-6.289-2.793-7.298-.421-.958-1.276-1.252-2.22-1.264-.521 0-5.195 0-9.737 0-3.631 0-7.174 0-8.453 0v46.144h-19.321v-58.78-.502h.502 48.475c2.065-.057 3.211.618 4.088 2.348.917 1.688 7.892 16.073 8.589 17.771.217.535.32 1.048.318 1.537 0 1.179-.584 2.135-1.279 3.054-.914 1.193-9.293 10.762-10.808 12.49l12.536 22.083zm17.969-1.002-12.035-21.208.232-.265c.012-.015 10.068-11.488 10.999-12.705.665-.873 1.079-1.625 1.077-2.447-.002-.35-.071-.727-.248-1.158-.645-1.579-7.671-16.082-8.54-17.671-.91-1.55-1.252-1.767-3.209-1.825-1.888 0-42.963 0-47.975 0v57.279h17.317v-46.143h.502 18.689c1.141-.013 2.518.438 3.138 1.862.538 1.231 2.91 7.614 2.914 7.621l.101.271-.184.224c-.023.021-4.947 5.995-6.02 6.915-.95.834-1.591 1.107-2.482 1.086-.819-.002-4.541-.002-6.33-.002-.812.045-.939.354-.996.997-.002.427.165.952.441 1.348.808 1.181 13.699 23.231 15.214 25.821z" fill="#fff"/><path d="m432.835 128.005h48.475c2.012 0 2.756.446 3.648 2.085.893 1.64 7.895 16.084 8.563 17.722.672 1.64.074 2.83-.893 4.098-.969 1.266-11.021 12.732-11.021 12.732l12.287 21.645h-18.543s-14.52-24.848-15.34-26.038c-.818-1.19-.818-3.128.969-3.128s5.512 0 6.328 0c.82 0 1.191-.148 2.16-.967.969-.82 5.957-6.853 5.957-6.853s-2.383-6.403-2.904-7.595c-.52-1.191-1.637-1.563-2.68-1.563s-18.689 0-18.689 0v46.143h-18.318v-58.281z" fill="#231f20"/><path d="m475.064 186.785-.143-.248c-.01-.013-3.631-6.211-7.361-12.571-3.727-6.348-7.584-12.893-7.959-13.435-.387-.567-.613-1.249-.615-1.917-.004-.489.129-.989.473-1.383.342-.395.885-.617 1.523-.612h6.328c.746-.022.852-.047 1.838-.849.404-.338 1.93-2.08 3.283-3.676 1.051-1.238 2.031-2.416 2.426-2.892-.459-1.229-2.35-6.288-2.793-7.296-.422-.961-1.277-1.254-2.221-1.266-.521 0-5.195 0-9.736 0-3.635 0-7.178 0-8.453 0v46.143h-19.32v-58.778-.502h.502 48.477c2.064-.058 3.209.617 4.086 2.345.92 1.688 7.891 16.075 8.588 17.771.221.538.32 1.051.32 1.54-.002 1.177-.584 2.134-1.279 3.052-.914 1.191-9.293 10.762-10.809 12.49l12.535 22.083h-19.69zm17.971-1.001-12.037-21.207.236-.266c.008-.016 10.066-11.488 10.996-12.705.662-.873 1.078-1.627 1.076-2.446 0-.353-.07-.728-.248-1.16-.643-1.577-7.668-16.08-8.539-17.67-.908-1.55-1.254-1.767-3.209-1.824-1.889-.002-42.963-.002-47.975 0v57.278h17.314v-46.143h.502 18.689c1.141-.013 2.52.438 3.139 1.862.537 1.233 2.91 7.613 2.914 7.621l.102.271-.184.225c-.021.021-4.949 5.992-6.02 6.914-.951.836-1.59 1.109-2.482 1.084-.818 0-4.543 0-6.328 0-.814.045-.941.353-.998.996-.004.43.164.953.441 1.35.809 1.18 13.697 23.227 15.215 25.82z" fill="#fff"/><path d="m310.5 186.286s0-37.282 0-38.549c0-1.266.297-1.786.893-3.053.598-1.267 7.447-13.851 8.193-15.041.744-1.191 1.787-1.639 3.797-1.639s48.24 0 48.24 0v12.063s-34.912 0-36.252 0-1.936.076-2.83 2.012-3.723 8.787-3.723 8.787h36.711v12.138h-36.711v11.021h42.805v12.262h-61.123z" fill="#231f20"/><path d="m310.5 186.786v-.5h.5-.5v.5h-.5v-.5c0-.002 0-37.283 0-38.549-.008-1.356.355-2.036.938-3.266.629-1.324 7.443-13.847 8.223-15.095.822-1.356 2.164-1.897 4.223-1.874h48.24.498v13.063h-.498c-.002 0-34.912 0-36.252 0-1.342.082-1.42-.131-2.377 1.722-.711 1.539-2.688 6.288-3.43 8.077h36.465v13.139l-36.711-.002v10.021h42.805v13.263zm60.621-1.002v-11.26h-42.805v-12.022h36.713v-11.137h-36.961l.285-.691c.002-.005 2.828-6.845 3.732-8.805.832-2.019 1.945-2.384 3.285-2.302h35.752v-11.063c-5.002 0-45.855 0-47.742 0-1.963.024-2.707.378-3.373 1.402-.711 1.135-7.6 13.782-8.164 14.989-.607 1.303-.836 1.666-.846 2.842v38.046z" fill="#fff"/><path d="m411.845 146.324v-18.318h-21.855v18.318h-18.367v21.407h18.367v18.555h21.855v-18.555h17.945v-21.407zm-11.019 17.164c-3.559 0-6.441-2.884-6.441-6.441s2.883-6.44 6.441-6.44c3.557 0 6.439 2.884 6.439 6.44 0 3.557-2.883 6.441-6.439 6.441z" fill="#231f20"/><g fill="#fff"><path d="m389.489 186.786v-18.555h-18.367v-22.409h18.367v-18.318h22.856v18.318h17.944v22.409l-17.946-.003v18.558zm-17.368-19.556h18.369v18.554h20.854v-18.554h17.944v-20.407h-17.443v-.5h.5-.5v.5h-.501v-18.319h-20.854v18.319l-18.369-.002zm28.705-3.244v-.498-.502c3.279-.006 5.932-2.658 5.938-5.939-.006-3.281-2.658-5.936-5.938-5.941-3.283.006-5.936 2.66-5.941 5.941.006 3.281 2.658 5.934 5.941 5.941v.5.498c-3.836 0-6.941-3.107-6.944-6.939.003-3.834 3.108-6.94 6.944-6.942 3.832.002 6.938 3.108 6.938 6.942 0 3.832-3.106 6.939-6.938 6.942z"/><path d="m407.08 173.578h-12.584l6.179 6.18z"/><path d="m417.392 150.681v12.582l6.182-6.18z"/><path d="m384.181 163.263v-12.582l-6.18 6.179z"/></g><path d="m543.201 128.005h-35.049c-6.496 0-11.766 5.268-11.766 11.766v34.75c0 6.498 5.27 11.766 11.766 11.766h35.049c6.498 0 11.766-5.268 11.766-11.766v-34.75c-.003-6.499-5.268-11.766-11.766-11.766zm-17.526 46.663c-9.705 0-17.574-7.868-17.574-17.573s7.869-17.572 17.574-17.572 17.574 7.867 17.574 17.572-7.869 17.573-17.574 17.573z" fill="#231f20"/><path d="m508.151 186.785c-6.772 0-12.266-5.491-12.266-12.266v-34.749c0-6.776 5.493-12.266 12.266-12.268h35.05v.501.499h-35.05c-6.22.014-11.255 5.046-11.266 11.268v34.749c.011 6.222 5.046 11.254 11.266 11.265h35.05c6.221-.011 11.253-5.043 11.266-11.265v-34.749c-.002-6.224-5.045-11.268-11.266-11.268v-.499-.501c6.774.002 12.262 5.493 12.264 12.268l.002 34.749c-.002 6.774-5.493 12.266-12.266 12.266zm-.551-29.691c0-9.981 8.094-18.071 18.073-18.073 9.982.002 18.074 8.092 18.076 18.073-.002 9.982-8.094 18.073-18.076 18.073v-.499-.501c9.43-.018 17.059-7.646 17.075-17.073-.017-9.428-7.646-17.056-17.075-17.072-9.43.017-17.056 7.645-17.072 17.072.017 9.428 7.643 17.056 17.072 17.073v.501.499c-9.979 0-18.073-8.091-18.073-18.073z" fill="#fff"/><path d="m209.65 128.36h6.057v6.269h-6.057z" fill="#c0392b"/><path d="m394.496 140.366h12.584l-6.182-6.179z" fill="#fff"/></svg>