<svg height="169.64514" viewBox="0 0 605.42559 271.43223" width="378.39099" xmlns="http://www.w3.org/2000/svg" xmlns:xlink="http://www.w3.org/1999/xlink"><filter id="a" color-interpolation-filters="sRGB" height="1.170696" width="1.052768" x="-.023564" y="-.076227"><feOffset dx="3" dy="3"/><feGaussianBlur result="blur" stdDeviation="5.2231944"/><feFlood result="flood"/><feComposite in="flood" in2="SourceGraphic" operator="in" result="composite"/><feBlend in="blur" in2="composite" mode="normal"/></filter><filter id="b" color-interpolation-filters="sRGB" height="1.081382" width="1.029404" x="-.014702" y="-.040691"><feGaussianBlur stdDeviation="3.5231118"/></filter><filter id="c" color-interpolation-filters="sRGB" height="1.072132" width="1.030462" x="-.015231" y="-.036066"><feGaussianBlur stdDeviation="3.6701254"/></filter><g transform="translate(8.808301 8.808301)"><text fill="#ef00eb" font-family="TrasksHand" font-size="3.2" stroke="#0105ff" stroke-width="4" x="462.85034" y="211.16512"><tspan fill="#fafafa" fill-opacity=".4" font-size="3.2" stroke="none" stroke-width="4" x="462.85034" y="211.16512">John Loreth 2022</tspan></text><path d="m461.47266 46.380859c-.83399-.02477-1.66872-.0013-2.5.07031-15.34126 1.322123-28.31843 9.068497-36.73243 17.919922-2.34707 2.469097-4.36917 4.993529-6.22265 7.523437-1.96718-1.865147-4.12013-3.552367-6.40235-4.726562-5.43718-2.797418-10.67597-3.618729-15.7207-3.841797-.37217-.01612-.74469-.02264-1.11719-.01953-2.48854.01853-5.54681.202704-8.92382.683593-6.52155.158082-12.32158 2.240597-16.7129 4.865235-3.29713-1.617972-6.63248-2.811879-9.52929-2.84375-4.05958-.04466-7.23708.747944-10.07227 1.863281-.55662.218968-1.08493.508788-1.61328.720703-11.72541 2.822155-21.32182 8.151453-29.64258 14.060547-6.40241 2.295967-11.16017 6.245716-14.66601 10-2.36299-.571886-4.63898-.959685-6.5918-1.044922h-.002c-4.10772-.179004-14.74072-.460806-24.84961 5.208984l2.76172-1.302734c-9.06415 3.514848-11.51754 6.508934-16.52735 10.392584-4.41268-4.9495-11.13916-8.545018-17.33398-9.187506-.52393-.05432-1.04967-.0895-1.57617-.105468-9.92485-.300829-18.23864 2.431081-25.14063 6.279294-3.39407-4.207454-9.90104-9.244586-18.5957-9.57031-.91884-.07729-2.09387-.196157-3.73828-.31836-3.06352-.227674-7.72665-.32984-12.95703.636719-.40025-4.117868-1.51129-7.979024-3.16602-10.947265-3.74521-6.718133-9.28861-11.630845-17.60156-13.958985-2.22889-.624015-4.54345-.886463-6.85547-.777343-6.95075.327888-13.35846 1.292164-19.27539 3.185546-3.10786-5.912219-7.7191-11.502658-14.75-15.4375l-.006-.0039c-4.2995-2.404507-9.12791-3.597149-13.97852-3.511719-1.588038.028-3.215435.195096-4.845699.515625-6.429585 1.263817-12.213597 4.778033-16.294922 9.904297-.04258.05448-.0849.109173-.126953.164063-27.993282 35.862589-57.425244 86.008662-66.738092 140.560542-.01552.0885-.0305.17699-.04492.26563-1.174657 7.43446.745263 15.05148 5.300782 21.04296.02981.0398.05976.0795.08984.11914l9.019531 11.69336c1.477115 1.91561 3.264911 3.57005 5.289062 4.89454 0 0 4.094044 5.15257 16.851563 5.65625 6.378759.25184 18.555464-4.33275 23.300781-13.09375s3.693575-15.64855 2.517578-21.92579c-.199894-1.06838-.479984-2.12018-.837891-3.14648l-.699218-2.00586c4.657318-20.64456 10.318162-38.62801 17.443361-54.83789 2.633957 1.24149 5.420926 2.05847 8.271485 2.41797.406522 5.3256 2.265712 9.82931 4.861332 13.89062.95823 1.49934 2.19403 3.0759 3.61914 4.60157-.64813.22747-1.33865.41074-1.98438.64062-.77111.44467-1.51406.93649-2.22461 1.47266-1.57186.78484-3.04232 1.75815-4.378904 2.89844-1.274001 1.12309-2.411383 2.39224-3.388672 3.78124-.681621.66687-1.318426 1.37805-1.90625 2.12891l-.01953.0371c-.160433.6764-.288185 1.36014-.382812 2.04883-.95283 2.47294-1.443389 5.09985-1.447266 7.75-.131692 1.25941-.152605 2.52794-.0625 3.79101-.02095.44564-.02811.89182-.02148 1.3379l3.861328 16.76757c2.902801 12.59495 16.125756 19.85458 28.310546 15.54297 18.93714-6.70229 37.75461-12.20695 56.46876-16.85547.12289.24787.25051.49336.38281.73633 8.04766 9.44685 20.83337 15.81678 34.92383 14.08203 4.98242-.49795 11.82375-2.21209 17.91601-7.60742 9.82344-8.31637 9.97649-14.01748 10.44531-14.88281.71305-1.51506 1.24788-3.10774 1.59375-4.7461 17.9258-2.45297 35.72592-4.14669 53.38086-5.08789-.007.0215-.013.043-.0195.0645-.0615-.00003-.2631.25958-1.47656 2.39062-2.77008 4.86472-4.70849 16.05682-3.08984 23.77344.39643 1.89031 1.04411 3.71905 1.92578 5.4375 2.96034 5.76882 5.77789 10.49197 10.73047 15.125 2.47628 2.31652 5.61234 4.77288 10.51171 6.41016 4.89938 1.63727 12.08378 1.76428 17.84766-.8125 11.52776-5.15357 13.78058-13.96373 15.06641-19.61329.90071-3.95744 1.06688-7.64761 1.01367-11.36328 2.50211-7.54379 4.51103-15.13217 6.11133-22.18359 44.73625 1.35384 88.32832 6.83149 130.53906 14.61523-3.09062 6.59063-4.07824 14.45304-2.35938 20.75 2.35499 8.62735 7.52244 14.43412 13.96289 18.34961 6.44046 3.91549 15.77348 6.51969 25.85547 2.36719s16.08887-14.95429 17.35352-23.61914c.0233-.15991.0447-.32008.0644-.48047.01-.0178-.006.00069.004-.0176.75767-1.35466 2.35214-3.30482 4.66406-8.03711 1.13055-2.31413 3.41634-6.28791 5.85547-11.16796 1.42376-2.84856 2.85044-5.81119 4.20703-8.81641 1.09732-2.43086 2.84576-5.56887 4.75391-9.27735 1.90815-3.70847 4.72096-7.18323 5.33594-16.45117-.20435 3.0794-.0394.64261.77539-1.55468.81475-2.1973 1.89878-4.63852 3.03711-7.9961.46669-1.37655 4.06757-5.79777 4.39062-6.05469 10.88068-8.65324 10.37397-15.99353 8.625-12.58007.54885-1.07064 1.00746-2.18518 1.37109-3.33203 2.06347-6.51212 1.74252-15.72123-2.62695-22.67969s-11.16178-10.55533-17.13086-11.83985c-8.28416-1.78271-17.03159.0536-23.875 5.38282-2.4446-2.44556-5.20586-4.43381-7.91211-5.60352-8.75821-3.78551-15.86268-3.05579-22.11328-.54687-.82565-2.94752-2.02611-6.12605-4.36914-9.855473-4.48595-7.140289-10.91904-10.911624-17.37695-12.75 1.25616-5.565695 1.91749-12.793285-1.80664-21.732422-3.71294-8.91226-11.5225-13.149421-16.42188-14.769531s-8.53855-1.798712-11.82812-1.896485z" style="fill:#0d1c92;fill-opacity:.941176;stroke-linecap:square;stroke-linejoin:round;stroke-opacity:.516984;filter:url(#b)"/><path d="m461.17773 56.287109a11.731179 11.731179 0 0 0 -1.35546.03711c-12.84677 1.107145-23.22081 7.32422-30.39844 14.875-6.26643 6.592201-10.35811 13.959081-13.81445 20.792969-.24232-2.065096-.76262-4.489545-2.14063-7.402344-1.56331-3.304482-4.71925-6.722471-8.38672-8.609375s-7.50498-2.569774-11.625-2.751953a11.731179 11.731179 0 0 0 -.60547-.01172c-2.39648.01785-5.16479.178843-8.13086.640625-5.4256-.0576-10.34185 1.84544-13.87109 4.265625-1.15346.79099-2.00965 1.680939-2.97852 2.537109-3.13529-2.79299-7.12674-4.702607-10.36914-4.738281-2.51928-.02772-4.54664.472658-6.33398 1.175781-.61704.242737-1.18624.520182-1.76563.798828-11.21493 2.414619-19.8068 7.317442-28.16796 13.371094-10.79507 2.363216-16.47266 12.623052-16.47266 12.623042a11.731179 11.731179 0 0 0 -.10156.27344c-3.25537-1.63783-6.85348-2.51035-10.06641-2.65039-3.9998-.17434-11.834-.389-19.57227 3.95117l1.49805-.70703c-5.96306 2.31233-9.32289 5.33129-14.04687 8.99219-3.57119 2.76753-6.73216 5.47725-9.54688 8.18555-.16892-2.74137-.96608-5.58485-2.79687-8.28516-2.57287-3.79481-7.44367-6.58986-12.07618-7.07031a11.731179 11.731179 0 0 0 -.85546-.0566c-12.02666-.36454-21.47743 5.16113-28.78321 11.24414-.51101-3.03876-1.51805-5.8227-3.5625-8.45703-2.39778-3.08962-7.23761-6.7341-13.5664-6.02149l2.20507-.0391c-1.11214-.0848-2.5382-.23384-4.20117-.35742-5.00458-.37193-12.92943-.58174-20.33984 4.36328-2.79513 1.8652-5.58479 3.41034-8.36133 4.89062.85468-.91921 1.82172-1.86096 3.12695-3.68945 1.13318-1.58745 2.68876-4.2896 3.09766-7.72656 1.31072-4.790351.36196-9.740932-1.57031-13.207032-2.46609-4.423644-6.23851-7.734421-11.61524-9.240235a11.731179 11.731179 0 0 0 -3.71679-.421875c-10.83522.511131-18.8939 2.290133-25.30078 6.775391-.0674-.360083-.0626-.687391-.14258-1.052735a11.731179 11.731179 0 0 0 -.0254-.111328c-1.61918-7.068005-5.84005-14.625037-13.86329-19.115234a11.731179 11.731179 0 0 0 -.004-.002c-2.75714-1.541938-5.85453-2.306767-8.9668-2.251953-1.02282.01803-2.066723.12446-3.111326.330078-4.123168.811375-7.831783 3.065939-10.449219 6.353515a11.731179 11.731179 0 0 0 -.06836.08984c-27.262583 34.926439-55.897645 84.092099-64.781139 136.128959a11.731179 11.731179 0 0 0 -.02344.14453c-.753618 4.76969.47578 9.65413 3.398438 13.49805a11.731179 11.731179 0 0 0 .05078.0644l9.019531 11.69336a11.731179 11.731179 0 0 0 2.865234 2.65234s3.642882 3.72418 11.816407 4.04688c4.086762.16135 11.275144-2.51882 14.195312-7.91016 2.920168-5.39133 2.458045-10.21488 1.490235-15.38086a11.731179 11.731179 0 0 0 -.455078-1.70507l-1.640626-4.70118c6.036767-27.56299 13.86604-50.83368 24.494141-71.62695 1.227903 2.41535 3.017783 4.62043 5.599609 6.35547 3.760203 2.52693 8.758588 3.2564 12.894528 2.34961 2.43942-.53484 4.54333-1.5876 6.49805-2.84375-.50024.68466-.32579.41339-1.17578 1.58594a11.731179 11.731179 0 0 0 -1.79297 3.70703c-1.84876 6.56789-.0896 11.65316 2.71094 16.03515 2.80055 4.38199 8.18215 9.30735 16.20117 8.60352a11.731179 11.731179 0 0 0 .002 0c9.40182-.82591 15.24423-5.91436 19.61914-9.08399.45524 1.36936 1.03251 2.69313 1.78516 3.93165.75492 1.24224 1.64758 2.36979 2.62305 3.41601-14.71627 3.76391-29.07152 7.93053-42.73633 12.76367a11.731179 11.731179 0 0 0 -.0918.0312c-.25866.0915-.53667.16393-.79492.25586a11.731179 11.731179 0 0 0 -6.36328 5.48633 11.731179 11.731179 0 0 0 -.0898.0723l-.0195.0371a11.731179 11.731179 0 0 0 -.14843 1.75585 11.731179 11.731179 0 0 0 -.87696 6.33204l3.86133 16.76757a11.731179 11.731179 0 0 0 15.3457 8.42578c21.96577-7.77419 43.77946-13.98439 65.44922-19.06054a11.731179 11.731179 0 0 0 2.25391 5.85742c6.20069 7.27875 15.84205 11.98692 26.25977 10.66992 3.68896-.35425 8.41071-1.56152 12.49609-5.1914 6.44444-5.43704 7.36813-10.51426 8.27148-12.18164a11.731179 11.731179 0 0 0 1.28321-3.82618c.26975-1.77573.22868-3.36931.19726-4.9375 25.54979-3.80434 50.83111-6.00467 75.80664-6.82031-.36492 1.57385-.72223 3.18406-.95312 5.08399.048-.39522-1.22488 2.36786-2.98438 7.60742a11.731179 11.731179 0 0 0 -.29883 1.04297c-.33868 1.43665-.25353.59643-2.24609 4.0957s-3.32501 10.53583-2.00391 16.83398a11.731179 11.731179 0 0 0 1.04493 2.94727c2.6544 5.17263 5.14846 9.10506 8.68359 12.41211 1.76757 1.65352 3.8639 3.23918 6.88281 4.24805 3.01891 1.00886 7.24284 1.0668 10.66016-.46094 6.83464-3.05548 8.49355-8.57332 9.44726-12.76367.77235-3.39348.88268-6.90018.74024-10.61133 3.63038-10.51532 6.15454-21.84491 8.10937-30.8086 51.73788.99313 102.00405 7.32418 150.20508 16.67578a11.731179 11.731179 0 0 0 6.86133-1.32031c-1.90543 3.09532-4.02061 6.1398-6.66602 8.94922a11.731179 11.731179 0 0 0 -.2539.27735c-4.42238 5.00962-6.033 12.50646-4.4668 18.24414 1.5662 5.73767 5.13749 9.80792 9.55274 12.49218 4.41524 2.68426 10.55393 4.29673 16.93164 1.66992 6.37771-2.6268 10.37903-9.43554 11.32031-15.88476a11.731179 11.731179 0 0 0 .11719-2.03125c.0399 1.38284.028.0569 1.10742-1.87305 1.07942-1.92992 2.72726-4.11006 4.4082-7.55078 1.37483-2.81416 3.63751-6.72844 5.89649-11.24805 1.37778-2.75656 2.75-5.60728 4.03906-8.46289 1.3461-2.98197 3.20296-6.29119 4.97461-9.73437 1.77164-3.44319 3.86241-6.58402 4.25976-12.57227-.0492.74118.45554-1.8746 1.3711-4.34375.91555-2.46914 2.03495-5.05495 2.94336-7.73437 1.34902-3.97907 5.73696-9.13941 7.60742-10.62696 6.63925-5.2801 6.49172-10.35299 5.97461-9.34374a11.731179 11.731179 0 0 0 .74219-1.80665c1.39872-4.41425 1.12611-10.11684-1.57227-14.41406s-6.94129-6.58671-10.82227-7.42187c-7.76194-1.67034-16.4319 1.43779-20.8457 9.50781l.26953-.4668c-.94563 1.55499-2.17358 3.24805-3.39062 4.92578-.023-1.68926-.21706-3.41502-.80274-5.17187-1.45947-4.37798-5.20406-8.02582-8.86328-9.60742-7.31843-3.16321-13.5543-1.38637-19.02344 1.8164a11.731179 11.731179 0 0 0 -.30078.1836l-3.41015 2.13672c-1.53074.0761-3.00542.17723-4.41211.42968.0112-.0621.0341-.0972.0449-.16015a11.731179 11.731179 0 0 0 .1582-1.45313c.17633-3.88953.54111-9.95157-4-17.17969-5.16169-8.215865-14.5141-10.096885-21.87109-9.52148-.12415.0097-.24513.04377-.36914.05469.63819-1.322645 1.68569-3.629584 2.66797-7.09961 1.36001-4.804436 2.89123-11.557625-.36719-19.378906-2.24503-5.388794-7.01067-8.054188-10.38477-9.169922-3.37409-1.115734-6.25206-1.318368-9.01172-1.400391zm-30.45703 41.121094c-.071.06055-1.36393 1.250651-1.93945 1.785156.69628-.791672 1.3383-1.355773 1.93945-1.785156zm-94.00586 26.613277c-3.72599 8.40733-6.84726 17.00715-9.49804 25.61719-1.6296-.006-3.25529.004-4.88282.008.58834-.77864 1.14673-1.63021 1.66797-2.55468 2.14301-3.33699 3.90025-8.11851 2.22071-13.38282-.61161-1.917-1.64465-3.41839-2.79688-4.74218 2.46206.0236 4.94667-.2087 7.36524-1.03711a11.731179 11.731179 0 0 0 4.2207-2.53907c.30838-.28905 1.21184-.95609 1.70312-1.36914zm-38.23632 4.9668c-.025.0289-.0435.0723-.0684.10156-.0202.0147-.0224.0163-.043.0312.0372-.0357.077-.10303.11133-.13281zm-1.78711 2.67578c-.0854.15571-.19725.25802-.2793.41992l.0996-.1914c.06-.11321.0696-.0842.12695-.18946zm102.0039 3.21485c-.0821.33652-.14829.6668-.21875 1.00586-.10277.19638-.25202.56298-.39844.88867.14294-1.79561.47489-2.13591.61719-1.89453zm42.33203 1.4082a11.731179 11.731179 0 0 0 -.30859 1.69922c-.0293.27285.0329.57166.01.84765-.18847-.56694-.0859-1.06684.29882-2.54687zm99.44336.66992-.48437 1.98633c.0838-.2473.083-.54224.16015-.79492.0982-.40316.26076-.77806.32422-1.19141zm-143.5039 6.50977c.0719.54812.10402 1.05034.26367 1.69531.24162.97618.56028 2.86987 1.75195 5.50195.35123.77578 1.07082 1.67989 1.66211 2.55274-9.13603-.8708-18.28139-1.58742-27.43164-2.14453.0368-.009.0666-.006.10352-.0156a11.731179 11.731179 0 0 0 2.12695-.79102c-2.32167 1.13048-.39963.32055 2.16211-.33593 1.95429-.50082 4.83238-1.33229 7.74219-3.43164 1.92097-.66804 7.11095-2.42844 10.95117-2.88086l-.10742.0117c.2873-.0312.4959-.12367.77539-.16211zm121.0957 3.26562c-2.56548 3.6975-4.01946 4.13733-5.09375 4.23242.0724-.0637.28591-.19939.34375-.2539 1.05641-.9955-.53103.2263-.57617.24414a11.731179 11.731179 0 0 0 5.32617-4.22266zm-155.29883 3.3457c.38187.16515.92732.29923 1.38867.4668-.53223-.0264-1.06352-.0391-1.5957-.0644.07-.13968.13716-.26714.20703-.40235zm81.83594 1.34961-.82031.48243c2.93397 4.1239 8.02468 6.4926 11.84179 6.88086 7.96979.81063 12.84935-2.01536 17.44336-4.41016l-.34765.17383c1.5376-.73765 2.82136-1.522 3.99218-2.27539.0781.0819.0483.0108.0274-.0176.0852-.0549.20781-.11155.29101-.16602a11.731179 11.731179 0 0 0 5.44922 3.53907c5.88687 1.49708 10.82708 1.32719 15.04492.8789-.33645 4.44774.44623 8.86089 2.47657 12.80469-21.90943-5.11352-44.27209-9.22641-66.8711-12.33398 1.20587-.58711 2.4135-1.25873 3.61328-2.0625-.70967.47542.0297.0115 1.41407-.48243 1.23383-.44019 3.06049-.97665 5.60547-2.55078.00033-.00018-.00034-.002 0-.002.31014-.19185.50382-.22894.83984-.45899zm87.14648.23633c.0329.11718-.079.0749-.26562.38282-.28655.51933-.44934.56139-.38867.52539 0 0-531.0918-152.57227-531.0918-152.57227zm-6.33398 14.48047c.0671-.0447.14393.21526.16992.29492-.0551.0923-.10123.19232-.15625.28516.0115-.081-.033-.56718-.0137-.58008zm11.9082 10.86328-.34375.17188c.43932-.21222.31594.0653-.48633.19726.27411-.13566.55775-.22643.83008-.36914zm-20.7539 3.85352c.42385.0644.83924.15053 1.26953.19531-.47726 1.00595-.81561 1.71261-1.20313 2.54688a11.731179 11.731179 0 0 0 -.0664-2.74219zm-321.67774 5.4707c-.45324.48566-.4689.60828-.91406 1.12109-.0154.0213-.0315.0333-.0469.0547z" fill="#4f87c4" filter="url(#c)"/><path d="m113.65879 193.94744.0191-.038 3.86698 16.79831c136.05784-48.15406 267.25024-42.57801 385.45226-19.64533l2.05557-8.54439c-131.04385-32.20844-281.70055-27.62853-391.39391 11.42941zm347.17129-125.935721c-19.78912 1.705444-29.18401 17.623442-36.32031 32.173831l-6.62696 14.73242c-1.63858 1.923-9.53711 6.06676-15.49804 9.10351-5.40956 2.37764-6.11988-3.93017-4.20704-6.66796 2.80415-5.62554 7.56197-13.62416 5.97852-18.539067-.58694-6.602439.88577-13.332035-11.2168-13.867187-2.36308.0176-4.84437.143756-7.24023.589843-5.99859-.812143-11.06316 3.941012-14.54102 8.691407-6.97564 2.93793-5.7949-.02722-10-3.759766-1.77124-4.271917-6.02811-2.664031-6.88476-1.730469-11.85172 1.958876-18.90825 6.507096-28.58789 13.744139-7.62361-.0122-10.09571 5.91992-10.09571 5.91992-1.7174 5.15519 3.99714 10.96546 11.40039 8.42969 6.08609-5.70461 25.2643-19.456995 31.05469-14.99609 1.5894 1.43781 1.65813 2.95689 1.57031 4.48437-11.41361 16.62136-19.18563 37.78916-24.5664 57.91992-1.01344 3.79151-5.26447 5.95996-5.82617 9.7793-1.05899 7.2008-4.29218 12.48155-5.05469 18.75586-.39078 3.21555-2.27837 6.25884-3.50977 9.92578-1.73391 7.35512-6.12544 6.59126-4.1875 15.83008 9.1693 17.86819 15.43078 12.22537 14.22461-3.51563 4.6362-12.50995 8.3212-32.38073 10.55664-41.17968.99321-3.90934 3.09332-5.48439 4.04297-9.43946 2.4124-10.04711 5.46915-18.86021 9.88672-24.87695 5.11616-7.59107 10.67219 1.38102 15.12695.19922 1.99873-.97323 6.6185-.8868 9.22657-3.63477 0 0 8.29544-3.28129 15.39062-4.11718 4.54088-.49244 7.7617-3.09927 11.00977-4.5625 4.24019-1.83411 8.57974 1.12354 6.4082 4.84179-1.61162 3.85402-2.03504 3.07819-2.60547 6.92188.0256.82389-1.30857 2.41835-1.12109 3.17578.58193 2.35104 1.08003 4.89282 3.42578 6.125 3.73252.88017 12.47147.52327 18.16797-3.29297 2.21865-1.48633 5.86324-2.128 7.76172-3.42773 5.5129-2.75891 5.59654-5.65124 9.23437-7.42188 4.29433-3.53745 5.89459 2.13943 5.17383 4.91211-1.16499 10.85335 7.88449 8.5859 15.26172 4.74024 4.58944-2.20174 7.24344-5.36907 9.74804-6.10352 2.57113-.6926 4.66422.56122 5.24054 3.08954.35086 1.53924 2.00565 2.37678 2.73678 3.30374 5.90509 1.50172 12.7931.54083 16.41219-.0977 3.80576-1.15226 3.27956-2.79453 6.64648-4.12484.73217-1.05524 11.04579-.90409 3.59097 9.17305-8.28785 12.43649 1.36206 27.0901 19.85683 17.39883 7.95065-3.84057 4.57991 4.33811 4.57991 4.33811-4.39822 7.03716-9.54677 18.32276-11.18494 21.83122-3.37194 7.22165-7.71604 16.90558-15.77173 25.46074-8.65414 9.80332 10.70325 22.37308 12.93751 7.06492-.14763-5.11016 4.83338-11.08683 6.70172-14.91114 1.66394-3.40594 3.89664-7.24919 5.9424-11.34221 1.32337-2.6477 2.63113-5.36758 3.84026-8.04613 3.28105-7.26841 7.94218-14.0438 8.22177-18.25731.26889-4.05218 3.63744-11.31356 4.91004-15.0672 2.39326-7.05912 7.71303-13.09762 11.41483-16.0416 1.61957-1.28802 1.89514-3.67592 2.83592-5.51204 2.44806-7.72585-8.33945-9.42441-11.7672-3.15724-5.71025 9.38985-15.06911 21.05375-23.44115 25.90125-11.44708 3.14493-13.0989-7.21489-9.64495-12.91287.83738-1.24111 1.84199-2.27131 3.03167-3.08323 1.03607-3.65528 3.8199-3.94576 4.39705-7.70453 2.72047-8.02556-4.74543-9.58894-10.51619-6.20953l-6.06531 3.80145c-7.07686-.65702-11.9359 1.82798-16.76554 4.35463-5.35474 2.19739-12.30801-3.92676-8.85092-10.15297 1.89671-2.2163 5.67654-4.96358 6.11536-7.52069.1074-2.36914-.13979-7.10843-2.21289-10.4082-4.02546-6.40733-16.65394-4.97454-26.16797 1.60156-3.87779 2.70639-7.91154 7.70588-11.28515 10.90235-2.47605 2.34602-4.09971 3.47157-7.52735 4.51562-5.71001 2.66574-9.29442 6.45015-12.88086 8.91992-7.99762 5.83029-14.43756 1.07828-11.88086-5.7168 6.76917-8.95887 5.14157-8.12853 15.20508-13.39257 13.45601-6.34545 24.56429-17.370714 31.22266-26.669925 0 0 5.5388-10.488285 2.47851-17.833984-1.01553-2.437601-4.651-3.230657-8.91601-3.357422zm-7.85547 11.292969c3.69663.06983 6.43321 5.385883 3.36914 9.175781-9.7732 9.274718-11.11584 12.672981-18.75391 18.458981-1.83184 2.08282-9.44043.64829-4.65234-5.56054 5.51176-7.316168 10.25616-14.299946 16.19922-20.144535 1.26634-1.393759 2.60568-1.952964 3.83789-1.929687zm-65.27539 17.986328c2.56672.05722 6.03231.885078 6.27148 4.898434.13606 5.39318-2.90055 7.51582-4.91406 12.70117-1.96928 2.91716-3.47935 6.92112-6.1582 8.70118-5.73776 5.34219-12.50349 5.58996-19.33594 10.73828-5.3584 1.09188-4.34841-2.77043-4.11914-6.89844.63304-2.90247 4.09007-7.58178 5.54102-9.99414 3.68508-5.43728 5.29444-10.5435 10.88671-14.29688 3.19056-2.53578 5.64042-3.858116 9.07227-5.64062 0 0 1.21582-.243319 2.75586-.208984zm93.71289 15.224604c2.75803-.0508 4.0272 2.30845 2.97851 5.14844-4.54507 6.04612-5.36495 3.94295-15.48828 16.74805-4.70314 3.10663-10.78989-1.38433-7.76757-6.62305 6.37549-6.25836 10.0184-14.16775 19.00585-15.09765.45234-.11123.87748-.16853 1.27149-.17579zm-379.59766-38.683589c-.35164.0062-.70357.0426-1.05273.111328-1.396785.274556-2.650463 1.036735-3.537111 2.150391-26.397824 33.8184-54.089484 81.82637-62.464843 130.88672-.255321 1.61594.160209 3.26606 1.15039 4.56836l9.019532 11.69336s12.436475 8.13566 9.550781-7.26758l-2.757813-7.90234c9.455848-44.67036 23.53541-79.47337 46.390625-110.261723 4.870549-4.995414 8.150979 5.343203 7.638669 7.341793-1.05896 6.27789-6.4723 8.82386-7.318428 18.59239-1.948204 8.08155 4.009248 12.84532 10.757878 6.46831 7.05209-12.85755 13.08775-12.36359 19.60743-19.22671 2.77174-2.91775 8.71149.20991 7.80078 4.07617-2.70342 8.47748-9.33367 16.06706-9.58594 22.78711-.24709 6.58219-1.34347 6.81811-5.29101 12.26367-1.13739 4.04068 2.41407 10.14241 6.5957 9.77539 5.62133-.49381 9.40174-3.78546 14.33398-7.29101 0 0 7.32102-7.0037 13.04688-12.75586 2.36458-2.37545 5.12914-4.31239 7.41211-6.08008 3.46533-2.27928 7.12122 6.14682 1.82812 10.625-12.42644 10.79337-2.29214 24.93221 10.83399 20.36523 2.65279-.74675 6.30456-1.32439 8.63281-2.76757 5.01002-2.73187 9.98865-5.5298 14.87891-8.47266 6.91307 3.88144 10.13971 7.32771 22.0957 3.14844 1.82665.18754 4.01596-2.5735 6.0293 4.25-2.30892 4.75203-4.93976 8.97977-7.41407 13.58984-1.37614 5.47667-.71572 11.19504-1.11914 16.78125.51671 2.85821-2.03042 4.80922-4.10547 6.29492-2.74384.89308-4.71158-1.91158-6.55468-3.45117-.93931-1.98566-3.76411-1.16882-4.75196.21094-1.96404 2.10449-5.37304 6.61914-5.37304 6.61914 4.01906 4.71782 9.94004 7.46164 16.0039 6.63867 2.23731-.18917 4.44184-.82711 6.13086-2.375 2.31022-1.9049 4.21332-6.29836 5.64844-8.94727.92718-6.10343-1.31952-8.45924-.8457-11.21679 1.21676-6.4011 6.50346-12.55668 9.51758-17.64453-.23185-1.10106-.23141-2.02997-.10157-2.85743 1.11759-1.73991 4.43195-6.76438 5.82031-7.21875 5.42503-1.77545 8.90656-3.32149 11.22071-7.18164 3.05354-5.09349 6.91057-10.48553 9.25586-11.88672 1.84171-2.10185 5.61982.15874 4.50781 2.65235-1.3498 3.02685-.60964 1.58326-.9375 3.35742s-1.40608 3.62441-.15625 6.86328c.62491 1.61944 2.47807 3.14653 4.1582 3.55274 1.92575-.23509 3.51152-.31957 5.72461-.30664 5.58065-2.22868 9.85035-5.25802 13.48475-8.61182 1.8134-1.72558 4.95092-.5785 5.68557.70315.94757 1.62474 1.84983 3.20252 4.0289 4.20554 1.2204.56218 3.88567.47805 5.02734-.23047 1.90491-1.18243 4.11973-2.41729 6.19922-3.83398 2.0795-1.41669 4.13386-2.94747 5.47852-5.48438 4.6152-6.53476-5.21033-7.4125-7.06836-3.74609-.19742.37246-2.87576 1.79026-4.16797 3.63672-6.21471 1.95035-7.58777-2.8765-4.83177-6.60675 1.32254-1.52433 2.661-3.01429 4.06615-4.43036 1.46029-2.07242 2.21492-4.34496 1.86914-6.49024-1.09487-6.79282-2.30066-9.93992-9.72852-10.26367-3.87332-.16883-8.39099-.30292-13.32226 2.46289-4.57371 1.77357-17.7456 12.18705-21.85938 16.73438-4.95936 3.45554-9.00597 7.91384-12.32812 12.23828-2.19354 2.85532-4.79247 6.9202-7.73829 9.7832-.006-.0192-.007-.0353-.0137-.0547-7.75817.6303-5.08959-2.33563-3.17969-6.79101 2.74453-2.74337 5.2047-6.05619 7.23047-10.28516 1.18092-4.57076-.1871-13.6294-6.5664-5.46093-3.87488 8.08913-10.26917 13.97355-16.24805 16.85156-6.66264 2.32173-6.18077-4.47511-5.70898-7.36328 2.06278-1.99371 4.15861-3.94019 6.18164-5.67774 5.50992-4.8358 9.73948-9.24002 15.76953-7.72851 5.54804 1.21197 7.37631-8.98465.54297-9.69336-10.28747-.31182-19.10398 6.32228-26.08203 13.19531-3.14085 3.09747-4.81456 7.34703-7.62073 10.7485-8.42532 5.48291-18.43919 9.53115-27.36951 14.12845-5.02836.71536-6.95253-2.71086-5.25-6.27734 5.26665-6.50491 10.23314-7.08548 14.69141-7.25586 6.28302-2.18461 3.26684-9.28077-3.05078-7.18555-9.82077 1.05308-7.27619-5.14877-6.16016-7.24804 6.65505-4.94853 9.70042-2.99617 15.46289-2.17969 8.96938.12179 5.64697-11.73659 1.13477-11.22852-1.34112-.1023-2.74396-.24892-4.17774-.35547-4.31444-.32064-8.90978-.27823-12.95898 2.42383-9.82787 6.5582-19.45167 10.4233-24.40165 14.37298-5.65545 3.15117-6.96616 8.75778-9.07183 11.18-4.9476 5.69139-9.32606-1.12169-6.65738-5.09595 4.25626-6.80591 9.9841-13.848 10.94336-22.78125.91559-8.52659 9.51493-12.03835 8.89062-16.048825 2.01908-3.394722-.89773-7.997302-4.70117-9.0625-20.18288.952089-21.85016 6.123928-29.11523 17.222655-6.03087 4.57897-9.92194.2317-8.89454-4.22266.78625-5.823094 1.67364-11.373672.55469-16.486323-1.01949-4.450253-3.66672-8.984393-8.1582-11.498047-.93177-.521095-1.98021-.780299-3.03516-.761719zm190.36524 46.345699c2.78126-.0831 4.97934 2.17577 3.24219 5.35547-7.33184 7.88505-9.80206 10.14985-13.26954 15.16992-4.52302 4.33135-13.14954 1.29982-10.12695-4.48437.89255-1.6768 2.68106-2.98673 4.23242-4.80859 3.45249-4.05445 7.27904-7.06031 12.08203-9.53516 1.19039-1.13944 2.57564-1.65949 3.83985-1.69727z" fill="#fff" filter="url(#a)"/><path d="m101.81445 73.832031c-.35164.0062-.70357.0426-1.05273.111328-1.396785.274556-2.650463 1.036735-3.537111 2.150391-26.397824 33.8184-54.089484 81.82637-62.464843 130.88672-.255321 1.61594.160209 3.26606 1.15039 4.56836l9.019532 11.69336s12.436475 8.13566 9.550781-7.26758l-2.757813-7.90234c9.455848-44.67036 23.53541-79.47337 46.390625-110.261723 4.870549-4.995414 8.150979 5.343203 7.638669 7.341793-1.05896 6.27789-6.4723 8.82386-7.318428 18.59239-1.948204 8.08155 4.009248 12.84532 10.757878 6.46831 7.05209-12.85755 13.08775-12.36359 19.60743-19.22671 2.77174-2.91775 8.71149.20991 7.80078 4.07617-2.70342 8.47748-9.33367 16.06706-9.58594 22.78711-.24709 6.58219-1.34347 6.81811-5.29101 12.26367-1.13739 4.04068 2.41407 10.14241 6.5957 9.77539 5.62133-.49381 9.40174-3.78546 14.33398-7.29101 0 0 7.32102-7.0037 13.04688-12.75586 2.36458-2.37545 5.12914-4.31239 7.41211-6.08008 3.46533-2.27928 7.12122 6.14682 1.82812 10.625-12.42644 10.79337-2.29214 24.93221 10.83399 20.36523 2.65279-.74675 6.30456-1.32439 8.63281-2.76757 5.01002-2.73187 9.98865-5.5298 14.87891-8.47266 6.91307 3.88144 10.13971 7.32771 22.0957 3.14844 1.82665.18754 4.01596-2.5735 6.0293 4.25-2.30892 4.75203-4.93976 8.97977-7.41407 13.58984-1.37614 5.47667-.71572 11.19504-1.11914 16.78125.51671 2.85821-2.03042 4.80922-4.10547 6.29492-2.74384.89308-4.71158-1.91158-6.55468-3.45117-.93931-1.98566-3.76411-1.16882-4.75196.21094-1.96404 2.10449-5.37304 6.61914-5.37304 6.61914 4.01906 4.71782 9.94004 7.46164 16.0039 6.63867 2.23731-.18917 4.44184-.82711 6.13086-2.375 2.31022-1.9049 4.21332-6.29836 5.64844-8.94727.92718-6.10343-1.31952-8.45924-.8457-11.21679 1.21676-6.4011 6.50346-12.55668 9.51758-17.64453-.23185-1.10106-.23141-2.02997-.10157-2.85743 1.11759-1.73991 4.43195-6.76438 5.82031-7.21875 5.42503-1.77545 8.90656-3.32149 11.22071-7.18164 3.05354-5.09349 6.91057-10.48553 9.25586-11.88672 1.84171-2.10185 5.61982.15874 4.50781 2.65235-1.3498 3.02685-.60964 1.58326-.9375 3.35742s-1.40608 3.62441-.15625 6.86328c.62491 1.61944 2.47807 3.14653 4.1582 3.55274 1.92575-.23509 3.51152-.31957 5.72461-.30664 5.58065-2.22868 9.85035-5.25802 13.48475-8.61182 1.8134-1.72558 4.95092-.5785 5.68557.70315.94757 1.62474 1.84983 3.20252 4.0289 4.20554 1.2204.56218 3.88567.47805 5.02734-.23047 1.90491-1.18243 4.11973-2.41729 6.19922-3.83398 2.0795-1.41669 4.13386-2.94747 5.47852-5.48438 4.6152-6.53476-5.21033-7.4125-7.06836-3.74609-.19742.37246-2.87576 1.79026-4.16797 3.63672-6.21471 1.95035-7.58777-2.8765-4.83177-6.60675 1.32254-1.52433 2.661-3.01429 4.06615-4.43036 1.46029-2.07242 2.21492-4.34496 1.86914-6.49024-1.09487-6.79282-2.30066-9.93992-9.72852-10.26367-3.87332-.16883-8.39099-.30292-13.32226 2.46289-4.57371 1.77357-17.7456 12.18705-21.85938 16.73438-4.95936 3.45554-9.00597 7.91384-12.32812 12.23828-2.19354 2.85532-4.79247 6.9202-7.73829 9.7832-.006-.0192-.007-.0353-.0137-.0547-7.75817.6303-5.08959-2.33563-3.17969-6.79101 2.74453-2.74337 5.2047-6.05619 7.23047-10.28516 1.18092-4.57076-.1871-13.6294-6.5664-5.46093-3.87488 8.08913-10.26917 13.97355-16.24805 16.85156-6.66264 2.32173-6.18077-4.47511-5.70898-7.36328 2.06278-1.99371 4.15861-3.94019 6.18164-5.67774 5.50992-4.8358 9.73948-9.24002 15.76953-7.72851 5.54804 1.21197 7.37631-8.98465.54297-9.69336-10.28747-.31182-19.10398 6.32228-26.08203 13.19531-3.14085 3.09747-4.81456 7.34703-7.62073 10.7485-8.42532 5.48291-18.43919 9.53115-27.36951 14.12845-5.02836.71536-6.95253-2.71086-5.25-6.27734 5.26665-6.50491 10.23314-7.08548 14.69141-7.25586 6.28302-2.18461 3.26684-9.28077-3.05078-7.18555-9.82077 1.05308-7.27619-5.14877-6.16016-7.24804 6.65505-4.94853 9.70042-2.99617 15.46289-2.17969 8.96938.12179 5.64697-11.73659 1.13477-11.22852-1.34112-.1023-2.74396-.24892-4.17774-.35547-4.31444-.32064-8.90978-.27823-12.95898 2.42383-9.82787 6.5582-19.45167 10.4233-24.40165 14.37298-5.65545 3.15117-6.96616 8.75778-9.07183 11.18-4.9476 5.69139-9.32606-1.12169-6.65738-5.09595 4.25626-6.80591 9.9841-13.848 10.94336-22.78125.91559-8.52659 9.51493-12.03835 8.89062-16.048825 2.01908-3.394722-.89773-7.997302-4.70117-9.0625-20.18288.952089-21.85016 6.123928-29.11523 17.222655-6.03087 4.57897-9.92194.2317-8.89454-4.22266.78625-5.823094 1.67364-11.373672.55469-16.486323-1.01949-4.450253-3.66672-8.984393-8.1582-11.498047-.93177-.521095-1.98021-.780299-3.03516-.761719zm190.36524 46.345699c2.78126-.0831 4.97934 2.17577 3.24219 5.35547-7.33184 7.88505-9.80206 10.14985-13.26954 15.16992-4.52302 4.33135-13.14954 1.29982-10.12695-4.48437.89255-1.6768 2.68106-2.98673 4.23242-4.80859 3.45249-4.05445 7.27904-7.06031 12.08203-9.53516 1.19039-1.13944 2.57564-1.65949 3.83985-1.69727z" opacity=".97"/><path d="m460.83008 68.011719c-19.78912 1.705444-29.18401 17.623442-36.32031 32.173831l-6.62696 14.73242c-1.63858 1.923-9.53711 6.06676-15.49804 9.10351-5.40956 2.37764-6.11988-3.93017-4.20704-6.66796 2.80415-5.62554 7.56197-13.62416 5.97852-18.539067-.58694-6.602439.88577-13.332035-11.2168-13.867187-2.36308.0176-4.84437.143756-7.24023.589843-5.99859-.812143-11.06316 3.941012-14.54102 8.691407-6.97564 2.93793-5.7949-.02722-10-3.759766-1.77124-4.271917-6.02811-2.664031-6.88476-1.730469-11.85172 1.958876-18.90825 6.507096-28.58789 13.744139-7.62361-.0122-10.09571 5.91992-10.09571 5.91992-1.7174 5.15519 3.99714 10.96546 11.40039 8.42969 6.08609-5.70461 25.2643-19.456995 31.05469-14.99609 1.5894 1.43781 1.65813 2.95689 1.57031 4.48437-11.41361 16.62136-19.18563 37.78916-24.5664 57.91992-1.01344 3.79151-5.26447 5.95996-5.82617 9.7793-1.05899 7.2008-4.29218 12.48155-5.05469 18.75586-.39078 3.21555-2.27837 6.25884-3.50977 9.92578-1.73391 7.35512-6.12544 6.59126-4.1875 15.83008 9.1693 17.86819 15.43078 12.22537 14.22461-3.51563 4.6362-12.50995 8.3212-32.38073 10.55664-41.17968.99321-3.90934 3.09332-5.48439 4.04297-9.43946 2.4124-10.04711 5.46915-18.86021 9.88672-24.87695 5.11616-7.59107 10.67219 1.38102 15.12695.19922 1.99873-.97323 6.6185-.8868 9.22657-3.63477 0 0 8.29544-3.28129 15.39062-4.11718 4.54088-.49244 7.7617-3.09927 11.00977-4.5625 4.24019-1.83411 8.57974 1.12354 6.4082 4.84179-1.61162 3.85402-2.03504 3.07819-2.60547 6.92188.0256.82389-1.30857 2.41835-1.12109 3.17578.58193 2.35104 1.08003 4.89282 3.42578 6.125 3.73252.88017 12.47147.52327 18.16797-3.29297 2.21865-1.48633 5.86324-2.128 7.76172-3.42773 5.5129-2.75891 5.59654-5.65124 9.23437-7.42188 4.29433-3.53745 5.89459 2.13943 5.17383 4.91211-1.16499 10.85335 7.88449 8.5859 15.26172 4.74024 4.58944-2.20174 7.24344-5.36907 9.74804-6.10352 2.57113-.6926 4.66422.56122 5.24054 3.08954.35086 1.53924 2.00565 2.37678 2.73678 3.30374 5.90509 1.50172 12.7931.54083 16.41219-.0977 3.80576-1.15226 3.27956-2.79453 6.64648-4.12484.73217-1.05524 11.04579-.90409 3.59097 9.17305-8.28785 12.43649 1.36206 27.0901 19.85683 17.39883 7.95065-3.84057 4.57991 4.33811 4.57991 4.33811-4.39822 7.03716-9.54677 18.32276-11.18494 21.83122-3.37194 7.22165-7.71604 16.90558-15.77173 25.46074-8.65414 9.80332 10.70325 22.37308 12.93751 7.06492-.14763-5.11016 4.83338-11.08683 6.70172-14.91114 1.66394-3.40594 3.89664-7.24919 5.9424-11.34221 1.32337-2.6477 2.63113-5.36758 3.84026-8.04613 3.28105-7.26841 7.94218-14.0438 8.22177-18.25731.26889-4.05218 3.63744-11.31356 4.91004-15.0672 2.39326-7.05912 7.71303-13.09762 11.41483-16.0416 1.61957-1.28802 1.89514-3.67592 2.83592-5.51204 2.44806-7.72585-8.33945-9.42441-11.7672-3.15724-5.71025 9.38985-15.06911 21.05375-23.44115 25.90125-11.44708 3.14493-13.0989-7.21489-9.64495-12.91287.83738-1.24111 1.84199-2.27131 3.03167-3.08323 1.03607-3.65528 3.8199-3.94576 4.39705-7.70453 2.72047-8.02556-4.74543-9.58894-10.51619-6.20953l-6.06531 3.80145c-7.07686-.65702-11.9359 1.82798-16.76554 4.35463-5.35474 2.19739-12.30801-3.92676-8.85092-10.15297 1.89671-2.2163 5.67654-4.96358 6.11536-7.52069.1074-2.36914-.13979-7.10843-2.21289-10.4082-4.02546-6.40733-16.65394-4.97454-26.16797 1.60156-3.87779 2.70639-7.91154 7.70588-11.28515 10.90235-2.47605 2.34602-4.09971 3.47157-7.52735 4.51562-5.71001 2.66574-9.29442 6.45015-12.88086 8.91992-7.99762 5.83029-14.43756 1.07828-11.88086-5.7168 6.76917-8.95887 5.14157-8.12853 15.20508-13.39257 13.45601-6.34545 24.56429-17.370714 31.22266-26.669925 0 0 5.5388-10.488285 2.47851-17.833984-1.01553-2.437601-4.651-3.230657-8.91601-3.357422zm-7.85547 11.292969c3.69663.06983 6.43321 5.385883 3.36914 9.175781-9.7732 9.274718-11.11584 12.672981-18.75391 18.458981-1.83184 2.08282-9.44043.64829-4.65234-5.56054 5.51176-7.316168 10.25616-14.299946 16.19922-20.144535 1.26634-1.393759 2.60568-1.952964 3.83789-1.929687zm-65.27539 17.986328c2.56672.05722 6.03231.885078 6.27148 4.898434.13606 5.39318-2.90055 7.51582-4.91406 12.70117-1.96928 2.91716-3.47935 6.92112-6.1582 8.70118-5.73776 5.34219-12.50349 5.58996-19.33594 10.73828-5.3584 1.09188-4.34841-2.77043-4.11914-6.89844.63304-2.90247 4.09007-7.58178 5.54102-9.99414 3.68508-5.43728 5.29444-10.5435 10.88671-14.29688 3.19056-2.53578 5.64042-3.858116 9.07227-5.64062 0 0 1.21582-.243319 2.75586-.208984zm93.71289 15.224604c2.75803-.0508 4.0272 2.30845 2.97851 5.14844-4.54507 6.04612-5.36495 3.94295-15.48828 16.74805-4.70314 3.10663-10.78989-1.38433-7.76757-6.62305 6.37549-6.25836 10.0184-14.16775 19.00585-15.09765.45234-.11123.87748-.16853 1.27149-.17579z" opacity=".97"/><path d="m113.65879 193.94744.0191-.038 3.86698 16.79831c136.05784-48.15406 267.25024-42.57801 385.45226-19.64533l2.05557-8.54439c-131.04385-32.20844-281.70055-27.62853-391.39391 11.42941z"/></g></svg>