<svg height="174" viewBox="0 0 600 174" width="600" xmlns="http://www.w3.org/2000/svg" xmlns:xlink="http://www.w3.org/1999/xlink"><linearGradient id="a" gradientUnits="userSpaceOnUse" x1="360.46387" x2="360.46387" y1="-.345703" y2="164.28418"><stop offset="0" stop-color="#8d82ce"/><stop offset=".04930225" stop-color="#8f83d0"/><stop offset=".3055557" stop-color="#fff"/><stop offset=".3232936" stop-color="#fff"/><stop offset=".36013636" stop-color="#fb9302"/><stop offset=".60351187" stop-color="#f3ee12"/><stop offset=".95469856" stop-color="#fff"/><stop offset="1" stop-color="#fff"/></linearGradient><text fill="#ef00eb" font-family="TrasksHand" font-size="2" stroke="#0105ff" stroke-width="2.5" x="321.8288" y="49.199272"><tspan fill="#fafafa" fill-opacity=".4" font-size="2" stroke="none" stroke-width="2.5" x="321.8288" y="49.199272">John Loreth 2022</tspan></text><g stroke="#010315" stroke-width="2.5"><path d="m453.34407 169.04059c-3.07656 0-4.61483-1.1938-4.61483-3.58139v-34.61996c0-2.38758 1.53827-3.58137 4.61483-3.58137h17.48961c2.20486 0 4.10207.63669 5.69163 1.91007l17.96765 19.63787 18.91494-19.63787c1.58956-1.27338 3.48676-1.91007 5.6916-1.91007h15.77322c3.07656 0 4.61483 1.19379 4.61483 3.58137v34.61996c0 2.38759-1.53827 3.58139-4.61483 3.58139h-8.98336c-3.07656 0-4.63021-1.19385-4.61483-3.58139v-17.42935l-19.01328 19.19988c-1.58954 1.27337-3.48675 1.91007-5.69161 1.91007h-4.92249c-2.20486 0-4.10207-.6367-5.69163-1.91007l-18.23287-19.19988v17.42935c0 2.38759-1.53827 3.58139-4.61482 3.58139zm-14.67911-11.91729q3.77713 0 3.77713 3.54218v4.60484q0 3.54218-3.77713 3.54218h-52.25038q-3.77714 0-3.77714-3.54218v-34.2411q0-3.54218 3.77714-3.54218h51.62086q3.77714 0 3.77714 3.54218v4.60484q0 3.54218-3.77714 3.54218h-37.77137v4.01448h35.88281q3.14761 0 3.14761 2.95181v3.54219q0 2.95182-3.14761 2.95182h-35.88281v4.48676zm-69.53274-29.63626q3.98864 0 3.98864 3.54218v6.49401q0 3.54218-3.98864 3.54218h-19.94315v24.20491q0 3.54219-3.98862 3.54219h-10.63635q-3.98863 0-3.98863-3.54219v-24.20491h-19.94315q-3.98862 0-3.98862-3.54218v-6.49401q0-3.54218 3.98862-3.54218zm-133.76601 31.52543v-.82651q0-3.18796 3.43869-3.18796h11.46231q2.29247 0 2.29247 2.1253v.11808q0 .88554.38208 1.23976.44575.29518 1.65567.29518h27.76426q1.20992 0 1.59199-.35422.44576-.41325.44576-1.53495v-1.18072q0-1.12169-.44576-1.47591-.38207-.35422-1.59199-.41325l-35.78789-1.2988q-5.54012-.17711-8.0873-2.4205-2.48349-2.30241-2.48349-7.37953v-5.43135q0-5.13617 2.54718-7.43859 2.54718-2.36145 8.02361-2.36145h44.19359q5.47643 0 8.02361 2.36145 2.54719 2.30242 2.54719 7.43859v.35421q0 3.18797-3.43869 3.18797h-11.8444q-1.91038 0-1.91038-1.77109v-.11807q0-.76748-.44576-1.06266-.44575-.35422-1.59199-.35422h-26.23595q-1.20992 0-1.65567.41326-.38208.35422-.38208 1.4759v.70844q0 1.1217.38208 1.47591.44575.35422 1.65567.41326l35.78788 1.29879q5.54012.17712 8.02362 2.47953 2.54718 2.24338 2.54718 7.32051v5.90364q0 5.13616-2.54718 7.49762-2.54718 2.30241-8.02362 2.30241h-45.72189q-5.47643 0-8.02362-2.30241-2.54718-2.36146-2.54718-7.49762zm-12.78026-31.52543q2.65909 0 3.25737 1.35784.66478 1.35783-1.19658 3.01085l-23.73235 22.07961v11.33498q0 3.54219-3.98863 3.54219h-10.63634q-3.98863 0-3.98863-3.54219v-11.33498l-23.73234-22.07961q-1.86137-1.65302-1.26308-3.01085.66478-1.35784 3.32386-1.35784h14.22611q2.925 0 4.91932 1.9482l12.29827 12.10246 12.29828-12.10246q1.99431-1.9482 4.9193-1.9482zm-141.219804 31.52543v-.82651q0-3.18796 3.589766-3.18796h11.965889q2.393178 0 2.393178 2.12531v.11807q0 .88554.398862 1.23976.465339.29518 1.728409.29518h28.98404q1.26306 0 1.66193-.35422.46534-.41325.46534-1.53494v-1.18072q0-1.12169-.46534-1.47591-.39887-.35422-1.66193-.41326l-37.360164-1.2988q-5.783513-.17711-8.4426-2.42049-2.592608-2.30242-2.592608-7.37955v-5.43135q0-5.13617 2.659086-7.43859 2.659086-2.36145 8.376122-2.36145h46.135154q5.71703 0 8.37611 2.36145 2.6591 2.30242 2.6591 7.43859v.35422q0 3.18796-3.58978 3.18796h-12.36475q-1.99431 0-1.99431-1.77109v-.11807q0-.76747-.46535-1.06266-.46533-.35421-1.66192-.35421h-27.38859q-1.26307 0-1.72841.41325-.39886.35422-.39886 1.47591v.70844q0 1.12169.39886 1.47591.46534.35422 1.72841.41325l37.36016 1.2988q5.78352.17711 8.37613 2.47953 2.65909 2.24339 2.65909 7.32052v5.90363q0 5.13616-2.65909 7.49762-2.65908 2.30242-8.37613 2.30242h-47.730596q-5.717035 0-8.376122-2.30242-2.659086-2.36146-2.659086-7.49762z"/><path d="m576.49342 9.9917574-.8626 37.4098816-20.11949-.361029.13399-37.0488526h-20.72422s.0738 67.1393876-.0367 100.9172126h21.79064l.13634-38.130997 18.09212.02645v38.104547s20.98781.0361 21.05443 0c0 0-.636-70.366677-.43008-100.9172145zm-88.94546 3.0981876-16.30826 24.133756.20793 73.685799h59.53776l.11908-19.469582-39.76985-.501195v-42.800617l6.40929-12.711645 32.40313-.116461.22822-22.088012zm-51.33968-.202253c-10.61362 0-12.7991-.151055-16.86544 6.548529l-11.46739 19.746755s-.34864 47.562091-.34864 71.726524h60.67598l-.48429-19.114066-39.45678-.206249c.13527-4.279008-.0835-14.136273-.0835-14.136273-.22244-3.395519.90102-3.328369 3.84047-3.461634l27.10197-.356259 7.97128-22.520623-40.62672.318412 7.93803-16.136904 31.98561-.107333-.18099-22.000618zm-97.51321 24.899205 20.07099.05077.17201 73.372403 23.22817-.30485.19108-73.012303 22.84968-.196719-.50533-25.725377c-22.43273.42491-66.00683.252189-66.00683.252189zm-16.53415 17.782448.11156 17.662119 23.6261.132681-.0139-18.000016zm-2.07853 55.340155c3.86893-.003 5.10415 0 3.83759-4.46808l-29.90598-82.970207c-2.21257-4.393056-4.20534-10.218864-10.02577-10.479323-2.5519-.288308-5.88246-.08705-8.44303-.171538l-.00003.000003c-6.89348.213646-18.73113.39611-18.73113.39611-1.65573 0-2.66705 1.557665-2.67857 4.678132.1896 30.454786.0141 93.014903.0141 93.014903h17.02831c4.46487 0 3.62062-2.53248 3.62062-10.33405.52904-17.803866-.28743-50.428567-.28743-50.428567l-.12332-12.761703c4.73489-.321089 14.56465 31.660836 14.56465 31.660836.3661 2.612841.65602 3.505817-2.92967 3.505817-3.94062.292167-10.05263.014-10.05263.014l4.907 19.451433 12.01186.268367c5.36188 0 4.69865.7847 6.58842 6.735788l3.61796 11.888069zm-112.91999-97.394431c-6.85335-.3618-8.24539 1.368929-9.82447 5.184953-4.25906 8.189201-10.54852 25.338923-10.54852 25.338923l-.33658 66.870555 54.8905-.14018c3.77842-.71738 5.50773-2.8593 5.50773-7.8176l-.49568-42.565166c0-5.04675.44972-6.573726-5.92165-6.323952l-15.2903.369537-12.95159 19.467044 14.78448-.299816c3.6262 0 3.5034.729597 3.5034 3.554312l.13319 12.132922h-21.50105c-3.29777.284043-2.87623-.280001-2.89894-3.211454l.25923-37.80723 5.59062-13.318582 34.0302-.402301.0796-21.181328zm-58.01236-.627377c-12.31673 0-15.08522-2.104712-18.86544 6.548529l-8.41853 20.675115s-1.10781 46.633731-1.10781 70.798164h59.69121l.33504-21.039911-40.53681-.13574c.13527-4.279009-.0835-12.109062-.0835-12.109062-.22244-3.395519.90102-3.328369 3.84047-3.461634l27.10197-.356259 7.97128-23.588368-38.26542-.148878 5.57673-14.773744 33.75104-.107333.60754-21.822865s-31.55833-.505029-31.59777-.478014zm-70.526997-2.076359-20.617644.44911c-1.244083.0271-4.681333-.703365-6.79162 4.339296l-32.916939 95.132431 20.549318.17733c8.989646-24.056252 18.502583-50.752255 27.355782-73.573787l9.082921.08458-12.251153 33.55416s-10.224515 27.034028-14.319362 39.935047l20.51009.27495 24.221079-68.417358c3.017006-7.495322 2.4497-7.881893 2.542815.288232l.320642 67.854176h19.154768l-.17633-99.10578-31.361944-.484057c-3.076613-.251491-5.98216 11.872438-5.457843 5.996059z" stroke-linejoin="round"/></g><g fill="url(#a)"><g stroke="#010000"><path d="m65.532162 152.97326v-1.72398c0-1.37919 1.029111-2.06879 3.087332-2.06879h10.906251c1.835711 0 2.753566.63213 2.753566 1.89639v.11493c0 .99608.333765 1.70483 1.001296 2.12625.723159.42142 1.947602.58529 3.671421.63213l27.143022.73749c1.72381.0468 2.92045-.22986 3.58798-.68959.72315-.49805 1.08473-1.34089 1.08473-2.52852v-.64621c0-1.18763-.33376-1.99216-1.00129-2.41358-.66753-.45973-1.89134-.72791-3.67142-.80453l-35.212266-.34262c-7.245087 0-12.398953-5.41145-12.516208-11.02162v-3.51676c0-7.05525 7.904131-10.61994 16.516208-10.61994h35.034146c4.28333 0 7.42629.6896 9.42888 2.06879 2.05823 1.37919 3.08734 4.90255 3.08734 7.89079v1.0344c0 1.37918-1.0013 2.06878-3.00389 2.06878h-8.35175c-1.61321 0-2.41981-.55551-2.41981-1.66652v-.11493c0-1.53244-1.5576-2.31222-4.67271-2.29865l-25.120399.10945c-1.724434.008-2.948263.24902-3.671422.74706-.667531.45973-1.001296 1.28341-1.001296 2.47104v.74707c0 1.18764.333765 2.01132 1.001296 2.47105.667531.42141 1.891339.67043 3.671422.74706l30.815429.15996c9.12949.42098 15.70602 3.68987 16.17901 11.16456v4.00653c0 2.98825-1.02911 5.17196-3.08734 6.55115-2.00259 1.37919-5.46768 2.06879-9.751 2.06879h-42.97232c-4.283325 0-7.454098-.6896-9.512319-2.06879-2.002593-1.37919-3.003889-4.30039-3.003889-7.28864z" stroke-width="1.5"/><path d="m209.34276 122.54429c1.43701 0 2.3567.26818 2.75907.80453.40236.53635.20118 1.18763-.60355 1.95385l-26.89281 25.42475v11.30464c0 1.53243-1.1496 2.29865-3.44882 2.29865h-11.89975c-2.29922 0-3.44883-.76622-3.44883-2.29865v-12.35524l-26.67042-24.62415c-.80473-.76622-1.00592-1.4175-.60355-1.95385s1.32205-.80453 2.75906-.80453h13.77088c1.78189 0 3.16142.49804 4.13859 1.49412l17.01411 18.01553 15.96742-17.76553c.91969-.99608 2.29922-1.49412 4.1386-1.49412z" stroke-width="1.49999"/><g stroke-width="1.5"><path d="m353.44513 122.59556c2.23137 0 3.34705.79496 3.34705 2.38487v6.57358c0 1.58992-1.11568 2.38487-3.34705 2.38487h-21.63727v28.00696c0 1.5899-1.11568 2.38485-3.34705 2.38485h-9.31316c-2.23137 0-3.34705-.79495-3.34705-2.38485v-28.00696h-20.92877c-2.23137 0-3.34705-.79495-3.34705-2.38487v-6.57358c0-1.58991 1.11568-2.38487 3.34705-2.38487z"/><path d="m422.53919 153.80125c2.22073 0 3.3311.81465 3.3311 2.44396v5.64153c0 1.62931-1.11037 2.44396-3.3311 2.44396h-52.95092c-2.22073 0-3.3311-.81465-3.3311-2.44396v-37.88139c0-1.62931 1.11037-2.44396 3.3311-2.44396h52.11814c2.22073 0 3.3311.81465 3.3311 2.44396v6.35485c0 1.62931-1.11037 2.44396-3.3311 2.44396h-37.67697v5.55946h35.44215c1.88763 0 2.83144.69246 2.83144 2.07737v3.78813c0 1.38491-.94381 2.07737-2.83144 2.07737h-35.44215v7.49476z"/><path d="m438.68317 164.33069c-2.56387 0-3.8458-.81465-3.8458-2.44395v-37.88138c0-1.62931 1.28193-2.44396 3.8458-2.44396h16.9472c1.9229 0 3.46122.50916 4.61496 1.52748l18.87536 24.74775 18.43342-24.74775c1.08964-1.01832 2.62795-1.52748 4.61495-1.52748h18.42946c2.56386 0 3.84579.81465 3.84579 2.44396v37.88138c0 1.6293-1.28193 2.44395-3.84579 2.44395h-9.5331c-2.56386 0-3.82968-.81473-3.84579-2.44395l-.26074-26.36688-21.06863 26.90454c-1.15374.97759-2.72411 1.46638-4.7111 1.46638h-3.07663c-1.98699 0-3.55736-.48879-4.71109-1.46638l-22.08475-27.11694.43457 26.57928c.0266 1.62908-1.28193 2.44395-3.84579 2.44395z"/><path d="m220.32122 152.97326v-1.72398c0-1.37919 1.02551-2.06879 3.07652-2.06879h10.86807c1.82928 0 2.74392.63213 2.74392 1.89639v.11493c0 .99608.33261 1.70483.9978 2.12625.72063.42142 1.94089.58145 3.65856.63213l24.9967.73749c1.71766.0507 2.91022-.22986 3.57542-.68959.72061-.49805 1.08093-1.34089 1.08093-2.52852v-.64621c0-1.18763-.33259-1.99216-.99779-2.41358-.66519-.45973-1.88471-.72791-3.65856-.80453l-33.0377-.34262c-7.21971 0-12.35553-5.41145-12.47236-11.02162v-3.51676c0-7.05525 7.87645-10.61994 16.45836-10.61994h33.29917c4.26833 0 7.40028.6896 9.39587 2.06879 2.05102 1.37919 3.07652 4.90255 3.07652 7.89079v1.0344c0 1.37918-.99779 2.06878-2.99337 2.06878h-8.32251c-1.60756 0-3.52363-.55551-3.52363-1.66652v-.11493c0-1.53244-1.55217-2.31388-4.65635-2.29865l-22.30783.10945c-1.7184.008-2.93794.24902-3.65857.74706-.66519.45973-.99779 1.28341-.99779 2.47104v.74707c0 1.18764.3326 2.01132.99779 2.47105.6652.42141 1.88471.67043 3.65857.74706l28.65625.15996c9.09752.42098 15.05532 3.68987 15.52666 11.16456v4.00653c0 2.98825-1.02551 5.17196-3.07654 6.55115-1.99557 1.37919-5.44852 2.06879-9.71685 2.06879h-40.17487c-4.26833 0-7.42801-.6896-9.47902-2.06879-1.99557-1.37919-2.99337-4.30039-2.99337-7.28864z"/></g></g><g stroke="#000" stroke-width="2.5"><path d="m68.321903 4.3733206-21.373703.4653137c-1.289704.0280773-4.852999-.7287411-7.040671 4.4958527l-34.124019 96.946353 21.302871.18373c9.319301-24.924171 19.181081-52.583336 28.358931-76.228242l9.415996.08763-12.700408 34.764757s-10.599453 28.00938-14.84446 41.375855l18.974328.28487 27.397154-70.885776c3.127641-7.765744 2.539532-8.166262 2.636061.298631l.3324 70.302275h19.857187l-.1828-101.0630578-32.512002-.5015211c-3.189433-.2605647-6.201528 12.3007819-5.657984 6.2123899z"/><path d="m139.16406 4.90625c-12.31673 0-15.08522-2.1806477-18.86544 6.784792l-8.41853 21.42105s-1.10781 48.316222-1.10781 73.352478h59.69121l.33504-21.799004-40.53681-.140638c.13527-4.43339-.0835-14.887239-.0835-14.887239-.22244-3.518025.90102-3.448452 3.84047-3.586525l27.10197-.369113 7.97128-22.098113-38.26542-.15425 5.57673-15.306764 33.75104-.111205.60754-22.610209s-31.55833-.52325-31.59777-.49526z"/><path d="m196.30911 5.5562619c-6.85335-.3748531-8.24539 1.418318-9.82447 5.3720201-4.25906 8.484658-10.54852 26.253122-10.54852 26.253122l-.33658 69.283166 54.8905-.14523c3.77842-.74327 5.50773-2.96247 5.50773-8.09966l-.49568-44.100864c0-5.228831.44972-6.810898-5.92165-6.552113l-15.2903.38287-12.95159 20.169393 14.78448-.310633c3.6262 0 3.5034.75592 3.5034 3.682547l.13319 12.570664h-21.50105c-3.29777.294291-2.87623-.290103-2.89894-3.32732l.25923-39.171271 5.59062-13.799101 34.0302-.416816.0796-21.945526z"/><path d="m307.0774 106.46457c3.86893-.003 5.10415 0 3.83759-4.62928l-29.90598-85.963678c-2.21257-4.551552-4.20534-10.5875487-10.02577-10.8574047-2.5519-.2987102-5.88246-.090188-8.44303-.1777276l-.00003.0000035c-6.89348.2213536-18.73113.4104022-18.73113.4104022-1.65573 0-2.66705 1.6138626-2.67857 4.8469126.1896 31.55356.0141 96.370772.0141 96.370772h17.02831c4.46487 0 3.62062-2.62385 3.62062-10.706892.52904-18.446205-.28743-52.247968-.28743-52.247968l-.12332-13.222131c4.73489-.332673 14.56465 32.803123 14.56465 32.803123.3661 2.707109.65602 3.632303-2.92967 3.632303-3.94062.302708-10.05263.01451-10.05263.01451l4.907 20.153219 12.01186.278049c5.36188 0 4.69865.813011 6.58842 6.978805l3.61796 12.316982z"/><g stroke-linejoin="round"><path d="m313.93167 50.896395.12946 18.299348 27.41718.137468-.0161-18.649436z"/><path d="m330.69507 28.216454 20.07099.05187.17201 78.507666 23.22817-.31142.19108-78.139808 22.84968-.200952-.50533-22.7223c-22.43273.4340521-66.00683.2576151-66.00683.2576151z"/><path d="m428.20828 4.90625c-10.61362 0-12.7991-.1565053-16.86544 6.784792l-11.46739 20.459196s-.34864 49.278076-.34864 74.314332h60.67598l-.48429-19.803677-39.45678-.21369c.13527-4.43339-.0835-16.809514-.0835-16.809514-.22244-3.518025.90102-3.448452 3.84047-3.586525l27.10197-.369113 7.97128-21.169921-40.62672.3299 7.93803-16.719106 31.98561-.111205-.18099-22.7943747z"/></g><path d="m479.54796 5.1158003-16.30826 25.0044737.20793 76.344296h59.53776l.11908-20.17202-39.76985-.519277v-44.344815l6.40929-13.170266 32.40313-.120663.22822-22.8849221z"/><path d="m567.63532 5.40151-.84481 37.463949-19.70457-.361551.13123-37.102398h-20.29682s.0723 67.236422-.0359 101.06306h21.34124l.13353-38.186101 17.719.02649v38.159611s20.55498.0362 20.62022 0c0 0-.62288-70.468368-.42121-101.06306z" stroke-linejoin="round"/></g></g><g fill-opacity=".973362" stroke="#000"><path d="m581.25748 55.816551 3.10707-1.755595v3.51119zm-49.70679 0h50.39434m-49.93509 0-3.10707-1.755595v3.51119z" stroke-width="1.5"/><path d="m477.76298 55.816551 3.57002-1.755595v3.51119zm-9.71736 0h9.71736m-9.18969 0-3.57001-1.755595v3.51119z" stroke-width="1.5"/><path d="m450.55445 55.816551 3.31117-1.755595v3.51119zm-45.54652 0h45.54655m-45.54658 0-3.31117-1.755595v3.51119z" stroke-width="1.50001"/><path d="m369.34681 55.816551 3.39466-1.755595v3.51119zm-13.20374 0h13.20374m-13.20377 0-3.39465-1.755595v3.51119z" stroke-width="1.5"/><path d="m336.03974 63.816551 3.50218-1.755595v3.51119zm-16.6073 0h16.6073m-16.6073 0-3.50215-1.755595v3.51119z" stroke-width="1.5"/><path d="m289.68232 55.816551 4.19353-1.755595v3.51119zm-15.44917 0h16.31099m-11.63174 0-4.19353-1.755595v3.51119z" stroke-width="1.49999"/><g stroke-width="1.5"><path d="m256.48542 55.816551 3.35909-1.755595v3.51119zm-13.21524 0h13.06535m-9.91487 0-3.35908-1.755595v3.51119z"/><path d="m230.08206 55.816551 3.86279-1.755595v3.51119zm-16.90803 0h20.24255m-20.18919.08839-1.87134-.850506-1.45992-.420399-.33704 2.938112z"/><path d="m190.15384 55.77909 3.4588-1.755595v3.51119zm-9.1161 0h10.8926m-10.84481.08839-3.28464-1.667206v3.334413z"/><path d="m160.5221 55.816551 3.19929-1.755595v3.51119zm-44.34606 0h45.98928m-45.80323.08839-3.03821-1.667206v3.334413z"/><path d="m101.39667 55.816551 3.04079-1.755595v3.51119zm-10.086124 0h10.327604m-10.136399.08839-3.12252-1.667206v3.334413z"/><path d="m71.994721 55.816551 3.210356-1.755595v3.51119zm-12.990224 0h12.986739m-12.968272.08839-3.048731-1.667206v3.334413z"/><path d="m41.542168 55.816551 3.617461-1.755595v3.51119zm-14.319829 0h14.258991m-14.048627.08839-3.435339-1.667206v3.334413z"/></g></g></svg>