<svg height="95.290527" width="400" xmlns="http://www.w3.org/2000/svg" xmlns:xlink="http://www.w3.org/1999/xlink"><clipPath id="a"><path d="m0 98.876h415.051v-98.876h-415.051z"/></clipPath><linearGradient id="b" gradientUnits="userSpaceOnUse" x1="231.498" x2="230.49239" y1="4.573056" y2="95.824745"><stop offset="0" stop-color="#deddde"/><stop offset="1" stop-color="#fff"/></linearGradient><g clip-path="url(#a)" stroke-width=".925698" transform="matrix(.96373768 0 0 -.96373768 -.000289 95.290527)"><path d="m320.72828 30.137006h.16013c.18287 0 .33163.0624.33163.227001 0 .116666-.0919.232427-.33163.232427-.0805 0-.12602-.0045-.16013-.01085zm0-.737978h-.22835v1.330351c.1137.01537.22835.03165.39985.03165.20561 0 .343-.04251.43396-.100386.0805-.05879.12602-.14832.12602-.275838 0-.175451-.12602-.279455-.27383-.322866v-.0099c.12507-.0208.20561-.127518.22835-.322866.0341-.207104.0682-.288499.091-.3301h-.22835c-.0341.0416-.0682.163694-.10233.33824-.0351.170929-.11465.232427-.29752.232427h-.14876zm.22835 1.700245c-.54861 0-.99394-.448576-.99394-1.005677 0-.567954.44533-1.012008.99394-1.012008.55998-.0054 1.00626.444054 1.00626 1.006582 0 .562527-.44628 1.011103-1.00626 1.011103m0 .188112c.686 0 1.23461-.530875 1.23461-1.193789 0-.673767-.54861-1.196502-1.23461-1.196502s-1.23461.522735-1.23461 1.196502c0 .662914.54861 1.193789 1.23461 1.193789m-5.90963-9.37667v5.2997l-1.80596-3.450231h-1.25734l-1.8287 3.450231v-5.2997h-1.86376v9.09631h1.84102l2.47964-4.917144 2.46921 4.917144h1.84102v-9.09631zm-14.23636 6.412998-1.20429-3.30372h2.36878zm2.22002-6.412998-.55998 1.611615h-3.38641l-.57609-1.611615h-1.9405l3.46695 9.09631h1.45727l3.48495-9.09631zm-15.92388 0v9.09631h6.282v-1.579057h-4.41446v-2.146107h3.75973v-1.578153h-3.75973v-2.213935h4.41446v-1.579058zm-6.40992 7.517253v-7.518157h-1.86281v7.518157h-2.49006v1.578153h6.84293v-1.578153zm-7.98752-6.866095c-.66042-.491081-1.50465-.735265-2.54123-.735265-.74759 0-1.40137.09044-1.9604.274933-.55524.182686-1.06311.489272-1.51792.923377l1.20619 1.147666c.2833-.271316.61967-.468472 1.0091-.586947.38848-.121187.81865-.180877 1.29146-.180877 1.1228 0 1.68657.378034 1.68657 1.128674 0 .317439-.0862.564336-.25488.739787-.16961.174546-.46429.290308-.88498.351806l-.53629.07868-.61588.07416c-.81392.112144-1.43264.361754-1.85239.753353-.45575.433201-.68316 1.030095-.68316 1.786162 0 .824799.29942 1.492236.89635 1.995979.59883.50736 1.40611.759683 2.42658.759683.66515 0 1.24598-.08049 1.73679-.248706.4927-.167311.93803-.437722 1.33694-.812138l-1.17587-1.10968c-.27004.245089-.56471.411495-.88971.496508-.32594.08411-.67747.128422-1.06406.128422-.47375 0-.83665-.107621-1.09058-.324674-.25488-.217052-.38185-.490177-.38185-.822086 0-.237854.0985-.454002.29373-.64121.19803-.190825.48702-.312917.87076-.364467l.57419-.07506.55146-.07778c.42732-.05969.78454-.146511 1.07542-.256846.28994-.107622.53819-.259558.74285-.446766.49176-.442245.73622-1.086167.73622-1.931768 0-.86007-.33068-1.533838-.98541-2.024919m-11.73645 3.933263c-1.00247.258654-1.59656 1.244435-1.32462 2.202179.27098.957744 1.30472 1.524794 2.30719 1.26614 1.00341-.258655 1.5975-1.245339 1.32557-2.203083-.27099-.957745-1.30473-1.52389-2.30814-1.265236m-.16771-.577902c-1.33315.343666-2.12527 1.660452-1.76427 2.932922.36006 1.272471 1.73869 2.028537 3.07183 1.68487 1.33315-.34457 2.12527-1.660451 1.76522-2.932922-.36006-1.27247-1.73963-2.028537-3.07278-1.68487m-5.39513-3.169871c-.71537-.880872-2.04758-1.043661-2.9714-.36085-.42638.314726-.69074.757875-.7817 1.228155l1.0489-.771441c.68221-.503742 1.66193-.383459 2.1878.26589.52777.649349.4027 1.584483-.27857 2.087322l-1.0849.797668c.51924.04884 1.05743-.0832 1.50181-.410591.44817-.331006.73337-.808521.80444-1.343013.0711-.536301-.0805-1.067175-.42638-1.49314m-15.93052 9.145146c-.69547.513691-.96362 1.362909-.74758 2.128019.0711.250515.19329.490177.36953.706325.71442.882681 2.04757 1.044566 2.97044.362659.43586-.321961.70022-.77325.78739-1.254383l-1.07448.789529c-.68031.502838-1.65909.383459-2.18686-.26589-.52681-.650253-.40174-1.586292.27857-2.08913l1.07732-.791337c-.53061-.04341-1.05079.100386-1.47433.414208m22.96105-.201678c-2.00209.517309-4.07051-.616791-4.61154-2.527757-.005-.01537-.009-.03075-.0123-.04522l-3.25471-2.63357c-.37521.113952-.77317.148319-1.17302.100386-.17718-.0208-.34678-.05879-.51165-.110335l-9.36236 6.877852c.0445.829322-.32026 1.664974-1.05838 2.211223-1.19765.883585-2.92496.673767-3.85258-.469376-.92572-1.142239-.70589-2.790934.49176-3.675423.57893-.427774 1.29904-.614982 2.02673-.527257.16771.0199.33068.05698.48891.104005l9.38321-6.894131c-.0379-.822087.32784-1.647791 1.06027-2.187709 1.19671-.885393 2.92497-.674672 3.85069.466663.24066.298447.40837.63307.49839.988493l3.99186 1.414459c.0275-.0072.054-.01537.0824-.02261 2.00114-.516404 4.06956.618599 4.61059 2.529566.54103 1.910062-.6462 3.884336-2.6483 4.40074m-74.90155-9.373685c0-.368085-.28426-.615886-.61873-.615886v.0027c-.34489-.0027-.62346.245088-.62346.613173s.27857.614078.62346.614078c.33447 0 .61873-.245993.61873-.614078m.25109 0c0 .505552-.41122.798573-.86982.798573-.46238 0-.8736-.293021-.8736-.798573 0-.505551.41122-.799477.8736-.799477.4586 0 .86982.293926.86982.799477m-1.01479-.06783h.0938l.21508-.361754h.23783l-.23972.377129c.12412.0081.2255.06421.2255.223383 0 .197156-.14307.260463-.38374.260463h-.34868v-.860975h.19992v.361754m0 .145606v.207105h.13929c.0767 0 .18002-.0054.18002-.09406 0-.09586-.0531-.113049-.14307-.113049h-.17624m-6.87609 6.820786 1.62593-4.247899h-3.30397zm-1.74247 1.654121-3.74931-9.06737h2.64735l.59314 1.603476h4.43625l.56188-1.603476h2.8738l-3.77678 9.068274zm-7.52704-9.070083h2.68525v9.072796l-2.68525.000904zm-18.64608 9.0737-2.24086-7.191673-2.14707 7.190769-2.89843.000904 3.06614-9.0737h3.86964l3.09078 9.0737zm10.85659-1.976082h1.15407c1.6752 0 2.75821-.718082 2.75821-2.580212 0-1.863034-1.08301-2.581116-2.75821-2.581116h-1.15407zm-2.66346 1.976082v-9.0737h4.35477c2.32045 0 3.07752.368085 3.89617 1.193789.57893.579711.95319 1.853086.95319 3.243127 0 1.275183-.31647 2.413805-.86887 3.121939-.99488 1.267044-2.42752 1.514845-4.567 1.514845zm-25.44258.01266v-9.086362h2.70894v6.899558l2.09779-.000905c.69547 0 1.19007-.165502 1.52549-.506456.42449-.431392.59788-1.127768.59788-2.402048v-3.990149h2.62461v5.020244c0 3.583176-2.39342 4.066118-4.73377 4.066118zm21.12004-.01266.00094-9.0737h2.6843v9.0737z"/><path d="m110.48169 27.484444s2.10537 2.96548 6.30853 3.271162v1.076219c-4.65512-.357232-8.68773-4.120381-8.68773-4.120381s2.2835-6.301758 8.68773-6.878756v1.144048c-4.69965.564336-6.30853 5.507708-6.30853 5.507708m6.30853-3.234083v-1.047279c-3.55127.60413-4.53763 4.12852-4.53763 4.12852s1.70552 1.803345 4.53763 2.096366v-1.149474c-.002 0-.003.000904-.005.000904-1.48665.170025-2.6483-1.155804-2.6483-1.155804s.65094-2.231119 2.65303-2.873233m0 9.565686v-1.984222c.13739.0099.27384.01809.41122.02351 5.29375.170024 8.7427-4.143895 8.7427-4.143895s-3.96155-4.597896-8.08891-4.597896c-.37806 0-.73148.03346-1.06501.08953v-1.226346c.28521-.03527.57988-.05517.88688-.05517 3.84121 0 6.61836 1.872078 9.3074 4.087823.44533-.340954 2.27119-1.170275 2.6464-1.533838-2.55733-2.043007-8.51623-3.689893-11.89411-3.689893-.32595 0-.63862.01899-.94657.04703v-1.723759h14.59737v14.707118zm0-4.388079v1.327638c.1355.0099.27194.01628.41122.0208 3.80616.113952 6.3038-3.121939 6.3038-3.121939s-2.69757-3.57594-5.58937-3.57594c-.41691 0-.78928.06421-1.12565.171833v4.028133c1.48191-.170929 1.78038-.795859 2.67104-2.213031l1.98219 1.594431s-1.44685 1.81058-3.88479 1.81058c-.26531 0-.51924-.01718-.76844-.04251" fill="#7db500"/><g fill="#565c64"><path d="m58.673828.92773438c-20.954153-.00016612-41.300855 14.37445962-47.588315 34.48053162-6.2760976 19.465196 1.87125 42.587016 19.120693 53.632479 17.504982 12.099765 42.709536 12.105295 59.852176-.697488 13.844698-9.7973 22.208968-27.287967 19.967108-44.24966-1.91007-16.554449-13.114797-31.626666-28.366216-38.315722-7.159115-3.3336572-15.087417-5.00137386-22.985446-4.85014062zm1.007813 24.38476562c12.092104-.223837 23.77978 9.339051 25.304687 21.46875 1.500256 12.432229-8.396826 24.962891-20.855211 26.452207-10.777062 1.930847-22.821004-3.571544-27.596462-13.556273-5.000878-9.969183-1.631281-23.258212 7.74811-29.38339 4.431682-3.183403 9.915444-4.944755 15.398876-4.981294z"/><path d="m62.558594 19.164062c-1.988318.677955-4.713043-.663541-6.146485 1.355469-1.04901 3.083293-.0719 6.36476-.417757 9.532422.03541 17.146977-.05263 34.298753.05987 51.442734.311358-.558557.927933-1.752818 1.9614-1.807187 1.419496-.218878 3.295597.336427 4.273437-1.083984.596239-1.225209.229328-2.698392.428387-4.023489.15342-7.482678-.0063-14.969046.06527-22.453464.0021-10.99987.0043-21.99974.0063-32.99961l-.197456.03179z"/><path d="m26.376953 45.849609c1.309926 1.709854-.431498 4.489608 1.537109 5.84375 1.987792.71789 4.218543.520058 6.314288.550181 7.099092-.220485 14.202597.03815 21.305244-.03406 12.240832-.02923 24.491256.06908 36.72608-.04628.382961-.21548-1.122678-.467826-1.298736-1.010853-1.095812-1.46846.253155-3.692609-1.310547-4.957032-1.218741-.74949-2.802934-.398846-4.167464-.593548-19.751019-.06378-39.504371-.03231-59.256365-.04317l.09182.177677z"/><path d="m38.767578 24.335938c-1.315937 1.648764-3.968806 2.703853-3.808594 5.179687 1.646481 2.885962 4.476529 4.842589 6.73558 7.216078 12.805638 12.196118 25.573178 24.43215 38.373795 36.633531.100717-2.586695 3.971646-3.475068 3.398438-6.240234-1.711877-2.455966-4.26847-4.140738-6.269134-6.343106-12.745739-12.211822-25.523428-24.390225-38.291413-36.578769z"/><path d="m79.105469 26.275391c-3.670455 1.15367-5.621129 4.766604-8.502331 7.048565-12.795091 12.164586-25.680757 24.290093-38.280872 36.625263-.178144 1.057547 1.146464.535032 1.65625.300781 2.234838.0087 3.243527 3.238767 5.646484 2.673828 2.184159-.618475 3.35666-2.783821 5.11109-4.06484 13.80586-13.145281 27.641508-26.26854 41.371332-39.487894.209618-.973925-1.176847.01368-1.666016-.115235-2.24151-.03737-3.010404-3.119452-5.335937-2.980468z"/><path d="m175.36914 35.173828c-7.10606.254289-13.80058 4.965013-16.5293 11.517578.23194-3.64487.41393-7.294834.63282-10.941406-4.68881 0-9.37761 0-14.06641 0-.13725 3.464823-.27335 6.929691-.41016 10.394531-1.07454-3.28282-2.13865-6.56879-3.19531-9.857422-3.61328 0-7.22656 0-10.83984 0-.75747 2.638957-1.5171 5.277297-2.27539 7.916016-.13432-2.817728-.27211-5.635302-.4043-8.453125-4.56771 0-9.13542 0-13.70313 0 .87556 13.103607 1.75551 26.206927 2.63086 39.310547h15.76758c1.40622-4.60828 2.84574-9.20658 4.16797-13.839844 1.41565 4.529944 2.95902 9.019788 4.4668 13.521485 4.7141.263998 9.53195.747481 14.1914-.195313 2.29713-1.859825 1.54695-5.136387 1.89258-7.701172.11068-1.941406.22136-3.882812.33203-5.824219 1.83643 6.866644 7.47659 12.794904 14.5745 14.14043 8.16879 1.881083 17.7582-1.558194 21.74682-9.192624.44711-.823269.83219-1.681205 1.15915-2.559134 2.94792 7.572152 10.99048 12.804598 19.12922 12.257876 7.65117-.161657 15.30325-5.053944 17.68719-12.500063v11.892578h14.14062c2.40542-4.120228 4.88233-8.198238 7.28125-12.322266-.0175 4.107421-.0326 8.214861-.0527 12.322266h13.57226c.00001-13.103516 0-26.207031 0-39.310547-4.40755 0-8.8151 0-13.22265 0-2.7243 4.739195-5.51529 9.439537-8.21094 14.195312.0387-4.731668.0285-9.463534.0332-14.195312-4.51367 0-9.02734 0-13.54101 0 .002 4.052086.003 8.104171-.006 12.15625-2.19511-6.191546-7.70428-11.226882-14.26804-12.275283-7.52906-1.695067-16.19104 1.029471-20.55533 7.600835-.85635 1.211453-1.57144 2.522933-2.13952 3.893198-2.70777-6.888073-9.73884-11.795726-17.14979-11.905132-.94213-.08974-1.89175-.08686-2.83654-.04604zm152.3457.251953c-7.73126-.223709-15.98649 3.76193-19.17868 11.081333-.48524 1.324902-.60791 1.282938-.51468-.178598 0-3.526172 0-7.052344 0-10.578516-13.45703 0-26.91406 0-40.37109 0v39.310547h14.20899c0-8.893229-.00001-17.786458 0-26.679688h11.95312v26.679688h14.20898c0-4.341797 0-8.683594 0-13.025391 2.12896 6.003325 7.39475 10.703833 13.57291 12.223197 6.58051 1.967116 13.98115 1.603556 20.14584-1.494681 1.60591-2.18637-.0166-4.850424-.50196-7.119223-.40165-1.558827-.84393-3.106759-1.27343-4.658121 1.01255.239929 3.00228-.497332 3.35743.4v13.674219h14.20898c0-4.21875 0-8.4375 0-12.65625h6.47461v12.65625h44.87695c0-4.210287 0-8.420573 0-12.630859-3.13997 0-6.27995-.000001-9.41992 0 0-8.89323 0-17.786459 0-26.679688-4.73633 0-9.47266 0-14.20898 0v26.679688c-2.36394 0-4.72787-.000001-7.0918 0 0-8.89323 0-17.786459 0-26.679688-4.71875 0-9.4375 0-14.15625 0v13.78125c-2.1582 0-4.31641 0-6.47461 0 0-4.59375 0-9.1875 0-13.78125-4.73633 0-9.47266 0-14.20898 0-.19504.764389.57827 2.868347-.81055 1.986328-4.77478-1.504496-9.77106-2.455884-14.79688-2.310547zm-150.56836 12.0625c3.4705.27788 5.31129 4.15682 5.07474 7.297004.32554 3.255457-.92763 7.333256-4.31068 8.460811-3.19958.490339-5.90997-2.710036-5.76553-5.756791-.75005-3.479181.13138-8.165585 3.72576-9.792489.41169-.132323.84267-.20974 1.27571-.208535zm36.86524.02148c3.36225.35639 5.09669 4.131967 4.93061 7.187748.30084 3.266763-.85489 7.33012-4.25678 8.515377-3.24461.615521-5.94576-2.684619-5.84381-5.762923-.74773-3.537086.19115-8.110185 3.74416-9.76201.46007-.132415.94539-.229815 1.42582-.178192zm115.32812.242187c.80534.123554.47185 1.579112-.40358 1.06157-1.14229-.09247-2.28164.08343-3.43431-.07329-.94266-.107391-1.38459.824091-1.125 1.654297v10.591797c4.61478.0039 9.30593-.0078 13.87305.0059-4.45324 1.914995-10.07321 2.984781-14.34961.125-4.38276-3.347889-2.93082-11.588688 2.53538-12.950664.94376-.306198 1.93391-.295236 2.90407-.414571z"/></g><path d="m147.85999 51.977284c-.1535 3.957591-.307 8.747217-.307 13.535938h-.1535c-1.07542-4.202679-2.50901-8.893727-3.84026-12.753644l-4.19842-12.852223h-6.09156l-3.68582 12.754549c-1.12754 3.859917-2.30435 8.550965-3.123 12.851318h-.10233c-.20466-4.446863-.35816-9.528606-.61493-13.633612l-.61399-12.50946h-7.21814l2.20107 32.935008h10.3923l3.37883-10.994615c1.07543-3.811985 2.15085-7.916087 2.91834-11.776004h.15349c.9731 3.81108 2.15086 8.16027 3.2765 11.824841l3.68582 10.945778h10.18859l1.89408-32.935008h-7.62842zm20.78783 3.762877c0-6.450078 3.17512-10.994615 8.3959-10.994615 5.27385 0 8.29357 4.788721 8.29357 11.189962 0 5.912873-2.9695 10.994615-8.34378 10.994615-5.27385 0-8.34569-4.788721-8.34569-11.189962m24.93188.439531c0-10.799267-6.85999-17.347019-16.94435-17.347019-10.23976 0-16.22993 7.378882-16.22993 16.760978 0 9.870463 6.60416 17.249345 16.7918 17.249345 10.59792 0 16.38248-7.574229 16.38248-16.663304m11.77871-.439531c0-6.450078 3.17511-10.994615 8.3959-10.994615 5.27385 0 8.29357 4.788721 8.29357 11.189962 0 5.912873-2.96951 10.994615-8.34379 10.994615-5.27385 0-8.34568-4.788721-8.34568-11.189962m24.93187.439531c0-10.799267-6.85998-17.347019-16.94435-17.347019-10.23976 0-16.22993 7.378882-16.22993 16.760978 0 9.870463 6.60416 17.249345 16.7918 17.249345 10.59792 0 16.38248-7.574229 16.38248-16.663304m5.12291-16.809452v32.935008h9.11222l7.16793-12.069929c2.04757-3.469223 4.09514-7.573325 5.63106-11.287636h.1535c-.51166 4.34919-.66516 8.796054-.66516 13.731286v9.626279h7.16698v-32.935008h-8.19124l-7.37164 12.704808c-2.04757 3.51806-4.30075 7.769576-5.99017 11.630398l-.15349-.04884c.20466-4.34919.30699-8.991401.30699-14.367068v-9.919298zm35.32712 32.935008h7.83308v-26.680278h13.71997v-6.25473h-21.55305zm33.99596-32.934646h-7.83308v32.935008h7.83308zm35.58049 1.514303c-2.40573-.781389-6.96232-1.856704-11.51795-1.856704-6.29811 0-10.85375 1.514846-14.02791 4.446864-3.17512 2.834344-4.91475 7.133793-4.86453 11.972256.0521 10.945778 8.39685 17.200509 19.71109 17.200509 4.4533 0 7.88329-.831131 9.57365-1.613424l-1.63824-5.960805c-1.89408.781389-4.24959 1.416267-8.03775 1.416267-6.50277 0-11.41656-3.518059-11.41656-10.651852 0-6.79284 4.45425-10.799268 10.85374-10.799268 1.7908 0 3.22439.195347 3.83932.488368v6.889609h-5.32502v5.815199h12.85016zm13.92861 31.420343v-12.655971h12.85015v12.655971h7.78097v-32.935008h-7.78097v13.780123h-12.85015v-13.780123h-7.83308v32.935008zm34.09839-6.25473h-9.26572v6.25473h26.51896v-6.25473h-9.41922v-26.680278h-7.83402zm-328.41845 11.856947c-16.27067 0-29.460033-12.589952-29.460033-28.119156 0-15.530108 13.189363-28.120059 29.460033-28.120059 16.270671 0 29.460033 12.589951 29.460033 28.120059 0 15.529204-13.189362 28.119156-29.460033 28.119156m46.69148-28.119156c0-24.613757-20.904002-44.5672149-46.69148-44.5672149s-46.69148 19.9534579-46.69148 44.5672149c0 24.612853 20.904002 44.566311 46.69148 44.566311s46.69148-19.953458 46.69148-44.566311" fill="url(#b)"/><g fill="#deddde"><path d="m60.827815 21.668159h-2.797054v56.239215h2.797054z"/><path d="m29.802493 50.218706h59.583324v-2.669746h-59.583324z"/><path d="m39.808077 28.123103-1.978405 1.888357 42.52622 40.589728 1.977456-1.888357z"/><path d="m81.421792 30.313452-1.978404-1.888357-41.903704 39.997355 1.977456 1.888357z"/></g></g></svg>