<svg height="156.15384" viewBox="0 0 564.2 202.99999" width="434" xmlns="http://www.w3.org/2000/svg"><text fill="#ef00eb" font-family="TrasksHand" font-size="2" stroke="#0105ff" stroke-width="2.5" x="265.46603" y="141.85243"><tspan fill="#fafafa" fill-opacity=".4" font-size="2" stroke="none" stroke-width="2.5" x="265.46603" y="141.85243">John Loreth 2022</tspan></text><path d="m0 0h564.20001v203h-564.20001z" fill="#221f1f"/><g fill="#fff"><path d="m345.06161 7.822202h207.9549v185.32698h-207.9549z"/><path d="m33.211293 115.95381 22.706785-90.342955h21.05538l10.940539 39.433765 11.353395-39.433765h19.816828l18.57828 66.557519 45.32805-.08643c4.75826-.04686 5.05012-9.992208-.35239-9.989612l-26.39739-.356171c-11.33557.110845-23.28885-12.28446-22.70677-28.79291.12093-15.142336 13.18452-27.066752 29.89625-27.062645l67.33006-.06111 17.1333 23.5768 16.72044-23.785442 27.86742.208642-30.55095 43.398005 33.02806 47.056699-27.72146-.0865-19.22258-27.001534-18.28636 27.001534-28.28026-.0253 32.20233-46.527676-14.03691-20.655779-58.52891.08642c-6.38756.05918-6.15335 10.215994.0501 10.02541l24.6605.381492c10.42239.06822 25.10075 11.015226 24.73561 28.105863.15937 19.86913-17.54593 28.94611-26.07004 28.46204l-64.55064.0865-10.73416-40.649843-10.734113 40.563413h-20.375644l-11.207425-40.354764-9.847955 40.415874z"/><path d="m41.803294 129.2459v12.65934h-12.783705v8.06996h12.826308v24.00521c.306492 3.62058 3.996931 5.25697 7.605654 4.92734h27.686075v-8.03865h-13.821178c-1.66119-.0929-2.988027 1.06588-3.063795-4.59822v-16.27077h16.831095v-8.20393h-17.047408v-12.82024z"/><path d="m87.635928 142.26339v30.1787c.0054 5.44583 2.2784 6.82326 7.490274 6.6885h38.926928v-37.11562h-18.02461v27.5235h-11.08455v-27.49185z"/><path d="m164.92748 178.90775-.00071-25.63577c-.0164-3.21629-.61365-3.31903 2.64672-3.20674h14.44985v-8.01391h-23.52681c-3.94401.0647-11.24022 2.30681-11.18962 8.02956l.00071 29.0497z"/><path d="m190.53906 128.99023v49.91797h34.40235c.0505 0 12.84087 3.47392 12.53125-10.74804v-14.67188c0-14.53852-12.64844-11.47266-12.64844-11.47266h-16.81055v-13.02539zm17.47461 20.55079h10.89844v20.51171h-10.89844z"/><path d="m260.76172 142.01562c-6.5684 0-11.85547 5.28707-11.85547 11.85547v13.17969c0 6.5684 5.28707 11.85742 11.85547 11.85742h21.54101c6.5684 0 11.85743-5.28902 11.85743-11.85742v-13.17969c0-6.5684-5.28903-11.85547-11.85743-11.85547zm5.27344 7.5254h10.89843v20.51171h-10.89843z"/></g><path d="m391.63281 26.027344v152.880856h33.89649v-61.2539h50.62304v61.2539h35.15039v-62.22265l-36.59961-27.787112h28.29493v-37.105469l-34.26367-25.765625zm33.25781 31.613281h42.16993v28.501953h-42.16993z" fill="#221f1f"/></svg>