<svg height="148.7453" viewBox="0 0 160.05322 74.37265" width="320.10645" xmlns="http://www.w3.org/2000/svg"><g transform="translate(.43765 2.295671)"><path d="m109.60938-4.2617188a5.6149771 5.6149771 0 0 0 -.25586.033203l-19.845708 3.0214844a5.6149771 5.6149771 0 0 0 -.09375.015625c-.794478.1347361-1.73684.26962788-3.115234 1.05273432-.411016.2335107-.898161.81064862-1.371094 1.25781268-1.252789-.46747729-2.544453-.61431362-3.515625-.51171872a5.6149771 5.6149771 0 0 0 -.255859.03320312l-19.845703 3.0214844a5.6149771 5.6149771 0 0 0 -.09375.015625c-.794477.1347359-1.736839.2696277-3.115235 1.0527344-.689197.3915533-1.547747.9910108-2.298828 2.109375-.75108 1.1183641-1.199167 2.8316597-1.035156 4.2617182l-.03711-.617187.01172 2.962891-.640626-1.615235.04297.115235c-.317808-.854228-.714077-2.193489-2.216798-3.7109379-1.50272-1.5174488-4.533746-2.4709633-6.751953-2.0976562a5.6149771 5.6149771 0 0 0 -.191406.037109l-9.9375 2.0292969v-3.4824216l-.002.1035157c.036577-1.9930933-.584491-4.62690947-2.652297-6.3925781-2.067806-1.7656687-4.621445-1.9269124-6.382812-1.6503907a5.6149771 5.6149771 0 0 0 -.521485.1074219l-12.345703 3.16210937a5.6149771 5.6149771 0 0 0 -.529297.16406251c-.991989.36123289-2.8426597 1.48237162-3.7304685 3.16015622s-.7984337 2.7622788-.8222656 3.4179688a5.6149771 5.6149771 0 0 0 -.00391.203125l.00195 17.9824221c-.3206447 2.205767-.6668807 2.376602-.6621094 2.373047.00502-.0037-.8490281.360801-3.0273438.580078l1.1035156-.002c-2.8789595-.279102-5.98499534 1.441725-7.2304687 4.009765-1.2454734 2.568041-.7270452 5.804544.96679688 7.939453l-.74608688-1.240187c3.2780592 7.495008 11.6241594 11.294893 19.7460934 9.587891 2.589731-.544289 5.052933-1.784717 7.292969-3.544922 1.541056 1.122218 3.410676 1.381176 4.523438 1.265625 3.127009-.267702 6.50461-.675245 9.685547-1.46875a5.6149771 5.6149771 0 0 0 .322265-.0918c2.135348-.670725 3.139375-2.082641 3.730469-3.115234a5.6149771 5.6149771 0 0 0 3.521484 1.498046c4.204984.08946 7.835098-.275706 11.09961-1.507812a5.6149771 5.6149771 0 0 0 .02344-.0078c-.03977.01521-.05392.02177.326172-.101562.206904-.06714.683205-.202467 1.28125-.539063a5.6149771 5.6149771 0 0 0 .214844-.01367c6.197653-.657601 12.208626-1.514124 16.964843-2.318359 2.378109-.402117 4.437379-.790395 6.089844-1.146484 1.652465-.35609 2.516012-.448149 4.146485-1.167969a5.6149771 5.6149771 0 0 0 .144531-.220703c.105948-.0034.284387.01554.375.01367a5.6149771 5.6149771 0 0 0 .476562-.0293c6.197653-.657602 12.208626-1.514125 16.964846-2.31836 2.37811-.402117 4.43738-.790394 6.08984-1.146484 1.65247-.356089 2.51601-.448148 4.14649-1.167969a5.6149771 5.6149771 0 0 0 3.34765-5.134765l.002-5.367188a5.6149771 5.6149771 0 0 0 -.0117-.33789c-.0717-1.19444-.32592-3.017822-2.05078-4.683594-.75038-.724664-1.68254-1.151506-2.61719-1.421875l1.74805-2.59375a5.6149771 5.6149771 0 0 0 .94726-2.7656251l.36524-5.4863281-.0879.6875c.25002-1.2992582.481-3.40077055-1.17578-5.625-1.65677-2.2242295-4.65407-2.8263729-6.48632-2.6328126zm-.51172 26.1308598c-.17255.480111-.32166.586445-.33399.492187zm-28.351566 5.097656.002.158203c-.08679.04934-.17562.151482-.181641.105469zm.01758 1.957031c-.000007.0016.002.0043.002.0059v.07422zm-28.197266 4.869141c-.000007.0016.002.0043.002.0059v.07422zm-9.121094 7.345703a5.6149771 5.6149771 0 0 0 .07813.0332c-.07395.06512.02916-.01135-.05664.05859-.02516.02051-.102207-.172087-.02148-.0918z" opacity=".98" transform="matrix(.98403971 0 0 1 1.969185 2)"/><path d="m157.26953 17.853516c-.40138-.136476-1.49075-.06112-1.67969.03125l-11.90429 2.390625a3.2356868 3.2356868 0 0 0 -.67188.21289c.46938-.207404.13482-.138743-.42773.164063-.7065-.1186-1.36839-.0901-1.88867.0098a3.2356868 3.2356868 0 0 0 -.0566.01172l-5.45703 1.146484a3.2356868 3.2356868 0 0 0 -.0566.01172c-.87518.200763-1.95705.977382-2.5039 1.871094-.8335-.423348-1.75407-.700303-2.69141-.755859-1.01872-.06038-2.05674.06084-3.16406.318359l.0195-.0059-7.90234 1.785156a3.2356868 3.2356868 0 0 0 -.21875.05859c-.42296.127066-.93491-.11206-2.20899 1.085937-.027.02541-.0208.05943-.0469.08594-.71013-.294417-1.45865-.52882-2.22461-.574219-1.01198-.05998-2.05231.05786-3.16407.316406l.0195-.0059-7.9043 1.787109a3.2356868 3.2356868 0 0 0 -.21875.05859c-.42296.127066-.93491-.11206-2.20899 1.085937-.63703.598999-.998725 1.516813-1.097652 2.029297-.09893.512484-.09131.781045-.09961 1.046875a3.2356868 3.2356868 0 0 0 -.002.101563v.759765l-.123047-.308593c-.192195-.516595-.430913-1.310395-1.3125-2.199219s-2.648286-1.444533-3.955078-1.224609a3.2356868 3.2356868 0 0 0 -.109375.02148l-8.283204 1.689453c-.837157.169332-1.770934.856919-2.380859 1.632813-.08592-.06355-.136994-.150027-.226562-.210938a3.2356868 3.2356868 0 0 0 -.466797-.263672c-1.373434-.632134-2.844311-.962624-4.322266-1.050781-1.47896-.08822-2.964718.05908-4.455078.363281a3.2356868 3.2356868 0 0 0 -.06055.01367l-5.603515 1.255859.164062-.0332c-.507413.08639-1.452281.301888-2.263672 1.25-.18015.210506-.22024.466391-.33789.703125l-2.939454.0078a3.2356868 3.2356868 0 0 0 -2.246093.93164c-.359362-.297286-.748543-.543687-1.109375-.673828-1.530118-.551867-2.274734-.195163-2.78711-.0918a3.2356868 3.2356868 0 0 0 -.197265.04687l-4.11908 1.103591.07227-.01758c-.301966.0736-.634723.265437-.958985.455078-1.421968-.588739-2.045008-.306286-2.896484-.191406l.08203-.0098c-5.167788.560468-8.775195 2.903621-11.417969 5.125a3.2356868 3.2356868 0 0 0 -.240234.22461c-.589157.607388-1.089722 1.267549-1.537109 1.951171l-.0059-.01172c-.192157-.516556-.430876-1.308403-1.312463-2.197228-.881586-.888825-2.648286-1.446486-3.955078-1.226563a3.2356868 3.2356868 0 0 0 -.109375.02148l-6.132812 1.251953v-2.316406l-.002.05859c.02403-1.311094-.376329-2.936045-1.642579-4.017579-1.26625-1.081533-2.844984-1.193162-3.988281-1.013671a3.2356868 3.2356868 0 0 0 -.300781.06055l-9.1679689 2.347657a3.2356868 3.2356868 0 0 0 -.3046875.09375c-.6318951.230125-1.7310347.900659-2.2636248 1.904302-.5325902 1.003642-.4873388 1.682857-.5039063 2.138671a3.2356868 3.2356868 0 0 0 -.00391.117188l.00195 13.412109c-.2539489 1.770932-.8075211 2.464047-1.2265625 2.783203-.4296241.327217-.9269193.4121-1.4726563.316407a3.2356868 3.2356868 0 0 0 -.125-.01953c-.7930519-.107154-1.7643438-.08142-2.7363281.414063-.97198428.495484-1.7004579 1.479021-1.984375 2.289062-.5678341 1.620083-.2215281 2.602105-.00977 3.433594a3.2356868 3.2356868 0 0 0 .1113281.355469c1.99920618 5.239469 7.8919949 7.798286 13.564453 6.664062 3.307511-.661345 6.357968-2.924315 8.640625-6.396484.102594-.000763.257756.05805.345703.04883 1.906107-.16321 3.963604-.413823 5.890625-.894531a3.2356868 3.2356868 0 0 0 .185547-.05273c1.32242-.41538 1.92264-1.334124 2.244141-1.933593.01685.0086.01984-.02498.03906-.0059a3.2356868 3.2356868 0 0 0 2.212891.941407c2.55523.05436 4.752011-.168857 6.710937-.908204a3.2356868 3.2356868 0 0 0 .01367-.0059c-.01423.0054-.01576.0085.208985-.06445.224745-.07299.923649-.143051 1.742187-1.183594.05873-.07465.0458-.1624.0957-.240234 4.276786.820111 7.970671-.751566 10.69336-1.476563l-.152344.03711c.198338-.04262.511163-.198466.779297-.300781.08084.044.141539.129099.224609.164062 1.65375.696034 2.386904.188532 2.474609.132812l4.664063-.867187a3.2356868 3.2356868 0 0 0 .06445-.01563c.0017-.000266.01559-.0017.01758-.002.120818-.01398.760334.03293 1.695313-.787109.554453-.486293.79791-1.00783.939453-1.462891 1.82478.442078 3.557364.44703 4.90039.228515a3.2356868 3.2356868 0 0 0 .265626-.05469c.07833-.01961.179471-.05143.261718-.06836 1.03371.65218 1.92105.616834 2.054688.621093a3.2356868 3.2356868 0 0 0 .804687-.07617l4.542969-1.007813c.450012-.02158 1.110571-.03225 2.150391-.791016.210368-.153506.304825-.501757.5-.734375 2.115677.445287 4.111812.274407 5.826171-.02734.162122.0065.314501-.01839.5-.03906.028-.0054.06792-.0024.0957-.0078l-.06055-.002c.0793-.0096.169274-.04823.251953-.06445.383064.06832.80238.181056 1.076172.152344 1.906254-.163229 3.962227-.413967 5.888672-.894531a3.2356868 3.2356868 0 0 0 .185546-.05273c1.325055-.416208 1.925599-1.335855 2.246094-1.933594.01685.0086.01984-.02498.03906-.0059a3.2356868 3.2356868 0 0 0 2.21289.941407c2.555231.05436 4.752011-.168861 6.710941-.908203a3.2356868 3.2356868 0 0 0 .0137-.0059c-.0142.0054-.0158.0085.20898-.06445.16695-.05422.63463-.243455 1.17969-.693359.0229-.0074.3468.01545.28906.01367 3.87638.119361 7.94815-1.220658 10.41992-1.738282l-.084.01758c1.23792-.225543 2.25658-.780756 3.16992-1.449218.41222.198406.79109.313565 1.06446.359375.95626.160247 1.41047.06387 1.17578.05664 3.87497.119319 7.94834-1.218337 10.42187-1.736328l-.084.01758c1.56537-.285203 2.81686-1.058382 3.85742-2.013672 1.01381.680833 2.11912.836493 2.82031.757813a3.2356868 3.2356868 0 0 0 .1055093-.013452l5.96289-.871094a3.2356868 3.2356868 0 0 0 .4043-.08594c.81608-.228083 1.74479-.918704 2.24219-1.710938.17065.14304.2525.346378.45703.458985 1.30393.717897 2.34946.489332 2.86328.398437a3.2356868 3.2356868 0 0 0 .0449-.0078l5.04297-.966797a3.2356868 3.2356868 0 0 0 .10937-.02344c1.03092-.234627 2.27304-1.140657 2.77344-2.103515.5004-.962859.49165-1.657528.51367-2.06836a3.2356868 3.2356868 0 0 0 .006-.173828v-6.960937c.62181-.167916 1.24559-.431461 1.79297-.953125.76256-.726738 1.2434-1.870553 1.27149-2.900391a3.2356868 3.2356868 0 0 0 0-.04102l.0566-3.90625-.006.152344c.0294-.478219.28475-1.339403-.69922-2.708984-.49199-.684791-1.42877-1.265545-2.2168-1.423828zm-79.253905 31.808593.07617.410157.15625 1.287109-.21875.07422c.110093-.670285.105577-1.303378-.01367-1.771485z" opacity=".98" transform="matrix(.9838498 0 0 1.0298057 1.966608 -.52976)"/><g fill="#74d32a"><path d="m14.535889 5.4916523 12.344482-3.1621094c1.537648-.2413995 2.587062.4407824 2.55127 2.3936016v20.4428715c-2.694657 22.45358-21.7020975 20.65117-25.8249516 11.224609-1.0752142-1.355194-.1992607-3.018139 1.3250733-2.870362 4.739817-.477126 7.8627123-1.28488 8.7419333-8.035888l-.0012-18.4863281c.03309-.9104087.143033-1.2440755.863393-1.5063946z" opacity=".98"/><path d="m94.25 27.865234c-.355923-.01608-.741134.0076-1.160156.07813l-27.121094 5.53711c-2.033022.41122-2.015391 1.82904-2.087891 2.83789l.472657 10.527344c.138976 1.14774 1.196391 2.288369 3.970703 1.962891 3.00611-.604396 2.997782 2.648479 2.388672 4.371094l-12.16211 29.626953c-.793586 1.933532-.01764 2.661843 1.214844 2.527343 5.9777-.50658 12.362197-1.316655 17.810547-2.675781 1.816504-.570574 1.745935-3.174956 3.136719-4.308594 4.070734-3.318084 10.581042-3.811471 14.972656.556641 7.522813.160042 13.522323-.604459 17.996093-2.292969 1.94171-.742706 2.53872-.250446 1.33789-2.955078l-16.378905-41.257817c-.861858-2.316572-1.899165-4.422596-4.390625-4.535157zm-8.191406 29.935547c.156733-.0019.308425.260403.523437.777344l1.78125 4.095703c.21596.503618.235445.835163-.537109.851563l-3.179688.160156c-.634328.0253-.588751-.375773-.394531-1.015625l1.257813-4.0625c.231959-.538601.392094-.804731.548828-.806641z" opacity=".98" transform="matrix(.5 0 0 .5 -.43765 -2.295671)"/><path d="m59.63945 35.018202c-.895655.01847-1.462099-.154869-1.457472-1.199078l-.03753-3.767475 10.974979-12.002928c.451653-.428885.394452-.941224-.06944-1.003781-2.936986-.300176-5.25817.417414-7.826312.726843-.268675-.20119-.772921.07918-.851918-1.044266l-.02657-6.267264c-.086523-.7544194.896085-1.0918777 1.811256-1.2470822l19.844838-3.0221999c1.46269-.1545191 1.73735.6917272 1.55997 1.6135106l-.36533 5.4867355-7.61966 11.300065c-.18436.340943-.48157.850709.53844.783057l7.74623-1.086032c.8667-.165098 1.25166.291596 1.30478 1.176581l-.002 5.367645c-1.84738.81558-13.389069 2.898066-25.524261 4.185669z" opacity=".98"/><path d="m87.836589 30.148935c-.895655.01847-1.462099-.154869-1.457472-1.199078l-.03753-3.767475 10.974979-12.002928c.451653-.428885.394452-.941224-.06944-1.003781-2.936986-.300176-5.25817.417414-7.826312.726843-.268675-.20119-.772921.07918-.851918-1.044266l-.026573-6.2672638c-.08652-.7544192.896088-1.0918775 1.811259-1.247082l19.844838-3.0221999c1.46269-.1545191 1.73735.6917272 1.55997 1.6135106l-.36533 5.4867357-7.61966 11.3000644c-.18436.340943-.48157.850709.53844.783057l7.74623-1.086032c.8667-.165098 1.25166.291596 1.30478 1.176581l-.002 5.367645c-1.84738.81558-13.389069 2.898066-25.524261 4.185669z" opacity=".98"/><path d="m9.6631039 39.473177 9.1684371-2.348547c1.142034-.179292 1.92145.327377 1.894867 1.777763v15.183235c-2.001363 16.676622-16.7552002 15.162408-19.3596657 8.336691-.2896669-1.137382-.28691-2.3278 1.1632295-2.131862 2.6377666.462527 5.8397573-.954299 6.4927683-5.968377l-.0008912-13.730081c.024577-.676175.1062326-.923995.641255-1.118822z" opacity=".98"/><path d="m63.070312 90.814453c-.217571-.0098-.454793.0057-.710937.04883l-16.578125 3.384764c-1.242763.251374-1.231072 1.117677-1.275391 1.734375l.28711 6.435548c.08495.7016.731829 1.39818 2.427734 1.19922 1.8376-.36946 1.833279 1.61886 1.460938 2.67187l-7.433594 18.11133c-.48511 1.18195-.01317 1.62714.740234 1.54492 3.654099-.30966 7.558159-.8059 10.888672-1.63672 1.110408-.34878 1.067799-1.93983 1.917969-2.63281 2.488392-2.0283 6.467801-2.33033 9.152344.33984 4.598608.0978 8.265235-.36822 11-1.40039 1.186947-.454 1.552414-.15333.818359-1.80664l-10.011719-25.220699c-.526843-1.416093-1.160593-2.704631-2.683594-2.773438zm-5.007812 18.298827c.09581-.001.188878.16056.320312.47656l1.087891 2.50391c.132014.30786.144127.50953-.328125.51953l-1.943359.0977c-.38775.0155-.358955-.22996-.240235-.6211l.767578-2.48242c.141795-.32928.240129-.49296.335938-.49414z" opacity=".98" transform="matrix(.5 0 0 .5 -.43765 -2.295671)"/><path d="m50.941284 43.32666-.304809-3.483887c-.07658-.560795.03021-.768172-1.613648-.546386-4.425706.479986-7.247345 2.335524-9.685181 4.384643-3.781276 3.898288-3.788431 10.830815.611572 12.58081 3.439683 1.052035 6.821057-.433583 10.151124-1.320312.617467-.132697.601948-.361436.565307-1.082275v-3.650025c.01903-1.350829-.320243-.862824-1.047855-.5865-1.343009.570824-2.791025 1.379166-4.64343 1.322365-1.770252-.05067-1.35467-3.505956-.248534-4.193872l5.548218-2.290284c.526274-.175943.770208-.479309.667236-1.134277z" opacity=".98"/><path d="m52.814087 54.35144v-14.770507c-.0088-.312069.09475-.538807.399292-.613038l4.118304-1.103496c.794995-.160382 1.515695-.215095 1.455757.840482v3.109694l4.056204-4.053528 3.411605-.0097c1.512139.06023.719689 2.387905.353553 2.834906-1.188464 1.366703-2.567421 3.11508-4.106084 4.503141 1.483236.367963 2.93289.897729 4.352833 1.570652l-.01204 4.638136c.01219.365299-.0035.499116-.82398.704517-1.979696.322103-4.485342.244952-7.00829-1.843299-.434831-.502526-.433511-.502875-.427019-.158166l.01093 3.714706c.0032.36959.0059.265476-.264106.335825l-4.837623.900032c-.291869.07677-.694921.219745-.679336-.60039z" opacity=".98"/><g transform="matrix(.5 0 0 .5 -.43765 -2.295671)"><path d="m155.41992 72.951172c-1.75579.02871-3.59388.248818-5.5039.638672l-11.20313 2.513672c-.58099.09892-.99342.372459-.86523 1.214843v30.714841c.18912 1.44728.83405 1.45609 1.47656 1.47657l9.42969-2.09375c1.21364-.11452 2.27744-.36286 1.88476-1.9043l-.32031-2.63672 1.07031-.36523c5.10716 3.26718 10.22041 2.74141 15.33399 1.74804.71822.16702.76253-.41003.75195-1.77734l.0664-5.873048c.0357-.67833.1262-1.386655-1.24805-1.271484l-2.00586-.01953c-1.37303-.19512-1.53886-1.846473-.89063-2.652344 4.93434-2.621098 7.01873-13.438281.0781-18.158203-2.42854-1.117755-5.12837-1.602539-8.05469-1.554687zm-4.44726 9.351562 2.10156.07422c2.92012.280596 2.80648 7.638104-.84375 9.853516-.71512.321788-1.55573-.06955-1.63281-.66211z" opacity=".98"/><path d="m190.89648 69.220703c-.21757-.0098-.45284.0057-.70898.04883l-16.57812 3.384766c-1.24277.251374-1.23303 1.117677-1.27735 1.734375l.28906 6.433594c.085.7016.73183 1.400132 2.42774 1.201172 1.8376-.369461 1.83132 1.618861 1.45898 2.671874l-7.43359 18.111326c-.48511 1.18195-.0112 1.62714.74219 1.54492 3.65409-.30966 7.55816-.8059 10.88867-1.63672 1.11041-.34878 1.0678-1.94178 1.91797-2.63476 2.48839-2.028306 6.4678-2.328379 9.15234.3418 4.59861.0978 8.26524-.37018 11-1.402347 1.18695-.454007 1.55241-.15333.81836-1.80664l-10.01367-25.21875c-.52685-1.416093-1.1606-2.704631-2.6836-2.773438zm-5.00586 18.298828c.0958-.0012.18888.15861.32032.47461l1.08789 2.503906c.13201.307856.14413.511484-.32813.521484l-1.94336.09766c-.38775.01546-.3609-.22996-.24218-.621094l.76953-2.482422c.14179-.329285.24013-.492962.33593-.494141z" opacity=".98"/><path d="m228.38477 62.4375c-1.14094-.01714-2.46853.135123-4.00391.492188l-15.80469 3.570312c-2.0446.614244-2.15038.455101-2.20898 2.332031v27.345703c-.10388 1.194104 1.44887.902335 2.27343.927735 5.80573.17877 13.85922-2.195489 19.31446-3.337891 9.08338-1.654944 11.02492-15.036237 3.35156-17.560547 3.32326-2.322907 6.36857-13.62999-2.92187-13.769531zm-9.69532 7.628906c.0906-.0044.22038.01918.41211.05469 1.37308.13698 2.21016.668791 1.89258 1.384765-.45806 1.538628-1.11335 2.864546-2.24023 3.679688-.27436.22345-.28321-.134766-.28321-.134766v-4.349609c.0164-.476099.0195-.625085.21875-.634766zm.1836 11.609375c.0906-.0044.22233.01918.41406.05469 1.37308.13698 2.2082.668791 1.89062 1.384765-.45806 1.538628-1.1114 2.864546-2.23828 3.679688-.27436.22345-.2832-.134766-.2832-.134766v-4.349609c.0164-.476099.0175-.625085.2168-.634766z" opacity=".98"/><path d="m259.87891 56.931641c-1.14094-.01714-2.46853.133169-4.00391.490234l-15.80469 3.572266c-2.0446.614244-2.15038.455101-2.20898 2.332031v27.34375c-.10388 1.194104 1.44888.904287 2.27344.929687 5.80572.17877 13.85726-2.195488 19.3125-3.33789 9.08338-1.654944 11.02492-15.036237 3.35156-17.560547 3.32326-2.322907 6.37052-13.62999-2.91992-13.769531zm-9.69727 7.628906c.0906-.0044.22233.01918.41406.05469 1.37308.13698 2.21016.668792 1.89258 1.384766-.45806 1.538628-1.11335 2.862592-2.24023 3.677734-.27436.22345-.28321-.132812-.28321-.132812v-4.34961c.0164-.476099.0175-.625085.2168-.634765zm.18555 11.609375c.0906-.0044.22233.01918.41406.05469 1.37308.13698 2.20821.668792 1.89063 1.384766-.45807 1.538628-1.11141 2.862592-2.23829 3.677734-.27436.22345-.28515-.132812-.28515-.132812v-4.349609c.0164-.4761.0195-.625086.21875-.634766z" opacity=".98"/></g><path d="m135.25938 39.709156v-13.769938c-.006-.463114.0703-.833322.59023-.952592l5.45694-1.146286c.99238-.190484 1.54786.151685 1.49484 1.23571l-.13293 13.698468c-.009.515711-.17327.805276-.52104.902473l-5.96359.870991c-.72463.08131-.95743-.210456-.92445-.838826z" opacity=".98"/><path d="m148.01624 38.753174 5.04296-.965576c.65156-.14829.74513-.629274.77527-1.191529v-9.232193c-.0409-.459995.14869-.567802.3893-.597657l1.80307-.16711c.46095-.04493.85812-.349409.87332-.90669l.0564-3.905424c.0312-.506639-.0496-.905688-.72964-.729635l-11.90436 2.390498c-.29955.132362-.69614.0044-.65635 1.047022v3.322763c.0178.712282.37124.708346.72998.69321l1.9221-.373924c.43609-.164486.52044.281426.53991.839948v8.941293c.1444.888451.59115.935288 1.15805.835004z" opacity=".98"/></g></g></svg>