<svg height="305.48593" width="682.04572" xmlns="http://www.w3.org/2000/svg"><g transform="matrix(.96149496 0 0 .96330085 -731.17748 -655.849219)"><g fill="#fff" transform="translate(677.61223 1034.0352)"><g transform="translate(0 -1052.3622)"><path d="m366.96875 745.9375v48.59375 58.46875 78.46875h37l-.002-82.25029 47.37725 82.25591 45.25-.006-42.22631-73.994c18.42048-10.08168 30.35131-29.68656 30.35131-52.16225 0-32.78697-26.58803-59.375-59.375-59.375-.40734 0-.81339.0201-1.21875.0312v-.0312h-.15625-20zm37 36.40625h18.875c30.39869.003 30.39869 47.11352 0 47.125h-18.875z"/><path d="m259.71875 740.0625c-54.27181 0-98.28125 44.00944-98.28125 98.28125s44.00944 98.25 98.28125 98.25 98.25-43.97819 98.25-98.25-43.97819-98.28125-98.25-98.28125zm0 37.21875c33.72422 0 61.0625 27.33828 61.0625 61.0625s-27.33828 61.0625-61.0625 61.0625-61.0625-27.33828-61.0625-61.0625 27.33828-61.0625 61.0625-61.0625z"/><path d="m640.34375 740.9375c-53.78855 0-97.40625 43.6177-97.40625 97.40625s43.6177 97.375 97.40625 97.375c32.58307 0 61.44994-15.99532 79.125-40.5625l-30.0625-21.40625c-10.99409 15.19678-28.87192 25.09375-49.0625 25.09375-33.42392 0-60.5-27.07607-60.5-60.5 0-33.42392 27.07608-60.53125 60.5-60.53125 19.86108 0 37.49666 9.56664 48.53125 24.34375l29.6875-21.875c-17.74505-23.87607-46.18464-39.34375-78.21875-39.34375z"/></g><path d="m496.60764-306.42343h37.204723v185.5356h-37.204723z"/></g><path d="m805.39393 956.61747h49.55229 558.08388v-35.0017h-531.6228l148.1939-196.07474h-49.55232z" fill="#e41c1c"/></g></svg>