<svg viewBox="0 0 3839 1221.29993" xmlns="http://www.w3.org/2000/svg" xmlns:xlink="http://www.w3.org/1999/xlink"><linearGradient id="a" gradientTransform="translate(1523.5 -1268.39203)" gradientUnits="userSpaceOnUse" x1="637.70001" x2="637.70001" y1="2488.69208" y2="1887.19202"><stop offset="0" stop-color="#48407d"/><stop offset="1" stop-color="#6a93c9"/></linearGradient><linearGradient id="b" x1="-867.49997" x2="-867.49997" xlink:href="#a" y1="2488.79205" y2="1887.19202"/><linearGradient id="c" x1="31.10004" x2="31.10004" xlink:href="#a" y1="2488.69208" y2="1887.19202"/><linearGradient id="d" x1="1241" x2="1241" xlink:href="#a" y1="2488.69208" y2="1887.19202"/><linearGradient id="e" x1="1895.90002" x2="1895.90002" xlink:href="#a" y1="2489.69196" y2="1738.39203"/><g fill="#fff"><path d="m1423.2 184.3h-704.4v226.4h41.7v-184.8h704.4v-225.9h-746.1v41.8h704.4z"/><path d="m3078.6 184.3h-704.6v226.4h41.8v-184.8h704.4v-225.9h-746.2v41.8h704.6z"/><path d="m1464.9 410.7h423.2v-368.9h379.5v-41.8h-422.8v369.1h-379.9z"/></g><path d="m2161.2 618.8c-246.2 0-359.9 159.3-359.9 308.2v293.30005h127.6v-293.3c0-107.7 57.7-206.5 232.30005-206.5s232.3 98.9 232.3 206.5v293.3h127.6001v-293.3c-.00005-148.90005-113.60015-308.20005-359.90015-308.20005z" fill="url(#a)"/><path d="m952.2 618.8c-141.2 0-238.5 52.4-296.1 125.1-57.6-72.7-155-125.1-296.1-125.1-246.3 0-360 159.3-360 308.3v293.3h127.6v-293.3c0-107.7 57.7-206.5 232.3-206.5s232.3 98.9 232.3 206.5v293.3h127.6v-293.3c0-107.7 57.7-206.5 232.3-206.5s232.3 98.9 232.3 206.5v293.3h127.6v-293.3c.1-149-113.6-308.3-359.8-308.3z" fill="url(#b)"/><path d="m1490.80005 1220.30005h127.6v-392.30005h-127.6zm0-601.50006v101.70001h127.6v-101.7z" fill="url(#c)"/><path d="m2700.7 1220.30005h127.6001v-392.30005h-127.6001zm0-601.50006v101.70001h127.6001v-101.7z" fill="url(#d)"/><path d="m3715.5 470c-246.2 0-359.8999 159.3-359.8999 308.2v134.9c0 107.7-57.7 206.5-232.30005 206.5h-123.5v101.69995h123.5c246.2 0 359.8999-159.3 359.8999-308.2v-134.89995c0-107.7 57.69995-206.5 232.3-206.5h123.50005v-101.7z" fill="url(#e)"/></svg>