<?xml version="1.0" encoding="utf-8"?>
<!-- Generator: Adobe Illustrator 16.0.0, SVG Export Plug-In . SVG Version: 6.00 Build 0)  -->
<!DOCTYPE svg PUBLIC "-//W3C//DTD SVG 1.1//EN" "http://www.w3.org/Graphics/SVG/1.1/DTD/svg11.dtd">
<svg version="1.1" id="Layer_1" xmlns="http://www.w3.org/2000/svg" xmlns:xlink="http://www.w3.org/1999/xlink" x="0px" y="0px"
	 width="694.219px" height="204.93px" viewBox="0 0 694.219 204.93" enable-background="new 0 0 694.219 204.93"
	 xml:space="preserve">
<path fill="#FFFFFF" d="M654.332,91.355l-73.525-0.026l-12.691,24.302h-16.72c0,0,52.105-98.644,54.181-102.013
	c2.074-3.371,8.018-14.015,17.61-13.497c9.592,0.518,13.602,7.819,15.417,10.93c1.813,3.111,55.615,104.58,55.615,104.58h-26.765
	L654.332,91.355z M622.896,32.915c-2.324-4.667-7.604-5.816-10.455-0.373c-1.189,2.247-23.667,44.476-23.667,44.476l57.965,0.005
	L622.896,32.915z M528.748,14.011l0.085,100.591h-23.91V14.119l-45.388-0.071V0.077L574.395,0l-0.052,14.133L528.748,14.011z
	 M461.049,185.189c3.217-0.59,6.083-0.236,6.083-2.864c0-2.316-2.394-2.747-4.2-2.747c-2.511,0-4.275,1.021-4.474,3.218h-4.474
	c0.312-5.221,4.749-6.751,9.222-6.751c3.964,0,8.124,1.609,8.124,5.889v10.438c0,1.097,0.236,1.53,1.061,1.53
	c0.274,0,0.628,0,1.099-0.08v3.101c-0.667,0.236-2.078,0.511-2.824,0.511c-1.806,0-3.103-0.627-3.455-2.472
	c-1.766,1.728-4.63,2.472-7.023,2.472c-3.65,0-6.945-1.961-6.945-5.926C453.24,186.445,457.282,185.621,461.049,185.189z
	 M461.834,193.902c1.961,0,5.022-1.021,5.022-3.848v-3.335c-1.373,0.903-3.531,0.863-5.495,1.216
	c-1.922,0.314-3.648,1.021-3.648,3.375C457.713,193.312,460.265,193.902,461.834,193.902z M442.409,191.9V179.93h-3.376v-3.336
	h3.376v-6.084h4.474v6.084h4.043v3.336h-4.043v10.832c0,1.846,0.156,2.786,2.159,2.786c0.627,0,1.255,0,1.884-0.157v3.454
	c-0.981,0.077-1.924,0.234-2.903,0.234C443.35,197.08,442.487,195.275,442.409,191.9z M419.671,0.708h24.313v114.546h-24.313V0.708z
	 M416.901,191.038l7.182-22.175h4.983l-9.575,28.021h-5.455l-9.341-28.021h5.103l7.025,22.175H416.901z M332.749,115.609
	c-9.573-0.519-13.575-7.804-15.386-10.908c-1.812-3.105-55.51-104.378-55.51-104.378h26.714l44.471,82.557
	c2.319,4.658,7.59,5.805,10.437,0.371c2.328-4.398,44.242-82.928,44.242-82.928h16.688c0,0-52.007,98.453-54.077,101.816
	C348.256,105.503,342.323,116.127,332.749,115.609z M267.139,176.594l-7.889,21.389c-1.453,3.65-2.512,6.947-7.183,6.947
	c-1.059,0-2.079-0.078-3.1-0.236v-3.769c0.706,0.118,1.413,0.274,2.119,0.274c2.08,0,2.59-1.098,3.139-2.824l0.51-1.57
	l-7.692-20.211h4.906l5.298,15.149h0.078l5.142-15.149H267.139z M192.749,31.606v52.439c0,19.174-8.632,31.137-32.558,31.137
	h-51.396v-14.178h44.842c9.177,0,14.66-7.454,14.66-16.958v-52.44c0-16.715,8.118-31.136,31.88-31.136h51.043v14.18h-44.161
	C195.131,14.134,192.749,23.904,192.749,31.606z M91.854,64.053h-55c-7.539,0-13.11,5.736-13.11,15.568v35.723H0V80.932
	c0-19.337,12.127-32.366,29.333-32.366h55.638c13.644-0.519,16.898-7.291,16.898-17.124c0-7.538-3.771-17.829-16.898-16.793H0V0.471
	h91.854c24.089,0,33.594,13.928,33.594,30.972C125.448,50.78,115.943,64.053,91.854,64.053z M213.768,177.536
	c0,3.453-1.531,8.635-9.537,8.595h-7.457v10.755h-4.905v-28.021h12.362C212.237,168.863,213.768,174.043,213.768,177.536z
	 M196.774,172.867v9.262h7.182c2.198,0,4.906-1.1,4.906-4.632c0-3.688-2.237-4.63-4.827-4.63H196.774z M222.204,196.885h-4.474
	v-28.021h4.474V196.885z M233.977,185.189c3.218-0.59,6.083-0.236,6.083-2.864c0-2.316-2.394-2.747-4.2-2.747
	c-2.512,0-4.278,1.021-4.474,3.218h-4.474c0.313-5.221,4.749-6.751,9.222-6.751c3.964,0,8.125,1.609,8.125,5.889v10.438
	c0,1.097,0.235,1.53,1.059,1.53c0.275,0,0.628,0,1.099-0.08v3.101c-0.667,0.236-2.079,0.511-2.826,0.511
	c-1.804,0-3.1-0.627-3.453-2.472c-1.767,1.728-4.631,2.472-7.024,2.472c-3.65,0-6.947-1.961-6.947-5.926
	C226.167,186.445,230.209,185.621,233.977,185.189z M234.762,193.902c1.962,0,5.023-1.021,5.023-3.848v-3.335
	c-1.374,0.903-3.532,0.863-5.495,1.216c-1.923,0.314-3.649,1.021-3.649,3.375C230.642,193.312,233.192,193.902,234.762,193.902z
	 M280.794,193.548c4.317,0,5.926-2.12,5.926-4.237c0-2.16-1.177-3.023-2.315-3.455c-1.962-0.746-4.513-1.256-8.359-2.314
	c-4.788-1.296-6.2-4.198-6.2-7.104c0-5.61,5.18-8.242,10.243-8.242c5.848,0,10.753,3.102,10.753,8.949h-4.906
	c-0.235-3.611-2.669-4.945-6.044-4.945c-2.276,0-5.141,0.824-5.141,3.65c0,1.961,1.334,3.06,3.336,3.608
	c0.431,0.119,6.632,1.728,8.083,2.16c3.689,1.098,5.456,4.237,5.456,7.142c0,6.279-5.573,8.791-11.146,8.791
	c-6.397,0-11.577-3.061-11.695-10.008h4.905C273.691,191.859,276.87,193.548,280.794,193.548z M296.805,170.51h4.475v6.084h4.041
	v3.336h-4.041v10.832c0,1.846,0.156,2.786,2.157,2.786c0.628,0,1.257,0,1.884-0.157v3.454c-0.981,0.077-1.923,0.234-2.904,0.234
	c-4.67,0-5.534-1.806-5.612-5.181V179.93h-3.375v-3.337h3.375V170.51L296.805,170.51z M315.446,185.189
	c3.218-0.59,6.083-0.236,6.083-2.864c0-2.316-2.395-2.747-4.199-2.747c-2.512,0-4.278,1.021-4.475,3.218h-4.475
	c0.314-5.221,4.749-6.751,9.223-6.751c3.965,0,8.124,1.609,8.124,5.889v10.438c0,1.097,0.234,1.53,1.061,1.53
	c0.274,0,0.627,0,1.099-0.08v3.101c-0.667,0.236-2.08,0.511-2.825,0.511c-1.806,0-3.101-0.627-3.454-2.472
	c-1.766,1.728-4.631,2.472-7.024,2.472c-3.65,0-6.946-1.961-6.946-5.926C307.636,186.445,311.678,185.621,315.446,185.189z
	 M316.23,193.902c1.962,0,5.022-1.021,5.022-3.848v-3.335c-1.374,0.903-3.531,0.863-5.494,1.216
	c-1.922,0.314-3.648,1.021-3.648,3.375C312.11,193.312,314.66,193.902,316.23,193.902z M332.084,170.51h4.474v6.084h4.042v3.336
	h-4.042v10.832c0,1.846,0.157,2.786,2.158,2.786c0.628,0,1.256,0,1.885-0.157v3.454c-0.98,0.077-1.923,0.234-2.904,0.234
	c-4.67,0-5.533-1.806-5.612-5.181V179.93h-3.375v-3.337h3.375V170.51z M348.606,173.102h-4.475v-4.238h4.475V173.102z
	 M348.606,196.885h-4.475v-20.291h4.475V196.885z M362.969,176.044c6.516,0,10.242,4.476,10.242,10.677
	c0,6.237-3.728,10.711-10.242,10.711c-6.514,0-10.242-4.474-10.242-10.711C352.727,180.52,356.455,176.044,362.969,176.044z
	 M362.969,193.902c4.004,0,5.77-3.651,5.77-7.183c0-3.493-1.766-7.143-5.77-7.143c-4.003,0-5.769,3.647-5.769,7.143
	C357.201,190.25,358.966,193.902,362.969,193.902z M381.374,179.578l0.078,0.076c1.334-2.235,3.649-3.609,6.317-3.609
	c4.396,0,7.183,2.354,7.183,6.908v13.933h-4.474v-12.757c-0.078-3.177-1.336-4.551-3.964-4.551c-2.982,0-4.905,2.354-4.905,5.337
	v11.971h-4.476v-20.29h4.239L381.374,179.578L381.374,179.578z M436.012,173.102h-4.474v-4.238h4.474V173.102z M436.012,196.885
	h-4.474v-20.291h4.474V196.885z"/>
</svg>
