<svg enable-background="new 0 0 567.429 113.032" height="113.032" viewBox="0 0 567.429 113.032" width="567.429" xmlns="http://www.w3.org/2000/svg"><path d="m165.884 28.918v28.77 28.77h5.039 5.039v-25.682-25.681h6.186c4.461 0 6.475.12 7.233.437 1.496.625 3.036 2.529 3.667 4.521.331 1.047.604 3.313.701 5.831.2 5.154-.398 8.356-1.971 10.433-1.641 2.168-2.645 2.51-7.284 2.51h-3.982v3.119 3.127l6.257-.121 6.258-.121 2.214-1.047c4.045-1.908 6.982-5.811 8.167-10.84.662-2.808.652-9.086-.021-12.099-.646-2.896-1.991-5.813-3.504-7.579-.633-.738-1.857-1.797-2.712-2.347-2.933-1.882-4.062-2.001-18.356-2.001zm44.535 0v28.77 28.77h5.038 5.039v-28.77-28.77h-5.039zm126.372 0c-4.514.001-9.158.16-10.32.346-2.623.418-5.682 1.805-7.416 3.372-1.748 1.579-3.236 3.949-4.043 6.44-.502 1.548-.66 2.959-.68 5.933-.029 4.103.316 5.851 1.727 8.614.916 1.798 3.361 4.393 5.039 5.363 1.949 1.13 4.441 1.728 8.727 2.072 3.26.264 4.02.426 5.08 1.129.834.551 1.564 1.453 2.184 2.711.869 1.771.918 2.142.914 5.953-.004 3.801-.057 4.176-.896 5.771-.566 1.084-1.385 2.032-2.242 2.602l-1.354.895-8.563.103-8.553.092v3.077 3.068h9.73c5.92 0 10.412-.146 11.459-.367 3.984-.838 7.299-3.42 8.908-6.938 1.355-2.963 1.834-6.008 1.656-10.576-.188-4.816-.9-7.44-2.824-10.32-2.391-3.575-5.064-4.801-11.855-5.423-2.512-.23-5.086-.635-5.719-.904-1.398-.592-2.705-2.082-3.281-3.738-.568-1.633-.561-6.361.021-8.359.57-1.973 2.305-3.79 4.135-4.338.883-.266 3.852-.396 8.848-.396h7.527v-3.09-3.09h-8.209zm115.806 0v4.227 4.226h5.039 5.039v-4.226-4.227h-5.039zm-96.902 6.502.104 20.723c.09 20.398.105 20.754.803 22.604.391 1.033 1.227 2.58 1.857 3.443 1.293 1.76 2.973 2.994 5.1 3.738 1.023.359 2.762.498 6.064.51l4.633.02v-3.088-3.088h-3.027c-2.881 0-3.07-.039-3.891-.895-.508-.529-1.006-1.563-1.207-2.52-.221-1.033-.313-6.406-.256-14.791l.092-13.165 5.445-.092 5.445-.092v-3.076-3.08h-5.527-5.525v-3.576-3.575h-5.049zm69.596 0v20.469c0 19.797.023 20.54.672 22.512.771 2.348 2.338 4.672 4.043 5.973.65.498 1.939 1.166 2.863 1.482 1.289.445 2.73.582 6.156.59l4.469.01v-3.088-3.088h-2.885c-2.41 0-3.02-.104-3.727-.662-.467-.365-.996-1.205-1.18-1.867-.205-.74-.336-6.584-.336-15.106v-13.897h5.537 5.537l-.094-3.007-.092-3.008-5.445-.09-5.441-.093v-3.565-3.565h-5.039zm-8.889 7.069-10.758.174c-11.568.178-12.766.32-16.162 2.042-3.799 1.925-6.447 5.663-7.648 10.788-.502 2.138-.59 3.979-.59 12.109 0 9.23.027 9.661.742 11.428 1.441 3.561 3.586 5.76 6.674 6.826 1.361.471 2.781.58 7.457.588l5.771.012v-3.09-3.088h-4.043c-3.828 0-4.088-.047-4.998-.813-.602-.506-1.092-1.35-1.32-2.256-.453-1.793-.475-15.937-.031-19.361.631-4.865 1.727-7.146 4.014-8.371.787-.42 2.146-.57 5.975-.67l4.957-.132v18.896 18.885h5.201 5.201v-12.141c0-6.674-.104-16.566-.225-21.982zm-152.672.011-10.808.162c-11.746.181-13.433.396-16.64 2.113-9.47628 5.746171-11.59331 31.145463-4.602 38.511 1.172 1.192 3.117 2.368 4.743 2.864.447.138 3.481.259 6.745.272l5.932.031v-3.088-3.085h-4.154c-4.686 0-5.303-.221-6.186-2.234-.395-.897-.549-2.662-.65-7.416-.146-6.756.324-14.086 1.056-16.52.657-2.185 1.881-3.863 3.321-4.57 1.052-.516 2.019-.613 6.125-.62l4.875-.011.082 18.773.082 18.771h5.039 5.039v-21.98zm10.85.071c-2.928 0-5.319.037-5.313.082.004.045 3.346 9.857 7.426 21.811l7.416 21.738-4.176 10.77c-2.295 5.927-4.175 10.818-4.175 10.869 0 .05 1.993.05 4.429 0l4.43-.092 12.951-32.508c7.127-17.879 12.963-32.542 12.963-32.588.002-.045-2.102-.082-4.684-.082-3.404 0-4.766.113-4.947.408-.137.223-2.627 6.543-5.525 14.049-2.897 7.504-5.397 13.688-5.565 13.744-.17.057-2.472-6.266-5.108-14.049l-4.796-14.152zm178.017 0v21.942 21.942h5.039 5.039v-21.942-21.942h-5.039zm60.951.162-.094 21.861h.012l-.092 21.861h5.211 5.201v-18.884-18.895l4.957.133c5.262.137 6.141.356 7.619 1.939 1.158 1.24 1.986 3.499 2.355 6.439.191 1.539.348 8.603.348 16.01v13.259h5.037 5.037l-.01-12.922c-.002-13.705-.242-16.957-1.563-20.673-1.797-5.053-5.104-8.049-10.482-9.508-1.779-.483-3.68-.567-12.811-.59zm-25.478.092c-2.842 0-5.674.357-7.709 1.057-2.709.932-4.41 2.023-6.117 3.921-1.852 2.06-3.193 4.849-3.98 8.259-.48 2.09-.596 3.845-.566 8.938.025 5.359.133 6.729.711 8.849.979 3.596 2.26 6.017 4.205 7.985 1.916 1.938 4.748 3.422 7.936 4.146 1.434.324 3.422.427 6.461.345 5.238-.14 7.73-.814 10.787-2.904 2.563-1.752 4.5-4.517 5.598-7.996 1.57-4.967 1.846-13.156.641-19.199-.586-2.936-2.01-6.119-3.598-8.056-1.492-1.821-3.936-3.418-6.551-4.287-2.115-.701-4.976-1.058-7.818-1.058zm.123 6.054c1.475 0 2.953.285 4.113.873 1.514.768 2.465 2.104 3.291 4.632.541 1.653.676 3.158.803 8.625.166 7.141-.162 10.506-1.27 13.043-.781 1.793-2.045 3.186-3.434 3.779-.594.254-2.156.446-3.605.446-2.055 0-2.844-.146-3.992-.75-.902-.478-1.773-1.295-2.336-2.205-1.469-2.37-1.953-5.479-1.973-12.483-.016-6.668.328-9.348 1.557-12.06.416-.92 1.256-2.043 1.879-2.52 1.184-.903 3.07-1.38 4.967-1.38z" fill="#f2f2f2"/><path d="m559.91992 74.634765c-3.45998.341581-6.22002 4.127045-5.19726 7.556641.83271 3.726528 5.48924 5.797004 8.8103 3.911723 3.54775-1.687485 4.42639-6.908539 1.63593-9.661243-1.32012-1.443075-3.19233-2.09356-5.12788-1.816886-.12109.0098.0848-.02538-.12109.0098zm.1504 1.357423c1.65987.07757 3.49478.612851 4.41602 2.154296 1.80866 2.519538.16235 6.462903-2.89453 6.964844-2.95406.723105-5.98672-2.148244-5.40723-5.137148.24884-1.92874 1.53068-3.64498 3.45605-3.903867.38282-.07813.18777-.04053.42969-.07813z" fill="#f2f2f2"/><g transform="translate(-61.6856 -312.868)"><path d="m142.207 336.374-.099 89.525-23.986-7.801v-105.23l30.618 8.096c19.599 5.267 31.592 15.507 31.398 33.45-.195 20.873-9.849 29.257-28.667 23.796v-41.154c-.002-4.976-9.264-5.267-9.264-.682z" fill="#de0029"/><path d="m107.102 400.738-11.311 3.805c-7.314 2.537-13.554-3.412-6.826-5.854l5.46-1.947-20.575-6.537c-6.338 2.148-12.288 6.73-11.896 13.168.39 6.533 15.309 8.096 26.815 9.947 10.726 1.754 20.477.779 29.351-2.342v-6.73zm35.2 25.162 20.965-7.313-21.16-6.729v13.558z" fill="#f3c202"/><path d="m198.08 406.299.389-.099c9.167-3.218 13.067-7.707 12.092-11.898-1.56-7.021-12.773-10.826-30.033-12.094-12.384-.877-24.572 1.854-36.468 5.947l-1.95.686 21.355 6.633 12.48-4.197c13.067-2.436 18.333 1.854 5.755 5.854l-6.242 2.146zm-79.958-31.013-9.459 3.217 9.459 2.926z" fill="#326db3"/><path d="m163.268 418.585 34.812-12.286-22.624-7.022-33.348 11.41v1.17zm-45.146-21.552-11.019 3.705 11.019 3.512zm23.985 5.755v-13.945l21.355 6.631zm-47.682-6.046 23.696-8.485v-6.826l-9.459-2.927-34.324 11.605c-.097 0-.292.096-.487.096z" fill="#00aa9e"/></g><path d="m563.16251 83.502064c-.0754 0-.1507-.17378-.1507-.26066 0-.0869-.0754-.26067-.0754-.52133v-.86888c0-.43444-.0754-.6951-.22605-.86888-.0754-.17377-.22605-.26066-.37675-.34755.1507-.17378.3014-.26066.4521-.52133.1507-.26066.22605-.60821.22605-1.04265 0-.78199-.3014-1.39021-.82885-1.65087-.30139-.17378-.67815-.26066-1.13025-.26066h-2.71258v6.77725h.97954v-2.78041h1.58235c.30139 0 .52744 0 .60279.0869.22605.0869.3014.34755.3014.6951l.0754 1.04265c0 .26067 0 .43444.0754.52133 0 .0869.0754.17378.0754.26066l.0754.0869h1.13025l-.0754-.34755zm-1.20559-4.34439c0 .34755-.0754.60821-.22605.78199-.1507.17377-.4521.26066-.75351.26066h-1.65768v-1.91153h1.73304c.22605 0 .4521 0 .52745.0869.3014.0869.37675.34755.37675.78199" fill="#f2f2f2" stroke-width=".931239"/></svg>