<svg height="300" viewBox="0 0 600 300" width="600" xmlns="http://www.w3.org/2000/svg"><text fill="#ef00eb" font-family="TrasksHand" font-size="2" stroke="#0105ff" stroke-width="2.5" x="209.50528" y="146.8723"><tspan fill="#fafafa" fill-opacity=".4" font-size="2" stroke="none" stroke-width="2.5" x="209.50528" y="146.8723">John Loreth 2022</tspan></text><g fill-opacity=".947941"><path d="m242.137 142.05867h-9.5992c-4.04466-3.53193-7.44173-4.65704-16.90182-4.48235-8.58733.50461-10.75797 1.41275-16.43366 6.64023-1.53853 1.39802 1.47911 2.89747 2.96547 2.88253h41.64858c3.85577.10248 6.26006 3.17958 4.66437 7.99234-4.26143 12.4036-13.49768 20.03801-27.54409 21.54863h-9.79333c-7.4164-.62459-20.15792-3.80918-24.82162-12.77297-1.07571-2.39664.35892-3.73213 1.94458-3.74162l7.12538.2394c3.43729.28692 13.01774 6.84911 15.91356 6.71632l10.04426-.0917c1.67815.0851 9.54995-3.99361 12.94533-7.60875 2.1246-2.06583.74043-3.74956-.61612-3.93974l-46.03522.40955c-3.95258-.13811-3.75957-2.09327-3.81693-5.36882-.072-15.01744 18.14899-21.42595 24.12196-22.67331 7.95708-1.18511 13.10977-.77884 17.45911-.15715 6.91104 1.70511 12.67247 5.09532 18.74799 10.7765 1.67545 1.37329-.34905 3.83232-2.0186 3.63094z"/><path d="m256.13447 132.5868v35.78308c-.0248 3.50297.59292 4.75864 4.29799 4.59766h40.00398c3.92279.0273 3.64533-7.75 0-7.64869h-28.29931c-3.40883.60595-4.96597-9.62753 0-10.70577h28.29931c3.81304.17583 3.54001-7.75279 0-7.64534h-28.77195c-2.43069.0353-4.77623-6.82151 0-9.38372h28.77195c3.70186.49032 4.68283-8.57325 0-8.63017h-40.74814c-1.92932.14414-3.48076.51587-3.55383 3.63295z"/><path d="m308.9446 168.85324v-36.12432c-.031-2.89256.80499-3.84779 4.17049-3.75535 1.06023.0291 5.57698-.0417 7.02305-.0536 4.70395-.0388 5.05914 1.10686 6.63592 3.80895l11.23612 23.71907c1.12742 1.05409 2.29638.94448 2.97762-.18118l11.44221-24.69635c.89201-1.44386 1.90839-2.44766 3.4802-2.43686h9.69339c2.58351.0479 3.1496 1.35751 3.17232 2.43686v38.05576c-.0402 2.40858-.78856 3.44323-3.45612 3.44323h-5.21595s-3.85374 0-4.17363-3.44323v-15.33292c-.13977-2.36427-1.2958-1.4615-2.17381.45051l-7.29304 15.25667c-2.04735 4.00505-2.12412 3.06897-3.44322 3.06897h-7.72647c-1.16275 0-2.46629 0-3.84881-2.61594l-7.37115-16.11663c-.74793-1.30537-2.20265-2.10511-2.37191 0l.001 14.56426c.0466 2.33836-.48548 4.18046-2.48483 4.16831-2.01237-.003-3.94597 0-6.03711-.008-1.97041-.008-4.24263.92728-4.23664-4.20783z"/><rect height="44.18832" ry="4.501126" width="14.17647" x="376.7283" y="128.88113"/><path d="m409.53754 150.80415c-1.26223 5.80935 16.35249 27.31686 39.50719 4.67789 5.22393-5.10757 12.62793.36606 11.92666 2.12437-3.99368 10.01349-16.1187 18.46177-31.12291 18.46177-18.05353 0-32.68881-11.31109-32.68881-25.26403s14.63528-25.26403 32.68881-25.26403c15.12615 0 29.24066 7.55636 31.58223 18.72196.45562 2.17261-7.75182 7.73084-12.54232 2.06519-17.03733-20.14977-37.28642-5.02461-39.35085 4.47688z" stroke-linejoin="round" stroke-opacity=".992157" stroke-width="10"/><path d="m499.1875 125.30469a32.251369 25.039442 0 0 0 -32.25195 25.04101 32.251369 25.039442 0 0 0 32.25195 25.03907 32.251369 25.039442 0 0 0 32.25-25.03907 32.251369 25.039442 0 0 0 -32.25-25.04101zm.21875 10.82226a19.626562 14.322617 0 0 1 19.625 14.32227 19.626562 14.322617 0 0 1 -19.625 14.32226 19.626562 14.322617 0 0 1 -19.62695-14.32226 19.626562 14.322617 0 0 1 19.62695-14.32227z"/><path d="m538.36 168.85324v-36.12432c-.031-2.89256.80499-3.84779 4.17049-3.75535 1.06023.0291 5.57698-.0417 7.02305-.0536 4.70395-.0388 5.05914 1.10686 6.63592 3.80895l11.23612 23.71907c1.12742 1.05409 2.29638.94448 2.97762-.18118l11.44221-24.69635c.89201-1.44386 1.90839-2.44766 3.4802-2.43686h9.69339c2.58351.0479 3.1496 1.35751 3.17232 2.43686v38.05576c-.0402 2.40858-.78856 3.44323-3.45612 3.44323h-5.21595s-3.85374 0-4.17363-3.44323v-15.33292c-.13977-2.36427-1.2958-1.4615-2.17381.45051l-7.29304 15.25667c-2.04735 4.00505-2.12412 3.06897-3.44322 3.06897h-7.72647c-1.16275 0-2.46629 0-3.84881-2.61594l-7.37115-16.11663c-.74793-1.30537-2.20265-2.10511-2.37191 0l.001 14.56426c.0466 2.33836-.48548 4.18046-2.48483 4.16831-2.01237-.003-3.94597 0-6.03711-.008-1.97041-.008-4.24263.92728-4.23664-4.20783z"/></g><path d="m88.660156 76.644531c-40.419116 0-73.089844 32.901159-73.089844 73.749999s32.670728 73.75 73.089844 73.75c40.419114 0 73.087894-32.90116 73.087894-73.75 0-2.43024-.1236-4.83049-.34961-7.19922h-23.10156v-14.51367h20.24414c-9.16188-30.189695-36.94592-52.037107-69.880864-52.037109z" fill="#3939ff"/><path d="m88.660156 62.144531c-48.320033 0-87.5898429 39.628799-87.5898435 88.249999 0 2.39456.1217068 4.76015.3085937 7.10742h14.5351558c-.22033-2.33918-.34375-4.70835-.34375-7.10742 0-40.84884 32.670728-73.749999 73.089844-73.749999 32.934944.000002 60.718984 21.847414 69.880864 52.037109h15.01562c-9.62712-38.173669-44.01919-66.537106-84.896484-66.537109zm87.271484 81.050779h-14.5332c.22601 2.36873.34961 4.76898.34961 7.19922 0 40.84884-32.66878 73.75-73.087894 73.75-32.967343 0-60.773537-21.89113-69.908203-52.12695h-15.0097655c9.5965275 38.21854 44.0089405 66.62695 84.9179685 66.62695 48.320034 0 87.587894-39.6288 87.587894-88.25 0-2.42576-.12468-4.82203-.31641-7.19922zm-160.009765 14.30664h-.0078c.289076 2.47154.207214 2.0878.0078 0z"/><path d="m138.65434 143.35342v14.44396l30.34375-.15285c4.00401-.0202 7.25-3.24594 7.25-7.25s-3.24594-7.25-7.25-7.25m-128.748007 0h-32.2285986c-4.0040644 0-7.25000002 3.24594-7.25000002 7.25s3.24593562 7.25 7.25000002 7.25h32.1367586" fill-opacity=".992157"/><g stroke-linejoin="round"><circle cx="89.525352" cy="150.89058" fill="#ffc600" r="49.75" stroke="#000" stroke-linecap="round" stroke-opacity=".992157" stroke-width="12.5"/><path d="m72.53125 137.65039c-9.52228 0-17.412109 7.74632-17.412109 17.25h10c0-4.02729 3.223175-7.25 7.412109-7.25s7.414062 3.22271 7.414062 7.25h10c0-9.50368-7.891782-17.25-17.414062-17.25zm33.94922.10352c-9.52228 0-17.414064 7.74632-17.414064 17.25h10c0-4.02729 3.225134-7.25 7.414064-7.25 4.18894 0 7.41211 3.22271 7.41211 7.25h10c0-9.50368-7.88983-17.25-17.41211-17.25z" fill-opacity=".992157"/></g></svg>