<svg enable-background="new -22.8 684.323 612 113.354" height="113.354" viewBox="-22.8 684.323 612 113.354" width="612" xmlns="http://www.w3.org/2000/svg"><g fill="#fff"><path d="m417.442 750.716h-8.528v-28.716h31.308c5.397 0 9.607 3.887 9.823 9.284v19.54h-7.988v-17.921c0-2.699-1.512-4.534-4.21-4.75-1.403-.108-2.915 0-4.427 0v22.671h-8.42v-22.779h-7.449c-.109 7.449-.109 22.671-.109 22.671zm129.224 0h-8.529v-28.716h31.308c5.397 0 9.607 3.887 9.824 9.284v19.54h-7.989v-17.921c0-2.699-1.512-4.534-4.21-4.75-1.403-.108-2.915 0-4.427 0v22.671h-8.42v-22.779h-7.449c-.108 7.449-.108 22.671-.108 22.671zm-232.104-10.904c2.698 3.562 5.505 7.341 8.312 11.012h-9.5l-7.342-10.688h-8.096v10.688h-8.42v-28.717h23.103c5.938 0 10.256 5.398 9.068 11.228-.648 3.239-2.699 5.183-5.722 6.153-.432 0-.864.109-1.403.324zm-16.626-4.858h11.011c.54 0 1.188-.216 1.728-.539 1.188-.54 2.051-1.296 2.051-2.808 0-1.511-.539-2.698-2.051-3.346-.863-.324-1.728-.54-2.591-.54h-10.148zm106.228 15.762h-21.375c-1.619 0-3.238-.323-4.75-.756-3.887-1.188-6.046-4.317-5.722-8.312.216-4.103 2.807-7.232 6.693-8.097.863-.216 1.835-.323 2.807-.323h13.603c0-3.131-2.591-5.722-5.938-5.722h-14.898v-5.506h17.381c6.693 0 11.876 4.966 12.092 11.659v17.057zm-8.42-12.091h-10.472c-2.159 0-3.671 1.296-3.779 3.347 0 1.943 1.403 3.238 3.671 3.238h10.58zm-243.224 12.091v-5.613h18.784c1.727 0 2.807-.864 3.13-2.591.324-1.296-.54-2.591-2.051-3.131-.648-.216-1.403-.432-2.159-.432h-11.551c-4.75-.108-7.449-2.915-7.881-7.881-.324-3.887 2.591-8.312 6.478-9.068h24.722v5.829h-17.705c-.54 0-1.08 0-1.512.108-1.295.216-2.267 1.079-2.483 2.267s.324 2.376 1.295 3.131c.324.216.864.324 1.296.324h12.522c3.131.107 6.046.863 7.557 3.887 2.699 5.289.647 12.954-7.449 13.062zm363.918-29.364c3.239.108 6.37.433 9.285 1.836 4.102 1.835 7.125 4.857 7.988 9.284 1.079 5.613.107 10.903-4.426 14.897-2.592 2.268-5.83 3.239-9.068 3.887-5.183.863-10.04 0-14.683-2.268-4.318-2.159-6.153-6.045-6.693-10.579-.216-2.268-.216-4.643.54-6.909 1.728-5.29 5.722-7.988 10.796-9.177 2.051-.647 3.238-.971 6.261-.971zm9.392 15.005c0-.539 0-1.079-.108-1.619-.216-3.886-2.591-6.909-6.153-7.881-2.159-.539-4.21-.539-6.369 0-3.022.648-5.074 2.483-5.938 5.506-.647 2.375-.647 4.858-.324 7.233.433 2.807 2.159 4.75 4.858 5.506 1.619.432 3.347.647 5.074.539 5.938-.107 9.068-3.562 8.96-9.284zm-240.849-2.806v5.506h-19.971c0 3.455 2.483 5.938 5.83 5.938h14.034v5.83h-16.085c-7.989-.324-12.847-6.046-12.631-13.495.108-2.482.216-4.857 1.188-7.125 1.943-4.966 6.478-8.097 11.875-8.097h15.87v5.83h-13.495c-3.239 0-5.83 2.375-6.261 5.722 6.476-.109 12.953-.109 19.646-.109zm-75.893 11.336v-22.887h8.205v28.716h-21.591c-2.699 0-4.858-.972-6.478-3.022-1.619-1.943-2.591-3.994-2.483-6.693.108-5.722 0-19 0-19h8.205v18.353c-.108 2.698 1.403 4.317 3.887 4.534h10.255zm21.16-3.887v9.716h-7.989v-28.716h21.807c3.886-.108 7.772 2.807 8.852 7.017 1.728 6.262-2.699 11.983-9.176 11.983zm.216-5.613h11.011c.432 0 .972-.324 1.295-.54 1.188-.864 2.051-3.022 1.62-4.21-.648-1.943-1.835-2.808-3.779-2.808h-10.255v7.558zm139.587-13.387v5.506h-14.035c-2.375.107-4.426 1.188-5.829 3.131-.432.647-.756 1.511-.863 2.698h20.295v6.046h-20.403v11.335h-8.312v-16.949c0-6.153 4.643-11.551 10.796-11.767zm126.199 23.103v5.613h-15.113c-6.262 0-11.012-3.67-12.631-9.824-1.188-4.75-.647-9.607 2.051-13.71 2.268-3.455 5.506-5.182 9.716-5.182h16.193v5.722h-13.71c-2.699 0-4.426 1.295-5.29 3.778-1.079 2.915-1.188 6.262-.216 9.284.864 2.807 3.022 4.318 6.046 4.318h12.954zm-182.013 31.846v-5.182h19.972v-8.528h-19.647v-4.967h23.966v18.785c-8.097-.108-16.194-.108-24.291-.108zm-162.797-13.926v-5.074h19.972c.54 3.67.216 7.125-.972 10.579-.108.324-.324.864-.324.864s3.67 5.182 5.397 7.557h-5.613s-1.943-2.591-2.699-3.671c-.432.324-.755.54-1.08.864-2.375 1.835-4.858 2.915-7.989 2.807h-7.449v-5.182h5.29c2.267 0 4.426-.216 6.477-.972 3.239-1.296 5.182-4.21 4.966-7.772zm303.679-41.023h8.853v28.716h-8.853zm-212.348 54.949v-5.182h10.364c4.21.216 7.449-2.483 7.341-7.665 0-.324 0-.647-.108-1.079h-18.892v-4.858h22.779v9.284c0 .863-.324 1.835-.648 2.591-1.511 4.103-4.642 6.585-8.96 6.909zm23.426-10.04v-4.426h20.08v6.585c0 2.591-1.835 3.778-9.284 3.778 0 0-.108 1.188-.324 1.512-.756 1.943-2.267 2.699-4.534 2.699h-4.75v-4.534h4.75s2.051-.324 2.267-1.943c.108-.432.108-.972.216-1.512h6.153c1.403 0 1.835-.432 1.835-2.051-5.398-.108-10.903-.108-16.409-.108zm98.78-8.528v10.58c-.864 5.938-6.153 8.097-10.04 7.988h-13.818v-5.182h14.143c2.914.107 5.829-2.591 5.829-5.938v-7.341c1.402-.107 2.698-.107 3.886-.107zm-159.883-.432h4.318v7.341c-.324 4.858 3.13 6.262 6.261 6.262h1.295v5.182c-7.017.432-11.659-2.699-11.875-9.608-.108-2.698 0-5.397 0-8.097v-1.08zm106.876 13.063-23.534-3.022v-4.534l23.534 2.807m0-1.513-23.534-2.914v-4.534l23.534 2.807m0 12.522v4.75c-7.88-.972-15.761-1.943-23.642-3.022v-4.642c7.88.863 15.761 2.051 23.642 2.914zm-120.694 4.102v-5.182c1.08-.108 2.051-.108 3.023-.216 2.915-.432 4.534-2.483 4.534-5.398v-7.881h4.426v6.37c0 1.403 0 2.914-.216 4.21-.972 4.858-3.994 7.341-9.068 7.772-.864.325-1.727.325-2.699.325z"/><path d="m191.708 765.074v4.75h-18.028v-4.75zm25.477-.216h18.029v4.75h-18.029zm138.183-6.693v4.966h-14.25v-4.966zm-137.967 3.023c0 1.943-1.619 3.455-3.454 3.455s-3.455-1.512-3.455-3.455 1.511-3.562 3.455-3.562c1.943.107 3.454 1.618 3.454 3.562zm-2.159 0c0-.756-.756-1.511-1.512-1.511-.755 0-1.511.755-1.403 1.619.108.863.648 1.403 1.511 1.403.972-.108 1.404-.756 1.404-1.511z"/><path d="m368.646 761.512v-4.534h2.052c.432 0 .756 0 .972.108.216.107.432.216.539.432.108.216.217.432.217.647 0 .324-.108.647-.324.863s-.54.324-.972.433c.108.107.324.107.324.216.216.107.323.323.539.647l.756 1.295h-.756l-.647-.971c-.216-.324-.324-.433-.432-.648l-.324-.323c-.107-.108-.216-.108-.323-.108h-.972v2.051h-.648v-.108zm.649-2.591h1.295c.324 0 .54 0 .648-.108.107-.107.323-.107.323-.323.108-.108.108-.217.108-.433s-.108-.432-.216-.539c-.108-.108-.433-.217-.756-.217h-1.403v1.62z"/><path d="m370.482 763.455c-2.375 0-4.211-1.943-4.211-4.211 0-2.375 1.943-4.21 4.211-4.21 2.375 0 4.21 1.943 4.21 4.21 0 2.375-1.835 4.211-4.21 4.211zm0-7.665c-1.943 0-3.455 1.511-3.455 3.454s1.512 3.455 3.455 3.455 3.454-1.512 3.454-3.455c.001-1.942-1.51-3.454-3.454-3.454zm212.781-31.523v-4.534h2.051c.432 0 .756 0 .972.108s.432.216.54.432c.107.216.216.432.216.647 0 .324-.108.648-.324.864s-.539.323-.972.432c.108.108.324.108.324.216.216.108.324.324.54.647l.756 1.296h-.756l-.648-.972c-.216-.324-.323-.432-.432-.647l-.323-.324c-.108-.108-.216-.108-.324-.108h-.972v2.052zm.54-2.591h1.295c.324 0 .54 0 .647-.107.108-.108.324-.108.324-.324.108-.108.108-.216.108-.432s-.108-.432-.217-.54c-.107-.108-.432-.216-.755-.216h-1.403v1.619z"/><path d="m584.99 726.21c-2.376 0-4.211-1.943-4.211-4.21 0-2.268 1.943-4.21 4.211-4.21 2.375 0 4.21 1.942 4.21 4.21 0 2.267-1.835 4.21-4.21 4.21zm0-7.665c-1.943 0-3.455 1.512-3.455 3.455s1.512 3.454 3.455 3.454c1.942 0 3.454-1.511 3.454-3.454s-1.511-3.455-3.454-3.455z"/></g><path d="m45.86 753.415c0 9.5-15.33 17.165-34.33 17.165s-34.33-7.665-34.33-17.165 15.33-17.165 34.33-17.165 34.33 7.665 34.33 17.165z" fill="#01954b"/><path d="m105.02 780.512c0 9.5-15.33 17.165-34.33 17.165s-34.33-7.665-34.33-17.165 15.33-17.165 34.33-17.165 34.33 7.665 34.33 17.165z" fill="#f9ec2b"/><path d="m47.155 684.323c-17.273 0-31.415 13.818-31.739 31.091.755 0 1.403-.107 2.159-.107 17.597 0 31.847 14.25 31.847 31.847v.756c16.517-1.079 29.58-14.897 29.58-31.739 0-17.598-14.25-31.848-31.847-31.848z" fill="#323b98"/><path d="m107.395 712.176c-17.597 0-31.739 14.25-31.739 31.847v1.188h1.296c17.165 0 31.199 13.603 31.739 30.66 16.949-.648 30.551-14.574 30.551-31.739-.109-17.706-14.359-31.956-31.847-31.956z" fill="#eb2d2f"/></svg>