<svg height="159.3268" viewBox="0 0 1675.7574 223.05752" width="1196.9696" xmlns="http://www.w3.org/2000/svg"><g transform="translate(-39.23731 -44.649519)"><text fill="#fff" fill-opacity=".4" font-family="TrasksHand" font-size="2.8" stroke-width="3.5" x="965.26288" y="133.22292"><tspan fill="#fff" fill-opacity=".4" stroke-width="3.5" x="965.26288" y="133.22292">John Loreth 2022</tspan></text><g fill="#010180" stroke="#0268d0" stroke-width="7"><path d="m930.6333 66.41283h114.7382q20.0792 0 34.6264 15.571614 14.5471 15.366724 14.5471 36.880136 0 21.71831-14.5471 37.08503-12.2934 13.11294-28.6846 14.95694l43.2317 59.418h-59.0082l-42.82193-59.00822h-3.07335v59.00822h-59.00822zm59.00822 39.33881v26.22588h32.78238q5.3271 0 9.22-3.68801 3.8929-3.89291 3.8929-9.42493 0-5.32713-3.8929-9.22003-3.8929-3.89291-9.22-3.89291z" transform="scale(.96313503 1.038276)"/><path d="m1053.2213 239.84525v-170.686726h143.3769v44.378546h-75.1022v17.06867h75.1022v47.79229h-75.1022v17.06867h75.1022v44.37855z" transform="scale(1.0029472 .99706144)"/><path d="m1176.1973 118.99925v-48.629441h159.7824v48.629441h-48.6294v125.04712h-62.5236v-125.04712z" transform="scale(1.0205148 .9798976)"/><path d="m1416.5435 66.41283h114.7382q20.0792 0 34.6263 15.571614 14.5472 15.366724 14.5472 36.880136 0 21.71831-14.5472 37.08503-12.2934 13.11294-28.6845 14.95694l43.2317 59.418h-59.0082l-42.822-59.00822h-3.0733v59.00822h-59.0082zm59.0082 39.33881v26.22588h32.7823q5.3272 0 9.2201-3.68801 3.8929-3.89291 3.8929-9.42493 0-5.32713-3.8929-9.22003-3.8929-3.89291-9.2201-3.89291z" transform="scale(.96313504 1.038276)"/><path d="m1557.5825 148.74786q0-38.13745 26.5023-64.208812 26.5023-26.28683 68.3027-26.28683 42.2313 0 68.7336 24.132171 26.5023 24.132171 27.7951 66.363471 0 38.35291-28.4415 65.28614-28.4415 26.93323-68.0872 26.93323-39.8612 0-67.4408-26.93323-27.3642-26.93323-27.3642-65.28614zm74.9821-25.42497q-14.0053 9.69597-19.3919 23.70124-5.3866 14.00528 3.232 26.71776 9.0496 12.28156 23.9167 11.85062 15.0826-.43093 28.8724-10.55782 14.0053-9.26503 19.3919-23.27031 5.3867-14.22074-3.0165-26.93323-9.0496-12.49701-24.1322-11.85062-14.8671.6464-28.8724 10.34236z" transform="scale(.97864575 1.0218202)"/></g><path d="m158.92188 44.667969c-5.84571-.0539-11.63907.0106-17.38086.189453-26.94222-.580933-51.234922 4.947349-70.644536 18.4375a22.488909 22.488909 0 0 0 -.08789.06055c-19.053044 13.377447-31.502684 34.695675-31.564453 57.392578-.315592 22.80415 10.321377 44.66913 28.324218 58.33789a22.488909 22.488909 0 0 0 -3.496093 5.72265l-14.59961 41.83399a22.488909 22.488909 0 0 0 19.011719 29.78711c33.483905 3.32099 60.272075 4.29028 81.652345 2.55664 22.89508.35418 44.7765-6.44607 62.3789-20.14649 5.99806-4.63218 11.13708-10.16096 15.4375-16.21679 3.19383 4.2621 6.60028 8.39833 10.43946 12.24414a22.488909 22.488909 0 0 0 .0625.0625c21.43312 21.30238 49.79665 32.76172 80.375 32.76172 29.01844 0 56.07091-10.46063 77.50586-29.67969v3.83789a22.488909 22.488909 0 0 0 22.48633 22.48633h53.63867a22.488909 22.488909 0 0 0 22.04883-20.85156l5.28906 9.39648a22.488909 22.488909 0 0 0 19.5957 11.45508h73.75391a22.488909 22.488909 0 0 0 6.07812-1.62891 22.488909 22.488909 0 0 0 6.08008 1.62891h75.95703a22.488909 22.488909 0 0 0 22.48633-22.48633v-2.55078c19.67115 16.97346 44.78739 26.57052 72.54492 28.36133a22.488909 22.488909 0 0 0 1.44727.0469c26.36453 0 49.91524-2.64293 70.79492-8.38086a22.488909 22.488909 0 0 0 15.11914-29.51953l-27.1543-73.04687a22.488909 22.488909 0 0 0 -5.45703-7.77735 22.488909 22.488909 0 0 0 6.16016-9.61328l18.52539-62.943389a22.488909 22.488909 0 0 0 -17.67578-28.496093c-13.1164-2.307514-27.77331-3.31575-44.23242-3.259766-5.3568.01822-10.91746.160038-16.66016.40625-27.73513.628518-53.32087 10.373666-73.41211 28.080078v-5.001953a22.488909 22.488909 0 0 0 -22.48633-22.486328h-75.95703a22.488909 22.488909 0 0 0 -6.08008 1.628906 22.488909 22.488909 0 0 0 -6.07812-1.628906h-53.63867a22.488909 22.488909 0 0 0 -19.90625 12.861328l-.0703-.146485a22.488909 22.488909 0 0 0 -20.25197-12.714843h-80.45898a22.488909 22.488909 0 0 0 -22.48633 22.486328v3.191406c-20.85343-17.661605-47.87733-26.539062-77.50586-26.539062-31.44182 0-60.22631 10.983254-81.28711 32.224609-2.93585 2.941751-5.62697 6.054616-8.17383 9.259766l2.77734-9.078125a22.488909 22.488909 0 0 0 -18.79687-28.904297c-18.6275-2.2571-36.77037-3.477817-54.42773-3.640625zm58.68359 82.673831.26758.2207c-.0543-.0454-.11355-.0837-.16797-.12891-.0352-.0287-.0643-.0632-.0996-.0918zm113.08398 15.52929c.18441.10048.64141.88151 1.04688 1.53125 2.02518 3.11242 1.96588 2.57161.66797 6.04493-1.73755 4.57199-4.38883 8.09152-10.05469 11.90625a22.488909 22.488909 0 0 0 -.9043.64062c-5.76981 4.31244-10.11243 5.67968-14.81445 5.81641a22.488909 22.488909 0 0 0 -.008 0c-2.71444.0801-2.22937.32794-3.62305-1.73047-1.94614-2.88153-1.84655-2.23838-.65234-5.39844 1.7642-4.66835 4.59344-8.5048 10.46875-12.64453 6.06253-4.27165 10.83219-5.77439 15.66601-5.98828h-.0137c1.56085-.0681 1.94506-.32792 2.2207-.17774zm464.04493 1.1875c1.97522 1.4091 2.83232 2.40083 2.1875 1.4336a22.488909 22.488909 0 0 0 3.4746 2.92187 22.488909 22.488909 0 0 0 -1.58984 1.03125c-2.68245 2.94205-8.12246 7.75245-15.75976 13.41407-5.20229 3.52721-8.82737 4.43352-12.82422 4.31054l.3457.0137c-1.58572-.0732-1.72336.008-1.86328.0762a22.488909 22.488909 0 0 0 -2.35547-3.0918c-.14293-.15654-.17074-.10537-.2793-.19727.90576-2.96437 2.85338-6.26417 8.10938-10.50586a22.488909 22.488909 0 0 0 .27539-.22461c6.27661-5.2305 11.47989-7.63198 15.76367-8.54492a22.488909 22.488909 0 0 0 .3418-.0762c2.50629-.57521 3.69482-.55818 4.17383-.56055zm-127.89258 11.90625c0 .0934.0115.18396.0117.27735.002.0833-.008.16467-.006.24804zm-531.65821 12.46289c.70344.24064-1.52965.39168-1.17968.34766.51481-.23108.95649-.35779 1.17968-.34766zm106.00977 11.00782.0234 1.03711c0-.21308-.0295-.42373-.0312-.63672-.005-.13416.014-.26619.008-.40039z" fill="#010080"/><g fill="#fec000" stroke="#fd6000" stroke-width="7"><path d="m59.11507 126.23917q0-24.74252 21.084929-40.878943 21.300081-16.136425 55.939611-15.060664 31.41224-1.075761 65.62146 3.442438l-12.26368 43.675929q-13.98491-1.93638-36.79105-1.72122-22.591.21515-24.74252 7.31518-2.15153 7.10002 5.59396 9.68185 7.74548 2.36668 26.89404 3.87274 20.00917 1.50607 34.42437 14.63036 14.63036 12.90914 14.63036 37.22136 1.07577 25.38797-19.14855 42.38501-20.00917 16.99703-47.33352 16.13642-27.5395 2.58183-75.303317-2.58183l13.984902-43.67592q54.433545 2.36668 58.951745-5.16366 4.73335-7.53033-4.0879-10.97277-7.96064-2.79698-23.23645-2.79698-15.275817-.21515-33.994071-12.04853-20.654624-15.49096-20.224319-43.46077z" transform="scale(1.0511746 .95131677)"/><path d="m230.14293 154.04885q0-36.80978 25.57967-61.973523 25.57968-25.37171 65.92486-25.37171 40.76111 0 66.34078 23.292062 25.57968 23.292061 26.82746 64.053171 0 37.01774-27.45135 63.01334-27.45136 25.99561-65.71689 25.99561-38.4735 0-65.093-25.99561-26.41153-25.9956-26.41153-63.01334zm72.37176-24.53985q-13.51771 9.35842-18.71683 22.87613-5.19912 13.51771 3.11947 25.78764 8.73452 11.854 23.0841 11.43807 14.55754-.41593 27.86728-10.19028 13.51772-8.94249 18.71684-22.4602 5.19912-13.72568-2.91151-25.99561-8.73452-12.06196-23.29206-11.43806-14.34957.62389-27.86729 9.98231z" transform="scale(.99802289 1.001981)"/><path d="m426.34351 237.58255v-170.631254h81.903l40.9515 81.903004v-81.903004h54.602v170.631254h-75.07775l-47.77675-81.903v81.903z" transform="scale(.98908132 1.0110392)"/><path d="m578.9162 252.87366v-181.613281h72.64531v181.613281z" transform="scale(1.0527399 .94990229)"/><path d="m689.32782 155.96424q-.84204-35.99717 24.62964-61.679363 25.47168-25.8927 63.78446-26.734739 33.68156-1.473569 56.41662 2.526117l-18.52486 62.942415q-2.94714-4.4207-10.10447-8.84141-7.15733-4.4207-19.99843-1.47356-12.84109 2.73662-25.47168 13.26211-11.99906 9.68345-15.57772 21.68251-3.57867 11.99905 5.26274 21.6825 6.10478 9.68345 19.78792 10.31498 13.68313.42102 26.52423-8.42039 12.84109-9.47294 19.3669-16.63027l27.15576 73.04689q-27.57678 7.57835-64.83701 7.57835-39.15482-2.52612-63.78446-26.94525-24.62964-24.41914-24.62964-62.31089z" transform="scale(1.0068431 .99320345)"/></g></g></svg>