<svg height="170.5397" viewBox="0 0 590.01875 136.43176" width="737.52344" xmlns="http://www.w3.org/2000/svg" xmlns:xlink="http://www.w3.org/1999/xlink"><linearGradient id="a" gradientUnits="userSpaceOnUse" x1="-83.729912" x2="-83.74118" y1="78.078011" y2="68.758186"><stop offset="0" stop-color="#855700"/><stop offset=".31241488" stop-color="#855700"/><stop offset=".45781624" stop-color="#f0b900"/><stop offset=".65311253" stop-color="#855700"/><stop offset="1" stop-color="#855700"/></linearGradient><filter id="b" color-interpolation-filters="sRGB" height="1.086085" width="1.011935" x="-.005967" y="-.043043"><feGaussianBlur in="SourceGraphic" result="blur" stdDeviation=".1"/><feDiffuseLighting diffuseConstant="1" result="diffuse" surfaceScale="10"><feDistantLight azimuth="244" elevation="3"/></feDiffuseLighting><feComposite in="diffuse" in2="diffuse" k1="1" k2="0" k3="0" k4="0" operator="arithmetic" result="composite1"/><feComposite in="composite1" in2="SourceGraphic" k1="1" k2="0" k3="1" k4="0" operator="arithmetic" result="composite2"/></filter><filter id="c" color-interpolation-filters="sRGB" height="1.436633" width="1.431662" x="-.215831" y="-.218317"><feGaussianBlur in="SourceGraphic" result="blur" stdDeviation="1"/><feDiffuseLighting diffuseConstant="1" result="diffuse" surfaceScale="10"><feDistantLight azimuth="220" elevation="30"/></feDiffuseLighting><feComposite in="diffuse" in2="diffuse" k1="1" k2="0" k3="0" k4="0" operator="arithmetic" result="composite1"/><feComposite in="composite1" in2="SourceGraphic" k1="1" k2="0" k3="1" k4="0" operator="arithmetic" result="fbSourceGraphic"/><feColorMatrix in="fbSourceGraphic" result="fbSourceGraphicAlpha" values="0 0 0 -1 0 0 0 0 -1 0 0 0 0 -1 0 0 0 0 1 0"/><feGaussianBlur in="fbSourceGraphicAlpha" result="blur" stdDeviation=".5"/><feSpecularLighting in="blur" result="specular" specularConstant="3.33927989" specularExponent="25" surfaceScale="10"><feDistantLight azimuth="211" elevation="26"/></feSpecularLighting><feComposite in="specular" in2="fbSourceGraphic" k1="0" k2="1" k3="1" k4="0" operator="arithmetic" result="composite1"/><feComposite in="composite1" in2="fbSourceGraphicAlpha" operator="in" result="composite2"/></filter><filter id="d" color-interpolation-filters="sRGB" height="1.436629" width="1.436643" x="-.218322" y="-.218315"><feGaussianBlur in="SourceGraphic" result="blur" stdDeviation="1"/><feDiffuseLighting diffuseConstant="1" result="diffuse" surfaceScale="10"><feDistantLight azimuth="220" elevation="30"/></feDiffuseLighting><feComposite in="diffuse" in2="diffuse" k1="1" k2="0" k3="0" k4="0" operator="arithmetic" result="composite1"/><feComposite in="composite1" in2="SourceGraphic" k1="1" k2="0" k3="1" k4="0" operator="arithmetic" result="fbSourceGraphic"/><feColorMatrix in="fbSourceGraphic" result="fbSourceGraphicAlpha" values="0 0 0 -1 0 0 0 0 -1 0 0 0 0 -1 0 0 0 0 1 0"/><feGaussianBlur in="fbSourceGraphicAlpha" result="blur" stdDeviation=".5"/><feSpecularLighting in="blur" result="specular" specularConstant="3.33927989" specularExponent="25" surfaceScale="10"><feDistantLight azimuth="211" elevation="26"/></feSpecularLighting><feComposite in="specular" in2="fbSourceGraphic" k1="0" k2="1" k3="1" k4="0" operator="arithmetic" result="composite1"/><feComposite in="composite1" in2="fbSourceGraphicAlpha" operator="in" result="composite2"/></filter><filter id="e" color-interpolation-filters="sRGB" height="1.436633" width="1.431663" x="-.215831" y="-.218317"><feGaussianBlur in="SourceGraphic" result="blur" stdDeviation="1"/><feDiffuseLighting diffuseConstant="1" result="diffuse" surfaceScale="10"><feDistantLight azimuth="220" elevation="30"/></feDiffuseLighting><feComposite in="diffuse" in2="diffuse" k1="1" k2="0" k3="0" k4="0" operator="arithmetic" result="composite1"/><feComposite in="composite1" in2="SourceGraphic" k1="1" k2="0" k3="1" k4="0" operator="arithmetic" result="fbSourceGraphic"/><feColorMatrix in="fbSourceGraphic" result="fbSourceGraphicAlpha" values="0 0 0 -1 0 0 0 0 -1 0 0 0 0 -1 0 0 0 0 1 0"/><feGaussianBlur in="fbSourceGraphicAlpha" result="blur" stdDeviation=".5"/><feSpecularLighting in="blur" result="specular" specularConstant="3.33927989" specularExponent="25" surfaceScale="10"><feDistantLight azimuth="211" elevation="26"/></feSpecularLighting><feComposite in="specular" in2="fbSourceGraphic" k1="0" k2="1" k3="1" k4="0" operator="arithmetic" result="composite1"/><feComposite in="composite1" in2="fbSourceGraphicAlpha" operator="in" result="composite2"/></filter><filter id="f" color-interpolation-filters="sRGB" height="1.436629" width="1.436643" x="-.218322" y="-.218315"><feGaussianBlur in="SourceGraphic" result="blur" stdDeviation="1"/><feDiffuseLighting diffuseConstant="1" result="diffuse" surfaceScale="10"><feDistantLight azimuth="220" elevation="30"/></feDiffuseLighting><feComposite in="diffuse" in2="diffuse" k1="1" k2="0" k3="0" k4="0" operator="arithmetic" result="composite1"/><feComposite in="composite1" in2="SourceGraphic" k1="1" k2="0" k3="1" k4="0" operator="arithmetic" result="fbSourceGraphic"/><feColorMatrix in="fbSourceGraphic" result="fbSourceGraphicAlpha" values="0 0 0 -1 0 0 0 0 -1 0 0 0 0 -1 0 0 0 0 1 0"/><feGaussianBlur in="fbSourceGraphicAlpha" result="blur" stdDeviation=".5"/><feSpecularLighting in="blur" result="specular" specularConstant="3.33927989" specularExponent="25" surfaceScale="10"><feDistantLight azimuth="211" elevation="26"/></feSpecularLighting><feComposite in="specular" in2="fbSourceGraphic" k1="0" k2="1" k3="1" k4="0" operator="arithmetic" result="composite1"/><feComposite in="composite1" in2="fbSourceGraphicAlpha" operator="in" result="composite2"/></filter><filter id="g" color-interpolation-filters="sRGB" height="1.43663" width="1.436643" x="-.218322" y="-.218315"><feGaussianBlur in="SourceGraphic" result="blur" stdDeviation="1"/><feDiffuseLighting diffuseConstant="1" result="diffuse" surfaceScale="10"><feDistantLight azimuth="220" elevation="30"/></feDiffuseLighting><feComposite in="diffuse" in2="diffuse" k1="1" k2="0" k3="0" k4="0" operator="arithmetic" result="composite1"/><feComposite in="composite1" in2="SourceGraphic" k1="1" k2="0" k3="1" k4="0" operator="arithmetic" result="fbSourceGraphic"/><feColorMatrix in="fbSourceGraphic" result="fbSourceGraphicAlpha" values="0 0 0 -1 0 0 0 0 -1 0 0 0 0 -1 0 0 0 0 1 0"/><feGaussianBlur in="fbSourceGraphicAlpha" result="blur" stdDeviation=".5"/><feSpecularLighting in="blur" result="specular" specularConstant="3.33927989" specularExponent="25" surfaceScale="10"><feDistantLight azimuth="211" elevation="26"/></feSpecularLighting><feComposite in="specular" in2="fbSourceGraphic" k1="0" k2="1" k3="1" k4="0" operator="arithmetic" result="composite1"/><feComposite in="composite1" in2="fbSourceGraphicAlpha" operator="in" result="composite2"/></filter><filter id="h" color-interpolation-filters="sRGB" height="1.43663" width="1.436643" x="-.218322" y="-.218315"><feGaussianBlur in="SourceGraphic" result="blur" stdDeviation="1"/><feDiffuseLighting diffuseConstant="1" result="diffuse" surfaceScale="10"><feDistantLight azimuth="220" elevation="30"/></feDiffuseLighting><feComposite in="diffuse" in2="diffuse" k1="1" k2="0" k3="0" k4="0" operator="arithmetic" result="composite1"/><feComposite in="composite1" in2="SourceGraphic" k1="1" k2="0" k3="1" k4="0" operator="arithmetic" result="fbSourceGraphic"/><feColorMatrix in="fbSourceGraphic" result="fbSourceGraphicAlpha" values="0 0 0 -1 0 0 0 0 -1 0 0 0 0 -1 0 0 0 0 1 0"/><feGaussianBlur in="fbSourceGraphicAlpha" result="blur" stdDeviation=".5"/><feSpecularLighting in="blur" result="specular" specularConstant="3.33927989" specularExponent="25" surfaceScale="10"><feDistantLight azimuth="211" elevation="26"/></feSpecularLighting><feComposite in="specular" in2="fbSourceGraphic" k1="0" k2="1" k3="1" k4="0" operator="arithmetic" result="composite1"/><feComposite in="composite1" in2="fbSourceGraphicAlpha" operator="in" result="composite2"/></filter><filter id="i" color-interpolation-filters="sRGB" height="1.43663" width="1.436643" x="-.218322" y="-.218315"><feGaussianBlur in="SourceGraphic" result="blur" stdDeviation="1"/><feDiffuseLighting diffuseConstant="1" result="diffuse" surfaceScale="10"><feDistantLight azimuth="220" elevation="30"/></feDiffuseLighting><feComposite in="diffuse" in2="diffuse" k1="1" k2="0" k3="0" k4="0" operator="arithmetic" result="composite1"/><feComposite in="composite1" in2="SourceGraphic" k1="1" k2="0" k3="1" k4="0" operator="arithmetic" result="fbSourceGraphic"/><feColorMatrix in="fbSourceGraphic" result="fbSourceGraphicAlpha" values="0 0 0 -1 0 0 0 0 -1 0 0 0 0 -1 0 0 0 0 1 0"/><feGaussianBlur in="fbSourceGraphicAlpha" result="blur" stdDeviation=".5"/><feSpecularLighting in="blur" result="specular" specularConstant="3.33927989" specularExponent="25" surfaceScale="10"><feDistantLight azimuth="211" elevation="26"/></feSpecularLighting><feComposite in="specular" in2="fbSourceGraphic" k1="0" k2="1" k3="1" k4="0" operator="arithmetic" result="composite1"/><feComposite in="composite1" in2="fbSourceGraphicAlpha" operator="in" result="composite2"/></filter><filter id="j" color-interpolation-filters="sRGB" height="1.436633" width="1.431662" x="-.215831" y="-.218317"><feGaussianBlur in="SourceGraphic" result="blur" stdDeviation="1"/><feDiffuseLighting diffuseConstant="1" result="diffuse" surfaceScale="10"><feDistantLight azimuth="220" elevation="30"/></feDiffuseLighting><feComposite in="diffuse" in2="diffuse" k1="1" k2="0" k3="0" k4="0" operator="arithmetic" result="composite1"/><feComposite in="composite1" in2="SourceGraphic" k1="1" k2="0" k3="1" k4="0" operator="arithmetic" result="fbSourceGraphic"/><feColorMatrix in="fbSourceGraphic" result="fbSourceGraphicAlpha" values="0 0 0 -1 0 0 0 0 -1 0 0 0 0 -1 0 0 0 0 1 0"/><feGaussianBlur in="fbSourceGraphicAlpha" result="blur" stdDeviation=".5"/><feSpecularLighting in="blur" result="specular" specularConstant="3.33927989" specularExponent="25" surfaceScale="10"><feDistantLight azimuth="211" elevation="26"/></feSpecularLighting><feComposite in="specular" in2="fbSourceGraphic" k1="0" k2="1" k3="1" k4="0" operator="arithmetic" result="composite1"/><feComposite in="composite1" in2="fbSourceGraphicAlpha" operator="in" result="composite2"/></filter><filter id="k" color-interpolation-filters="sRGB" height="1.43663" width="1.436643" x="-.218322" y="-.218315"><feGaussianBlur in="SourceGraphic" result="blur" stdDeviation="1"/><feDiffuseLighting diffuseConstant="1" result="diffuse" surfaceScale="10"><feDistantLight azimuth="220" elevation="30"/></feDiffuseLighting><feComposite in="diffuse" in2="diffuse" k1="1" k2="0" k3="0" k4="0" operator="arithmetic" result="composite1"/><feComposite in="composite1" in2="SourceGraphic" k1="1" k2="0" k3="1" k4="0" operator="arithmetic" result="fbSourceGraphic"/><feColorMatrix in="fbSourceGraphic" result="fbSourceGraphicAlpha" values="0 0 0 -1 0 0 0 0 -1 0 0 0 0 -1 0 0 0 0 1 0"/><feGaussianBlur in="fbSourceGraphicAlpha" result="blur" stdDeviation=".5"/><feSpecularLighting in="blur" result="specular" specularConstant="3.33927989" specularExponent="25" surfaceScale="10"><feDistantLight azimuth="211" elevation="26"/></feSpecularLighting><feComposite in="specular" in2="fbSourceGraphic" k1="0" k2="1" k3="1" k4="0" operator="arithmetic" result="composite1"/><feComposite in="composite1" in2="fbSourceGraphicAlpha" operator="in" result="composite2"/></filter><filter id="l" color-interpolation-filters="sRGB" height="1.43663" width="1.436643" x="-.218322" y="-.218315"><feGaussianBlur in="SourceGraphic" result="blur" stdDeviation="1"/><feDiffuseLighting diffuseConstant="1" result="diffuse" surfaceScale="10"><feDistantLight azimuth="220" elevation="30"/></feDiffuseLighting><feComposite in="diffuse" in2="diffuse" k1="1" k2="0" k3="0" k4="0" operator="arithmetic" result="composite1"/><feComposite in="composite1" in2="SourceGraphic" k1="1" k2="0" k3="1" k4="0" operator="arithmetic" result="fbSourceGraphic"/><feColorMatrix in="fbSourceGraphic" result="fbSourceGraphicAlpha" values="0 0 0 -1 0 0 0 0 -1 0 0 0 0 -1 0 0 0 0 1 0"/><feGaussianBlur in="fbSourceGraphicAlpha" result="blur" stdDeviation=".5"/><feSpecularLighting in="blur" result="specular" specularConstant="3.33927989" specularExponent="25" surfaceScale="10"><feDistantLight azimuth="211" elevation="26"/></feSpecularLighting><feComposite in="specular" in2="fbSourceGraphic" k1="0" k2="1" k3="1" k4="0" operator="arithmetic" result="composite1"/><feComposite in="composite1" in2="fbSourceGraphicAlpha" operator="in" result="composite2"/></filter><filter id="m" color-interpolation-filters="sRGB" height="1.436633" width="1.431663" x="-.215831" y="-.218317"><feGaussianBlur in="SourceGraphic" result="blur" stdDeviation="1"/><feDiffuseLighting diffuseConstant="1" result="diffuse" surfaceScale="10"><feDistantLight azimuth="220" elevation="30"/></feDiffuseLighting><feComposite in="diffuse" in2="diffuse" k1="1" k2="0" k3="0" k4="0" operator="arithmetic" result="composite1"/><feComposite in="composite1" in2="SourceGraphic" k1="1" k2="0" k3="1" k4="0" operator="arithmetic" result="fbSourceGraphic"/><feColorMatrix in="fbSourceGraphic" result="fbSourceGraphicAlpha" values="0 0 0 -1 0 0 0 0 -1 0 0 0 0 -1 0 0 0 0 1 0"/><feGaussianBlur in="fbSourceGraphicAlpha" result="blur" stdDeviation=".5"/><feSpecularLighting in="blur" result="specular" specularConstant="3.33927989" specularExponent="25" surfaceScale="10"><feDistantLight azimuth="211" elevation="26"/></feSpecularLighting><feComposite in="specular" in2="fbSourceGraphic" k1="0" k2="1" k3="1" k4="0" operator="arithmetic" result="composite1"/><feComposite in="composite1" in2="fbSourceGraphicAlpha" operator="in" result="composite2"/></filter><filter id="n" color-interpolation-filters="sRGB" height="1.43663" width="1.436643" x="-.218322" y="-.218315"><feGaussianBlur in="SourceGraphic" result="blur" stdDeviation="1"/><feDiffuseLighting diffuseConstant="1" result="diffuse" surfaceScale="10"><feDistantLight azimuth="220" elevation="30"/></feDiffuseLighting><feComposite in="diffuse" in2="diffuse" k1="1" k2="0" k3="0" k4="0" operator="arithmetic" result="composite1"/><feComposite in="composite1" in2="SourceGraphic" k1="1" k2="0" k3="1" k4="0" operator="arithmetic" result="fbSourceGraphic"/><feColorMatrix in="fbSourceGraphic" result="fbSourceGraphicAlpha" values="0 0 0 -1 0 0 0 0 -1 0 0 0 0 -1 0 0 0 0 1 0"/><feGaussianBlur in="fbSourceGraphicAlpha" result="blur" stdDeviation=".5"/><feSpecularLighting in="blur" result="specular" specularConstant="3.33927989" specularExponent="25" surfaceScale="10"><feDistantLight azimuth="211" elevation="26"/></feSpecularLighting><feComposite in="specular" in2="fbSourceGraphic" k1="0" k2="1" k3="1" k4="0" operator="arithmetic" result="composite1"/><feComposite in="composite1" in2="fbSourceGraphicAlpha" operator="in" result="composite2"/></filter><filter id="o" color-interpolation-filters="sRGB" height="1.436633" width="1.431663" x="-.215831" y="-.218317"><feGaussianBlur in="SourceGraphic" result="blur" stdDeviation="1"/><feDiffuseLighting diffuseConstant="1" result="diffuse" surfaceScale="10"><feDistantLight azimuth="220" elevation="30"/></feDiffuseLighting><feComposite in="diffuse" in2="diffuse" k1="1" k2="0" k3="0" k4="0" operator="arithmetic" result="composite1"/><feComposite in="composite1" in2="SourceGraphic" k1="1" k2="0" k3="1" k4="0" operator="arithmetic" result="fbSourceGraphic"/><feColorMatrix in="fbSourceGraphic" result="fbSourceGraphicAlpha" values="0 0 0 -1 0 0 0 0 -1 0 0 0 0 -1 0 0 0 0 1 0"/><feGaussianBlur in="fbSourceGraphicAlpha" result="blur" stdDeviation=".5"/><feSpecularLighting in="blur" result="specular" specularConstant="3.33927989" specularExponent="25" surfaceScale="10"><feDistantLight azimuth="211" elevation="26"/></feSpecularLighting><feComposite in="specular" in2="fbSourceGraphic" k1="0" k2="1" k3="1" k4="0" operator="arithmetic" result="composite1"/><feComposite in="composite1" in2="fbSourceGraphicAlpha" operator="in" result="composite2"/></filter><filter id="p" color-interpolation-filters="sRGB" height="1.43663" width="1.436643" x="-.218322" y="-.218315"><feGaussianBlur in="SourceGraphic" result="blur" stdDeviation="1"/><feDiffuseLighting diffuseConstant="1" result="diffuse" surfaceScale="10"><feDistantLight azimuth="220" elevation="30"/></feDiffuseLighting><feComposite in="diffuse" in2="diffuse" k1="1" k2="0" k3="0" k4="0" operator="arithmetic" result="composite1"/><feComposite in="composite1" in2="SourceGraphic" k1="1" k2="0" k3="1" k4="0" operator="arithmetic" result="fbSourceGraphic"/><feColorMatrix in="fbSourceGraphic" result="fbSourceGraphicAlpha" values="0 0 0 -1 0 0 0 0 -1 0 0 0 0 -1 0 0 0 0 1 0"/><feGaussianBlur in="fbSourceGraphicAlpha" result="blur" stdDeviation=".5"/><feSpecularLighting in="blur" result="specular" specularConstant="3.33927989" specularExponent="25" surfaceScale="10"><feDistantLight azimuth="211" elevation="26"/></feSpecularLighting><feComposite in="specular" in2="fbSourceGraphic" k1="0" k2="1" k3="1" k4="0" operator="arithmetic" result="composite1"/><feComposite in="composite1" in2="fbSourceGraphicAlpha" operator="in" result="composite2"/></filter><g fill="#525252" stroke-width="2.16622" transform="matrix(1.738657 0 0 1.7508752 266.044165 -53.80824)"><path d="m-132.73735 88.564411h-16.6797v1.616156c0 8.196192 6.75552 14.873663 15.04512 14.873663h1.63458v-1.61423zm1.58751 16.489819v-16.489957h16.48943v16.489957zm36.153871-16.489819h16.679693v1.616156c0 8.196192-6.755514 14.873663-15.045113 14.873663h-1.63458v-1.61423zm-18.076931 16.489819v-16.489957h16.489428v16.489957zm-36.15388-18.07732v-16.48995h16.48943v16.48995zm18.07694-.000138v-16.48995h16.48943v16.48995zm-18.07694-18.077313v-16.48995h16.48943v16.48995zm16.48943-18.077451h-16.6797v-1.616156c0-8.196192 6.75552-14.873656 15.04512-14.873656h1.63458v1.614227zm1.58751 18.077313v-16.48995h16.48943v16.48995zm0-34.567125v16.48995h16.48943v-16.48995zm36.153868 18.077313h16.679695v1.616156c0 8.196192-6.755515 14.873656-15.045115 14.873656h-1.63458v-1.614227zm-18.076928 16.489812v-16.48995h16.489428v16.48995zm18.076928-18.077313h16.679695v-1.616156c0-8.196192-6.755515-14.873656-15.045115-14.873656h-1.63458v1.614227zm-18.076928-16.489812v16.48995h16.489427v-16.48995z" fill="#000"/><g fill="#525252"><path d="m-113.0729 34.332196v16.48995h16.489427v-16.48995zm3.26905 3.254065h9.946675v10.005074h-9.946675z" filter="url(#p)"/><path d="m-94.995972 50.822008h16.679695v-1.616156c0-8.196192-6.755515-14.873656-15.045115-14.873656h-1.63458v1.614227zm3.26915-3.230382v-10.005074c5.15095.734369 9.2047 4.911918 9.946675 10.005074z" filter="url(#o)"/><path d="m-113.0729 68.899321v-16.48995h16.489428v16.48995zm3.26905-3.254065h9.946678v-10.005074h-9.946678z" filter="url(#n)"/><path d="m-94.995972 52.409509h16.679695v1.616156c0 8.196192-6.755515 14.873656-15.045115 14.873656h-1.63458v-1.614227zm3.26915 3.230382v10.005074c5.15095-.734369 9.2047-4.911918 9.94667-10.005074z" filter="url(#m)"/><path d="m-131.14984 34.332196v16.48995h16.48943v-16.48995zm3.26905 3.254065h9.94668v10.005074h-9.94668z" filter="url(#l)"/><path d="m-131.14984 68.899321v-16.48995h16.48943v16.48995zm3.26905-3.254066h9.94668v-10.005073h-9.94668z" filter="url(#k)"/><path d="m-132.73735 50.822008h-16.6797v-1.616156c0-8.196192 6.75552-14.873656 15.04512-14.873656h1.63458v1.614227zm-3.26915-3.230382v-10.005074c-5.15095.734369-9.2047 4.911918-9.94668 10.005074z" filter="url(#j)"/><path d="m-149.22678 68.899459v-16.48995h16.48943v16.48995zm3.26905-3.254066h9.94668v-10.005073h-9.94668z" filter="url(#i)"/><path d="m-131.14984 86.976772v-16.48995h16.48943v16.48995zm3.26905-3.254066h9.94668v-10.005073h-9.94668z" filter="url(#h)"/><path d="m-149.22678 86.97691v-16.48995h16.48943v16.48995zm3.26905-3.254066h9.94668v-10.005073h-9.94668z" filter="url(#g)"/><path d="m-113.0729 105.05423v-16.489957h16.489428v16.489957zm3.26905-3.25406h9.946678v-10.005086h-9.946678z" filter="url(#f)"/><path d="m-94.995969 88.564411h16.679693v1.616156c0 8.196192-6.755514 14.873663-15.045113 14.873663h-1.63458v-1.61423zm3.269149 3.230382v10.005087c5.150951-.73438 9.204701-4.911931 9.946674-10.005087z" filter="url(#e)"/><path d="m-131.14984 105.05423v-16.489957h16.48943v16.489957zm3.26905-3.25406h9.94668v-10.005086h-9.94668z" filter="url(#d)"/><path d="m-132.73735 88.564411h-16.6797v1.616156c0 8.196192 6.75552 14.873663 15.04512 14.873663h1.63458v-1.61423zm-3.26915 3.230382v10.005087c-5.15095-.73438-9.2047-4.911931-9.94668-10.005087z" filter="url(#c)"/></g></g><g fill="none" filter="url(#b)" stroke-width=".087035" transform="matrix(11.185254 0 0 11.637579 1284.914095 -788.567217)"><g fill="url(#a)"><path d="m-99.018821 71.751534v4.421379h-1.414379v-4.421379h-2.15159v-.905348h5.794018v.905348z"/><path d="m-93.670891 70.681738q1.946233 0 2.506036.497773.559802.49376.559802 2.215898 0 1.88271-.565035 2.372456-.559803.489746-2.720539.489746-1.946234 0-2.516499-.481717-.570268-.485731-.570268-2.131597 0-1.958983.559804-2.460771.559803-.501788 2.746699-.501788zm-.10464.891175q-1.365502 0-1.595702.268959-.2302.268958-.2302 1.86264 0 1.180206.266823 1.421064.272053.240858 1.590469.240858 1.260865 0 1.511993-.268958.251126-.272973.251126-1.645866 0-1.376908-.240663-1.625795-.235432-.252902-1.553846-.252902z"/><path d="m-85.881742 75.103297h-2.883038l-.416059 1.010419h-1.341176l2.22224-5.264205h1.904078l2.256504 5.264205h-1.316702zm-.293689-.736604-1.155173-2.742014-1.135594 2.742014z"/><path d="m-83.725044 76.072975v-5.223836h2.285852.282614q1.151239 0 1.550224.371217.403141.367391.403141 1.42364 0 1.048593-.382361 1.393022-.38236.344429-1.546066.344429l-.249367.0039h-1.267609v1.6877zm1.076428-2.521983h1.226048q.731473 0 .926809-.15308.199493-.156907.199493-.734781 0-.662069-.166244-.818975-.162087-.160734-.851999-.160734h-1.334107z"/><path d="m-77.282052 70.85431v4.335975h2.89933v.887861h-4.072653v-5.223836z"/><path d="m-69.853576 75.075476h-2.813873l-.406077 1.00267h-1.309002l2.168929-5.223836h1.858399l2.202371 5.223836h-1.285115zm-.286642-.730955-1.127461-2.720987-1.108351 2.720987z"/><path d="m-62.366026 70.85431v5.223836h-1.836993l-1.631953-2.866412q-.12135-.214312-.38079-.75009l-.184117-.375044-.179933-.375045h-.04184l.01675.344429.01255.340602.0083.685029v2.996531h-1.083784v-5.223836h1.836994l1.485495 2.648275q.196672.352082.45611.853418l.217593.424795.217594.428623h.03766l-.01255-.336776-.01255-.336775-.0083-.673549v-3.008011z"/></g></g></svg>