<?xml version="1.0" encoding="utf-8"?>
<!-- Generator: Adobe Illustrator 16.0.0, SVG Export Plug-In . SVG Version: 6.00 Build 0)  -->
<!DOCTYPE svg PUBLIC "-//W3C//DTD SVG 1.1//EN" "http://www.w3.org/Graphics/SVG/1.1/DTD/svg11.dtd">
<svg version="1.1" id="Layer_1" xmlns="http://www.w3.org/2000/svg" xmlns:xlink="http://www.w3.org/1999/xlink" x="0px" y="0px"
	 width="371.711px" height="156.805px" viewBox="0 0 371.711 156.805" enable-background="new 0 0 371.711 156.805"
	 xml:space="preserve">
<g transform="matrix(1.33333 0 0 -1.33333 -139.358 567.534)">
	<path fill="#FFFFFF" d="M245.559,412.955c1.003-1.734,19.11-33.098,19.11-33.098H272l-26.44,45.793l-26.435-45.794h7.332
		C226.456,379.857,244.466,411.048,245.559,412.955 M301.296,329.12h-7.337l8.503-14.727H188.661
		c0.974,1.688,8.498,14.728,8.498,14.728h-7.325l-12.169-21.073h135.794L301.296,329.12z"/>
	<path fill="#FFFFFF" d="M260.975,368.778c0-0.379,0.029-16.24,0.029-16.611h-18.996c0,0.371-0.029,16.232-0.029,16.611H260.975z
		 M262.107,376.218h-21.262c-4.051,0-8.663-4.13-8.663-7.75v-16.222c0-3.623,4.612-7.754,8.663-7.754h21.262
		c4.046,0,8.657,4.131,8.657,7.753v16.223C270.765,372.087,266.153,376.218,262.107,376.218 M340.2,376.319h-19.053
		c-3.954,0-8.458-4.079-8.458-7.651v-16.416c0-3.572,4.504-7.648,8.458-7.648H340.2c3.955,0,8.464,4.076,8.464,7.648v5.15
		l-9.007,0.011v-5.323h-17.574v16.739h17.574v-4.711l9.009,0.013v4.536C348.665,372.24,344.155,376.319,340.2,376.319
		 M169.909,355.978h1.377c3.971,0,7.727,3.396,7.727,6.991v6.364c0,3.595-3.756,6.992-7.727,6.992l-26.962,0.005v-31.732h9.257
		v24.763h15.115c1.224,0,1.655-0.938,1.655-1.742v-3.159c0-0.98-0.59-1.523-1.655-1.523h-10.923l0.175-6.745l13.943-11.58h12.136
		C184.027,344.613,171.773,354.476,169.909,355.978 M299.625,355.873h1.387c3.966,0,7.722,3.394,7.722,6.988v6.366
		c0,3.595-3.756,6.991-7.722,6.991l-26.962,0.006v-31.732h9.252v24.767h15.116c1.223,0,1.654-0.941,1.654-1.746v-3.158
		c0-0.98-0.59-1.521-1.654-1.521h-10.923l0.176-6.748l13.937-11.58h12.141L299.625,355.873z M141.865,376.319h-37.345v-7.314h13.783
		v-24.35h9.779v24.35h13.784L141.865,376.319z M194.548,376.305h-9.801v-31.692h9.801V376.305z M229.691,369.005v7.314h-29.772
		v-31.718h9.807v12.379h17.086v7.306h-17.086v4.719H229.691z M383.303,351.918h-21.642v5.062h15.092v7.305h-15.092v4.719h21.296
		v7.315h-31.307v-31.723l31.652,0.007V351.918z"/>
	<path fill="#FFFFFF" d="M280.43,332.616l-4.226,5.867l-0.539-0.241l-0.011-5.626h-2.011v7.986h3.15l3.315-4.666l0.549,0.184
		l0.016,4.482h2.018v-7.986H280.43z M303.982,332.616l-4.227,5.867l-0.544-0.241l-0.006-5.626h-2.005v7.986h3.151l3.308-4.666
		l0.55,0.184l0.017,4.482h2.017v-7.986H303.982z M344.92,332.616l-4.226,5.867l-0.539-0.241l-0.012-5.626h-2.011v7.986h3.157
		l3.309-4.666l0.555,0.184l0.01,4.482h2.023v-7.986H344.92z"/>
	<path fill="#FFFFFF" d="M288.957,340.602h2.238v-7.986h-2.238V340.602z"/>
	<path fill="#FFFFFF" d="M316.96,338.964v-6.348h-2.339v6.348h-3.201v1.638h8.612v-1.638H316.96z M327.431,338.964v-1.628h5.473
		v-1.419h-5.473v-1.663h5.461v-1.638h-7.677v7.986h7.718v-1.638H327.431z M361.927,334.622v4.054c0,1.285-0.775,1.926-2.017,1.926
		h-7.184v-7.986h7.116C361.242,332.616,361.927,333.245,361.927,334.622 M359.65,334.253h-4.771v4.711h4.77L359.65,334.253z
		 M375.966,334.551v4.114c0,1.408-0.589,1.937-1.978,1.937h-4.815c-1.371,0-1.994-0.549-1.994-1.937v-4.114
		c0-1.351,0.652-1.934,1.994-1.934h4.816c1.354,0,1.978,0.572,1.978,1.935 M373.808,334.254h-4.441v4.71h4.441V334.254z"/>
	<path fill="#FFFFFF" d="M207.709,332.421h-7.087v1.731h6.742v1.711h-4.686c-1.263,0-1.994,0.315-1.994,1.362v2.252
		c0,0.927,0.59,1.334,2.544,1.334h5.58v-1.72h-6.017v-1.731h4.878c1.343,0,1.779-0.558,1.779-1.459v-2.289
		C209.448,332.928,208.949,332.421,207.709,332.421 M237.333,332.41h-5.093c-1.348,0-2,0.626-2,2.045v4.329
		c0,1.487,0.578,2.028,2.074,2.028h6.9v-1.72h-6.798v-4.948h4.776v1.564h-3.28v1.499h5.405v-2.751
		C239.315,333.036,238.664,332.41,237.333,332.41 M254.232,332.421v6.96c0,0.869-0.554,1.43-1.772,1.43h-5.388
		c-1.219,0-1.79-0.561-1.79-1.43v-6.96h2.164v3.3h4.629v-3.3H254.232z M252.075,337.25h-4.629v1.841h4.629V337.25z M224.382,339.089
		v1.717h-6.895c-1.502,0-2.08-0.538-2.08-2.034v-4.323c0-1.419,0.657-2.048,2-2.048h6.945l0.018,1.737h-6.782v1.725h4.901v1.499
		h-4.9v1.728H224.382z"/>
	<path fill="#FFFFFF" d="M191.001,336.604c0-0.771-0.625-1.396-1.396-1.396c-0.001,0-0.002,0-0.003,0
		c-0.771,0-1.397,0.625-1.399,1.396c-0.001,0.773,0.625,1.401,1.399,1.403c0.772,0.001,1.399-0.623,1.4-1.395
		C191.002,336.609,191.002,336.607,191.001,336.604 M265.071,336.604c-0.001-0.771-0.628-1.396-1.399-1.396
		c-0.772,0-1.397,0.625-1.4,1.396c0,0.774,0.627,1.402,1.4,1.403C264.445,338.006,265.072,337.378,265.071,336.604"/>
	<path fill="#FFFFFF" d="M118.993,332.563l-4.226,5.957l-0.544-0.247l-0.006-5.711h-2.011v8.108h3.15l3.314-4.734l0.55,0.184
		l0.016,4.55h2.023v-8.107H118.993z M178.86,334.5v4.113c0,1.408-0.589,1.937-1.983,1.937h-4.816c-1.365,0-1.994-0.552-1.994-1.937
		V334.5c0-1.351,0.651-1.938,1.994-1.938h4.816C178.231,332.562,178.86,333.137,178.86,334.5 M176.696,334.2h-4.441v4.711h4.441
		V334.2z M159.003,332.563c-1.428,0-2.272,0.674-2.272,2.045v3.966c0,1.291,0.935,2.095,2.357,2.095h6.096v-1.663h-6.266v-4.782
		h6.266v-1.663L159.003,332.563z M150.103,332.563v4.121l-0.006,2.093h-0.799l-1.853-6.215h-2.062l-1.864,6.215h-0.781l0.005-6.215
		h-2.102v8.107h3.858l1.53-5.728h0.776l1.541,5.728h3.841v-8.107H150.103z M135.48,332.563v6.725c0,0.838-0.561,1.381-1.779,1.381
		h-5.382c-1.218,0-1.796-0.543-1.796-1.381v-6.726h2.165v3.19h4.629v-3.19H135.48z M133.497,337.228h-4.634v1.779h4.634V337.228z"/>
</g>
</svg>
