<svg height="152.11555" viewBox="0 0 475.71575 258.59644" width="279.83279" xmlns="http://www.w3.org/2000/svg"><g transform="translate(-431.09844 -252.41808)"><path d="m843.0022 419.88849q1.82472 0 3.16284 1.44062 1.33811 1.44063 1.33811 3.40513 0 2.09546-1.33811 3.53609-1.33812 1.44063-3.16284 1.44063h-4.13599v-9.82247zm25.66757 30.12225q1.94636-1.83352 3.64942-4.58382 1.82471-2.7503 3.16282-5.89348 1.45977-3.27416 2.18966-6.94123.85153-3.79802.85153-7.59604 0-7.33411-2.55459-13.75147-2.5546-6.41734-7.05555-11.13214-4.3793-4.84575-10.34001-7.59604-5.96071-2.75029-12.77296-2.75029h-22.50473q-3.16283 0-6.08237 1.30966-2.79788 1.30967-4.86589 3.66706-2.06799 2.22642-3.28446 5.23865-1.21648 3.01223-1.21648 6.41734v64.82834q0 3.53609 1.21648 6.54832 1.21647 3.01224 3.28446 5.36962 2.06801 2.22643 4.86589 3.53609 2.91954 1.30967 6.08237 1.30967 3.28447 0 6.08235-1.30967 2.7979-1.30966 4.86589-3.53609 2.18966-2.35738 3.40613-5.36962 1.21648-3.01223 1.21648-6.54832v-9.42956l10.82659 18.72817q2.06801 3.79803 5.59578 5.63156 3.52776 1.83353 7.54212 1.83353 3.16283 0 5.96072-1.30967 2.79788-1.30966 4.86589-3.53609 2.18964-2.22643 3.40612-5.23865 1.21646-3.1432 1.21646-6.54832 0-4.58382-2.31128-8.64378zm-116.05145-61.94707q-9.73177 0-18.36872 4.05995-8.63696 3.929-15.08426 10.87021-6.32566 6.81024-10.09672 16.10885-3.64942 9.29861-3.64942 19.77593 0 10.4773 3.64942 19.77591 3.77106 9.29861 10.09672 16.23983 6.4473 6.81024 15.08426 10.8702 8.63695 3.929 18.36872 3.929 9.73178 0 18.36874-3.929 8.63695-4.05996 14.96261-10.8702 6.4473-6.94122 10.09671-16.23983 3.77107-9.29861 3.77107-19.77591 0-10.47732-3.77107-19.77593-3.64941-9.29861-10.09671-16.10885-6.32566-6.94121-14.96261-10.87021-8.63696-4.05995-18.36874-4.05995zm.85153 31.82482q3.64943 0 6.81224 1.57158 3.28449 1.44064 5.59579 4.05997 2.43294 2.48835 3.77105 6.02444 1.45977 3.40513 1.45977 7.33413 0 3.92899-1.45977 7.46507-1.33811 3.40513-3.77105 6.02445-2.3113 2.48836-5.59579 4.05996-3.16281 1.44064-6.81224 1.44064-3.64941 0-6.93389-1.44064-3.16282-1.5716-5.59576-4.05996-2.3113-2.61932-3.77107-6.02445-1.33812-3.53608-1.33812-7.46507 0-3.929 1.33812-7.33413 1.45977-3.53609 3.77107-6.02444 2.43294-2.61933 5.59576-4.05997 3.28448-1.57158 6.93389-1.57158zm-68.97397 0h9.0019q2.91954 0 5.35248-1.17871 2.55459-1.1787 4.50095-3.27415 1.94636-2.09546 3.04117-4.71479 1.09483-2.75029 1.09483-5.89348 0-3.1432-1.09483-5.89349-1.09481-2.7503-3.04117-4.71479-1.94636-2.09546-4.50095-3.27416-2.43294-1.17869-5.35248-1.17869h-49.26713q-2.91953 0-5.47411 1.17869-2.55459 1.1787-4.50095 3.27416-1.82471 1.96449-2.91953 4.71479-1.09483 2.75029-1.09483 5.89349 0 3.14319 1.09483 5.89348 1.09482 2.61933 2.91953 4.71479 1.94636 2.09545 4.50095 3.27415 2.55458 1.17871 5.47411 1.17871h9.2452v51.33879q0 3.53609 1.21646 6.54832 1.21648 3.01224 3.28448 5.36962 2.06801 2.22643 4.86589 3.53609 2.91953 1.30967 6.08236 1.30967 3.28448 0 6.08237-1.30967 2.79788-1.30966 4.86588-3.53609 2.18965-2.35738 3.40612-5.36962 1.21647-3.01223 1.21647-6.54832zm-100.11566 36.27766q-3.16283 0-5.47413-2.35739-2.31129-2.48836-2.31129-5.89349v-41.51633q0-3.40511-1.21647-6.41734-1.21647-3.01223-3.40612-5.23865-2.06801-2.35739-4.86589-3.66706-2.79789-1.30966-6.08236-1.30966-3.16283 0-6.08236 1.30966-2.79789 1.30967-4.86589 3.66706-2.06801 2.22642-3.28447 5.23865-1.21648 3.01223-1.21648 6.41734v41.51633q0 8.64379 3.04118 16.23983 3.04118 7.59605 8.27201 13.35857 5.35248 5.63155 12.40802 8.90571 7.05553 3.27417 15.08425 3.27417 8.02871 0 14.96261-3.27417 7.05554-3.27416 12.28637-8.90571 5.35248-5.76252 8.39366-13.35857 3.04118-7.59604 3.04118-16.23983v-41.51633q0-3.40511-1.21648-6.41734-1.21646-3.01223-3.40612-5.23865-2.068-2.35739-4.86589-3.66706-2.79788-1.30966-5.96071-1.30966-3.16283 0-6.08236 1.30966-2.79789 1.30967-4.98754 3.66706-2.068 2.22642-3.28447 5.23865-1.21647 3.01223-1.21647 6.41734v41.51633q0 3.40513-2.3113 5.89349-2.18965 2.35739-5.35248 2.35739zm-68.97389-36.27766h9.00189q2.91954 0 5.35248-1.17871 2.55459-1.1787 4.50096-3.27415 1.94635-2.09546 3.04117-4.71479 1.09482-2.75029 1.09482-5.89348 0-3.1432-1.09482-5.89349-1.09482-2.7503-3.04117-4.71479-1.94637-2.09546-4.50096-3.27416-2.43294-1.17869-5.35248-1.17869h-49.26712q-2.91953 0-5.47412 1.17869-2.55459 1.1787-4.50094 3.27416-1.82471 1.96449-2.91954 4.71479-1.09483 2.75029-1.09483 5.89349 0 3.14319 1.09483 5.89348 1.09483 2.61933 2.91954 4.71479 1.94635 2.09545 4.50094 3.27415 2.55459 1.17871 5.47412 1.17871h9.2452v51.33879q0 3.53609 1.21646 6.54832 1.21648 3.01224 3.28447 5.36962 2.06801 2.22643 4.86589 3.53609 2.91954 1.30967 6.08236 1.30967 3.28448 0 6.08237-1.30967 2.79789-1.30966 4.86589-3.53609 2.18965-2.35738 3.40612-5.36962 1.21647-3.01223 1.21647-6.54832zm330.93755-112.81358q2.78667-4.05332 2.78667-8.9933 0-3.16666-1.26666-6.07999-1.26667-2.91332-3.41999-4.93998-2.02668-2.15333-4.93999-3.42-2.91333-1.26665-6.08-1.26665-3.67331 0-7.0933 1.64665-3.29334 1.64666-5.57333 4.93998l-11.39996 16.21329-11.27331-16.21329q-2.28-3.29332-5.69999-4.93998-3.41998-1.64665-7.09331-1.64665-3.29334 0-6.20665 1.26665-2.78667 1.26667-4.93999 3.42-2.02667 2.02666-3.29332 4.93998-1.26666 2.91333-1.26666 6.07999 0 2.27999.63332 4.55998.76 2.28 2.15333 4.30667l20.89994 29.89324v24.31994q0 3.42 1.26667 6.33333 1.26666 2.91333 3.41999 5.19332 2.15332 2.15331 5.06665 3.41998 3.03999 1.26667 6.33333 1.26667 3.29332 0 6.20663-1.26667 3.04-1.26667 5.19333-3.41998 2.27999-2.27999 3.54665-5.19332 1.26667-2.91333 1.26667-6.33333v-24.31994zm-105.85194 43.06656 2.66 14.43997q.50666 2.91333 1.89998 5.31997 1.52001 2.28 3.67334 3.92667 2.15333 1.64667 4.68665 2.66 2.65999.88666 5.44665.88666 4.17999 0 7.21998-1.52001 3.03999-1.51998 5.06666-3.79999 2.02667-2.27999 3.03999-5.06664 1.01332-2.91333 1.01332-5.57333 0-.63332-.12665-1.39333 0-.76-.12667-1.39331l-11.77998-63.33319q-1.13999-5.95332-5.44664-9.37331-4.30666-3.54664-10.38664-3.54664-4.94 0-8.73999 2.27998-3.67332 2.15333-5.82664 6.71332l-15.07329 31.53991-15.07331-31.53991q-4.30665-8.9933-14.56664-8.9933-6.07998 0-10.51328 3.54664-4.30667 3.41999-5.31999 9.37331l-11.6533 63.33319q-.12669.75999-.25335 1.51998 0 .63334 0 1.39334 0 3.16666 1.26667 6.07998 1.26667 2.78667 3.41999 5.06666 2.27999 2.15332 5.19332 3.41998 2.91333 1.26667 6.33332 1.26667 2.78665 0 5.31999-.88666 2.65998-1.01333 4.81331-2.66 2.15333-1.64667 3.54666-3.92667 1.52-2.40664 2.02667-5.31997l2.65999-14.43997 8.73997 18.36663q4.17999 8.86664 14.05998 8.86664 9.87997 0 14.05996-8.86664zm-127.76515-69.41315q-10.13331 0-19.12662 3.92665-8.99331 3.79999-15.70663 10.51332-6.58664 6.58664-10.5133 15.57996-3.79999 8.9933-3.79999 19.12661 0 10.13331 3.79999 19.12662 3.92666 8.9933 10.5133 15.70663 6.71332 6.58664 15.70663 10.51329 8.99331 3.8 19.12662 3.8 10.1333 0 19.12661-3.8 8.99332-3.92665 15.57996-10.51329 6.71333-6.71333 10.51332-15.70663 3.92665-8.99331 3.92665-19.12662 0-10.13331-3.92665-19.12661-3.79999-8.99332-10.51332-15.57996-6.58664-6.71333-15.57996-10.51332-8.99331-3.92665-19.12661-3.92665zm.88667 30.77991q3.79999 0 7.0933 1.52 3.41999 1.39333 5.82667 3.92665 2.53332 2.40667 3.92665 5.82666 1.51998 3.29333 1.51998 7.09332 0 3.79999-1.51998 7.21999-1.39333 3.29331-3.92665 5.82665-2.40668 2.40664-5.82667 3.92665-3.29331 1.39332-7.0933 1.39332-3.79999 0-7.21999-1.39332-3.29333-1.52001-5.82665-3.92665-2.40666-2.53334-3.92665-5.82665-1.39334-3.42-1.39334-7.21999 0-3.79999 1.39334-7.09332 1.51999-3.41999 3.92665-5.82666 2.53332-2.53332 5.82665-3.92665 3.42-1.52 7.21999-1.52zm-70.00532 0h9.3733q3.03999 0 5.57331-1.13999 2.65999-1.14 4.68667-3.16666 2.02666-2.02667 3.16665-4.55999 1.14-2.65999 1.14-5.69998 0-3.03999-1.14-5.69998-1.13999-2.66001-3.16665-4.56-2.02668-2.02666-4.68667-3.16666-2.53332-1.13998-5.57331-1.13998h-51.29987q-3.04 0-5.69999 1.13998-2.65998 1.14-4.68666 3.16666-1.89998 1.89999-3.03999 4.56-1.13999 2.65999-1.13999 5.69998 0 3.03999 1.13999 5.69998 1.14001 2.53332 3.03999 4.55999 2.02668 2.02666 4.68666 3.16666 2.65999 1.13999 5.69999 1.13999h9.62664v49.65321q0 3.42 1.26667 6.33333 1.26666 2.91333 3.41999 5.19332 2.15333 2.15332 5.06664 3.41998 3.04 1.26667 6.33333 1.26667 3.41999 0 6.33332-1.26667 2.91331-1.26666 5.06664-3.41998 2.28001-2.27999 3.54667-5.19332 1.26667-2.91333 1.26667-6.33333z" opacity=".301952" stroke-width=".999998"/><g fill="#dc1c27"><path d="m531.50545 298.94046h9.86664q3.19999 0 5.86665-1.19999 2.79999-1.2 4.93332-3.33333 2.13333-2.13333 3.33333-4.79999 1.19999-2.79999 1.19999-5.99998 0-3.19999-1.19999-5.99998-1.2-2.8-3.33333-4.79999-2.13333-2.13333-4.93332-3.33333-2.66666-1.19999-5.86665-1.19999h-53.99986q-3.2 0-5.99999 1.19999-2.79999 1.2-4.93332 3.33333-1.99999 1.99999-3.19999 4.79999-1.2 2.79999-1.2 5.99998 0 3.19999 1.2 5.99998 1.2 2.66666 3.19999 4.79999 2.13333 2.13333 4.93332 3.33333 2.79999 1.19999 5.99999 1.19999h10.1333v52.26654q0 3.59999 1.33333 6.66665 1.33333 3.06666 3.59999 5.46665 2.26667 2.26666 5.33332 3.59999 3.2 1.33333 6.66665 1.33333 3.59999 0 6.66665-1.33333 3.06666-1.33333 5.33332-3.59999 2.4-2.39999 3.73333-5.46665 1.33333-3.06666 1.33333-6.66665z"/><path d="m604.26193 266.54055q-10.66664 0-20.13328 4.13332-9.46665 3.99999-16.53329 11.06664-6.93332 6.93331-11.06664 16.39996-3.99999 9.46664-3.99999 20.13328 0 10.66664 3.99999 20.13328 4.13332 9.46664 11.06664 16.53329 7.06664 6.93332 16.53329 11.06664 9.46664 3.99999 20.13328 3.99999 10.66664 0 20.13328-3.99999 9.46664-4.13332 16.39996-11.06664 7.06665-7.06665 11.06664-16.53329 4.13332-9.46664 4.13332-20.13328 0-10.66664-4.13332-20.13328-3.99999-9.46665-11.06664-16.39996-6.93332-7.06665-16.39996-11.06664-9.46664-4.13332-20.13328-4.13332zm.93333 32.39991q3.99999 0 7.46665 1.6 3.59999 1.46666 6.13332 4.13332 2.66666 2.53333 4.13332 6.13332 1.59999 3.46666 1.59999 7.46665 0 3.99999-1.59999 7.59998-1.46666 3.46666-4.13332 6.13332-2.53333 2.53332-6.13332 4.13332-3.46666 1.46666-7.46665 1.46666-3.99999 0-7.59998-1.46666-3.46666-1.6-6.13332-4.13332-2.53333-2.66666-4.13332-6.13332-1.46666-3.59999-1.46666-7.59998 0-3.99999 1.46666-7.46665 1.59999-3.59999 4.13332-6.13332 2.66666-2.66666 6.13332-4.13332 3.59999-1.6 7.59998-1.6z"/><path d="m738.75156 339.60703 2.8 15.19996q.53333 3.06666 1.99999 5.59998 1.6 2.4 3.86666 4.13333 2.26666 1.73333 4.93332 2.79999 2.79999.93333 5.73332.93333 4.39999 0 7.59998-1.6 3.19999-1.59999 5.33332-3.99999 2.13333-2.39999 3.19999-5.33331 1.06666-3.06666 1.06666-5.86666 0-.66666-.13333-1.46666 0-.8-.13333-1.46666l-12.39997-66.6665q-1.2-6.26665-5.73332-9.86664-4.53332-3.73332-10.9333-3.73332-5.19999 0-9.19998 2.39999-3.86666 2.26666-6.13332 7.06665l-15.86662 33.19991-15.86663-33.19991q-4.53332-9.46664-15.3333-9.46664-6.39998 0-11.06663 3.73332-4.53333 3.59999-5.59999 9.86664l-12.26663 66.6665q-.13334.8-.26667 1.59999 0 .66667 0 1.46667 0 3.33332 1.33333 6.39998 1.33333 2.93333 3.59999 5.33332 2.39999 2.26666 5.46665 3.59999 3.06666 1.33333 6.66665 1.33333 2.93333 0 5.59999-.93333 2.79999-1.06666 5.06665-2.79999 2.26666-1.73333 3.73333-4.13333 1.59999-2.53332 2.13332-5.59998l2.8-15.19996 9.19997 19.33328q4.39999 9.33331 14.79997 9.33331 10.39997 0 14.79996-9.33331z"/><path d="m850.17466 294.27381q2.93333-4.26666 2.93333-9.46664 0-3.33333-1.33333-6.39999-1.33333-3.06666-3.59999-5.19998-2.13333-2.26666-5.19999-3.59999-3.06666-1.33333-6.39998-1.33333-3.86666 0-7.46665 1.73333-3.46666 1.73332-5.86665 5.19998l-11.99997 17.06662-11.86664-17.06662q-2.39999-3.46666-5.99998-5.19998-3.59999-1.73333-7.46665-1.73333-3.46666 0-6.53332 1.33333-2.93332 1.33333-5.19998 3.59999-2.13333 2.13332-3.46666 5.19998-1.33333 3.06666-1.33333 6.39999 0 2.39999.66666 4.79998.8 2.4 2.26666 4.53333l21.99995 31.46658v25.59994q0 3.59999 1.33333 6.66665 1.33333 3.06666 3.59999 5.46665 2.26666 2.26666 5.33332 3.59999 3.19999 1.33333 6.66665 1.33333 3.46666 0 6.53331-1.33333 3.2-1.33333 5.46666-3.59999 2.39999-2.39999 3.73332-5.46665 1.33333-3.06666 1.33333-6.66665v-25.59994z"/><g stroke-width=".999999" transform="scale(.96376522 1.0375971)"><path d="m520.6863 398.05907h9.83193q3.18874 0 5.84602-1.19578 2.79014-1.19578 4.91597-3.3216 2.12582-2.12582 3.3216-4.7831 1.19577-2.79015 1.19577-5.97888 0-3.18874-1.19577-5.97888-1.19578-2.79015-3.3216-4.78311-2.12583-2.12582-4.91597-3.3216-2.65728-1.19577-5.84602-1.19577h-53.80992q-3.18873 0-5.97888 1.19577-2.79014 1.19578-4.91596 3.3216-1.99296 1.99296-3.18874 4.78311-1.19578 2.79014-1.19578 5.97888 0 3.18873 1.19578 5.97888 1.19578 2.65728 3.18874 4.7831 2.12582 2.12582 4.91596 3.3216 2.79015 1.19578 5.97888 1.19578h10.09767v52.08268q0 3.58733 1.32864 6.6432 1.32864 3.05588 3.58732 5.44743 2.25869 2.25869 5.31456 3.58733 3.18874 1.32864 6.6432 1.32864 3.58733 0 6.6432-1.32864 3.05588-1.32864 5.31456-3.58733 2.39156-2.39155 3.7202-5.44743 1.32864-3.05587 1.32864-6.6432z"/><path d="m596.02009 434.86239q-3.45446 0-5.97888-2.39155-2.52441-2.52441-2.52441-5.97888v-42.11789q0-3.45446-1.32864-6.51033-1.32864-3.05587-3.72019-5.31456-2.25869-2.39155-5.31456-3.72019-3.05588-1.32864-6.6432-1.32864-3.45447 0-6.6432 1.32864-3.05588 1.32864-5.31456 3.72019-2.25869 2.25869-3.58733 5.31456-1.32864 3.05587-1.32864 6.51033v42.11789q0 8.76903 3.3216 16.47514 3.3216 7.70611 9.03475 13.55213 5.84602 5.71315 13.55213 9.03475 7.70611 3.3216 16.47513 3.3216 8.76903 0 16.34228-3.3216 7.70611-3.3216 13.41926-9.03475 5.84602-5.84602 9.16762-13.55213 3.3216-7.70611 3.3216-16.47514v-42.11789q0-3.45446-1.32864-6.51033-1.32864-3.05587-3.7202-5.31456-2.25868-2.39155-5.31456-3.72019-3.05587-1.32864-6.51033-1.32864-3.45447 0-6.6432 1.32864-3.05587 1.32864-5.44743 3.72019-2.25868 2.25869-3.58732 5.31456-1.32864 3.05587-1.32864 6.51033v42.11789q0 3.45447-2.52442 5.97888-2.39155 2.39155-5.84602 2.39155z"/><path d="m705.36717 398.05907h9.83194q3.18874 0 5.84602-1.19578 2.79014-1.19578 4.91596-3.3216 2.12583-2.12582 3.3216-4.7831 1.19578-2.79015 1.19578-5.97888 0-3.18874-1.19578-5.97888-1.19577-2.79015-3.3216-4.78311-2.12582-2.12582-4.91596-3.3216-2.65728-1.19577-5.84602-1.19577h-53.80992q-3.18874 0-5.97888 1.19577-2.79014 1.19578-4.91597 3.3216-1.99296 1.99296-3.18873 4.78311-1.19578 2.79014-1.19578 5.97888 0 3.18873 1.19578 5.97888 1.19577 2.65728 3.18873 4.7831 2.12583 2.12582 4.91597 3.3216 2.79014 1.19578 5.97888 1.19578h10.09766v52.08268q0 3.58733 1.32864 6.6432 1.32864 3.05588 3.58733 5.44743 2.25869 2.25869 5.31456 3.58733 3.18874 1.32864 6.6432 1.32864 3.58733 0 6.6432-1.32864 3.05587-1.32864 5.31456-3.58733 2.39155-2.39155 3.72019-5.44743 1.32864-3.05587 1.32864-6.6432z"/><path d="m779.77101 365.77312q-10.62912 0-20.06246 4.11878-9.43335 3.98592-16.47514 11.02771-6.90893 6.90893-11.02771 16.34227-3.98592 9.43335-3.98592 20.06247 0 10.62912 3.98592 20.06246 4.11878 9.43334 11.02771 16.47514 7.04179 6.90892 16.47514 11.02771 9.43334 3.98592 20.06246 3.98592 10.62912 0 20.06247-3.98592 9.43334-4.11879 16.34227-11.02771 7.04179-7.0418 11.02771-16.47514 4.11878-9.43334 4.11878-20.06246 0-10.62912-4.11878-20.06247-3.98592-9.43334-11.02771-16.34227-6.90893-7.04179-16.34227-11.02771-9.43335-4.11878-20.06247-4.11878zm.93005 32.28595q3.98592 0 7.44038 1.59436 3.58733 1.46151 6.11175 4.11879 2.65728 2.52441 4.11878 6.11174 1.59437 3.45447 1.59437 7.44039 0 3.98592-1.59437 7.57324-1.4615 3.45447-4.11878 6.11175-2.52442 2.52441-6.11175 4.11878-3.45446 1.46151-7.44038 1.46151-3.98592 0-7.57325-1.46151-3.45446-1.59437-6.11174-4.11878-2.52442-2.65728-4.11879-6.11175-1.4615-3.58732-1.4615-7.57324 0-3.98592 1.4615-7.44039 1.59437-3.58733 4.11879-6.11174 2.65728-2.65728 6.11174-4.11879 3.58733-1.59436 7.57325-1.59436z"/><path d="m878.48896 398.05907q1.99296 0 3.45447 1.4615 1.4615 1.4615 1.4615 3.45446 0 2.12583-1.4615 3.58733-1.46151 1.46151-3.45447 1.46151h-4.51737v-9.9648zm28.03431 30.55872q2.12582-1.8601 3.98592-4.65024 1.99296-2.79015 3.45446-5.97888 1.59437-3.3216 2.39155-7.0418.93005-3.85305.93005-7.70611 0-7.44038-2.79014-13.95072-2.79015-6.51033-7.70612-11.29344-4.7831-4.91596-11.29344-7.70611-6.51033-2.79014-13.95072-2.79014h-24.57984q-3.45446 0-6.6432 1.32864-3.05587 1.32864-5.31456 3.72019-2.25868 2.25869-3.58732 5.31456-1.32864 3.05587-1.32864 6.51033v65.76768q0 3.58733 1.32864 6.6432 1.32864 3.05588 3.58732 5.44743 2.25869 2.25869 5.31456 3.58733 3.18874 1.32864 6.6432 1.32864 3.58733 0 6.6432-1.32864 3.05588-1.32864 5.31456-3.58733 2.39156-2.39155 3.7202-5.44743 1.32864-3.05587 1.32864-6.6432v-9.5662l11.82489 18.99955q2.25869 3.85305 6.11175 5.71315 3.85305 1.8601 8.23756 1.8601 3.45447 0 6.51034-1.32864 3.05587-1.32864 5.31456-3.58733 2.39155-2.25869 3.72019-5.31456 1.32864-3.18874 1.32864-6.6432 0-4.65024-2.52441-8.76903z"/></g></g></g></svg>