<svg height="148.50757" viewBox="0 0 193.6877 59.403027" width="484.21924" xmlns="http://www.w3.org/2000/svg"><g transform="translate(-398.85805 -2.907)"><g><g stroke="#000" stroke-linecap="round" stroke-linejoin="round" stroke-width=".5"><path d="m451.23 7.436-.17 54.47 4.11-3.481.17-54.471z"/><path d="m455.34 3.954h-11.432l-4.11 3.482h11.432z" fill="#fff"/></g><path d="m439.8 61.906h11.262l.17-54.47h-11.432z" fill="#fcb61e"/><path d="m451.13 39.939.101-32.503h-11.431v43.778z" fill="#f05522"/><path d="m451.2 16.743.029-9.308h-11.432v20.675z" fill="#d71549"/><path d="m439.89 61.906h11.163l.17-54.47h-11.433v54.361c0 .109 0 .109.098.109z" fill="none" stroke="#000" stroke-linecap="round" stroke-linejoin="round" stroke-width=".5"/></g><g><g stroke="#000" stroke-linejoin="round" stroke-width=".5"><path d="m492.59 8.246-.01 12.802 3.072-4.255.016-12.803zm-.004 40.014-.016 12.83 3.078-4.16.016-12.926z"/><path d="m495.67 3.99a31.893 31.893 0 0 0 -7.176-.833c-10.026.068-19.817 5.462-24.959 14.232 5.475-6.227 13.597-9.92 21.881-9.977 2.392 0 4.784.283 7.176.834zm-.004 40.015c-2.2 1.035-4.594 1.61-7.172 1.556-7.108-.147-15.527-6.412-15.82-15.139a14.942 14.942 0 0 1 1.508-6.414c-2.773 2.699-4.546 6.411-4.588 10.67.293 8.727 8.715 14.992 15.822 15.139 2.578.053 4.971-.52 7.172-1.557z" fill="#fff"/></g><path d="m492.57 61.185a29.35 29.35 0 0 1 -7.155.875c-14.163-.366-26.86-10.66-28.49-24.61a26.175 26.175 0 0 1 -.174-2.773c.45-16.186 14.325-27.168 28.664-27.266 2.392 0 4.783.283 7.175.834l-.015 12.803c-2.18-1.082-4.566-1.633-7.16-1.616-8.413.053-15.735 6.516-15.822 15.245.293 8.726 8.714 14.993 15.822 15.139 2.578.053 4.971-.522 7.172-1.558z" fill="#294912"/><path d="m480.84 61.594c-12.231-2.19-22.466-11.715-23.917-24.142a26.175 26.175 0 0 1 -.175-2.774c.45-16.186 14.325-27.168 28.664-27.266 2.392 0 4.784.283 7.176.834l-.015 12.803c-2.18-1.082-4.567-1.633-7.16-1.616-8.413.054-15.736 6.516-15.823 15.245.293 8.726 8.714 14.993 15.822 15.139 2.578.053 4.972-.522 7.172-1.557l-.002 1.567z" fill="#61a53c"/><path d="m464.51 53.029c-4.088-4.163-6.877-9.526-7.584-15.577a26.175 26.175 0 0 1 -.175-2.774c.451-16.186 14.325-27.168 28.664-27.266 2.392 0 4.784.283 7.176.834l-.015 12.803c-2.18-1.082-4.567-1.633-7.16-1.616-8.413.054-15.736 6.516-15.823 15.245.12 3.585 1.613 6.755 3.823 9.256z" fill="#fcb61e"/><path d="m456.75 34.678c.432-15.505 13.182-26.235 26.858-27.196z" fill="#f05522"/><path d="m492.57 61.185a29.35 29.35 0 0 1 -7.155.875c-14.163-.366-26.86-10.66-28.49-24.61a26.175 26.175 0 0 1 -.174-2.773c.45-16.186 14.325-27.168 28.664-27.266 2.392 0 4.783.283 7.175.834l-.015 12.803c-2.18-1.082-4.566-1.633-7.16-1.616-8.413.053-15.735 6.516-15.822 15.245.293 8.726 8.714 14.993 15.822 15.139 2.578.053 4.971-.522 7.172-1.558z" fill="none" stroke="#000" stroke-width=".5"/></g><g stroke="#000" stroke-linejoin="round" stroke-width=".5"><path d="m495.72 18.378h24.525l-3.079 4.256h-24.525z" fill="#fff"/><path d="m506.41 36.181 10.737 10.769 3.079-4.256-10.737-10.769z"/><path d="m509.49 31.925h-13.787l-3.078 4.256h13.787z" fill="#837d7f"/><path d="m492.65 22.633h24.525l-10.737 10.769h-13.787z" fill="#372f8f" stroke-linecap="round"/><path d="m492.62 46.95h24.525l-10.737-10.769h-13.787z" fill="#e53c32"/></g><g stroke="#000" stroke-width=".5"><g stroke-linejoin="round"><path d="m535.84 27.084 4.2-4c.002-3.244.004-5.386-.027-6.92 0 0-1.48-.06-1.84-.019-1.83 0-2.25 1.134-2.323 5.88z"/><path d="m551.72 27.081c-.216-16.465 1.23-18.394-12.826-18.394-5.626 0-8.745.354-10.491 2.056 0 0 1.907-2.251 4.676-4.366 1.812-1.385 4.87-1.687 10.063-1.687 14.056 0 12.61 2.53 12.826 18.995-.037 9.641 1.29 10.224-7.974 15.674 4.546-3.152 3.697-4.54 3.726-12.278zm4.5 30.78.001-8.213-4.247 3.197-.001 8.213zm-15.929-8.213-.244-4.413c0-.673.206-1.09 1.226-1.81-4.787 2.805-5.473 3.178-5.473 4.407l.244 5.013z"/></g><path d="m564.02 10.203c1.79-2.054 5.059-2.55 10.975-2.55 14.835 0 12.979 3.131 12.979 26.242 0 .374-.003.782 0 1.2 0 16.532.95 22.84-3.939 25.093 1.707-.708 4.214-3.23 6.052-5.179 2.825-3.055 2.134-9.718 2.134-23.81-.003-.419 0-.826 0-1.201 0-23.11 1.257-25.542-13.579-25.542-5.054 0-8.349.362-10.497 1.748z" stroke-linejoin="round"/><path d="m574.94 54.104c-4.35-.027-4.357-1.843-4.191-19.375-.031-17.374.016-19.386 4.263-19.375.229 0 .265-.013.47 0-.568 2.644-.502 7.338-.486 16.179-.16 16.965-.208 19.099 3.733 19.25-.534 2.85-1.571 3.31-3.789 3.322z"/><g fill="#fff"><g stroke-linejoin="round"><path d="m590.06 7.04c-1.85-2.163-5.237-2.585-11.417-2.585-5.054 0-8.171-.023-10.319 1.363l-4.304 4.385c1.791-2.054 5.06-2.55 10.975-2.55 6.402 0 9.695.582 11.371 3.102zm-54.01 45.805 4.247-3.197h15.93l-4.247 3.197z"/><path d="m549.95 10.925c-1.633-1.858-4.818-2.238-11.051-2.238-5.626 0-8.745.355-10.491 2.057 0 0 1.907-2.252 4.676-4.367 1.812-1.385 4.87-1.687 10.063-1.687 5.875 0 9.042.442 10.754 2.159z" stroke-linecap="round"/><path d="m526.07 27.09h9.725c.006-8.96.007-11.045 2.38-11.045.36-.042 1.695.05 1.695.05 2.33-.05 2.02 2.311 2.075 12.814.156 4.02-2.293 4.885-6.478 6.928-5.645 3.342-9.56 4.915-9.363 9.964l-.096 15.257h25.965l.002-8.213h-15.93l-.244-5.013c0-1.408.9-1.692 7.885-5.818 9.327-5.509 8-5.291 8.036-14.933-.216-16.465 1.23-18.394-12.826-18.394-13.088 0-12.613 1.919-12.824 18.26z" stroke-linecap="square"/></g><path d="m575 7.652c-14.868 0-13.012 3.135-13.012 26.242.003.42 0 .827 0 1.202 0 23.108-1.856 26.242 13.012 26.242 14.835 0 12.979-3.132 12.979-26.242-.003-.42 0-.827 0-1.202 0-23.11 1.856-26.242-12.979-26.242zm.01 7.702c4.248.01 4.248 1.936 4.309 19.375-.061 17.472-.061 19.351-4.381 19.374-4.35-.026-4.357-1.842-4.192-19.375-.03-17.374.016-19.386 4.264-19.375z"/></g></g><g><g stroke="#000" stroke-linecap="round" stroke-linejoin="round" stroke-width=".5"><path d="m415.13 3.954 5.79 42.559-4.592 3.482-5.789-42.56zm18.42 3.482-7.697 54.47 4.59-3.481 7.698-54.471z"/><path d="m410.54 7.436h-11.432l4.59-3.482h11.433zm27.6-3.482h-11.432l-4.59 3.482h11.431z" fill="#fff"/></g><path d="m399.11 7.436 7.697 54.47h19.045l7.698-54.47h-11.432l-5.788 42.558-5.789-42.559z" fill="#f05522"/><path d="m429.11 38.848 4.439-31.412h-11.432l-5.787 42.559-5.79-42.559h-11.43l7.61 53.851z" fill="#d71549"/><path d="m433.32 9.097.235-1.661h-11.432l-2.05 15.069zm-19.809 20.129-2.964-21.79h-11.432l4.466 31.605z" fill="#382e8f"/><path d="m399.11 7.475 7.697 54.432h19.045l7.698-54.471h-11.432l-5.788 42.559-5.789-42.56h-11.34c-.043 0-.043.083-.072.102z" fill="none" stroke="#000" stroke-linecap="round" stroke-linejoin="round" stroke-width=".5"/></g></g></svg>