<svg enable-background="new 0 0 566.929 142.564" height="142.564" viewBox="0 0 566.929 142.564" width="566.929" xmlns="http://www.w3.org/2000/svg"><g fill="#fe0016" transform="matrix(.89495817 0 0 .72709282 35.438492 22.262419)"><path d="m0 .016 29.727 142.532 29.573-142.532h-16.006l-13.567 80.108-13.72-80.108z"/><path d="m65.855.016h16.006v142.532h-16.006z"/><path d="m96.181 0v142.554h16.012v-73.655l22.266 73.653h14.762l-17.813-67.398c9.896-5.937 12.81-13.71 12.81-13.71v-45.283c-6.558-14.558-17.865-16.161-17.865-16.161zm16.012 14.51h16.012v49.536h-16.012z"/><path d="m149.24.016h47.867v14.481h-16.007v128.05h-16.006v-128.049h-15.854z"/><path d="m285.67 0-30.925 142.402v.15h15.862l3.353-19.213h22.366l3.202 19.213h16.012zm0 61.443 7.305 49.085h-15.813z"/><path d="m321.955.016h16.008v128.049h23.935v14.482h-39.941z"/><path d="m493.148.016h14.634l14.938 61.435 13.568-61.435h16.156l-22.408 83.842v58.689h-16.006v-58.688z"/><path d="m464.423.016c-18.193 0-24.041 16.146-24.041 16.146.15.229 0 107.181 0 110.23 2.412 17.326 24.041 16.156 24.041 16.156 24 0 23.992-16.156 23.992-16.156v-110.231c-6.205-16.944-23.992-16.145-23.992-16.145zm-8.031 16.145h16.013v111.881h-16.013z"/><path d="m203.356.016h16.16v126.374h16.159v-126.374h15.853v126.374s-5.183 16.158-23.323 16.158-24.849-16.158-24.849-16.158z"/><path d="m379.588 0v142.554h32.173c14.933-3.889 15.86-14.512 15.86-14.512s-.024-38.076-.024-47.918c-1.121-6.213-6.229-6.422-6.229-6.422s-.021-1.732 0-3.102c5.645-.432 6.254-6.555 6.254-6.555s-.023-38.039 0-47.885c-2.443-11.627-15.861-16.16-15.861-16.16zm16.061 16.26h16.11v47.785h-16.11zm-.05 62.247h16.16v49.535h-16.16z"/><path d="m539.72 128.066h11.125v1.656h-4.725v12.826h-1.602v-12.826h-4.801v-1.656z"/><path d="m552.447 142.548v-14.482h1.602l5.717 12.92 5.486-12.92h1.678v14.482h-1.678v-11.209l-4.73 11.209h-1.617l-4.854-11.209v11.209z"/></g></svg>