<svg height="161.50385" viewBox="0 0 598.39426 145.35346" width="664.88251" xmlns="http://www.w3.org/2000/svg"><g transform="translate(-1.21833 .269816)"><text fill="#ef00eb" font-family="TrasksHand" font-size="1.8" stroke="#0105ff" stroke-width="2.25" x="284.46072" y="9.249956"><tspan fill="#fff" fill-opacity=".5" font-size="1.8" stroke="none" stroke-width="2.25" x="284.46072" y="9.249956">John Loreth 2022</tspan></text><g fill="#00499b" stroke="#fff" stroke-linecap="round" stroke-linejoin="round"><g stroke-width="7.5"><path d="m105.27023 141.31324c11.56695.60769 11.01643-11.63496 8.32214-17.53103-5.75913-8.02564-9.43076-16.55952-6.97707-28.666879 4.84448-19.101659 11.02487-37.490028 17.5052-55.718251 2.62382-5.180356 8.06416-10.967857 12.93975-15.350853 4.44083-4.501649 1.44441-17.7957069-11.6367-15.2460231-7.2406 2.3461251-13.62385 7.4957121-22.93462 3.0725001-9.700391-4.8599262-21.387763 3.065172-12.645518 13.843217 8.459187 6.457734 8.696277 9.66572 8.118046 20.118875l-11.760784 52.249218-18.279528-55.319186c-1.919558-16.680868 12.701484-16.667825 8.279596-29.348531-3.605703-5.2587797-6.171213-5.6291289-11.571921-4.5350674-7.188831 1.4562944-26.192727 6.0634314-37.74849 3.6050654-4.256272-.905476-8.992148-1.179372-13.254372-1.615812-12.0269753 4.558432-9.5252748 14.897371-4.4231446 20.375128 4.5390956 2.628771 7.4661226 6.249175 9.5654166 10.378741l27.176966 77.322478c-10.158521 4.60816-13.289845 25.43776 6.541535 21.83264 13.113077-2.96097 22.217674-5.98795 52.783498.53377z" opacity=".98"/><path d="m196.47138 54.817314c-.0337-12.56946 7.70606-19.589949 14.60286-29.530338 6.86017-6.694619.0407-21.2474641-10.43294-17.2241317-17.3036 8.3827957-38.49207 4.1510507-49.13772.209155-11.25392-1.1424641-18.51407 11.0674657-12.48395 18.6644137 7.90946 7.33684 11.78296 12.935401 12.86277 23.193908l-.17979 56.947859c.49175 5.11777-3.6657 10.76741-10.3524 16.24824-4.43577 4.08228-6.93932 17.5062 8.1773 16.30447 15.10808-5.74687 30.7176-8.90631 52.64929-1.59272 7.57814.1813 11.69925-6.2048 8.58193-13.10333-6.56397-10.50328-12.45734-15.66693-13.72269-24.54557z" opacity=".98"/><path d="m235.03976 79.987287c-12.10619-.369648-21.89678 5.921086-27.54296 13.389139-14.16469 30.099274 26.11933 47.196884 47.42446 47.531894 84.7181 4.28639 92.33822-70.565467 47.23611-86.594034-22.9892-4.980619-57.66076-15.973218-56.49009-17.678624-3.38029-5.772042-6.62432-13.705828 8.74262-11.643943 4.17036.616847 9.50955 7.24401 15.69046 17.614167 13.22388 12.534892 29.29678 5.550533 29.29678 5.550533 19.35153-10.742277 23.31325-38.7178081 9.19742-41.3976611-6.03906 5.0434141-14.78399 11.4499771-30.19418 4.9661151-45.86852-24.458225-103.0847 24.906404-57.30084 63.162909 21.69526 8.480752 47.79975 17.003439 57.71193 20.868569 18.6191 18.617409-24.79689 42.120939-33.37123 13.373559-1.96066-5.32883 14.15344-12.799647 9.89499-20.330963" opacity=".98"/><path d="m401.75359 5.6932665c-99.36464-11.0055228-101.22062 133.9170235-.15598 135.2771235 74.02915-5.26147 67.06062-78.347661 26.3682-77.819292-21.80625 1.922055-40.62598 24.043889-30.48444 32.286321 7.64331 4.515366 5.00215 1.439786 11.89622-.263119 10.94898 3.799409 5.00823 24.71107-9.12708 24.08753-28.93725.0309-27.74797-85.000215-12.04652-94.399658 12.09297-4.469796 20.49347 28.091053 39.83222 26.838077 12.44867-.740308 15.99535-5.797697 20.58023-10.643097 4.02137-8.788077 9.30879-17.483103 7.95485-27.533389.57891-9.4393438-8.01046-11.6121979-13.79397-7.332171-13.08542 12.589155-14.70133 4.347253-41.02373-.4983255z" opacity=".98"/></g><path d="m581.54883 4.1660156a79.166675 76.388897 0 0 0 -79.16602 76.3886724 79.166675 76.388897 0 0 0 79.16602 76.390622 79.166675 76.388897 0 0 0 79.16797-76.390622 79.166675 76.388897 0 0 0 -79.16797-76.3886724zm.14648 23.4316404c9.88386 0 17.83985 7.955983 17.83985 17.839844v68.70898c0 9.88387-7.95599 17.83985-17.83985 17.83985s-17.84179-7.95598-17.84179-17.83985v-68.70898c0-9.883861 7.95793-17.839844 17.84179-17.839844z" opacity=".98" stroke-width="8.33332" transform="matrix(.9 0 0 .9 1.21833 -.269816)"/></g></g></svg>