<svg height="170.48566" viewBox="0 0 595.30941 119.33996" width="850.44202" xmlns="http://www.w3.org/2000/svg"><g transform="translate(-2.787025 -3.036637)"><text fill="#ef00eb" font-family="TrasksHand" font-size="1.4" stroke="#0105ff" stroke-width="1.75" x="363.32236" y="97.569992"><tspan fill="#fafafa" fill-opacity=".4" font-size="1.4" stroke="none" stroke-width="1.75" x="363.32236" y="97.569992">John Loreth 2022</tspan></text><g stroke="#fff" stroke-linejoin="round"><g fill="#000009"><path d="m281.33166 55.267913q-2.74182 0-5.17208 1.059342-2.36794.997027-4.17505 2.741824-1.80711 1.682484-2.86645 3.925795-1.05934 2.243311-1.05934 4.673565 0 3.053396 1.05934 5.608278 1.05934 2.554883 2.86645 4.424309 1.80711 1.869426 4.17505 2.928767 2.43026 1.059342 5.17208 1.059342 2.74183 0 5.10977-1.059342 2.43025-1.059341 4.23736-2.928767 1.80711-1.869426 2.86646-4.424309 1.05934-2.554882 1.05934-5.608278 0-2.430254-1.05934-4.673565-1.05935-2.243311-2.86646-3.925795-1.80711-1.744797-4.23736-2.741824-2.36794-1.059342-5.10977-1.059342zm0-11.839698q5.04745 0 9.72102 1.807112 4.73588 1.744797 8.3501 4.985136 3.61422 3.178024 5.73291 7.664647 2.18099 4.424308 2.18099 9.721015 0 5.732907-1.93174 10.468786-1.93174 4.735879-5.42133 8.225474-3.42728 3.427282-8.22548 5.359022-4.73588 1.869426-10.40647 1.869426-5.67059 0-10.46878-1.869426-4.73588-1.93174-8.22548-5.359022-3.42728-3.489595-5.35902-8.225474-1.93174-4.735879-1.93174-10.468786 0-5.296707 2.11868-9.721015 2.181-4.486623 5.79522-7.664647 3.61423-3.240339 8.28779-4.985136 4.73588-1.807112 9.78333-1.807112z" stroke-width="3.8" transform="scale(.91966698 1.0873501)"/><path d="m182.22564 92.971542h-12.34647v-47.496118h12.34647z" stroke-width="3.84275" transform="matrix(.90910081 0 0 1.0756479 3.748649 0)"/><path d="m154.16132 71.88694 11.14929-27.903695h12.97705l-19.61788 45.937524h-9.26062l-19.31326-45.937524h12.97705z" stroke-width="3.8" transform="scale(.89916592 1.1121418)"/><path d="m204.21056 79.81134h2.68084q2.68085 0 5.05705-.731139 2.43714-.792068 4.20406-2.315276 1.82784-1.584135 2.86363-4.021267 1.09671-2.437132 1.09671-5.788189 0-3.107343-.97486-5.483547-.97485-2.376203-2.74177-4.021267-1.70599-1.645064-4.14313-2.498061-2.3762-.852996-5.23983-.852996h-2.8027zm-11.94195-35.825839h16.93807q4.81334 0 9.01739 1.76692 4.26498 1.766921 7.43325 4.874264 3.16827 3.107343 4.99612 7.311396 1.88878 4.204053 1.88878 9.017388 0 4.874264-1.88878 9.078317-1.82785 4.143124-4.99612 7.250467-3.16827 3.107344-7.43325 4.874264-4.26498 1.766921-9.01739 1.766921h-16.93807z" stroke-width="3.8" transform="scale(.89921257 1.1120841)"/><path d="m232.30513 57.549022v5.808526h14.32369v11.237591h-14.32369v8.738921l15.10145.18058v12.144486h-27.80482v-48.869079h27.80482v10.758975z" stroke-width="3.90395" transform="matrix(.90628543 0 0 1.0454272 11.037484 0)"/></g><g fill="#000200" stroke-opacity=".928083"><path d="m348.22985 44.98607h14.64384l5.439 12.774411 5.6095-12.774411h14.64384l-12.97395 24.427167v22.557741h-14.38828v-22.557741z" stroke-width="3.99999" transform="scale(.91966699 1.0873501)"/><path d="m488.95287 81.659401h-15.45203v-31.897005h-7.50551v-9.820082h28.7704v9.820082h-5.81286z" stroke-width="3.99999" transform="scale(.81655604 1.2246557)"/><g stroke-width="4" transform="matrix(.91966699 0 0 1.0873501 60 0)"><path d="m342.04818 60.947591c-6.73377-8.430617-12.53219-5.664177-4.70744-.178375 3.23967 2.834844 3.27616 2.742836 7.08279 5.788936 5.97828 5.233499 6.80906 8.695185 6.95707 12.1136-.2224 12.692231-14.23791 16.826244-25.34689 11.923034-2.76933-.948116-8.35587-7.055917-8.81656-9.223325 3.0595-2.389654 7.02778-4.96074 10.14894-6.426117 3.51895 3.050364 3.71333 3.012063 6.17494 5.300589 2.36536 1.662459 6.55679-2.26371 4.35738-3.66681-7.02764-5.674239-14.93966-10.593966-17.20372-16.430173-3.01665-12.417575 11.49695-20.381426 21.56392-15.583501 2.85397.814326 9.94008 7.670522 8.57849 8.756405-2.22176 2.785996-5.87769 5.273225-8.78892 7.625737z"/><path d="m276.80718 60.947591c-6.73377-8.430617-12.53219-5.664177-4.70744-.178375 3.23967 2.834844 3.27616 2.742836 7.08279 5.788936 5.97828 5.233499 6.80906 8.695185 6.95707 12.1136-.2224 12.692231-14.23791 16.826244-25.34689 11.923034-2.76933-.948116-8.35587-7.055917-8.81656-9.223325 3.0595-2.389654 7.02778-4.96074 10.14894-6.426117 3.51895 3.050364 3.71333 3.012063 6.17494 5.300589 2.36536 1.662459 6.55679-2.26371 4.35738-3.66681-7.02764-5.674239-14.93966-10.593966-17.20372-16.430173-3.01665-12.417575 11.49695-20.381426 21.56392-15.583501 2.85397.814326 9.94008 7.670522 8.57849 8.756405-2.22176 2.785996-5.87769 5.273225-8.78892 7.625737z"/></g><path d="m232.30513 57.549022v5.808526h14.32369v11.237591h-14.32369v8.738921l15.10145.18058v12.144486h-27.80482v-48.869079h27.80482v10.758975z" stroke-width="3.86269" transform="matrix(1.0257571 0 0 1.0454272 180.37946 0)"/><path d="m474.50894 44.98607h12.02664l9.53408 25.112623 8.93434-25.112623h12.15127l8.26437 46.984908h-13.26849l-2.37237-22.806759c-3.1023 8.773552-5.21932 14.100734-8.11868 22.806759h-10.34506l-8.58062-21.799913c-1.2427 8.773346-2.14806 12.833831-3.15159 21.799913h-13.05011z" stroke-width="3.99999" transform="scale(.91966699 1.0873501)"/></g><path d="m549.77756 64.383032c-9.49376-9.337089-16.59469-8.142125-21.84322-1.696604-3.68405 4.372076-4.16588 11.041779-1.57519 16.061544 2.50308 4.695731 8.09074 7.121173 13.2718 6.433901 3.67048-.3949 7.55272-4.598122 9.91246-7.423561l8.44225 8.719718c-4.91752 8.214124-17.76948 11.640484-22.40861 11.107709-8.84703-.623639-17.23781-6.014165-21.45879-13.811234-4.48666-9.074596-3.37331-20.834766 3.30111-28.57253 6.39766-7.679206 17.37585-11.209742 27.02285-8.455176 4.31804 1.30664 14.19977 8.451495 14.21463 10.377855z" stroke-width="3.99999" transform="scale(.96362882 1.037744)"/><path d="m608.5126 55.267913q-2.74182 0-5.17208 1.059342-2.36794.997027-4.17505 2.741824-1.80711 1.682484-2.86645 3.925795-1.05934 2.243311-1.05934 4.673565 0 3.053396 1.05934 5.608278 1.05934 2.554883 2.86645 4.424309 1.80711 1.869426 4.17505 2.928767 2.43026 1.059342 5.17208 1.059342 2.74183 0 5.10977-1.059342 2.43025-1.059341 4.23736-2.928767 1.80711-1.869426 2.86645-4.424309 1.05935-2.554882 1.05935-5.608278 0-2.430254-1.05935-4.673565-1.05934-2.243311-2.86645-3.925795-1.80711-1.744797-4.23736-2.741824-2.36794-1.059342-5.10977-1.059342zm0-11.839698q5.04745 0 9.72102 1.807112 4.73588 1.744797 8.3501 4.985136 3.61422 3.178024 5.73291 7.664647 2.18099 4.424308 2.18099 9.721015 0 5.732907-1.93174 10.468786-1.93174 4.735879-5.42133 8.225474-3.42728 3.427282-8.22548 5.359022-4.73588 1.869426-10.40647 1.869426-5.67059 0-10.46878-1.869426-4.73588-1.93174-8.22548-5.359022-3.42728-3.489595-5.35902-8.225474-1.93174-4.735879-1.93174-10.468786 0-5.296707 2.11868-9.721015 2.181-4.486623 5.79522-7.664647 3.61423-3.240339 8.28779-4.985136 4.73588-1.807112 9.78333-1.807112z" stroke-width="3.99999" transform="scale(.91966699 1.0873501)"/><path d="m596.59644 95.04319a6 6 0 0 1 -6 6 6 6 0 0 1 -6-6 6 6 0 0 1 6-6 6 6 0 0 1 6 6z" stroke-linecap="round" stroke-width="3"/></g><g stroke-linejoin="round"><path d="m60.823358 90.992684 30.391522-61.839437-18.93351.56936 40.34883-24.6860263 23.10309 24.7557243-16.62786-.993551-44.013298 91.577846h-32.653868l-36.8683261-74.749806 33.5561171-.089781z" fill="#fff" stroke="#fff" stroke-width="4"/><g fill="#009bfd" stroke="#010000" stroke-linecap="round"><path d="m12.162726 48.278347 24.191799-.119451 22.386666 45.72226-12.082951 23.169774z" stroke-width="2"/><path d="m85.815374 26.175823 26.039076-16.7113796 15.16231 16.5944286-9.86784-.422545-44.991188 90.442713h-19.45635l44.126688-90.132297z" stroke-width="2.00002"/></g></g><g fill="#fff"><path d="m6.3588296 39.471736q-3.7693195 0-3.7693195-3.081537 0-3.081537 3.7693195-3.081537h3.9378934q.546181 0 .937273.391092.391092.38435.391092.937273 0 .552923-.391092.944016-.391092.391092-.937273.391092h-4.1401824q-.7484696 0-.7484696.418064 0 .418064.7619555.418064h1.8206016q3.7693199 0 3.7693199 3.081537 0 3.081536-3.7693199 3.081536h-4.0727531q-.5461805 0-.9372727-.384349-.3910922-.391092-.3910922-.944015 0-.552924.3910922-.944016.3910922-.391092.9372727-.391092h4.2750421q.7484695 0 .7484695-.418064 0-.418064-.7619554-.418064z" transform="scale(1.0762749 .92913067)"/><path d="m15.19811 41.730672c-.924205-1.373012-1.856226-2.741908-2.775514-4.117487-.376305-.685523.07157-1.628671.835332-1.783751.448267-.16573.798807.194654 1.010001.546753.325894.514835.672922 1.014196 1.064172 1.481795.372793.470742.745585.941485 1.118378 1.412227.80647-1.024115 1.599069-2.059808 2.414322-3.076593.510537-.560242 1.510595-.47769 1.924016.159017.348947.485926.273991 1.191653-.145126 1.611781-.982389 1.253311-1.964779 2.506622-2.947168 3.759933-.008 1.007435.01637 2.01632-.0129 3.022804-.08909.777916-1.001794 1.293079-1.715436.971495-.527853-.212829-.833253-.790092-.77008-1.346517 0-.880486 0-1.760971 0-2.641457z" fill="#fff" transform="scale(1.1473821 .87154925)"/><path d="m6.3588296 39.471736q-3.7693195 0-3.7693195-3.081537 0-3.081537 3.7693195-3.081537h3.9378934q.546181 0 .937273.391092.391092.38435.391092.937273 0 .552923-.391092.944016-.391092.391092-.937273.391092h-4.1401824q-.7484696 0-.7484696.418064 0 .418064.7619555.418064h1.8206016q3.7693199 0 3.7693199 3.081537 0 3.081536-3.7693199 3.081536h-4.0727531q-.5461805 0-.9372727-.384349-.3910922-.391092-.3910922-.944015 0-.552924.3910922-.944016.3910922-.391092.9372727-.391092h4.2750421q.7484695 0 .7484695-.418064 0-.418064-.7619554-.418064z" transform="scale(1.0762749 .92913067)"/><path d="m27.206092 39.471736q-3.769319 0-3.769319-3.081537 0-3.081537 3.769319-3.081537h3.937894q.54618 0 .937272.391092.391093.38435.391093.937273 0 .552923-.391093.944016-.391092.391092-.937272.391092h-4.140183q-.74847 0-.74847.418064 0 .418064.761956.418064h1.820601q3.76932 0 3.76932 3.081537 0 3.081536-3.76932 3.081536h-4.072753q-.54618 0-.937272-.384349-.391092-.391092-.391092-.944015 0-.552924.391092-.944016.391092-.391092.937272-.391092h4.275043q.748469 0 .748469-.418064 0-.418064-.761955-.418064z" transform="scale(1.0762749 .92913066)"/><path d="m39.184803 35.972135v5.664094q0 .552923-.391092.944015-.391092.391092-.944016.391092-.54618 0-.937272-.391092-.391092-.391092-.391092-.944015v-5.664094h-2.164493q-.552924 0-.944016-.391092-.391092-.391093-.391092-.944016 0-.54618.391092-.937273.391092-.391092.944016-.391092h6.999201q.552924 0 .937273.391092.391092.391093.391092.937273 0 .552923-.391092.944016-.384349.391092-.937273.391092z" transform="scale(1.0762749 .92913066)"/><g fill="#fff"><path d="m47.536321 39.495386h4.240263c.361184 0 .669512.127736.924984.383208s.383208.561598.383208.918377c0 .361185-.127736.669513-.383208.924985s-.5638.383208-.924984.383208h-5.926507c-.361185 0-.669513-.127736-.924985-.383208s-.383208-.5638-.383208-.924985v-6.858098c0-.361185.127736-.667311.383208-.918378.255472-.255471.5638-.383207.924985-.383207h5.926507c.361184 0 .669512.127736.924984.383207.255472.255472.383208.561598.383208.918378 0 .361184-.127736.669512-.383208.924984s-.5638.383208-.924984.383208h-4.240263v.819272h3.7117c.361185 0 .669513.127736.924985.383208.255471.255471.383207.561597.383207.918377 0 .361185-.127736.669513-.383207.924984-.255472.255472-.5638.383208-.924985.383208h-3.7117z" transform="scale(1.0545804 .9482444)"/><path d="m62.399572 40.000933q-.629253 0-1.065877-.622832l-2.125334-2.908689v3.178369q0 .526518-.372415.898932-.372415.372415-.892511.372415-.526518 0-.898933-.372415-.372415-.372414-.372415-.898932v-6.664943q0-.526518.372415-.892512.372415-.372415.898933-.372415.47515 0 .860406.211891.385257.211892.648516.571465l2.947215 4.032355 2.940794-4.032355q.263258-.359573.648515-.571465.385257-.211891.860407-.211891.526518 0 .898933.372415.372415.365994.372415.892512v6.664943q0 .526518-.372415.898932-.372415.372415-.898933.372415-.520096 0-.892511-.372415-.372415-.372414-.372415-.898932v-3.178369l-2.125334 2.908689q-.436624.622832-1.059456.622832z" transform="scale(1.0248746 .97572911)"/></g></g></g></svg>