<svg enable-background="new 0 0 410 150" height="150" viewBox="0 0 410 150" width="410" xmlns="http://www.w3.org/2000/svg"><path d="m218.76897 82.699636-11.36842-29.158295-16.66718 26.57646h-10.44941l23.27746-38.04036-2.61331-7.518137h-9.0637v-8.958356h15.51526l17.82087 45.861266 7.83492-2.583028 2.61096 8.88415z" fill="#f37b21" stroke-width=".296221"/><path d="m252.26617 55.721777c0 25.502184-20.42446 46.169683-45.62149 46.169683s-45.62208-20.667201-45.62208-46.169683c0-25.499212 20.42446-46.1693947 45.62208-46.1693947 25.19674 0 45.62149 20.6701827 45.62149 46.1693947z" fill="none" stroke="#f37b21" stroke-width="10.071527"/><g fill="#f37b21" transform="matrix(.6395999 0 0 .63257282 6.589978 113.34019)"><path d="m28.26.48v42.72h-7.44v-18.84h-13.2v18.84h-7.62v-42.72h7.62v16.86h13.2v-16.86z"/><path d="m116.16 41.7-13.2 3.9-8.88-23.04-13.02 21h-8.16l18.18-30.06-2.04-5.94h-7.08v-7.08h12.12l13.92 36.24 6.12-2.04z"/><path d="m170.7 36.24h21.119v6.9h-28.62v-42.6h6.9.601z"/><path d="m263.639.54h.6v7.02h-15.36v9.96h12.421v6.9h-12.421v18.78h-7.619v-42.66z"/><path d="m308.579 17.46h20.04v7.26h-20.04z"/><path d="m368.819 36.24h21.119v6.9h-28.619v-42.6h6.899.601z"/><path d="m448.378.54h6.779.66v42.72h-7.439z"/><path d="m539.757.54h.6v7.02h-15.36v9.96h12.421v6.9h-12.421v18.78h-7.619v-42.66z"/><path d="m616.257 36.3v6.9h-26.88v-42.66h25.5.6v6.96h-18.6v9.9h16.14v7.02h-16.14v11.88z"/></g></svg>