<svg enable-background="new 0 0 566.929 147.072" height="147.072" viewBox="0 0 566.929 147.072" width="566.929" xmlns="http://www.w3.org/2000/svg" xmlns:xlink="http://www.w3.org/1999/xlink"><linearGradient id="a" gradientTransform="matrix(176.4904 -217.9475 -217.9475 -176.4904 15317.1836 -13598.9795)" gradientUnits="userSpaceOnUse" x1="-72.1655" x2="-71.9121" y1="11.666" y2="11.666"><stop offset="0" stop-color="#d3dc19"/><stop offset=".5" stop-color="#8db635"/><stop offset="1" stop-color="#66bb46"/></linearGradient><linearGradient id="b" gradientTransform="matrix(216.1625 320.474 320.474 -216.1625 11475.5039 25019.4883)" gradientUnits="userSpaceOnUse" x1="-70.2363" x2="-69.9819" y1="11.6709" y2="11.6709"><stop offset="0" stop-color="#a0a2a4"/><stop offset="1" stop-color="#fafafa"/></linearGradient><linearGradient id="c" gradientTransform="matrix(345.5038 -233.0453 -233.0453 -345.5038 27459.5742 -12375.5811)" gradientUnits="userSpaceOnUse" x1="-71.2783" x2="-71.2783" y1="11.9321" y2="12.021"><stop offset="0" stop-color="#aed037"/><stop offset=".4213" stop-color="#8db635"/><stop offset="1" stop-color="#3e7223"/></linearGradient><linearGradient id="d" gradientTransform="matrix(279.743 -484.5291 -484.5291 -279.743 25872.293 -31038.457)" gradientUnits="userSpaceOnUse" x1="-71.3936" x2="-71.1397" y1="12.1602" y2="12.1602"><stop offset="0" stop-color="#9b9da0"/><stop offset="1" stop-color="#cfd1d3"/></linearGradient><linearGradient id="e" gradientTransform="matrix(-193.057 -186.4329 -186.4329 193.057 -11032.1406 -15943.292)" gradientUnits="userSpaceOnUse" x1="-71.3979" x2="-71.1452" y1="13.9648" y2="13.9648"><stop offset=".3034" stop-color="#c9da2c"/><stop offset=".608" stop-color="#8db635"/><stop offset="1" stop-color="#347428"/></linearGradient><linearGradient id="f" gradientTransform="matrix(30.7887 -250.7544 -250.7544 -30.7887 5675.1831 -17838.5156)" gradientUnits="userSpaceOnUse" x1="-72.9404" x2="-72.687" y1="13.1611" y2="13.1611"><stop offset="0" stop-color="#ced0d1"/><stop offset="1" stop-color="#a0a2a5"/></linearGradient><linearGradient id="g" gradientTransform="matrix(-86.8691 -492.6593 -492.6593 86.8691 383.1831 -36152.1836)" gradientUnits="userSpaceOnUse" x1="-71.3911" x2="-71.1375" y1="13.042" y2="13.042"><stop offset="0" stop-color="#9b9d9f"/><stop offset="1" stop-color="#fafafa"/></linearGradient><linearGradient id="h" gradientTransform="matrix(89.6957 -192.3532 -192.3532 -89.6957 9179.418 -12648.8506)" gradientUnits="userSpaceOnUse" x1="-72.5332" x2="-72.2828" y1="13.1992" y2="13.1992"><stop offset="0" stop-color="#c7d926"/><stop offset=".4157" stop-color="#8db635"/><stop offset="1" stop-color="#3a7d2c"/></linearGradient><g fill="#75a22e"><path d="m403.119 91.974c-3.527-5.67-5.602-12.546-5.602-19.962 0-7.417 2.074-14.294 5.602-19.962h51.986c3.529 5.668 5.604 12.545 5.604 19.962s-2.074 14.292-5.604 19.962zm57.541-50.595v-.019h-.014-16.109-30.848-16.108-.015v.018c-6.441 8.19-10.352 18.9-10.352 30.634 0 11.731 3.91 22.444 10.352 30.632v.018h.015 16.108 30.848 16.109.014v-.018c6.441-8.189 10.35-18.9 10.35-30.632-.001-11.734-3.909-22.444-10.35-30.633"/><path d="m307.553 91.974c-2.665-4.281-4.497-9.248-5.239-14.617h62.459c-.738 5.369-2.57 10.336-5.237 14.617zm0-39.925h51.983c2.666 4.281 4.499 9.249 5.238 14.616h-62.459c.741-5.367 2.573-10.334 5.238-14.616m63.214 17.481 4.455-2.27c-.904-9.863-4.57-18.813-10.129-25.881v-.019h-.016-16.109-30.846-16.111-.014v.018c-5.448 6.926-9.076 15.663-10.068 25.286h-9.916v10.691h9.916c.992 9.626 4.619 18.36 10.068 25.288v.018h.014 16.111 30.846 16.109.016v-.02c5.559-7.068 9.225-16.02 10.129-25.88l-4.455-2.271z"/><path d="m566.929 41.362h-16.033l-29.588 24.116-29.586-24.116h-16.035l37.604 30.65-37.604 30.649h16.035l29.586-24.115 29.588 24.115h16.033l-37.605-30.649z"/><path d="m286.207 41.362h-16.033l-29.586 24.116-29.588-24.116h-16.034l37.603 30.65-37.603 30.649h16.034l29.587-24.115 29.586 24.115h16.033l-37.603-30.649z"/></g><path d="m70.465 56.721v39.61c7.81-6.43 15.635-13.219 23.103-20.229v-34.202s-41.962-13.809-68.457-30.276c10.913 12.263 28.957 31.638 45.354 45.097" fill="url(#a)"/><path d="m25.111 11.624c26.494 16.468 68.457 30.276 68.457 30.276v-4.56s-54.576-17.961-78.542-37.34c-.001 0 3.894 4.668 10.085 11.624" fill="url(#b)"/><path d="m16.797 136.14c13.526-9.11 33.549-23.244 53.67-39.809v-32.202s-27.402 41.054-53.67 72.011" fill="url(#c)"/><path d="m.012 147.073s6.526-4.021 16.786-10.934c26.268-30.957 53.67-72.009 53.67-72.009v-7.409c-.001 0-40.715 60.996-70.456 90.352" fill="url(#d)"/><path d="m93.52 41.9v34.201c7.465 7.011 15.289 13.8 23.1 20.229v-39.61c16.397-13.459 34.44-32.834 45.354-45.097-26.493 16.469-68.454 30.277-68.454 30.277" fill="url(#e)"/><path d="m93.52 37.34v4.56s41.961-13.809 68.454-30.276c6.191-6.956 10.087-11.624 10.087-11.624-23.966 19.379-78.541 37.34-78.541 37.34" fill="url(#f)"/><path d="m116.622 64.129s27.404 41.054 53.671 72.009c10.256 6.912 16.787 10.934 16.787 10.934-29.743-29.354-70.457-90.352-70.457-90.352z" fill="url(#g)"/><path d="m116.622 96.331c20.124 16.564 40.142 30.698 53.671 39.809-26.267-30.957-53.671-72.009-53.671-72.009z" fill="url(#h)"/></svg>