<svg height="159.73653" viewBox="0 0 337.17541 70.073219" width="768.61359" xmlns="http://www.w3.org/2000/svg" xmlns:xlink="http://www.w3.org/1999/xlink"><linearGradient id="a"><stop offset=".011" stop-color="#fff"/><stop offset=".32" stop-color="#fffffe"/><stop offset=".431" stop-color="#fdfdf9"/><stop offset=".51" stop-color="#fafbf1"/><stop offset=".574" stop-color="#f5f8e5"/><stop offset=".629" stop-color="#eff3d4"/><stop offset=".678" stop-color="#e8eebe"/><stop offset=".722" stop-color="#dfe7a2"/><stop offset=".762" stop-color="#d5e080"/><stop offset=".798" stop-color="#c9d756"/><stop offset=".832" stop-color="#bacf20"/><stop offset=".891" stop-color="#97c129"/><stop offset=".962" stop-color="#6bb42f"/><stop offset="1" stop-color="#58ae31"/></linearGradient><radialGradient id="b" cx="268.89801" cy="327.50601" gradientTransform="matrix(1.1328 0 0 -1.083 18.92 500.022)" gradientUnits="userSpaceOnUse" r="96.351997" xlink:href="#a"/><radialGradient id="c" cx="-909.58899" cy="327.50601" gradientTransform="matrix(-1.1328 0 0 -1.083 -564.612 500.022)" gradientUnits="userSpaceOnUse" r="96.351997" xlink:href="#a"/><linearGradient id="d"><stop offset=".011" stop-color="#fff"/><stop offset=".326" stop-color="#fffffe"/><stop offset=".44" stop-color="#fdfdf9"/><stop offset=".52" stop-color="#fafbf1"/><stop offset=".586" stop-color="#f5f8e5"/><stop offset=".642" stop-color="#eff3d4"/><stop offset=".692" stop-color="#e8eebe"/><stop offset=".737" stop-color="#dfe7a2"/><stop offset=".778" stop-color="#d5e080"/><stop offset=".815" stop-color="#c9d756"/><stop offset=".848" stop-color="#bacf20"/><stop offset=".855" stop-color="#b4cc22"/><stop offset=".896" stop-color="#91bf2a"/><stop offset=".935" stop-color="#74b62e"/><stop offset=".971" stop-color="#5fb031"/><stop offset="1" stop-color="#58ae31"/></linearGradient><radialGradient id="e" cx="-485.358" cy="262.327" gradientTransform="matrix(-.9659 -.7017 -.8867 1.1157 151.95 -433.33)" gradientUnits="userSpaceOnUse" r="86.042" xlink:href="#d"/><radialGradient id="f" cx="203.369" cy="695.37201" gradientTransform="matrix(.9659 -.7017 .8867 1.1157 -411.803 -433.33)" gradientUnits="userSpaceOnUse" r="86.041" xlink:href="#d"/><radialGradient id="g" cx="343.52899" cy="359.513" gradientTransform="matrix(1.0751 0 0 -1.0785 11.64 499.367)" gradientUnits="userSpaceOnUse" r="250.826"><stop offset=".028" stop-color="#fff"/><stop offset=".105" stop-color="#e3e2e3"/><stop offset=".259" stop-color="#b3b1b2"/><stop offset=".377" stop-color="#969696"/><stop offset=".444" stop-color="#8c8c8d"/><stop offset=".518" stop-color="#919191"/><stop offset=".606" stop-color="#9f9f9f"/><stop offset=".7" stop-color="#b8b7b7"/><stop offset=".798" stop-color="#dcdcdc"/><stop offset=".809" stop-color="#e1e1e1"/></radialGradient><g stroke-width="4.35687" transform="matrix(.2295225 0 0 .2295225 -55.613302 0)"><path d="m300.3 32.9c25.4-7.6 62.1 2.1 95.2 24.2l.4 153.5c-12.1-2.4-24.8-7.5-36.6-14.2-12.1-6.9-24.1-15.9-36.6-26.5l31.8-81.7c-16.5-10.7-80.9-28.9-72.6-38.2 8.4-9.2 18.4-17.1 18.4-17.1z" fill="url(#b)"/><path d="m489 32.9c-25.4-7.6-62.1 2.1-95.2 24.2l-.4 153.5c12.1-2.4 24.8-7.5 36.6-14.2 12.1-6.9 24.1-15.9 36.6-26.5l-31.8-81.7c16.5-10.7 80.9-28.9 72.6-38.2-8.4-9.2-18.4-17.1-18.4-17.1z" fill="url(#c)"/><path d="m300.2 272.4 86.4-98.1-32.1-86c-13.5 11.2-26.8 24.8-39.2 40.4-30.4 38.3-56.9 92.2-47.7 108.1s32.6 35.6 32.6 35.6z" fill="url(#e)"/><path d="m489.2 272.3-86.4-98.1 32.1-86c13.5 11.2 26.8 24.8 39.2 40.4 30.4 38.3 56.9 92.2 47.7 108.1s-32.6 35.6-32.6 35.6z" fill="url(#f)"/><path d="m275.6 248c-20.8-26.1-33.3-59.2-33.3-95.2 0-40.3 15.5-76.9 41-104.1 0 0 26.6 11.8 71.4 39.5-100 103.6-79.1 159.8-79.1 159.8zm119.1-189.3c0-.1-.1-.1 0 0 60.9-44.1 98.8-22 98.8-22-26.6-22.9-61.1-36.7-98.9-36.7s-72.3 13.8-98.9 36.7c0 0 37.9-22.7 98.9 21.9m-110 199.4c27.7 29.1 66.7 47.3 110 47.3 43.4 0 82.5-18.2 110.2-47.5 0 0-16.1-66.6-110.7-136.6-84.8 62.7-109.5 136.8-109.5 136.8zm229.2-10c20.8-26.1 33.3-59.2 33.3-95.2 0-40.3-15.6-76.9-41-104.1 0 0-26.6 11.8-71.4 39.5 100 103.6 79.1 159.8 79.1 159.8z" fill="url(#g)"/></g><g stroke-width="3.09437" transform="matrix(.26351092 0 0 .26351092 142.65164 127.82412)"><g fill="#9da0a3"><path d="m679-282.8c-10.7 0-19.7-3.5-26.5-10.4-15.2-15.1-17.3-43.2-17.3-58.6 0-20.7 4.2-68.9 43.8-68.9s44 48.2 44 68.9c-.1 20.8-4.4 69-44 69zm0-152.1c-37.7 0-59.3 30.3-59.3 83.2 0 52.8 21.6 83.1 59.3 83.1 21.4 0 37.4-9.3 47.5-27.8 9.7-17.6 11.7-39.8 11.7-55.4 0-24.9-5.8-83.1-59.2-83.1"/><path d="m551.7-282.8c-22.4 0-40-18-40-41 0-23.9 17.2-41.9 40-41.9 10.4 0 20.1 4 27.3 11.3 7.9 7.9 12.4 19.1 12.4 30.6 0 23-17.5 41-39.7 41zm0-97.1c-17.1 0-32.9 8.4-42.5 22.2 1.9-30.1 11.6-62.9 44.3-62.9 18.3 0 32.2 11.9 35.2 30.4l.5 2.9h15.2l-.3-3.8c-3-26.9-22.4-43.7-50.7-43.7-49.6 0-60.1 49.3-60.1 90.7 0 49.4 20.2 75.6 58.3 75.6 31.4 0 55-23.8 55-55.3.1-32.5-23-56.1-54.9-56.1"/><path d="m455.9-357.5c13.4-6.2 21.9-19.5 21.9-35.3 0-11.1-3.7-20.5-10.9-27.8-9.2-9.2-24.5-14.5-41.5-14.5-28.1 0-47.5 16.7-50.5 43.7l-.4 3.8h15.2l.5-2.9c3-18.5 16.9-30.4 35.2-30.4 18.4 0 37.2 9.6 37.2 28.1 0 7.9-2.5 14.3-7.4 18.9-7.8 7.6-22.4 9.5-29.9 9.5-2.7 0-6.7.1-10.7.1-.1 3.9-.1 11.3 0 15h10.7c14.2.1 25.3 3.1 32.2 9.6 5.7 5.3 8.6 12.8 8.6 22.2 0 22.7-20.5 34.5-40.7 34.5-13.2 0-24-4-31.3-11.6-7.2-7.5-10.8-18.2-10.2-31.1l.1-3.6h-15.3l-.1 3.3c-.8 17 3.8 31.3 13.3 41.2 10 10.4 25.1 15.9 43.6 15.9 34 0 56-19.1 56-48.8-.2-18.7-9.9-33.5-25.6-39.8"/></g><g fill="#95c343"><path d="m330.9-272.5-61.1-83.1 55.7-75.5h-20.9l-45.3 61.6-45.3-61.7h-20.8l55.6 75.5-60.9 83.1h20.9l50.5-68.8 50.7 68.8h20.9"/><path d="m-84.8-272.5-60.9-83.1 55.6-75.5h-20.8l-45.3 61.6-45.3-61.6h-20.9l55.7 75.5-61.1 83.1h20.9l50.7-68.8 50.5 68.8z"/><path d="m-11.8-289.1h-46.6v-57.7h46.6c17.8 0 38.8 4.8 38.8 27.6 0 26.2-24.3 30.1-38.8 30.1zm-46.5-125.5h46.6c12.6 0 33.7 3.2 33.7 25.2 0 16.7-12.3 26.6-33.7 26.6h-46.6zm89.4 65c-3.3-2.9-6.8-5-10.4-6.6 11.5-6.3 19-18 19-31.8 0-10.1-3.7-43.2-51.5-43.2h-64.3v68.4h-21.4c-2.9 3.6-9.2 12.3-11.6 15.9h33.1v74.3h64.3c35 0 56.7-17.7 56.7-46.3-.1-12.4-4.9-23-13.9-30.7"/><path d="m128.6-285.8c-34 0-57.8-27.2-57.8-66.1s23.8-66.1 57.8-66.1c33.9 0 57.5 27.2 57.5 66.1.1 38.9-23.6 66.1-57.5 66.1zm0-149c-44.7 0-75.8 34.1-75.8 82.9s31.1 82.9 75.8 82.9c44.4 0 75.5-34.1 75.5-82.9.1-48.8-31.1-82.9-75.5-82.9"/></g></g></svg>