<?xml version="1.0" encoding="windows-1252"?>
<!-- Generator: Adobe Illustrator 19.0.0, SVG Export Plug-In . SVG Version: 6.00 Build 0)  -->
<svg version="1.1" id="Layer_1" xmlns="http://www.w3.org/2000/svg" xmlns:xlink="http://www.w3.org/1999/xlink" x="0px" y="0px" viewBox="0 0 512 512" style="enable-background:new 0 0 512 512;" xml:space="preserve">
<path style="fill:#E4EAF6;" d="M450.207,100.871c-38.621-24.62-88.49-25.879-102.621-14.548  c-23.724,19.025-56.276,23.501-91.586,23.501s-67.862-4.477-91.586-23.501c-14.131-11.331-64-10.072-102.621,14.548  C34.846,118.049,0,308.462,0,360.5c0,47.001,18.676,67.748,44.138,71.621c29.426,4.477,61.793-26.858,88.276-53.716  c26.483-26.858,88.276-35.811,123.586-35.811s97.103,8.952,123.586,35.811c26.483,26.858,58.85,58.193,88.276,53.716  C493.324,428.248,512,407.501,512,360.5C512,308.462,477.154,118.049,450.207,100.871z"/>
<circle style="fill:#D7DEED;" cx="176.552" cy="264.828" r="52.966"/>
<circle style="fill:#C7CFE2;" cx="256" cy="176.552" r="26.483"/>
<path style="fill:#D7DEED;" d="M450.207,100.871c-38.621-24.62-88.49-25.879-102.621-14.548c-23.724,19.025-56.276,23.5-91.586,23.5  s-67.862-4.477-91.586-23.5c-14.131-11.331-64-10.072-102.621,14.548c-3.602,2.296-7.346,7.763-11.127,15.503  c42.865-18.797,73.109-19.822,92.782-19.822c9.931,0,32.356,20.167,40.828,25.379c14.345,8.828,41.379,10.483,71.724,10.483  s57.379-1.655,71.724-10.483c8.471-5.213,30.897-25.379,40.828-25.379c19.673,0,49.918,1.025,92.782,19.822  C457.553,108.633,453.809,103.167,450.207,100.871z"/>
<path style="fill:#D2FA50;" d="M256,207.448c-17.035,0-30.897-13.863-30.897-30.897s13.863-30.897,30.897-30.897  s30.897,13.863,30.897,30.897S273.035,207.448,256,207.448z M256,154.483c-12.172,0-22.069,9.901-22.069,22.069  c0,12.168,9.897,22.069,22.069,22.069s22.069-9.901,22.069-22.069C278.069,164.384,268.172,154.483,256,154.483z"/>
<g>
	<path style="fill:#D7DEED;" d="M203.034,185.379h-8.828c-4.875,0-8.828-3.953-8.828-8.828l0,0c0-4.875,3.953-8.828,8.828-8.828   h8.828c4.875,0,8.828,3.953,8.828,8.828l0,0C211.862,181.427,207.91,185.379,203.034,185.379z"/>
	<path style="fill:#D7DEED;" d="M317.793,185.379h-8.828c-4.875,0-8.828-3.953-8.828-8.828l0,0c0-4.875,3.953-8.828,8.828-8.828   h8.828c4.875,0,8.828,3.953,8.828,8.828l0,0C326.621,181.427,322.668,185.379,317.793,185.379z"/>
	<circle style="fill:#D7DEED;" cx="335.448" cy="264.828" r="52.966"/>
</g>
<g>
	<circle style="fill:#707487;" cx="176.552" cy="264.828" r="44.138"/>
	<circle style="fill:#707487;" cx="335.448" cy="264.828" r="30.897"/>
</g>
<circle style="fill:#D7DEED;" cx="105.931" cy="176.552" r="52.966"/>
<circle style="fill:#707487;" cx="105.931" cy="176.552" r="30.897"/>
<circle style="fill:#82B9FF;" cx="370.759" cy="176.552" r="17.655"/>
<circle style="fill:#FF6464;" cx="441.379" cy="176.552" r="17.655"/>
<g>
	<path style="fill:#5B5D6E;" d="M219.432,254.769c-3.808-16.266-16.556-29.013-32.822-32.822c-0.724,2.414-1.231,4.92-1.231,7.57   c0,14.626,11.857,26.483,26.483,26.483C214.511,256,217.018,255.493,219.432,254.769z"/>
	<path style="fill:#5B5D6E;" d="M133.672,254.769c2.414,0.724,4.92,1.231,7.57,1.231c14.626,0,26.483-11.857,26.483-26.483   c0-2.649-0.506-5.156-1.231-7.57C150.228,225.756,137.48,238.504,133.672,254.769z"/>
	<path style="fill:#5B5D6E;" d="M219.432,274.887c-2.414-0.724-4.92-1.231-7.57-1.231c-14.626,0-26.483,11.857-26.483,26.483   c0,2.649,0.506,5.156,1.231,7.57C202.876,303.9,215.624,291.152,219.432,274.887z"/>
	<path style="fill:#5B5D6E;" d="M141.241,273.655c-2.649,0-5.156,0.506-7.57,1.231c3.808,16.266,16.556,29.013,32.822,32.822   c0.724-2.414,1.231-4.92,1.231-7.57C167.724,285.512,155.868,273.655,141.241,273.655z"/>
</g>
<circle style="fill:#00DCC8;" cx="406.069" cy="211.862" r="17.655"/>
<circle style="fill:#FFDC50;" cx="406.069" cy="141.241" r="17.655"/>
<path style="fill:#707487;" d="M388.109,370.759c-28.309-32.9-94.364-43.868-132.109-43.868s-103.8,10.967-132.109,43.868  c-24.396,28.354-53.461,56.172-81.162,61.085c0.473,0.085,0.931,0.205,1.409,0.278c29.426,4.477,61.793-26.858,88.276-53.717  S220.69,342.593,256,342.593s97.103,8.952,123.586,35.811s58.85,58.193,88.276,53.717c0.478-0.073,0.937-0.193,1.409-0.278  C441.57,426.931,412.505,399.113,388.109,370.759z"/>
<g>
</g>
<g>
</g>
<g>
</g>
<g>
</g>
<g>
</g>
<g>
</g>
<g>
</g>
<g>
</g>
<g>
</g>
<g>
</g>
<g>
</g>
<g>
</g>
<g>
</g>
<g>
</g>
<g>
</g>
</svg>