<svg height="148pt" preserveAspectRatio="xMidYMid meet" viewBox="0 0 224 148" width="224pt" xmlns="http://www.w3.org/2000/svg"><g fill="#ddd" transform="matrix(.1 0 0 -.1 0 148)"><path d="m556 1440c-76-38-116-105-116-195 0-66 16-109 56-149 115-115 317-69 363 83 30 101-6 194-97 252-38 24-57 29-106 29-39-1-75-8-100-20z"/><path d="m224 1072c-6-4-23-59-38-122s-43-180-62-260c-20-80-46-192-60-250s-30-124-36-148c-6-23-9-44-7-46s40-26 84-53c44-28 122-78 174-112l93-61h746 746l35 24c20 13 95 61 166 106 161 102 159 100 147 131-6 13-15 47-21 74-10 47-42 186-96 410-13 55-34 140-45 190-12 49-26 97-31 107-9 17-41 18-537 18-290 0-531-4-537-8-5-4-32-30-58-58l-48-51 49-32c124-79 202-220 202-365 0-186-114-348-294-419-78-31-212-30-291 2-169 69-276 208-292 382-14 144 77 320 206 399 22 14 41 27 41 30s-24 31-53 63l-53 57h-60c-32 0-64-4-70-8zm1179-143c41-21 77-62 83-95 13-70-54-144-132-144-79 0-147 85-124 155 24 72 113 115 173 84zm508-38c31-31 39-46 39-75 0-123-147-174-229-80-46 52-44 104 8 155 35 35 44 39 91 39s56-4 91-39zm-484-432c37-23 63-65 63-101 0-33-35-85-72-109-78-48-188 13-191 105-3 99 112 159 200 105zm450 4c94-44 95-170 3-218-112-58-235 66-171 171 20 33 72 63 109 64 13 0 40-8 59-17z"/><path d="m610 731c0-173 1-180 22-195 15-11 26-12 40-5 16 9 18 25 18 194v185h-40-40z"/></g></svg>