<?xml version="1.0" encoding="UTF-8" standalone="no"?>
<!DOCTYPE svg PUBLIC "-//W3C//DTD SVG 20010904//EN" "http://www.w3.org/TR/2001/REC-SVG-20010904/DTD/svg10.dtd">
<svg version="1.0" xmlns="http://www.w3.org/2000/svg" width="224.000000pt" height="148.000000pt" viewBox="0 0 224.000000 148.000000" preserveAspectRatio="xMidYMid meet">

<g transform="translate(0.000000,148.000000) scale(0.100000,-0.100000)" stroke="none" fill="#dddddd">
<path d="M556 1440 c-76 -38 -116 -105 -116 -195 0 -66 16 -109 56 -149 115 -115 317 -69 363 83 30 101 -6 194 -97 252 -38 24 -57 29 -106 29 -39 -1 -75 -8 -100 -20z"/>
<path d="M224 1072 c-6 -4 -23 -59 -38 -122 -15 -63 -43 -180 -62 -260 -20 -80 -46 -192 -60 -250 -14 -58 -30 -124 -36 -148 -6 -23 -9 -44 -7 -46 2 -2 40 -26 84 -53 44 -28 122 -78 174 -112 l93 -61 746 0 746 0 35 24 c20 13 95 61 166 106 161 102 159 100 147 131 -6 13 -15 47 -21 74 -10 47 -42 186 -96 410 -13 55 -34 140 -45 190 -12 49 -26 97 -31 107 -9 17 -41 18 -537 18 -290 0 -531 -4 -537 -8 -5 -4 -32 -30 -58 -58 l-48 -51 49 -32 c124 -79 202 -220 202 -365 0 -186 -114 -348 -294 -419 -78 -31 -212 -30 -291 2 -169 69 -276 208 -292 382 -14 144 77 320 206 399 22 14 41 27 41 30 0 3 -24 31 -53 63 l-53 57 -60 0 c-32 0 -64 -4 -70 -8z m1179 -143 c41 -21 77 -62 83 -95 13 -70 -54 -144 -132 -144 -79 0 -147 85 -124 155 24 72 113 115 173 84z m508 -38 c31 -31 39 -46 39 -75 0 -123 -147 -174 -229 -80 -46 52 -44 104 8 155 35 35 44 39 91 39 47 0 56 -4 91 -39z m-484 -432 c37 -23 63 -65 63 -101 0 -33 -35 -85 -72 -109 -78 -48 -188 13 -191 105 -3 99 112 159 200 105z m450 4 c94 -44 95 -170 3 -218 -112 -58 -235 66 -171 171 20 33 72 63 109 64 13 0 40 -8 59 -17z"/>
<path d="M610 731 c0 -173 1 -180 22 -195 15 -11 26 -12 40 -5 16 9 18 25 18 194 l0 185 -40 0 -40 0 0 -179z"/>
</g>
</svg>